<svg width="249" height="197" viewBox="0 0 249 197" fill="none" xmlns="http://www.w3.org/2000/svg">
<path d="M91.0775 140.926C91.7901 140.596 92.5027 140.124 93.2153 139.652C93.4053 139.558 93.5954 139.416 93.8329 139.322C93.8804 139.275 93.9279 139.275 94.0704 139.228L94.1654 139.228C94.2129 139.228 94.1655 139.228 94.308 139.228C94.4505 139.228 94.593 139.322 94.6405 139.369L94.6879 139.416C94.783 139.511 94.8305 139.605 94.8305 139.699C94.878 139.794 94.878 139.888 94.878 139.935C94.9255 140.548 94.783 140.926 94.7355 141.35C94.688 141.539 94.688 141.775 94.6405 141.963C94.6405 142.152 94.6405 142.341 94.6405 142.341C94.593 142.294 94.6405 142.341 94.7355 142.341C94.783 142.341 94.973 142.341 95.1156 142.294C95.4481 142.199 95.8281 142.011 96.2557 141.822C96.4932 141.728 96.7307 141.633 97.0633 141.633C97.1583 141.633 97.2533 141.633 97.3483 141.633C97.4434 141.633 97.5383 141.68 97.6809 141.728C97.7759 141.775 97.8709 141.822 97.9659 141.916C98.061 142.011 98.061 142.011 98.1085 142.058C99.3912 143.284 100.531 144.511 101.766 145.69L102.242 146.115L102.337 146.209C102.384 146.256 102.479 146.398 102.574 146.492C102.669 146.681 102.764 146.87 102.812 147.011C102.954 147.624 102.907 148.096 102.859 148.568C102.764 149.511 102.574 150.36 102.337 151.209C101.909 152.908 101.386 154.559 100.769 156.163C100.199 157.814 99.5336 159.371 98.8685 160.974C97.4908 164.135 96.0181 167.248 94.4504 170.315C93.6428 171.824 92.8353 173.381 91.9327 174.843C91.5051 175.598 91.03 176.353 90.5075 177.06C90.2699 177.438 89.9848 177.815 89.6998 178.145C89.5573 178.334 89.3673 178.523 89.1773 178.711C89.0823 178.806 88.9873 178.9 88.8447 178.994L88.5597 179.183C85.8043 181.353 82.9539 183.287 79.961 185.033C73.9752 188.571 67.5619 191.448 60.816 193.241C57.443 194.137 53.9751 194.75 50.4596 194.939C46.9441 195.128 43.3812 194.892 39.9132 193.996C36.4452 193.147 33.1672 191.637 30.3168 189.514C28.9866 188.524 27.5139 187.721 26.0412 186.731C25.3286 186.212 24.5685 185.646 23.9035 184.986C23.5709 184.608 23.2859 184.231 23.0009 183.806L22.8109 183.476L22.6684 183.193L22.3833 182.627C19.3429 176.447 16.7301 170.126 14.3548 163.663L13.4996 161.257L13.0721 160.031L12.882 159.418L12.692 158.946C12.3595 158.333 11.8369 157.719 11.2193 157.248C10.6017 156.729 9.93664 156.304 9.22404 155.927C8.51145 155.597 7.75137 155.314 6.99126 155.172C6.23116 155.03 5.47101 154.983 4.80593 155.172C4.6159 155.219 4.47338 155.313 4.33086 155.361C4.14084 155.408 4.09331 155.502 3.95079 155.596C3.66575 155.785 3.42824 156.068 3.1432 156.399C2.62063 157.012 2.19312 157.719 1.76557 158.38L1.76557 158.427C1.57554 158.757 1.10043 158.899 0.767886 158.71C0.625366 158.616 0.482871 158.474 0.435364 158.333C0.245339 157.767 0.102866 157.2 0.00785334 156.587C0.00785334 156.257 -0.0396762 155.927 0.102843 155.502C0.197856 155.219 0.245362 155.172 0.340375 155.031L0.530354 154.653C1.05292 153.662 1.7655 152.719 2.5256 151.87C3.33321 151.021 4.37837 150.36 5.51852 149.983C6.65867 149.606 7.89391 149.558 9.03406 149.7C11.3619 150.077 13.3571 151.162 15.2099 152.342C17.0626 153.521 18.7728 154.889 20.483 156.257C22.1457 157.625 23.8085 159.04 25.5187 160.361C26.3739 161.021 27.229 161.635 28.1316 162.201C28.3691 162.342 28.5591 162.484 28.7966 162.578L29.1292 162.767C29.2242 162.814 29.3668 162.861 29.4618 162.908L29.7943 163.05L30.1744 163.144C30.4119 163.191 30.6494 163.286 30.9344 163.286C32.9772 163.522 35.115 163.239 37.2052 162.861C39.2955 162.484 41.3859 161.965 43.4762 161.399C47.6092 160.22 51.6947 158.804 55.7327 157.248C59.7708 155.691 63.7613 154.04 67.6569 152.2C69.6046 151.257 71.5524 150.313 73.3576 149.228C75.1629 148.049 77.0631 146.917 78.9634 145.879C80.9112 144.841 82.8114 143.898 84.8067 142.954C86.992 142.247 89.0823 141.681 91.0775 140.926ZM91.41 141.775C89.3673 142.577 87.2295 143.143 85.2818 143.898C83.3815 144.794 81.4337 145.785 79.5335 146.822C77.6332 147.86 75.828 148.945 73.9752 150.172C72.075 151.304 70.1272 152.247 68.1795 153.191C64.2365 155.078 60.2458 156.776 56.2078 158.333C52.1697 159.889 48.0367 161.352 43.8561 162.531C41.7659 163.144 39.6281 163.663 37.4903 164.041C35.3525 164.418 33.1197 164.748 30.8394 164.512C30.5544 164.512 30.2693 164.418 29.9843 164.371C29.8418 164.324 29.6993 164.324 29.5568 164.277L29.1292 164.135C28.9866 164.088 28.8442 164.041 28.7016 163.946L28.3216 163.758C28.084 163.616 27.8465 163.475 27.609 163.333C26.6589 162.767 25.7563 162.107 24.9011 161.446C23.1434 160.125 21.5282 158.71 19.818 157.389C18.1553 156.021 16.445 154.748 14.6397 153.615C12.8345 152.483 10.9342 151.54 8.93896 151.209C7.94132 151.068 6.94376 151.115 6.04114 151.445C5.13852 151.776 4.33086 152.294 3.61827 153.002C2.95318 153.757 2.33562 154.559 1.86055 155.455L1.67058 155.785C1.62307 155.88 1.52803 156.068 1.52803 156.021C1.48053 156.068 1.48053 156.304 1.52803 156.54C1.57554 156.965 1.71804 157.484 1.86055 157.908L0.530354 157.814C1.00542 157.012 1.48046 156.304 2.05053 155.596C2.33557 155.219 2.66816 154.889 3.04821 154.559C3.23824 154.417 3.52328 154.229 3.76081 154.134C3.99834 154.04 4.23587 153.946 4.4734 153.851C5.47104 153.568 6.46872 153.615 7.37134 153.804C8.32147 153.993 9.17658 154.276 9.98419 154.7C10.7918 155.125 11.5994 155.597 12.312 156.21C13.0245 156.823 13.6896 157.484 14.1647 158.38C14.2597 158.616 14.4022 158.852 14.4497 159.087L14.6397 159.701L15.0673 160.88L15.9225 163.286C18.2978 169.654 21.0057 175.928 23.9986 182.013L24.2835 182.58L24.4261 182.863L24.5686 183.099C24.7586 183.382 24.9961 183.665 25.2337 183.948C25.7562 184.514 26.3739 184.986 27.0865 185.457C28.4167 186.401 29.9843 187.203 31.457 188.24C34.1649 190.175 37.2053 191.543 40.4357 192.297C43.6661 193.099 47.0391 193.288 50.3646 193.099C53.69 192.91 57.0154 192.297 60.2934 191.401C66.8018 189.609 73.0251 186.778 78.8684 183.334C81.7663 181.589 84.5691 179.702 87.2295 177.626L87.467 177.438C87.5145 177.391 87.562 177.343 87.6095 177.296C87.7046 177.202 87.847 177.06 87.9421 176.919C88.1796 176.636 88.4171 176.306 88.6547 175.975C89.1297 175.315 89.5573 174.607 89.9849 173.853C90.84 172.39 91.6476 170.928 92.4077 169.418C93.9754 166.399 95.4006 163.333 96.7307 160.22C98.0609 157.106 99.3911 153.993 100.436 150.832C100.674 150.03 100.911 149.228 101.054 148.474C101.101 148.096 101.149 147.719 101.101 147.483C101.101 147.436 101.101 147.436 101.101 147.436L101.149 147.483L101.054 147.341L100.626 146.869C99.4861 145.596 98.3935 144.228 97.2533 143.001C97.1583 142.907 97.1583 142.954 97.2058 142.907L97.1584 142.907C97.0633 142.907 96.8733 142.954 96.7307 143.001C96.3507 143.096 95.9707 143.284 95.4956 143.426C95.2581 143.473 94.973 143.567 94.5929 143.473C94.4029 143.426 94.213 143.379 94.0704 143.237C93.9754 143.19 93.9279 143.143 93.8329 143.049C93.7379 142.954 93.6904 142.86 93.6904 142.766C93.5954 142.388 93.6428 142.152 93.6428 141.916C93.6903 141.68 93.7379 141.445 93.7854 141.256C93.8804 140.831 93.9754 140.407 93.9279 140.171C93.9279 140.124 93.8804 140.077 93.9279 140.124C93.9754 140.171 94.0704 140.265 94.1654 140.265C94.308 140.265 94.2129 140.265 94.2604 140.265L94.1654 140.312C94.0229 140.407 93.8328 140.501 93.6428 140.596C92.9777 140.926 92.2652 141.397 91.41 141.775Z" fill="black"/>
<path d="M13.1663 158.904C13.0713 159.093 13.8314 158.81 13.6888 158.291C13.5938 158.15 13.5939 158.15 13.5939 158.15L13.6414 158.15L13.784 158.197L14.1165 158.338L14.7815 158.621L16.1593 159.235C17.0619 159.659 17.9645 160.084 18.8672 160.555C19.7698 161.027 20.6248 161.499 21.5275 162.112C22.0025 162.442 22.3351 162.725 22.7627 163.008L23.9504 163.858C27.0858 166.122 30.5063 168.056 34.1643 169.282C35.9696 169.896 37.8699 170.32 39.7701 170.509L42.7155 170.745C43.7132 170.792 44.6633 170.792 45.6609 170.839C49.604 170.886 53.4996 170.603 57.3476 169.896C65.0437 168.528 72.4548 165.414 78.4881 160.414L80.6734 158.48L82.7162 156.404C83.3813 155.697 83.9989 154.942 84.6164 154.187L85.0915 153.621C85.2815 153.432 85.4241 153.196 85.6141 153.008C85.9467 152.63 86.2792 152.253 86.6593 151.876C88.037 150.413 89.4621 149.045 90.7923 147.583C91.4574 146.875 92.1226 146.12 92.7402 145.366C93.0252 144.988 93.3578 144.611 93.5953 144.234C93.8328 143.856 94.1178 143.384 94.1178 143.148L94.1178 143.101C94.1178 142.865 94.3554 142.63 94.6404 142.677C94.878 142.677 95.1154 142.913 95.0679 143.196C95.0204 143.95 94.6879 144.375 94.4503 144.8C94.1653 145.224 93.8803 145.649 93.5953 146.073C92.9777 146.875 92.3601 147.63 91.695 148.385C90.3648 149.894 88.9871 151.357 87.657 152.819C87.3244 153.196 86.9919 153.574 86.7068 153.904C86.5643 154.093 86.4217 154.281 86.2792 154.47L85.8041 155.083C85.1865 155.885 84.5689 156.687 83.9038 157.442L81.861 159.659L79.6282 161.735C73.4524 167.018 65.7563 170.415 57.8227 171.971C53.8321 172.726 49.7465 173.057 45.7085 173.009C44.7108 172.962 43.6656 172.962 42.668 172.915L39.6276 172.679C37.5373 172.49 35.4945 172.019 33.5467 171.358C29.6036 170.085 25.9931 168.056 22.7151 165.697C22.2876 165.414 21.9076 165.084 21.48 164.801C21.1 164.518 20.6723 164.141 20.3398 163.905C19.6272 163.339 18.7721 162.82 17.9645 162.254C17.1568 161.688 16.3017 161.169 15.4941 160.603L14.259 159.754L13.6414 159.282L13.3563 159.046L13.2138 158.904L13.1188 158.81L13.0714 158.763C13.0714 158.763 13.0238 158.763 12.9288 158.574C12.7863 158.008 13.5938 157.772 13.4513 157.914L13.5464 157.914C13.784 157.961 13.9265 158.244 13.8789 158.48C13.6414 158.81 13.4039 158.951 13.1663 158.904Z" fill="black"/>
<path d="M239.44 168.336C239.25 168.1 239.107 167.864 238.917 167.676C238.727 167.487 238.537 167.345 238.3 167.204C238.062 167.015 237.825 166.874 237.587 166.732C237.397 166.591 237.112 166.543 237.159 166.591C237.159 166.591 237.349 166.591 237.444 166.543C237.539 166.496 237.492 166.496 237.492 166.543C237.445 166.685 237.397 166.921 237.349 167.204C237.254 167.77 237.207 168.383 237.065 169.044C236.922 169.704 236.827 170.412 236.447 171.166C236.067 171.827 235.687 172.487 235.117 173.006C234.594 173.525 233.976 173.95 233.454 174.28C232.931 174.61 232.504 174.94 232.219 175.271C231.601 175.931 231.316 176.969 231.221 178.148C231.174 178.431 231.174 178.714 231.174 179.045L231.174 179.516C231.174 179.799 231.126 179.988 231.079 180.177C230.889 180.884 230.698 181.45 230.556 182.064C230.366 182.63 230.223 183.243 230.128 183.762C230.081 184.045 230.081 184.281 230.081 184.47C230.128 184.658 230.128 184.8 230.176 184.753C230.176 184.8 230.223 184.753 230.176 184.8L230.556 184.989C230.841 185.13 231.079 185.224 231.364 185.319C231.649 185.413 231.886 185.555 232.171 185.602C232.456 185.696 232.741 185.743 232.979 185.79C234.071 186.026 235.164 185.979 236.209 185.649C237.255 185.319 238.252 184.658 239.155 183.903C239.63 183.526 240.057 183.102 240.532 182.677C240.722 182.488 241.008 182.205 241.293 182.016C241.53 181.781 241.815 181.592 242.1 181.403C243.145 180.648 244.143 179.988 244.666 179.092C244.808 178.856 244.903 178.62 244.998 178.384C245.093 178.148 245.093 177.96 245.141 177.724C245.141 177.252 244.998 176.733 244.761 176.12C244.571 175.506 244.286 174.846 244.286 174.044L244.333 172.157C244.381 170.931 244.428 169.61 243.716 169.138C243.335 168.855 242.813 168.666 242.195 168.572C241.625 168.477 241.008 168.43 240.39 168.383C240.152 168.383 239.915 168.147 239.962 167.911C239.962 167.676 240.2 167.487 240.437 167.487C241.103 167.487 241.72 167.487 242.433 167.534C243.098 167.628 243.81 167.77 244.476 168.195C244.808 168.43 245.093 168.761 245.283 169.091C245.378 169.279 245.426 169.468 245.473 169.61C245.521 169.798 245.568 169.987 245.616 170.129C245.711 170.836 245.711 171.497 245.758 172.11L245.758 173.997C245.758 174.469 245.996 174.988 246.233 175.554C246.471 176.12 246.756 176.827 246.804 177.629C246.804 178.007 246.756 178.479 246.613 178.856C246.471 179.186 246.328 179.564 246.138 179.847C245.378 181.167 244.191 181.969 243.24 182.724C242.765 183.101 242.338 183.479 241.91 183.903C241.435 184.375 240.96 184.8 240.485 185.224C239.487 186.074 238.347 186.923 236.969 187.394C236.304 187.677 235.592 187.772 234.832 187.866C234.119 187.913 233.359 187.866 232.694 187.725C232.361 187.677 231.981 187.583 231.649 187.489C231.316 187.394 230.984 187.3 230.651 187.159C230.318 187.064 230.033 186.923 229.701 186.781L229.226 186.592C228.988 186.404 228.703 186.262 228.513 186.026C228.086 185.554 228.038 185.036 227.943 184.564C227.896 184.139 227.943 183.762 227.991 183.385C228.086 182.677 228.276 182.017 228.466 181.403C228.656 180.79 228.846 180.177 228.941 179.658C228.988 179.516 228.988 179.422 228.988 179.375C228.988 179.375 228.988 179.233 228.988 179.186L228.988 178.95C228.988 178.62 228.988 178.29 229.036 177.96C229.083 177.299 229.178 176.591 229.416 175.884C229.606 175.176 230.033 174.469 230.508 173.855C231.031 173.242 231.649 172.818 232.171 172.487C232.694 172.11 233.121 171.827 233.501 171.449C233.882 171.119 234.119 170.647 234.356 170.223C234.547 169.846 234.689 169.28 234.784 168.713C234.879 168.147 234.974 167.487 235.117 166.827C235.212 166.496 235.307 166.119 235.544 165.694C235.687 165.459 235.829 165.223 236.162 164.987C236.494 164.751 236.969 164.657 237.302 164.704C237.967 164.845 238.3 165.128 238.585 165.364C238.87 165.6 239.107 165.883 239.345 166.166C239.535 166.402 239.82 166.732 239.962 167.11C240.105 167.44 240.2 167.817 240.247 168.147C240.295 168.43 240.105 168.666 239.82 168.713C239.725 168.572 239.535 168.525 239.44 168.336Z" fill="black"/>
<path d="M245.569 177.392C245.901 172.014 246.471 166.683 245.949 161.494C245.901 160.834 245.806 160.22 245.711 159.56L245.569 158.617C245.521 158.286 245.474 158.05 245.379 157.767C245.046 156.682 244.334 155.645 243.573 154.607L242.338 153.003C241.911 152.437 241.531 151.776 241.198 151.305C240.533 150.22 239.725 149.229 238.87 148.238C235.402 144.417 230.652 141.964 225.616 140.549C220.58 139.134 215.212 138.756 209.891 138.898C204.571 139.087 199.25 139.841 194.072 141.115C188.894 142.342 183.81 144.04 179.012 146.304C176.637 147.436 174.309 148.71 172.219 150.267C170.129 151.823 168.228 153.663 166.471 155.597C164.713 157.579 163.05 159.654 161.435 161.777L159.012 164.985C158.585 165.504 158.205 166.07 157.825 166.589C157.445 167.108 157.065 167.627 156.732 168.193C153.929 172.627 152.171 177.675 150.081 182.675C149.036 185.175 147.848 187.628 146.376 189.987C145.996 190.553 145.615 191.166 145.188 191.685C144.76 192.251 144.333 192.817 143.858 193.336C143.383 193.855 142.908 194.421 142.433 194.846C142.243 195.034 142.053 195.27 142.005 195.365C142.005 195.365 142.005 195.365 142.005 195.317C142.005 195.27 142.005 195.129 141.91 195.034C141.863 194.987 141.863 194.94 141.815 194.94C141.768 194.893 141.673 194.846 141.578 194.799C141.387 194.751 141.245 194.799 141.197 194.799L143.81 192.251C144.76 191.308 145.758 190.364 146.851 189.468C147.373 189.043 147.943 188.572 148.561 188.194C149.178 187.77 149.796 187.487 150.414 187.157C151.649 186.543 152.884 185.93 154.119 185.411C156.637 184.326 159.25 183.477 161.958 182.864C164.666 182.25 167.326 181.826 169.986 181.448C170.699 181.401 171.411 181.307 172.124 181.307C172.837 181.307 173.502 181.307 174.214 181.354C175.592 181.401 176.97 181.59 178.3 181.732C181.008 182.109 183.668 182.581 186.328 183.147C191.649 184.232 196.875 185.552 202.1 187.015C204.713 187.722 207.326 188.524 209.891 189.374C212.362 190.175 215.022 190.459 217.635 190.176C222.908 189.657 227.944 187.345 233.407 186.732C233.645 186.685 233.882 186.873 233.93 187.157C233.977 187.392 233.787 187.628 233.502 187.675C230.889 188.005 228.276 188.713 225.711 189.468C223.146 190.223 220.485 190.977 217.73 191.308C214.975 191.638 212.124 191.402 209.464 190.553C206.899 189.751 204.333 188.996 201.72 188.289C196.495 186.921 191.269 185.647 185.996 184.609C183.336 184.09 180.723 183.666 178.062 183.288C175.402 183.005 172.694 182.722 170.224 183.005C167.563 183.43 164.903 183.807 162.338 184.42C159.772 185.034 157.255 185.883 154.832 186.968C153.644 187.487 152.409 188.053 151.269 188.713C150.699 189.043 150.081 189.326 149.606 189.657C149.083 189.987 148.561 190.411 148.086 190.836C147.088 191.685 146.138 192.581 145.188 193.525L143.763 194.94L143.05 195.648C142.955 195.742 142.813 195.884 142.67 196.025C142.48 196.167 142.338 196.355 141.957 196.497C141.767 196.591 141.435 196.638 141.102 196.497C140.912 196.45 140.77 196.355 140.675 196.261C140.58 196.167 140.485 196.072 140.437 195.931C140.295 195.695 140.247 195.365 140.247 195.176C140.247 194.94 140.342 194.799 140.39 194.61C140.627 194.091 140.912 193.808 141.197 193.525C141.72 193.006 142.1 192.581 142.528 192.11C142.955 191.638 143.335 191.072 143.715 190.6C144.095 190.081 144.428 189.515 144.808 188.996C146.186 186.779 147.278 184.373 148.323 181.92C150.366 177.014 152.124 171.825 155.022 167.108C155.354 166.495 155.782 165.928 156.162 165.362C156.542 164.796 156.97 164.23 157.35 163.711L159.772 160.456C161.388 158.286 163.05 156.164 164.903 154.135C166.708 152.107 168.751 150.172 170.936 148.521C173.169 146.87 175.639 145.549 178.11 144.37C183.05 142.011 188.276 140.266 193.597 138.992C198.918 137.719 204.333 136.917 209.844 136.681C215.307 136.492 220.865 136.869 226.234 138.379C231.554 139.841 236.78 142.483 240.58 146.681C241.056 147.2 241.483 147.766 241.958 148.285C242.433 148.804 242.766 149.465 243.146 150.031C243.573 150.644 243.858 151.116 244.238 151.682L245.426 153.286C246.234 154.371 247.041 155.645 247.516 157.154C247.611 157.531 247.706 157.909 247.754 158.286L247.896 159.324C247.991 159.985 248.039 160.692 248.087 161.4C248.277 164.136 248.134 166.872 247.849 169.561C247.516 172.25 247.089 174.891 246.661 177.533C246.614 177.769 246.376 177.958 246.139 177.91C245.711 177.863 245.569 177.627 245.569 177.392Z" fill="black"/>
<path d="M236.352 166.448C236.21 166.212 235.877 166.023 235.497 165.834C235.117 165.693 234.69 165.551 234.214 165.41C233.312 165.174 232.409 165.032 231.459 164.891C229.559 164.608 227.658 164.419 225.711 164.231C223.763 164.042 221.863 163.947 219.915 163.9C218.965 163.9 217.967 163.853 217.065 163.9C216.589 163.9 216.162 163.948 215.734 163.995C215.259 164.089 214.737 164.136 214.262 164.231C210.271 164.749 206.375 164.797 202.527 165.221C198.679 165.599 194.879 166.401 191.078 167.297C183.477 169.042 176.019 171.354 168.655 173.995C166.803 174.656 164.997 175.316 163.192 176.024C161.387 176.731 159.629 177.581 157.871 178.43C156.113 179.279 154.403 180.175 152.741 181.166C151.933 181.685 151.078 182.156 150.318 182.722C149.605 183.288 148.797 183.949 148.512 184.609L148.512 184.656C148.417 184.892 148.132 184.987 147.895 184.892C147.657 184.798 147.562 184.515 147.657 184.326C147.895 183.713 148.227 183.336 148.607 182.958C148.987 182.581 149.368 182.251 149.748 181.92C150.555 181.307 151.363 180.741 152.17 180.175C153.833 179.09 155.543 178.147 157.301 177.25C159.059 176.354 160.817 175.458 162.622 174.656C164.475 173.901 166.28 173.146 168.133 172.486C175.496 169.703 182.955 167.25 190.651 165.315C194.499 164.372 198.394 163.57 202.337 163.145C206.281 162.721 210.224 162.627 214.024 162.108C214.499 162.061 214.974 161.966 215.449 161.919C216.019 161.825 216.542 161.777 217.065 161.777C218.062 161.73 219.06 161.73 220.057 161.73C222.053 161.777 224.048 161.872 225.996 162.013C227.991 162.202 229.939 162.438 231.934 162.957C232.932 163.193 233.882 163.476 234.832 163.9C235.307 164.089 235.782 164.372 236.257 164.702C236.685 165.032 237.207 165.457 237.35 166.212C237.397 166.448 237.255 166.684 236.97 166.778C236.78 166.825 236.59 166.731 236.495 166.589L236.352 166.448Z" fill="black"/>
<path d="M100.719 9.07858C101.574 8.98423 101.194 9.17279 101.337 9.17279L101.432 9.26723L101.622 9.40866L101.954 9.69174L102.572 10.3049L103.807 11.4842C104.615 12.2862 105.422 13.1825 106.135 14.0788C107.608 15.8714 108.985 17.7113 110.268 19.6454C112.738 23.5607 114.924 27.6648 116.349 32.1463C117.014 34.4106 117.537 36.6277 117.869 38.9392C118.249 41.2507 118.344 43.6565 118.154 46.0152C117.727 50.7325 116.016 55.4027 113.356 59.2709C110.743 63.1863 107.418 66.5356 104.045 69.6491C100.672 72.7625 97.1564 75.7344 93.8309 78.8479C90.5055 81.9613 87.3224 85.1692 84.7096 88.8015C83.4269 90.5941 82.1918 92.4808 81.2417 94.5093L80.8616 95.2641L80.5291 96.0189C80.3391 96.5378 80.1015 97.0097 79.9115 97.5286C79.579 98.5664 79.1514 99.604 78.9138 100.689C78.2962 102.812 78.0112 105.029 77.8687 107.246L77.7737 110.643C77.7262 111.775 77.7261 112.907 77.8211 113.945C77.8687 114.464 77.9637 114.983 78.1062 115.266C78.1062 115.313 78.1538 115.313 78.1538 115.36C78.2013 115.407 78.3437 115.549 78.4388 115.643L79.0564 116.256C79.864 117.105 80.624 117.954 81.3841 118.804C82.9043 120.502 84.4246 122.058 86.2299 123.285C87.1325 123.898 88.0826 124.464 89.0803 124.983L89.7929 125.361C90.0304 125.455 90.2204 125.55 90.4579 125.597C90.933 125.738 91.4555 125.832 91.9781 125.927C94.1159 126.257 96.4438 126.21 98.8191 126.54C100.007 126.729 101.289 126.917 102.524 127.861L102.952 128.191L103.285 128.474L103.902 128.993C104.33 129.37 104.71 129.748 105.137 130.078C106.943 131.352 108.795 132.531 110.886 133.286C114.971 134.89 119.484 135.55 123.95 135.173C128.416 134.843 132.786 133.569 136.729 131.588C138.724 130.597 140.577 129.37 142.382 128.002C142.857 127.672 143.238 127.295 143.665 126.917L144.9 125.785L145.233 125.502C145.518 125.266 145.803 125.125 146.088 125.078C146.611 124.983 146.943 125.031 147.323 125.078C147.988 125.219 148.606 125.408 149.176 125.644L150.743 126.351C151.219 126.587 151.741 126.729 152.264 126.917C153.309 127.248 154.401 127.436 155.494 127.625C157.679 127.955 159.96 128.05 162.193 127.955C166.706 127.814 171.219 127.2 175.542 125.927C177.68 125.313 179.627 124.37 181.148 122.908C182.715 121.445 183.76 119.558 184.473 117.483C184.853 116.445 185.138 115.36 185.376 114.275C185.661 113.19 185.898 112.058 186.373 110.831C186.516 110.548 186.658 110.218 186.848 109.935C186.943 109.794 187.086 109.605 187.228 109.463L187.561 109.133C188.036 108.708 188.511 108.331 189.034 108.001C190.031 107.34 191.076 106.775 192.122 106.256C194.164 105.218 196.207 104.227 197.87 102.859C199.485 101.491 200.72 99.6984 201.1 97.6228C201.528 95.5471 201.243 93.3772 200.673 91.2544C200.103 89.1316 199.295 87.0088 198.44 84.886C196.777 80.6875 194.687 76.6779 192.122 72.9984C191.789 72.5267 191.504 72.0548 191.124 71.6302L190.079 70.3095C189.319 69.4603 188.654 68.6113 187.846 67.8094C186.326 66.1583 184.616 64.6957 182.81 63.3749C179.2 60.686 175.114 58.6576 170.934 57.0065C166.706 55.3554 162.335 54.0348 157.917 52.7139C153.546 51.393 149.128 49.9777 144.805 48.2794C142.667 47.4303 140.53 46.4868 138.439 45.449C137.252 44.8829 136.397 43.9867 135.589 43.1376C134.781 42.2413 134.069 41.345 133.404 40.3544C130.743 36.5334 128.558 32.5236 126.373 28.5139C124.188 24.5041 122.002 20.4945 119.722 16.5791C117.394 12.6637 114.971 8.79545 111.978 5.44614C110.458 3.79508 108.795 2.23836 106.8 1.43641C106.277 1.24772 105.802 1.10629 105.28 1.05912C105.042 1.05912 104.757 1.01194 104.567 1.05912C104.52 1.05912 104.472 1.05893 104.425 1.1061C104.377 1.1061 104.33 1.10615 104.33 1.15332C104.282 1.15332 104.282 1.20054 104.282 1.20054C104.235 1.29489 104.235 1.53066 104.282 1.8137C104.282 2.09674 104.33 2.37997 104.33 2.71018C104.33 3.04039 104.282 3.41764 104.092 3.74786C103.902 4.12524 103.57 4.3612 103.285 4.54989C102.525 4.88011 101.859 4.78572 101.289 4.73854C100.719 4.6442 100.102 4.54985 99.6267 4.50268C99.5317 4.50268 99.3891 4.50268 99.3891 4.50268C99.3891 4.4555 99.3891 4.50268 99.3891 4.50268L99.2466 4.6441C99.1516 4.73845 99.0566 4.83284 99.0091 4.92719L98.8191 5.21028C98.6291 5.58766 98.6765 6.01227 98.8665 6.43683C99.0565 6.86139 99.4366 7.28599 99.8166 7.66338C100.197 8.04077 100.624 8.41811 101.052 8.79549C101.907 9.55027 102.81 10.3049 103.57 11.2484C103.712 11.4371 103.712 11.7675 103.475 11.909C103.285 12.0505 102.952 12.0504 102.81 11.8145C102.144 10.9654 101.289 10.2579 100.387 9.50309C99.9591 9.12571 99.5316 8.74832 99.104 8.32376C98.6765 7.8992 98.249 7.47459 97.9639 6.86134C97.6314 6.29526 97.5838 5.44619 97.9164 4.78576L98.2015 4.31403C98.2965 4.17251 98.439 4.07802 98.534 3.9365L98.6765 3.74786C98.724 3.70068 98.9616 3.55916 99.0566 3.51199C99.2941 3.41764 99.4841 3.46477 99.6741 3.46477C100.339 3.51194 100.862 3.65346 101.432 3.70064C101.955 3.74781 102.525 3.79512 102.81 3.60643C103.19 3.41774 103.332 3.1347 103.332 2.66296C103.332 2.4271 103.285 2.14396 103.285 1.86092C103.285 1.57788 103.19 1.24776 103.38 0.776029C103.475 0.540163 103.665 0.351377 103.902 0.209857C103.997 0.115511 104.092 0.115603 104.235 0.0684295C104.33 0.0212561 104.425 0.0212101 104.52 0.0212101C104.9 -0.0259632 105.185 0.0212101 105.517 0.0212101C106.135 0.0683834 106.753 0.257031 107.323 0.445724C109.603 1.38919 111.361 3.0403 112.928 4.73854C116.064 8.18219 118.534 12.0975 120.91 16.0129C123.285 19.9283 125.47 23.9853 127.703 27.9479C129.936 31.9105 132.121 35.9201 134.734 39.5996C135.399 40.4959 136.064 41.3922 136.824 42.1941C137.584 42.9961 138.344 43.7509 139.295 44.1755C141.337 45.1661 143.428 46.0623 145.565 46.9114C154.069 50.2607 163.048 52.1478 171.741 55.4971C176.065 57.1953 180.293 59.2709 184.046 62.0541C185.946 63.4222 187.704 64.9788 189.319 66.677C190.174 67.479 190.886 68.4224 191.647 69.2716L192.739 70.6398C193.119 71.1115 193.452 71.5832 193.784 72.055C196.445 75.876 198.582 80.0272 200.293 84.2728C201.148 86.3956 202.003 88.5184 202.621 90.8299C203.238 93.0942 203.571 95.5473 203.096 98.0003C202.668 100.453 201.195 102.67 199.295 104.227C197.395 105.784 195.257 106.822 193.262 107.859C192.264 108.378 191.267 108.897 190.364 109.511C189.936 109.794 189.461 110.124 189.129 110.501L188.844 110.737C188.796 110.831 188.749 110.831 188.654 110.926C188.559 111.067 188.416 111.303 188.321 111.539C187.941 112.482 187.704 113.567 187.419 114.7C187.134 115.832 186.848 116.964 186.468 118.096C185.708 120.313 184.473 122.53 182.668 124.228C180.863 125.927 178.582 127.059 176.302 127.672C171.789 128.993 167.133 129.654 162.478 129.795C160.15 129.842 157.775 129.795 155.447 129.465C154.259 129.276 153.119 129.04 151.931 128.71C151.361 128.521 150.791 128.38 150.221 128.097L148.653 127.436C148.178 127.248 147.656 127.059 147.228 127.012C146.991 126.965 146.801 126.965 146.753 126.965C146.705 126.965 146.753 126.965 146.848 126.917L146.515 127.201L145.185 128.38C144.758 128.757 144.33 129.182 143.855 129.512C142.002 130.974 140.007 132.248 137.917 133.286C133.736 135.409 129.081 136.73 124.377 137.107C119.674 137.531 114.829 136.824 110.411 135.078C108.178 134.276 106.135 133.003 104.187 131.588C103.712 131.21 103.285 130.833 102.81 130.408L102.145 129.795L101.812 129.512L101.574 129.323C100.957 128.852 99.9117 128.569 98.8191 128.427C96.6813 128.097 94.3534 128.191 91.9781 127.814C91.3605 127.719 90.743 127.625 90.1254 127.436C89.7928 127.342 89.5078 127.2 89.1753 127.059L88.3677 126.634C87.3225 126.068 86.2773 125.502 85.3272 124.795C83.3319 123.427 81.6217 121.728 80.1015 120.03C79.3414 119.181 78.5813 118.332 77.7737 117.53L77.2037 116.917C77.1086 116.822 77.0135 116.728 76.871 116.587C76.776 116.492 76.681 116.398 76.6335 116.256C76.586 116.162 76.5386 116.067 76.4911 115.973C76.111 115.218 76.0635 114.605 76.016 113.945C75.921 112.718 75.9209 111.539 75.9684 110.407L76.0634 106.963C76.2535 104.605 76.5386 102.293 77.2037 100.029C77.4887 98.8965 77.8687 97.7643 78.2488 96.6793C78.4388 96.1132 78.7238 95.5943 78.9138 95.0282L79.2463 94.2264L79.6264 93.4244C80.624 91.3016 81.9067 89.3202 83.2844 87.4333C86.0398 83.6594 89.2703 80.3102 92.6432 77.1496C96.0162 73.989 99.4842 71.0171 102.857 67.9508C106.183 64.8374 109.365 61.6295 111.788 57.95C114.306 54.3176 115.921 50.1193 116.301 45.7793C116.776 41.4394 115.874 36.958 114.734 32.6652C113.499 28.4196 111.503 24.3154 109.223 20.4472C108.083 18.5131 106.848 16.6262 105.47 14.8336C104.757 13.9373 104.092 13.041 103.332 12.2391L102.192 10.9655L101.622 10.3521L101.337 10.069L101.194 9.92761L101.147 9.88039C101.289 9.83321 100.814 9.97474 101.622 9.88039C101.384 10.0219 101.099 9.92765 100.957 9.73896C100.434 9.50309 100.529 9.17293 100.719 9.07858Z" fill="black"/>
<path d="M102.622 3.88878C102.765 3.8416 103.002 3.93586 103.05 4.0302L103.097 4.07742L103.192 4.17163L103.287 4.26607L103.477 4.45472L103.81 4.87923L104.475 5.72849L105.757 7.42677C106.565 8.55893 107.373 9.691 108.18 10.8703C109.653 13.229 111.173 15.5404 112.694 17.8991C115.686 22.5693 118.774 27.3809 120.817 32.7587C122.86 37.9949 124.143 43.7973 123.62 49.5524C123.573 50.26 123.43 50.9676 123.288 51.6752L123.097 52.7601C123.05 53.1375 122.908 53.4678 122.813 53.798L122.242 55.8736L121.482 57.9022C121.34 58.2324 121.245 58.5625 121.102 58.8927L120.675 59.8834C120.39 60.5438 120.105 61.2043 119.772 61.8175C119.107 63.044 118.489 64.3648 117.824 65.5441C115.069 70.4502 112.076 75.1676 109.415 80.0264C108.703 81.253 108.085 82.4794 107.468 83.7059C107.135 84.3191 106.803 84.9323 106.565 85.5456C106.28 86.1588 106.042 86.7721 105.757 87.4325C104.712 89.9799 103.81 92.6216 102.955 95.2161C101.244 100.5 99.6765 105.83 98.7264 111.255C98.4889 112.623 98.2989 113.991 98.2039 115.312C98.1089 116.68 98.1089 118.048 98.4414 119.228L99.8191 123.19C100.057 123.85 100.247 124.511 100.437 125.218C100.627 125.926 100.817 126.586 100.817 127.388C100.817 127.624 100.627 127.86 100.342 127.86C100.104 127.86 99.8666 127.671 99.8666 127.436L99.8666 127.388C99.8191 126.775 99.6766 126.115 99.4865 125.454C99.2965 124.794 99.059 124.133 98.8215 123.52L97.3487 119.605C96.8737 118.142 96.8737 116.68 96.9212 115.265C96.9687 113.85 97.1587 112.434 97.3487 111.066C97.7763 108.283 98.3939 105.547 99.059 102.811C99.7241 100.075 100.484 97.3861 101.339 94.7444C102.194 92.0555 103.05 89.4138 104.095 86.7721C104.332 86.1117 104.617 85.4514 104.902 84.791C105.187 84.1306 105.52 83.4701 105.852 82.8568C106.518 81.6303 107.135 80.3567 107.8 79.1302C110.461 74.177 113.359 69.4123 116.019 64.5535C118.679 59.7418 120.912 54.6472 121.435 49.3166C121.91 43.986 120.722 38.5611 118.679 33.5135C116.732 28.4188 113.739 23.7958 110.698 19.1257C109.178 16.8142 107.705 14.3612 106.375 11.9082L104.332 8.32302L103.335 6.48331L102.812 5.58683L102.574 5.1151L102.432 4.92645L102.385 4.83224L102.385 4.78502C102.385 4.8322 102.622 4.9264 102.764 4.87923C102.527 4.9264 102.242 4.7378 102.242 4.50194C102.242 4.26607 102.385 3.93595 102.622 3.88878Z" fill="black"/>
<path d="M104.094 1.53C105.377 2.2376 106.517 3.22811 107.515 4.21875C108.512 5.25656 109.415 6.38873 110.223 7.52089C111.885 9.83238 113.31 12.2382 114.831 14.5497C115.211 15.1158 115.591 15.6819 115.971 16.248L117.206 17.899L118.489 19.5973C118.916 20.1634 119.296 20.7768 119.676 21.3428C121.291 23.7015 122.622 26.2016 123.904 28.7489C128.892 38.9384 131.695 49.8827 134.926 60.4968L136.161 64.4593C136.588 65.7801 137.016 67.101 137.396 68.5162C138.109 71.3466 138.346 74.177 138.631 76.913C138.774 78.281 138.964 79.6491 139.201 80.97C139.296 81.6304 139.486 82.2436 139.629 82.9983L139.866 84.0835L140.009 85.1684C140.389 88.0459 140.342 90.8763 140.247 93.6596C140.152 96.4428 139.961 99.2261 140.104 101.962C140.151 103.33 140.294 104.698 140.531 106.019C140.769 107.34 141.149 108.708 141.387 110.076C141.957 112.812 142.432 115.548 143.239 118.19C143.572 119.463 144.332 120.548 145.092 121.728C145.472 122.294 145.9 122.907 146.232 123.52C146.565 124.133 146.945 124.794 146.992 125.69C146.992 125.926 146.802 126.162 146.565 126.162C146.327 126.162 146.09 125.973 146.09 125.737L146.09 125.69C146.042 125.171 145.757 124.558 145.377 123.992C145.045 123.426 144.617 122.86 144.237 122.294C143.857 121.728 143.429 121.162 143.049 120.501C142.859 120.171 142.669 119.888 142.527 119.511C142.384 119.133 142.242 118.803 142.147 118.473C141.244 115.784 140.674 113.001 140.056 110.312C139.771 108.944 139.391 107.67 139.059 106.208C138.774 104.793 138.584 103.377 138.536 101.962C138.346 99.1317 138.489 96.3014 138.536 93.5182C138.584 90.7349 138.631 87.9987 138.204 85.3098L138.061 84.3193L137.824 83.3286C137.681 82.6682 137.491 81.9607 137.349 81.2531C137.064 79.8379 136.874 78.4225 136.731 77.0544C136.398 74.2712 136.161 71.5353 135.448 68.9408C135.116 67.6671 134.641 66.3461 134.166 65.0252L132.883 61.0155C129.605 50.3543 126.755 39.5516 121.862 29.6452C120.626 27.1922 119.296 24.7865 117.728 22.5222C117.348 21.9561 116.968 21.39 116.588 20.8239L115.353 19.1728L114.07 17.4745C113.643 16.9084 113.215 16.2951 112.835 15.729C111.268 13.3703 109.89 10.9175 108.465 8.60601C106.992 6.29452 105.519 4.03019 103.477 2.2376C103.287 2.04891 103.239 1.76569 103.429 1.57699C103.667 1.48265 103.904 1.43566 104.094 1.53Z" fill="black"/>
<path d="M187.23 111.349C187.135 111.349 186.945 111.302 186.85 111.254C186.802 111.207 186.755 111.207 186.755 111.16C186.66 111.066 186.66 111.066 186.612 111.019C186.565 110.924 186.517 110.877 186.47 110.83C186.375 110.688 186.327 110.594 186.28 110.453L185.947 109.745L185.805 109.415L185.615 109.132L185.187 108.471C184.665 107.575 184.19 106.632 183.714 105.735C183.239 104.839 182.764 103.99 182.194 103.188C181.624 102.292 181.054 101.443 180.532 100.546C178.394 97.0083 176.351 93.4231 174.071 90.0738C172.93 88.3756 171.743 86.7718 170.413 85.2151C169.13 83.6583 167.705 82.2432 166.232 80.7336C163.382 77.7146 160.721 74.554 157.586 72.0066C156.066 70.7801 154.26 69.5537 152.645 68.28C150.982 67.0063 149.367 65.6853 147.8 64.3645C144.617 61.6756 141.576 58.8452 138.678 55.8261C135.78 52.8071 133.072 49.6465 130.697 46.2029C128.322 42.7593 126.232 39.0798 124.949 35.1172C124.854 34.8814 124.996 34.5985 125.234 34.5513C125.471 34.457 125.756 34.5983 125.804 34.8342C127.229 38.6552 129.319 42.1931 131.742 45.4481C134.165 48.7502 136.921 51.7693 139.818 54.694C142.716 57.6188 145.804 60.3548 148.94 62.9493C150.555 64.2702 152.17 65.4967 153.785 66.7231C155.448 67.9968 157.111 69.0819 158.821 70.4028C162.146 73.0916 164.854 76.2993 167.705 79.224C169.082 80.6392 170.65 82.1488 171.98 83.7999C173.358 85.4037 174.593 87.1018 175.781 88.8472C178.156 92.2909 180.246 95.8762 182.384 99.4142L183.999 102.056C184.57 102.952 185.045 103.943 185.425 104.933C185.852 105.924 186.185 106.867 186.517 107.811L186.802 108.518C186.85 108.613 186.897 108.754 186.945 108.943C186.992 109.085 186.992 109.226 187.04 109.321L187.182 110.075L187.277 110.405L187.325 110.547C187.325 110.547 187.325 110.594 187.325 110.547C187.325 110.547 187.277 110.547 187.277 110.5C187.23 110.453 187.087 110.405 186.992 110.453C187.23 110.453 187.467 110.641 187.515 110.877C187.705 111.113 187.515 111.302 187.23 111.349Z" fill="black"/>
</svg>
