<svg width="207" height="274" viewBox="0 0 207 274" fill="none" xmlns="http://www.w3.org/2000/svg">
<path d="M93.6183 57.3582C92.1059 60.0615 90.6691 62.8398 89.308 65.6181C88.6274 67.0449 87.9468 68.3965 87.2662 69.8232C86.6613 71.1748 85.9807 72.6766 85.3757 74.1033C82.729 79.8102 79.6285 85.2918 76.2256 90.6232C72.8226 95.9546 69.0416 100.986 65.0337 105.791C60.9502 110.597 56.5642 115.178 52.027 119.458C47.4141 123.738 42.5743 127.793 37.5834 131.623C35.0879 133.5 32.5169 135.377 29.9458 137.179C28.6603 138.08 27.3748 138.906 26.0136 139.807C24.6524 140.709 23.2156 141.384 21.8545 142.135C19.0565 143.637 16.334 145.139 13.6117 146.641C10.8894 148.142 8.16702 149.719 5.67154 151.446C5.06658 151.897 4.46169 152.347 3.85672 152.798C3.25176 153.249 2.72241 153.774 2.34431 154.225C2.11745 154.45 2.04172 154.75 2.04172 154.75C2.04172 154.825 2.04183 154.75 1.96621 154.6C1.89059 154.45 1.815 154.375 1.815 154.375C1.815 154.3 1.73924 154.3 1.66362 154.225L1.58811 154.15C1.58811 154.15 1.73927 154.225 1.89051 154.225C2.49548 154.3 3.32742 154.3 4.08362 154.3C7.18406 154.225 10.2844 153.924 13.3848 153.549C16.4852 153.173 19.5857 152.798 22.6862 152.347C24.1986 152.122 25.7867 151.897 27.2991 151.597C28.0553 151.446 28.8115 151.296 29.5677 151.146C30.3239 150.996 31.0044 150.771 31.7606 150.545C37.7347 148.818 43.6331 146.716 49.3803 144.238C60.799 139.282 71.6128 132.824 80.9897 124.639C85.6782 120.509 89.9885 116.004 93.7695 111.123C95.7356 108.72 97.3994 106.092 99.1386 103.539C100.802 100.911 102.39 98.2073 103.827 95.5041C106.701 90.0225 109.347 84.3156 110.935 78.3835C111.313 76.8817 111.616 75.3799 111.843 73.8781C112.145 72.3763 112.372 70.7994 112.599 69.2976C112.826 67.7958 113.053 66.2189 113.204 64.642C113.355 63.1402 113.582 61.5633 113.582 60.0614C113.582 59.8362 113.809 59.6109 114.036 59.6109C114.263 59.6109 114.49 59.8362 114.49 60.0614C114.49 61.6383 114.338 63.2153 114.112 64.7922C113.96 66.3691 113.733 67.8708 113.507 69.4477C113.28 71.0246 113.053 72.5264 112.826 74.1033C112.599 75.6802 112.297 77.1821 111.918 78.759C110.33 84.9164 107.759 90.6232 104.886 96.255C103.449 99.0333 101.861 101.812 100.273 104.44C98.5337 107.068 96.8699 109.771 94.9038 112.249C91.0472 117.28 86.7368 121.861 82.0483 126.066C72.5957 134.476 61.6308 141.009 50.1365 146.115C44.3893 148.668 38.4153 150.846 32.3656 152.573C31.6094 152.798 30.8532 153.023 30.0213 153.249C29.2651 153.399 28.4334 153.549 27.6772 153.699C26.0892 154 24.5768 154.225 22.9888 154.45C19.8883 154.901 16.7121 155.351 13.6117 155.727C10.4356 156.102 7.3352 156.402 4.15913 156.477C3.32731 156.477 2.57106 156.477 1.66362 156.402C1.43675 156.327 1.21 156.327 0.8319 156.177C0.75628 156.177 0.604928 156.102 0.529307 156.027C0.453687 156.027 0.378214 155.877 0.302593 155.802C0.226973 155.727 0.151315 155.576 0.0756945 155.426C7.39081e-05 155.201 6.10119e-08 155.126 6.10119e-08 155.126L6.09189e-08 154.976C6.08724e-08 154.901 6.07794e-08 154.75 6.07329e-08 154.675C0.0756206 153.924 0.453834 153.474 0.680696 153.098C1.28566 152.347 1.89055 151.822 2.49552 151.296C3.10048 150.771 3.78114 150.32 4.46172 149.869C7.10844 148.067 9.83075 146.49 12.5531 144.914C15.2754 143.337 18.0733 141.91 20.7957 140.408C22.1568 139.657 23.518 138.906 24.8036 138.08C26.0891 137.254 27.3748 136.353 28.6603 135.452C31.2314 133.65 33.7269 131.848 36.2224 129.971C41.2133 126.216 45.9017 122.161 50.5146 117.881C55.0518 113.601 59.3622 109.095 63.3701 104.365C67.378 99.6341 71.0834 94.603 74.4108 89.3467C77.7381 84.0904 80.8385 78.7589 83.6364 73.2023C86.3588 67.6456 89.3079 62.0138 92.8621 56.8326C93.0133 56.6073 93.3157 56.5322 93.5426 56.6824C93.6182 56.8326 93.6939 57.1329 93.6183 57.3582Z" fill="black"/>
<path d="M121.976 189.969C121.976 190.045 121.976 190.12 121.976 190.27C121.976 190.345 121.976 190.345 121.976 190.495C121.976 190.57 121.976 190.57 121.976 190.645C121.9 190.72 121.824 191.171 121.144 190.871C121.068 190.796 120.993 190.645 120.993 190.645L120.993 190.57C120.917 190.345 120.841 190.195 120.766 189.969L120.539 188.918C120.388 188.242 120.236 187.492 120.085 186.816C119.783 185.389 119.556 184.037 119.329 182.611L118.648 178.406L118.346 176.303C118.27 175.552 118.119 174.876 118.043 174.125C117.514 168.343 118.119 162.561 118.951 156.93C119.405 154.151 119.858 151.298 120.312 148.52C120.69 145.741 121.219 142.963 121.749 140.109C122.959 134.553 124.622 129.071 126.589 123.665C128.706 118.333 131.05 113.152 133.697 108.121C136.419 103.09 139.293 98.2088 142.469 93.4781C145.645 88.7474 149.048 84.167 152.677 79.8117C156.307 75.4564 160.164 71.2514 164.247 67.2716C164.398 67.1214 164.701 67.1214 164.928 67.2716C165.079 67.4218 165.079 67.7221 164.928 67.9474C160.996 72.0022 157.29 76.2824 153.736 80.6377C150.182 85.068 147.006 89.6485 143.83 94.3792C140.729 99.1099 137.931 103.991 135.36 108.947C132.789 113.978 130.521 119.084 128.555 124.34C126.664 129.597 125.076 135.003 123.866 140.485C123.412 143.263 122.883 145.966 122.505 148.82C122.051 151.598 121.597 154.377 121.144 157.155C120.312 162.712 119.707 168.268 120.312 173.75C120.388 174.426 120.463 175.102 120.539 175.777L120.841 177.88C120.993 179.307 121.144 180.733 121.295 182.085C121.446 183.512 121.522 184.938 121.673 186.29L121.824 188.393L121.9 189.444L121.976 189.894C121.976 189.894 121.9 189.744 121.824 189.744C121.144 189.444 121.068 189.894 121.068 189.894C121.068 189.969 121.068 189.969 121.068 189.969C121.068 189.969 121.068 189.969 121.068 189.894C121.068 189.819 121.068 189.744 121.068 189.669C121.068 189.444 121.295 189.219 121.598 189.219C121.749 189.594 121.976 189.744 121.976 189.969Z" fill="black"/>
<path d="M121.219 190.196C122.127 189.445 122.58 188.243 122.807 186.967C123.11 185.69 123.185 184.414 123.261 183.062C123.336 181.71 123.336 180.359 123.412 179.007C123.412 178.331 123.488 177.656 123.563 176.905C123.715 176.004 123.942 175.403 124.093 174.727C125.605 169.396 127.344 164.214 129.462 159.108C130.52 156.555 131.579 154.002 132.789 151.524C133.999 149.046 135.285 146.568 136.494 144.165C139.066 139.284 141.712 134.479 144.51 129.748C150.106 120.286 156.08 111.05 162.432 102.114C164.02 99.8618 165.608 97.6091 167.272 95.4315C168.86 93.1788 170.448 90.926 171.961 88.6733C173.473 86.4206 175.061 84.1679 176.498 81.8401C177.254 80.7137 178.01 79.5123 178.691 78.3859C179.371 77.2596 180.127 76.0581 180.581 74.8567L180.581 74.7816C180.657 74.5563 180.959 74.4061 181.186 74.4812C181.413 74.5563 181.564 74.8566 181.489 75.0819C180.959 76.5086 180.279 77.635 179.598 78.8364C178.917 80.0379 178.161 81.2393 177.481 82.3657C176.044 84.6935 174.532 87.0213 173.019 89.274C171.507 91.6018 169.994 93.8545 168.406 96.1073L163.718 102.865C157.517 111.876 151.619 121.112 146.174 130.574C143.452 135.305 140.805 140.11 138.309 144.916C137.024 147.319 135.814 149.797 134.604 152.2C133.47 154.678 132.335 157.156 131.352 159.709C129.386 164.74 127.647 169.921 126.134 175.178C125.983 175.778 125.681 176.529 125.681 176.98C125.605 177.581 125.605 178.256 125.529 178.932C125.454 180.284 125.378 181.71 125.151 183.062C125 184.489 124.698 185.84 124.244 187.267C124.017 187.943 123.715 188.619 123.261 189.295C122.807 189.895 122.278 190.496 121.522 190.872C121.295 191.022 120.992 190.871 120.917 190.646C120.992 190.571 120.992 190.346 121.219 190.196Z" fill="black"/>
<path d="M177.784 68.9205C177.406 69.5963 177.027 70.2721 176.574 70.8729C176.12 71.4736 175.818 72.1494 175.515 72.8252C175.364 73.2007 175.213 73.5011 175.137 73.8765L174.834 74.9278L174.456 76.0542L174.23 76.5798C174.154 76.6549 174.154 76.8051 174.078 76.8801C174.078 76.9552 174.003 76.9552 174.003 77.0303L173.927 77.1054C173.851 77.1805 173.776 77.2556 173.7 77.3307C173.473 77.4809 173.095 77.4058 172.944 77.1805L172.868 77.1054L172.868 77.0303C172.566 76.2794 172.188 75.4534 171.961 74.4772C171.81 73.501 171.885 72.6 171.961 71.774L172.793 66.7429L173.776 67.4938C172.717 67.9443 171.658 68.3198 170.524 68.5451C169.995 68.6953 169.39 68.7703 168.785 68.7703C168.18 68.7703 167.651 68.7703 167.046 68.6952C166.441 68.6201 165.911 68.5451 165.306 68.3949C164.777 68.2447 164.096 68.0945 163.567 67.7942C163.038 67.4938 162.508 67.1183 162.055 66.7429C161.601 66.2923 161.223 65.9169 160.92 65.3912C160.693 65.0909 160.769 64.6403 161.147 64.4151C161.298 64.2649 161.525 64.2649 161.752 64.34C162.811 64.6403 164.021 64.7905 165.155 64.9407C165.76 65.0158 166.289 65.0158 166.819 65.0909C167.348 65.0909 167.802 65.0158 168.407 64.8656C169.541 64.6403 170.6 64.2649 171.658 63.8143C172.188 63.589 172.717 63.3638 173.02 63.0634C173.398 62.763 173.776 62.3125 174.154 61.862C174.532 61.4114 174.834 60.9609 175.212 60.5103C175.515 60.0598 175.818 59.6092 176.12 59.0836C176.649 58.1074 177.179 57.0562 177.632 56.0049C178.086 54.9536 178.54 53.8273 179.069 52.776C179.599 51.7247 180.203 50.6734 180.884 49.6222C183.531 45.6423 186.934 41.9629 191.32 39.7852C192.454 39.2596 193.588 38.8091 194.798 38.5838C196.008 38.3585 197.294 38.2834 198.579 38.5087C199.865 38.734 201.075 39.3347 201.982 40.2358C202.89 41.0618 203.722 41.9629 204.478 42.939C205.158 43.9152 205.839 45.0416 206.217 46.1679C206.444 46.7687 206.595 47.3694 206.671 47.9701C206.746 48.2705 206.746 48.5709 206.746 48.9463C206.746 49.2467 206.746 49.5471 206.746 49.8474C206.746 50.1478 206.746 50.4481 206.671 50.8236C206.595 51.124 206.595 51.4994 206.368 51.8749C206.293 51.95 206.217 52.1001 206.141 52.1752C206.066 52.2503 205.99 52.3254 205.915 52.3254L205.839 52.4005C205.763 52.4005 205.915 52.4005 205.612 52.4756C205.31 52.5507 205.007 52.2503 205.083 52.3254L205.007 52.2503C204.856 52.1002 204.78 52.0251 204.705 51.8749C204.553 51.6496 204.326 51.4243 204.175 51.2742C203.797 50.8987 203.344 50.5232 202.965 50.2979C202.512 50.0727 201.907 49.7723 201.453 49.547C200.394 49.0965 199.336 48.721 198.201 48.4207C197.672 48.2705 197.067 48.1203 196.538 48.0452L195.706 47.9701C195.555 47.9701 195.403 47.9701 195.328 47.9701L194.95 47.9701C192.757 48.0452 190.79 49.3218 189.202 50.8987C187.614 52.5507 186.329 54.503 185.195 56.4554C184.665 57.5067 184.06 58.4829 183.606 59.5342C183.077 60.5854 182.548 61.6367 182.245 62.6879C181.867 63.7392 181.565 64.8656 181.414 65.992C181.262 67.1183 181.262 68.2447 181.338 69.4461C181.338 70.0469 181.413 70.5725 181.565 71.0981C181.716 71.6238 181.867 72.2245 182.018 72.7501C182.17 73.2758 182.396 73.8014 182.623 74.327C182.699 74.5523 182.85 74.8527 183.001 75.0779C183.077 75.153 183.153 75.3032 183.228 75.3783C183.228 75.4534 183.304 75.4534 183.304 75.4534C183.228 75.4534 183.228 75.3783 183.153 75.4534L182.775 76.4296L182.699 76.3545L183.153 76.5047C182.699 76.5798 182.245 76.3545 182.018 76.2043C181.716 76.0541 181.489 75.8289 181.262 75.6036C181.186 75.5285 181.035 75.4534 180.96 75.3783L180.582 75.0779C180.355 74.8527 180.128 74.7025 179.901 74.4772C178.994 73.6512 178.313 72.6 177.859 71.4736C177.405 70.3472 177.103 69.2209 176.876 68.0194C176.649 66.818 176.649 65.5414 177.179 64.34C178.01 62.1623 179.069 60.0598 180.128 58.0323C181.186 56.0049 182.17 53.9023 183.38 51.95C184.589 49.9976 186.026 48.0452 187.841 46.5434C189.656 45.0416 191.849 43.9903 194.118 43.3145C194.647 43.1643 195.252 43.0142 195.857 42.864C196.462 42.7889 196.991 42.6387 197.596 42.5636C198.806 42.4134 200.016 42.5636 201.15 42.939C201.755 43.0892 202.285 43.3145 202.814 43.6149C203.041 43.7651 203.343 43.9152 203.57 44.0654L203.948 44.2907C204.1 44.3658 204.251 44.516 204.326 44.5911C204.78 45.0416 205.083 45.5673 205.385 46.0178C205.536 46.2431 205.688 46.4683 205.839 46.6936C205.914 46.7687 205.99 46.9189 206.066 46.994C206.141 46.994 206.141 47.069 206.217 47.069C206.217 47.069 206.217 47.069 206.293 47.069C206.444 47.069 206.595 47.2192 206.595 47.3694C206.595 47.5196 206.444 47.6698 206.293 47.6698C206.217 47.6698 206.141 47.6698 206.066 47.5947L205.915 47.5196C205.839 47.4445 205.763 47.3694 205.688 47.3694C205.612 47.2192 205.461 47.1442 205.385 46.994C205.234 46.7687 205.007 46.5434 204.856 46.2431C204.553 45.7925 204.251 45.2669 203.873 44.8914C203.797 44.8163 203.721 44.7412 203.57 44.6661L203.192 44.4409C202.965 44.2907 202.738 44.1405 202.436 44.0654C201.907 43.8401 201.453 43.6149 200.924 43.4647C199.865 43.1643 198.731 43.0141 197.672 43.1643C197.143 43.2394 196.538 43.3896 196.008 43.4647C195.479 43.5398 194.874 43.765 194.345 43.9152C192.152 44.591 190.11 45.5672 188.371 46.994C186.631 48.4207 185.27 50.298 184.136 52.2503C183.001 54.2027 181.943 56.2301 180.96 58.3327C179.901 60.3601 178.918 62.4627 178.162 64.5652C177.784 65.5414 177.784 66.5927 177.935 67.719C178.086 68.8454 178.389 69.8967 178.842 70.8729C179.296 71.8491 179.901 72.7501 180.657 73.5011C180.809 73.7263 181.035 73.8765 181.262 74.0267L181.565 74.252C181.716 74.3271 181.792 74.4773 181.943 74.5523C182.397 74.9278 182.775 75.2282 183.001 75.1531C183.153 75.1531 183.304 75.153 183.38 75.2281L183.455 75.2281L183.531 75.3033C183.758 75.5285 183.758 75.8289 183.606 76.0542C183.455 76.2043 183.304 76.2794 183.153 76.2043C183.001 76.2043 182.926 76.1292 182.775 76.1292C182.699 76.0541 182.623 76.0541 182.623 75.979C182.472 75.904 182.472 75.8289 182.396 75.7538C182.245 75.6036 182.17 75.4534 182.094 75.3033C181.943 75.0029 181.791 74.7776 181.64 74.4772C181.413 73.9516 181.187 73.3509 180.96 72.7501C180.733 72.1494 180.582 71.6238 180.43 71.0231C180.279 70.4223 180.203 69.7465 180.203 69.2209C180.128 68.0194 180.128 66.818 180.279 65.6165C180.43 64.34 180.733 63.2136 181.111 62.0872C181.489 60.9609 182.018 59.8345 182.548 58.7833C183.077 57.732 183.606 56.6807 184.211 55.6294C185.346 53.5269 186.707 51.4994 188.371 49.7723C188.824 49.3969 189.278 48.9463 189.732 48.5709L190.488 48.0452L191.32 47.5947C192.454 46.994 193.664 46.5434 194.95 46.5434L195.403 46.5434C195.555 46.5434 195.706 46.5434 195.857 46.5434L196.84 46.6185C197.445 46.6936 198.05 46.8438 198.655 46.994C199.865 47.2943 200.999 47.7449 202.058 48.1954C202.587 48.4207 203.117 48.646 203.722 48.9463C204.327 49.3218 204.78 49.6973 205.234 50.1478C205.461 50.3731 205.688 50.5983 205.839 50.8236L206.066 51.124C206.141 51.1991 205.915 50.8987 205.612 50.9738C205.31 51.0489 205.461 51.0489 205.385 51.0489C205.385 51.0489 205.385 51.0489 205.385 50.9738C205.461 50.8236 205.536 50.5983 205.536 50.2979C205.536 50.0727 205.612 49.7723 205.612 49.472C205.763 47.2192 204.856 45.1918 203.57 43.3145C202.89 42.4134 202.133 41.5874 201.302 40.8365C200.47 40.0856 199.487 39.635 198.428 39.4098C196.311 39.0343 194.042 39.6351 192 40.6112C187.917 42.6387 184.589 46.0929 182.094 49.9225C181.489 50.8987 180.884 51.8749 180.355 52.9261C179.825 53.9774 179.447 55.0287 178.993 56.08C178.54 57.2063 178.011 58.2576 177.406 59.3089C177.103 59.8345 176.801 60.3602 176.422 60.8858C176.044 61.3363 175.666 61.8619 175.288 62.3125C174.91 62.763 174.532 63.2136 174.003 63.6642C173.776 63.8894 173.398 64.1147 173.095 64.2649C172.793 64.4151 172.49 64.5652 172.263 64.6403C171.129 65.0909 169.995 65.4663 168.785 65.7667C168.482 65.8418 168.18 65.9169 167.877 65.9169C167.575 65.992 167.197 65.992 166.894 65.992C166.289 65.992 165.609 65.9169 165.004 65.8418C163.794 65.6916 162.584 65.4663 161.45 65.166L162.281 64.0396C162.508 64.4151 162.886 64.7905 163.189 65.166C163.491 65.4663 163.945 65.7667 164.323 65.992C165.079 66.4425 166.138 66.5927 167.197 66.6678C167.726 66.7429 168.255 66.7429 168.785 66.7429C169.238 66.7429 169.768 66.6678 170.222 66.5927C171.205 66.3674 172.263 66.067 173.171 65.6916C173.549 65.5414 173.927 65.6916 174.078 66.067C174.154 66.2172 174.154 66.3674 174.154 66.4425L173.246 71.3985C173.171 72.2245 173.095 73.0505 173.171 73.8014C173.246 74.5523 173.549 75.3032 173.851 76.1292L173.02 75.8289C172.944 75.8289 172.944 75.904 172.868 75.979C172.868 75.979 172.868 75.904 172.944 75.904C172.944 75.8289 173.02 75.7538 173.02 75.6787L173.246 75.1531L173.625 74.1018C173.776 73.7263 173.851 73.3509 174.003 73.0505C174.154 72.6751 174.305 72.2996 174.532 71.9242C174.91 71.2483 175.364 70.5725 175.817 69.8967C176.271 69.296 176.725 68.6952 177.179 68.0945C177.254 67.9443 177.481 67.9443 177.632 68.0194C177.784 68.6202 177.859 68.7703 177.784 68.9205Z" fill="black"/>
<path d="M34.0668 192.965C33.5375 192.365 33.1595 191.689 32.857 191.088C32.7058 190.788 32.5544 190.487 32.3275 190.187C32.2519 190.037 32.1765 189.887 32.1008 189.812C32.0252 189.736 32.0251 189.736 31.9494 189.661C31.9494 189.661 31.8739 189.586 31.8739 189.661C31.8739 189.661 31.9494 189.736 31.9494 189.661L31.7227 189.661C31.5715 189.661 31.4202 189.736 31.2689 189.736C30.9665 189.812 30.5883 189.887 30.2858 189.962C29.6053 190.112 28.9248 190.337 28.3198 190.562C25.6731 191.388 23.1019 192.515 20.9845 194.242C18.8672 195.969 17.128 198.147 15.9937 200.625L15.6156 201.601L15.2375 202.577C15.0863 203.027 15.1618 203.628 15.313 204.229C15.6911 205.43 16.4473 206.632 17.2035 207.758C18.7915 210.011 20.7577 212.113 22.7238 214.141L23.48 214.892C23.7069 215.117 24.0094 215.417 24.2362 215.718C24.4631 216.018 24.6901 216.319 24.9169 216.619L25.5217 217.595C26.2779 218.872 26.8073 220.223 27.261 221.575C28.2441 224.278 28.7735 227.132 29.3784 229.91L29.7565 232.012C29.9078 232.688 30.1347 233.364 30.3615 233.965C30.8909 235.241 31.4201 236.518 32.1763 237.719C32.252 237.87 32.2521 238.095 32.1008 238.17C31.9496 238.245 31.7983 238.245 31.647 238.095C30.8908 236.893 30.2102 235.617 29.6808 234.265C29.3784 233.589 29.1516 232.914 29.0003 232.163L28.5465 230.06C27.9416 227.282 27.261 224.578 26.2779 221.95C25.8242 220.674 25.2194 219.397 24.5388 218.196L24.0093 217.37C23.7825 217.069 23.6314 216.844 23.4045 216.544C23.1777 216.319 22.9507 216.018 22.7238 215.793L21.9676 215.042C19.9259 213.015 17.9599 210.987 16.2206 208.584C15.3888 207.383 14.5569 206.181 14.1032 204.679C13.8764 203.929 13.725 203.103 14.0275 202.202L14.4056 201.15L14.8594 200.099C16.0693 197.396 17.8841 194.993 20.2283 193.116C22.4969 191.238 25.2949 189.962 28.0172 189.136C28.6978 188.91 29.4541 188.76 30.1346 188.535C30.5127 188.46 30.8908 188.385 31.2689 188.31C31.4958 188.31 31.6471 188.235 31.8739 188.235L32.1763 188.235C32.4032 188.235 32.6301 188.31 32.7813 188.385C33.0838 188.61 33.2351 188.76 33.3863 188.986C33.5376 189.211 33.6131 189.361 33.6887 189.511C33.84 189.887 33.9912 190.187 34.0668 190.562C34.2937 191.238 34.5206 191.914 34.823 192.44C34.8987 192.59 34.8231 192.815 34.6718 192.89C34.2937 193.116 34.1425 193.116 34.0668 192.965Z" fill="black"/>
<path d="M34.1423 193.264C32.4031 194.691 30.5881 195.667 28.7732 196.793C26.9583 197.92 25.2191 199.046 23.7823 200.473C23.1017 201.149 22.4967 201.975 22.1942 202.801C22.043 203.251 22.0429 203.627 22.1185 204.002C22.1941 204.378 22.4211 204.903 22.648 205.279C23.6311 207.081 24.9165 208.733 26.3533 210.235C27.1096 210.986 27.8658 211.661 28.6977 212.262C28.9245 212.412 29.0756 212.563 29.3025 212.638L29.6051 212.863C29.7563 212.938 29.9076 213.013 29.9832 213.088C30.5125 213.464 30.8906 213.839 31.2687 214.29C32.0249 215.116 32.63 216.092 33.2349 216.918C33.8399 217.744 34.5204 218.57 35.201 219.321C36.6377 220.898 38.0746 222.475 39.587 223.901C40.3432 224.577 41.175 225.253 42.0068 226.004C42.3849 226.379 42.8387 226.68 43.2168 227.055C43.4437 227.28 43.595 227.431 43.8218 227.656C43.8975 227.731 43.973 227.881 44.1243 227.956L44.2755 228.181C44.3511 228.257 44.3512 228.407 44.3512 228.482C44.3512 228.557 44.2756 228.632 44.1999 228.707L44.1243 228.707L43.7461 228.557C43.7461 228.557 43.7461 228.557 43.7461 228.482L43.6705 228.332C43.5948 228.257 43.5194 228.181 43.4437 228.031C43.2925 227.881 43.0656 227.656 42.8387 227.506C42.4606 227.13 42.0068 226.83 41.6287 226.529C40.7969 225.854 39.965 225.253 39.1332 224.502C37.5452 223 36.0329 221.574 34.5204 219.997C33.7642 219.171 33.0836 218.42 32.403 217.519C31.7224 216.617 31.1174 215.791 30.4368 215.041C30.1343 214.665 29.7563 214.29 29.3782 214.064C29.3026 213.989 29.227 213.914 29.0758 213.914L28.6977 213.689C28.3952 213.539 28.1683 213.389 27.9415 213.238C27.034 212.638 26.2021 211.887 25.3702 211.136C23.8578 209.559 22.421 207.907 21.3623 205.879C21.1354 205.354 20.833 204.903 20.6818 204.227C20.5305 203.552 20.6062 202.876 20.7575 202.275C20.9087 201.674 21.2111 201.149 21.5892 200.623C21.8917 200.173 22.2698 199.722 22.7235 199.271C24.3115 197.619 26.1266 196.418 27.9415 195.292C29.7564 194.165 31.7225 193.264 33.7642 192.513C33.9155 192.438 34.1423 192.513 34.1423 192.739C34.2936 193.039 34.218 193.189 34.1423 193.264Z" fill="black"/>
<path d="M157.971 191.395C156.836 194.474 156.004 197.628 155.021 200.782C154.492 202.358 153.963 203.935 153.282 205.512C152.904 206.263 152.526 207.089 152.148 207.84L151.467 208.966L150.787 210.018C147.157 215.574 143.3 221.056 138.763 225.937C134.226 230.893 129.159 235.323 123.336 238.778C120.463 240.58 117.438 242.006 114.337 243.283C111.161 244.484 107.985 245.536 104.734 246.287L102.238 246.812C101.406 246.962 100.499 247.113 99.6669 247.113C97.9277 247.263 96.2642 247.263 94.5249 247.113C91.1219 246.887 87.7946 246.136 84.6185 245.31C78.1151 243.508 71.9899 241.03 65.9402 238.252C59.8906 235.474 53.9922 232.395 48.1694 229.391L47.6401 229.091C47.4888 229.016 47.2619 228.866 47.1863 228.866C46.9594 228.79 46.6569 228.715 46.2788 228.79C45.5983 228.866 44.9177 229.241 44.2371 229.692C43.5565 230.142 42.9516 230.593 42.3466 231.118C41.7416 231.644 41.1367 232.245 40.4561 232.77C37.8094 234.873 34.9358 236.525 32.1378 238.252C31.9109 238.402 31.6084 238.327 31.4571 238.102C31.3059 237.876 31.3815 237.576 31.6083 237.426C34.4063 235.549 37.2044 233.897 39.6999 231.869C40.3048 231.344 40.8341 230.818 41.5147 230.217C42.1197 229.616 42.8002 229.091 43.5564 228.64C44.3126 228.19 45.0689 227.739 46.0519 227.514C46.5057 227.439 47.1107 227.439 47.6401 227.589C47.9425 227.664 48.0936 227.814 48.2449 227.889L48.7744 228.19C54.7484 231.118 60.6467 234.047 66.6207 236.75C72.6704 239.453 78.7957 241.856 85.1478 243.508C91.4999 245.085 98.079 246.061 104.28 244.259C107.456 243.583 110.556 242.532 113.581 241.331C116.53 240.054 119.555 238.702 122.278 236.9C127.874 233.521 132.789 229.166 137.175 224.36C141.561 219.554 145.342 214.148 148.896 208.666L149.577 207.615L150.182 206.639C150.56 205.963 150.938 205.212 151.24 204.536C151.921 203.109 152.526 201.608 153.055 200.031C154.19 196.952 155.324 193.798 157.063 190.87C157.214 190.644 157.517 190.569 157.744 190.72C157.971 190.945 158.046 191.17 157.971 191.395Z" fill="black"/>
<path d="M157.896 190.796C158.198 190.796 158.425 191.022 158.501 191.172C158.652 191.322 158.652 191.547 158.727 191.697C158.803 191.998 158.803 192.298 158.803 192.523C158.803 193.049 158.803 193.575 158.727 194.1C158.576 195.077 158.425 196.053 158.198 197.029C157.82 198.906 157.442 200.859 156.988 202.736C156.156 206.565 155.173 210.32 153.963 214.074C152.753 217.829 151.241 221.433 149.577 225.038C147.914 228.567 146.023 232.021 144.057 235.4C140.049 242.158 135.436 248.541 130.067 254.323C124.698 260.105 118.648 265.286 111.464 268.966C107.91 270.693 103.978 272.044 100.121 272.72C96.1891 273.396 92.2568 273.922 88.2489 273.772C84.241 273.696 80.3087 273.171 76.452 272.345C72.5954 271.444 68.8144 270.167 65.1846 268.665C61.5548 267.163 58.0006 265.361 54.5977 263.409C51.1948 261.457 47.8674 259.354 44.6913 257.101C41.5152 254.698 38.7173 251.845 36.373 248.691C34.0288 245.537 31.9871 242.008 31.1553 238.103C31.0796 237.878 31.2309 237.578 31.5334 237.578C31.7602 237.503 32.0627 237.653 32.0627 237.953C32.8945 241.633 34.9362 245.012 37.2804 248.015C39.6247 251.019 42.4228 253.797 45.5232 256.05C48.6993 258.228 52.0265 260.255 55.4294 262.132C58.8323 264.01 62.3109 265.737 65.8651 267.163C69.4193 268.59 73.1248 269.792 76.9058 270.618C80.6869 271.444 84.5434 271.894 88.3244 271.894C92.1811 271.969 96.0378 271.519 99.7432 270.768C103.524 270.092 107.154 268.816 110.557 267.088C113.96 265.361 117.136 263.184 120.161 260.781C123.11 258.378 125.908 255.675 128.555 252.821C133.773 247.114 138.31 240.807 142.167 234.199C144.133 230.895 145.947 227.441 147.536 223.986C149.124 220.532 150.636 216.928 151.77 213.324C152.98 209.644 153.963 205.965 154.946 202.21C155.476 200.333 156.005 198.456 156.535 196.578C156.837 195.677 157.064 194.776 157.291 193.8C157.366 193.349 157.517 192.899 157.517 192.448C157.517 192.223 157.517 191.998 157.517 191.848C157.517 191.773 157.517 191.697 157.517 191.697C157.517 191.697 157.518 191.697 157.593 191.697C157.366 191.622 157.139 191.397 157.215 191.172C157.366 190.947 157.593 190.796 157.896 190.796Z" fill="black"/>
<path d="M33.0455 191.322C31.76 192.223 30.3232 192.823 28.8864 193.424C27.4495 193.95 26.0127 194.551 24.7272 195.226C23.4416 195.902 22.156 196.803 21.2485 197.855C20.7948 198.38 20.3412 198.981 20.0387 199.582L19.8118 200.032L19.5849 200.558C19.4336 200.858 19.358 201.234 19.2068 201.534C18.753 202.886 18.8287 204.387 19.0556 205.814C19.358 207.241 19.8874 208.668 20.568 210.019L21.5511 212.122C21.8536 212.873 22.156 213.473 22.6097 214.074C23.4416 215.276 24.5003 216.477 25.3322 217.829C25.4078 217.979 25.4077 218.204 25.2565 218.279C25.1052 218.354 24.9539 218.354 24.8027 218.204C23.8952 217.003 22.8366 215.876 21.8535 214.6C21.3242 213.999 20.946 213.248 20.6435 212.572C20.2654 211.896 19.963 211.221 19.5849 210.47C18.9043 209.043 18.2993 207.616 17.8455 206.039C17.4674 204.462 17.3918 202.735 17.8455 201.158C17.9968 200.783 18.0724 200.332 18.2236 199.957L18.4505 199.356L18.753 198.831C19.1311 198.08 19.5849 197.404 20.1899 196.803C21.3242 195.527 22.6853 194.626 24.0465 193.875C25.4833 193.124 26.9202 192.523 28.357 191.922C29.7939 191.397 31.2306 190.871 32.8186 190.646C32.9699 190.646 33.1211 190.721 33.1967 190.946C33.1967 191.096 33.1968 191.246 33.0455 191.322Z" fill="black"/>
<path d="M22.1554 206.716C22.1554 206.641 22.1554 206.716 22.1554 206.716C22.231 206.716 22.0797 206.866 22.5335 206.866C22.7603 206.791 22.7604 206.641 22.7604 206.566L22.7604 206.491L22.8361 206.566L22.9873 206.716L23.2142 207.092C23.3654 207.317 23.5165 207.542 23.6678 207.843C23.9703 208.368 24.1971 208.819 24.424 209.344C24.6509 209.87 24.8778 210.396 25.1047 210.846C25.1803 210.996 25.3316 211.297 25.4828 211.522L25.9364 212.198C26.5414 213.099 27.2221 214 27.9784 214.901C28.7346 215.727 29.4906 216.703 30.0956 217.679C31.3812 219.782 31.9106 222.11 32.2887 224.362C32.6668 226.615 32.9693 228.868 33.1962 231.196C33.1962 231.346 33.1206 231.496 32.8937 231.571C32.7425 231.571 32.5913 231.496 32.5156 231.346C32.0619 229.093 31.6081 226.84 31.1544 224.663C30.6251 222.485 30.02 220.308 28.8101 218.505C28.2051 217.604 27.5246 216.778 26.7683 215.877C26.0121 214.976 25.2559 214.075 24.6509 213.099L24.1973 212.348C24.046 212.048 23.8946 211.897 23.6678 211.522C23.3653 210.996 23.1384 210.471 22.9116 209.945C22.6847 209.419 22.458 208.894 22.3067 208.368C22.2311 208.068 22.1555 207.842 22.0798 207.542L22.0042 207.092L22.0042 206.866L22.1554 206.716L22.0798 206.641L22.0798 206.566C22.0798 206.416 22.0799 206.341 22.3067 206.266C22.7605 206.266 22.6092 206.416 22.6849 206.341C22.7605 206.416 22.6847 206.416 22.7604 206.416C22.836 206.566 22.8361 206.791 22.6849 206.866C22.5336 206.941 22.231 206.791 22.1554 206.716Z" fill="black"/>
<path d="M41.8172 226.089C41.8928 226.089 41.893 226.089 41.9686 226.089C41.9686 226.089 42.0442 226.089 42.1198 226.239C42.1954 226.39 42.1198 226.54 42.1198 226.54C42.1198 226.615 42.0441 226.615 42.0441 226.615C42.0441 226.615 42.0442 226.615 41.9686 226.69L41.9686 226.765L41.8929 226.84C41.8929 226.915 41.8172 226.99 41.8172 226.99C41.8172 227.065 41.6661 227.216 41.5905 227.366C41.4392 227.591 41.2123 227.741 40.9855 227.966C40.5317 228.342 40.0023 228.567 39.5485 228.867C39.0948 229.168 38.7168 229.468 38.1118 229.769C37.5824 230.069 37.053 230.219 36.5236 230.444C35.9943 230.595 35.5406 230.82 35.0869 230.97L33.6502 231.646C33.1208 231.871 32.5914 232.096 32.062 232.246C31.9108 232.322 31.7595 232.322 31.6082 232.322C31.5326 232.322 31.3813 232.397 31.2301 232.397C31.0032 232.472 30.6252 232.547 30.3227 232.547C30.1714 232.547 30.0203 232.397 30.0203 232.246C30.0203 232.096 30.1714 231.946 30.3227 231.946C30.5495 231.946 30.7008 231.796 30.9277 231.721C31.0789 231.646 31.1546 231.571 31.3815 231.571C31.5327 231.496 31.6084 231.496 31.7596 231.421C32.2133 231.195 32.6669 230.97 33.1207 230.67C33.5744 230.369 34.0282 230.069 34.5576 229.844C35.0869 229.543 35.6163 229.318 36.07 229.093C36.5994 228.868 37.053 228.717 37.5068 228.417C37.8849 228.192 38.4143 227.816 38.868 227.591C39.3217 227.291 39.7754 226.99 40.1535 226.69C40.3804 226.54 40.6074 226.39 40.8343 226.239C40.9855 226.164 41.061 226.164 41.2879 226.089C41.3635 226.089 41.4392 226.014 41.5905 226.014L41.7417 226.014C41.7417 226.014 41.7416 226.014 41.8172 226.014C41.8172 226.014 41.7417 226.014 41.7417 226.089C41.7417 226.089 41.6661 226.239 41.7417 226.39C41.8173 226.54 41.8929 226.54 41.8929 226.54C41.9685 226.54 41.9685 226.54 42.0441 226.54C41.8928 226.54 41.7417 226.39 41.7417 226.239C41.5148 226.239 41.6659 226.089 41.8172 226.089Z" fill="black"/>
<path d="M34.2547 218.583C34.8597 218.733 35.2379 219.184 35.4648 219.634C35.6917 220.085 35.8429 220.611 35.9941 221.136C36.221 222.187 36.0697 223.239 36.1453 224.065C36.1453 224.891 36.3724 225.792 36.6749 226.618C36.9774 227.444 37.3553 228.345 37.6578 229.246C37.7335 229.396 37.6579 229.621 37.5066 229.621C37.3554 229.696 37.2041 229.621 37.1285 229.471C36.5991 228.645 36.1454 227.894 35.6917 226.993C35.2379 226.092 34.9354 225.116 34.8597 224.065C34.7841 223.013 34.8597 222.187 34.6328 221.361C34.5572 220.986 34.406 220.611 34.2547 220.235C34.1035 219.86 33.8767 219.484 33.9523 218.884C33.9523 218.658 34.1035 218.508 34.3304 218.508C34.1792 218.583 34.2547 218.583 34.2547 218.583Z" fill="black"/>
<path d="M97.1075 52.0323C96.075 52.5431 95.0354 53.1288 94.078 53.6463L93.3601 54.0342L93.1957 54.1705C93.1136 54.2386 93.1136 54.2387 93.0315 54.3068L92.7032 54.579L92.0464 55.1234L91.7181 55.3956L91.5537 55.5319L91.4717 55.6C91.3966 55.5933 91.5538 55.5317 91.6428 55.3889C91.6637 55.1644 91.5272 55.0013 91.4521 54.9945C92.7423 55.7893 94.3136 56.0059 95.8444 55.8416C96.6098 55.7595 97.3752 55.6775 98.1476 55.5205C98.5303 55.4795 98.9199 55.3636 99.3096 55.2477C99.6171 55.1998 100.014 55.0091 100.403 54.8932C100.793 54.7773 101.183 54.6613 101.648 54.5521C101.88 54.4976 102.112 54.4431 102.345 54.3886C102.577 54.334 102.878 54.361 103.246 54.4695C103.759 54.6664 104.257 55.0126 104.523 55.4137C104.864 55.8215 105.048 56.2908 105.156 56.7532C105.455 57.6099 105.529 58.4465 105.685 59.215C105.726 59.5958 105.848 59.9084 105.971 60.2212C106.093 60.5339 106.223 60.7718 106.434 60.9417C106.578 61.03 106.23 60.6969 105.915 60.8196C105.765 60.8061 105.765 60.8061 105.758 60.881C105.676 60.949 105.758 60.8809 105.683 60.8742L105.765 60.8061L105.929 60.6701L106.346 60.2549C106.6 59.9759 106.778 59.69 107.031 59.4109C107.469 58.7713 107.833 58.1251 108.203 57.4039C108.381 57.1182 108.498 56.6759 108.84 56.254C108.922 56.186 108.929 56.1113 109.011 56.0432L109.093 55.9751C109.175 55.907 109.175 55.9069 109.257 55.8388C109.339 55.7707 109.49 55.7845 109.49 55.7845L109.565 55.7912L109.941 55.825C110.166 55.8452 110.467 55.8719 110.685 55.967C111.641 56.2792 112.344 56.8704 112.979 57.38C114.241 58.4741 115.25 59.8473 116.411 60.4042C116.554 60.4925 116.63 60.4993 116.63 60.4993C116.63 60.4993 116.465 60.6354 116.637 60.4244C116.808 60.2135 116.986 59.9276 117.089 59.6351C117.295 59.0501 117.289 58.295 117.119 57.6763C116.956 56.9827 116.643 56.2756 116.241 55.7114C115.838 55.1472 115.279 54.6444 114.719 54.1415C113.518 53.2038 111.996 52.4636 110.747 51.2199C110.126 50.5607 109.588 49.8335 109.288 48.9768C108.989 48.12 108.84 47.2765 108.848 46.372C108.783 44.6309 109.079 43.0733 109.225 41.5021C109.373 38.2715 109.822 35.0679 110.272 31.8643C110.721 28.6607 111.17 25.4571 111.694 22.2602C112.218 19.0633 112.818 15.8733 113.485 12.7648C113.857 11.2139 114.153 9.6559 114.606 8.03692C114.833 7.22743 115.053 6.49305 115.198 5.75163C115.342 5.01021 115.412 4.26175 115.249 3.56815C114.655 3.43935 112.108 2.3056 111.465 2.70052C110.965 3.18375 110.52 3.89826 110.157 4.54462C109.794 5.19098 109.417 5.98692 109.129 6.64002C108.539 8.09588 108.092 9.63982 107.871 11.2042C107.65 12.7686 107.497 14.4149 107.276 15.9793L105.039 35.1665C104.665 38.3769 104.284 41.6621 103.091 44.7234C101.857 47.4039 99.8572 50.1669 97.1075 52.0323ZM96.7804 51.4747C98.0732 50.6101 99.2364 49.5073 100.188 48.2348C101.14 46.9623 101.873 45.5949 102.47 44.0643C103.657 41.0777 104.024 37.9421 104.322 34.725L106.484 15.531C106.63 13.9598 106.783 12.3136 107.004 10.7492C107.232 9.10995 107.685 7.49103 108.275 6.03518C108.577 5.23243 108.865 4.57926 109.318 3.79001C109.503 3.42942 109.763 3.07558 110.023 2.72174C110.283 2.3679 110.468 2.00738 110.872 1.74185C110.954 1.67378 111.118 1.53772 111.275 1.47639C111.433 1.41507 111.583 1.42848 111.733 1.44198C111.959 1.46222 112.184 1.48247 112.41 1.50272C112.854 1.61802 113.229 1.65197 113.666 1.84209C114.035 1.95065 114.479 2.06588 114.841 2.24925C115.059 2.34431 115.203 2.43239 115.428 2.45264C115.503 2.45938 115.647 2.54778 115.722 2.55453C115.797 2.56127 115.865 2.64291 115.865 2.64291C115.865 2.64291 115.933 2.72454 116.008 2.73129C116.077 2.81285 116.07 2.88745 116.145 2.8942C116.138 2.96901 116.138 2.96909 116.213 2.97584C116.43 3.90063 116.347 4.79844 116.195 5.61468C116.044 6.43092 115.817 7.24055 115.597 7.97523C115.226 9.52614 114.854 11.0769 114.558 12.6346C113.891 15.7431 113.366 18.9402 112.842 22.1371C112.318 25.334 111.951 28.4694 111.502 31.6731C111.053 34.8767 110.686 38.0121 110.612 41.2495C110.535 42.9022 110.238 44.4601 110.325 45.9767C110.336 47.4865 110.812 48.8872 111.856 49.8862C112.893 50.96 114.34 51.6934 115.685 52.7194C116.395 53.2357 117.023 53.8204 117.561 54.5477C118.1 55.275 118.399 56.1318 118.623 56.9818C118.848 57.8318 118.832 58.8109 118.517 59.7633C118.325 60.1987 118.132 60.6343 117.79 61.0562C117.708 61.1243 117.701 61.1991 117.455 61.4033C117.291 61.5395 117.058 61.594 116.826 61.6485C116.443 61.6896 116.149 61.5877 115.856 61.4859C114.122 60.5758 113.188 59.2095 112.069 58.2038C111.509 57.7009 110.868 57.2659 110.28 57.0623C110.137 56.9739 109.98 57.0355 109.836 56.9472L109.611 56.927C109.611 56.927 109.761 56.9404 109.768 56.8656C109.85 56.7975 109.85 56.7975 109.85 56.7975L109.932 56.7293C109.761 56.9403 109.651 57.3075 109.459 57.7429C109.089 58.4641 108.719 59.1853 108.274 59.8997C108.014 60.2536 107.753 60.6074 107.418 60.9545C107.254 61.0906 107.165 61.2337 106.994 61.4446C106.912 61.5127 106.829 61.5806 106.747 61.6487C106.665 61.7168 106.665 61.7169 106.583 61.785C106.501 61.8531 106.501 61.8532 106.419 61.9213C106.337 61.9893 106.337 61.989 106.187 61.9756C105.879 62.0234 105.524 61.7654 105.599 61.7722C105.176 61.4324 104.842 60.9498 104.651 60.5554C104.468 60.0863 104.352 59.6986 104.244 59.2362C104.095 58.3929 103.938 57.6245 103.776 56.9309C103.613 56.2373 103.197 55.8227 102.759 55.6326C102.759 55.6326 102.609 55.6191 102.459 55.6056C102.309 55.5921 102.151 55.6536 101.994 55.7149C101.604 55.8308 101.29 55.9535 100.9 56.0694C100.511 56.1853 100.121 56.3012 99.6561 56.4104C99.2665 56.5263 98.8088 56.5606 98.426 56.6016C97.5785 56.7519 96.7449 56.7525 95.9113 56.7531C94.2441 56.7542 92.4543 56.4425 91.0346 55.4098C90.9595 55.403 90.8301 55.165 90.9261 54.9473C90.9469 54.7228 91.1041 54.6616 91.1041 54.6616L91.1863 54.5935L91.2683 54.5257L91.4326 54.3894L91.761 54.1172L92.4859 53.654L92.8894 53.3886C92.9715 53.3205 93.0467 53.3271 93.1288 53.2591L93.293 53.1231L94.0862 52.7416C94.7083 52.5712 95.7479 51.9855 96.7804 51.4747Z" fill="black"/>
<path d="M113.859 2.85469C113.427 5.07804 112.701 7.19974 112.058 9.25324C111.333 11.3748 110.764 13.4347 110.414 15.5901C109.637 19.894 109.297 24.3881 108.889 28.8006C108.682 31.0442 108.474 33.2878 108.124 35.4431C107.841 37.68 107.566 39.842 107.208 42.0721C106.5 46.4575 105.479 50.9655 103.224 54.9099C103.135 55.0527 102.979 55.1141 102.836 55.0258C102.693 54.9375 102.632 54.7812 102.72 54.6384C104.675 50.667 105.608 46.302 106.166 41.903C106.441 39.7409 106.649 37.497 106.931 35.2601C107.207 33.098 107.339 30.8477 107.547 28.6041C107.88 24.1849 108.22 19.6909 109.01 15.2375C109.443 13.0141 110.025 10.8043 110.675 8.67604C111.4 6.5545 112.201 4.43972 113.362 2.50831C113.451 2.36549 113.608 2.30408 113.826 2.39914C113.812 2.54872 113.873 2.70511 113.859 2.85469Z" fill="black"/>
</svg>
