<svg width="422" height="300" viewBox="0 0 422 300" fill="none" xmlns="http://www.w3.org/2000/svg">
<path d="M205.132 142.758C204.451 140.054 204.224 137.351 204.224 134.648C204.224 131.945 204.224 129.242 204.149 126.538C204.073 123.835 203.922 121.132 203.771 118.429L203.694 116.401L203.619 115.425L203.619 114.899L203.619 114.749L203.619 114.674L203.619 114.599C203.619 114.524 203.619 114.599 203.619 114.373C203.241 114.073 207.249 113.848 205.661 114.299L205.661 114.373L205.661 114.449L205.661 114.524L205.661 114.674C205.812 116.101 205.887 117.452 205.963 118.804C206.039 120.156 206.115 121.432 206.266 122.784L206.569 124.811C206.569 125.112 206.569 125.262 206.569 125.412L206.569 125.787C206.569 125.712 206.568 125.787 206.493 125.637C206.493 125.562 206.417 125.487 206.341 125.412C206.266 125.337 206.114 125.187 205.963 125.187C205.812 125.112 205.661 125.112 205.585 125.187C205.509 125.187 205.359 125.262 205.283 125.262C205.207 125.337 205.132 125.412 205.132 125.412L205.056 125.487C205.056 125.562 205.056 125.562 205.056 125.487L205.207 125.262L205.434 124.811L206.493 123.159L206.644 122.934C206.644 122.934 206.644 122.934 206.644 122.859L206.795 122.408C206.795 122.333 206.871 122.183 206.947 122.033C207.022 121.883 207.098 121.658 207.552 121.432C207.703 121.357 207.778 121.357 207.93 121.357C208.081 121.357 208.232 121.357 208.308 121.432C208.535 121.507 208.534 121.583 208.61 121.583C208.761 121.658 208.912 121.807 208.988 121.883C209.668 122.633 209.82 123.309 210.047 123.985C210.274 124.661 210.425 125.337 210.576 126.013C211.106 128.641 211.71 131.344 212.013 134.047C212.164 135.399 212.391 136.751 212.467 138.103C212.543 139.454 212.543 140.881 212.467 142.232C212.467 142.458 212.24 142.683 211.937 142.683C211.711 142.683 211.484 142.458 211.484 142.232C211.484 140.881 211.408 139.529 211.257 138.252C211.105 136.9 210.879 135.624 210.652 134.272C210.425 132.921 210.198 131.644 209.896 130.293L208.913 126.388C208.761 125.712 208.61 125.111 208.383 124.511C208.156 123.91 207.929 123.309 207.627 123.009C207.627 122.934 207.627 123.009 207.627 123.009C207.627 123.009 207.552 123.009 207.703 123.084C207.779 123.084 207.854 123.084 207.93 123.084C208.005 123.084 208.156 123.084 208.232 123.009C208.534 122.859 208.459 122.784 208.534 122.784L208.459 122.934L208.308 123.46C208.308 123.535 208.232 123.685 208.156 123.835L208.005 124.06L206.947 125.862L206.719 126.313L206.569 126.538C206.569 126.538 206.568 126.538 206.493 126.613C206.417 126.688 206.417 126.688 206.341 126.763C206.341 126.763 206.266 126.839 206.191 126.914C206.115 126.989 205.963 126.989 205.888 126.989C205.737 127.064 205.207 126.914 205.056 126.689C204.981 126.614 204.905 126.538 204.905 126.388C204.829 126.238 204.829 126.238 204.829 126.163C204.753 125.787 204.753 125.712 204.753 125.487C204.753 125.337 204.753 125.111 204.753 125.111L204.451 123.084C204.224 121.733 204.148 120.306 203.997 118.954C203.922 117.603 203.846 116.251 203.619 114.974L203.619 114.824L203.619 114.749L203.619 114.824C202.031 115.2 206.039 115.049 205.661 114.749C205.661 114.599 205.661 114.674 205.661 114.599L205.661 114.674L205.661 114.824L205.661 115.35L205.736 116.401L205.888 118.429C206.039 121.132 206.266 123.835 206.341 126.538C206.417 129.242 206.493 131.945 206.493 134.648C206.493 137.351 206.493 140.054 206.039 142.758C206.039 142.983 205.737 143.208 205.51 143.133C205.358 143.058 205.207 142.908 205.132 142.758Z" fill="black"/>
<path d="M227.668 141.48C226.685 139.002 226.307 136.448 226.155 133.895C226.004 131.267 226.004 128.789 226.004 126.161C226.08 124.809 226.156 123.458 226.458 122.181L226.458 122.106C226.458 122.031 226.458 122.031 226.533 121.881C226.609 121.73 226.382 122.031 226.76 121.581C227.063 121.13 227.895 121.28 227.668 121.28L227.744 121.28L227.894 121.28C228.121 121.355 228.273 121.43 228.349 121.43C228.575 121.58 228.802 121.73 228.953 121.881C229.256 122.181 229.483 122.407 229.71 122.707C230.163 123.233 230.541 123.833 230.844 124.358C230.995 124.659 231.147 124.884 231.373 125.185L231.6 125.635L231.752 125.86C231.827 125.935 231.827 125.935 231.903 126.236C231.979 126.386 231.978 126.461 231.978 126.536L231.978 126.611C231.978 126.611 231.978 126.611 231.827 126.386C231.827 126.386 231.676 126.236 231.6 126.161C231.525 126.086 231.298 126.01 231.071 126.01C230.995 126.01 230.844 126.01 230.769 126.01C230.693 126.01 230.617 126.086 230.541 126.086C230.466 126.086 230.314 126.236 230.314 126.236L230.314 126.161C230.39 126.011 230.466 125.785 230.617 125.485L230.769 125.034L230.919 124.584L231.222 123.683C231.449 123.082 231.6 122.481 231.752 121.881C232.13 120.679 232.432 119.403 232.81 118.202C232.885 117.901 233.037 117.526 233.037 117.3L233.188 116.849C233.264 116.699 233.264 116.549 233.339 116.249C233.339 116.174 233.339 116.174 233.491 116.024L233.566 115.949C233.49 115.874 234.322 115.423 234.7 115.648C235.003 115.798 234.927 115.799 235.078 115.949C235.154 116.099 235.23 116.249 235.23 116.324C235.23 116.399 235.23 116.474 235.23 116.549L235.23 116.624L235.23 116.849L235.23 117.375C235.23 117.675 235.23 118.051 235.23 118.351C235.154 120.979 234.701 123.533 234.247 126.086C233.793 128.564 233.491 131.042 233.415 133.595C233.34 134.872 233.339 136.148 233.188 137.424C233.112 138.701 232.961 139.977 232.734 141.254C232.659 141.479 232.432 141.704 232.205 141.629C231.978 141.554 231.751 141.329 231.827 141.104C232.129 138.551 232.13 136.073 232.13 133.52C232.13 130.966 232.281 128.338 232.659 125.785C233.037 123.232 233.415 120.754 233.415 118.276C233.415 117.976 233.415 117.675 233.415 117.375L233.415 116.925L233.415 116.7L233.415 116.624L233.415 116.7C233.415 116.775 233.49 116.925 233.566 117.075C233.717 117.225 233.642 117.225 233.944 117.375C234.322 117.675 235.154 117.225 235.078 117.15C235.078 117.15 235.079 117.075 235.154 117.075C235.23 116.925 235.23 116.925 235.23 116.925L235.154 117.3L235.078 117.751C235.003 118.126 234.927 118.426 234.852 118.727C234.474 119.928 234.171 121.13 233.869 122.406C233.718 123.007 233.491 123.683 233.339 124.284L233.037 125.185L232.886 125.635L232.734 126.086C232.659 126.386 232.508 126.762 232.281 127.212C232.205 127.287 232.129 127.438 232.054 127.588C231.978 127.663 231.902 127.738 231.827 127.813C231.827 127.813 231.676 127.963 231.6 127.963C231.6 127.963 231.449 128.038 231.373 128.038C231.298 128.038 231.146 128.038 231.071 128.038C230.844 128.038 230.617 127.888 230.466 127.813C230.39 127.738 230.239 127.588 230.239 127.588C230.088 127.363 230.088 127.287 230.012 127.212L229.936 127.062L229.861 126.912L228.953 125.485C228.651 124.959 228.273 124.433 227.894 123.983C227.743 123.758 227.517 123.533 227.366 123.382C227.29 123.307 227.214 123.232 227.214 123.232C226.987 123.232 227.744 123.308 228.122 122.932C228.5 122.406 228.273 122.707 228.349 122.631L228.349 122.557C228.122 123.683 227.97 124.959 227.97 126.161C227.97 128.639 228.046 131.192 228.197 133.745C228.348 136.223 228.5 138.776 228.424 141.329C228.424 141.63 228.197 141.779 227.894 141.779C227.894 141.779 227.743 141.705 227.668 141.48Z" fill="black"/>
<path d="M238.102 141.185C237.573 140.885 237.498 140.509 237.498 140.134C237.573 139.758 237.573 139.458 237.724 139.007C237.8 138.782 237.876 138.632 237.952 138.332C238.027 138.182 238.103 138.107 238.178 137.957C238.254 137.881 238.254 137.807 238.405 137.731L238.557 137.656L238.632 137.581C238.783 137.506 239.01 137.431 239.161 137.356C239.313 137.356 239.313 137.356 239.388 137.356C239.464 137.356 239.54 137.356 239.54 137.356C239.615 137.356 239.691 137.431 239.691 137.431C239.767 137.431 239.842 137.506 239.918 137.506C240.069 137.581 240.145 137.581 240.22 137.656C240.372 137.731 240.523 137.881 240.674 137.957C241.279 138.407 241.808 138.932 242.186 139.533C242.564 140.134 242.867 140.735 243.018 141.41C243.093 141.636 242.942 141.936 242.64 142.011C242.488 142.086 242.262 142.012 242.186 141.861C241.732 141.411 241.354 140.96 240.901 140.585C240.447 140.209 240.069 139.909 239.54 139.609C239.388 139.534 239.313 139.458 239.161 139.383C239.086 139.383 239.086 139.308 239.01 139.308L239.086 139.308C239.086 139.308 239.161 139.308 239.237 139.308C239.312 139.308 239.313 139.308 239.388 139.308C239.539 139.308 239.691 139.233 239.842 139.158C239.842 139.158 239.842 139.158 239.918 139.158C239.918 139.158 239.917 139.158 239.993 139.158C239.993 139.233 239.918 139.308 239.918 139.383C239.842 139.608 239.842 139.908 239.842 140.134C239.842 140.434 239.691 140.735 239.086 141.035C238.784 141.41 238.405 141.411 238.102 141.185Z" fill="black"/>
<path d="M202.032 142.761C201.729 142.761 201.502 142.686 201.426 142.686C201.35 142.686 201.351 142.686 201.351 142.686C201.351 142.686 201.351 142.686 201.275 142.686C200.973 142.461 200.745 142.011 200.67 141.861L200.443 141.56C200.443 141.56 200.367 141.485 200.443 141.485L200.519 141.56C200.595 141.56 200.594 141.56 200.67 141.635C200.821 141.71 201.048 141.785 201.199 141.785C201.275 141.785 201.426 141.786 201.502 141.71C201.578 141.71 201.578 141.71 201.653 141.635C201.729 141.635 201.729 141.635 201.729 141.635L201.653 141.635L201.577 141.71L200.821 142.086C200.292 142.311 199.914 142.536 199.535 142.761C199.157 142.987 198.78 143.362 198.477 143.813C198.326 144.038 198.023 144.038 197.796 143.888C197.645 143.813 197.645 143.588 197.645 143.437C197.72 142.837 198.023 142.161 198.401 141.635C198.779 141.109 199.309 140.659 199.838 140.283L200.594 139.833L200.67 139.758L200.746 139.758L200.821 139.758C200.897 139.758 200.897 139.758 200.973 139.683C201.048 139.683 201.2 139.608 201.275 139.608C201.502 139.608 201.729 139.683 201.88 139.758C201.956 139.833 201.956 139.833 202.032 139.833L202.107 139.908C202.258 140.058 202.334 140.134 202.334 140.209L202.636 140.584C202.863 140.884 202.863 140.96 203.014 141.11C203.09 141.185 203.166 141.26 203.241 141.41C203.317 141.56 203.317 141.635 203.393 141.785C203.393 142.011 203.317 142.236 203.09 142.461C202.712 142.687 202.41 142.761 202.032 142.761Z" fill="black"/>
<path d="M179.875 146.361C173.825 147.112 167.776 148.088 161.802 149.589C155.904 151.091 150.081 153.043 144.561 155.671C139.116 158.375 133.974 161.754 129.512 165.809C125.05 169.864 121.194 174.594 118.018 179.7C117.791 180.076 117.262 180.226 116.808 180.001C116.581 179.851 116.43 179.55 116.43 179.325C116.354 174.444 116.581 169.563 116.808 164.682C117.035 159.801 117.262 154.996 117.186 150.19C117.186 147.787 117.035 145.384 116.808 143.056C116.581 140.729 116.052 138.401 115.447 136.073C114.237 131.418 112.724 126.837 111.136 122.256L111.363 122.632C111.136 122.406 110.909 122.182 110.682 121.956C110.455 121.731 110.228 121.505 109.926 121.355C109.397 120.98 108.868 120.605 108.338 120.304C107.809 120.004 107.582 119.328 107.885 118.727L109.246 116.399L109.926 115.198C110.153 114.823 110.305 114.372 110.532 113.996L111.666 111.518C112.044 110.692 112.346 109.791 112.649 108.965L113.102 107.689L113.48 106.412C113.707 105.511 114.01 104.685 114.236 103.784C114.69 101.982 115.144 100.255 115.371 98.4524C115.976 94.8481 116.354 91.2437 116.43 87.5643C116.505 83.9599 116.279 80.2059 115.674 76.7517L115.674 76.6762C115.674 76.526 115.674 76.3761 115.674 76.2259C117.186 70.2938 118.85 64.5115 120.589 58.6545C122.328 52.7974 124.143 47.016 126.184 41.234C126.714 39.8073 127.244 38.3805 127.773 36.9537C128.302 35.527 128.907 34.1002 129.512 32.6734C130.117 31.2467 130.722 29.8203 131.478 28.4687C132.158 27.0419 132.915 25.7651 133.596 24.4135C134.957 21.7853 136.015 18.9319 137.149 16.1535C137.679 14.7268 138.435 13.3755 139.04 11.9488L141.082 7.81879L142.216 9.3206C139.721 9.77114 137.15 10.3717 134.73 11.0475C133.52 11.423 132.31 11.7986 131.327 12.3242C130.193 12.9249 129.134 13.6005 128.075 14.2763C123.765 16.9795 119.908 20.3583 116.505 24.1128C113.027 27.8674 110.002 31.9973 106.977 36.1273C105.465 38.2298 103.952 40.2576 102.515 42.4352C101.078 44.5377 99.6421 46.7154 98.0541 48.8179C97.676 49.2684 97.0707 49.3437 96.617 48.9682C96.4658 48.8931 96.3899 48.743 96.3142 48.5928C95.4068 46.6404 94.575 44.6125 94.0456 42.51C93.4407 40.4075 93.1383 38.2301 93.0627 36.0525C92.8358 31.6973 93.5921 27.3423 94.9532 23.2123C95.7094 21.1849 96.5415 19.1572 97.5246 17.2799L100.323 11.5733L105.843 0.23421L106.826 1.58569L99.7932 2.41213C97.5246 2.6374 95.3318 3.0875 93.1388 3.83841C90.9458 4.58931 88.8281 5.49084 86.7863 6.5421C84.7446 7.59337 82.7025 8.79452 80.812 9.99597L80.9634 9.84564C77.863 13.5251 74.9898 17.5053 72.3431 21.5602C69.6208 25.6151 67.2003 29.7448 64.9317 34.0249C62.7387 38.3051 60.8485 42.8104 59.5629 47.3909C58.958 49.7187 58.4285 52.0471 58.2772 54.3749L58.2019 56.1766C58.2019 56.7773 58.2019 57.3779 58.2019 57.9035C58.2019 58.5043 58.2771 59.2556 58.1258 59.8563C58.1258 60.1567 58.0508 60.532 57.9752 60.8324C57.8996 61.1327 57.899 61.508 57.7477 61.8084C57.1428 64.2864 56.2359 66.5394 55.3285 68.8672C54.8747 69.9936 54.4962 71.1199 54.1181 72.2463L53.8914 73.072C53.8158 73.3723 53.8156 73.598 53.74 73.8984C53.74 74.1988 53.6647 74.4237 53.6647 74.7241L53.6647 75.6253C53.6647 78.0282 54.0428 80.356 54.4209 82.7589C54.6477 83.9604 54.8746 85.0869 55.1771 86.2883L55.6305 88.0153L56.16 89.7422C59.1092 98.9032 64.0242 107.389 70.2251 114.823C70.452 115.048 70.4521 115.348 70.3765 115.648C69.3178 118.952 69.3181 122.632 69.9231 126.161C70.4524 129.69 71.5113 133.22 72.7212 136.599C73.3262 138.326 74.0065 140.053 74.687 141.705C75.3676 143.432 76.0481 145.084 76.8043 146.811C78.2411 150.19 79.7533 153.494 81.5682 156.648C83.3075 159.801 85.4255 162.805 87.8453 165.433L88.7522 166.409L89.2064 166.935L89.7358 167.386C90.4164 167.987 91.0964 168.587 91.777 169.113L93.9703 170.69C94.7265 171.215 95.4824 171.591 96.3142 172.117C99.4903 173.844 102.818 175.27 106.372 176.171C108.112 176.772 109.927 177.073 111.666 177.523C113.481 177.899 115.295 178.199 117.035 178.574C117.488 178.649 117.791 179.1 117.715 179.55C117.715 179.625 117.639 179.701 117.639 179.776C114.993 184.432 112.724 189.388 110.758 194.419C109.775 196.972 108.943 199.449 108.035 202.077C107.128 204.63 106.221 207.184 105.389 209.737C104.557 212.29 103.801 214.843 103.196 217.471C102.591 220.099 102.288 222.727 102.364 225.355C102.44 227.983 102.893 230.612 104.028 232.94C105.162 235.268 106.674 237.521 108.414 239.473C110.228 241.425 112.195 243.227 114.313 244.879C116.43 246.456 118.774 247.958 121.042 249.309C125.731 252.013 130.646 254.266 135.637 256.593C145.543 261.249 155.45 265.754 165.507 269.809C175.64 273.864 185.85 277.619 196.361 280.472L200.293 281.524L204.301 282.424L206.267 282.875C206.947 283.025 207.628 283.1 208.233 283.251L212.241 284.001C213.602 284.227 214.963 284.377 216.249 284.527L218.291 284.827L220.332 284.977C221.693 285.053 223.055 285.203 224.416 285.203L228.5 285.203C229.861 285.203 231.146 285.053 232.431 284.752C233.717 284.452 235.002 284.076 236.212 283.55C238.708 282.574 241.052 281.298 243.396 279.871C248.009 277.093 252.396 273.789 256.706 270.56C261.016 267.256 265.327 263.877 269.94 260.874C271.074 260.123 272.284 259.446 273.494 258.771C274.704 258.17 275.913 257.494 277.199 256.969C278.484 256.443 279.694 255.842 280.98 255.317L282.87 254.566L284.837 253.89C289.979 252.012 295.273 250.586 300.566 249.159C303.213 248.408 305.859 247.732 308.43 246.906C311.001 246.156 313.572 245.254 316.143 244.278C317.429 243.828 318.639 243.227 319.849 242.626L321.588 241.65C322.193 241.35 322.723 240.975 323.327 240.599C325.52 239.097 327.562 237.37 329.15 235.267C330.738 233.165 331.797 230.687 332.478 228.134C332.856 226.857 333.007 225.505 333.158 224.229C333.234 223.553 333.234 222.878 333.234 222.202C333.234 221.526 333.31 220.85 333.234 220.174C333.083 214.843 331.948 209.511 330.511 204.33C329.075 199.149 327.108 194.118 324.688 189.312C319.773 179.7 312.967 171.065 304.8 164.007C300.717 160.478 296.331 157.249 291.643 154.621C286.954 151.993 281.888 149.815 276.745 148.088C266.385 144.709 255.571 143.056 244.682 142.38C233.793 141.705 222.903 142.005 212.014 142.831C201.503 143.657 190.689 145.009 179.875 146.361ZM179.724 145.384C190.538 144.032 201.427 142.681 212.317 141.855C223.206 141.029 234.171 140.729 245.136 141.33C256.026 142.005 266.99 143.657 277.426 147.036C282.643 148.763 287.71 150.866 292.474 153.569C297.238 156.272 301.7 159.501 305.859 163.106C314.178 170.314 321.059 179.025 326.05 188.711C328.546 193.592 330.512 198.698 331.949 203.955C333.461 209.211 334.595 214.617 334.747 220.099C334.822 220.775 334.747 221.451 334.747 222.202C334.671 222.878 334.746 223.554 334.671 224.304C334.444 225.656 334.368 227.082 333.914 228.359C333.234 231.062 332.099 233.69 330.36 235.868C328.696 238.121 326.504 239.998 324.235 241.5C323.63 241.875 323.101 242.251 322.496 242.626L320.681 243.603C319.395 244.204 318.185 244.804 316.9 245.254C314.329 246.306 311.758 247.132 309.111 247.958C306.464 248.784 303.817 249.46 301.246 250.211C295.953 251.637 290.735 253.139 285.669 254.941L283.778 255.617L281.888 256.368C280.602 256.819 279.392 257.419 278.182 257.945C276.972 258.47 275.762 259.147 274.552 259.747C273.342 260.348 272.208 261.098 271.074 261.774C266.537 264.703 262.302 268.082 257.916 271.386C253.605 274.69 249.219 277.994 244.531 280.847C242.186 282.274 239.767 283.551 237.12 284.602C235.834 285.128 234.473 285.578 233.112 285.879C231.751 286.179 230.314 286.404 228.953 286.329L224.794 286.329C223.433 286.329 222.071 286.179 220.71 286.104L218.669 285.953L216.627 285.654C215.266 285.503 213.904 285.278 212.543 285.128L208.46 284.377C207.78 284.227 207.099 284.152 206.418 284.001L204.376 283.55L200.369 282.65L196.436 281.598C185.849 278.745 175.565 274.99 165.432 270.935C155.299 266.88 145.317 262.375 135.486 257.72C130.571 255.392 125.58 253.139 120.74 250.436C118.396 249.084 116.052 247.582 113.783 245.93C111.59 244.278 109.472 242.401 107.657 240.373C105.767 238.271 104.255 235.944 103.045 233.466C101.835 230.913 101.305 228.059 101.23 225.281C101.154 222.502 101.532 219.724 102.137 217.021C102.742 214.317 103.499 211.689 104.33 209.136C105.162 206.508 106.145 203.955 106.977 201.402C107.809 198.849 108.716 196.221 109.699 193.668C111.665 188.562 113.934 183.605 116.656 178.799L117.261 180.001C115.446 179.626 113.632 179.325 111.741 178.95C109.926 178.499 108.111 178.124 106.296 177.598C102.667 176.622 99.1881 175.195 95.8608 173.393C95.029 172.943 94.197 172.492 93.4408 171.966L91.1722 170.314C90.416 169.713 89.7356 169.113 89.055 168.437L88.5255 167.987L88.072 167.461L87.0891 166.409C84.518 163.631 82.4002 160.553 80.5853 157.324C78.7704 154.095 77.1828 150.716 75.746 147.337C74.9898 145.61 74.3086 143.958 73.6281 142.231C72.9475 140.504 72.2672 138.776 71.6622 137.049C70.3767 133.595 69.3177 129.991 68.7127 126.311C68.1078 122.632 68.0323 118.727 69.2422 115.048L69.3936 115.874C63.1171 108.289 57.9752 99.6543 54.9504 90.268L54.4209 88.4655L53.9667 86.6638C53.5886 85.4623 53.4377 84.2603 53.1352 83.0589C52.7571 80.5809 52.379 78.1781 52.379 75.7001L52.379 74.7989C52.379 74.4985 52.3787 74.1235 52.4543 73.7481C52.5299 73.4477 52.5301 73.0724 52.6057 72.772L52.8324 71.8708C53.2105 70.6694 53.589 69.4678 54.0428 68.3414C54.8746 66.0887 55.8574 63.836 56.3867 61.5833C56.4623 61.2829 56.5381 60.9828 56.5381 60.7576C56.6137 60.4572 56.6139 60.2315 56.6895 59.9311C56.6895 59.6308 56.7648 59.4058 56.7648 59.1054C56.7648 58.8051 56.7648 58.5794 56.7648 58.279C56.7648 57.6783 56.6892 57.0025 56.7648 56.4017L56.8409 54.5245C57.0677 52.0465 57.5213 49.5686 58.2019 47.1658C59.4875 42.36 61.4537 37.8547 63.6467 33.4243C65.9154 29.0691 68.4104 24.7886 71.1327 20.7338C73.8551 16.6789 76.7291 12.6992 79.9052 8.86961C79.9808 8.79452 80.0558 8.71929 80.0558 8.71929C82.0976 7.36766 84.0639 6.16636 86.2569 5.11509C88.3742 4.06382 90.5674 3.0875 92.836 2.3366C93.9703 1.96114 95.1043 1.58584 96.3142 1.36057C97.5242 1.06021 98.7347 0.984968 99.9446 0.834788L106.901 0.00908566C107.43 -0.0660048 107.884 0.309154 107.96 0.834788C107.96 0.984968 107.96 1.21039 107.885 1.36057L102.364 12.7745L99.5665 18.481C98.5835 20.2832 97.751 22.2356 97.0705 24.1128C95.7849 28.0175 95.0291 32.0729 95.256 36.2028C95.4072 38.2303 95.7096 40.2577 96.2389 42.2101C96.7683 44.1624 97.5243 46.1145 98.3562 47.9167L96.617 47.7663C98.2051 45.814 99.5661 43.6365 101.003 41.534C102.44 39.3563 104.028 37.2538 105.465 35.1513C108.49 30.9462 111.59 26.8164 115.144 22.9117C118.698 19.0821 122.706 15.5531 127.168 12.6997C128.302 11.9488 129.437 11.3479 130.571 10.6721C131.857 9.99627 133.142 9.62052 134.427 9.24507C136.998 8.49416 139.494 7.96897 142.065 7.44334C142.67 7.36825 143.199 7.66831 143.275 8.26904C143.351 8.49431 143.275 8.71987 143.199 8.94515L141.233 12.9996C140.553 14.3512 139.872 15.6278 139.343 17.1296C138.284 19.9079 137.15 22.8363 135.713 25.6146C135.032 26.9663 134.276 28.3182 133.596 29.6698C132.915 30.9464 132.31 32.3734 131.705 33.725C131.1 35.1517 130.571 36.5031 130.041 37.9298C129.512 39.3565 128.982 40.7834 128.453 42.2101C126.411 47.917 124.672 53.6989 122.933 59.4809C121.194 65.2629 119.606 71.1198 118.094 76.9768L118.094 76.5266C118.396 78.4789 118.623 80.2811 118.698 82.1584C118.774 83.1345 118.774 84.0355 118.85 85.0117L118.85 87.8649C118.774 91.6195 118.471 95.3743 117.791 99.0537C117.488 100.931 117.035 102.733 116.581 104.61C116.354 105.511 116.051 106.413 115.749 107.314L115.371 108.665L114.841 110.017C114.463 110.918 114.161 111.819 113.783 112.645L112.573 115.198C112.346 115.649 112.195 116.024 111.968 116.474L111.288 117.676L109.851 120.154L109.473 118.577C110.153 118.953 110.758 119.403 111.363 119.853C111.666 120.078 111.968 120.304 112.195 120.529C112.497 120.755 112.724 120.98 113.027 121.28C113.102 121.43 113.254 121.505 113.254 121.656C114.842 126.311 116.279 130.892 117.564 135.698C118.169 138.101 118.698 140.504 118.925 142.982C119.152 145.46 119.228 147.862 119.303 150.34C119.379 155.221 119.001 160.102 118.774 164.983C118.471 169.864 118.169 174.67 118.169 179.475L116.581 179.025C119.908 173.844 123.916 169.037 128.604 164.907C133.217 160.777 138.511 157.398 144.107 154.77C149.703 152.067 155.601 150.115 161.575 148.688C167.549 147.111 173.599 146.135 179.724 145.384Z" fill="black"/>
<path d="M108.338 119.482C107.431 119.332 106.675 119.031 105.843 118.731C105.011 118.43 104.255 118.055 103.574 117.68C102.062 116.929 100.55 116.103 99.0372 115.427C96.0124 114 92.9117 112.799 89.66 112.048C86.4839 111.297 83.1571 111.072 79.9054 111.673L78.695 111.898C78.3169 111.973 77.8635 112.048 77.4854 112.198L76.275 112.574C75.8969 112.724 75.4435 112.799 75.0654 112.949C74.3092 113.25 73.553 113.55 72.7968 113.925L70.6035 115.127C70.3766 115.277 70.0743 115.127 69.9987 114.901C69.9231 114.676 69.9232 114.451 70.1501 114.301C72.948 112.348 76.1997 110.771 79.6026 110.021C83.0812 109.27 86.7112 109.345 90.1142 110.021C93.5927 110.771 96.8444 111.973 99.9448 113.4C101.533 114.151 103.045 114.901 104.557 115.652C106.07 116.478 107.507 117.379 108.716 118.656C108.868 118.881 108.868 119.182 108.716 119.332C108.641 119.482 108.49 119.557 108.338 119.482Z" fill="black"/>
<path d="M118.396 145.015C119.53 144.865 120.438 145.166 121.345 145.617C122.253 145.992 123.084 146.442 123.992 146.893C125.731 147.794 127.395 148.77 129.059 149.747C130.722 150.798 132.31 151.924 133.822 153.126C135.335 154.327 136.771 155.679 138.057 157.105C138.208 157.331 138.208 157.63 137.982 157.781C137.83 157.931 137.528 157.931 137.377 157.781C135.864 156.579 134.352 155.453 132.763 154.402C131.175 153.35 129.588 152.375 127.924 151.474C126.261 150.497 124.597 149.671 122.857 148.845C122.026 148.395 121.118 148.019 120.286 147.643C119.454 147.268 118.623 146.743 117.942 145.917C117.791 145.691 117.791 145.316 118.017 145.166C118.244 145.091 118.32 145.015 118.396 145.015Z" fill="black"/>
<path d="M306.465 164.684C305.33 161.681 304.801 158.527 304.574 155.373C304.423 152.22 304.574 148.991 304.952 145.837C305.406 142.683 306.011 139.604 306.767 136.525C307.523 133.447 308.43 130.443 309.565 127.44C309.64 127.289 309.716 127.139 309.867 126.989C311.834 125.412 313.8 123.91 316.068 122.634C316.598 122.333 317.278 122.033 317.883 121.808C318.488 121.583 319.093 121.357 319.698 121.207C320.908 120.832 322.194 120.606 323.404 120.306C324.614 120.081 325.899 119.856 327.109 119.705L330.814 119.104C333.31 118.729 335.805 118.428 338.3 118.353C340.796 118.278 343.367 118.353 345.939 118.879C347.224 119.179 348.509 119.555 349.643 120.23C350.853 120.831 351.912 121.732 352.82 122.859C353.273 123.384 353.576 123.985 353.879 124.661C354.181 125.262 354.332 125.863 354.559 126.538L354.862 127.44L355.013 127.89L355.088 128.341L355.466 130.218C355.769 132.771 355.844 135.324 355.466 137.802L355.391 138.703C355.315 139.004 355.24 139.304 355.24 139.604L354.862 141.482C354.71 142.082 354.559 142.683 354.408 143.283C354.257 143.884 354.106 144.485 353.879 145.086L353.274 146.888C353.047 147.488 352.82 148.015 352.593 148.615C352.139 149.817 351.61 150.943 351.156 152.069C349.114 156.575 346.619 160.855 343.897 165.06C341.174 169.19 338.528 173.32 335.578 177.299C332.629 181.279 329.226 184.959 325.37 188.113C325.143 188.263 324.84 188.263 324.689 188.038C324.537 187.813 324.538 187.512 324.765 187.362C328.546 184.208 331.722 180.528 334.595 176.548C337.469 172.569 340.04 168.364 342.687 164.234C345.258 160.104 347.677 155.823 349.643 151.393C350.097 150.267 350.627 149.14 351.005 148.014C351.232 147.413 351.459 146.888 351.61 146.287L352.14 144.56C352.366 143.959 352.517 143.434 352.593 142.833C352.744 142.232 352.895 141.707 353.046 141.106L353.349 139.304C353.425 139.003 353.501 138.703 353.501 138.403L353.576 137.501C353.878 135.098 353.803 132.771 353.501 130.443L353.198 128.716L353.122 128.265L352.971 127.815L352.668 126.989C352.366 125.862 351.913 124.886 351.232 123.985C349.871 122.258 347.753 121.282 345.484 120.832C343.216 120.306 340.796 120.231 338.376 120.381C333.537 120.606 328.697 121.508 323.857 122.334C322.647 122.559 321.513 122.859 320.379 123.159C319.774 123.309 319.245 123.535 318.715 123.685C318.186 123.91 317.732 124.136 317.203 124.436C315.161 125.562 313.195 127.064 311.305 128.566L311.607 128.115C310.548 130.968 309.64 133.972 308.96 136.901C308.204 139.904 307.599 142.908 307.221 145.987C306.843 149.066 306.615 152.069 306.54 155.148C306.54 158.226 306.843 161.23 307.372 164.309C307.448 164.534 307.221 164.835 306.994 164.835C306.767 165.06 306.54 164.91 306.465 164.684Z" fill="black"/>
<path d="M314.63 124.358C313.571 122.856 312.361 121.355 311.454 119.703C311 118.877 310.471 118.126 310.017 117.3C309.564 116.474 309.185 115.648 308.732 114.822C307.144 111.443 305.631 107.988 304.497 104.384C303.363 100.78 302.379 97.1754 301.623 93.4959C300.867 89.8165 300.262 86.1372 299.96 82.3827C299.96 82.3076 299.96 82.3075 299.96 82.2324C300.64 75.3991 301.018 68.566 300.943 61.7328C300.867 58.3537 300.716 54.8996 300.262 51.5956C299.808 48.2916 298.674 45.1374 297.086 42.1337C293.985 36.1265 289.448 30.9454 284.911 25.7642C283.777 24.4876 282.642 23.1361 281.508 21.7845C280.979 21.1087 280.449 20.4327 279.844 19.7569L278.03 17.9552L270.695 10.7461C270.316 10.3706 270.316 9.69479 270.695 9.24425C270.846 9.09407 271.073 8.94433 271.299 8.94433C273.039 8.71906 274.703 8.4932 276.518 8.34302C276.593 8.34302 276.82 8.34302 276.896 8.34302L277.198 8.34302L277.879 8.34302C278.332 8.41811 278.786 8.41825 279.24 8.49335C280.147 8.56844 281.054 8.71906 281.886 8.94433C285.44 9.69523 288.692 11.0469 291.868 12.6989C298.069 16.0028 303.741 20.2076 308.732 25.1636C311.227 27.6416 313.496 30.3447 315.462 33.2732C317.428 36.2017 319.092 39.3557 320.075 42.8099C320.528 44.5369 320.906 46.1888 321.209 47.9159C321.511 49.6429 321.814 51.2948 322.04 53.0219C322.494 56.476 322.948 59.8553 323.251 63.3094L322.721 62.5585C325.897 63.9101 329.301 64.9618 332.703 65.6377C336.106 66.3135 339.585 66.7634 343.064 66.5382C346.542 66.388 349.869 65.5623 352.818 63.8352C356.07 62.033 359.624 61.3569 362.649 59.78L362.574 59.78C362.952 59.5547 363.178 59.4802 363.556 59.255L363.632 59.255C363.632 59.255 363.708 59.2545 363.783 59.1794C363.783 59.1794 363.783 59.1794 364.086 59.1794C364.237 59.1794 364.539 59.4049 364.539 59.3298L364.691 59.4801C364.766 59.5552 364.842 59.6301 364.917 59.7052C365.069 59.8554 365.144 60.0808 365.296 60.231C365.674 60.9819 365.901 61.6576 366.052 62.3334C366.354 63.7601 366.506 65.1114 366.581 66.5382C366.733 69.3165 366.581 72.0953 366.355 74.8736C366.279 76.2253 366.052 77.652 365.825 79.0036C365.598 80.3553 365.371 81.7064 365.144 83.0581C364.615 85.7613 364.086 88.4652 363.33 91.1684C362.649 93.8717 361.893 96.4996 361.061 99.1277C360.229 101.756 359.246 104.309 358.263 106.937C356.221 112.044 353.877 117.075 351.382 121.956C351.231 122.181 351.003 122.256 350.776 122.181C350.549 122.03 350.474 121.805 350.55 121.58C353.045 116.699 355.314 111.743 357.28 106.637C358.263 104.084 359.17 101.531 360.002 98.9026C360.834 96.2744 361.59 93.6463 362.195 91.0181C362.876 88.3899 363.406 85.6865 363.859 82.9833C364.086 81.6316 364.313 80.2797 364.539 78.9281C364.766 77.5765 364.918 76.2253 364.994 74.8736C365.22 72.1704 365.295 69.4673 365.144 66.764C365.069 65.4124 364.918 64.0602 364.615 62.7836C364.464 62.1829 364.237 61.5072 364.01 61.0567C363.934 60.9065 363.859 60.8319 363.783 60.7568C363.783 60.6817 363.708 60.6815 363.708 60.6065L363.632 60.5309C363.556 60.4558 363.859 60.7563 364.01 60.6812C364.237 60.6812 364.237 60.6812 364.237 60.6812L364.313 60.6812C364.086 60.7563 363.784 60.9821 363.481 61.1322L363.405 61.1322C360.153 62.7842 356.6 63.5347 353.65 65.1867C350.474 67.0639 346.769 67.965 343.139 68.1903C339.509 68.4156 335.879 68.04 332.325 67.2891C328.771 66.5382 325.368 65.5626 321.965 64.1359C321.663 63.9857 321.436 63.7601 321.436 63.4597C321.058 60.0807 320.679 56.6268 320.15 53.2477C319.923 51.5206 319.621 49.8685 319.318 48.2165C319.016 46.5645 318.638 44.9121 318.184 43.2601C318.109 42.8847 317.957 42.4344 317.806 42.0589L317.579 41.4584L317.353 40.8578C317.05 40.1069 316.747 39.2809 316.294 38.6051L315.689 37.4787C315.462 37.1033 315.235 36.7275 315.084 36.4272L314.403 35.3756L313.722 34.3248C311.832 31.5464 309.639 28.9184 307.219 26.5906C304.799 24.1877 302.228 22.0095 299.506 19.982C296.783 17.9546 293.91 16.153 290.885 14.5761C287.861 12.9992 284.76 11.7225 281.433 11.0467C280.601 10.8965 279.769 10.7464 278.937 10.6713C278.559 10.5962 278.105 10.5957 277.727 10.5957L277.122 10.5957L276.82 10.5957C276.744 10.5957 276.668 10.5957 276.593 10.5957C274.929 10.7459 273.19 10.9718 271.526 11.197L272.131 9.39458L279.542 16.7533L281.433 18.6306C282.038 19.2313 282.567 19.9826 283.096 20.5834C284.23 21.935 285.289 23.2109 286.424 24.4875C290.961 29.6687 295.649 34.9254 298.901 41.308C300.489 44.4618 301.774 47.8412 302.304 51.3705C302.833 54.8997 302.984 58.3534 303.06 61.8076C303.136 68.791 302.758 75.6995 302.077 82.6078L302.077 82.3827C302.38 85.987 302.985 89.6665 303.741 93.2708C304.497 96.8752 305.329 100.48 306.388 103.934C307.371 107.463 308.656 110.917 310.093 114.296C311.529 117.675 313.269 120.904 315.235 124.058C315.386 124.283 315.311 124.583 315.084 124.733C315.084 124.583 314.781 124.583 314.63 124.358Z" fill="black"/>
<path d="M97.5238 48.7421C96.0114 49.7933 94.3474 50.3936 92.6838 50.9193C91.0201 51.3698 89.2807 51.8205 87.6171 52.1959C84.2141 53.0219 80.8112 53.6977 77.4083 54.4486C74.0054 55.1996 70.6782 55.9503 67.3509 56.9265C64.0236 57.9027 60.8477 59.0289 57.6716 60.5307C57.4448 60.6058 57.1425 60.5308 57.0668 60.3055C56.9912 60.0803 57.0667 59.8551 57.2935 59.705C60.3184 57.9779 63.5702 56.551 66.8975 55.4247C70.2248 54.2983 73.6276 53.3226 76.9549 52.4966L87.0883 50.0936C88.7519 49.7181 90.4153 49.2674 92.079 48.8169C92.9108 48.5916 93.7425 48.3665 94.5743 48.2163C95.4061 48.0661 96.3136 47.9156 97.221 47.9156C97.5235 47.9156 97.6752 48.1411 97.6752 48.4414C97.7508 48.5165 97.675 48.667 97.5238 48.7421Z" fill="black"/>
<path d="M363.33 59.4028C363.254 56.6244 363.33 53.9216 363.179 51.2184C363.179 50.5425 363.103 49.8666 363.103 49.1908C363.028 48.515 363.027 47.839 362.952 47.1632C362.801 45.8116 362.725 44.4604 362.574 43.1087C362.271 40.4055 361.817 37.7021 361.288 35.0739C360.759 32.4457 360.078 29.7425 359.246 27.1894L359.398 27.4893L344.5 7.96579L346.315 7.66587C344.803 12.3966 343.593 17.3521 343.139 22.233C343.064 23.4344 342.988 24.7113 343.064 25.9127C343.064 26.5134 343.139 27.1145 343.214 27.7152L343.366 29.6672C343.517 32.2203 343.518 34.8483 343.064 37.4014C342.686 39.9545 342.005 42.5076 341.097 44.9105C340.265 47.3134 339.207 49.6415 338.224 51.9693C336.182 56.6249 334.14 61.2055 332.552 66.0113C332.477 66.2366 332.174 66.3863 331.947 66.3112C331.721 66.2362 331.569 66.011 331.645 65.7107C333.081 60.8298 335.048 56.0991 337.014 51.4435C337.997 49.1157 338.905 46.7876 339.661 44.3847C340.417 41.9818 341.022 39.5795 341.4 37.1015C341.778 34.6235 341.778 32.1452 341.627 29.6672L341.475 27.79C341.4 27.1893 341.324 26.5137 341.324 25.8379C341.248 24.5614 341.249 23.2096 341.4 21.9331C341.551 19.38 342.005 16.8268 342.534 14.2737C343.064 11.7206 343.668 9.31742 344.5 6.83944C344.651 6.3138 345.256 6.01388 345.786 6.16406C346.013 6.23915 346.164 6.38933 346.315 6.53951L361.288 26.063C361.364 26.1381 361.439 26.2879 361.439 26.363C362.271 29.0662 362.952 31.7701 363.557 34.4733C364.162 37.1766 364.54 39.9549 364.918 42.7333C365.296 45.5116 365.447 48.2897 365.372 51.068L365.296 53.1704C365.22 53.8462 365.145 54.597 365.069 55.2728C364.918 56.6995 364.615 58.0512 364.388 59.4028C364.313 59.628 364.086 59.8533 363.859 59.7782C363.481 59.8533 363.33 59.628 363.33 59.4028Z" fill="black"/>
<path d="M305.934 141.94C305.329 142.24 304.8 142.315 304.27 142.39C303.741 142.465 303.136 142.54 302.607 142.54L300.943 142.616L299.28 142.765C297.087 142.991 294.894 143.366 292.776 143.892C290.659 144.417 288.541 145.093 286.424 145.919C284.382 146.745 282.341 147.647 280.299 148.698C280.072 148.848 279.769 148.698 279.693 148.473C279.618 148.247 279.694 148.022 279.845 147.872C281.735 146.596 283.701 145.469 285.743 144.418C287.785 143.441 289.978 142.54 292.171 141.94C294.364 141.339 296.708 140.814 298.977 140.588L300.717 140.438L302.456 140.363C303.59 140.363 304.8 140.513 305.859 141.114C306.086 141.264 306.237 141.564 306.085 141.789C306.085 141.789 306.01 141.865 305.934 141.94Z" fill="black"/>
<path d="M326.731 190.82C327.789 189.393 328.999 188.117 330.36 186.916C331.646 185.79 333.008 184.663 334.369 183.537C334.671 183.312 335.049 183.236 335.352 183.311C338.982 184.362 342.46 185.639 345.787 187.517C347.451 188.493 349.039 189.544 350.325 191.196C350.93 192.022 351.459 192.998 351.686 194.124C351.761 194.65 351.761 195.251 351.686 195.777C351.61 196.302 351.383 196.903 351.156 197.278C350.4 199.081 349.266 200.657 347.905 202.009C346.543 203.361 345.031 204.487 343.367 205.388C340.04 207.19 336.561 208.392 333.007 209.368C332.78 209.443 332.478 209.293 332.402 209.068C332.327 208.843 332.478 208.617 332.705 208.466C336.108 207.19 339.587 205.914 342.536 204.037C344.048 203.06 345.485 202.009 346.619 200.732C347.829 199.456 348.737 198.029 349.342 196.452C349.493 196.077 349.644 195.701 349.644 195.401C349.719 195.026 349.719 194.725 349.644 194.35C349.492 193.674 349.114 192.998 348.661 192.398C347.678 191.121 346.165 190.144 344.653 189.318C341.553 187.666 338.15 186.39 334.747 185.414L335.73 185.188C334.369 186.315 333.083 187.441 331.722 188.567C330.361 189.619 328.924 190.671 327.26 191.421C327.033 191.572 326.731 191.421 326.579 191.196C326.579 191.121 326.655 190.97 326.731 190.82Z" fill="black"/>
<path d="M342.005 185.789C343.593 181.659 346.164 178.054 348.508 174.3C349.718 172.423 351.004 170.696 352.289 168.818L356.07 163.412C356.222 163.111 356.524 162.961 356.827 162.961C357.734 162.886 358.566 162.811 359.473 162.811C359.927 162.811 360.381 162.812 360.91 162.887C361.364 162.962 361.818 163.037 362.196 163.112C363.104 163.337 364.011 163.487 364.994 164.013C365.448 164.313 365.901 164.689 366.279 165.139C366.582 165.665 366.809 166.19 366.885 166.716C367.036 167.767 366.96 168.668 366.809 169.569C366.733 170.02 366.582 170.47 366.507 170.921C366.431 171.371 366.28 171.822 366.128 172.197C365.599 173.925 364.842 175.501 364.011 177.078C362.271 180.157 360.079 182.86 357.659 185.338C355.239 187.816 352.667 190.144 350.021 192.322C349.794 192.472 349.492 192.472 349.341 192.247C349.189 192.097 349.189 191.796 349.341 191.571C351.836 189.168 354.256 186.841 356.525 184.287C358.793 181.734 360.835 179.106 362.423 176.102C363.179 174.6 363.86 173.099 364.238 171.522C364.389 171.147 364.464 170.696 364.54 170.32C364.616 169.945 364.691 169.494 364.767 169.119C364.918 168.368 364.918 167.542 364.843 166.866C364.767 166.566 364.691 166.265 364.54 166.04C364.389 165.815 364.162 165.665 363.935 165.515C363.406 165.214 362.574 164.989 361.818 164.839C361.44 164.764 360.986 164.689 360.608 164.614C360.305 164.614 359.927 164.539 359.473 164.614C358.641 164.614 357.81 164.689 356.978 164.764L357.734 164.313L354.029 169.72C352.819 171.522 351.533 173.324 350.323 175.201C347.979 178.88 345.786 182.71 342.761 186.014C342.61 186.24 342.307 186.24 342.081 186.014C342.005 186.24 341.93 186.015 342.005 185.789Z" fill="black"/>
<path d="M361.818 163.555C361.894 160.101 362.347 156.646 363.028 153.267C363.708 149.888 364.616 146.51 365.599 143.206C366.582 139.902 367.716 136.597 368.926 133.368L372.102 123.606C372.178 123.306 372.405 123.081 372.632 123.006C373.993 122.405 375.278 121.955 376.639 121.654C378 121.354 379.437 121.129 380.95 121.204C382.387 121.279 384.05 121.655 385.26 122.706C386.546 123.757 387.226 125.259 387.453 126.76C387.755 128.187 387.68 129.614 387.529 131.041C387.378 132.392 387.226 133.744 386.999 135.02C386.621 137.649 386.017 140.277 385.26 142.905C384.58 145.533 383.672 148.086 382.614 150.564C381.555 153.042 380.269 155.445 378.757 157.698C377.244 159.951 375.505 162.053 373.539 163.93C371.573 165.808 369.304 167.385 366.96 168.736C366.733 168.887 366.43 168.811 366.279 168.586C366.128 168.361 366.204 168.061 366.431 167.985C368.699 166.559 370.741 164.982 372.632 163.105C374.446 161.227 376.11 159.2 377.472 156.947C380.194 152.517 382.16 147.561 383.445 142.455C384.126 139.902 384.655 137.349 384.958 134.72C385.184 133.444 385.26 132.092 385.412 130.816C385.563 129.539 385.487 128.262 385.26 127.136C385.033 125.934 384.504 124.958 383.672 124.283C382.84 123.607 381.782 123.306 380.572 123.231C378.152 123.156 375.581 123.907 373.312 124.883L373.841 124.208L370.666 134.044C369.531 137.273 368.397 140.502 367.49 143.806C366.506 147.035 365.75 150.414 364.918 153.718C364.162 157.022 363.406 160.401 362.498 163.705C362.423 163.93 362.196 164.081 361.893 164.006C361.969 163.931 361.818 163.705 361.818 163.555Z" fill="black"/>
<path d="M385.033 124.436C384.276 120.757 383.898 117.077 383.596 113.398C383.293 109.719 382.915 105.964 382.461 102.285C382.007 98.6053 381.554 94.9257 380.797 91.2463C380.117 87.5669 379.588 83.8871 378.605 80.433L380.571 80.433C379.361 83.8871 378.226 87.4919 377.243 91.0212C376.26 94.6255 375.353 98.1543 374.672 101.834C373.992 105.438 373.386 109.118 373.084 112.797C372.933 114.6 372.933 116.477 373.009 118.279C373.084 120.081 373.311 121.958 373.84 123.686C373.916 123.911 373.765 124.211 373.538 124.286C373.311 124.361 373.009 124.211 372.933 123.985C371.723 120.306 371.648 116.476 371.799 112.722C371.95 108.967 372.403 105.213 373.084 101.534C373.765 97.8544 374.597 94.1745 375.504 90.5702C376.411 86.9658 377.47 83.3619 378.68 79.7576C378.831 79.232 379.437 78.9313 379.966 79.0815C380.268 79.1566 380.57 79.4572 380.646 79.7576C381.78 83.5121 382.234 87.1917 382.991 90.796C383.671 94.4755 384.2 98.1548 384.73 101.909C385.184 105.589 385.637 109.343 385.939 113.023C386.242 116.777 386.469 120.532 386.091 124.286C386.091 124.511 385.864 124.736 385.561 124.736C385.259 124.736 385.108 124.587 385.033 124.436Z" fill="black"/>
<path d="M334.141 219.656C334.746 219.055 335.351 218.68 336.031 218.304C336.712 217.929 337.393 217.703 338.073 217.403C339.51 216.952 340.872 216.577 342.308 216.202C342.762 216.051 343.291 216.276 343.518 216.727C345.106 219.355 346.543 221.983 347.602 224.912C348.131 226.339 348.585 227.84 348.585 229.642C348.509 230.393 348.509 231.144 348.358 231.895C348.207 232.721 348.055 233.547 347.602 234.373C347.375 234.748 346.997 235.199 346.694 235.425C346.392 235.725 346.089 235.95 345.711 236.175C345.409 236.401 345.03 236.626 344.652 236.852L344.123 237.151L343.593 237.377C342.081 237.977 340.569 238.278 338.981 238.428C335.88 238.578 332.855 238.128 329.906 237.452C329.679 237.377 329.528 237.152 329.528 236.852C329.604 236.626 329.831 236.476 330.058 236.476C333.007 236.927 335.956 237.227 338.754 236.852C340.191 236.701 341.552 236.326 342.837 235.8L343.291 235.575L343.745 235.35C344.047 235.2 344.35 234.974 344.577 234.748C344.879 234.598 345.106 234.298 345.333 234.073C345.636 233.848 345.711 233.697 345.862 233.397C346.391 232.421 346.392 230.919 346.467 229.492C346.467 228.291 346.089 226.94 345.56 225.588C344.501 222.96 343.14 220.331 341.627 217.853L342.837 218.379C341.476 218.679 340.115 219.13 338.678 219.505C337.317 219.881 335.956 220.181 334.519 220.406C334.216 220.482 333.99 220.256 333.99 220.031C333.99 219.956 334.065 219.806 334.141 219.656Z" fill="black"/>
<path d="M347.3 224.236C349.871 222.885 352.593 221.758 355.24 220.632C357.887 219.506 360.609 218.454 363.255 217.253L367.264 215.451C368.625 214.851 369.986 214.324 371.347 213.724C374.069 212.597 376.792 211.546 379.439 210.42C379.892 210.27 380.422 210.42 380.724 210.795C381.329 211.697 381.859 212.597 382.388 213.498C382.691 213.949 382.917 214.4 383.144 214.925C383.296 215.151 383.447 215.451 383.522 215.901L383.673 216.727C383.976 218.905 384.052 221.158 383.371 223.336C383.069 224.462 382.539 225.513 381.783 226.414C381.102 227.315 380.119 228.141 379.212 228.667C377.397 229.868 375.355 230.694 373.314 231.37C371.272 232.046 369.079 232.422 366.961 232.572C364.844 232.797 362.726 232.797 360.609 232.797C356.374 232.722 352.215 232.346 347.981 232.196C347.754 232.196 347.527 231.971 347.527 231.745C347.527 231.52 347.754 231.295 347.981 231.295C352.215 231.22 356.374 231.52 360.609 231.445C362.726 231.445 364.768 231.295 366.81 231.07C368.852 230.845 370.894 230.469 372.784 229.793C374.675 229.117 376.565 228.367 378.229 227.165C379.893 226.114 381.027 224.612 381.481 222.81C382.01 221.008 381.859 218.98 381.632 217.028L381.481 216.277C381.481 216.202 381.405 216.052 381.254 215.827C381.027 215.376 380.8 215.001 380.573 214.55C380.044 213.649 379.514 212.823 378.909 211.922L380.195 212.297C377.472 213.349 374.826 214.474 372.103 215.601C370.742 216.202 369.457 216.728 368.096 217.329L364.163 219.13C358.794 221.533 353.425 223.936 347.603 224.987C347.376 225.062 347.073 224.837 347.073 224.612C346.997 224.537 347.073 224.311 347.3 224.236Z" fill="black"/>
<path d="M382.464 214.398C384.884 210.117 387.682 206.062 390.631 202.082C393.58 198.178 396.681 194.349 399.781 190.519C402.882 186.689 405.982 182.86 409.234 179.105L411.653 176.327L414.149 173.624C415.813 171.821 417.476 170.019 419.291 168.217C419.669 167.841 420.349 167.841 420.727 168.217C420.954 168.442 421.03 168.818 421.03 169.118C420.577 172.047 420.123 174.975 419.518 177.904C419.215 179.331 418.913 180.832 418.535 182.259C418.384 183.01 418.157 183.685 417.93 184.436C417.703 185.187 417.4 185.938 417.098 186.614C414.678 192.096 411.729 197.352 408.175 202.158C406.436 204.561 404.545 206.889 402.503 209.141C400.462 211.319 398.344 213.497 396.151 215.449C391.689 219.504 386.85 222.958 381.783 226.111C381.556 226.262 381.254 226.187 381.103 225.962C380.952 225.737 381.027 225.436 381.254 225.286C386.245 222.057 390.934 218.453 395.244 214.398C399.554 210.343 403.411 205.912 406.814 201.106C410.217 196.301 413.09 191.195 415.359 185.788C415.661 185.113 415.888 184.512 416.115 183.761C416.342 183.085 416.493 182.409 416.644 181.658C417.023 180.232 417.25 178.805 417.552 177.378C418.081 174.525 418.61 171.596 418.988 168.667L420.727 169.568C418.988 171.295 417.325 173.098 415.737 174.9L413.242 177.603L410.822 180.382C407.645 184.136 404.545 187.89 401.52 191.72C398.42 195.55 395.395 199.38 392.446 203.284C389.421 207.189 386.472 211.019 383.22 214.773C383.069 214.998 382.766 214.998 382.539 214.848C382.388 214.848 382.388 214.548 382.464 214.398Z" fill="black"/>
<path d="M307.219 247.29C308.581 247.14 309.942 247.14 311.227 247.215C312.588 247.29 313.874 247.365 315.235 247.515C317.882 247.815 320.528 248.191 323.175 248.566C323.402 248.566 323.629 248.717 323.781 248.867C325.974 251.195 327.864 253.598 329.452 256.376C330.208 257.728 330.964 259.154 331.418 260.806C331.645 261.632 331.796 262.458 331.796 263.284C331.796 263.509 331.796 263.735 331.796 263.96C331.796 264.185 331.796 264.411 331.721 264.636C331.721 264.861 331.645 265.086 331.569 265.311L331.493 265.612C331.493 265.687 331.342 265.912 331.267 266.062C330.888 266.663 330.435 266.963 329.981 267.189C329.527 267.414 329.149 267.564 328.771 267.715C327.939 267.94 327.183 268.09 326.503 268.315L326.276 268.391L326.049 268.465L325.444 268.616C325.066 268.691 324.687 268.841 324.309 268.916C323.553 269.066 322.722 269.216 321.965 269.291C318.789 269.591 315.689 269.442 312.588 268.991C306.463 268.09 300.489 266.438 294.667 264.636C288.844 262.834 283.021 260.806 277.122 259.455C276.896 259.379 276.744 259.154 276.744 258.929C276.82 258.704 277.047 258.553 277.274 258.553C280.299 259.079 283.323 259.83 286.272 260.656L295.12 263.134C301.018 264.786 306.917 266.363 312.891 267.038C315.84 267.414 318.865 267.489 321.814 267.189C322.57 267.114 323.251 266.963 324.007 266.813C324.385 266.738 324.687 266.664 325.066 266.513L325.595 266.363L325.898 266.288L326.2 266.213C326.956 266.063 327.713 265.912 328.318 265.687C328.62 265.612 328.922 265.462 329.225 265.311C329.452 265.161 329.679 265.012 329.679 265.012C329.679 265.012 329.679 265.011 329.679 264.936L329.754 264.711C329.83 264.561 329.83 264.411 329.83 264.261C329.83 264.11 329.906 263.96 329.906 263.81C329.906 263.659 329.906 263.51 329.906 263.359C329.906 262.684 329.754 262.082 329.527 261.407C329.149 260.055 328.468 258.779 327.712 257.503C326.2 255.025 324.31 252.621 322.344 250.519L322.948 250.819L315.084 249.693C313.799 249.468 312.513 249.242 311.152 249.017C309.866 248.791 308.58 248.491 307.295 248.266C307.068 248.191 306.841 247.966 306.917 247.741C306.841 247.44 307.068 247.29 307.219 247.29Z" fill="black"/>
<path d="M327.79 254.119C329.303 252.317 331.193 251.04 333.235 249.913C335.201 248.787 337.318 247.961 339.435 247.06C341.553 246.234 343.595 245.408 345.788 244.657C347.905 243.906 350.023 243.23 352.216 242.555C352.518 242.479 352.82 242.555 353.047 242.705C353.35 242.93 353.501 243.081 353.653 243.231C353.804 243.381 354.03 243.606 354.181 243.831C354.484 244.207 354.711 244.657 354.862 245.183C354.938 245.408 355.013 245.633 355.089 245.934L355.165 246.534L355.392 247.736C355.619 249.313 355.77 251.04 355.467 252.842C355.165 254.644 354.106 256.296 352.896 257.422C351.762 258.624 350.476 259.675 349.039 260.651C346.317 262.528 343.217 263.805 340.041 264.706C336.865 265.607 333.689 266.133 330.437 266.433C330.21 266.433 329.983 266.283 329.907 265.983C329.907 265.758 330.059 265.532 330.286 265.457C333.462 264.932 336.562 264.331 339.587 263.355C341.099 262.904 342.536 262.303 343.973 261.552C345.409 260.877 346.771 260.125 347.981 259.149C349.267 258.248 350.401 257.272 351.459 256.071C352.518 255.02 353.198 253.743 353.425 252.391C353.652 251.04 353.501 249.538 353.275 247.961L353.047 246.835L352.972 246.234C352.972 246.084 352.896 245.934 352.82 245.783C352.745 245.483 352.594 245.258 352.367 245.032C352.291 244.882 352.215 244.808 352.064 244.732C351.989 244.657 351.838 244.507 351.762 244.507L352.594 244.657C350.476 245.333 348.359 246.008 346.317 246.759C344.2 247.51 342.158 248.336 340.116 249.162C339.058 249.613 338.075 250.063 337.091 250.514C336.108 250.964 335.125 251.49 334.142 251.941C332.176 252.917 330.21 253.894 328.32 254.87C328.093 255.02 327.79 254.869 327.639 254.644C327.639 254.419 327.715 254.269 327.79 254.119Z" fill="black"/>
<path d="M353.424 244.062C355.843 243.912 358.112 244.738 360.229 245.564C362.347 246.465 364.313 247.667 366.279 248.868C368.245 250.07 370.136 251.346 371.951 252.623C373.765 253.974 375.581 255.25 377.395 256.677C377.547 256.827 377.698 257.052 377.774 257.278C378.227 259.155 378.53 261.033 378.681 262.985C378.832 264.937 378.833 266.965 378.228 268.992C377.925 269.968 377.471 271.02 376.791 271.846C376.11 272.747 375.051 273.348 373.992 273.648C372.934 273.948 371.799 273.948 370.816 273.798C369.758 273.647 368.851 273.422 367.868 273.047C364.162 271.695 360.91 269.518 357.885 267.115C354.936 264.712 352.062 262.159 349.416 259.456C349.265 259.305 349.265 259.005 349.416 258.78C349.567 258.629 349.87 258.629 350.097 258.78C352.895 261.333 355.768 263.736 358.793 265.989C360.305 267.115 361.818 268.166 363.482 269.067C365.07 269.968 366.733 270.795 368.472 271.395C370.136 271.921 372.027 272.296 373.539 271.846C375.051 271.47 376.034 270.044 376.412 268.392C377.169 265.013 376.564 261.257 375.808 257.653L376.186 258.254C374.446 256.903 372.631 255.551 370.816 254.274C369.001 252.998 367.111 251.796 365.221 250.67C363.33 249.468 361.364 248.492 359.398 247.516C357.432 246.54 355.465 245.564 353.424 244.888C353.197 244.813 353.046 244.512 353.121 244.287C353.121 244.212 353.272 244.062 353.424 244.062Z" fill="black"/>
<path d="M378.303 264.335C381.177 266.212 383.672 268.616 385.941 271.244C388.134 273.872 390.176 276.65 391.915 279.654C393.654 282.582 395.166 285.661 396.528 288.814C397.889 291.968 399.023 295.197 399.855 298.501L399.855 298.576C400.006 299.102 399.628 299.628 399.099 299.778C398.872 299.853 398.645 299.778 398.418 299.702C395.62 298.426 392.898 297.075 390.251 295.423C389.949 295.198 389.571 294.972 389.268 294.747C388.89 294.446 388.663 294.221 388.361 293.921C387.756 293.395 387.226 292.87 386.697 292.269C385.638 291.143 384.656 289.941 383.748 288.74C381.933 286.262 380.421 283.633 378.908 280.93C377.396 278.302 375.959 275.674 374.371 273.121C374.22 272.896 374.295 272.595 374.522 272.445C374.749 272.295 375.052 272.37 375.127 272.595C376.866 275.073 378.455 277.701 379.967 280.255C381.555 282.808 383.143 285.36 384.958 287.688C385.865 288.889 386.848 289.941 387.831 290.992C388.361 291.518 388.89 292.044 389.42 292.494C389.722 292.719 389.949 293.02 390.251 293.17C390.554 293.395 390.856 293.546 391.159 293.771C393.654 295.273 396.452 296.549 399.174 297.75L397.813 298.877C396.981 295.648 395.848 292.569 394.486 289.49C393.125 286.412 391.613 283.483 389.949 280.63C388.21 277.777 386.319 275.073 384.126 272.595C382.009 270.042 379.664 267.639 377.622 264.936C377.471 264.711 377.472 264.411 377.699 264.26C377.925 264.185 378.152 264.185 378.303 264.335Z" fill="black"/>
<path d="M121.117 250.668C119.302 250.593 117.563 250.292 115.824 249.917C114.085 249.542 112.345 249.166 110.681 248.716C107.278 247.815 103.875 246.838 100.472 245.937L101.305 245.787C98.7335 247.289 96.162 248.866 93.6665 250.518C93.0615 250.893 92.4567 251.344 91.9274 251.794C91.398 252.17 91.0204 252.62 90.8691 253.071C90.491 254.047 90.7178 255.399 91.0959 256.826C91.3227 257.501 91.5491 258.252 91.776 258.928C92.0029 259.604 92.2297 260.205 92.5322 260.881C93.1372 262.157 93.9694 263.358 94.8769 264.409C95.3306 264.935 95.7839 265.461 96.3132 265.911C96.4645 265.986 96.5401 266.137 96.6913 266.137C96.8426 266.212 96.7672 266.212 96.9941 266.287L97.4475 266.437L97.977 266.513C99.3382 266.738 100.775 266.738 102.288 266.738C108.186 266.437 114.084 265.236 119.907 263.809C122.781 263.058 125.73 262.232 128.528 261.256C129.965 260.806 131.326 260.204 132.687 259.679C134.048 259.078 135.409 258.477 136.543 257.651C136.77 257.501 137.073 257.576 137.224 257.802C137.376 258.027 137.3 258.327 137.148 258.478C135.863 259.454 134.502 260.129 133.141 260.805C131.779 261.481 130.343 262.006 128.906 262.532C126.033 263.583 123.159 264.485 120.285 265.386C117.336 266.212 114.387 266.888 111.437 267.489C108.488 268.089 105.463 268.54 102.363 268.765C100.85 268.84 99.263 268.84 97.675 268.615L97.0694 268.539L96.4646 268.39C96.3134 268.39 95.9353 268.239 95.7084 268.089C95.4815 267.939 95.3305 267.789 95.1036 267.714C94.423 267.188 93.8938 266.587 93.3645 265.987C92.3058 264.785 91.474 263.509 90.7178 262.082C90.3397 261.406 90.037 260.58 89.8102 259.829C89.5833 259.153 89.3561 258.402 89.1293 257.651C88.9024 256.9 88.6761 256.15 88.6005 255.249C88.5249 254.423 88.5245 253.446 88.9026 252.545C89.2807 251.644 89.9611 250.894 90.6417 250.368C91.2467 249.842 91.9272 249.391 92.5322 249.016C95.1033 247.289 97.5989 245.712 100.246 244.21C100.472 244.06 100.775 243.985 101.078 244.06L111.287 246.839C112.95 247.289 114.689 247.815 116.353 248.34C118.016 248.866 119.68 249.467 121.344 250.067C121.571 250.142 121.722 250.443 121.646 250.668C121.495 250.518 121.344 250.668 121.117 250.668Z" fill="black"/>
<path d="M90.1881 252.02C88.8269 251.945 87.4659 251.645 86.1803 251.345C84.8948 250.969 83.6092 250.594 82.3993 250.218C81.1894 249.843 79.9035 249.467 78.6936 249.167C77.408 248.942 76.1228 248.717 74.8372 248.491L75.8201 248.116C75.2908 248.792 74.6857 249.543 74.1563 250.218C73.627 250.894 73.0981 251.645 72.72 252.321C71.9638 253.747 71.5095 255.475 70.9801 257.202C70.7533 258.028 70.5268 258.929 70.3 259.755C70.0731 260.581 69.9214 261.482 69.8458 262.308C69.8458 262.533 69.8458 262.683 69.8458 262.833C69.8458 262.908 69.8458 262.983 69.8458 263.059C69.8458 263.134 69.8461 263.134 69.7705 262.984L69.6952 262.908L69.7705 262.984L69.9219 263.059L70.1486 263.209C70.2998 263.284 70.4508 263.434 70.602 263.584C70.9801 263.734 71.2829 263.96 71.661 264.11L72.8706 264.56C76.198 265.536 79.828 265.762 83.3822 265.837C86.9364 265.837 90.642 265.612 94.1205 264.936C94.3474 264.861 94.65 265.011 94.65 265.311C94.7256 265.536 94.5741 265.762 94.3472 265.837C92.5323 266.363 90.7173 266.663 88.9024 266.889C87.0875 267.114 85.2727 267.264 83.3822 267.339C79.6768 267.489 75.9712 267.263 72.2658 266.287L70.9048 265.837C70.4511 265.687 69.9975 265.386 69.5438 265.161C69.3169 265.011 69.0897 264.861 68.8629 264.711L68.5608 264.486L68.4095 264.335L68.3334 264.26C68.2578 264.185 68.1823 264.11 68.1067 264.035C67.8798 263.734 67.8803 263.509 67.8046 263.359C67.729 263.209 67.7286 263.058 67.7286 262.908C67.7286 262.608 67.7286 262.383 67.7286 262.082C67.8798 260.13 68.3338 258.403 68.7876 256.601C69.2413 254.874 69.695 252.996 70.6781 251.269C71.2074 250.368 71.7365 249.618 72.2658 248.867C72.7952 248.116 73.4003 247.44 73.9296 246.689C74.1565 246.389 74.6101 246.238 74.9125 246.314C76.2737 246.539 77.5591 246.689 78.9203 246.99C80.2815 247.29 81.5672 247.665 82.8527 248.04C84.1383 248.416 85.4238 248.866 86.6338 249.392C87.8437 249.918 89.0535 250.444 90.2634 251.12C90.4903 251.27 90.566 251.57 90.4148 251.795C90.566 251.945 90.4149 252.02 90.1881 252.02Z" fill="black"/>
<path d="M74.0065 248.337C71.0573 248.863 68.1084 249.313 65.2348 249.689C62.2856 250.064 59.3367 250.514 56.4632 251.04C55.0264 251.265 53.5134 251.566 52.0766 251.867C50.6398 252.167 49.1277 252.467 47.8421 252.843C45.0442 253.669 42.2462 254.719 39.5238 255.771L40.2047 255.02C39.8266 257.047 39.4484 259.15 39.2971 261.253C39.0703 263.355 38.9948 265.383 39.0704 267.485C39.146 268.536 39.297 269.512 39.5238 270.413C39.7507 271.314 40.2041 272.215 40.7335 272.666C40.8091 272.741 40.8853 272.741 40.9609 272.816C41.0366 272.891 41.112 272.892 41.1877 272.967C41.2633 272.967 41.3384 273.041 41.4897 273.041L41.8678 273.117C42.3215 273.267 42.7755 273.342 43.3049 273.342C44.2879 273.417 45.3466 273.418 46.3297 273.267C48.3715 273.042 50.4129 272.516 52.4547 271.915C54.4964 271.314 56.4629 270.564 58.429 269.738C62.3613 268.086 66.1426 266.209 70.0749 264.331C70.3017 264.256 70.604 264.331 70.6797 264.556C70.7553 264.782 70.6798 265.082 70.453 265.157C66.6719 267.184 62.8908 269.212 58.9585 270.939C55.0262 272.666 50.9424 274.318 46.5564 274.919C45.4221 275.069 44.2878 275.144 43.1535 275.069C42.5485 274.994 42.0193 274.919 41.4144 274.769L40.9609 274.694C40.8097 274.619 40.658 274.543 40.5068 274.543C40.3555 274.468 40.2046 274.393 40.0533 274.318C39.9021 274.243 39.7504 274.168 39.5992 274.018C38.5405 273.117 38.0111 271.916 37.7087 270.864C37.4062 269.738 37.2551 268.611 37.1038 267.56C36.8014 263.13 37.331 258.85 38.1628 254.57C38.2384 254.194 38.4652 253.969 38.7676 253.819C41.5656 252.767 44.3637 251.641 47.2373 250.74C48.7497 250.29 50.1861 249.989 51.6985 249.689C53.1353 249.388 54.6483 249.088 56.085 248.787C59.0343 248.262 61.9833 247.736 65.0081 247.436C68.0329 247.136 71.0578 246.986 74.0826 247.361C74.3095 247.361 74.536 247.661 74.536 247.886C74.3092 248.111 74.1578 248.262 74.0065 248.337Z" fill="black"/>
<path d="M38.3893 259.154C34.9107 261.406 31.4321 263.584 28.0291 265.912C24.6262 268.24 21.3745 270.718 18.1985 273.346C16.6104 274.698 15.0222 275.974 13.5098 277.401C12.7536 278.077 11.9974 278.828 11.2412 279.504C10.485 280.179 9.80456 280.93 9.12398 281.681C7.76281 283.183 6.47755 284.76 5.26762 286.412C4.66266 287.238 4.05784 288.064 3.5285 288.89C2.92353 289.716 2.39404 290.616 1.8647 291.442L0.654324 290.016C3.98163 288.815 7.30894 287.613 10.485 286.186C11.3168 285.811 11.9974 285.436 12.7536 284.985L15.0222 283.634L19.6355 280.93C25.7608 277.401 31.8102 273.721 37.8598 270.042C38.0867 269.892 38.3894 269.967 38.5407 270.192C38.6919 270.417 38.6162 270.718 38.3893 270.793C35.4401 272.745 32.491 274.698 29.4662 276.65C26.517 278.528 23.4919 280.48 20.4671 282.282L15.9298 285.06L13.6612 286.412C12.905 286.863 12.073 287.313 11.2412 287.688C7.98952 289.19 4.66251 290.542 1.3352 291.743C0.805861 291.968 0.276369 291.668 0.049507 291.143C-0.0261136 290.842 -0.0256705 290.541 0.125571 290.316C2.31857 286.712 4.73828 283.258 7.53624 280.179C8.21683 279.428 8.97259 278.602 9.7288 277.926C10.485 277.175 11.2412 276.5 11.9974 275.824C13.5098 274.397 15.098 273.046 16.686 271.694C19.8621 268.991 23.1896 266.437 26.6681 264.035C28.4074 262.833 30.222 261.707 32.0369 260.731C33.9274 259.755 35.818 258.929 37.8598 258.328C38.0867 258.253 38.389 258.403 38.4646 258.629C38.6915 258.854 38.5405 259.079 38.3893 259.154Z" fill="black"/>
<path d="M101.077 226.409C98.4305 225.883 95.8591 225.207 93.2124 224.457C90.6413 223.706 88.0705 222.654 85.575 221.453C84.3651 220.852 83.1546 220.176 81.9446 219.576L78.315 217.848L71.1311 214.319L72.3414 214.169C70.3753 215.971 68.4845 217.924 66.7452 219.951C65.8378 221.002 65.0061 221.978 64.2499 223.104C63.8718 223.63 63.4938 224.156 63.267 224.757C63.1157 225.057 62.9645 225.283 62.8889 225.583L62.8128 225.808L62.7375 225.883L62.7375 225.958C62.7375 226.033 62.7375 226.033 62.7375 226.184C62.7375 226.484 63.0398 227.009 63.3423 227.535C63.7204 228.061 64.0982 228.511 64.5519 228.962C65.4594 229.863 66.5181 230.689 67.5767 231.44C69.7697 232.867 72.1896 233.993 74.7607 234.969C77.2562 235.87 79.9035 236.546 82.5502 237.072C85.1969 237.597 87.9187 237.972 90.641 238.273C96.0857 238.873 101.531 239.099 107.051 239.249C107.278 239.249 107.505 239.475 107.505 239.7C107.505 239.925 107.278 240.15 107.051 240.15C101.531 240.225 96.0104 240.15 90.5657 239.7C87.8433 239.475 85.0451 239.174 82.3227 238.648C79.6004 238.123 76.8787 237.522 74.2319 236.621C71.5852 235.72 69.0137 234.593 66.5938 233.016C65.3839 232.19 64.3257 231.364 63.267 230.388C62.7376 229.863 62.2083 229.337 61.7546 228.736C61.3008 228.135 60.8468 227.46 60.6956 226.409C60.6199 226.183 60.6953 225.883 60.7709 225.583L60.847 225.357L60.9223 225.207L60.9983 224.907C61.1496 224.531 61.3005 224.156 61.4518 223.855C61.7543 223.179 62.208 222.579 62.5861 221.978C63.4179 220.777 64.25 219.726 65.1575 218.674C66.9724 216.572 68.8626 214.62 70.9043 212.667C71.2068 212.367 71.7359 212.292 72.114 212.517L79.4493 216.046L83.079 217.773C84.2889 218.374 85.4233 219.05 86.6333 219.576C88.9775 220.702 91.4731 221.678 93.9686 222.579C96.4641 223.48 99.0355 224.456 101.455 225.733C101.682 225.883 101.758 226.109 101.682 226.334C101.531 226.334 101.304 226.409 101.077 226.409Z" fill="black"/>
<path d="M67.1244 216.124C64.7045 214.097 62.5116 211.92 60.3186 209.667C58.1256 207.414 56.0084 205.087 54.0422 202.684C50.0344 197.878 46.1777 192.922 42.3211 188.041L43.6068 188.341C42.6994 188.716 41.8672 189.242 41.0354 189.768C40.2036 190.294 39.3718 190.819 38.7668 191.495C38.4643 191.795 38.2376 192.171 38.162 192.396C38.0864 192.471 38.0862 192.772 38.0106 192.922C37.935 193.147 37.9353 193.372 37.9353 193.597C37.8597 194.498 38.0105 195.475 38.2373 196.376C39.1448 200.055 41.7915 203.36 44.2869 206.438C46.9336 209.517 49.9586 212.22 53.1346 214.773C56.3107 217.326 59.638 219.729 62.9653 222.207C63.1921 222.357 63.1918 222.657 63.0406 222.883C62.8894 223.108 62.5873 223.108 62.3605 222.958C58.9576 220.63 55.5543 218.303 52.2271 215.825C48.8998 213.347 45.7239 210.643 42.9259 207.489C41.5648 205.912 40.2039 204.26 39.0696 202.533C37.8597 200.806 36.8764 198.854 36.2715 196.751C35.969 195.7 35.8173 194.573 35.8173 193.447C35.8173 193.147 35.8178 192.847 35.8934 192.621C35.969 192.321 35.9689 192.096 36.1201 191.645C36.347 190.894 36.801 190.444 37.1791 189.993C38.0109 189.167 38.9183 188.566 39.8258 187.966C40.7332 187.365 41.6401 186.915 42.6231 186.389C43.0769 186.164 43.6064 186.313 43.9088 186.689C47.7655 191.57 51.6977 196.451 55.63 201.257C57.5961 203.584 59.7889 205.837 61.9063 208.165C64.0237 210.493 66.066 212.821 67.8053 215.524C67.9565 215.749 67.8807 216.05 67.6539 216.2C67.5026 216.275 67.2756 216.275 67.1244 216.124Z" fill="black"/>
<path d="M41.5658 187.218C39.6753 184.289 38.0872 181.21 36.6505 177.982C35.2893 174.753 34.0793 171.449 33.2475 167.995C32.8694 166.268 32.5668 164.54 32.3399 162.813C32.1131 161.086 31.962 159.359 31.7351 157.632C31.5839 155.905 31.357 154.253 30.9789 152.601C30.8277 151.85 30.4496 151.024 30.2227 150.273C30.0714 149.897 29.9954 149.447 29.7685 149.147L29.2398 148.02L30.9789 148.171C29.8446 149.747 28.8612 151.625 28.0294 153.427C27.1976 155.304 26.5926 157.256 26.1389 159.284C25.2314 163.264 25.0802 167.469 25.7608 171.524C26.4414 175.579 27.8027 179.558 29.6932 183.238C31.5837 186.917 34.0034 190.372 36.7258 193.525C36.877 193.751 36.8773 194.051 36.6505 194.201C36.4236 194.351 36.1964 194.351 35.9696 194.126C33.096 191.047 30.5249 187.593 28.4075 183.838C27.3488 181.961 26.4417 180.009 25.6854 177.982C24.9292 175.954 24.3997 173.852 24.0216 171.749C23.2654 167.469 23.3412 163.114 24.173 158.834C24.6268 156.731 25.2317 154.629 26.0635 152.601C26.8954 150.574 27.8786 148.696 29.2398 146.819C29.5423 146.369 30.2224 146.294 30.6761 146.594C30.8274 146.669 30.9033 146.819 30.9789 146.969L31.5837 148.246C31.8106 148.622 31.8863 149.072 32.1132 149.522C32.4157 150.348 32.7935 151.174 32.9447 152.075C33.3985 153.878 33.5502 155.605 33.777 157.332C34.0039 159.059 34.155 160.786 34.3818 162.438C34.6087 164.165 34.9113 165.817 35.2894 167.469C36.0456 170.773 37.2551 173.927 38.6163 177.08C39.9018 180.234 41.3389 183.463 42.322 186.767C42.3976 186.993 42.2461 187.293 42.0192 187.368C41.9436 187.518 41.717 187.368 41.5658 187.218Z" fill="black"/>
<path d="M108.035 198.405C105.464 196.528 102.969 194.575 100.473 192.623C97.9778 190.596 95.5581 188.568 93.0626 186.616L85.5766 180.683L83.6861 179.182C83.0811 178.731 82.4005 178.131 81.7956 177.605C80.5857 176.554 79.4509 175.427 78.3166 174.301L79.2995 174.601C78.014 174.902 76.7287 175.277 75.4432 175.653C75.1407 175.728 74.838 175.878 74.5356 175.953C74.2331 176.028 73.9304 176.178 73.628 176.328C73.3255 176.478 73.0236 176.554 72.7211 176.704C72.4186 176.854 72.1157 177.005 71.8888 177.155C70.8301 177.755 69.8471 178.506 69.2421 179.407C68.6371 180.309 68.4863 181.435 68.562 182.636C68.6376 183.838 69.0151 185.039 69.4688 186.24C69.9225 187.442 70.452 188.568 71.1326 189.694C72.5694 191.872 74.1577 193.975 75.9726 195.777C79.6781 199.532 84.0639 202.535 88.6768 205.163C93.2896 207.792 98.205 210.044 103.045 212.297C103.272 212.372 103.347 212.672 103.271 212.898C103.196 213.123 102.893 213.198 102.667 213.123C97.6756 211.095 92.76 208.918 87.9959 206.365C85.6516 205.088 83.2324 203.737 81.0394 202.16C78.8464 200.583 76.6528 198.855 74.7623 196.978C72.7961 195.101 71.0573 192.923 69.5449 190.595C68.7887 189.394 68.1837 188.193 67.6544 186.841C67.125 185.564 66.7466 184.213 66.5954 182.711C66.4441 181.284 66.5955 179.557 67.503 178.206C68.3348 176.854 69.6207 175.953 70.8306 175.202C71.1331 175.052 71.4354 174.826 71.8135 174.676C72.116 174.526 72.4183 174.376 72.7964 174.226C73.0989 174.076 73.4769 173.925 73.7794 173.85C74.0818 173.7 74.4598 173.625 74.7623 173.55C76.0478 173.174 77.4091 172.799 78.6947 172.423C79.0728 172.348 79.4508 172.424 79.6776 172.649C80.8119 173.776 81.9467 174.827 83.1566 175.878C83.7616 176.404 84.2905 176.854 84.9711 177.38L86.8616 178.882L94.3483 184.813C96.8438 186.766 99.4152 188.718 101.835 190.821C104.255 192.923 106.599 195.101 108.641 197.654C108.792 197.88 108.792 198.179 108.565 198.33C108.414 198.555 108.187 198.555 108.035 198.405Z" fill="black"/>
<path d="M76.7289 174.073C74.6115 171.821 72.9479 169.193 71.4354 166.564C69.923 163.936 68.5617 161.233 67.1249 158.605C65.6881 155.977 64.1002 153.423 62.361 151.02C60.6217 148.618 58.7313 146.215 56.8408 143.887L57.597 144.262C56.7652 144.187 55.8572 144.263 55.1009 144.488C54.7228 144.638 54.4205 144.713 54.118 145.013L53.8913 145.164L53.7399 145.389C53.5887 145.539 53.5131 145.69 53.3618 145.84C52.53 147.191 52.5304 149.068 52.6817 150.946C52.7573 151.922 52.9082 152.823 53.1351 153.799L53.3618 155.301L53.5885 156.728C54.0423 158.605 54.6478 160.407 55.3284 162.209C56.8408 165.814 58.6551 169.193 60.7725 172.572C62.8899 175.876 65.1588 179.105 67.503 182.259C67.6543 182.484 67.5789 182.784 67.4277 182.934C67.2008 183.084 66.9737 183.009 66.7468 182.859C64.2513 179.78 61.8315 176.627 59.5629 173.398C58.4285 171.746 57.3697 170.094 56.3866 168.367C55.4036 166.64 54.4961 164.837 53.7399 163.035C52.9837 161.158 52.3034 159.281 51.7741 157.328L51.4713 155.827L51.1693 154.4C51.018 153.423 50.791 152.447 50.6398 151.396C50.4885 150.345 50.4128 149.369 50.4884 148.243C50.564 147.191 50.7907 145.989 51.4713 145.013C51.6225 144.788 51.7739 144.488 52.0008 144.262L52.3036 143.887C52.3792 143.812 52.5304 143.662 52.6817 143.587L53.0598 143.286C53.211 143.211 53.3623 143.136 53.4379 143.061C53.7404 142.911 53.9669 142.761 54.2694 142.686C55.4037 142.31 56.4624 142.235 57.6723 142.31C57.9748 142.31 58.202 142.46 58.3532 142.686C60.2437 145.089 62.1338 147.416 63.9487 149.894C65.7636 152.372 67.3516 155.001 68.8641 157.629C70.3765 160.257 71.8131 162.96 73.2499 165.588C74.6867 168.217 76.0482 170.845 77.3337 173.623C77.4093 173.848 77.3339 174.149 77.107 174.224C77.107 174.299 76.8801 174.224 76.7289 174.073Z" fill="black"/>
<path d="M54.5711 142.906C53.5125 139.978 52.6046 137.124 51.8484 134.12C51.1678 131.117 50.412 128.039 50.0339 124.96C49.6558 121.956 49.2018 118.877 48.5969 115.874C48.2944 114.372 47.9921 112.87 47.614 111.444C47.2359 109.942 46.7064 108.515 46.3283 107.088L48.2941 107.088L46.7064 112.195L46.555 112.795C46.4794 113.02 46.4792 113.171 46.4036 113.321L46.253 114.672L45.9502 117.301C45.7989 119.028 45.7235 120.83 45.7235 122.557C45.7235 124.284 45.9503 126.086 46.1016 127.813C46.4797 131.343 47.0843 134.796 48.0674 138.25C49.0504 141.629 50.3363 144.934 51.7731 148.238C51.8487 148.463 51.7732 148.764 51.5463 148.839C51.3195 148.914 51.0164 148.839 50.9408 148.614C49.3528 145.385 47.8404 142.08 46.7817 138.626C45.6474 135.172 44.8915 131.568 44.4378 128.038C44.2109 126.236 43.9839 124.434 43.9083 122.632C43.8327 120.83 43.9087 118.952 43.9844 117.15L44.2111 114.447L44.3625 113.095C44.4381 112.795 44.4375 112.495 44.5131 112.269L44.6645 111.593C45.1182 109.866 45.648 108.14 46.253 106.412C46.4042 105.887 47.0086 105.586 47.5379 105.736C47.8404 105.811 48.1432 106.112 48.2188 106.412C48.6725 107.914 49.2017 109.416 49.5798 110.918C49.9579 112.42 50.3363 113.921 50.6388 115.498C51.2437 118.577 51.6974 121.581 52.1511 124.659C52.5292 127.663 53.285 130.592 53.9656 133.595C54.3437 135.097 54.6467 136.599 54.9492 138.101C55.1761 139.603 55.4024 141.179 55.478 142.756C55.478 142.981 55.2514 143.207 55.0245 143.207C54.7977 143.282 54.6467 143.131 54.5711 142.906Z" fill="black"/>
<path d="M162.633 149.372C159.91 153.051 157.037 156.505 154.163 160.109C151.365 163.639 148.643 167.318 146.072 171.072C143.501 174.827 141.081 178.657 138.661 182.486C136.317 186.391 133.973 190.296 131.78 194.275C129.587 198.255 127.545 202.31 125.654 206.365C123.764 210.495 122.1 214.7 120.663 218.98C119.226 223.26 118.017 227.615 117.185 232.046C116.353 236.476 115.748 240.982 115.37 245.487C115.37 245.713 115.143 245.938 114.841 245.938C114.614 245.938 114.387 245.713 114.387 245.487C114.689 236.326 116.277 227.24 119 218.455C120.361 214.1 122.025 209.819 123.839 205.614C125.654 201.409 127.696 197.279 129.889 193.299C132.082 189.245 134.351 185.339 136.771 181.435C139.115 177.53 141.61 173.701 144.181 169.871C146.752 166.041 149.475 162.362 152.273 158.758C155.146 155.154 158.247 151.774 161.801 148.77C162.028 148.62 162.33 148.621 162.482 148.846C162.784 148.996 162.784 149.221 162.633 149.372Z" fill="black"/>
<path d="M180.781 146.218C179.571 148.471 178.286 150.573 177 152.751C176.395 153.877 175.79 154.928 175.11 155.98C174.505 157.031 173.824 158.082 173.219 159.208C172.009 161.386 170.799 163.563 169.665 165.816C168.606 168.069 167.396 170.322 166.413 172.574C162.179 181.66 158.7 191.122 155.675 200.658C152.575 210.195 150.004 219.957 147.735 229.719C145.467 239.48 143.425 249.392 141.686 259.304C141.61 259.529 141.383 259.754 141.156 259.679C140.929 259.604 140.702 259.379 140.778 259.153C142.29 249.166 144.03 239.255 146.147 229.343C148.264 219.506 150.76 209.669 153.709 199.982C156.734 190.296 160.213 180.834 164.447 171.598C165.506 169.27 166.64 167.018 167.775 164.765C168.909 162.513 170.194 160.26 171.404 158.082C172.69 155.904 174.051 153.727 175.412 151.625C176.925 149.522 178.513 147.57 180.101 145.617C180.252 145.392 180.554 145.392 180.781 145.542C180.857 145.767 180.932 145.993 180.781 146.218Z" fill="black"/>
<path d="M291.492 153.8C292.551 155.452 293.534 157.179 294.441 158.906C295.349 160.633 296.18 162.435 296.937 164.237L299.205 169.644L301.398 175.126C304.272 182.484 306.843 189.918 309.036 197.502C311.229 205.087 313.044 212.745 314.405 220.48C315.766 228.214 316.749 236.099 317.052 243.908C317.052 244.133 316.9 244.359 316.598 244.434C316.371 244.434 316.144 244.284 316.069 243.984C315.388 236.174 314.254 228.44 312.741 220.78C311.229 213.121 309.263 205.537 306.994 198.028C304.726 190.519 302.154 183.16 299.281 175.877L297.088 170.47L294.744 165.063C293.912 163.261 293.156 161.459 292.475 159.657C291.719 157.854 291.038 155.978 290.509 154.1C290.433 153.875 290.584 153.575 290.811 153.5C291.189 153.575 291.416 153.649 291.492 153.8Z" fill="black"/>
<path d="M266.913 145.466C268.955 149.596 270.468 153.876 271.829 158.232C273.19 162.587 274.475 166.942 275.685 171.372L279.466 184.513L283.323 197.579C285.894 206.289 288.314 215.075 290.431 224.011C292.549 232.871 294.212 241.882 295.195 250.968C295.195 251.194 295.044 251.494 294.817 251.494C294.591 251.494 294.364 251.344 294.288 251.119C292.927 242.108 291.112 233.247 288.843 224.462C286.65 215.676 284.003 206.965 281.357 198.255L277.425 185.189L273.568 172.123C272.282 167.768 270.997 163.413 269.635 159.057C268.274 154.702 266.989 150.347 266.006 145.916C265.93 145.691 266.081 145.391 266.384 145.391C266.611 145.165 266.838 145.241 266.913 145.466Z" fill="black"/>
<path d="M241.733 140.509C242.867 142.912 243.926 145.391 244.758 147.869C245.211 149.145 245.665 150.347 246.043 151.623L247.178 155.452C248.615 160.559 249.9 165.74 251.034 170.921C253.303 181.283 255.042 191.721 256.555 202.234C257.311 207.49 257.916 212.746 258.521 218.003C259.201 223.259 259.655 228.516 260.487 233.697C261.999 244.135 264.041 254.572 264.419 265.159C264.419 265.385 264.192 265.61 263.965 265.61C263.738 265.61 263.512 265.46 263.512 265.159C262.907 254.647 260.563 244.36 258.823 233.922C257.991 228.666 257.387 223.409 256.63 218.228C255.95 212.972 255.194 207.791 254.437 202.534C252.925 192.097 251.185 181.734 248.841 171.447C247.707 166.34 246.346 161.235 244.985 156.129C243.548 151.098 242.036 146.066 240.826 140.885C240.75 140.659 240.901 140.359 241.204 140.284C241.431 140.134 241.657 140.284 241.733 140.509Z" fill="black"/>
<path d="M199.159 143.964C198.705 146.742 198.024 149.52 197.419 152.224C197.117 153.575 196.815 155.002 196.512 156.353C196.21 157.705 195.831 159.057 195.529 160.483C194.243 165.965 193.109 171.447 192.051 177.003C190.009 188.042 188.421 199.23 187.211 210.419C186.001 221.607 185.244 232.871 184.942 244.059C184.64 255.323 184.791 266.586 185.774 277.775C185.774 278 185.623 278.225 185.32 278.3C185.093 278.3 184.867 278.15 184.791 277.85C183.505 266.586 183.127 255.323 183.203 243.984C183.354 232.646 184.035 221.382 185.093 210.118C186.228 198.854 187.816 187.666 189.782 176.552C190.765 170.996 191.899 165.439 193.185 159.958C193.79 157.179 194.546 154.476 195.378 151.773C196.21 149.069 197.117 146.367 198.176 143.738C198.251 143.513 198.554 143.363 198.781 143.438C199.083 143.513 199.235 143.738 199.159 143.964Z" fill="black"/>
<path d="M221.013 142.387C221.24 145.391 221.316 148.394 221.391 151.398C221.467 154.402 221.467 157.405 221.391 160.409L221.316 169.345L221.316 178.281C221.391 190.22 221.618 202.235 222.148 214.174C222.601 226.114 223.282 238.053 224.341 249.992C225.324 261.932 226.534 273.796 228.122 285.66C228.122 285.886 227.97 286.185 227.744 286.185C227.517 286.185 227.29 286.035 227.214 285.81C225.399 273.946 223.887 262.081 222.752 250.142C221.618 238.203 220.786 226.263 220.181 214.249C219.652 202.31 219.35 190.295 219.198 178.281L219.123 169.27L219.123 160.259C219.198 154.252 219.35 148.245 220.03 142.312C220.03 142.087 220.257 141.862 220.56 141.862C220.786 141.937 220.938 142.162 221.013 142.387Z" fill="black"/>
<path d="M150.384 153.276C149.174 154.853 147.812 156.355 146.451 157.781C145.166 159.283 143.805 160.711 142.443 162.137L138.511 166.567L134.73 171.148C129.815 177.381 125.353 183.989 121.496 190.897C117.564 197.805 114.237 205.014 111.59 212.448C108.943 219.882 106.977 227.616 105.767 235.5C105.692 235.725 105.465 235.951 105.238 235.876C105.011 235.876 104.784 235.576 104.86 235.351C105.692 227.391 107.507 219.506 110.002 211.922C112.573 204.338 115.825 196.904 119.606 189.845C123.462 182.787 127.924 176.104 132.915 169.796L136.696 165.141L140.704 160.636C142.065 159.209 143.502 157.782 144.939 156.355C146.451 155.004 148.039 153.727 149.627 152.525C149.854 152.375 150.157 152.45 150.308 152.601C150.535 152.826 150.535 153.051 150.384 153.276Z" fill="black"/>
<path d="M173.901 147.264C172.464 149.291 170.951 151.244 169.439 153.122C167.926 155.074 166.414 156.951 164.902 158.828L160.44 164.61L156.205 170.542C150.685 178.577 145.694 186.987 141.459 195.773C137.149 204.483 133.595 213.644 130.872 222.956C128.15 232.267 126.184 241.878 125.276 251.565C125.276 251.79 125.05 252.015 124.747 252.015C124.52 252.015 124.293 251.79 124.293 251.49C124.974 241.728 126.713 231.966 129.284 222.505C131.931 213.043 135.409 203.807 139.569 194.872C143.803 186.011 148.794 177.451 154.315 169.341L158.625 163.334L163.087 157.477C164.675 155.599 166.263 153.722 167.926 151.845C169.666 150.043 171.405 148.315 173.22 146.663C173.447 146.513 173.749 146.513 173.901 146.663C174.052 146.813 174.052 147.039 173.901 147.264Z" fill="black"/>
<path d="M190.008 145.091C188.647 150.272 186.833 155.303 184.866 160.259L178.968 175.127C175.111 185.039 171.406 195.025 168.457 205.238C165.432 215.375 163.314 225.813 162.105 236.325C160.895 246.838 160.441 257.501 161.121 268.089C161.121 268.314 160.97 268.539 160.668 268.614C160.441 268.614 160.214 268.464 160.138 268.163C159.231 257.501 159.382 246.763 160.441 236.175C161.575 225.512 163.541 214.999 166.49 204.712C169.44 194.425 173.07 184.363 176.926 174.376L182.749 159.508C184.715 154.552 186.757 149.671 189.177 144.865C189.328 144.64 189.555 144.564 189.782 144.64C190.009 144.64 190.084 144.865 190.008 145.091Z" fill="black"/>
<path d="M209.444 143.363C208.839 149.22 207.78 155.002 206.721 160.784C205.662 166.565 204.679 172.273 204.074 178.13C202.789 189.769 202.94 201.483 202.638 213.197C202.26 224.911 202.108 236.625 202.638 248.339C203.091 260.054 204.226 271.693 206.419 283.257C206.494 283.482 206.268 283.782 206.041 283.782C205.814 283.857 205.511 283.632 205.511 283.407C203.016 271.918 201.655 260.128 200.974 248.414C200.293 236.625 200.369 224.911 200.596 213.122C200.823 201.408 200.672 189.618 201.882 177.829C202.487 171.972 203.47 166.115 204.528 160.333C205.587 154.551 206.948 148.844 208.536 143.137C208.612 142.912 208.838 142.762 209.141 142.837C209.292 142.912 209.444 143.138 209.444 143.363Z" fill="black"/>
<path d="M231.448 142.611C231.826 145.464 232.204 148.242 232.658 151.02L234.019 159.43L235.38 167.841L236.666 176.326L239.161 193.221L240.371 201.706C240.749 204.485 241.203 207.339 241.506 210.192C242.716 221.606 242.867 232.944 243.699 244.283C244.379 255.621 246.799 266.735 247.858 278.149C247.858 278.374 247.706 278.599 247.404 278.674C247.177 278.674 246.95 278.524 246.875 278.224C245.589 266.96 242.867 255.847 241.959 244.433C240.976 233.094 240.674 221.681 239.388 210.417C239.086 207.639 238.632 204.785 238.254 202.007L236.968 193.597L234.397 176.701L233.112 168.291L231.675 159.881C230.768 154.25 230.087 148.542 230.389 142.76C230.389 142.535 230.616 142.31 230.919 142.31C231.221 142.16 231.372 142.385 231.448 142.611Z" fill="black"/>
<path d="M254.285 142.762C255.949 147.343 257.234 152.073 258.368 156.804C259.503 161.535 260.562 166.266 261.62 170.997C263.738 180.458 265.779 189.994 267.67 199.531C268.577 204.337 269.485 209.068 270.241 213.948C270.997 218.754 271.678 223.559 272.434 228.365C273.871 237.977 275.459 247.589 278.257 256.825C278.332 257.05 278.181 257.35 277.954 257.425C277.727 257.5 277.425 257.351 277.349 257.125C274.324 247.814 272.434 238.203 270.846 228.591C270.09 223.785 269.333 218.979 268.501 214.174C267.67 209.368 266.687 204.637 265.704 199.906C263.813 190.37 261.696 180.908 259.503 171.447C258.444 166.716 257.31 161.986 256.175 157.255C255.041 152.524 253.982 147.793 253.377 142.912C253.377 142.687 253.529 142.387 253.755 142.387C253.982 142.462 254.209 142.612 254.285 142.762Z" fill="black"/>
<path d="M278.483 148.093C280.298 152.073 281.735 156.053 283.171 160.108C284.532 164.163 285.969 168.292 287.255 172.422C287.935 174.45 288.54 176.553 289.145 178.655C289.75 180.683 290.355 182.785 291.036 184.812C292.397 188.867 293.834 192.923 295.195 197.053C296.556 201.107 297.842 205.313 298.976 209.443C300.11 213.648 301.169 217.777 302.076 222.058C303.967 230.468 305.479 239.028 306.614 247.513C306.614 247.738 306.462 248.039 306.236 248.039C306.009 248.039 305.782 247.888 305.706 247.663C304.194 239.178 302.53 230.768 300.488 222.433C299.505 218.228 298.371 214.098 297.236 209.968C296.102 205.838 294.741 201.783 293.304 197.728C291.868 193.673 290.431 189.618 289.07 185.488C288.389 183.461 287.708 181.359 287.103 179.256C286.498 177.153 285.893 175.126 285.213 173.098C283.927 169.044 282.49 164.989 281.054 160.859C279.617 156.804 278.331 152.674 277.575 148.393C277.499 148.168 277.726 147.868 277.953 147.868C278.18 147.793 278.407 147.943 278.483 148.093Z" fill="black"/>
<path d="M309.261 166.342C310.169 167.619 310.925 168.971 311.681 170.397C312.361 171.824 313.042 173.25 313.571 174.677L315.235 179.033L316.823 183.463C318.865 189.32 320.679 195.327 322.192 201.334C323.629 207.416 324.839 213.499 325.822 219.656C326.729 225.814 327.41 231.971 327.712 238.204C327.712 238.429 327.561 238.654 327.259 238.73C327.032 238.73 326.805 238.579 326.729 238.279C326.049 232.121 325.217 226.039 324.158 219.957C323.099 213.875 321.738 207.867 320.15 201.86C318.638 195.852 316.823 189.996 314.706 184.139L313.117 179.784L311.454 175.503C310.849 174.077 310.32 172.65 309.79 171.223C309.261 169.796 308.732 168.294 308.354 166.792C308.278 166.567 308.429 166.267 308.732 166.192C308.958 166.117 309.185 166.192 309.261 166.342Z" fill="black"/>
</svg>
