<svg width="239" height="615" viewBox="0 0 239 615" fill="none" xmlns="http://www.w3.org/2000/svg">
<path d="M74.9087 47.8581C75.0283 49.1441 75.2076 50.5331 75.3869 51.922C75.5663 53.3109 75.686 54.6483 75.8056 56.0372C76.0448 58.7635 76.2241 61.5413 76.4035 64.2676C76.5231 67.0454 76.6424 69.7717 76.762 72.5495C76.8218 73.9383 76.8216 75.3273 76.8216 76.7162L76.8216 80.8314C76.8814 91.8396 77.5393 102.796 78.2568 113.805C78.9743 124.813 79.8115 135.77 80.4692 146.778C81.127 157.786 81.4857 168.846 81.3661 179.854C81.3661 180.111 81.1271 180.317 80.8879 180.317C80.6487 180.317 80.4091 180.111 80.4091 179.854C80.2895 168.846 79.6323 157.837 78.7952 146.881C78.0179 135.872 77.0012 124.916 76.1641 113.908C75.3868 102.899 74.7293 91.8911 74.6098 80.8314L74.5496 76.6647C74.5496 75.2758 74.4901 73.9383 74.4901 72.5495C74.3705 69.8231 74.2505 67.0453 74.131 64.319C74.0114 61.5927 73.832 58.815 73.832 56.0372C73.832 54.6483 73.7722 53.2594 73.832 51.8705C73.8918 50.4816 73.8322 49.1442 74.0714 47.6524C74.1312 47.3952 74.3706 47.2408 74.6098 47.2408C74.6695 47.3952 74.8489 47.6009 74.9087 47.8581Z" fill="black"/>
<path d="M138.528 43.6955C138.11 49.1996 138.828 54.6522 139.485 60.2078C140.203 65.7119 141.279 71.2674 141.638 76.9259C142.475 88.2427 141.637 99.4567 141.697 110.619C141.757 116.175 141.996 121.782 142.834 127.235C143.252 129.961 143.79 132.739 144.269 135.516C144.747 138.294 145.165 141.072 145.584 143.85C146.361 149.405 146.959 155.012 147.438 160.619C147.856 166.226 148.095 171.833 148.095 177.492C148.095 177.749 147.856 177.955 147.617 177.955C147.378 177.955 147.139 177.749 147.139 177.492C146.959 166.329 145.704 155.167 143.97 144.107C143.551 141.329 143.072 138.603 142.594 135.825C142.116 133.047 141.518 130.372 141.04 127.543C140.083 121.936 139.784 116.278 139.665 110.671C139.485 99.4053 140.322 88.1914 139.425 77.1317C139.007 71.6276 137.93 66.1234 137.213 60.5164C136.854 57.7387 136.555 54.9095 136.555 52.0288C136.555 49.1996 136.735 46.2675 137.572 43.5411C137.632 43.2839 137.931 43.1296 138.17 43.2324C138.409 43.2324 138.528 43.4383 138.528 43.6955Z" fill="black"/>
<path d="M87.8708 180.767C78.0085 181.177 68.1459 182.571 58.489 184.539C53.6264 185.522 48.8325 186.67 44.0383 187.982C39.2441 189.294 34.5184 190.77 29.9982 192.574C28.8339 192.984 27.7378 193.558 26.642 194.05L25.0669 194.87C24.7929 195.034 24.5871 195.116 24.3131 195.28C24.1076 195.444 23.9022 195.608 23.6282 195.772C21.916 197.248 20.6834 199.297 19.656 201.429C18.6287 203.561 17.8067 205.857 17.1218 208.235C16.437 210.531 15.8211 212.909 15.2732 215.286C13.15 224.88 11.9173 234.637 10.8214 244.394C9.79412 254.152 9.04062 263.991 8.28724 273.83C7.60236 283.67 6.9861 293.509 6.3697 303.348C5.75331 313.187 5.13638 323.027 4.4515 332.866C3.69812 342.705 3.08186 352.463 2.8764 362.384C2.32849 382.063 2.19178 401.823 2.1233 421.502C2.1233 441.181 2.12343 460.941 2.26041 480.62C2.53436 520.059 3.01378 559.498 3.63017 598.938L2.80818 597.954C21.9849 600.987 41.1616 603.857 60.3384 606.645C69.9267 608.039 79.5148 609.351 89.1717 610.581L96.363 611.483C98.76 611.729 101.157 612.057 103.554 612.303L107.184 612.631C108.417 612.713 109.581 612.795 110.745 612.795C113.143 612.876 115.609 612.713 118.006 612.713L121.635 612.631L125.265 612.467L132.525 612.139C137.387 611.811 142.182 611.565 147.044 611.073C156.701 610.253 166.29 609.105 175.947 607.875C195.123 605.251 214.3 601.971 233.202 598.036L232.518 598.855C233.819 579.013 234.778 559.088 235.463 539.246C235.806 529.324 236.079 519.321 236.284 509.4C236.353 504.398 236.422 499.479 236.49 494.477L236.559 487.015L236.49 483.326L236.353 479.636C235.942 469.715 234.778 459.875 233.887 449.872C233.408 444.87 232.997 439.951 232.792 434.949C232.518 429.947 232.586 424.946 232.655 419.944C232.792 410.023 233.066 400.019 233.34 390.098C233.614 380.177 233.887 370.173 233.887 360.252C233.887 355.25 233.751 350.331 233.614 345.329C233.408 340.328 233.135 335.408 232.724 330.488L230.258 300.724C228.545 280.882 226.765 261.039 224.573 241.279C223.477 231.357 222.244 221.518 220.669 211.678C220.258 209.219 219.848 206.759 219.368 204.381C218.889 201.921 218.341 199.543 217.519 197.248C217.314 196.674 217.108 196.1 216.834 195.608C216.697 195.362 216.56 195.116 216.423 194.87C216.354 194.788 216.286 194.706 216.149 194.624L215.807 194.296L214.368 193.148L212.862 192.082C210.807 190.688 208.684 189.458 206.424 188.392C201.904 186.342 197.11 184.866 192.315 183.719C187.453 182.571 182.522 181.751 177.59 181.013C175.125 180.685 172.659 180.275 170.125 180.029C167.659 179.701 165.194 179.455 162.66 179.209L155.195 178.553C153.962 178.471 152.661 178.307 151.428 178.143C150.811 178.061 150.195 177.979 149.579 177.897C149.236 177.815 148.962 177.815 148.619 177.733C148.482 177.733 148.277 177.651 148.141 177.651C148.072 177.651 147.935 177.569 147.866 177.569C147.798 177.569 147.798 177.569 147.661 177.487C147.592 177.405 147.455 177.405 147.387 176.995C147.387 176.749 147.592 176.503 147.866 176.503C148.14 176.503 148.346 176.749 148.346 176.995C148.277 176.667 148.209 176.749 148.209 176.667C148.277 176.667 148.346 176.667 148.346 176.749C148.483 176.749 148.62 176.831 148.757 176.831C149.03 176.913 149.373 176.913 149.647 176.995C150.263 177.077 150.88 177.159 151.496 177.241C152.729 177.405 153.962 177.487 155.263 177.569L162.728 178.225C165.194 178.389 167.728 178.635 170.193 178.963C172.659 179.291 175.193 179.619 177.659 179.947C182.658 180.685 187.59 181.505 192.521 182.653C197.383 183.801 202.315 185.276 206.903 187.326C209.232 188.392 211.423 189.622 213.478 191.098L215.053 192.246L216.56 193.476C216.834 193.64 217.04 193.886 217.314 194.214C217.519 194.542 217.725 194.788 217.861 195.116C218.204 195.69 218.409 196.346 218.615 196.92C219.436 199.297 219.984 201.757 220.532 204.217C221.012 206.677 221.491 209.137 221.902 211.597C223.546 221.436 224.71 231.357 225.875 241.196C228.135 260.957 229.984 280.8 231.696 300.642L234.23 330.406C234.641 335.408 234.915 340.328 235.121 345.329C235.326 350.331 235.394 355.332 235.394 360.252C235.463 370.255 235.189 380.177 234.915 390.18C234.641 400.101 234.435 410.105 234.23 420.026C234.093 425.028 234.093 429.947 234.367 434.867C234.572 439.787 234.984 444.788 235.463 449.708C236.353 459.629 237.518 469.55 237.928 479.554L238.066 483.326L238.134 487.097L238.134 494.559C238.134 499.56 238.065 504.562 237.997 509.482C237.86 519.403 237.586 529.406 237.244 539.328C236.559 559.252 235.6 579.177 234.299 599.02C234.299 599.43 233.956 599.758 233.614 599.84C224.094 601.889 214.574 603.693 204.986 605.333C195.397 606.973 185.809 608.531 176.152 609.761C166.495 611.073 156.838 612.221 147.181 613.041C142.319 613.533 137.456 613.779 132.662 614.107L125.402 614.434L121.773 614.599L118.142 614.68C115.677 614.68 113.28 614.844 110.814 614.762C109.582 614.681 108.349 614.681 107.116 614.599L103.486 614.27C101.089 614.024 98.6229 613.778 96.2258 613.451L88.9663 612.549C79.3095 611.319 69.7214 610.007 60.133 608.613C40.8878 605.825 21.7107 602.955 2.53396 599.921C2.05454 599.839 1.71196 599.43 1.71196 598.938C1.02708 559.498 0.548198 520.059 0.205756 480.62C0.0687794 460.859 -0.000243977 441.181 -0.000243989 421.42C0.0682443 401.659 0.136733 381.981 0.684639 362.22C0.890104 352.381 1.50703 342.459 2.26041 332.62C2.94529 322.781 3.56155 312.941 4.17794 303.102C5.41073 283.423 6.57477 263.745 8.69791 244.066C9.79372 234.227 11.0951 224.388 13.2868 214.712C13.8347 212.252 14.4509 209.875 15.2043 207.497C15.9577 205.119 16.848 202.741 17.9438 200.445C18.4917 199.297 19.108 198.149 19.8614 197.083C20.6147 196.018 21.4369 195.034 22.5327 194.132C22.8066 193.886 23.0807 193.722 23.3547 193.558C23.6286 193.394 23.9709 193.148 24.2449 193.066L25.9571 192.246C27.1214 191.754 28.2854 191.18 29.4497 190.77C34.1069 188.966 38.9014 187.572 43.7641 186.26C48.5582 185.03 53.4208 183.882 58.3519 182.98C68.1458 181.177 78.0764 179.865 88.0072 179.701C88.2812 179.701 88.4868 179.865 88.4868 180.193C88.2813 180.603 88.0763 180.767 87.8708 180.767Z" fill="black"/>
<path d="M138.111 44.0525C138.17 44.0525 138.41 43.9495 138.47 43.7438C138.529 43.4866 138.41 43.4352 138.41 43.3324C138.35 43.2295 138.171 43.1266 138.051 43.0752C137.872 43.0752 137.931 43.0752 137.931 43.0752L137.991 42.9722L138.111 42.7665C138.23 42.6636 138.29 42.5607 138.41 42.4578C138.589 42.3035 138.828 42.2006 139.068 42.0978C139.486 41.9434 139.904 41.7377 140.203 41.4805C140.323 41.3776 140.443 41.2747 140.502 41.1718C140.502 41.1204 140.562 41.1205 140.562 41.0176L140.682 40.6574C140.802 40.1945 140.861 39.6802 140.921 39.2173C141.041 38.1885 141.041 37.1082 141.041 36.0279C141.041 34.9477 141.041 33.8161 141.22 32.6844C141.28 32.4272 141.519 32.2216 141.758 32.273C141.997 32.3245 142.117 32.4787 142.177 32.6844C142.536 34.7934 143.014 36.9539 143.014 39.3201C143.014 39.8859 142.954 40.5032 142.834 41.1205L142.715 41.5834C142.655 41.7891 142.596 41.9949 142.476 42.2006C142.237 42.5607 141.997 42.9208 141.698 43.1265C141.16 43.5895 140.562 43.8981 139.965 44.1553C139.666 44.2582 139.367 44.3611 139.068 44.3611C138.888 44.3611 138.769 44.3096 138.589 44.3096C138.53 44.3096 138.41 44.2582 138.35 44.2068L138.23 44.1553C138.23 44.1553 138.29 44.1553 138.051 44.1553C137.872 44.1553 137.692 44.0525 137.632 43.9496C137.573 43.8982 137.573 43.8467 137.573 43.7953C137.573 43.7438 137.573 43.6409 137.573 43.5381C137.633 43.2809 137.932 43.178 137.991 43.178C138.231 43.1266 138.469 43.2809 138.529 43.5381C138.529 43.7438 138.41 44.001 138.111 44.0525Z" fill="black"/>
<path d="M73.9526 47.6556C73.6536 47.2955 73.5344 46.9869 73.4148 46.6783C73.355 46.5239 73.2948 46.421 73.235 46.2667C73.1752 46.1124 73.1756 46.0095 73.1158 45.8552C72.9962 45.3407 72.6375 45.0321 72.2189 44.672C71.8004 44.3633 71.1424 44.1062 70.4847 43.7975C69.8269 43.5403 69.0499 43.2317 68.3323 42.7687C67.9736 42.563 67.6147 42.2543 67.3157 41.9456C67.0168 41.5855 66.7175 41.277 66.4784 40.8654C66.2392 40.5053 66.12 40.0423 65.9406 39.6308C65.7612 39.1164 65.7607 38.7563 65.7607 38.3963C65.7009 37.6246 65.7012 36.9045 65.7012 36.1329C65.7012 35.7728 65.7611 35.3613 65.8209 34.9498C65.8209 34.744 65.8808 34.5383 65.9406 34.3325C66.0004 34.2296 66.0003 34.1266 66.1198 33.9723C66.1796 33.9209 66.2393 33.818 66.2991 33.7151C66.4187 33.6122 66.5982 33.5609 66.7178 33.5609C66.957 33.5609 67.196 33.7666 67.196 34.0238C67.196 34.281 66.957 34.4867 66.7178 34.4867C66.7776 34.4867 66.897 34.4868 66.897 34.4353C66.897 34.4353 66.9566 34.3839 66.9566 34.4353L66.9566 34.5897C66.9566 34.744 66.9566 34.8983 66.9566 35.0526C66.9566 35.3613 67.0165 35.7213 67.0763 36.0814C67.1361 36.8016 67.3158 37.4704 67.4354 38.1905C67.4952 38.5506 67.5547 38.9106 67.6743 39.1164C67.7938 39.3736 67.9135 39.6822 68.0929 39.888C68.3919 40.351 68.8704 40.7111 69.4085 40.9683C69.9466 41.2769 70.6045 41.4827 71.322 41.7399C72.0395 41.9971 72.8164 42.2544 73.5339 42.8202C75.0886 43.849 76.1055 46.2152 74.9097 47.6556C74.7303 47.9128 74.3115 47.9128 74.0723 47.7071C74.0125 47.7585 74.0124 47.7585 73.9526 47.6556Z" fill="black"/>
<path d="M66.4778 33.6104C69.5273 33.6104 72.6369 33.559 75.806 33.6619C78.9152 33.7647 82.0838 33.8162 85.1931 33.8162C91.4714 33.8676 97.7497 33.7133 104.028 33.8162C110.306 33.8676 116.585 34.0219 122.803 33.7132C125.913 33.5589 129.022 33.4047 132.191 33.1475C135.3 32.8903 138.41 32.5817 141.579 32.273C141.818 32.2216 142.057 32.4272 142.117 32.6844C142.117 32.9416 141.937 33.1474 141.698 33.1988C135.479 34.1247 129.261 34.9479 122.923 35.3594C116.645 35.7709 110.306 35.7709 104.028 35.8738C97.7497 35.8738 91.4714 36.028 85.1931 36.028C82.024 36.028 78.9149 36.028 75.7458 35.9252C74.1912 35.8737 72.5771 35.7709 71.0225 35.6166C70.2452 35.5137 69.4679 35.4108 68.6307 35.2051L67.4349 34.8964C67.0163 34.7935 66.6576 34.6391 66.239 34.4848C65.9998 34.3819 65.8802 34.1248 65.94 33.8676C66.0596 33.7133 66.2387 33.6104 66.4778 33.6104Z" fill="black"/>
<path d="M73.414 35.2567C73.3543 35.2053 73.294 35.1539 73.2342 35.1025C73.1744 35.051 73.1746 35.0509 73.1746 34.9995C73.1148 34.9481 73.1147 34.8967 73.0549 34.8453C72.9951 34.7424 72.995 34.6395 72.9352 34.5881C72.8754 34.4338 72.8158 34.2794 72.756 34.125C72.6364 33.8164 72.5769 33.5077 72.5171 33.1991C72.3976 32.5818 72.2776 31.9645 72.158 31.3987C71.9787 30.2155 71.7994 28.981 71.6798 27.7978C71.321 25.483 70.9621 23.014 70.8425 20.5448C70.7229 18.0757 70.7232 15.555 71.2016 13.0345C71.4408 11.7999 71.7396 10.5139 72.2777 9.33078C72.5169 8.71349 72.8757 8.1477 73.1746 7.58185C73.354 7.27321 73.5334 7.01596 73.7726 6.75876C74.0117 6.50155 74.1311 6.19291 74.4301 5.98715C76.2837 3.98097 78.6755 2.79787 81.127 2.02626C83.5786 1.25466 86.0303 0.843107 88.5416 0.585905C90.9932 0.328703 93.5041 0.277237 95.9557 0.174356L103.311 0.02001C108.214 -0.0314304 113.117 0.0201105 118.02 0.122991C120.411 0.225872 122.982 0.225847 125.494 0.740251C126.749 0.997454 128.005 1.46042 129.141 2.02626C130.337 2.64355 131.353 3.46657 132.25 4.44394C134.044 6.39867 135.061 8.71347 135.958 10.9768C136.436 12.1085 136.795 13.3431 137.034 14.5777C137.273 15.7608 137.512 16.9954 137.692 18.1785C138.051 20.5962 138.35 23.014 138.589 25.4317C138.828 27.8494 139.127 30.267 139.127 32.7362C139.127 32.9934 138.947 33.1991 138.648 33.1991C138.409 33.1991 138.17 32.9934 138.17 32.7362C138.11 30.3699 137.751 27.9522 137.452 25.5345C137.153 23.1168 136.795 20.7506 136.376 18.3843C135.958 16.0181 135.479 13.6518 134.522 11.5427C133.625 9.3308 132.55 7.2217 130.995 5.5756C129.5 3.87807 127.347 2.90077 125.075 2.43781C122.803 1.97485 120.412 1.97485 117.96 1.92341C113.117 1.87197 108.214 1.87194 103.37 2.02626L96.0754 2.23197C93.6238 2.28341 91.2323 2.38632 88.8406 2.64352C86.4489 2.90072 84.1166 3.3123 81.9042 3.98102C79.6919 4.64975 77.5993 5.78136 76.1643 7.37602C74.7293 8.97067 73.9517 11.1826 73.5332 13.3945C73.1744 15.6579 73.115 18.0242 73.2943 20.3905C73.4139 22.7567 73.7129 25.123 73.8923 27.5921C73.9521 28.8267 73.9522 30.0099 74.012 31.2445L74.0715 33.0449C74.0715 33.3535 74.0713 33.6621 74.1311 33.9193C74.1311 34.0736 74.1315 34.228 74.1912 34.3309L74.1912 34.4851L74.1912 34.5366C74.1912 34.4851 74.1313 34.4851 74.0715 34.4851C74.3107 34.588 74.3704 34.8967 74.2508 35.1025C73.9518 35.2568 73.6532 35.3596 73.414 35.2567Z" fill="black"/>
<path d="M72.1 42.8201C72.1 42.7687 72.1 42.7686 72.1 42.7171C72.0403 42.7171 72.1596 42.7171 72.1596 42.7171L72.399 42.7171C72.5784 42.7171 72.6979 42.7171 72.8772 42.7171L73.8938 42.7171C74.6114 42.7171 75.3289 42.7172 75.9866 42.7686C77.4216 42.82 78.7966 42.8714 80.2317 42.9743C83.0419 43.1801 85.9121 43.3344 88.7224 43.4887C94.4028 43.7459 100.083 44.0031 105.704 44.0031C107.079 44.0031 108.514 43.9003 109.949 43.8489L114.194 43.643L122.685 43.2315C128.365 42.9743 134.045 42.7172 139.726 42.5114L139.786 42.5114C140.025 42.5114 140.264 42.7171 140.264 42.9743C140.264 43.2315 140.085 43.4373 139.846 43.4373C134.165 43.9517 128.485 44.4147 122.804 44.8776L114.254 45.4948L110.009 45.8034L107.856 45.9577C107.139 46.0092 106.421 46.0606 105.704 46.0606C99.9637 46.112 94.2833 45.9063 88.5431 45.7006C85.6731 45.5977 82.8629 45.4434 79.9929 45.2377C78.5578 45.1348 77.1224 44.9804 75.7472 44.7746C75.0297 44.6718 74.3124 44.5176 73.5949 44.3632C73.2361 44.2604 72.8775 44.1574 72.5187 44.0546C72.3393 44.0031 72.1597 43.9517 71.9803 43.8489C71.9205 43.7974 71.801 43.746 71.6814 43.6945C71.6216 43.6431 71.6217 43.6945 71.5021 43.5917C71.3825 43.5402 71.3225 43.4373 71.2627 43.3858C71.0833 43.1801 71.1432 42.8714 71.3824 42.7171C71.6216 42.5628 71.9207 42.6143 72.1 42.8201Z" fill="black"/>
<path d="M87.585 179.913C89.0471 179.295 90.5639 179.183 92.0802 179.127L96.5749 179.127C99.5533 179.127 102.586 179.183 105.564 179.295L110.059 179.463C111.575 179.52 112.984 179.576 114.446 179.463C117.37 179.295 120.348 178.733 123.435 178.677C123.706 178.677 123.923 178.902 123.923 179.127C123.923 179.351 123.76 179.576 123.49 179.576C120.565 179.913 117.695 180.643 114.608 181.036C113.092 181.261 111.521 181.261 110.005 181.261L105.51 181.317L96.5204 181.317L92.0257 181.373C90.5094 181.373 89.0473 181.317 87.531 180.812C87.2603 180.699 87.098 180.418 87.2063 180.194C87.3688 180.081 87.4767 179.969 87.585 179.913Z" fill="black"/>
<path d="M123.056 178.677C124.03 178.172 125.005 178.003 126.034 177.947C127.063 177.891 128.038 177.835 129.067 177.779L135.186 177.329C137.244 177.217 139.302 177.048 141.36 176.992C142.389 176.936 143.418 176.936 144.447 176.88C145.476 176.88 146.505 176.824 147.588 176.936C147.859 176.936 148.021 177.161 148.021 177.442C148.021 177.666 147.805 177.835 147.588 177.891C145.584 178.116 143.526 178.397 141.523 178.677C139.465 178.958 137.461 179.183 135.403 179.408C133.345 179.632 131.341 179.857 129.283 180.025C128.254 180.082 127.226 180.194 126.197 180.25C125.655 180.25 125.168 180.306 124.626 180.194C124.085 180.138 123.543 179.969 123.056 179.632C122.785 179.464 122.731 179.183 122.893 178.902C122.839 178.79 122.947 178.734 123.056 178.677Z" fill="black"/>
<path d="M158.371 392.322C158.295 392.172 158.371 392.923 159.052 392.772C159.279 392.622 159.203 392.622 159.203 392.622L159.127 392.697L159.052 392.847L158.9 393.148L158.598 393.673L157.993 394.725L156.707 396.827C155.876 398.254 154.968 399.606 154.061 401.032C152.246 403.811 150.507 406.514 148.767 409.367C145.213 414.999 141.281 420.331 137.5 425.662C135.609 428.365 133.794 431.068 132.055 433.847C130.316 436.625 128.652 439.478 126.913 442.257C123.51 447.889 120.031 453.52 116.477 459.077C109.369 470.191 102.109 481.229 94.3958 491.967C92.5053 494.67 90.4635 497.298 88.6486 500.001C86.8337 502.705 85.0943 505.483 83.2794 508.261C81.5401 511.04 79.7251 513.818 77.9102 516.596C76.0197 519.299 74.1291 522.078 71.7849 524.481C71.6336 524.631 71.3312 524.706 71.1044 524.481C70.9531 524.331 70.8775 524.03 71.1044 523.805C73.2974 521.477 75.1881 518.699 77.003 515.995C78.8179 513.217 80.4815 510.439 82.2208 507.585C83.9601 504.732 85.6237 501.954 87.4386 499.175C89.2535 496.397 91.2196 493.769 93.1101 491.066C100.672 480.253 107.781 469.214 114.738 458.026C118.216 452.469 121.695 446.837 125.098 441.206C126.837 438.352 128.501 435.574 130.24 432.72C131.979 429.942 133.87 427.164 135.76 424.46C139.541 419.054 143.398 413.723 146.952 408.166C147.784 406.814 148.691 405.387 149.674 403.961C150.582 402.609 151.565 401.258 152.548 399.906C153.531 398.554 154.514 397.278 155.497 395.926L157.01 393.974L157.766 392.998L158.144 392.547L158.371 392.322L158.447 392.172L158.522 392.096C158.522 392.096 158.446 392.097 158.749 391.946C159.43 391.796 159.505 392.472 159.43 392.322C159.43 392.547 159.203 392.772 158.976 392.772C158.749 392.772 158.371 392.547 158.371 392.322Z" fill="black"/>
<path d="M89.9329 349.298C90.9159 354.029 91.5209 358.759 92.2015 363.49C92.8821 368.221 93.6383 372.952 94.5458 377.607C96.285 386.994 98.4781 396.38 100.671 405.691L103.923 419.733L105.511 426.792C106.04 429.119 106.494 431.522 107.099 433.775C108.309 438.355 109.821 442.936 111.182 447.517C111.863 449.844 112.543 452.172 113.073 454.5C113.602 456.828 114.131 459.231 114.207 461.709C114.207 461.934 113.98 462.159 113.753 462.159C113.526 462.159 113.3 461.934 113.3 461.709C113.224 459.381 112.619 457.053 112.014 454.8C111.409 452.472 110.653 450.22 109.897 447.967C108.46 443.387 106.796 438.881 105.435 434.225C104.754 431.823 104.301 429.57 103.696 427.167L102.032 420.184L98.5539 406.217C96.2853 396.905 94.0921 387.519 92.2772 378.058C91.3697 373.327 90.5381 368.596 89.8576 363.79L89.4038 360.186C89.2525 358.985 89.177 357.783 89.1014 356.582C88.8745 354.179 88.8743 351.776 88.95 349.373C88.95 349.148 89.1769 348.922 89.4038 348.922C89.7062 348.922 89.8573 349.073 89.9329 349.298Z" fill="black"/>
<path d="M91.0673 316.106C90.4623 315.581 89.7059 315.055 88.9496 314.905C88.1934 314.755 87.3616 314.83 86.681 315.205C86.0004 315.506 85.3201 316.031 84.7151 316.557C84.1101 317.083 83.5049 317.683 82.9756 318.359C82.4462 319.035 81.9925 319.711 81.5388 320.462C81.1607 321.213 80.7827 321.964 80.4802 322.79C80.1777 323.616 79.9508 324.441 79.724 325.267C79.4971 326.093 79.27 326.995 79.1188 327.821C78.3625 331.2 78.2871 334.804 79.2701 338.033C79.497 338.859 79.875 339.61 80.2531 340.361C80.6312 341.037 81.1608 341.787 81.6902 342.538C82.7489 343.965 83.8832 345.317 85.0932 346.744C85.2444 346.894 85.3954 347.119 85.5466 347.269L86.0004 347.72C86.0761 347.795 86.1519 347.87 86.2275 347.945L86.4543 348.095C86.6055 348.17 86.7568 348.32 86.9081 348.395C87.5887 348.696 88.2691 348.846 89.0253 348.696C90.5378 348.396 91.8992 347.269 93.0335 345.917C93.5629 345.242 94.0922 344.566 94.4703 343.815C94.924 343.064 95.2264 342.313 95.4532 341.412C95.9826 339.76 96.3606 338.033 96.5119 336.231C96.8143 332.702 96.3608 329.097 95.6046 325.643C95.1509 323.916 94.6971 322.114 94.0922 320.537C93.3359 318.735 92.3529 317.308 91.0673 316.106ZM91.7478 315.431C93.109 316.707 94.2435 318.284 94.9241 320.086C95.6047 321.813 96.0581 323.54 96.5119 325.343C97.4193 328.872 97.8731 332.551 97.6462 336.306C97.5706 338.183 97.2682 339.985 96.6632 341.787C96.4364 342.689 96.0583 343.59 95.6046 344.416C95.1509 345.242 94.6215 346.068 94.0165 346.819C93.4115 347.57 92.7307 348.245 91.9745 348.846C91.2183 349.447 90.3111 349.973 89.2524 350.198C88.1937 350.423 87.0592 350.273 86.0761 349.822C85.8493 349.672 85.6225 349.522 85.3956 349.372L85.0932 349.146C85.0176 349.071 84.866 348.996 84.7904 348.921L84.2613 348.395C84.11 348.245 83.9587 348.02 83.8075 347.87C82.5975 346.518 81.3874 345.167 80.2531 343.665C79.6481 342.914 79.119 342.238 78.5896 341.337C78.1359 340.511 77.6821 339.61 77.3796 338.709C76.1696 335.029 76.3209 331.125 77.0015 327.445C77.1527 326.544 77.3795 325.643 77.682 324.742C77.9089 323.841 78.2114 322.94 78.5139 322.039C78.8164 321.138 79.2702 320.236 79.724 319.41C80.1777 318.584 80.7068 317.758 81.3874 317.007C81.9924 316.256 82.6732 315.506 83.5051 314.98C84.3369 314.379 85.2442 313.929 86.3029 313.703C87.286 313.478 88.4204 313.553 89.4034 313.854C90.2353 314.079 90.9916 314.755 91.7478 315.431Z" fill="black"/>
<path d="M131.374 382.411C130.618 382.186 129.786 382.186 129.105 382.411C128.349 382.636 127.668 383.011 127.139 383.537C125.929 384.513 125.022 385.865 124.19 387.142C123.736 387.817 123.434 388.493 123.131 389.244C122.98 389.62 122.829 389.995 122.753 390.37C122.602 390.746 122.526 391.121 122.375 391.572C121.921 393.149 121.619 394.726 121.543 396.378C121.316 399.607 121.77 402.911 123.056 405.914C123.661 407.416 124.492 408.843 125.4 410.194C126.307 411.546 127.442 412.747 128.652 413.723C129.256 414.174 129.937 414.474 130.542 414.55C131.147 414.625 131.828 414.399 132.357 413.949C133.492 413.048 134.248 411.546 134.853 410.044C136.063 406.89 136.97 403.661 137.348 400.357C137.726 397.053 137.575 393.674 136.592 390.445C136.138 388.869 135.458 387.292 134.626 385.865C134.172 385.114 133.718 384.438 133.189 383.837C132.659 383.162 132.055 382.636 131.374 382.411ZM131.601 381.51C132.584 381.81 133.265 382.486 133.87 383.162C134.475 383.837 134.928 384.588 135.382 385.339C136.29 386.841 136.97 388.493 137.424 390.145C138.407 393.449 138.634 396.978 138.331 400.432C138.029 403.887 137.197 407.266 136.063 410.495C135.458 412.147 134.701 413.799 133.189 415.15C132.433 415.826 131.374 416.201 130.24 416.126C129.105 416.051 128.198 415.601 127.442 415.075C124.417 412.898 122.451 409.894 120.938 406.665C119.502 403.436 118.897 399.757 119.124 396.227C119.199 394.425 119.577 392.698 120.031 390.971C120.106 390.52 120.258 390.145 120.409 389.695C120.56 389.244 120.711 388.869 120.863 388.418C121.241 387.592 121.619 386.766 122.073 385.94C122.98 384.363 124.341 383.012 126.005 382.11C126.837 381.66 127.744 381.36 128.727 381.284C129.786 381.134 130.769 381.284 131.601 381.51Z" fill="black"/>
<path d="M170.699 356.654C169.791 356.279 168.808 356.129 167.901 356.204C166.918 356.279 166.01 356.504 165.254 356.955C163.59 357.856 162.305 359.208 161.095 360.634C158.675 363.638 157.011 367.317 155.65 371.072C154.97 372.949 154.364 374.827 153.986 376.779C153.835 377.755 153.684 378.731 153.608 379.707L153.533 381.209L153.457 381.96L153.457 382.636C153.457 384.513 153.911 386.391 154.818 388.043C155.726 389.619 157.087 390.896 158.902 391.272C160.792 391.722 162.758 391.797 164.573 391.272C166.464 390.821 168.127 389.845 169.564 388.568C172.513 386.015 174.404 382.336 175.538 378.506C176.673 374.676 177.051 370.621 176.294 366.717C175.916 364.764 175.085 362.962 174.177 361.16C173.723 360.259 173.27 359.433 172.665 358.607C172.06 357.781 171.455 357.03 170.699 356.654ZM171.001 355.829C171.606 356.054 171.984 356.429 172.362 356.805C172.74 357.18 173.043 357.631 173.345 358.006C173.95 358.832 174.48 359.808 174.933 360.709C175.841 362.512 176.748 364.464 177.126 366.491C177.958 370.546 177.58 374.826 176.522 378.806C175.387 382.786 173.497 386.691 170.396 389.62C168.808 391.046 166.918 392.173 164.8 392.773C162.683 393.374 160.414 393.299 158.373 392.923C157.238 392.698 156.179 392.248 155.272 391.497C154.365 390.821 153.608 389.92 153.079 388.944C151.945 386.991 151.415 384.889 151.34 382.711L151.34 381.885L151.34 381.134C151.34 380.609 151.415 380.083 151.415 379.557C151.491 378.506 151.642 377.455 151.793 376.403C152.172 374.301 152.777 372.273 153.457 370.396C154.818 366.491 156.558 362.662 159.204 359.283C160.566 357.631 162.381 356.129 164.498 355.453C166.767 354.702 169.035 355.003 171.001 355.829Z" fill="black"/>
<path d="M132.736 487.688C132.282 487.012 131.602 486.562 130.845 486.186C130.089 485.886 129.257 485.66 128.35 485.585C126.61 485.36 124.871 485.36 123.132 485.285C119.653 485.21 116.099 485.736 112.772 486.712C111.108 487.237 109.444 487.838 107.856 488.589C107.025 488.964 106.269 489.34 105.512 489.79C104.756 490.166 104.075 490.616 103.47 491.142C102.185 492.193 101.202 493.545 101.202 494.972C101.202 495.722 101.353 496.323 101.807 497.074C102.185 497.825 102.714 498.501 103.244 499.101C104.378 500.303 105.815 501.204 107.403 501.805C108.991 502.405 110.73 502.706 112.469 502.856C115.948 503.081 119.578 502.631 123.056 501.73C124.796 501.279 126.535 500.754 128.123 500.003C129.711 499.252 131.224 498.351 132.358 497.074C132.887 496.473 133.416 495.722 133.719 494.972C133.946 494.596 133.946 494.146 134.097 493.77C134.173 493.32 134.248 492.944 134.248 492.494C134.097 490.842 133.643 489.039 132.736 487.688ZM133.492 487.162C134.022 487.988 134.399 488.814 134.702 489.715C134.777 490.166 134.929 490.616 135.005 491.067L135.08 491.743C135.08 491.968 135.08 492.193 135.08 492.494C135.08 492.944 135.005 493.47 134.929 493.92C134.778 494.371 134.702 494.897 134.475 495.272C134.097 496.173 133.568 496.999 132.963 497.675C131.677 499.101 130.089 500.153 128.425 500.904C126.762 501.73 124.947 502.255 123.208 502.781C119.653 503.757 116.024 504.358 112.243 504.208C110.352 504.132 108.461 503.832 106.722 503.231C104.907 502.631 103.168 501.579 101.807 500.153C101.126 499.477 100.521 498.651 100.068 497.825C99.5382 496.999 99.1599 495.873 99.1599 494.821C99.1599 493.695 99.5382 492.644 100.068 491.818C100.597 490.917 101.278 490.166 102.034 489.49C102.79 488.814 103.622 488.289 104.453 487.838C105.285 487.387 106.117 486.937 106.949 486.562C108.613 485.736 110.352 485.06 112.167 484.534C115.721 483.408 119.502 482.807 123.208 482.957C125.098 482.957 126.913 483.258 128.804 483.933C129.711 484.234 130.618 484.609 131.45 485.135C132.206 485.661 132.963 486.336 133.492 487.162Z" fill="black"/>
<path d="M131.221 415.601C131.221 415.526 131.146 415.45 131.146 415.225L131.146 415.15L131.221 415.075C131.221 415.075 131.524 414.625 132.129 414.925C132.205 415 132.205 415 132.205 415L132.28 415.075C132.28 415.075 132.356 415.15 132.356 415.225L132.431 415.3L132.507 415.375C132.583 415.45 132.583 415.526 132.583 415.526C132.658 415.676 132.734 415.826 132.81 415.976C132.961 416.276 132.961 416.577 133.036 416.802C133.112 417.403 133.112 418.004 133.188 418.529L133.414 421.908C133.49 423.035 133.566 424.236 133.642 425.362L133.717 427.089L133.717 427.916L133.717 428.366L133.717 428.591L133.717 428.666L133.717 428.741C133.642 428.741 133.868 428.741 133.414 428.441C132.658 428.516 132.961 428.816 132.885 428.741C132.885 428.816 132.885 428.816 132.885 428.892C132.885 428.666 133.112 428.441 133.339 428.441C133.566 428.441 133.793 428.666 133.793 428.892C133.793 428.967 133.793 429.042 133.793 429.042C133.717 428.967 134.02 429.267 133.263 429.342C132.734 429.042 132.961 429.042 132.885 429.042L132.885 428.967L132.885 428.892L132.885 428.817L132.81 428.591L132.658 428.141L132.431 427.315C132.28 426.714 132.205 426.188 132.053 425.588L131.448 422.209C131.297 421.082 131.07 419.956 130.995 418.754C130.919 418.154 130.919 417.628 130.843 417.027C130.843 416.727 130.843 416.427 130.919 416.201C130.919 416.051 130.995 415.901 131.07 415.751C131.07 415.751 131.146 415.676 131.146 415.751C131.146 415.751 131.146 415.751 131.221 415.826L131.297 415.901C131.297 415.976 131.373 415.976 131.373 415.976L131.448 416.051C131.448 416.051 131.448 416.051 131.524 416.126C131.599 416.201 131.751 416.201 131.902 416.201C131.978 416.201 132.053 416.201 132.205 416.126C132.432 416.051 132.356 415.976 132.431 415.976C132.431 415.976 132.432 415.901 132.507 415.901L132.507 415.826C132.507 415.751 132.356 415.826 132.28 415.826L132.129 415.901C131.675 416.051 131.297 415.901 131.221 415.601Z" fill="black"/>
<path d="M89.6306 498.576C89.6306 498.576 89.7063 498.576 89.7063 498.501C89.7063 498.501 89.7063 498.501 89.782 498.426C89.8576 498.351 89.8576 498.2 89.782 498.05C89.7063 497.9 89.6305 497.825 89.5549 497.825C89.4793 497.75 89.4038 497.75 89.3282 497.75C89.2525 497.75 89.3281 497.75 89.2525 497.75C89.1768 497.75 89.2525 497.675 89.2525 497.675C89.2525 497.6 89.3282 497.525 89.3282 497.525C89.4038 497.45 89.4793 497.299 89.5549 497.224C89.7061 497.074 89.9331 496.999 90.0844 496.924L91.2944 496.473C91.6725 496.323 92.126 496.173 92.5798 496.023C93.0335 495.873 93.4875 495.798 93.9412 495.647C94.8487 495.497 95.7562 495.347 96.6637 495.272C97.5712 495.197 98.4784 495.197 99.3858 495.347C99.6127 495.422 99.8396 495.647 99.7639 495.873C99.7639 496.098 99.6127 496.248 99.3858 496.248C97.7221 496.548 96.0584 496.999 94.4704 497.525C94.0922 497.675 93.6385 497.825 93.336 497.9C92.9579 498.05 92.5045 498.2 92.1263 498.351L90.9163 498.801C90.6894 498.876 90.4626 498.951 90.2358 498.876C90.0845 498.876 90.0089 498.801 89.8577 498.801L89.6306 498.726C89.5549 498.726 89.5552 498.726 89.4795 498.651C89.4795 498.651 89.4795 498.651 89.4039 498.651C89.3282 498.651 89.1771 498.576 89.1014 498.576C89.1014 498.576 88.95 498.501 88.8743 498.351C88.7987 498.2 88.7987 498.05 88.8743 497.9C88.95 497.75 88.8744 497.825 88.95 497.825C89.0257 497.825 89.0258 497.75 89.1014 497.75C89.3283 497.6 89.6307 497.6 89.782 497.825C89.8576 498.125 89.8574 498.426 89.6306 498.576Z" fill="black"/>
<path d="M82.677 506.611C82.9795 507.212 81.6181 506.987 81.7694 506.687L81.7694 506.611L81.7694 506.536L81.6937 506.386L81.618 506.086L81.467 505.485L81.2399 504.359L80.7865 502.106C80.6352 501.355 80.4839 500.604 80.3327 499.853L79.8789 497.601C79.1983 494.597 78.5934 491.593 77.7616 488.665C76.1736 482.733 73.9047 477.026 71.4848 471.394C68.9893 465.762 66.267 460.205 63.6203 454.574L61.6541 450.369C60.9735 448.942 60.3685 447.515 59.7635 446.088L58.0244 441.808L57.7973 441.282L57.722 440.982C57.6464 440.832 57.6463 440.757 57.6463 440.757L57.5706 440.607C57.495 440.457 57.4948 440.231 57.4192 440.081C57.3436 439.931 57.2682 439.781 57.2682 439.781C57.2682 439.781 57.2682 439.781 57.2682 439.856L57.3439 439.931C57.3439 439.931 57.6461 440.156 57.873 440.081C58.1755 440.231 58.9318 439.555 58.7049 439.631C58.7805 439.555 58.7806 439.48 58.7806 439.48C58.7806 439.405 58.7806 439.48 58.7806 439.556C58.7806 439.706 58.7049 439.856 58.7049 440.081L58.6292 441.208C58.5536 441.958 58.4782 442.784 58.4782 443.46L58.4782 445.788L58.4025 450.444C58.4025 453.522 58.4781 456.601 58.7806 459.605C59.4612 465.687 60.9735 471.619 63.1665 477.401C65.2839 483.108 68.0065 488.665 71.3338 493.921C72.1656 495.198 72.9974 496.474 73.9049 497.751C74.8123 499.027 75.5684 500.379 76.4759 501.656C77.3834 502.932 78.291 504.134 79.274 505.26C80.2571 506.311 81.5424 507.362 82.828 507.437C83.0549 507.437 83.2818 507.663 83.2818 507.963C83.2818 508.188 83.0549 508.414 82.828 508.414C81.9206 508.414 81.0889 507.963 80.4084 507.588C79.7278 507.137 79.1228 506.612 78.5178 506.011C77.3835 504.884 76.476 503.608 75.493 502.331C74.5855 501.055 73.7537 499.778 72.8462 498.502C71.9388 497.225 71.0313 495.949 70.1995 494.672C66.7965 489.416 63.8471 483.859 61.6541 478.077C59.3854 472.295 57.722 466.138 56.9658 459.905C56.5877 456.751 56.4363 453.672 56.4363 450.519L56.4363 445.863L56.4363 443.535C56.4363 442.634 56.512 441.958 56.5877 441.132C56.5877 440.757 56.663 440.382 56.663 439.931C56.663 439.706 56.7387 439.556 56.7387 439.33C56.7387 439.18 56.7388 439.105 56.8901 438.805C56.8901 438.805 56.9655 438.654 57.0411 438.579C56.8899 438.654 57.6462 437.979 57.9487 438.129C58.2512 438.129 58.5536 438.354 58.6292 438.354C58.7048 438.429 58.705 438.429 58.7806 438.504C58.8562 438.579 58.8563 438.579 58.8563 438.579C58.9319 438.654 58.9316 438.729 58.9316 438.729C59.1585 439.03 59.1588 439.255 59.2344 439.48C59.31 439.706 59.3855 439.856 59.4611 440.081L59.5368 440.231C59.5368 440.306 59.5368 440.306 59.5368 440.231L59.6878 440.532L59.9149 441.057L61.7298 445.338C62.3347 446.764 62.9396 448.191 63.5446 449.542L65.5108 453.748C68.1576 459.304 70.9556 464.861 73.4511 470.568C75.9466 476.275 78.2909 482.057 79.9546 488.139C80.7864 491.143 81.3914 494.222 81.8451 497.3C82.0719 498.802 82.2987 500.379 82.4499 501.956L82.6013 504.284L82.677 505.41L82.677 506.011L82.677 506.311L82.677 506.461L82.677 506.536C82.8282 506.311 81.4669 506.086 81.7694 506.611C81.7694 506.386 82.072 506.161 82.2989 506.236C82.5257 506.086 82.7526 506.311 82.677 506.611Z" fill="black"/>
<path d="M100.446 480.48C100.446 480.555 100.446 480.705 100.446 480.78C100.446 480.855 100.37 481.005 100.295 481.08C100.219 481.155 100.144 481.156 100.068 481.231C99.9924 481.231 99.9166 481.231 99.841 481.231L99.7653 481.231C99.6897 481.231 99.6143 481.231 99.6143 481.156C99.463 481.08 99.3118 481.005 99.2362 481.005C99.0093 480.855 98.7822 480.78 98.631 480.63C98.2529 480.33 97.8748 480.104 97.4967 479.804C96.7405 479.278 96.06 478.678 95.3794 478.077L94.3208 477.176C93.9427 476.875 93.6403 476.575 93.2622 476.2C92.6572 475.449 92.0521 474.773 91.5227 474.022C89.2541 471.093 87.2123 468.015 85.4731 464.786C84.5656 463.134 83.8096 461.482 83.0534 459.755C82.2972 458.103 81.6165 456.376 81.0115 454.649C79.726 451.194 78.5917 447.74 77.6843 444.136C75.7938 437.002 74.7352 429.719 74.3571 422.435C74.2058 418.756 74.0544 415.151 74.2057 411.472C74.2813 409.67 74.3569 407.792 74.5838 405.99C74.8106 404.113 74.9617 402.311 75.5667 400.433C75.7179 399.983 75.9449 399.457 76.3986 398.856C76.3986 398.856 76.4744 398.781 76.55 398.706C76.6256 398.631 76.7011 398.631 76.7767 398.556C77.0036 398.481 77.2304 398.406 77.4572 398.406C77.6841 398.406 77.8355 398.481 77.9867 398.556C78.0623 398.631 78.2135 398.706 78.2891 398.781C78.6672 399.007 78.8184 399.307 78.9696 399.457C79.5746 400.358 79.953 401.184 80.4067 402.01C80.6336 402.461 80.7846 402.836 80.9358 403.287L81.3896 404.563C81.7677 405.389 82.1458 406.29 82.4482 407.116C83.7338 410.571 84.7927 414.1 85.7002 417.629C86.6076 421.158 87.5906 424.613 88.6493 428.067C89.708 431.521 90.691 435.05 91.5984 438.579C93.4133 445.638 95.0014 452.771 96.2113 459.905C96.5138 461.707 96.8164 463.509 97.0432 465.311C97.2701 467.114 97.7238 468.841 98.1775 470.568C98.6313 472.295 99.1605 474.022 99.6143 475.824C100.068 477.626 100.37 479.428 100.37 481.306C100.37 481.531 100.144 481.756 99.9167 481.756C99.6898 481.756 99.4629 481.531 99.4629 481.306C99.4629 479.579 99.0847 477.776 98.631 476.049C98.1772 474.322 97.6479 472.595 97.1186 470.793C96.5892 469.066 96.1358 467.264 95.9089 465.387C95.6064 463.584 95.3038 461.782 95.0013 460.055C93.7158 452.922 91.9765 445.863 90.086 438.88C89.1029 435.35 88.1199 431.896 87.0612 428.442C85.9269 424.988 84.9438 421.459 84.0364 417.93C83.0533 414.475 82.0703 410.946 80.7091 407.642C80.4066 406.816 80.0286 405.99 79.6505 405.164L79.121 403.888C78.9698 403.512 78.7428 403.062 78.5915 402.686C78.2134 401.935 77.8356 401.109 77.3819 400.509C77.3063 400.358 77.1548 400.283 77.1548 400.208C77.2304 400.208 77.2307 400.208 77.3819 400.283C77.4575 400.283 77.6087 400.283 77.6843 400.208C77.7599 400.208 77.76 400.208 77.76 400.133C77.76 400.133 77.8353 400.058 77.8353 400.133C77.7597 400.283 77.6085 400.584 77.4572 400.959C77.0035 402.536 76.7769 404.338 76.55 406.065C76.3988 407.867 76.2476 409.67 76.2476 411.472C76.0963 415.076 76.1717 418.68 76.3986 422.285C76.8523 429.493 77.9109 436.627 79.7258 443.535C80.6333 446.989 81.7679 450.444 83.0534 453.823C83.734 455.475 84.3388 457.202 85.095 458.854C85.7756 460.506 86.6075 462.083 87.4393 463.659C89.1029 466.813 91.0691 469.817 93.1108 472.82C93.6402 473.571 94.1695 474.322 94.6232 474.998C94.8501 475.223 95.1526 475.599 95.4551 475.974L96.3624 476.95C96.9673 477.626 97.6479 478.227 98.2529 478.828C98.5554 479.128 98.9337 479.429 99.2362 479.729C99.3874 479.879 99.5387 480.029 99.69 480.104C99.7656 480.179 99.841 480.255 99.9167 480.255C99.9167 480.255 99.8409 480.255 99.7653 480.255C99.6897 480.255 99.6899 480.254 99.6143 480.329C99.5386 480.405 99.4629 480.48 99.4629 480.555C99.4629 480.63 99.4629 480.63 99.4629 480.705C99.3873 480.48 99.6141 480.179 99.841 480.179C100.219 480.104 100.446 480.255 100.446 480.48Z" fill="black"/>
<path d="M112.696 462.831C112.696 462.831 112.696 462.756 112.696 462.68C112.696 462.605 112.772 462.53 112.772 462.53C112.848 462.455 112.848 462.38 112.923 462.305C112.999 462.23 113.074 462.155 113.15 462.08C113.301 461.93 113.453 461.779 113.68 461.629C113.982 461.404 114.36 461.179 114.663 460.878C115.343 460.428 116.024 459.977 116.704 459.602C118.141 458.776 119.502 458.025 120.939 457.274C122.376 456.523 123.813 455.847 125.249 455.096L129.635 453.144C135.534 450.516 141.432 447.963 147.482 445.635C153.456 443.232 159.657 441.129 165.858 439.402L168.202 438.802L168.807 438.651L169.336 438.501L170.47 438.201C171.983 437.75 173.571 437.3 175.159 436.849C176.747 436.474 178.335 436.098 180.074 435.873C180.906 435.798 181.814 435.723 182.797 435.948C183.326 436.098 183.931 436.174 184.46 436.924C184.611 437.075 184.687 437.3 184.763 437.525C184.839 437.75 184.838 437.901 184.838 438.126C184.838 438.351 184.839 438.501 184.763 438.651C184.763 438.802 184.687 438.952 184.611 439.102C184.233 440.078 183.704 440.754 183.175 441.43C182.645 442.106 182.04 442.706 181.435 443.232C180.225 444.358 179.015 445.41 177.73 446.461C176.444 447.512 175.159 448.488 173.798 449.389C173.117 449.84 172.437 450.291 171.68 450.741C171.529 450.816 171.302 450.966 171.075 451.041L170.546 451.267L169.412 451.717C163.438 454.195 157.388 456.523 151.187 458.325C144.911 460.127 138.483 461.179 131.98 461.179L130.77 461.179C130.391 461.179 130.013 461.179 129.635 461.254C128.879 461.329 128.047 461.404 127.291 461.554C125.703 461.779 124.115 462.08 122.527 462.305L117.763 463.131C116.931 463.281 116.175 463.356 115.343 463.507C114.965 463.582 114.511 463.582 114.133 463.657C113.906 463.657 113.755 463.657 113.528 463.732C113.377 463.732 113.301 463.732 113.15 463.732C113.074 463.732 112.999 463.732 112.772 463.582C112.696 463.507 112.621 463.507 112.621 463.356C112.621 462.981 112.621 462.906 112.696 462.831C112.696 462.756 112.696 462.756 112.696 462.831C112.696 462.831 112.696 462.756 112.696 462.831ZM113.604 463.056C113.604 463.131 113.604 463.131 113.528 463.206C113.453 463.281 113.528 463.281 113.528 463.206C113.528 463.131 113.528 463.131 113.528 462.981C113.453 462.831 113.452 462.831 113.377 462.756C113.226 462.681 113.301 462.68 113.301 462.68C113.377 462.68 113.453 462.68 113.528 462.68C113.679 462.68 113.906 462.681 114.058 462.605C114.436 462.53 114.814 462.53 115.267 462.455C116.024 462.305 116.855 462.155 117.612 462.08L122.376 461.179C123.964 460.878 125.552 460.578 127.14 460.353C127.972 460.203 128.728 460.127 129.56 459.977C129.938 459.902 130.392 459.902 130.845 459.902L132.055 459.902C138.407 459.752 144.759 458.551 150.885 456.748C157.01 454.946 162.984 452.543 168.883 450.065L170.017 449.615L170.546 449.389C170.697 449.314 170.849 449.239 171 449.164C171.605 448.789 172.285 448.338 172.966 447.888C174.252 446.986 175.537 446.01 176.747 445.034C177.957 444.058 179.167 443.007 180.301 441.88C180.83 441.355 181.36 440.754 181.889 440.153C182.343 439.552 182.796 438.952 182.948 438.426C182.948 438.351 183.023 438.276 183.023 438.276C183.023 438.201 183.023 438.201 183.023 438.201C183.023 438.126 183.023 438.201 183.023 438.201C183.023 438.201 183.023 438.201 183.023 438.276C183.099 438.351 182.872 438.201 182.57 438.126C181.965 437.976 181.209 438.051 180.452 438.126C178.94 438.276 177.427 438.651 175.839 439.027C174.327 439.402 172.815 439.853 171.227 440.379L170.092 440.754L169.487 440.904L168.883 441.054L166.538 441.655C160.413 443.382 154.363 445.485 148.389 447.888C142.415 450.29 136.593 452.844 130.694 455.472C127.745 456.748 124.796 458.025 121.922 459.377L117.536 461.329C116.78 461.629 116.099 462.005 115.343 462.305C114.965 462.455 114.663 462.681 114.284 462.831C114.133 462.906 113.982 462.981 113.831 463.131C113.679 462.981 113.528 463.131 113.604 463.056Z" fill="black"/>
<path d="M98.2516 398.482C98.4785 395.328 98.0248 392.174 97.8735 388.87C97.7979 387.218 97.8738 385.491 98.1006 383.839L98.5544 381.436C98.7057 380.61 98.9323 379.859 99.0835 379.033C100.596 372.651 102.789 366.418 105.511 360.486C108.234 354.554 111.334 348.772 114.888 343.291C116.627 340.512 118.669 337.884 120.938 335.481C122.072 334.28 123.282 333.153 124.568 332.102C125.097 331.652 125.702 331.051 126.307 330.525C126.609 330.225 126.912 330 127.215 329.699C127.366 329.549 127.517 329.399 127.819 329.249C127.895 329.249 127.895 329.174 127.971 329.174C128.046 329.174 127.971 329.174 128.122 329.099C128.349 329.099 128.046 328.948 128.803 329.099C129.483 329.474 129.18 329.324 129.256 329.399L129.332 329.474C129.407 329.549 129.408 329.624 129.483 329.699C129.559 329.85 129.559 329.925 129.634 330C129.634 330.075 129.71 330.15 129.71 330.3C129.785 330.901 129.785 331.351 129.71 331.802C129.71 332.252 129.634 332.628 129.559 333.078C129.408 333.904 129.256 334.73 129.105 335.556C128.727 337.133 128.349 338.785 127.971 340.362C127.139 343.516 126.231 346.67 125.248 349.748C123.282 355.981 121.013 362.063 118.367 367.995C115.72 373.927 112.771 379.784 109.444 385.341C108.612 386.693 107.78 388.194 106.873 389.471L104.15 393.526C103.243 394.878 102.335 396.229 101.504 397.581C101.05 398.256 100.672 398.932 100.218 399.608C99.991 399.984 99.8399 400.284 99.613 400.659C99.4618 400.96 99.2349 401.41 99.2349 401.56L99.1592 401.711C99.0836 401.936 98.8566 402.086 98.6297 402.011C98.4029 401.936 98.2516 401.711 98.2516 401.485C98.3273 401.185 98.3275 400.885 98.4787 400.734C98.5543 400.509 98.6298 400.359 98.7054 400.134C98.8567 399.758 99.0838 399.383 99.3106 399.007C99.6887 398.257 100.142 397.581 100.52 396.905C101.352 395.478 102.26 394.127 103.092 392.775L105.738 388.72C106.646 387.368 107.402 386.017 108.234 384.59C111.41 378.958 114.208 373.177 116.779 367.244C119.35 361.312 121.543 355.23 123.433 349.073C124.341 345.994 125.248 342.84 126.005 339.761C126.383 338.184 126.761 336.608 127.063 335.106C127.214 334.355 127.366 333.529 127.441 332.778C127.517 332.403 127.517 332.027 127.593 331.652C127.593 331.276 127.593 330.901 127.593 330.676C127.593 330.601 127.593 330.676 127.593 330.676C127.593 330.676 127.593 330.751 127.668 330.751C127.82 330.826 127.441 330.601 128.122 331.051C128.802 331.126 128.5 331.051 128.727 331.051L128.803 330.976C128.803 330.976 128.878 330.976 128.803 330.976C128.727 331.051 128.576 331.126 128.425 331.276C128.122 331.501 127.819 331.802 127.517 332.027C126.912 332.553 126.383 333.078 125.702 333.679C124.492 334.73 123.358 335.782 122.223 336.908C120.03 339.236 118.14 341.789 116.401 344.492C112.922 349.899 109.822 355.605 107.175 361.463C104.528 367.32 102.411 373.402 100.974 379.634L100.445 381.962L99.9911 384.29C99.6887 385.792 99.613 387.368 99.613 388.945C99.5374 392.099 99.7643 395.478 98.9325 398.707C98.8569 398.932 98.6298 399.082 98.3273 399.082C98.403 398.932 98.2516 398.782 98.2516 398.482Z" fill="black"/>
<path d="M56.9643 353.349C59.6867 356.578 63.0138 359.357 66.1898 362.06C69.3659 364.838 72.6932 367.391 76.3986 369.344C80.0284 371.296 84.0363 372.723 88.1198 372.948C89.1029 373.023 90.1615 372.948 91.0689 372.798C91.1446 372.798 91.2961 372.723 91.3717 372.723L91.447 372.723C91.447 372.723 91.3716 372.798 91.296 372.798C91.5229 372.498 90.6153 373.249 91.1446 374.225L91.0689 374.15L90.6155 373.549L89.6322 372.272C88.3467 370.62 87.0613 368.893 85.7002 367.391C84.339 365.814 82.7509 364.538 81.0872 363.111C79.4992 361.685 77.9109 360.258 76.3229 358.831C73.1468 355.978 70.0466 353.049 66.7193 350.421C63.392 347.793 59.8377 345.54 55.981 343.663C54.0905 342.687 52.1246 341.786 50.1585 340.96C48.2679 340.058 46.2259 339.458 44.1841 338.782L44.7136 337.881C45.9992 339.007 47.2847 340.058 48.419 341.335C48.7215 341.635 48.9484 342.011 49.2509 342.386L49.9314 343.438L51.2928 345.54C53.0321 348.093 54.8469 350.796 56.9643 353.349ZM56.2834 353.95C54.0904 351.397 52.2757 348.619 50.3852 345.84L49.0242 343.738L48.3433 342.687C48.1164 342.386 47.8896 342.086 47.5871 341.785C46.5284 340.584 45.2431 339.458 44.0331 338.482C43.8063 338.256 43.8062 337.956 43.9574 337.731C44.1087 337.58 44.3354 337.505 44.5622 337.58C46.604 338.256 48.7215 338.857 50.6876 339.758C52.6537 340.584 54.6201 341.485 56.5862 342.386C60.4429 344.188 64.2236 346.441 67.6265 349.069C71.1051 351.698 74.2812 354.551 77.4572 357.329C79.0453 358.756 80.6336 360.183 82.2972 361.534C83.8853 362.886 85.6245 364.238 87.1369 365.89C88.6493 367.466 89.9349 369.194 91.296 370.846L92.2789 372.122L92.8084 372.723L92.8841 372.798C93.4135 373.774 92.4303 374.6 92.7327 374.225C92.6571 374.3 92.5813 374.375 92.5813 374.375L92.506 374.375C92.3548 374.45 92.2789 374.45 92.2033 374.525C92.052 374.6 91.9011 374.6 91.7498 374.675C90.5399 374.9 89.4055 374.976 88.2712 374.9C83.734 374.75 79.499 373.173 75.5667 371.146C71.7101 369.118 68.1562 366.49 64.9045 363.637C61.5772 360.708 59.0058 357.179 56.2834 353.95Z" fill="black"/>
<path d="M140.374 420.032C140.299 420.032 140.147 419.956 140.072 419.806C139.996 419.731 139.996 419.581 139.996 419.581C139.996 419.506 139.996 419.356 139.996 419.356C139.996 419.281 140.072 419.205 140.072 419.13C140.147 418.98 140.147 418.905 140.223 418.83C140.298 418.68 140.45 418.53 140.526 418.379C140.752 418.079 140.904 417.779 141.13 417.554C141.584 417.028 142.038 416.502 142.416 415.977C143.324 415 144.231 413.949 145.214 413.048C146.121 412.072 147.18 411.096 148.239 410.27C149.297 409.444 150.432 408.618 151.566 407.867C153.835 406.365 156.179 405.013 158.447 403.587L165.178 399.156C169.639 396.153 174.177 393.224 178.865 390.521C180.075 389.845 181.209 389.169 182.419 388.569C183.024 388.268 183.629 387.968 184.234 387.667C184.764 387.367 185.368 387.067 185.973 386.691C187.183 386.015 188.393 385.415 189.679 384.814C190.36 384.514 190.965 384.288 191.872 384.138C192.099 384.138 192.401 384.063 192.855 384.213C193.006 384.288 193.082 384.288 193.233 384.364C193.309 384.439 193.384 384.439 193.46 384.514C193.611 384.664 193.762 384.889 193.762 385.114C193.838 385.49 193.762 385.64 193.762 385.79C193.687 386.241 193.536 386.541 193.46 386.917C193.006 388.268 192.401 389.47 191.872 390.671L190.964 392.473L190.738 392.924L190.586 393.224L190.435 393.449L189.906 394.35C188.62 396.678 187.183 399.156 185.066 401.109C180.907 404.713 176.294 407.642 171.303 409.894C166.312 412.147 161.17 413.724 156.028 415.376L152.171 416.577C150.886 416.953 149.676 417.403 148.39 417.929C147.18 418.455 145.895 418.905 144.609 419.356C143.928 419.581 143.323 419.806 142.643 419.956C142.265 420.032 141.962 420.107 141.584 420.107C141.433 420.107 141.282 420.182 141.055 420.182C140.828 420.107 140.601 420.107 140.374 420.032ZM140.601 419.13C140.752 419.13 140.828 419.13 140.979 419.055C141.13 419.055 141.282 418.98 141.433 418.98C141.735 418.905 142.038 418.83 142.416 418.755C143.021 418.605 143.702 418.38 144.307 418.154C145.517 417.704 146.802 417.178 148.012 416.653C149.222 416.127 150.583 415.601 151.793 415.226L155.65 413.949C160.792 412.222 165.858 410.495 170.622 408.242C173.042 407.116 175.387 405.839 177.58 404.413C179.773 402.986 181.89 401.334 183.856 399.607C185.747 397.88 186.956 395.627 188.318 393.299L188.847 392.398L188.998 392.173L189.074 392.023L189.301 391.572L190.132 389.77C190.662 388.569 191.191 387.367 191.645 386.166C191.721 385.865 191.872 385.565 191.872 385.34C191.872 385.34 191.872 385.265 191.872 385.49C191.872 385.64 192.023 385.865 192.099 385.94L192.174 386.016C192.25 386.091 192.326 386.09 192.326 386.09C192.477 386.09 192.401 386.09 192.25 386.09C191.796 386.166 191.191 386.391 190.586 386.691C189.376 387.217 188.242 387.818 187.032 388.494C186.427 388.794 185.898 389.169 185.217 389.47C184.612 389.77 184.007 390.07 183.478 390.371C182.268 390.972 181.134 391.647 179.999 392.323C175.387 394.951 170.925 397.955 166.463 400.958L159.733 405.464C157.465 406.966 155.12 408.317 152.927 409.744C150.734 411.171 148.617 412.748 146.651 414.475L143.626 417.103C143.096 417.553 142.643 418.004 142.113 418.455C141.886 418.68 141.66 418.905 141.433 419.13C141.282 419.205 141.206 419.356 141.13 419.431L140.979 419.581C140.979 419.581 140.979 419.506 140.979 419.431C140.979 419.431 140.979 419.356 140.904 419.281C140.752 419.206 140.677 419.205 140.601 419.13Z" fill="black"/>
<path d="M77.7587 517.423C77.6831 517.423 77.683 517.499 77.3049 517.273C77.0024 516.447 77.3805 516.748 77.3049 516.597C77.3805 516.522 77.3803 516.522 77.4559 516.522L77.6073 516.447L77.834 516.297L78.2878 515.997C78.5903 515.771 78.9687 515.621 79.2711 515.396C79.9517 514.945 80.6321 514.495 81.3127 514.194C82.0689 513.819 82.8252 513.519 83.657 513.368C84.4888 513.143 85.2452 512.993 86.077 512.918C89.253 512.542 92.429 512.693 95.3782 512.693C96.8906 512.693 98.3273 512.618 99.8397 512.392C101.352 512.167 102.94 512.017 104.453 511.792C107.553 511.416 110.578 511.116 113.678 510.89C119.879 510.44 126.08 510.215 132.281 510.44C133.869 510.515 135.381 510.59 136.969 510.74C137.726 510.815 138.558 510.89 139.314 510.965L139.843 511.041C139.994 511.041 140.146 511.041 140.372 511.041C140.751 511.041 141.129 511.041 141.507 511.041C143.019 511.041 144.607 511.04 146.195 511.116C146.952 511.191 147.783 511.266 148.615 511.341C149.069 511.416 149.447 511.491 149.901 511.716C150.128 511.791 150.354 511.867 150.657 512.092L150.884 512.242L150.959 512.317C150.884 511.641 151.489 513.744 151.111 513.594C151.035 513.669 150.884 513.819 150.884 513.819L150.808 513.894C150.657 514.044 150.581 514.044 150.43 514.119C150.203 514.269 150.052 514.345 149.825 514.42C149.749 514.495 149.674 514.495 149.447 514.57L149.144 514.645C148.842 514.795 148.539 514.87 148.161 515.095C147.481 515.396 146.876 515.847 146.12 516.147C144.607 516.898 143.095 517.348 141.582 517.799C140.07 518.174 138.558 518.55 137.121 518.925C136.818 519 136.591 519.151 136.138 519.301C135.684 519.451 135.381 519.526 134.928 519.676C134.171 519.901 133.415 520.052 132.584 520.202C126.383 521.328 120.257 521.779 114.057 522.079C110.956 522.229 107.855 522.304 104.755 522.304C101.655 522.304 98.5543 522.229 95.4539 521.929C94.6977 521.854 93.8658 521.704 93.1096 521.628L90.8409 521.253C89.3285 520.953 87.8161 520.652 86.3037 520.352C84.7913 520.052 83.2789 519.676 81.7665 519.301C81.0103 519.075 80.2541 518.775 79.5735 518.475C79.1954 518.324 78.8174 518.174 78.5149 518.024L78.2878 517.874C78.2878 517.874 78.2124 517.874 78.1368 517.799L77.834 517.724L77.683 517.649C77.6074 517.574 77.7587 517.799 77.3806 517.498C77.0781 516.898 78.0611 516.522 77.683 516.747C77.7586 516.747 77.7584 516.747 77.834 516.747C78.0609 516.747 78.2879 516.898 78.3635 517.198C78.3635 517.423 78.2122 517.649 77.9097 517.724L77.834 517.724C77.7584 517.724 77.834 517.724 77.834 517.724C77.5316 517.949 78.3637 517.574 78.1368 516.973C77.7587 516.672 77.9854 516.898 77.9097 516.823L77.9854 516.823L78.2878 516.898C78.3635 516.898 78.5147 516.973 78.6659 517.048L78.893 517.198C79.1955 517.348 79.5735 517.499 79.9516 517.649C80.6322 517.949 81.3883 518.174 82.0689 518.324C83.5057 518.7 85.018 519 86.5304 519.301C88.0428 519.601 89.5552 519.826 91.0676 520.127L93.3363 520.502C94.0925 520.577 94.8487 520.727 95.6049 520.727C101.655 521.178 107.856 520.878 113.981 520.502C120.106 520.127 126.232 519.601 132.206 518.4C132.962 518.249 133.718 518.099 134.398 517.874C134.701 517.799 135.155 517.649 135.457 517.574L135.987 517.348L136.289 517.198C136.44 517.123 136.516 517.123 136.591 517.123C138.104 516.672 139.616 516.297 141.053 515.922C142.49 515.471 143.926 515.096 145.136 514.42C145.817 514.044 146.422 513.669 147.178 513.293C147.556 513.068 147.934 512.918 148.313 512.768L148.615 512.693C148.615 512.693 148.691 512.617 148.766 512.617C148.918 512.542 149.069 512.467 149.22 512.392L149.371 512.317C149.371 512.317 149.22 512.467 149.22 512.542C148.842 512.392 149.447 514.42 149.371 513.744C149.371 513.744 149.22 513.669 149.144 513.594C148.918 513.519 148.539 513.443 148.237 513.368C147.556 513.218 146.8 513.218 146.044 513.143C144.532 513.068 143.019 513.068 141.431 513.068C141.053 513.068 140.675 513.068 140.221 513.068C139.994 513.068 139.843 513.068 139.541 512.993L138.936 512.918C138.179 512.843 137.423 512.768 136.667 512.693C135.155 512.542 133.642 512.467 132.13 512.467C126.005 512.242 119.879 512.542 113.754 512.993C110.729 513.218 107.629 513.519 104.604 513.894C103.092 514.044 101.579 514.269 100.067 514.495C98.4788 514.72 96.8905 514.795 95.3025 514.795C92.1264 514.795 89.1015 514.57 86.1523 514.72C84.6399 514.795 83.2034 515.02 81.9179 515.546C81.2373 515.771 80.5565 516.072 79.876 516.447C79.4978 516.597 79.1198 516.748 78.8173 516.973L78.2878 517.198L78.0611 517.348L77.9854 517.423C77.9098 517.273 78.2123 517.649 77.9854 516.823C77.6073 516.597 77.683 516.748 77.6073 516.672C77.8342 516.672 78.1368 516.823 78.1368 517.048C78.2124 517.123 77.9856 517.423 77.7587 517.423Z" fill="black"/>
<path d="M24.1441 271.877C24.5979 270.075 25.3541 272.103 24.976 271.577L24.976 271.727L24.976 271.952L24.976 272.478L24.976 273.454L24.976 275.407L25.0514 279.236C25.127 281.789 25.0517 284.417 24.976 286.971C24.8248 292.152 24.4465 297.258 24.4465 302.364C24.5222 312.652 23.7659 323.014 22.8584 333.226C21.951 343.514 20.7411 353.726 20.2117 363.938C19.6068 374.226 19.153 384.513 18.6993 394.726C16.96 435.8 16.7331 477.025 19.3798 518.024L19.6069 521.854L19.7579 523.806C19.7579 524.482 19.7579 525.158 19.7579 525.759C19.7579 528.312 19.6826 530.94 19.6826 533.493L19.3798 548.886C19.3042 553.993 19.2286 559.174 19.3798 564.28C19.3798 564.881 19.4555 565.557 19.4555 566.157C19.4555 566.458 19.5312 566.758 19.5312 567.058C19.5312 567.133 19.5312 567.209 19.5312 567.209L19.5312 567.284C19.5312 567.359 19.4554 567.133 19.3798 567.058C19.3042 566.983 19.3045 566.983 19.3045 566.908C19.2289 566.833 19.2287 566.833 19.1531 566.833C19.0775 566.833 19.0775 566.833 19.1531 566.833C20.363 566.908 21.7243 566.983 23.0098 567.058L30.7986 567.509C35.9408 567.809 41.1586 568.11 46.3008 568.56C48.8719 568.785 51.5189 569.011 54.09 569.311C56.6611 569.611 59.232 569.912 61.8031 570.137C72.0875 571.188 82.4474 571.714 92.7318 571.939C113.376 572.39 134.096 571.414 154.741 569.987C159.883 569.612 165.101 569.236 170.243 568.785L174.1 568.485L177.956 568.26L185.745 567.884L216.825 566.383L215.918 567.284C215.994 562.253 216.069 557.222 216.145 552.191C216.145 547.16 216.22 542.128 216.069 537.172C216.069 536.872 216.069 536.572 215.993 536.271L215.918 535.37L215.691 533.493C215.54 532.216 215.313 531.015 215.237 529.738L214.784 525.984L214.406 522.229C213.952 517.198 213.498 512.167 213.196 507.136C211.91 487.012 211.456 466.813 211.456 446.688C211.305 406.44 206.163 366.416 205.104 326.093C204.953 321.062 204.953 316.031 204.877 310.925L205.18 295.831L205.407 280.738L205.482 273.229C205.482 270.751 205.558 268.198 205.407 265.72C205.407 265.57 205.407 265.42 205.407 265.345C205.407 265.345 205.558 265.72 205.785 265.795C205.86 265.795 205.936 265.87 205.785 265.795C205.709 265.795 205.558 265.795 205.407 265.795L204.877 265.795L202.987 265.795L199.206 265.72L191.568 265.57C186.502 265.42 181.435 265.345 176.368 265.495C171.302 265.645 166.235 265.945 161.168 266.246L145.969 267.072C125.703 268.198 105.512 269.399 85.2454 270.376C75.1123 270.826 64.9793 271.277 54.8462 271.502C52.2751 271.577 49.7795 271.652 47.2084 271.727C44.6373 271.802 42.1418 271.877 39.5707 271.877L31.9329 271.952C29.4374 271.952 26.7909 271.953 24.1441 271.877ZM24.9003 271.277C27.3958 271.202 29.7401 271.051 32.16 271.051L39.7221 270.901C42.2932 270.901 44.7886 270.826 47.2841 270.751C49.7796 270.676 52.3507 270.601 54.8462 270.526C64.9793 270.225 75.1123 269.775 85.2454 269.249C105.512 268.273 125.703 266.997 145.969 265.795L161.168 264.894C166.235 264.594 171.302 264.293 176.368 264.143C181.435 263.993 186.577 264.068 191.644 264.143L199.206 264.293L202.987 264.293L204.877 264.293L205.331 264.293C205.482 264.293 205.633 264.293 205.86 264.293C206.012 264.293 206.012 264.293 206.314 264.368C206.617 264.444 206.844 264.894 206.844 264.969L206.844 265.194C206.844 265.42 206.919 265.57 206.919 265.72C207.07 268.273 206.995 270.826 206.995 273.304L206.919 280.888L206.692 295.981L206.465 311.075C206.465 316.106 206.541 321.137 206.692 326.168C207.751 366.417 212.893 406.44 213.12 446.838C213.196 466.963 213.649 487.087 214.935 507.136C215.237 512.167 215.691 517.198 216.145 522.154L216.523 525.909L216.977 529.663C217.128 530.94 217.279 532.141 217.43 533.418L217.657 535.295L217.733 536.271C217.733 536.572 217.733 536.947 217.809 537.247C217.96 542.354 217.884 547.385 217.884 552.416C217.808 557.447 217.808 562.478 217.657 567.509C217.657 568.035 217.279 568.41 216.75 568.41L185.745 569.912L177.956 570.287L174.1 570.513L170.243 570.813C165.101 571.263 159.883 571.639 154.741 572.014C134.021 573.516 113.301 574.492 92.5051 574.042C82.1451 573.817 71.7094 573.291 61.4249 572.24C58.8538 572.014 56.283 571.639 53.7119 571.414C51.1408 571.113 48.5695 570.888 45.9984 570.663C40.8562 570.287 35.714 569.912 30.4962 569.612L22.7074 569.161C21.4219 569.086 20.1362 569.011 18.775 568.936C18.775 568.936 18.6238 568.936 18.4726 568.861C18.3214 568.861 18.1701 568.786 18.0945 568.711C17.9432 568.635 17.8676 568.635 17.7164 568.485C17.5651 568.335 17.414 568.11 17.414 568.035C17.414 567.96 17.3383 567.884 17.3383 567.809L17.2626 567.659C17.2626 567.509 17.2625 567.434 17.1869 567.359C17.1113 566.983 17.1112 566.683 17.1112 566.307C17.0356 565.632 17.0359 564.956 17.0359 564.355C16.8846 559.174 16.9603 553.993 17.0359 548.886L17.3383 533.418C17.4139 530.865 17.414 528.312 17.414 525.684C17.414 525.083 17.414 524.407 17.414 523.806L17.2626 521.929L17.0359 518.099C14.3135 476.95 14.5403 435.725 16.204 394.575C16.6577 384.288 17.1871 374.001 17.7921 363.713C18.4727 353.426 19.6068 343.138 20.5898 332.926C21.6485 322.714 22.4804 312.501 22.556 302.214C22.6317 297.033 23.0854 291.927 23.3879 286.745C23.5392 284.192 23.6146 281.639 23.6146 279.086L23.6903 275.257L23.6903 273.304L23.6903 272.328L23.6903 271.877L23.6903 271.652L23.6903 271.577C23.766 271.051 24.5222 272.929 24.9003 271.277Z" fill="black"/>
<path d="M87.2263 44.5172C87.5252 45.9575 87.5849 47.3979 87.7045 48.7868C87.7643 50.2271 87.8242 51.616 87.8242 53.0563L87.8838 57.2744L88.0636 61.4925L88.4817 78.4678L88.7807 95.4431C88.8405 101.102 88.9604 106.76 88.8408 112.47C88.8408 113.756 88.96 115.196 89.0796 116.585L89.4983 120.803C89.7973 123.632 90.0962 126.41 90.3952 129.239C91.0529 134.846 91.7109 140.505 92.4284 146.112L94.5212 162.984L95.5974 171.421L96.1953 175.639L96.4943 177.748L96.6735 178.776L96.7932 179.291L96.8528 179.548L96.8528 179.651L96.8528 179.702C96.9126 179.805 96.8533 179.548 96.4347 179.497C96.6739 179.497 96.9129 179.702 96.9129 179.96C96.9129 180.217 96.6739 180.423 96.4347 180.423C96.0161 180.371 95.9562 180.062 96.016 180.165C96.016 180.114 95.9559 180.114 95.9559 180.062L95.9559 179.96L95.8963 179.805L95.8368 179.548L95.7171 179.034L95.5378 178.005L95.1787 175.896L94.5212 171.678L93.2652 163.293C92.4281 157.686 91.5912 152.079 90.8139 146.472C90.0366 140.865 89.3189 135.258 88.6014 129.6C88.2426 126.77 87.8838 123.992 87.5848 121.163L87.1667 116.945C87.0471 115.505 86.8677 114.167 86.8677 112.573C86.9873 106.966 86.8078 101.307 86.748 95.6489L86.3294 78.6736L85.791 61.6983L85.7314 59.5892C85.7314 58.8691 85.6719 58.2004 85.6719 57.4287C85.6719 55.9884 85.7913 54.5481 85.8511 53.1592C85.9707 50.33 86.2696 47.5008 86.3294 44.723C86.3294 44.4658 86.5684 44.26 86.8076 44.26C86.987 44.1571 87.1665 44.3114 87.2263 44.5172Z" fill="black"/>
<path d="M104.148 45.0845C104.208 47.8623 104.447 50.6401 104.567 53.4178C104.746 56.1956 104.866 59.0248 104.986 61.8026C105.225 67.4096 105.583 73.0166 105.763 78.6751C105.823 81.5557 105.763 84.3335 105.822 87.1627L105.942 95.5989C106.062 101.206 106.181 106.813 106.42 112.471C106.839 123.685 107.437 134.951 108.035 146.165L109.291 162.986C109.709 168.593 110.128 174.2 110.128 179.91C110.128 180.167 109.888 180.372 109.649 180.372C109.41 180.372 109.171 180.167 109.171 179.91C109.052 174.303 108.513 168.696 107.975 163.14C107.437 157.533 106.839 151.926 106.361 146.319C105.583 135.054 104.866 123.84 104.328 112.574C104.088 106.967 103.909 101.309 103.79 95.6503L103.67 87.2141C103.61 84.4363 103.67 81.5557 103.611 78.7779C103.371 73.1709 103.012 67.564 102.773 61.957C102.654 59.1278 102.534 56.2985 102.594 53.4693C102.654 50.6401 102.713 47.8108 103.252 44.9302C103.311 44.673 103.551 44.5187 103.79 44.5701C104.029 44.6216 104.148 44.8273 104.148 45.0845Z" fill="black"/>
<path d="M117.602 44.93C117.841 50.537 117.841 56.144 117.721 61.751C117.661 64.5287 117.602 67.358 117.662 70.1357C117.662 71.5246 117.661 72.9136 117.721 74.3025C117.781 75.6399 117.901 77.0802 117.961 78.4691C118.678 89.683 119.036 100.897 119.575 112.111C120.053 123.325 120.771 134.488 122.146 145.599C122.864 151.154 123.581 156.761 124.179 162.317C124.777 167.924 125.375 173.479 125.494 179.138C125.494 179.395 125.315 179.601 125.016 179.601C124.777 179.601 124.538 179.395 124.538 179.138C124.299 173.582 123.521 167.975 122.863 162.42C122.146 156.864 121.309 151.309 120.471 145.753C118.917 134.59 118.08 123.376 117.422 112.162C116.824 100.948 116.465 89.7346 115.688 78.572C115.569 77.1831 115.509 75.7942 115.389 74.3538C115.329 72.9135 115.33 71.5247 115.27 70.0844C115.27 67.2552 115.27 64.4773 115.33 61.6481C115.389 58.8189 115.509 56.0412 115.688 53.2119C115.867 50.3827 116.107 47.6049 116.585 44.7756C116.645 44.5184 116.884 44.3642 117.123 44.3642C117.422 44.4671 117.602 44.6728 117.602 44.93Z" fill="black"/>
<path d="M129.859 43.539C130.995 49.0432 131.294 54.8045 130.995 60.4115C130.696 66.0185 130.278 71.574 130.397 77.1296C130.397 79.9074 130.576 82.6851 130.756 85.4629L131.234 93.8477L132.131 110.617L132.968 127.387L133.088 129.496L133.267 131.553C133.387 132.942 133.566 134.331 133.686 135.72L134.642 144.053L136.615 160.72L137.572 169.053C137.871 171.831 138.17 174.609 138.29 177.49C138.29 177.747 138.11 177.953 137.811 177.953C137.572 177.953 137.333 177.747 137.333 177.49L137.333 177.438C137.154 174.712 136.795 171.934 136.436 169.156L135.3 160.823L133.028 144.208L131.952 135.874C131.772 134.486 131.593 133.097 131.473 131.708L131.294 129.599L131.174 127.49L130.098 110.72L129.082 93.9506L128.603 85.5658C128.424 82.788 128.244 79.9588 128.244 77.1296C128.125 71.4712 128.543 65.8642 128.783 60.3086C128.902 57.5309 129.022 54.753 129.022 51.9752L128.962 43.6419C128.962 43.3847 129.141 43.179 129.44 43.179C129.619 43.1275 129.799 43.3333 129.859 43.539Z" fill="black"/>
<path d="M17.1868 206.625C17.5649 206.85 18.0188 207.001 18.5481 207.151C19.0019 207.301 19.5312 207.376 20.0606 207.526C21.0436 207.751 22.102 207.902 23.1607 208.052C24.2194 208.202 25.2025 208.352 26.2612 208.427C26.7906 208.502 27.3199 208.577 27.7736 208.577L29.3617 208.728C33.5209 209.028 37.7558 209.253 41.9905 209.478C46.2253 209.704 50.4599 209.929 54.6946 210.229C56.812 210.38 58.9293 210.53 61.0467 210.83C63.164 211.055 65.2816 211.356 67.3234 211.506C71.4825 211.881 75.717 212.032 79.8761 211.881C81.9935 211.806 84.0354 211.731 86.0771 211.431C87.1358 211.356 88.119 211.13 89.1777 210.98C90.2363 210.83 91.2949 210.68 92.4292 210.605C96.7396 210.229 100.974 210.38 105.209 210.38C107.326 210.38 109.444 210.38 111.486 210.305C113.527 210.229 115.645 210.004 117.762 209.854C134.625 208.502 151.413 206.925 168.277 205.048C176.671 204.072 185.064 203.246 193.383 201.894C201.701 200.618 210.17 199.341 218.715 199.341C218.942 199.341 219.169 199.567 219.169 199.792C219.169 200.017 218.942 200.242 218.715 200.242C210.322 200.317 201.928 201.744 193.61 203.096C185.291 204.522 176.822 205.574 168.428 206.55C151.64 208.502 134.777 210.229 117.913 211.731C115.796 211.881 113.679 212.107 111.561 212.182C109.444 212.257 107.327 212.332 105.134 212.257C100.899 212.257 96.6641 212.182 92.5806 212.557C91.5219 212.632 90.5387 212.783 89.4801 212.933C88.497 213.083 87.3625 213.233 86.3038 213.383C84.1865 213.608 81.9935 213.759 79.8761 213.834C75.5657 213.984 71.3311 213.834 67.0963 213.458C64.9789 213.308 62.8616 213.008 60.7443 212.783C58.6269 212.557 56.5853 212.407 54.4679 212.257C50.2332 211.956 46.0739 211.731 41.8391 211.581C37.6044 211.356 33.3698 211.055 29.135 210.53L27.5469 210.305C27.0176 210.229 26.4882 210.154 25.9588 210.079C24.9001 209.854 23.8413 209.704 22.7826 209.403C21.7239 209.178 20.7411 208.878 19.6825 208.577C18.6238 208.202 17.6407 207.902 16.6576 207.151C16.4308 207.001 16.4307 206.7 16.5819 206.475C16.6576 206.475 16.8843 206.475 17.1868 206.625Z" fill="black"/>
<path d="M13.9356 218.49C13.1037 217.964 14.7672 217.214 14.1623 217.589L14.238 217.589L14.3137 217.589L14.5404 217.589L14.9185 217.664L15.7504 217.814L17.3385 218.115L20.5143 218.64C22.6317 219.016 24.7491 219.466 26.9421 219.842C31.1768 220.743 35.4118 221.569 39.6466 222.17C48.1917 223.446 56.8125 223.897 65.4332 223.972C82.826 223.972 100.143 224.723 117.536 224.798C134.853 224.948 152.17 224.197 169.26 221.494C171.378 221.118 173.495 220.818 175.688 220.443L182.04 219.166C186.35 218.265 190.661 217.664 194.971 217.138C199.282 216.538 203.516 215.937 207.675 214.811L209.263 214.36L210.776 213.91C211.381 213.76 211.835 213.684 212.44 213.534L214.028 213.234L217.203 212.558L218.792 212.183L219.548 212.032L219.926 211.957L220.077 211.882L220.153 211.882C220.304 211.807 219.85 212.032 219.926 212.258C219.926 212.032 220.153 211.807 220.38 211.807C220.607 211.807 220.833 212.032 220.833 212.258C220.833 212.558 220.455 212.783 220.531 212.708L220.455 212.708L220.304 212.783L220.077 212.858L219.699 212.934L218.867 213.159L217.279 213.534L214.103 214.21L212.515 214.585C211.986 214.736 211.457 214.811 211.003 214.961L209.415 215.486L207.827 215.937C203.592 217.063 199.282 217.814 194.971 218.415C190.661 219.091 186.426 219.692 182.191 220.668L175.839 222.019C173.722 222.47 171.529 222.77 169.412 223.146C152.246 225.999 134.777 226.9 117.384 226.9C99.9916 226.825 82.6746 226.224 65.2819 226.224C56.5855 226.224 47.8135 225.774 39.1928 224.497C36.9998 224.197 34.8824 223.821 32.765 223.371C30.6476 222.92 28.5303 222.395 26.413 221.869C24.2956 221.344 22.178 220.818 20.1362 220.292L16.9604 219.466L15.3723 219.016L14.6161 218.791L14.238 218.64L14.0113 218.565L13.9356 218.565L13.9356 218.49C13.3306 218.866 14.9185 218.115 14.1623 217.589C14.3891 217.664 14.5403 217.889 14.4647 218.19C14.4647 218.415 14.238 218.565 13.9356 218.49Z" fill="black"/>
<path d="M44.638 280.516C42.3693 282.244 40.1004 284.121 37.983 286.148C36.9243 287.124 35.8658 288.101 34.8071 289.152L33.2947 290.654L32.5385 291.405L32.1604 291.78L31.9333 292.005L31.8576 292.08C31.8576 292.005 31.8576 292.156 31.8576 292.156L31.7823 292.306C31.7067 292.456 31.7065 292.606 31.6309 292.756C31.5553 293.057 31.4798 293.432 31.4042 293.732C31.2529 294.408 31.177 295.159 31.1014 295.835C30.8745 297.262 30.7992 298.688 30.648 300.115C30.3455 302.968 30.1183 305.897 29.9671 308.75C29.1352 320.314 28.606 331.953 28.2279 343.592C28.001 349.45 27.8497 355.231 27.7741 361.013C27.6229 366.87 27.2447 372.652 26.9422 378.51L24.9006 413.351C24.22 424.99 23.615 436.554 23.3125 448.194C23.2369 451.122 23.2368 453.975 23.2368 456.904C23.2368 458.331 23.3126 459.757 23.3882 461.184C23.4638 461.86 23.5393 462.611 23.6149 463.287C23.6905 463.587 23.7664 463.962 23.842 464.188C23.842 464.263 23.8417 464.263 23.9173 464.413C23.993 464.563 23.9931 464.713 24.0687 464.939L24.1444 465.539C24.5981 471.396 24.9006 477.178 25.203 483.035C25.808 494.674 26.3375 506.313 26.8669 517.952L27.5474 535.373C27.7743 541.23 28.0009 547.012 28.0765 552.87C28.0765 553.095 27.85 553.32 27.6231 553.32C27.3962 553.32 27.1693 553.095 27.1693 552.87C27.018 547.088 26.7156 541.231 26.4131 535.449L25.5055 518.028L23.5392 483.186C23.1611 477.404 22.8586 471.547 22.4049 465.84L22.3296 465.314C22.3296 465.314 22.3296 465.314 22.3296 465.239C22.3296 465.239 22.3295 465.164 22.2539 465.089L22.1782 464.939C22.0269 464.488 21.9514 464.113 21.8758 463.737C21.7245 462.986 21.649 462.235 21.5734 461.484C21.4221 459.983 21.4219 458.556 21.3463 457.054C21.2706 454.126 21.2706 451.197 21.3463 448.268C21.5731 436.629 22.178 424.99 22.783 413.351L24.7492 378.51C25.0517 372.728 25.4299 366.871 25.5812 361.089C25.5812 355.307 25.808 349.45 25.9593 343.592C26.3374 331.953 26.8669 320.314 27.6231 308.675C27.85 305.747 28.0768 302.893 28.3793 299.965C28.5305 298.538 28.7573 297.036 28.9841 295.61C29.1354 294.859 29.211 294.183 29.3622 293.432C29.4379 293.057 29.5134 292.681 29.6647 292.306C29.7403 292.08 29.8161 291.93 29.8917 291.705C29.9674 291.63 29.9671 291.48 30.0428 291.405C30.1184 291.254 30.1186 291.179 30.2698 291.029C30.3455 290.954 30.4209 290.879 30.4209 290.804L30.4966 290.729L30.7233 290.504L31.1014 290.128L31.9333 289.377L33.5971 287.875C34.7315 286.899 35.7901 285.923 36.9244 285.022C39.1931 283.145 41.5373 281.342 44.1085 279.841C44.3353 279.69 44.6377 279.766 44.789 279.991C44.8646 280.141 44.8648 280.366 44.638 280.516Z" fill="black"/>
<path d="M27.5475 553.394C27.5475 553.394 27.6229 553.394 27.6986 553.394C27.7742 553.394 28.0767 553.169 28.0767 552.944C28.0767 552.718 28.0013 552.718 28.0013 552.643C28.0013 552.568 28.0013 552.643 28.0013 552.643L28.0767 552.643L28.1524 552.718L28.3794 552.868L28.7575 553.169L29.5138 553.77L31.1015 554.971L32.6896 556.172L34.2777 557.299C36.4707 558.8 38.588 560.452 40.6298 562.18L39.9493 561.879C53.6366 561.879 67.2485 562.104 80.9359 562.18C94.6232 562.33 108.235 562.855 121.846 562.105C125.249 561.954 128.653 561.654 131.98 561.278L134.475 560.978C135.307 560.903 136.214 560.753 137.046 560.678C138.785 560.528 140.525 560.528 142.264 560.528C149.145 560.528 155.951 561.429 162.682 560.678L165.177 560.377C166.009 560.302 166.916 560.152 167.748 560.152C169.488 560.002 171.151 559.852 172.89 559.777L183.099 559.326C184.763 559.251 186.502 559.101 188.166 559.026C189.83 558.876 191.569 558.726 193.308 558.575C195.047 558.5 196.787 558.425 198.45 558.5C200.19 558.5 201.929 558.725 203.517 558.65C203.744 558.65 203.971 558.876 203.971 559.101C203.971 559.326 203.744 559.551 203.517 559.551C201.702 559.626 200.038 559.476 198.375 559.476C196.711 559.476 194.972 559.476 193.308 559.627C191.644 559.777 189.981 559.927 188.242 560.152C186.502 560.302 184.838 560.453 183.099 560.603C176.218 561.053 169.488 561.279 162.757 562.33C155.8 563.156 148.919 562.33 142.189 562.33C140.525 562.33 138.786 562.405 137.122 562.555C136.29 562.63 135.458 562.78 134.627 562.855L132.055 563.231C128.652 563.681 125.25 563.982 121.771 564.207C108.084 565.108 94.3961 564.507 80.7088 564.432L60.2155 564.357C53.4096 564.282 46.5284 564.282 39.7226 564.207C39.4201 564.207 39.1929 564.132 39.0417 563.907C38.0586 563.081 37.0756 562.18 36.0925 561.354C35.1095 560.528 34.0508 559.702 33.0677 558.876L31.4796 557.599C30.9502 557.149 30.4966 556.698 30.0429 556.248C29.5891 555.797 29.0599 555.346 28.6062 554.896L27.9256 554.22L27.5475 553.845L27.3961 553.695L27.3205 553.619L27.2451 553.544C27.2451 553.469 27.1694 553.469 27.1694 553.244C27.1694 553.019 27.3963 552.793 27.5475 552.793C27.6232 552.793 27.6986 552.793 27.6986 552.793C27.9254 552.793 28.1524 553.019 28.1524 553.319C28.0011 553.244 27.7744 553.394 27.5475 553.394Z" fill="black"/>
<path d="M203.667 558.725C204.65 556.998 205.633 555.346 206.616 553.618C207.599 551.891 208.582 550.239 209.641 548.512L209.49 549.038C208.658 538 208.128 526.961 207.523 515.923C206.919 504.885 206.238 493.846 205.331 482.883C205.104 480.105 204.877 477.402 204.574 474.623C204.423 473.272 204.272 471.92 204.121 470.568L203.893 468.466L203.667 466.363C203.213 460.807 203.289 455.25 203.213 449.768C203.137 446.99 202.986 444.287 202.684 441.584C202.533 440.232 202.381 438.88 202.23 437.454C202.079 436.102 201.928 434.675 201.852 433.324C201.398 427.767 201.095 422.285 200.869 416.729C199.886 394.652 199.432 372.5 198.978 350.424C198.6 328.347 198.373 306.196 198.373 284.119C198.373 283.894 198.6 283.668 198.827 283.668C199.054 283.668 199.281 283.894 199.281 284.119C199.508 306.196 200.037 328.272 200.566 350.424C201.171 372.5 201.776 394.577 202.835 416.654C202.986 419.432 203.137 422.135 203.289 424.914C203.44 427.692 203.667 430.395 203.893 433.173C203.969 434.525 204.12 435.877 204.272 437.228C204.423 438.58 204.574 439.932 204.725 441.358C205.028 444.137 205.179 446.915 205.255 449.693C205.406 455.25 205.33 460.732 205.784 466.213L206.011 468.241L206.238 470.268C206.389 471.62 206.616 473.046 206.767 474.398C207.07 477.176 207.297 479.88 207.523 482.658C208.431 493.696 209.112 504.735 209.792 515.773C210.473 526.811 211.078 537.849 211.305 548.888L211.305 548.963C211.305 549.113 211.229 549.263 211.153 549.413C210.094 551.065 209.036 552.717 207.902 554.294C206.767 555.946 205.709 557.523 204.574 559.175C204.423 559.4 204.12 559.476 203.893 559.325C203.591 559.175 203.591 558.95 203.667 558.725Z" fill="black"/>
<path d="M198.299 284.491C197.316 283.665 196.408 282.764 195.577 281.862C194.745 280.961 193.989 279.91 193.233 278.934C191.72 276.906 190.359 274.879 188.998 272.776L190.056 273.302C177.957 274.278 165.858 275.104 153.683 276.005L135.534 277.357C129.484 277.808 123.435 278.258 117.385 278.634C105.286 279.384 93.111 280.06 80.936 280.285C68.7611 280.511 56.5861 280.436 44.4868 280.285C44.2599 280.285 44.033 280.06 44.033 279.835C44.033 279.61 44.2599 279.384 44.4868 279.384C56.6617 279.234 68.7611 279.159 80.936 278.709C93.0353 278.333 105.21 277.582 117.309 276.681L153.683 273.903C165.782 273.002 177.881 272.026 190.056 271.125C190.51 271.125 190.888 271.35 191.115 271.65C192.325 273.753 193.611 275.855 194.972 277.883C195.652 278.934 196.333 279.91 197.014 280.961C197.694 281.937 198.375 282.914 199.207 283.815C199.358 284.04 199.358 284.34 199.131 284.491C198.753 284.641 198.45 284.641 198.299 284.491Z" fill="black"/>
</svg>
