<svg width="368" height="369" viewBox="0 0 368 369" fill="none" xmlns="http://www.w3.org/2000/svg">
<path d="M170.818 162.014C157.418 161.737 153.689 161.645 143.788 170.243C124.677 186.853 140.611 230.526 163.129 237.53C193.383 246.938 223.683 214.045 211.342 182.05C206 168.212 192.095 164.919 176.438 162.331" stroke="#231F20" stroke-width="2.4022" stroke-miterlimit="1.5" stroke-linecap="round" stroke-linejoin="round"/>
<path d="M161.472 169.718C167.873 173.08 175.607 175.235 182.791 173.333" stroke="#231F20" stroke-width="2.4022" stroke-miterlimit="1.5" stroke-linecap="round" stroke-linejoin="round"/>
<path d="M81.5288 197.666C86.0416 176.363 95.0205 175.18 103.586 154.255C112.565 132.423 132.643 75.9568 130.064 50.9427" stroke="#231F20" stroke-width="2.4022" stroke-miterlimit="1.5" stroke-linecap="round" stroke-linejoin="round"/>
<path d="M85.2109 197.679C95.2036 170.109 100.269 175.654 110.999 148.581C119.011 128.269 134.07 79.8846 134.852 58.0525" stroke="#231F20" stroke-width="2.4022" stroke-miterlimit="1.5" stroke-linecap="round" stroke-linejoin="round"/>
<path d="M136.279 51.3619C136.97 51.1777 137.385 51.0903 137.937 50.6574C139.135 49.7779 138.307 46.7015 138.214 45.4951C137.892 41.5394 137.523 35.7233 132.043 36.0457C130.523 36.1332 129.694 38.5923 129.372 39.7159C128.451 42.617 126.794 49.2343 130.708 50.8645" stroke="#231F20" stroke-width="2.4022" stroke-miterlimit="1.5" stroke-linecap="round" stroke-linejoin="round"/>
<path d="M129.879 39.4907C132.274 41.2958 133.932 41.595 136.695 40.0616" stroke="#231F20" stroke-width="2.4022" stroke-miterlimit="1.5" stroke-linecap="round" stroke-linejoin="round"/>
<path d="M223.205 306.163C248.339 306.011 287.805 306.223 313.585 311.934C326.935 314.919 328.217 318.706 339.664 326.137" stroke="#231F20" stroke-width="2.40219" stroke-miterlimit="1.5" stroke-linecap="round" stroke-linejoin="round"/>
<path d="M130.129 51.0582C110.554 70.7447 79.6331 81.8509 50.8395 74.985C38.8448 72.0864 30.3123 65.6021 19.4793 59.7518" stroke="#231F20" stroke-width="2.39823" stroke-miterlimit="1.5" stroke-linecap="round" stroke-linejoin="round"/>
<path d="M118.083 61.8125C119.026 73.6912 115.208 93.9738 106.969 97.0571C86.2356 104.857 69.5039 111.464 51.5791 98.8829C43.2719 93.0741 45.3519 89.4212 40.3585 81.6979C36.2589 75.3556 25.1307 64.9214 18.7539 59.8362" stroke="#231F20" stroke-width="2.39823" stroke-miterlimit="1.5" stroke-linecap="round" stroke-linejoin="round"/>
<path d="M117.932 61.6807C104.179 50.5783 86.1628 47.05 81.4928 49.8236C74.5639 53.9304 69.0286 55.8879 61.0812 58.0843C47.4434 61.8632 33.2327 63.4602 18.7411 59.4637" stroke="#231F20" stroke-width="2.39823" stroke-miterlimit="1.5" stroke-linecap="round" stroke-linejoin="round"/>
<path d="M107.915 67.1183C107.832 82.308 106.058 91.817 94.5067 101.623" stroke="#231F20" stroke-width="2.39823" stroke-miterlimit="1.5" stroke-linecap="round" stroke-linejoin="round"/>
<path d="M88.7938 73.8044C85.5302 87.059 85.1462 100.062 71.3175 105.777" stroke="#231F20" stroke-width="2.39823" stroke-miterlimit="1.5" stroke-linecap="round" stroke-linejoin="round"/>
<path d="M73.1459 76.3689C67.0892 85.6234 59.839 94.4975 47.8702 95.6473" stroke="#231F20" stroke-width="2.39823" stroke-miterlimit="1.5" stroke-linecap="round" stroke-linejoin="round"/>
<path d="M61.2505 76.9197C54.3513 79.6704 47.2781 81.1267 39.4926 79.7991" stroke="#231F20" stroke-width="2.39823" stroke-miterlimit="1.5" stroke-linecap="round" stroke-linejoin="round"/>
<path d="M107.29 66.7523C99.5301 61.5413 87.5849 54.1193 78.82 51.5163" stroke="#231F20" stroke-width="2.39823" stroke-miterlimit="1.5" stroke-linecap="round" stroke-linejoin="round"/>
<path d="M88.7284 73.446C80.8502 66.7499 74.217 59.2176 64.2155 57.1574" stroke="#231F20" stroke-width="2.39823" stroke-miterlimit="1.5" stroke-linecap="round" stroke-linejoin="round"/>
<path d="M73.4398 76.3235C66.7765 70.2671 58.2767 64.3503 50.316 60.6465" stroke="#231F20" stroke-width="2.39823" stroke-miterlimit="1.5" stroke-linecap="round" stroke-linejoin="round"/>
<path d="M61.2368 76.5473C53.7956 71.4343 45.8933 65.0795 37.5941 61.7413" stroke="#231F20" stroke-width="2.39823" stroke-miterlimit="1.5" stroke-linecap="round" stroke-linejoin="round"/>
<path d="M222.672 310.759C243.37 309.93 278.901 310.886 300.51 314.037C318.056 316.601 321.926 319.97 337.758 330.014" stroke="#231F20" stroke-width="2.40219" stroke-miterlimit="1.5" stroke-linecap="round" stroke-linejoin="round"/>
<path d="M337.509 330.834C337.784 331.894 338.853 332.709 339.728 333.256C342.082 334.674 346.736 336.39 349.48 335.309C354.451 333.341 354.019 329.613 350.305 327.243C349.19 326.571 343.753 324.851 342.481 324.844C341.169 324.861 340.911 325.235 339.853 326.251" stroke="#231F20" stroke-width="2.40219" stroke-miterlimit="1.5" stroke-linecap="round" stroke-linejoin="round"/>
<path d="M347.97 335.323C348.04 332.608 348.513 330.065 350.593 328.206" stroke="#231F20" stroke-width="2.40219" stroke-miterlimit="1.5" stroke-linecap="round" stroke-linejoin="round"/>
<path d="M174.135 173.163C175.655 159.293 177.312 131.401 175.7 117.425C173.766 100.331 146.827 66.0887 136.789 52.039" stroke="#231F20" stroke-width="2.4022" stroke-miterlimit="1.5" stroke-linecap="round" stroke-linejoin="round"/>
<path d="M169.483 172.932C172.246 156.258 173.12 129.314 169.436 111.428C166.811 98.5253 155.254 85.6176 148.3 74.6625C143.465 67.0597 135.269 58.8721 131.079 50.9193" stroke="#231F20" stroke-width="2.4022" stroke-miterlimit="1.5" stroke-linecap="round" stroke-linejoin="round"/>
<path d="M238.289 305.888C239.084 255.669 189.696 272.911 173.779 288.45C155.833 305.991 156.871 333.381 175.197 347.463C183.101 353.563 228.623 357.67 238.785 339.785C243.372 331.729 239.218 320.054 238.612 310.973" stroke="#231F20" stroke-width="2.40219" stroke-miterlimit="1.5" stroke-linecap="round" stroke-linejoin="round"/>
<path d="M84.7999 185.577C49.1117 180.516 40.7768 198.218 43.1253 225.01C45.0594 247.127 63.2938 271.11 87.1474 268.508C112.613 265.727 126.289 254.582 131.124 230.586C133.335 219.622 132.598 209.058 125.23 199.829C113.625 185.195 107.686 186.485 89.8654 186.485" stroke="#231F20" stroke-width="2.4022" stroke-miterlimit="1.5" stroke-linecap="round" stroke-linejoin="round"/>
<path d="M70.9829 192.273C83.186 199.411 87.2369 201.755 100.591 195.418" stroke="#231F20" stroke-width="2.4022" stroke-miterlimit="1.5" stroke-linecap="round" stroke-linejoin="round"/>
<path d="M225.789 292.686C221.066 303.274 221.662 313.857 226.835 323.988" stroke="#231F20" stroke-width="2.40219" stroke-miterlimit="1.5" stroke-linecap="round" stroke-linejoin="round"/>
</svg>
