<svg width="242" height="689" viewBox="0 0 242 689" fill="none" xmlns="http://www.w3.org/2000/svg">
<path d="M54.2307 398.356C54.6844 431.32 55.2134 464.36 54.306 497.4C53.6254 513.995 51.4324 530.364 50.1468 546.734C49.4663 554.919 49.0886 563.179 49.0886 571.364C49.1642 579.549 49.5423 587.809 50.9791 595.844L51.2058 597.345C51.2815 597.871 51.433 598.322 51.5086 598.847L52.1888 601.851C52.4156 602.827 52.5672 603.878 52.8696 604.854L53.7012 607.783C54.3061 609.735 54.7603 611.762 55.6677 613.414C56.5752 615.066 57.9361 616.493 59.5241 617.47C62.7758 619.497 66.9349 620.098 70.8672 619.722C72.8334 619.572 74.875 619.196 76.7655 618.671C78.7316 618.145 80.6221 617.469 82.437 616.568C84.2519 615.742 86.0668 614.767 87.7305 613.64C88.5623 613.115 89.3943 612.438 90.1505 611.838C90.9067 611.162 91.7385 610.561 92.4191 609.81C93.1753 609.134 93.8561 608.384 94.461 607.633C94.7635 607.258 95.0661 606.882 95.3686 606.431L95.8221 605.831L96.2755 605.23C97.4854 603.578 98.3935 601.851 99.1497 599.974L99.6784 598.547C99.8297 598.096 99.9813 597.571 100.133 597.12L100.359 596.369L100.511 595.618L100.813 594.117C101.04 593.141 101.115 592.089 101.342 591.113C101.493 590.137 101.569 589.086 101.645 588.109C101.947 584.055 101.947 579.999 101.72 575.869C101.342 567.684 100.284 559.424 100.284 551.089C100.284 542.829 100.586 534.569 100.964 526.309C101.342 518.049 101.72 509.865 101.947 501.605C102.174 493.345 102.099 485.16 101.796 476.9C101.267 460.455 100.359 443.935 100.889 427.34C101.116 419.08 101.796 410.82 103.081 402.56L103.536 399.482C103.687 398.431 103.913 397.454 104.14 396.403L104.745 393.324C104.972 392.273 105.274 391.297 105.501 390.321L106.258 387.317C106.484 386.341 106.863 385.29 107.165 384.313L108.073 381.31C108.375 380.334 108.678 379.282 109.056 378.381L111.173 372.524L113.518 366.742C113.896 365.766 114.349 364.865 114.727 363.889L116.013 361.035C116.467 360.059 116.845 359.158 117.299 358.182L118.66 355.404C122.365 347.97 126.373 340.761 130.683 333.627C139.152 319.435 148.378 305.619 156.923 291.577L160.1 286.246L163.2 280.914L169.249 270.101L175.148 259.213C177.115 255.534 179.005 251.929 180.971 248.249C188.608 233.607 195.944 218.814 202.901 203.796C216.815 173.834 229.368 143.273 240.258 112.11C240.333 111.885 240.636 111.735 240.862 111.81C241.089 111.885 241.241 112.186 241.165 112.411C230.351 143.649 217.95 174.285 204.111 204.321C197.23 219.339 189.895 234.207 182.332 248.85C180.442 252.529 178.475 256.134 176.585 259.814L170.687 270.702L164.637 281.514L161.537 286.921L158.361 292.253C149.74 306.37 140.59 320.186 132.12 334.378C127.885 341.437 123.877 348.645 120.172 356.004L118.811 358.783C118.357 359.684 117.979 360.66 117.525 361.561L116.24 364.34C115.786 365.241 115.408 366.217 115.03 367.193L112.685 372.9L110.568 378.682C110.19 379.658 109.888 380.634 109.585 381.611L108.678 384.539C108.375 385.515 108.073 386.491 107.846 387.467L107.09 390.471C106.863 391.447 106.56 392.423 106.334 393.475L105.728 396.478C105.501 397.454 105.35 398.506 105.123 399.482L104.67 402.486C103.384 410.595 102.779 418.78 102.553 427.04C102.023 443.485 103.006 459.93 103.536 476.45C103.838 484.71 103.914 492.97 103.687 501.23C103.46 509.49 103.081 517.749 102.703 526.009C102.325 534.269 102.098 542.454 102.098 550.714C102.098 558.899 103.157 567.084 103.536 575.344C103.762 579.474 103.838 583.679 103.459 587.809C103.384 588.86 103.233 589.911 103.157 590.963C103.006 592.014 102.855 593.065 102.628 594.041L102.325 595.618L102.174 596.369L101.947 597.12C101.796 597.646 101.645 598.171 101.494 598.697L100.889 600.199C100.057 602.151 99.0734 604.103 97.7879 605.831L97.3345 606.507L96.805 607.107C96.5025 607.558 96.1245 607.933 95.8221 608.384C95.0658 609.135 94.385 609.961 93.6288 610.711C92.8726 611.462 92.0413 612.138 91.2095 612.814C90.3777 613.415 89.5455 614.165 88.6381 614.691C86.8988 615.893 85.008 616.944 83.0419 617.845C81.1513 618.746 79.11 619.497 77.0683 620.023C75.0265 620.624 72.9088 620.999 70.7158 621.149C68.5984 621.299 66.4057 621.299 64.2127 620.849C62.0954 620.473 59.9022 619.723 58.0117 618.521C56.1212 617.32 54.5331 615.667 53.4745 613.715C53.172 613.264 52.9448 612.739 52.7936 612.213L52.4915 611.462L52.2648 610.711L51.3572 607.708L50.4496 604.704C50.2228 603.728 49.9956 602.677 49.7687 601.626L49.0886 598.547C49.013 598.021 48.8614 597.495 48.7858 597.045L48.5591 595.468C47.1223 587.283 46.6689 578.948 46.5933 570.613C46.5933 562.353 46.9709 554.018 47.6515 545.833C48.9371 529.313 51.0547 512.944 51.7353 496.574C52.2647 480.129 52.3403 463.609 52.4915 447.089L52.6429 422.309C52.7185 414.049 52.7942 405.789 53.021 397.529C53.021 397.304 53.2476 397.079 53.4745 397.079C54.0038 397.905 54.2307 398.13 54.2307 398.356Z" fill="black"/>
<path d="M240.256 113.085C239.122 111.658 237.685 110.457 236.097 109.406C234.509 108.354 232.845 107.378 231.181 106.552C227.778 104.825 224.3 103.248 220.746 101.821C217.192 100.394 213.562 99.043 209.932 97.8415C206.302 96.565 202.673 95.3634 198.967 94.3121L200.252 93.7863C193.219 106.101 186.338 118.492 179.759 131.032C176.432 137.264 173.256 143.572 170.08 149.955C166.98 156.337 163.955 162.719 161.232 169.252C150.645 195.534 141.344 222.342 130.379 248.548C124.859 261.614 119.036 274.604 112.382 287.144L109.885 291.876C109.054 293.453 108.147 294.954 107.315 296.531C105.576 299.609 103.836 302.763 101.87 305.692C98.0133 311.699 93.8543 317.481 89.5439 323.113C80.9988 334.452 72.1507 345.64 65.2692 357.955C63.53 361.034 61.9421 364.187 60.5053 367.416C59.1441 370.645 57.8587 373.949 56.8756 377.328C55.8926 380.707 55.1361 384.162 54.6823 387.616C54.2286 391.07 54.0019 394.599 54.0775 398.129C54.0775 398.354 53.851 398.579 53.6241 398.579C53.3972 398.579 53.1699 398.354 53.1699 398.129C53.0943 394.599 53.2457 390.995 53.6994 387.466C54.1531 383.936 54.9096 380.407 55.8927 377.028C56.8758 373.574 58.0856 370.27 59.5224 366.966C60.9592 363.662 62.5473 360.508 64.211 357.354C71.0925 344.814 79.9396 333.55 88.3335 322.212C92.5683 316.505 96.7279 310.798 100.509 304.791C102.399 301.787 104.138 298.784 105.878 295.63C106.71 294.053 107.617 292.551 108.449 290.974L110.944 286.244C117.523 273.704 123.27 260.788 128.791 247.722C139.68 221.59 148.906 194.784 159.417 168.352C162.139 161.744 165.089 155.286 168.265 148.903C171.365 142.52 174.617 136.213 177.869 129.905C184.448 117.29 191.254 104.9 198.286 92.5104C198.513 92.0598 199.118 91.8344 199.572 91.9846C203.277 93.111 206.983 94.312 210.612 95.6636C214.242 97.0152 217.872 98.367 221.426 99.9439C224.98 101.521 228.459 103.173 231.862 105.05C233.526 106.026 235.19 107.078 236.778 108.279C238.366 109.481 239.878 110.757 240.937 112.484C241.088 112.709 241.012 113.01 240.785 113.16C240.71 113.386 240.483 113.31 240.256 113.085Z" fill="black"/>
<path d="M54.3061 384.687L52.7937 374.7L51.8108 369.744L51.2813 367.266C51.1301 366.44 50.9795 365.614 50.7526 364.788C49.1646 358.255 47.4251 351.723 45.1565 345.415C40.8462 332.65 35.4016 320.335 29.6545 308.095C23.9831 295.855 18.2358 283.54 13.4717 270.85C12.3375 267.621 11.1275 264.467 10.0689 261.238L8.55649 256.357C8.02716 254.705 7.49827 253.128 7.12017 251.476L5.8345 246.521C5.4564 244.869 5.0783 243.217 4.70021 241.565L4.17073 239.086L3.71731 236.608C3.41483 234.956 3.1122 233.304 2.80973 231.577C1.82668 224.894 1.07019 218.137 0.616476 211.378C0.23838 204.62 -0.0639495 197.862 0.0116697 191.028C0.0116697 187.649 0.0874366 184.27 0.163056 180.891C0.314294 177.512 0.389913 174.133 0.541152 170.754C0.843629 163.996 1.29734 157.238 1.67544 150.48C2.65849 137.038 3.33906 123.522 4.70021 110.006C5.38078 103.248 6.13697 96.5651 7.34688 89.8821C7.95183 86.503 8.6327 83.1984 9.54013 79.8945C9.99385 78.2425 10.5226 76.5905 11.2032 75.0136C11.3544 74.6381 11.5058 74.1879 11.7326 73.8124L12.0354 73.2119L12.1107 73.0615C12.1107 73.0615 12.2621 72.9115 12.2621 72.8364C12.4134 72.6111 12.5646 72.536 12.6402 72.4609C13.0939 72.1606 13.4722 71.935 13.9259 71.7848C14.304 71.5596 14.7574 71.4092 15.1355 71.2591C18.3871 69.9825 21.5634 68.9317 24.8907 67.9555C28.1423 66.9793 31.3935 66.0029 34.6451 65.0267C36.2331 64.5762 37.7459 63.9008 39.2583 63.225L43.8708 61.1218C45.4588 60.446 47.0467 59.7705 48.6347 59.1698C50.2983 58.5691 51.9625 58.1184 53.7774 57.8931C54.2311 57.8931 54.6847 57.8183 55.1384 57.8183L55.8185 57.8183L55.9699 57.8183C56.0455 57.8183 56.121 57.818 56.1966 57.8931C56.3478 57.9682 56.4995 57.9683 56.6508 58.0434C57.785 58.5691 58.3142 59.4704 58.7679 60.2213C59.6754 61.8733 60.2047 63.525 60.6584 65.177C61.5659 68.481 62.0952 71.8604 62.5489 75.2394C62.7758 76.9665 62.9271 78.6184 63.0784 80.3454C63.154 81.1714 63.1537 82.1476 63.1537 82.9736L63.0784 85.5263C63.0028 88.9053 62.8515 92.2844 62.7003 95.6635C62.0197 109.18 60.6587 122.622 59.4488 136.063C58.8439 142.821 58.2383 149.504 57.709 156.262C57.2553 163.02 56.7262 169.778 56.1213 176.461C54.987 189.902 53.7016 203.344 53.2479 216.86C52.8698 230.301 53.2477 243.817 55.7432 257.108C58.163 270.324 62.2466 283.24 66.8593 295.93C71.4721 308.62 76.5386 321.161 80.8489 334.001C80.9245 334.226 80.773 334.527 80.5461 334.602C80.3193 334.677 80.0169 334.527 79.9413 334.302C75.631 321.536 70.4888 308.996 65.8004 296.305C61.112 283.615 56.8773 270.7 54.4575 257.334C51.9621 243.968 51.4327 230.376 51.8108 216.86C52.1889 203.344 53.3993 189.827 54.5336 176.386C55.1385 169.628 55.6676 162.945 56.1213 156.187C56.575 149.429 57.1801 142.67 57.785 135.987C58.9949 122.546 60.3559 109.105 61.0365 95.6635C61.1878 92.2844 61.339 88.9058 61.4146 85.6018L61.4899 83.0484C61.4899 82.2224 61.4902 81.3966 61.4146 80.5706C61.339 78.9186 61.1124 77.2669 60.9612 75.6149C60.5075 72.3109 59.9779 69.0065 59.146 65.7776C58.6923 64.2007 58.1631 62.6238 57.4069 61.2722C57.0289 60.5964 56.575 59.9961 56.1213 59.8459C56.0457 59.8459 56.0455 59.8459 55.9699 59.8459L55.8946 59.8459L55.7432 59.8459L55.2137 59.8459C54.8356 59.8459 54.4575 59.9207 54.0794 59.9207C52.4914 60.0709 50.9033 60.5962 49.3909 61.1218C47.8029 61.6475 46.2908 62.3233 44.7784 62.9991L40.1659 65.1022C38.6535 65.778 36.9896 66.5289 35.326 66.9795C32.0744 67.9557 28.8224 68.9314 25.5708 69.9076C22.3192 70.9588 19.0679 71.9353 16.0431 73.2119C15.665 73.362 15.2869 73.5124 14.9088 73.7376C14.5307 73.8878 14.1528 74.1125 13.9259 74.2627C13.9259 74.2627 13.7742 74.3382 13.8498 74.3382C13.8498 74.2631 13.8498 74.3382 13.8498 74.3382L13.7745 74.4885L13.4717 75.0136C13.2449 75.389 13.0942 75.7645 12.943 76.1399C12.338 77.6418 11.8083 79.2188 11.3546 80.7957C10.4471 84.0246 9.84231 87.329 9.23736 90.633C8.10307 97.241 7.34659 103.923 6.66601 110.682C5.38049 124.123 4.62474 137.565 3.71731 151.081C3.26359 157.839 2.8855 164.522 2.58302 171.28C2.43178 174.659 2.35616 178.038 2.20492 181.417C2.1293 184.796 2.05354 188.175 2.05354 191.554C1.97792 198.312 2.28025 204.996 2.65834 211.754C3.11206 218.437 3.86854 225.12 4.85159 231.803C5.15407 233.455 5.4567 235.107 5.75917 236.759L6.21259 239.237L6.74208 241.715C7.12017 243.366 7.42265 245.018 7.87636 246.595L9.16204 251.476C9.54013 253.128 10.069 254.705 10.5984 256.282L12.1107 261.088C13.1694 264.242 14.3793 267.395 15.5136 270.624C20.2776 283.24 26.025 295.48 31.6964 307.719C37.3679 319.959 42.8123 332.424 47.047 345.339C49.1643 351.797 50.8282 358.405 52.265 365.013C52.4918 365.839 52.6428 366.665 52.7184 367.491L53.1718 369.97L54.0041 375C54.4578 378.379 54.7603 381.759 55.1384 385.063C55.1384 385.288 54.9867 385.588 54.6842 385.588C54.533 385.138 54.3061 384.987 54.3061 384.687Z" fill="black"/>
<path d="M70.4142 306.294C76.6907 287.971 83.8742 270.025 89.9995 251.778C96.2003 233.531 100.813 214.758 104.745 195.911C108.678 177.063 112.005 157.99 115.71 138.992C116.618 134.261 117.601 129.531 118.508 124.8C118.735 123.599 118.962 122.472 119.189 121.271L119.718 117.742L120.777 110.608L124.861 81.9233C126.298 72.3868 127.659 62.7751 129.473 53.2386C129.927 50.8357 130.381 48.5079 131.137 46.105C131.213 45.8046 131.364 45.5049 131.439 45.2045C131.515 45.0543 131.515 44.9037 131.591 44.7535L131.817 44.2277C131.893 44.0776 132.044 43.9277 132.12 43.7775C132.271 43.6273 132.347 43.4774 132.498 43.3272C132.725 43.102 133.027 42.8013 133.33 42.6511C134.388 41.9002 135.523 41.2992 136.657 40.8487C141.27 38.8963 146.034 37.6949 150.798 36.7187C153.218 36.1931 155.638 35.8179 158.058 35.5175C160.478 35.2172 162.973 34.9918 165.468 34.9918C166.678 34.9918 167.964 35.0671 169.249 35.2924C169.854 35.3675 170.535 35.5929 171.216 35.8182C171.367 35.8933 171.519 35.9682 171.745 36.0433C171.897 36.1184 172.048 36.1931 172.199 36.3432C172.35 36.4934 172.501 36.644 172.652 36.7942L172.955 37.1697C174.467 39.3473 175.148 41.8248 175.602 44.2277C176.434 49.1086 176.66 53.9895 176.358 58.8704C175.98 63.7513 175.223 68.5572 174.165 73.2879C172.047 82.7493 169.023 91.9856 166.149 101.222C164.712 105.802 163.351 110.458 162.142 115.113L161.309 118.643L160.629 122.172C160.402 123.374 160.176 124.499 160.024 125.701C159.797 126.902 159.646 128.104 159.495 129.306C156.546 148.379 155.563 167.676 153.067 186.9C153.067 187.125 152.764 187.35 152.538 187.275C152.311 187.275 152.084 186.975 152.159 186.75C154.504 167.602 155.411 148.303 158.209 129.08C158.36 127.879 158.587 126.677 158.739 125.476C158.965 124.274 159.117 123.073 159.343 121.872L160.024 118.267L160.856 114.738C161.99 110.007 163.351 105.352 164.788 100.771C167.586 91.5353 170.535 82.2988 172.577 72.9125C173.636 68.2568 174.316 63.4515 174.694 58.7208C174.997 53.9901 174.77 49.184 173.938 44.5284C173.484 42.2006 172.804 39.9479 171.594 38.1457L171.367 37.8451C171.292 37.77 171.215 37.695 171.14 37.6199C171.064 37.5448 170.989 37.4696 170.913 37.4696C170.838 37.3945 170.687 37.32 170.611 37.32C170.157 37.1698 169.628 37.0192 169.023 36.869C167.888 36.6438 166.754 36.6439 165.544 36.6439C163.2 36.6439 160.78 36.8693 158.36 37.1697C155.941 37.47 153.596 37.9203 151.252 38.3708C146.563 39.347 141.799 40.5487 137.489 42.426C136.43 42.8766 135.371 43.4023 134.464 44.0781C134.237 44.2283 134.086 44.3779 133.859 44.6032C133.784 44.6783 133.708 44.754 133.633 44.8291C133.557 44.9041 133.481 44.9788 133.481 45.129L133.33 45.4296C133.254 45.5047 133.255 45.6549 133.179 45.8051C133.103 46.1054 132.952 46.3304 132.876 46.6308C132.196 48.8835 131.742 51.2862 131.289 53.6141C129.549 63.0755 128.188 72.6124 126.751 82.224L122.743 110.909L121.685 118.117L121.155 121.721C120.928 122.923 120.701 124.124 120.474 125.325C119.491 130.056 118.584 134.787 117.677 139.518C114.047 158.516 110.795 177.513 106.863 196.436C102.93 215.359 98.3932 234.207 92.1167 252.604C85.9158 270.926 78.6563 288.873 71.3211 306.745C71.2455 306.97 70.9431 307.12 70.7163 306.97C70.4894 306.744 70.3386 306.519 70.4142 306.294Z" fill="black"/>
<path d="M93.251 243.966C92.4192 238.784 91.6635 233.528 91.0585 228.347L90.6043 224.442L90.2262 220.538C89.9238 217.91 89.7725 215.282 89.47 212.653C88.6382 202.141 88.1851 191.628 88.1851 181.04C88.1851 170.452 88.7141 159.94 89.7728 149.427C90.8315 138.914 92.5709 128.477 94.4614 118.114C96.3519 107.752 98.4691 97.4645 100.36 87.102C102.25 76.7395 103.989 66.377 105.123 55.9394C105.426 53.3112 105.653 50.7579 105.804 48.1297C105.956 46.8532 105.955 45.5014 106.031 44.2248L106.106 42.2728L106.182 41.2968C106.182 41.2217 106.182 41.1467 106.182 41.0716L106.182 40.9961C106.182 40.921 106.182 40.8464 106.106 40.6962C105.955 40.3207 105.577 39.87 105.123 39.4195C104.67 39.044 104.216 38.6686 103.687 38.2931C102.628 37.5422 101.494 36.9411 100.36 36.3403C98.091 35.1389 95.6709 34.013 93.251 33.0368C88.4114 31.0094 83.4208 29.2069 78.4299 27.4798C73.439 25.7527 68.3722 24.1007 63.3813 22.5989L64.1375 22.299C62.4738 25.0023 60.9614 27.8556 59.6003 30.7841C58.2391 33.7126 57.1051 36.7162 56.1221 39.7949C55.139 42.8737 54.3828 45.9519 53.8535 49.1057L53.4754 51.5088L53.2487 53.9118L53.1726 55.113L53.1726 56.3149L53.0973 58.7179C53.0973 58.9432 52.8707 59.1682 52.6439 59.1682C52.417 59.1682 52.1897 58.9432 52.1897 58.7179L52.1897 56.2393L52.1897 55.0382L52.2658 53.837L52.4925 51.434L52.8706 49.0309C53.3999 45.802 54.08 42.6481 55.0631 39.4943C56.0462 36.4156 57.1804 33.3367 58.466 30.3331C59.8271 27.3295 61.2639 24.4763 63.0032 21.6229C63.1544 21.3976 63.4569 21.2472 63.7594 21.3222C68.8259 22.8241 73.8928 24.4015 78.9594 26.0535C84.0259 27.7055 89.0166 29.5075 93.9319 31.535C96.4274 32.5863 98.8469 33.6371 101.191 34.8385C102.401 35.4393 103.536 36.1152 104.67 36.8661C105.275 37.2416 105.804 37.6923 106.334 38.1428C106.863 38.6684 107.392 39.1944 107.77 39.9453C107.846 40.1705 107.921 40.3954 107.997 40.6206C107.997 40.7708 107.997 40.8459 107.997 40.9961C107.997 41.1463 107.997 41.1466 107.997 41.2968L107.922 42.2728L107.846 44.2248C107.771 45.5765 107.77 46.8536 107.619 48.2052C107.392 50.8334 107.241 53.4616 106.939 56.0897C105.88 66.6024 104.216 77.0394 102.325 87.4019C100.511 97.7644 98.3938 108.127 96.5033 118.415C94.6128 128.777 92.9487 139.14 91.89 149.577C90.8314 160.015 90.3776 170.528 90.3776 180.965C90.3776 201.99 92.6467 222.866 94.2347 243.816C94.2347 244.041 94.083 244.266 93.7805 244.341C93.478 244.416 93.251 244.191 93.251 243.966Z" fill="black"/>
<path d="M136.052 41.5247C136.052 38.5211 136.204 35.6675 136.204 32.739C136.204 29.8105 136.128 26.8818 135.901 23.9533C135.674 21.0247 135.296 18.0965 134.767 15.2431C134.237 12.3896 133.632 9.46127 132.725 6.75801L133.481 7.43339C127.658 6.08176 121.685 4.8809 115.786 3.90472C109.888 2.85346 103.913 1.95208 97.9394 1.72681C96.427 1.65172 94.9907 1.65143 93.4783 1.80161C92.0415 1.95179 90.5288 2.10241 89.3945 2.62804C88.2602 3.15367 87.277 4.20509 86.5964 5.40653C85.8402 6.60798 85.311 7.95946 84.8573 9.38618C83.9498 12.1645 83.4205 15.0928 82.9668 18.0964C82.513 21.0249 82.2859 24.0288 81.9078 27.0324C81.9078 27.2577 81.6815 27.483 81.379 27.4079C81.1522 27.4079 80.9253 27.1825 81.0009 26.8821C81.4546 20.9499 81.757 14.8673 83.4962 8.93519C83.95 7.43339 84.4789 6.00726 85.3107 4.65563C86.0669 3.304 87.2016 1.95193 88.7897 1.20103C90.3777 0.450127 91.9659 0.300386 93.4783 0.150205C95.0663 2.4597e-05 96.5784 -0.000122061 98.0908 -0.00012206C104.216 0.150059 110.266 0.97576 116.24 1.95193C122.214 2.92811 128.187 4.1297 134.086 5.48133C134.464 5.55642 134.766 5.85708 134.842 6.15744C135.75 9.08596 136.431 12.0139 136.96 14.9424C137.489 17.871 137.867 20.8749 138.17 23.8785C138.321 25.3803 138.321 26.8821 138.396 28.3839C138.396 29.8857 138.472 31.3875 138.321 32.8893C138.17 35.8929 137.716 38.8964 136.96 41.7498C136.884 41.9751 136.657 42.1256 136.354 42.0505C136.203 41.9754 136.052 41.75 136.052 41.5247Z" fill="black"/>
<path d="M60.4304 619.871C60.506 622.274 60.2789 624.602 60.1276 626.929C59.9008 629.257 59.9006 631.585 59.9763 633.988C60.1275 638.719 60.506 643.525 60.4304 648.33L60.3543 650.133L60.2037 651.935C60.1281 653.137 59.9764 654.338 59.7496 655.54C59.2959 657.942 58.7664 660.27 58.0859 662.598C56.7248 667.178 55.2129 671.684 54.3812 676.34C54.3055 676.565 54.0786 676.79 53.8517 676.715C53.6249 676.64 53.4736 676.415 53.4736 676.19C54.0786 671.384 55.4393 666.728 56.5736 662.147C57.1785 659.82 57.6325 657.567 58.0106 655.239C58.1618 654.112 58.3133 652.911 58.3133 651.785L58.3886 650.058L58.3886 648.256C58.4642 643.525 58.0104 638.794 57.8592 633.988C57.7836 631.585 57.784 629.182 57.9352 626.704C58.0865 624.301 58.5396 621.823 59.5982 619.571C59.6738 619.345 59.9768 619.195 60.2037 619.346C60.3549 619.571 60.4304 619.721 60.4304 619.871Z" fill="black"/>
<path d="M68.0696 622.501C68.5234 624.153 68.5238 625.729 68.5238 627.381C68.5238 628.958 68.5235 630.61 68.5992 632.262C68.6748 635.491 68.7501 638.795 68.6745 642.099C68.5989 643.751 68.4479 645.403 68.221 647.055C67.9942 648.707 67.6159 650.284 67.3134 651.936C66.6328 655.09 65.8764 658.243 65.6495 661.472C65.6495 661.697 65.4233 661.923 65.1208 661.923C64.8939 661.923 64.6666 661.697 64.6666 661.472C64.591 658.168 65.1962 654.864 65.7256 651.636C66.0281 650.059 66.2545 648.406 66.4058 646.829C66.557 645.253 66.6332 643.676 66.6332 642.024C66.7089 638.795 66.4814 635.566 66.4058 632.337C66.3302 630.685 66.3305 629.033 66.3305 627.381C66.3305 625.729 66.4814 624.077 67.162 622.501C67.2376 622.275 67.5404 622.125 67.8429 622.2C67.9185 622.2 67.994 622.35 68.0696 622.501Z" fill="black"/>
<path d="M73.2864 621.599C73.5889 622.951 73.8158 624.303 74.0426 625.729C74.2695 627.081 74.4209 628.433 74.5722 629.859C74.8747 632.638 75.3282 635.416 75.5551 638.194C75.782 640.973 75.8573 643.901 75.6304 646.755C75.4036 649.608 75.0255 652.387 74.4961 655.165C73.513 660.722 72.2274 666.128 71.8493 671.61C71.4712 677.091 72.076 682.723 72.076 688.28C72.076 688.505 71.8494 688.731 71.6225 688.731C71.3957 688.731 71.1691 688.505 71.1691 688.28C70.8666 682.723 70.1102 677.167 70.2615 671.46C70.4883 665.753 71.6983 660.271 72.5302 654.79C72.9839 652.086 73.3616 649.308 73.5885 646.605C73.8153 643.901 73.6647 641.123 73.4378 638.42C73.2109 635.642 72.7569 632.938 72.3788 630.16C72.0007 627.382 71.8494 624.528 72.3788 621.674C72.4544 621.449 72.6814 621.224 72.9083 621.299C73.1352 621.224 73.2864 621.374 73.2864 621.599Z" fill="black"/>
<path d="M84.1752 618.446C84.3264 619.647 84.4026 620.924 84.4026 622.126C84.4026 623.327 84.4022 624.528 84.3266 625.73L84.2512 629.334L84.2512 632.938C84.4025 637.744 84.7804 642.625 85.2342 647.431C85.6879 652.237 86.2926 657.118 86.8219 661.924C87.3513 666.805 87.8808 671.61 88.1077 676.491C88.1077 676.716 87.9567 676.941 87.6542 677.017C87.4274 677.017 87.2003 676.866 87.1247 676.641C86.5197 671.835 85.8394 667.03 85.1588 662.149C84.4782 657.343 83.7219 652.537 83.1169 647.656C82.5875 642.776 82.1338 637.895 81.9826 633.014L81.9065 629.334L81.9826 625.655C82.0582 624.454 82.1334 623.177 82.2846 621.975C82.5115 620.774 82.7388 619.573 83.1169 618.371C83.1925 618.146 83.4949 617.995 83.7217 618.07C84.0242 618.07 84.0995 618.221 84.1752 618.446Z" fill="black"/>
<path d="M91.0583 614.165C91.4364 614.916 91.5872 615.667 91.7385 616.343C91.8897 617.094 91.9657 617.845 92.0413 618.596L92.4194 623.101C92.6463 626.105 92.8735 629.109 93.1004 632.112C93.2516 635.116 93.4782 638.119 93.5538 641.123C93.6294 644.127 93.7048 647.13 93.6291 650.134C93.6291 650.359 93.4026 650.584 93.1757 650.584C92.9488 650.584 92.7222 650.359 92.7222 650.134C92.4953 647.13 92.2685 644.126 91.966 641.198C91.7391 638.194 91.3608 635.266 91.0583 632.263C90.7558 629.259 90.4531 626.255 90.1506 623.326L89.7725 618.821C89.6212 617.319 89.6215 615.818 90.0753 614.241C90.1509 613.94 90.4533 613.79 90.6802 613.865C90.907 613.94 90.9827 614.015 91.0583 614.165Z" fill="black"/>
<path d="M95.292 608.984C96.4264 611.837 96.9562 614.84 97.2587 617.919C97.4856 620.923 97.6366 624.002 97.7122 627.005C97.8635 633.013 97.788 639.019 98.2417 644.951C98.6199 650.884 99.6028 656.816 100.586 662.748C101.569 668.68 102.477 674.687 102.553 680.77C102.553 680.995 102.325 681.221 102.098 681.221C101.872 681.221 101.645 680.995 101.645 680.77C101.191 674.837 100.132 668.906 98.998 663.049C97.8636 657.116 96.729 651.184 96.1996 645.177C95.6702 639.095 95.7456 633.087 95.5187 627.08C95.4431 624.076 95.2924 621.073 94.9899 618.145C94.6874 615.216 94.4599 612.212 94.3843 609.209C94.3843 608.983 94.6116 608.758 94.8385 608.683C95.0654 608.683 95.2163 608.758 95.292 608.984Z" fill="black"/>
<path d="M84.402 644.128C84.5532 645.855 84.2501 647.507 83.7964 649.084L82.3601 653.739C81.4526 656.818 80.6209 659.972 80.2428 663.051C79.8647 666.205 80.1668 669.359 80.5449 672.588C80.8473 675.816 81.3015 679.12 80.999 682.424C80.999 682.649 80.772 682.874 80.4695 682.874C80.2427 682.874 80.0154 682.649 80.0154 682.424C79.9397 679.195 79.3348 676.042 78.8811 672.813C78.3517 669.584 77.8984 666.28 78.2009 662.901C78.5034 659.522 79.2593 656.293 80.1668 653.139L81.5278 648.408C81.9815 646.831 82.5109 645.33 83.4183 643.903C83.5695 643.678 83.8723 643.602 84.0992 643.753C84.326 643.828 84.402 643.978 84.402 644.128Z" fill="black"/>
<path d="M91.9647 628.281C92.116 629.707 91.8887 630.984 91.5106 632.26C91.1326 633.537 90.8303 634.813 90.5278 636.09C89.9985 638.643 89.6203 641.196 89.6203 643.749C89.6203 646.302 89.8472 648.93 89.9984 651.634C90.1496 654.262 90.3763 656.965 90.2251 659.668C90.2251 659.894 89.9988 660.119 89.6964 660.119C89.4695 660.119 89.2423 659.894 89.2423 659.668C89.091 657.04 88.7131 654.412 88.2594 651.784C87.8814 649.156 87.5036 646.527 87.428 643.749C87.3524 641.046 87.6548 638.268 88.1841 635.639C88.4866 634.288 88.7884 633.011 89.0909 631.735C89.4689 630.458 89.9232 629.181 90.8306 628.055C90.9818 627.83 91.3594 627.83 91.5106 627.98C91.8131 628.055 91.8891 628.206 91.9647 628.281Z" fill="black"/>
<path d="M97.1831 636.466C98.0906 637.517 98.5441 638.719 98.9222 639.921C99.3003 641.122 99.6789 642.323 100.133 643.525C100.964 645.928 101.72 648.406 102.476 650.884C102.855 652.16 103.157 653.362 103.535 654.638C103.838 655.915 104.064 657.191 104.216 658.468C104.518 661.021 104.745 663.574 104.896 666.127C104.896 666.352 104.746 666.578 104.443 666.653C104.216 666.653 103.989 666.503 103.914 666.278C103.384 663.724 103.082 661.246 102.553 658.768C102.326 657.567 102.023 656.29 101.645 655.089C101.267 653.887 100.889 652.686 100.511 651.484C99.6789 649.081 98.8472 646.678 98.0154 644.2C97.6373 642.999 97.1831 641.798 96.805 640.521C96.4269 639.32 96.1248 638.043 96.3516 636.616C96.3516 636.316 96.654 636.166 96.9564 636.166C97.032 636.316 97.1075 636.391 97.1831 636.466Z" fill="black"/>
<path d="M73.4394 625.204C74.2712 625.73 74.7243 626.406 75.1024 627.157L76.1614 629.41C76.8419 630.911 77.5225 632.488 78.0518 634.065C78.5812 635.641 79.035 637.294 79.3375 639.021C79.5643 640.748 79.6401 642.4 79.4889 644.127C79.4889 644.352 79.2619 644.577 78.9594 644.577C78.7325 644.577 78.5809 644.352 78.5052 644.127C78.354 642.475 78.0518 640.898 77.6737 639.396C77.2956 637.82 76.7666 636.317 76.086 634.816C75.4811 633.314 74.8001 631.812 74.1195 630.31L73.0613 628.057C72.6832 627.306 72.4559 626.481 72.6071 625.505C72.6828 625.204 72.9855 624.979 73.288 625.054C73.288 625.129 73.3638 625.129 73.4394 625.204Z" fill="black"/>
<path d="M68.825 639.095C69.5056 639.696 69.7327 640.522 69.884 641.273C69.9596 642.024 70.0351 642.85 70.1107 643.6C70.1863 645.177 70.1107 646.68 70.1107 648.181C69.9594 651.185 69.7323 654.113 69.8079 657.117C69.8079 657.342 69.5813 657.568 69.3545 657.568C69.1276 657.568 68.9011 657.418 68.9011 657.192C68.1449 654.189 68.1445 651.109 68.0688 648.106C68.0688 646.604 67.9931 645.103 67.9175 643.676C67.8418 642.925 67.7664 642.249 67.6907 641.498C67.6151 641.123 67.6151 640.747 67.6907 640.446C67.6907 640.071 67.7667 639.696 67.9935 639.245C68.1447 638.945 68.4472 638.87 68.7497 639.02C68.7497 639.02 68.7494 639.095 68.825 639.095Z" fill="black"/>
<path d="M71.547 668.383C71.6982 669.434 71.3956 670.26 71.0176 671.011L69.8834 673.339C69.1272 674.916 68.3708 676.493 67.6903 678.07C67.0097 679.647 66.3292 681.223 65.7999 682.875C65.195 684.527 64.7418 686.18 64.3637 687.832C64.2881 688.057 64.0607 688.207 63.7582 688.207C63.5314 688.132 63.3801 687.981 63.3801 687.756C63.4557 685.954 63.7582 684.227 64.1363 682.5C64.5143 680.773 65.1197 679.046 65.7246 677.394C66.3295 675.742 67.0102 674.09 67.7663 672.513L68.9005 670.11C69.2786 669.359 69.7321 668.608 70.6395 668.008C70.8663 667.857 71.2444 667.933 71.3956 668.158C71.4712 668.233 71.547 668.308 71.547 668.383Z" fill="black"/>
<path d="M59.9023 652.84C60.4316 653.816 60.5831 654.717 60.5831 655.694C60.5831 656.67 60.6584 657.571 60.6584 658.547C60.7341 660.424 60.8095 662.301 60.8851 664.179L61.1879 669.885C61.2635 671.762 61.339 673.715 61.4146 675.593C61.4146 675.818 61.1881 676.043 60.9612 676.043C60.7344 676.043 60.5071 675.893 60.5071 675.667C60.129 673.79 59.902 671.913 59.5995 670.036C59.297 668.158 59.0706 666.281 58.9194 664.329C58.7681 662.452 58.5408 660.499 58.4652 658.622C58.3896 657.646 58.3899 656.669 58.3899 655.768C58.3899 654.792 58.4654 653.816 58.9947 652.915C59.1459 652.69 59.4484 652.54 59.7509 652.69C59.7509 652.69 59.8266 652.765 59.9023 652.84Z" fill="black"/>
<path d="M59.3728 629.109C59.524 630.311 59.297 631.437 58.8433 632.488L57.6336 635.642C56.8774 637.745 55.9698 639.772 55.2136 641.8C54.4574 643.827 53.7016 645.93 53.021 648.032C52.3404 650.135 51.8106 652.237 51.4325 654.415C51.3569 654.64 51.1299 654.866 50.903 654.791C50.6761 654.715 50.5249 654.565 50.5249 654.34C50.6005 652.087 50.9788 649.835 51.4325 647.657C51.8862 645.479 52.5671 643.301 53.2477 641.199C53.9283 639.096 54.6845 636.994 55.5164 634.891L56.6507 631.812C56.8019 631.287 57.0284 630.761 57.3308 630.31C57.6333 629.86 57.9361 629.334 58.3898 628.959C58.6167 628.734 58.9192 628.734 59.1461 628.959C59.2973 628.884 59.3728 628.959 59.3728 629.109Z" fill="black"/>
<path d="M206.379 95.8174C204.791 99.1214 203.052 102.426 201.388 105.655L196.322 115.491L186.189 135.09C179.458 148.155 172.955 161.372 167.057 174.813C155.336 201.695 145.58 229.554 134.086 256.661C128.339 270.253 122.138 283.619 115.181 296.61C111.626 303.067 107.695 309.375 103.535 315.457C99.3763 321.539 94.9898 327.472 90.6038 333.404C86.2178 339.336 81.8318 345.193 77.7483 351.275C73.6648 357.358 69.8838 363.665 66.7833 370.273C66.4052 371.099 66.0271 371.925 65.649 372.751C65.2709 373.577 64.8933 374.404 64.5908 375.23C63.9102 376.957 63.2292 378.609 62.6242 380.336C61.3386 383.79 60.4315 387.319 59.524 390.848C57.8604 397.982 57.0286 405.265 56.8773 412.549C56.8773 412.774 56.6508 413 56.4239 413C56.197 413 55.9697 412.774 55.9697 412.549C56.121 405.19 56.877 397.831 58.4651 390.548C59.2969 386.943 60.28 383.339 61.4899 379.885C62.0949 378.158 62.7759 376.431 63.4565 374.704C63.8346 373.878 64.2122 372.976 64.5147 372.15C64.8928 371.324 65.2709 370.424 65.649 369.598C71.8499 356.157 80.6978 344.142 89.3942 332.278C93.7802 326.346 98.0906 320.413 102.25 314.331C106.409 308.248 110.266 302.016 113.744 295.558C120.701 282.643 126.826 269.277 132.498 255.685C143.841 228.578 153.52 200.794 165.242 173.686C171.14 160.17 177.568 146.879 184.298 133.814C187.701 127.281 191.104 120.748 194.734 114.29L200.103 104.678C201.918 101.524 203.733 98.2958 205.623 95.142C205.775 94.9167 206.077 94.8415 206.303 94.9917C206.455 95.3671 206.531 95.6672 206.379 95.8174Z" fill="black"/>
<path d="M214.849 99.3433C211.597 106.477 208.648 113.686 205.774 120.894C202.901 128.178 200.027 135.462 196.775 142.595C195.187 146.2 193.448 149.729 191.633 153.258C189.818 156.787 187.928 160.166 185.962 163.621C182.029 170.454 178.022 177.137 174.014 183.82C165.998 197.261 158.36 210.853 152.764 225.421C147.092 239.913 142.858 255.006 137.413 269.724C134.691 277.083 131.666 284.367 128.036 291.35C124.406 298.333 120.247 305.016 115.937 311.549C107.316 324.69 98.0151 337.305 89.5457 350.446C81.0762 363.587 73.3625 377.253 68.2959 391.971C65.8004 399.33 63.9105 406.914 62.8518 414.649C61.7931 422.383 61.566 430.192 62.1709 437.927C62.1709 438.152 62.02 438.377 61.7175 438.452C61.4907 438.452 61.2636 438.302 61.188 438.002C60.5074 430.192 60.7345 422.308 61.7175 414.498C62.7006 406.689 64.5155 399.03 67.0109 391.596C69.5064 384.162 72.6823 376.953 76.3121 369.97C79.8663 362.986 83.9499 356.228 88.1846 349.62C96.6541 336.404 105.88 323.714 114.5 310.648C118.735 304.115 122.894 297.432 126.448 290.523C130.002 283.615 133.027 276.406 135.674 269.123C141.043 254.48 145.202 239.387 150.873 224.744C156.469 210.027 164.183 196.21 172.199 182.769C176.206 176.01 180.214 169.327 184.071 162.494C185.962 159.115 187.927 155.662 189.667 152.207C191.406 148.753 193.145 145.224 194.733 141.695C197.909 134.561 200.859 127.352 203.884 120.144C205.472 116.539 206.984 112.935 208.648 109.406C210.311 105.877 212.051 102.347 213.941 98.8931C214.092 98.6678 214.319 98.5926 214.546 98.7428C214.848 98.8179 215 99.1181 214.849 99.3433Z" fill="black"/>
<path d="M50.8375 60.445C51.1315 61.8718 51.4255 63.3731 51.7194 64.8749L52.16 67.0529C52.307 67.8038 52.4539 68.5547 52.5274 69.3056L53.1158 73.7362L53.4093 75.9889C53.4828 76.7398 53.5564 77.4907 53.5564 78.2417C53.7769 81.2453 53.9973 84.2489 53.9238 87.2525L53.9238 91.758C53.9238 93.2598 53.8502 94.7616 53.7767 96.2634C53.2624 108.278 51.7928 120.142 50.1027 131.931C48.4127 143.721 46.5021 155.509 45.1795 167.374L44.6657 171.804L44.2983 176.235C44.0044 179.163 43.8568 182.167 43.7099 185.095L43.5635 187.348L43.4896 189.601L43.4164 194.031C43.4164 195.533 43.3425 197.035 43.3425 198.461L43.4164 202.892C43.7103 226.696 47.017 250.349 52.7484 273.477C58.4064 296.605 66.1949 319.207 74.8655 341.434C74.939 341.659 74.8652 341.96 74.5713 342.035C74.3509 342.11 74.0571 342.034 73.9836 341.734C65.0926 319.582 57.0101 297.056 51.1317 273.853C45.2534 250.65 41.7265 226.846 41.3591 202.892L41.2852 198.387C41.2117 196.885 41.3591 195.383 41.3591 193.881L41.4323 189.376L41.5055 187.123L41.6526 184.87C41.7995 181.867 41.9464 178.863 42.2403 175.934L42.6077 171.429L43.1222 166.998C44.4448 155.134 46.3554 143.345 48.0455 131.556C49.7355 119.767 51.2054 107.977 51.6462 96.1131C51.7197 94.6113 51.7926 93.1842 51.7926 91.6824L51.7926 87.2525C51.8661 84.2489 51.7197 81.3198 51.6462 78.3912C51.6462 77.6403 51.6458 76.8894 51.5723 76.1385L51.4252 73.9613L51.0578 69.5307C50.8374 66.6022 50.3235 63.6738 50.0295 60.6702C50.0295 60.4449 50.1762 60.2195 50.4701 60.1444C50.6171 60.0693 50.8375 60.2198 50.8375 60.445Z" fill="black"/>
<path d="M20.2754 71.2578L19.3685 75.9136C19.066 77.4905 18.7634 79.0675 18.4609 80.5694C17.8559 83.7232 17.3265 86.8019 16.7971 89.9557C15.7384 96.1882 14.8313 102.495 14.0751 108.803C13.2433 115.111 12.6378 121.418 12.1085 127.726C11.5792 134.034 11.2009 140.416 10.8228 146.724C10.0666 159.414 9.31055 172.105 9.08369 184.795C9.08369 187.949 9.00837 191.178 9.00837 194.331L9.08369 199.062L9.23508 203.793C9.23508 205.369 9.31055 206.947 9.46179 208.524L9.68851 213.254L10.0666 217.985L10.2941 220.388C10.3697 221.214 10.4452 221.965 10.5208 222.715C11.8819 235.331 14.1507 247.871 17.8561 259.961L19.2924 264.541L20.8048 269.046L21.561 271.299L22.3933 273.552L24.0564 277.983C26.4006 283.915 28.8206 289.772 31.3917 295.629C36.4582 307.268 41.8276 318.907 46.8185 330.621C51.8095 342.335 56.3467 354.349 59.674 366.664C59.7496 366.889 59.5981 367.19 59.3712 367.265C59.1443 367.34 58.842 367.19 58.7664 366.965C55.2878 354.725 50.6747 342.86 45.6082 331.221C40.5416 319.507 35.0215 308.019 29.8793 296.38C27.3082 290.523 24.8129 284.666 22.4686 278.733L20.8048 274.228L19.9733 271.975L19.2171 269.723L17.6286 265.217L16.1923 260.636C12.3357 248.396 9.99099 235.781 8.5542 223.091C8.32734 221.514 8.1764 219.938 8.10078 218.286L7.72267 213.48L7.4199 208.673C7.34428 207.097 7.2688 205.52 7.19318 203.868L7.0418 199.062L6.96647 194.257C6.89085 191.028 6.96647 187.874 6.96647 184.72C7.19333 171.955 7.87406 159.264 8.63027 146.499C9.00837 140.116 9.38617 133.809 9.83989 127.426C10.3692 121.043 10.9746 114.736 11.8065 108.353C12.6383 102.045 13.5457 95.7375 14.8313 89.4299C15.4362 86.2761 16.1162 83.1974 16.8724 80.0436C17.6286 76.9649 18.4611 73.8863 19.3685 70.8076C19.4441 70.5823 19.6708 70.4318 19.9733 70.5069C20.2002 70.8073 20.351 71.0326 20.2754 71.2578Z" fill="black"/>
<path d="M29.9571 68.2574C29.6546 71.3361 29.3515 74.4154 28.9734 77.4941L27.9152 86.7301L25.6466 105.127C24.1342 117.442 22.8487 129.682 21.8656 141.996C20.8825 154.311 20.3531 166.701 20.2018 179.016L20.2018 188.253L20.5046 197.489C20.5802 200.567 20.8068 203.646 20.958 206.725C21.1849 209.803 21.3364 212.882 21.6389 215.961C22.6219 228.275 24.5121 240.515 27.0076 252.605C27.6882 255.608 28.2928 258.687 28.9734 261.616L30.1077 266.121C30.4858 267.623 30.94 269.125 31.3181 270.552C32.1499 273.555 33.133 276.484 33.9648 279.412C34.9478 282.341 35.9309 285.269 36.9896 288.198C45.3078 311.476 56.121 333.928 64.5148 357.281C64.5904 357.506 64.4396 357.807 64.2127 357.882C63.9859 357.957 63.6835 357.807 63.6079 357.582C54.9873 334.379 43.9462 312.077 35.4011 288.724C34.3424 285.795 33.3597 282.866 32.301 279.938C31.3936 276.934 30.4108 274.005 29.579 271.002C29.1253 269.5 28.6714 267.998 28.2933 266.496L27.159 261.991C26.4028 258.987 25.7977 255.909 25.1171 252.905C22.546 240.741 20.5796 228.426 19.5209 216.111C19.1428 213.032 18.992 209.953 18.8408 206.799C18.6896 203.721 18.3869 200.642 18.3113 197.489L18.0085 188.177L18.0085 178.866C18.0842 166.476 18.6139 154.086 19.597 141.697C21.6387 116.992 24.4365 92.2868 28.8981 67.9575C28.9737 67.7322 29.2007 67.507 29.4276 67.5821C29.8057 67.8073 29.9571 68.0322 29.9571 68.2574Z" fill="black"/>
<path d="M41.2995 63.9013C41.5263 66.9049 41.6774 69.9837 41.9043 73.0625C41.9799 76.1412 41.9801 79.1449 42.0557 82.2236C42.0557 82.9746 42.0557 83.7252 42.0557 84.5512L41.9796 86.8039L41.8282 91.3848C41.7526 94.4636 41.4503 97.4666 41.2234 100.545C40.316 112.71 38.8794 124.8 37.367 136.889C34.3422 161.069 31.1662 185.173 31.4687 209.502L31.544 214.008C31.6196 215.509 31.5442 217.011 31.6954 218.513L32.3002 227.599L32.8297 232.104C33.0566 233.606 33.1321 235.108 33.4346 236.61L34.1908 241.115C34.342 241.866 34.4176 242.617 34.5689 243.368L35.0223 245.62C37.5178 257.485 41.1476 269.124 45.2312 280.538C53.3983 303.44 63.3053 325.817 69.6575 349.396C69.7331 349.621 69.5816 349.921 69.3547 349.996C69.1279 350.071 68.8255 349.922 68.7499 349.696C62.1709 326.268 52.0371 304.041 43.7188 281.138C39.5596 269.649 35.8543 258.011 33.2832 246.071L32.7537 243.819C32.6024 243.068 32.4512 242.317 32.3756 241.566L31.544 237.061C31.2415 235.559 31.09 234.056 30.8631 232.48L30.2583 227.899L29.5782 218.738C29.4269 217.236 29.4268 215.66 29.4268 214.158L29.2754 209.577C28.9729 185.097 32.0731 160.843 35.0223 136.664C36.4591 124.575 37.8959 112.485 38.8034 100.396C39.0302 97.3921 39.3333 94.3129 39.4089 91.3093L39.6357 86.8039L39.7871 84.5512L39.8624 82.2984C39.938 79.2948 40.0895 76.2164 40.1652 73.2128C40.1652 70.2092 40.1649 67.13 40.2405 64.1264C40.2405 63.9011 40.4671 63.6761 40.6939 63.6761C41.072 63.4509 41.2239 63.6009 41.2995 63.9013Z" fill="black"/>
<path d="M168.721 36.4937C169.704 43.402 169.552 50.4604 168.645 57.3687C167.813 64.2771 166.376 71.1109 164.712 77.8691C161.385 91.3854 156.999 104.526 153.672 117.892C152.84 121.196 152.084 124.575 151.403 127.954C151.101 129.606 150.722 131.334 150.496 133.061L150.118 135.613L149.815 138.167C148.984 145 148.53 151.908 148.303 158.741C147.849 172.558 148.152 186.375 148.152 200.191C148.152 200.416 147.924 200.642 147.697 200.642C147.471 200.642 147.244 200.416 147.244 200.191C147.093 186.375 146.412 172.558 146.715 158.666C146.866 151.758 147.244 144.774 148 137.866L148.303 135.238L148.681 132.685C148.908 130.958 149.21 129.231 149.513 127.504C150.193 124.125 150.874 120.671 151.706 117.292C154.958 103.775 159.343 90.6339 162.595 77.2677C164.259 70.5847 165.62 63.8265 166.452 56.9933C167.284 50.16 167.738 43.327 167.813 36.4937C167.813 36.2684 168.04 36.0435 168.267 36.0435C168.494 36.1185 168.721 36.2684 168.721 36.4937Z" fill="black"/>
<path d="M162.519 36.7159C162.065 45.126 160.628 53.5367 158.813 61.7216C156.998 69.9815 154.957 78.1658 152.915 86.2756C148.831 102.57 144.597 118.865 142.253 135.46C139.757 152.055 140.211 168.875 140.211 185.696C140.211 194.106 139.984 202.516 139.303 210.926C138.547 219.336 137.262 227.746 134.918 235.856C134.842 236.081 134.615 236.232 134.313 236.156C134.086 236.081 133.935 235.856 134.01 235.556C136.127 227.446 137.338 219.111 137.942 210.776C138.547 202.441 138.623 194.031 138.547 185.621C138.472 177.211 138.321 168.8 138.472 160.39C138.623 151.98 139.077 143.495 140.211 135.16C142.555 118.415 146.714 102.045 150.798 85.7505C152.839 77.5657 154.881 69.4558 156.62 61.1958C158.435 53.011 160.023 44.7507 161.611 36.4908C161.687 36.2655 161.914 36.0402 162.141 36.1153C162.367 36.2655 162.519 36.4906 162.519 36.7159Z" fill="black"/>
<path d="M154.958 37.7709C153.294 47.6829 151.176 57.52 149.135 67.3569C147.017 77.1938 144.975 87.0302 143.16 96.9421C139.455 116.691 136.279 136.515 134.237 156.489C133.254 166.476 132.498 176.463 131.817 186.525C131.137 196.587 130.532 206.575 129.549 216.637C128.566 226.699 127.205 236.686 125.163 246.523C123.121 256.435 120.474 266.122 117.223 275.733C117.147 275.958 116.845 276.108 116.618 276.033C116.391 275.958 116.239 275.658 116.315 275.433C119.491 265.896 121.987 256.134 123.877 246.298C125.768 236.461 126.978 226.474 127.886 216.486C128.793 206.499 129.322 196.438 129.927 186.375C130.532 176.313 131.137 166.251 132.12 156.264C134.086 136.215 137.186 116.241 140.892 96.4919C142.782 86.5799 144.749 76.7428 146.866 66.9059C148.983 57.0691 151.252 47.2325 153.975 37.5458C154.05 37.3205 154.277 37.1701 154.579 37.2452C154.882 37.3202 154.958 37.5457 154.958 37.7709Z" fill="black"/>
<path d="M147.623 39.1234C147.018 42.2021 146.262 45.2807 145.657 48.3594C144.977 51.4381 144.296 54.5174 143.691 57.5961C142.405 63.7535 141.12 69.9107 139.91 76.0681C137.414 88.383 135.373 100.773 133.558 113.163C131.743 125.553 130.155 138.093 128.869 150.558C127.584 163.023 126.752 175.563 125.844 188.103C124.937 200.644 123.802 213.183 122.139 225.724C121.231 231.956 120.248 238.188 118.887 244.346C117.45 250.503 115.711 256.586 113.745 262.594C111.703 268.601 109.359 274.458 106.939 280.24C104.444 286.022 101.721 291.729 98.8478 297.36C95.9742 302.992 92.9491 308.549 89.8486 313.955C86.6726 319.437 83.4213 324.844 80.094 330.175C79.9428 330.4 79.64 330.475 79.4131 330.325C79.1863 330.174 79.1105 329.875 79.2617 329.649C82.5134 324.243 85.7656 318.836 88.7904 313.354C91.8908 307.873 94.7646 302.316 97.6381 296.684C100.436 291.052 103.082 285.346 105.502 279.564C107.922 273.782 110.191 267.924 112.157 261.992C114.123 256.06 115.862 249.978 117.223 243.896C118.509 237.813 119.492 231.581 120.4 225.348C122.063 212.883 123.047 200.419 123.954 187.878C124.861 175.338 125.617 162.798 126.903 150.258C128.188 137.717 129.777 125.253 131.516 112.788C133.331 100.323 135.372 87.9323 137.868 75.5423C139.078 69.3849 140.439 63.2278 141.952 57.0703C142.708 53.9916 143.464 50.9878 144.295 47.9091C144.674 46.4073 145.127 44.9058 145.581 43.3289C146.035 41.8271 146.488 40.3253 146.942 38.8235C147.018 38.5982 147.245 38.4477 147.548 38.5228C147.472 38.5979 147.623 38.823 147.623 39.1234Z" fill="black"/>
<path d="M140.59 39.6492C140.211 42.6528 139.682 45.6565 139.229 48.6601L137.791 57.5962L136.279 66.5315L134.691 75.4676C132.574 87.407 130.608 99.3465 128.717 111.286C124.936 135.165 121.458 159.118 118.66 183.147C117.904 189.154 117.298 195.161 116.618 201.169C116.013 207.176 115.408 213.259 114.652 219.266L114.046 223.771C113.82 225.273 113.593 226.775 113.29 228.277C113.063 229.779 112.837 231.28 112.534 232.782L111.627 237.288C111.325 238.789 111.022 240.291 110.644 241.718L109.585 246.148L108.451 250.579C108.073 252.081 107.694 253.507 107.241 254.934C103.838 266.573 99.528 277.987 94.2346 288.95C89.0169 299.913 82.967 310.501 76.5393 320.789C76.388 321.014 76.0853 321.088 75.8584 320.938C75.6315 320.788 75.5565 320.488 75.7078 320.263C82.0598 309.975 87.9578 299.387 93.0243 288.424C98.1664 277.461 102.326 266.122 105.653 254.483C106.107 253.056 106.484 251.555 106.863 250.128L107.997 245.773L108.981 241.342C109.283 239.84 109.661 238.414 109.887 236.912L110.72 232.482C111.022 230.98 111.249 229.478 111.476 228.052C111.703 226.55 112.005 225.048 112.156 223.546L112.762 219.041C113.518 213.034 114.047 207.026 114.652 201.019C115.257 195.012 115.862 188.929 116.543 182.922C119.34 158.818 122.743 134.864 126.448 110.91C128.339 98.971 130.305 86.9564 132.347 75.0921C133.405 69.16 134.464 63.1529 135.674 57.2207L137.489 48.2846C138.169 45.3561 138.774 42.3526 139.531 39.4241C139.606 39.1988 139.833 39.0486 140.135 39.0486C140.438 39.1988 140.59 39.424 140.59 39.6492Z" fill="black"/>
<path d="M114.955 156.792C115.258 158.519 115.636 160.247 115.711 161.974L115.863 164.526L115.863 167.08C115.863 168.807 115.787 170.534 115.636 172.261C115.56 173.988 115.409 175.715 115.182 177.367C114.426 184.201 113.443 190.958 112.308 197.717C110.04 211.158 107.317 224.599 104.217 237.89C103.385 241.194 102.629 244.498 101.721 247.877C100.738 251.181 99.6797 254.41 98.4698 257.639C96.0499 264.096 93.3274 270.329 91.1344 276.712C88.9414 283.17 86.2195 289.477 83.2703 295.71C80.321 301.867 77.2201 307.95 74.1197 314.032C73.9684 314.257 73.7417 314.332 73.5149 314.257C73.288 314.107 73.2125 313.882 73.2881 313.657C79.3378 301.417 85.3872 289.176 89.622 276.261C91.815 269.803 94.4617 263.496 96.806 257.113C97.9403 253.959 98.9994 250.731 99.9069 247.427C100.814 244.198 101.57 240.819 102.326 237.515C105.351 224.224 108.073 210.858 110.266 197.491C111.401 190.808 112.308 184.05 113.064 177.292L113.367 174.739C113.443 173.913 113.518 173.087 113.594 172.186L113.821 169.632C113.896 168.806 113.896 167.981 113.972 167.08L114.123 164.526L114.199 161.974C114.35 160.247 114.123 158.595 114.123 156.943L114.123 156.867C114.123 156.642 114.35 156.417 114.577 156.417C114.728 156.417 114.879 156.567 114.955 156.792Z" fill="black"/>
<path d="M103.535 37.1707C103.082 46.2567 101.796 55.3423 100.208 64.2781C98.6197 73.2138 96.7292 82.1497 94.9143 91.0855C91.2844 108.882 87.5791 126.679 85.6129 144.7C83.5711 162.722 83.2688 180.894 84.2519 198.991C85.2349 217.087 87.4277 235.184 90.7551 252.98C90.8307 253.205 90.6038 253.506 90.377 253.506C90.1501 253.581 89.8474 253.356 89.8474 253.13C86.2932 235.259 83.7977 217.237 82.6634 199.065C81.529 180.893 81.7565 162.646 83.647 144.474C85.6132 126.303 89.2425 108.432 92.8723 90.6353C94.6873 81.6995 96.5025 72.8384 98.0905 63.9026C99.6786 54.9669 101.191 46.031 102.703 37.0952C102.779 36.8699 103.006 36.6447 103.233 36.7197C103.384 36.7197 103.535 36.9455 103.535 37.1707Z" fill="black"/>
<path d="M96.578 34.314C95.9731 44.2259 94.4609 54.0626 92.7217 63.8244C90.9068 73.5862 88.9407 83.3475 87.0501 93.0342C83.1935 112.483 79.4878 131.932 77.6729 151.68C75.7824 171.354 75.9337 191.177 77.2948 210.926C78.656 230.675 81.2272 250.349 84.6301 269.872C84.7058 270.098 84.4789 270.398 84.252 270.398C84.0252 270.473 83.7226 270.248 83.7226 270.023C80.0928 250.499 77.2195 230.826 75.7071 211.002C74.1947 191.178 73.8918 171.279 75.631 151.455C77.3703 131.631 81.0755 112.032 84.9322 92.5839C86.8227 82.8222 88.7891 73.1352 90.5284 63.3734C92.2677 53.6117 93.9312 43.8499 95.6704 34.0881C95.746 33.8628 95.9731 33.6376 96.1999 33.7127C96.4268 33.8628 96.6536 34.0887 96.578 34.314Z" fill="black"/>
<path d="M91.4364 31.6879C90.529 42.3508 88.4868 52.938 86.067 63.3756C83.6472 73.8132 81.0012 84.1757 78.3545 94.5382C73.2124 115.263 68.2968 136.064 66.9356 157.314C65.4232 178.565 66.7847 199.89 69.5069 221.066C72.1536 242.241 76.0097 263.267 79.2613 284.368C79.337 284.593 79.1101 284.893 78.8832 284.893C78.6564 284.968 78.3545 284.743 78.3545 284.517C74.876 263.417 70.792 242.467 67.9185 221.216C65.1206 200.041 63.5326 178.565 64.8938 157.089C66.2549 135.613 71.0945 114.663 76.2366 93.8628C78.8076 83.5003 81.4547 73.1375 83.8745 62.775C86.2943 52.4125 88.4871 41.9748 90.5288 31.4621C90.6045 31.2368 90.8315 31.0115 91.0583 31.0866C91.2852 31.2368 91.512 31.4627 91.4364 31.6879Z" fill="black"/>
<path d="M86.899 29.8852C86.3697 32.7386 85.7649 35.5168 85.1599 38.3702L83.2694 46.7805C81.9839 52.4123 80.6982 57.9693 79.337 63.6011C76.6147 74.7896 74.0434 85.9775 71.6236 97.1659C66.7839 119.618 62.7763 142.22 60.5833 165.123C58.3147 187.95 58.0118 211.003 60.1292 233.831C62.1709 256.658 66.5572 279.335 72.9093 301.412C72.9849 301.637 72.8334 301.938 72.6065 302.013C72.3796 302.088 72.0773 301.938 72.0017 301.713C65.4227 279.636 60.734 256.959 58.4654 234.056C56.1968 211.079 56.4241 187.951 58.5414 165.048C60.7344 142.07 64.6667 119.393 69.5064 96.866C71.9262 85.6024 74.497 74.4141 77.1437 63.2256C78.5049 57.6689 79.8665 52.0366 81.3789 46.4799L83.6475 38.1451C84.4793 35.3668 85.2349 32.5884 86.0668 29.8852C86.1424 29.6599 86.3698 29.5094 86.6723 29.5845C86.8236 29.3592 86.9746 29.5848 86.899 29.8852Z" fill="black"/>
<path d="M80.4699 28.608C80.3943 31.5365 79.7892 34.3903 79.1842 37.1686L77.2185 45.5789C75.8573 51.2107 74.4962 56.842 73.0595 62.3987C71.5471 67.9554 70.0346 73.5873 68.371 79.069C66.7075 84.6256 64.8928 90.1075 62.8511 95.5141C62.7755 95.7393 62.4724 95.8891 62.2456 95.814C62.0187 95.7389 61.8679 95.4387 61.9435 95.2134C63.6071 89.7318 65.2706 84.1754 66.7073 78.6187C68.2197 73.062 69.6565 67.5047 71.0177 61.8729C72.3788 56.2412 73.7397 50.6849 75.0253 45.0531L76.9157 36.6428C77.5963 33.8645 78.3527 31.0111 79.487 28.3829C79.5626 28.1576 79.8649 28.0076 80.0918 28.1578C80.3943 28.2329 80.5455 28.3827 80.4699 28.608Z" fill="black"/>
<path d="M74.4963 26.7338C74.4963 27.71 74.345 28.6865 74.1182 29.6627C73.8913 30.6388 73.6644 31.5401 73.362 32.4411C72.757 34.2433 72.2275 36.1204 71.6981 37.9226C70.6395 41.602 69.5057 45.2813 68.5226 49.0358L65.4217 60.149C64.363 63.8285 63.3045 67.5828 62.1702 71.2623C62.0945 71.4875 61.8678 71.638 61.5653 71.5629C61.3385 71.4878 61.1869 71.2624 61.2626 71.0371L63.834 59.7736L66.5561 48.51C67.5391 44.7555 68.5222 41.0014 69.5809 37.322C70.1103 35.4448 70.7154 33.6423 71.2447 31.765C71.8497 29.8878 72.5304 28.0859 73.6647 26.4339C73.816 26.2087 74.118 26.1334 74.3449 26.2836C74.4205 26.4338 74.4963 26.5837 74.4963 26.7338Z" fill="black"/>
<path d="M69.8838 24.2536C69.9594 25.9056 69.5813 27.4823 69.1276 28.9841L67.6905 33.4896C66.7074 36.4932 65.6487 39.4971 64.6657 42.4256L61.4895 51.2862L58.314 60.1467C58.2384 60.372 57.9353 60.5225 57.7085 60.4474C57.4816 60.3723 57.3308 60.1469 57.4064 59.9216C58.1626 56.8429 59.0696 53.8396 59.9771 50.8359L62.7752 41.8251L65.6486 32.8142L67.0857 28.3088C67.3125 27.5579 67.5391 26.8067 67.9172 26.1308C68.2197 25.3799 68.5982 24.7043 69.1276 24.0285C69.2788 23.8032 69.5808 23.7277 69.8077 23.9529C69.8077 24.028 69.8081 24.1034 69.8838 24.2536Z" fill="black"/>
<path d="M126.371 5.63339C126.749 6.53447 126.976 7.5105 127.128 8.48668C127.354 9.46286 127.43 10.3638 127.581 11.34C127.808 13.2172 128.035 15.17 128.262 17.0473L129.623 28.536C130.001 32.3656 130.379 36.2699 130.606 40.0995C130.833 44.0042 130.833 47.8338 130.53 51.7385C130.53 51.9638 130.303 52.1895 130.001 52.1895C129.774 52.1895 129.547 51.9638 129.547 51.7385C129.547 47.9089 129.245 44.0794 128.867 40.2498C128.489 36.4202 128.035 32.5904 127.506 28.8359C126.976 25.0063 126.447 21.1768 125.917 17.3472C125.69 15.3949 125.464 13.5174 125.237 11.5651C125.01 9.61274 124.934 7.66054 125.388 5.70819C125.463 5.40782 125.691 5.25764 125.993 5.33273C126.22 5.33273 126.296 5.48321 126.371 5.63339Z" fill="black"/>
<path d="M117.826 3.67864C118.809 12.3891 119.642 21.0247 120.549 29.7352C121.381 38.4457 122.288 47.1565 122.213 55.9421C122.213 60.3724 121.91 64.7277 121.381 69.0829L120.624 75.6159L119.717 82.1482C118.431 90.7836 116.919 99.4193 115.256 107.98C111.929 125.1 108.224 142.221 105.577 159.417C104.216 168.052 103.233 176.687 102.628 185.398C102.098 194.108 102.098 202.819 102.703 211.454C102.703 211.679 102.552 211.905 102.25 211.98C102.023 211.98 101.796 211.83 101.72 211.53C100.964 202.819 100.889 194.034 101.267 185.248C101.418 183.07 101.569 180.893 101.72 178.715C101.796 177.589 101.871 176.537 101.947 175.411L102.325 172.182C102.552 170.004 102.779 167.827 103.081 165.649L103.989 159.116C106.484 141.77 110.038 124.65 113.289 107.529C114.953 98.9691 116.466 90.4082 117.676 81.7728L118.583 75.3153L119.339 68.8578C119.868 64.5025 120.095 60.2218 120.171 55.8665C120.247 47.2311 119.339 38.5209 118.432 29.8855C117.6 21.175 116.919 12.4642 117.07 3.67864C117.07 3.45337 117.298 3.22839 117.524 3.22839C117.6 3.30348 117.826 3.45337 117.826 3.67864Z" fill="black"/>
<path d="M110.793 2.782C110.945 7.51271 111.096 12.2433 111.398 16.8989L112.231 31.0157C112.76 40.4772 113.365 49.9389 113.213 59.4754C113.213 64.2061 112.911 69.0118 112.533 73.7426C112.079 78.4733 111.474 83.2038 110.793 87.8594C109.357 97.2457 107.844 106.557 106.256 115.868C103.08 134.49 99.8281 153.188 97.5595 171.885C96.4251 181.272 95.3664 190.658 95.6689 200.044C95.8958 209.431 97.2574 218.817 98.7699 228.128C98.8455 228.354 98.6186 228.654 98.3918 228.654C98.1649 228.729 97.8622 228.504 97.8622 228.279C96.1986 218.967 94.6857 209.581 94.3832 200.044C94.0051 190.508 94.8373 181.046 95.9717 171.66C98.1647 152.812 101.265 134.115 104.29 115.493C105.803 106.181 107.39 96.7952 108.751 87.484C109.508 82.8284 110.038 78.1726 110.491 73.4419C110.869 68.7863 111.096 64.0557 111.096 59.325C111.247 49.9387 110.642 40.4772 110.037 31.0157C109.508 21.5543 109.13 12.0176 109.962 2.55615C109.962 2.33087 110.189 2.1059 110.491 2.1059C110.567 2.33117 110.718 2.55673 110.793 2.782Z" fill="black"/>
<path d="M104.443 1.65528C104.669 2.40618 104.745 3.08156 104.821 3.83246C104.896 4.50828 104.821 5.25904 104.821 5.93485L104.518 10.1404C104.291 12.9938 104.064 15.772 103.762 18.6254C103.459 21.4038 103.157 24.2574 102.779 27.0357C102.401 29.8141 101.948 32.6676 101.419 35.446C101.343 35.6713 101.116 35.8965 100.889 35.8214C100.662 35.7464 100.511 35.5209 100.511 35.2957C100.738 32.5173 100.964 29.6637 101.191 26.8854C101.418 24.107 101.57 21.2535 101.797 18.4751L102.325 10.0648L102.628 5.86005C102.703 4.43333 102.93 3.082 103.61 1.65528C103.762 1.43001 104.064 1.27924 104.291 1.42942C104.291 1.35433 104.443 1.5051 104.443 1.65528Z" fill="black"/>
<path d="M98.3928 2.03093C98.8465 3.30747 98.846 4.58372 98.6948 5.86026C98.5436 7.13681 98.3927 8.33826 98.2415 9.6148C97.8634 12.0928 97.4096 14.5711 96.956 17.0491L95.5192 24.4826C94.9899 26.9606 94.612 29.4385 94.1584 31.8414C94.0828 32.0667 93.8558 32.2919 93.629 32.2168C93.4022 32.1417 93.251 31.9919 93.251 31.7666C93.4022 29.2135 93.6293 26.7355 93.9317 24.2575C94.2342 21.7795 94.6125 19.2264 94.9905 16.7484C95.3686 14.2704 95.7461 11.7921 96.0486 9.31415C96.1998 8.11269 96.3514 6.83659 96.5027 5.63514C96.5783 5.03441 96.6534 4.43368 96.8046 3.75787C96.9559 3.15714 97.183 2.55612 97.4854 1.9554C97.6366 1.73012 97.9386 1.65518 98.1654 1.73027C98.241 1.80536 98.3172 1.88074 98.3928 2.03093Z" fill="black"/>
<path d="M92.5696 1.80474C92.9476 3.00618 92.8722 4.20776 92.7209 5.33411L92.1154 8.78869C91.7373 11.1165 91.2842 13.3689 90.8305 15.6216L88.0325 29.2126C87.9569 29.4378 87.7299 29.6631 87.5031 29.588C87.2762 29.5129 87.125 29.3633 87.125 29.063C87.2762 26.7352 87.579 24.4073 87.8058 22.1546C88.1083 19.8268 88.4862 17.5739 88.7887 15.2461L89.923 8.41324L90.4524 5.03419C90.6037 3.90784 90.9061 2.7812 91.5867 1.72994C91.7379 1.50467 92.0404 1.42944 92.3429 1.57962C92.4185 1.57962 92.4939 1.65456 92.5696 1.80474Z" fill="black"/>
<path d="M223.317 102.952L221.2 108.134L219.158 113.315C217.721 116.769 216.36 120.224 214.999 123.678C212.277 130.586 209.479 137.494 206.605 144.403C203.732 151.236 200.782 158.144 197.606 164.827C194.43 171.586 191.028 178.268 187.095 184.651C179.231 197.416 169.778 208.981 162.594 221.896C160.855 225.125 159.191 228.429 157.679 231.808C156.923 233.46 156.243 235.187 155.486 236.914C154.806 238.641 154.125 240.368 153.444 242.095C150.873 249.003 148.453 256.062 146.109 263.12C143.689 270.179 141.27 277.238 138.32 284.071C137.564 285.798 136.884 287.525 136.052 289.177L134.841 291.73L133.632 294.283C132.8 296.01 131.892 297.587 130.985 299.239C130.078 300.891 129.246 302.543 128.338 304.195C121.003 317.186 112.761 329.651 104.669 342.116C102.703 345.27 100.661 348.349 98.695 351.578L95.7463 356.308L92.9482 361.114L91.5111 363.517L90.1501 365.994L87.5034 370.875C86.6716 372.527 85.8396 374.18 85.0834 375.832C84.2516 377.484 83.42 379.136 82.7395 380.863C76.6898 394.379 72.455 408.721 70.4888 423.439C70.4888 423.664 70.1862 423.889 69.9593 423.814C69.7325 423.814 69.5056 423.514 69.5812 423.289C71.4717 408.496 75.6312 394.004 81.6052 380.337C82.2857 378.61 83.1173 376.958 83.9491 375.231C84.7809 373.579 85.5373 371.852 86.3691 370.2L89.0158 365.244L90.3015 362.766L91.6625 360.363L94.4606 355.482L97.334 350.676C99.2245 347.448 101.266 344.368 103.232 341.215C111.248 328.674 119.491 316.285 126.751 303.294C127.658 301.642 128.49 299.99 129.397 298.413C130.229 296.761 131.212 295.184 131.968 293.457L133.178 290.979L134.313 288.426C135.069 286.774 135.825 285.047 136.505 283.32C139.379 276.487 141.799 269.504 144.143 262.445C146.488 255.387 148.831 248.328 151.478 241.344C152.158 239.617 152.839 237.89 153.52 236.088C154.276 234.361 154.881 232.634 155.713 230.907C157.15 227.453 158.889 224.074 160.628 220.77C167.888 207.629 177.34 195.99 185.054 183.375C188.91 177.067 192.238 170.459 195.414 163.776C198.59 157.093 201.463 150.259 204.337 143.351C207.21 136.518 210.009 129.61 212.958 122.777C214.47 119.398 215.906 115.943 217.419 112.564C219.007 109.185 220.52 105.806 222.259 102.502C222.41 102.277 222.637 102.202 222.864 102.277C223.317 102.502 223.393 102.727 223.317 102.952Z" fill="black"/>
<path d="M231.259 106.476L223.168 128.102C220.446 135.311 217.723 142.52 214.85 149.728C211.976 156.862 209.027 163.996 205.775 171.054C204.943 172.781 204.187 174.583 203.279 176.311C202.825 177.212 202.448 178.038 201.994 178.939L200.632 181.567C198.742 185.021 196.776 188.325 194.659 191.554C190.424 198.087 185.811 204.244 181.349 210.551C179.156 213.705 176.963 216.859 174.921 220.088C172.88 223.317 170.914 226.621 169.25 230.075C167.511 233.454 165.923 236.984 164.411 240.513C162.898 244.042 161.461 247.572 159.949 251.176C157.075 258.309 154.278 265.518 151.328 272.651C148.379 279.785 145.278 286.844 141.648 293.752C138.019 300.586 134.011 307.193 129.927 313.801C121.685 326.867 113.215 339.782 105.653 353.223C98.0913 366.665 91.5125 380.631 86.8996 395.274C82.2111 409.917 79.6399 425.161 79.1862 440.554C79.1862 440.779 78.9596 441.004 78.7327 441.004C78.5059 441.004 78.2786 440.779 78.2786 440.554C78.581 425.085 81.0764 409.691 85.6892 394.898C90.2265 380.106 96.7303 365.914 104.292 352.472C111.854 338.956 120.324 326.041 128.491 312.975C132.574 306.442 136.506 299.835 140.136 293.001C143.69 286.243 146.791 279.184 149.74 272.051C155.638 257.859 160.705 243.216 167.587 229.324C169.326 225.795 171.292 222.491 173.334 219.187C175.375 215.883 177.568 212.73 179.761 209.501C184.223 203.193 188.761 196.961 192.92 190.503C195.037 187.274 197.003 183.97 198.818 180.666L200.104 178.113C200.557 177.287 200.935 176.386 201.389 175.56C202.22 173.833 203.052 172.105 203.809 170.378C206.985 163.395 209.934 156.261 212.808 149.128L221.353 127.652C222.79 124.048 224.302 120.518 225.739 116.989C227.251 113.46 228.764 109.931 230.427 106.402C230.503 106.176 230.805 106.101 231.032 106.176C231.259 106.026 231.334 106.251 231.259 106.476Z" fill="black"/>
<path d="M237.46 109.631C236.175 113.461 234.738 117.215 233.377 121.045L229.218 132.383C226.42 139.968 223.547 147.477 220.522 154.911C217.497 162.42 214.396 169.854 211.22 177.213C209.632 180.892 207.968 184.572 206.229 188.251C204.49 191.93 202.675 195.535 200.784 199.139C193.222 213.481 184.677 227.147 177.493 241.49C170.309 255.907 162.747 270.175 155.034 284.367C151.177 291.425 147.396 298.558 143.312 305.542C139.229 312.525 134.994 319.358 130.684 326.192C122.138 339.858 113.518 353.45 106.41 367.942L103.838 373.349C103.006 375.151 102.175 377.028 101.419 378.831L100.36 381.609L99.4523 384.462C99.1498 385.439 98.9233 386.415 98.6208 387.316C98.3939 388.292 98.0914 389.268 97.8646 390.244C96.0497 398.054 94.613 405.938 93.4787 413.898C92.3444 421.858 91.3612 429.817 90.6806 437.851C90 445.886 89.4707 453.921 89.5463 461.88C89.5463 462.106 89.319 462.331 89.0921 462.331C88.8653 462.331 88.6387 462.106 88.6387 461.88C88.5631 453.771 88.941 445.736 89.6216 437.701C90.3022 429.666 91.134 421.632 92.2683 413.672C93.4027 405.713 94.6887 397.754 96.5036 389.869C96.7304 388.893 96.9573 387.916 97.2598 386.94C97.4866 385.964 97.7135 384.988 98.016 384.011L98.9228 381.083L99.9818 378.23C100.738 376.353 101.57 374.55 102.402 372.673L104.973 367.192C112.081 352.624 120.702 338.958 129.171 325.291C133.406 318.458 137.641 311.625 141.725 304.641C145.733 297.658 149.513 290.524 153.295 283.466C160.932 269.274 168.494 255.081 175.603 240.588C182.862 226.096 191.408 212.43 198.818 198.162C200.709 194.633 202.448 191.029 204.187 187.35C205.851 183.67 207.515 180.066 209.103 176.311C212.279 168.952 215.379 161.518 218.328 154.009L227.252 131.558L231.789 120.369C233.377 116.614 234.889 112.935 236.477 109.256C236.553 109.03 236.855 108.88 237.082 109.031C237.385 109.106 237.536 109.406 237.46 109.631Z" fill="black"/>
</svg>
