<svg width="324" height="265" viewBox="0 0 324 265" fill="none" xmlns="http://www.w3.org/2000/svg">
<path d="M207.392 94.8356C206.957 98.2728 206.024 101.648 205.03 104.96C204.036 108.272 202.855 111.459 201.736 114.709C199.437 121.146 197.137 127.583 195.646 134.208C194.9 137.52 194.341 140.832 194.403 144.144C194.403 145.769 194.589 147.456 195.149 148.831C195.708 150.269 196.578 151.643 197.635 152.893C199.748 155.393 202.482 157.393 205.341 159.143C208.262 160.83 211.307 162.268 214.476 163.393C216.092 163.955 217.708 164.455 219.324 164.83C220.94 165.205 222.618 165.518 224.296 165.643C225.974 165.768 227.652 165.83 229.267 165.643C230.883 165.455 232.499 165.08 233.866 164.393C234.239 164.268 234.55 164.018 234.861 163.768C235.171 163.58 235.482 163.268 235.731 163.018C236.041 162.768 236.29 162.393 236.539 162.143L237.346 161.206C237.595 160.893 237.906 160.581 238.155 160.268L238.9 159.268C239.397 158.58 239.895 157.956 240.33 157.206C242.132 154.393 243.561 151.269 244.804 148.144C245.985 144.957 246.979 141.707 247.849 138.395C248.657 135.083 249.403 131.77 250.087 128.396C251.392 121.709 252.573 114.897 254.188 108.272C254.251 108.022 254.499 107.897 254.748 107.897C254.996 107.959 255.121 108.209 255.121 108.459C253.629 115.146 252.573 121.896 251.392 128.645C250.211 135.395 248.782 142.145 246.42 148.707C245.177 151.956 243.748 155.144 241.883 158.081C241.448 158.831 240.889 159.518 240.392 160.268L239.646 161.33C239.397 161.643 239.087 162.018 238.776 162.33L237.906 163.33C237.595 163.643 237.346 164.018 236.974 164.33C236.601 164.643 236.29 165.018 235.855 165.205C235.482 165.455 235.047 165.768 234.674 165.955C232.996 166.83 231.194 167.268 229.392 167.455C227.589 167.705 225.787 167.642 224.047 167.517C222.245 167.392 220.505 167.08 218.827 166.705C217.087 166.33 215.409 165.83 213.731 165.268C210.375 164.143 207.205 162.643 204.16 160.893C201.115 159.081 198.256 156.956 195.895 154.206C194.714 152.831 193.719 151.269 193.036 149.519C192.352 147.707 192.228 145.894 192.166 144.144C192.104 140.582 192.725 137.082 193.471 133.708C195.024 126.958 197.324 120.396 199.623 113.959C200.804 110.709 201.985 107.522 203.166 104.335C204.346 101.148 205.527 97.9602 206.521 94.7105C206.584 94.4605 206.832 94.3355 207.081 94.398C207.267 94.3355 207.392 94.5856 207.392 94.8356Z" fill="black"/>
<path d="M254.935 107.897C258.975 108.96 262.952 110.148 266.992 111.21C270.969 112.273 275.008 113.273 279.048 114.022C283.087 114.772 287.189 115.46 291.229 115.647C295.268 115.897 299.432 115.709 303.223 114.585C305.087 114.022 306.89 113.21 308.381 112.022C309.81 110.898 310.929 109.273 311.861 107.523C313.725 103.961 314.906 100.023 316.025 96.0863C318.138 88.1494 319.443 80.0251 320.934 71.8383C322.364 63.9014 320.872 55.6516 317.579 48.2146C314.285 40.7777 309.5 34.0287 303.844 28.0917C300.985 25.1544 297.94 22.4043 294.709 19.9045C291.477 17.4047 287.997 15.2177 284.33 13.4054C283.398 12.9679 282.466 12.5929 281.534 12.1554C280.602 11.843 279.669 11.4676 278.675 11.1552C277.681 10.8427 276.749 10.6554 275.754 10.468L272.709 9.90526C268.607 9.15532 264.506 8.343 260.466 7.53057C252.325 5.9057 244.184 4.21857 235.981 3.09366C231.879 2.5312 227.777 2.09325 223.675 1.96826C219.574 1.84327 215.472 2.03088 211.433 2.71832C209.444 3.09329 207.455 3.53064 205.467 4.15559C203.54 4.78054 201.613 5.46799 199.749 6.34292C197.885 7.21785 196.144 8.21826 194.404 9.34317C192.664 10.4056 190.987 11.6552 189.309 12.8427C182.783 17.7798 176.817 23.5918 171.721 30.0288C169.173 33.2785 166.874 36.6532 164.823 40.2154C162.834 43.7776 161.094 47.5276 159.975 51.4023C158.857 55.2769 158.297 59.4017 158.732 63.4014C158.919 65.4013 159.478 67.3385 160.162 69.2134L160.783 70.5884L161.529 71.9005C161.964 72.838 162.586 73.6501 163.145 74.4626C165.444 77.8373 168.427 80.6496 171.845 82.8994C175.263 85.1492 178.992 86.8992 182.845 88.3366C190.614 91.1489 198.817 92.7741 207.02 94.024C207.269 94.0865 207.455 94.2736 207.393 94.5861C207.331 94.8361 207.144 95.024 206.834 94.9615C198.568 93.7116 190.365 92.2114 182.41 89.3991C178.495 87.9618 174.642 86.212 171.1 83.8997C167.557 81.5874 164.388 78.7124 161.964 75.2126C161.405 74.3377 160.783 73.4629 160.286 72.5255L159.541 71.1505L158.919 69.7132C158.111 67.7133 157.552 65.6508 157.303 63.5259C156.806 59.2763 157.365 55.0268 158.546 50.9647C159.665 46.9025 161.405 43.0903 163.456 39.4031C165.444 35.7159 167.868 32.2785 170.416 28.9663C175.574 22.4043 181.602 16.53 188.252 11.4054C189.93 10.1555 191.608 8.9057 193.41 7.78079C195.15 6.65588 197.015 5.59346 198.941 4.65604C200.868 3.71861 202.856 2.96855 204.845 2.3436C206.896 1.71865 208.947 1.21844 210.998 0.84347C215.161 0.156024 219.387 -0.0938342 223.613 0.031156C227.839 0.156146 232.003 0.59349 236.167 1.15595C244.432 2.28086 252.636 3.96859 260.777 5.59346C264.879 6.4059 268.918 7.21821 273.02 7.96816L276.065 8.53025C277.121 8.71773 278.178 8.96783 279.172 9.28031C280.229 9.53029 281.223 9.96812 282.217 10.2806C283.212 10.7181 284.206 11.0928 285.138 11.5927C288.991 13.4051 292.534 15.7175 295.89 18.2798C299.245 20.8421 302.353 23.6541 305.274 26.6538C311.053 32.7159 316.025 39.6532 319.443 47.3401C321.121 51.2148 322.426 55.2766 323.047 59.4638C323.731 63.6509 323.731 67.9636 322.985 72.1507C321.556 80.2751 320.251 88.462 318.138 96.5238C317.019 100.524 315.839 104.586 313.85 108.398C312.855 110.273 311.675 112.21 309.81 113.647C308.008 115.022 305.957 115.96 303.906 116.585C299.68 117.834 295.33 117.897 291.166 117.647C286.94 117.397 282.777 116.647 278.675 115.772C274.573 114.835 270.534 113.772 266.556 112.522C262.579 111.272 258.602 109.96 254.686 108.585C254.438 108.523 254.313 108.21 254.376 107.96C254.438 107.96 254.687 107.835 254.935 107.897Z" fill="black"/>
<path d="M80.5717 183.374C81.7581 186.518 82.3905 189.81 82.8847 193.106C83.4343 196.373 83.7901 199.671 84.1737 202.887C84.5848 206.157 84.9684 209.374 85.5458 212.558C86.1231 215.743 86.8389 218.924 87.887 221.934C88.4388 223.425 89.046 224.887 89.8748 226.236C90.6482 227.612 91.5875 228.903 92.6936 229.836C95.0164 231.78 98.1431 232.832 101.242 233.558C107.552 234.951 114.168 235.026 120.618 234.093C123.802 233.614 127.014 232.915 130.005 231.785C131.473 231.234 132.941 230.546 134.243 229.671C135.545 228.796 136.709 227.786 137.485 226.567L137.79 226.069C137.901 225.875 137.901 225.738 138.012 225.545L138.235 225.021C138.29 224.856 138.318 224.637 138.374 224.471L139.013 222.162C139.235 221.365 139.32 220.571 139.431 219.83L139.654 218.623C139.71 218.185 139.738 217.829 139.739 217.419C140.13 214.214 139.94 210.966 139.612 207.721L139.339 205.268C139.201 204.451 139.064 203.635 138.954 202.872C138.707 201.293 138.349 199.633 138.046 198.082C137.331 194.901 136.532 191.694 135.622 188.544C133.859 182.216 131.956 175.89 130.47 169.419C130.415 169.174 130.553 168.898 130.803 168.838C131.052 168.778 131.273 168.938 131.328 169.182C132.898 175.542 134.911 181.81 136.813 188.136C137.778 191.257 138.66 194.49 139.458 197.697C140.202 200.932 140.89 204.196 141.246 207.495C141.601 210.793 141.791 214.177 141.455 217.491C141.399 217.93 141.398 218.339 141.342 218.778L141.147 220.039C141.008 220.862 140.951 221.71 140.729 222.507L140.089 224.953C140.061 225.173 140.006 225.337 139.922 225.585L139.672 226.192C139.562 226.386 139.534 226.605 139.367 226.827L139.034 227.408C138.064 228.932 136.733 230.163 135.265 231.124C133.824 232.139 132.301 232.855 130.667 233.492C127.538 234.762 124.215 235.518 120.893 236C114.221 236.91 107.439 236.92 100.769 235.508C97.504 234.732 94.1005 233.685 91.3076 231.369C89.8697 230.198 88.9027 228.716 87.9911 227.206C87.1625 225.721 86.4171 224.125 85.8377 222.58C84.7068 219.407 83.9357 216.118 83.3031 212.825C82.6981 209.586 82.2592 206.262 81.9034 202.964C81.0811 196.424 80.757 189.9 79.6301 183.449C79.575 183.204 79.7416 182.982 79.9908 182.922C80.2675 183.052 80.4613 183.158 80.5717 183.374Z" fill="black"/>
<path d="M131.032 169.096C135.354 168.1 139.648 167.186 143.887 166.028C148.153 164.924 152.364 163.711 156.465 162.146C160.537 160.663 164.555 158.935 168.214 156.641C171.817 154.376 175.116 151.516 177.032 147.865L177.392 147.201L177.67 146.512C177.837 146.016 177.948 145.549 178.115 145.053C178.365 144.036 178.478 143.022 178.562 141.954C178.731 139.818 178.706 137.713 178.57 135.529C178.271 131.243 177.528 126.912 176.564 122.696C176.04 120.575 175.462 118.482 174.827 116.418C174.193 114.354 173.42 112.293 172.508 110.371C172.038 109.452 171.541 108.479 170.988 107.671L168.97 105.09C168.306 104.202 167.67 103.369 166.951 102.509L164.739 100.097C163.328 98.4322 161.641 97.0471 160.036 95.5509C159.234 94.8028 158.348 94.1657 157.518 93.5003L154.917 91.5612L152.15 89.8444L150.794 88.9718C150.296 88.6819 149.825 88.446 149.355 88.2101L146.421 86.7152C145.425 86.272 144.4 85.9119 143.404 85.4687L141.909 84.8723C141.383 84.665 140.885 84.5116 140.331 84.3869L137.231 83.3882C135.099 82.915 132.995 82.3592 130.835 82.1054C128.675 81.7149 126.543 81.6519 124.355 81.4807C122.195 81.5003 119.979 81.4116 117.847 81.622C113.526 81.9346 109.205 82.6574 105.021 83.9238L98.6218 85.7855L92.2221 87.5097C87.9281 88.5599 83.6066 89.5564 79.2574 90.4984C74.9358 91.4945 70.6142 92.3536 66.4308 93.6201C62.2197 94.8325 58.2299 96.4776 54.5162 98.6635C53.6292 99.2569 52.6315 99.7707 51.7721 100.418L49.1664 102.306C48.3071 102.954 47.503 103.71 46.6713 104.411L45.4514 105.449L44.287 106.596L41.9577 108.888L39.767 111.314C38.2696 112.905 36.8825 114.575 35.6064 116.325C32.9712 119.8 30.7234 123.485 28.7246 127.383C26.7812 131.253 25.1424 135.308 23.8911 139.436C22.6398 143.564 21.8314 147.874 21.5768 152.172C21.3223 156.47 21.6492 160.81 22.9734 164.909C23.6633 166.945 24.5195 168.895 25.6527 170.702C26.8414 172.48 28.2795 174.062 29.8841 175.421C36.7182 180.713 45.0221 184.361 53.6893 185.293C58.009 185.801 62.4403 185.705 66.7059 185.147C67.8139 184.986 68.8665 184.854 69.9468 184.639L73.188 183.995C75.2934 183.457 77.3988 182.919 79.5044 182.245C83.7709 181.004 88.0374 179.9 92.3314 178.849C96.6529 177.853 100.974 176.994 105.268 175.944C113.828 173.926 122.389 171.635 130.838 169.127C131.088 169.067 131.364 169.198 131.42 169.443C131.475 169.687 131.336 169.964 131.087 170.024C122.609 172.614 114.132 174.931 105.488 177.06C101.194 178.11 96.8453 179.052 92.6068 180.074C88.3129 181.124 84.0739 182.282 79.8628 183.494C71.468 186.247 62.4102 187.701 53.466 186.775C49.0078 186.27 44.6058 185.19 40.426 183.449C36.2463 181.708 32.3717 179.468 28.7748 176.676C26.9765 175.211 25.4833 173.521 24.1563 171.609C22.9124 169.722 21.9732 167.61 21.2835 165.438C19.8487 161.122 19.5497 156.563 19.7768 152.074C20.0315 147.64 20.84 143.193 22.1746 138.954C23.4261 134.689 25.0931 130.552 27.1197 126.571C29.1463 122.59 31.4772 118.794 34.1403 115.237C35.4718 113.458 36.9137 111.759 38.3835 110.114L40.63 107.659L42.9869 105.284L44.207 104.109L45.4822 103.042C46.3139 102.341 47.1734 101.557 48.0328 100.91L50.7217 98.9099C51.6364 98.2339 52.634 97.7202 53.5764 97.0982C57.4564 94.8268 61.6402 93.15 65.9345 91.8264C70.2288 90.5028 74.5503 89.6438 78.8718 88.6477C83.221 87.7057 87.4596 86.684 91.7535 85.6338L98.0977 83.9374L104.414 82.0505C108.709 80.7269 113.141 79.9474 117.655 79.6033C119.927 79.3899 122.114 79.4243 124.358 79.4302C126.601 79.5728 128.816 79.6614 131.059 80.0774C133.274 80.3027 135.489 80.9383 137.676 81.3829C138.756 81.7149 139.836 82.0465 140.915 82.3785C141.441 82.5858 141.995 82.7105 142.521 82.9178L144.099 83.5399C145.151 83.9544 146.203 84.3686 147.199 84.8117L150.216 86.332C150.714 86.6219 151.24 86.8296 151.738 87.1195L153.177 88.0175L156.055 89.8139L158.767 91.8328C159.68 92.5238 160.565 93.1611 161.395 93.9633C163.027 95.5135 164.798 96.924 166.236 98.6425L168.531 101.08C169.25 101.94 169.914 102.828 170.633 103.687L172.679 106.321C173.398 107.317 173.923 108.345 174.42 109.318C175.415 111.402 176.188 113.463 176.877 115.635C177.539 117.753 178.146 119.9 178.697 122.075C179.717 126.4 180.431 130.813 180.813 135.261C180.977 137.5 181.002 139.741 180.833 142.014C180.721 143.165 180.608 144.315 180.33 145.415C180.191 145.965 179.997 146.543 179.857 147.093L179.524 147.948L179.135 148.694C178.053 150.823 176.583 152.605 174.864 154.173C173.2 155.713 171.315 157.094 169.403 158.283C165.55 160.609 161.421 162.393 157.182 163.825C152.943 165.257 148.622 166.39 144.356 167.357C140.006 168.299 135.657 169.105 131.309 169.773C131.059 169.833 130.81 169.62 130.755 169.375C130.617 169.378 130.783 169.156 131.032 169.096Z" fill="black"/>
<path d="M209.715 88.2392L209.787 87.3122L209.85 86.873L209.958 86.3768L210.375 84.2289C210.653 82.7971 210.984 81.4152 211.31 79.9795C211.968 77.162 212.777 74.3868 213.635 71.6076C214.492 68.8283 215.403 66.0988 216.358 63.3117C216.796 62.0298 217.127 60.6484 217.267 59.3361C217.407 58.0237 217.396 56.6688 216.873 55.6806C216.816 55.5767 216.754 55.4192 216.701 55.3693C216.643 55.2655 216.585 55.1618 216.43 55.0658L216.111 54.7658C216.004 54.6659 215.898 54.5659 215.796 54.5199C215.583 54.3201 215.281 54.2358 215.068 54.0359C214.766 53.9516 214.509 53.8095 214.207 53.7252C213.048 53.3841 211.671 53.3861 210.307 53.5494C208.943 53.7127 207.543 54.0412 206.143 54.3699C204.694 54.7026 203.343 55.0279 201.948 55.4106C196.414 56.9373 191.186 59.1985 186.423 62.3443C185.258 63.1422 184.093 63.94 182.985 64.8417C181.824 65.6936 180.819 66.6412 179.666 67.6007C178.559 68.5025 177.5 69.4008 176.65 70.4446C175.795 71.4346 175.104 72.6283 175.423 73.5245C175.568 74.1092 175.865 74.7359 176.153 75.2551C176.264 75.4088 176.268 75.4628 176.428 75.6127L176.756 76.0201L177.461 76.8309C178.383 77.8957 179.35 78.9028 180.446 79.6826C181.546 80.5162 182.78 81.1768 184.058 81.7794C184.724 82.1056 185.336 82.3815 185.94 82.5501C186.549 82.7725 187.197 82.8837 187.783 82.8369C188.374 82.8438 188.948 82.635 189.468 82.3766C189.984 82.0643 190.442 81.6483 190.891 81.1245C191.791 80.0767 192.526 78.8252 193.465 77.6659C194.404 76.5065 195.588 75.3277 197.166 74.7678C197.93 74.4898 198.757 74.3691 199.548 74.4143C199.943 74.4369 200.338 74.4599 200.685 74.4865C201.084 74.5629 201.431 74.5894 201.83 74.6659C202.581 74.8228 203.345 75.1412 204.068 75.5713C204.742 76.0053 205.332 76.6084 205.78 77.2774C206.675 78.6154 206.996 80.162 207.163 81.6125C207.329 83.0629 207.349 84.5253 207.604 85.8603C207.754 86.4989 207.957 87.1873 208.334 87.5909C208.498 87.7946 208.756 87.9363 209.009 88.0245C209.16 88.0667 209.311 88.1089 209.457 88.0972C209.56 88.1433 209.613 88.1931 209.715 88.2392ZM210.318 89.0042C210.078 89.0776 209.735 89.1049 209.438 89.0745C209.238 89.0363 209.038 88.9981 208.79 88.9638C208.386 88.8335 207.973 88.5957 207.653 88.296C207.01 87.6426 206.799 86.8462 206.64 86.0999C206.323 84.6073 206.303 83.1448 206.092 81.7521C205.881 80.3594 205.573 78.9749 204.801 77.9523C204.416 77.441 203.986 76.9871 203.418 76.653C202.849 76.319 202.241 76.0965 201.593 75.9857C201.291 75.9014 200.944 75.8752 200.598 75.8487C200.252 75.8222 199.905 75.7956 199.563 75.823C198.923 75.8199 198.243 75.9284 197.67 76.1368C196.474 76.5577 195.518 77.5014 194.672 78.5991C193.826 79.6968 193.14 80.9445 192.156 82.1617C191.662 82.7433 191.07 83.3329 190.367 83.7686C189.665 84.2042 188.753 84.4939 187.918 84.5065C186.203 84.5894 184.672 83.8984 183.345 83.2998C182.017 82.7011 180.682 81.9951 179.426 81.0654C178.175 80.1896 177.053 79.0865 176.077 77.9718L175.368 77.1068L175.04 76.6994L174.823 76.4457C174.765 76.3419 174.707 76.238 174.654 76.1881C174.202 75.4652 173.901 74.7846 173.636 73.9384C173.57 73.7268 173.553 73.5112 173.486 73.2997C173.469 73.0842 173.443 72.7608 173.523 72.5375C173.586 72.0988 173.698 71.6563 173.912 71.2597C174.242 70.4743 174.732 69.839 175.221 69.2035C176.205 67.9863 177.357 67.0263 178.461 66.0707C180.623 64.2172 182.923 62.2442 185.351 60.6405C190.248 57.3215 195.76 54.9292 201.436 53.3369C202.831 52.9543 204.276 52.5675 205.676 52.2387C207.075 51.9099 208.524 51.5776 210.084 51.3987C211.594 51.2237 213.211 51.1484 214.823 51.6159C215.223 51.6923 215.631 51.8765 216.04 52.0608C216.404 52.3027 216.808 52.4333 217.127 52.733C217.287 52.8829 217.491 52.9749 217.65 53.1248L218.081 53.5785C218.24 53.7284 218.355 53.936 218.515 54.0859C218.679 54.2897 218.794 54.4969 218.861 54.7084C219.635 56.3814 219.57 58.013 219.448 59.5408C219.276 61.0725 218.954 62.5623 218.432 64.0136C217.472 66.7469 216.61 69.4724 215.748 72.1978L213.22 80.4775C212.791 81.8672 212.358 83.2031 211.88 84.5967L211.161 86.6602L210.956 87.1642L210.711 87.7805C210.599 88.2231 210.434 88.6154 210.318 89.0042Z" fill="black"/>
<path d="M215.71 67.3682C214.843 67.6005 214.016 67.7212 213.185 67.7877C212.354 67.8543 211.518 67.8668 210.732 67.8755C209.105 67.8428 207.434 67.8681 205.82 67.9973C202.54 68.2056 199.322 68.5716 196.187 69.3655C193.048 70.1054 189.997 71.327 187.279 73.0104C186.629 73.4967 185.922 73.8791 185.272 74.3655C184.675 74.9018 183.972 75.3379 183.429 75.9242C182.886 76.5106 182.289 77.0471 181.697 77.6374L180.125 79.5C179.943 79.6775 179.654 79.7549 179.441 79.5548C179.281 79.4048 179.21 79.1392 179.344 78.9656C181.127 76.0543 183.535 73.5814 186.33 71.6205C189.178 69.7096 192.362 68.3146 195.631 67.3472C198.903 66.4338 202.308 65.944 205.687 65.7278C207.402 65.6448 209.069 65.5656 210.744 65.5943C212.42 65.623 214.104 65.7595 215.734 66.4433C215.987 66.5316 216.111 66.8475 216.031 67.0711C215.995 67.2368 215.906 67.3525 215.71 67.3682Z" fill="black"/>
<path d="M255.833 101.036C255.864 100.626 255.845 100.161 255.929 99.7544C255.944 99.5495 255.963 99.2938 256.031 99.0927L256.126 98.5321C256.236 97.7674 256.398 97.0073 256.557 96.2976C256.879 94.827 257.257 93.3087 257.684 91.8459C258.537 88.9203 259.598 86.0617 260.708 83.2581L264.137 74.9054C264.715 73.5568 265.247 72.1018 266.042 70.6662C266.834 69.2818 267.788 67.8584 269.396 66.8949C269.618 66.7567 269.784 66.6653 270.002 66.5783L270.329 66.4485C270.439 66.405 270.601 66.365 270.762 66.3254C271.301 66.2105 271.827 66.25 272.249 66.281C273.14 66.3983 273.964 66.7165 274.683 67.0271C276.168 67.7034 277.537 68.5255 278.793 69.4425C281.248 71.3239 283.545 73.1934 285.887 75.1695C288.229 77.1455 290.454 79.2676 292.454 81.5791C294.453 83.8906 296.218 86.4946 297.777 89.0313C298.581 90.3272 299.385 91.6225 300.132 92.9657C300.88 94.309 301.57 95.6996 302.092 97.2323C302.298 98.0204 302.609 98.8167 302.363 99.9836C302.072 101.044 301.439 101.719 300.814 102.291C299.567 103.384 298.133 104.154 296.706 104.822C295.279 105.49 293.811 106 292.347 106.459C290.882 106.918 289.373 107.27 287.819 107.516C287.017 107.611 286.215 107.707 285.324 107.589C284.485 107.476 283.706 107.264 282.886 106.895C282.119 106.529 281.367 105.958 280.837 105.249C280.304 104.591 279.939 103.792 279.624 103.047C279.103 101.514 278.845 100.001 278.47 98.6337C278.099 97.2151 277.559 95.9387 276.683 94.8951C274.932 92.808 271.798 92.2171 268.95 92.0586C267.576 92.0089 266.218 92.4749 265.347 93.4928C264.424 94.5068 263.899 95.8591 263.371 97.2629C263.107 97.9648 262.843 98.6671 262.469 99.4124C262.1 100.107 261.674 100.848 260.894 101.357C260.167 101.871 259.2 102.057 258.414 101.947C257.992 101.916 257.575 101.834 257.214 101.704L256.901 101.63C256.8 101.571 256.642 101.559 256.54 101.5C256.288 101.327 256.036 101.154 255.833 101.036ZM256.662 100.581C256.82 100.593 256.929 100.55 257.03 100.609C257.083 100.612 257.136 100.616 257.185 100.671L257.444 100.743C257.809 100.821 258.121 100.895 258.49 100.922C259.175 100.973 259.822 100.815 260.327 100.44C260.832 100.065 261.194 99.473 261.507 98.8262C261.82 98.1794 262.084 97.4777 262.295 96.772C262.824 95.3682 263.307 93.858 264.411 92.5482C264.935 91.917 265.662 91.4032 266.482 91.0515C267.303 90.6998 268.105 90.6047 268.951 90.6156C270.539 90.6296 272.063 90.7933 273.617 91.2685C275.121 91.6886 276.648 92.5231 277.776 93.7398C278.313 94.3463 278.79 95.0507 279.158 95.7992C279.526 96.5477 279.736 97.2851 279.999 98.0258C280.418 99.4995 280.676 101.012 281.16 102.336C281.644 103.66 282.414 104.696 283.591 105.247C284.156 105.494 284.833 105.647 285.514 105.749C286.089 105.843 286.838 105.743 287.535 105.64C290.376 105.18 293.256 104.207 295.94 103.013C297.258 102.389 298.531 101.659 299.551 100.756C300.06 100.329 300.418 99.7885 300.554 99.3863C300.562 99.2838 300.569 99.1815 300.577 99.079L300.555 98.6648C300.472 98.3496 300.443 98.0388 300.307 97.7197C299.876 96.3997 299.178 95.1112 298.479 93.8231C297.781 92.535 296.973 91.2905 296.169 89.9946C294.558 87.4541 292.939 85.0154 290.985 82.8103C289.087 80.5578 286.907 78.5423 284.614 76.6214C282.32 74.7004 279.918 72.8227 277.617 71.0042C276.463 70.1462 275.195 69.3834 273.913 68.8251C273.296 68.5735 272.627 68.3176 272.047 68.2749C271.419 68.177 271.201 68.2644 270.594 68.5804C269.596 69.1767 268.718 70.2968 268.096 71.5391C267.421 72.7775 266.897 74.1299 266.312 75.581L262.934 83.9375C261.825 86.7412 260.772 89.4971 259.715 92.3047C259.239 93.7123 258.711 95.1163 258.235 96.524C257.971 97.2259 257.76 97.9312 257.548 98.637L257.405 99.1417C257.34 99.2915 257.333 99.3944 257.269 99.5443L256.662 100.581Z" fill="black"/>
<path d="M264.463 77.6547C266.126 78.0865 267.551 78.8615 268.912 79.7863C270.274 80.7111 271.635 81.6364 272.943 82.5573C275.609 84.4544 278.211 86.5006 280.643 88.6896C283.072 90.9298 285.383 93.3158 287.36 95.935C289.336 98.5541 291.083 101.414 292.34 104.444C292.427 104.708 292.302 104.956 292.084 105.043C291.865 105.13 291.606 105.06 291.463 104.843C289.98 102.003 288.165 99.3445 286.068 96.9226C284.023 94.5046 281.7 92.2713 279.261 90.1848C276.821 88.0984 274.264 86.1584 271.647 84.3165C270.338 83.3956 268.977 82.4701 267.665 81.6004C267.01 81.14 266.304 80.6756 265.706 80.1678C265.055 79.6561 264.461 79.0974 263.932 78.3884C263.789 78.1718 263.812 77.8641 264.038 77.6747C264.147 77.6312 264.309 77.5918 264.463 77.6547Z" fill="black"/>
<path d="M214.392 52.6841C214.976 53.233 215.073 53.8209 215.071 54.4168L215.068 56.2044C215.065 57.3962 215.01 58.5381 214.91 59.7377C214.706 62.0832 214.404 64.4366 213.752 66.7097C213.677 66.9866 213.441 67.1138 213.189 67.0258C212.99 66.9877 212.826 66.784 212.857 66.5648C212.867 64.235 212.929 61.9552 212.889 59.6294L212.857 56.1659L212.816 54.4358C212.817 53.8399 212.92 53.2897 213.413 52.7084C213.688 52.4696 214.078 52.4386 214.392 52.6841C214.392 52.6841 214.344 52.688 214.392 52.6841Z" fill="black"/>
<path d="M210.147 52.538C210.73 53.0869 210.875 53.6712 210.878 54.3209C210.877 54.9168 210.876 55.5126 210.875 56.1085C210.873 57.3003 210.773 58.4997 210.721 59.6954C210.517 62.0408 210.216 64.3945 209.715 66.7097C209.687 66.9827 209.403 67.1136 209.155 67.0794C208.956 67.0413 208.793 66.8375 208.775 66.6223C208.634 64.2505 208.643 61.9207 208.652 59.591C208.659 58.453 208.661 57.2615 208.668 56.1236C208.669 55.5277 208.626 54.9894 208.627 54.3935C208.628 53.7976 208.683 53.2515 209.22 52.6125C209.438 52.27 209.828 52.2386 210.147 52.538C210.142 52.4842 210.094 52.4881 210.147 52.538Z" fill="black"/>
<path d="M205.619 53.7713C206.198 54.2663 206.339 54.7966 206.382 55.3347L206.463 56.953C206.5 58.0332 206.489 59.1173 206.478 60.2014C206.408 62.3736 206.186 64.5036 205.77 66.6493C205.743 66.9223 205.459 67.0533 205.211 67.0191C205.011 66.9809 204.848 66.7775 204.835 66.6161C204.614 64.4675 204.542 62.361 204.423 60.2584L204.265 57.0753L204.189 55.5111C204.146 54.973 204.253 54.4767 204.746 53.8954C204.919 53.6107 205.358 53.5756 205.619 53.7713Z" fill="black"/>
<path d="M201.408 54.6538C201.988 55.1488 202.124 55.6252 202.163 56.1095L202.235 57.6202C202.269 58.6466 202.297 59.6189 202.331 60.6454C202.345 62.6483 202.309 64.6554 202.079 66.6779C202.052 66.9509 201.822 67.1321 201.574 67.0979C201.374 67.0597 201.215 66.9096 201.149 66.6983C200.746 64.7267 200.484 62.69 200.275 60.7028C200.193 59.6803 200.067 58.7152 200.033 57.6888L199.912 56.1821C199.874 55.6978 199.976 55.148 200.474 54.6205C200.753 54.4356 201.147 54.4581 201.408 54.6538Z" fill="black"/>
<path d="M197.568 55.8832C198.187 56.2666 198.324 56.7432 198.415 57.2774C198.454 57.7617 198.493 58.2461 198.532 58.7304C198.61 59.699 198.59 60.6757 198.571 61.6522C198.531 63.6051 198.337 65.4621 198.049 67.3809C198.022 67.6538 197.743 67.8386 197.49 67.7506C197.291 67.7124 197.132 67.5628 197.115 67.3476C196.813 65.4221 196.71 63.5345 196.559 61.651C196.486 60.7362 196.408 59.768 196.335 58.8532C196.296 58.3689 196.261 57.9381 196.173 57.4577C196.134 56.9734 196.197 56.5353 196.646 56.0118C196.917 55.7192 197.307 55.6875 197.568 55.8832Z" fill="black"/>
<path d="M193.448 57.8955C194.063 58.2251 194.248 58.6974 194.331 59.124L194.488 60.4655C194.61 61.3764 194.635 62.2952 194.704 63.1563C194.798 64.9361 194.843 66.7199 194.795 68.5653C194.768 68.8383 194.586 69.0159 194.294 69.0394C194.099 69.0551 193.939 68.9053 193.873 68.6939C193.292 66.9533 192.999 65.1353 192.71 63.3712C192.588 62.4602 192.421 61.6068 192.303 60.7496L192.102 59.4662C192.019 59.0396 192.082 58.6012 192.53 58.0777C192.748 57.7352 193.138 57.7037 193.448 57.8955Z" fill="black"/>
<path d="M189.833 59.487C190.448 59.8166 190.625 60.1817 190.708 60.6083L190.905 61.8381C191.072 62.6913 191.136 63.4986 191.254 64.3558C191.437 66.0201 191.62 67.6847 191.612 69.4185C191.634 69.6876 191.403 69.8685 191.11 69.8921C190.915 69.9077 190.756 69.7583 190.694 69.6007L190.69 69.5466C190.072 67.9714 189.646 66.3265 189.268 64.6778C189.106 63.8785 188.89 63.0294 188.728 62.23L188.482 61.0041C188.399 60.5775 188.462 60.1389 188.915 59.6692C189.137 59.3805 189.523 59.2952 189.833 59.487Z" fill="black"/>
<path d="M186.449 61.4939C187.065 61.8236 187.241 62.1887 187.325 62.6153L187.522 63.8451C187.684 64.6446 187.749 65.4521 187.867 66.3093C188.049 67.9737 188.228 69.5839 188.216 71.264C188.237 71.5331 188.006 71.7146 187.714 71.7381C187.519 71.7538 187.359 71.6038 187.249 71.4502C186.632 69.8749 186.209 68.2841 185.783 66.6393C185.62 65.8398 185.409 65.044 185.242 64.1908L184.997 62.9649C184.913 62.5382 184.981 62.154 185.429 61.6304C185.754 61.3877 186.144 61.356 186.449 61.4939Z" fill="black"/>
<path d="M177.348 68.9395C177.959 69.2154 178.189 69.6303 178.272 70.057L178.567 71.279C178.778 72.0745 178.945 72.9276 179.107 73.727C179.436 75.3797 179.814 77.0287 180.002 78.7469C180.023 79.016 179.845 79.2467 179.601 79.2663C179.406 79.282 179.202 79.19 179.141 79.0325C178.328 77.4728 177.759 75.8938 177.186 74.2607C176.926 73.4691 176.662 72.6236 176.446 71.7743L176.148 70.4986C176.064 70.072 176.078 69.6375 176.527 69.1139C176.652 68.8331 177.042 68.8016 177.348 68.9395Z" fill="black"/>
<path d="M180.116 66.6072C180.727 66.8831 180.952 67.2441 181.031 67.6169L181.273 68.7893C181.431 69.5349 181.593 70.3342 181.751 71.0798C182.023 72.6288 182.246 74.1818 182.274 75.7504C182.296 76.0195 182.069 76.2543 181.821 76.2201C181.626 76.2358 181.466 76.0863 181.356 75.9327C180.698 74.4689 180.187 72.9931 179.724 71.5136C179.517 70.7719 179.262 70.0343 179.099 69.2348L178.813 68.1205C178.734 67.7477 178.749 67.3128 179.202 66.8431C179.424 66.5544 179.814 66.5231 180.116 66.6072Z" fill="black"/>
<path d="M183.016 64.0986C183.672 64.3167 183.893 64.6242 184.025 65.0469L184.315 66.2154C184.522 66.9571 184.636 67.7603 184.794 68.506C185.017 70.0589 185.187 71.5617 185.263 73.1264C185.285 73.3955 185.058 73.6306 184.814 73.6502C184.619 73.6659 184.46 73.5164 184.349 73.3628C183.647 71.9567 183.229 70.4191 182.771 68.9934L182.155 66.8223L181.824 65.7655C181.696 65.3966 181.715 65.016 182.115 64.4964C182.377 64.0961 182.715 64.0145 183.016 64.0986Z" fill="black"/>
<path d="M274.302 68.2625C274.509 69.0348 274.312 69.5442 274.062 70.0527L273.215 71.4747C272.667 72.4398 272.07 73.3526 271.469 74.3168C270.323 76.1949 269.178 78.0728 268.085 79.9518C267.964 80.1549 267.692 80.2532 267.435 80.1465C267.232 80.0407 267.141 79.8342 267.209 79.6303C267.743 77.4347 268.693 75.3482 269.691 73.314C270.191 72.2968 270.739 71.3319 271.287 70.3668L272.081 68.9444C272.327 68.4871 272.731 68.0322 273.486 67.8393C273.864 67.7429 274.223 67.9024 274.302 68.2625Z" fill="black"/>
<path d="M278.404 70.5253C278.687 71.2853 278.535 71.802 278.323 72.367L277.643 73.9005C277.171 74.9214 276.642 75.9382 276.17 76.9592C275.112 78.9927 273.946 80.9653 272.619 82.8206C272.491 83.0223 272.145 83.1028 271.932 82.9286C271.771 82.8112 271.674 82.5928 271.746 82.387C272.525 80.2801 273.418 78.1812 274.254 76.0785C274.726 75.0576 275.146 73.9802 275.562 72.9551L276.242 71.4216C276.45 70.909 276.771 70.405 277.527 70.144C277.876 70.0115 278.259 70.1979 278.404 70.5253Z" fill="black"/>
<path d="M300.798 96.3709C301.072 96.9576 300.993 97.3125 300.812 97.6082L300.269 98.4956C299.907 99.087 299.493 99.6743 299.131 100.266C298.303 101.441 297.53 102.568 296.499 103.625C296.326 103.819 296.006 103.846 295.811 103.626C295.66 103.512 295.623 103.303 295.687 103.153C296.106 101.793 296.732 100.5 297.354 99.2584C297.667 98.6119 297.976 98.0173 298.341 97.3747L298.887 96.4362C299.068 96.1405 299.351 95.9034 299.99 95.8476C300.358 95.8748 300.663 96.0519 300.798 96.3709Z" fill="black"/>
<path d="M299.075 93.2023C299.285 93.9388 299.085 94.4907 298.84 94.9361L297.992 96.3673C297.446 97.3054 296.847 98.2395 296.252 99.1226C295.058 100.94 293.864 102.757 292.569 104.516C292.396 104.709 292.125 104.792 291.926 104.623C291.776 104.509 291.686 104.296 291.754 104.095C292.493 101.987 293.484 100.052 294.475 98.1164C295.021 97.1782 295.518 96.1845 296.065 95.2464L296.86 93.8114C297.108 93.3148 297.507 92.9328 298.263 92.7311C298.64 92.6558 298.996 92.8361 299.075 93.2023Z" fill="black"/>
<path d="M296.969 90.1128C297.179 90.8493 297.036 91.3541 296.738 91.7957L295.951 93.1277C295.408 94.0147 294.866 94.9019 294.323 95.7889C293.186 97.559 291.995 99.3251 290.708 100.981C290.534 101.174 290.267 101.207 290.064 101.089C289.914 100.974 289.828 100.711 289.892 100.561C290.673 98.6099 291.611 96.6698 292.546 94.7817C293.039 93.8396 293.533 92.8977 294.076 92.0107L294.867 90.6276C295.112 90.1822 295.514 89.7478 296.214 89.5934C296.485 89.5104 296.838 89.7426 296.969 90.1128Z" fill="black"/>
<path d="M295.101 86.6803C295.258 87.4129 295.115 87.9177 294.817 88.3593L293.981 89.6365C293.439 90.5235 292.847 91.3557 292.252 92.2389C291.066 93.9539 289.827 95.6646 288.441 97.2105C288.268 97.4037 287.949 97.4312 287.749 97.262C287.603 97.0967 287.566 96.8882 287.634 96.6872C288.516 94.7952 289.499 92.9624 290.479 91.1806C291.021 90.2936 291.515 89.3515 292.057 88.4645L292.897 87.1363C293.195 86.6948 293.541 86.3075 294.293 86.157C294.666 86.133 295.019 86.3652 295.101 86.6803Z" fill="black"/>
<path d="M292.36 83.5939C292.517 84.3265 292.269 84.8236 291.971 85.2652L291.026 86.5857C290.431 87.4688 289.783 88.3483 289.135 89.2276C287.839 90.9861 286.548 92.6935 285.102 94.3379C284.929 94.5312 284.609 94.5587 284.41 94.3895C284.263 94.2242 284.226 94.0156 284.294 93.8146C285.236 91.824 286.276 89.9438 287.369 88.0672C287.915 87.129 288.514 86.1948 289.109 85.3116L290.006 83.9353C290.303 83.4937 290.703 83.1113 291.507 82.9647C291.981 82.9996 292.334 83.2315 292.36 83.5939Z" fill="black"/>
<path d="M289.312 79.6585C289.522 80.395 289.371 81.0016 289.07 81.4943L288.215 83.0275C287.665 84.0169 287.062 85.0024 286.459 85.9879C285.258 87.9076 284.004 89.8233 282.648 91.6802C282.475 91.8734 282.204 91.9568 282.005 91.7877C281.802 91.6697 281.765 91.461 281.833 91.26C282.628 89.1043 283.631 87.0155 284.682 84.9817C285.232 83.9923 285.733 82.947 286.283 81.9577L287.082 80.4716C287.331 79.975 287.733 79.5412 288.441 79.2844C288.824 79.1067 289.234 79.2923 289.312 79.6585Z" fill="black"/>
<path d="M285.927 76.628C286.189 77.3683 285.989 77.9199 285.737 78.4677L284.885 79.9499C284.335 80.9393 283.736 81.8738 283.134 82.8593C281.932 84.7791 280.686 86.5928 279.383 88.4536C279.21 88.6468 278.939 88.7292 278.74 88.56C278.537 88.4421 278.5 88.2333 278.567 88.0323C279.311 85.8727 280.362 83.8386 281.356 81.8521L282.954 78.88L283.753 77.394C284.001 76.8973 284.352 76.4597 285.111 76.2067C285.386 76.0725 285.796 76.2578 285.927 76.628C285.927 76.628 285.878 76.5729 285.927 76.628Z" fill="black"/>
<path d="M282.547 74.2668C282.757 75.0032 282.61 75.558 282.312 75.9996L281.468 77.3797L279.785 80.0879C278.651 81.8068 277.709 83.797 276.308 85.5476C276.135 85.7409 275.868 85.7733 275.616 85.6002C275.466 85.4861 275.38 85.2223 275.497 85.0764C276.33 83.1294 276.956 81.1154 278.004 79.1327C278.501 78.1395 279.047 77.2007 279.59 76.3137L280.381 74.9307C280.626 74.4853 281.028 74.0509 281.728 73.8965C282.059 73.7149 282.416 73.8966 282.547 74.2668Z" fill="black"/>
<path d="M169.63 82.2149C167.815 79.7369 166.076 77.184 164.563 74.4807C163.807 73.1291 163.127 71.7027 162.522 70.2759C161.917 68.8492 161.463 67.2723 161.085 65.7705C160.707 64.1936 160.556 62.6168 160.48 61.0399C160.48 60.2139 160.404 59.4629 160.48 58.6369C160.48 57.886 160.556 56.9848 160.707 56.2338C161.009 54.6569 161.463 53.1554 161.917 51.6536C162.37 50.1518 162.976 48.7245 163.505 47.2978C164.715 44.4443 166 41.5915 167.437 38.8882C168.193 37.5366 168.949 36.1096 169.857 34.833C170.689 33.4814 171.672 32.2802 172.655 31.0037C174.621 28.6008 176.738 26.2729 179.007 24.0952C181.276 21.9176 183.62 19.8897 186.04 18.0125C188.535 16.1352 191.031 14.3333 193.677 12.6813C196.324 11.0293 199.047 9.52751 201.845 8.17588C203.281 7.50007 204.718 6.89934 206.155 6.29862C206.533 6.14844 206.911 5.99855 207.289 5.84837L208.499 5.47292C209.255 5.24764 210.087 5.09732 210.843 4.94714C214.019 4.4215 217.12 4.34656 220.296 4.34656C226.572 4.49674 232.698 5.2472 238.823 6.14829C244.948 7.04938 250.998 8.25112 257.047 9.45257C263.097 10.654 269.146 12.0052 275.12 13.8825C281.094 15.6846 286.841 18.1628 292.135 21.5419C297.428 24.8458 302.193 29.0514 305.974 34.0073C309.83 38.8882 312.93 44.3692 314.972 50.3014C317.014 56.1585 317.846 62.3913 317.922 68.6238C317.922 74.7812 317.165 80.9386 315.955 87.021C315.35 90.0246 314.67 93.0282 313.763 96.0319C312.855 99.0355 311.721 101.889 310.36 104.667C308.923 107.446 307.259 110.074 305.066 112.401C302.949 114.729 300.226 116.606 297.201 117.507C296.975 117.583 296.672 117.433 296.597 117.208C296.521 116.982 296.673 116.682 296.899 116.607C299.773 115.706 302.268 113.903 304.234 111.651C306.276 109.398 307.864 106.845 309.225 104.141C310.587 101.438 311.645 98.5849 312.477 95.6564C313.233 92.7279 313.914 89.7239 314.519 86.7203C315.653 80.7131 316.409 74.7061 316.258 68.6238C316.182 67.122 316.182 65.6202 316.031 64.1184L315.804 61.8656L315.426 59.6129L315.275 58.4866L315.048 57.3602L314.594 55.1823C314.443 54.4314 314.141 53.756 313.989 53.0051C313.762 52.2542 313.611 51.5781 313.308 50.8272C311.267 45.1203 308.318 39.7889 304.537 35.0582C300.756 30.3275 296.143 26.2726 291.076 23.0437C285.934 19.8148 280.263 17.4871 274.44 15.6849C268.617 13.8828 262.568 12.6061 256.594 11.4046C250.544 10.2032 244.494 9.07697 238.445 8.17588C232.395 7.2748 226.27 6.59913 220.144 6.44895C217.12 6.44895 214.095 6.52418 211.146 6.97473C210.389 7.12491 209.709 7.19971 209.028 7.42498L207.969 7.72563C207.591 7.80072 207.289 8.026 206.911 8.10109C205.474 8.62672 204.113 9.3021 202.752 9.90282C200.029 11.2544 197.383 12.6815 194.812 14.3335C192.241 15.9854 189.745 17.7125 187.325 19.5898C184.981 21.4671 182.637 23.4945 180.444 25.597C178.251 27.6996 176.209 29.9519 174.318 32.2797C173.411 33.4811 172.504 34.6829 171.672 35.9594C170.84 37.1608 170.084 38.5122 169.403 39.7887C167.966 42.492 166.681 45.1955 165.547 47.9739C164.942 49.4006 164.412 50.7519 163.959 52.1787C163.505 53.6054 163.051 55.0323 162.824 56.459C162.673 57.2099 162.597 57.8105 162.597 58.5614C162.522 59.3123 162.522 60.0635 162.522 60.7393C162.522 62.2411 162.673 63.6681 162.975 65.1699C163.202 66.5966 163.58 68.0228 164.11 69.4495C164.563 70.8762 165.169 72.2278 165.849 73.5795C167.135 76.2827 168.798 78.9113 170.311 81.5395C170.462 81.7648 170.386 82.0647 170.159 82.2149C170.084 82.4402 169.781 82.3651 169.63 82.2149Z" fill="black"/>
<path d="M60.659 95.2797C57.9366 98.3584 54.9872 101.212 52.1892 104.065C49.3156 106.919 46.5934 109.922 44.0222 113.076C38.9556 119.384 34.5694 126.292 31.7714 133.801C28.8978 141.31 27.8391 149.495 28.8222 157.454C29.3516 161.434 30.2591 165.414 31.5447 169.244C32.9058 173.073 34.5696 176.753 36.5358 180.357C36.687 180.582 36.6112 180.882 36.3087 180.958C36.0818 181.108 35.7795 181.033 35.7038 180.808C31.469 173.749 28.3687 165.939 27.1588 157.68C26.0244 149.42 27.0075 140.935 29.8055 133.126C32.6035 125.316 37.1408 118.183 42.2831 111.725C44.8542 108.496 47.6522 105.417 50.6014 102.488C53.5507 99.5595 56.6509 96.8566 60.1295 94.5288C60.3563 94.3786 60.6591 94.4538 60.8104 94.6791C60.886 94.9044 60.8102 95.1295 60.659 95.2797Z" fill="black"/>
<path d="M74.1957 91.3723C70.339 93.7752 66.6335 96.3281 63.155 99.1065C59.6008 101.885 56.2738 104.964 53.249 108.268C50.2242 111.572 47.426 115.176 45.0818 119.006C44.4768 119.907 43.9477 120.958 43.4184 121.934L42.6621 123.436C42.4353 123.962 42.1325 124.412 41.9813 124.938C41.1494 126.965 40.4692 129.068 40.0154 131.246C39.0324 135.601 38.5786 140.106 38.503 144.612C38.4274 149.117 38.6542 153.623 39.1835 158.128C39.7129 162.634 40.4689 167.064 41.6032 171.419C42.7375 175.775 44.0989 180.13 46.0651 184.185C46.2163 184.41 46.0648 184.71 45.838 184.785C45.6111 184.861 45.3088 184.786 45.2332 184.56C43.1158 180.505 41.5278 176.15 40.3178 171.719C39.1079 167.289 38.2003 162.784 37.5197 158.279C36.9148 153.698 36.6125 149.117 36.6125 144.536C36.6125 139.956 36.9905 135.3 37.9735 130.795C38.5029 128.542 39.108 126.29 40.0154 124.112C40.2423 123.587 40.4692 123.061 40.7716 122.535C40.9985 122.009 41.301 121.484 41.5278 120.958C42.1328 119.982 42.662 118.931 43.267 117.955C45.6868 113.975 48.4848 110.295 51.5852 106.916C54.6857 103.462 58.0129 100.309 61.7183 97.4551C65.3481 94.6016 69.356 92.1232 73.8176 90.6214C74.0444 90.5463 74.3471 90.6968 74.4228 90.922C74.4228 90.9971 74.3469 91.2221 74.1957 91.3723Z" fill="black"/>
<path d="M122.063 80.3343C126.297 81.1602 130.381 82.4368 134.313 84.0888C136.279 84.9148 138.245 85.8163 140.212 86.7925C141.195 87.3181 142.102 87.8435 143.009 88.3691L144.371 89.1955L145.732 90.096C152.916 94.8267 159.495 100.609 164.713 107.517C167.284 110.971 169.477 114.726 171.216 118.63C172.88 122.61 174.165 126.74 174.77 131.02C176.056 139.581 174.619 148.367 171.291 156.251C171.216 156.477 170.914 156.627 170.687 156.476C170.46 156.401 170.309 156.101 170.46 155.876C171.972 151.971 172.955 147.841 173.485 143.711C174.014 139.581 173.863 135.376 173.182 131.246C172.577 127.116 171.216 123.136 169.552 119.381C167.813 115.627 165.62 112.023 163.049 108.719C157.982 102.111 151.63 96.479 144.522 91.8985L143.161 91.0728L141.799 90.2464C140.892 89.7207 139.985 89.1951 139.077 88.7445C137.262 87.7684 135.296 86.9424 133.33 86.1164C129.473 84.5395 125.465 83.038 121.609 81.1607C121.382 81.0105 121.306 80.7854 121.382 80.5601C121.684 80.4099 121.836 80.2592 122.063 80.3343Z" fill="black"/>
<path d="M114.578 80.9386C118.813 81.6895 122.972 83.2658 126.753 85.2182C130.61 87.2456 134.239 89.5736 137.718 92.1266C139.457 93.4032 141.121 94.7546 142.785 96.1063C143.616 96.7821 144.448 97.4585 145.204 98.2094C146.036 98.9603 146.792 99.7112 147.548 100.462C150.573 103.541 153.22 107.069 155.413 110.749C157.53 114.503 159.345 118.408 160.706 122.538C162.067 126.593 163.126 130.798 163.731 135.004C163.882 136.055 163.958 137.105 164.109 138.157L164.261 139.734L164.336 141.311C164.336 142.362 164.488 143.413 164.412 144.539L164.336 147.769C164.109 152.049 163.504 156.329 162.294 160.384C162.219 160.609 161.992 160.759 161.69 160.684C161.463 160.609 161.312 160.384 161.387 160.159C162.37 156.104 162.899 151.898 162.975 147.693C163.05 143.488 162.673 139.283 161.992 135.153C161.311 131.023 160.177 126.969 158.816 122.989C157.379 119.084 155.64 115.254 153.522 111.65C151.405 108.046 148.834 104.742 145.96 101.814C145.204 101.138 144.448 100.387 143.692 99.7112C142.86 99.0354 142.104 98.3594 141.272 97.6836C139.684 96.332 138.02 95.055 136.281 93.8536C132.878 91.3756 129.324 89.123 125.619 87.2458L124.258 86.4949L122.821 85.8195C121.913 85.369 120.93 84.9178 119.947 84.4673L114.2 81.8391C113.973 81.764 113.822 81.4638 113.973 81.2386C114.2 81.0133 114.427 80.8635 114.578 80.9386Z" fill="black"/>
<path d="M80.4731 90.4019C77.297 93.6308 73.9695 96.7092 70.7935 99.863C67.6174 103.017 64.5929 106.321 61.9461 109.925C56.6527 117.059 53.7036 125.619 52.1155 134.405C51.2837 138.76 50.9812 143.265 50.9055 147.696C50.9055 152.126 51.1322 156.631 51.8128 161.062C52.4933 165.492 53.401 169.848 54.6865 174.128C55.0646 175.179 55.367 176.306 55.7451 177.282C56.1232 178.333 56.6524 179.309 57.1062 180.285C58.1648 182.238 59.2992 184.19 60.2067 186.293C60.2823 186.518 60.2068 186.818 59.98 186.893C59.7531 186.968 59.4504 186.893 59.3748 186.668C58.3917 184.641 57.1819 182.764 56.0476 180.811C55.5182 179.835 54.9889 178.783 54.5352 177.732C54.0814 176.681 53.7789 175.555 53.4008 174.503C51.9641 170.148 50.9055 165.718 50.1493 161.288C49.3931 156.782 49.0907 152.276 49.0907 147.696C49.0907 143.115 49.3174 138.61 50.0736 134.029C50.8298 129.524 51.9642 125.094 53.5522 120.739C55.1403 116.459 57.4089 112.328 60.0556 108.574C62.778 104.819 65.8027 101.44 69.0544 98.2116C70.6424 96.6347 72.3814 95.0573 74.1207 93.6306C75.86 92.2039 77.7508 90.8524 79.7169 89.651C79.9437 89.5008 80.2462 89.576 80.3974 89.8013C80.6999 90.0266 80.6243 90.2517 80.4731 90.4019Z" fill="black"/>
<path d="M86.9747 88.8217C84.5548 92.5762 81.4546 95.8048 78.5054 99.0337C75.4805 102.188 72.5311 105.417 69.96 108.946C68.6745 110.673 67.4648 112.475 66.4818 114.352C65.4231 116.23 64.6666 118.182 63.9104 120.209C62.5492 124.264 61.7932 128.544 61.4907 132.899C60.8101 141.535 61.7175 150.321 63.3055 158.881L63.9104 162.11L64.5912 165.338C65.045 167.441 65.6499 169.619 66.028 171.797C66.9354 176.077 67.7672 180.432 69.7333 184.261C69.8845 184.487 69.7335 184.787 69.5066 184.862C69.2797 185.012 68.977 184.862 68.9014 184.712C66.6328 180.807 65.7253 176.377 64.7423 172.097C64.2129 169.994 63.6835 167.891 63.1542 165.714L62.3979 162.485L61.7174 159.256C59.9782 150.621 58.9195 141.76 59.4488 132.824C59.7513 128.394 60.5077 123.964 61.8688 119.609C62.625 117.506 63.4569 115.403 64.5156 113.376C65.5742 111.348 66.8596 109.471 68.1452 107.669C70.7919 104.065 73.8167 100.761 76.8416 97.5319C78.354 95.955 79.9421 94.3782 81.4545 92.8014C83.0425 91.2995 84.6304 89.7226 86.2185 88.2959C86.4453 88.1457 86.7481 88.1457 86.8993 88.2959C87.0506 88.4461 87.0503 88.6715 86.9747 88.8217Z" fill="black"/>
<path d="M92.2682 87.3216C89.9996 90.7757 87.7312 94.0046 85.6139 97.4588C83.4965 100.913 81.7573 104.517 80.3205 108.271C77.5226 115.78 76.3883 123.89 76.5396 131.925C76.6152 139.96 77.9763 147.995 79.8667 155.879C81.6816 163.764 84.1013 171.573 86.5968 179.307C86.6724 179.533 86.5212 179.833 86.2944 179.908C86.0675 179.983 85.7652 179.833 85.6896 179.607C82.8917 171.948 80.3204 164.139 78.2787 156.254C76.237 148.295 74.8002 140.185 74.4977 131.925C74.2709 123.665 75.4808 115.33 78.2787 107.52C79.7154 103.616 81.5304 99.8617 83.6477 96.3324C85.8407 92.8032 88.4116 89.4986 91.512 86.7203C91.7389 86.5701 92.0417 86.5705 92.1929 86.7958C92.4197 86.8709 92.4195 87.0963 92.2682 87.3216Z" fill="black"/>
<path d="M95.8222 86.7934C94.9147 90.6231 93.6291 94.2273 92.4191 97.9067C91.2091 101.586 90.0749 105.265 89.1674 109.02C87.3524 116.529 86.2179 124.188 86.3691 131.848C86.4448 139.507 88.0327 147.091 89.999 154.6C90.9821 158.354 91.9652 162.109 93.024 165.864L93.7802 168.642C94.0071 169.543 94.3854 170.444 94.6879 171.345C95.3685 173.147 96.2003 174.949 96.5028 176.977C96.5784 177.202 96.3515 177.503 96.1247 177.503C95.8978 177.578 95.6711 177.352 95.5955 177.127C95.2174 175.325 94.3854 173.523 93.6292 171.796C93.2511 170.895 92.873 169.994 92.5705 169.017L91.7386 166.239C90.6042 162.56 89.3943 158.805 88.4112 155.05C86.3693 147.541 84.554 139.882 84.3271 131.922C84.1002 124.038 85.2347 116.229 87.0497 108.57C87.9572 104.74 89.0162 100.986 90.3018 97.3061C91.5118 93.6267 93.024 89.9474 94.9146 86.5683C95.0658 86.3431 95.3686 86.2678 95.5955 86.418C95.7468 86.3429 95.8222 86.5682 95.8222 86.7934Z" fill="black"/>
<path d="M108.755 81.9116C110.721 82.5123 112.611 83.338 114.426 84.2391C116.241 85.1402 118.056 86.2667 119.72 87.393C121.459 88.5945 123.047 89.871 124.635 91.1476C126.223 92.4992 127.66 93.9261 129.097 95.4279C131.895 98.4315 134.39 101.811 136.507 105.34C138.625 108.869 140.44 112.548 141.952 116.303C143.465 120.057 144.826 123.962 145.885 127.867C146.943 131.772 147.926 135.751 148.607 139.731C150.043 147.691 150.876 155.801 151.178 163.91C151.178 164.136 150.951 164.361 150.724 164.361C150.497 164.361 150.27 164.211 150.27 163.91C149.665 155.876 148.607 147.841 147.019 140.031C146.263 136.126 145.279 132.222 144.145 128.317C143.011 124.488 141.65 120.658 140.137 116.979C138.625 113.3 136.81 109.695 134.768 106.316C132.726 102.862 130.307 99.7079 127.584 96.7793C126.223 95.3526 124.786 94.001 123.274 92.6494C121.761 91.3728 120.173 90.1715 118.51 89.0452C115.258 86.7925 111.78 84.7649 108.377 82.5122C108.15 82.362 108.074 82.0613 108.225 81.8361C108.301 81.9111 108.528 81.8365 108.755 81.9116Z" fill="black"/>
<path d="M104.368 83.6386C107.846 85.4408 111.249 87.6935 114.198 90.3967C117.148 93.1 119.87 96.1036 122.139 99.4076C123.348 100.985 124.332 102.712 125.39 104.439C126.298 106.166 127.281 107.968 128.113 109.77C129.02 111.572 129.701 113.449 130.457 115.251C130.835 116.152 131.138 117.129 131.44 118.03C131.743 119.006 132.045 119.907 132.347 120.883C132.877 122.836 133.406 124.713 133.86 126.665C134.313 128.618 134.616 130.57 134.994 132.447C135.675 136.352 136.28 140.182 136.809 144.086C137.339 147.991 137.792 151.896 138.246 155.8C138.473 157.753 138.624 159.706 138.775 161.658C138.851 163.61 139.002 165.562 138.926 167.59C138.926 167.815 138.699 168.041 138.397 168.041C138.17 168.041 137.944 167.815 137.944 167.59C138.019 165.712 137.792 163.76 137.641 161.808C137.414 159.855 137.187 157.903 136.96 155.951C136.431 152.046 135.826 148.216 135.221 144.312C134.616 140.482 133.935 136.578 133.179 132.748C132.801 130.871 132.423 128.918 131.969 127.041C131.515 125.164 130.911 123.286 130.381 121.409L129.474 118.63C129.171 117.729 128.869 116.754 128.491 115.928C127.735 114.125 127.054 112.323 126.222 110.596C125.466 108.794 124.483 107.142 123.576 105.415C122.593 103.763 121.534 102.111 120.399 100.609C118.131 97.455 115.559 94.602 112.686 92.0489C111.249 90.7723 109.737 89.4954 108.3 88.2188C106.788 86.9423 105.275 85.7414 103.838 84.3147C103.687 84.1645 103.612 83.8639 103.838 83.6386C103.99 83.5635 104.216 83.4884 104.368 83.6386Z" fill="black"/>
<path d="M98.0159 85.6658C98.5453 93.1749 98.3187 100.759 98.6211 108.268C98.6968 112.022 98.8477 115.852 99.0746 119.607C99.1502 121.484 99.3014 123.362 99.4527 125.239C99.6795 127.116 99.9067 128.993 100.134 130.871C101.041 138.38 102.402 145.738 104.293 153.097C106.108 160.456 108.074 167.815 109.586 175.249C109.662 175.474 109.51 175.775 109.208 175.775C108.981 175.85 108.754 175.7 108.679 175.399C107.771 171.72 106.788 168.04 105.729 164.436C104.746 160.756 103.612 157.152 102.629 153.473C100.587 146.114 99.0746 138.68 98.0159 131.096C97.7135 129.218 97.5622 127.341 97.2597 125.464C97.0329 123.512 96.9572 121.634 96.8059 119.757C96.5791 115.927 96.4281 112.173 96.2768 108.418C96.1256 104.589 96.05 100.834 95.9744 97.0042C95.9744 96.0281 95.9744 95.1271 95.9744 94.1509C95.9744 93.1748 96.0498 92.2738 96.1254 91.2976C96.2767 89.4204 96.4279 87.4676 96.8816 85.5903C96.9573 85.365 97.1843 85.2148 97.4868 85.2148C97.8649 85.2899 98.0159 85.4406 98.0159 85.6658Z" fill="black"/>
<path d="M100.663 84.7651C103.007 87.7688 104.973 91.073 106.637 94.4521C108.3 97.8312 109.888 101.285 111.325 104.814C114.199 111.873 116.241 119.232 117.375 126.816C118.434 134.325 119.341 141.759 120.022 149.268C120.702 156.777 121.156 164.286 121.307 171.87C121.307 172.095 121.08 172.32 120.853 172.32C120.627 172.32 120.4 172.095 120.4 171.87C119.946 164.361 119.265 156.852 118.433 149.418C117.602 141.909 116.619 134.475 115.409 127.116C114.274 119.758 112.157 112.548 109.359 105.64C107.922 102.186 106.334 98.8072 104.671 95.4281C103.007 92.0491 101.268 88.7446 99.9065 85.2154C99.8308 84.9901 99.9064 84.6899 100.209 84.6148C100.284 84.5397 100.511 84.615 100.663 84.7651Z" fill="black"/>
</svg>
