<svg width="356" height="271" viewBox="0 0 356 271" fill="none" xmlns="http://www.w3.org/2000/svg">
<path d="M127.647 215.989C125.076 211.484 123.186 206.678 120.993 202.022C120.464 200.896 119.858 199.77 119.253 198.643C118.951 198.118 118.649 197.517 118.346 196.991C118.044 196.466 117.741 195.94 117.362 195.414C115.926 193.462 113.96 191.81 112.22 189.708C111.389 188.656 110.632 187.455 110.179 186.103C109.649 184.677 109.725 183.1 110.028 181.748C110.708 178.97 112.221 176.792 112.75 174.539C113.052 173.413 113.052 172.287 112.75 171.31C112.447 170.409 111.691 169.583 110.708 168.682C110.254 168.232 109.801 167.706 109.347 167.105C108.893 166.505 108.515 165.754 108.288 165.003C107.91 163.426 108.213 161.924 108.439 160.647C108.742 159.371 108.969 158.245 108.818 157.268C108.742 156.818 108.515 156.292 108.288 155.842C108.061 155.391 107.683 154.866 107.305 154.415C106.549 153.439 105.642 152.538 104.81 151.336C103.978 150.135 103.373 148.708 103.449 147.056C103.524 145.404 104.28 144.053 105.037 142.926C105.793 141.8 106.625 140.824 107.23 139.847C107.532 139.322 107.759 138.871 107.91 138.346C107.986 138.12 108.061 137.82 108.061 137.595C108.061 137.445 108.061 137.369 108.061 137.219L108.061 136.844C107.986 135.793 107.532 134.741 106.927 133.69C106.322 132.639 105.566 131.588 104.885 130.386C104.205 129.185 103.675 127.833 103.524 126.331C103.373 124.829 103.902 123.328 104.583 122.051C105.264 120.85 106.095 119.798 106.776 118.747C107.456 117.696 108.062 116.72 108.364 115.668C108.667 114.617 108.515 113.641 108.061 112.59C107.608 111.538 106.852 110.487 106.247 109.361C105.566 108.159 104.961 106.732 105.113 105.081C105.113 104.33 105.415 103.504 105.793 102.828C106.171 102.152 106.7 101.551 107.154 101.101C108.137 100.125 109.12 99.3738 109.877 98.4727C110.255 98.0222 110.481 97.6467 110.633 97.121C110.86 96.5203 111.086 95.9946 111.238 95.3939C111.389 94.8683 111.465 94.2675 111.389 93.8169C111.389 93.3664 111.162 92.9159 110.935 92.3903C110.405 91.339 109.649 90.2877 109.044 88.9361C108.742 88.2602 108.591 87.4342 108.591 86.6833C108.591 85.9324 108.818 85.1064 109.12 84.4306C109.725 83.0039 110.708 82.0277 111.54 81.0516C112.372 80.0754 113.128 79.1744 113.506 78.1983C113.884 77.147 114.111 75.9455 114.187 74.744C114.263 73.5426 114.262 72.266 114.262 70.9895C114.262 68.4364 114.338 65.658 115.472 63.0298C117.741 58.2991 120.539 53.8688 123.64 49.7389C126.74 45.6089 130.143 41.6292 133.924 38.0249C135.814 36.2227 137.781 34.5707 139.52 32.7685C141.259 30.9664 142.847 29.0139 143.83 26.8363C144.888 24.5836 145.796 22.1807 146.476 19.7778C147.157 17.3749 147.687 14.8969 148.216 12.3438C148.746 9.7907 149.426 7.31271 150.333 4.83473C150.56 4.234 150.787 3.63335 151.014 3.03263C151.24 2.43191 151.543 1.83126 151.77 1.23053L151.997 0.779915L152.073 0.554607C152.148 0.479517 151.997 0.629661 152.224 0.329299C152.224 -0.346515 154.341 0.179265 153.888 0.479627C154.039 0.779989 154.038 0.854969 154.038 0.93006L154.114 1.15537L154.114 1.30551L154.114 1.45566L154.719 3.33292L155.854 7.01246C155.929 7.31282 156.081 7.61315 156.156 7.91351C156.232 8.21387 156.307 8.58936 156.383 8.88972C156.534 9.56554 156.61 10.2413 156.685 10.9171C156.912 13.5453 156.761 16.1734 156.685 18.7265C156.685 20.003 156.61 21.2795 156.761 22.481C156.837 23.0817 156.837 23.6825 156.988 24.2833C157.064 24.884 157.214 25.3345 157.441 25.9352C157.895 26.9865 158.652 28.0378 159.408 29.014C159.786 29.5396 160.164 30.0652 160.542 30.5908C160.693 30.8912 160.92 31.1165 161.072 31.4169C161.223 31.7172 161.45 32.0926 161.525 32.2428C162.054 33.1438 163.113 33.8197 164.172 34.7208C164.701 35.1713 165.23 35.7721 165.533 36.4479C165.835 37.1237 166.062 37.8746 166.138 38.5505C166.289 39.9772 166.138 41.3288 166.062 42.5303C165.987 43.7317 166.062 44.9332 166.516 45.9094C167.423 48.0119 169.616 49.5887 171.053 51.9916C171.809 53.193 172.263 54.695 172.263 56.0466C172.339 57.4733 172.188 58.7498 172.112 59.9512C172.036 61.1527 172.188 62.3541 172.641 63.3303C173.171 64.3816 173.851 65.3578 174.607 66.3339C176.195 68.2863 178.162 70.1636 179.296 72.7166C179.901 73.9932 180.128 75.495 180.052 76.8466C180.052 78.1982 179.826 79.5498 179.599 80.7513C179.447 82.0278 179.371 83.2293 179.523 84.3557C179.674 85.482 180.279 86.6083 180.808 87.6596C182.018 89.8372 183.682 91.7896 184.967 94.1174C185.648 95.3189 186.177 96.5203 186.48 97.8719C186.782 99.2236 186.858 100.725 186.48 102.077C185.799 104.855 184.211 106.958 183.53 109.21C182.774 111.538 182.699 114.091 182.547 116.645C182.472 117.921 182.396 119.273 182.169 120.549L181.565 124.379C181.413 125.655 181.262 126.857 181.338 128.058C181.413 129.185 181.867 130.386 182.169 131.663C182.547 132.939 182.774 134.441 182.396 135.868C182.018 137.294 181.262 138.496 180.582 139.547C179.825 140.598 179.069 141.65 178.464 142.701C178.162 143.227 178.01 143.752 177.859 144.353C177.708 144.878 177.708 145.479 177.708 146.08C177.708 148.483 178.539 150.961 178.615 153.739C178.615 154.415 178.54 155.091 178.388 155.767C178.237 156.442 178.011 157.118 177.708 157.719C177.179 158.996 176.422 160.122 175.59 161.098C174.002 163.201 172.037 164.928 170.524 166.955C169.768 167.931 169.087 168.983 168.634 170.109C168.18 171.235 167.877 172.437 167.726 173.638C167.424 176.116 167.651 178.669 167.499 181.297C167.424 182.574 167.197 183.926 166.743 185.202C166.29 186.479 165.533 187.68 164.701 188.731C161.374 192.936 156.61 195.414 152.98 198.869C152.526 199.319 152.073 199.77 151.694 200.22L150.409 201.647C149.501 202.623 148.594 203.524 147.687 204.425C145.796 206.227 143.754 207.879 141.637 209.306C137.402 212.31 132.638 214.638 127.723 216.214C127.95 216.29 127.647 216.139 127.647 215.989C127.572 215.689 127.647 215.388 127.949 215.313C132.789 213.736 137.402 211.409 141.561 208.405C143.678 206.903 145.645 205.326 147.46 203.524C148.367 202.623 149.275 201.722 150.182 200.821L151.468 199.394C151.921 198.869 152.375 198.418 152.829 197.968C156.61 194.288 161.298 191.81 164.399 187.83C165.155 186.854 165.836 185.803 166.214 184.676C166.592 183.55 166.818 182.349 166.894 181.072C167.045 178.594 166.818 175.966 167.045 173.338C167.197 171.986 167.499 170.71 168.028 169.433C168.558 168.157 169.238 167.03 170.07 165.979C171.658 163.876 173.549 162.074 175.062 160.122C175.818 159.146 176.498 158.094 176.952 156.968C177.179 156.442 177.406 155.842 177.557 155.316C177.632 154.715 177.708 154.19 177.708 153.589C177.708 151.186 176.801 148.708 176.801 145.93C176.801 145.254 176.876 144.578 177.027 143.827C177.179 143.151 177.481 142.476 177.784 141.875C178.389 140.673 179.221 139.622 179.977 138.571C180.657 137.52 181.338 136.468 181.565 135.417C181.867 134.366 181.64 133.24 181.338 132.038C180.96 130.837 180.506 129.56 180.43 128.133C180.355 126.782 180.506 125.43 180.657 124.154L181.262 120.324C181.413 119.122 181.489 117.846 181.565 116.569C181.716 114.016 181.792 111.388 182.624 108.76C183.455 106.132 185.043 104.029 185.572 101.701C186.177 99.4487 185.346 97.0458 184.136 94.9433C182.926 92.7657 181.262 90.8134 179.977 88.4856C179.372 87.2842 178.691 86.0827 178.464 84.6559C178.238 83.2292 178.313 81.8777 178.464 80.6011C178.616 79.3246 178.843 78.048 178.843 76.8466C178.843 75.6452 178.691 74.5188 178.162 73.4675C177.179 71.2899 175.363 69.4877 173.7 67.4603C172.868 66.409 172.036 65.3578 171.431 64.0812C170.826 62.7296 170.675 61.2278 170.751 59.9512C170.827 58.5996 170.978 57.3231 170.902 56.1967C170.827 54.9953 170.524 53.944 169.919 52.9678C168.709 50.9404 166.441 49.3634 165.231 46.7352C164.55 45.3836 164.55 43.8819 164.625 42.5303C164.701 41.1787 164.853 39.9771 164.701 38.8508C164.626 38.3251 164.474 37.7245 164.247 37.274C164.02 36.8234 163.642 36.4479 163.264 36.0724C162.432 35.2464 161.223 34.5706 160.316 33.219C160.089 32.8435 160.013 32.6184 159.786 32.3931C159.635 32.1678 159.483 31.8674 159.257 31.6422C158.878 31.1165 158.5 30.5908 158.122 30.0652C157.366 29.0139 156.534 27.9626 156.005 26.611C155.703 26.0102 155.476 25.2594 155.4 24.5836C155.249 23.9077 155.248 23.232 155.173 22.5562C155.097 21.2045 155.097 19.928 155.097 18.6515C155.173 16.0984 155.324 13.5453 155.097 11.0673C155.022 10.4665 154.946 9.8659 154.871 9.26518C154.795 8.96481 154.72 8.66449 154.644 8.36413C154.568 8.06376 154.492 7.76326 154.341 7.46289L153.207 3.8587L152.602 2.05642L152.602 1.90627C152.602 1.90627 152.526 1.75605 152.526 1.68096L152.451 1.38068L152.375 1.15537C152.3 1.00519 152.375 1.08028 152.375 1.15537C151.922 1.38064 153.963 1.90624 153.888 1.30551C153.888 1.30551 154.039 1.08024 153.888 1.30551L153.812 1.53082L153.585 1.98144C153.358 2.58216 153.056 3.10765 152.829 3.70837C152.602 4.30909 152.375 4.90985 152.148 5.43549C151.316 7.83838 150.712 10.2412 150.107 12.7192C149.577 15.1972 149.048 17.7504 148.292 20.3034C147.535 22.8565 146.628 25.2594 145.493 27.6623C144.359 30.1403 142.62 32.2428 140.805 34.12C138.99 35.9973 137.024 37.7244 135.133 39.4515C131.504 42.9808 128.176 46.8855 125.076 50.9404C122.051 54.9953 119.253 59.3505 117.136 63.8559C116.153 65.9585 116.078 68.4364 116.078 70.9895C116.078 73.5426 116.153 76.2459 115.17 78.9492C114.641 80.3759 113.657 81.427 112.825 82.4032C111.993 83.3794 111.162 84.2805 110.784 85.2567C110.557 85.7072 110.481 86.2329 110.481 86.7585C110.481 87.2091 110.557 87.7347 110.784 88.2603C111.162 89.3116 111.918 90.2877 112.599 91.5642C112.901 92.1649 113.204 92.916 113.279 93.742C113.355 94.568 113.204 95.3189 113.053 95.9947C112.901 96.6705 112.674 97.3462 112.372 97.9469C112.145 98.6227 111.691 99.3737 111.238 99.8993C110.33 101.026 109.271 101.852 108.439 102.678C107.608 103.504 107.003 104.33 107.003 105.381C106.927 106.357 107.305 107.408 107.91 108.46C108.515 109.511 109.272 110.562 109.877 111.914C110.179 112.59 110.406 113.265 110.481 114.091C110.557 114.842 110.481 115.668 110.33 116.419C109.952 117.846 109.196 119.047 108.439 120.174C107.683 121.225 106.927 122.276 106.322 123.253C105.793 124.304 105.415 125.28 105.491 126.331C105.566 127.382 105.944 128.434 106.549 129.485C107.154 130.536 107.91 131.587 108.591 132.714C109.271 133.915 109.877 135.192 110.028 136.769L110.103 137.294C110.103 137.52 110.103 137.67 110.103 137.895C110.103 138.271 110.027 138.646 109.952 139.022C109.725 139.772 109.422 140.448 109.044 141.049C108.364 142.25 107.456 143.302 106.776 144.278C106.095 145.254 105.642 146.305 105.566 147.206C105.566 147.657 105.641 148.183 105.793 148.708C105.944 149.234 106.246 149.684 106.549 150.135C107.229 151.111 108.062 152.012 108.894 153.063C109.725 154.115 110.557 155.391 110.859 156.968C111.086 158.545 110.784 159.972 110.481 161.173C110.179 162.375 110.028 163.501 110.255 164.477C110.481 165.378 111.162 166.204 112.069 167.18C112.901 168.082 114.036 169.133 114.565 170.71C115.019 172.212 114.943 173.713 114.565 175.14C113.809 177.918 112.372 180.096 111.842 182.349C111.54 183.475 111.54 184.526 111.918 185.578C112.297 186.629 112.901 187.68 113.581 188.656C115.018 190.609 117.06 192.336 118.573 194.589C118.8 194.889 118.951 195.189 119.102 195.49L119.556 196.315C119.858 196.916 120.161 197.442 120.463 198.043C121.068 199.244 121.598 200.37 122.127 201.572C124.169 206.302 125.908 211.108 128.177 215.764C128.252 215.989 128.176 216.29 127.949 216.365C128.025 216.29 127.723 216.139 127.647 215.989Z" fill="black"/>
<path d="M0.907317 20.9064C3.47842 22.0328 5.8231 23.6848 8.16734 24.661C9.37727 25.1866 10.5114 25.4119 11.797 25.4119C13.0825 25.487 14.5193 25.3368 15.9561 25.4119C16.7123 25.487 17.4685 25.5621 18.2247 25.7873C18.9809 26.0126 19.7374 26.3881 20.418 26.9137C21.7036 27.8899 22.5351 29.3165 23.1401 30.7432C23.6694 32.0949 24.0477 33.5217 24.4258 34.7982C24.8039 36.0748 25.2576 37.2761 25.9382 38.2523C26.6188 39.2285 27.5259 39.9043 28.6602 40.3549C29.7945 40.8054 31.0804 41.0307 32.3659 41.1058C33.7271 41.1809 35.0883 41.256 36.5251 41.3311C37.9619 41.4813 39.4741 41.6314 40.9109 42.2321C41.289 42.3823 41.6674 42.5326 41.9699 42.6828L42.8768 43.2084C43.4817 43.5087 44.087 43.8841 44.692 44.2596C45.9019 45.0105 47.0359 45.7614 48.1702 46.5874C50.4388 48.2394 52.632 49.9665 54.7493 51.6185C56.8667 53.3456 59.0599 54.9976 61.3285 56.4994C61.8578 56.8748 62.4627 57.2504 63.0676 57.5508C63.6726 57.9262 64.2018 58.2264 64.8067 58.5268C65.9411 59.1275 67.1516 59.5781 68.4371 59.8785C71.0082 60.4041 73.806 60.4042 76.604 60.7045C78.0408 60.8547 79.4773 61.1551 80.8385 61.6807L81.8974 62.1312C82.1999 62.3565 82.5779 62.5067 82.8804 62.7319C83.561 63.1825 84.0901 63.7081 84.6195 64.2338C86.5856 66.4865 87.569 69.1146 89.4595 70.7666C89.6864 70.9919 89.9132 71.1421 90.2157 71.3674L91.0472 71.9681C91.5766 72.3436 92.1814 72.719 92.7864 73.0945C93.9207 73.8454 95.1311 74.5962 96.2654 75.2721C98.6096 76.6988 101.029 77.9754 103.449 79.3271C105.869 80.6787 108.289 82.0303 110.633 83.4571C110.86 83.6072 110.936 83.9075 110.785 84.1328C110.633 84.3581 110.33 84.4331 110.179 84.2829C107.835 82.9313 105.415 81.5796 102.92 80.3031C100.5 79.0266 98.0043 77.75 95.5845 76.3984C94.3746 75.7226 93.1645 75.0467 92.0302 74.2958C91.4252 73.9204 90.8204 73.5449 90.291 73.1695L89.3834 72.5689C89.081 72.3436 88.7791 72.1182 88.4766 71.893C86.1323 69.9406 85.0735 67.1623 83.4099 65.3601C82.9561 64.9096 82.5021 64.459 81.9728 64.1586C81.7459 64.0084 81.4434 63.8583 81.2166 63.7082L80.309 63.3327C79.099 62.8822 77.8138 62.6568 76.4526 62.5066C73.8059 62.2063 71.0079 62.2814 68.1343 61.7557C66.6976 61.4554 65.2608 61.0049 63.9752 60.3291C63.3702 60.0287 62.6897 59.6531 62.0847 59.2777C61.4797 58.9022 60.8745 58.5268 60.2695 58.1513C57.9253 56.6495 55.6567 54.9975 53.4636 53.2704C51.2707 51.5434 49.1539 49.8915 46.8852 48.3146C45.7509 47.5637 44.6166 46.7377 43.4823 46.0618C42.8774 45.7615 42.3474 45.386 41.7425 45.0856L40.8356 44.635C40.5331 44.4848 40.3058 44.4097 40.0033 44.2596C37.7347 43.3585 34.9372 43.5088 32.1392 43.2835C30.7024 43.2084 29.1894 42.983 27.7526 42.3823C26.3158 41.8566 24.9551 40.8806 24.0477 39.529C23.1402 38.2524 22.6106 36.8256 22.2325 35.474C21.8544 34.1223 21.4766 32.8459 21.0228 31.6445C20.5691 30.443 19.8884 29.4668 18.9809 28.791C18.0735 28.1152 17.015 27.8147 15.7294 27.7396C14.4439 27.6645 13.0824 27.7397 11.6456 27.6646C10.2088 27.6646 8.5453 27.2141 7.25974 26.5383C4.61302 25.2617 2.57112 23.3844 0.3025 21.8075C0.0756377 21.6573 0.0759331 21.357 0.227174 21.1318C0.454036 20.9065 0.680455 20.8314 0.907317 20.9064Z" fill="black"/>
<path d="M176.12 161.173C177.254 165.603 176.045 170.108 176.271 174.163C176.271 174.689 176.347 175.139 176.498 175.59C176.574 176.04 176.801 176.491 177.028 177.017C177.481 177.918 177.935 178.819 178.54 179.72C179.75 181.447 181.187 183.099 182.321 185.126C183.531 187.079 184.211 189.557 184.06 191.884C183.985 193.011 183.985 194.062 183.834 195.188C183.682 196.315 183.607 197.366 183.455 198.492C182.85 202.848 181.943 207.128 180.96 211.333C178.994 219.743 176.952 228.153 177.179 236.713L177.254 238.29L177.406 239.867L177.557 241.444C177.557 241.594 177.633 241.895 177.709 242.12L177.935 242.946C178.087 243.472 178.162 243.997 178.313 244.598C178.313 244.748 178.389 244.898 178.389 245.049L178.389 245.349C178.389 245.424 178.389 245.499 178.389 245.574C178.389 245.499 178.389 246.025 178.162 246.25C178.011 246.4 178.086 246.325 178.011 246.4L177.935 246.475L177.709 246.625C177.557 246.776 177.406 246.851 177.254 246.926C176.12 247.602 175.062 247.977 173.928 248.278C171.735 248.878 169.541 249.104 167.348 249.404L164.097 249.854L162.433 250.08L160.769 250.23C151.922 250.906 143.074 250.08 134.453 248.503C125.833 247.001 117.287 244.748 108.969 242.27C104.81 240.994 100.499 239.642 96.5671 237.54C94.6009 236.488 92.7106 235.212 91.0469 233.635C90.2151 232.809 89.4593 231.833 88.8544 230.856C88.325 229.805 87.8707 228.754 87.4926 227.703C86.812 225.525 86.4345 223.423 85.8295 221.395C85.5271 220.419 85.149 219.443 84.6952 218.542C84.4684 218.091 84.1659 217.64 83.939 217.19C83.6366 216.739 83.3339 216.289 83.0314 215.838C80.6116 212.384 77.5108 209.381 74.4104 206.302C72.898 204.8 71.3102 203.223 69.7978 201.571C69.0416 200.745 68.3612 199.919 67.6806 199.018C67 198.117 66.3194 197.141 65.7901 196.165C64.7314 194.137 64.1263 192.035 63.3701 190.007C62.992 189.031 62.6137 188.055 62.0844 187.154C61.8575 186.703 61.555 186.253 61.3282 185.877C61.0257 185.502 60.7231 185.051 60.4206 184.751C59.0594 183.324 57.2444 182.198 55.3539 181.072C53.4633 179.945 51.4972 178.668 50.0604 176.791C49.3042 175.89 48.6998 174.764 48.3974 173.637C48.0949 172.511 47.9435 171.385 47.8679 170.258C47.7166 168.081 47.7162 165.903 47.0356 164.101C46.355 162.224 44.994 160.647 43.406 159.22C41.8935 157.718 40.1546 156.292 38.7934 154.414C38.1128 153.438 37.5074 152.387 37.2049 151.26C36.8268 150.134 36.6757 149.008 36.6001 147.881C36.4489 145.629 36.6757 143.451 36.6001 141.349C36.5245 139.321 36.0709 137.219 34.861 135.717C33.651 134.14 31.7602 133.089 30.021 131.587C29.1891 130.836 28.3573 129.935 27.7523 128.884C27.1474 127.832 26.9208 126.556 26.9208 125.429C26.9208 123.102 27.5261 120.924 27.6017 118.897C27.6773 117.845 27.6014 116.869 27.2989 115.968C27.1477 115.517 26.921 114.992 26.6941 114.541C26.4672 114.016 26.3157 113.565 26.0132 113.039C25.1058 111.087 24.1231 109.21 23.0645 107.332C20.9471 103.578 18.6023 99.9737 16.4093 96.1441C14.2163 92.3896 12.1745 88.4848 10.7377 84.2798C10.0571 82.1021 9.90618 79.8494 9.90618 77.6717C9.90618 75.4941 10.133 73.3165 10.2843 71.1389C10.3599 69.0364 10.3599 66.8588 9.90618 64.8314C9.83056 64.3058 9.604 63.8552 9.45276 63.3296C9.22589 62.879 9.07436 62.3533 8.77188 61.9027C8.31815 61.0017 7.71304 60.1007 7.10808 59.1996C5.89815 57.4725 4.46135 55.7455 3.32705 53.7931C2.19274 51.9159 1.51245 49.5881 1.36121 47.4104C1.05872 42.905 2.2688 38.6999 1.8907 34.4197C1.58822 30.1396 0.453907 25.9344 0.000183106 21.5792C0.000183106 21.3539 0.151129 21.0536 0.453611 21.0536C0.680473 21.0536 0.907482 21.2038 0.983103 21.429C1.51245 25.7092 2.64646 29.9143 2.94894 34.2696C3.32705 38.6999 2.19303 43.055 2.49551 47.2601C2.64676 49.3626 3.25128 51.3902 4.30997 53.1924C5.36865 54.9945 6.80545 56.6465 8.09099 58.4487C8.77158 59.3498 9.37684 60.2508 9.90618 61.227C10.2087 61.6775 10.4355 62.2783 10.6624 62.7288C10.8136 63.2544 11.0406 63.78 11.1919 64.3808C11.7212 66.6335 11.7209 68.8111 11.6453 70.9888C11.5697 73.1664 11.3433 75.3441 11.3433 77.4466C11.3433 79.5492 11.4942 81.6515 12.1748 83.679C13.536 87.6588 15.578 91.4885 17.771 95.243C19.964 98.9225 22.3839 102.602 24.5769 106.356C25.6356 108.234 26.6943 110.186 27.6017 112.213C27.8286 112.739 28.055 113.19 28.2818 113.715C28.5087 114.241 28.7354 114.691 28.8867 115.292C29.2648 116.419 29.3404 117.62 29.2648 118.821C29.1135 121.074 28.509 123.252 28.5846 125.204C28.5846 126.18 28.811 127.156 29.2648 127.982C29.7185 128.808 30.3991 129.559 31.1553 130.235C32.6677 131.587 34.634 132.713 36.222 134.59C36.9782 135.491 37.508 136.693 37.8105 137.744C38.113 138.871 38.2636 139.997 38.3392 141.123C38.4148 143.376 38.188 145.554 38.3392 147.581C38.4148 148.632 38.5662 149.609 38.8687 150.585C39.1712 151.561 39.6248 152.387 40.2297 153.213C41.4397 154.865 43.0283 156.217 44.6163 157.793C46.2044 159.295 47.7922 161.097 48.6241 163.35C49.4559 165.603 49.3804 167.931 49.5317 170.033C49.6829 172.136 50.0606 174.088 51.3461 175.59C52.556 177.167 54.3712 178.293 56.1861 179.419C58.001 180.546 60.0429 181.672 61.631 183.399C63.2946 185.126 64.2021 187.229 65.0339 189.331C65.7901 191.434 66.3948 193.461 67.3778 195.264C67.8316 196.165 68.361 196.991 69.0416 197.817C69.7222 198.643 70.4029 199.469 71.0835 200.22C72.5203 201.796 74.0327 203.298 75.6208 204.875C78.7212 207.954 81.8967 210.957 84.4678 214.637C84.7703 215.087 85.1485 215.538 85.3754 216.064C85.6779 216.514 85.9808 217.04 86.2076 217.565C86.737 218.617 87.1901 219.668 87.4926 220.719C88.1732 222.897 88.5519 224.999 89.2325 226.952C89.535 227.928 89.9128 228.904 90.4421 229.805C90.8958 230.706 91.5011 231.457 92.2573 232.133C93.7697 233.56 95.5088 234.686 97.3994 235.737C101.105 237.765 105.263 239.041 109.423 240.243C117.741 242.646 126.21 244.898 134.755 246.4C143.301 247.902 151.997 248.728 160.543 247.977L162.13 247.827L163.719 247.602L166.97 247.151C169.163 246.851 171.281 246.55 173.247 246.025C174.23 245.724 175.212 245.424 175.969 244.973C176.044 244.898 176.121 244.823 176.196 244.823L176.271 244.748L176.347 244.673C176.347 244.673 176.422 244.598 176.347 244.673C176.12 244.823 176.12 245.274 176.12 245.199L176.12 245.049L176.045 244.673C175.969 244.223 175.818 243.697 175.667 243.171L175.44 242.42C175.364 242.12 175.288 241.895 175.212 241.519L175.062 239.867L174.91 238.215L174.834 236.563C174.683 232.133 175.137 227.703 175.893 223.422C176.65 219.067 177.632 214.862 178.615 210.657C179.598 206.452 180.582 202.247 181.187 198.042C181.338 196.991 181.414 195.939 181.565 194.888C181.641 193.837 181.716 192.786 181.792 191.734C181.943 189.707 181.414 187.83 180.431 186.027C179.448 184.225 178.086 182.573 176.876 180.696C176.271 179.72 175.742 178.744 175.289 177.692C175.062 177.167 174.91 176.641 174.759 176.04C174.608 175.44 174.608 174.839 174.532 174.313C174.457 171.986 174.911 169.883 175.062 167.705C175.289 165.603 175.364 163.425 175.062 161.398C174.986 161.172 175.213 160.872 175.44 160.872C175.818 160.797 176.044 160.947 176.12 161.173Z" fill="black"/>
<path d="M320.405 17.6722C316.85 20.6007 313.524 23.8296 309.667 26.6831C307.776 28.0347 305.659 29.3112 303.466 30.2123C301.273 31.1134 299.004 31.8642 296.811 32.6151C294.618 33.366 292.425 34.042 290.384 35.0182C288.342 35.9193 286.451 37.1207 284.863 38.5474C284.409 38.9228 284.106 39.2982 283.728 39.7487C283.502 39.974 283.426 40.1242 283.275 40.3495C283.124 40.5748 282.972 40.725 282.897 40.9503C282.443 41.8513 282.141 42.8274 282.065 43.8787C281.838 45.9812 282.216 48.234 282.519 50.4867C282.821 52.8145 283.124 55.2174 282.67 57.7705C282.519 58.3712 282.368 59.047 282.065 59.6477C281.914 59.9481 281.838 60.2486 281.687 60.549L281.233 61.3748L280.78 62.2009C280.628 62.4262 280.401 62.7265 280.25 62.9518C279.872 63.4775 279.57 63.9279 279.116 64.3785C275.94 68.0579 271.932 70.6861 268.454 73.6146C266.714 75.1164 265.126 76.6182 263.84 78.4204C262.555 80.2225 261.648 82.1749 261.27 84.2775C260.891 86.38 261.042 88.6327 261.42 90.8103C261.798 93.063 262.328 95.3158 262.706 97.6436C263.084 99.9714 263.235 102.449 262.857 104.852C262.479 107.255 261.799 109.508 260.967 111.761C259.379 116.191 257.564 120.396 257.337 124.826C257.035 129.182 259.001 133.387 261.118 137.442C262.177 139.469 263.236 141.572 264.143 143.824C264.37 144.35 264.521 144.951 264.748 145.551L265.277 147.203C265.655 148.33 265.958 149.456 266.26 150.582C268.756 159.518 270.797 168.604 274.049 177.164C275.713 181.445 277.679 185.575 280.175 189.404C280.477 189.855 280.779 190.38 281.082 190.831L282.065 192.183C282.443 192.633 282.745 193.084 283.124 193.534L284.258 194.811C284.636 195.261 285.014 195.712 285.392 196.087C285.543 196.238 285.695 196.463 285.922 196.538L286.224 196.763L286.527 196.913C287.358 197.364 288.417 197.514 289.476 197.439C291.593 197.289 293.786 196.538 295.828 195.637C297.869 194.736 299.912 193.534 301.802 192.333C305.659 189.855 309.364 187.076 312.994 184.223C320.253 178.516 327.362 172.509 333.336 165.525C334.773 163.798 336.209 161.921 337.419 160.044C338.629 158.167 339.612 156.139 340.369 153.962C341.881 149.681 342.789 145.176 343.696 140.595C344.15 138.343 344.603 136.015 345.133 133.762L346.721 127.004C347.78 122.499 348.762 117.993 349.67 113.488C350.577 108.982 351.409 104.402 352.165 99.8212C352.543 97.5684 352.846 95.2407 353.3 92.988C353.678 90.7353 354.056 88.4825 354.132 86.1547C354.207 83.902 354.132 81.6493 353.376 79.6219C352.619 77.5944 351.258 75.7922 349.67 74.1402C348.082 72.5633 346.267 71.0616 344.528 69.4847C342.789 67.9078 341.125 66.1057 340.066 63.928C339.763 63.4024 339.613 62.8016 339.386 62.2009C339.235 61.6002 339.083 60.9243 339.083 60.2485C339.159 58.8969 339.688 57.7705 340.293 56.7193C340.898 55.668 341.578 54.767 342.108 53.7908C342.637 52.8146 343.015 51.8385 343.015 50.7872C343.015 49.7359 342.561 48.8347 341.956 47.8585C341.351 46.8824 340.747 45.9814 339.991 45.1554C338.478 43.4283 336.815 41.9264 335.075 40.3495C333.336 38.8477 331.521 37.3459 329.857 35.6939C328.193 34.0419 326.681 32.2398 325.32 30.2874C322.749 26.3827 320.858 22.0274 319.8 17.4469C319.724 17.2216 319.875 16.9213 320.178 16.9213C320.405 16.8462 320.707 16.9964 320.707 17.2967C321.69 21.7271 323.581 26.0073 326.152 29.7618C327.438 31.6391 328.874 33.4413 330.538 35.0182C332.202 36.5951 334.017 38.0968 335.756 39.5986C337.571 41.1004 339.31 42.6773 340.822 44.4795C341.578 45.3806 342.335 46.3568 342.94 47.333C343.545 48.3091 344.15 49.5856 344.15 50.8622C344.15 52.2138 343.696 53.4153 343.091 54.4666C342.486 55.5178 341.806 56.494 341.276 57.4702C340.747 58.4464 340.293 59.4225 340.293 60.4738C340.293 60.6991 340.293 60.9994 340.369 61.2247C340.444 61.45 340.444 61.6752 340.52 61.9756C340.747 62.5012 340.898 63.0269 341.125 63.4774C342.108 65.4298 343.62 67.1568 345.359 68.6586C347.023 70.2355 348.914 71.6624 350.578 73.3143C352.241 74.9663 353.754 76.9186 354.661 79.2464C355.493 81.5742 355.644 84.0522 355.568 86.38C355.493 88.7829 355.115 91.0357 354.737 93.3635C354.359 95.6162 354.056 97.9439 353.678 100.197C352.997 104.777 352.09 109.358 351.258 113.863C350.351 118.444 349.368 122.949 348.309 127.455L346.721 134.213C346.192 136.465 345.738 138.718 345.284 140.971C344.377 145.476 343.469 150.132 341.881 154.562C341.125 156.815 340.067 158.993 338.781 160.945C337.571 162.972 336.059 164.85 334.622 166.652C328.572 173.86 321.388 179.868 314.053 185.65C310.347 188.503 306.718 191.357 302.71 193.91C300.744 195.186 298.702 196.388 296.509 197.364C294.316 198.34 292.047 199.166 289.476 199.316C288.19 199.391 286.829 199.241 285.619 198.565C285.468 198.49 285.317 198.415 285.165 198.34L284.712 198.04C284.41 197.889 284.183 197.589 283.956 197.364C283.502 196.913 283.199 196.463 282.745 196.012L281.611 194.661C281.233 194.21 280.931 193.684 280.553 193.234L279.494 191.807C279.116 191.357 278.813 190.831 278.511 190.305C275.94 186.325 273.898 182.12 272.159 177.765C268.756 169.055 266.789 159.894 264.218 151.033C263.916 149.907 263.614 148.78 263.235 147.729L262.706 146.077C262.555 145.551 262.328 145.026 262.176 144.5C261.345 142.397 260.286 140.37 259.228 138.343C258.169 136.24 257.11 134.138 256.354 131.885C255.522 129.632 255.144 127.154 255.22 124.676C255.296 122.198 255.9 119.87 256.581 117.618C257.262 115.365 258.169 113.187 258.925 111.01C259.681 108.832 260.362 106.655 260.664 104.477C261.042 102.299 260.891 100.122 260.513 97.8689C260.135 95.6162 259.606 93.3634 259.228 91.0356C258.85 88.7078 258.623 86.2298 259.076 83.7519C259.53 81.2739 260.589 79.0212 262.026 76.9937C263.463 74.9663 265.202 73.3143 267.016 71.7374C270.646 68.6587 274.503 66.1056 277.377 62.7265C277.755 62.3511 278.057 61.9006 278.36 61.45C278.511 61.2247 278.662 60.9994 278.813 60.7741L279.191 60.0983L279.569 59.4226C279.645 59.1973 279.796 58.9719 279.872 58.7467C280.099 58.2961 280.174 57.7706 280.325 57.32C280.704 55.2926 280.477 53.0399 280.175 50.7872C279.872 48.5345 279.494 46.1315 279.721 43.5784C279.872 42.3019 280.25 41.0254 280.855 39.8991C281.006 39.5987 281.233 39.3734 281.384 39.073C281.536 38.7726 281.762 38.5474 281.989 38.3221C282.443 37.8715 282.821 37.421 283.275 36.9704C285.09 35.3184 287.207 34.0419 289.476 33.0657C291.669 32.0896 293.937 31.3387 296.13 30.6629C298.399 29.9871 300.592 29.3111 302.71 28.4852C304.827 27.6592 306.793 26.5329 308.683 25.2564C312.464 22.7033 315.943 19.5494 319.724 16.8461C319.951 16.6959 320.253 16.7711 320.405 16.9213C320.631 17.2216 320.556 17.4469 320.405 17.6722Z" fill="black"/>
<path d="M285.996 197.664C285.996 198.79 285.77 199.842 285.468 200.818C285.165 201.869 284.862 202.845 284.409 203.821C283.577 205.774 282.67 207.726 281.687 209.604C281.233 210.505 280.704 211.481 280.174 212.382L278.586 215.085L278.132 215.836C277.981 216.061 277.83 216.286 277.754 216.437C277.679 216.512 277.678 216.662 277.678 216.512L277.678 216.437C277.678 216.361 277.678 216.286 277.678 216.211L277.678 216.286C277.754 216.437 277.83 216.587 277.906 216.737C278.133 217.037 278.434 217.413 278.813 217.713C278.964 217.863 279.191 218.014 279.342 218.239L279.645 218.464L279.796 218.614C279.947 218.689 279.947 218.764 280.023 218.764C280.174 218.915 280.401 219.14 280.476 219.215L280.401 219.215L280.325 219.215C280.249 219.215 280.099 219.215 280.023 219.215C279.947 219.215 279.872 219.215 279.872 219.29L279.947 219.29C280.023 219.29 280.099 219.215 280.174 219.215C280.477 219.065 280.855 218.689 281.157 218.389C281.762 217.713 282.367 216.887 282.896 215.986C283.955 214.259 284.787 212.382 285.543 210.429C286.98 206.6 287.887 202.47 288.643 198.415C288.719 198.19 288.946 197.964 289.173 198.04C289.4 198.115 289.551 198.34 289.551 198.565C289.324 200.668 289.021 202.77 288.643 204.798C288.265 206.9 287.736 208.928 287.055 210.955C286.375 212.982 285.543 214.935 284.484 216.887C283.955 217.863 283.35 218.764 282.594 219.665C282.215 220.116 281.762 220.567 281.233 220.942C281.081 221.017 280.93 221.092 280.779 221.167L280.628 221.242L280.552 221.242C280.552 221.242 280.401 221.242 280.401 221.317C280.25 221.317 280.099 221.317 280.023 221.317L279.872 221.242C279.796 221.242 279.72 221.167 279.72 221.167C279.645 221.092 279.569 221.092 279.569 221.092C279.266 220.867 279.039 220.717 278.813 220.492L278.737 220.416L278.586 220.266L278.284 220.041C278.057 219.891 277.83 219.666 277.678 219.515C277.225 219.14 276.847 218.764 276.469 218.239C276.242 218.014 276.09 217.713 275.939 217.338C275.864 217.263 275.864 217.112 275.864 217.037L275.788 216.887C275.788 216.737 275.788 216.662 275.788 216.512C275.788 216.437 275.788 216.362 275.788 216.362C275.863 215.986 275.94 215.911 276.015 215.761C276.166 215.46 276.317 215.235 276.469 215.01L276.847 214.334C277.905 212.457 278.964 210.655 279.872 208.853C280.779 206.975 281.686 205.098 282.518 203.221C283.35 201.344 284.106 199.466 285.316 197.589C285.468 197.364 285.77 197.289 285.996 197.439C285.921 197.364 285.996 197.514 285.996 197.664Z" fill="black"/>
<path d="M177.859 244.148C178.994 244.598 180.053 245.124 181.036 245.799C181.565 246.1 182.019 246.475 182.473 246.851C182.926 247.226 183.38 247.602 183.834 248.052C185.573 249.704 187.161 251.657 188.371 253.684C188.976 254.735 189.506 255.787 190.035 256.913C190.489 258.039 190.866 259.166 191.245 260.367C191.547 261.568 191.774 262.845 191.699 264.121C191.623 265.473 191.244 266.75 190.715 267.876L190.791 267.726C190.791 267.801 190.715 267.876 190.715 267.876L190.715 267.951L190.64 268.026L190.564 268.176L190.413 268.402L190.186 268.852C190.035 269.153 189.884 269.453 189.657 269.678L189.354 270.129C189.278 270.204 189.279 270.279 189.127 270.354C189.052 270.429 189.052 270.429 188.901 270.579C188.825 270.579 188.825 270.654 188.749 270.654L188.598 270.73C188.598 270.73 188.522 270.73 188.522 270.805C188.447 270.805 188.523 270.805 188.296 270.88C188.069 270.955 187.691 270.805 187.54 270.654L187.085 270.279L186.707 269.828C185.8 268.702 185.195 267.501 184.665 266.299C184.136 265.098 183.607 263.971 183.078 262.77C182.851 262.169 182.548 261.644 182.246 261.118C181.944 260.592 181.565 260.067 181.262 259.541C179.901 257.439 178.389 255.411 176.801 253.459C175.213 251.506 173.474 249.629 171.734 247.827C171.583 247.602 171.583 247.376 171.734 247.151C171.886 247.001 172.188 247.001 172.415 247.151C174.306 248.878 176.12 250.68 177.859 252.633C179.599 254.51 181.263 256.537 182.699 258.64C183.078 259.165 183.456 259.691 183.758 260.292C184.137 260.893 184.439 261.493 184.741 262.019C185.346 263.22 185.8 264.347 186.405 265.473C186.935 266.6 187.54 267.651 188.296 268.477L188.598 268.777L188.825 269.002C188.673 268.927 188.371 268.777 188.144 268.777C187.993 268.777 187.993 268.777 187.993 268.777L187.918 268.777C187.842 268.777 187.766 268.852 187.766 268.852L187.69 268.927C187.615 269.002 187.615 269.002 187.69 268.927L187.766 268.777L187.993 268.402L188.446 267.576L188.674 267.2L188.749 266.975L188.825 266.9L188.825 266.975L188.901 266.825C189.354 265.849 189.657 264.872 189.657 263.821C189.732 262.77 189.505 261.794 189.203 260.742C188.9 259.691 188.522 258.64 188.068 257.589C187.615 256.537 187.085 255.561 186.556 254.66C185.422 252.783 183.909 251.056 182.321 249.479C180.733 247.902 178.994 246.475 177.331 244.673C177.179 244.448 177.179 244.147 177.331 243.997C177.482 244.072 177.708 244.072 177.859 244.148Z" fill="black"/>
<path d="M127.722 214.865C127.949 215.841 127.874 216.742 127.798 217.643C127.723 218.544 127.646 219.445 127.571 220.346C127.571 221.247 127.647 222.148 127.647 223.049L127.647 223.725C127.647 224.025 127.647 224.251 127.647 224.476C127.647 224.551 127.647 224.701 127.647 224.776C127.647 224.776 127.722 224.852 127.571 224.626C127.571 224.626 127.571 224.551 127.496 224.551C127.42 224.476 127.268 224.401 127.193 224.401C126.966 224.326 126.815 224.401 126.664 224.476C126.588 224.476 126.512 224.626 126.588 224.551L126.966 224.026C128.025 222.599 128.705 220.947 129.461 219.295C130.218 217.643 130.899 215.916 131.958 214.264C132.033 214.114 132.26 214.113 132.411 214.189C132.562 214.264 132.562 214.489 132.486 214.564C131.654 216.216 131.126 217.943 130.445 219.67C129.764 221.397 129.159 223.2 128.025 224.776L127.571 225.377C127.571 225.377 127.495 225.527 127.344 225.602C127.193 225.677 126.966 225.753 126.739 225.753C126.588 225.753 126.437 225.678 126.361 225.527C126.286 225.452 126.286 225.452 126.286 225.377C126.135 225.077 126.134 225.002 126.134 224.927C126.134 224.776 126.134 224.626 126.134 224.476C126.134 224.251 126.134 224.026 126.134 223.875L126.058 223.199L125.983 221.773C125.983 221.322 125.983 220.872 125.983 220.346C125.983 219.37 126.059 218.469 126.21 217.493C126.285 216.592 126.513 215.69 127.042 214.789C127.118 214.639 127.344 214.564 127.496 214.639C127.647 214.714 127.722 214.789 127.722 214.865Z" fill="black"/>
<path d="M128.479 214.487C130.672 205.852 132.638 197.216 134.377 188.506C136.117 179.795 137.402 171.01 138.536 162.149C140.729 144.503 142.091 126.706 144.132 108.985C146.099 91.2637 148.141 73.5422 149.35 55.7458C149.653 51.3154 149.955 46.8852 150.107 42.4548C150.258 38.0245 150.409 33.519 150.56 29.0887C150.787 20.1529 151.165 11.2173 152.299 2.35661C152.299 2.13134 152.602 1.90607 152.829 1.98116C153.055 1.98116 153.282 2.28148 153.207 2.50676C151.165 20.2281 152.299 38.0995 150.938 55.8959C149.804 73.6924 147.913 91.4888 146.098 109.21C144.132 126.931 142.847 144.728 140.654 162.449C139.52 171.31 138.31 180.171 136.571 188.956C134.831 197.742 132.563 206.452 129.387 214.787C129.311 215.013 129.009 215.163 128.782 215.088C128.555 214.937 128.404 214.712 128.479 214.487Z" fill="black"/>
<path d="M285.544 198.564C286.149 194.81 286.906 191.055 287.738 187.301C288.494 183.546 289.325 179.792 290.233 176.112L292.804 164.924L295.3 153.735C298.551 138.792 301.576 123.774 304.449 108.756C307.323 93.7382 309.969 78.6451 312.465 63.5519C314.96 48.4587 317.381 33.3654 319.498 18.1971C319.498 17.9718 319.8 17.7465 320.027 17.8216C320.254 17.8216 320.481 18.1219 320.405 18.3472C318.439 33.5155 316.397 48.6839 314.053 63.8521C311.709 78.9453 309.138 94.1137 306.415 109.132C303.617 124.225 300.593 139.243 297.417 154.186L294.997 165.375L292.502 176.563C291.594 180.318 290.762 183.997 289.779 187.752C288.796 191.431 287.737 195.11 286.527 198.79C286.452 199.015 286.149 199.165 285.922 199.09C285.62 199.015 285.469 198.79 285.544 198.564Z" fill="black"/>
<path d="M175.062 246.101C173.248 244.9 171.81 243.398 170.449 241.821C169.088 240.244 167.803 238.592 166.441 237.016C163.795 233.787 161.299 230.483 158.804 227.103C156.384 223.724 153.964 220.345 151.62 216.891C149.276 213.437 147.007 209.983 144.889 206.454C144.738 206.228 144.814 205.928 145.041 205.778C145.268 205.628 145.494 205.703 145.646 205.928C148.065 209.307 150.485 212.611 152.981 215.99C155.401 219.369 157.896 222.673 160.467 225.902C162.962 229.206 165.534 232.435 168.18 235.664C169.466 237.241 170.827 238.818 172.188 240.395C172.869 241.146 173.474 241.971 174.079 242.797C174.684 243.623 175.289 244.524 175.743 245.501C175.894 245.726 175.743 246.026 175.516 246.177C175.44 246.252 175.214 246.252 175.062 246.101Z" fill="black"/>
<path d="M104.66 145.626C100.198 140.445 96.0387 135.114 91.6526 129.932C87.3423 124.751 82.4274 120.02 77.3608 115.59C67.2276 106.579 56.111 98.5444 46.0535 89.3082C40.9869 84.6526 36.223 79.6966 31.9883 74.2901C27.6779 68.9587 23.9723 63.1768 20.4938 57.3197C13.5367 45.5305 7.86481 33.2155 1.2858 21.3512C1.13455 21.1259 1.21032 20.8257 1.43719 20.7506C1.66405 20.6004 1.96638 20.6755 2.042 20.9008C8.84788 32.69 14.8221 44.9297 21.8548 56.4937C25.3334 62.2756 29.1143 67.9074 33.4246 73.1637C37.6594 78.4201 42.4235 83.2259 47.4145 87.8064C57.3964 96.9675 68.5127 104.927 78.7971 113.938C83.9393 118.443 88.8548 123.249 93.3165 128.506C95.5851 131.134 97.6271 133.837 99.6689 136.615C101.635 139.394 103.601 142.172 105.34 145.101C105.492 145.326 105.416 145.626 105.189 145.777C105.038 145.852 104.811 145.851 104.66 145.626Z" fill="black"/>
</svg>
