<svg width="223" height="325" viewBox="0 0 223 325" fill="none" xmlns="http://www.w3.org/2000/svg">
<path d="M48.5969 228.179C48.8981 229.96 49.0961 231.729 49.2424 233.498C49.449 235.268 49.6023 237.037 49.74 238.807L50.2752 244.115L50.9369 249.412C51.9008 256.466 53.1563 263.498 54.4818 270.507C55.7728 277.528 57.1429 284.548 58.3737 291.603C59.5786 298.658 60.6539 305.747 61.308 312.87C61.3252 313.076 61.1784 313.258 60.9718 313.281C60.7739 313.304 60.5942 313.156 60.5684 312.95C59.6647 305.873 58.45 298.841 57.0988 291.832C55.7647 284.822 54.2924 277.825 52.8895 270.816C51.521 263.795 50.2306 256.752 49.2236 249.651L48.527 244.32L47.9594 238.966C47.8217 237.174 47.7185 235.382 47.6582 233.59C47.6582 231.786 47.6996 229.994 47.8545 228.202C47.8718 227.996 48.0536 227.836 48.2687 227.859C48.4409 227.871 48.5791 228.008 48.6049 228.167V228.179H48.5969Z" fill="black"/>
<path d="M216.151 227.677C216.194 229.492 216.134 231.307 216.022 233.099C215.927 234.903 215.783 236.695 215.61 238.498L214.637 249.286L212.759 270.873C212.071 278.065 211.324 285.256 210.446 292.437C209.534 299.606 208.492 306.775 207.141 313.875C207.106 314.08 206.909 314.206 206.702 314.172C206.505 314.138 206.375 313.943 206.401 313.749C207.503 306.615 208.388 299.457 209.137 292.288C209.911 285.119 210.539 277.928 211.124 270.736L212.889 249.149L213.811 238.35C214.138 234.754 214.578 231.158 215.395 227.608C215.438 227.403 215.644 227.277 215.842 227.323C216.031 227.357 216.151 227.505 216.151 227.677Z" fill="black"/>
<path d="M61.2654 312.585C66.9459 314.88 72.8577 316.455 78.8394 317.756C84.8297 319.046 90.9158 319.948 97.0266 320.622C109.248 321.957 121.574 322.425 133.891 322.448C146.207 322.471 158.53 322.071 170.803 320.953C173.901 320.69 176.993 320.61 180.066 320.462C183.147 320.313 186.21 320.131 189.256 319.765C192.295 319.4 195.315 318.852 198.216 317.905C201.099 316.969 203.88 315.61 206.153 313.612C206.308 313.475 206.539 313.487 206.677 313.647C206.815 313.795 206.796 314.035 206.65 314.172C204.309 316.306 201.445 317.745 198.493 318.761C195.532 319.777 192.458 320.382 189.385 320.804C183.232 321.649 177.018 321.729 170.916 322.254C158.617 323.475 146.25 323.989 133.891 324.08C121.531 324.092 109.155 323.658 96.8383 322.345C90.6845 321.695 84.5392 320.804 78.4629 319.514C75.4333 318.852 72.4015 318.087 69.458 317.06C66.5145 316.044 63.6145 314.845 60.9292 313.247C60.7485 313.144 60.6882 312.916 60.8001 312.733C60.8948 312.574 61.0933 312.517 61.2654 312.585Z" fill="black"/>
<path d="M43.7495 226.866C51.1341 227.174 58.4935 227.642 65.8609 228.076C73.2197 228.521 80.5962 228.784 87.9722 228.989C102.733 229.377 117.501 229.4 132.27 229.297L154.433 229.126C161.826 229.046 169.219 229.115 176.603 229.103C183.988 229.081 191.364 229.035 198.723 228.624C206.082 228.236 213.432 227.471 220.67 226.124H220.678C220.876 226.09 221.076 226.215 221.119 226.421C221.154 226.626 221.024 226.82 220.826 226.855C213.562 228.304 206.185 229.172 198.801 229.663C191.416 230.165 184.015 230.348 176.622 230.416C169.229 230.485 161.844 230.462 154.468 230.599L132.305 230.93C117.527 231.078 102.74 231.09 87.9534 230.736C80.5602 230.542 73.1675 230.302 65.7829 229.88C58.3982 229.446 51.0142 228.807 43.6984 227.619C43.4918 227.585 43.3547 227.391 43.3891 227.186C43.3977 226.992 43.5601 226.866 43.7495 226.866Z" fill="black"/>
<path d="M43.4074 217.905C50.7662 218.989 58.1003 219.971 65.4677 220.702C72.8437 221.466 80.2541 221.798 87.6732 221.957C95.0922 222.117 102.51 222.026 109.938 221.798C117.357 221.581 124.786 221.238 132.213 220.839C139.641 220.473 147.069 220.074 154.505 219.743C161.958 219.435 169.403 219.377 176.839 219.355C191.703 219.32 206.601 219.309 221.302 217.151C221.508 217.117 221.698 217.266 221.724 217.471C221.75 217.677 221.61 217.859 221.412 217.893C206.668 220.245 191.703 220.485 176.848 220.667C169.411 220.747 161.983 220.85 154.572 221.215C147.153 221.603 139.727 222.049 132.299 222.471C124.872 222.882 117.434 223.236 109.989 223.487C102.544 223.738 95.0917 223.841 87.6382 223.704C80.1847 223.567 72.7232 223.247 65.2955 222.494C57.8765 221.752 50.4639 220.587 43.2514 218.635C43.0535 218.578 42.9335 218.373 42.9851 218.179C43.0368 217.996 43.2181 217.882 43.4074 217.905Z" fill="black"/>
<path d="M43.5701 218.19C43.9918 218.59 44.0677 218.955 44.0677 219.332C44.0591 219.709 44.0515 220.074 44.0515 220.451L44.0596 222.699C44.0596 224.218 44.0182 225.793 43.7342 227.311C43.6997 227.517 43.4996 227.654 43.2931 227.619C43.1295 227.585 43.0096 227.46 42.9838 227.3C42.76 225.782 42.5965 224.298 42.4243 222.779C42.3555 222.014 42.2882 221.238 42.271 220.462C42.2624 220.074 42.2603 219.686 42.2603 219.298C42.2603 218.909 42.3635 218.521 42.8197 218.156C43.0435 217.973 43.3635 217.985 43.5701 218.19Z" fill="black"/>
<path d="M221.789 217.517C222.271 217.848 222.393 218.236 222.419 218.624C222.436 219.012 222.454 219.4 222.454 219.8C222.471 220.576 222.392 221.364 222.306 222.14C222.099 223.681 221.711 225.199 221.066 226.615C220.98 226.809 220.757 226.889 220.568 226.797C220.413 226.729 220.336 226.569 220.345 226.409C220.491 224.914 220.645 223.464 220.67 222.003C220.705 221.272 220.688 220.553 220.67 219.834C220.653 219.469 220.637 219.115 220.611 218.75C220.585 218.384 220.638 218.03 221.033 217.608L221.042 217.597C221.248 217.38 221.565 217.357 221.789 217.517Z" fill="black"/>
<path d="M156.465 219.674C156.646 217.825 156.613 215.941 156.449 214.058C156.303 212.174 156.071 210.302 155.796 208.441C155.219 204.708 154.494 200.987 153.547 197.334C151.74 190.051 147.851 183.43 142.756 177.928C140.2 175.177 137.366 172.688 134.311 170.519C131.247 168.35 127.925 166.569 124.448 165.188C122.718 164.469 120.919 163.967 119.12 163.476L116.376 162.928C115.456 162.768 114.524 162.722 113.603 162.608C111.762 162.403 109.886 162.494 108.001 162.585C106.116 162.699 104.232 162.859 102.347 163.076C98.5776 163.487 94.8234 164.058 91.0967 164.777C87.3786 165.508 83.6879 166.387 80.0988 167.562C78.3 168.122 76.5685 168.852 74.8299 169.606C73.952 169.96 73.108 170.393 72.2559 170.793L70.9837 171.409L69.7357 172.083C66.4049 173.864 63.2102 175.907 60.2494 178.247C57.2887 180.576 54.5437 183.19 52.194 186.124C51.0235 187.597 49.974 189.138 49.1736 190.827C48.3387 192.505 47.6335 194.263 47.0569 196.056C45.8863 199.64 45.1634 203.373 44.8621 207.14C44.7244 209.024 44.6712 210.919 44.7572 212.802C44.8519 214.686 45.059 216.569 45.3947 218.43C45.4291 218.635 45.2914 218.829 45.0934 218.864C44.8955 218.898 44.6981 218.772 44.655 218.567C44.2849 216.672 44.052 214.766 43.9315 212.836C43.8196 210.919 43.846 208.989 43.9665 207.071C44.2247 203.236 44.9143 199.412 46.059 195.736C46.6271 193.887 47.3328 192.083 48.1677 190.336C48.9853 188.567 50.0762 186.912 51.2554 185.393C52.4431 183.864 53.7443 182.425 55.1042 181.056C56.4899 179.709 57.917 178.407 59.4318 177.22C62.4442 174.811 65.6809 172.699 69.0633 170.862L70.3382 170.165L71.6292 169.526C72.4985 169.104 73.349 168.658 74.2355 168.293C75.9827 167.517 77.7815 166.752 79.6147 166.158C83.2726 164.937 87.0101 164.012 90.7713 163.247C94.5324 162.494 98.3275 161.889 102.14 161.444C104.042 161.215 105.96 161.056 107.888 160.93C109.799 160.839 111.763 160.747 113.716 160.953C114.68 161.067 115.66 161.124 116.624 161.284L119.491 161.855C121.367 162.368 123.252 162.882 125.05 163.624C128.665 165.051 132.109 166.889 135.284 169.115C138.452 171.352 141.378 173.921 144.02 176.752C146.68 179.572 148.977 182.734 150.914 186.101C152.833 189.469 154.341 193.133 155.279 196.889C156.252 200.622 156.931 204.412 157.361 208.247C157.559 210.165 157.695 212.083 157.721 214.024L157.705 215.473L157.627 216.923C157.593 217.403 157.525 217.893 157.474 218.373C157.405 218.852 157.292 219.332 157.197 219.811C157.162 220.017 156.965 220.154 156.758 220.108C156.569 220.074 156.431 219.891 156.457 219.708L156.465 219.674Z" fill="black"/>
<path d="M216.022 217.448C217.314 214.537 218.899 211.854 220.043 209.023C220.594 207.619 221.093 206.181 221.17 204.788C221.274 203.464 220.782 202.094 220.119 200.759C219.456 199.423 218.595 198.11 217.881 196.626C217.52 195.884 217.201 195.108 216.977 194.286C216.754 193.43 216.659 192.665 216.539 191.866C216.1 188.692 216.074 185.553 215.686 182.517C215.325 179.48 214.507 176.558 212.932 174.012L210.404 170.119C209.999 169.457 209.499 168.864 209.051 168.236L207.666 166.375C203.879 161.501 199.473 157.072 194.403 153.59C189.308 150.154 183.558 147.654 177.507 146.546L175.226 146.193C174.848 146.124 174.471 146.09 174.083 146.067L172.929 145.976C171.397 145.804 169.857 145.873 168.317 145.839C165.235 145.964 162.161 146.318 159.14 146.957C156.127 147.631 153.15 148.51 150.259 149.617C147.375 150.747 144.57 152.083 141.859 153.601C139.156 155.119 136.556 156.843 134.129 158.772C131.71 160.702 129.422 162.848 127.658 165.336L127.65 165.348C127.529 165.519 127.295 165.553 127.122 165.439C126.959 165.325 126.916 165.085 127.028 164.925C128.844 162.277 131.142 160.074 133.569 158.076C136.005 156.078 138.614 154.286 141.342 152.699C144.071 151.113 146.902 149.72 149.82 148.51C152.755 147.345 155.776 146.387 158.857 145.679C161.947 144.994 165.106 144.606 168.274 144.446C169.857 144.457 171.448 144.377 173.032 144.549L174.22 144.629C174.616 144.651 175.011 144.686 175.407 144.754L177.765 145.097C184.04 146.181 190.022 148.727 195.315 152.231C200.574 155.816 205.11 160.359 209 165.336L210.42 167.231C210.876 167.871 211.392 168.476 211.805 169.149L214.395 173.11C215.247 174.503 215.927 176.01 216.418 177.562C216.908 179.115 217.212 180.713 217.418 182.3C217.832 185.473 217.865 188.601 218.295 191.626C218.407 192.38 218.518 193.156 218.691 193.818C218.88 194.503 219.157 195.176 219.484 195.85C220.138 197.186 220.998 198.498 221.73 199.96C222.1 200.69 222.426 201.466 222.65 202.288C222.873 203.087 223.013 204.046 222.927 204.914C222.901 205.348 222.813 205.77 222.736 206.181C222.624 206.581 222.546 207.003 222.4 207.391C222.27 207.779 222.143 208.179 221.988 208.544C221.842 208.921 221.679 209.297 221.507 209.663C220.827 211.124 220.034 212.494 219.199 213.841L216.687 217.791L216.676 217.802C216.564 217.973 216.332 218.03 216.16 217.916C216.005 217.825 215.945 217.619 216.022 217.448Z" fill="black"/>
<path d="M63.8032 229.24C64.6639 232.882 65.2825 236.523 65.885 240.199C66.4789 243.863 67.1249 247.528 67.7704 251.192C68.4159 254.857 69.0528 258.532 69.6209 262.231C70.1803 265.918 70.7048 269.617 71.1782 273.315C72.0991 280.713 72.8845 288.121 73.6849 295.53C74.4509 302.939 75.2492 310.336 76.1271 317.733C76.1529 317.939 76.0082 318.121 75.8016 318.156C75.6037 318.178 75.4133 318.041 75.3874 317.836C74.2513 310.473 73.3041 303.076 72.3831 295.69C71.4794 288.293 70.5859 280.907 69.5617 273.544C69.0711 269.857 68.5273 266.181 67.9506 262.505C67.374 258.841 66.7199 255.176 66.0571 251.512C65.3944 247.847 64.7236 244.183 64.1125 240.496C63.5101 236.809 63.055 233.099 63.0636 229.332C63.0636 229.126 63.2363 228.955 63.4428 228.955C63.615 228.955 63.7688 229.08 63.8032 229.24Z" fill="black"/>
<path d="M67.9713 229.092C68.7632 232.791 69.3145 236.489 69.8568 240.199C70.3818 243.909 70.9821 247.619 71.6104 251.318C72.8756 258.727 74.2699 266.112 75.4835 273.555C76.6712 281.01 77.533 288.498 78.3936 295.964C79.2371 303.441 80.0467 310.907 81.2258 318.327C81.2602 318.532 81.1231 318.726 80.9165 318.761C80.7185 318.795 80.5292 318.658 80.4862 318.464C79.1263 311.055 78.0843 303.59 77.0945 296.135C76.1306 288.681 75.1666 281.227 73.867 273.841C72.619 266.432 71.1973 259.058 69.889 251.638C69.2349 247.928 68.6163 244.206 68.0655 240.473C67.5233 236.74 67.1349 232.973 67.2209 229.183C67.2209 228.978 67.3931 228.807 67.6083 228.818C67.789 228.795 67.9369 228.921 67.9713 229.092Z" fill="black"/>
<path d="M198.473 230.348C198.508 234.138 198.192 237.882 197.796 241.626L196.572 252.848C195.763 260.325 194.98 267.813 194.24 275.302C193.465 282.779 192.724 290.268 192.061 297.768C191.381 305.256 190.72 312.756 190.187 320.256C190.17 320.462 189.996 320.621 189.781 320.599C189.574 320.587 189.419 320.404 189.436 320.21C189.798 312.688 190.22 305.165 190.762 297.665C191.322 290.153 191.941 282.653 192.613 275.153C193.319 267.653 194.068 260.165 194.834 252.676L195.996 241.443C196.401 237.699 196.882 233.966 197.726 230.279C197.777 230.074 197.974 229.948 198.172 229.994C198.362 230.028 198.473 230.176 198.473 230.348Z" fill="black"/>
<path d="M193.422 229.708C193.5 231.626 193.465 233.533 193.387 235.439C193.284 237.345 193.122 239.24 192.941 241.147L192.295 246.832L191.599 252.505L188.603 275.142C187.596 282.676 186.693 290.233 186.091 297.802C185.471 305.37 185.099 312.962 185.262 320.564C185.271 320.77 185.108 320.941 184.902 320.941C184.695 320.941 184.531 320.781 184.522 320.587C184.17 312.962 184.309 305.325 184.8 297.711C185.299 290.096 186.099 282.505 186.994 274.948L189.886 252.3L190.555 246.638L191.169 240.976C191.349 239.081 191.555 237.197 191.822 235.313C192.046 233.43 192.32 231.546 192.699 229.663V229.651C192.742 229.446 192.942 229.32 193.148 229.355C193.294 229.389 193.414 229.537 193.422 229.708Z" fill="black"/>
<path d="M166.396 229.96C166.611 233.807 166.474 237.62 166.259 241.444L165.586 252.893C165.147 260.53 164.735 268.156 164.365 275.793C163.969 283.43 163.623 291.067 163.357 298.704C163.081 306.341 162.841 313.978 162.738 321.626C162.738 321.832 162.565 322.003 162.359 321.991C162.161 321.991 161.999 321.82 161.99 321.626C161.904 313.978 161.912 306.318 162.049 298.67C162.204 291.021 162.437 283.373 162.73 275.724C163.057 268.076 163.436 260.439 163.841 252.802L164.459 241.341C164.683 237.528 164.985 233.715 165.648 229.914C165.683 229.709 165.88 229.572 166.087 229.606C166.259 229.64 166.387 229.788 166.396 229.96Z" fill="black"/>
<path d="M162.323 230.462C162.392 232.391 162.342 234.32 162.256 236.238C162.17 238.156 162.032 240.074 161.869 241.991L160.903 253.464C160.292 261.112 159.742 268.772 159.295 276.432C158.822 284.092 158.452 291.763 158.254 299.434C158.039 307.105 157.944 314.777 158.09 322.459C158.099 322.665 157.936 322.836 157.73 322.836C157.523 322.836 157.359 322.676 157.35 322.482C157.015 314.799 156.886 307.105 156.955 299.411C157.041 291.717 157.298 284.035 157.668 276.352C158.072 268.669 158.589 260.998 159.166 253.338L160.07 241.843C160.397 238.019 160.81 234.195 161.576 230.405C161.619 230.199 161.816 230.074 162.022 230.108C162.203 230.131 162.323 230.291 162.323 230.462Z" fill="black"/>
<path d="M90.5416 230.062C90.7052 231.969 90.8273 233.852 90.9478 235.747L91.3593 241.421C91.6433 245.199 92.0747 248.989 92.5051 252.779C92.9526 256.569 93.3389 260.382 93.7262 264.172L94.8881 275.553L97.1097 298.338L99.2184 321.135V321.147C99.2356 321.352 99.0887 321.535 98.8822 321.557C98.6842 321.58 98.5045 321.432 98.4787 321.226L95.8187 298.487L93.2716 275.724L92.0478 264.343C91.6433 260.542 91.2404 256.763 90.7756 252.973C90.3281 249.183 89.8719 245.382 89.5707 241.558C89.2781 237.733 89.2167 233.852 89.802 230.039C89.8364 229.834 90.0258 229.697 90.2323 229.72C90.3959 229.743 90.5244 229.891 90.5416 230.062Z" fill="black"/>
<path d="M94.9338 230.565C95.8805 234.309 96.4766 238.11 96.9672 241.923L98.3604 253.373C99.2641 261.01 100.124 268.647 100.959 276.284L103.336 299.217L105.633 322.151C105.65 322.357 105.503 322.539 105.297 322.562C105.09 322.585 104.911 322.437 104.885 322.231C103.913 314.606 102.947 306.98 102.034 299.354L99.3421 276.466C98.4642 268.829 97.5691 261.204 96.631 253.578L95.1839 242.151C94.9343 240.245 94.7106 238.339 94.5384 236.421C94.3577 234.503 94.22 232.585 94.1942 230.656C94.1855 230.45 94.3588 230.279 94.5653 230.279C94.7375 230.268 94.8908 230.393 94.9338 230.565Z" fill="black"/>
<path d="M127.141 230.827C127.519 234.651 127.606 238.475 127.649 242.288C127.683 246.112 127.76 249.925 127.872 253.749C128.087 261.398 128.404 269.035 128.714 276.695C128.843 280.519 128.983 284.343 129.077 288.179C129.172 292.014 129.205 295.838 129.265 299.663C129.343 307.311 129.481 314.959 130.118 322.573C130.135 322.779 129.98 322.962 129.774 322.973C129.567 322.984 129.396 322.836 129.37 322.642C128.553 315.016 128.182 307.345 127.958 299.685C127.846 295.861 127.752 292.037 127.606 288.213C127.46 284.4 127.268 280.576 127.079 276.752C126.735 269.103 126.382 261.455 126.124 253.795C125.995 249.971 125.901 246.135 125.85 242.3C125.807 238.464 125.892 234.628 126.382 230.804C126.408 230.599 126.598 230.45 126.804 230.485C126.994 230.507 127.123 230.656 127.141 230.827Z" fill="black"/>
<path d="M131.116 231.261C131.633 235.085 131.875 238.898 132.082 242.722C132.271 246.546 132.52 250.37 132.779 254.195C133.304 261.843 133.898 269.503 134.32 277.174C134.518 281.01 134.68 284.857 134.723 288.704C134.783 292.551 134.757 296.398 134.731 300.233C134.637 307.905 134.483 315.576 134.793 323.236C134.802 323.441 134.637 323.612 134.43 323.624C134.232 323.635 134.06 323.475 134.043 323.27C133.544 315.599 133.484 307.905 133.424 300.233C133.407 296.398 133.363 292.562 133.26 288.738C133.157 284.914 132.942 281.09 132.693 277.265C132.228 269.617 131.598 261.969 131.038 254.309C130.763 250.473 130.498 246.649 130.283 242.802C130.076 238.966 130.008 235.108 130.361 231.261C130.378 231.055 130.557 230.907 130.772 230.918C130.953 230.941 131.091 231.09 131.116 231.261Z" fill="black"/>
<path d="M118.824 222.275C118.269 221.398 117.829 220.504 117.426 219.61C117.325 219.386 117.232 219.163 117.131 218.922L116.813 218.251C116.611 217.804 116.399 217.357 116.205 216.893L115.627 215.534L114.962 214.21C114.507 213.333 114.095 212.439 113.565 211.614C111.596 208.209 109.172 205.045 106.253 202.449C103.366 199.818 99.9489 197.755 96.2128 196.603C95.7416 196.465 95.2799 196.293 94.8087 196.19L93.3703 195.898C92.4194 195.657 91.4328 195.64 90.4567 195.536C90.2127 195.519 89.9703 195.485 89.7178 195.485L88.9763 195.502L87.5037 195.536C86.5192 195.588 85.5431 195.76 84.5586 195.863H84.5349C84.3246 195.88 84.1389 195.743 84.1221 195.536C84.1053 195.347 84.232 195.175 84.4087 195.141C88.3804 194.212 92.604 194.298 96.5757 195.399C100.547 196.499 104.215 198.597 107.328 201.28C110.425 203.996 112.984 207.263 115.054 210.788C115.617 211.648 116.055 212.577 116.526 213.471L117.234 214.829L117.846 216.239C118.705 218.096 119.26 220.074 119.521 222.103C119.547 222.309 119.403 222.498 119.193 222.533C119.041 222.55 118.9 222.481 118.824 222.361V222.275Z" fill="black"/>
<path d="M168.599 206.985C168.599 206.905 168.612 206.797 168.652 206.689C168.684 206.59 168.774 206.456 168.8 206.411L168.918 206.187L169.158 205.765C169.333 205.486 169.51 205.226 169.705 204.966C170.082 204.445 170.504 203.978 170.953 203.52L172.307 202.156L173.011 201.483C173.128 201.366 173.251 201.258 173.387 201.142C173.452 201.079 173.512 201.034 173.603 200.962L173.733 200.863L173.765 200.836C173.778 200.827 173.772 200.827 173.837 200.792C173.928 200.738 174.031 200.693 174.135 200.666C174.24 200.639 174.358 200.612 174.443 200.621C174.514 200.63 174.584 200.648 174.656 200.666C174.786 200.702 174.975 200.783 174.981 200.792L175.256 200.953C175.399 201.052 175.549 201.151 175.679 201.249C175.952 201.447 176.205 201.644 176.466 201.842C176.973 202.246 177.462 202.659 177.956 203.072C178.939 203.924 179.875 204.714 180.831 205.729C180.883 205.783 180.969 205.89 181.047 205.998L181.104 206.079C181.117 206.097 181.175 206.222 181.201 206.294C181.227 206.375 181.254 206.483 181.254 206.537L181.26 206.644C181.26 206.95 181.222 207.093 181.189 207.291C181.118 207.641 181.026 207.964 180.935 208.287C180.733 208.933 180.531 209.535 180.193 210.199C180.134 210.298 180.116 210.361 180.018 210.486L179.959 210.567C179.94 210.594 179.927 210.621 179.855 210.684C179.751 210.782 179.576 210.89 179.55 210.89C179.31 210.998 179.067 211.043 178.859 211.052C178.436 211.079 178.08 211.034 177.728 210.971C177.039 210.836 176.413 210.639 175.795 210.414C174.565 209.975 173.406 209.418 172.255 208.87L170.545 208.036L169.693 207.623L169.27 207.425L169.06 207.326C168.898 207.3 168.677 207.12 168.599 206.985ZM169.327 206.815C169.398 206.734 169.327 206.608 169.32 206.617L169.554 206.698L170.01 206.86L170.909 207.201L172.678 207.91C173.849 208.377 175.034 208.817 176.205 209.185C176.791 209.364 177.382 209.526 177.948 209.607C178.221 209.642 178.502 209.66 178.717 209.633C178.827 209.625 178.899 209.598 178.944 209.571C178.717 209.723 178.84 209.642 178.879 209.526C179.094 209.05 179.283 208.44 179.432 207.865C179.504 207.578 179.57 207.282 179.615 207.012C179.635 206.896 179.646 206.725 179.64 206.716V206.707C179.64 206.725 179.647 206.797 179.666 206.842C179.679 206.878 179.732 206.959 179.725 206.95L179.713 206.932L179.622 206.833C178.815 206.025 177.798 205.181 176.842 204.4C176.36 204.005 175.866 203.619 175.372 203.233C175.125 203.045 174.885 202.856 174.638 202.686L174.28 202.443L174.142 202.362C174.083 202.327 174.188 202.398 174.253 202.398C174.286 202.407 174.325 202.407 174.357 202.398C174.396 202.398 174.487 202.407 174.552 202.398C174.624 202.389 174.689 202.354 174.748 202.318C174.787 202.291 174.768 202.3 174.768 202.309L174.754 202.318L174.695 202.362C174.662 202.38 174.604 202.443 174.552 202.488C174.448 202.578 174.338 202.686 174.227 202.784L173.564 203.431L172.242 204.777C171.806 205.235 171.35 205.675 170.856 206.07C170.608 206.276 170.356 206.465 170.089 206.653L169.678 206.923L169.465 207.048C169.432 207.066 169.471 206.985 169.445 206.941C169.425 206.887 169.379 206.842 169.327 206.815Z" fill="black"/>
<path d="M202.432 182.798C202.549 182.816 202.62 182.61 202.607 182.736C202.62 182.789 202.62 182.852 202.633 182.906C202.646 183.023 202.659 183.13 202.666 183.247C202.692 183.472 202.686 183.696 202.692 183.92C202.679 184.36 202.665 184.8 202.607 185.231C202.49 186.093 202.308 186.946 202.172 187.807C202.1 188.229 202.029 188.669 201.976 189.064L201.964 189.199C201.964 189.163 201.963 189.118 201.956 189.082C201.943 189.001 201.905 188.938 201.879 188.858C201.846 188.786 201.776 188.714 201.737 188.678C201.724 188.66 201.709 188.651 201.696 188.642C201.774 188.678 201.963 188.723 202.145 188.75C202.523 188.813 202.939 188.849 203.355 188.876L203.994 188.911C204.098 188.92 204.227 188.92 204.364 188.938L204.715 188.983C205.594 189.1 206.434 189.226 207.267 189.279C207.671 189.306 208.086 189.315 208.424 189.279C208.587 189.27 208.756 189.217 208.756 189.217C208.769 189.208 208.679 189.27 208.64 189.396C208.633 189.414 208.632 189.423 208.626 189.441C208.626 189.459 208.627 189.423 208.634 189.423L208.646 189.36L208.672 189.226C208.802 188.49 208.788 187.637 208.723 186.802C208.658 185.967 208.542 185.105 208.386 184.289L208.723 184.728C208.222 184.459 207.708 184.19 207.194 183.956C206.674 183.705 206.212 183.561 205.632 183.436C205.079 183.31 204.514 183.211 203.935 183.131L203.07 183.005L202.633 182.942L202.523 182.924C202.484 182.915 202.445 182.915 202.458 182.906C202.452 182.888 202.458 182.843 202.432 182.798ZM201.989 182.188C202.112 182.152 202.27 182.125 202.42 182.125L202.686 182.134L203.127 182.152C203.42 182.161 203.721 182.17 204.02 182.197C204.619 182.233 205.216 182.296 205.822 182.385C206.127 182.43 206.407 182.475 206.739 182.556C207.064 182.637 207.351 182.736 207.643 182.843C208.216 183.059 208.764 183.292 209.317 183.561C209.493 183.642 209.609 183.804 209.648 183.974L209.654 184.001C209.863 184.89 210.026 185.761 210.136 186.658C210.24 187.556 210.319 188.472 210.195 189.468L210.169 189.656L210.155 189.755C210.148 189.773 210.156 189.773 210.142 189.818L210.104 189.944C209.987 190.276 209.726 190.5 209.557 190.599C209.179 190.814 208.907 190.85 208.634 190.895C208.107 190.976 207.638 190.967 207.176 190.949C206.258 190.913 205.36 190.805 204.508 190.707L204.209 190.68L203.922 190.671L203.251 190.644C202.796 190.617 202.34 190.581 201.852 190.509C201.605 190.464 201.358 190.42 201.033 190.303C200.935 190.258 200.883 190.249 200.74 190.159C200.682 190.123 200.624 190.078 200.565 190.034C200.487 189.962 200.382 189.836 200.317 189.728C200.239 189.612 200.219 189.486 200.199 189.351C200.193 189.288 200.187 189.217 200.193 189.154C200.2 189.073 200.199 189.1 200.199 189.073L200.22 188.876C200.278 188.4 200.35 187.978 200.415 187.538C200.565 186.667 200.681 185.797 200.876 184.944C200.974 184.513 201.111 184.091 201.255 183.678C201.339 183.472 201.417 183.265 201.515 183.059C201.56 182.96 201.611 182.852 201.663 182.753C201.689 182.7 201.716 182.655 201.749 182.601C201.762 182.592 201.852 182.278 201.989 182.188Z" fill="black"/>
<path d="M165.007 171.121C164.955 171.273 165.007 171.363 164.987 171.417L164.708 171.74C164.52 171.947 164.33 172.144 164.135 172.333L163.035 173.437C162.69 173.805 162.391 174.191 162.189 174.595C162.085 174.792 162.013 174.999 161.961 175.196L161.935 175.34L161.923 175.403C161.942 175.34 161.936 175.259 161.917 175.187L161.896 175.142V175.133C161.896 175.133 161.884 175.124 161.89 175.124C161.91 175.151 161.936 175.178 161.955 175.214C162.222 175.528 162.651 175.905 163.074 176.237C163.503 176.579 163.94 176.92 164.395 177.261L164.765 177.548L165.085 177.808C165.299 177.979 165.514 178.149 165.729 178.311C166.159 178.625 166.581 178.895 166.978 179.029C167.368 179.173 167.753 179.173 168.202 179.056C168.651 178.948 169.126 178.724 169.595 178.473L169.946 178.275H169.952C169.966 178.266 169.953 178.275 169.914 178.302C169.855 178.347 169.796 178.401 169.757 178.464C169.705 178.535 169.699 178.571 169.686 178.598C169.673 178.625 169.66 178.661 169.654 178.688C169.641 178.769 169.639 178.76 169.639 178.787V178.841C169.639 178.877 169.646 178.868 169.639 178.859C169.633 178.832 169.62 178.778 169.607 178.724C169.542 178.5 169.438 178.239 169.334 177.988C169.23 177.737 169.12 177.485 169.003 177.234C168.944 177.108 168.884 176.983 168.832 176.884L168.637 176.507C168.116 175.546 167.518 174.613 166.848 173.706C166.516 173.257 166.178 172.808 165.827 172.36L165.306 171.677L165.058 171.345C165.019 171.3 165.027 171.229 165.007 171.121ZM165.137 170.385C165.307 170.501 165.488 170.645 165.638 170.816L165.937 171.139L166.522 171.767C166.906 172.189 167.292 172.611 167.669 173.051C168.417 173.931 169.152 174.846 169.763 175.86L169.979 176.229C170.07 176.381 170.133 176.507 170.199 176.632C170.335 176.893 170.465 177.153 170.589 177.422C170.713 177.692 170.838 177.961 170.955 178.275C170.981 178.356 171.012 178.437 171.038 178.553C171.051 178.607 171.064 178.67 171.071 178.778C171.071 178.796 171.071 178.841 171.071 178.877C171.064 178.93 171.072 178.93 171.053 179.029C171.04 179.065 171.031 179.11 171.012 179.146C170.999 179.182 170.987 179.218 170.929 179.298C170.883 179.37 170.817 179.433 170.752 179.478L170.701 179.514L170.316 179.747C169.796 180.052 169.257 180.358 168.613 180.555C167.975 180.762 167.174 180.816 166.477 180.591C165.788 180.376 165.242 180.026 164.741 179.685C164.487 179.514 164.259 179.334 164.025 179.155L163.68 178.886L163.366 178.661C162.911 178.329 162.436 177.997 161.967 177.629C161.499 177.252 161.052 176.902 160.577 176.354L160.388 176.094C160.355 176.04 160.316 175.968 160.284 175.896L160.231 175.789L160.211 175.735L160.186 175.636C160.154 175.501 160.139 175.349 160.146 175.214L160.172 175.071L160.225 174.801C160.309 174.451 160.433 174.119 160.583 173.805C160.889 173.185 161.285 172.665 161.721 172.207C162.157 171.749 162.638 171.354 163.171 171.058C163.438 170.905 163.712 170.78 163.999 170.672C164.142 170.618 164.284 170.573 164.434 170.528C164.649 170.439 164.949 170.376 165.137 170.385Z" fill="black"/>
<path d="M184.686 183.973C184.548 184.052 184.529 184.159 184.479 184.183L184.058 184.235C183.782 184.263 183.506 184.29 183.239 184.304L181.684 184.42C181.183 184.463 180.702 184.578 180.286 184.742C180.073 184.83 179.89 184.928 179.721 185.055L179.603 185.145L179.553 185.181C179.612 185.142 179.662 185.081 179.687 185.016L179.699 184.97L179.703 184.963L179.708 184.955C179.708 184.955 179.712 184.936 179.708 184.943C179.705 184.975 179.705 185.011 179.698 185.05C179.695 185.462 179.774 186.028 179.87 186.553C179.966 187.091 180.078 187.634 180.203 188.193L180.292 188.651L180.36 189.062C180.408 189.331 180.455 189.598 180.517 189.859C180.636 190.375 180.782 190.852 180.989 191.22C181.192 191.583 181.483 191.836 181.896 192.048C182.308 192.26 182.811 192.397 183.337 192.514L183.732 192.596L183.741 192.595C183.755 192.6 183.746 192.602 183.693 192.589C183.623 192.579 183.542 192.584 183.468 192.605C183.436 192.615 183.394 192.626 183.371 192.635L183.329 192.657C183.302 192.673 183.273 192.691 183.246 192.707C183.178 192.759 183.192 192.749 183.169 192.771L183.133 192.814C183.115 192.841 183.12 192.834 183.124 192.827C183.138 192.806 183.164 192.754 183.186 192.708C183.281 192.497 183.374 192.234 183.458 191.974C183.541 191.714 183.624 191.453 183.698 191.181C183.731 191.052 183.772 190.911 183.796 190.808L183.893 190.396C184.133 189.33 184.286 188.237 184.373 187.115C184.421 186.553 184.451 185.992 184.485 185.426L184.541 184.578L184.572 184.16C184.579 184.109 184.629 184.061 184.686 183.973ZM185.265 183.494C185.315 183.694 185.355 183.921 185.36 184.152L185.377 184.587L185.412 185.443C185.426 186.016 185.439 186.591 185.433 187.166C185.422 188.317 185.379 189.491 185.176 190.659L185.099 191.078C185.064 191.251 185.036 191.387 185 191.535C184.931 191.825 184.858 192.11 184.779 192.388C184.697 192.673 184.619 192.951 184.5 193.266C184.465 193.345 184.435 193.43 184.378 193.53C184.352 193.583 184.322 193.642 184.259 193.724C184.251 193.738 184.219 193.775 184.192 193.803C184.151 193.839 184.155 193.843 184.073 193.903C184.041 193.926 184.005 193.944 183.964 193.968C183.936 193.983 183.895 194.006 183.802 194.03C183.723 194.046 183.633 194.05 183.548 194.048L183.482 194.046L183.038 193.974C182.446 193.865 181.839 193.74 181.218 193.466C180.602 193.211 179.959 192.721 179.582 192.099C179.201 191.483 179.021 190.861 178.862 190.274C178.784 189.971 178.724 189.692 178.661 189.407L178.575 188.974L178.49 188.602C178.356 188.056 178.221 187.487 178.109 186.907C178.001 186.321 177.888 185.754 177.888 185.029L177.914 184.714C177.926 184.656 177.942 184.566 177.962 184.495L177.99 184.386L178.006 184.333L178.051 184.24C178.116 184.113 178.203 183.99 178.298 183.898L178.414 183.803L178.631 183.626C178.924 183.416 179.238 183.24 179.552 183.114C180.181 182.849 180.827 182.715 181.454 182.65C182.085 182.579 182.707 182.602 183.304 182.729C183.602 182.786 183.891 182.87 184.182 182.978C184.325 183.036 184.47 183.093 184.604 183.151C184.865 183.213 185.128 183.361 185.265 183.494Z" fill="black"/>
<path d="M196.584 165.941C196.529 165.84 196.477 165.778 196.444 165.732C196.417 165.654 196.41 165.524 196.393 165.425C196.377 165.214 196.356 165.007 196.36 164.804C196.351 164.401 196.383 164.014 196.414 163.644C196.438 163.278 196.44 162.901 196.379 162.653C196.357 162.522 196.305 162.443 196.303 162.432L196.308 162.427L196.311 162.43C196.339 162.462 196.37 162.487 196.404 162.515C196.475 162.564 196.552 162.607 196.633 162.627C196.694 162.648 196.717 162.65 196.761 162.658C197.061 162.678 197.022 162.628 197.036 162.64C197.028 162.642 196.952 162.674 196.887 162.714C196.273 163.067 195.589 163.587 194.917 164.072C194.192 164.587 193.541 165.005 193.029 165.517C192.521 166.004 192.19 166.607 191.93 167.354C191.862 167.533 191.805 167.721 191.742 167.915L191.655 168.203L191.614 168.345L191.61 168.363C191.608 168.361 191.604 168.433 191.626 168.234C191.634 168.09 191.579 167.921 191.495 167.815C191.445 167.755 191.437 167.749 191.414 167.731C191.394 167.714 191.376 167.69 191.35 167.678C191.262 167.606 191.133 167.574 191.153 167.581C191.138 167.578 191.122 167.575 191.101 167.577C191.069 167.578 191.185 167.578 191.258 167.582L191.536 167.557C191.727 167.535 191.932 167.505 192.111 167.473C192.867 167.331 193.636 167.089 194.4 166.784C194.785 166.639 195.166 166.472 195.549 166.315L196.13 166.075L196.42 165.957C196.465 165.937 196.52 165.936 196.584 165.941ZM197.168 166.409C197.048 166.499 196.912 166.587 196.769 166.667L196.496 166.828L195.949 167.141C195.582 167.348 195.207 167.551 194.829 167.749C194.068 168.14 193.276 168.514 192.397 168.753C192.167 168.809 191.961 168.857 191.735 168.897C191.623 168.919 191.507 168.936 191.387 168.95C191.252 168.962 191.159 168.99 190.917 168.97C190.873 168.963 190.829 168.955 190.786 168.948C190.78 168.952 190.627 168.903 190.516 168.821C190.491 168.8 190.459 168.783 190.437 168.755C190.411 168.734 190.396 168.721 190.344 168.65C190.257 168.532 190.199 168.353 190.202 168.195C190.215 167.989 190.226 168.044 190.223 168.033L190.226 168.017L190.261 167.857L190.329 167.537C190.38 167.325 190.43 167.11 190.5 166.894C190.737 166.044 191.166 165.105 191.843 164.39C192.499 163.685 193.259 163.18 193.88 162.702C194.547 162.185 195.187 161.665 196.017 161.17C196.133 161.105 196.243 161.046 196.433 160.975C196.541 160.952 196.607 160.873 197.012 160.904C197.07 160.914 197.107 160.917 197.179 160.939C197.272 160.967 197.363 161.013 197.446 161.072C197.485 161.105 197.525 161.137 197.559 161.165L197.573 161.177L197.599 161.206L197.703 161.33C197.948 161.654 198.062 161.973 198.122 162.248C198.25 162.815 198.234 163.293 198.215 163.758C198.186 164.224 198.096 164.668 197.941 165.087C197.866 165.298 197.764 165.497 197.654 165.699L197.465 166.006C197.378 166.169 197.271 166.305 197.168 166.409Z" fill="black"/>
<path d="M178.644 154.086C178.611 154.257 178.651 154.4 178.697 154.481C178.716 154.526 178.729 154.544 178.735 154.571C178.716 154.625 178.682 154.696 178.656 154.759C178.526 155.002 178.403 155.253 178.259 155.477C177.98 155.944 177.668 156.384 177.336 156.806C176.679 157.659 176.041 158.538 175.449 159.418L175.533 158.61C175.871 159.454 176.235 160.316 176.606 161.142C176.795 161.555 176.992 161.967 177.2 162.344C177.304 162.533 177.407 162.721 177.511 162.865C177.576 162.973 177.57 162.946 177.668 163.072C177.902 163.359 177.935 163.538 177.987 163.7C178.072 163.996 178.111 164.256 178.144 164.337C178.144 164.346 178.148 164.355 178.135 164.328L178.123 164.31C178.11 164.292 178.09 164.265 178.07 164.239C178.051 164.221 177.921 164.086 177.798 164.059C177.72 164.032 177.634 164.014 177.55 164.014C177.472 164.014 177.44 164.023 177.381 164.032C177.173 164.113 177.382 164.023 177.428 163.978C177.773 163.736 178.143 163.449 178.508 163.17L180.667 161.42L180.427 162.048C180.362 161.375 180.244 160.666 180.12 159.984C179.99 159.292 179.848 158.601 179.679 157.91C179.51 157.228 179.314 156.546 179.093 155.872C178.983 155.54 178.865 155.208 178.741 154.876L178.656 154.634C178.636 154.589 178.632 154.544 178.632 154.49C178.625 154.382 178.65 154.248 178.644 154.086ZM178.741 153.341C178.885 153.503 179.068 153.7 179.217 153.924C179.289 154.041 179.36 154.158 179.418 154.275L179.543 154.526C179.712 154.858 179.861 155.19 179.998 155.531C180.284 156.204 180.545 156.896 180.779 157.587C181.007 158.287 181.227 158.987 181.403 159.696C181.579 160.414 181.735 161.115 181.859 161.878C181.898 162.102 181.813 162.318 181.657 162.461L181.617 162.497C180.92 163.134 180.218 163.754 179.502 164.373C179.137 164.678 178.787 164.984 178.377 165.298C178.234 165.379 178.253 165.441 177.83 165.612C177.746 165.63 177.68 165.648 177.576 165.648C177.466 165.648 177.349 165.63 177.245 165.594C177.069 165.54 176.88 165.378 176.834 165.307C176.795 165.262 176.756 165.208 176.73 165.172L176.68 165.073C176.64 165.001 176.626 164.957 176.606 164.903C176.483 164.544 176.457 164.337 176.405 164.185C176.392 164.113 176.347 164.077 176.425 164.185C176.38 164.122 176.203 163.933 176.151 163.844C175.982 163.61 175.852 163.395 175.728 163.179C175.481 162.748 175.261 162.318 175.053 161.887C174.63 161.025 174.258 160.163 173.894 159.274C173.783 158.996 173.821 158.7 173.971 158.467L173.979 158.458C174.604 157.515 175.247 156.617 175.917 155.729C176.255 155.28 176.619 154.858 177.029 154.481C177.231 154.283 177.46 154.113 177.688 153.942L177.869 153.817C177.967 153.736 178.065 153.655 178.176 153.592C178.378 153.44 178.592 153.377 178.741 153.341Z" fill="black"/>
<path d="M192.362 207.539C192.261 207.668 192.182 207.775 192.122 207.868C192.061 207.95 192.02 208.022 191.878 208.115C191.646 208.295 191.403 208.459 191.161 208.608C190.675 208.911 190.159 209.153 189.643 209.39C188.622 209.878 187.599 210.392 186.618 210.921L186.789 209.503C187.466 210.119 188.176 210.747 188.894 211.291C189.248 211.559 189.622 211.826 189.956 211.991L190.067 212.042L190.2 212.104C190.27 212.134 190.329 212.17 190.389 212.217C190.632 212.386 190.774 212.602 190.845 212.72C190.915 212.844 190.967 212.88 190.876 212.808C190.775 212.72 190.594 212.715 190.604 212.726C190.635 212.721 190.756 212.7 190.857 212.674L191.189 212.592L191.869 212.412L193.244 212.032L195.994 211.261L195.571 212.088C195.449 211.713 195.238 211.24 195.005 210.829C194.772 210.407 194.498 210.001 194.205 209.611C193.902 209.225 193.588 208.845 193.244 208.495C193.082 208.31 192.898 208.146 192.716 207.971C192.574 207.817 192.494 207.714 192.362 207.539ZM192.454 206.794C192.727 206.938 193.05 207.143 193.272 207.323C193.475 207.488 193.7 207.637 193.892 207.822C194.297 208.166 194.669 208.547 195.033 208.937C195.387 209.338 195.722 209.76 196.026 210.207C196.329 210.67 196.603 211.101 196.826 211.687C196.947 212.006 196.795 212.366 196.472 212.489L196.45 212.494L196.399 212.515L193.69 213.456L192.324 213.903L191.625 214.119L191.262 214.221C191.14 214.257 191.018 214.293 190.816 214.324C190.695 214.34 190.542 214.35 190.37 214.314C190.198 214.283 190.006 214.191 189.874 214.083C189.601 213.857 189.54 213.682 189.469 213.605C189.419 213.517 189.41 213.538 189.45 213.574L189.479 213.594L189.501 213.6L189.45 213.579L189.239 213.486C188.713 213.235 188.297 212.952 187.882 212.659C187.063 212.073 186.323 211.461 185.584 210.788C185.23 210.464 185.2 209.909 185.524 209.549C185.585 209.477 185.657 209.42 185.749 209.374L185.758 209.369C186.79 208.793 187.82 208.269 188.872 207.755C189.398 207.498 189.925 207.251 190.481 207.082C190.764 206.994 191.048 206.927 191.341 206.876C191.462 206.855 191.685 206.814 191.888 206.783C192.1 206.778 192.292 206.778 192.454 206.794Z" fill="black"/>
<path d="M148.828 160.179C148.702 160.213 148.61 160.269 148.553 160.322L148.492 160.38C148.474 160.397 148.394 160.387 148.349 160.388C148.135 160.377 147.931 160.356 147.728 160.315C147.33 160.245 146.945 160.119 146.573 159.982C145.823 159.713 145.045 159.46 144.297 159.253L145.365 158.671C145.168 159.292 144.969 159.946 144.814 160.57C144.743 160.881 144.677 161.2 144.652 161.456C144.648 161.514 144.642 161.583 144.648 161.62L144.646 161.653L144.644 161.665L144.651 161.776C144.654 161.932 144.623 162.067 144.589 162.163C144.516 162.37 144.439 162.485 144.39 162.563C144.338 162.633 144.319 162.693 144.347 162.603C144.355 162.585 144.364 162.533 144.367 162.488C144.375 162.428 144.364 162.376 144.351 162.303C144.314 162.158 144.239 162.058 144.197 162.023C144.149 161.984 144.224 162.051 144.278 162.084L144.678 162.354L145.535 162.906L147.284 163.993L146.447 164.135C146.687 163.886 146.951 163.543 147.182 163.219C147.416 162.892 147.634 162.547 147.833 162.189C148.029 161.834 148.216 161.468 148.368 161.081L148.593 160.506C148.639 160.39 148.644 160.362 148.686 160.323L148.828 160.179ZM149.491 159.829C149.496 159.972 149.498 160.141 149.483 160.304C149.47 160.465 149.427 160.654 149.412 160.742C149.362 160.959 149.322 161.178 149.253 161.392C149.133 161.823 148.982 162.242 148.813 162.656C148.644 163.07 148.445 163.481 148.227 163.878C148.002 164.281 147.768 164.639 147.454 165.042C147.267 165.282 146.941 165.346 146.679 165.211L146.615 165.177C145.996 164.858 145.381 164.547 144.77 164.211L143.856 163.704C143.701 163.617 143.547 163.527 143.381 163.419C143.295 163.362 143.227 163.332 143.053 163.178C142.948 163.075 142.813 162.905 142.766 162.684C142.738 162.573 142.736 162.479 142.74 162.369C142.749 162.286 142.765 162.197 142.785 162.135C142.868 161.887 142.944 161.793 142.98 161.717C143.019 161.648 143.029 161.618 143.013 161.664C143.005 161.683 142.995 161.736 142.994 161.8C142.996 161.82 142.993 161.833 142.998 161.85L142.994 161.8L142.988 161.7C142.976 161.562 142.985 161.457 142.989 161.347C143.012 160.922 143.078 160.564 143.148 160.201C143.291 159.481 143.475 158.809 143.695 158.113C143.835 157.663 144.303 157.412 144.755 157.538L144.762 157.541C145.595 157.763 146.377 158.013 147.175 158.279C147.573 158.413 147.961 158.566 148.324 158.787C148.507 158.891 148.682 159.021 148.848 159.161C148.9 159.198 148.911 159.231 148.992 159.281C149.067 159.337 149.141 159.394 149.211 159.456C149.334 159.584 149.43 159.716 149.491 159.829Z" fill="black"/>
<path d="M168.592 189.503C168.645 189.584 168.814 189.611 168.879 189.584L168.834 189.62L168.743 189.701L168.56 189.844L168.184 190.105C167.93 190.266 167.669 190.419 167.409 190.554C166.882 190.832 166.342 191.056 165.788 191.263C164.695 191.667 163.582 192.08 162.541 192.528L162.171 192.699L162.021 192.78L161.976 192.807L161.994 192.789C162.001 192.78 161.989 192.789 162.008 192.771C162.047 192.735 162.086 192.69 162.118 192.645C162.144 192.609 162.183 192.529 162.183 192.52L162.177 192.537L162.165 192.573L162.139 192.645C162.119 192.69 162.092 192.744 162.086 192.798C162.06 192.905 162.021 193.013 162.008 193.13C161.917 193.597 161.897 194.126 161.929 194.674C161.988 195.769 162.216 196.891 162.411 198.085L162.425 198.229C162.419 198.148 162.425 198.22 162.425 198.22L162.431 198.282L162.444 198.426L162.464 198.552C162.464 198.57 162.47 198.588 162.47 198.579C162.47 198.588 162.471 198.57 162.458 198.543C162.458 198.552 162.437 198.498 162.405 198.444L162.385 198.408L162.328 198.327C162.204 198.175 161.957 198.058 161.775 198.058L161.852 198.067C161.891 198.085 162.105 198.058 162.32 197.995C162.541 197.923 162.782 197.825 163.023 197.717C163.498 197.501 164.012 197.205 164.552 196.963C165.554 196.496 166.53 195.966 167.259 195.293C167.968 194.62 168.306 193.704 168.365 192.6C168.417 192.062 168.418 191.496 168.418 190.931L168.424 190.087C168.424 189.907 168.508 189.755 168.592 189.503ZM169.003 188.875C169.107 189.198 169.223 189.611 169.249 190.006L169.329 190.877C169.368 191.451 169.413 192.026 169.4 192.627C169.4 193.22 169.353 193.848 169.152 194.476C168.963 195.105 168.612 195.706 168.17 196.182C167.265 197.107 166.211 197.699 165.183 198.247C164.695 198.498 164.226 198.794 163.68 199.081C163.407 199.225 163.126 199.36 162.808 199.476C162.482 199.584 162.131 199.71 161.604 199.656L161.677 199.665C161.488 199.665 161.234 199.548 161.104 199.387L161.059 199.333L161.051 199.324L161.039 199.306L161.012 199.261C160.973 199.198 160.947 199.126 160.947 199.126C160.927 199.072 160.915 199.036 160.908 199.019L160.876 198.884L160.837 198.686L160.805 198.498L160.79 198.399C160.784 198.345 160.785 198.363 160.778 198.229L160.79 198.372C160.576 197.241 160.302 196.056 160.205 194.791C160.159 194.162 160.146 193.507 160.27 192.807C160.296 192.636 160.348 192.457 160.394 192.277C160.413 192.187 160.453 192.098 160.485 192.008L160.538 191.873L160.563 191.81L160.577 191.774C160.59 191.756 160.642 191.658 160.681 191.604C160.726 191.541 160.771 191.487 160.823 191.442L160.882 191.388L160.994 191.308L161.142 191.218L161.384 191.092L161.819 190.886C162.938 190.392 164.044 189.979 165.15 189.557C165.703 189.351 166.27 189.162 166.856 189.037C167.142 188.974 167.441 188.92 167.74 188.884L168.196 188.839L168.43 188.83H168.548H168.607C168.711 188.794 168.912 188.812 169.003 188.875Z" fill="black"/>
<path d="M205.762 200.349C205.827 200.457 205.932 200.502 205.971 200.511C205.984 200.52 205.991 200.502 205.998 200.538L206.004 200.628L206.016 200.798C206.029 201.023 206.042 201.256 206.049 201.48C206.055 201.938 206.056 202.387 206.03 202.836C205.985 203.733 205.861 204.631 205.809 205.529C205.744 206.426 205.698 207.324 205.711 208.186C205.718 208.401 205.724 208.617 205.737 208.814L205.75 208.967C205.756 209.012 205.762 208.958 205.756 208.967C205.743 208.949 205.757 208.976 205.77 208.985C205.783 209.003 205.777 209.012 205.803 209.039C205.946 209.254 206.25 209.55 206.569 209.811C207.213 210.34 207.976 210.816 208.731 211.274L209.015 211.444L209.166 211.525L209.178 211.534C209.106 211.489 209.023 211.462 208.932 211.444C208.847 211.426 208.736 211.435 208.684 211.444L208.625 211.453C208.592 211.462 208.547 211.48 208.527 211.489H208.515C208.509 211.498 208.594 211.435 208.666 211.381L208.893 211.184C209.049 211.04 209.204 210.888 209.367 210.735L209.491 210.618C209.543 210.574 209.581 210.538 209.601 210.511C209.653 210.457 209.713 210.403 209.778 210.313C210.292 209.676 210.793 208.895 211.274 208.141C211.756 207.378 212.224 206.597 212.673 205.816L212.777 206.624C211.677 205.439 210.513 204.272 209.322 203.168C208.724 202.611 208.106 202.091 207.462 201.606C207.143 201.355 206.811 201.139 206.486 200.915L205.977 200.61C205.854 200.583 205.872 200.511 205.762 200.349ZM205.392 199.703C205.659 199.712 206.063 199.784 206.323 199.909L206.909 200.188C207.286 200.394 207.656 200.61 208.001 200.843C208.71 201.31 209.387 201.812 210.038 202.333C211.352 203.374 212.583 204.496 213.773 205.69C213.982 205.906 214.019 206.22 213.889 206.471L213.877 206.498C213.448 207.315 213.011 208.123 212.549 208.931C212.081 209.739 211.631 210.529 211.026 211.337C210.955 211.435 210.857 211.552 210.76 211.66C210.708 211.723 210.669 211.767 210.63 211.794L210.512 211.92C210.349 212.082 210.181 212.252 210.006 212.423C209.914 212.504 209.823 212.593 209.719 212.683C209.608 212.773 209.516 212.854 209.308 212.979L209.225 213.024C209.173 213.042 209.107 213.069 209.042 213.087L208.944 213.114C208.873 213.123 208.749 213.132 208.651 213.114C208.547 213.096 208.443 213.06 208.358 213.015L208.34 213.006L208.19 212.925L207.885 212.755C207.065 212.288 206.265 211.803 205.477 211.202C205.087 210.888 204.696 210.574 204.318 210.035C204.273 209.972 204.227 209.873 204.182 209.793C204.136 209.703 204.097 209.631 204.064 209.496C204.031 209.389 203.999 209.227 203.993 209.164L203.981 208.976C203.955 208.724 203.953 208.482 203.94 208.24C203.927 207.279 203.967 206.355 204.025 205.421C204.097 204.496 204.149 203.572 204.312 202.656C204.39 202.198 204.507 201.75 204.644 201.292C204.722 201.067 204.794 200.843 204.892 200.619L204.963 200.457L205.001 200.376L205.054 200.233C205.132 199.999 205.281 199.82 205.392 199.703Z" fill="black"/>
<path d="M151.578 173.39C151.643 173.399 151.727 173.381 151.779 173.328C151.812 173.292 151.805 173.31 151.805 173.319V173.354L151.791 173.489C151.785 173.579 151.766 173.66 151.746 173.749C151.714 173.911 151.674 174.073 151.622 174.225C151.525 174.521 151.401 174.8 151.271 175.051C151.212 175.177 151.147 175.293 151.114 175.365C151.114 175.374 151.095 175.419 151.102 175.392C151.108 175.356 151.101 175.437 151.114 175.239C151.114 175.204 151.108 175.168 151.102 175.141L151.09 175.096L151.096 175.105L151.108 175.141L151.128 175.204C151.193 175.392 151.311 175.625 151.448 175.85C151.734 176.308 152.11 176.766 152.501 177.232C152.891 177.699 153.315 178.166 153.731 178.704L153.829 178.857C153.803 178.803 153.802 178.803 153.802 178.812L153.814 178.83L153.847 178.884L153.92 178.992L153.985 179.081C153.992 179.09 153.998 179.099 153.991 179.09C153.978 179.073 153.99 179.082 153.906 179.019L153.888 179.001L153.829 178.965C153.725 178.911 153.594 178.875 153.477 178.866H153.385H153.347C153.295 178.875 153.25 178.884 153.204 178.902C153.185 178.911 153.152 178.92 153.139 178.929H153.131C153.138 178.929 153.177 178.893 153.196 178.884L153.385 178.722C153.659 178.48 153.932 178.202 154.193 177.914C154.323 177.771 154.447 177.627 154.571 177.484C154.623 177.412 154.688 177.34 154.733 177.277L154.79 177.187L154.811 177.161C154.817 177.152 154.799 177.187 154.799 177.196C154.792 177.214 154.765 177.358 154.784 177.385C154.778 177.376 154.791 177.385 154.784 177.367C154.771 177.313 154.752 177.25 154.713 177.178C154.648 177.035 154.556 176.864 154.465 176.703C154.27 176.379 154.05 176.056 153.823 175.733C153.608 175.428 153.334 175.069 153.152 174.907C152.631 174.485 152.17 173.974 151.578 173.39ZM151.395 172.663C152.123 173.04 152.975 173.498 153.776 174.028C154.244 174.36 154.478 174.656 154.784 174.97C155.071 175.284 155.337 175.617 155.598 175.967C155.728 176.146 155.852 176.326 155.976 176.541C156.034 176.64 156.092 176.766 156.151 176.909C156.177 176.981 156.211 177.089 156.23 177.187C156.256 177.304 156.25 177.564 156.197 177.672C156.178 177.735 156.144 177.816 156.124 177.852L156.073 177.95C156.034 178.022 156.002 178.067 155.97 178.121C155.905 178.229 155.84 178.318 155.775 178.408C155.644 178.588 155.513 178.758 155.376 178.929C155.103 179.27 154.837 179.584 154.518 179.907C154.44 179.988 154.349 180.069 154.252 180.159C154.193 180.204 154.153 180.239 154.069 180.302L153.932 180.392L153.9 180.41L153.802 180.455C153.731 180.482 153.658 180.5 153.587 180.518L153.536 180.527H153.509C153.496 180.527 153.509 180.527 153.424 180.527C153.3 180.527 153.158 180.482 153.048 180.428L152.983 180.392L152.95 180.374C152.846 180.293 152.845 180.284 152.806 180.248L152.708 180.141L152.586 179.988L152.48 179.844L152.43 179.773L152.397 179.728C152.384 179.71 152.371 179.692 152.332 179.611L152.43 179.764C152.065 179.333 151.623 178.875 151.193 178.399C150.764 177.915 150.335 177.412 149.951 176.81C149.762 176.505 149.58 176.182 149.437 175.778L149.384 175.617L149.357 175.536L149.351 175.518L149.339 175.446C149.332 175.392 149.325 175.338 149.325 175.284C149.331 175.015 149.358 175.015 149.378 174.907C149.404 174.809 149.423 174.782 149.443 174.71C149.527 174.494 149.612 174.342 149.703 174.189C149.885 173.893 150.086 173.633 150.327 173.408C150.444 173.292 150.575 173.193 150.711 173.094C150.783 173.049 150.849 172.995 150.927 172.96C150.966 172.942 150.998 172.915 151.037 172.897L151.069 172.879C151.082 172.879 151.083 172.879 151.128 172.825C151.206 172.744 151.317 172.681 151.395 172.663Z" fill="black"/>
<path d="M163.023 153.176C163.073 153.15 163.096 153.081 163.098 153.03C163.094 152.991 163.103 153.018 163.119 153.032L163.146 153.074L163.264 153.235C163.341 153.339 163.406 153.449 163.482 153.553C163.614 153.76 163.743 153.967 163.852 154.171C164.085 154.595 164.274 155.013 164.455 155.424C164.541 155.626 164.642 155.824 164.707 155.953C164.725 155.987 164.744 156.02 164.734 155.994C164.726 155.986 164.741 156 164.716 155.978C164.659 155.927 164.589 155.881 164.52 155.854C164.459 155.834 164.49 155.846 164.498 155.853L164.528 155.861L164.589 155.879L164.704 155.914C165.059 155.986 165.482 155.994 165.917 155.979C166.793 155.935 167.702 155.778 168.631 155.586C169.561 155.414 170.496 155.19 171.496 155.044L171.687 155.039C171.62 155.032 171.641 155.034 171.641 155.034L171.687 155.039L171.787 155.024L172.002 155.004L172.191 154.981C172.214 154.984 172.241 154.972 172.227 154.977L172.206 154.975C172.177 154.984 172.148 154.994 172.121 155.023C172.058 155.055 171.962 155.127 171.903 155.197C171.876 155.227 171.829 155.291 171.823 155.303L171.816 155.316L171.797 155.352C171.733 155.524 171.762 155.444 171.766 155.413C171.771 155.381 171.77 155.292 171.773 155.241C171.767 155.112 171.768 154.972 171.753 154.816C171.71 154.228 171.635 153.609 171.523 152.994C171.478 152.688 171.42 152.389 171.355 152.1C171.319 151.961 171.289 151.808 171.247 151.681C171.227 151.628 171.211 151.545 171.193 151.511L171.172 151.437C171.164 151.429 171.173 151.455 171.187 151.45C171.193 151.438 171.223 151.52 171.254 151.53C171.27 151.545 171.293 151.545 171.309 151.56C171.286 151.558 171.293 151.548 171.226 151.541C171.134 151.512 170.993 151.507 170.858 151.492C170.583 151.474 170.278 151.466 169.97 151.49C169.365 151.513 168.737 151.585 168.13 151.659C167.525 151.752 166.872 151.82 166.425 152.021C165.36 152.409 164.242 152.766 163.023 153.176ZM162.324 152.92C163.448 152.301 164.675 151.616 165.94 150.999C166.096 150.927 166.244 150.847 166.459 150.774C166.631 150.717 166.796 150.672 166.962 150.626C167.293 150.534 167.612 150.466 167.931 150.399C168.577 150.272 169.227 150.165 169.893 150.091C170.23 150.058 170.561 150.037 170.925 150.045C171.111 150.053 171.296 150.06 171.506 150.09C171.596 150.1 171.748 150.149 171.879 150.195C171.976 150.212 172.302 150.435 172.389 150.566C172.441 150.649 172.493 150.73 172.53 150.798L172.597 150.948C172.637 151.055 172.668 151.135 172.698 151.215C172.76 151.395 172.797 151.555 172.843 151.72C172.934 152.051 173.009 152.365 173.078 152.694C173.216 153.35 173.331 153.985 173.406 154.673C173.423 154.848 173.439 155.022 173.442 155.202C173.437 155.304 173.444 155.38 173.435 155.513C173.411 155.652 173.448 155.722 173.317 156.047L173.267 156.144L173.255 156.169C173.248 156.181 173.204 156.246 173.171 156.287C173.105 156.37 172.993 156.447 172.923 156.49C172.874 156.517 172.831 156.53 172.781 156.557L172.71 156.581C172.616 156.603 172.564 156.61 172.513 156.617L172.23 156.664L171.967 156.693L171.828 156.71L171.752 156.713C171.716 156.716 171.695 156.714 171.591 156.709L171.783 156.705C170.895 156.863 169.955 157.097 169.006 157.306C168.049 157.508 167.076 157.695 166.03 157.746C165.507 157.771 164.965 157.762 164.377 157.659L164.145 157.607L164.031 157.576L163.967 157.555C163.945 157.553 163.945 157.553 163.86 157.511C163.736 157.453 163.609 157.374 163.512 157.287C163.439 157.221 163.422 157.188 163.38 157.132C163.289 157.032 163.245 156.957 163.201 156.881C163.017 156.592 162.92 156.364 162.822 156.116C162.633 155.628 162.504 155.155 162.42 154.672C162.375 154.436 162.352 154.185 162.336 153.939C162.331 153.81 162.318 153.692 162.321 153.571L162.319 153.393L162.32 153.341C162.318 153.321 162.318 153.322 162.304 153.257C162.291 153.121 162.303 153.008 162.324 152.92Z" fill="black"/>
<path d="M198.289 197.882C198.244 197.926 198.221 198.01 198.235 198.082C198.244 198.131 198.236 198.115 198.224 198.105L198.193 198.089L198.083 197.999C198.011 197.95 197.954 197.883 197.885 197.827C197.766 197.708 197.652 197.593 197.551 197.469C197.345 197.229 197.177 196.979 197.034 196.74C196.963 196.62 196.892 196.501 196.85 196.436C196.845 196.432 196.822 196.394 196.83 196.41L196.841 196.419C196.847 196.424 196.842 196.42 196.854 196.429C196.877 196.448 196.904 196.471 196.936 196.487C196.968 196.504 197.001 196.519 197.027 196.531C197.069 196.544 197.096 196.558 197.075 196.551L197.04 196.541L196.977 196.521C196.784 196.475 196.524 196.454 196.263 196.453C195.722 196.456 195.139 196.536 194.539 196.633C193.933 196.725 193.319 196.833 192.638 196.915L192.454 196.917C192.517 196.918 192.519 196.918 192.509 196.921L192.485 196.92L192.423 196.92L192.292 196.924L192.188 196.93C192.173 196.928 192.164 196.931 192.179 196.933C192.198 196.927 192.193 196.935 192.283 196.897L192.31 196.887L192.394 196.845C192.493 196.784 192.588 196.68 192.647 196.586C192.691 196.51 192.682 196.532 192.7 196.495C192.72 196.451 192.734 196.402 192.739 196.356L192.745 196.291L192.744 196.277C192.74 196.285 192.749 196.334 192.753 196.358L192.791 196.602C192.849 196.955 192.948 197.343 193.053 197.714C193.109 197.902 193.157 198.084 193.22 198.258C193.245 198.34 193.284 198.431 193.313 198.506C193.329 198.539 193.347 198.584 193.355 198.601C193.366 198.63 193.386 198.656 193.347 198.604C193.335 198.594 193.231 198.49 193.188 198.496C193.198 198.493 193.186 198.504 193.201 198.506C193.257 198.522 193.313 198.535 193.402 198.548C193.561 198.566 193.752 198.581 193.936 198.579C194.314 198.584 194.705 198.562 195.097 198.538C195.471 198.519 195.918 198.478 196.15 198.404C196.807 198.202 197.485 198.076 198.289 197.882ZM199.002 198.102C198.299 198.522 197.47 199.012 196.6 199.416C196.074 199.645 195.696 199.691 195.27 199.789C194.851 199.872 194.431 199.922 193.997 199.952C193.777 199.964 193.557 199.979 193.308 199.968C193.191 199.963 193.053 199.952 192.904 199.931C192.824 199.916 192.716 199.876 192.627 199.844C192.501 199.791 192.289 199.649 192.225 199.546C192.124 199.422 192.092 199.355 192.056 199.296C192.013 199.219 191.995 199.174 191.965 199.119C191.909 199.001 191.865 198.904 191.82 198.796C191.732 198.592 191.659 198.39 191.587 198.188C191.441 197.784 191.315 197.373 191.208 196.939C191.177 196.833 191.154 196.711 191.135 196.583C191.124 196.503 191.115 196.455 191.111 196.361L191.109 196.196L191.112 196.157L191.126 196.058C191.142 195.989 191.164 195.907 191.186 195.843C191.206 195.799 191.197 195.802 191.243 195.719C191.31 195.61 191.401 195.512 191.513 195.441L191.589 195.402L191.607 195.394L191.638 195.382C191.755 195.335 191.779 195.335 191.816 195.324L191.961 195.3L192.155 195.276L192.335 195.261L192.431 195.258L192.49 195.255C192.514 195.254 192.531 195.248 192.621 195.261L192.444 195.268C193.004 195.189 193.617 195.044 194.248 194.931C194.879 194.819 195.537 194.718 196.25 194.703C196.613 194.706 196.982 194.713 197.397 194.81L197.56 194.854L197.637 194.876C197.637 194.876 197.684 194.894 197.737 194.917C197.784 194.935 197.834 194.966 197.878 194.991C197.922 195.017 197.97 195.048 198.01 195.081L198.064 195.135L198.162 195.234C198.224 195.305 198.249 195.336 198.288 195.389C198.422 195.58 198.511 195.725 198.595 195.886C198.752 196.198 198.865 196.504 198.928 196.83C198.964 196.992 198.98 197.159 198.992 197.321C198.994 197.404 199.001 197.491 198.993 197.576C198.991 197.615 198.993 197.659 198.988 197.705L198.982 197.739C198.978 197.746 198.973 197.755 199 197.817C199.031 197.904 199.03 198.023 199.002 198.102Z" fill="black"/>
<path d="M89.1077 164.006C86.9326 162.251 84.805 160.448 82.6539 158.669L76.2895 153.221C72.0491 149.589 67.8826 145.872 63.7282 142.142C55.4554 134.647 47.1829 127.138 39.1196 119.398C38.1179 118.423 37.1049 117.446 36.1153 116.459C35.1271 115.458 34.1395 114.471 33.1951 113.364C33.0808 113.228 32.9561 113.076 32.8344 112.91C32.7051 112.715 32.6051 112.638 32.4354 112.221C32.4204 112.161 32.3907 112.156 32.3834 111.926C32.3819 111.84 32.3926 111.742 32.4122 111.66C32.4349 111.551 32.4592 111.513 32.4471 111.525L32.5036 111.407L32.6132 111.171L32.8273 110.685L33.6739 108.736C33.9694 108.094 34.3167 107.476 34.6227 106.836C34.9499 106.2 35.2538 105.574 35.6426 104.964C38.4656 100.056 42.2222 95.5697 46.9015 92.2854C51.5626 88.9692 57.0282 86.8612 62.6402 85.9789C65.4538 85.5178 68.2958 85.3896 71.136 85.4753C73.9837 85.591 76.78 85.8966 79.5956 86.6049L78.6846 87.0726C79.8911 84.0809 81.4717 81.3884 83.3206 78.8187C85.1574 76.2608 87.3061 73.9196 89.692 71.8514C92.0958 69.8152 94.7599 68.0569 97.6163 66.7058C100.474 65.3408 103.53 64.4267 106.642 63.8942C109.753 63.3616 112.925 63.2542 116.06 63.496C116.843 63.517 117.627 63.6236 118.402 63.7145C119.177 63.8053 119.964 63.8841 120.732 64.0448L121.892 64.2523L122.471 64.3628L122.768 64.4194L122.84 64.4332L122.873 64.4395C122.915 64.4475 122.833 64.4175 122.978 64.4596C123.176 64.5257 123.321 64.6816 123.319 64.6955C123.348 64.7295 123.403 64.8115 123.412 64.8275C123.439 64.8754 123.474 64.9387 123.481 64.9687C123.591 65.2462 123.625 65.4236 123.678 65.6333L123.808 66.2284L124.014 67.3943C125.003 73.542 125.689 79.6892 126.386 85.8525C127.759 98.1611 128.84 110.513 129.758 122.863C130.654 135.209 131.364 147.591 131.697 159.972C131.708 160.173 131.538 160.355 131.333 160.359C131.128 160.362 130.951 160.2 130.952 160.001C130.52 147.63 129.708 135.285 128.703 122.947C127.699 110.609 126.477 98.301 125.102 86.0063C124.392 79.869 123.674 73.702 122.687 67.64L122.476 66.5161L122.361 65.9668C122.325 65.8031 122.273 65.5936 122.239 65.5158C122.23 65.4998 122.238 65.5158 122.247 65.5318C122.238 65.5158 122.274 65.5795 122.294 65.5975C122.274 65.5795 122.409 65.7334 122.576 65.7795C122.703 65.8037 122.588 65.7818 122.609 65.7858L122.576 65.7795L122.504 65.7657L122.218 65.7111L121.66 65.6191L120.529 65.4178C119.783 65.2612 119.026 65.1877 118.262 65.0989C117.497 65.01 116.747 64.9099 115.986 64.8929C112.944 64.6832 109.887 64.7845 106.894 65.3112C103.903 65.824 100.979 66.7199 98.2462 68.0233C95.5132 69.3267 92.9657 71.0079 90.6552 72.9764C88.3748 74.9648 86.3026 77.2209 84.5381 79.707C82.7766 82.1651 81.2125 84.8603 80.1175 87.6167C79.9713 87.9737 79.5869 88.1712 79.2197 88.0869L79.2065 88.0844C68.6389 85.6832 56.7421 87.2056 47.8519 93.6212C43.382 96.7601 39.8103 101.054 37.0897 105.81C36.725 106.396 36.42 107.008 36.117 107.62C35.814 108.233 35.4807 108.839 35.1972 109.469L34.3797 111.366L34.177 111.841L34.074 112.078L34.0307 112.198C34.0172 112.223 34.0279 112.211 34.0596 112.117C34.0777 112.049 34.0853 111.98 34.0823 111.908C34.0584 111.732 34.0547 111.76 34.0577 111.732C34.0157 111.624 34.1224 111.83 34.1976 111.93C34.2923 112.048 34.3995 112.168 34.5032 112.302C35.3725 113.309 36.3628 114.296 37.3419 115.281C38.321 116.266 39.3229 117.228 40.3261 118.189C48.385 125.871 56.6683 133.367 64.9667 140.824C69.0986 144.564 73.2523 148.293 77.3586 152.07L83.5293 157.725C85.5583 159.637 87.6261 161.514 89.6416 163.453C89.7875 163.595 89.7927 163.838 89.6481 163.981C89.4719 164.119 89.2551 164.134 89.1077 164.006Z" fill="black"/>
<path d="M41.364 105.219C41.9256 105.682 42.1576 106.239 42.2884 106.812L42.6902 108.525C42.9615 109.665 43.1997 110.81 43.4517 111.962C43.9177 114.259 44.3647 116.567 44.6821 118.908L44.6867 118.921C44.711 119.124 44.5687 119.32 44.3635 119.338C44.1822 119.357 44.0172 119.256 43.9588 119.089C43.1674 116.869 42.5047 114.618 41.8715 112.347C41.5668 111.212 41.2533 110.082 40.9776 108.93L40.5516 107.215C40.4111 106.648 40.3566 106.059 40.647 105.382C40.752 105.146 41.0213 105.042 41.2573 105.145C41.2952 105.153 41.3312 105.193 41.364 105.219Z" fill="black"/>
<path d="M47.0605 97.3756C47.7876 98.5767 48.1808 99.8591 48.4821 101.152L49.3752 105.068C49.9825 107.666 50.5414 110.294 51.1293 112.904L52.7842 120.755C53.3194 123.382 53.8494 125.996 54.3319 128.64C54.3703 128.85 54.2372 129.041 54.0269 129.078C53.8405 129.115 53.6486 129 53.5954 128.815C52.8685 126.244 52.1934 123.657 51.5051 121.062L49.5265 113.287C48.8954 110.688 48.2544 108.095 47.6472 105.497L46.7239 101.599C46.4181 100.293 46.2032 98.9784 46.3281 97.5626L46.3236 97.5496C46.3424 97.3356 46.5321 97.1728 46.7507 97.1935C46.8934 97.1988 47.0007 97.2724 47.0605 97.3756Z" fill="black"/>
<path d="M52.8747 93.0691C53.6697 94.6641 54.1096 96.3533 54.4596 98.0518L55.4679 103.158C56.1345 106.56 56.7342 109.973 57.3532 113.373L60.932 133.826C60.966 134.023 60.8374 134.228 60.6271 134.264C60.4265 134.294 60.2436 134.174 60.2 133.983C59.3469 130.618 58.594 127.238 57.8509 123.852L55.7456 113.68L53.7309 103.499L52.7004 98.4228C52.5228 97.583 52.3741 96.725 52.2731 95.869C52.1675 95.0002 52.0997 94.1395 52.1472 93.2385C52.1563 93.0305 52.3408 92.8537 52.5452 92.8676C52.6931 92.8541 52.806 92.9403 52.8747 93.0691Z" fill="black"/>
<path d="M60.7542 91.6917C61.6678 93.7583 62.2271 95.9198 62.6861 98.0958L63.9954 104.634C64.8465 108.996 65.6557 113.368 66.4638 117.742L68.7921 130.858C69.5667 135.237 70.3798 139.592 71.1975 143.959C71.2359 144.169 71.1037 144.359 70.9031 144.39C70.7069 144.433 70.5187 144.3 70.4654 144.115C69.3944 139.795 68.4334 135.454 67.5057 131.108L64.852 118.036C64.0105 113.668 63.1641 109.318 62.2841 104.974L60.9265 98.4658C60.6874 97.3838 60.4805 96.2976 60.3275 95.1935C60.1649 94.0953 60.0362 92.9913 60.0221 91.8481C60.0171 91.6333 60.1927 91.4626 60.4023 91.4577C60.5547 91.4571 60.6951 91.5569 60.7542 91.6917Z" fill="black"/>
<path d="M69.1107 90.517C70.046 92.9127 70.6317 95.3836 71.1413 97.8708L72.627 105.344L75.6128 120.296L78.4888 135.27C79.4218 140.266 80.3631 145.257 81.2531 150.265C81.287 150.462 81.1599 150.665 80.9496 150.701C80.749 150.732 80.5661 150.611 80.5225 150.42C79.3837 145.473 78.3069 140.502 77.2111 135.544L74.0189 120.642L70.929 105.723L69.3848 98.2547C68.8849 95.7615 68.4626 93.2523 68.3787 90.6735C68.3737 90.4586 68.5386 90.2943 68.7438 90.2766C68.9155 90.264 69.0613 90.3763 69.1107 90.517Z" fill="black"/>
<path d="M77.0972 90.1334C78.1666 92.9444 78.8677 95.8421 79.4491 98.7676C80.0163 101.686 80.5743 104.61 81.1081 107.534C82.166 113.387 83.1663 119.245 84.1476 125.115L86.963 142.725C87.8967 148.593 88.8552 154.461 89.8655 160.313C89.9039 160.523 89.766 160.7 89.5602 160.749C89.3595 160.78 89.177 160.66 89.1289 160.456C87.8749 154.646 86.7597 148.797 85.6825 142.955L82.5464 125.403C81.5361 119.551 80.5023 113.698 79.4058 107.869C78.8528 104.957 78.285 102.039 77.6986 99.132C77.4005 97.6816 77.1216 96.2199 76.9 94.7534C76.6643 93.2801 76.4677 91.8135 76.3754 90.3139C76.3608 90.105 76.5203 89.9283 76.7254 89.9106C76.8881 89.8724 77.0433 89.9799 77.0972 90.1334Z" fill="black"/>
<path d="M85.3456 83.5617C85.7831 85.175 86.1109 86.8084 86.405 88.448C86.6991 90.0876 86.9454 91.7259 87.1681 93.3629L88.5271 103.218L91.3985 122.926L94.1838 142.656C95.0643 149.241 95.9217 155.825 96.6588 162.437C96.6832 162.64 96.5367 162.824 96.3361 162.855C96.131 162.873 95.9519 162.734 95.9179 162.537C94.9274 155.972 93.9281 149.414 92.89 142.847L89.7793 123.163C88.765 116.598 87.76 110.026 86.7933 103.463L85.3817 93.5938C84.9318 90.307 84.5882 86.9857 84.6013 83.6466C84.6008 83.4446 84.7749 83.275 84.9846 83.2701C85.1556 83.2891 85.3013 83.4022 85.3456 83.5617Z" fill="black"/>
<path d="M93.3876 73.6309C93.8018 75.4455 94.1112 77.2624 94.3679 79.0964C94.6342 80.9244 94.8671 82.7574 95.0621 84.5828C95.461 88.2591 95.879 91.924 96.321 95.5893C97.205 102.92 98.1748 110.228 99.197 117.551L102.203 139.512C103.177 146.833 104.142 154.16 104.997 161.508C105.021 161.711 104.875 161.895 104.674 161.925C104.473 161.956 104.29 161.805 104.256 161.608L97.5779 117.789C96.5222 110.471 95.5139 103.155 94.592 95.8164C94.1358 92.1443 93.6942 88.4789 93.2715 84.8017C92.8629 81.1314 92.5645 77.4392 92.6331 73.7234C92.6326 73.5214 92.8082 73.3509 93.0179 73.346C93.2037 73.3403 93.353 73.4655 93.3876 73.6309Z" fill="black"/>
<path d="M101 69.1338C102.002 72.8891 102.665 76.7137 103.156 80.5512C103.646 84.3887 104.103 88.2317 104.517 92.0853C105.341 99.7798 106.009 107.493 106.714 115.183C107.385 122.879 108.142 130.552 109.153 138.21C110.139 145.866 111.327 153.49 112.739 161.087C112.777 161.296 112.644 161.488 112.434 161.524C112.233 161.555 112.036 161.427 112.002 161.23C110.414 153.665 108.993 146.044 107.863 138.383C106.743 130.715 105.873 123.019 105.096 115.326C104.353 107.628 103.657 99.932 102.794 92.2613C102.375 88.4265 101.899 84.5956 101.389 80.77L101.026 77.897L100.706 75.0127C100.503 73.0987 100.328 71.1668 100.279 69.2205C100.274 69.0057 100.44 68.8406 100.65 68.8357C100.797 68.8538 100.956 68.9743 101 69.1338Z" fill="black"/>
<path d="M108.659 67.037C109.62 70.9424 110.237 74.9048 110.725 78.8684C111.203 82.8381 111.671 86.8132 112.107 90.7939C112.987 98.7493 113.768 106.72 114.553 114.672C115.305 122.629 116.104 130.587 117.023 138.519C117.923 146.462 118.913 154.397 120.013 162.31C120.038 162.513 119.905 162.704 119.695 162.74C119.494 162.77 119.306 162.637 119.268 162.427C117.986 154.533 116.766 146.615 115.719 138.685C114.681 130.749 113.777 122.794 112.92 114.839C112.097 106.88 111.28 98.9324 110.366 90.9821C109.911 87.0134 109.432 83.0441 108.934 79.0864C108.685 77.1075 108.47 75.1239 108.283 73.1221C108.091 71.1391 107.954 69.1383 107.915 67.123C107.915 66.921 108.075 66.744 108.285 66.7391C108.475 66.7462 108.624 66.8716 108.659 67.037Z" fill="black"/>
<path d="M117.43 69.7474C117.808 71.6932 118.077 73.6588 118.298 75.624C118.518 77.5892 118.705 79.56 118.854 81.5226L119.81 93.3386C120.473 101.21 121.208 109.084 121.986 116.947L124.266 140.554C125.01 148.422 125.701 156.307 126.388 164.179C126.403 164.388 126.255 164.573 126.046 164.578C125.841 164.595 125.658 164.443 125.638 164.253L122.963 140.688L120.353 117.114C119.538 109.243 118.77 101.374 118.069 93.4942L117.06 81.6644C116.743 77.7197 116.54 73.7672 116.681 69.7888C116.69 69.5808 116.866 69.4106 117.071 69.4244C117.251 69.4374 117.391 69.5692 117.43 69.7474Z" fill="black"/>
<path d="M89.097 80.1718C89.7825 79.9509 90.4613 79.8434 91.1532 79.7743C91.831 79.6983 92.5174 79.6793 93.1983 79.6792L97.2882 79.6922L105.483 79.6921L113.682 79.7672C116.419 79.8052 119.151 79.8619 121.891 79.9758C122.095 79.9897 122.259 80.153 122.25 80.361C122.236 80.5562 122.08 80.7149 121.894 80.7207C119.158 80.8532 116.437 80.9612 113.702 81.0621L105.506 81.3265C102.767 81.3831 100.032 81.4539 97.2983 81.4602L93.1933 81.4723C91.827 81.4597 90.4579 81.3712 89.0867 80.9102C88.8835 80.8333 88.7742 80.6201 88.8405 80.4079C88.8811 80.2895 88.9818 80.2117 89.097 80.1718Z" fill="black"/>
<path d="M82.1455 87.3575C83.0117 87.1497 83.8702 87.0555 84.7331 87.0053C85.5916 86.9423 86.4438 86.9306 87.3054 86.9435C89.0189 86.9753 90.7377 86.9875 92.4519 86.9877C95.8803 86.9881 99.318 86.9827 102.743 86.9388L113.053 86.8778C116.491 86.8723 119.934 86.879 123.371 86.9681C123.58 86.9632 123.738 87.1456 123.739 87.3476C123.739 87.5496 123.569 87.7026 123.383 87.7083L113.084 88.1662L102.78 88.55C99.3453 88.6314 95.9054 88.732 92.4532 88.7307C90.7293 88.7365 89.0106 88.7233 87.2822 88.7162C85.5591 88.6904 83.8378 88.5698 82.1245 88.0709C81.9162 88.0127 81.8067 87.8 81.8634 87.5937C81.8988 87.494 82.0066 87.3966 82.1455 87.3575Z" fill="black"/>
<path d="M50.7419 94.8536C52.2781 94.7146 53.7964 94.6952 55.3196 94.7199C56.848 94.7258 58.3615 94.7877 59.8789 94.8627L64.4369 95.0696L68.9944 95.2439C75.0756 95.4433 81.1543 95.5351 87.244 95.5581C93.333 95.6126 99.4185 95.5922 105.505 95.5393L123.783 95.4314C123.992 95.4266 124.161 95.6024 124.161 95.8045C124.162 96.0065 123.996 96.1711 123.801 96.1828C117.715 96.4377 111.619 96.6682 105.53 96.8472C99.436 97.0135 93.3385 97.1347 87.2423 97.1935C81.1468 97.2208 75.044 97.1595 68.9383 96.9907L64.3654 96.8405L59.7928 96.6597C56.7438 96.5029 53.703 96.2323 50.6878 95.6032C50.484 95.5578 50.354 95.3579 50.4011 95.1576C50.4378 94.9948 50.5747 94.879 50.7419 94.8536Z" fill="black"/>
<path d="M42.9945 101.971C44.7235 101.947 46.4316 102.029 48.1335 102.161C49.8458 102.256 51.5422 102.407 53.2479 102.584L58.3515 103.044L63.4631 103.422C70.2913 103.876 77.1272 104.155 83.9614 104.325C90.7994 104.54 97.6554 104.635 104.501 104.704C111.356 104.8 118.206 104.852 125.055 104.997C125.264 104.992 125.422 105.175 125.423 105.377C125.423 105.579 125.259 105.743 125.06 105.742L104.502 106.011C97.6486 106.055 90.7925 106.054 83.928 105.965C77.0694 105.825 70.2078 105.578 63.3455 105.161L58.2098 104.813L53.0712 104.389C51.3655 104.213 49.6551 104.024 47.9559 103.765C46.2618 103.488 44.5637 103.166 42.8967 102.732C42.6929 102.687 42.5743 102.48 42.6311 102.274C42.673 102.092 42.8229 101.984 42.9945 101.971Z" fill="black"/>
<path d="M36.7245 109.561C38.6169 109.467 40.4889 109.479 42.3594 109.523C44.2349 109.548 46.0945 109.63 47.9636 109.737L53.5721 109.994L59.1869 110.201C66.6673 110.44 74.1602 110.546 81.6497 110.577L104.142 110.7C111.64 110.757 119.142 110.826 126.642 111.052C126.847 111.066 127.01 111.23 127.001 111.438C126.992 111.646 126.831 111.792 126.625 111.809C119.135 111.842 111.634 111.912 104.147 112.02L81.6527 112.225C74.1484 112.219 66.6454 112.15 59.1354 111.961L53.5071 111.778L47.8786 111.532C45.9999 111.431 44.1305 111.293 42.2583 111.11C40.3912 110.908 38.5215 110.662 36.6674 110.297C36.4636 110.251 36.3245 110.057 36.3716 109.857C36.4083 109.694 36.5528 109.574 36.7245 109.561Z" fill="black"/>
<path d="M38.9986 115.163C40.8183 115.129 42.6209 115.246 44.4238 115.332C46.2267 115.417 48.0227 115.584 49.8197 115.72C53.4177 116.036 57.0171 116.29 60.6209 116.555C67.8291 117.055 75.0483 117.455 82.2688 117.823C89.4887 118.222 96.7143 118.571 103.937 118.844C107.553 118.978 111.164 119.13 114.776 119.219C118.384 119.296 122.009 119.423 125.583 119.303L125.598 119.309C125.808 119.304 125.98 119.463 125.985 119.678C125.995 119.874 125.834 120.051 125.639 120.062C121.986 120.325 118.377 120.28 114.753 120.291C111.13 120.271 107.517 120.245 103.895 120.162C96.6512 119.995 89.4187 119.759 82.1917 119.473C74.9609 119.143 67.7305 118.781 60.5075 118.306C56.8889 118.065 53.2799 117.818 49.6672 117.527C46.0544 117.235 42.4444 116.787 38.9008 115.924C38.697 115.878 38.5775 115.672 38.6246 115.471C38.671 115.303 38.8171 115.182 38.9836 115.188L38.9986 115.163Z" fill="black"/>
<path d="M47.5989 122.741C49.2662 122.708 50.9222 122.774 52.5675 122.879C54.218 122.965 55.8573 123.121 57.4968 123.276L62.4244 123.736L67.3598 124.146C73.9391 124.66 80.5261 125.03 87.1287 125.344C93.7307 125.689 100.329 125.957 106.937 126.22C113.54 126.502 120.15 126.765 126.752 127.11C126.956 127.124 127.11 127.294 127.1 127.502C127.091 127.71 126.922 127.861 126.722 127.86L106.891 127.526C100.275 127.376 93.6697 127.22 87.0561 126.975C80.4431 126.7 73.8305 126.361 67.2312 125.89L62.2827 125.506L57.3397 125.07C54.042 124.739 50.752 124.296 47.5267 123.47C47.3229 123.425 47.2028 123.219 47.2595 123.012C47.2725 122.849 47.4227 122.741 47.5989 122.741Z" fill="black"/>
<path d="M56.3307 131.218C57.7955 131.077 59.2582 131.062 60.7056 131.071C62.1575 131.093 63.608 131.147 65.063 131.245L73.7564 131.793L91.1567 132.834L108.556 134C114.351 134.423 120.152 134.858 125.936 135.381C126.14 135.395 126.299 135.578 126.28 135.791C126.257 135.993 126.086 136.145 125.891 136.125L91.0709 134.459L73.658 133.519L64.9496 133.027C62.0441 132.844 59.1551 132.572 56.2826 131.949C56.0788 131.903 55.9488 131.703 55.9959 131.503C56.0275 131.359 56.1635 131.244 56.3307 131.218Z" fill="black"/>
<path d="M65.2632 138.874C66.5705 138.752 67.8752 138.725 69.1605 138.741C70.4555 138.751 71.7446 138.811 73.0331 138.903C75.6152 139.068 78.1939 139.22 80.7812 139.366L96.2969 140.123C101.471 140.415 106.645 140.738 111.812 141.175C116.974 141.631 122.138 142.194 127.275 142.946C127.484 142.973 127.623 143.167 127.59 143.374C127.567 143.575 127.378 143.707 127.183 143.687C122.032 143.194 116.884 142.776 111.719 142.478C106.559 142.161 101.397 141.94 96.2246 141.755L80.7009 141.112C78.113 140.997 75.5258 140.851 72.9288 140.711C70.3467 140.546 67.762 140.274 65.2091 139.624C65.0053 139.579 64.8858 139.372 64.9284 139.159C64.9651 138.996 65.1057 138.894 65.2632 138.874Z" fill="black"/>
<path d="M75.0034 147.354C77.2116 146.955 79.417 146.916 81.6204 146.973L88.2246 147.224L101.42 147.856L114.599 148.608C118.989 148.872 123.375 149.089 127.775 149.315C127.979 149.329 128.142 149.493 128.123 149.707C128.11 149.902 127.954 150.061 127.754 150.06C123.349 150.087 118.946 150.018 114.544 149.918L101.348 149.489L88.1701 148.969L81.5841 148.771C80.4846 148.749 79.3857 148.695 78.2927 148.592C77.1997 148.488 76.0975 148.359 75.0078 148.097C74.804 148.052 74.6743 147.853 74.7169 147.64C74.7343 147.489 74.86 147.38 75.0034 147.354Z" fill="black"/>
<path d="M85.6224 155.383C86.5259 155.215 87.4081 155.153 88.2942 155.135C89.1802 155.117 90.066 155.13 90.9411 155.181C92.7106 155.272 94.4746 155.35 96.2351 155.416L106.864 155.827C110.412 156.002 113.961 156.209 117.502 156.497C121.043 156.817 124.582 157.201 128.099 157.754C128.299 157.786 128.446 157.976 128.413 158.183C128.385 158.371 128.202 158.515 128.007 158.495C124.476 158.201 120.951 157.964 117.417 157.795C113.888 157.608 110.347 157.521 106.811 157.448C103.266 157.348 99.7289 157.306 96.1745 157.181C94.4044 157.122 92.6205 157.056 90.8414 156.971C89.0623 156.886 87.2858 156.676 85.5501 156.113C85.3515 156.049 85.2368 155.823 85.298 155.63C85.3624 155.512 85.479 155.41 85.6224 155.383Z" fill="black"/>
<path d="M96.8514 72.7036C97.8944 72.2662 98.9282 72.1816 99.9712 72.1816L103.091 72.1957C105.166 72.1957 107.252 72.238 109.327 72.2663C111.403 72.3086 113.488 72.3509 115.564 72.4214C117.639 72.5061 119.725 72.5766 121.8 72.7036C122.002 72.7177 122.163 72.9013 122.153 73.0988C122.142 73.2964 121.992 73.4375 121.8 73.4516C119.725 73.5786 117.639 73.6492 115.564 73.7338C113.488 73.8044 111.403 73.8467 109.327 73.889C107.252 73.9172 105.166 73.9596 103.091 73.9596L99.9712 73.9736C98.9282 73.9736 97.8944 73.8891 96.8514 73.4516C96.6492 73.367 96.5534 73.127 96.6385 72.9153C96.6811 72.8165 96.7556 72.746 96.8514 72.7036Z" fill="black"/>
</svg>
