<svg width="274" height="160" viewBox="0 0 274 160" fill="none" xmlns="http://www.w3.org/2000/svg">
<path d="M183.935 9.76177C182.8 12.0896 181.288 14.1921 180.154 16.4448C179.019 18.7726 177.734 21.0253 176.297 23.1279C173.499 27.4831 170.247 31.4629 166.92 35.4427C163.593 39.3474 160.114 43.177 156.257 46.7063C152.476 50.2356 148.468 53.4645 144.309 56.6183C136.066 62.8508 127.37 68.4074 118.598 73.814L105.516 81.9988C101.13 84.7021 96.7439 87.3302 92.2822 89.9584C83.359 95.1397 74.2844 100.021 64.9074 104.376C55.6061 108.806 45.9269 112.636 36.0962 115.79C31.1809 117.366 26.2654 118.943 21.1988 120.22C18.7033 120.821 16.1322 121.421 13.5611 121.797C10.99 122.247 8.49447 122.698 5.99899 123.148C4.71344 123.374 3.50351 123.599 2.21796 123.899C1.91547 123.974 1.61321 124.05 1.31073 124.125C1.23511 124.125 1.15942 124.2 1.23504 124.125C1.38628 124.575 1.84 122.322 1.61314 122.998L1.61314 123.073C1.61314 123.148 1.68854 123.223 1.76416 123.299C2.06664 123.599 2.59621 123.899 3.12555 124.2C5.31855 125.176 7.81403 125.777 10.3095 126.377C15.3005 127.429 20.3671 128.104 25.5093 128.78C30.5759 129.381 35.718 129.982 40.8602 130.432L48.5737 131.183C51.1448 131.408 53.7156 131.859 56.211 132.084C66.4198 133.06 76.7042 132.685 86.8374 131.108C91.904 130.357 96.8953 129.231 101.886 127.879C106.802 126.528 111.717 124.875 116.405 122.923C121.169 121.046 125.782 118.793 130.244 116.39C134.706 113.912 139.016 111.134 143.175 108.13C151.417 102.048 158.828 94.9144 164.802 86.6545C166.315 84.5519 167.752 82.4494 169.037 80.2718C170.398 78.0941 171.533 75.8414 172.516 73.5136C174.482 68.858 175.616 63.902 176.145 58.7959C176.75 53.7648 177.053 48.5836 178.112 43.5525C178.263 42.9518 178.339 42.276 178.566 41.6752C178.717 41.0745 178.868 40.3987 179.019 39.798C179.397 38.5965 179.776 37.32 180.154 36.1185L182.573 28.8348L184.993 21.551C185.22 20.9503 185.371 20.3495 185.598 19.7488C185.825 19.1481 186.127 18.5474 186.43 17.9466L188.169 14.4925C189.303 12.2397 190.438 9.91195 191.194 7.50905C191.572 6.3076 191.875 5.10616 191.95 3.90472C192.026 2.70327 191.799 1.50183 191.043 0.675833L191.421 0.825977C191.194 0.825977 190.892 0.825977 190.665 0.825977C190.514 0.825977 190.287 0.901104 190.135 1.05129C189.757 1.27656 189.379 1.57688 189.001 1.95233C188.32 2.70324 187.64 3.52924 187.035 4.35524C186.052 6.08232 184.918 7.95959 183.935 9.76177ZM183.103 9.38631C184.086 7.50905 185.144 5.6318 186.43 3.90472C187.035 3.00363 187.716 2.17762 188.472 1.35162C188.85 0.976167 189.304 0.600742 189.833 0.30038C190.06 0.150199 190.438 5.83583e-08 190.816 5.84741e-08C191.118 5.85668e-08 191.345 5.86364e-08 191.648 5.87291e-08C191.799 5.87754e-08 191.875 0.0750997 192.026 0.15019C192.555 0.675824 192.933 1.35164 193.084 2.02745C193.236 2.70327 193.311 3.37909 193.236 4.05491C193.16 5.40653 192.858 6.68304 192.404 7.95958C191.572 10.4376 190.513 12.7654 189.379 15.0932L187.64 18.5474C187.337 19.1481 187.111 19.6737 186.884 20.2744C186.657 20.8001 186.505 21.4759 186.279 22.0766L183.859 29.3604L181.439 36.6442C180.985 37.8456 180.683 39.047 180.305 40.2485C180.153 40.8492 180.002 41.4499 179.851 42.1258C179.7 42.7265 179.548 43.3272 179.473 44.003C178.414 48.959 178.187 54.0652 177.582 59.1713C176.977 64.2775 175.919 69.3836 173.877 74.1894C172.818 76.5923 171.684 78.9201 170.323 81.0977C169.037 83.3505 167.601 85.453 166.088 87.5555C160.038 95.9656 152.552 103.174 144.234 109.332C140.075 112.41 135.688 115.189 131.151 117.742C126.614 120.22 121.925 122.473 117.161 124.425C112.397 126.377 107.482 128.029 102.491 129.456C97.5001 130.808 92.4334 131.934 87.2912 132.76C77.0824 134.337 66.6468 134.863 56.2867 133.886C53.7156 133.661 51.1448 133.286 48.5737 132.985L40.8602 132.234C35.718 131.709 30.5759 131.258 25.4337 130.582C20.2914 129.982 15.149 129.231 10.0824 128.179C7.51133 127.579 5.01585 127.053 2.52037 125.927C1.9154 125.626 1.23482 125.251 0.62985 124.725C0.478608 124.575 0.327662 124.425 0.176421 124.2L0.100727 124.049C-0.201756 124.65 0.251968 122.247 0.47883 122.773C0.705692 122.698 0.781313 122.698 0.856933 122.623C1.23504 122.548 1.53737 122.473 1.83985 122.398C3.12541 122.097 4.41103 121.872 5.69658 121.647C8.26768 121.196 10.7632 120.745 13.3343 120.295C15.8298 119.844 18.3252 119.319 20.8207 118.718C25.8117 117.442 30.6514 115.865 35.5667 114.288C55.1525 108.055 73.6041 98.8191 91.2993 88.5317C95.7609 85.9786 100.147 83.2754 104.457 80.5721L117.539 72.3873C126.236 66.9057 134.857 61.3489 143.024 55.1915C151.191 49.0341 158.98 42.4261 165.71 34.7669C169.113 30.9373 172.44 27.1077 175.389 22.9026C176.826 20.8001 178.187 18.6224 179.322 16.3697C180.532 13.7416 181.968 11.639 183.103 9.38631Z" fill="black"/>
<path d="M168.207 47.4563C167.3 47.1559 166.317 47.0808 165.409 47.1559C164.502 47.231 163.594 47.3812 162.838 47.4563C161.25 47.7566 160.04 48.8079 159.511 50.3848C158.906 51.9617 158.982 53.7639 159.36 55.491C159.587 56.317 159.889 57.218 160.267 57.8938C160.721 58.6447 161.25 59.2455 161.931 59.621C163.519 60.4469 165.333 61.0476 166.997 60.6722C168.661 60.2967 169.871 58.87 170.476 57.1429C171.08 55.4158 171.232 53.5386 170.929 51.6613C170.778 50.7602 170.476 49.8592 170.097 49.1083C169.644 48.4324 168.963 47.7566 168.207 47.4563ZM168.509 46.5552C169.568 46.9306 170.4 47.7566 170.854 48.6577C171.383 49.5588 171.686 50.5349 171.837 51.5111C172.215 53.4635 172.139 55.566 171.534 57.5184C171.232 58.4946 170.778 59.4707 170.022 60.2967C169.341 61.1227 168.358 61.7986 167.3 62.0989C166.241 62.3993 165.107 62.3993 164.048 62.174C162.989 62.0238 162.006 61.5733 161.099 61.1978C160.04 60.6722 159.208 59.7711 158.679 58.87C158.074 57.969 157.696 56.9928 157.394 55.9415C156.864 53.914 156.713 51.7364 157.394 49.6339C157.772 48.5826 158.377 47.5313 159.284 46.7804C160.192 45.9544 161.25 45.5039 162.385 45.2786C162.914 45.1284 163.519 45.1284 164.048 45.1284C164.577 45.2035 165.107 45.2786 165.636 45.5039C166.619 45.8793 167.526 46.3299 168.509 46.5552Z" fill="black"/>
<path d="M156.711 68.0321C156.106 66.6804 154.82 65.7794 153.459 65.2538C152.098 64.7281 150.661 64.3527 149.3 64.1274C147.863 63.9021 146.426 64.0523 145.065 64.4277C143.704 64.8783 142.494 65.5541 141.511 66.5302C139.47 68.4826 138.335 71.3361 137.73 74.2646C137.428 75.6913 137.352 77.1931 137.655 78.6198C137.881 80.0465 138.411 81.3981 139.243 82.5995C139.999 83.801 141.133 84.9274 142.268 85.9035C143.402 86.8797 144.687 87.7057 146.049 88.1562C147.41 88.6068 148.846 88.5317 150.208 88.006C151.569 87.4804 152.703 86.5042 153.611 85.3028C155.501 82.975 156.635 79.9714 157.24 77.0429C157.543 75.5411 157.694 74.0393 157.618 72.4624C157.543 70.9606 157.316 69.4588 156.711 68.0321ZM157.618 67.7317C158.223 69.2335 158.526 70.8855 158.602 72.4624C158.677 74.0393 158.526 75.6913 158.223 77.2682C157.618 80.422 156.484 83.5006 154.518 86.1288C153.535 87.4053 152.249 88.6068 150.661 89.2826C149.073 89.9584 147.183 90.1085 145.595 89.5829C143.931 89.1324 142.494 88.2313 141.209 87.18C139.923 86.1288 138.789 85.0024 137.806 83.6508C136.823 82.2992 136.142 80.7223 135.764 79.0703C135.462 77.4183 135.462 75.6912 135.764 74.0393C136.067 72.3873 136.445 70.8104 137.125 69.3086C137.806 67.8068 138.713 66.305 139.999 65.1036C141.209 63.9021 142.797 63.001 144.46 62.4754C146.124 61.9498 147.939 61.8747 149.602 62.1C151.342 62.3252 152.93 63.001 154.291 63.9772C155.652 64.8783 156.862 66.1548 157.618 67.7317Z" fill="black"/>
<path d="M127.673 83.2045C126.311 82.1532 124.497 81.7778 122.757 81.8529C121.018 81.928 119.355 82.2283 117.615 82.6788C114.288 83.5799 111.112 85.307 108.843 87.8601C107.785 89.1367 106.953 90.6385 106.65 92.2154C106.348 93.7923 106.575 95.4443 107.255 96.9461C107.86 98.523 108.995 99.8746 110.205 101.151C111.415 102.428 112.851 103.479 114.288 104.53C115.8 105.506 117.313 106.483 118.976 107.158C120.564 107.834 122.304 108.36 124.043 108.36C125.782 108.435 127.446 107.909 128.807 106.933C130.168 105.957 131.151 104.455 131.832 102.878C133.193 99.6494 133.344 95.8948 132.664 92.4406C132.286 90.7136 131.756 88.9865 130.925 87.4096C130.093 85.6825 129.034 84.2558 127.673 83.2045ZM128.278 82.4536C129.79 83.655 130.924 85.1569 131.832 86.884C132.739 88.5359 133.269 90.3381 133.647 92.1403C134.403 95.8197 134.252 99.6494 132.891 103.254C132.21 105.056 131.151 106.708 129.563 107.909C127.975 109.111 126.009 109.787 124.043 109.787C122.077 109.787 120.186 109.261 118.371 108.585C116.557 107.909 114.968 106.933 113.38 105.957C111.792 104.906 110.28 103.779 108.919 102.428C107.558 101.076 106.272 99.5743 105.44 97.7721C104.609 95.9699 104.23 93.8674 104.608 91.8399C104.987 89.8125 105.97 88.0103 107.255 86.4334C108.541 84.9316 110.053 83.655 111.717 82.6788C113.381 81.7027 115.195 80.9518 117.086 80.4261C120.867 79.3749 125.102 80.1258 128.278 82.4536Z" fill="black"/>
<path d="M88.2744 98.2019C86.6863 98.5023 85.0225 99.2532 83.5858 100.154C82.149 101.055 80.7879 102.032 79.578 103.083C78.3681 104.134 77.4603 105.411 77.0066 106.837C76.5529 108.264 76.5529 109.841 77.0066 111.343C77.4603 112.845 78.2168 114.346 79.1242 115.773C79.5779 116.449 80.1073 117.125 80.6366 117.876C81.166 118.551 81.6954 119.227 82.2247 119.828C82.7541 120.429 83.3589 120.954 83.9639 121.405C84.2663 121.63 84.5687 121.78 84.9468 121.93C85.098 122.006 85.2493 122.006 85.4006 122.081L86.0058 122.156L87.2911 122.381C87.7448 122.456 88.1231 122.456 88.5768 122.531C89.4086 122.606 90.2403 122.606 91.0721 122.606C92.7358 122.456 94.3996 122.156 95.8364 121.48C97.3488 120.804 98.6341 119.828 99.6928 118.551C101.81 115.998 102.718 112.544 102.415 109.24C102.113 105.936 100.525 102.632 97.878 100.605C96.5924 99.5535 95.0044 98.8027 93.3407 98.5023C91.6771 97.9767 89.938 97.9767 88.2744 98.2019ZM88.123 97.2257C89.9379 97.0005 91.7529 97.0005 93.4921 97.376C95.307 97.7514 96.9707 98.5023 98.4075 99.6287C101.357 101.881 103.096 105.336 103.474 108.94C103.928 112.544 103.02 116.374 100.752 119.302C99.6175 120.729 98.1049 122.005 96.4413 122.756C94.7776 123.582 92.887 124.033 91.0721 124.183C90.1647 124.183 89.2572 124.258 88.3497 124.183C87.896 124.183 87.4424 124.183 86.9887 124.108L85.6277 123.883L84.9468 123.808C84.7199 123.733 84.4174 123.658 84.1906 123.582C83.6612 123.432 83.2833 123.132 82.8296 122.907C81.9977 122.381 81.3172 121.705 80.6366 121.029C79.956 120.354 79.4265 119.678 78.8971 118.927C78.3678 118.251 77.8387 117.5 77.3094 116.749C76.3263 115.247 75.4187 113.595 74.8894 111.793C74.36 109.991 74.2844 107.889 74.8137 106.011C75.1162 105.035 75.5701 104.134 76.0994 103.383C76.6287 102.557 77.3093 101.881 77.9899 101.206C79.4267 99.929 81.0903 99.103 82.8296 98.5023C83.6614 98.202 84.5688 97.9767 85.4763 97.7514C86.3081 97.6012 87.1399 97.451 88.123 97.2257Z" fill="black"/>
<path d="M62.79 111.812C61.807 111.437 60.7483 111.286 59.7652 111.437C58.7821 111.587 57.8746 111.887 57.0428 112.188C55.3035 112.863 53.9426 114.29 53.1107 116.092C52.3545 117.819 52.2031 119.847 52.9594 121.499C53.7156 123.226 55.3036 124.502 57.1185 125.253C59.009 126.004 61.1262 126.305 63.0167 125.779C64.9073 125.253 66.4197 123.752 67.1759 121.874C67.9321 119.997 67.8567 117.819 67.0249 115.942C66.2686 114.065 64.6805 112.638 62.79 111.812ZM63.1681 110.911C65.2855 111.812 67.1003 113.464 68.0078 115.567C68.9908 117.669 69.0664 120.072 68.3102 122.325C67.554 124.502 65.8148 126.455 63.4705 127.206C61.2019 127.957 58.7064 127.656 56.589 126.905C54.396 126.154 52.2788 124.653 51.1445 122.4C50.0858 120.147 50.1614 117.519 51.0688 115.266C51.9763 113.014 53.7913 111.136 56.1356 110.16C57.2699 109.634 58.6309 109.559 59.7652 109.86C61.0508 110.085 62.1094 110.536 63.1681 110.911Z" fill="black"/>
<path d="M270.9 7.20863C268.631 12.0144 266.438 16.8953 264.321 21.8513C263.262 24.3293 262.279 26.8073 261.296 29.2853C260.842 30.4867 260.313 31.7633 259.859 32.9647C259.405 34.1662 258.952 35.5178 258.422 36.7943C256.229 41.8254 253.129 46.3308 249.726 50.5359C247.987 52.6384 246.172 54.5907 244.281 56.5431C242.391 58.4954 240.425 60.2976 238.383 62.0998C234.375 65.7042 230.14 69.0832 225.906 72.3121C221.595 75.6161 217.285 78.7699 213.05 81.9988C204.505 88.4566 195.884 94.9144 187.263 101.222C178.643 107.605 169.871 113.837 160.872 119.769C156.41 122.773 151.873 125.626 147.26 128.405L143.782 130.507C143.252 130.883 142.647 131.183 142.042 131.558C141.437 131.859 140.832 132.234 140.227 132.535C137.808 133.736 135.312 134.938 132.892 135.914C127.901 138.016 122.91 139.969 117.919 141.996C112.928 144.024 108.013 146.051 103.4 148.604C101.132 149.881 98.7876 151.232 96.9727 153.034L96.5946 153.335C96.519 153.41 96.5944 153.41 96.7456 153.034C96.7456 152.959 96.7456 153.034 96.7456 153.034L96.7456 153.26C96.7456 153.56 96.7456 153.86 96.7456 154.236C96.7456 154.536 96.7456 154.912 96.7456 155.212L96.7456 155.663L96.7456 155.813C96.7456 155.813 96.8215 155.888 96.5946 155.587C96.4434 155.437 96.5946 155.587 96.5946 155.587C97.4264 156.413 98.4851 157.089 99.6194 157.39C101.964 158.065 104.535 157.615 107.03 156.864C109.526 156.113 112.021 155.062 114.516 154.086C117.012 153.109 119.583 152.133 122.381 151.683C123.742 151.457 125.179 151.382 126.616 151.533C127.296 151.608 128.053 151.758 128.733 151.983L130.624 152.584C135.69 154.161 140.908 155.212 146.277 155.663C156.864 156.639 167.678 155.587 177.962 152.884C183.104 151.533 188.171 149.806 193.162 147.778C198.077 145.751 202.917 143.423 207.53 140.72C212.142 138.091 216.68 135.163 220.915 132.009C225.225 128.855 229.308 125.401 233.241 121.797C237.173 118.192 240.803 114.288 244.281 110.233C247.684 106.178 250.86 101.823 253.658 97.3172C256.607 92.8869 258.271 87.8558 259.179 82.6746C260.086 77.4933 260.313 72.1619 260.54 66.8305C260.767 61.4991 260.842 56.1677 261.523 50.8362C261.901 48.2081 262.354 45.5048 263.111 42.9517C263.262 42.2759 263.489 41.6752 263.716 40.9994L264.018 40.0232L264.396 39.047C264.85 37.7705 265.53 36.569 266.06 35.3676C268.253 30.5618 269.917 25.4556 271.202 20.3495C271.807 17.7964 272.336 15.1683 272.563 12.5401C272.639 11.8643 272.715 11.2635 272.715 10.5877C272.715 10.2873 272.715 9.9119 272.715 9.61154C272.715 9.31117 272.639 9.08592 272.488 8.78556C272.261 8.18483 271.958 7.6592 271.58 7.28375C271.353 7.05848 271.126 6.98337 271.051 6.98337C271.126 6.83319 270.975 6.98336 270.9 7.20863ZM269.992 6.83318C270.143 6.683 270.219 6.45776 270.37 6.30758C270.446 6.23249 270.521 6.15736 270.673 6.08227C270.824 6.00718 270.9 5.93213 271.051 5.93213C271.656 5.93213 272.034 6.23245 272.337 6.45773C272.866 6.98336 273.244 7.65917 273.547 8.33499C273.698 8.71044 273.773 9.0108 273.773 9.46135C273.773 9.8368 273.773 10.1372 273.773 10.5126C273.773 11.1884 273.697 11.8643 273.622 12.5401C273.395 15.2433 272.866 17.8715 272.261 20.4997C270.975 25.756 269.387 30.8621 267.119 35.743L266.287 37.5452C265.984 38.1459 265.758 38.7467 265.531 39.3474L265.153 40.2484L264.85 41.1495C264.623 41.7503 264.472 42.4261 264.245 43.0268C263.489 45.5799 263.035 48.1329 262.733 50.7611C262.052 56.0174 261.977 61.3489 261.75 66.6803C261.598 72.0117 261.371 77.4182 260.388 82.6746C259.935 85.3027 259.254 87.9309 258.347 90.484C257.439 93.0371 256.229 95.5151 254.717 97.7678C251.843 102.348 248.667 106.704 245.264 110.834C241.786 114.963 238.08 118.868 234.148 122.548C230.216 126.227 226.057 129.681 221.746 132.91C217.436 136.139 212.899 139.068 208.21 141.771C203.522 144.474 198.682 146.877 193.691 148.904C188.7 151.007 183.558 152.734 178.34 154.086C167.904 156.789 156.94 157.915 146.126 156.939C140.681 156.489 135.388 155.362 130.17 153.785L128.204 153.185C127.599 153.034 126.994 152.884 126.389 152.809C125.179 152.659 123.894 152.734 122.608 152.959C120.037 153.41 117.541 154.311 115.122 155.287C112.626 156.263 110.131 157.315 107.484 158.141C106.198 158.516 104.837 158.891 103.4 159.042C101.964 159.192 100.527 159.117 99.0899 158.741C97.6531 158.366 96.3676 157.54 95.3089 156.489C95.2333 156.413 95.3088 156.489 95.1575 156.263C94.9306 155.813 95.0064 155.813 94.9308 155.738C94.9308 155.587 94.9307 155.512 94.8551 155.437L94.8551 154.912C94.8551 154.536 94.8551 154.236 94.8551 153.86C94.8551 153.485 94.8551 153.185 94.8551 152.809L94.8551 152.509C94.8551 152.434 94.8552 152.359 94.9308 152.284C95.082 151.833 95.2332 151.758 95.2332 151.833L95.6113 151.457C97.6531 149.505 99.9973 148.154 102.417 146.802C107.181 144.174 112.172 142.071 117.163 140.044C122.154 138.016 127.145 136.064 132.061 133.961C134.556 132.91 136.9 131.784 139.32 130.582C139.925 130.282 140.454 129.982 141.059 129.606C141.664 129.306 142.193 129.005 142.798 128.63L146.201 126.527C150.739 123.749 155.276 120.821 159.738 117.892C168.661 111.96 177.357 105.727 185.978 99.3447C194.599 92.962 203.144 86.5042 211.689 80.0464C215.999 76.8175 220.309 73.5887 224.544 70.3598C228.779 67.1309 232.938 63.7518 236.871 60.2225C240.803 56.6933 244.659 52.9388 248.138 48.959C251.541 44.9792 254.717 40.699 256.985 35.9683C257.515 34.7669 257.968 33.5654 258.498 32.2889C258.951 31.0123 259.481 29.8109 260.086 28.5343C261.145 26.0564 262.279 23.6535 263.413 21.1755L266.741 13.8917C267.724 11.639 268.858 9.23607 269.992 6.83318Z" fill="black"/>
<path d="M119.433 141.397C120.113 141.623 120.34 141.998 120.567 142.373C120.718 142.749 120.945 143.049 121.247 143.425C121.399 143.575 121.55 143.8 121.701 144.101C121.777 144.251 121.853 144.401 121.928 144.551L122.079 144.851C122.306 145.227 122.533 145.677 122.76 146.128C123.213 146.954 123.667 147.855 124.045 148.756C124.272 149.207 124.424 149.732 124.575 150.183C124.726 150.708 124.801 151.234 124.726 151.835C124.726 152.06 124.424 152.285 124.197 152.21C123.97 152.21 123.819 152.06 123.819 151.835L123.819 151.76C123.592 151.009 123.138 150.183 122.609 149.432C122.079 148.681 121.55 147.855 121.021 147.029C120.794 146.654 120.491 146.203 120.264 145.752L120.113 145.452L119.962 145.227C119.886 145.077 119.735 144.926 119.584 144.701C119.281 144.326 118.979 143.8 118.676 143.35C118.449 142.899 118.374 142.298 118.676 141.698C118.676 141.397 119.054 141.247 119.433 141.397Z" fill="black"/>
<path d="M255.396 41.225C255.32 41.225 255.245 41.1499 255.169 41.1499C255.093 41.1499 255.018 40.9997 254.942 40.9246C254.867 40.8495 254.791 40.4741 254.942 40.1737C255.018 40.0235 255.169 39.8734 255.245 39.7983C255.32 39.7232 255.396 39.7232 255.396 39.7232L255.547 39.6481C255.623 39.6481 255.774 39.573 255.774 39.573L255.925 39.573C256.001 39.573 256.152 39.573 256.152 39.573C256.303 39.573 256.455 39.573 256.53 39.6481C256.984 39.7232 257.286 39.8733 257.665 40.0235C258.345 40.3239 258.95 40.6243 259.63 40.9246C260.235 41.3001 260.841 41.6004 261.446 42.051C261.748 42.2763 262.05 42.4264 262.277 42.6517L262.731 42.9521L262.958 43.1023L263.033 43.1773L263.109 43.2524C263.109 43.2524 263.185 43.3275 263.26 43.4026C263.336 43.4777 263.336 43.6279 263.336 43.703C263.336 43.9283 263.109 44.1535 262.882 44.1535C262.655 44.1535 262.429 43.9283 262.429 43.703C262.429 43.7781 262.429 43.8531 262.504 44.0033C262.58 44.0784 262.655 44.1535 262.655 44.1535L262.58 44.1535L262.429 44.1535L262.202 44.0784L261.672 43.9282L260.689 43.6279L258.799 42.9521C258.194 42.7268 257.513 42.5015 256.908 42.2762C256.606 42.2012 256.303 42.051 256.076 42.051C256.001 42.051 256.001 42.051 255.925 41.9759C255.925 41.9759 255.925 41.9759 255.925 41.9008C255.925 41.9008 256.001 41.9008 256.076 41.8257C256.076 41.8257 256.152 41.8257 256.152 41.7506C256.152 41.7506 256.152 41.7506 256.228 41.6755C256.303 41.6004 256.455 41.4502 256.455 41.3751C256.606 41.225 256.455 40.8495 256.455 40.8495C256.379 40.7745 256.303 40.7745 256.303 40.8495C256.303 40.8495 256.228 40.9246 256.152 40.9997L255.849 41.3001C255.774 41.1499 255.623 41.225 255.396 41.225Z" fill="black"/>
<path d="M168.508 32.6638C168.508 32.5136 168.735 32.2883 168.886 32.2883L169.038 32.2883L169.113 32.2883C169.189 32.2883 169.189 32.2883 169.189 32.2883C169.265 32.2883 169.265 32.2883 169.34 32.2883C169.416 32.2883 169.492 32.2883 169.567 32.2883C169.718 32.2883 169.869 32.2883 170.021 32.3634C170.323 32.4385 170.55 32.5136 170.777 32.6638L172.063 33.4897C172.516 33.7901 172.895 34.0905 173.348 34.3908L173.953 34.8414L174.105 34.9915C174.18 34.9915 174.104 34.9916 174.18 35.0667C174.255 35.1418 174.331 35.1418 174.483 35.2169C175.314 35.6674 176.222 36.1179 177.129 36.5685C177.583 36.7937 178.037 37.019 178.49 37.3194L179.171 37.6948L179.473 37.9201L179.625 38.0703L179.7 38.1453L179.776 38.2204C179.776 38.2204 179.776 38.2204 179.851 38.2955C179.927 38.3706 179.927 38.5208 179.927 38.5959C179.927 38.8212 179.7 39.0464 179.473 39.0464C179.247 39.0464 179.02 38.8212 179.02 38.5959C179.02 38.671 179.02 38.8211 179.095 38.8962C179.171 38.9713 179.171 38.9713 179.171 38.9713L179.095 38.9713L178.944 38.8962L178.566 38.8212L177.81 38.5959L176.373 38.1453C175.39 37.845 174.482 37.5446 173.424 37.0941C173.272 37.019 173.197 36.9439 173.046 36.8688C172.97 36.8688 172.819 36.7186 172.819 36.7186L172.667 36.6435L172.063 36.2681L170.777 35.4421L169.492 34.6161C169.265 34.4659 169.113 34.3158 168.962 34.0905C168.886 34.0154 168.811 33.8652 168.735 33.7151C168.735 33.64 168.66 33.5648 168.66 33.4897L168.66 33.4147L168.66 33.3396L168.735 33.3396L168.811 33.3396C169.038 33.3396 169.189 33.1143 169.189 32.9642C169.113 33.1894 168.886 33.3396 168.584 33.3396C168.584 33.1894 168.433 32.889 168.508 32.6638Z" fill="black"/>
<path d="M27.7042 118.042L27.5528 117.967C27.5528 117.967 27.5527 117.967 27.4771 117.892C27.4771 117.892 27.4771 117.892 27.4771 117.817C29.8971 117.442 28.1578 117.742 28.6872 117.667L28.6872 117.742L28.8386 117.892C28.9142 118.043 29.0653 118.118 29.0653 118.268C29.2165 118.493 29.2924 118.793 29.2924 119.019L29.5191 120.596C29.5947 121.121 29.6702 121.647 29.7458 122.097C29.8215 122.623 29.973 123.074 30.0486 123.599C30.2755 124.651 30.5022 125.702 30.6535 126.753C30.8047 127.804 30.9561 128.931 30.8049 130.057C30.8049 130.282 30.5022 130.508 30.2754 130.432C30.0485 130.432 29.8972 130.282 29.8972 130.057C29.746 129.081 29.4435 128.105 29.141 127.129L28.158 124.125C28.0068 123.599 27.8554 123.074 27.7042 122.548C27.5529 121.947 27.4774 121.497 27.4018 120.971L27.099 119.394C27.0233 119.169 27.0233 118.869 27.099 118.568C27.099 118.418 27.1747 118.268 27.2504 118.118C27.2504 118.043 27.3261 117.967 27.3261 117.892C27.8554 117.817 26.1161 118.118 28.5361 117.742C28.5361 117.667 28.5361 117.742 28.5361 117.667C28.5361 117.667 28.5361 117.667 28.4604 117.667L28.3847 117.742C28.3847 118.193 28.0067 118.268 27.7042 118.042Z" fill="black"/>
<path d="M146.049 135.091C145.066 134.866 144.083 134.866 143.176 135.091C142.268 135.316 141.512 135.692 140.756 135.992C140.378 136.142 140 136.443 139.622 136.668C139.319 136.968 138.941 137.193 138.638 137.494C138.033 138.094 137.504 138.845 137.126 139.671C136.37 141.248 136.143 143.126 136.521 144.778C136.899 146.43 138.109 147.856 139.773 148.532C141.436 149.208 143.327 149.433 144.991 148.682C145.823 148.382 146.579 147.781 147.259 147.18C147.864 146.505 148.394 145.754 148.772 144.928C149.528 143.201 149.603 141.248 148.999 139.446C148.696 138.47 148.394 137.569 147.94 136.743C147.486 135.917 146.881 135.241 146.049 135.091ZM146.276 134.115C147.486 134.415 148.318 135.316 148.847 136.217C149.376 137.118 149.755 138.17 149.981 139.071C150.662 141.023 150.662 143.276 149.906 145.303C149.528 146.279 148.923 147.255 148.242 148.081C147.486 148.832 146.654 149.583 145.596 150.034C143.629 151.01 141.134 150.935 139.092 150.184C138.033 149.733 137.051 149.208 136.294 148.307C135.538 147.481 134.933 146.43 134.631 145.303C134.026 143.126 134.253 140.798 135.16 138.77C135.614 137.719 136.219 136.818 137.051 135.992C137.429 135.541 137.882 135.241 138.336 134.866C138.79 134.565 139.243 134.265 139.773 133.965C140.302 133.739 140.831 133.514 141.436 133.439C142.041 133.364 142.571 133.364 143.176 133.439C144.234 133.589 145.217 133.965 146.276 134.115Z" fill="black"/>
<path d="M171.913 125.553C170.703 124.727 169.266 124.351 167.753 124.276C166.317 124.201 164.88 124.351 163.443 124.502C162.082 124.727 160.721 125.177 159.813 126.003C158.83 126.905 158.074 128.106 157.62 129.383C156.637 132.011 156.637 135.014 157.242 137.868C157.847 140.721 159.133 143.425 161.25 145.377C162.309 146.278 163.519 147.029 164.956 147.254C166.317 147.479 167.829 147.555 169.266 147.254C170.627 146.954 171.988 146.353 173.047 145.377C174.106 144.401 174.938 143.199 175.467 141.848C176.526 139.144 176.677 135.99 176.147 133.062C175.542 130.208 174.257 127.355 171.913 125.553ZM172.518 124.802C173.803 125.778 174.862 127.055 175.543 128.481C176.299 129.908 176.828 131.41 177.131 132.912C177.811 135.991 177.66 139.295 176.601 142.298C176.072 143.8 175.164 145.227 174.03 146.428C172.82 147.63 171.308 148.381 169.72 148.756C168.056 149.131 166.468 149.131 164.804 148.906C163.141 148.606 161.553 147.78 160.267 146.729C157.696 144.551 156.259 141.472 155.427 138.393C154.671 135.24 154.595 131.936 155.654 128.707C156.183 127.13 157.091 125.628 158.376 124.426C159.057 123.826 159.813 123.3 160.645 123C161.477 122.699 162.309 122.474 163.141 122.324C164.804 122.024 166.544 122.174 168.056 122.699C169.644 123.15 171.157 123.826 172.518 124.802Z" fill="black"/>
<path d="M199.966 103.688C199.134 103.312 198.227 103.237 197.319 103.237C196.412 103.312 195.504 103.538 194.597 103.838C192.857 104.439 191.194 105.265 189.53 106.091C188.698 106.541 187.942 106.992 187.262 107.593C186.581 108.118 186.051 108.794 185.522 109.47C184.539 110.897 183.858 112.624 183.556 114.351C182.875 117.88 183.556 121.71 185.144 125.014C186.732 128.318 189.454 131.096 193.009 132.147C193.916 132.372 194.748 132.523 195.731 132.523C196.638 132.598 197.622 132.523 198.529 132.448C200.344 132.222 202.159 131.622 203.671 130.645C206.772 128.693 208.814 125.239 209.645 121.559C210.023 119.757 210.175 117.805 210.023 115.928C209.872 114.05 209.57 112.173 208.889 110.446C208.511 109.62 208.057 108.794 207.452 108.118C206.847 107.517 206.016 106.917 205.259 106.391C203.52 105.34 201.781 104.514 199.966 103.688ZM200.42 102.862C202.159 103.688 203.974 104.514 205.638 105.64C206.469 106.241 207.301 106.691 208.058 107.517C208.814 108.268 209.343 109.169 209.721 110.071C210.553 111.948 210.856 113.9 211.082 115.852C211.234 117.805 211.158 119.832 210.78 121.785C210.402 123.737 209.721 125.689 208.662 127.416C207.604 129.144 206.167 130.72 204.503 131.847C202.764 132.973 200.798 133.724 198.756 134.024C197.773 134.175 196.714 134.25 195.731 134.175C194.748 134.175 193.689 134.024 192.63 133.799C191.647 133.499 190.664 133.123 189.681 132.598C188.774 132.072 187.942 131.471 187.11 130.796C185.598 129.444 184.312 127.717 183.405 125.915C181.514 122.31 180.758 118.105 181.438 113.975C181.817 111.948 182.573 109.92 183.783 108.193C184.388 107.367 185.068 106.541 185.976 105.79C186.808 105.115 187.715 104.589 188.547 104.063C190.362 103.087 192.328 102.411 194.37 102.111C195.353 101.961 196.412 101.961 197.471 102.036C198.378 102.186 199.437 102.411 200.42 102.862Z" fill="black"/>
<path d="M224.997 85.8289C223.333 85.8289 221.594 86.1293 220.082 86.6549C218.569 87.2556 217.284 88.0065 216.149 88.9827C215.015 90.0339 214.108 91.3856 213.427 92.7372C212.747 94.1639 212.444 95.7408 212.368 97.2426C212.217 100.396 213.427 103.55 215.393 106.028C217.359 108.506 220.233 110.383 223.409 110.909C226.585 111.435 230.063 110.834 232.408 108.656C233.542 107.605 234.449 106.178 235.054 104.677C235.584 103.175 235.886 101.523 235.886 99.8708C235.886 96.5668 234.979 93.1877 233.164 90.4845C232.256 89.1329 231.047 87.9314 229.686 87.0304C228.249 86.3545 226.661 85.8289 224.997 85.8289ZM224.997 84.9278C226.812 84.9278 228.627 85.4534 230.139 86.3545C231.651 87.2556 233.013 88.6072 233.996 90.034C235.962 92.9625 237.02 96.4917 237.096 100.021C237.096 101.748 236.869 103.55 236.34 105.277C235.735 107.004 234.828 108.581 233.467 109.858C232.105 111.134 230.442 112.035 228.702 112.486C226.887 112.937 225.073 113.012 223.258 112.786C219.628 112.261 216.301 110.233 213.956 107.455C211.612 104.677 210.176 101.072 210.251 97.3177C210.251 95.4404 210.705 93.6383 211.461 91.9112C212.217 90.1841 213.276 88.6823 214.713 87.4058C216.074 86.0542 218.04 85.3032 219.779 85.078C221.519 84.8527 223.258 84.9278 224.997 84.9278Z" fill="black"/>
<path d="M248.515 65.5574C247.381 65.1069 246.095 65.0318 244.961 65.182C243.751 65.3322 242.692 65.6325 241.709 66.008C240.726 66.3835 239.819 67.1343 239.062 67.9603C238.382 68.7863 237.853 69.7625 237.626 70.8889C237.096 73.0665 237.399 75.4694 238.231 77.647C239.138 79.8247 240.575 81.777 242.616 82.9034C243.146 83.2037 243.675 83.3539 244.205 83.5041C244.734 83.6543 245.339 83.6543 245.868 83.7293C247.003 83.6543 248.061 83.3539 249.12 82.7532C250.103 82.1525 251.01 81.3264 251.767 80.4253C252.523 79.5243 253.128 78.473 253.581 77.3466C254.035 76.2203 254.262 75.0188 254.338 73.8174C254.338 72.6159 254.111 71.4896 253.581 70.3632C252.523 68.2607 250.784 66.4585 248.515 65.5574ZM248.817 64.7315C251.389 65.6325 253.355 67.66 254.565 69.9878C255.17 71.1892 255.472 72.5409 255.472 73.8925C255.472 75.2441 255.17 76.5206 254.716 77.7972C254.262 78.9986 253.581 80.2001 252.825 81.2514C251.993 82.3026 251.01 83.2788 249.876 84.0297C248.742 84.7806 247.381 85.2312 245.944 85.3813C245.263 85.3813 244.507 85.3813 243.826 85.2312C243.146 85.081 242.465 84.8557 241.86 84.4802C239.365 83.2037 237.55 80.951 236.416 78.473C235.357 75.995 234.903 73.1416 235.508 70.4383C235.811 69.0867 236.491 67.7351 237.399 66.6087C238.306 65.4824 239.516 64.5813 240.877 64.0556C242.238 63.4549 243.751 63.3798 245.112 63.6051C246.322 63.8304 247.608 64.2809 248.817 64.7315Z" fill="black"/>
<path d="M260.765 43.5563C260.689 43.6314 261.067 44.157 261.597 43.7065L261.672 43.6314L261.672 43.7065L261.672 43.8567L261.597 44.2321L261.446 44.983L261.219 46.5599L260.765 49.7137C260.614 50.6899 260.538 51.7412 260.387 52.7924L260.084 55.9462C259.933 58.0488 259.706 60.1513 259.555 62.1787C259.404 64.2062 259.555 66.3087 259.404 68.4112C259.328 70.5138 259.177 72.6914 258.95 74.7939C258.723 76.8965 258.421 78.999 257.891 81.1015C257.059 85.3066 255.623 89.3615 253.732 93.2662C253.278 94.2424 252.749 95.1435 252.22 96.1196C251.69 97.0958 251.085 97.9969 250.556 98.8979L248.741 101.526L246.851 104.079C244.204 107.458 241.482 110.687 238.532 113.766C232.71 119.998 226.357 125.63 219.627 130.811L217.056 132.689L215.771 133.59L214.485 134.491L211.838 136.293L209.116 138.02L207.755 138.846L206.394 139.672L203.596 141.249C201.705 142.225 199.89 143.276 197.924 144.178C196.941 144.628 196.034 145.154 195.051 145.529L192.101 146.806C190.135 147.632 188.094 148.383 186.052 149.058C181.968 150.335 177.809 151.311 173.65 152.137C169.491 152.963 165.332 153.639 161.097 154.315C156.862 154.915 152.552 155.066 148.317 154.69C144.082 154.39 139.848 153.714 135.688 152.738C133.647 152.287 131.53 151.687 129.488 151.161C127.446 150.635 125.404 149.96 123.362 149.734C123.136 149.734 122.909 149.434 122.984 149.209C122.984 148.983 123.211 148.758 123.513 148.833C125.706 149.058 127.748 149.659 129.79 150.185C131.832 150.71 133.874 151.236 135.916 151.687C139.999 152.588 144.158 153.263 148.393 153.489C152.552 153.714 156.786 153.564 160.946 152.888C165.105 152.212 169.264 151.461 173.423 150.635C177.582 149.809 181.666 148.758 185.598 147.482C187.564 146.806 189.53 146.13 191.421 145.229L194.294 143.952C195.277 143.502 196.185 143.051 197.092 142.601C198.983 141.7 200.798 140.648 202.613 139.672L205.335 138.095L206.696 137.269L208.057 136.443L210.704 134.716L213.275 132.914L214.561 132.013L215.846 131.112L218.342 129.235C224.997 124.128 231.273 118.497 236.944 112.414C239.818 109.411 242.54 106.182 245.036 102.878L246.926 100.4L248.665 97.8467C249.195 96.9456 249.724 96.1196 250.254 95.2185C250.707 94.3175 251.237 93.4164 251.69 92.4402C255.32 85.0062 256.833 76.7463 257.059 68.4112C257.059 67.36 257.135 66.3087 257.135 65.2575C257.135 64.2062 257.135 63.0798 257.211 62.0285C257.362 59.926 257.664 57.8235 257.891 55.721C258.194 53.6184 258.496 51.591 258.95 49.4134L259.706 46.3347L260.084 44.8329L260.311 44.0819L260.462 43.7065L260.538 43.4812L260.614 43.331C260.614 43.331 260.689 43.2559 260.689 43.1809C261.219 42.7303 261.597 43.2559 261.521 43.4061C261.597 43.6314 261.445 43.9318 261.143 43.9318C261.067 44.0068 260.84 43.8567 260.765 43.5563Z" fill="black"/>
<path d="M177.279 38.0704C178.186 38.4459 177.96 37.9202 178.035 38.0704C178.035 37.9953 178.035 38.0704 178.035 38.0704L178.035 38.1455L178.035 38.2957L177.96 38.6711L177.809 39.422L177.581 40.9238L177.128 43.9275L176.296 49.9347C175.994 51.8871 175.767 53.9896 175.464 55.9419C175.162 57.9694 174.784 59.9968 174.33 62.0243C173.422 66.004 172.137 70.059 170.246 73.7384C168.356 77.4178 166.239 80.9471 163.894 84.3261C159.13 91.0843 153.534 97.1666 147.333 102.573C141.132 107.98 134.251 112.635 126.765 116.315C119.354 119.919 111.792 123.148 103.927 125.551C99.9948 126.752 95.987 127.728 91.9035 128.554C87.82 129.305 83.7364 129.906 79.6528 130.282C75.5693 130.732 71.486 130.882 67.3269 131.032C63.1677 131.108 59.0844 130.882 55.0009 130.657C50.9173 130.357 46.8337 129.981 42.7502 129.531C40.7084 129.305 38.6666 128.93 36.6248 128.63L33.6 128.104L32.0876 127.803L31.3314 127.653L30.9533 127.578L30.7266 127.503C30.651 127.503 30.6508 127.503 30.5752 127.428C30.1971 127.803 30.4997 126.076 30.7266 126.527C30.8022 126.527 30.802 126.527 30.8776 126.527C31.1045 126.527 31.3314 126.752 31.3314 126.978C31.3314 127.203 31.1045 127.428 30.8776 127.428C31.0289 127.879 31.3315 126.152 31.029 126.527C30.9534 126.527 31.029 126.527 31.029 126.527L31.1804 126.602L31.5585 126.677L32.3147 126.827L33.8271 127.053L36.8519 127.503C38.8937 127.804 40.8598 128.104 42.9016 128.329C46.9851 128.78 51.0683 129.08 55.0762 129.23C59.1597 129.455 63.2433 129.531 67.3269 129.456C71.4104 129.305 75.4939 129.005 79.5018 128.554C83.5853 128.104 87.5931 127.578 91.5254 126.752C95.5333 125.926 99.4656 124.95 103.322 123.749C111.036 121.346 118.522 118.042 125.781 114.437C133.041 110.908 139.771 106.328 145.821 100.996C151.946 95.6648 157.391 89.6575 162.004 83.0496C164.273 79.7456 166.39 76.2915 168.205 72.6871C170.019 69.1579 171.229 65.3282 172.061 61.4235C172.969 57.5188 173.574 53.5391 174.254 49.4842C174.632 47.4567 175.086 45.5044 175.54 43.4769L176.296 40.4733L176.674 38.9715L176.901 38.2206L177.052 37.8452L177.128 37.6198L177.203 37.4697C177.203 37.4697 177.203 37.4697 177.279 37.3946C177.355 37.4697 177.203 36.869 178.111 37.3195C178.262 37.5448 178.262 37.8451 178.035 37.9953C177.733 38.3708 177.43 38.2957 177.279 38.0704Z" fill="black"/>
</svg>
