<svg width="248" height="495" viewBox="0 0 248 495" fill="none" xmlns="http://www.w3.org/2000/svg">
<path d="M49.9846 493.42L50.7408 491.918C50.8921 491.693 50.9677 491.468 51.1189 491.242L51.5723 490.491L53.4628 487.263C54.7484 485.16 56.0341 483.058 57.3952 480.955L65.4107 468.49C70.7797 460.155 75.8465 451.67 80.0812 442.809C82.1986 438.379 84.165 433.873 86.0555 429.293C87.8704 424.712 89.6096 420.057 91.3489 415.476C93.0125 410.745 95.1298 406.24 96.4909 401.584C96.869 400.458 97.1712 399.257 97.3224 398.13C97.3981 397.83 97.3982 397.53 97.4738 397.304C97.5494 397.004 97.5491 396.703 97.5491 396.478L97.5491 396.103C97.5491 396.403 97.6252 396.328 97.6252 396.328C97.5496 396.253 97.3226 396.103 97.0957 395.953C96.1883 395.427 95.0538 394.976 93.9195 394.601C93.3902 394.451 92.7851 394.301 92.2558 394.151C91.9533 394.075 91.7267 394.075 91.4242 394.075C91.1974 394.075 90.8947 394.075 90.8947 394.075C90.8947 394.075 90.9708 394.075 90.9708 394C91.0464 394 91.0458 393.925 91.1215 393.85C91.1215 393.775 91.1215 393.85 91.1215 393.85L91.1215 393.925L90.8947 394.301L90.3652 395.052L89.3823 396.628C88.7018 397.68 88.0968 398.731 87.4918 399.782C86.2819 401.885 85.0723 404.062 84.0136 406.24C81.8206 410.67 79.7785 415.176 77.888 419.681C74.107 428.767 70.7046 438.078 66.7724 447.239C64.8063 451.82 62.6889 456.325 60.3447 460.681L58.5295 463.985L57.5466 465.637L56.5637 467.213C55.2025 469.316 53.7656 471.343 52.2532 473.296C49.304 477.276 46.2038 481.18 43.3302 485.16C42.9521 485.686 42.6493 486.136 42.2712 486.662C42.12 486.887 41.9691 487.188 41.8178 487.413C41.7422 487.563 41.666 487.713 41.5904 487.788C41.5147 487.863 41.515 487.939 41.515 488.014C41.4394 488.314 41.8178 488.765 42.1959 489.14C42.6496 489.515 43.1029 489.816 43.6322 490.116C44.6909 490.717 45.8255 491.243 46.9598 491.768L48.6236 492.594L49.4551 493.045L49.9086 493.27C49.9842 493.27 49.909 493.27 49.9846 493.42ZM50.2113 494.321C49.9845 494.321 49.682 494.171 49.4551 494.096L49.077 493.871L48.2455 493.495L46.5817 492.744C45.4474 492.219 44.3131 491.693 43.1788 491.092C42.6495 490.792 42.0444 490.416 41.515 489.966C41.2882 489.741 40.9857 489.515 40.7588 489.14C40.532 488.84 40.3807 488.389 40.3807 487.938C40.3807 487.713 40.4565 487.488 40.5321 487.338C40.6077 487.112 40.6832 487.037 40.7588 486.887C40.9101 486.587 41.061 486.286 41.2123 486.061C41.5147 485.536 41.8931 485.01 42.2712 484.484C45.1448 480.429 48.1693 476.525 51.0429 472.47C52.4796 470.442 53.9164 468.415 55.202 466.388L56.1856 464.811L57.0925 463.234L58.8323 460.005C61.1009 455.65 63.1421 451.144 65.0326 446.564C68.8892 437.478 72.2165 428.167 75.9975 418.93C77.888 414.35 79.8541 409.769 82.0471 405.339C83.1057 403.086 84.3161 400.909 85.526 398.731C86.131 397.68 86.8116 396.553 87.4165 395.502L88.3994 393.925L88.9289 393.174L89.1556 392.799L89.1556 392.724C89.1556 392.724 89.1553 392.724 89.231 392.649C89.3066 392.574 89.4581 392.423 89.5337 392.348C89.6093 392.273 89.6853 392.198 89.8365 392.198C89.9121 392.123 89.9876 392.123 90.0632 392.123C90.6682 391.973 90.9708 391.973 91.3489 391.973C91.727 391.973 92.029 392.048 92.4071 392.123C93.0877 392.273 93.6927 392.423 94.2976 392.574C95.5832 392.949 96.7934 393.4 98.0033 394.151C98.3058 394.376 98.6081 394.526 98.9862 394.901C99.1375 395.127 99.364 395.352 99.4396 395.953L99.4396 396.478C99.4396 396.854 99.4399 397.154 99.3643 397.454C99.3643 397.755 99.2886 398.13 99.2129 398.431C98.9861 399.707 98.6834 400.984 98.3054 402.185C97.5491 404.588 96.6419 406.916 95.81 409.244L94.449 412.698L93.1633 416.152C91.4241 420.807 89.6848 425.463 87.8699 430.044C85.9794 434.624 84.0138 439.205 81.8964 443.71C77.6617 452.721 72.5192 461.281 67.2258 469.691C64.5791 473.897 61.7809 478.026 58.983 482.081L54.7485 488.164L52.5553 491.167L52.0265 491.918L51.421 492.744C51.0429 493.27 50.5894 493.796 50.2113 494.321Z" fill="black"/>
<path d="M59.9665 456.1C56.5636 449.492 53.3869 442.809 50.2865 436.051C47.1861 429.293 44.0859 422.535 41.1367 415.702C38.1875 408.868 35.4652 401.885 33.1966 394.751C30.8523 387.693 29.0374 380.334 28.2812 372.825C27.9031 369.07 27.7516 365.316 27.9785 361.561C28.0541 360.585 28.0547 359.684 28.2059 358.708L28.3566 357.281C28.4322 356.755 28.4326 356.455 28.4326 356.005C28.4326 355.554 28.4326 355.103 28.4326 354.578C28.4326 354.352 28.4323 354.052 28.508 353.752C28.5836 353.602 28.5078 353.451 28.7347 353.076C28.8103 353.001 28.8104 353.001 28.8861 352.926C28.9617 352.851 29.0372 352.776 29.1128 352.776C29.1884 352.701 29.3396 352.701 29.4909 352.625C29.6421 352.625 29.7177 352.625 29.869 352.625C30.3227 352.701 30.3989 352.851 30.4745 353.001C30.5502 353.076 30.6252 353.151 30.6252 353.226L30.7012 353.376L30.928 353.677L31.3814 354.277C31.6839 354.653 31.9112 355.104 32.2137 355.479C33.2723 357.056 34.1795 358.783 34.9357 360.51C35.6919 362.237 36.2973 364.039 36.9023 365.841C38.0366 369.446 38.868 373.125 39.4729 376.805C40.8341 384.164 41.5148 391.597 42.271 398.956C42.6491 402.636 43.0269 406.315 43.4807 409.995C43.9344 413.674 44.464 417.354 45.2959 420.958C45.3715 421.183 45.2202 421.484 44.9177 421.484C44.6909 421.559 44.3883 421.408 44.3883 421.108C43.4808 417.504 42.8757 413.824 42.3464 410.07C41.817 406.39 41.3634 402.711 40.9853 399.032C40.0779 391.673 39.2459 384.314 37.8091 377.03C37.1285 373.426 36.2967 369.821 35.1624 366.292C34.6331 364.565 33.9528 362.838 33.1966 361.186C32.4404 359.534 31.6082 357.957 30.6252 356.455C30.3983 356.08 30.1715 355.704 29.869 355.329L29.1128 354.353L29.1888 354.428L29.2642 354.503C29.3398 354.503 29.3399 354.503 29.4156 354.578C29.5668 354.578 29.7938 354.578 29.945 354.503C30.0207 354.503 30.0964 354.428 30.0964 354.353L30.1718 354.277C30.2474 354.127 30.1715 354.202 30.2471 354.277C30.2471 354.428 30.1718 354.653 30.1718 354.878C30.1718 355.329 30.1718 355.779 30.1718 356.23C30.1718 356.455 30.1718 356.68 30.1718 356.981C30.1718 357.281 30.0964 357.506 30.0964 357.732L29.945 359.083C29.8694 359.984 29.7937 360.885 29.7937 361.787C29.6424 365.466 29.7934 369.145 30.2471 372.75C31.0033 380.034 32.8182 387.242 35.1624 394.226C37.5066 401.209 40.1534 408.117 43.1026 414.951C46.0518 421.784 49.1523 428.467 52.3284 435.225C55.4288 441.983 58.4538 448.817 60.798 455.875C60.8737 456.1 60.7221 456.401 60.4953 456.476C60.344 456.401 60.0421 456.326 59.9665 456.1Z" fill="black"/>
<path d="M50.8171 436.127C46.2799 432.748 41.9695 429.143 37.5835 425.539C33.2732 421.935 28.887 418.33 24.5767 414.651C20.2663 410.972 16.0318 407.217 12.024 403.162C8.01607 399.107 4.53723 394.377 2.26862 388.97C1.73927 387.618 1.2857 386.267 0.907594 384.84L0.756205 384.314L0.68088 384.089L0.605555 383.864L0.302777 382.888C0.227157 382.738 0.151389 382.512 0.151389 382.362C0.0757682 382.137 1.02292e-09 381.987 7.90431e-10 381.611L6.97459e-10 381.461C6.50962e-10 381.386 0.000443088 381.236 0.0760636 381.161C0.0760636 381.086 0.0762113 381.01 0.227452 380.785C0.378693 380.635 0.529639 380.485 0.68088 380.41C0.832121 380.335 1.05913 380.335 1.21037 380.335C1.36161 380.335 1.36146 380.335 1.43709 380.41C1.51271 380.41 1.58818 380.485 1.6638 380.485C1.73942 380.485 1.73986 380.485 1.73986 380.56L2.19329 380.785C4.84001 382.137 7.10848 383.939 9.22585 385.966C13.385 390.021 16.561 394.752 19.8127 399.333C26.3917 408.494 32.8196 417.73 40.0035 426.44C40.1548 426.666 40.1551 426.966 39.9282 427.116C39.7014 427.266 39.4742 427.266 39.2473 427.041C31.8365 418.481 25.1063 409.395 18.4517 400.309C15.1244 395.803 11.8727 391.148 7.86483 387.318C5.89869 385.441 3.70585 383.714 1.21037 382.512L0.756205 382.287C0.680585 382.287 0.756205 382.287 0.756205 382.287L0.832269 382.287C0.907889 382.287 0.832416 382.287 0.983657 382.287C1.1349 382.287 1.21052 382.287 1.36176 382.212C1.43738 382.137 1.66424 382.062 1.73986 381.912C1.81548 381.761 1.81489 381.686 1.89051 381.686C1.89051 381.611 1.89051 381.536 1.89051 381.536C1.89051 381.536 1.89096 381.686 1.96658 381.836C2.0422 381.987 2.04234 382.137 2.11796 382.287L2.49607 383.263L2.57139 383.564L2.64672 383.864L2.79811 384.39C3.17621 385.741 3.55446 387.018 4.0838 388.219C6.20118 393.25 9.52833 397.756 13.385 401.735C17.3929 405.64 21.552 409.395 25.8624 413.074C30.1727 416.754 34.5589 420.283 38.8692 423.887C43.1796 427.491 47.4903 431.246 51.2713 435.451C51.4225 435.676 51.4225 435.977 51.2713 436.127C51.1957 436.202 50.9684 436.202 50.8171 436.127Z" fill="black"/>
<path d="M49.9076 431.849C48.4708 426.593 47.6391 421.261 47.0342 415.93C46.5048 410.524 46.1272 405.192 45.9759 399.786C45.8247 394.379 45.9759 388.973 46.354 383.566C46.5809 380.863 46.8077 378.159 47.1102 375.456C47.4127 372.753 47.9415 370.05 48.7733 367.422C49.0001 366.746 49.2273 366.145 49.4542 365.469C49.5298 365.319 49.6052 365.094 49.6809 364.944C49.7565 364.868 49.832 364.718 49.9076 364.568L49.9836 364.418C50.0593 364.343 50.0591 364.343 50.2104 364.268C50.286 364.193 50.3615 364.193 50.4371 364.193C50.5127 364.193 50.7396 364.118 50.8152 364.118C51.042 364.118 50.9663 364.118 51.0419 364.118L51.1933 364.118C51.7982 364.343 51.874 364.568 52.1009 364.718C52.2521 364.868 52.4033 365.094 52.479 365.244C52.9327 365.92 53.1594 366.52 53.4619 367.196C53.7644 367.797 53.9917 368.473 54.2941 369.074C55.2772 371.702 55.8822 374.405 56.1846 377.108C56.6384 382.59 56.2603 387.996 55.4284 393.403C53.8404 404.141 50.6644 414.428 49.3788 425.091C49.3788 425.316 49.0762 425.542 48.8493 425.466C48.6225 425.466 48.3956 425.241 48.4712 424.941C49.6055 414.203 52.4788 403.765 53.84 393.178C54.5206 387.921 54.8988 382.515 54.3695 377.333C54.067 374.705 53.462 372.152 52.479 369.749C51.9496 368.623 51.4201 367.271 50.8152 366.295C50.7396 366.145 50.6641 366.07 50.5885 365.995C50.5128 365.92 50.4369 365.92 50.6638 365.995L50.7398 365.995L50.8912 365.995C51.0425 365.995 51.1937 365.995 51.2693 365.92C51.345 365.92 51.3444 365.845 51.42 365.845C51.4956 365.77 51.4958 365.77 51.5714 365.77C51.5714 365.77 51.5717 365.77 51.496 365.845C51.4204 365.92 51.4203 366.07 51.3447 366.22C51.1178 366.746 50.8911 367.422 50.7398 368.022C49.9836 370.5 49.5299 373.129 49.2274 375.757C48.925 378.385 48.6981 381.088 48.4712 383.716C48.0931 389.048 48.0172 394.379 48.1685 399.71C48.3197 405.042 48.7734 410.373 49.3028 415.705C49.9077 421.036 50.5131 426.293 50.8912 431.699C50.8912 431.924 50.7396 432.15 50.4371 432.225C50.2102 432.225 49.9832 432.074 49.9076 431.849Z" fill="black"/>
<path d="M72.597 458.052C78.7222 453.697 85.3774 450.018 92.1076 446.714C98.8379 443.41 105.719 440.256 112.449 437.102C126.061 430.795 139.597 424.262 151.848 415.927C154.873 413.824 157.746 411.496 160.317 408.868C160.922 408.192 161.602 407.517 162.207 406.841C162.812 406.165 163.418 405.414 163.947 404.738C164.25 404.363 164.476 403.987 164.779 403.687C165.006 403.312 165.308 402.936 165.46 402.636L165.46 402.561C165.46 402.561 165.46 402.561 165.46 402.636L165.46 402.711C165.46 402.786 165.46 402.786 165.46 402.861C165.46 402.936 165.459 402.936 165.535 403.086C165.535 403.161 165.762 403.312 165.762 403.312L165.686 403.312L165.61 403.236C165.459 403.161 165.308 403.086 165.157 403.011C164.854 402.861 164.401 402.786 164.022 402.711C162.359 402.561 160.544 402.861 158.804 403.236C157.065 403.687 155.25 404.213 153.511 404.888C151.772 405.564 150.033 406.315 148.52 407.141L146.1 408.568L143.756 410.07C137.631 414.2 131.884 419.081 126.439 424.187C120.994 429.293 115.701 434.624 110.332 439.805C110.181 439.956 109.878 439.956 109.651 439.805C109.5 439.655 109.5 439.355 109.651 439.13C114.944 433.873 120.162 428.467 125.531 423.21C130.976 418.029 136.572 412.998 142.849 408.718L145.193 407.141L147.613 405.639C149.352 404.663 151.092 403.912 152.831 403.236C154.57 402.561 156.385 401.96 158.276 401.434C160.166 400.984 162.056 400.608 164.174 400.758C164.703 400.833 165.232 400.909 165.762 401.134C166.064 401.209 166.291 401.359 166.594 401.509L166.821 401.66L166.896 401.735C166.896 401.735 167.123 401.885 167.123 402.035C167.198 402.185 167.198 402.26 167.274 402.335C167.274 402.41 167.274 402.486 167.274 402.561C167.274 402.636 167.274 402.636 167.274 402.711C167.274 402.786 167.274 402.861 167.199 402.936C167.199 403.086 167.123 403.161 167.123 403.236C166.82 403.837 166.594 404.137 166.291 404.588C165.989 404.963 165.686 405.339 165.46 405.714C164.855 406.465 164.249 407.216 163.644 407.892C163.039 408.643 162.359 409.319 161.679 409.995C159.032 412.773 156.083 415.176 152.982 417.353C140.505 425.914 126.893 432.447 113.281 438.829C106.476 441.983 99.6691 445.137 93.0145 448.516C86.2843 451.82 79.6297 455.199 72.9751 458.653C72.7482 458.803 72.4459 458.653 72.3702 458.428C72.3702 458.428 72.4457 458.203 72.597 458.052Z" fill="black"/>
<path d="M99.0624 444.687C102.163 439.431 105.793 434.55 109.347 429.669C111.162 427.266 112.901 424.789 114.565 422.311C116.228 419.833 117.817 417.279 119.405 414.651C120.993 412.098 122.505 409.47 124.169 406.917C125.757 404.364 127.345 401.736 128.857 399.183C130.37 396.554 131.882 393.926 133.243 391.298C133.545 390.622 133.923 389.947 134.226 389.271L134.453 388.745C134.453 388.67 134.528 388.52 134.604 388.445L134.755 388.144L135.36 387.168C135.436 387.018 135.512 386.868 135.588 386.793L135.588 386.718C135.588 386.642 135.588 386.718 135.588 386.718C135.588 386.718 135.588 386.718 135.588 386.868C135.588 386.943 135.588 386.943 135.588 387.018C135.588 387.093 135.663 387.243 135.738 387.318C135.814 387.393 135.89 387.469 135.966 387.544C136.041 387.544 136.041 387.619 136.116 387.619C136.192 387.619 136.192 387.619 136.192 387.619C136.268 387.619 136.344 387.619 136.344 387.619L136.116 387.694L135.663 387.769C135.36 387.844 135.058 387.994 134.68 388.069L133.697 388.52C131.202 389.871 128.857 391.824 126.664 393.851C124.471 395.879 122.429 398.056 120.539 400.384C116.758 405.115 113.052 409.921 109.649 414.876C106.171 419.832 102.92 424.864 100.046 430.195C98.6093 432.823 97.3236 435.526 96.1137 438.305C94.9794 441.083 94.0719 443.937 93.467 446.865C93.3914 447.09 93.1644 447.316 92.9375 447.241C92.7106 447.165 92.4838 446.94 92.5594 446.715C93.0887 443.711 93.996 440.783 95.0547 437.929C96.189 435.076 97.3989 432.298 98.8357 429.594C101.634 424.188 104.81 419.007 108.288 413.975C111.691 408.944 115.321 404.063 119.102 399.258C120.992 396.855 123.11 394.602 125.303 392.424C127.571 390.322 129.916 388.294 132.713 386.718C133.092 386.567 133.47 386.342 133.848 386.192C134.226 386.042 134.68 385.892 135.058 385.816L135.738 385.666L136.041 385.591C136.117 385.591 136.343 385.591 136.494 385.591C136.57 385.591 136.721 385.666 136.873 385.741C137.024 385.816 137.099 385.892 137.251 386.042C137.326 386.192 137.403 386.342 137.478 386.492C137.478 386.567 137.478 386.718 137.478 386.793C137.478 387.018 137.478 387.093 137.402 387.168C137.402 387.318 137.327 387.318 137.327 387.393C137.327 387.469 137.251 387.544 137.251 387.619C137.175 387.844 137.024 388.069 136.949 388.219L136.344 389.196L136.192 389.421C136.192 389.496 136.116 389.496 136.116 389.571L135.89 390.097C135.587 390.772 135.209 391.523 134.907 392.199C133.546 394.902 132.033 397.606 130.521 400.234C129.009 402.862 127.42 405.49 125.832 408.043C124.244 410.596 122.732 413.224 121.144 415.778C119.556 418.406 117.968 420.959 116.304 423.512C114.641 426.065 112.826 428.543 111.086 431.021C107.532 435.902 103.751 440.708 99.7433 445.288C99.5921 445.513 99.2893 445.514 99.0624 445.363C98.9868 445.138 98.9868 444.913 99.0624 444.687Z" fill="black"/>
<path d="M130.522 419.078C134.228 414.197 138.387 409.767 142.395 405.186C146.478 400.681 150.411 396.025 153.965 391.219C157.595 386.338 160.846 381.307 163.644 375.976C165.081 373.273 166.366 370.645 167.425 367.866C167.954 366.439 168.484 365.088 168.786 363.661C168.862 363.286 168.937 362.985 168.937 362.685C168.937 362.535 168.937 362.385 168.937 362.385C168.937 362.46 168.937 362.46 169.013 362.535C169.013 362.61 169.164 362.76 169.316 362.835C169.316 362.835 169.316 362.835 169.24 362.835C168.938 362.685 168.333 362.76 167.728 362.985C166.518 363.436 165.232 364.262 164.097 365.163C162.963 366.064 161.829 367.04 160.771 368.091C159.712 369.143 158.653 370.194 157.67 371.32C157.14 371.846 156.687 372.447 156.233 373.047C155.78 373.573 155.326 374.249 154.948 374.849C151.545 379.805 148.973 385.287 145.948 390.618C139.823 401.206 133.471 411.494 127.497 422.082C127.346 422.307 127.119 422.382 126.893 422.232C126.666 422.081 126.59 421.856 126.741 421.631C132.488 410.893 138.689 400.38 144.587 389.793C147.461 384.536 150.032 378.904 153.435 373.798C153.889 373.122 154.267 372.522 154.796 371.921C155.25 371.32 155.779 370.72 156.309 370.119C157.292 368.917 158.351 367.791 159.485 366.74C160.619 365.614 161.753 364.562 162.963 363.586C164.173 362.61 165.459 361.634 167.122 361.033C167.954 360.733 168.937 360.507 170.072 360.808C170.147 360.808 170.147 360.808 170.299 360.883C170.525 360.958 170.752 361.183 170.828 361.333C170.904 361.483 170.979 361.634 171.055 361.709C171.055 361.784 171.131 361.859 171.131 362.009C171.206 362.385 171.131 362.61 171.131 362.835C171.055 363.286 170.979 363.661 170.903 364.112C170.525 365.689 170.072 367.19 169.467 368.617C168.333 371.546 166.971 374.249 165.61 377.027C162.812 382.509 159.409 387.69 155.779 392.571C152.149 397.527 148.142 402.182 144.134 406.763C140.05 411.343 135.816 415.699 131.278 419.754C131.052 419.904 130.749 419.904 130.598 419.754C130.371 419.528 130.371 419.303 130.522 419.078Z" fill="black"/>
<path d="M147.383 400.533C151.693 397.529 156.381 395.051 161.07 392.723C165.758 390.396 170.447 388.068 175.06 385.665C179.672 383.262 184.21 380.709 188.596 377.931C192.982 375.152 197.066 372.074 200.09 367.944C200.242 367.718 200.468 367.418 200.544 367.268L200.544 367.343C200.544 367.343 200.544 367.493 200.544 367.568C200.544 367.568 200.544 368.019 200.847 368.244C200.922 368.319 200.846 368.244 200.922 368.319C200.922 368.319 200.922 368.319 200.847 368.319C200.771 368.319 200.771 368.319 200.695 368.319C200.241 368.244 199.636 368.319 199.031 368.469C197.821 368.694 196.612 368.995 195.326 369.37C192.907 370.121 190.411 371.022 188.066 372.074C183.378 374.101 178.916 376.954 174.682 379.883C166.136 385.815 158.272 392.723 150.181 399.331C149.954 399.482 149.651 399.481 149.5 399.256C149.349 399.031 149.349 398.806 149.576 398.58C157.516 391.747 165.154 384.689 173.699 378.531C178.009 375.528 182.395 372.599 187.31 370.422C189.73 369.37 192.225 368.394 194.721 367.568C196.006 367.193 197.292 366.742 198.653 366.517C199.334 366.367 200.014 366.292 200.922 366.367L201.3 366.442C201.451 366.442 201.603 366.517 201.678 366.592C201.754 366.592 201.829 366.667 201.905 366.742L202.056 366.817L202.132 366.892C202.208 366.892 202.132 366.892 202.208 366.967C202.434 367.193 202.51 367.643 202.51 367.643C202.51 367.718 202.51 367.944 202.51 367.944C202.51 368.019 202.434 368.094 202.434 368.169C202.359 368.244 202.359 368.319 202.359 368.394C202.132 368.77 201.981 369.07 201.754 369.295C201.376 369.821 200.922 370.347 200.544 370.872C200.09 371.398 199.637 371.923 199.183 372.374C198.275 373.35 197.292 374.251 196.233 375.152C194.192 376.879 191.999 378.381 189.73 379.808C185.344 382.661 180.732 385.214 176.043 387.692C171.43 390.17 166.666 392.498 162.054 394.826C157.365 397.154 152.676 399.407 147.836 401.434C147.609 401.509 147.307 401.434 147.231 401.209C147.08 400.908 147.156 400.683 147.383 400.533Z" fill="black"/>
<path d="M54.2957 441.756C53.4639 436.65 53.3881 431.393 53.7662 426.287C54.2199 421.106 54.9761 416 56.0348 410.969C56.5641 408.416 57.1687 405.938 57.8492 403.46C58.5298 400.982 59.2863 398.504 60.0425 396.026C60.7987 393.548 61.6308 391.07 62.6139 388.667C62.8408 388.066 63.143 387.465 63.4454 386.864C63.7479 386.264 64.1262 385.663 64.7311 384.987L65.0332 384.762L65.1845 384.612C65.0333 384.236 66.9993 384.687 66.5456 384.762C66.6212 384.837 66.6969 384.912 66.6969 384.987C66.7726 385.062 66.773 385.062 66.773 385.138C66.9243 385.363 66.9241 385.513 66.9997 385.738L67.3018 386.714L67.8313 388.592L68.058 389.493L68.2094 389.943C68.285 390.093 68.2851 390.244 68.3607 390.469C68.4364 391.145 68.5875 391.745 68.5875 392.421C68.7387 393.698 68.8142 395.049 68.8142 396.326C68.8142 398.954 68.5879 401.582 68.2854 404.135C67.5292 409.241 66.5456 414.273 65.4113 419.304C63.067 429.366 60.1938 439.203 57.7739 449.115C57.6983 449.34 57.4716 449.49 57.1691 449.49C56.9422 449.415 56.791 449.19 56.791 448.965C58.984 438.902 61.6308 428.99 63.7482 419.003C64.8069 413.972 65.79 408.941 66.3949 403.91C66.6974 401.357 66.8483 398.879 66.8483 396.401C66.8483 395.125 66.7729 393.923 66.6216 392.647C66.546 392.046 66.4701 391.445 66.3188 390.769C66.3188 390.694 66.2435 390.544 66.2435 390.394L66.0921 389.943L65.7894 389.042L65.2606 387.24L64.9578 386.339C64.8822 386.189 64.8821 386.039 64.8064 386.039C64.8064 386.039 64.8064 386.038 64.8064 386.114C64.8064 386.189 64.8822 386.189 64.9578 386.264C64.4285 386.264 66.4704 386.714 66.2435 386.339L66.1675 386.414L66.0921 386.489C65.7897 386.789 65.487 387.315 65.1845 387.841C64.8821 388.366 64.6552 388.967 64.4283 389.493C63.4453 391.82 62.6892 394.223 61.933 396.626C61.1768 399.104 60.4208 401.507 59.8158 403.985C59.1352 406.463 58.5304 408.941 58.0767 411.419C57.018 416.375 56.2615 421.406 55.8834 426.512C55.6566 429.065 55.5812 431.543 55.43 434.097C55.2788 436.65 55.2031 439.203 55.0519 441.756C55.0519 441.981 54.8249 442.206 54.5224 442.206C54.5224 442.131 54.3713 441.981 54.2957 441.756Z" fill="black"/>
<path d="M90.8217 393.025C90.8217 385.892 91.2756 378.758 91.3512 371.7C91.4268 368.17 91.2756 364.641 90.9731 361.112C90.6706 357.583 90.1413 354.128 89.4607 350.674C88.0239 343.766 85.9817 336.933 84.4693 329.874C83.7131 326.345 83.108 322.891 82.4274 319.362C82.125 317.634 81.747 315.832 81.4445 314.105L81.2178 312.754L81.0664 312.078C80.9908 311.627 81.0664 311.402 81.0664 311.177C81.0664 310.951 81.1425 310.726 81.1425 310.576C81.1425 310.501 81.1425 310.426 81.1425 310.426C81.1425 310.426 81.1425 310.426 81.1425 310.501C81.1425 310.501 81.1422 310.576 81.2178 310.576C81.2934 310.576 81.2175 310.651 81.2931 310.651C81.2931 310.651 81.3689 310.726 81.4445 310.801C81.5201 310.876 81.6717 310.951 81.7473 310.951C81.8229 310.951 81.8987 310.951 81.8987 310.951L81.974 310.951C82.0496 310.951 82.1254 310.951 82.1254 310.951L82.0493 311.026L81.8987 311.177L81.7473 311.402C81.2936 312.003 80.915 312.754 80.5369 313.504C80.1588 314.255 79.7812 315.081 79.4787 315.907C78.7981 317.484 78.2683 319.136 77.8902 320.863C77.0584 324.242 76.7559 327.697 76.7559 331.226C76.9828 338.284 77.8902 345.343 79.4026 352.251C82.3518 366.143 87.1165 379.584 90.9731 393.326C91.0487 393.551 90.8972 393.851 90.6703 393.926C90.4435 394.002 90.1411 393.851 90.0655 393.626C88.0238 386.793 85.7547 380.035 83.5617 373.277C81.3688 366.518 79.3276 359.61 77.7396 352.627C76.1516 345.643 75.1679 338.51 74.8654 331.301C74.7898 327.697 75.0926 324.017 75.9244 320.488C76.3781 318.686 76.9076 316.959 77.5882 315.232C77.9663 314.406 78.2683 313.58 78.6464 312.754C79.0245 311.928 79.4786 311.102 80.0835 310.276L80.3102 309.975L80.613 309.675C80.7642 309.525 80.8396 309.45 81.0664 309.374C81.142 309.299 81.2936 309.299 81.3692 309.224C81.3692 309.224 81.5956 309.149 81.6712 309.149C81.7469 309.149 81.8226 309.149 81.8226 309.149C81.8982 309.149 81.9737 309.149 82.0493 309.224C82.3518 309.299 82.7299 309.675 82.8055 309.825C82.8055 309.9 82.8816 309.9 82.8816 309.975L82.8816 310.125C82.8816 310.2 82.9569 310.276 82.9569 310.351C82.9569 310.576 82.9569 310.726 82.9569 310.876C82.9569 311.177 82.8816 311.402 82.8816 311.552C82.8816 311.777 82.8816 311.928 82.8816 311.928L83.033 312.603L83.2597 313.88C83.5622 315.607 83.9401 317.409 84.2426 319.136C84.9232 322.59 85.5283 326.12 86.2845 329.574C87.7969 336.482 89.8388 343.315 91.3512 350.374C92.1074 353.903 92.6364 357.432 92.9389 361.037C93.2414 364.641 93.3926 368.245 93.317 371.85C93.2414 379.058 92.5605 386.117 91.5018 393.176C91.4262 393.401 91.1999 393.626 90.9731 393.551C90.9731 393.476 90.8217 393.251 90.8217 393.025Z" fill="black"/>
<path d="M95.737 393.403C100.728 388.372 105.87 383.566 110.861 378.61C113.356 376.132 115.776 373.654 118.196 371.026C120.541 368.398 122.885 365.77 125.229 363.142C129.917 357.81 134.757 352.554 140.428 348.199C143.226 346.021 146.1 343.843 148.973 341.891C150.41 340.84 151.923 339.939 153.435 338.963C153.813 338.737 154.267 338.512 154.645 338.287C155.098 338.061 155.552 337.836 156.157 337.686C156.308 337.611 156.535 337.611 156.687 337.611C156.838 337.611 156.989 337.611 157.065 337.686C157.216 337.686 157.443 337.836 157.594 337.911L157.746 337.986L157.821 338.061L157.897 338.136L158.048 338.287C158.123 338.362 158.275 338.512 158.35 338.587C158.728 339.038 158.955 339.563 159.107 340.089C159.409 341.065 159.485 342.041 159.485 343.017C159.485 343.994 159.333 344.895 159.182 345.796C158.804 347.673 158.048 349.4 157.141 350.977C155.25 354.206 152.754 356.834 150.107 359.237C144.814 363.968 139.218 368.323 133.622 372.603C128.026 376.883 122.204 380.938 116.608 385.293C113.81 387.471 111.088 389.649 108.063 391.676C105.114 393.628 101.862 395.356 98.459 396.407C98.2321 396.482 97.9298 396.332 97.8542 396.106C97.7786 395.881 97.9301 395.581 98.157 395.506C101.484 394.454 104.585 392.727 107.458 390.775C110.332 388.823 113.054 386.57 115.776 384.317C118.499 382.064 121.372 379.962 124.17 377.784L132.564 371.326C138.16 367.046 143.68 362.616 148.822 357.885C151.394 355.557 153.737 353.004 155.401 350.076C156.233 348.574 156.838 347.072 157.141 345.42C157.443 343.843 157.518 342.116 157.065 340.689C156.913 340.389 156.762 340.089 156.611 339.788C156.536 339.713 156.535 339.638 156.46 339.638L156.384 339.563L156.384 339.488C156.384 339.488 156.384 339.488 156.46 339.563C156.535 339.638 156.611 339.638 156.687 339.638L156.763 339.638C156.763 339.638 156.762 339.638 156.687 339.638C156.46 339.713 156.082 339.864 155.704 340.014C155.326 340.164 154.947 340.389 154.645 340.614C153.208 341.516 151.696 342.492 150.259 343.543C147.385 345.57 144.587 347.673 141.789 349.851C136.269 354.131 131.505 359.312 126.893 364.568C124.548 367.196 122.279 369.9 119.859 372.528C117.515 375.156 115.02 377.709 112.525 380.187C107.458 385.143 102.164 389.874 96.4171 394.079C96.1902 394.229 95.8882 394.154 95.737 394.004C95.5857 393.854 95.5857 393.553 95.737 393.403Z" fill="black"/>
<path d="M95.6587 392.048C97.4736 385.665 99.818 379.432 102.238 373.275C104.658 367.118 107.153 360.96 109.346 354.728C111.615 348.495 113.505 342.188 115.245 335.88C116.152 332.726 116.984 329.497 117.513 326.268L117.967 323.865C118.118 323.039 118.194 322.288 118.421 321.387L118.723 320.186C118.798 320.036 118.799 319.81 118.799 319.66C118.799 319.585 118.799 319.51 118.799 319.51C118.799 319.51 118.799 319.51 118.874 319.735C118.874 319.811 118.95 319.961 119.177 320.111C119.404 320.261 119.706 320.336 119.857 320.261C120.008 320.261 120.085 320.186 120.085 320.186L120.16 320.111C120.235 320.111 120.085 320.186 120.085 320.186L119.857 320.411L119.404 320.787C119.101 321.012 118.799 321.312 118.572 321.613C116.304 323.865 114.564 326.569 112.976 329.422C111.388 332.275 110.102 335.279 108.817 338.358C107.531 341.437 106.321 344.44 105.111 347.519C103.977 350.598 102.843 353.751 101.86 356.83C97.7762 369.37 94.6005 382.211 91.9538 395.201C91.8782 395.427 91.6512 395.652 91.4243 395.577C91.1974 395.502 90.9706 395.277 91.0462 395.051C93.466 382.061 96.3397 369.07 100.272 356.38C101.255 353.226 102.314 350.072 103.448 346.918C104.582 343.764 105.792 340.686 107.078 337.607C108.363 334.528 109.649 331.45 111.237 328.446C112.825 325.517 114.64 322.589 117.06 320.111C117.362 319.811 117.665 319.51 118.043 319.21L118.572 318.759L118.799 318.534C118.874 318.459 118.875 318.459 118.95 318.384C119.026 318.384 119.026 318.309 119.177 318.234C119.253 318.234 119.404 318.159 119.555 318.083C119.782 318.083 120.084 318.084 120.387 318.309C120.613 318.459 120.765 318.684 120.765 318.834C120.84 319.135 120.841 319.21 120.841 319.36C120.841 319.585 120.841 319.736 120.841 319.811C120.841 320.036 120.765 320.261 120.689 320.486L120.387 321.688C120.235 322.364 120.084 323.265 119.933 324.091L119.479 326.569C118.874 329.873 118.042 333.102 117.21 336.331C115.471 342.713 113.581 349.096 111.312 355.403C109.119 361.711 106.7 367.868 104.28 374.026C103.07 377.105 101.784 380.183 100.499 383.187C99.2132 386.266 97.8517 389.269 96.4149 392.273C96.3393 392.498 96.037 392.573 95.8101 392.498C95.7345 392.498 95.5831 392.273 95.6587 392.048Z" fill="black"/>
<path d="M102.993 373.726C107.077 368.77 111.463 364.04 115.925 359.459C120.387 354.804 124.773 350.223 129.159 345.492C133.545 340.837 137.854 336.106 142.165 331.3C146.475 326.569 150.786 321.839 153.81 316.357C154.189 315.681 154.567 315.006 154.869 314.255C155.172 313.504 155.549 312.828 155.776 312.152L156.154 311.101L156.457 309.975L156.609 309.449C156.609 309.449 156.609 309.299 156.609 309.374L156.609 309.449C156.609 309.524 156.609 309.749 156.76 309.824C156.836 309.9 156.987 310.125 157.213 310.2C157.289 310.275 157.44 310.275 157.44 310.275L157.516 310.275C157.667 310.275 157.667 310.275 157.667 310.275C157.667 310.275 157.44 310.35 157.365 310.425L156.911 310.725C156.533 310.951 156.23 311.176 155.776 311.401C155.398 311.551 155.096 311.777 154.718 311.927C154.037 312.302 153.357 312.678 152.676 313.128C151.315 313.954 150.03 314.855 148.82 315.832C143.829 319.661 139.518 324.467 135.132 329.123C126.436 338.509 118.042 348.271 109.875 358.108C109.724 358.333 109.421 358.333 109.194 358.183C108.968 358.032 108.968 357.732 109.119 357.507C117.135 347.52 125.302 337.608 133.922 328.071C138.233 323.341 142.543 318.46 147.686 314.405C148.971 313.429 150.256 312.453 151.693 311.552C152.374 311.101 153.13 310.65 153.81 310.275C154.189 310.05 154.567 309.9 154.945 309.674C155.172 309.524 155.55 309.299 155.852 309.074L156.382 308.698C156.609 308.548 156.76 308.473 157.138 308.323C157.289 308.323 157.289 308.247 157.591 308.247C157.667 308.247 157.743 308.247 157.743 308.247C157.743 308.247 157.894 308.248 158.045 308.323C158.272 308.398 158.499 308.623 158.574 308.773C158.65 308.923 158.726 309.224 158.726 309.299C158.726 309.374 158.726 309.449 158.726 309.524C158.726 309.749 158.726 309.674 158.65 309.749L158.499 310.35C158.423 310.725 158.272 311.176 158.196 311.552L157.818 312.753C157.591 313.579 157.213 314.255 156.911 315.081C156.533 315.832 156.23 316.582 155.776 317.258C152.6 323.04 148.215 327.846 143.905 332.652C139.594 337.383 135.284 342.188 130.898 346.844C126.512 351.575 122.125 356.23 117.739 360.886C113.278 365.542 108.741 370.047 103.901 374.252C103.674 374.402 103.371 374.402 103.22 374.177C102.918 374.177 102.918 373.877 102.993 373.726Z" fill="black"/>
<path d="M112.977 345.571C116.758 339.714 120.917 334.232 125.152 328.676C129.386 323.194 133.546 317.637 137.554 312.005C141.562 306.374 145.418 300.667 149.123 294.81C150.938 291.881 152.754 288.953 154.493 285.949C156.157 282.945 157.744 279.942 158.727 276.713C158.954 275.962 159.181 275.061 159.408 274.31C159.484 273.935 159.559 273.484 159.635 273.184C159.635 273.109 159.635 273.033 159.635 273.109L159.635 273.184C159.635 273.184 159.635 273.259 159.71 273.259C159.71 273.334 159.786 273.409 159.862 273.409C159.862 273.409 160.013 273.559 160.088 273.634C160.24 273.709 160.24 273.709 160.24 273.709L160.165 273.709L160.013 273.709C159.408 273.784 158.652 274.16 157.971 274.61C157.291 274.986 156.535 275.511 155.854 275.962C153.132 277.914 150.712 280.392 148.67 283.021C144.511 288.427 141.108 294.509 137.78 300.517C134.453 306.599 131.277 312.756 127.723 318.764C124.169 324.771 120.312 330.478 116.455 336.26C116.304 336.485 116.002 336.56 115.775 336.41C115.548 336.26 115.473 335.959 115.624 335.734C119.329 329.877 123.11 324.02 126.513 318.088C129.916 312.081 132.941 305.848 136.193 299.766C139.444 293.608 142.847 287.526 147.082 281.894C149.199 279.116 151.694 276.488 154.644 274.385C155.4 273.86 156.08 273.334 156.912 272.883C157.744 272.433 158.501 271.982 159.635 271.757C159.786 271.757 159.937 271.682 160.088 271.682C160.24 271.682 160.467 271.682 160.618 271.757L160.769 271.757C160.769 271.757 160.845 271.757 160.996 271.832C161.147 271.907 161.299 272.057 161.299 272.057C161.374 272.132 161.449 272.208 161.449 272.283C161.449 272.358 161.526 272.358 161.526 272.433C161.601 272.583 161.601 272.583 161.601 272.658C161.676 272.883 161.601 273.034 161.601 273.184C161.525 273.709 161.45 274.16 161.374 274.61C161.147 275.511 160.92 276.337 160.693 277.239C159.635 280.618 158.047 283.847 156.307 286.85C154.568 289.929 152.754 292.858 150.939 295.786C147.233 301.718 143.377 307.5 139.369 313.132C135.361 318.839 131.202 324.395 126.967 329.877C122.732 335.434 118.422 340.84 113.733 345.946C113.582 346.172 113.279 346.172 113.052 345.946C112.901 346.021 112.901 345.796 112.977 345.571Z" fill="black"/>
<path d="M111.162 328.072C111.313 321.915 111.616 315.832 111.918 309.675C112.221 303.517 112.372 297.435 112.599 291.278L112.75 286.697C112.826 285.12 112.826 283.618 112.977 282.041C113.128 278.963 113.355 275.884 113.507 272.88C113.582 271.379 113.582 269.802 113.582 268.3L113.582 266.047L113.582 264.921C113.582 264.32 113.658 264.02 113.733 263.569C113.733 263.419 113.809 263.194 113.809 263.044C113.809 262.893 113.809 262.743 113.809 262.818C113.809 262.818 113.884 262.968 113.96 263.044C114.036 263.119 114.112 263.269 114.263 263.269C114.414 263.344 114.49 263.344 114.641 263.344C114.716 263.344 114.792 263.344 114.792 263.344L114.868 263.344L114.943 263.344C114.943 263.344 115.019 263.344 114.943 263.344L114.868 263.344L114.414 263.569C113.885 263.945 113.355 264.395 112.902 264.921C111.994 265.972 111.238 267.249 110.633 268.6C109.423 271.303 108.591 274.232 107.986 277.161C107.381 280.164 106.927 283.168 106.625 286.171C105.944 292.254 105.567 298.336 105.34 304.493C104.962 316.733 105.49 329.048 106.398 341.288C106.398 341.513 106.247 341.738 105.944 341.813C105.718 341.813 105.491 341.663 105.415 341.363C104.281 329.123 103.449 316.808 103.6 304.493C103.675 298.336 104.054 292.179 104.659 286.021C104.961 282.943 105.34 279.864 105.944 276.785C106.549 273.706 107.305 270.703 108.667 267.774C109.347 266.348 110.104 264.921 111.238 263.569C111.767 262.968 112.448 262.368 113.128 261.842L113.733 261.467L113.809 261.392C113.809 261.392 113.809 261.392 113.96 261.316C114.036 261.316 114.111 261.241 114.187 261.241C114.262 261.241 114.262 261.241 114.338 261.241C114.414 261.241 114.489 261.241 114.565 261.241C114.716 261.241 114.867 261.241 115.094 261.392C115.246 261.467 115.397 261.617 115.548 261.767C115.7 261.917 115.775 262.218 115.775 262.293C115.851 262.743 115.85 262.968 115.85 263.194C115.85 263.419 115.775 263.644 115.775 263.794C115.7 264.17 115.699 264.545 115.699 264.771L115.699 265.897L115.699 268.225C115.775 269.802 115.699 271.304 115.624 272.88C115.548 275.959 115.322 279.038 115.17 282.116C115.095 283.618 115.019 285.195 115.019 286.697L114.868 291.278C114.716 297.435 114.565 303.592 114.263 309.75C113.96 315.907 113.431 322.065 112.221 328.147C112.145 328.372 111.918 328.598 111.691 328.522C111.313 328.447 111.162 328.297 111.162 328.072Z" fill="black"/>
<path d="M125.149 320.862C125.603 317.858 126.209 314.854 126.738 311.926L128.402 302.99C129.536 297.058 130.443 291.051 131.275 285.043C132.107 279.036 132.787 273.029 133.468 267.022C133.846 264.018 134.224 261.015 134.375 258.011C134.451 257.185 134.527 256.509 134.527 255.758C134.527 255.458 134.527 255.082 134.451 254.857L134.451 254.782C134.451 254.782 134.526 254.932 134.602 254.932C134.602 254.932 134.754 255.007 134.829 255.082C134.905 255.082 134.981 255.157 135.056 255.157C135.283 255.157 135.283 255.157 135.283 255.157C135.283 255.157 135.208 255.158 135.208 255.233C134.754 255.533 134.148 256.059 133.619 256.509C133.09 257.035 132.56 257.56 132.107 258.086C130.292 260.339 129.006 263.042 128.099 265.82C127.116 268.599 126.511 271.602 125.83 274.531C124.545 280.388 123.713 286.395 123.032 292.402C121.747 304.417 121.218 316.581 120.159 328.671C120.159 328.896 119.932 329.122 119.629 329.122C119.402 329.122 119.176 328.896 119.176 328.596C120.008 316.506 120.234 304.342 121.368 292.252C121.973 286.17 122.73 280.163 124.015 274.155C124.62 271.152 125.301 268.148 126.208 265.22C127.192 262.291 128.477 259.362 130.443 256.809C130.972 256.134 131.502 255.608 132.107 255.082C132.712 254.557 133.241 254.031 134.073 253.506C134.224 253.43 134.3 253.355 134.451 253.28C134.603 253.205 134.829 253.13 135.208 253.205C135.359 253.205 135.434 253.28 135.51 253.28C135.661 253.355 135.737 253.43 135.812 253.506C135.964 253.581 136.039 253.806 136.114 253.881C136.19 253.956 136.19 254.106 136.266 254.181L136.342 254.407C136.493 255.007 136.417 255.383 136.493 255.833C136.493 256.659 136.417 257.485 136.342 258.161C136.191 261.24 135.812 264.243 135.434 267.247C134.754 273.254 134.073 279.337 133.241 285.344C132.409 291.351 131.502 297.358 130.443 303.365C129.309 309.373 127.948 315.305 125.83 321.012C125.755 321.237 125.452 321.387 125.226 321.312C125.226 321.312 125.149 321.087 125.149 320.862Z" fill="black"/>
<path d="M105.717 341.061C102.54 334.453 99.8933 327.62 97.3222 320.862C94.7511 314.028 92.1045 307.27 89.1553 300.662C86.2061 294.054 82.8032 287.597 78.9465 281.514C77.9635 279.937 76.9048 278.511 75.9217 277.009C74.863 275.582 73.7288 274.08 72.6702 272.654C70.4015 269.875 67.9814 267.097 65.5615 264.469C64.3516 263.117 63.0661 261.841 61.7805 260.639C60.4949 259.438 59.1342 258.236 57.6974 257.335C57.3193 257.11 56.9409 256.96 56.6384 256.885C56.5628 256.885 56.4874 256.809 56.4117 256.809L56.3357 256.809C56.4113 256.809 56.4875 256.809 56.5631 256.809C56.7144 256.734 56.79 256.659 56.9412 256.584C57.0925 256.434 57.0919 256.359 57.0919 256.359C57.0919 256.434 57.0919 256.509 57.0919 256.584C57.0163 257.335 57.1676 258.236 57.2433 259.137C57.3189 260.038 57.4701 260.939 57.6214 261.765C57.6214 261.841 57.6218 261.991 57.6974 261.991L57.7728 262.291L57.9995 262.892C58.1507 263.267 58.3024 263.718 58.4536 264.093C59.8148 267.322 61.856 270.251 64.2758 272.954C66.6201 275.657 69.3424 278.135 71.8379 280.838C76.9801 286.095 81.8198 291.651 86.2058 297.508C90.5918 303.441 94.3731 309.748 97.4736 316.356C97.5492 316.581 97.4737 316.882 97.2469 316.957C97.02 317.032 96.7177 316.957 96.642 316.732C93.466 310.199 89.6089 304.041 85.2229 298.259C80.8369 292.477 75.8462 287.146 70.7796 281.965C68.2085 279.337 65.5617 276.934 63.0662 274.08C60.6463 271.302 58.3776 268.223 56.8652 264.769C56.7139 264.318 56.4869 263.868 56.3357 263.417L56.109 262.742L56.0336 262.366C55.958 262.216 55.9576 262.066 55.9576 261.916C55.8063 261.014 55.6554 260.113 55.5041 259.137C55.4285 258.236 55.2771 257.335 55.3527 256.209C55.3527 256.058 55.3532 255.908 55.4288 255.758C55.4288 255.683 55.4285 255.608 55.5041 255.458C55.5798 255.383 55.5801 255.157 55.8069 254.932C55.9582 254.782 56.0332 254.707 56.3357 254.632C56.4113 254.632 56.5625 254.557 56.7138 254.557L56.7898 254.557L57.0165 254.557C57.1678 254.557 57.3187 254.632 57.47 254.632C58.0749 254.782 58.5287 255.007 58.9824 255.308C60.7217 256.359 62.0828 257.56 63.5196 258.837C64.8808 260.113 66.1665 261.39 67.452 262.742C69.9475 265.445 72.3678 268.148 74.7121 271.077C75.8464 272.578 76.9802 274.005 78.0389 275.507C79.0976 277.009 80.1567 278.511 81.1398 280.087C85.1477 286.32 88.5505 292.853 91.5753 299.461C94.6001 306.144 97.2469 312.977 99.8936 319.81C102.465 326.644 104.884 333.552 107.001 340.46C107.077 340.686 106.926 340.986 106.699 341.061C106.094 341.436 105.792 341.286 105.717 341.061Z" fill="black"/>
<path d="M91.274 303.142C88.8542 296.984 87.0392 290.602 85.4512 284.219C83.9388 277.761 82.5781 271.303 81.3682 264.846C80.2339 258.313 79.3264 251.78 78.7215 245.172C78.419 241.868 78.1162 238.564 78.0406 235.26C77.965 233.608 77.965 231.956 78.0406 230.229L78.1167 228.953L78.1167 228.652L78.1167 228.502L78.1167 228.427L78.1167 228.352L78.192 227.751L78.5701 225.273C78.7213 224.447 78.8723 223.621 79.0235 222.795C79.0991 222.344 79.1753 221.969 79.251 221.518C79.3266 221.293 79.326 221.068 79.4016 220.843L79.4777 220.617C79.4777 220.542 79.5531 220.467 79.7044 220.242C79.7044 220.242 79.8555 220.092 79.9311 220.017C80.0823 219.866 80.4603 219.716 80.914 219.867C81.1409 219.942 80.9898 219.867 81.0654 219.942L81.2168 220.017C82.8804 220.918 84.1661 222.27 85.1491 223.696C86.1322 225.123 86.9641 226.7 87.5691 228.202C88.2497 229.779 88.7031 231.355 89.1568 233.007C90.8961 239.54 91.2739 246.223 91.1226 252.831C90.8201 266.122 88.0981 279.113 87.6444 292.179C87.6444 292.404 87.4179 292.629 87.191 292.629C86.9641 292.629 86.7368 292.404 86.7368 292.179C86.9637 278.963 89.3837 265.897 89.5349 252.831C89.5349 246.298 89.157 239.765 87.4177 233.533C86.964 231.956 86.4342 230.454 85.8293 228.953C85.2243 227.451 84.4681 226.024 83.5607 224.823C82.6532 223.546 81.5947 222.495 80.3092 221.819L80.1578 221.744C80.1578 221.744 80.0826 221.669 80.2339 221.744C80.6876 221.894 80.9902 221.744 81.1414 221.594C81.2171 221.519 81.2921 221.444 81.2921 221.444C81.3677 221.293 81.3682 221.368 81.3682 221.368L81.3682 221.444C81.2925 221.594 81.2924 221.744 81.2168 221.969C81.1411 222.345 81.0657 222.72 80.9901 223.17C80.8388 223.996 80.6876 224.747 80.612 225.573L80.2339 227.976L80.1578 228.577L80.1578 229.103L80.0825 230.304C80.0069 231.956 80.0069 233.533 80.0825 235.185C80.1581 238.414 80.4609 241.718 80.7633 244.947C81.4439 251.48 82.3511 257.937 83.4853 264.395C84.6196 270.853 86.0567 277.236 87.5691 283.618C89.1571 290.001 90.7447 296.384 92.0302 302.842C92.1058 303.067 91.9546 303.367 91.6521 303.367C91.6521 303.517 91.4252 303.367 91.274 303.142Z" fill="black"/>
<path d="M83.8642 273.408C81.4443 269.278 79.4028 264.998 77.3611 260.718C75.3193 256.437 73.2016 252.157 71.0086 247.952C68.8156 243.747 66.5466 239.617 63.8999 235.713C63.2193 234.736 62.5388 233.835 61.7826 232.859L61.4806 232.484C61.405 232.333 61.3291 232.258 61.1778 232.108C60.9509 231.808 60.7996 231.508 60.6483 231.207C60.3458 230.682 60.1193 230.081 59.8168 229.78C59.8168 229.705 59.7407 229.705 59.7407 229.705C59.7407 229.63 59.7407 229.705 59.7407 229.705C59.7407 229.705 59.7412 229.705 59.8168 229.705C59.8924 229.705 59.8925 229.705 59.9682 229.78C60.0438 229.78 60.1946 229.855 60.2702 229.78C60.3458 229.78 60.4217 229.78 60.573 229.705L60.6483 229.63L60.7244 229.555L60.6483 229.705L60.4969 230.006C60.2701 230.456 60.1944 230.907 60.1188 231.432C59.9676 232.484 60.0432 233.61 60.1188 234.736C60.3457 236.989 60.9509 239.317 61.5559 241.569C61.8584 242.696 62.2368 243.822 62.6149 244.949C62.993 246.075 63.2955 247.201 63.7492 248.253C65.4885 252.608 67.6809 256.738 70.3277 260.718C75.4699 268.677 81.6715 276.036 86.8137 284.071C86.965 284.296 86.8892 284.596 86.6624 284.746C86.4355 284.897 86.1327 284.822 85.9815 284.596C80.688 276.712 74.3361 269.578 68.8913 261.619C66.169 257.639 63.8243 253.434 62.0093 248.928C61.48 247.802 61.1781 246.676 60.7244 245.549C60.3463 244.423 59.9679 243.297 59.6654 242.095C58.9848 239.767 58.3801 237.44 58.0776 234.962C57.9264 233.76 57.8508 232.484 58.0776 231.132C58.1533 230.456 58.3795 229.78 58.6064 229.105L58.8338 228.579C58.9095 228.504 58.9089 228.429 58.9845 228.354C59.0601 228.279 59.1363 228.203 59.2119 228.128L59.2873 228.053C59.3629 227.978 59.4384 227.978 59.514 227.903C59.6652 227.828 59.8169 227.753 59.9682 227.753C60.1194 227.753 60.3457 227.753 60.4969 227.753C60.6482 227.828 60.7241 227.828 60.7997 227.903C60.9509 227.978 60.9508 228.053 61.0264 228.053C61.1777 228.128 61.2536 228.279 61.3292 228.354C61.4048 228.429 61.4803 228.504 61.5559 228.579C62.0096 229.18 62.2364 229.705 62.5388 230.231C62.6901 230.456 62.8413 230.681 62.917 230.907C62.9926 230.982 63.068 231.132 63.1437 231.207L63.4464 231.583C64.2027 232.559 64.8836 233.535 65.6398 234.511C68.4378 238.491 70.7058 242.696 72.9744 246.976C75.1675 251.256 77.3605 255.461 79.4023 259.817C81.444 264.097 83.335 268.527 84.7718 273.107C84.8474 273.333 84.6959 273.633 84.469 273.708C84.1666 273.708 83.9398 273.633 83.8642 273.408Z" fill="black"/>
<path d="M73.05 249.225C70.5545 243.969 68.5124 238.637 66.6975 233.156C64.8826 227.674 63.2191 222.117 61.9335 216.41C60.648 210.779 59.8159 204.997 59.3621 199.215C59.2109 196.286 59.0599 193.433 59.2868 190.429L59.3621 189.904C59.3621 189.603 59.3621 189.828 59.3621 189.453C59.3621 189.378 59.3621 189.378 59.3621 189.153C59.5134 189.078 59.0601 188.927 60.1944 188.327C61.1775 188.327 61.177 188.702 61.2527 188.702L61.3287 188.852L61.4801 189.078L61.7821 189.528L62.9925 191.405C63.4463 192.006 63.7487 192.682 64.1268 193.283L65.1851 195.235C67.8318 200.491 69.6467 206.048 71.2348 211.605C72.8228 217.161 74.1085 222.793 75.1672 228.5C77.3603 239.839 78.8724 251.253 80.536 262.666C80.6117 262.892 80.3848 263.192 80.1579 263.192C79.9311 263.267 79.6292 263.042 79.6292 262.816L76.8311 245.771C75.848 240.139 74.7891 234.432 73.6548 228.8C72.5205 223.169 71.159 217.612 69.571 212.13C67.9073 206.649 66.0924 201.242 63.5213 196.211L62.5384 194.334C62.1603 193.733 61.8582 193.057 61.4801 192.532L60.2697 190.805L59.9677 190.354L59.8163 190.129L59.7402 190.054C59.8159 190.054 59.8161 190.429 60.7992 190.429C61.8579 189.829 61.4042 189.753 61.5554 189.678C61.5554 189.528 61.5554 189.528 61.5554 189.528L61.5554 189.828L61.5554 190.204L61.4801 190.73C61.2532 193.508 61.4042 196.361 61.5554 199.215C61.9335 204.922 62.8413 210.553 64.1268 216.11C65.4124 221.667 67.0759 227.148 68.8908 232.63C70.7057 238.037 72.5961 243.518 74.0329 249.15C74.1085 249.375 73.9573 249.676 73.6548 249.751C73.428 249.526 73.2012 249.375 73.05 249.225Z" fill="black"/>
<path d="M98.08 319.736C96.7189 314.555 95.8874 309.299 95.358 303.967C94.8287 298.636 94.5258 293.304 94.5258 287.973C94.5258 282.642 94.8285 277.31 95.5847 271.979C95.9628 269.351 96.3412 266.647 97.0218 264.094L97.4752 262.142L97.7019 261.166C97.7776 260.94 97.778 260.94 97.778 260.79L97.8533 260.34L97.9287 259.814C97.9287 259.739 98.0047 259.589 98.0047 259.514C98.0047 259.439 98.0044 259.364 98.08 259.288L98.1561 259.138C98.1561 259.138 98.2314 259.063 98.2314 258.988C98.307 258.913 98.3072 258.838 98.3828 258.838C98.3828 258.838 98.5341 258.688 98.7609 258.613C98.9878 258.538 99.2901 258.538 99.3657 258.613C99.517 258.613 99.6682 258.688 99.7438 258.838C99.8951 258.988 99.9705 258.988 99.9705 259.063C100.046 259.138 100.046 259.213 100.122 259.288C100.198 259.364 100.122 259.364 100.197 259.364L100.273 259.589L100.5 260.039C100.803 260.715 100.954 261.316 101.181 261.992C102.013 264.62 102.39 267.323 102.617 270.026C102.844 272.73 102.995 275.358 102.995 278.061C102.995 283.392 102.769 288.724 102.391 293.98C102.012 299.312 101.559 304.568 101.256 309.824C100.954 315.081 100.576 320.412 100.878 325.668C100.878 325.894 100.727 326.119 100.425 326.194C100.198 326.194 99.9708 326.044 99.8952 325.744C99.4415 320.412 99.6684 315.081 99.8952 309.749C100.122 304.418 100.424 299.161 100.727 293.83C101.029 288.574 101.18 283.242 101.105 277.986C101.029 275.358 100.954 272.73 100.651 270.101C100.349 267.548 99.9708 264.92 99.139 262.517C98.9122 261.917 98.7606 261.316 98.4581 260.715L98.3068 260.265L98.2314 260.039C98.2314 259.964 98.2314 260.039 98.2314 260.039C98.2314 260.114 98.3068 260.114 98.3068 260.19C98.3068 260.19 98.3069 260.265 98.4581 260.34C98.5338 260.415 98.685 260.49 98.8362 260.49C98.9119 260.49 99.2145 260.565 99.3657 260.49C99.5926 260.415 99.7438 260.265 99.7438 260.265C99.8194 260.265 99.8192 260.19 99.8192 260.115L99.8952 260.039C99.8952 260.039 99.8952 260.039 99.8952 259.964L99.8192 260.115L99.7438 260.565L99.6685 261.091C99.6685 261.241 99.5927 261.541 99.5171 261.691L99.2904 262.668L98.8362 264.545C98.2313 267.098 97.8533 269.651 97.4752 272.279C96.7946 277.46 96.4923 282.717 96.4923 287.973C96.4923 293.229 96.7945 298.486 97.3238 303.742L98.08 311.626C98.3069 314.255 98.6092 316.883 98.6849 319.586C98.6849 319.811 98.5339 320.037 98.2314 320.112C98.307 320.112 98.08 319.962 98.08 319.736Z" fill="black"/>
<path d="M126.211 316.282C127.119 310.124 128.404 304.042 129.765 298.035C131.127 291.953 132.563 285.945 134.151 279.938C134.908 276.934 135.739 273.931 136.647 270.927C137.554 267.924 138.538 264.92 139.748 262.067C140.352 260.64 140.957 259.213 141.713 257.786C142.091 257.111 142.394 256.36 142.772 255.684L143.301 254.633L143.604 254.107L143.679 253.957C143.755 253.807 143.755 253.807 143.831 253.732L143.982 253.506C144.889 252.23 145.721 250.878 146.629 249.602L146.855 249.376C146.931 249.301 147.007 249.226 147.158 249.001C147.158 249.001 147.158 249.001 147.31 248.926C147.536 248.851 147.309 248.851 147.838 248.776C148.897 248.926 148.822 249.376 148.746 249.226L148.822 249.376L149.049 249.677C149.276 250.127 149.503 250.503 149.578 250.953C149.881 251.779 149.956 252.68 150.032 253.506C150.107 256.81 149.351 259.964 148.519 262.968C147.612 265.971 146.553 268.975 145.343 271.828C142.999 277.61 140.504 283.317 138.084 289.024C133.168 300.438 128.253 311.852 124.547 323.641C124.472 323.866 124.169 324.016 123.943 323.941C123.716 323.866 123.564 323.641 123.64 323.34C127.118 311.401 131.807 299.837 136.571 288.348C138.991 282.641 141.335 276.859 143.604 271.153C144.738 268.299 145.797 265.37 146.629 262.442C147.385 259.513 148.066 256.51 147.914 253.581C147.839 252.905 147.763 252.155 147.536 251.554C147.461 251.253 147.309 250.953 147.158 250.728L147.007 250.578L146.931 250.503C146.856 250.277 146.78 250.728 147.763 250.878C148.292 250.803 148.065 250.803 148.216 250.728L148.293 250.653C148.368 250.578 148.292 250.653 148.216 250.728L148.066 250.953C147.158 252.155 146.326 253.431 145.494 254.708L145.343 254.933L145.268 255.008L145.192 255.158L144.89 255.684L144.36 256.735C143.982 257.411 143.679 258.087 143.301 258.763C142.621 260.114 142.016 261.541 141.411 262.968C140.276 265.821 139.218 268.675 138.386 271.678C137.554 274.607 136.723 277.61 135.967 280.614C134.454 286.621 133.092 292.628 131.731 298.711C130.37 304.793 128.858 310.8 126.892 316.732C126.816 316.958 126.513 317.108 126.286 317.033C126.362 316.732 126.211 316.507 126.211 316.282Z" fill="black"/>
<path d="M123.943 275.432C124.17 272.579 124.396 269.725 124.699 266.872L125.607 258.387C126.212 252.68 126.74 247.048 127.043 241.341C127.194 238.488 127.345 235.634 127.421 232.781L127.648 224.22C127.724 221.367 127.724 218.589 127.27 215.81C127.195 215.51 127.119 215.134 127.119 214.834C127.119 214.684 127.043 214.534 127.043 214.459L127.043 214.384C127.043 214.384 127.043 214.309 127.119 214.459L127.194 214.534C127.194 214.534 127.27 214.609 127.346 214.609C127.421 214.684 127.497 214.684 127.572 214.684C127.648 214.684 127.799 214.684 127.724 214.684C127.799 214.684 127.724 214.684 127.648 214.759C127.573 214.834 127.497 214.909 127.346 214.984C127.119 215.21 126.892 215.435 126.741 215.66C125.909 216.711 125.077 217.913 124.396 219.039C123.035 221.442 122.128 224.07 121.447 226.773C121.145 228.125 120.918 229.552 120.691 230.903C120.54 232.33 120.389 233.682 120.313 235.109C119.935 240.74 120.238 246.447 120.843 252.154C121.977 263.493 124.018 274.906 123.565 286.47C123.565 286.696 123.338 286.921 123.111 286.921C122.884 286.921 122.657 286.696 122.657 286.47C122.733 280.763 122.279 275.057 121.523 269.425C120.767 263.718 119.859 258.086 119.179 252.379C118.498 246.672 118.12 240.89 118.423 235.033C118.498 233.607 118.649 232.105 118.801 230.678C118.952 229.251 119.179 227.75 119.557 226.323C120.162 223.47 121.145 220.616 122.582 217.988C122.96 217.312 123.413 216.711 123.791 216.111C124.169 215.51 124.623 214.909 125.152 214.309C125.379 214.008 125.682 213.708 125.985 213.407C126.136 213.257 126.363 213.107 126.514 212.957C126.741 212.807 126.967 212.657 127.421 212.581L127.572 212.581L127.648 212.581C127.648 212.581 127.8 212.581 127.875 212.581C127.951 212.581 128.102 212.656 128.177 212.732C128.253 212.807 128.405 212.882 128.405 212.882C128.48 212.957 128.555 213.032 128.555 213.107C128.707 213.257 128.707 213.332 128.707 213.407C128.782 213.482 128.783 213.558 128.783 213.633C128.858 213.858 128.934 214.083 129.01 214.309C129.085 214.684 129.161 215.059 129.236 215.435C129.69 218.363 129.69 221.367 129.69 224.22L129.539 232.856C129.463 235.709 129.312 238.638 129.161 241.491C128.858 247.198 128.404 252.98 127.799 258.687C127.194 264.394 126.287 270.101 124.774 275.657C124.699 275.883 124.472 276.033 124.169 275.958C124.018 275.808 123.867 275.657 123.943 275.432Z" fill="black"/>
<path d="M133.925 271.527C135.362 264.619 137.101 257.786 138.916 250.953C140.731 244.119 142.471 237.286 144.134 230.453C145.722 223.62 147.234 216.711 148.595 209.803C149.957 202.895 151.091 195.986 151.242 189.003C151.318 187.276 151.243 185.549 151.092 183.822L151.092 183.521L151.092 183.371L151.092 183.296L150.94 182.695C150.865 182.245 150.789 181.869 150.637 181.419L150.562 181.118L150.562 181.043L150.562 181.118C150.562 181.118 150.562 181.194 150.789 181.419C151.999 181.869 151.772 181.344 151.772 181.569L151.318 181.869L151.092 182.02L150.864 182.245L150.411 182.62C149.276 183.747 148.369 185.173 147.612 186.675C146.856 188.177 146.176 189.829 145.571 191.406C144.436 194.71 143.529 198.089 143 201.543C142.395 204.997 141.941 208.526 141.487 211.981C140.58 218.964 139.824 225.947 139.37 233.006C139.295 234.733 139.143 236.535 139.067 238.262C138.992 240.065 138.916 241.792 138.992 243.519C139.143 246.973 139.597 250.502 139.597 254.107C139.597 254.332 139.37 254.557 139.143 254.557C138.916 254.557 138.689 254.332 138.689 254.107C138.689 250.652 138.084 247.123 137.933 243.594C137.857 241.792 137.857 239.989 137.933 238.262C138.009 236.46 138.009 234.733 138.16 232.931C138.462 225.872 139.067 218.814 139.899 211.755C140.353 208.226 140.807 204.772 141.336 201.243C141.865 197.713 142.698 194.184 143.907 190.805C144.512 189.078 145.192 187.426 145.949 185.774C146.781 184.122 147.688 182.545 149.125 181.118L149.654 180.593L149.957 180.367C150.033 180.292 150.184 180.217 150.259 180.142L150.94 179.767L151.015 179.767C151.015 179.917 150.789 179.466 152.074 179.842C152.301 180.067 152.376 180.142 152.376 180.217C152.452 180.292 152.453 180.292 152.453 180.367C152.528 180.518 152.528 180.518 152.528 180.593L152.604 180.968C152.755 181.419 152.83 181.869 152.906 182.32L153.057 182.996L153.133 183.221L153.133 183.371L153.209 183.747C153.436 185.549 153.435 187.351 153.435 189.153C153.36 196.287 152.15 203.345 150.864 210.329C149.503 217.312 147.991 224.22 146.403 231.054C144.815 237.962 143.076 244.795 141.261 251.628C139.446 258.462 137.403 265.22 134.984 271.903C134.908 272.128 134.606 272.278 134.379 272.203C134.001 271.978 133.85 271.753 133.925 271.527Z" fill="black"/>
<path d="M139.596 251.704C142.696 245.247 146.251 239.014 149.956 232.857C153.662 226.699 157.518 220.617 161.45 214.61C165.382 208.602 169.617 202.745 173.927 197.039C176.12 194.185 178.163 191.257 180.431 188.403C182.7 185.55 185.12 182.771 187.993 180.444C189.43 179.242 191.018 178.191 192.682 177.44L192.984 177.29L193.06 177.215C194.421 176.989 194.345 177.74 194.345 177.59L194.421 177.74C194.497 177.815 194.496 177.89 194.496 177.966C194.572 178.191 194.647 178.416 194.723 178.641C194.874 179.167 194.95 179.618 195.026 180.143C195.177 181.119 195.102 182.096 195.026 183.072C194.572 186.826 193.362 190.28 191.698 193.584C190.035 196.888 188.068 199.892 186.027 202.821C183.985 205.749 181.792 208.677 179.599 211.531C175.137 217.163 170.298 222.569 164.929 227.375C159.56 232.256 153.737 236.536 147.46 240.14C147.233 240.291 146.931 240.216 146.78 239.99C146.629 239.765 146.704 239.465 146.931 239.39C153.057 235.71 158.804 231.43 164.021 226.474C169.239 221.593 173.928 216.187 178.314 210.555C180.507 207.701 182.549 204.848 184.59 201.919C186.632 198.991 188.523 195.987 190.035 192.833C191.548 189.68 192.682 186.301 193.06 182.922C193.136 182.096 193.136 181.27 193.06 180.444C192.984 180.068 192.908 179.693 192.833 179.317C192.757 179.167 192.681 178.942 192.606 178.792L192.606 178.716L192.606 178.792C192.606 178.641 192.53 179.317 193.892 179.167L193.816 179.167L193.513 179.317C191.925 180.068 190.564 181.044 189.203 182.171C186.481 184.348 184.212 187.052 182.019 189.83C179.826 192.608 177.784 195.537 175.591 198.39C171.281 204.097 167.122 209.954 163.19 215.886C159.258 221.818 155.476 227.901 151.771 234.058C148.065 240.215 144.36 246.298 140.276 252.23C140.125 252.455 139.823 252.53 139.596 252.38C139.52 252.155 139.445 251.93 139.596 251.704Z" fill="black"/>
<path d="M144.813 330.996C150.635 324.464 156.761 318.231 162.961 311.998C169.162 305.766 175.212 299.533 181.262 293.226C184.287 290.072 187.236 286.843 190.185 283.614C193.134 280.385 196.235 277.232 199.411 274.153C200.999 272.651 202.587 271.074 204.175 269.572C205.763 268.07 207.351 266.569 209.015 265.067L210.3 264.016L210.98 263.49C211.132 263.34 211.359 263.19 211.51 262.964L212.72 261.838C212.947 261.613 213.098 261.463 213.4 261.237C213.552 261.162 213.627 261.012 213.779 260.937C213.93 260.862 214.081 260.712 214.459 260.561C214.459 260.561 214.535 260.562 214.686 260.486C214.762 260.486 214.838 260.486 214.989 260.486C215.14 260.486 215.215 260.486 215.442 260.561C215.594 260.637 215.82 260.787 215.896 260.862C215.971 260.937 216.048 261.162 216.123 261.237C216.123 261.312 216.199 261.387 216.199 261.462C216.199 261.613 216.199 261.688 216.199 261.763L216.199 261.988L216.199 262.063L216.123 262.289L215.972 263.115L215.594 264.767C215.291 265.818 214.989 266.944 214.611 267.996C213.174 272.201 211.132 276.18 208.712 279.935C206.292 283.689 203.57 287.144 200.621 290.447C194.723 296.98 188.067 302.837 181.11 308.244C174.229 313.65 166.969 318.681 159.71 323.637C152.45 328.593 145.115 333.324 138.007 338.43C137.78 338.58 137.478 338.505 137.327 338.355C137.175 338.13 137.251 337.83 137.402 337.679C144.435 332.423 151.77 327.542 158.954 322.511C166.138 317.48 173.246 312.374 180.052 306.967C186.858 301.486 193.437 295.704 199.184 289.246C202.058 286.017 204.705 282.563 207.049 278.959C209.317 275.354 211.283 271.45 212.644 267.395C212.947 266.343 213.249 265.367 213.552 264.316L213.93 262.739L214.081 261.988L214.157 261.763L214.157 261.688L214.157 261.763C214.157 261.838 214.157 261.838 214.157 261.913C214.157 261.913 214.232 262.138 214.308 262.213C214.384 262.288 214.535 262.439 214.686 262.514C214.837 262.589 214.913 262.589 214.989 262.589C215.14 262.589 215.14 262.589 215.14 262.589L215.216 262.589C215.291 262.514 215.215 262.589 215.14 262.664C215.064 262.739 214.988 262.814 214.913 262.889C214.762 263.039 214.535 263.19 214.383 263.415L213.174 264.541C212.947 264.767 212.72 264.917 212.493 265.142L211.888 265.668L210.678 266.719C209.015 268.146 207.502 269.647 205.914 271.149C204.326 272.651 202.738 274.153 201.226 275.73C198.125 278.808 195.101 281.887 192.151 285.116C189.202 288.345 186.253 291.574 183.228 294.728C177.179 301.11 171.129 307.418 164.928 313.65C158.727 319.883 152.45 325.965 145.872 331.747C145.645 331.897 145.342 331.897 145.191 331.672C144.661 331.447 144.661 331.147 144.813 330.996Z" fill="black"/>
<path d="M172.416 305.017C174.307 301.488 176.273 298.034 178.164 294.58C180.054 291.126 182.02 287.596 183.835 284.142C187.541 277.159 190.944 269.95 193.817 262.516C195.254 258.837 196.539 255.082 197.749 251.328C198.354 249.45 198.883 247.498 199.413 245.621L201.077 239.839C202.135 236.009 203.194 232.18 204.328 228.35L206.067 222.643C206.218 222.117 206.294 221.742 206.597 221.141C206.824 220.616 207.05 220.165 207.202 219.79C207.202 219.714 207.278 219.564 207.278 219.564C207.278 219.564 207.278 219.489 207.278 219.639C207.278 219.639 207.278 219.79 207.278 219.865C207.353 220.015 207.353 220.165 207.58 220.315C207.807 220.466 207.958 220.54 208.185 220.54C208.261 220.54 208.412 220.541 208.412 220.465C208.563 220.39 208.563 220.39 208.487 220.465L208.336 220.54L208.034 220.766C207.656 221.066 207.278 221.291 206.9 221.592C205.463 222.793 204.252 224.295 203.194 225.947C202.059 227.524 201.152 229.251 200.32 231.053C198.581 234.582 197.144 238.262 195.858 242.016C194.573 245.771 193.212 249.525 191.927 253.28L188.146 264.619C183.155 279.712 177.936 295.03 169.921 308.922C169.769 309.147 169.467 309.222 169.241 309.072C169.014 308.922 168.938 308.697 169.089 308.471C170.98 305.017 172.794 301.413 174.458 297.809C176.046 294.204 177.634 290.525 178.995 286.77C181.793 279.336 184.213 271.752 186.633 264.168L190.263 252.754C191.473 248.925 192.834 245.17 194.119 241.416C195.405 237.661 196.842 233.832 198.581 230.227C199.489 228.425 200.396 226.623 201.606 224.896C202.74 223.169 204.026 221.517 205.614 220.165C205.992 219.79 206.446 219.489 206.9 219.189L207.202 218.964L207.353 218.814C207.429 218.814 207.429 218.738 207.731 218.588C207.807 218.588 207.958 218.513 208.034 218.513C208.261 218.513 208.487 218.513 208.714 218.738C208.941 218.964 209.016 219.114 209.092 219.264C209.092 219.339 209.168 219.489 209.168 219.564C209.168 219.865 209.168 219.94 209.092 220.015C209.016 220.24 209.017 220.315 208.941 220.465C208.715 220.991 208.487 221.442 208.336 221.892C208.185 222.192 208.034 222.793 207.882 223.244L206.143 228.951C205.009 232.78 203.95 236.61 202.892 240.439L201.303 246.222C200.774 248.174 200.244 250.051 199.639 252.003C198.43 255.833 197.145 259.663 195.708 263.342C192.834 270.851 189.431 278.135 185.726 285.193C181.945 292.252 177.786 299.16 173.022 305.618C172.87 305.843 172.568 305.843 172.341 305.693C172.416 305.468 172.34 305.243 172.416 305.017Z" fill="black"/>
<path d="M185.951 282.493C187.993 279.114 190.11 275.81 192.228 272.506L198.58 262.594C202.815 255.986 206.822 249.228 210.603 242.394C212.494 238.94 214.385 235.486 216.2 232.032C218.015 228.503 219.905 225.048 221.871 221.594C223.837 218.215 225.955 214.761 228.224 211.532L229.887 209.054C230.416 208.228 231.021 207.402 231.475 206.651C231.778 206.201 232.004 205.825 232.307 205.3C232.382 205.225 232.382 205.149 232.533 205.074C232.609 204.999 232.609 204.924 232.912 204.849C233.063 204.774 233.441 204.549 234.046 204.999C234.348 205.3 234.424 205.6 234.424 205.675C234.424 205.825 234.424 205.825 234.424 205.9C234.424 205.975 234.424 205.976 234.424 206.051C234.424 206.126 234.424 206.201 234.424 206.201L234.424 206.351L234.273 207.102L234.046 208.604C233.97 209.129 233.819 209.58 233.744 210.03C231.929 217.84 228.753 225.199 225.199 232.182C221.569 239.24 217.409 245.924 212.872 252.456C208.41 258.914 203.495 265.222 198.429 271.229C193.287 277.236 187.918 283.018 182.17 288.5C182.019 288.65 181.716 288.65 181.49 288.5C181.338 288.35 181.338 288.049 181.49 287.824C187.161 282.342 192.379 276.485 197.37 270.403C202.361 264.321 207.05 258.013 211.436 251.555C215.822 245.098 219.905 238.339 223.459 231.356C226.937 224.373 229.963 217.164 231.702 209.58L232.005 208.153L232.231 206.726L232.383 206.051L232.383 205.9C232.383 205.825 232.383 205.825 232.383 205.825L232.383 205.9C232.383 205.9 232.383 205.9 232.383 206.051C232.383 206.051 232.383 206.351 232.761 206.651C233.366 207.027 233.668 206.802 233.819 206.802C234.046 206.726 234.046 206.651 234.046 206.651C234.046 206.651 234.046 206.651 234.046 206.726C233.819 207.027 233.592 207.477 233.29 207.853C232.76 208.754 232.156 209.505 231.627 210.331L229.963 212.734C227.694 215.962 225.653 219.266 223.686 222.645C221.72 226.025 219.905 229.479 218.09 233.008C216.275 236.537 214.46 239.991 212.494 243.446C208.713 250.354 204.63 257.112 200.471 263.795C196.236 270.478 191.699 276.936 186.708 283.018C186.556 283.244 186.254 283.244 186.027 283.093C185.876 282.943 185.8 282.643 185.951 282.493Z" fill="black"/>
<path d="M89.5351 396.029C86.964 390.622 84.8466 385.065 82.7293 379.509L76.6043 362.764C75.5456 359.985 74.4863 357.207 73.352 354.504C72.2177 351.725 71.1592 348.947 70.1005 346.168L67.0003 337.834L65.4119 333.704C65.2606 333.253 65.185 332.953 65.0338 332.652C64.9581 332.502 64.8831 332.352 64.8831 332.277C64.8831 332.202 64.8831 332.277 64.8831 332.277L64.9584 332.352C65.034 332.427 64.9587 332.427 65.2612 332.577C65.4881 332.502 65.185 332.802 66.1681 332.502C66.9243 331.676 66.471 331.901 66.6222 331.826L66.6222 331.976C66.5466 332.652 66.4708 333.478 66.4708 334.154C66.1684 339.936 66.9246 345.868 68.3614 351.575C69.7225 357.282 71.7646 362.914 73.9576 368.395C78.4192 379.358 83.712 390.171 86.9637 401.735C87.0393 401.961 86.8885 402.261 86.6617 402.336C86.4348 402.411 86.1325 402.261 86.0569 402.036C84.3176 396.404 82.1243 390.847 79.7044 385.441C77.2846 379.959 74.7138 374.628 72.4452 369.071C70.1765 363.589 68.0586 357.958 66.5462 352.101C65.0338 346.319 64.1265 340.236 64.4289 334.154C64.5046 333.403 64.5047 332.652 64.5803 331.901L64.5803 331.751L64.5803 331.601C64.7316 331.601 64.2775 331.751 65.0338 330.85C66.0168 330.475 65.7905 330.775 66.0174 330.7C66.3199 330.85 66.3196 330.925 66.4708 331C66.5465 331.075 66.5466 331.15 66.6222 331.15C66.6978 331.225 66.698 331.301 66.7736 331.376C66.9249 331.601 67 331.826 67.0757 331.976C67.2269 332.352 67.3025 332.727 67.4538 333.028L69.1176 337.233L72.2938 345.568C73.3525 348.346 74.411 351.124 75.5453 353.828C76.6796 356.606 77.8138 359.384 78.7968 362.163L84.9979 378.908C87.0396 384.465 89.0056 390.096 90.518 395.878C90.5937 396.104 90.4429 396.404 90.216 396.479C89.9135 396.329 89.6864 396.254 89.5351 396.029Z" fill="black"/>
<path d="M151.467 232.781C154.189 224.371 157.138 216.111 160.012 207.776C162.886 199.441 165.457 191.03 167.725 182.62C169.994 174.135 171.885 165.575 173.397 156.939C174.909 148.304 176.119 139.593 176.875 130.808C176.951 129.757 177.026 128.63 177.102 127.579C177.102 127.053 177.178 126.528 177.178 126.002L177.178 125.627C177.178 125.476 177.178 125.326 177.178 125.176C177.178 124.876 177.253 124.575 177.253 124.275L177.48 122.623C177.48 122.398 177.556 122.097 177.556 121.872C177.556 121.797 177.556 121.647 177.556 121.572C177.481 121.422 177.556 121.497 177.556 121.572C177.556 121.647 177.783 121.872 178.01 121.872C178.161 121.872 178.237 121.872 178.312 121.872C178.388 121.872 178.387 121.872 178.463 121.872L178.312 122.022L177.783 122.473C177.48 122.848 177.102 123.224 176.8 123.599C175.59 125.251 174.606 127.204 173.699 129.231C172.867 131.183 172.036 133.286 171.355 135.313C168.406 143.573 166.893 152.209 165.91 160.919C164.927 169.63 164.322 178.415 163.566 187.201C163.188 191.556 162.659 195.986 162.054 200.342C161.373 204.697 160.541 209.052 159.482 213.332C159.407 213.558 159.18 213.708 158.878 213.708C158.651 213.633 158.5 213.408 158.5 213.182C159.483 208.902 160.238 204.622 160.843 200.267C161.448 195.911 161.826 191.556 162.204 187.126C162.885 178.34 163.263 169.555 164.246 160.769C164.473 158.591 164.776 156.414 165.079 154.161C165.457 151.983 165.759 149.806 166.213 147.628C166.591 145.451 167.12 143.273 167.725 141.095C168.33 138.918 168.935 136.815 169.691 134.713C170.372 132.61 171.203 130.508 172.035 128.48C172.943 126.453 173.926 124.425 175.288 122.473C175.666 122.022 176.044 121.572 176.422 121.121L177.178 120.52L177.329 120.37C177.329 120.37 177.404 120.295 177.48 120.295C177.556 120.295 177.631 120.22 177.707 120.22C177.782 120.22 177.858 120.145 178.01 120.145C178.085 120.145 178.312 120.145 178.463 120.145C178.841 120.22 179.144 120.52 179.219 120.671C179.446 121.046 179.447 121.271 179.447 121.497C179.447 121.722 179.447 121.872 179.447 122.022C179.447 122.323 179.446 122.623 179.371 122.923C179.295 123.524 179.219 124.05 179.219 124.575C179.219 124.876 179.144 125.101 179.144 125.326C179.144 125.477 179.144 125.552 179.144 125.702L179.144 126.152C179.144 126.753 179.144 127.279 179.144 127.879C179.068 129.006 178.993 130.132 178.917 131.183C178.237 139.969 177.027 148.754 175.514 157.465C174.077 166.175 172.111 174.811 169.918 183.371C167.649 191.931 165.078 200.342 162.204 208.752C161.524 210.854 160.768 212.882 160.012 214.984C159.256 217.087 158.499 219.114 157.667 221.142C156.079 225.272 154.265 229.327 152.45 233.306C152.374 233.532 152.072 233.682 151.845 233.532C151.467 233.306 151.391 233.006 151.467 232.781Z" fill="black"/>
<path d="M165.006 196.061C166.594 192.908 168.333 189.754 170.299 186.75C171.207 185.248 172.266 183.747 173.249 182.32C174.308 180.893 175.29 179.391 176.349 177.965C180.584 172.258 185.121 166.701 189.961 161.445C194.725 156.188 199.867 151.157 205.161 146.427C207.808 144.024 210.529 141.771 213.403 139.593C214.84 138.542 216.277 137.491 217.789 136.439L220.058 135.013L221.192 134.262L221.797 133.886C221.949 133.811 221.872 133.811 221.948 133.811L222.176 133.661C222.327 133.511 222.478 133.361 222.78 133.211C222.856 133.136 222.931 133.136 223.007 133.06C223.083 133.06 223.158 132.985 223.234 132.985L223.385 132.91C223.461 132.91 223.536 132.91 223.612 132.91C223.763 132.91 223.99 132.91 224.217 133.06C224.444 133.136 224.595 133.361 224.671 133.511C224.746 133.586 224.747 133.736 224.822 133.886L224.822 133.962C224.898 134.487 224.973 135.013 224.973 135.538C224.973 136.59 224.747 137.491 224.444 138.392C223.839 140.194 223.007 141.846 222.099 143.423C220.209 146.502 217.941 149.355 215.596 152.058C213.252 154.762 210.757 157.315 208.261 159.868C205.69 162.346 203.119 164.749 200.396 167.076C189.582 176.388 177.861 184.497 166.896 193.433C166.67 193.583 166.367 193.583 166.216 193.358C166.065 193.133 166.065 192.833 166.292 192.682C177.181 183.596 188.751 175.261 199.338 165.875C201.985 163.547 204.556 161.144 207.051 158.666C209.547 156.113 211.967 153.56 214.235 150.932C216.504 148.229 218.696 145.45 220.436 142.522C221.343 141.02 222.1 139.518 222.554 137.941C222.78 137.19 222.932 136.365 222.932 135.614C222.932 135.238 222.931 134.863 222.856 134.562L222.856 134.487C222.856 134.562 222.932 134.637 222.932 134.713C223.007 134.788 223.159 134.938 223.31 135.013C223.461 135.088 223.688 135.088 223.763 135.088C223.839 135.088 223.839 135.088 223.915 135.088L223.99 135.088L224.066 135.088C223.99 135.163 223.839 135.313 223.612 135.463L223.31 135.689C223.234 135.764 223.007 135.914 222.932 135.914L222.402 136.289L221.268 136.965L219.075 138.392C217.638 139.368 216.201 140.419 214.764 141.471C211.966 143.573 209.244 145.901 206.673 148.229C201.38 152.96 196.388 157.915 191.7 163.172C186.936 168.428 182.475 173.91 178.316 179.542C174.081 185.173 170.148 191.03 165.989 196.737C165.838 196.962 165.536 197.037 165.309 196.887C164.931 196.512 164.93 196.287 165.006 196.061Z" fill="black"/>
<path d="M179.826 175.486C180.582 172.483 181.413 169.554 182.245 166.626L184.741 157.765C186.405 151.908 187.992 145.976 189.429 139.969L191.622 131.033C192.303 128.029 192.908 125.026 193.513 122.022C194.118 119.018 194.798 116.015 195.403 113.011C195.706 111.509 195.933 110.008 196.084 108.581C196.084 108.205 196.159 107.83 196.159 107.454L196.159 107.154C196.159 107.079 196.159 106.929 196.159 107.004C194.723 106.779 198.352 108.356 197.899 107.83L197.823 107.905L197.747 107.98L197.369 108.356L196.538 109.106C196.235 109.407 196.008 109.632 195.781 109.933C191.773 114.363 188.9 119.844 186.782 125.476C184.665 131.183 183.153 137.115 181.943 143.047C180.733 149.055 179.826 155.062 179.069 161.144C178.238 167.227 177.557 173.309 176.725 179.391C176.725 179.616 176.422 179.842 176.195 179.767C175.968 179.767 175.741 179.466 175.817 179.241C177.254 167.076 178.086 154.761 180.43 142.672C181.565 136.59 183.001 130.582 185.194 124.725C187.312 118.943 190.186 113.237 194.42 108.431C194.95 107.83 195.479 107.304 196.084 106.704L196.538 106.253L196.613 106.178L196.689 106.103C196.235 105.577 199.941 107.154 198.428 107.004C198.428 107.079 198.428 107.004 198.428 106.929L198.428 107.229C198.428 107.605 198.353 108.055 198.353 108.431C198.202 110.008 197.974 111.584 197.672 113.086C197.143 116.09 196.462 119.094 195.857 122.097C195.252 125.101 194.647 128.104 193.966 131.108L191.849 140.044C190.412 146.051 188.9 151.983 187.236 157.915C185.573 163.847 183.606 169.704 181.035 175.336C180.96 175.561 180.657 175.712 180.43 175.562C179.901 175.937 179.826 175.637 179.826 175.486Z" fill="black"/>
<path d="M184.667 159.719C187.767 154.688 191.322 149.957 195.179 145.452C199.035 140.946 203.119 136.666 207.429 132.611C211.815 128.556 216.428 124.877 220.813 120.972C225.199 117.067 229.359 113.013 232.535 108.207C232.913 107.606 233.291 107.005 233.669 106.405L233.82 106.179L233.896 106.029C233.972 105.954 233.82 106.179 233.82 106.405C233.745 106.63 233.971 107.005 234.047 107.155C234.123 107.306 234.35 107.381 234.501 107.456C234.728 107.531 234.728 107.456 234.803 107.456L234.728 107.456C234.652 107.456 234.577 107.456 234.501 107.531C234.199 107.606 233.896 107.756 233.518 107.906C232.233 108.432 230.871 109.108 229.586 109.709C226.939 110.985 224.443 112.487 222.099 114.139C219.679 115.791 217.411 117.593 215.142 119.47C212.873 121.348 210.756 123.375 208.714 125.402C200.472 133.738 193.666 143.349 186.709 152.811C186.558 153.036 186.255 153.036 186.028 152.886C185.801 152.736 185.802 152.435 185.953 152.21C192.683 142.598 199.337 132.761 207.58 124.201C209.622 122.099 211.739 119.996 214.008 118.044C216.276 116.091 218.621 114.289 221.041 112.562C223.461 110.835 226.031 109.258 228.754 107.906C230.115 107.231 231.401 106.555 232.837 105.954C233.216 105.804 233.518 105.654 233.972 105.503C234.047 105.503 234.199 105.428 234.275 105.428C234.35 105.428 234.426 105.428 234.501 105.353C234.577 105.353 234.728 105.278 235.031 105.353C235.182 105.353 235.408 105.503 235.559 105.654C235.711 105.804 235.862 106.179 235.862 106.48C235.862 106.705 235.711 107.005 235.711 106.93L235.636 107.08L235.484 107.306C235.106 107.982 234.728 108.657 234.35 109.258C231.098 114.364 226.712 118.569 222.326 122.549C217.94 126.529 213.252 130.208 209.017 134.188C204.782 138.168 200.774 142.448 196.918 146.878C193.061 151.309 189.356 155.814 185.423 160.245C185.272 160.47 184.97 160.47 184.743 160.245C184.592 160.17 184.591 159.869 184.667 159.719Z" fill="black"/>
<path d="M184.818 128.78C184.364 122.473 184.591 116.24 184.591 110.008C184.591 103.775 184.289 97.5429 183.23 91.5356C183.079 90.7847 182.927 90.0338 182.776 89.2829C182.624 88.532 182.473 87.7811 182.246 87.0302L181.641 84.8525L180.885 82.6749C180.734 82.2995 180.658 81.9239 180.507 81.6236L180.054 80.5724C179.751 79.8966 179.449 79.1457 179.071 78.545L177.936 76.5925C177.861 76.4424 177.709 76.2172 177.634 76.1421C177.558 76.067 177.482 75.9168 177.331 75.7667C177.104 75.4663 176.802 75.2409 176.575 74.9406C174.457 72.6879 172.189 70.5853 169.845 68.5579C168.635 67.5817 167.425 66.6056 166.215 65.7796C165.61 65.4041 164.929 64.9536 164.4 64.8034C164.249 64.7283 164.173 64.7282 164.097 64.7282L164.173 64.7282C164.173 64.8784 164.929 63.6771 164.627 63.9023C164.627 63.8272 164.627 63.8273 164.627 63.7522C164.627 63.6771 164.627 63.8272 164.703 63.9023L164.778 64.2026L164.93 64.7282C165.61 67.7318 166.669 70.5854 168.03 73.2886C169.466 75.9919 171.13 78.62 172.794 81.3233C176.121 86.6547 178.692 92.6619 180.28 98.7442C181.944 104.827 182.776 111.134 183.154 117.442C183.532 123.749 183.381 129.982 182.927 136.289C182.927 136.515 182.7 136.74 182.398 136.74C182.171 136.74 181.944 136.515 181.944 136.214C182.625 123.749 182.019 111.134 178.617 99.1948C177.785 96.1912 176.726 93.2626 175.516 90.4843C174.306 87.6308 172.794 85.0027 171.131 82.2995C169.467 79.5962 167.803 77.0431 166.215 74.1897C164.703 71.3362 163.644 68.2575 162.888 65.1788L162.585 63.9773C162.585 63.9022 162.585 63.9024 162.585 63.7522C162.282 63.9775 163.039 62.7759 163.114 62.8509L163.266 62.776C163.341 62.7009 163.493 62.7009 163.569 62.6258C163.795 62.5507 163.946 62.5507 164.173 62.5507C164.476 62.5507 164.778 62.6257 165.005 62.7008C165.988 63.0012 166.669 63.4518 167.35 63.9023C168.711 64.8034 169.996 65.7795 171.206 66.8308C173.626 68.8582 175.97 71.0358 178.163 73.3636C178.466 73.664 178.692 73.9645 178.995 74.2648C179.146 74.415 179.298 74.5652 179.449 74.7904C179.6 75.0157 179.675 75.1659 179.751 75.316L180.961 77.4186C181.339 78.0944 181.641 78.8453 182.019 79.5962L182.549 80.7225C182.7 81.098 182.851 81.4734 183.002 81.8489L183.835 84.1016L184.515 86.4295C184.742 87.1804 184.894 88.0062 185.12 88.7572C185.272 89.5081 185.498 90.3341 185.649 91.085C186.783 97.3175 187.086 103.7 187.086 110.008C187.086 116.315 186.708 122.548 186.027 128.78C186.027 129.006 185.801 129.231 185.498 129.231C185.045 129.156 184.818 129.006 184.818 128.78Z" fill="black"/>
<path d="M185.5 118.043C187.995 109.784 190.869 101.674 194.196 93.7142C197.599 85.7546 201.455 77.9452 206.22 70.6615C210.984 63.3777 216.807 56.7696 223.386 51.0628C226.713 48.2093 230.267 45.6563 234.199 43.5537C236.241 42.5025 238.434 41.8266 240.552 41.301L241.383 41.1509L241.761 41.0758C241.837 41.0758 241.913 41.0007 242.064 41.0007C242.518 40.8505 242.971 40.6252 243.5 40.475C244.03 40.2498 244.484 40.0245 245.164 39.8744C245.315 39.7993 245.467 39.7992 245.694 39.7241C245.845 39.7241 245.92 39.7241 246.147 39.7241C246.223 39.7241 246.374 39.7992 246.525 39.7992C246.676 39.8743 246.903 39.9494 247.055 40.1746C247.206 40.3999 247.281 40.5501 247.281 40.7754C247.281 40.9256 247.281 41.0758 247.281 41.1509C247.281 41.3761 247.206 41.4512 247.131 41.6014L246.903 42.0519C246.298 43.1783 245.543 44.0043 244.862 44.8303C244.106 45.6563 243.349 46.4072 242.517 47.2332C240.929 48.735 239.266 50.1617 237.602 51.5885C234.275 54.3668 230.872 57.0701 227.545 59.7733C224.217 62.4766 220.739 65.1048 217.714 68.0333C214.84 71.0369 212.118 74.4159 209.622 77.87C199.641 91.8369 192.532 107.606 183.912 122.549C183.76 122.774 183.458 122.849 183.231 122.699C183.005 122.549 182.929 122.324 183.08 122.098C187.315 114.589 191.095 106.855 195.103 99.2708C199.111 91.6116 203.271 84.0275 208.261 76.969C210.757 73.4397 213.404 70.0607 216.504 66.8318C219.68 63.7531 223.083 61.125 226.41 58.3466C229.738 55.6433 233.141 52.9401 236.392 50.1617C238.056 48.735 239.644 47.3834 241.156 45.8816C241.913 45.1307 242.669 44.3798 243.35 43.6289C244.03 42.878 244.711 42.0519 245.089 41.2259L245.24 40.9256C245.24 40.9256 245.24 40.9256 245.24 41.0007C245.24 41.0007 245.24 41.1508 245.24 41.2259C245.24 41.3761 245.315 41.5263 245.391 41.6765C245.542 41.8266 245.618 41.9018 245.769 41.9018C245.845 41.9018 245.92 41.9768 245.92 41.9768C245.996 41.9768 245.996 41.9768 245.92 41.9768C245.845 41.9768 245.769 41.9768 245.694 42.0519C245.24 42.2021 244.786 42.3523 244.257 42.5776C243.727 42.8029 243.274 43.0281 242.669 43.1783C242.518 43.2534 242.367 43.2534 242.215 43.3285L241.837 43.4036L241.081 43.5537C239.039 44.0794 237.073 44.6801 235.258 45.6563C231.553 47.6837 228.074 50.1617 224.898 52.94C223.31 54.3668 221.722 55.7935 220.209 57.2953C219.453 58.0462 218.697 58.7971 217.941 59.6231C217.185 60.374 216.504 61.2001 215.824 62.0261C213.026 65.2549 210.454 68.6339 208.11 72.2383C203.422 79.3719 199.641 87.1062 196.314 94.9907C194.65 98.9705 193.062 102.875 191.398 106.855C189.81 110.835 188.146 114.815 186.332 118.719C186.256 118.945 185.954 119.095 185.727 118.945C185.575 118.569 185.424 118.269 185.5 118.043Z" fill="black"/>
<path d="M194.195 95.6656C194.573 88.2316 195.632 80.8727 196.766 73.5139L198.505 62.5506L199.337 57.069L200.32 51.5874L202.211 40.6242L203.194 35.1426L204.176 29.661C205.538 22.3772 206.521 15.0934 205.16 7.88474C204.933 6.08257 204.63 4.20531 204.101 2.62841C203.95 2.25296 203.799 1.80245 203.723 1.72736C203.723 1.72736 203.723 1.72734 203.798 1.80243C203.798 1.80243 203.799 1.80243 203.874 1.80243C204.101 1.80243 203.42 1.72732 204.328 1.8775C205.538 1.35187 205.009 1.20173 205.16 1.35191L205.084 1.57722L204.857 2.25296L204.404 3.52955L204.026 4.80605C202.967 8.3353 202.211 11.9397 201.606 15.544C201.303 17.3462 201 19.2234 200.774 21.0256C200.471 22.9028 200.169 24.705 199.791 26.5072C199.11 30.1866 198.279 33.791 197.598 37.3953C196.918 40.9997 196.388 44.6791 196.161 48.3585C195.934 52.0379 196.01 55.7174 196.236 59.3969C196.69 66.7557 197.674 74.1896 197.447 81.6987C197.447 81.9239 197.219 82.1493 196.993 82.1493C196.766 82.1493 196.539 81.9239 196.539 81.6987C196.615 74.3398 195.556 66.9809 194.952 59.547C194.649 55.8676 194.497 52.113 194.649 48.3585C194.8 44.604 195.329 40.8495 196.01 37.2452C196.69 33.5657 197.446 29.9613 198.127 26.2819C198.429 24.4797 198.808 22.6776 199.035 20.8003C199.337 18.9982 199.564 17.1209 199.867 15.3187C200.472 11.6393 201.152 7.95987 202.211 4.35553L202.589 3.00386L203.042 1.65229L203.27 0.976456C203.345 0.826276 203.345 0.751185 203.42 0.601004C203.572 0.676095 203.043 0.525877 204.253 0.000244147C205.16 0.150425 204.555 0.0754079 204.782 0.0754079L204.933 0.15048C205.008 0.22557 205.16 0.300606 205.235 0.375696C205.765 0.97642 205.916 1.50213 206.143 1.95267C206.748 3.90502 207.05 5.70719 207.353 7.58445C207.504 8.41045 207.655 9.46168 207.731 10.3628C207.882 11.3389 207.882 12.2401 207.957 13.2162C208.033 15.0935 208.033 17.0458 207.882 18.9231C207.655 22.6776 207.05 26.4321 206.37 30.0364L205.387 35.5181L204.479 40.9997L202.589 51.9629C200.093 66.6055 198.203 81.3231 195.178 95.8907C195.103 96.116 194.876 96.3412 194.649 96.2661C194.346 96.116 194.195 95.8908 194.195 95.6656Z" fill="black"/>
<path d="M139.596 221.441C138.688 214.457 138.234 207.474 137.629 200.566C137.1 193.582 136.117 186.749 134.907 179.841C133.622 173.007 132.336 166.099 130.521 159.416C129.614 156.037 128.631 152.733 127.345 149.579C127.043 148.828 126.664 148.002 126.286 147.326C125.908 146.576 125.455 145.9 124.925 145.374L124.698 145.224L124.623 145.149C124.548 145.074 124.698 145.224 124.774 145.224C124.925 145.299 125.076 145.299 125.303 145.299C125.379 145.299 125.455 145.224 125.606 145.224C125.682 145.149 125.757 145.149 125.757 145.074L125.833 144.999L125.908 144.924L125.908 144.849C125.908 144.849 125.908 144.924 125.908 144.999C125.832 145.299 125.833 145.75 125.681 146.35L125.303 147.627C125.228 148.002 125.077 148.453 125.001 148.828C124.623 150.48 124.472 152.132 124.32 153.859C124.169 155.587 124.169 157.314 124.169 159.041C124.245 162.495 124.548 165.949 125.001 169.403C125.455 172.857 126.06 176.311 126.589 179.766L128.177 190.128C130.37 203.945 133.016 217.686 138.007 230.752C138.083 230.977 138.008 231.278 137.705 231.353C137.478 231.428 137.176 231.353 137.1 231.052C131.807 217.987 128.858 204.17 126.514 190.353L124.774 179.991C124.244 176.537 123.64 173.083 123.111 169.628C122.128 162.645 121.598 155.511 122.959 148.378C123.035 147.927 123.186 147.477 123.261 147.026L123.413 146.35L123.564 145.75C123.64 145.449 123.64 144.999 123.716 144.473C123.716 144.323 123.791 144.173 123.867 143.947C123.867 143.872 123.942 143.797 123.942 143.722C123.942 143.647 124.093 143.497 124.169 143.422C124.245 143.347 124.547 143.197 124.774 143.121C125.001 143.046 125.228 143.121 125.455 143.196C125.682 143.272 125.908 143.497 125.908 143.497L126.059 143.647L126.362 143.947C127.043 144.698 127.572 145.524 128.026 146.275C128.48 147.101 128.858 147.927 129.236 148.753C130.672 152.057 131.656 155.436 132.563 158.89C134.378 165.724 135.739 172.632 137.024 179.465C139.671 193.282 140.806 207.399 140.503 221.366C140.503 221.591 140.276 221.816 140.049 221.816C139.822 221.891 139.671 221.666 139.596 221.441Z" fill="black"/>
<path d="M162.055 199.364C160.618 192.906 159.635 186.449 158.576 179.991C157.593 173.533 156.383 167.075 155.022 160.693C153.585 154.31 151.997 147.927 149.88 141.77C148.821 138.691 147.687 135.612 146.25 132.759C145.872 132.083 145.494 131.332 145.116 130.656L144.813 130.131C144.662 129.906 144.586 129.68 144.435 129.455C144.284 129.08 144.058 128.704 143.906 128.404C143.831 128.254 143.755 128.103 143.755 128.103C143.831 128.179 143.831 128.179 143.906 128.254C143.906 128.254 143.981 128.254 144.057 128.329C144.133 128.329 144.284 128.329 144.36 128.329C144.587 128.254 144.662 128.254 144.813 128.103C144.889 128.028 144.965 127.953 144.965 127.953L144.965 127.878C144.965 127.878 144.965 127.803 145.041 127.803L145.041 127.878L144.738 128.929L144.586 130.056C144.511 130.431 144.511 130.807 144.511 131.182C144.436 132.759 144.511 134.336 144.738 135.913C144.965 137.49 145.267 139.067 145.569 140.644C146.25 143.797 147.233 146.951 148.141 150.105C149.048 153.259 149.956 156.412 150.939 159.566L153.812 168.953C155.703 175.26 157.594 181.568 159.03 188.026C160.467 194.483 161.45 201.016 161.677 207.624C161.677 207.849 161.45 208.075 161.223 208.075C160.996 208.075 160.77 207.849 160.77 207.624C160.467 201.091 159.332 194.633 157.82 188.251C156.308 181.868 154.341 175.636 152.375 169.403L149.35 160.017C148.367 156.863 147.46 153.709 146.477 150.555C145.494 147.402 144.511 144.248 143.755 141.019C143.377 139.367 143.074 137.79 142.847 136.063C142.62 134.411 142.469 132.684 142.545 130.957C142.545 130.506 142.621 130.056 142.621 129.68L142.847 128.404L143.225 127.127C143.225 127.052 143.225 127.052 143.301 126.902C143.301 126.827 143.377 126.752 143.452 126.677L143.528 126.602C143.528 126.527 143.679 126.451 143.755 126.376C143.906 126.226 144.057 126.151 144.36 126.151C144.587 126.076 144.965 126.226 144.965 126.226C145.04 126.301 145.192 126.376 145.267 126.451C145.343 126.527 145.343 126.527 145.419 126.602C145.721 126.977 145.797 127.127 145.872 127.353C146.099 127.728 146.25 128.179 146.402 128.479C146.477 128.629 146.553 128.854 146.628 128.929L146.931 129.455C147.385 130.206 147.762 130.957 148.216 131.708C149.729 134.711 150.938 137.79 151.997 140.944C154.115 147.251 155.778 153.634 157.215 160.017C158.652 166.475 159.862 172.932 160.921 179.465C161.98 185.998 162.735 192.531 163.113 199.064C163.113 199.289 162.963 199.514 162.66 199.59C162.358 199.74 162.131 199.59 162.055 199.364Z" fill="black"/>
</svg>
