<svg width="294" height="472" viewBox="0 0 294 472" fill="none" xmlns="http://www.w3.org/2000/svg">
<path d="M9.8643 1.58536C10.6205 4.58897 11.3011 7.59267 11.7548 10.6714C12.0573 12.1732 12.133 13.7498 12.3598 15.2516C12.4354 16.8285 12.5867 18.3305 12.5867 19.9074C12.738 26.1399 11.8306 32.2973 10.3938 38.3045C9.03262 44.3118 7.36882 50.2439 6.08327 56.2511C4.72209 62.2583 3.73902 68.2656 3.05844 74.348C1.69726 86.5126 1.84862 98.8274 2.60482 111.067C3.28541 123.307 5.02465 135.472 7.29327 147.561C9.56189 159.651 12.5111 171.59 15.6116 183.454C18.7876 195.319 22.0392 207.183 25.3665 219.048C32.0968 242.701 39.2808 266.279 47.1453 289.557C51.0776 301.196 55.2368 312.835 59.4716 324.324C63.7819 335.888 67.9411 347.452 72.3271 358.941C76.7131 370.43 81.4773 381.768 87.1488 392.657C89.9468 398.138 93.0472 403.395 96.3745 408.576C99.6262 413.757 103.029 418.938 106.659 423.894C110.289 428.85 114.07 433.656 118.229 438.161C122.388 442.667 126.85 446.872 131.689 450.627C141.369 458.136 152.561 463.767 164.433 466.921C176.306 470.075 188.783 470.826 200.958 469.174C213.133 467.597 225.005 463.542 235.743 457.685C241.113 454.756 246.255 451.302 251.019 447.473C255.783 443.643 260.244 439.363 264.328 434.782C272.571 425.696 279.603 415.484 284.821 404.446C286.107 401.668 287.241 398.814 288.224 395.96C289.132 393.032 289.963 390.104 290.493 387.1C291.098 384.096 291.476 381.093 291.703 378.089C291.854 375.085 291.93 372.007 291.778 368.928C291.249 356.688 287.997 344.749 283.687 333.26C279.377 321.771 273.932 310.733 268.487 299.695C265.765 294.213 263.042 288.656 260.169 283.25C258.732 280.547 257.22 277.843 255.707 275.14C254.195 272.512 252.683 269.808 251.019 267.18C238.39 246.005 224.022 225.956 210.032 205.606C203.075 195.394 196.345 185.106 189.237 174.969C182.204 164.907 174.793 154.995 166.551 145.834C158.308 136.673 148.931 128.638 139.251 120.979C129.572 113.32 119.59 105.961 110.137 98.0015C105.373 94.0217 100.836 89.8916 96.45 85.4612C92.1396 81.0309 87.9806 76.3755 83.8971 71.795C79.8136 67.1394 75.73 62.5588 71.4197 58.2035C69.2267 56.0259 67.0336 53.8483 64.765 51.8208C62.4964 49.7934 60.1522 47.7658 57.6567 46.0387C52.6658 42.5095 47.1454 39.5811 42.0788 36.0518C39.5077 34.2496 37.0121 32.3725 34.8191 30.1949C34.2898 29.5942 33.7606 29.0683 33.2312 28.4676C32.7019 27.8669 32.2481 27.2662 31.7188 26.6655C30.7357 25.389 30.055 23.8871 29.5257 22.4604C28.467 19.5318 27.7865 16.4531 27.1816 13.4495C26.501 10.4459 25.9716 7.36732 24.9129 4.58897C24.6105 3.91316 24.3079 3.23727 23.9298 2.63655C23.5517 2.03582 23.0224 1.66052 22.4174 1.66052C22.2662 1.66052 22.1149 1.66052 21.9636 1.66052C21.8124 1.66052 21.6612 1.73539 21.51 1.81048C21.1319 1.96066 20.6782 2.11077 20.2245 2.11077C19.3927 2.18586 18.5607 2.11106 17.8045 2.03597C16.2164 1.8107 14.7041 1.4351 13.1917 1.13474C12.4355 0.984558 11.6792 0.83445 10.9986 0.83445C10.6205 0.83445 10.3181 0.83423 10.0912 0.984411C10.0156 1.0595 10.0157 1.05965 10.0157 1.13474C10.0157 1.13474 10.0157 1.20998 10.0157 1.28507L9.8643 1.58536ZM8.95689 1.81048L8.88138 1.43503C8.88138 1.28485 8.88138 1.13459 8.88138 0.984411C8.957 0.684049 9.18383 0.383687 9.41069 0.233506C9.94003 -0.0668557 10.3938 0.00838146 10.7719 0.00838146C11.6037 0.00838146 12.3598 0.158489 13.116 0.30867C14.6284 0.609032 16.1409 0.984631 17.6533 1.2099C18.4095 1.28499 19.1658 1.36016 19.8464 1.28507C20.2245 1.20998 20.5268 1.20976 20.8293 1.05958C21.0562 0.984485 21.2831 0.909541 21.4343 0.83445C21.6612 0.83445 21.8881 0.759286 22.115 0.759286C22.3419 0.759286 22.5687 0.834524 22.7955 0.909614L23.0979 1.05958C23.1735 1.13467 23.3249 1.2099 23.4005 1.2099C23.6274 1.36008 23.7786 1.51034 23.9298 1.66052C24.0811 1.8107 24.2324 1.96066 24.3836 2.18593C24.913 2.86175 25.2155 3.61258 25.5179 4.36348C26.6522 7.29201 27.1815 10.3707 27.8621 13.3743C28.5427 16.378 29.1477 19.3818 30.2064 22.2352C30.7357 23.662 31.3407 25.0134 32.2481 26.2149C32.7018 26.8156 33.2311 27.3415 33.6848 27.9422C34.2142 28.4678 34.7436 29.0683 35.2729 29.594C37.4659 31.7716 39.8857 33.649 42.3812 35.3761C47.4478 38.8302 52.8926 41.7586 58.0348 45.363C63.1014 48.9673 67.6387 53.2474 72.0247 57.6777C76.3351 62.1081 80.4941 66.6887 84.5776 71.3444C88.6611 75.9249 92.7446 80.5806 97.055 84.9358C101.441 89.2911 105.978 93.4211 110.742 97.4009C120.195 105.361 130.177 112.644 139.856 120.304C144.696 124.133 149.536 128.038 154.149 132.168C158.762 136.298 163.223 140.653 167.382 145.233C175.701 154.394 183.111 164.306 190.22 174.443C197.328 184.581 204.058 194.868 211.015 205.005C225.005 225.28 239.449 245.404 252.077 266.58C253.665 269.208 255.178 271.911 256.766 274.539C258.278 277.243 259.791 279.946 261.228 282.649C264.177 288.055 266.823 293.612 269.621 299.169C275.142 310.207 280.586 321.32 284.972 332.884C289.358 344.448 292.686 356.538 293.215 369.003C293.366 372.082 293.291 375.235 293.14 378.314C292.837 381.393 292.535 384.472 291.93 387.551C291.4 390.629 290.493 393.633 289.585 396.561C288.602 399.49 287.468 402.418 286.107 405.197C280.889 416.46 273.705 426.748 265.387 435.984C261.228 440.564 256.766 444.92 251.851 448.824C247.011 452.729 241.793 456.258 236.348 459.262C225.459 465.269 213.36 469.399 200.958 470.976C188.556 472.628 175.852 471.952 163.752 468.723C151.653 465.495 140.235 459.788 130.404 452.204C125.488 448.374 120.951 444.093 116.716 439.513C112.482 434.932 108.625 430.052 104.995 425.096C101.365 420.065 97.9625 414.883 94.6352 409.702C91.3079 404.521 88.2074 399.115 85.3338 393.633C79.5866 382.67 74.8225 371.256 70.3609 359.692C65.9749 348.203 61.8157 336.564 57.5053 325.075C53.195 313.511 49.0359 301.947 45.1036 290.233C37.1635 266.88 29.9795 243.302 23.1736 219.648C19.8463 207.784 16.519 195.92 13.3429 184.055C10.1669 172.116 7.21758 160.176 4.94896 148.012C2.60471 135.922 1.0923 123.607 0.411713 111.293C0.184851 108.214 0.10923 105.135 0.0336092 102.056C0.0336092 98.9776 -0.0420115 95.899 0.0336092 92.8203C0.184851 86.6629 0.563102 80.4303 1.31931 74.348C2.07552 68.1906 3.20975 62.1084 4.64655 56.1011C6.00772 50.0939 7.82269 44.1615 9.25948 38.2294C10.6207 32.2972 11.6037 26.2151 11.5281 20.0577C11.5281 18.5559 11.3768 16.9789 11.3012 15.4771C11.15 13.9753 10.9988 12.4734 10.7719 10.8965C10.3938 7.81779 9.7131 4.8141 8.95689 1.81048Z" fill="black"/>
<path d="M9.71401 1.28491C10.6971 1.43509 11.4535 1.96056 12.0585 2.63635C12.6635 3.31214 13.2685 4.06317 13.7222 4.66388C14.2516 5.26458 14.7053 5.86528 15.2347 6.16564C15.7641 6.46599 16.5203 6.69118 17.2766 6.84136C18.7891 7.14171 20.4529 7.06647 21.8898 6.69103C22.6461 6.46577 23.251 6.16549 23.7048 5.63987C24.1585 5.11426 24.3098 4.43839 24.3098 3.68751L24.3098 3.61235C24.3098 3.38708 24.5368 3.16211 24.7637 3.16211C24.9905 3.16211 25.2173 3.31229 25.2173 3.53755L25.293 4.21327C25.293 4.43854 25.293 4.73889 25.293 4.96415C25.2174 5.48977 25.0662 5.94023 24.7637 6.39075C24.1586 7.29181 23.3267 7.81735 22.4192 8.19279C20.6042 8.86859 18.7891 9.01869 16.8985 8.86851C15.9909 8.71834 15.0835 8.56845 14.1003 8.04284C13.1172 7.51722 12.4366 6.76627 11.9073 6.09048C11.3023 5.41468 10.8484 4.81398 10.3191 4.21327C9.78967 3.61257 9.26025 3.01194 8.95775 2.03579C8.88212 1.73544 9.03337 1.43479 9.33588 1.35971C9.56276 1.28462 9.63838 1.28491 9.71401 1.28491Z" fill="black"/>
<path d="M12.2837 28.318C13.2667 28.9938 14.1741 29.7446 15.0816 30.4204C15.989 31.0962 16.8964 31.847 17.8795 32.5228C19.77 33.8744 21.7362 35.151 23.7779 36.2773C27.9371 38.6051 32.0962 40.9332 36.4065 42.8855C40.7169 44.8379 45.1785 46.4897 49.7913 47.5409L56.7484 49.1179C59.0926 49.6436 61.3614 50.0191 63.7056 49.944C63.9325 49.944 64.1592 50.1693 64.1592 50.3946C64.1592 50.6199 64.0081 50.8452 63.7056 50.8452C61.2858 51.0705 58.7901 50.7701 56.3703 50.3946L52.8162 49.7189C51.6818 49.4936 50.472 49.3431 49.262 49.0428C44.4979 48.0666 39.885 46.4897 35.4234 44.6125C30.9618 42.7352 26.7271 40.3324 22.5679 38.0046C20.4506 36.8032 18.3332 35.6016 16.3671 34.0998C14.401 32.673 12.586 30.8711 11.3761 28.6934C11.2248 28.4682 11.3761 28.1675 11.603 28.0173C11.9054 28.1675 12.1324 28.2429 12.2837 28.318Z" fill="black"/>
<path d="M1.84823 86.0646C4.87307 94.7 7.97342 103.26 11.3764 111.745C14.7793 120.231 18.4092 128.566 22.5683 136.675C26.6518 144.785 31.1135 152.745 36.5582 160.029C37.9194 161.831 39.3561 163.558 40.8685 165.21C41.2466 165.66 41.6247 166.036 42.0028 166.411L42.2298 166.636C42.9103 167.012 41.3223 165.66 40.4904 167.387L40.4904 167.162L40.5661 166.336C40.6417 165.21 40.7174 164.159 40.6418 163.032C40.5662 158.602 39.81 154.096 38.7513 149.741C36.5583 140.956 33.2309 132.471 29.7523 124.06C28.013 119.855 26.1982 115.65 24.5345 111.37C22.8709 107.09 21.2072 102.81 19.7704 98.4545C19.3923 97.3282 19.0897 96.277 18.7873 95.1506L17.9555 91.7716L17.5017 90.1194L17.2748 89.2934C17.2748 89.1432 17.1993 88.9929 17.1993 88.8427L17.1236 88.3925C17.048 87.7918 16.9724 87.1908 16.9724 86.59C16.9724 86.2897 16.9723 85.9895 17.0479 85.614C17.0479 85.4638 17.1236 85.2387 17.1236 85.0134C17.1236 84.8632 17.1992 84.7882 17.2748 84.638C17.3505 84.4878 17.5017 84.2623 17.8798 84.037C18.0311 83.9619 18.258 83.8871 18.4848 83.8871C18.6361 83.8871 18.8628 83.9619 18.9385 83.9619C19.2409 84.112 19.1654 84.1122 19.2411 84.1122L19.6192 84.3373L20.3754 84.8631C20.9047 85.2385 21.2827 85.614 21.8121 85.9895L23.0976 87.2661L24.2319 88.6176C25.7443 90.4949 26.9544 92.4471 28.0887 94.4745C30.3573 98.5294 32.2477 102.735 34.4408 106.639C36.785 110.469 39.2806 114.299 41.9273 118.053C47.1452 125.562 52.7411 132.771 58.4883 139.904C61.3619 143.433 64.3111 147.038 67.1847 150.492C70.1339 154.021 73.1588 157.325 76.713 160.179C77.5448 160.854 78.4523 161.605 79.3597 162.131C79.4353 162.206 79.5866 162.281 79.5866 162.281C79.5866 162.281 79.5865 162.281 79.5109 162.281C79.5109 162.281 79.3596 162.281 79.284 162.281C79.0572 162.356 78.9816 162.431 78.9816 162.431C78.906 162.506 78.906 162.506 78.9816 162.431C78.9816 162.356 79.0571 162.281 79.0571 162.206C79.1327 161.831 79.1328 161.23 79.1328 160.704C79.0572 158.527 78.6035 156.274 78.0742 154.097C77.6205 151.919 77.0154 149.666 76.4104 147.564C76.1079 146.512 75.6542 145.461 75.2761 144.41L74.0662 141.256C70.6633 132.846 66.5798 124.661 62.7231 116.326C60.8326 112.196 58.9421 107.991 57.2784 103.711C55.6904 99.4307 53.9511 95.2256 52.3631 90.8703C51.985 89.8191 51.6068 88.6928 51.3043 87.5664C51.153 87.0408 51.0019 86.4399 50.8507 85.9143C50.775 85.6139 50.6994 85.3138 50.6238 85.0134C50.6238 84.9383 50.6237 84.8629 50.5481 84.7128C50.5481 84.6377 50.5481 84.5626 50.5481 84.3373C50.6237 83.9619 51.758 83.4363 51.3043 83.6616L51.8336 83.5864C53.1948 83.5113 54.4804 83.8868 55.5391 84.3373C56.6734 84.7879 57.6565 85.3888 58.7152 86.0646C60.6813 87.3412 62.4962 88.8427 64.2355 90.3445C65.9748 91.8464 67.714 93.4986 69.2264 95.1506C75.5029 101.984 80.2671 110.018 84.4263 118.203C85.485 120.231 86.468 122.333 87.4511 124.361C88.4342 126.463 89.3416 128.566 90.2491 130.668C91.1565 132.771 91.9884 134.948 92.8203 137.051L94.1058 140.205L94.7863 141.781L95.0889 142.532L95.2401 142.908L95.3156 143.133L95.3913 143.208C95.7694 143.509 94.7864 142.457 94.3327 142.983L94.257 143.058C94.1814 143.058 94.1813 143.133 94.1813 143.133C94.1813 143.133 94.1814 143.058 94.257 143.058C94.257 142.983 94.3327 142.833 94.3327 142.683C94.4083 142.382 94.4082 142.082 94.4082 141.781C94.4838 141.181 94.4839 140.58 94.4839 139.979C94.5595 138.778 94.4839 137.501 94.4839 136.3C94.4839 135.023 94.4083 133.822 94.3327 132.546C94.3327 131.945 94.2569 131.344 94.1813 130.743C94.1057 130.143 94.0302 129.542 93.9546 128.866C93.6521 126.388 93.1227 123.985 92.5177 121.582C91.9127 119.179 91.1565 116.777 90.2491 114.524C88.5098 109.868 86.1655 105.438 83.4432 101.308C80.7208 97.1028 77.4691 93.3482 74.5199 89.2182C73.0074 87.1908 71.6463 85.0131 70.4364 82.8355C70.2852 82.5351 70.1339 82.235 69.9826 81.9346C69.907 81.7845 69.8315 81.6341 69.7559 81.3337C69.7559 81.3337 69.7559 81.2588 69.7559 81.1837C69.7559 81.1837 69.7559 81.0336 69.7559 80.8835C69.7559 80.8835 69.8315 80.6579 69.9071 80.5828C70.0583 80.4326 69.9827 80.508 70.0583 80.508L70.134 80.4328C70.2852 80.3577 70.3609 80.2825 70.5121 80.2825C70.9658 80.1323 71.3438 80.2074 71.7219 80.2825C72.1 80.3576 72.4025 80.5077 72.705 80.5828C73.915 81.1084 75.0493 81.7842 76.108 82.4601C78.2254 83.8117 80.2672 85.3889 82.2334 86.8907C82.7627 87.2661 83.2164 87.6416 83.7458 88.017L85.3337 89.0682L88.4342 91.2458C92.5178 94.1743 96.6012 97.0277 101.214 99.0551C103.483 100.031 105.827 100.857 108.323 101.308C110.742 101.758 113.238 101.984 115.733 101.984C115.96 101.984 116.187 102.209 116.187 102.434C116.187 102.659 115.96 102.885 115.733 102.885C113.162 102.885 110.667 102.735 108.096 102.209C105.6 101.759 103.105 100.933 100.76 99.9563C96.072 97.9289 91.9127 95.0004 87.7535 92.0718L84.6532 89.8943L83.0651 88.8427C82.5357 88.4673 82.0064 88.0918 81.5527 87.7164C79.5109 86.2146 77.5449 84.7129 75.4275 83.3613C74.3688 82.6855 73.31 82.0849 72.1757 81.6344C71.8732 81.5593 71.6463 81.4089 71.3438 81.4089C71.117 81.3338 70.8145 81.3338 70.6633 81.4089C70.5877 81.4089 70.5876 81.4089 70.5876 81.4089C70.5876 81.4089 70.5121 81.4839 70.6633 81.3337C70.7389 81.2586 70.8145 81.1086 70.8145 81.1086C70.8901 80.8833 70.8145 80.9582 70.8145 80.9582C70.8145 81.0333 70.8901 81.1838 70.9657 81.2589C71.117 81.4842 71.1926 81.7842 71.3438 82.0846C72.5538 84.2622 73.915 86.365 75.3518 88.3173C78.301 92.2971 81.6283 96.1268 84.4263 100.407C87.2243 104.612 89.5685 109.117 91.3834 113.848C92.2908 116.176 93.0471 118.654 93.7277 121.057C94.3327 123.535 94.862 126.013 95.2401 128.491C95.3157 129.091 95.3914 129.767 95.467 130.368C95.5426 130.969 95.6182 131.644 95.6182 132.245C95.6938 133.522 95.7694 134.798 95.7694 136C95.7694 137.276 95.7694 138.553 95.7694 139.754C95.7694 140.355 95.6937 141.031 95.6937 141.707C95.6937 142.007 95.6181 142.382 95.5425 142.683C95.5425 142.833 95.4669 143.058 95.3913 143.208C95.3913 143.284 95.3157 143.434 95.2401 143.509L95.1644 143.734C95.0888 143.809 95.0131 143.959 94.9375 144.034L94.862 144.109C94.3327 144.56 93.3496 143.433 93.7277 143.659L93.652 143.584L93.5765 143.358L93.4251 142.983L93.1227 142.157L92.4422 140.58L91.081 137.426C90.2491 135.249 89.4172 133.146 88.5097 131.044C87.6023 128.941 86.7706 126.839 85.7875 124.811C84.8044 122.784 83.8214 120.681 82.7627 118.654C78.6035 110.544 73.915 102.659 67.7897 95.9763C66.2773 94.3243 64.6136 92.7477 62.8743 91.3209C61.135 89.8191 59.3957 88.3924 57.5051 87.191C56.5977 86.5902 55.6148 86.0645 54.6317 85.614C53.6486 85.1635 52.5898 84.8632 51.6824 84.9383L51.38 84.9383C50.8506 85.2386 51.9093 84.6377 51.985 84.3373C52.0606 84.1871 51.985 84.1874 51.985 84.1874L51.985 84.2625C52.0606 84.4878 52.0606 84.7882 52.1362 85.0134C52.2874 85.5391 52.4385 86.0644 52.5898 86.59C52.8923 87.6413 53.2705 88.7679 53.6486 89.8191C55.161 94.0993 56.9003 98.3044 58.564 102.585C60.2276 106.79 62.0425 110.994 64.0086 115.124C67.8653 123.384 71.9489 131.569 75.4275 140.13L76.713 143.358C77.0911 144.485 77.5447 145.461 77.9228 146.662C78.6034 148.915 79.1328 151.093 79.6621 153.346C80.1159 155.598 80.6453 157.851 80.7209 160.254C80.7209 160.855 80.7209 161.455 80.6452 162.206C80.6452 162.356 80.5696 162.582 80.494 162.807C80.3428 163.032 80.2672 163.258 79.9647 163.483C79.9647 163.483 79.8134 163.633 79.5109 163.708C79.3597 163.708 79.1327 163.708 79.0571 163.708C78.9815 163.708 78.8304 163.633 78.8304 163.633C78.7548 163.633 78.679 163.558 78.679 163.558C78.4522 163.483 78.3009 163.408 78.1497 163.333C77.0154 162.657 76.1835 161.906 75.2761 161.155L73.9906 160.029C73.5368 159.653 73.0831 159.278 72.705 158.902C71.8732 158.076 71.0413 157.325 70.2095 156.499C68.6215 154.847 67.1092 153.12 65.5967 151.318C62.6475 147.789 59.7739 144.26 56.8246 140.73C51.0774 133.597 45.4059 126.388 40.188 118.804C37.5413 115.05 35.0458 111.22 32.6259 107.24C30.3573 103.185 28.4668 99.0553 26.1981 95.0755C25.0638 93.1231 23.854 91.2459 22.4928 89.5188L21.434 88.2422L20.2997 87.1158C19.8459 86.8154 19.468 86.4401 19.0898 86.0646L18.4092 85.614L18.1067 85.3889C17.9555 85.3138 18.1067 85.3889 18.1067 85.3889C18.1824 85.3889 18.258 85.4637 18.3336 85.4637C18.4849 85.4637 18.6361 85.464 18.7117 85.3889C18.9386 85.2387 19.0142 85.1634 19.0142 85.1634C19.0142 85.0883 19.0142 85.1634 19.0142 85.1634C19.0142 85.2385 19.0141 85.3138 18.9385 85.3889C18.9385 85.6141 18.9385 85.8394 18.9385 86.1398C18.9385 86.6654 19.0142 87.1908 19.0898 87.7164L19.1654 88.0918C19.1654 88.242 19.2411 88.3171 19.2411 88.4673L19.468 89.2934L19.9216 90.9455L20.7535 94.2494C21.056 95.3007 21.4341 96.4269 21.7366 97.4781C23.0978 101.758 24.7613 106.038 26.5006 110.244C28.1642 114.449 29.9792 118.654 31.7185 122.934C35.1971 131.419 38.5999 139.979 40.8685 148.915C42.0028 153.42 42.7592 158.001 42.9105 162.657C42.9861 163.858 42.9104 164.984 42.8348 166.186L42.7591 167.087L42.7591 167.312C41.9272 169.114 40.1879 167.688 40.8685 168.063L40.7173 167.913L40.3392 167.538C39.8855 167.087 39.5075 166.712 39.1294 166.261C37.5414 164.534 36.1045 162.732 34.6677 160.93C29.0717 153.571 24.5345 145.461 20.5266 137.201C16.443 128.941 12.8133 120.531 9.63723 111.971C6.38553 103.411 3.58755 94.6999 0.94082 85.9143C0.865199 85.689 1.01637 85.3888 1.24323 85.3137C1.54571 85.6892 1.77261 85.8393 1.84823 86.0646Z" fill="black"/>
</svg>
