<svg width="184" height="331" viewBox="0 0 184 331" fill="none" xmlns="http://www.w3.org/2000/svg">
<path d="M59.3317 311.408L59.5313 281.641C59.6831 271.773 59.8636 261.862 60.5237 252.008C61.1187 242.175 61.9457 232.303 63.2525 222.489C63.8915 217.604 64.6971 212.701 65.6412 207.825C66.6298 203.039 67.2977 198.11 68.7867 193.271L68.8072 193.159C68.9342 192.805 69.2804 192.59 69.63 192.689C69.7682 192.716 69.8412 192.762 69.9222 192.876C70.4943 193.429 71.0586 193.915 71.6593 194.424L73.4531 195.883C74.0457 196.324 74.6384 196.766 75.2962 197.187C75.9175 197.584 76.6038 197.961 77.3473 198.25L75.9842 198.437C76.5957 197.894 77.1706 197.327 77.8187 196.808C78.4302 196.265 79.0783 195.745 79.7709 195.317C80.4634 194.888 81.1639 194.526 81.8278 194.142C82.5283 193.78 83.1923 193.395 83.8848 192.967C84.0437 192.881 84.1817 192.907 84.3279 193.001C84.876 193.352 85.3879 193.679 85.9281 193.963C86.4397 194.29 87.0163 194.596 87.5644 194.947C88.6321 195.693 89.5695 196.479 90.6659 197.181L89.4092 197.124L94.8605 193.512C95.048 193.383 95.3531 193.391 95.5152 193.62C95.9204 194.19 96.2971 194.805 96.6737 195.42C97.0138 196.011 97.3986 196.693 97.6243 197.46C98.0599 198.86 98.3207 200.21 98.5895 201.628L96.98 201.159L100.382 197.356C100.892 196.811 101.414 196.086 101.916 195.473L103.434 193.455C103.577 193.235 103.911 193.199 104.13 193.34C104.24 193.41 104.321 193.524 104.337 193.659C105.389 198.567 105.914 203.574 106.067 208.592C106.158 211.079 106.054 213.629 105.942 216.11L105.576 223.599C104.997 233.567 104.28 243.509 103.526 253.427C102.744 263.39 101.787 273.303 100.895 283.195L98.1611 312.96C98.1199 313.182 98.0057 313.359 97.8103 313.42C94.6588 314.767 91.4309 315.753 88.1506 316.582C84.8703 317.41 81.4929 317.989 78.1044 318.188C74.7079 318.319 71.2431 318.157 67.9433 317.105C66.2974 316.612 64.6926 315.897 63.2674 314.985C61.7691 314.026 60.5315 312.985 59.3317 311.408ZM60.2069 311.096C61.1397 312.129 62.3935 313.304 63.7456 314.17C65.1342 315.058 66.6291 315.703 68.202 316.149C71.3556 317.108 74.7188 317.267 78.0136 317.133C81.3004 316.932 84.6125 316.373 87.8563 315.521C91.0715 314.714 94.2913 313.66 97.3125 312.354L96.9617 312.815L99.7317 283.074C100.652 273.137 101.609 263.224 102.428 253.285C103.247 243.346 103.965 233.405 104.516 223.481L104.917 216.015C105.029 213.533 105.142 211.052 105.05 208.564C104.905 203.613 104.389 198.675 103.344 193.833L104.275 193.993L102.939 196.128C102.482 196.832 102.061 197.559 101.474 198.304L98.4292 202.273C98.1353 202.645 97.5412 202.763 97.1678 202.462C96.9485 202.322 96.8516 202.073 96.8197 201.803C96.7257 200.435 96.5951 199.044 96.3708 197.717C96.2626 197.087 96.0242 196.499 95.7492 195.887C95.4742 195.275 95.1628 194.64 94.8227 194.048L95.4771 194.156L90.6583 198.546C90.32 198.828 89.8481 198.837 89.5112 198.559L89.3653 198.466C88.6724 197.462 87.8776 196.455 87.0053 195.648C86.5874 195.256 86.076 194.929 85.5643 194.602C85.0527 194.274 84.4839 194.035 83.9151 193.795L84.387 193.786C83.6866 194.147 82.986 194.509 82.3586 194.917C81.6947 195.302 81.0385 195.754 80.4476 196.186C79.8567 196.617 79.3471 197.163 78.8738 197.732C78.4371 198.325 77.9719 198.961 77.6082 199.6L77.5797 199.644C77.3589 200.064 76.8662 200.184 76.4357 199.971C76.3626 199.924 76.2532 199.854 76.2087 199.764C75.1584 198.593 73.9937 197.599 72.8576 196.561C72.3221 196.031 71.7293 195.59 71.0716 195.169C70.4503 194.771 69.7925 194.35 69.1141 194.041L70.2499 193.647C68.8387 198.287 68.1344 203.192 67.1537 208.045C66.2017 212.854 65.3593 217.734 64.6836 222.595C63.3038 232.362 62.5705 242.169 61.7721 251.997C60.9738 261.825 60.517 271.684 60.4303 281.531C60.3727 286.477 60.3438 291.378 60.3227 296.347L60.3196 303.757L60.3143 307.428L60.2069 311.096Z" fill="black"/>
<path d="M67.382 199.215C61.9373 200.191 56.2659 199.966 50.8968 198.614C49.5356 198.314 48.2502 197.863 46.889 197.488C46.2084 197.263 45.6038 197.037 44.9232 196.737L43.9395 196.362L42.9566 195.911C40.3855 194.86 37.9655 193.433 35.6212 191.856C33.277 190.279 31.1596 188.477 29.1934 186.6C27.2273 184.572 25.4127 182.545 23.8247 180.217C22.2366 177.964 20.8753 175.486 19.8922 172.858C19.4385 171.582 18.9851 170.23 18.6826 168.878L18.0017 164.823C17.9261 164.298 18.3046 163.772 18.834 163.697C19.1364 163.622 19.3633 163.697 19.5902 163.847C21.027 164.898 22.4632 166.025 23.9 167.076L22.4636 167.977L21.7074 163.847C21.6318 163.397 21.9343 162.871 22.4636 162.796C22.6905 162.721 22.9925 162.796 23.1438 162.946C25.8661 164.899 28.5888 166.776 31.3867 168.728C34.1847 170.605 36.9068 172.483 39.7804 174.135C42.654 175.787 45.6788 177.213 48.8549 178.114C52.031 179.091 55.283 179.691 58.6103 180.292C58.8371 180.367 59.064 180.593 58.9884 180.818C58.9128 181.043 58.6858 181.268 58.4589 181.193C55.1316 180.668 51.8045 180.142 48.5528 179.241C45.3011 178.34 42.1251 176.988 39.1002 175.336C37.5878 174.51 36.1512 173.684 34.7144 172.783C33.2776 171.882 31.8403 170.981 30.4791 170.08C27.6812 168.203 24.8832 166.325 22.1608 164.448L23.5979 163.547L24.3541 167.677C24.4298 168.203 24.1273 168.653 23.5979 168.728C23.3711 168.803 23.0683 168.728 22.9171 168.578C21.4803 167.527 19.968 166.475 18.5312 165.424L20.0436 164.523L20.7245 168.428C20.9514 169.704 21.4051 170.981 21.8588 172.182C22.7663 174.585 24.0514 176.913 25.5638 179.091C27.0762 181.268 28.891 183.221 30.7059 185.098C32.5964 186.9 34.6386 188.627 36.8316 190.129C39.0246 191.556 41.369 192.907 43.7889 193.959L44.6957 194.334L45.6033 194.71C46.2083 194.935 46.8133 195.16 47.4939 195.385C48.7794 195.761 49.9898 196.211 51.351 196.437C56.4932 197.713 61.8623 198.014 67.2314 198.239C67.4582 198.239 67.6848 198.464 67.6848 198.764C67.7604 198.99 67.6089 199.14 67.382 199.215Z" fill="black"/>
<path d="M104.811 198.767C107.307 198.917 109.878 199.067 112.373 199.067C113.659 199.067 114.869 199.067 116.079 199.067C117.289 199.067 118.575 198.992 119.785 198.917C124.776 198.617 129.69 197.64 134.303 195.838C138.916 194.111 143.227 191.483 146.705 188.029C148.445 186.302 149.957 184.424 151.318 182.322C151.999 181.271 152.604 180.219 153.133 179.093C153.663 178.042 154.116 176.84 154.646 175.714L155.705 177.141L151.696 177.666C151.167 177.741 150.637 177.366 150.562 176.84C150.562 176.69 150.562 176.465 150.638 176.315L151.016 175.489C151.167 175.188 151.318 174.963 151.394 174.663L152.226 173.011L153.209 174.437L151.545 174.588C151.016 174.663 150.411 174.663 149.882 174.738L146.479 175.263C144.286 175.639 142.017 176.014 139.824 176.615C135.438 177.666 131.203 179.168 127.119 181.045C125.078 181.946 123.112 182.998 121.146 184.199C119.255 185.401 117.365 186.677 115.626 188.029C112.071 190.807 108.593 193.736 105.039 196.589C104.812 196.739 104.509 196.739 104.358 196.514C104.206 196.289 104.206 195.988 104.433 195.838C107.912 192.91 111.315 189.906 114.869 187.053C116.684 185.626 118.499 184.274 120.465 182.998C122.431 181.721 124.397 180.595 126.515 179.619C130.674 177.591 134.985 176.014 139.446 174.888C141.639 174.287 143.907 173.837 146.176 173.461L149.579 172.936C150.108 172.86 150.713 172.785 151.318 172.71L153.058 172.56C153.587 172.485 154.041 172.936 154.116 173.461C154.116 173.611 154.116 173.837 154.041 173.987L153.285 175.564C153.133 175.864 152.982 176.089 152.907 176.39L152.604 177.216L151.545 175.864L155.553 175.263C156.083 175.188 156.612 175.564 156.688 176.164C156.688 176.315 156.687 176.54 156.612 176.69C156.082 177.892 155.628 179.018 155.099 180.219C154.494 181.346 153.889 182.472 153.209 183.598C151.847 185.776 150.184 187.879 148.293 189.681C144.588 193.285 140.051 196.139 135.211 197.941C130.371 199.818 125.229 200.869 120.087 201.17C114.945 201.545 109.727 201.095 104.736 199.668C104.509 199.593 104.357 199.367 104.433 199.067C104.357 198.917 104.584 198.767 104.811 198.767Z" fill="black"/>
<path d="M58.9382 176.303C58.0001 174.981 57.2483 173.614 56.554 172.136C55.9527 170.636 55.4439 169.113 55.0576 167.512C54.349 164.344 54.2632 161.072 54.7131 157.865C55.4556 151.44 57.8764 145.382 60.9461 139.797C62.481 137.004 64.2732 134.343 66.1644 131.803C68.0557 129.263 70.1683 126.766 72.5797 124.632C73.7854 123.565 75.0555 122.531 76.3608 121.586C77.6661 120.64 79.1351 119.848 80.3827 119.013C82.971 117.32 85.4882 115.451 88.0057 113.582C88.429 113.238 89.0937 113.367 89.4566 113.763C89.492 113.852 89.5918 113.973 89.6271 114.061L92.2192 121.421L90.6046 121.086L95.6038 115.856C95.9629 115.478 96.5274 115.487 96.9192 115.827C96.9834 115.86 97.0832 115.981 97.1186 116.07C98.0828 117.966 99.1752 119.928 100.383 121.669L104.2 126.989C106.715 130.591 109.266 134.281 110.993 138.462C111.417 139.521 111.778 140.547 112.08 141.684C112.383 142.821 112.492 143.859 112.731 144.963C113.143 147.139 113.492 149.281 113.811 151.479C114.45 155.875 114.653 160.329 114.069 164.73C114.018 164.985 113.774 165.141 113.524 165.153C113.302 165.11 113.103 164.868 113.126 164.669C113.652 160.378 113.263 155.969 112.566 151.684C112.218 149.542 111.805 147.366 111.364 145.246C111.097 144.198 110.952 143.071 110.656 142.078C110.389 141.029 109.999 140.058 109.61 139.087C107.897 135.194 105.41 131.536 102.837 128.045L98.9274 122.748C97.6199 120.886 96.5912 118.957 95.4985 116.995L97.0134 117.209L92.05 122.527C91.6909 122.904 91.0975 122.951 90.7057 122.611C90.6062 122.489 90.5066 122.368 90.4712 122.28L87.7569 114.998L89.3138 115.444C86.8316 117.401 84.3138 119.27 81.6036 121.041C80.2341 121.954 78.8868 122.667 77.6745 123.591C76.3981 124.481 75.25 125.437 74.1373 126.481C71.912 128.57 69.886 130.901 68.0236 133.386C66.1612 135.87 64.4912 138.454 62.9852 141.191C60.0309 146.555 57.7892 152.423 57.0913 158.45C56.7567 161.436 56.7723 164.531 57.1887 167.48C57.3824 168.982 57.762 170.439 58.2061 171.929C58.679 173.364 59.2447 174.776 59.8749 176.221C59.981 176.485 59.866 176.707 59.6223 176.863C59.2947 176.555 59.0089 176.479 58.9382 176.303Z" fill="black"/>
<path d="M118.384 163.519C119.4 161.724 120.417 159.928 121.718 158.208C122.337 157.332 123.084 156.521 123.867 155.799C124.585 155.043 125.432 154.354 126.186 153.687C127.722 152.298 129.294 150.997 130.894 149.64C132.495 148.284 134.131 147.016 135.831 145.781C139.167 143.277 142.703 141.016 146.309 138.932C147.226 138.419 148.143 137.905 149.032 137.448C149.95 136.935 150.838 136.477 151.891 136.174L157.779 133.923C158.302 133.7 158.88 133.996 159.092 134.525C159.127 134.613 159.134 134.757 159.14 134.901L159.136 141.003L157.867 140.003L166.435 138.071C166.965 137.992 167.479 138.255 167.598 138.807C167.569 138.862 167.633 138.895 167.604 138.95C167.945 142.984 168.221 146.984 168.497 150.985L168.634 154.002L168.671 155.494L168.675 156.268C168.717 156.5 168.637 156.81 168.65 157.098C168.509 158.148 168.398 159.144 168.286 160.139C168.175 161.135 167.97 162.153 167.794 163.116C167.414 165.096 167.005 167.132 166.403 169.07C165.708 171.03 164.856 172.98 163.519 174.611C162.182 176.243 160.516 177.566 158.746 178.625C156.975 179.684 155.133 180.566 153.292 181.448C153.077 181.549 152.791 181.473 152.685 181.208C152.55 180.998 152.694 180.722 152.909 180.621C154.687 179.706 156.464 178.791 158.17 177.699C159.848 176.663 161.391 175.417 162.513 173.886C163.7 172.388 164.494 170.549 165.038 168.723C165.611 166.841 165.963 164.915 166.25 162.957C166.426 161.994 166.538 160.999 166.649 160.004L166.984 157.017C167.009 156.188 166.928 155.094 166.853 154.144L166.623 151.149C166.347 147.148 165.978 143.17 165.544 139.159L166.742 139.983L158.18 142.058C157.622 142.193 157.073 141.842 156.954 141.29C156.918 141.202 156.947 141.146 156.912 141.058L156.917 134.956L158.371 135.91L152.669 138.116C151.681 138.452 150.792 138.91 149.874 139.423C148.986 139.88 148.069 140.393 147.151 140.906C143.574 142.935 140.196 145.207 136.953 147.688C135.346 148.901 133.71 150.169 132.138 151.47C130.566 152.771 129.03 154.16 127.494 155.549C125.893 156.906 124.35 158.151 123.035 159.584C121.692 161.071 120.383 162.648 119.011 164.191C118.831 164.38 118.517 164.359 118.353 164.205C118.311 163.973 118.269 163.741 118.384 163.519Z" fill="black"/>
<path d="M20.9497 175.034C15.6562 172.406 11.0434 168.201 7.71608 163.17C4.4644 158.139 2.27126 152.432 1.13695 146.65C0.00264393 140.793 -0.299543 134.861 0.305421 128.929C0.607903 126 1.13666 122.997 1.96848 120.143C2.80031 117.29 4.01068 114.587 5.06936 111.883C5.29623 111.358 5.90104 111.132 6.43038 111.358C6.58163 111.433 6.73287 111.508 6.80849 111.658L12.8581 118.792L11.119 119.092L12.6314 114.737L13.3876 112.559L14.0678 110.306C14.219 109.781 14.7488 109.556 15.2781 109.706C15.4294 109.781 15.5806 109.856 15.6562 109.931L20.9497 115.337C22.6889 117.14 24.3524 119.017 26.0917 120.819L36.2252 131.932C39.5525 135.687 43.031 139.216 46.4339 142.971C49.8368 146.65 53.0879 150.555 55.659 154.91C55.8103 155.135 55.7352 155.436 55.5084 155.586C55.2815 155.736 54.9787 155.661 54.8275 155.436C52.1808 151.231 48.9288 147.476 45.4503 143.872C42.0473 140.268 38.4177 136.738 35.0148 133.059L24.7307 122.096C22.9914 120.293 21.3279 118.416 19.5886 116.614L14.2952 111.283L15.8829 110.907L15.2021 113.085L14.4459 115.262L12.9335 119.693C12.7822 120.218 12.1778 120.519 11.6485 120.293C11.4973 120.218 11.3456 120.143 11.1943 119.993L5.14469 112.935L6.88381 112.634C5.7495 115.338 4.69082 118.041 3.85899 120.744C3.02717 123.447 2.57374 126.226 2.27126 129.079C1.74191 134.786 2.04454 140.568 3.17885 146.125C4.31316 151.681 6.35447 157.088 9.53053 161.894C11.0429 164.296 12.8578 166.474 14.824 168.502C16.7901 170.529 18.9835 172.406 21.3278 174.133C21.5546 174.284 21.5543 174.584 21.4031 174.809C21.4031 175.11 21.1009 175.185 20.9497 175.034Z" fill="black"/>
<path d="M103.243 126.822C105.903 121.867 109.37 117.395 113.258 113.208C114.213 112.153 115.233 111.13 116.289 110.196C117.309 109.174 118.429 108.273 119.519 107.428L126.215 102.221C126.667 101.821 127.332 101.95 127.666 102.402C127.766 102.523 127.836 102.7 127.907 102.876L129.034 110.401L127.191 109.879L132.547 103.495C132.906 103.118 133.528 103.015 133.92 103.356C133.985 103.389 134.084 103.51 134.12 103.598C136.01 106.53 137.835 109.429 139.603 112.439C140.52 113.961 141.401 115.394 142.137 117.105C142.272 117.314 142.35 117.634 142.42 117.811L142.575 118.451C142.687 118.86 142.771 119.324 142.884 119.732C143.081 120.605 143.277 121.477 143.409 122.317C143.974 125.764 144.166 129.301 143.887 132.808C143.607 136.314 142.949 139.767 142.098 143.122C142.046 143.376 141.803 143.532 141.517 143.456C141.295 143.413 141.125 143.115 141.147 142.916C141.841 139.552 142.471 136.154 142.599 132.781C142.757 129.353 142.478 125.981 141.856 122.645C141.723 121.806 141.498 120.988 141.302 120.116C141.189 119.707 141.076 119.299 140.963 118.89L140.809 118.25C140.738 118.073 140.703 117.985 140.632 117.808C139.937 116.33 138.992 114.864 138.111 113.431C136.286 110.531 134.396 107.599 132.477 104.723L134.05 104.826L128.758 111.242C128.37 111.675 127.747 111.778 127.291 111.404C127.063 111.217 126.928 111.008 126.886 110.776L125.695 103.218L127.388 103.874L120.814 109.003C119.723 109.848 118.668 110.782 117.706 111.694C116.715 112.66 115.723 113.627 114.796 114.626C111.06 118.68 107.879 123.229 103.892 127.295C103.712 127.484 103.397 127.463 103.233 127.309C103.198 127.221 103.156 126.989 103.243 126.822Z" fill="black"/>
<path d="M25.2598 121.575C24.7304 118.121 25.184 114.442 26.2427 111.063C27.377 107.683 29.0405 104.53 31.0067 101.601C32.9728 98.6726 35.3174 96.0444 37.7372 93.4913C38.9472 92.2147 40.2327 91.0132 41.5183 89.8869C42.8039 88.7605 44.1644 87.6341 45.45 86.5078C45.9037 86.1323 46.509 86.2075 46.8871 86.658C46.8871 86.658 46.9624 86.7331 46.9624 86.8082C47.2649 87.2587 47.5678 87.7093 47.7947 88.2349C48.0215 88.7605 48.2483 89.2111 48.3995 89.7367C48.5507 90.2624 48.7017 90.7129 48.8529 91.2385L49.231 92.7404L47.568 92.1396C47.9461 91.8392 48.3998 91.5389 48.7023 91.1635C49.0804 90.8631 49.3827 90.4876 49.6852 90.1122C50.2902 89.3613 50.8947 88.5352 51.4997 87.6341C51.8022 87.1836 52.4077 87.1086 52.8614 87.4089C52.9371 87.484 53.0121 87.484 53.0121 87.5591C53.6171 88.2349 54.2226 88.9107 54.752 89.6616L56.415 91.7641C57.4737 93.1909 58.6086 94.5426 59.6673 95.9693C61.7847 98.8228 63.7507 101.826 65.5656 104.98C67.3049 108.059 68.8931 111.363 70.2543 114.667C71.6154 117.971 72.5979 121.425 73.4297 124.879C73.5054 125.105 73.3541 125.405 73.0516 125.405C72.8248 125.48 72.5229 125.33 72.5229 125.105C71.6154 121.725 70.4811 118.346 69.1199 115.117C67.7588 111.889 66.0948 108.735 64.2799 105.731C62.465 102.727 60.499 99.7989 58.3816 97.0205C57.3229 95.5938 56.1883 94.2421 55.054 92.8905L53.3902 90.788C52.8608 90.1122 52.256 89.5115 51.6511 88.8357L53.1635 88.7605C52.5585 89.6616 51.9535 90.4876 51.273 91.3887C50.8948 91.8392 50.5167 92.2147 50.1386 92.6653C49.7605 93.0407 49.3067 93.4162 48.8529 93.7166C48.3992 94.092 47.7947 94.0169 47.4166 93.6414C47.341 93.4912 47.2655 93.3411 47.1899 93.1909C46.963 92.2147 46.7361 91.3136 46.4337 90.4126C46.2824 89.962 46.131 89.5114 45.9042 89.136C45.7529 88.7605 45.4504 88.385 45.148 88.0096L46.6604 88.2349C44.0136 90.4876 41.3669 92.6652 39.0983 95.1432C36.754 97.6212 34.561 100.174 32.6705 103.028C30.78 105.806 29.2676 108.81 28.1332 111.964C27.0745 115.117 26.3937 118.346 25.9399 121.725C25.9399 121.951 25.6373 122.176 25.4104 122.101C25.4104 121.951 25.2598 121.801 25.2598 121.575Z" fill="black"/>
<path d="M64.9847 106.395C64.5721 104.219 64.7537 101.997 65.2205 99.8497C65.6874 97.7029 66.4397 95.6319 67.3207 93.6268C69.147 89.6494 71.5221 86.023 73.9971 82.5178C76.5363 79.0455 79.2394 75.7272 82.1993 72.5403C85.0661 69.3759 88.0612 66.2772 91.2845 63.3653C91.7367 62.9652 92.3664 63.0066 92.7294 63.4029C92.8289 63.524 92.864 63.612 92.8993 63.7003L95.7037 70.1871L93.9666 69.9299L99.9886 63.047C100.348 62.6695 100.942 62.6226 101.334 62.9634C101.398 62.9962 101.433 63.0844 101.497 63.1173C103.878 66.5106 106.288 69.8485 108.64 73.2972C109.784 75.0052 110.993 76.7462 112.108 78.5095C112.378 78.9283 112.683 79.4352 112.953 79.8539L113.329 80.5376L113.676 81.2764C114.158 82.2248 114.577 83.1404 114.995 84.056C116.673 87.8617 118.229 91.7453 119.077 95.8977C119.953 99.9948 120.114 104.217 120.147 108.373C120.16 108.661 119.915 108.817 119.665 108.829C119.415 108.841 119.216 108.599 119.174 108.367C119.113 104.266 118.801 100.177 117.867 96.191C116.933 92.2048 115.319 88.4321 113.583 84.7371L112.172 81.9803L111.795 81.2966L111.455 80.7014C111.185 80.2826 110.915 79.8639 110.645 79.4451C109.501 77.7371 108.357 76.0292 107.184 74.3767C104.803 70.9833 102.394 67.6455 99.9549 64.363L101.463 64.4329L95.5696 71.3815C95.1816 71.8145 94.5877 71.8615 94.1317 71.4879C94.0321 71.3667 93.9327 71.2458 93.8331 71.1246L91.0288 64.6378L92.7082 65.0059C89.6068 67.8397 86.64 70.8828 83.8374 74.08C80.9994 77.189 78.2964 80.5073 75.8792 83.9017C73.433 87.3514 71.1795 90.8998 69.4687 94.6555C67.7578 98.4113 66.304 102.299 66.0859 106.467C66.0348 106.722 65.8553 106.911 65.605 106.923C65.2839 106.759 65.0555 106.572 64.9847 106.395Z" fill="black"/>
<path d="M162.999 139.41C163.665 137.506 164.43 135.722 165.067 133.873C165.705 132.025 166.313 130.231 166.7 128.394C167.531 124.61 167.855 120.707 168.244 116.837C168.574 113.077 167.897 109.223 167.127 105.391C166.357 101.559 165.337 97.7399 164.259 94.0313L166.059 94.3212L162.011 99.7567C161.716 100.167 161.093 100.27 160.673 99.9842C160.445 99.7974 160.338 99.5325 160.296 99.3006L159.931 91.2559L161.279 91.9456L154.726 96.1001L153.049 97.136C152.532 97.5032 151.981 97.7823 151.464 98.1495C150.432 98.884 149.463 99.6511 148.529 100.507C146.599 102.185 144.833 104.018 143.13 105.883C141.463 107.836 139.796 109.789 138.449 111.907C138.334 112.128 137.991 112.163 137.798 112.065C137.605 111.966 137.528 111.646 137.644 111.424C138.983 109.163 140.551 107.089 142.218 105.135C143.914 103.126 145.645 101.206 147.605 99.4722C148.567 98.5613 149.564 97.7387 150.626 96.9488C151.171 96.5262 151.687 96.1589 152.268 95.8245L153.881 94.7556L160.37 90.5683C160.764 90.2791 161.336 90.4311 161.605 90.8498C161.705 90.9709 161.712 91.1147 161.718 91.2584L162.241 99.3134L160.463 98.8246L164.412 93.268C164.736 92.8022 165.358 92.6996 165.843 93.0178C166.007 93.1717 166.171 93.3259 166.213 93.5579C167.391 97.3876 168.411 101.207 169.245 105.071C169.616 107.015 170.05 108.991 170.235 110.98C170.484 113.001 170.61 115.101 170.387 117.091C170.034 121.05 169.746 125.042 168.828 128.992C168.354 130.995 167.753 132.932 166.865 134.793C165.978 136.654 164.927 138.362 163.776 139.948C163.596 140.136 163.318 140.204 163.154 140.05C163.019 139.841 162.976 139.609 162.999 139.41Z" fill="black"/>
<path d="M39.1743 92.1354C37.8132 89.7325 36.6787 87.1794 35.62 84.6264C34.5614 82.0733 33.503 79.5202 32.5199 76.9672C31.4613 74.4141 30.4024 71.861 29.3438 69.3831C28.2095 66.9051 27.0755 64.352 25.8655 61.9491L27.8314 61.9491C27.302 63.0004 26.773 63.9765 26.2436 64.9527C25.9412 65.4783 25.7139 65.9289 25.4114 66.4545C25.2601 66.6798 25.1092 66.9801 24.958 67.2054L24.8066 67.4307L24.7313 67.5058L24.6552 67.5809C24.5796 67.656 24.5802 67.731 24.5045 67.731L24.4285 67.8062C24.3529 67.8813 24.2021 67.9563 24.1264 67.9563C23.9752 68.0314 23.8996 68.0314 23.7483 68.0314C23.5971 68.0314 23.4454 68.0314 23.2942 67.9563C23.1429 67.8812 22.9917 67.8061 22.9161 67.731C22.8405 67.6559 22.8403 67.656 22.7647 67.5809C22.6891 67.5058 22.614 67.3556 22.614 67.3556C22.5384 67.1303 22.4627 67.0552 22.4627 66.905C22.387 66.5296 22.3869 66.2293 22.3113 65.9289C22.3113 65.7787 22.3116 65.6286 22.236 65.5535L22.1599 65.178C22.0086 64.5773 21.9335 64.0516 21.8579 63.4509C21.631 62.3245 21.4796 61.1982 21.3284 60.0718L23.0675 60.6726C21.2526 62.3997 19.5133 64.2018 17.7741 66.004C16.8667 66.9051 16.0345 67.8061 15.2027 68.7072C14.8246 69.1578 14.3709 69.6083 14.0684 70.0589C13.9172 70.2842 13.7663 70.5094 13.615 70.8098L13.1616 71.5607C12.8591 72.0863 12.4804 72.6119 12.1779 73.1376L11.3464 74.7895L10.893 75.6155C10.7418 75.9159 10.6661 76.2163 10.5149 76.4416L9.83403 78.1686C9.60717 78.7693 9.45608 79.295 9.22922 79.8957C9.07798 80.4964 8.85097 81.022 8.69973 81.6227C8.39726 82.8242 8.09507 84.0257 7.86821 85.2271C7.41449 87.63 7.18764 90.108 7.11202 92.586C7.0364 95.064 7.03581 97.5419 7.26266 100.02C7.56514 104.976 8.3974 109.932 9.22922 114.888C9.30484 115.113 9.07798 115.413 8.85112 115.413C8.62426 115.489 8.39726 115.263 8.32164 115.038C7.33858 110.082 6.431 105.201 5.90166 100.095C5.59918 97.6171 5.52356 95.0639 5.52356 92.5108C5.59918 89.9578 5.75071 87.4047 6.20443 84.9267C6.35567 83.6502 6.73377 82.4487 6.96063 81.1722C7.11187 80.5715 7.33887 79.9708 7.49011 79.295C7.71697 78.6942 7.86807 78.0935 8.09492 77.4928L8.77506 75.6907C8.9263 75.3903 9.00192 75.0899 9.15316 74.7895L9.60732 73.8885L10.4388 72.1614C10.7413 71.5606 11.1193 71.035 11.4217 70.5094L11.9512 69.6834C12.1025 69.3831 12.2539 69.1577 12.4807 68.8574C12.8588 68.3317 13.3122 67.8061 13.6903 67.3556C14.5222 66.3794 15.4299 65.4784 16.2617 64.5022C18.001 62.7 19.8155 60.8978 21.6304 59.0956C22.0085 58.7202 22.6891 58.7202 23.1428 59.0956C23.294 59.2458 23.37 59.4711 23.4456 59.6964C23.5968 60.8227 23.8238 61.874 23.9751 63.0004C24.0507 63.526 24.2015 64.1267 24.2771 64.5773C24.2771 64.7274 24.3532 64.8025 24.3532 65.0278C24.3532 65.253 24.4285 65.3281 24.4285 65.4783C24.4285 65.7787 24.5045 66.079 24.5045 66.2292C24.5045 66.2292 24.5045 66.3043 24.5045 66.1541C24.5045 66.1541 24.4285 66.0791 24.4285 66.004L24.3532 65.9289C24.2775 65.9289 24.2016 65.7787 24.0504 65.7787C23.8991 65.7036 23.7479 65.7036 23.6723 65.7036C23.5967 65.7036 23.4459 65.7036 23.3702 65.7787C23.2946 65.7787 23.2184 65.8538 23.1428 65.9289L23.0675 66.004L22.9921 66.0791L23.0675 66.004L23.1428 65.8538C23.294 65.6285 23.4453 65.4033 23.5209 65.178C23.8234 64.7275 24.0507 64.2018 24.3532 63.7513C24.8825 62.7751 25.4118 61.7989 25.8655 60.7477C26.168 60.222 26.7725 59.9968 27.3019 60.2971C27.5287 60.3722 27.6804 60.5975 27.756 60.7477C29.0416 63.2256 30.176 65.7787 31.3103 68.2567C32.4446 70.8098 33.5031 73.3628 34.5618 75.9159C35.6205 78.469 36.6792 81.0221 37.5866 83.6502C38.494 86.2784 39.4013 88.9066 40.0819 91.5347C40.1575 91.76 40.0063 92.0603 39.7038 92.1354C39.4769 92.4358 39.2499 92.3607 39.1743 92.1354Z" fill="black"/>
<path d="M29.2645 66.7717C29.1888 65.2973 29.0895 63.8684 29.2746 62.2978C29.4598 60.7273 29.9459 59.2533 30.5194 57.8814C31.0929 56.5096 31.7772 55.1944 32.4617 53.8793L33.5323 51.9579C33.7212 51.5951 33.8626 51.3229 34.1069 50.9885C34.3512 50.6542 34.5635 50.246 34.8396 49.9853C35.8251 48.7668 36.9299 47.7242 38.0665 46.7553C39.2031 45.7864 40.3396 44.8175 41.5081 43.9223C43.8687 42.0866 46.2374 40.3699 48.6617 38.6817C49.1197 38.3418 49.8248 38.4728 50.1271 38.972C50.2463 39.1479 50.3415 39.3689 50.3026 39.5787L50.3239 46.423L48.5328 45.6788L54.6953 39.644C55.0978 39.2757 55.7388 39.2591 56.0882 39.6676L56.1435 39.6959C58.7797 42.5951 61.2663 45.6474 63.65 48.762C66.0336 51.8765 68.2906 55.0985 70.3426 58.4453C71.3686 60.1187 72.3157 61.8092 73.2154 63.5903C74.1151 65.3713 74.936 67.1695 75.5984 69.0014C76.2609 70.8333 76.8762 72.756 77.1751 74.7465C77.4976 76.6916 77.5589 78.7328 77.1614 80.7115C77.0989 80.9666 76.8699 81.1366 76.6244 81.0684C76.3788 81.0002 76.2044 80.7961 76.267 80.541C76.5382 78.6699 76.4057 76.7646 76.036 74.9102C75.6663 73.0557 75.0827 71.2067 74.373 69.4655C72.9218 65.9092 71.0279 62.5285 68.9842 59.3007C66.9404 56.073 64.6361 52.9416 62.2288 49.8724C59.7979 46.8486 57.3434 43.87 54.7154 41.0899L56.1871 41.0964L50.0574 47.2053C49.6313 47.619 48.99 47.6354 48.5851 47.1986C48.4104 46.9943 48.2592 46.7447 48.2663 46.4612L48.1661 39.634L49.8306 40.4856C47.4298 42.1285 45.1167 43.8736 42.8352 45.6923C41.7222 46.6159 40.5537 47.511 39.4961 48.4629C38.4386 49.4149 37.413 50.4406 36.5455 51.4323C36.3248 51.7214 36.1512 51.9197 36.0096 52.1918C35.9388 52.3278 35.868 52.4639 35.7736 52.6452L35.514 53.1441L34.4991 55.094C33.8382 56.3638 33.1541 57.679 32.5723 58.9318C32.2419 59.5667 31.9671 60.23 31.7157 60.8479C31.4408 61.5111 31.2449 62.1574 31.0491 62.8037C30.7128 64.1247 30.5191 65.576 30.1912 67.0161C30.1286 67.2712 29.8997 67.4412 29.6541 67.373C29.4239 67.1403 29.3047 66.9645 29.2645 66.7717Z" fill="black"/>
<path d="M113.029 83.2237C114.995 76.7912 118.075 70.7182 121.382 64.8321C123.068 61.9054 124.911 58.9889 127.111 56.3251C127.643 55.615 128.275 55.0262 128.843 54.4043C129.411 53.7825 130.042 53.1934 130.674 52.6045C131.874 51.3937 133.109 50.2714 134.373 49.0935C134.825 48.6934 135.454 48.7343 135.881 49.1634C135.945 49.1963 135.981 49.2846 135.981 49.2846L139.943 55.7327L138.018 56.1512L139.077 47.7109C139.115 47.169 139.631 46.8016 140.196 46.81C140.51 46.8305 140.739 47.0176 140.874 47.227L148.425 57.4054L152.172 62.5501C152.776 63.4206 153.38 64.2908 153.984 65.1613C154.119 65.3707 154.254 65.5801 154.424 65.8777C154.524 65.9988 154.594 66.1754 154.63 66.2636L154.771 66.6169L155.373 68.1175C156.901 72.0568 158.156 76.2073 158.602 80.5055C159.077 84.7484 158.679 89.1059 157.896 93.2664C157.845 93.5209 157.602 93.677 157.38 93.6339C157.159 93.5907 156.96 93.3485 157.011 93.094C157.637 88.9232 157.919 84.7873 157.386 80.6553C156.853 76.5233 155.575 72.5716 153.926 68.7103L153.295 67.265L153.154 66.9121C153.119 66.8239 153.083 66.7355 152.984 66.6143C152.913 66.4378 152.713 66.1954 152.578 65.986C151.974 65.1156 151.342 64.3008 150.737 63.4303L146.962 58.341L139.26 48.2961L141.057 47.8119L140.063 56.2849C139.996 56.8822 139.479 57.2495 138.943 57.1858C138.629 57.1652 138.336 56.9455 138.201 56.7361L134.146 50.3106L135.754 50.5018C134.519 51.6243 133.348 52.7797 132.113 53.9022C131.482 54.4912 130.943 55.0576 130.375 55.6794C129.808 56.3012 129.269 56.8677 128.766 57.5224C126.717 60.0528 124.931 62.8583 123.274 65.7296C121.617 68.6008 120.152 71.5705 118.594 74.5628C117.066 77.4998 115.572 80.5249 113.822 83.4188C113.707 83.6404 113.428 83.7083 113.171 83.5769C113.049 83.6549 112.943 83.3899 113.029 83.2237Z" fill="black"/>
<path d="M70.7059 59.6568C71.4221 56.0933 72.575 52.4726 74.4341 49.2132C76.2933 45.9539 78.573 42.9798 81.0167 40.1599C83.4316 37.3954 86.039 34.7293 88.6819 32.1516C91.3248 29.574 94.003 27.0845 96.874 24.6937C97.3262 24.2935 97.9557 24.3348 98.3541 24.8193C98.3895 24.9076 98.4536 24.9404 98.489 25.0287L102.415 33.4234L100.627 33.4208L104.938 25.451C105.169 25.0076 105.756 24.8168 106.206 25.0468C106.334 25.1125 106.434 25.2336 106.498 25.2665C108.468 27.8883 110.438 30.5102 112.315 33.1545C114.191 35.7989 116.132 38.4761 117.887 41.1985C119.706 43.9537 121.432 46.7315 123.036 49.5873C123.824 51.0428 124.611 52.4983 125.306 53.9764C125.972 55.51 126.638 57.0437 126.809 58.7454C126.851 58.9774 126.642 59.2216 126.392 59.2338C126.142 59.2461 125.884 59.1145 125.871 58.8272C125.613 57.2916 124.983 55.8464 124.26 54.4237C123.536 53.001 122.749 51.5455 121.933 50.1454C120.3 47.345 118.451 44.645 116.574 42.0006C112.85 36.6565 108.975 31.4458 104.948 26.3684L106.479 26.2394L102.361 34.3081C102.102 34.8068 101.514 34.9975 101 34.7346C100.808 34.636 100.644 34.4821 100.573 34.3056L96.5542 25.9336L98.1692 26.2686C95.4555 28.6697 92.7769 31.159 90.1628 33.6812C87.6129 36.2364 85.0345 38.847 82.7127 41.589C80.3267 44.2981 78.1686 47.194 76.396 50.2872C74.6234 53.3803 73.236 56.6705 71.5984 59.973C71.483 60.1947 71.1752 60.3179 70.9826 60.2193C70.7545 60.0325 70.6194 59.823 70.7059 59.6568Z" fill="black"/>
<path d="M43.8076 42.2789C44.0791 40.6638 44.572 39.0919 45.4148 37.6288C45.7897 36.9085 46.3215 36.1983 46.8249 35.5438C47.3282 34.8892 47.8956 34.2674 48.4343 33.7011C49.6047 32.5459 50.7178 31.5017 51.731 30.3362C52.8084 29.2036 53.7285 28.0606 54.7705 26.8398C56.7904 24.3651 58.9099 22.0117 61.0935 19.691C63.2772 17.3704 65.4962 15.138 67.8724 12.9159C68.3246 12.5158 68.9536 12.5569 69.3165 12.9531C69.4161 13.0742 69.4517 13.1626 69.4871 13.2508L72.4162 20.4322L70.6579 20.3746L74.0633 13.2066C74.294 12.7633 74.7882 12.5952 75.2377 12.8252C75.3661 12.8909 75.4946 12.9566 75.5299 13.0449C77.9619 16.1834 80.208 19.3671 82.4892 22.6389C83.5977 24.2585 84.6772 25.9333 85.6638 27.6308C86.6504 29.3282 87.6084 31.0812 88.2936 33.0454C88.3997 33.3102 88.2555 33.5872 87.9763 33.6548C87.7614 33.7554 87.5043 33.6238 87.3982 33.359C86.7549 31.6268 85.6755 29.952 84.66 28.3099C83.6445 26.6678 82.4428 25.0708 81.3054 23.5067C78.9665 20.3456 76.5986 17.2399 74.202 14.1896L75.6686 14.0279L72.3911 21.2614C72.1604 21.7046 71.638 21.9284 71.1597 21.7539C70.9671 21.6553 70.7388 21.4684 70.668 21.2919L67.581 14.0998L69.2603 14.4678C67.0059 16.6119 64.7864 18.8441 62.6958 21.1422C60.6052 23.4403 58.486 25.7939 56.495 28.2131C55.5461 29.4115 54.4752 30.6878 53.369 31.8758C52.2627 33.0638 51.1209 34.1635 50.0435 35.2961C48.9661 36.4287 47.9821 37.539 47.1262 38.7148C46.2414 39.9459 45.4851 41.2428 44.6999 42.5951C44.5845 42.8167 44.2764 42.9397 44.0484 42.7529C43.8558 42.6544 43.7853 42.478 43.8076 42.2789Z" fill="black"/>
<path d="M139.006 51.9447C138.344 51.1843 137.775 50.4014 137.328 49.5404C136.852 48.7349 136.405 47.8738 136.051 46.9903L133.711 41.7895L128.968 31.3551L130.763 31.5017L127.619 36.1414L127.59 36.1969C127.295 36.6076 126.736 36.7428 126.315 36.4571C126.187 36.3913 126.023 36.2373 126.017 36.0935L123.69 31.1803L125.02 31.4397C123.448 32.7415 121.911 34.1317 120.439 35.5547C119.75 36.255 119.031 37.0105 118.377 37.7991C117.723 38.5877 117.069 39.3763 116.729 40.1856L116.7 40.241C116.585 40.4628 116.341 40.619 116.084 40.4874C115.892 40.3887 115.785 40.1236 115.807 39.9243C116.198 38.8603 116.753 37.9505 117.436 37.1064C118.054 36.2295 118.773 35.4739 119.427 34.6853C120.8 33.141 122.3 31.6624 123.837 30.2722C124.167 29.9498 124.703 30.0138 125.031 30.3221C125.095 30.355 125.131 30.4434 125.131 30.4434L127.672 35.256L126.07 35.208L129.022 30.4697C129.346 30.0035 129.933 29.8127 130.418 30.1313C130.611 30.23 130.711 30.3512 130.846 30.5608L135.711 40.9174L138.143 46.0955C138.59 46.9565 138.945 47.84 139.206 48.7461C139.531 49.6851 139.792 50.5913 139.931 51.5754C139.944 51.863 139.764 52.0519 139.485 52.1196C139.328 52.1093 139.17 52.0988 139.006 51.9447Z" fill="black"/>
<path d="M76.7201 16.3968C76.88 15.7764 77.0756 15.2446 77.3286 14.6017C77.5527 14.0142 77.8988 13.3488 78.2514 12.8271C78.9854 11.7283 79.9117 10.728 80.7808 9.83886C81.6499 8.9497 82.5483 8.00529 83.4816 7.14903C83.9627 6.69317 84.4146 6.29256 84.8957 5.8367C85.3768 5.38084 85.8295 4.98064 86.4679 4.53512C86.9844 4.16762 87.6491 4.29735 87.9834 4.74947C88.0831 4.87073 88.1539 5.04745 88.1893 5.1358L89.3985 10.3195L87.44 10.0188L90.5647 4.94781C90.8885 4.48161 91.4758 4.29082 91.9609 4.60947C92.0894 4.67527 92.1888 4.79637 92.2885 4.91762C93.5328 6.74865 94.7772 8.57969 95.9284 10.4333C97.0797 12.2869 98.2026 14.1962 99.2962 16.1607C100.39 18.1252 101.326 20.0791 102.204 22.1442C103.083 24.2093 103.84 26.3525 104.009 28.6863C104.022 28.974 103.843 29.1628 103.592 29.175C103.342 29.1872 103.113 29.0001 103.071 28.7679C102.758 26.7113 101.944 24.6793 101.008 22.7252C100.071 20.771 99.0132 18.8949 97.8908 16.9858C95.6813 13.2561 93.1924 9.59391 90.6172 6.09822L92.3704 6.01291L89.3097 11.1167C89.0501 11.6158 88.3693 11.829 87.82 11.4774C87.563 11.3458 87.3637 11.1033 87.3506 10.8157L86.0774 5.59918L87.77 6.2553C87.3754 6.54479 86.8941 7.00054 86.4418 7.40095C85.9896 7.80135 85.5374 8.20181 85.1206 8.69057C84.2514 9.57973 83.3177 10.4358 82.4486 11.325C81.5795 12.2141 80.8036 13.0808 79.9987 14.0028C79.6107 14.4361 79.2869 14.9023 78.8701 15.3911C78.5174 15.9127 78.1008 16.4016 77.6197 16.8575C77.4402 17.0464 77.1253 17.0256 76.8971 16.8385C76.6756 16.7953 76.6336 16.5631 76.7201 16.3968Z" fill="black"/>
<path d="M127.627 32.9341C126.652 31.5221 126.143 29.9971 125.576 28.5833C125.039 27.114 124.473 25.7003 123.784 24.3645C123.096 23.0287 122.279 21.6271 121.375 20.3919C120.5 19.1012 119.532 17.8329 118.536 16.6203L120.225 16.5019C119.167 18.067 118.08 19.6878 117.022 21.253L116.993 21.3085C116.67 21.7747 116.047 21.8771 115.626 21.5914C115.433 21.4927 115.297 21.2828 115.227 21.1061L113.262 15.1841L114.477 15.6653C113.401 16.1682 112.326 16.6711 111.251 17.174C110.699 17.4532 110.24 17.7097 109.688 17.9889C109.229 18.2455 108.713 18.613 108.225 18.9251C107.156 19.5718 106.21 20.1405 105.205 20.8202C104.23 21.4443 103.226 22.124 102.286 22.8366C102.042 22.9926 101.821 22.9495 101.621 22.707C101.486 22.4974 101.537 22.2424 101.716 22.0534C102.621 21.2525 103.561 20.54 104.53 19.772C105.47 19.0595 106.475 18.3801 107.479 17.7005C107.967 17.3884 108.326 17.0103 108.935 16.6202C109.452 16.2527 110.004 15.9734 110.492 15.6613C111.531 15.0701 112.636 14.5119 113.711 14.0089C114.141 13.8078 114.619 13.9827 114.89 14.4019L114.925 14.4902L117.076 20.3675L115.309 20.1651C116.332 18.5116 117.39 16.9465 118.412 15.293C118.736 14.8267 119.388 14.669 119.873 14.9876C120.002 15.0535 120.037 15.1416 120.101 15.1745C121.162 16.4201 122.13 17.6884 123.069 19.012C124.072 20.3685 124.889 21.7699 125.677 23.227C126.465 24.684 127.131 26.2191 127.611 27.7993C128.091 29.3795 128.35 30.9165 128.393 32.554C128.406 32.8417 128.198 33.0862 127.883 33.0655C127.919 33.1538 127.726 33.0553 127.627 32.9341Z" fill="black"/>
<path d="M93.1835 7.57909C93.6806 6.77998 94.3768 6.22327 95.0445 5.72214C95.7764 5.25392 96.5788 4.96228 97.3173 4.63787C98.0557 4.31347 98.8586 4.02203 99.597 3.69763C100.4 3.40612 101.138 3.08164 101.912 2.8456C102.5 2.65471 103.078 2.95095 103.262 3.53658L104.773 8.45384L103.365 7.8738L107.109 5.99715L107.202 5.97446C107.539 5.79582 107.918 5.84961 108.182 6.12502C108.838 6.74162 109.336 7.34764 109.805 8.00938C110.275 8.67113 110.715 9.38834 111.156 10.1055C111.597 10.8228 111.851 11.5852 112.17 12.3804C112.424 13.1428 112.621 14.0161 112.689 14.8236C112.731 15.0558 112.523 15.3002 112.272 15.3124C112.022 15.3247 111.829 15.2262 111.723 14.9611C111.343 13.5022 110.747 12.1438 109.872 10.8532C109.467 10.2243 108.969 9.6181 108.506 9.10018C107.978 8.54937 107.48 7.94294 106.959 7.53596L108.032 7.66383L104.423 9.75C103.964 10.0067 103.329 9.82176 103.058 9.40253C103.023 9.31417 103.023 9.31413 102.988 9.22577L103.016 9.17029L101.348 4.24266L102.762 4.96641C101.25 5.52685 99.7376 6.08735 98.3249 6.76904C97.5865 7.09345 96.9123 7.45074 96.1738 7.77514C95.4354 8.09954 94.6901 8.28001 93.8809 8.42769C93.6015 8.4954 93.309 8.27546 93.2959 7.9878C93.0677 7.80076 93.0615 7.65712 93.1835 7.57909Z" fill="black"/>
<path d="M11.5727 117.67C13.3876 120.448 14.6733 123.452 15.8832 126.38C17.0932 129.384 18.3031 132.387 19.6643 135.316C22.311 141.173 25.1847 146.955 28.8901 152.211C32.5199 157.467 36.9057 162.273 41.9723 166.178C44.4678 168.13 47.1901 170.008 49.9124 171.585C52.7104 173.237 55.5843 174.663 58.5335 176.09C58.7603 176.165 58.8358 176.465 58.7602 176.691C58.6846 176.916 58.3822 176.991 58.1554 176.916C52.1057 174.438 46.2067 171.359 40.9133 167.455C35.6199 163.475 31.0076 158.669 27.151 153.338C23.37 147.931 20.3447 142.074 17.6224 136.142C16.2612 133.138 14.976 130.135 13.766 127.206C12.5561 124.202 11.4213 121.199 10.6651 117.97C10.5895 117.745 10.7408 117.444 11.0432 117.369C11.2701 117.369 11.4971 117.444 11.5727 117.67Z" fill="black"/>
<path d="M91.5048 121.195C91.6561 123.223 91.4292 125.25 91.1267 127.203C90.8243 129.155 90.5221 131.107 90.2953 133.06C90.0684 135.012 89.8413 136.964 89.6144 138.992C89.4632 140.944 89.3122 142.896 89.161 144.924C88.8585 148.904 88.3289 152.959 87.724 156.863L86.7411 162.795L85.7583 168.728C85.6826 168.953 85.4556 169.178 85.2288 169.103C85.0019 169.028 84.8507 168.878 84.8507 168.577C85.1532 164.598 85.607 160.618 86.1363 156.638C86.6657 152.658 87.0433 148.754 87.1945 144.774C87.2701 142.821 87.3461 140.794 87.4973 138.766C87.6485 136.739 87.8752 134.787 88.1021 132.759C88.3289 130.732 88.6311 128.779 88.9336 126.827C89.236 124.875 89.6899 122.922 90.5973 121.045C90.7485 120.82 90.9757 120.67 91.2781 120.82C91.4294 120.895 91.5048 121.045 91.5048 121.195Z" fill="black"/>
<path d="M158.126 141.018C157.748 142.07 157.219 143.121 156.689 144.097C156.16 145.073 155.48 145.974 154.799 146.875C153.438 148.678 152.077 150.48 150.64 152.207C147.766 155.661 144.741 158.965 141.489 162.119C138.238 165.273 134.91 168.201 131.432 171.055C129.693 172.481 128.029 173.833 126.29 175.335C124.551 176.837 122.66 178.038 120.845 179.315C120.618 179.465 120.316 179.39 120.165 179.164C120.014 178.939 120.089 178.714 120.24 178.564L122.812 176.461C123.643 175.785 124.551 175.034 125.307 174.283C126.895 172.782 128.559 171.205 130.222 169.778C133.625 166.85 136.801 163.846 139.902 160.692C143.002 157.538 145.951 154.234 148.749 150.78C150.186 149.053 151.471 147.326 152.832 145.524C154.118 143.722 155.48 141.995 157.219 140.493C157.446 140.343 157.748 140.343 157.899 140.493C158.126 140.643 158.126 140.868 158.126 141.018Z" fill="black"/>
<path d="M162.21 97.1663C162.361 98.1424 162.436 99.0435 162.436 100.02C162.361 100.996 162.286 101.897 162.134 102.798L161.529 105.576L160.849 108.355C159.866 111.959 158.655 115.564 157.294 119.018C155.857 122.472 154.345 125.926 152.757 129.23C151.169 132.609 149.43 135.913 147.766 139.217C147.615 139.442 147.387 139.518 147.161 139.442C146.934 139.367 146.858 139.067 146.934 138.842C148.371 135.388 149.883 132.008 151.32 128.554C152.757 125.175 154.194 121.721 155.404 118.267C156.689 114.813 157.824 111.283 158.731 107.754L159.412 105.051L159.941 102.348C160.092 101.446 160.243 100.545 160.546 99.6442C160.773 98.7431 161 97.842 161.378 96.941C161.454 96.7157 161.756 96.5656 162.058 96.7157C162.058 96.8659 162.134 97.0161 162.21 97.1663Z" fill="black"/>
<path d="M128.861 109.71C128.861 110.911 128.709 112.038 128.558 113.164C128.407 114.29 128.179 115.417 127.877 116.468L126.289 123.076C125.231 127.506 124.172 131.937 122.962 136.292C121.752 140.647 120.467 145.077 119.03 149.358C117.518 153.638 115.854 157.918 113.888 162.048C113.812 162.273 113.51 162.348 113.283 162.273C113.056 162.198 112.98 161.898 113.056 161.672C114.72 157.467 116.232 153.187 117.518 148.907C118.879 144.552 120.013 140.197 121.071 135.841C122.206 131.486 123.189 127.056 124.172 122.625L125.76 116.017C126.289 113.84 126.97 111.662 128.028 109.56C128.18 109.334 128.482 109.259 128.709 109.334C128.785 109.334 128.861 109.485 128.861 109.71Z" fill="black"/>
<path d="M48.7033 92.9626C48.7033 94.1641 48.4764 95.2904 48.3252 96.4168C48.174 97.5431 48.0226 98.6695 47.7957 99.7958L47.4176 103.175L47.2662 106.554C47.1906 111.134 47.7956 115.715 48.7786 120.145C49.7617 124.651 51.1987 129.081 52.8623 133.361C54.5259 137.641 56.567 141.846 58.6843 145.976C58.8356 146.202 58.6845 146.502 58.4576 146.577C58.2308 146.727 57.9285 146.577 57.8528 146.427C55.433 142.447 53.24 138.242 51.2739 133.962C49.3834 129.682 47.7957 125.176 46.6614 120.596C45.6028 116.015 44.9224 111.285 44.9224 106.479L45.073 102.875L45.4511 99.3453C45.678 98.1439 45.9053 97.0174 46.2833 95.8911C46.6614 94.7647 47.1903 93.6384 47.7197 92.5872C47.8709 92.3619 48.1737 92.2868 48.4005 92.4369C48.6274 92.5871 48.7033 92.8124 48.7033 92.9626Z" fill="black"/>
<path d="M24.2014 66.8308C24.5796 68.8582 24.5036 70.8857 24.2767 72.838C24.0499 74.7904 23.8992 76.8179 23.7479 78.7702C23.4454 82.75 23.1423 86.7298 23.1423 90.6345C23.0667 94.6143 23.2939 98.519 23.8233 102.499C24.3527 106.404 25.2602 110.308 26.4702 114.063C26.5459 114.288 26.3943 114.588 26.1674 114.663C25.9406 114.739 25.7138 114.588 25.5626 114.363C23.9744 110.609 22.9156 106.704 22.1593 102.724C21.4787 98.7443 21.1005 94.6894 21.0249 90.6345C20.9493 86.5796 21.1766 82.5247 21.4791 78.5449C21.6304 76.5175 21.781 74.5651 22.0079 72.5377C22.2348 70.5102 22.4621 68.5578 23.2184 66.6055C23.294 66.3802 23.5964 66.2301 23.8233 66.3052C24.0502 66.5305 24.1258 66.6806 24.2014 66.8308Z" fill="black"/>
<path d="M50.5179 45.2799C50.2154 46.2561 49.762 47.0821 49.3083 47.908C48.8545 48.734 48.4766 49.56 47.9472 50.386C47.4935 51.212 47.1153 52.038 46.6616 52.864C46.2835 53.69 45.9054 54.5911 45.5273 55.4171C44.1661 58.9463 43.2585 62.6257 42.7292 66.3051C42.1998 70.0596 42.2 73.8892 42.5024 77.6437C42.8049 81.4733 43.4855 85.2278 44.3929 88.9072C44.4686 89.1325 44.3173 89.4328 44.0148 89.5079C43.788 89.583 43.561 89.4329 43.4854 89.2076C42.2754 85.5282 41.3677 81.6985 40.914 77.7939C40.4603 73.8892 40.3852 69.9845 40.7633 66.0798C41.217 62.1751 42.0486 58.2704 43.4854 54.591C43.8635 53.6899 44.2416 52.7889 44.6197 51.8878C45.0734 50.9867 45.527 50.0856 45.9807 49.2596C46.51 48.4336 47.0395 47.6077 47.6445 46.7817C48.3251 46.0308 49.0055 45.2799 49.7617 44.6791C49.9886 44.529 50.2913 44.5289 50.4426 44.7542C50.5938 44.9795 50.5935 45.1297 50.5179 45.2799Z" fill="black"/>
<path d="M95.5875 70.2111C95.3606 71.2624 95.058 72.1635 94.6799 73.1396C94.3774 74.1158 93.9993 75.0169 93.5456 75.918L92.4113 78.6964L91.3523 81.4747C89.9911 85.2292 88.8573 89.0589 88.0254 92.9636C87.118 96.8683 86.437 100.773 86.0589 104.753C85.6051 108.733 85.3783 112.712 85.3027 116.767C85.3027 116.992 85.0761 117.218 84.8492 117.218C84.6224 117.218 84.3951 116.992 84.3951 116.767C84.0926 112.712 84.1682 108.657 84.3951 104.603C84.6975 100.548 85.2273 96.4927 85.9835 92.5129C86.8154 88.5331 87.8739 84.5534 89.2351 80.7238L90.294 77.8703L91.5037 75.0169C91.9574 74.1158 92.4114 73.1397 92.9408 72.3137C93.4701 71.4126 94.0751 70.5865 94.8313 69.8356C94.9825 69.6104 95.2846 69.6104 95.5114 69.8356C95.587 69.8356 95.5875 69.9858 95.5875 70.2111Z" fill="black"/>
<path d="M139.144 55.7953C139.9 57.973 140.127 60.1506 140.203 62.4033C140.279 64.5809 140.203 66.8337 140.203 69.0113C140.127 73.4417 139.749 77.7969 139.447 82.2273L138.463 95.3681C138.085 99.7234 137.556 104.154 136.497 108.434C136.421 108.659 136.194 108.809 135.968 108.809C135.741 108.734 135.589 108.509 135.589 108.284C136.27 104.004 136.573 99.6484 136.8 95.218L137.405 82.0771C137.632 77.7218 137.858 73.2915 138.01 68.9362C138.085 66.7586 138.085 64.5809 138.01 62.4033C137.934 60.2256 137.934 58.0481 138.312 55.8704C138.388 55.5701 138.614 55.4199 138.841 55.495C138.917 55.495 139.068 55.6452 139.144 55.7953Z" fill="black"/>
<path d="M101.864 33.7148C102.62 34.9913 102.923 36.418 103.15 37.8447C103.301 39.2714 103.452 40.6981 103.603 42.0497C103.906 44.9032 104.057 47.6815 104.133 50.5349C104.208 53.3884 104.208 56.2417 104.208 59.02C104.132 61.8735 103.981 64.6518 103.754 67.5052C103.754 67.7305 103.527 67.9558 103.225 67.9558C102.998 67.9558 102.771 67.7305 102.771 67.5052C102.696 64.6518 102.62 61.8734 102.544 59.0951C102.468 56.3168 102.317 53.4634 102.091 50.6851C101.939 47.9068 101.637 45.1285 101.334 42.275C101.183 40.8483 101.032 39.4966 100.805 38.0699C100.729 37.3941 100.653 36.6433 100.653 35.9675C100.653 35.2917 100.654 34.5407 100.881 33.7898C100.956 33.4895 101.183 33.3393 101.486 33.4144C101.713 33.4895 101.788 33.5646 101.864 33.7148Z" fill="black"/>
<path d="M71.9182 20.649C71.9938 21.3999 71.9941 22.1508 71.8429 22.9017C71.7673 23.6526 71.6161 24.3284 71.4648 25.0043C71.0867 26.431 70.7844 27.7826 70.4819 29.2093C69.877 31.9876 69.423 34.841 69.0449 37.6944C68.6668 40.5478 68.3647 43.4013 68.2134 46.2547C67.9866 49.1081 67.8349 52.0367 67.7593 54.8901C67.7593 55.1154 67.533 55.3406 67.2305 55.3406C67.0037 55.3406 66.7764 55.1154 66.7764 54.8901C66.6252 51.9616 66.5497 49.1082 66.5497 46.1796C66.6253 43.2511 66.7762 40.3226 67.0031 37.4692C67.3056 34.5407 67.6838 31.6873 68.2887 28.7588C68.5912 27.3321 68.8938 25.9053 69.1963 24.4786C69.5744 23.0519 70.0279 21.7002 70.9354 20.4237C71.0866 20.1984 71.3894 20.1233 71.6162 20.3486C71.8431 20.3486 71.9182 20.4988 71.9182 20.649Z" fill="black"/>
<path d="M88.7055 10.4378C89.0836 11.4139 89.0834 12.315 88.9322 13.2161L88.5542 15.9193C88.3273 17.7215 88.1006 19.4486 87.9494 21.2508C87.7982 23.053 87.6474 24.78 87.6474 26.5822C87.5718 28.3844 87.6474 30.1865 87.6474 31.9887C87.6474 32.2139 87.4201 32.4392 87.1933 32.4392C86.9665 32.4392 86.7399 32.289 86.7399 32.0637C86.3619 30.2616 86.1351 28.4595 85.9838 26.5822C85.8326 24.78 85.8322 22.9027 85.9078 21.1006C85.9834 19.2984 86.1351 17.4212 86.3619 15.619L86.7399 12.9157C86.8912 12.0146 87.1176 11.1135 87.7981 10.2875C88.0249 10.0623 88.3273 10.0623 88.5542 10.2125C88.6298 10.2876 88.6299 10.3627 88.7055 10.4378Z" fill="black"/>
<path d="M116.837 20.8031C117.442 21.4038 117.668 22.0045 117.668 22.6803C117.744 23.3561 117.744 23.9569 117.744 24.6327C117.744 25.9093 117.593 27.2608 117.366 28.6124C117.064 29.889 116.61 31.1655 115.929 32.3669C115.324 33.4933 114.568 34.6197 113.736 35.5959C113.585 35.8211 113.282 35.8211 113.055 35.6709C112.904 35.5207 112.828 35.2955 112.904 35.1453C113.433 34.019 113.963 32.8926 114.417 31.7663C114.87 30.6399 115.173 29.5135 115.324 28.3121C115.475 27.1106 115.551 25.9843 115.551 24.7829C115.551 24.1821 115.476 23.5814 115.476 22.9807C115.476 22.38 115.475 21.7792 115.929 21.1034C116.156 20.6529 116.534 20.5778 116.837 20.8031Z" fill="black"/>
<path d="M104.058 9.31055C104.209 9.61092 104.209 9.91127 104.209 10.1365C104.209 10.3618 104.134 10.5871 104.058 10.8124C103.831 11.1878 103.68 11.6384 103.529 12.0138C103.227 12.8398 102.848 13.6659 102.546 14.4919C101.865 16.1439 101.336 17.871 100.58 19.5981C100.504 19.8233 100.202 19.9736 99.9748 19.8234C99.7479 19.7483 99.672 19.523 99.672 19.3728C99.8232 17.4955 100.126 15.6933 100.58 13.8911C100.806 12.99 101.109 12.0889 101.487 11.1878C101.638 10.7373 101.865 10.2867 102.092 9.83616C102.319 9.38561 102.621 9.0102 103.302 8.86002C103.529 8.78493 103.907 8.9351 104.058 9.31055Z" fill="black"/>
<path d="M23.976 167.527C25.7153 168.579 27.0009 170.005 28.1352 171.507C29.2695 173.009 30.4793 174.361 31.7648 175.637C34.4115 178.04 37.5876 180.068 40.8393 181.945C44.091 183.822 47.4181 185.549 50.8966 186.976C54.2996 188.403 57.8542 189.754 61.5596 190.355C61.7864 190.43 62.0133 190.655 61.9377 190.881C61.8621 191.106 61.7107 191.256 61.4082 191.256C57.5515 190.956 53.8463 189.829 50.2165 188.478C46.6623 187.126 43.1832 185.474 39.7803 183.672C38.1166 182.771 36.453 181.795 34.865 180.743C33.2769 179.692 31.6895 178.566 30.1771 177.214C28.7403 175.863 27.4543 174.361 26.32 172.859C25.715 172.108 25.1855 171.357 24.6562 170.606C24.1268 169.855 23.6736 169.029 23.2198 168.128C23.0686 167.903 23.2197 167.603 23.4466 167.452C23.6734 167.377 23.9004 167.452 23.976 167.527Z" fill="black"/>
<path d="M152.227 177.141C151.546 178.042 150.79 178.793 149.958 179.544C149.126 180.22 148.219 180.895 147.311 181.571L144.513 183.373L141.716 185.025C137.935 187.203 133.927 189.08 129.919 190.732C125.835 192.384 121.752 193.811 117.517 195.012C113.358 196.214 109.123 197.265 104.813 198.166C104.586 198.241 104.284 198.091 104.284 197.791C104.208 197.565 104.359 197.34 104.586 197.265C108.745 196.063 112.904 194.862 116.988 193.51C121.071 192.159 125.155 190.582 129.087 188.855C133.019 187.128 136.876 185.251 140.582 183.073L143.304 181.421L145.95 179.694C146.782 179.093 147.689 178.492 148.672 177.967C149.58 177.366 150.488 176.841 151.547 176.39C151.773 176.315 152.076 176.39 152.151 176.615C152.303 176.765 152.302 176.991 152.227 177.141Z" fill="black"/>
<path d="M115.929 186.149C117.063 184.346 117.895 182.544 118.5 180.667C119.105 178.79 119.558 176.762 119.71 174.735C119.861 172.707 119.71 170.68 119.256 168.728C119.105 168.277 119.029 167.751 118.802 167.376L118.651 167.076L118.5 166.7L118.197 165.949L116.836 163.096L118.349 163.546L113.736 166.099C113.207 166.4 112.601 166.175 112.299 165.724C112.299 165.649 112.224 165.649 112.224 165.574L110.333 160.242L111.694 160.843C110.03 161.444 108.291 162.27 106.627 163.096C104.964 163.922 103.375 164.898 101.939 166.024C100.502 167.151 99.1407 168.352 98.1577 169.779C97.099 171.281 96.1918 172.933 95.4356 174.585C93.8476 177.889 92.7133 181.493 92.0327 185.097C91.2765 188.777 90.8224 192.456 90.2175 196.211C90.1419 196.436 89.9148 196.661 89.688 196.586C89.4611 196.586 89.2343 196.286 89.3099 196.061C89.688 192.306 90.0667 188.552 90.6716 184.797C91.2766 181.042 92.3352 177.288 93.9232 173.834C94.755 172.107 95.6626 170.38 96.7213 168.803C97.8556 167.076 99.292 165.724 100.804 164.523C102.317 163.321 103.98 162.27 105.72 161.369C107.459 160.468 109.198 159.642 111.013 158.966C111.543 158.741 112.148 159.041 112.299 159.567L114.265 164.898L112.752 164.372L117.29 161.744C117.819 161.444 118.5 161.594 118.727 162.12L118.802 162.195L120.164 165.123L120.542 165.874L120.693 166.25L120.844 166.625C121.071 167.151 121.222 167.751 121.373 168.277C121.903 170.455 122.054 172.707 121.903 174.96C121.752 177.213 121.298 179.39 120.466 181.493C119.634 183.52 118.273 185.473 116.533 186.9C116.307 187.05 116.004 187.05 115.853 186.824C115.853 186.524 115.777 186.299 115.929 186.149Z" fill="black"/>
<path d="M89.9169 190.13C89.3875 187.502 89.0094 184.949 88.4045 182.471C87.8751 179.918 87.1942 177.44 86.2112 175.112C85.2281 172.709 84.0183 170.457 82.5815 168.354C81.0691 166.252 79.4056 164.149 77.8175 162.047L79.33 162.197L74.4899 166.402C74.0362 166.777 73.4312 166.702 72.9775 166.327C72.9019 166.252 72.8261 166.176 72.8261 166.026L70.4822 160.62L72.0699 160.995C69.3475 163.248 66.7008 165.876 64.5078 168.579C63.3735 170.006 62.3152 171.433 61.559 173.01C61.1809 173.761 60.8022 174.587 60.5754 175.413C60.4241 175.788 60.3485 176.239 60.1973 176.689C60.046 177.14 59.9709 177.515 59.8952 177.966C59.5171 179.693 59.3656 181.42 59.5925 183.147C59.7437 184.874 60.273 186.526 61.1049 188.103C61.9367 189.68 62.9958 191.107 64.2058 192.383C65.4157 193.735 66.701 195.011 68.0621 196.213C68.289 196.363 68.289 196.663 68.0621 196.889C67.9109 197.039 67.6081 197.114 67.3813 196.964C64.5833 194.636 61.7097 192.083 59.8192 188.779C58.9117 187.127 58.2316 185.249 58.0047 183.372C57.7022 181.495 57.8533 179.543 58.2314 177.665C58.307 177.215 58.383 176.764 58.5342 176.314C58.6854 175.863 58.6854 175.413 58.9123 174.962C59.2148 174.061 59.5925 173.16 59.9706 172.259C60.8024 170.532 61.9371 169.03 63.0715 167.528C65.4157 164.6 67.9862 161.896 70.7842 159.493C71.2379 159.118 71.8432 159.193 72.2213 159.569C72.2969 159.644 72.3727 159.719 72.3727 159.794L74.7166 165.2L73.0528 164.825L77.8929 160.545C78.3466 160.169 79.0272 160.169 79.4053 160.62C79.4053 160.62 79.405 160.695 79.4806 160.695C81.0686 162.797 82.7326 164.9 84.3206 167.078C85.8331 169.33 87.1939 171.733 88.177 174.211C89.2357 176.689 89.9919 179.317 90.4456 182.021C90.8994 184.724 90.9753 187.427 90.7484 190.055C90.7484 190.281 90.5214 190.506 90.2189 190.506C90.1433 190.431 89.9925 190.281 89.9169 190.13Z" fill="black"/>
<path d="M74.3389 164.601C74.4902 165.351 74.4903 166.027 74.4903 166.778C74.4903 167.454 74.4149 168.13 74.2636 168.806L74.0369 170.833L73.8855 172.86C73.7343 175.639 73.7345 178.342 74.0369 181.12C74.2638 183.899 74.7172 186.602 75.2465 189.305C75.8514 192.009 76.6079 194.712 77.4397 197.34C77.5153 197.565 77.3638 197.866 77.1369 197.941C76.9101 198.016 76.6834 197.941 76.5321 197.716C75.3223 195.162 74.3389 192.459 73.5828 189.681C72.8266 186.902 72.2215 184.124 71.9191 181.271C71.6166 178.417 71.4658 175.564 71.617 172.71L71.7684 170.533L71.9951 168.355C72.0707 167.679 72.2217 166.928 72.4485 166.253C72.6754 165.577 72.978 164.901 73.3561 164.225C73.5073 164 73.8101 163.925 74.0369 164.075C74.2638 164.3 74.3389 164.45 74.3389 164.601Z" fill="black"/>
<path d="M114.492 163.998C114.568 165.65 114.114 167.151 113.585 168.578L112.752 170.756L111.846 172.933C110.636 175.787 109.199 178.565 107.762 181.344C106.249 184.047 104.586 186.675 102.846 189.228C101.032 191.781 99.141 194.259 97.1749 196.587C97.0237 196.812 96.7209 196.812 96.494 196.662C96.3428 196.512 96.2675 196.212 96.4187 196.061C98.158 193.508 99.8974 191.03 101.485 188.402C103.073 185.774 104.586 183.146 106.023 180.443C107.459 177.739 108.745 174.961 109.879 172.183L110.711 170.08L111.543 167.977C111.77 167.226 112.072 166.551 112.45 165.875C112.753 165.199 113.131 164.523 113.66 163.847C113.811 163.622 114.114 163.622 114.341 163.772C114.416 163.697 114.492 163.847 114.492 163.998Z" fill="black"/>
<path d="M75.5483 198.24C75.6995 202.37 75.3969 206.5 75.0188 210.555L74.3379 216.712L73.6577 222.87C72.6747 231.055 71.6155 239.164 70.5568 247.349C69.4225 255.459 68.3637 263.644 67.3806 271.754C66.3975 279.938 65.4901 288.048 64.7339 296.233C64.7339 296.458 64.5073 296.608 64.2804 296.608C64.0536 296.608 63.9023 296.383 63.9023 296.233C64.3561 288.048 65.1124 279.863 65.9443 271.679C66.8517 263.494 67.8346 255.309 68.8177 247.199C69.8008 239.014 70.8598 230.904 71.7672 222.72L72.4474 216.637L73.0522 210.48C73.2034 208.453 73.4306 206.425 73.7331 204.398C73.9599 202.37 74.2625 200.343 74.6407 198.315C74.7163 198.09 74.8672 197.94 75.0941 198.015C75.3966 197.865 75.5483 198.015 75.5483 198.24Z" fill="black"/>
<path d="M69.6498 316.881C69.4986 315.304 69.4991 313.727 69.4991 312.075C69.4991 310.499 69.5742 308.922 69.6498 307.345L70.2554 297.883L71.3898 278.885C71.7679 272.578 72.2215 266.195 72.7509 259.887C73.2802 253.58 73.8092 247.197 74.5654 240.889C74.5654 240.664 74.7927 240.514 75.0196 240.514C75.2465 240.514 75.3977 240.739 75.3977 240.965C74.944 247.272 74.4898 253.655 74.1873 259.962C73.8092 266.27 73.5068 272.653 73.2043 278.96L72.2213 297.958L71.6918 307.495C71.4649 310.649 71.2381 313.803 70.5574 316.956C70.4818 317.182 70.3309 317.332 70.104 317.257C69.8015 317.257 69.7254 317.107 69.6498 316.881Z" fill="black"/>
<path d="M84.0923 194.065C84.1679 195.848 84.1676 197.63 84.1676 199.338C84.1676 201.12 84.0165 202.828 83.9409 204.611C83.714 208.101 83.4873 211.666 83.3361 215.156L82.3531 236.321C81.975 243.376 81.5968 250.43 81.0674 257.485C80.4624 264.54 79.7814 271.595 78.7227 278.576C78.7227 278.799 78.4961 278.947 78.2692 278.873C78.0423 278.873 77.8908 278.65 77.9664 278.427C78.7227 271.447 79.2526 264.392 79.7063 257.337C80.1601 250.282 80.4624 243.227 80.6893 236.172L81.5208 215.007C81.6721 211.443 81.8991 207.952 82.0503 204.388C82.2772 200.898 82.5798 197.333 83.3361 193.843C83.4117 193.62 83.5626 193.471 83.7895 193.546C83.9408 193.768 84.0923 193.917 84.0923 194.065Z" fill="black"/>
<path d="M77.6644 317.411C77.135 316.585 77.0591 315.684 76.9835 314.783L76.9081 312.155C76.8325 310.353 76.8324 308.626 76.7567 306.823C76.7567 305.021 76.6814 303.294 76.6814 301.492C76.6814 299.69 76.6811 297.963 76.7567 296.161C76.7567 295.935 76.9836 295.785 77.1349 295.785C77.3618 295.785 77.513 295.935 77.513 296.161C77.7399 297.888 77.8913 299.69 78.0426 301.417C78.1938 303.219 78.2695 304.946 78.4207 306.748C78.4964 308.551 78.6472 310.278 78.7228 312.08L78.8742 314.708C78.8742 315.609 78.8745 316.51 78.4207 317.411C78.3451 317.637 78.0427 317.712 77.8158 317.637C77.7402 317.562 77.6644 317.486 77.6644 317.411Z" fill="black"/>
<path d="M72.2951 195.76C72.4463 197.787 72.1441 199.739 71.8417 201.692L70.7827 207.474C70.1021 211.303 69.4218 215.208 68.8168 219.113C68.1363 222.942 67.531 226.847 67.0017 230.752C66.4723 234.657 66.019 238.561 65.5653 242.391C65.5653 242.616 65.338 242.766 65.1111 242.766C64.8843 242.766 64.733 242.541 64.733 242.391C64.8843 238.486 65.1872 234.506 65.5653 230.602C65.9434 226.697 66.4723 222.792 67.0017 218.888C67.6066 214.983 68.2116 211.078 68.8922 207.249L69.8758 201.467C70.1783 199.514 70.6317 197.637 71.4636 195.76C71.5392 195.534 71.7662 195.459 71.9931 195.534C72.1443 195.459 72.2195 195.609 72.2951 195.76Z" fill="black"/>
<path d="M88.9328 197.112C89.3865 198.539 89.4623 200.041 89.4623 201.468L89.4623 205.823L89.387 214.533C89.3113 217.462 89.2354 220.391 89.0842 223.319C88.9329 226.248 88.7818 229.176 88.4794 232.03C88.4794 232.255 88.2528 232.405 88.0259 232.405C87.7991 232.405 87.6478 232.18 87.6478 232.03C87.6478 229.101 87.6478 226.173 87.6478 223.319C87.6478 220.391 87.6474 217.537 87.5718 214.609L87.4965 205.898L87.4965 201.543C87.4965 200.116 87.5722 198.614 88.0259 197.188C88.1016 196.962 88.3278 196.887 88.5547 196.887C88.7816 196.887 88.9328 197.037 88.9328 197.112Z" fill="black"/>
<path d="M95.2841 194.784C95.511 196.586 95.5866 198.388 95.6622 200.265C95.6622 202.067 95.6625 203.87 95.5869 205.747L95.2841 211.153L94.9061 216.56C94.3767 223.768 93.6207 231.052 92.7889 238.261C91.8815 245.47 90.8986 252.678 89.9156 259.812L86.8149 281.363C86.8149 281.588 86.5883 281.738 86.3615 281.663C86.1346 281.663 85.9831 281.438 86.0587 281.213C86.8149 274.004 87.7221 266.795 88.5539 259.586C89.4613 252.378 90.2937 245.169 91.0499 238.036C91.8817 230.827 92.5619 223.618 93.0156 216.41L93.3184 211.003L93.5451 205.597C93.6207 203.794 93.6959 201.992 93.8471 200.19C93.9227 198.388 94.0741 196.586 94.3766 194.784C94.3766 194.558 94.6039 194.408 94.8307 194.483C95.1332 194.408 95.2841 194.558 95.2841 194.784Z" fill="black"/>
<path d="M101.864 198.013C102.242 199.815 102.242 201.692 102.166 203.494L101.864 208.976C101.637 212.58 101.486 216.26 101.183 219.864C100.881 223.469 100.578 227.148 100.2 230.752C99.8222 234.357 99.3682 237.961 98.7633 241.565C98.7633 241.791 98.5367 241.941 98.3098 241.866C98.083 241.866 97.9315 241.64 98.0071 241.415C98.3095 237.811 98.6125 234.206 98.8393 230.527C99.0662 226.923 99.2926 223.243 99.5194 219.639C99.7463 216.035 99.8977 212.355 100.049 208.751L100.276 203.269C100.351 201.467 100.502 199.665 101.032 197.863C101.107 197.637 101.334 197.562 101.561 197.562C101.712 197.788 101.788 197.863 101.864 198.013Z" fill="black"/>
<path d="M94.5289 313.882C93.9996 311.404 93.8483 308.851 93.7727 306.373L93.546 298.863C93.3948 293.832 93.3189 288.801 93.2433 283.77C93.2433 278.739 93.3188 273.708 93.47 268.677C93.6968 263.646 93.9993 258.615 94.6042 253.584C94.6042 253.359 94.8315 253.208 95.0583 253.208C95.2851 253.208 95.4364 253.434 95.4364 253.659C95.1339 258.69 94.9069 263.646 94.9069 268.677C94.8313 273.708 94.9066 278.739 94.9822 283.695C95.0579 288.726 95.2091 293.757 95.3603 298.713L95.5877 306.222C95.6634 308.7 95.6631 311.253 95.285 313.806C95.285 314.032 95.0585 314.182 94.8316 314.107C94.6804 314.182 94.5289 314.032 94.5289 313.882Z" fill="black"/>
<path d="M83.7149 316.584C83.1856 315.158 83.0344 313.731 82.9588 312.229L82.732 307.874L82.2779 299.088L81.9759 290.303C81.9002 287.374 81.824 284.446 81.7484 281.517C81.7484 281.292 81.8997 281.142 82.1265 281.142C82.3534 281.142 82.5046 281.292 82.5046 281.517C82.8071 284.446 83.0339 287.374 83.2608 290.228L83.9417 298.938L84.4711 307.649L84.7732 312.004C84.8488 313.431 84.8492 314.932 84.4711 316.434C84.3955 316.66 84.1685 316.81 83.9417 316.735C83.866 316.81 83.7906 316.66 83.7149 316.584Z" fill="black"/>
<path d="M89.5383 314.933C88.9334 314.032 88.7064 313.056 88.6308 312.08C88.5552 311.104 88.4797 310.127 88.4041 309.076C88.2528 307.124 88.2523 305.096 88.1766 303.144C88.1766 301.192 88.1771 299.164 88.2527 297.212C88.3283 295.26 88.4035 293.307 88.5547 291.28C88.5547 291.055 88.782 290.904 89.0089 290.904C89.2357 290.904 89.3869 291.055 89.3869 291.28C89.5382 293.232 89.5377 295.184 89.689 297.137L89.9164 302.994C89.992 304.946 90.1428 306.899 90.2184 308.851C90.294 309.827 90.3695 310.803 90.4451 311.779C90.5207 312.23 90.5212 312.756 90.5212 313.206C90.5212 313.732 90.4457 314.182 90.2945 314.708C90.2189 314.933 89.9919 315.083 89.765 315.008C89.6894 315.083 89.6139 315.008 89.5383 314.933Z" fill="black"/>
</svg>
