<svg width="432" height="331" viewBox="0 0 432 331" fill="none" xmlns="http://www.w3.org/2000/svg">
<path d="M357.155 251.184C361.163 249.232 365.171 247.504 369.179 245.777C373.187 244.05 377.195 242.173 381.051 240.07C384.908 237.968 388.689 235.715 392.243 233.237C394.058 231.96 395.797 230.684 397.461 229.257L398.747 228.206L399.956 227.08C400.788 226.329 401.62 225.653 402.376 224.902C408.804 218.97 414.551 212.287 419.088 204.853C421.281 201.098 423.248 197.193 424.76 193.138C426.272 189.083 427.331 184.803 427.86 180.448C427.86 180.223 428.163 179.997 428.39 180.073C428.617 180.073 428.843 180.298 428.768 180.598C427.936 189.459 424.911 198.02 420.45 205.754C415.988 213.488 410.165 220.321 403.737 226.479C402.906 227.23 402.074 227.981 401.242 228.732L400.032 229.858L398.747 230.909C397.007 232.336 395.268 233.688 393.453 234.964C389.823 237.517 385.967 239.845 382.11 242.023C378.178 244.125 374.17 246.078 370.086 247.88C366.003 249.682 361.844 251.184 357.458 252.085C357.231 252.16 356.928 252.01 356.928 251.709C356.853 251.484 357.004 251.259 357.155 251.184Z" fill="black"/>
<path d="M262.101 98.5987C263.009 88.9871 261.345 79.3004 257.716 70.4398C254.086 61.5791 248.717 53.3941 242.289 46.2605C239.113 42.6562 235.634 39.2771 232.005 36.1233C228.375 32.9695 224.518 29.966 220.586 27.2628C212.646 21.7812 204.1 17.0506 195.253 13.0708C186.405 9.01589 177.179 6.08729 167.576 4.36021C158.047 2.70822 148.292 1.88215 138.537 2.03234C119.103 2.25761 99.6685 5.26137 81.1415 11.1935C80.0072 11.569 78.7972 11.9444 77.6629 12.3199L74.2599 13.5214C71.9913 14.2723 69.7227 15.2485 67.4541 16.1496C65.1855 17.0506 62.9924 18.1018 60.7994 19.0028L57.5477 20.5798C56.489 21.1054 55.3549 21.6309 54.2962 22.2316C52.1788 23.3579 49.9857 24.4844 47.9439 25.761L44.8436 27.6382L41.8188 29.5907L40.3064 30.5667C39.777 30.8671 39.3233 31.2424 38.7939 31.6179L35.8446 33.7206C34.8616 34.3965 33.9541 35.2224 32.971 35.9734C32.0636 36.7243 31.0805 37.4752 30.1731 38.3012C22.9135 44.6088 16.2589 51.8172 11.4191 60.1522C10.1336 62.1797 9.1506 64.3573 8.09192 66.5349C7.56257 67.6613 7.18443 68.7879 6.73071 69.8392C6.50385 70.3648 6.27706 70.9653 6.0502 71.491L5.52089 73.2183L4.9914 74.9452L4.68899 75.7713L4.46209 76.6721L3.63038 80.2015C3.25227 82.5293 2.79851 84.9322 2.64727 87.3351C2.19355 92.0658 2.26909 96.9468 2.94968 101.677C3.63026 106.408 4.68906 111.139 6.2771 115.644C7.86513 120.15 9.83112 124.58 12.1754 128.785C14.5196 132.99 17.242 136.97 20.1912 140.8C32.1393 155.968 48.6245 167.607 67.076 173.689L67.1517 173.689C76.7555 177.969 87.2667 180.147 97.7023 181.273C108.214 182.4 118.876 182.475 129.463 181.799C140.05 181.123 150.561 179.696 160.997 177.669C171.432 175.566 181.641 172.863 191.699 169.409C191.926 169.334 192.228 169.484 192.304 169.709C192.379 169.935 192.228 170.235 192.001 170.31C181.944 173.839 171.659 176.617 161.224 178.795C150.788 180.898 140.201 182.4 129.539 183.075C118.876 183.751 108.214 183.751 97.5511 182.7C86.9642 181.574 76.3773 179.396 66.471 175.116L66.5467 175.116C61.8582 173.539 57.3209 171.662 52.8593 169.484C48.4733 167.231 44.2386 164.753 40.2307 161.9C36.2228 159.046 32.3661 155.968 28.8119 152.589C25.2577 149.21 21.9304 145.605 18.83 141.776C15.8052 137.871 13.0828 133.816 10.6629 129.536C8.3187 125.256 6.27695 120.75 4.6133 116.095C2.94964 111.439 1.89095 106.633 1.21037 101.753C0.529784 96.8717 0.454237 91.9157 0.90796 87.0348C1.0592 84.5568 1.51285 82.1538 1.96657 79.7509L2.79848 76.1467L3.02537 75.2455L3.32778 74.3446L3.85709 72.6173L4.38658 70.8904C4.61344 70.2897 4.84023 69.7638 5.06709 69.1631C5.52082 68.0367 5.97447 66.8356 6.50381 65.7092C7.5625 63.5316 8.62119 61.2787 9.90674 59.1762C14.8221 50.6159 21.5525 43.2572 28.9633 36.7994C29.8707 35.9734 30.8536 35.2224 31.8367 34.4715C32.8198 33.7206 33.7273 32.8946 34.7103 32.2188L37.7351 30.0413C38.2645 29.6658 38.7182 29.2901 39.2476 28.9897L40.76 28.0137L43.8605 25.9861L47.0365 24.1088C49.1539 22.8323 51.3469 21.7061 53.4643 20.5047C54.523 19.9039 55.6572 19.3781 56.7915 18.8525L60.1189 17.2759C62.3875 16.2997 64.5805 15.2482 66.8491 14.3471C69.1177 13.446 71.3864 12.4698 73.7306 11.7189L77.2091 10.4426C78.3434 10.0672 79.5534 9.6917 80.6877 9.31625C99.4416 3.30902 119.027 0.230386 138.689 0.00511461C148.519 -0.0699758 158.35 0.680635 168.105 2.33262C172.945 3.23371 177.785 4.28505 182.473 5.78686C184.817 6.46267 187.161 7.3639 189.506 8.1899C191.774 9.09098 194.043 10.067 196.311 11.0432C205.31 15.023 213.931 19.8288 222.022 25.3855C230.114 30.9422 237.676 37.3999 244.179 44.8339C250.683 52.1927 256.203 60.6031 259.682 69.8392C263.236 79.0002 264.597 89.0621 263.311 98.8238C263.311 99.0491 263.009 99.2743 262.782 99.1993C262.253 99.0491 262.101 98.824 262.101 98.5987Z" fill="black"/>
<path d="M2.19293 91.6916C2.41979 93.9443 2.49541 96.1222 2.57103 98.2998C2.64665 100.477 2.57103 102.73 2.57103 104.908L2.34413 118.199C2.19289 127.06 2.11734 135.92 2.04172 144.706C1.9661 153.567 1.89052 162.427 1.89052 171.213L1.81482 197.72C1.81482 197.945 1.58807 198.171 1.36121 198.171C1.13435 198.171 0.907411 197.945 0.907411 197.72C0.604929 188.859 0.37814 179.999 0.226899 171.213C0.0756576 162.352 3.86465e-08 153.491 3.31601e-08 144.631C2.76736e-08 135.77 0.0755838 126.909 0.151204 118.049L0.302409 104.758C0.37803 100.327 0.604928 95.8968 1.28551 91.4664C1.36114 91.2412 1.58796 91.0159 1.81482 91.091C1.96606 91.3163 2.11731 91.4663 2.19293 91.6916Z" fill="black"/>
<path d="M263.084 98.4502C263.689 102.43 263.765 106.485 263.765 110.465C263.765 114.444 263.689 118.499 263.613 122.479C263.462 130.514 263.235 138.548 262.933 146.508C262.555 154.543 262.101 162.502 261.647 170.537C261.118 178.571 260.589 186.531 260.059 194.566C260.059 194.791 259.832 195.016 259.53 195.016C259.303 195.016 259.076 194.791 259.076 194.566C259.303 186.531 259.681 178.571 259.984 170.537C260.286 162.502 260.664 154.543 260.891 146.508C261.194 138.473 261.345 130.514 261.42 122.479C261.496 118.499 261.496 114.444 261.496 110.465C261.496 108.437 261.496 106.485 261.647 104.457C261.723 102.43 261.874 100.478 262.177 98.4502C262.177 98.2249 262.479 97.9997 262.706 98.0748C262.857 98.0748 263.009 98.2249 263.084 98.4502Z" fill="black"/>
<path d="M259.983 194.711C259.832 195.462 259.529 196.213 259.076 196.964C258.622 197.64 258.017 198.316 257.336 198.766C255.9 199.743 254.16 200.118 252.572 200.193C251.74 200.193 250.909 200.118 250.152 199.968L247.959 199.517C246.523 199.217 245.01 198.917 243.573 198.541C237.75 197.19 231.928 195.688 226.18 194.111C220.433 192.459 214.686 190.731 209.015 188.929C203.343 187.052 197.671 185.1 192.151 182.922C191.924 182.847 191.773 182.547 191.924 182.321C192 182.096 192.302 181.946 192.529 182.021C198.201 183.898 203.872 185.626 209.544 187.353C215.215 189.005 220.963 190.657 226.71 192.158C232.457 193.66 238.204 195.162 244.027 196.438C245.464 196.739 246.901 197.039 248.413 197.34L250.606 197.715C251.287 197.865 251.967 197.865 252.648 197.94C254.009 197.94 255.294 197.715 256.429 197.115C256.958 196.814 257.488 196.439 258.017 195.988C258.471 195.538 258.924 195.012 259.302 194.411C259.454 194.186 259.756 194.111 259.983 194.261C259.983 194.336 260.059 194.561 259.983 194.711Z" fill="black"/>
<path d="M429.148 179.848C429.753 184.278 429.904 188.708 429.904 193.214L429.904 206.58C429.904 215.441 429.904 224.376 429.979 233.237C429.979 242.098 430.131 251.034 430.433 259.894C430.66 268.755 431.114 277.616 431.719 286.477C431.719 286.702 431.567 286.927 431.265 287.002C431.038 287.002 430.811 286.852 430.736 286.551C429.828 277.691 429.223 268.83 428.769 259.894C428.316 251.034 428.089 242.098 427.938 233.237C427.786 224.376 427.786 215.441 427.711 206.58L427.635 193.214C427.635 190.961 427.635 188.784 427.711 186.531C427.786 184.278 427.938 182.101 428.164 179.848C428.164 179.623 428.467 179.397 428.694 179.472C428.921 179.472 429.072 179.623 429.148 179.848Z" fill="black"/>
<path d="M2.04109 197.642C4.15847 201.546 6.5784 205.301 9.30074 208.83C12.0231 212.359 14.9722 215.664 18.1483 218.742C24.5004 224.975 31.6844 230.381 39.1709 235.337C42.8763 237.815 46.7328 240.218 50.5895 242.471C54.4461 244.649 58.4541 246.751 62.5376 248.628C64.5793 249.604 66.621 250.43 68.7384 251.256L71.9145 252.458L73.5026 253.059L75.0907 253.584C79.3254 255.086 83.6357 256.212 88.0217 257.264C105.49 261.394 123.715 262.07 141.561 259.967C159.408 257.94 176.952 253.209 193.739 246.751C193.966 246.676 194.269 246.751 194.344 247.052C194.42 247.277 194.344 247.577 194.117 247.652C177.33 254.41 159.786 259.367 141.788 261.619C123.79 263.872 105.339 263.346 87.6436 259.291C83.2576 258.24 78.7959 257.039 74.5612 255.612L72.9733 255.086L71.3851 254.486L68.2091 253.284C66.0917 252.383 63.9743 251.557 61.9326 250.656C57.7734 248.854 53.7655 246.676 49.8333 244.424C45.901 242.171 42.0443 239.768 38.2633 237.215C30.7012 232.259 23.3662 226.777 16.8628 220.394C10.3594 214.087 4.76347 206.578 1.51178 198.092C1.43616 197.867 1.51171 197.567 1.81419 197.492C1.66295 197.342 1.96547 197.492 2.04109 197.642Z" fill="black"/>
<path d="M358.97 329.732C360.482 328.831 362.07 328.005 363.658 327.254C365.246 326.428 366.834 325.753 368.422 325.002L373.187 322.824L377.951 320.496C384.227 317.342 390.428 313.963 396.402 310.284C402.452 306.679 408.35 302.85 414.097 298.72C419.844 294.665 425.44 290.385 430.961 285.954C431.187 285.804 431.49 285.804 431.641 286.03C431.793 286.255 431.792 286.48 431.566 286.705C426.272 291.436 420.752 295.866 415.08 300.071C409.409 304.276 403.51 308.257 397.536 312.011C391.487 315.766 385.286 319.22 378.934 322.449L374.17 324.776L369.33 327.029C367.666 327.705 366.078 328.456 364.415 329.056C362.751 329.657 361.012 330.183 359.272 330.558C359.045 330.633 358.743 330.483 358.667 330.183C358.667 330.033 358.819 329.807 358.97 329.732Z" fill="black"/>
<path d="M191.999 169.786C192.301 171.363 192.452 173.015 192.528 174.592C192.679 176.169 192.679 177.821 192.679 179.398C192.755 182.627 192.755 185.856 192.831 189.085C192.982 195.542 193.209 202 193.436 208.383L193.965 227.756C194.116 234.214 194.192 240.672 194.192 247.13C194.192 247.355 193.965 247.58 193.738 247.58C193.511 247.58 193.284 247.355 193.284 247.13L191.394 208.458C191.091 202 190.864 195.542 190.637 189.085C190.562 185.856 190.486 182.627 190.411 179.398C190.335 176.169 190.486 172.94 191.015 169.711C191.091 169.486 191.318 169.261 191.545 169.336C191.772 169.411 191.923 169.561 191.999 169.786Z" fill="black"/>
<path d="M358.895 252.081C359.198 253.733 359.349 255.385 359.425 256.962C359.5 258.614 359.576 260.266 359.576 261.843L359.651 271.68L359.878 291.278L360.029 310.877C360.029 317.41 360.105 323.942 360.105 330.55C360.105 330.776 359.878 331.001 359.651 331.001C359.424 331.001 359.198 330.776 359.198 330.55C358.895 324.017 358.668 317.484 358.441 310.952L357.836 291.353L357.534 271.68L357.458 261.843C357.458 258.539 357.534 255.31 358.063 252.006C358.139 251.781 358.366 251.555 358.593 251.63C358.744 251.705 358.895 251.856 358.895 252.081Z" fill="black"/>
<path d="M262.781 98.8985C256.807 98.5231 250.909 97.6973 245.011 96.8712C239.112 95.9701 233.214 95.1438 227.315 94.3178C215.518 92.6658 203.722 91.089 191.925 89.5872C180.128 88.0853 168.331 86.8086 156.459 85.6823C144.586 84.5559 132.789 83.5047 120.917 83.1292C120.69 83.1292 120.463 82.9039 120.463 82.6786C120.463 82.4533 120.69 82.2283 120.917 82.2283C126.891 82.3034 132.865 82.5285 138.764 82.8289C144.738 83.1293 150.636 83.5799 156.61 84.0305C168.482 85.0066 180.355 86.2079 192.152 87.5596C203.948 88.9863 215.745 90.5633 227.618 92.1402C233.516 92.9662 239.415 93.7925 245.313 94.6185C251.211 95.5196 257.11 96.4957 262.857 97.9225C263.084 97.9976 263.235 98.2227 263.235 98.5231C263.235 98.8234 263.008 98.9736 262.781 98.8985Z" fill="black"/>
<path d="M428.541 180.823C422.567 180.448 416.669 179.622 410.771 178.796C404.872 177.895 398.974 177.069 393.075 176.243C381.279 174.591 369.482 173.014 357.685 171.512C345.888 170.011 334.091 168.734 322.219 167.608C310.346 166.481 298.55 165.43 286.677 165.055C286.45 165.055 286.224 164.829 286.224 164.604C286.224 164.379 286.45 164.153 286.677 164.153C292.651 164.229 298.625 164.454 304.524 164.754C310.498 165.055 316.396 165.505 322.37 165.956C334.243 166.932 346.115 168.133 357.912 169.485C369.709 170.911 381.505 172.488 393.378 174.065C399.276 174.891 405.175 175.717 411.073 176.543C416.971 177.444 422.87 178.42 428.617 179.847C428.844 179.922 428.995 180.147 428.995 180.448C428.995 180.673 428.768 180.823 428.541 180.823Z" fill="black"/>
<path d="M121.07 82.9801C122.733 84.6321 124.322 86.359 125.834 88.0861C127.422 89.8132 128.859 91.6154 130.371 93.4176C133.32 97.0219 136.345 100.551 139.294 104.155L157.368 125.481C163.342 132.615 169.24 139.824 175.063 147.182C180.81 154.541 186.482 161.9 191.851 169.559C192.002 169.784 191.926 170.085 191.7 170.235C191.473 170.385 191.17 170.31 191.019 170.16C185.423 162.726 179.6 155.442 173.702 148.309C167.803 141.1 161.754 133.966 155.704 126.908L137.555 105.657C134.53 102.128 131.506 98.5237 128.556 94.9194C125.607 91.315 122.734 87.6356 120.238 83.6558C120.087 83.4306 120.162 83.1303 120.389 82.9801C120.692 82.8299 120.919 82.8299 121.07 82.9801Z" fill="black"/>
<path d="M286.829 164.905C288.568 166.557 290.156 168.284 291.668 170.086C293.257 171.813 294.769 173.615 296.281 175.492C299.306 179.097 302.331 182.701 305.356 186.305L323.656 207.932C329.706 215.14 335.68 222.424 341.578 229.858C347.401 237.217 353.148 244.801 358.593 252.46C358.744 252.685 358.668 252.986 358.517 253.136C358.29 253.286 357.988 253.211 357.837 253.061C352.165 245.552 346.267 238.193 340.293 230.909C334.319 223.626 328.193 216.417 322.068 209.283L303.692 187.807C300.667 184.203 297.567 180.599 294.542 176.994C291.517 173.39 288.644 169.636 286.148 165.581C285.997 165.355 286.072 165.055 286.299 164.905C286.451 164.679 286.678 164.754 286.829 164.905Z" fill="black"/>
<path d="M2.04171 100.324C4.08347 96.3439 6.50336 92.5896 9.07446 88.9102C11.6456 85.2307 14.2167 81.6264 16.8634 78.022C22.0812 70.8133 27.4502 63.6046 32.8193 56.5461C38.2639 49.4876 43.7843 42.4291 49.3803 35.5207C55.0518 28.6124 60.7233 21.7042 66.6973 15.0212C66.8485 14.7959 67.151 14.7958 67.3778 14.946C67.6047 15.0962 67.6048 15.3965 67.4535 15.6217C61.782 22.455 56.186 29.4382 50.7413 36.4968C45.221 43.5553 39.852 50.614 34.5586 57.7476C29.1895 64.8812 23.8961 72.0897 18.6782 79.2983C16.1071 82.9027 13.5361 86.5821 10.965 90.1865C9.67943 91.9886 8.39391 93.791 7.03274 95.5931C5.67157 97.3953 4.31033 99.1224 2.79792 100.849C2.64667 101.075 2.34427 101.075 2.1174 100.925C1.96616 100.699 1.96609 100.474 2.04171 100.324Z" fill="black"/>
<path d="M5.21627 113.469C6.50182 111.066 7.86303 108.738 9.2242 106.41C10.661 104.082 12.1733 101.83 13.6857 99.652L18.2987 92.969L22.9871 86.3612C29.2636 77.5756 35.7671 68.8649 42.3461 60.3046C48.9251 51.7443 55.6553 43.2591 62.3855 34.7738C69.1158 26.3637 75.9972 17.9536 82.8031 9.61852C82.9543 9.39325 83.2567 9.39318 83.4836 9.54336C83.7105 9.69354 83.7105 9.99383 83.5593 10.2191L63.671 35.825C57.0164 44.3854 50.4374 52.9459 44.0097 61.5813C37.5063 70.2167 31.0786 78.852 24.8021 87.7126L20.1135 94.3205L15.5007 101.004C13.9883 103.257 12.4758 105.434 10.8878 107.612C9.29978 109.789 7.71175 111.967 5.97248 114.069C5.82124 114.295 5.51883 114.295 5.29196 114.145C5.14072 113.919 5.14065 113.619 5.21627 113.469Z" fill="black"/>
<path d="M2.34352 82.9017C3.47782 80.1233 4.99026 77.57 6.72952 75.1672C8.39316 72.7643 10.1325 70.3614 11.8717 68.0336C15.3502 63.3029 18.9045 58.6475 22.5342 53.992C26.164 49.3364 29.8693 44.7559 33.5746 40.1754C37.28 35.5949 40.9854 31.0895 44.7664 26.584C44.9177 26.3588 45.2201 26.3587 45.4469 26.5089C45.6738 26.6591 45.6739 26.9594 45.5226 27.1846C41.9685 31.9153 38.4143 36.571 34.8601 41.2266C31.306 45.8822 27.6763 50.5376 24.1978 55.2683C20.6437 59.9239 17.0894 64.6548 13.6865 69.3854C11.9473 71.7883 10.2837 74.1161 8.62002 76.519C7.7882 77.7204 6.95645 78.9217 6.04901 80.048C5.14157 81.1744 4.2341 82.3758 3.17542 83.4271C3.02418 83.6523 2.72177 83.6523 2.49491 83.4271C2.26805 83.2769 2.2679 83.1269 2.34352 82.9017Z" fill="black"/>
<path d="M9.60262 126.234C11.115 123.456 12.703 120.753 14.2911 118.049C15.9547 115.421 17.694 112.793 19.4333 110.165L24.7268 102.431L30.0959 94.6962C37.3555 84.4088 44.6907 74.2719 52.1771 64.2098C59.6636 54.1477 67.3012 44.1603 75.0146 34.2484C82.7279 24.3364 90.5168 14.4996 98.2301 4.58765C98.3813 4.36238 98.6839 4.36268 98.9108 4.51286C99.1376 4.66304 99.1375 4.96333 98.9863 5.1886L76.3001 35.2248C68.738 45.2118 61.2516 55.2737 53.8408 65.4109C46.4299 75.4731 39.0947 85.6855 31.9107 95.9729L26.5416 103.707L21.2481 111.442C19.5089 114.07 17.7696 116.623 15.9547 119.176C14.1398 121.729 12.325 124.282 10.3588 126.76C10.2076 126.985 9.90518 126.985 9.67832 126.835C9.52708 126.685 9.527 126.459 9.60262 126.234Z" fill="black"/>
<path d="M15.8803 137.497C18.6027 131.039 22.1569 124.956 25.9379 119.099C29.7945 113.242 33.8023 107.536 37.9615 101.904C42.1206 96.272 46.3554 90.7155 50.5146 85.1588C54.6737 79.6021 58.9084 74.0453 63.1432 68.4886C71.6127 57.4503 80.2334 46.412 88.8541 35.4489C97.4749 24.4857 106.096 13.5226 114.716 2.55944C114.868 2.33417 115.17 2.33409 115.397 2.48427C115.624 2.63445 115.624 2.93474 115.473 3.16001C107.079 14.3485 98.6849 25.4618 90.2154 36.5C81.7458 47.5383 73.2763 58.6519 64.8825 69.7653C60.6477 75.322 56.4885 80.8785 52.3294 86.5103C48.1703 92.067 43.9355 97.6239 39.852 103.256C35.7685 108.887 31.7606 114.594 27.9796 120.376C24.1986 126.233 20.5688 132.09 16.8634 137.947C16.7122 138.172 16.4096 138.248 16.1827 138.097C15.8802 137.947 15.8047 137.722 15.8803 137.497Z" fill="black"/>
<path d="M23.2919 145.308C27.2242 139.001 31.9883 133.294 36.6767 127.587C39.021 124.733 41.3651 121.88 43.5581 118.951L50.2127 110.091C58.9847 98.2262 67.6811 86.287 76.3018 74.2725C84.9226 62.258 93.5433 50.2434 102.013 38.1538L127.648 1.95989C127.8 1.73462 128.102 1.65975 128.329 1.80993C128.556 1.96011 128.556 2.2604 128.48 2.48568C120.162 14.7255 111.844 26.89 103.45 39.1298C95.0559 51.2945 86.5863 63.3844 78.0411 75.474C69.496 87.5636 60.7997 99.503 52.0277 111.442L45.4486 120.378C43.2556 123.382 40.9115 126.235 38.5672 129.089C33.8031 134.796 28.9634 140.277 24.1993 145.909C24.0481 146.134 23.7455 146.134 23.5186 145.984C23.1405 145.759 23.1407 145.534 23.2919 145.308Z" fill="black"/>
<path d="M33.8777 154.088C37.5831 147.18 41.8934 140.572 46.4306 134.189C50.9679 127.807 55.6564 121.499 60.3449 115.191C69.7219 102.651 79.25 90.2612 88.2489 77.4208C97.2477 64.6554 105.793 51.5147 114.565 38.5241C123.261 25.5335 132.26 12.618 141.94 0.303152C142.091 0.0778803 142.393 0.077807 142.62 0.227988C142.847 0.378169 142.847 0.678457 142.696 0.903728C133.168 13.2936 124.471 26.3596 115.926 39.4253C107.305 52.4911 98.9114 65.7068 89.9882 78.6223C80.9893 91.4628 71.4611 103.928 62.1597 116.468C57.4713 122.775 52.8584 129.083 48.3211 135.466C43.7839 141.849 39.3223 148.231 34.7094 154.614C34.5582 154.839 34.2558 154.839 34.0289 154.689C33.8777 154.539 33.8021 154.238 33.8777 154.088Z" fill="black"/>
<path d="M44.6916 164.001C49.6069 157.468 54.2955 150.86 58.984 144.177C63.6725 137.494 68.1341 130.661 72.9738 124.053C82.502 110.762 91.8032 97.3958 100.878 83.8045C110.028 70.2882 119.027 56.697 127.95 43.0305L154.795 2.10623C154.946 1.88095 155.249 1.80572 155.476 1.9559C155.702 2.10608 155.778 2.40673 155.627 2.63201L129.311 43.9317C120.463 57.6733 111.616 71.4146 102.541 85.006C93.4668 98.5973 84.1656 112.039 74.7131 125.33C70.0246 131.938 65.4873 138.771 60.7988 145.529C56.1103 152.212 51.1195 158.82 45.3723 164.677C45.2211 164.827 44.9185 164.827 44.6916 164.677C44.616 164.452 44.616 164.227 44.6916 164.001Z" fill="black"/>
<path d="M58.0022 170.609C60.1196 167.005 62.3126 163.4 64.5812 159.871C66.8498 156.342 69.1185 152.813 71.4627 149.358L85.4525 128.483L113.356 86.6578C122.733 72.766 132.035 58.7992 141.487 44.9825C150.94 31.0907 160.468 17.3491 170.072 3.60751C170.223 3.38224 170.526 3.307 170.753 3.45718C170.979 3.60736 171.055 3.90802 170.904 4.13329C161.451 18.0251 152.15 31.9165 142.848 45.8834C133.547 59.8502 124.321 73.8173 115.096 87.7841L87.2673 129.685L73.2775 150.635C68.5891 157.618 63.8249 164.452 58.6827 171.135C58.5315 171.36 58.2291 171.36 58.0022 171.21C58.0022 171.06 57.9266 170.834 58.0022 170.609Z" fill="black"/>
<path d="M73.3516 176.24C74.3346 174.363 75.469 172.636 76.6033 170.834C77.7376 169.031 78.8718 167.304 80.0817 165.577L83.6358 160.396L87.1145 155.139C91.7273 148.156 96.1888 141.023 100.65 133.889C105.112 126.755 109.498 119.622 113.884 112.488L126.966 91.0123C127.118 90.787 127.42 90.7121 127.647 90.8623C127.874 91.0125 127.95 91.2376 127.798 91.4629C123.715 98.8217 119.48 106.106 115.245 113.314C111.01 120.523 106.7 127.807 102.314 134.94C97.9283 142.074 93.4666 149.207 88.8538 156.266L85.3751 161.522L81.821 166.778C79.4768 170.233 76.9058 173.612 73.9566 176.69C73.8053 176.916 73.5027 176.916 73.2759 176.69C73.2759 176.615 73.276 176.39 73.3516 176.24Z" fill="black"/>
<path d="M293.635 173.69C293.409 173.014 293.484 172.639 293.711 172.263L294.392 171.137C294.845 170.386 295.299 169.635 295.828 168.959C296.887 167.608 297.946 166.181 299.156 164.979C299.307 164.754 299.61 164.754 299.836 164.979C299.988 165.13 299.988 165.355 299.912 165.505C299.231 167.082 298.4 168.584 297.492 170.086C297.038 170.837 296.66 171.588 296.207 172.338L295.602 173.465C295.375 173.84 295.072 174.141 294.392 174.216C294.089 174.216 293.711 174.065 293.635 173.69Z" fill="black"/>
<path d="M132.486 82.2276C134.15 78.7734 136.192 75.5445 138.385 72.3907C140.578 69.2369 142.771 66.1582 145.039 63.0795L158.5 44.532C163.037 38.3746 167.499 32.2171 171.885 26.0597C176.271 19.8272 180.581 13.5946 184.816 7.21192C184.967 6.98665 185.269 6.91178 185.496 7.06196C185.723 7.21214 185.799 7.51236 185.647 7.66254C181.715 14.1954 177.556 20.5782 173.321 26.9609C169.011 33.2685 164.625 39.501 160.239 45.7335L146.93 64.2807C144.737 67.3594 142.544 70.5132 140.351 73.667C139.292 75.2439 138.158 76.7458 137.023 78.3227C135.889 79.8245 134.679 81.3263 133.394 82.753C133.242 82.9783 132.94 82.9783 132.713 82.753C132.486 82.6028 132.41 82.3778 132.486 82.2276Z" fill="black"/>
<path d="M89.3078 180.524C90.8958 177.07 92.862 173.916 94.9038 170.762L101.029 161.376L113.355 142.604L125.757 123.906C129.916 117.673 134.075 111.441 138.31 105.283C138.461 105.058 138.764 104.983 138.991 105.133C139.218 105.284 139.293 105.584 139.142 105.734C135.21 112.117 131.202 118.424 127.194 124.732L115.094 143.655L102.919 162.503L96.7943 171.889C94.7526 175.043 92.6351 178.121 90.1397 180.975C89.9884 181.2 89.686 181.2 89.4592 181.05C89.2323 180.9 89.1565 180.674 89.3078 180.524Z" fill="black"/>
<path d="M304.903 187.957C304.978 186.755 305.508 185.854 306.037 184.953L307.776 182.325C308.911 180.598 310.12 178.871 311.255 177.144C312.465 175.417 313.599 173.69 314.885 171.963C316.094 170.236 317.304 168.584 318.59 166.932C318.741 166.706 319.044 166.706 319.271 166.856C319.422 167.007 319.497 167.232 319.422 167.457C318.439 169.26 317.38 171.062 316.321 172.939C315.263 174.741 314.128 176.543 313.07 178.27C311.935 180.072 310.877 181.8 309.742 183.602L308.079 186.23C307.474 187.131 306.869 187.957 305.81 188.482C305.583 188.633 305.205 188.557 305.054 188.257C304.903 188.182 304.903 188.107 304.903 187.957Z" fill="black"/>
<path d="M152.074 84.259C153.511 81.0302 155.325 78.0267 157.216 75.0231L162.963 66.1623L174.458 48.4413L186.103 30.7952C190.035 24.9382 193.892 19.0809 197.9 13.2238C198.051 12.9986 198.354 12.9237 198.581 13.0739C198.807 13.2241 198.883 13.5243 198.732 13.6745C195.027 19.6817 191.321 25.6137 187.54 31.6209L176.272 49.4925L164.854 67.2886L159.182 76.1495C157.292 79.078 155.25 82.0063 152.906 84.6345C152.754 84.8598 152.452 84.8598 152.225 84.7097C151.998 84.6346 151.923 84.4092 152.074 84.259Z" fill="black"/>
<path d="M106.246 181.647C107.532 178.644 109.196 175.865 111.01 173.162C112.825 170.459 114.64 167.831 116.455 165.128L127.496 149.208C131.201 143.952 134.831 138.621 138.385 133.214C141.939 127.808 145.418 122.401 149.047 117.07C149.199 116.845 149.501 116.769 149.728 116.919C149.955 117.07 150.031 117.37 149.879 117.52L144.888 125.78C143.225 128.559 141.561 131.337 139.822 134.04C136.419 139.522 132.865 144.928 129.235 150.26L118.346 166.254C116.531 168.957 114.716 171.585 112.977 174.288C111.162 176.992 109.347 179.62 107.154 182.023C107.003 182.248 106.7 182.248 106.473 182.023C106.246 182.023 106.171 181.798 106.246 181.647Z" fill="black"/>
<path d="M315.564 199.749C315.942 198.172 316.698 196.745 317.53 195.469L320.026 191.564C321.689 188.936 323.429 186.383 325.092 183.754L330.235 176.02C331.974 173.467 333.713 170.914 335.528 168.361C335.679 168.135 335.982 168.06 336.209 168.211C336.435 168.361 336.436 168.586 336.36 168.811C334.848 171.514 333.259 174.218 331.671 176.846L326.832 184.806C325.168 187.434 323.58 190.062 321.916 192.69L319.421 196.595C318.589 197.872 317.681 199.148 316.396 200.199C316.169 200.35 315.867 200.35 315.715 200.125C315.564 200.049 315.564 199.899 315.564 199.749Z" fill="black"/>
<path d="M168.938 85.6084C170.223 82.6048 171.887 79.7511 173.626 77.0479L178.919 68.8631L189.582 52.4936C193.212 47.0871 196.841 41.6806 200.471 36.2741C204.177 30.9427 207.882 25.5363 211.663 20.28C211.814 20.0547 212.117 20.0547 212.344 20.2048C212.571 20.355 212.571 20.6552 212.495 20.8054C208.941 26.2119 205.387 31.6937 201.832 37.1753C198.278 42.6569 194.8 48.0632 191.321 53.5448L180.81 69.9143L175.592 78.0994C173.853 80.8027 171.962 83.5059 169.769 85.9839C169.618 86.2092 169.316 86.2092 169.089 85.9839C168.862 85.9839 168.786 85.7586 168.938 85.6084Z" fill="black"/>
<path d="M123.336 182.252C124.319 179.699 125.68 177.296 127.117 175.043L131.503 168.211L140.199 154.469L149.047 140.803C151.996 136.297 154.945 131.717 157.97 127.211C158.121 126.986 158.424 126.911 158.651 127.061C158.878 127.211 158.953 127.512 158.802 127.662C156.08 132.317 153.282 136.973 150.484 141.628L142.014 155.52L133.469 169.337L129.159 176.245C127.722 178.573 126.209 180.75 124.243 182.778C124.092 183.003 123.789 183.003 123.563 182.778C123.336 182.628 123.26 182.402 123.336 182.252Z" fill="black"/>
<path d="M324.489 209.883C325.094 207.931 326.077 206.128 327.136 204.477L330.388 199.445C330.917 198.619 331.446 197.718 331.976 196.968L333.715 194.49L337.118 189.609L344.075 179.922C346.419 176.693 348.764 173.465 351.108 170.311C351.259 170.085 351.562 170.085 351.788 170.236C352.015 170.386 352.015 170.686 351.94 170.837C349.822 174.216 347.629 177.519 345.436 180.898L338.857 190.885L335.53 195.841C334.396 197.493 333.261 199.145 332.278 200.797L329.102 205.828C328.044 207.48 326.909 209.132 325.397 210.484C325.17 210.634 324.867 210.634 324.716 210.484C324.489 210.258 324.489 210.033 324.489 209.883Z" fill="black"/>
<path d="M184.515 87.4879C185.725 84.7846 187.313 82.3064 188.977 79.8284L193.968 72.5445C197.295 67.7386 200.622 62.8578 203.874 57.9769C207.126 53.096 210.378 48.215 213.478 43.259C216.654 38.303 219.679 33.2719 222.704 28.2408C222.855 28.0155 223.157 27.9407 223.384 28.0908C223.611 28.241 223.687 28.4662 223.536 28.6914C220.813 33.9478 217.864 39.054 214.915 44.0851C211.89 49.1162 208.789 54.1473 205.613 59.1033C202.437 64.0593 199.11 68.9403 195.858 73.8212L190.867 81.1051C189.204 83.508 187.465 85.9107 185.271 88.0133C185.12 88.1635 184.818 88.1635 184.591 88.0133C184.44 87.9382 184.44 87.7131 184.515 87.4879Z" fill="black"/>
<path d="M139.597 180.75C139.9 179.699 140.353 178.723 140.883 177.746C141.336 176.77 141.866 175.869 142.471 174.968C143.605 173.166 144.739 171.364 145.798 169.486C147.991 165.807 150.108 162.128 152.226 158.448L158.654 147.335C160.847 143.655 162.964 139.976 165.308 136.371C165.459 136.146 165.762 136.071 165.989 136.221C166.216 136.371 166.291 136.597 166.14 136.822L160.166 148.161L154.116 159.424C152.075 163.179 149.957 166.933 147.764 170.613C146.705 172.49 145.571 174.293 144.437 176.095C143.303 177.897 142.017 179.699 140.429 181.126C140.202 181.276 139.9 181.276 139.748 181.126C139.597 181.126 139.521 180.9 139.597 180.75Z" fill="black"/>
<path d="M331.898 219.193C332.276 217.992 332.73 216.94 333.259 215.889C333.789 214.838 334.394 213.786 334.999 212.735C336.209 210.708 337.494 208.68 338.78 206.653C341.351 202.598 343.922 198.693 346.644 194.714L354.735 183L362.902 171.361C363.054 171.136 363.356 171.061 363.583 171.211C363.81 171.361 363.81 171.661 363.734 171.811C361.239 175.866 358.668 179.846 356.097 183.901L348.308 195.84C345.737 199.82 343.166 203.8 340.594 207.854C339.309 209.882 338.099 211.909 336.889 213.937C335.679 215.964 334.394 217.916 332.654 219.718C332.503 219.944 332.201 219.944 331.974 219.718C331.898 219.568 331.823 219.343 331.898 219.193Z" fill="black"/>
<path d="M196.311 88.6111C197.369 85.9829 198.731 83.6549 200.243 81.3271C201.756 78.9993 203.192 76.6717 204.629 74.3439C207.503 69.6883 210.376 65.0325 213.25 60.3019L221.946 46.2598C224.896 41.6042 227.845 36.9486 230.87 32.3681C231.021 32.1428 231.323 32.068 231.55 32.2181C231.777 32.3683 231.853 32.6685 231.701 32.8187C228.903 37.5494 226.105 42.28 223.383 47.0107L215.065 61.2779C212.267 66.0086 209.393 70.7395 206.52 75.3951C205.083 77.7229 203.646 80.0505 202.134 82.3783C200.621 84.7061 199.033 86.9591 197.067 88.9865C196.916 89.2118 196.613 89.2118 196.386 88.9865C196.235 88.9865 196.235 88.7612 196.311 88.6111Z" fill="black"/>
<path d="M156.384 178.724C156.687 177.147 157.367 175.87 158.124 174.594L160.468 170.839C162.056 168.361 163.644 165.883 165.232 163.405L170.072 156.046C171.735 153.568 173.323 151.165 175.063 148.762C175.214 148.537 175.516 148.462 175.743 148.612C175.97 148.762 175.97 148.988 175.894 149.213C174.458 151.766 173.021 154.319 171.509 156.872L167.047 164.456C165.534 167.009 164.022 169.487 162.434 172.04L160.09 175.795C159.334 177.071 158.426 178.273 157.216 179.174C156.989 179.324 156.687 179.324 156.536 179.099C156.384 179.024 156.309 178.874 156.384 178.724Z" fill="black"/>
<path d="M341.655 231.433C342.638 228.73 343.999 226.177 345.436 223.774L349.746 216.49L358.443 201.847L367.215 187.28C370.164 182.474 373.113 177.593 376.138 172.787C376.289 172.562 376.592 172.487 376.818 172.637C377.045 172.787 377.121 173.012 376.97 173.237C374.247 178.193 371.449 183.15 368.651 188.03L360.182 202.823L351.637 217.541L347.326 224.9C345.89 227.378 344.377 229.706 342.411 231.883C342.26 232.109 341.957 232.109 341.73 231.959C341.579 231.808 341.579 231.583 341.655 231.433Z" fill="black"/>
<path d="M209.546 90.1134C210.226 87.7855 211.361 85.6078 212.495 83.5803L216.049 77.348L223.157 64.958L230.417 52.5681C232.837 48.4381 235.257 44.3829 237.752 40.253C237.903 40.0277 238.206 39.9528 238.433 40.103C238.66 40.2532 238.735 40.4783 238.584 40.7036C236.391 44.9086 234.122 49.1139 231.854 53.319L224.972 65.8589L217.94 78.324L214.461 84.5564C213.251 86.6589 212.041 88.6866 210.378 90.4888C210.226 90.7141 209.924 90.7141 209.697 90.4888C209.546 90.4888 209.47 90.2635 209.546 90.1134Z" fill="black"/>
<path d="M173.778 174.14C173.702 173.239 174.004 172.488 174.382 171.812L175.592 169.86C176.349 168.583 177.181 167.232 178.012 165.956C179.676 163.403 181.34 160.85 183.155 158.372C183.306 158.146 183.608 158.146 183.835 158.296C183.986 158.447 184.062 158.672 183.987 158.897C182.701 161.675 181.264 164.379 179.827 167.007C179.071 168.358 178.391 169.635 177.559 170.986L176.424 172.939C176.046 173.614 175.593 174.215 174.685 174.591C174.383 174.741 174.08 174.59 173.929 174.29C173.778 174.29 173.778 174.215 173.778 174.14Z" fill="black"/>
<path d="M349.593 241.12C350.803 238.117 352.391 235.338 354.055 232.635L359.197 224.525C362.6 219.119 366.078 213.712 369.406 208.306C372.809 202.899 376.06 197.417 379.388 191.936C382.715 186.454 386.042 180.972 389.369 175.566C389.521 175.341 389.823 175.265 390.05 175.416C390.277 175.566 390.353 175.791 390.201 176.017C387.101 181.648 383.925 187.205 380.824 192.762C377.648 198.318 374.548 203.875 371.221 209.357C367.893 214.839 364.49 220.245 361.087 225.652L356.021 233.761C354.357 236.465 352.542 239.093 350.425 241.571C350.274 241.796 349.971 241.796 349.744 241.646C349.593 241.496 349.593 241.27 349.593 241.12Z" fill="black"/>
<path d="M222.854 92.8194C223.384 90.792 224.291 88.915 225.274 87.1128L228.299 81.7813L234.424 71.1184L240.625 60.5305C242.743 57.0013 244.86 53.472 246.977 50.0179C247.128 49.7926 247.431 49.7177 247.658 49.8679C247.885 50.0181 247.96 50.2432 247.809 50.4685C245.919 54.1479 244.028 57.7523 242.062 61.3566L236.164 72.1695L230.189 82.9077L227.165 88.2392C226.182 90.0413 225.047 91.7682 223.535 93.27C223.384 93.4953 223.005 93.4953 222.854 93.27C222.854 93.1198 222.854 92.9696 222.854 92.8194Z" fill="black"/>
<path d="M255.675 63.1581C255.599 63.909 255.372 64.6602 255.145 65.336C254.919 66.0118 254.616 66.6874 254.238 67.3632C253.557 68.6397 252.952 69.9916 252.347 71.3432C251.138 73.9714 249.928 76.6744 248.718 79.3776C247.508 82.0809 246.298 84.7092 245.012 87.4124C243.727 90.0406 242.441 92.7438 240.929 95.2969C240.777 95.5222 240.475 95.597 240.248 95.4469C240.021 95.2967 239.946 95.0716 240.021 94.8463C241.231 92.143 242.365 89.4399 243.424 86.7367C244.558 84.0334 245.617 81.3299 246.676 78.5516C247.81 75.8483 248.945 73.0701 250.154 70.442C250.759 69.0903 251.364 67.7388 252.045 66.3872C252.726 65.0355 253.482 63.7588 254.692 62.7826C254.919 62.6324 255.221 62.6325 255.372 62.8578C255.675 62.9329 255.675 63.0079 255.675 63.1581Z" fill="black"/>
<path d="M407.595 177.971C406.461 181.425 404.873 184.654 403.058 187.808C401.319 190.961 399.428 194.04 397.537 197.119C393.756 203.277 389.824 209.284 385.816 215.216C381.808 221.148 377.725 227.08 373.793 233.088C371.827 236.091 369.709 239.02 367.667 241.948C365.55 244.877 363.508 247.805 361.315 250.659C361.164 250.884 360.861 250.884 360.635 250.734C360.408 250.584 360.408 250.283 360.559 250.058C364.643 244.126 368.65 238.193 372.431 232.111C376.288 226.029 380.22 220.022 384.153 214.015C388.085 208.007 392.017 202 395.723 195.918C397.613 192.839 399.428 189.76 401.167 186.681C402.907 183.603 404.721 180.449 406.839 177.52C406.99 177.295 407.292 177.295 407.519 177.445C407.595 177.52 407.671 177.746 407.595 177.971Z" fill="black"/>
<path d="M382.186 240.147C383.472 237.369 385.211 234.891 387.026 232.413L392.395 225.129C395.949 220.248 399.504 215.367 402.831 210.411C406.234 205.455 409.41 200.349 412.51 195.168C414.023 192.54 415.611 189.987 417.048 187.359C418.56 184.73 419.997 182.102 421.585 179.474C421.736 179.249 422.039 179.174 422.265 179.324C422.492 179.474 422.568 179.699 422.417 179.924C419.694 185.256 416.896 190.663 413.947 195.919C410.998 201.175 407.898 206.431 404.57 211.462C401.243 216.494 397.689 221.45 394.21 226.331L388.841 233.689C387.026 236.092 385.136 238.495 382.943 240.598C382.791 240.748 382.489 240.748 382.262 240.598C382.111 240.523 382.035 240.297 382.186 240.147Z" fill="black"/>
<path d="M252.498 96.7199C252.422 95.8188 252.649 95.0679 253.027 94.4672L254.161 92.5148L256.354 88.6103C257.867 86.0572 259.304 83.4288 260.816 80.8757C260.967 80.6504 261.27 80.5755 261.497 80.7257C261.724 80.8759 261.799 81.1009 261.723 81.2511C260.74 84.1046 259.53 86.8829 258.169 89.5111C257.489 90.8628 256.808 92.2146 256.052 93.4912L254.993 95.4432C254.615 96.1191 254.161 96.7199 253.33 97.0954C253.027 97.2456 252.725 97.0955 252.573 96.7951C252.573 96.8702 252.498 96.795 252.498 96.7199Z" fill="black"/>
<path d="M358.82 330.48C357.156 328.753 355.643 326.876 354.207 325.074C352.694 323.272 351.182 321.47 349.669 319.592L345.132 314.186L340.444 308.855C334.092 301.796 327.361 295.113 320.631 288.28C313.977 281.447 307.246 274.689 300.894 267.555C294.542 260.421 288.492 253.063 283.123 245.178C282.972 244.953 283.048 244.652 283.274 244.502C283.501 244.352 283.804 244.427 283.955 244.653C289.475 252.387 295.752 259.52 302.18 266.504C308.607 273.487 315.413 280.17 322.219 286.853C328.949 293.611 335.68 300.294 342.183 307.353L346.947 312.684L351.56 318.166C353.072 320.043 354.509 321.92 355.946 323.873C357.307 325.825 358.593 327.853 359.727 329.955C359.878 330.18 359.803 330.481 359.576 330.631C359.198 330.706 358.971 330.631 358.82 330.48Z" fill="black"/>
<path d="M286.753 165.281C287.131 168.66 286.98 171.964 286.753 175.343L285.997 185.33C285.467 192.013 284.938 198.621 284.56 205.305C284.106 211.988 283.728 218.596 283.653 225.279C283.501 231.962 283.653 238.57 283.955 245.253C283.955 245.478 283.804 245.703 283.501 245.779C283.274 245.779 283.048 245.628 282.972 245.328C282.291 238.645 281.989 231.962 281.913 225.279C281.913 218.596 282.065 211.913 282.443 205.229C282.821 198.546 283.275 191.863 283.804 185.255L284.484 175.268C284.56 173.616 284.711 171.964 284.938 170.312C285.165 168.66 285.392 167.008 285.77 165.356C285.846 165.131 286.072 164.905 286.375 164.981C286.526 164.905 286.677 165.056 286.753 165.281Z" fill="black"/>
<path d="M232.533 162.35C231.475 161.974 230.34 161.824 229.131 161.824C228.526 161.824 227.921 161.899 227.391 161.899C226.862 161.974 226.408 162.199 225.879 162.425C224.896 162.875 223.913 163.251 223.006 163.926C222.098 164.527 221.342 165.278 220.812 166.179C220.586 166.63 220.359 167.08 220.208 167.531C220.132 167.756 220.132 167.981 220.056 168.207C220.056 168.357 220.056 168.432 220.056 168.582L220.056 169.032C220.056 170.159 220.132 171.36 220.283 172.411C220.434 173.463 220.737 174.439 221.342 175.34C221.947 176.241 222.703 177.142 223.459 178.043L223.232 177.893C225.198 179.169 227.77 179.47 230.19 179.17C231.399 179.019 232.609 178.644 233.592 178.043C233.819 177.893 234.046 177.743 234.273 177.593C234.499 177.443 234.575 177.218 234.802 176.992C235.18 176.467 235.407 175.941 235.71 175.415C236.163 174.289 236.466 173.087 236.617 171.811C236.693 170.534 236.617 169.333 236.391 168.056C236.239 167.456 236.163 166.78 235.936 166.179C235.785 165.578 235.559 165.053 235.256 164.527C234.727 163.476 233.743 162.725 232.533 162.35ZM232.912 161.449C234.197 161.899 235.407 162.725 236.239 163.926C236.617 164.527 236.919 165.203 237.071 165.804C237.298 166.404 237.449 167.08 237.6 167.756C238.129 170.384 238.129 173.162 237.071 175.791C236.768 176.391 236.541 177.067 236.088 177.668C235.937 177.968 235.634 178.269 235.407 178.569C235.104 178.869 234.803 179.02 234.5 179.245C233.29 179.996 231.929 180.446 230.568 180.671C227.845 181.197 224.896 180.897 222.401 179.47C222.325 179.47 222.249 179.395 222.249 179.32C221.418 178.419 220.586 177.518 219.829 176.467C219.073 175.415 218.544 174.063 218.317 172.787C218.09 171.51 218.014 170.309 218.014 169.032L218.014 168.582C218.014 168.432 218.014 168.207 218.014 168.056C218.014 167.681 218.09 167.38 218.166 167.005C218.317 166.329 218.62 165.653 218.998 165.053C219.679 163.851 220.661 162.875 221.72 162.124C222.779 161.373 223.989 160.698 225.274 160.473C225.955 160.322 226.636 160.322 227.316 160.397C227.921 160.472 228.526 160.547 229.131 160.622C230.492 160.772 231.702 160.998 232.912 161.449Z" fill="black"/>
<path d="M300.215 219.87C299.761 219.795 299.233 219.87 298.779 220.02C298.325 220.246 297.947 220.471 297.645 220.846C296.964 221.522 296.51 222.348 295.981 223.174C295.451 224 295.073 224.976 294.77 225.877C294.544 226.854 294.392 227.83 294.392 228.806C294.392 230.834 294.77 232.861 295.527 234.738C295.905 235.639 296.434 236.541 297.039 237.291C297.644 238.042 298.476 238.643 299.232 239.018C300.064 239.319 300.896 239.244 301.652 238.868C302.409 238.418 303.089 237.667 303.543 236.766C303.997 235.865 304.299 234.889 304.45 233.912C304.526 232.861 304.601 231.81 304.601 230.758C304.525 228.656 304.299 226.478 303.694 224.45C303.392 223.474 303.013 222.423 302.409 221.597C301.879 220.696 301.123 220.02 300.215 219.87ZM300.291 218.969C300.896 219.044 301.501 219.344 302.03 219.72C302.484 220.095 302.938 220.546 303.24 220.996C303.921 221.973 304.299 223.024 304.677 224.075C305.358 226.177 305.66 228.43 305.811 230.608C305.887 231.734 305.887 232.786 305.811 233.912C305.736 235.114 305.433 236.24 304.904 237.291C304.375 238.343 303.619 239.394 302.56 240.07C301.501 240.821 299.913 240.971 298.703 240.52C297.493 240.07 296.51 239.319 295.678 238.418C294.846 237.517 294.241 236.54 293.712 235.489C292.729 233.386 292.275 231.059 292.2 228.731C292.2 227.604 292.275 226.403 292.578 225.201C292.88 224 293.334 222.949 294.014 221.898C294.619 220.846 295.527 219.945 296.661 219.42C297.266 219.119 297.871 218.969 298.476 218.894C299.081 218.894 299.686 218.894 300.291 218.969Z" fill="black"/>
<path d="M185.044 107.611C184.288 107.686 183.456 107.986 182.776 108.361C182.095 108.737 181.415 109.263 180.81 109.863C179.676 110.99 178.616 112.266 177.709 113.543C175.894 116.171 175.062 119.475 175.592 122.478C175.894 123.98 176.65 125.407 177.558 126.758C178.465 128.11 179.6 129.312 180.885 130.288C182.171 131.339 183.532 132.165 185.12 132.615C185.876 132.841 186.632 132.991 187.464 133.066C188.221 133.141 189.052 133.066 189.884 132.991C191.472 132.765 193.136 132.315 194.497 131.564C195.177 131.189 195.783 130.663 196.312 130.137C196.841 129.537 197.295 128.861 197.748 128.185C198.58 126.759 199.261 125.257 199.488 123.68C199.714 122.103 199.639 120.451 199.261 118.799C198.883 117.147 198.202 115.645 197.522 114.068C197.144 113.317 196.765 112.491 196.387 111.815C195.934 111.139 195.404 110.539 194.724 110.088C193.438 109.112 191.85 108.512 190.186 108.136C188.447 107.761 186.708 107.611 185.044 107.611ZM185.044 106.709C186.859 106.709 188.598 106.785 190.338 107.16C192.077 107.536 193.816 108.211 195.253 109.263C196.009 109.788 196.614 110.464 197.144 111.215C197.673 112.041 198.051 112.792 198.429 113.543C199.185 115.12 199.866 116.697 200.395 118.424C200.849 120.151 201.076 121.953 200.849 123.755C200.622 125.557 199.941 127.284 199.109 128.861C198.656 129.612 198.202 130.363 197.597 131.113C196.992 131.864 196.236 132.465 195.404 132.916C193.816 133.892 192.001 134.418 190.186 134.643C189.279 134.793 188.372 134.793 187.464 134.793C186.557 134.718 185.574 134.567 184.666 134.342C182.851 133.817 181.263 132.916 179.751 131.79C178.314 130.663 177.028 129.387 175.97 127.885C174.911 126.383 174.004 124.731 173.55 122.854C172.794 119.099 173.853 115.269 175.894 112.191C176.878 110.614 178.238 109.338 179.826 108.361C181.414 107.535 183.154 106.859 185.044 106.709Z" fill="black"/>
<path d="M221.87 107.762C221.644 107.537 221.265 107.387 220.812 107.237C220.433 107.087 219.98 107.011 219.526 106.936C218.694 106.786 217.787 106.636 217.031 106.711L214.535 106.936C213.703 107.011 212.947 107.162 212.191 107.387C210.679 107.838 209.469 108.738 208.864 110.09C208.183 111.367 208.108 113.094 208.259 114.671C208.486 116.398 208.712 118.049 209.468 119.326C210.225 120.527 211.738 121.278 213.326 121.579C216.577 122.254 220.131 121.504 222.929 119.552L222.778 119.701C223.459 118.725 224.063 117.749 224.517 116.698C224.971 115.647 225.198 114.521 225.122 113.394C225.122 112.268 224.744 111.142 224.139 110.166C223.837 109.715 223.458 109.189 223.08 108.813C222.778 108.513 222.4 108.213 221.87 107.762ZM222.475 107.086C223.383 107.762 224.366 108.739 225.047 109.79C225.727 110.916 226.105 112.117 226.181 113.469C226.257 114.746 226.029 116.022 225.575 117.224C225.122 118.425 224.517 119.551 223.836 120.603C223.836 120.678 223.761 120.678 223.685 120.753C220.736 123.006 216.804 123.982 213.023 123.306C212.115 123.156 211.132 122.856 210.225 122.405C209.317 121.955 208.486 121.279 207.881 120.378C207.276 119.552 206.973 118.576 206.67 117.675C206.444 116.773 206.293 115.872 206.142 114.971C205.915 113.094 205.914 111.066 206.822 109.189C207.276 108.213 207.956 107.387 208.712 106.711C209.544 106.035 210.452 105.585 211.435 105.285C213.326 104.684 215.292 104.533 217.107 104.984C218.09 105.209 218.921 105.509 219.829 105.81C220.282 105.96 220.661 106.11 221.114 106.335C221.644 106.561 222.097 106.711 222.475 107.086Z" fill="black"/>
<path d="M208.712 161.903C208.788 161.677 208.713 161.377 208.637 161.077C208.561 160.777 208.485 160.476 208.334 160.176C208.107 159.575 207.805 158.974 207.427 158.524C207.049 157.998 206.595 157.548 206.217 157.097C205.839 156.647 205.461 156.196 205.083 155.821C204.251 155.07 203.268 154.769 202.209 154.92C201.151 155.07 200.091 155.67 199.108 156.421C198.125 157.247 197.067 158.073 196.538 158.975C196.311 159.425 196.16 159.876 196.16 160.476C196.16 161.002 196.235 161.602 196.462 162.203C196.84 163.33 197.445 164.456 198.277 165.357C199.109 166.258 200.167 167.009 201.302 167.459L201.075 167.384C202.89 167.534 204.705 167.234 206.142 166.333C206.898 165.883 207.427 165.207 207.881 164.456C208.335 163.705 208.561 162.879 208.712 161.903ZM209.62 162.128C209.544 163.029 209.242 164.08 208.788 164.906C208.335 165.807 207.654 166.558 206.822 167.159C205.99 167.759 205.007 168.135 204.024 168.361C203.041 168.586 202.058 168.66 201.075 168.66C200.999 168.66 200.924 168.66 200.924 168.66C198.201 167.684 195.932 165.507 194.949 162.729C194.722 162.053 194.496 161.302 194.496 160.476C194.42 159.725 194.647 158.824 195.025 158.073C195.782 156.647 196.916 155.67 197.899 154.769C199.033 153.868 200.319 153.042 201.983 152.742C202.814 152.591 203.646 152.667 204.478 152.892C205.31 153.117 205.99 153.568 206.595 154.094C207.805 155.07 208.712 156.346 209.09 157.773C209.317 158.524 209.393 159.199 209.545 159.875C209.62 160.25 209.62 160.551 209.695 160.927C209.62 161.302 209.696 161.677 209.62 162.128Z" fill="black"/>
<path d="M160.542 110.388C160.693 110.313 160.92 110.088 161.147 109.788C161.298 109.562 161.525 109.261 161.676 108.961C161.978 108.36 162.281 107.76 162.357 107.234C162.508 106.558 162.584 105.957 162.66 105.432C162.811 104.831 162.886 104.305 162.886 103.705C162.886 102.578 162.508 101.677 161.676 100.926C160.844 100.25 159.71 99.7998 158.5 99.5745C157.215 99.3492 155.929 99.1241 154.87 99.3494C154.341 99.4995 153.887 99.65 153.509 100.025C153.055 100.401 152.677 100.851 152.375 101.377C151.694 102.428 151.316 103.63 151.165 104.831C151.014 106.032 151.165 107.309 151.543 108.511L151.467 108.286C152.526 109.712 153.963 110.914 155.626 111.364C156.458 111.59 157.366 111.589 158.198 111.439C158.954 111.289 159.71 110.989 160.542 110.388ZM160.996 111.214C160.24 111.74 159.256 112.191 158.349 112.416C157.366 112.641 156.307 112.641 155.324 112.416C154.341 112.191 153.433 111.74 152.601 111.139C151.77 110.538 151.089 109.862 150.409 109.111C150.333 109.036 150.333 109.036 150.333 108.961C149.35 106.258 149.502 103.104 150.938 100.551C151.316 99.8747 151.77 99.2744 152.299 98.7488C152.829 98.2231 153.66 97.7721 154.417 97.5468C156.005 97.1714 157.442 97.3966 158.878 97.5468C160.315 97.7721 161.827 98.2233 163.113 99.2746C163.718 99.8002 164.323 100.476 164.625 101.227C165.003 101.978 165.155 102.804 165.155 103.63C165.155 105.207 164.852 106.709 164.021 107.91C163.567 108.586 163.113 109.112 162.66 109.637C162.433 109.938 162.206 110.163 161.979 110.463C161.601 110.688 161.374 110.989 160.996 111.214Z" fill="black"/>
<path d="M254.312 145.081C254.539 144.33 254.54 143.428 254.388 142.602C254.237 141.776 254.01 140.951 253.632 140.2C252.952 138.698 252.12 137.271 251.137 135.92C250.154 134.568 248.944 133.442 247.582 132.541C246.221 131.639 244.633 130.963 243.121 130.738C241.608 130.513 239.869 130.738 238.281 131.113C236.693 131.564 235.105 132.165 233.668 132.991C232.231 133.817 230.946 134.868 229.887 136.22C229.358 136.895 228.904 137.572 228.601 138.323C228.299 139.074 227.996 139.899 227.845 140.65C227.467 142.302 227.316 143.954 227.618 145.606C227.77 146.432 227.997 147.183 228.375 147.859C228.753 148.535 229.282 149.286 229.812 149.962C230.87 151.313 232.08 152.439 233.593 153.265C235.03 154.091 236.693 154.542 238.432 154.767C240.171 154.993 241.911 154.917 243.65 154.767C244.482 154.692 245.465 154.617 246.221 154.467C247.053 154.317 247.809 153.941 248.49 153.491C249.927 152.589 251.061 151.313 252.044 149.886C252.951 148.309 253.707 146.658 254.312 145.081ZM255.22 145.381C254.615 147.108 253.859 148.76 252.876 150.262C251.893 151.764 250.607 153.19 249.019 154.167C248.263 154.692 247.356 155.068 246.448 155.293C245.465 155.518 244.633 155.593 243.725 155.668C241.911 155.894 240.096 155.969 238.281 155.819C236.466 155.669 234.576 155.218 232.912 154.392C231.248 153.566 229.811 152.289 228.601 150.862C227.996 150.111 227.468 149.436 226.938 148.61C226.409 147.784 226.106 146.808 225.955 145.907C225.577 144.029 225.728 142.077 226.182 140.275C226.409 139.374 226.636 138.473 227.014 137.572C227.392 136.671 227.921 135.844 228.451 135.093C229.585 133.591 231.097 132.315 232.685 131.339C234.273 130.362 236.012 129.612 237.827 129.086C239.642 128.635 241.533 128.336 243.575 128.561C247.507 129.162 250.834 131.564 253.103 134.643C254.237 136.145 255.069 137.947 255.371 139.749C255.598 141.626 255.674 143.504 255.22 145.381Z" fill="black"/>
<path d="M331.445 265.225C330.613 266.126 330.084 267.477 329.857 268.829C329.63 270.181 329.479 271.532 329.252 272.809C328.874 275.437 328.949 278.215 329.554 280.693C329.706 281.294 329.933 281.97 330.16 282.496C330.387 283.021 330.689 283.547 331.067 284.072C331.823 285.048 332.807 285.874 333.941 286.4C335.075 286.925 336.285 287.151 337.419 286.926C338.024 286.775 338.553 286.551 339.007 286.25C339.536 285.875 339.99 285.424 340.444 284.973C341.351 283.997 342.032 282.871 342.561 281.669C342.864 281.068 343.015 280.468 343.166 279.792C343.242 279.492 343.317 279.191 343.317 278.816L343.469 277.764C343.771 275.061 343.695 272.283 342.788 269.73C342.334 268.454 341.654 267.252 340.897 266.125C340.519 265.6 340.066 265 339.612 264.474L338.932 263.723C338.705 263.498 338.477 263.272 338.251 263.047C337.268 262.296 335.907 262.371 334.697 262.822C333.638 263.573 332.428 264.399 331.445 265.225ZM330.765 264.549C331.899 263.573 333.033 262.746 334.47 262.146C335.15 261.845 335.906 261.695 336.738 261.695C337.57 261.695 338.326 261.996 339.007 262.446C339.309 262.672 339.612 262.972 339.839 263.197L340.595 263.948C341.049 264.474 341.503 265 341.956 265.6C342.788 266.727 343.545 268.003 344.15 269.355C345.284 272.058 345.435 275.061 345.208 277.915L345.133 278.966C345.057 279.342 345.057 279.717 344.906 280.093C344.755 280.843 344.527 281.519 344.225 282.27C343.62 283.621 342.864 284.898 341.805 286.024C341.276 286.625 340.746 287.076 340.141 287.602C339.461 288.052 338.705 288.427 337.949 288.652C336.361 289.103 334.621 288.803 333.185 288.202C331.748 287.526 330.462 286.55 329.479 285.349C328.95 284.748 328.571 284.072 328.193 283.321C327.891 282.646 327.664 281.894 327.437 281.143C326.681 278.215 326.605 275.287 327.059 272.358C327.286 270.932 327.739 269.505 328.42 268.153C329.025 267.027 329.706 265.75 330.765 264.549Z" fill="black"/>
<path d="M314.052 227.68C314.96 227.83 315.868 227.605 316.624 227.154C317.38 226.704 317.909 226.103 318.514 225.502C319.119 224.902 319.649 224.151 320.027 223.4C320.405 222.649 320.632 221.823 320.708 220.922C320.859 219.195 320.556 217.318 319.875 215.741C319.497 214.915 319.044 214.164 318.439 213.563C317.834 212.887 317.153 212.361 316.321 212.061C315.565 211.761 314.733 211.611 313.977 211.836C313.221 212.061 312.465 212.512 311.86 213.113C311.255 213.788 310.801 214.539 310.574 215.365C310.347 216.191 310.196 217.243 310.196 218.144C310.12 220.021 310.272 221.973 310.801 223.775C311.103 224.676 311.482 225.502 312.011 226.253C312.389 227.004 313.145 227.53 314.052 227.68ZM313.826 228.656C312.691 228.431 311.709 227.755 311.104 226.929C310.423 226.103 310.045 225.127 309.667 224.151C309.062 222.199 308.835 220.171 308.835 218.144C308.835 217.092 308.91 216.116 309.137 215.065C309.364 214.013 309.893 213.037 310.65 212.211C311.33 211.385 312.313 210.71 313.448 210.334C314.582 209.959 315.792 210.109 316.85 210.485C317.909 210.86 318.817 211.536 319.649 212.287C320.405 213.038 321.085 213.939 321.539 214.915C322.522 216.867 322.9 219.044 322.749 221.222C322.673 222.273 322.371 223.399 321.917 224.451C321.463 225.502 320.783 226.328 320.027 227.154C319.27 227.98 318.211 228.581 317.077 228.806C316.019 228.957 314.884 228.806 313.826 228.656Z" fill="black"/>
</svg>
