<svg width="726" height="388" viewBox="0 0 726 388" fill="none" xmlns="http://www.w3.org/2000/svg">
<path d="M30.7546 101.222C59.5652 98.3019 88.4724 97.0515 117.448 96.9939C146.404 97.0093 175.356 98.1982 204.118 100.667C232.953 103.156 261.618 106.852 290.093 111.829L300.754 113.798L306.057 114.736C307.849 115.055 309.642 115.375 311.414 115.767L322.015 117.955C325.579 118.667 329.071 119.359 332.596 120.216L343.158 122.551L348.475 123.728L353.733 125.123L356.362 125.822C357.238 126.054 358.095 126.36 358.971 126.593L364.17 128.208C365.903 128.746 367.616 129.357 369.329 129.969L374.469 131.803C388.061 136.821 401.31 142.531 414.348 148.733C427.386 154.934 440.232 161.555 452.775 168.721C455.897 170.489 458.98 172.404 462.102 174.172C465.185 176.087 468.267 178.001 471.277 179.896C474.247 181.938 477.33 183.852 480.261 186.039L482.487 187.648L483.61 188.416L484.713 189.257L488.96 192.655C494.411 197.39 499.994 201.926 505.729 206.189C511.464 210.451 517.404 214.534 523.497 218.343C529.589 222.153 535.794 225.836 541.999 229.519L551.307 235.043L553.592 236.433L554.734 237.128L555.007 237.278L555.279 237.429C555.406 237.541 555.625 237.599 555.844 237.657C557.431 238.157 559.209 238.237 560.988 238.318C564.544 238.48 568.18 238.349 571.743 238.199C575.306 238.049 578.961 237.845 582.544 237.622L604.225 236.175C618.628 235.302 633.157 234.54 647.629 234.86C654.855 235.056 662.095 235.49 669.27 236.456C672.874 237.021 676.458 237.66 679.964 238.59C683.449 239.594 686.876 240.817 690.144 242.624C690.343 242.756 690.43 243.013 690.278 243.286C690.146 243.486 689.887 243.574 689.615 243.423C686.492 241.655 683.119 240.524 679.707 239.54C676.274 238.629 672.69 237.99 669.159 237.444C662.058 236.498 654.818 236.064 647.645 235.96C633.226 235.733 618.789 236.441 604.346 237.46L582.719 238.999C579.137 239.222 575.461 239.499 571.899 239.649C568.263 239.78 564.7 239.93 560.977 239.803C559.126 239.703 557.347 239.622 555.376 239.098C555.156 239.04 554.864 238.963 554.665 238.832L554.32 238.662L554.047 238.511L552.905 237.816L550.619 236.427L541.312 230.902C535.107 227.219 528.902 223.536 522.809 219.727C516.717 215.917 510.704 211.815 504.895 207.533C499.087 203.251 493.451 198.623 487.981 193.961L483.807 190.582L482.776 189.761L481.653 188.993L479.5 187.403C476.643 185.235 473.56 183.321 470.57 181.353C467.58 179.384 464.477 177.543 461.395 175.629C458.292 173.787 455.19 171.945 452.068 170.177C439.579 163.103 426.733 156.483 413.768 150.301C400.71 144.172 387.554 138.409 374.014 133.483L368.928 131.741C367.215 131.13 365.575 130.538 363.842 129.999L358.716 128.404C357.84 128.171 356.983 127.865 356.107 127.633L353.478 126.935L348.293 125.558L342.976 124.381L332.414 122.047C328.869 121.262 325.378 120.57 321.813 119.859L311.192 117.744C309.42 117.351 307.628 117.032 305.909 116.732L300.605 115.794L289.945 113.825C261.543 108.867 232.858 105.244 204.096 102.775C175.334 100.306 146.455 99.1369 117.625 99.2332C88.762 99.1642 59.855 100.414 31.0486 102.161C30.8098 102.176 30.5571 101.952 30.5433 101.713C30.3105 101.417 30.5158 101.237 30.7546 101.222Z" fill="black"/>
<path d="M690.41 242.578C689.446 244.98 688.137 247.212 686.775 249.351C685.413 251.491 684.051 253.631 682.689 255.771C679.892 260.031 677.042 264.199 674.119 268.347C671.269 272.515 668.346 276.664 665.568 280.851C664.133 282.971 662.791 285.038 661.502 287.197C660.894 288.286 660.286 289.376 659.771 290.411C659.54 290.975 659.329 291.466 659.283 291.923L659.174 293.77C658.859 298.688 659.646 303.586 661.188 308.293C662.73 313 664.862 317.551 667.107 321.975C669.405 326.492 671.816 330.882 673.928 335.506C676.133 340.076 678.06 344.807 679.45 349.787L679.503 349.879C678.321 352.222 678.736 350.691 678.524 351.182L678.266 351.27L677.862 351.319L677.125 351.436C676.628 351.539 676.15 351.569 675.6 351.579C674.572 351.619 673.617 351.679 672.608 351.646C670.572 351.653 668.668 351.461 666.691 351.249C662.756 350.753 658.92 349.893 655.143 348.813C651.367 347.734 647.649 346.436 644.025 345.084C642.186 344.362 640.42 343.66 638.581 342.938C636.815 342.235 634.996 341.44 633.177 340.645C626.026 337.577 619.087 334.018 612.28 330.26C605.473 326.502 598.838 322.398 592.315 318.168C585.792 313.938 579.382 309.582 572.992 305.152C566.581 300.796 560.283 296.313 553.721 292.229C550.44 290.187 547.139 288.218 543.759 286.54C542.033 285.692 540.267 284.989 538.515 284.524C538.077 284.408 537.639 284.292 537.181 284.249L536.504 284.148L535.807 284.119L532.915 283.821L527.109 283.298C525.205 283.106 523.281 282.987 521.284 282.848L515.459 282.398L509.687 282.04C478.719 280.239 447.603 280.43 416.487 280.621C385.37 280.813 354.287 281.169 323.161 279.951C307.598 279.342 292.06 278.349 276.608 276.753C261.156 275.158 245.735 272.867 230.478 269.682C226.716 268.841 222.86 268.053 219.117 267.139L213.475 265.721C211.558 265.291 209.699 264.642 207.874 264.158L202.272 262.595L196.729 260.813L193.922 259.913C192.992 259.588 192.043 259.336 191.134 258.939L185.65 256.938C171.098 251.439 157.147 244.302 143.93 236.187C130.732 227.999 118.103 218.868 106.037 209.105C93.97 199.341 82.4658 188.946 71.3388 178.024L67.1975 173.957L63.1492 169.836C60.4504 167.088 57.7714 164.268 55.0923 161.448C49.807 155.826 44.3561 150.239 39.5208 144.112C37.0667 141.039 34.778 137.932 32.7877 134.59C30.7973 131.249 29.0122 127.728 27.8369 123.978C27.5431 123.041 27.3222 122.122 27.0481 121.112C26.8471 120.121 26.6265 119.203 26.5912 118.177C26.3351 116.234 26.3374 114.203 26.5588 112.229C26.9286 108.264 28.5791 104.481 30.7879 101.237C30.9201 101.038 31.2515 100.969 31.4508 101.1C31.65 101.231 31.717 101.561 31.5848 101.761C29.4688 104.951 27.9506 108.534 27.5473 112.335C27.3457 114.235 27.3828 116.121 27.6389 118.064C27.694 119.017 27.9149 119.935 28.1357 120.853C28.3565 121.771 28.5773 122.689 28.8711 123.627C31.281 130.909 35.6327 137.377 40.4147 143.412C45.2697 149.466 50.6674 154.96 55.9527 160.582C58.6318 163.402 61.3111 166.222 64.0297 168.897L68.078 173.018L72.2189 177.085C83.3125 187.841 94.8165 198.237 106.903 207.928C118.989 217.619 131.565 226.658 144.709 234.753C157.946 242.795 171.752 249.893 186.251 255.3L191.66 257.281C192.59 257.606 193.519 257.93 194.376 258.235L197.11 259.117L202.653 260.899L208.255 262.462C210.153 262.965 211.958 263.522 213.857 264.025L219.498 265.443C223.221 266.43 227.024 267.125 230.86 267.985C246.043 271.151 261.391 273.422 276.843 275.018C292.295 276.613 307.76 277.587 323.323 278.196C354.376 279.395 385.459 279.038 416.595 278.774C447.732 278.51 478.848 278.319 509.909 280.067L515.754 280.444L521.579 280.894C523.503 281.014 525.5 281.152 527.404 281.345L533.209 281.868L536.102 282.166L536.871 282.213L537.621 282.334C538.152 282.396 538.663 282.532 539.174 282.668C541.145 283.19 542.965 283.985 544.784 284.78C548.31 286.496 551.684 288.484 555.018 290.619C561.633 294.795 567.951 299.205 574.361 303.562C580.771 307.918 587.182 312.275 593.631 316.485C600.174 320.643 606.736 324.727 613.47 328.466C620.204 332.205 627.071 335.744 634.241 338.739C641.338 341.715 648.528 344.637 655.955 346.684C659.659 347.744 663.421 348.585 667.21 349.043C669.114 349.235 671.019 349.427 672.909 349.381C673.844 349.395 674.799 349.335 675.754 349.276C676.159 349.227 676.636 349.197 677.134 349.094L677.797 348.957L678.128 348.889L678.221 348.836C678.102 349.273 678.663 347.78 677.52 349.978L677.554 350.143C676.177 345.402 674.304 340.764 672.172 336.213C670.039 331.662 667.629 327.271 665.404 322.774C663.106 318.257 660.994 313.633 659.418 308.761C657.842 303.889 657.062 298.68 657.383 293.451L657.511 291.531C657.655 290.71 657.926 290 658.23 289.456C658.785 288.274 659.485 287.131 660.093 286.042C661.475 283.829 662.817 281.763 664.252 279.642C667.103 275.474 670.099 271.345 673.022 267.197C675.945 263.048 678.922 258.992 681.845 254.844C683.26 252.796 684.695 250.676 686.057 248.536C687.419 246.396 688.781 244.256 689.778 242.02C689.838 241.801 690.189 241.66 690.388 241.791C690.382 242.102 690.542 242.379 690.41 242.578Z" fill="black"/>
<path d="M237.515 105.523C237.017 108.811 236.373 112.06 235.729 115.31C235.085 118.559 234.368 121.789 233.579 125L229.135 144.343C226.196 157.245 223.31 170.238 220.299 183.12C217.195 196.056 213.966 208.88 210.427 221.7C206.815 234.5 202.933 247.151 198.522 259.739C198.463 259.956 198.186 260.116 197.896 260.039C197.678 259.981 197.519 259.705 197.598 259.415C201.771 246.842 205.436 234.133 208.83 221.275C212.204 208.489 215.308 195.554 218.319 182.672C221.33 169.789 224.143 156.776 227.009 143.856L231.401 124.421C232.906 117.98 234.504 111.486 236.591 105.199C236.65 104.981 236.926 104.822 237.217 104.899C237.395 105.102 237.502 105.286 237.515 105.523Z" fill="black"/>
<path d="M242.858 107.016C242.242 113.616 241.098 120.154 239.882 126.673L236.16 146.21C233.655 159.228 231.15 172.246 228.499 185.226C225.776 198.186 222.98 211.127 220.019 224.101C217.078 237.004 213.9 249.921 210.523 262.707C210.464 262.925 210.187 263.084 209.969 263.027C209.752 262.969 209.593 262.693 209.652 262.476C212.738 249.612 215.679 236.71 218.494 223.696C221.29 210.755 223.94 197.776 226.518 184.777C229.096 171.778 231.602 158.76 234.035 145.723L237.683 126.167C238.255 122.898 238.9 119.648 239.617 116.418C240.334 113.187 241.051 109.957 241.914 106.765C241.972 106.547 242.249 106.388 242.467 106.446C242.738 106.595 242.844 106.779 242.858 107.016Z" fill="black"/>
<path d="M257.957 109.015C256.359 115.509 254.761 122.004 253.308 128.538C251.856 135.071 250.548 141.643 249.241 148.215C247.934 154.787 246.699 161.378 245.227 167.984C243.702 174.498 242.157 181.085 240.559 187.58C237.344 200.642 234.076 213.612 231.025 226.64C227.902 239.649 224.977 252.788 222.508 265.971C222.449 266.188 222.245 266.368 221.935 266.363C221.717 266.305 221.538 266.102 221.544 265.792C223.796 252.552 226.41 239.408 229.407 226.288C232.332 213.148 235.455 200.139 238.598 187.058C240.123 180.544 241.721 174.049 243.193 167.443C244.646 160.91 245.88 154.319 247.115 147.727C248.35 141.136 249.657 134.564 251.129 127.958C252.582 121.425 254.437 114.843 257.051 108.619C257.11 108.401 257.459 108.261 257.658 108.391C257.856 108.522 258.015 108.797 257.957 109.015Z" fill="black"/>
<path d="M267.237 111.01C266.146 117.64 264.837 124.212 263.527 130.784C262.218 137.356 261.054 143.967 259.963 150.597C257.708 163.838 255.744 177.156 253.343 190.358C250.923 203.633 247.942 216.681 245.086 229.84C242.158 242.98 239.321 256.066 237.304 269.292C237.245 269.51 237.021 269.761 236.803 269.703C236.585 269.645 236.407 269.442 236.393 269.205C238.14 255.83 240.758 242.685 243.468 229.488C246.252 216.309 249.088 203.223 251.343 189.982C253.671 176.761 255.616 163.515 257.818 150.183C258.909 143.552 260.073 136.942 261.402 130.297C262.711 123.725 264.257 117.138 266.385 110.706C266.444 110.488 266.721 110.328 267.011 110.405C267.137 110.517 267.296 110.792 267.237 111.01Z" fill="black"/>
<path d="M277.951 112.229C277.077 118.917 275.914 125.528 274.657 132.192C273.421 138.784 272.31 145.486 271.218 152.116L264.776 192.08C263.684 198.711 262.501 205.394 261.172 212.039C259.843 218.684 258.461 225.237 257.06 231.862C254.203 245.021 251.183 258.214 248.69 271.47C248.631 271.688 248.427 271.867 248.116 271.862C247.899 271.804 247.72 271.601 247.726 271.292C250.001 257.978 252.712 244.78 255.442 231.51C256.771 224.865 258.153 218.312 259.336 211.629C260.573 205.037 261.684 198.335 262.703 191.686L269 151.683C270.091 145.052 271.202 138.35 272.366 131.739C273.623 125.075 275.024 118.45 276.934 111.959C276.993 111.741 277.27 111.582 277.488 111.64C277.831 111.809 277.937 111.992 277.951 112.229Z" fill="black"/>
<path d="M287.299 113.31C286.188 120.013 284.879 126.586 283.497 133.139C282.095 139.765 280.859 146.357 279.622 152.949C277.202 166.224 274.999 179.558 272.816 192.819C270.541 206.133 268.193 219.428 266.011 232.689C263.808 246.022 261.771 259.321 260.334 272.703C260.348 272.94 260.051 273.172 259.833 273.114C259.596 273.129 259.364 272.834 259.423 272.616C260.642 259.177 262.408 245.728 264.446 232.428C266.503 219.056 268.759 205.815 270.816 192.443C273.019 179.109 275.129 165.829 277.569 152.481C278.752 145.797 280.062 139.225 281.391 132.58C282.792 125.954 284.339 119.367 286.467 112.934C286.526 112.716 286.802 112.556 287.093 112.633C287.179 112.89 287.358 113.093 287.299 113.31Z" fill="black"/>
<path d="M299.715 114.835C298.822 121.596 297.493 128.241 296.092 134.866L291.742 154.704C288.867 167.935 286.064 181.186 283.552 194.514C280.967 207.823 278.692 221.136 276.471 234.541C274.249 247.946 272.047 261.279 269.753 274.665C269.694 274.883 269.49 275.062 269.179 275.057C268.962 274.999 268.783 274.796 268.789 274.487C270.845 261.115 272.757 247.706 274.834 234.262C276.891 220.891 279.039 207.466 281.479 194.119C283.991 180.791 286.721 167.521 289.544 154.197L293.821 134.34C295.222 127.715 296.769 121.128 298.771 114.584C298.829 114.367 299.106 114.207 299.324 114.265C299.615 114.342 299.701 114.598 299.715 114.835Z" fill="black"/>
<path d="M309.755 117.658C309.046 124.312 307.882 130.923 306.573 137.495L302.574 157.192L294.429 196.548C291.738 209.673 289.047 222.798 286.647 236C284.174 249.183 281.939 262.351 280.067 275.616C280.008 275.834 279.784 276.085 279.566 276.027C279.349 275.969 279.17 275.766 279.156 275.529C280.81 262.207 282.828 248.981 285.083 235.74C287.41 222.518 289.883 209.336 292.501 196.191L300.573 156.816L304.573 137.119C305.218 133.87 305.882 130.547 306.619 127.244C307.356 123.941 308.146 120.73 309.028 117.465C309.087 117.248 309.364 117.088 309.582 117.146C309.654 117.165 309.741 117.421 309.755 117.658Z" fill="black"/>
<path d="M318.424 118.876C318.316 125.612 317.278 132.334 315.897 138.886C314.515 145.439 312.896 152.006 311.442 158.54L306.987 178.194L302.387 197.809C299.314 210.91 296.261 223.938 293.643 237.083C292.334 243.655 291.17 250.265 290.079 256.895C289.061 263.545 288.207 270.16 287.499 276.814C287.513 277.051 287.217 277.283 286.999 277.225C286.761 277.24 286.529 276.945 286.588 276.727C287.642 263.323 289.606 250.005 292.006 236.803C294.478 223.62 297.406 210.481 300.334 197.341L304.861 177.707L309.243 158.034C310.697 151.5 312.317 144.933 313.679 138.453C315.06 131.9 316.277 125.381 317.44 118.77C317.499 118.553 317.703 118.373 318.013 118.378C318.231 118.436 318.41 118.639 318.424 118.876Z" fill="black"/>
<path d="M328.069 120.588C327.433 127.262 326.361 133.819 325.125 140.411C323.908 146.93 322.598 153.502 321.289 160.074L313.42 199.271C310.749 212.323 308.077 225.376 305.551 238.467C303.19 251.524 301.773 264.832 298.864 277.9C298.805 278.117 298.601 278.296 298.291 278.291C298.073 278.233 297.894 278.031 297.9 277.721C300.572 264.669 301.659 251.428 303.914 238.187C306.295 225.058 308.821 211.967 311.347 198.876L319.071 159.641C320.361 153.141 321.597 146.549 322.814 140.031C324.031 133.512 325.34 126.939 327.013 120.464C327.072 120.246 327.348 120.086 327.566 120.144C327.949 120.168 328.128 120.371 328.069 120.588Z" fill="black"/>
<path d="M335.562 122.498C335.256 129.104 334.513 135.594 333.698 142.065L331.214 161.623C329.565 174.637 327.842 187.632 325.955 200.661C324.068 213.691 321.963 226.662 319.422 239.517C316.881 252.373 314.175 265.262 312.235 278.199C312.176 278.417 311.953 278.669 311.735 278.611C311.517 278.553 311.338 278.35 311.324 278.113C313.046 265.118 315.534 252.17 317.857 239.257C320.253 226.363 322.193 213.426 323.988 200.45C325.783 187.474 327.432 174.46 329.082 161.445L331.566 141.887C332.401 135.344 333.361 128.911 334.796 122.45C334.855 122.232 335.132 122.073 335.37 122.058C335.37 122.058 335.548 122.261 335.562 122.498Z" fill="black"/>
<path d="M346.723 124.612C345.671 131.098 344.42 137.453 343.077 143.861C341.735 150.269 340.557 156.643 339.359 163.09C337.056 175.931 334.898 188.81 332.649 201.742C330.419 214.601 328.096 227.514 326.103 240.359C324.019 253.258 322.244 266.161 320.978 279.199C320.992 279.436 320.695 279.668 320.477 279.61C320.24 279.624 320.008 279.33 320.067 279.112C321.023 266.069 322.599 253.036 324.466 240.08C326.333 227.124 328.491 214.245 330.649 201.366C332.806 188.487 334.891 175.589 337.213 162.676C338.338 156.21 339.608 149.782 340.879 143.355C342.221 136.947 343.709 130.577 345.798 124.289C345.857 124.071 346.134 123.911 346.424 123.989C346.623 124.119 346.782 124.395 346.723 124.612Z" fill="black"/>
<path d="M356.572 127.621C356.014 134.005 355.092 140.292 354.026 146.541L350.879 165.38C348.799 177.969 346.812 190.505 344.896 203.061C342.981 215.616 341.212 228.211 339.587 240.843C337.963 253.476 336.503 266.075 335.261 278.731C335.275 278.968 334.979 279.2 334.761 279.142C334.523 279.157 334.292 278.862 334.351 278.645C335.374 265.93 336.543 253.255 338.022 240.583C339.502 227.912 341.199 215.298 342.968 202.704C344.811 190.129 346.746 177.502 348.826 164.912L351.899 146.054C352.966 139.806 354.125 133.503 355.719 127.317C355.778 127.1 356.055 126.94 356.273 126.998C356.452 127.201 356.63 127.404 356.572 127.621Z" fill="black"/>
<path d="M366.48 130.956C366.034 137.214 364.987 143.39 363.867 149.548C362.748 155.705 361.647 161.789 360.838 167.951C359.219 180.275 357.818 192.656 356.397 205.11C355.661 211.291 354.924 217.472 354.095 223.707C353.285 229.868 352.384 236.084 351.501 242.226C349.718 254.584 347.954 266.869 347.154 279.332C347.167 279.569 346.943 279.82 346.653 279.743C346.415 279.758 346.164 279.536 346.242 279.245C346.805 266.797 348.298 254.362 349.864 241.947C350.674 235.785 351.502 229.551 352.312 223.389C353.049 217.208 353.786 211.027 354.45 204.826C355.851 192.445 357.179 180.044 358.817 167.648C359.554 161.467 360.693 155.237 361.793 149.153C362.913 142.995 364.231 136.969 365.734 130.835C365.793 130.618 366.07 130.458 366.288 130.516C366.36 130.535 366.466 130.719 366.48 130.956Z" fill="black"/>
<path d="M377.103 133.938C376.532 140.085 375.524 146.117 374.443 152.129C373.363 158.141 372.282 164.153 371.347 170.203C369.477 182.305 368.353 194.527 367.248 206.676C366.124 218.897 365.072 231.138 363.347 243.278C361.622 255.418 359.369 267.496 358.027 279.659C358.041 279.896 357.745 280.129 357.527 280.071C357.289 280.085 357.057 279.79 357.116 279.573C358.24 267.351 360.13 255.177 361.69 243.071C363.343 230.912 364.229 218.705 365.188 206.518C366.24 194.277 367.291 182.036 369.181 169.862C370.116 163.811 371.144 157.707 372.224 151.695C373.305 145.683 374.55 139.637 376.159 133.687C376.218 133.47 376.495 133.31 376.712 133.368C376.983 133.518 377.162 133.721 377.103 133.938Z" fill="black"/>
<path d="M386.991 138.749C386.478 144.678 385.602 150.511 384.707 156.417C383.738 162.303 382.862 168.136 381.966 174.041C380.194 185.779 378.495 197.537 376.795 209.294C375.9 215.2 375.096 221.052 374.128 226.938C373.159 232.824 372.118 238.691 371.169 244.504C369.18 256.184 367.408 267.923 367.167 279.757C367.181 279.994 366.957 280.245 366.647 280.241C366.409 280.255 366.158 280.033 366.144 279.796C366.167 267.904 367.668 256.017 369.512 244.298C370.408 238.392 371.43 232.598 372.326 226.693C373.202 220.86 373.952 214.916 374.756 209.064C376.382 197.287 378.009 185.51 379.781 173.772C380.677 167.866 381.553 162.033 382.449 156.128C383.417 150.242 384.458 144.375 386.081 138.663C386.139 138.445 386.416 138.285 386.634 138.343C386.871 138.329 386.978 138.512 386.991 138.749Z" fill="black"/>
<path d="M397.16 142.546C397.161 145.423 396.997 148.335 396.76 151.227C396.523 154.119 396.213 156.991 395.831 159.845L394.685 168.405L393.446 177.019C391.753 188.467 389.841 199.857 387.93 211.247C385.946 222.617 384.035 234.007 382.196 245.417C380.357 256.826 378.683 268.201 377.3 279.654C377.314 279.891 377.017 280.123 376.799 280.065C376.581 280.007 376.403 279.805 376.389 279.568C377.482 268.038 378.937 256.605 380.558 245.137C382.252 233.69 384.09 222.28 385.837 210.924C387.676 199.515 389.514 188.106 391.188 176.73L392.407 168.189L393.554 159.629C393.863 156.756 394.245 153.903 394.7 151.068C395.082 148.215 395.537 145.381 396.157 142.513C396.216 142.295 396.42 142.116 396.73 142.12C397.04 142.125 397.219 142.328 397.16 142.546Z" fill="black"/>
<path d="M406.871 147.15C406.291 152.75 405.348 158.254 404.26 163.719L400.996 180.115C398.819 191.046 396.788 202.015 394.975 213.042C393.089 224.05 391.441 235.043 390.083 246.113C388.725 257.183 387.678 268.258 387.139 279.468C387.153 279.705 386.929 279.957 386.638 279.88C386.401 279.894 386.15 279.672 386.228 279.382C386.529 268.187 387.359 257.054 388.499 245.925C389.711 234.817 391.234 223.712 392.974 212.666C394.787 201.639 396.818 190.67 398.942 179.647L402.153 163.16C403.242 157.695 404.402 152.248 406.091 146.865C406.15 146.647 406.427 146.487 406.645 146.545C406.751 146.729 406.93 146.932 406.871 147.15Z" fill="black"/>
<path d="M415.764 150.762C415.151 156.198 414.266 161.484 413.363 166.843C412.459 172.202 411.628 177.58 410.961 182.925C409.537 193.666 408.33 204.466 407.031 215.319C405.751 226.099 404.234 236.894 402.645 247.67C400.982 258.427 399.248 269.164 397.513 279.901C397.454 280.118 397.23 280.37 396.939 280.293C396.721 280.235 396.543 280.032 396.529 279.795L400.915 247.444C402.432 236.649 403.712 225.869 404.918 215.069C406.125 204.269 407.332 193.47 408.703 182.636C409.389 177.219 410.221 171.841 411.052 166.463C411.956 161.104 413.097 155.73 414.747 150.492C414.806 150.274 415.083 150.114 415.373 150.191C415.644 150.341 415.823 150.544 415.764 150.762Z" fill="black"/>
<path d="M423.918 154.794C423.746 160.036 422.881 165.251 421.964 170.373C421.046 175.495 420.036 180.67 419.283 185.758C417.738 196.08 416.338 206.44 415.084 216.839C413.757 227.218 412.595 237.564 411.486 248.001C410.397 258.366 409.288 268.803 408.198 279.168C408.212 279.405 407.916 279.637 407.698 279.579C407.46 279.594 407.228 279.299 407.287 279.081C408.086 268.639 408.885 258.197 409.829 247.794C410.773 237.391 411.882 226.954 413.044 216.608C414.226 206.19 415.625 195.83 417.098 185.489C417.797 180.309 418.807 175.134 419.725 170.012C420.643 164.889 421.726 159.733 423.007 154.708C423.066 154.49 423.342 154.33 423.56 154.388C423.798 154.373 423.904 154.557 423.918 154.794Z" fill="black"/>
<path d="M432.377 158.829C432.238 161.359 432.026 163.869 431.723 166.432C431.439 168.923 431.062 171.467 430.705 173.939L428.453 188.894C427.006 198.853 425.685 208.923 424.383 218.92C423.082 228.917 421.853 238.934 420.697 248.97C419.541 259.006 418.385 269.042 417.301 279.097C417.315 279.334 417.018 279.566 416.8 279.508C416.563 279.523 416.331 279.228 416.39 279.011C417.236 268.97 418.101 258.857 419.112 248.783C420.123 238.708 421.206 228.653 422.435 218.636C423.664 208.62 424.985 198.55 426.359 188.572L428.539 173.597C429.273 168.582 430.151 163.604 431.558 158.69C431.617 158.472 431.893 158.312 432.111 158.37C432.257 158.409 432.363 158.592 432.377 158.829Z" fill="black"/>
<path d="M439.341 163.174C439.004 165.573 438.502 168.006 437.946 170.347C437.464 172.708 436.909 175.049 436.334 177.462L434.794 184.597L433.4 191.77C431.668 201.342 430.465 210.977 429.406 220.65C428.348 230.323 427.528 239.982 426.853 249.679L424.662 278.805C424.675 279.042 424.379 279.274 424.161 279.216C423.923 279.231 423.692 278.936 423.75 278.718C424.28 268.983 424.646 259.281 425.248 249.564C425.851 239.848 426.453 230.132 427.439 220.439C428.424 210.747 429.648 201.039 431.307 191.448L432.628 184.255L434.095 177.101C434.67 174.688 435.298 172.366 435.946 169.971C436.666 167.596 437.439 165.313 438.357 163.068C438.416 162.851 438.766 162.71 438.964 162.841C439.221 162.753 439.327 162.937 439.341 163.174Z" fill="black"/>
<path d="M448.65 167.282C448.616 172.017 448.199 176.728 447.728 181.347C447.238 186.039 446.749 190.73 446.278 195.349L443.576 223.485C442.669 232.887 441.398 242.193 440.127 251.5C438.857 260.806 437.494 270.165 436.534 279.476C436.547 279.713 436.251 279.946 436.033 279.888C435.795 279.902 435.564 279.608 435.623 279.39C436.365 270.021 437.418 260.657 438.543 251.312C439.668 241.968 440.793 232.623 441.535 223.254L444.073 195.153C444.49 190.442 444.98 185.75 445.45 181.131C445.94 176.439 446.575 171.786 447.739 167.195C447.798 166.978 448.075 166.818 448.293 166.876C448.511 166.934 448.617 167.117 448.65 167.282Z" fill="black"/>
<path d="M458.876 173.19C458.815 175.43 458.609 177.63 458.331 179.812C458.125 182.012 457.774 184.175 457.476 186.429L456.476 193.007L455.548 199.604C454.342 208.384 453.282 217.201 452.386 225.985C451.398 234.822 450.575 243.625 449.752 252.428C449.001 261.251 448.251 270.073 447.646 278.934C447.66 279.171 447.363 279.403 447.145 279.345C446.908 279.36 446.657 279.138 446.735 278.848C447.102 270.001 447.562 261.102 448.167 252.241C448.772 243.38 449.522 234.558 450.365 225.682C451.28 216.826 452.269 207.989 453.402 199.19L454.257 192.573L455.184 185.976C455.833 181.559 456.628 177.182 457.858 172.92C457.917 172.702 458.194 172.542 458.412 172.6C458.755 172.769 458.934 172.973 458.876 173.19Z" fill="black"/>
<path d="M467.082 178.173C467.041 180.34 466.928 182.487 466.689 184.524C466.503 186.652 466.244 188.761 465.912 190.85C465.322 195.049 464.804 199.267 464.214 203.465C463.179 211.901 462.143 220.337 461.326 228.83C460.436 237.305 459.638 245.726 458.966 254.258C458.241 262.698 457.662 271.177 457.155 279.675C457.169 279.912 456.945 280.164 456.654 280.087C456.416 280.101 456.165 279.879 456.244 279.589C456.44 271.086 456.875 262.569 457.382 254.071C457.889 245.572 458.561 237.04 459.358 228.619C460.176 220.125 461.138 211.671 462.101 203.216C462.619 198.998 463.136 194.78 463.746 190.508C464.336 186.31 465.019 182.058 466.21 177.941C466.269 177.724 466.546 177.564 466.764 177.622C466.89 177.733 467.068 177.936 467.082 178.173Z" fill="black"/>
<path d="M478.479 185.177C478.259 187.141 477.948 189.158 477.583 191.083C477.218 193.008 476.834 195.006 476.396 196.911L475.21 202.74L474.096 208.587C472.67 216.452 471.482 224.301 470.512 232.209C469.47 240.097 468.5 248.005 467.675 255.951L465.128 279.771C465.142 280.008 464.845 280.24 464.627 280.182C464.39 280.197 464.231 279.921 464.217 279.684C464.804 271.753 465.411 263.749 466.071 255.836C466.823 247.871 467.555 239.978 468.473 231.978C469.443 224.071 470.577 216.129 472.003 208.265L473.064 202.325L474.27 196.424C474.727 194.446 475.164 192.54 475.694 190.581C476.296 188.642 476.879 186.774 477.627 184.873C477.686 184.656 478.035 184.515 478.253 184.573C478.359 184.757 478.465 184.94 478.479 185.177Z" fill="black"/>
<path d="M487.458 192.778C487.316 196.473 486.81 200.071 486.159 203.63L484.186 214.382C482.864 221.574 481.634 228.712 480.458 235.942C479.209 243.153 478.124 250.33 477.113 257.527C476.029 264.704 475.143 272.011 474.276 279.246C474.217 279.464 473.994 279.715 473.776 279.658C473.558 279.6 473.379 279.397 473.365 279.16C473.941 271.848 474.662 264.574 475.528 257.339C476.395 250.105 477.426 242.835 478.51 235.658C479.614 228.409 480.844 221.27 482.093 214.059L483.993 203.289C484.644 199.729 485.388 196.116 486.567 192.619C486.626 192.402 486.902 192.242 487.193 192.319C487.338 192.357 487.517 192.56 487.458 192.778Z" fill="black"/>
<path d="M495.62 198.524C495.532 200.289 495.391 201.962 495.158 203.689C494.924 205.415 494.691 207.142 494.405 208.777L493.579 213.846L492.826 218.934C491.84 225.749 491.072 232.622 490.232 239.475C489.391 246.329 488.623 253.201 487.782 260.055C486.869 266.889 485.863 273.776 484.639 280.606C484.581 280.823 484.376 281.002 484.066 280.998C483.848 280.94 483.669 280.737 483.655 280.5C484.641 273.685 485.41 266.812 486.105 259.92C486.873 253.047 487.476 246.209 488.172 239.317C488.867 232.425 489.635 225.552 490.621 218.737L491.394 213.577L492.239 208.435C492.545 206.728 492.851 205.02 493.302 203.352C493.753 201.683 494.205 200.014 494.821 198.311C494.88 198.094 495.156 197.934 495.447 198.011C495.5 198.103 495.606 198.287 495.62 198.524Z" fill="black"/>
<path d="M504.185 207.334C504.2 210.448 503.831 213.539 503.337 216.518L501.671 225.561L498.245 243.702C497.092 249.694 495.92 255.759 494.84 261.77C493.759 267.781 492.732 273.885 491.797 279.935C491.738 280.152 491.514 280.404 491.224 280.327C491.006 280.269 490.827 280.066 490.813 279.829C491.458 273.702 492.248 267.613 493.183 261.563C494.118 255.513 495.145 249.41 496.225 243.399L499.486 225.292L501.08 216.229C501.327 214.74 501.666 213.197 501.986 211.727C502.305 210.256 502.717 208.733 503.275 207.248C503.333 207.03 503.61 206.871 503.901 206.948C504.046 206.986 504.171 207.097 504.185 207.334Z" fill="black"/>
<path d="M512.495 212.504C512.413 213.959 512.258 215.396 511.958 216.794C511.73 218.211 511.43 219.608 511.13 221.006L510.157 225.18L509.257 229.373C508.129 234.983 507.094 240.54 506.184 246.208C505.202 251.857 504.312 257.452 503.475 263.14L500.911 280.11C500.852 280.327 500.628 280.579 500.41 280.521C500.192 280.463 500.014 280.26 500 280.023C500.527 274.331 501.199 268.678 501.891 262.952C502.563 257.299 503.327 251.592 504.237 245.924C505.147 240.256 506.129 234.607 507.184 228.978L508.012 224.766L508.912 220.572C509.584 217.796 510.33 215.039 511.603 212.345C511.735 212.147 512.012 211.987 512.21 212.117C512.448 212.103 512.554 212.286 512.495 212.504Z" fill="black"/>
<path d="M519.592 218.119C519.559 220.832 519.163 223.448 518.622 226.026L516.978 233.832C515.875 239.06 514.865 244.235 513.928 249.43C512.918 254.605 512.034 259.891 511.314 265.143C510.522 270.376 509.948 275.666 509.466 280.904C509.48 281.141 509.184 281.373 508.966 281.315C508.728 281.33 508.569 281.055 508.555 280.818C508.746 275.503 509.175 270.174 509.749 264.883C510.323 259.592 511.135 254.287 512 249.073C512.885 243.787 513.894 238.612 514.924 233.365L516.495 225.539C517.036 222.961 517.67 220.331 518.793 217.907C518.924 217.709 519.201 217.549 519.399 217.679C519.452 217.771 519.578 217.882 519.592 218.119Z" fill="black"/>
<path d="M528.031 222.47C528.204 225.004 527.921 227.494 527.492 229.946L526.804 233.651L526.042 237.336C525.04 242.202 523.893 247.028 522.818 251.874C521.67 256.701 520.45 261.508 519.376 266.354C518.228 271.181 517.246 275.974 516.316 280.859C516.257 281.076 516.053 281.256 515.743 281.251C515.525 281.193 515.346 280.99 515.332 280.753C515.951 275.863 516.808 270.959 517.737 266.074C518.74 261.209 519.742 256.344 520.816 251.498C521.891 246.652 522.966 241.806 523.949 237.013L524.618 233.381L525.287 229.749C525.455 228.549 525.716 227.297 526.029 226.136C526.27 224.956 526.602 223.722 527.081 222.528C527.159 222.238 527.489 222.17 527.707 222.228C527.892 222.122 527.998 222.305 528.031 222.47Z" fill="black"/>
<path d="M535.109 226.685C534.938 229.05 534.423 231.246 533.835 233.422C533.247 235.599 532.713 237.867 532.198 240.063C531.148 244.527 530.244 249.029 529.34 253.532L527.901 260.303C527.439 262.59 526.852 264.766 526.317 267.035C525.195 271.479 524.073 275.924 523.479 280.431C523.42 280.649 523.196 280.901 522.978 280.843C522.76 280.785 522.581 280.582 522.567 280.345C522.89 275.687 523.795 271.185 524.772 266.701C525.233 264.414 525.748 262.218 526.118 259.984L527.319 253.228C528.151 248.706 528.982 244.184 530.032 239.72C530.566 237.451 531.081 235.256 531.688 233.007C532.295 230.758 533.048 228.548 534.217 226.526C534.348 226.328 534.606 226.241 534.877 226.39C535.061 226.284 535.168 226.468 535.109 226.685Z" fill="black"/>
<path d="M542.54 231.929C542.557 233.022 542.355 234.057 542.134 235.164C541.932 236.199 541.731 237.235 541.384 238.231C540.835 240.262 540.267 242.366 539.719 244.397C538.675 248.552 537.651 252.634 536.679 256.808C535.708 260.982 534.829 265.102 534.023 269.242C533.217 273.382 532.464 277.614 531.875 281.812C531.817 282.029 531.593 282.281 531.375 282.223C531.157 282.165 530.978 281.962 530.964 281.725C531.262 277.45 531.85 273.252 532.458 268.982C533.138 264.73 533.872 260.571 534.698 256.359C535.596 252.165 536.495 247.972 537.539 243.818C538.014 241.767 538.582 239.663 539.131 237.632C539.679 235.601 540.393 233.535 541.523 231.659C541.654 231.46 541.912 231.373 542.183 231.523C542.473 231.6 542.507 231.765 542.54 231.929Z" fill="black"/>
<path d="M548.213 235.848C548.284 237.888 547.9 239.885 547.391 241.771L545.915 247.522L543.017 259.114C542.051 262.978 541.085 266.842 540.211 270.653C539.317 274.536 538.516 278.366 537.695 282.269C537.636 282.487 537.432 282.666 537.122 282.661C536.904 282.603 536.726 282.4 536.712 282.163C537.169 278.164 537.825 274.295 538.501 270.354C539.249 266.432 540.07 262.529 540.891 258.626C541.784 254.743 542.678 250.86 543.644 246.996L545.119 241.246C545.629 239.36 546.231 237.42 547.249 235.669C547.38 235.471 547.657 235.311 547.928 235.461C548.146 235.519 548.252 235.702 548.213 235.848Z" fill="black"/>
<path d="M555.573 239.053C555.81 241.06 555.571 243.096 555.207 245.021L554.096 250.868C553.368 254.718 552.548 258.621 551.747 262.451C550.855 266.335 549.981 270.146 549.016 274.01C548.05 277.874 547.032 281.646 545.921 285.472C545.862 285.69 545.585 285.849 545.367 285.791C545.149 285.733 544.99 285.458 545.049 285.24C545.849 281.41 546.742 277.526 547.47 273.677C548.271 269.846 549.018 265.924 549.746 262.074C550.474 258.224 551.221 254.302 551.949 250.453L552.968 244.659C553.15 243.696 553.332 242.734 553.587 241.791C553.842 240.847 554.169 239.924 554.589 238.947C554.74 238.676 554.997 238.589 555.268 238.739C555.413 238.777 555.539 238.888 555.573 239.053Z" fill="black"/>
<path d="M228.87 104.779C227.675 111.225 226.261 117.613 224.848 124.001C223.434 130.388 222.166 136.815 220.897 143.242C219.629 149.668 218.288 156.075 216.782 162.516C215.296 168.885 213.573 175.269 211.796 181.56C210.019 187.851 208.242 194.143 206.538 200.453C204.834 206.764 203.276 213.114 201.717 219.463C198.599 232.162 195.462 244.933 192.199 257.593C192.141 257.81 191.864 257.97 191.646 257.912C191.428 257.854 191.269 257.579 191.328 257.361C194.445 244.662 197.2 231.867 200.192 219.057C201.678 212.689 203.237 206.339 204.815 199.917C206.447 193.587 208.17 187.204 209.874 180.893C211.578 174.583 213.282 168.272 214.769 161.904C216.255 155.535 217.523 149.108 218.792 142.682C220.06 136.255 221.328 129.829 222.669 123.421C224.01 117.014 225.661 110.611 227.946 104.455C228.005 104.238 228.282 104.078 228.572 104.155C228.751 104.358 228.929 104.561 228.87 104.779Z" fill="black"/>
<path d="M221.585 104.163C220.264 110.498 219.108 116.798 217.569 123.075C217.211 124.69 216.8 126.213 216.369 127.809L215.096 132.523L212.57 141.881L202.395 179.289L197.27 197.984L194.672 207.321C193.83 210.44 193.06 213.579 192.218 216.698L187.312 235.45C186.47 238.569 185.628 241.688 184.931 244.846L182.841 254.319C182.782 254.536 182.578 254.715 182.268 254.711C182.05 254.653 181.872 254.45 181.877 254.14L183.75 244.61C184.374 241.433 185.143 238.294 185.913 235.156L190.529 216.326C191.298 213.188 192.068 210.05 192.91 206.931L195.363 197.554L200.269 178.802L210.3 141.354L212.826 131.998L214.079 127.355C214.49 125.832 214.848 124.217 215.26 122.694C216.798 116.417 218.192 110.102 220.549 103.965C220.607 103.748 220.884 103.588 221.175 103.665C221.485 103.67 221.571 103.926 221.585 104.163Z" fill="black"/>
<path d="M27.637 109.779C28.499 109.774 29.1164 110.093 29.6412 110.467C30.166 110.84 30.6912 111.214 31.216 111.587C32.2656 112.334 33.3881 113.1 34.4574 113.774C36.6494 115.214 38.993 116.383 41.4491 117.425C41.6681 117.483 41.8082 117.832 41.6761 118.031C41.617 118.25 41.3589 118.338 41.1399 118.279C38.4531 117.801 35.831 116.793 33.3807 115.44C32.1456 114.8 31.0035 114.107 29.8809 113.34C29.2831 112.948 28.7583 112.574 28.2335 112.201C27.7086 111.827 27.2232 111.308 26.9823 110.464C26.9151 110.133 27.0868 109.789 27.4181 109.721C27.5444 109.832 27.6173 109.852 27.637 109.779Z" fill="black"/>
<path d="M71.9193 112.46C70.7869 112.315 69.9655 112.175 69.1049 112.181C68.264 112.113 67.3444 112.337 66.6769 112.783C66.0094 113.23 65.5941 113.899 65.5431 114.665C65.492 115.43 65.825 116.22 66.3766 117.068C66.8749 117.824 67.5781 118.4 68.3797 118.613C69.1812 118.825 70.0616 118.747 70.8946 118.267C71.7078 117.859 72.3809 117.103 72.7628 116.269C73.1447 115.435 73.2745 114.378 73.0734 113.389C73.0596 113.152 73.2113 112.88 73.4496 112.866C73.6879 112.851 73.8867 112.982 73.993 113.166C74.393 114.285 74.4428 115.545 74.0354 116.762C73.6476 117.906 72.8756 119.026 71.7453 119.739C70.6879 120.472 69.2723 120.798 67.9409 120.523C66.6096 120.247 65.4355 119.39 64.685 118.412C63.9344 117.433 63.3356 116.183 63.3451 114.705C63.3845 114.559 63.3709 114.322 63.4103 114.177L63.548 113.668C63.6464 113.304 63.8175 112.96 63.9691 112.688C64.1403 112.344 64.4376 112.111 64.5892 111.84C64.8137 111.588 65.1112 111.355 65.3889 111.195C66.5388 110.409 67.8622 110.136 69.1797 110.174C70.4971 110.212 71.8224 110.798 72.441 111.975C72.6006 112.251 72.5219 112.542 72.2443 112.702C72.2304 112.464 72.0847 112.426 71.9193 112.46Z" fill="black"/>
<path d="M69.2438 114.552C69.7935 114.542 69.9396 114.58 69.9199 114.653L69.953 114.818C69.9865 114.983 69.9668 115.055 69.9274 115.201C69.8485 115.492 69.7895 115.71 69.4722 116.015C69.2475 116.268 68.8434 116.317 68.5716 116.167C68.2465 115.925 68.0671 115.722 67.9076 115.446C67.8544 115.354 67.8212 115.189 67.768 115.097L67.7344 114.932C67.7541 114.859 67.8469 114.806 68.3632 114.631C68.6017 114.616 68.9324 114.548 69.2438 114.552Z" fill="black"/>
<path d="M109.121 98.4786C108.813 102.207 108.05 105.893 107.215 109.56C106.307 113.207 105.326 116.834 104.345 120.462C102.311 127.698 100.059 134.877 97.39 141.867C94.7215 148.857 91.5441 155.711 88.0234 162.397C84.4496 168.991 80.4599 175.397 76.1458 181.561C76.0143 181.76 75.6843 181.827 75.486 181.697C75.2876 181.567 75.2208 181.238 75.3523 181.04C79.3954 174.726 83.148 168.334 86.5038 161.682C89.9322 155.05 92.8717 148.21 95.4479 141.273C98.0438 134.264 100.276 127.158 102.218 119.975C103.199 116.347 104.088 112.773 104.996 109.126C105.414 107.293 105.904 105.479 106.448 103.757C106.938 101.943 107.501 100.148 108.209 98.3923C108.268 98.1746 108.618 98.0341 108.836 98.092C109.001 98.058 109.107 98.2416 109.121 98.4786Z" fill="black"/>
<path d="M138.515 178.054C143.24 180.241 147.647 182.734 152.167 185.101C156.667 187.541 161.246 189.69 165.996 191.493C167.197 191.967 168.418 192.368 169.566 192.75C170.13 192.978 170.786 193.152 171.35 193.379L172.279 193.703L172.717 193.819C172.863 193.857 173.009 193.896 173.155 193.935C175.582 194.499 178.196 194.957 180.623 195.522C183.144 196.033 185.664 196.544 188.198 197.292C188.563 197.389 188.855 197.466 189.273 197.655C189.346 197.674 189.472 197.786 189.618 197.824C189.744 197.936 189.817 197.955 189.943 198.066C189.997 198.159 189.997 198.159 190.05 198.251C190.156 198.435 190.336 198.639 190.442 198.823C190.529 199.08 190.636 199.264 190.649 199.502C190.663 199.74 190.677 199.977 190.671 200.288C190.611 200.506 190.605 200.817 190.473 201.016C190.414 201.235 190.281 201.434 190.149 201.633C189.224 203.026 188.072 203.814 186.867 204.51C184.549 205.847 182.091 206.835 179.599 207.658C177.108 208.482 174.564 209.213 172.079 209.725C170.826 210.018 169.52 210.219 168.142 210.4C167.81 210.468 167.499 210.464 167.114 210.44C166.802 210.436 166.418 210.412 166.106 210.408L164.164 210.361C161.564 210.142 158.931 209.757 156.397 209.008C153.883 208.186 151.447 207.073 149.217 205.781C147.007 204.415 144.948 202.778 143.002 201.014C139.203 197.433 135.979 193.458 132.888 189.284C132.709 189.081 132.788 188.79 132.993 188.61C133.198 188.43 133.49 188.507 133.67 188.711C136.8 192.739 140.116 196.66 143.902 200.004C145.795 201.675 147.82 203.148 149.977 204.421C152.134 205.694 154.463 206.623 156.832 207.406C159.22 208.116 161.707 208.463 164.253 208.59L166.123 208.617C166.434 208.621 166.746 208.626 167.058 208.63C167.369 208.635 167.627 208.547 167.939 208.552C169.152 208.405 170.404 208.112 171.637 207.892C174.142 207.306 176.521 206.609 178.939 205.767C181.285 204.905 183.65 203.97 185.802 202.667C186.822 202.079 187.828 201.253 188.337 200.529C188.529 200.111 188.588 199.893 188.428 199.616C188.375 199.524 188.322 199.432 188.249 199.413C188.196 199.321 188.249 199.413 188.249 199.413C188.302 199.505 188.302 199.505 188.375 199.524C188.375 199.524 188.375 199.525 188.302 199.505C188.083 199.447 187.811 199.297 187.519 199.22C185.111 198.582 182.591 198.071 180.07 197.56C177.55 197.049 175.01 196.611 172.436 196.008C172.29 195.969 172.071 195.911 171.925 195.872L171.488 195.756L170.559 195.432C169.902 195.259 169.338 195.031 168.681 194.857C167.461 194.456 166.26 193.982 165.039 193.581C160.215 191.758 155.51 189.498 150.918 187.112C146.325 184.725 141.977 182.014 137.821 178.884C137.621 178.754 137.555 178.424 137.76 178.244C138.058 178.011 138.316 177.923 138.515 178.054Z" fill="black"/>
<path d="M186.608 197.174C187.158 193.122 188.07 189.166 189.055 185.23L191.937 173.402C192.922 169.466 193.926 165.457 194.984 161.54C196.041 157.623 197.191 153.653 198.393 149.775C200.799 142.018 203.224 134.189 205.484 126.394C207.744 118.599 209.859 110.765 211.539 102.815C211.597 102.598 211.801 102.419 212.112 102.424C212.329 102.482 212.508 102.685 212.502 102.994C211.113 111.021 209.197 118.985 207.135 126.911C205 134.817 202.667 142.593 200.407 150.388C199.277 154.286 198.147 158.183 197.089 162.1C196.032 166.017 195.119 169.973 194.134 173.909L191.305 185.828C190.321 189.765 189.171 193.735 187.533 197.497C187.401 197.695 187.125 197.855 186.926 197.725C186.656 197.575 186.55 197.391 186.608 197.174Z" fill="black"/>
<path d="M186.235 204.682C186.27 205.702 186.088 206.664 185.906 207.627C185.724 208.589 185.47 209.532 185.215 210.475L183.634 216.041L180.544 227.193C179.545 230.892 178.526 234.664 177.527 238.364L174.491 249.607C174.432 249.825 174.155 249.985 173.938 249.927C173.72 249.869 173.561 249.593 173.619 249.376C174.328 245.599 175.201 241.788 175.983 238.031C176.856 234.22 177.71 230.482 178.656 226.691C179.602 222.9 180.529 219.181 181.62 215.428L183.201 209.862C183.711 207.976 184.365 206.129 185.436 204.47C185.567 204.271 185.897 204.203 186.095 204.334C186.095 204.334 186.201 204.517 186.235 204.682Z" fill="black"/>
<path d="M178.539 207.376C178.521 208.304 178.451 209.141 178.216 210.011C178.054 210.901 177.838 211.699 177.53 212.55C177.007 214.2 176.557 215.868 176.033 217.517C175.059 220.835 174.158 224.171 173.237 227.581C172.336 230.918 171.415 234.327 170.514 237.664C169.613 241.001 168.692 244.41 167.79 247.747C167.732 247.965 167.455 248.124 167.237 248.066C167.019 248.008 166.86 247.733 166.919 247.515C167.529 244.101 168.305 240.653 168.989 237.258C169.745 233.883 170.52 230.435 171.276 227.059C172.105 223.703 172.953 220.275 173.927 216.957C174.378 215.289 174.901 213.64 175.371 211.899C175.894 210.25 176.49 208.62 177.595 207.125C177.726 206.927 178.056 206.859 178.254 206.989C178.472 207.047 178.597 207.158 178.539 207.376Z" fill="black"/>
<path d="M204.89 103.067C204.579 105.084 204.142 106.989 203.686 108.967C203.23 110.945 202.721 112.831 202.119 114.77L200.48 120.553L198.913 126.356C196.837 134.045 194.979 141.792 193.048 149.52L187.309 172.794C185.378 180.521 183.355 188.302 181.133 195.952C181.075 196.17 180.798 196.33 180.58 196.272C180.363 196.214 180.204 195.938 180.262 195.721C182.12 187.974 183.979 180.227 185.764 172.461L191.14 149.09C192.999 141.343 194.877 133.524 196.88 125.816L198.374 119.993L199.941 114.19C201.052 110.365 202.235 106.559 203.926 102.889C204.058 102.691 204.334 102.531 204.533 102.661C204.843 102.666 204.929 102.922 204.89 103.067Z" fill="black"/>
<path d="M196.877 102.023C196.566 104.04 196.13 105.945 195.674 107.923C195.217 109.901 194.708 111.786 194.107 113.726C192.996 117.551 191.958 121.396 190.919 125.24C188.843 132.929 186.912 140.656 185.054 148.403C183.123 156.131 181.264 163.878 179.406 171.624C177.548 179.371 175.689 187.118 173.738 194.918C173.68 195.136 173.403 195.295 173.185 195.237C172.967 195.18 172.808 194.904 172.867 194.687L177.861 171.291C179.575 163.506 181.288 155.721 183.093 147.882C184.952 140.135 186.83 132.316 188.833 124.608C189.871 120.763 190.909 116.919 191.967 113.002C193.078 109.176 194.261 105.371 195.953 101.7C196.084 101.502 196.361 101.342 196.559 101.472C196.83 101.622 196.936 101.806 196.877 102.023Z" fill="black"/>
<path d="M169.445 210.323C169.467 211.107 169.436 211.798 169.332 212.47C169.228 213.143 169.032 213.868 168.856 214.521L167.686 218.564L165.471 226.762L163.184 234.939C162.367 237.677 161.477 240.395 160.534 243.021C160.475 243.239 160.198 243.399 159.908 243.321C159.69 243.264 159.531 242.988 159.59 242.77C160.262 239.994 160.914 237.291 161.514 234.495L163.438 226.221C164.11 223.445 164.762 220.742 165.507 217.985L166.624 213.85C166.996 212.472 167.514 211.132 168.448 209.981C168.579 209.782 168.909 209.715 169.16 209.937C169.359 210.067 169.412 210.159 169.445 210.323Z" fill="black"/>
<path d="M161.213 210.076C161.388 211.445 161.147 212.625 160.814 213.858L159.834 217.485L157.874 224.74C157.227 227.134 156.488 229.581 155.769 231.955C154.957 234.383 154.238 236.758 153.3 239.075C153.241 239.292 152.965 239.452 152.674 239.375C152.456 239.317 152.297 239.041 152.356 238.824C152.93 236.41 153.597 233.944 154.171 231.531L155.913 224.218C156.487 221.805 157.081 219.319 157.655 216.906L158.562 213.26C158.895 212.026 159.374 210.832 160.196 209.806C160.4 209.627 160.73 209.559 160.908 209.762C161.107 209.893 161.16 209.985 161.213 210.076Z" fill="black"/>
<path d="M154.112 207.951C154.235 209.228 153.994 210.408 153.627 211.477L152.488 214.829L150.282 221.551L148.076 228.274C147.323 230.485 146.623 232.787 145.798 234.978C145.739 235.195 145.462 235.355 145.171 235.278C144.953 235.22 144.794 234.944 144.853 234.727C145.315 232.439 145.87 230.098 146.405 227.83C146.94 225.562 147.567 223.241 148.248 221.011C148.928 218.781 149.556 216.46 150.309 214.25L151.375 210.878C151.761 209.737 152.201 208.688 153.168 207.701C153.372 207.522 153.702 207.453 153.881 207.656C154.026 207.695 154.059 207.86 154.112 207.951Z" fill="black"/>
<path d="M147.894 203.736C148.162 205.051 148.066 206.27 147.752 207.43L146.957 210.951C146.402 213.292 145.775 215.613 145.148 217.935C144.52 220.256 143.893 222.578 143.193 224.88L141.167 231.805C141.108 232.023 140.831 232.183 140.613 232.125C140.395 232.067 140.236 231.791 140.295 231.573C140.704 229.194 141.186 226.834 141.668 224.474C142.15 222.114 142.704 219.773 143.259 217.433L144.923 210.41L145.718 206.89C145.959 205.71 146.346 204.568 147.095 203.523C147.246 203.252 147.556 203.257 147.827 203.407C147.788 203.552 147.914 203.663 147.894 203.736Z" fill="black"/>
<path d="M141.801 198.46C141.924 199.736 141.663 200.989 141.224 202.039L139.993 205.444L137.551 212.181L132.573 225.71C132.515 225.928 132.238 226.087 131.947 226.01C131.729 225.952 131.57 225.676 131.629 225.459C132.183 223.118 132.809 220.796 133.436 218.474C134.063 216.153 134.835 213.87 135.535 211.568C136.307 209.285 137.006 206.982 137.851 204.719L139.01 201.294C139.396 200.153 139.927 199.05 140.803 198.116C141.007 197.937 141.337 197.869 141.516 198.072C141.714 198.203 141.767 198.295 141.801 198.46Z" fill="black"/>
<path d="M115.602 98.5714C115.856 102.527 115.398 106.526 114.721 110.468C114.045 114.41 113.151 118.294 112.111 122.14C110.032 129.83 107.1 137.217 104.043 144.493L99.4577 155.406C97.9291 159.043 96.2552 162.642 94.5087 166.222C90.9627 173.29 86.9277 180.15 82.6414 186.789C82.5099 186.987 82.1802 187.055 81.9819 186.924C81.7836 186.794 81.6972 186.538 81.8483 186.267C83.8657 182.837 85.791 179.46 87.7358 176.01C89.608 172.542 91.4072 169.054 93.0615 165.527C94.7157 162 96.3171 158.382 97.773 154.725L102.213 143.773C105.198 136.478 108.037 129.145 110.077 121.599C112.189 114.073 113.047 106.291 114.744 98.5767C114.803 98.359 115.007 98.1798 115.317 98.1844C115.409 98.1312 115.588 98.3344 115.602 98.5714Z" fill="black"/>
<path d="M123.873 98.3638C123.646 102.658 122.911 106.817 121.958 110.918C121.005 115.02 119.96 119.174 118.861 123.237C116.645 131.435 114.138 139.556 111.432 147.546C110.043 151.532 108.654 155.517 107.101 159.537C105.566 163.484 103.814 167.373 101.917 171.223C100.039 175.001 98.0154 178.74 95.9196 182.461C93.8239 186.181 91.6027 189.79 89.3812 193.399C89.2497 193.597 88.9924 193.684 88.7215 193.535C88.5231 193.404 88.4367 193.148 88.5878 192.877C92.7598 185.51 96.8591 178.122 100.47 170.528C102.275 166.731 103.935 162.895 105.396 158.928C106.858 154.962 108.174 150.958 109.563 146.972C112.196 138.962 114.683 130.914 116.807 122.769C117.906 118.707 118.859 114.605 119.812 110.504C120.765 106.403 121.646 102.282 122.962 98.2771C123.021 98.0595 123.298 97.9 123.588 97.9772C123.753 97.9432 123.859 98.1268 123.873 98.3638Z" fill="black"/>
<path d="M131.591 98.4764C131.016 102.911 130.057 107.321 128.901 111.601C127.744 115.881 126.641 120.253 125.484 124.533C123.151 133.166 120.673 141.76 118.049 150.315C116.747 154.557 115.426 158.871 113.979 163.074C112.532 167.277 110.92 171.513 109.255 175.658C108.449 177.777 107.589 179.803 106.638 181.883C105.779 183.909 104.828 185.989 103.896 187.997C101.941 192.064 99.7143 195.982 97.3092 199.698C97.1777 199.896 96.8482 199.964 96.6499 199.833C96.4516 199.703 96.3648 199.447 96.5159 199.176C98.7227 195.33 100.877 191.393 102.668 187.359C104.531 183.344 106.123 179.18 107.715 175.016C109.308 170.852 110.828 166.668 112.202 162.446C113.577 158.224 114.806 153.963 116.127 149.649C118.678 141.075 121.064 132.534 123.397 123.901C124.554 119.621 125.658 115.249 126.814 110.969C127.898 106.67 129.147 102.337 130.74 98.1723C130.798 97.9547 131.075 97.7948 131.365 97.872C131.471 98.0557 131.578 98.2395 131.591 98.4764Z" fill="black"/>
<path d="M138.193 98.6893C137.633 103.361 136.544 107.969 135.33 112.467L131.667 126.032C130.453 130.529 129.384 135.066 128.295 139.674C127.153 144.191 126.065 148.8 124.831 153.37C122.31 162.418 119.572 171.408 116.397 180.283C113.15 189.138 109.559 197.824 105.552 206.321C105.42 206.52 105.144 206.679 104.945 206.549C104.747 206.418 104.588 206.143 104.719 205.944C106.587 201.621 108.363 197.35 110.013 192.969C111.736 188.606 113.314 184.205 114.818 179.785C117.828 170.945 120.494 161.935 122.85 152.921C124.065 148.423 125.153 143.815 126.222 139.278C127.291 134.742 128.307 130.114 129.522 125.617L133.111 112.032C134.326 107.535 135.632 102.984 137.282 98.6024C137.341 98.3848 137.618 98.2254 137.908 98.3026C138.073 98.2687 138.179 98.4524 138.193 98.6893Z" fill="black"/>
<path d="M145.282 98.5509C144.716 103.532 143.641 108.377 142.494 113.203L138.906 127.643L131.659 156.504C130.439 161.311 129.292 166.137 127.927 170.905C126.562 175.674 125.124 180.422 123.468 185.113C120.229 194.515 116.482 203.781 111.994 212.617C111.863 212.815 111.586 212.975 111.388 212.844C111.19 212.714 111.103 212.457 111.162 212.24C115.359 203.327 118.888 194.003 121.89 184.616C123.4 179.887 124.819 175.21 126.111 170.422C127.404 165.635 128.532 160.881 129.606 156.036L136.708 127.137L140.222 112.677C141.37 107.851 142.662 103.063 144.246 98.3531C144.304 98.1355 144.581 97.9758 144.872 98.0531C145.162 98.1303 145.341 98.3333 145.282 98.5509Z" fill="black"/>
<path d="M152.938 98.8794C152.115 103.947 150.856 108.899 149.596 113.851C148.264 118.784 147.005 123.735 145.746 128.687C143.227 138.591 140.781 148.514 138.171 158.47C136.839 163.403 135.507 168.335 134.083 173.321C132.678 178.234 131.036 183.162 129.414 188.017C127.791 192.873 126.024 197.689 124.256 202.506C122.489 207.323 120.649 212.12 118.683 216.806C118.624 217.024 118.275 217.164 118.076 217.034C117.859 216.976 117.719 216.628 117.85 216.429C121.511 206.907 124.756 197.197 127.928 187.467C129.478 182.592 131.028 177.718 132.432 172.804C133.764 167.872 135.023 162.92 136.282 157.968C138.801 148.065 141.247 138.142 143.693 128.219C144.952 123.267 146.139 118.296 147.471 113.363C148.803 108.431 150.207 103.518 152.12 98.7397C152.179 98.5221 152.528 98.3816 152.746 98.4395C152.818 98.4588 152.924 98.6425 152.938 98.8794Z" fill="black"/>
<path d="M159.859 98.7786C159.611 102.289 158.875 105.592 158.046 108.948L155.508 118.924C153.779 125.617 152.069 132.237 150.505 138.896C148.848 145.608 147.21 152.248 145.336 158.902C143.461 165.556 141.534 172.118 139.296 178.676C139.237 178.893 138.961 179.053 138.67 178.976C138.453 178.918 138.293 178.642 138.352 178.425C140.207 171.843 142.009 165.17 143.719 158.55C145.429 151.929 147.013 145.198 148.432 138.5C150.016 131.769 151.654 125.129 153.31 118.417L155.776 108.422C156.604 105.066 157.486 101.802 158.822 98.5809C158.881 98.3633 159.23 98.2229 159.428 98.3533C159.719 98.4306 159.825 98.6142 159.859 98.7786Z" fill="black"/>
<path d="M135.554 191.432C135.711 192.873 135.431 194.198 135.025 195.412L133.841 199.219C133.083 201.739 132.16 204.293 131.329 206.793C130.425 209.274 129.521 211.756 128.525 214.29C127.549 216.752 126.573 219.214 125.451 221.638C125.319 221.836 125.042 221.995 124.844 221.865C124.626 221.807 124.539 221.551 124.598 221.333L129.386 206.199L131.733 198.658L132.917 194.852C133.269 193.546 133.748 192.351 134.682 191.2C134.813 191.001 135.144 190.934 135.395 191.156C135.468 191.175 135.594 191.286 135.554 191.432Z" fill="black"/>
<path d="M189.542 101.316C188.959 105.204 187.941 108.976 186.83 112.801L183.485 124.04C181.303 131.545 179.121 139.05 177.085 146.593C174.975 154.118 173.084 161.7 171.192 169.283C169.301 176.865 167.337 184.428 165.353 192.063C165.294 192.281 165.018 192.441 164.8 192.383C164.582 192.325 164.423 192.049 164.482 191.832C166.156 184.191 167.902 176.571 169.595 168.858C171.341 161.237 173.107 153.543 175.071 145.98C177.035 138.417 179.237 130.84 181.346 123.315L184.619 112.057C185.71 108.305 186.946 104.591 188.618 100.993C188.749 100.795 189.026 100.635 189.224 100.765C189.495 100.915 189.581 101.171 189.542 101.316Z" fill="black"/>
<path d="M183.169 99.6939C182.368 103.524 181.204 107.257 179.987 110.898C178.751 114.612 177.534 118.254 176.371 121.987C174.063 129.381 171.973 136.833 169.936 144.377C168.917 148.149 167.918 151.849 166.972 155.64C165.953 159.412 165.172 163.169 164.372 166.999C163.571 170.829 162.79 174.586 161.917 178.397C161.044 182.207 160.17 186.018 158.934 189.732C158.875 189.949 158.599 190.109 158.308 190.032C158.09 189.974 157.931 189.699 157.99 189.481C160.007 182.01 161.226 174.326 162.663 166.7C163.391 162.851 164.191 159.021 165.045 155.283C165.918 151.473 166.864 147.681 167.79 143.963C169.755 136.399 171.845 128.947 174.1 121.461C175.264 117.728 176.427 113.995 177.644 110.353C178.88 106.639 180.242 103.036 182.112 99.5687C182.244 99.3704 182.521 99.2107 182.792 99.3605C183.121 99.2927 183.155 99.4569 183.169 99.6939Z" fill="black"/>
<path d="M176.305 98.7243C175.379 102.443 174.182 106.012 173.058 109.6C171.933 113.188 170.881 116.796 169.902 120.423C167.924 127.749 166.256 135.079 164.351 142.425L158.417 164.403C156.366 171.71 154.388 179.036 152.338 186.343C152.279 186.561 152.002 186.721 151.785 186.663C151.567 186.605 151.408 186.329 151.466 186.111C153.227 178.727 155.059 171.362 156.872 164.07L162.424 142.068C164.256 134.703 165.925 127.372 167.85 119.954C168.848 116.255 169.827 112.628 170.971 108.967C172.115 105.307 173.53 101.796 175.454 98.4199C175.585 98.2216 175.842 98.1346 176.113 98.2844C176.258 98.323 176.364 98.5066 176.305 98.7243Z" fill="black"/>
<path d="M168.885 99.5493C168.381 103.147 167.606 106.595 166.666 110.076L163.866 120.449L158.41 141.232C156.549 148.123 154.669 155.087 152.736 161.958C151.796 165.44 150.73 168.81 149.718 172.273C148.705 175.735 147.62 179.178 146.409 182.51C146.35 182.728 146.074 182.888 145.783 182.811C145.565 182.753 145.406 182.477 145.465 182.259C147.543 175.427 149.331 168.516 151.139 161.534C152.926 154.623 154.661 147.621 156.449 140.711L161.76 119.889L164.488 109.497C164.958 107.756 165.427 106.015 166.043 104.313C166.585 102.591 167.273 100.909 168.034 99.245C168.165 99.0467 168.442 98.887 168.64 99.0175C168.765 99.1286 168.871 99.3124 168.885 99.5493Z" fill="black"/>
<path d="M271.844 109.304C273.557 107.993 275.463 107.212 277.37 106.431C279.354 105.765 281.241 105.079 283.226 104.412C287.097 103.059 291.046 101.821 294.995 100.582C296.96 100.01 298.768 99.2091 300.851 98.5632C301.401 98.3834 301.833 98.2769 302.462 98.2115C302.462 98.2115 302.58 98.138 302.776 98.1789C302.776 98.1789 302.776 98.1789 302.874 98.1993C302.972 98.2197 303.07 98.2401 303.168 98.2605C303.266 98.2809 303.364 98.3013 303.344 98.3952C303.422 98.5096 303.52 98.5302 303.598 98.6446C303.676 98.759 303.754 98.8732 303.734 98.9672C303.714 99.0612 303.714 99.0613 303.792 99.1757C303.772 99.2697 303.752 99.3635 303.732 99.4575C303.712 99.5515 303.692 99.6455 303.672 99.7395C303.612 100.021 303.494 100.095 303.474 100.189L303.04 100.785L303.02 100.88L302.98 101.067L302.802 101.423L302.446 102.134L301.852 103.482C301.574 104.308 301.472 105.268 301.37 106.228C301.268 107.188 301.362 108.189 301.358 109.17C301.452 110.171 301.547 111.172 301.739 112.193C301.931 113.215 302.143 114.142 302.453 115.09C302.511 115.299 302.452 115.581 302.117 115.707C301.901 115.76 301.607 115.699 301.549 115.491C300.635 113.534 300.25 111.491 300.082 109.395C299.988 108.394 299.914 107.299 299.938 106.224C299.961 105.15 299.985 104.075 300.421 102.988L301.036 101.546L301.294 100.814L301.472 100.459L301.512 100.271C301.532 100.177 301.552 100.083 301.67 100.009L302.124 99.319C302.144 99.225 302.262 99.1512 302.262 99.1512C302.262 99.1512 302.262 99.1513 302.242 99.2453C302.242 99.2453 302.222 99.3392 302.202 99.4332L302.182 99.5273L302.24 99.7356C302.318 99.85 302.416 99.8704 302.396 99.9643C302.494 99.9848 302.474 100.079 302.572 100.099C302.67 100.12 302.67 100.12 302.768 100.14L302.866 100.16C302.964 100.181 303.082 100.107 302.964 100.181C302.532 100.287 301.982 100.467 301.55 100.573C299.683 101.166 297.835 102.155 295.752 102.801L284.06 106.745C282.076 107.411 280.189 108.098 278.302 108.785C276.416 109.471 274.431 110.138 272.331 110.387C272.016 110.42 271.84 110.285 271.802 109.983C271.588 109.545 271.726 109.378 271.844 109.304Z" fill="black"/>
<path d="M262.036 108.153C263.771 106.258 265.642 104.685 267.709 103.153L273.673 98.7037C277.688 95.7131 281.704 92.7225 285.72 89.7319C287.766 88.2937 289.813 86.8555 291.859 85.4173L294.87 83.2966L295.599 82.7615L295.973 82.4468C296.091 82.3733 296.209 82.2998 296.445 82.1527L296.543 82.173C296.661 82.0994 296.877 82.0462 296.975 82.0665C297.171 82.1072 297.367 82.1477 297.445 82.2618L297.543 82.2822C297.641 82.3025 297.719 82.4166 297.699 82.5105C297.777 82.6247 297.855 82.7389 297.933 82.8531C297.99 83.0612 298.048 83.2693 298.106 83.4773C298.222 83.8934 298.26 84.1954 298.297 84.4973C298.353 85.1951 298.429 85.7989 298.386 86.4763L298.397 88.341L298.32 92.0504C298.309 94.4988 298.493 96.9879 299.838 98.8352C299.994 99.0636 299.934 99.3451 299.698 99.4922C299.462 99.6394 299.266 99.5986 299.09 99.4641C298.192 98.3958 297.629 97.2009 297.4 95.879C297.151 94.6509 297.02 93.3493 296.987 92.068L296.965 88.3383L296.856 86.4533C296.781 85.8494 296.803 85.2658 296.727 84.662C296.69 84.3601 296.652 84.0581 296.594 83.85C296.516 83.7358 296.536 83.6419 296.458 83.5277L296.83 83.7029C297.026 83.7436 297.242 83.6904 297.262 83.5965L297.006 83.8373L296.632 84.152L295.904 84.6872L292.872 86.9015C290.924 88.36 288.857 89.8922 286.908 91.3507L274.94 100.437L268.955 104.98C266.889 106.512 264.862 107.856 262.484 108.932C262.248 109.079 261.974 108.924 261.818 108.696C261.858 108.508 261.898 108.32 262.036 108.153Z" fill="black"/>
<path d="M247.955 105.906C249.614 103.408 251.605 101.273 253.674 99.2514L259.899 93.0937C264.135 89.0714 268.37 85.0493 272.683 81.1413C274.829 79.2342 277.093 77.2534 279.338 75.3666L282.705 72.5364L284.339 71.1113C284.831 70.7233 285.363 70.1475 285.896 69.5718C286.152 69.3309 286.526 69.0164 286.978 68.8161L287.193 68.763C287.291 68.7833 287.409 68.7096 287.409 68.7096C287.213 68.669 287.841 68.6033 288.173 68.966C288.505 69.3288 288.251 69.0801 288.329 69.1943L288.309 69.288C288.289 69.3819 288.289 69.382 288.387 69.4023L288.445 69.6103L288.52 70.214C288.674 70.9319 288.709 71.7233 288.863 72.4411C289.072 73.8565 289.183 75.2516 289.628 76.5199C290.498 79.1504 292.369 81.4005 294.558 83.1283C294.733 83.2627 294.771 83.5646 294.613 83.8258C294.475 83.9932 294.161 84.0263 293.985 83.8918C291.601 82.1235 289.534 79.8326 288.41 76.9534C287.789 75.5506 287.6 74.0414 287.391 72.626C287.237 71.9081 287.182 71.2105 287.028 70.4926L286.933 69.9828L286.953 69.8891C287.031 70.0032 286.875 69.7749 287.109 70.1173C287.342 70.4598 287.99 70.3002 287.774 70.3535C287.558 70.4067 287.302 70.6476 287.046 70.8885C286.534 71.3703 286.12 71.8724 285.49 72.4278L283.855 73.8531L280.587 76.7037C278.44 78.6108 276.274 80.6116 274.127 82.5187C269.814 86.4267 265.677 90.4693 261.52 94.6056L255.294 100.763C253.225 102.785 251.059 104.785 248.659 106.444C248.423 106.591 248.129 106.53 247.973 106.302C247.875 106.282 247.817 106.074 247.955 105.906Z" fill="black"/>
<path d="M230.554 103.36C232.097 100.447 234.09 97.822 236.18 95.2176C238.251 92.7071 240.342 90.103 242.51 87.6128C246.749 82.6121 251.185 77.652 255.677 72.8999C257.924 70.5238 260.366 68.1883 262.691 65.9264C263.853 64.7954 265.015 63.6645 266.275 62.5539C266.905 61.9986 267.535 61.4434 268.165 60.888L268.657 60.5001L268.893 60.3529L269.129 60.2058L270.035 59.3159C270.311 58.9812 270.665 58.7605 271.039 58.4461L271.275 58.2991C271.393 58.2255 271.491 58.2459 271.609 58.1724C271.727 58.0988 271.825 58.119 272.021 58.1596C272.119 58.1799 272.119 58.1799 272.217 58.2002C272.315 58.2205 272.413 58.2409 272.511 58.2612C272.882 58.4362 273.038 58.6644 273.214 58.7989C273.857 59.6182 274.207 60.3767 274.556 61.135C274.905 61.8934 275.137 62.7253 275.526 63.296C275.895 63.9606 276.245 64.7189 276.712 65.4037C278.386 68.1025 280.511 70.601 282.952 72.5771C283.128 72.7116 283.166 73.0136 283.008 73.2748C282.87 73.4422 282.556 73.4751 282.38 73.3406C279.625 71.3974 277.402 68.8785 275.532 66.139C275.065 65.4542 274.598 64.7694 274.248 64.0111C273.801 63.2324 273.55 62.4943 273.18 61.8297C272.811 61.1652 272.462 60.4069 272.052 59.93C271.974 59.8158 271.876 59.7956 271.798 59.6814C271.896 59.7017 271.896 59.7016 272.014 59.6281L271.896 59.7017C271.66 59.8488 271.384 60.1834 271.03 60.404L270.124 61.2942L269.868 61.5349L269.612 61.7758L269.12 62.1638C268.49 62.7191 267.958 63.2948 267.328 63.8502C266.166 64.9811 265.003 66.112 263.841 67.243C261.497 69.5987 259.27 71.8808 257.004 74.3507C252.511 79.1028 248.194 83.9893 243.955 88.99C241.884 91.5005 239.813 94.0111 237.723 96.6154C235.652 99.1259 233.582 101.637 231.159 103.878C230.923 104.025 230.707 104.078 230.454 103.83C230.474 103.736 230.514 103.548 230.554 103.36Z" fill="black"/>
<path d="M216.178 102.006C216.879 98.7228 218.148 95.6547 219.593 92.7213C221.057 89.6941 222.502 86.7607 224.143 83.8679C227.228 78.0416 230.587 72.3702 233.946 66.6987C235.566 63.8997 237.5 61.0678 239.219 58.2891L240.581 56.2202L240.739 55.959L240.877 55.7918L241.193 55.2696C241.371 54.9147 241.647 54.58 241.845 54.1312L242.003 53.87C242.023 53.7762 242.024 53.7763 242.142 53.7028C242.162 53.609 242.259 53.6292 242.397 53.4619L242.515 53.3882C242.515 53.3882 242.515 53.3884 242.633 53.3149C242.731 53.3352 242.751 53.2413 242.849 53.2616C242.947 53.2819 242.967 53.1882 243.065 53.2085C243.163 53.2288 243.163 53.2288 243.163 53.2288L243.261 53.2492C243.359 53.2695 243.457 53.2897 243.554 53.31C243.75 53.3506 243.828 53.4646 243.926 53.4849C244.376 53.7741 244.727 54.043 244.981 54.2915L246.894 55.8639C248.203 56.919 249.315 57.9335 250.644 58.8947C251.972 59.856 253.32 60.7233 254.669 61.5908C257.484 63.2521 260.496 64.4647 263.67 64.9268C263.963 64.9877 264.119 65.2159 264.059 65.4974C263.999 65.7788 263.763 65.9258 263.567 65.8852C261.863 65.7277 260.198 65.3826 258.672 64.8701C257.047 64.3373 255.561 63.6373 254.094 62.8434C252.628 62.0494 251.182 61.1615 249.833 60.2941C248.485 59.4267 247.079 58.3514 245.868 57.3166L243.955 55.7442C243.603 55.4754 243.35 55.2268 243.076 55.0721C242.978 55.0518 242.978 55.0518 242.978 55.0518L243.076 55.0721C243.174 55.0924 243.174 55.0923 243.292 55.0188C243.39 55.0391 243.41 54.9454 243.508 54.9657L243.626 54.8921C243.646 54.7983 243.626 54.8921 243.626 54.8921L243.606 54.9861L243.447 55.2472C243.269 55.6022 242.993 55.9368 242.815 56.2917L242.499 56.8139C242.479 56.9077 242.361 56.9813 242.321 57.169L242.163 57.4301L240.899 59.5192C239.18 62.2979 237.364 65.0562 235.821 67.9693C232.56 73.6611 229.202 79.3328 226.214 85.1793C224.672 88.0924 223.227 91.0258 221.782 93.9592C220.338 96.8926 218.991 99.8464 217.252 102.719C217.094 102.98 216.78 103.013 216.605 102.878C216.195 102.402 216.138 102.194 216.178 102.006Z" fill="black"/>
<path d="M204.683 101.037C204.501 98.0614 204.828 95.0936 205.351 92.1666C205.873 89.2397 206.494 86.3332 207.212 83.4468C208.551 77.6538 210.261 72.0357 211.894 66.3036L214.518 57.8396L215.174 55.7238L215.214 55.5361C215.214 55.5361 215.234 55.4424 215.254 55.3486L215.354 54.8798C215.394 54.6923 215.336 54.4844 215.514 54.1297C215.534 54.0359 215.534 54.036 215.652 53.9625C215.672 53.8688 215.79 53.7952 215.81 53.7015C215.83 53.6077 216.066 53.461 216.261 53.5016C216.477 53.4484 216.575 53.4686 216.771 53.5092C217.24 53.7045 217.142 53.6841 217.317 53.8185C218.645 54.7794 219.599 56.0545 220.475 57.2154C221.351 58.3764 222.227 59.5373 223.261 60.4373C224.274 61.431 225.426 62.2577 226.695 63.0107C229.137 64.4965 231.894 65.4603 234.711 66.1428C235.004 66.2037 235.16 66.4319 235.1 66.7132C235.04 66.9945 234.804 67.1414 234.511 67.0805C233.043 66.7759 231.576 66.4712 230.148 65.9792C228.721 65.4871 227.314 64.9013 226.044 64.1483C224.775 63.3952 223.427 62.5281 222.315 61.5141C221.086 60.5735 220.132 59.2985 219.256 58.1375C218.38 56.9766 217.484 55.9094 216.312 55.1767C216.039 55.022 216.312 55.1767 216.312 55.1767C216.41 55.197 216.508 55.2172 216.724 55.1641C216.822 55.1844 217.057 55.0375 217.057 55.0375L217.195 54.8703C217.195 54.8703 217.195 54.8702 217.215 54.7765C217.215 54.7765 217.175 54.964 217.155 55.0578L217.133 55.6408C217.113 55.7346 217.093 55.8282 217.053 56.0158L216.993 56.2971L216.337 58.413L213.908 66.9175C212.296 72.5558 210.683 78.1942 209.364 83.8935C208.744 86.8001 208.143 89.613 207.621 92.54C207.098 95.467 206.497 98.2798 205.681 101.146C205.621 101.427 205.288 101.554 205.112 101.419C204.819 101.358 204.741 101.245 204.683 101.037Z" fill="black"/>
<path d="M197.021 99.8993C196.595 98.5374 196.561 97.257 196.547 95.8828C196.611 94.6228 196.597 93.2486 196.583 91.8744C196.534 89.2198 196.506 86.4714 196.556 83.8372L196.591 79.8288L196.651 79.5474L196.671 79.4537C196.691 79.3599 196.651 79.5475 196.671 79.4537C196.671 79.4537 196.691 79.36 196.613 79.2458C196.633 79.152 196.555 79.0377 196.595 78.8501C196.615 78.7563 196.537 78.6422 196.735 78.1936C196.755 78.0998 196.892 77.9328 197.01 77.8594C197.128 77.7859 197.246 77.7124 197.363 77.639C197.481 77.5656 197.579 77.5859 197.677 77.6063L197.775 77.6267C197.873 77.6471 197.971 77.6675 198.068 77.6878C198.264 77.7286 198.44 77.8632 198.635 77.9039C199.378 78.2546 199.905 78.6581 200.452 78.968C200.98 79.3716 201.429 79.6611 202.074 79.9913C202.621 80.3011 203.286 80.5375 203.833 80.8474C205.065 81.2999 206.297 81.7524 207.589 81.9235C207.882 81.9847 208.038 82.213 207.978 82.4944C207.918 82.7758 207.683 82.9225 207.487 82.8818C206.077 82.7841 204.708 82.4989 203.456 82.1402C202.791 81.9038 202.126 81.6673 201.461 81.4309C200.796 81.1944 200.151 80.8641 199.624 80.4605C199.077 80.1506 198.53 79.8408 197.963 79.6247C197.865 79.6043 197.669 79.5636 197.571 79.5432C197.474 79.5228 197.474 79.5229 197.376 79.5025L197.473 79.5228C197.571 79.5432 197.571 79.5434 197.689 79.47C197.807 79.3966 197.905 79.4167 198.023 79.3433C198.14 79.2699 198.278 79.1029 198.278 79.1029C198.456 78.7481 198.358 78.7276 198.358 78.7276C198.358 78.7276 198.358 78.7277 198.436 78.8418C198.416 78.9356 198.494 79.0499 198.474 79.1437L198.512 79.4452L198.492 79.5391L198.53 79.8409L198.592 83.8695L198.835 91.8537C198.849 93.2279 198.883 94.5084 198.897 95.8826C198.911 97.2568 198.73 98.59 198.039 99.9154C197.881 100.176 197.568 100.209 197.372 100.168C197.079 100.107 197.001 99.9931 197.021 99.8993Z" fill="black"/>
<path d="M354.265 125.833C359.878 123.886 365.871 123.133 371.741 123.128C377.63 123.051 383.508 123.595 389.36 124.523C395.231 125.379 400.872 126.798 406.606 128.164C412.247 129.583 417.921 131.167 423.477 133.188C428.961 135.191 434.438 137.504 439.538 140.342C444.712 143.2 449.528 146.509 454.173 150.164C456.486 152.028 458.725 153.872 460.945 155.79L461.776 156.479L462.228 156.833L462.48 157.057L462.607 157.168L462.66 157.26L462.714 157.353C462.767 157.445 462.713 157.353 462.747 157.518C462.78 157.683 462.814 157.848 462.775 157.994L462.755 158.067L462.715 158.213C462.696 158.286 462.583 158.412 462.564 158.485C462.451 158.611 462.339 158.738 462.246 158.791C462.041 158.971 461.855 159.078 461.69 159.112C461.319 159.326 460.968 159.468 460.563 159.517C459.105 159.989 457.634 160.223 456.215 160.55C450.468 161.837 444.547 162.609 438.65 162.138C438.411 162.152 438.178 161.856 438.238 161.637C438.224 161.399 438.522 161.166 438.741 161.224C444.511 161.584 450.306 160.7 455.927 159.301C457.345 158.975 458.744 158.721 460.129 158.229C460.48 158.088 460.739 158.001 461.017 157.84C461.183 157.806 461.295 157.679 461.388 157.626C461.407 157.553 461.407 157.553 461.48 157.573C461.461 157.645 461.401 157.864 461.455 157.956C461.508 158.049 461.435 158.029 461.508 158.048L461.455 157.956L461.255 157.825L460.877 157.49L459.973 156.782C457.714 155.01 455.474 153.166 453.215 151.394C448.623 147.832 443.767 144.668 438.72 141.922C433.673 139.176 428.322 136.974 422.819 135.045C417.389 133.135 411.787 131.57 406.146 130.151C400.486 128.805 394.825 127.458 389.119 126.569C383.413 125.679 377.589 125.227 371.865 125.27C368.967 125.282 366.102 125.46 363.238 125.637C360.353 125.887 357.522 126.229 354.598 126.625C354.36 126.64 354.087 126.489 354.074 126.251C353.947 126.14 354.079 125.94 354.265 125.833Z" fill="black"/>
<path d="M361.815 279.165C369.653 281.71 377.245 284.58 384.951 287.324C392.657 290.068 400.481 292.375 408.417 294.556C416.314 296.882 424.099 299.335 431.917 301.953L437.75 303.81C438.314 304.038 438.805 304.246 439.223 304.435L439.934 304.701L440.226 304.779L440.372 304.817C440.372 304.817 440.445 304.837 440.299 304.798L440.226 304.779C440.226 304.779 440.153 304.759 440.06 304.813C439.967 304.866 439.894 304.847 439.781 304.974C439.669 305.1 439.537 305.299 439.498 305.445C439.458 305.591 439.438 305.663 439.472 305.828C439.505 305.993 439.525 305.921 439.505 305.994L439.558 306.086C439.612 306.178 439.612 306.178 439.558 306.086L439.326 305.79C439.146 305.586 439.02 305.475 438.841 305.271C438.462 304.936 438.156 304.621 437.777 304.286C436.316 303.04 434.576 301.954 432.909 300.888L431.621 300.157L430.26 299.406L428.899 298.655L428.208 298.316L427.863 298.146L427.664 298.015L427.591 297.996L427.518 297.976L427.445 297.957C427.981 297.709 426.385 298.691 427.699 296.151L427.124 296.545C427.461 296.166 427.852 295.878 428.13 295.718C428.481 295.577 428.739 295.489 429.071 295.421C429.661 295.265 430.211 295.254 430.762 295.244C431.863 295.223 432.851 295.329 433.932 295.381C435.982 295.612 438.012 295.915 439.989 296.127C440.977 296.232 441.946 296.411 443.007 296.536C443.996 296.641 444.984 296.747 445.866 296.669C446.105 296.654 446.27 296.62 446.436 296.586L446.529 296.532C446.529 296.532 446.529 296.532 446.436 296.586C446.436 296.586 446.416 296.658 446.343 296.639L446.323 296.712L446.304 296.785C446.191 296.911 446.244 297.003 446.205 297.149C446.185 297.222 446.238 297.314 446.238 297.314C446.219 297.387 446.219 297.387 446.292 297.406C446.398 297.59 446.418 297.518 446.345 297.498C446.272 297.479 446.219 297.387 446.073 297.348L445.402 296.936C445.203 296.805 444.824 296.471 444.698 296.359C444.572 296.248 444.372 296.117 444.193 295.913C443.794 295.651 443.396 295.39 443.017 295.055C441.35 293.989 439.591 292.976 437.93 291.599C437.551 291.264 437.099 290.91 436.76 290.43C436.634 290.319 436.581 290.226 436.455 290.115L436.169 289.727L436.115 289.634C436.115 289.634 436.009 289.45 436.029 289.377C436.029 289.377 435.995 289.212 436.035 289.067C436.074 288.921 436.094 288.848 436.133 288.702C436.173 288.557 436.285 288.43 436.378 288.377C436.471 288.323 436.471 288.323 436.563 288.27C436.636 288.289 436.729 288.235 436.729 288.235L436.822 288.182C436.895 288.202 436.988 288.148 436.988 288.148L437.061 288.167C437.28 288.225 437.426 288.264 437.518 288.21C437.664 288.249 437.737 288.268 437.81 288.288L438.122 288.292L438.891 288.34L440.43 288.435C442.447 288.501 444.516 288.659 446.512 288.797L449.517 288.968L451.056 289.064L451.898 289.131L452.283 289.155L452.429 289.193C452.429 289.193 452.429 289.193 452.356 289.174C452.356 289.174 452.283 289.154 452.263 289.227C452.171 289.281 452.078 289.335 451.985 289.388L451.873 289.514C451.76 289.641 451.661 290.005 451.715 290.097C451.695 290.17 451.748 290.262 451.802 290.354C451.855 290.447 451.855 290.447 451.928 290.466C451.928 290.466 452.001 290.485 451.928 290.466L451.855 290.447L451.582 290.296L450.965 289.977L449.711 289.41L447.108 288.33C445.416 287.648 443.631 287.019 441.865 286.317C441.155 286.05 440.166 285.944 439.271 285.785L438.521 285.665C438.302 285.607 438.083 285.549 437.718 285.452C437.645 285.433 437.645 285.433 437.519 285.321L437.446 285.302C437.373 285.283 437.32 285.191 437.339 285.118C437.286 285.025 437.286 285.025 437.253 284.86C437.219 284.695 437.259 284.549 437.278 284.477C437.318 284.331 437.431 284.205 437.523 284.151C437.543 284.078 437.616 284.098 437.709 284.044C437.801 283.991 437.801 283.991 437.894 283.937C438.06 283.903 438.153 283.85 438.318 283.815C438.577 283.728 438.815 283.713 439.054 283.698C440.95 283.341 442.894 283.387 444.711 283.322L446.123 283.306L446.839 283.262C447.078 283.247 447.317 283.232 447.556 283.217C448.491 283.231 449.426 283.244 450.361 283.257C450.838 283.228 451.296 283.271 451.701 283.222C451.939 283.207 452.105 283.173 452.344 283.158C452.509 283.124 452.768 283.036 452.768 283.036C452.768 283.036 452.768 283.036 452.748 283.109C452.728 283.182 452.708 283.255 452.689 283.328C452.669 283.401 452.669 283.401 452.742 283.42L452.795 283.512C452.649 283.473 452.45 283.343 452.231 283.285C451.813 283.096 451.375 282.98 450.957 282.791C447.439 281.625 443.81 280.585 440.292 279.419C440.073 279.361 439.913 279.084 439.992 278.793C440.052 278.574 440.33 278.414 440.549 278.472C444.086 279.565 447.735 280.532 451.253 281.698C451.691 281.814 452.109 282.003 452.62 282.138C452.839 282.196 453.038 282.327 453.33 282.405C453.476 282.443 453.602 282.554 453.656 282.647C453.782 282.758 453.835 282.85 453.869 283.015C453.902 283.181 453.843 283.399 453.803 283.545C453.691 283.671 453.579 283.798 453.486 283.851C453.115 284.065 452.876 284.08 452.618 284.168C452.359 284.256 452.121 284.27 451.882 284.285C451.404 284.315 450.927 284.345 450.449 284.374C449.514 284.361 448.579 284.347 447.624 284.407C447.386 284.422 447.147 284.436 447.001 284.397L446.285 284.442L444.853 284.531C442.962 284.577 441.145 284.642 439.322 285.018C439.083 285.033 438.898 285.14 438.659 285.155L438.401 285.243C438.401 285.243 438.474 285.262 438.493 285.189C438.586 285.135 438.679 285.082 438.719 284.936C438.758 284.791 438.778 284.718 438.744 284.553C438.711 284.388 438.711 284.388 438.638 284.369C438.585 284.276 438.585 284.276 438.512 284.257L438.438 284.238C438.365 284.218 438.365 284.218 438.365 284.218C438.438 284.238 438.73 284.315 438.876 284.354L439.553 284.455L440.979 284.676C441.417 284.792 441.948 284.855 442.459 284.99C444.244 285.62 445.957 286.229 447.723 286.931L450.344 287.938L451.672 288.524L452.362 288.863C452.508 288.902 452.561 288.994 452.707 289.033C452.78 289.052 452.834 289.144 452.907 289.164C452.98 289.183 452.96 289.256 453.033 289.275C453.086 289.367 453.086 289.367 453.213 289.479C453.266 289.571 453.319 289.663 453.299 289.736C453.332 289.901 453.327 290.212 453.121 290.392L453.009 290.518C452.916 290.572 452.804 290.698 452.711 290.752C452.638 290.732 452.618 290.805 452.545 290.786C452.453 290.839 452.453 290.839 452.38 290.82C452.307 290.8 452.214 290.854 452.214 290.854L451.975 290.869L451.59 290.845L450.894 290.817L449.355 290.722L446.351 290.55C444.334 290.485 442.264 290.327 440.248 290.261L438.709 290.166L437.94 290.118L437.483 290.075C437.264 290.017 437.118 289.978 437.025 290.032C436.879 289.993 436.806 289.974 436.733 289.954C436.733 289.954 436.733 289.954 436.806 289.974L436.879 289.993C436.879 289.993 436.972 289.939 437.045 289.959C437.137 289.905 437.137 289.905 437.23 289.852C437.323 289.798 437.435 289.672 437.455 289.599C437.494 289.453 437.514 289.38 437.534 289.308C437.554 289.235 437.52 289.07 437.52 289.07C437.54 288.997 437.487 288.905 437.487 288.905L437.54 288.997L437.719 289.201L437.899 289.404C438.205 289.72 438.51 290.035 438.889 290.369C440.371 291.543 442.13 292.555 443.87 293.641C444.341 293.922 444.74 294.184 445.192 294.538C445.391 294.669 445.643 294.892 445.843 295.023C446.095 295.246 446.095 295.246 446.367 295.396L447.038 295.808C447.164 295.919 447.31 295.958 447.436 296.07C447.563 296.181 447.762 296.312 447.975 296.681C448.028 296.773 448.028 296.773 448.008 296.846C448.062 296.938 448.042 297.011 448.002 297.156C448.016 297.394 447.904 297.521 447.864 297.667C447.844 297.739 447.844 297.739 447.752 297.793L447.659 297.846C447.639 297.919 447.566 297.9 447.546 297.973C447.527 298.046 447.454 298.026 447.434 298.099L447.341 298.153C447.249 298.206 447.156 298.26 446.99 298.294C446.897 298.348 446.824 298.328 446.732 298.381C446.4 298.45 446.069 298.518 445.83 298.533C444.709 298.627 443.648 298.502 442.66 298.396C441.671 298.29 440.61 298.165 439.622 298.06C437.591 297.756 435.614 297.545 433.638 297.333C432.649 297.228 431.641 297.195 430.706 297.181C430.229 297.211 429.751 297.241 429.347 297.29C428.942 297.339 428.644 297.572 428.664 297.499L428.088 297.893C429.475 295.372 427.806 296.335 428.416 296.106C428.343 296.087 428.416 296.106 428.416 296.106L428.489 296.126L428.615 296.237L428.96 296.406L429.651 296.746L431.012 297.497L432.373 298.248L433.734 298.999C435.494 300.011 437.287 301.189 438.948 302.566C439.326 302.901 439.778 303.255 440.137 303.662C440.316 303.866 440.496 304.07 440.676 304.273L440.981 304.588C441.054 304.608 441.108 304.7 441.214 304.885L441.267 304.977C441.248 305.05 441.32 305.069 441.301 305.142C441.354 305.234 441.354 305.234 441.314 305.38C441.348 305.545 441.309 305.69 441.269 305.836C441.23 305.982 441.077 306.254 440.965 306.38C440.779 306.487 440.76 306.56 440.594 306.594C440.428 306.628 440.336 306.682 440.336 306.682C440.263 306.663 440.263 306.663 440.17 306.716C439.858 306.712 439.785 306.692 439.712 306.673C439.639 306.654 439.566 306.634 439.493 306.615L439.055 306.499L438.345 306.233C437.854 306.024 437.363 305.816 436.998 305.72L431.091 303.843C423.346 301.244 415.469 298.845 407.645 296.538C399.782 294.376 391.812 292.031 384.087 289.36C376.288 286.669 368.701 283.488 361.286 279.961C361.086 279.83 360.927 279.554 361.059 279.355C361.337 279.194 361.596 279.107 361.815 279.165Z" fill="black"/>
<path d="M554.772 244.736C560.274 243.775 565.784 243.362 571.328 243.115C576.872 242.868 582.395 242.693 587.919 242.519C599.02 242.262 610.082 242.152 621.104 242.187L637.717 242.378C643.255 242.441 648.792 242.505 654.344 242.806C665.394 243.318 676.519 244.708 687.131 247.993C687.35 248.051 687.51 248.328 687.45 248.547C687.391 248.765 687.113 248.926 686.894 248.868C676.296 245.821 665.311 244.78 654.314 244.361C648.816 244.152 643.259 244.161 637.775 244.189L621.175 244.237C610.133 244.274 599.072 244.385 588.044 244.661C582.52 244.835 576.996 245.01 571.526 245.277C565.982 245.524 560.531 245.718 554.94 245.562C554.701 245.577 554.449 245.353 554.455 245.042C554.382 245.023 554.514 244.824 554.772 244.736Z" fill="black"/>
<path d="M554.049 249.392C559.229 249.048 564.437 249.179 569.606 249.457L585.111 250.289C595.427 250.917 605.798 251.637 616.109 252.576C621.291 253.091 626.4 253.588 631.563 254.176C636.725 254.765 641.848 255.499 646.991 256.16C652.133 256.822 657.237 257.629 662.374 258.601C667.51 259.574 672.568 260.838 677.488 262.612C677.707 262.67 677.867 262.947 677.788 263.239C677.729 263.458 677.451 263.618 677.159 263.54C667.386 260.322 657.081 259.072 646.776 257.822C641.613 257.234 636.471 256.572 631.362 256.076C626.179 255.561 621.07 255.065 615.921 254.714C605.591 253.848 595.294 253.148 584.957 252.593L569.432 251.833C564.264 251.556 559.096 251.278 553.919 250.452C553.7 250.394 553.448 250.17 553.526 249.879C553.625 249.514 553.811 249.407 554.049 249.392Z" fill="black"/>
<path d="M553.776 254.724C563.32 256.481 572.765 258.602 582.388 260.067C587.179 260.873 592.03 261.46 596.841 262.192L611.314 264.245C616.145 264.904 620.956 265.637 625.807 266.224L633.073 267.141C635.489 267.47 637.87 267.635 640.339 268.058C645.224 268.81 649.95 270.144 654.663 271.242C659.376 272.339 664.128 273.29 668.951 273.401C669.19 273.386 669.442 273.61 669.456 273.848C669.47 274.086 669.246 274.338 669.007 274.353C664.072 274.368 659.207 273.544 654.402 272.5C649.577 271.529 644.883 270.359 640.125 269.719C637.783 269.408 635.328 269.224 632.893 268.967L625.588 268.196C620.737 267.609 615.887 267.022 611.036 266.436L596.543 264.456C591.712 263.796 586.881 263.137 582.07 262.404C577.259 261.671 572.394 260.846 567.642 259.895C565.266 259.419 562.836 258.852 560.499 258.23C558.163 257.609 555.793 256.822 553.554 255.836C553.355 255.705 553.195 255.428 553.327 255.229C553.279 254.826 553.537 254.738 553.776 254.724Z" fill="black"/>
<path d="M552.318 261.543C557.009 261.852 561.563 262.671 566.116 263.491L579.792 266.187C584.326 267.08 588.952 267.919 593.486 268.811C598.02 269.704 602.627 270.615 607.161 271.508C616.263 273.458 625.345 275.481 634.387 277.65C643.41 279.892 652.413 282.207 661.337 284.813C661.556 284.872 661.716 285.149 661.657 285.368C661.598 285.586 661.32 285.747 661.101 285.689C652.098 283.374 643.055 281.205 634.046 279.201C624.984 277.105 615.936 275.247 606.795 273.443C602.261 272.551 597.654 271.639 593.1 270.819C588.546 270 583.993 269.181 579.386 268.269L565.691 265.645C561.157 264.753 556.57 263.768 552.101 262.345C551.882 262.287 551.722 262.01 551.8 261.718C551.82 261.645 552.006 261.538 552.318 261.543Z" fill="black"/>
<path d="M549.919 268.967C554.572 269.422 559.106 270.315 563.62 271.281C568.115 272.32 572.61 273.359 577.085 274.471C586.055 276.622 594.986 278.918 603.917 281.215C612.828 283.585 621.718 286.027 630.59 288.543C639.461 291.058 648.313 293.647 657.145 296.309C657.364 296.367 657.525 296.644 657.466 296.863C657.406 297.082 657.128 297.242 656.909 297.184L630.176 290.075C621.265 287.705 612.335 285.409 603.385 283.185C594.454 280.889 585.504 278.665 576.514 276.587C572.019 275.548 567.524 274.509 563.029 273.47C560.818 272.96 558.535 272.431 556.344 271.849C554.079 271.247 551.888 270.664 549.683 269.843C549.464 269.784 549.304 269.507 549.382 269.215C549.495 269.089 549.773 268.928 549.919 268.967Z" fill="black"/>
<path d="M549.551 273.837C551.967 274.166 554.343 274.641 556.7 275.19C559.057 275.738 561.394 276.359 563.711 277.053C568.346 278.442 572.962 279.903 577.65 281.384C586.86 284.379 596.032 287.521 605.203 290.662C614.354 293.876 623.506 297.091 632.697 300.159C641.868 303.3 651.079 306.296 660.368 309C660.587 309.058 660.747 309.335 660.688 309.554C660.629 309.773 660.351 309.933 660.131 309.875C650.783 307.39 641.44 304.594 632.21 301.672C622.979 298.749 613.808 295.608 604.617 292.539C595.446 289.398 586.255 286.329 577.025 283.407C572.41 281.946 567.795 280.484 563.14 279.169C560.823 278.475 558.505 277.781 556.207 277.013C553.91 276.246 551.592 275.552 549.334 274.639C549.115 274.581 548.975 274.231 549.107 274.032C549.146 273.886 549.332 273.779 549.551 273.837Z" fill="black"/>
<path d="M548.301 278.546C553.618 279.723 558.757 281.556 563.818 283.681C568.825 285.714 573.793 287.893 578.741 290.144C588.657 294.575 598.46 299.131 608.322 303.469C618.185 307.807 628.272 311.892 638.346 315.738C648.419 319.585 658.605 323.305 668.831 326.88C669.05 326.938 669.21 327.215 669.131 327.507C669.072 327.726 668.793 327.886 668.501 327.808C658.217 324.453 647.952 321.024 637.766 317.304C627.58 313.584 617.453 309.645 607.478 305.433C597.523 301.149 587.72 296.592 577.784 292.235C572.816 290.057 567.849 287.878 562.914 285.865C557.907 283.832 552.9 281.799 548.025 279.567C547.826 279.436 547.666 279.159 547.798 278.959C547.897 278.595 548.082 278.488 548.301 278.546Z" fill="black"/>
<path d="M547.388 282.573C552.925 284.668 558.231 287.327 563.352 290.093C568.546 292.878 573.648 295.717 578.822 298.576C589.117 304.2 599.393 309.897 609.879 315.104C620.346 320.383 630.925 325.535 641.755 330.051C652.585 334.567 663.684 338.374 675.119 340.941C675.339 340.999 675.498 341.276 675.439 341.494C675.38 341.713 675.175 341.893 674.883 341.816C663.316 339.448 652.011 335.822 641.049 331.505C630.107 327.115 619.415 322.089 608.928 316.883C598.349 311.73 587.981 306.086 577.686 300.462C572.492 297.677 567.391 294.838 562.197 292.052C557.003 289.267 551.882 286.501 546.84 283.443C546.64 283.312 546.553 283.055 546.705 282.782C546.91 282.603 547.169 282.515 547.388 282.573Z" fill="black"/>
</svg>
