<svg width="207" height="313" viewBox="0 0 207 313" fill="none" xmlns="http://www.w3.org/2000/svg">
<path d="M87.4879 63.4024C84.5796 62.2476 81.647 61.1381 78.6716 60.2097C75.7013 59.2443 72.7003 58.4375 69.6498 57.8614C66.6081 57.2874 63.5335 56.897 60.4655 56.9165C57.4025 56.899 54.3449 57.3039 51.4558 58.2086C48.5738 59.1277 45.9149 60.6105 43.6341 62.6434C41.2952 64.6368 39.1913 66.9034 37.3235 69.3669C33.565 74.2627 30.693 79.8427 28.7507 85.7216C26.861 91.6131 25.8534 97.8048 25.2549 104.005C24.6548 110.218 24.4567 116.488 24.22 122.762C24.1105 125.901 23.9817 129.048 23.8002 132.183C23.6346 135.334 23.3256 138.477 23.0563 141.59L21.3655 160.356C20.2359 172.862 19.1678 185.369 18.5524 197.896C18.235 204.163 18.0385 210.421 17.965 216.696C17.9098 219.835 17.9273 222.966 17.9265 226.106C17.9713 229.243 17.9343 232.375 18.1176 235.494C18.4683 241.717 19.3377 247.936 20.7523 254.005C22.1845 260.078 24.1201 266.054 26.9177 271.624C28.3181 274.397 29.9391 277.069 31.9092 279.454C33.8721 281.825 36.2346 283.935 39.0655 285.058C39.7706 285.341 40.4985 285.528 41.2414 285.667C41.9805 285.768 42.7405 285.848 43.4927 285.785C44.9991 285.711 46.4737 285.259 47.8504 284.606C50.593 283.245 52.8933 281.076 54.8932 278.708C55.0238 278.548 55.2634 278.529 55.4256 278.67C55.5808 278.796 55.6015 279.031 55.4709 279.191C53.4451 281.617 51.1076 283.879 48.2148 285.344C46.7682 286.045 45.1854 286.547 43.5492 286.641C42.7338 286.701 41.9139 286.645 41.1045 286.528C40.2985 286.387 39.5118 286.186 38.754 285.89C35.7051 284.702 33.2276 282.501 31.1819 280.072C29.129 277.628 27.4587 274.906 26.0089 272.096C23.1215 266.454 21.1152 260.41 19.6177 254.283C18.1395 248.148 17.2045 241.874 16.8392 235.559C16.6433 232.398 16.6732 229.252 16.6109 226.11C16.6028 222.969 16.5772 219.823 16.6236 216.682C16.6812 210.39 16.8552 204.102 17.1638 197.832C17.7475 185.272 18.7915 172.746 19.8859 160.232L21.5202 141.465C21.7824 138.337 22.0809 135.218 22.2326 132.102C22.4037 128.977 22.5231 125.84 22.6309 122.714C22.8483 116.448 23.0241 110.147 23.6255 103.858C24.2165 97.5792 25.2189 91.2846 27.1442 85.1974C29.1276 79.1496 32.0677 73.3943 35.9426 68.3093C37.8748 65.7719 40.0472 63.3939 42.4891 61.3102C44.8867 59.1521 47.8338 57.4957 50.9242 56.5115C54.0251 55.5171 57.2793 55.1334 60.4845 55.1721C62.0967 55.1875 63.6938 55.3015 65.272 55.5001C66.859 55.7008 68.4305 55.9618 69.9868 56.3212C73.0942 57.013 76.1322 57.9435 79.1066 59.012C82.0672 60.1155 84.9743 61.3463 87.805 62.7378C87.9916 62.8335 88.0689 63.0564 87.9805 63.2394C87.878 63.3936 87.669 63.4712 87.4879 63.4024Z" fill="black"/>
<path d="M101.563 60.6917C101.256 57.0829 101.478 53.4603 101.966 49.8756C102.497 46.3014 103.234 42.7505 104.232 39.2752C106.21 32.3328 109.12 25.5366 113.566 19.7202C115.775 16.8151 118.415 14.2046 121.46 12.1503C122.964 11.0932 124.605 10.2472 126.278 9.48564C127.94 8.73432 129.766 8.17563 131.573 7.89289C133.392 7.58753 135.216 7.49999 137.017 7.45841C137.926 7.4459 138.825 7.44421 139.721 7.45432C139.758 7.45036 139.875 7.46547 139.973 7.4762C140.07 7.4993 140.177 7.49939 140.262 7.54511C140.357 7.58057 140.452 7.62878 140.536 7.6745C140.612 7.71813 140.683 7.78644 140.75 7.82796C141.027 8.06005 141.183 8.30124 141.313 8.54918C141.573 9.03269 141.71 9.51215 141.809 9.98259C142.197 11.8622 142.166 13.6925 142.017 15.5203C141.929 16.4311 141.805 17.3459 141.591 18.2519C141.484 18.7112 141.36 19.1541 141.18 19.6089C140.991 20.0616 140.801 20.5262 140.326 20.9488L140.356 20.9175C140.283 20.9893 140.166 21.0513 140.047 21.0611C139.991 21.0732 139.92 21.0685 139.902 21.0643L139.85 21.0519C139.815 21.0435 139.778 21.035 139.745 21.0142L139.694 20.9892L139.679 20.9732C139.637 20.9503 139.588 20.8999 139.579 20.8978C139.539 20.8626 139.516 20.8316 139.5 20.815L139.409 20.6911L139.265 20.4782L139.005 20.0585L138.526 19.2422L138.52 19.2281L138.497 19.1844C138.133 18.3314 137.882 17.4544 137.696 16.5548C137.517 15.6697 137.413 14.7646 137.383 13.8512C137.352 12.9502 137.412 12.0327 137.581 11.1284C137.758 10.2263 138.04 9.33673 138.55 8.52676C138.664 8.34998 138.889 8.30168 139.065 8.40759C139.241 8.51349 139.293 8.74315 139.187 8.92203L139.186 8.9341C138.764 9.63726 138.517 10.4465 138.376 11.2807C138.244 12.1171 138.209 12.9764 138.256 13.8301C138.361 15.5271 138.716 17.2454 139.406 18.7759L139.377 18.7181L139.878 19.5145L140.124 19.8924L140.246 20.0615L140.302 20.1264C140.311 20.1285 140.278 20.1079 140.253 20.0893C140.262 20.0914 140.151 20.0262 140.106 20.0281L140.053 20.0156C140.045 20.0135 139.964 20.0073 139.918 20.0092C139.808 20.0211 139.691 20.0823 139.626 20.1563L139.659 20.1256C139.847 19.9409 140.041 19.5661 140.174 19.1895C140.318 18.8026 140.428 18.3951 140.513 17.9688C140.691 17.1305 140.792 16.2612 140.846 15.3936C140.956 13.6584 140.908 11.8729 140.549 10.2428C140.459 9.83837 140.33 9.45032 140.163 9.14244C140.084 8.99573 139.991 8.87118 139.908 8.8131L139.859 8.77601C139.841 8.77181 139.832 8.76957 139.823 8.76747C139.807 8.75091 139.806 8.77603 139.799 8.76157C139.79 8.75947 139.791 8.74717 139.717 8.75509C138.828 8.75944 137.928 8.77372 137.044 8.80489C135.276 8.86723 133.519 8.98341 131.808 9.28924C130.089 9.59298 128.468 10.1115 126.873 10.8404C125.304 11.5756 123.751 12.3914 122.342 13.42C120.925 14.4342 119.569 15.5267 118.329 16.7746C117.083 17.9957 115.917 19.3123 114.874 20.7095C110.631 26.3062 107.807 32.919 105.911 39.7278C103.967 46.5508 103.215 53.6076 102.299 60.6763C102.271 60.8864 102.088 61.0344 101.876 60.9964C101.711 61.008 101.575 60.8732 101.563 60.6917Z" fill="black"/>
<path d="M139.945 20.2067C137.777 21.0794 135.614 21.7234 133.491 22.4665C131.358 23.2076 129.324 24.1506 127.454 25.3628C123.675 27.7395 120.842 31.3761 119.04 35.489C117.175 39.5995 116.121 44.0829 115.344 48.594C114.965 50.8517 114.637 53.134 114.362 55.4169C114.088 57.6997 113.865 59.9952 113.635 62.2885C113.615 62.5008 113.432 62.6482 113.226 62.6246C113.03 62.6031 112.883 62.4278 112.89 62.2382C113.082 57.6256 113.413 52.9949 114.047 48.3986C114.734 43.815 115.686 39.2054 117.541 34.8371C119.391 30.5059 122.448 26.5017 126.499 23.922C128.502 22.6012 130.661 21.5858 132.891 20.7916C135.119 20.0098 137.437 19.5175 139.807 19.497C140.015 19.4958 140.193 19.6658 140.192 19.8699C140.191 20.01 140.089 20.1516 139.945 20.2067Z" fill="black"/>
<path d="M115.332 48.0172C118.014 46.5654 120.872 45.4232 123.791 44.5001C126.724 43.606 129.738 42.9736 132.774 42.5891C135.812 42.1922 138.889 42.0473 141.948 42.0896C143.475 42.1355 145.005 42.1566 146.534 42.3179L148.834 42.5358C149.604 42.6051 150.363 42.7738 151.118 42.8904C152.651 43.0909 154.139 43.5361 155.643 43.8828C157.108 44.3737 158.604 44.7953 160.02 45.4529C162.866 46.6693 165.611 48.2188 167.996 50.2185C172.819 54.1667 176.408 59.4539 178.796 65.1044C180.007 67.9338 180.99 70.8362 181.802 73.8C182.588 76.7574 183.225 79.743 183.752 82.7406C184.259 85.7463 184.664 88.766 185.015 91.7854C185.347 94.813 185.616 97.8255 185.848 100.855C186.312 106.913 186.674 112.935 187.113 118.975C187.533 125.023 187.881 131.066 188.136 137.125C188.657 149.234 188.819 161.373 188.368 173.492C187.88 185.615 186.989 197.693 185.755 209.765C185.436 212.778 185.118 215.79 184.736 218.8C184.345 221.808 183.88 224.812 183.356 227.801C182.307 233.778 181.045 239.717 179.404 245.579C178.58 248.509 177.661 251.403 176.576 254.245C175.491 257.088 174.248 259.892 172.683 262.53C171.897 263.848 171.024 265.119 170.012 266.294C169.008 267.471 167.84 268.532 166.496 269.346C165.136 270.144 163.558 270.622 161.959 270.572C160.359 270.534 158.835 270.004 157.466 269.268C157.28 269.172 157.22 268.941 157.309 268.758C157.406 268.577 157.632 268.504 157.809 268.597L157.818 268.599C159.113 269.279 160.539 269.747 161.977 269.772C163.414 269.809 164.834 269.371 166.079 268.621C167.325 267.86 168.421 266.859 169.365 265.719C170.317 264.581 171.158 263.352 171.913 262.065C173.426 259.478 174.617 256.713 175.671 253.901C176.717 251.076 177.606 248.2 178.401 245.288C181.537 233.632 183.339 221.658 184.46 209.622C185.66 197.592 186.525 185.508 186.969 173.439C187.387 161.363 187.191 149.267 186.639 137.189C186.363 131.15 185.996 125.115 185.566 119.077C185.116 113.047 184.734 106.995 184.256 100.972C184.012 97.9652 183.733 94.9502 183.396 91.9596C183.05 88.967 182.639 85.9844 182.127 83.0158C181.596 80.0553 180.961 77.1214 180.185 74.23C179.389 71.3467 178.421 68.5118 177.233 65.7773C174.903 60.3064 171.458 55.296 166.885 51.5737C164.62 49.692 162.025 48.242 159.317 47.084C157.976 46.47 156.545 46.0645 155.148 45.6028C153.706 45.2707 152.274 44.8518 150.805 44.6537C139.064 42.8933 126.647 43.7665 115.656 48.6946C115.464 48.7762 115.247 48.6985 115.156 48.4982C115.09 48.3165 115.166 48.1051 115.332 48.0172Z" fill="black"/>
<path d="M102.333 48.4835C100.538 47.0079 98.8867 45.5409 97.0757 44.2528C95.2752 42.9544 93.284 41.9294 91.1748 41.2337C86.9581 39.8299 82.328 39.7952 77.957 40.7923C73.5648 41.746 69.3732 43.6923 65.6873 46.3209C62.003 48.9372 58.7646 52.2851 56.6059 56.2872C56.5088 56.4681 56.28 56.5413 56.104 56.4354C55.9263 56.3418 55.8565 56.121 55.9432 55.9503C56.9323 53.8128 58.2581 51.8578 59.7983 50.0691C61.328 48.2906 63.054 46.6738 64.9332 45.2597C68.6899 42.4437 73.0067 40.3237 77.6136 39.1916C82.2138 38.1089 87.1572 38.091 91.7357 39.5685C94.0206 40.3062 96.1853 41.3979 98.1371 42.7835C100.089 44.1691 101.781 45.9264 102.93 48.0135C103.032 48.1912 102.965 48.4305 102.789 48.5287C102.624 48.6042 102.465 48.5789 102.333 48.4835Z" fill="black"/>
<path d="M51.3054 177.635C51.1916 182.139 51.3408 186.705 51.4588 191.238C51.6031 195.778 51.7183 200.324 51.889 204.87C52.2408 213.952 52.5751 223.043 53.0076 232.131C53.2239 236.676 53.45 241.21 53.7031 245.75C53.9386 250.286 54.2204 254.82 54.519 259.359C54.837 263.889 55.1812 268.426 55.6674 272.92L56.0423 276.29L56.5508 279.615C56.619 280.18 56.7962 280.682 56.9151 281.208L57.1168 281.996C57.1798 282.267 57.2994 282.512 57.3921 282.764L57.973 284.307L58.6963 285.782L59.0662 286.521L59.4978 287.224L60.3662 288.632C60.6847 289.091 61.0253 289.529 61.3471 289.964C61.6777 290.4 61.9973 290.859 62.3768 291.269C63.108 292.095 63.8159 292.954 64.6378 293.712C65.0383 294.101 65.4202 294.498 65.8328 294.865L67.1099 295.936C67.9335 296.682 68.8783 297.278 69.7681 297.938C70.2122 298.273 70.6998 298.543 71.1682 298.834L72.5924 299.698C73.0833 299.955 73.5848 300.203 74.0774 300.448C74.5805 300.683 75.0571 300.976 75.5757 301.164L77.1149 301.787L77.8886 302.1L78.6806 302.34L80.2674 302.821C80.5276 302.909 80.7987 302.974 81.0727 303.027L81.8858 303.196L83.5065 303.532L85.1518 303.708C86.2439 303.88 87.3482 303.825 88.4534 303.834C88.7253 303.835 89.0083 303.839 89.2819 303.828L90.1241 303.761L91.8098 303.641C96.2949 303.271 100.759 302.526 104.941 301.05C107.015 300.269 109.006 299.303 110.752 297.998C112.497 296.704 113.961 295.076 114.997 293.192C116.008 291.29 116.585 289.169 116.864 286.989C117.142 284.809 117.104 282.566 116.982 280.329C116.729 275.853 115.95 271.314 115.98 266.689L115.986 259.849L115.981 258.138L116.044 256.429L116.171 253.014C116.284 248.446 116.675 243.907 116.985 239.361C117.166 237.094 117.403 234.828 117.621 232.557L117.949 229.151L118.328 225.757L119.098 218.973L119.938 212.192L121.652 198.652C122.788 189.632 123.852 180.608 124.665 171.562C124.881 169.303 125.008 167.036 125.181 164.767C125.343 162.508 125.525 160.242 125.589 157.972L125.87 151.174C125.926 148.902 125.896 146.636 125.923 144.37L125.944 140.968C125.944 139.832 125.869 138.704 125.833 137.572L125.571 130.77C125.424 128.514 125.187 126.25 125.004 123.998L124.711 120.609C124.62 119.477 124.41 118.368 124.274 117.237L123.32 110.5C123.171 109.393 122.977 108.236 122.842 107.093L122.648 105.375L122.51 103.657C122.171 99.0837 122.137 94.532 121.965 89.9981C121.892 87.7344 121.783 85.4617 121.589 83.2201C121.414 80.9703 121.139 78.735 120.704 76.5377C120.277 74.3425 119.703 72.1634 118.796 70.1599C117.9 68.1461 116.692 66.287 115.096 64.8205C113.5 63.3541 111.545 62.3254 109.439 61.7328C107.319 61.1875 105.09 61.037 102.869 61.0933C102.317 61.0888 101.76 61.1857 101.203 61.2183C100.65 61.2778 100.086 61.2958 99.5395 61.3821C98.4337 61.5772 97.3242 61.7205 96.2205 61.9671C95.1239 62.2282 94.0235 62.4503 92.9395 62.7527L89.6904 63.6989L89.6822 63.6969C89.6541 63.703 89.6277 63.7096 89.6085 63.7177C88.3329 63.9616 87.0883 64.3022 85.8949 64.8082C84.7174 65.3307 83.5939 65.9811 82.5635 66.7558C81.5489 67.547 80.6264 68.4622 79.792 69.4624C78.9664 70.4648 78.2548 71.571 77.6107 72.706C75.0873 77.3229 73.8652 82.5826 73.0874 87.8338C72.3256 93.1015 72.0684 98.4517 72.021 103.801C71.9736 109.15 72.152 114.502 72.431 119.853C72.9993 130.544 73.9868 141.232 74.8918 151.915C75.7776 162.605 76.6612 173.307 76.7861 184.058C76.7855 184.262 76.6252 184.441 76.4164 184.442C76.2077 184.443 76.039 184.275 76.0307 184.069C75.864 173.359 74.9408 162.673 74.0077 151.997C73.0658 141.319 72.0355 130.632 71.4162 119.916C71.1109 114.559 70.9073 109.188 70.9317 103.808C70.9561 98.428 71.1997 93.0365 71.9452 87.6883C72.7155 82.3588 73.928 76.9819 76.5465 72.1326C77.2254 70.942 77.963 69.7783 78.8443 68.6999C79.7239 67.6339 80.7125 66.6452 81.8003 65.7821C82.904 64.9356 84.1134 64.2289 85.3888 63.6532C86.6696 63.1042 88.0198 62.725 89.3795 62.463L89.2949 62.4811L92.6012 61.5101C93.7045 61.1996 94.8317 60.9716 95.9476 60.7023C97.0705 60.4475 98.2174 60.3003 99.3512 60.0992C99.926 60.0068 100.5 59.9783 101.078 59.9252C101.655 59.8845 102.23 59.7922 102.811 59.7906C105.133 59.7204 107.481 59.8731 109.777 60.4604C112.049 61.0929 114.227 62.2133 115.982 63.8454C117.741 65.4528 119.051 67.4894 120.004 69.6189C120.974 71.7526 121.562 74.0245 122.009 76.2754C122.454 78.5388 122.731 80.8258 122.919 83.1045C123.117 85.3853 123.224 87.6696 123.304 89.9478C123.481 94.5084 123.519 99.0486 123.867 103.56L124.01 105.241L124.198 106.92C124.336 108.037 124.524 109.129 124.678 110.264L125.641 117.041C125.786 118.174 125.997 119.296 126.086 120.44L126.384 123.856C126.572 126.134 126.808 128.399 126.96 130.681L127.237 137.525C127.271 138.669 127.354 139.799 127.352 140.947L127.341 144.365C127.321 146.645 127.354 148.924 127.297 151.208L127.022 158.047C126.965 160.331 126.773 162.595 126.618 164.868C126.446 167.137 126.325 169.418 126.107 171.689C125.308 180.764 124.258 189.818 123.129 198.852L121.443 212.399L120.613 219.169L119.853 225.943L119.483 229.326L119.166 232.722C118.967 234.985 118.725 237.237 118.544 239.503C118.246 244.027 117.856 248.554 117.757 253.087L117.631 256.49L117.573 258.187L117.577 259.885L117.584 266.689C117.553 271.187 118.336 275.65 118.607 280.259C118.74 282.549 118.784 284.882 118.492 287.225C118.203 289.555 117.567 291.892 116.444 294.01C115.296 296.122 113.652 297.951 111.746 299.358C109.839 300.779 107.7 301.824 105.521 302.643C101.118 304.207 96.5336 304.975 91.9573 305.348L90.2371 305.473L89.3756 305.535C89.0844 305.542 88.7933 305.536 88.4933 305.541C87.3233 305.542 86.1487 305.593 84.9846 305.417L83.2415 305.23L81.5286 304.884L80.6634 304.703C80.3806 304.648 80.0918 304.579 79.8141 304.487L78.1395 303.985L77.3036 303.734L76.4942 303.412L74.8798 302.759C74.3365 302.552 73.833 302.253 73.3053 301.999C72.788 301.735 72.2591 301.481 71.7523 301.207L70.2628 300.302C69.7698 299.993 69.2519 299.716 68.792 299.363C67.8512 298.679 66.8691 298.048 66.0049 297.267L64.6697 296.144C64.2429 295.749 63.8353 295.332 63.4085 294.936C62.5443 294.155 61.8063 293.251 61.0275 292.376C60.632 291.95 60.2976 291.474 59.944 291.007C59.5992 290.541 59.2373 290.072 58.903 289.597L57.9814 288.1L57.522 287.352L57.1297 286.569L56.3468 284.991L55.719 283.334C55.6208 283.056 55.4947 282.783 55.4246 282.498L55.2083 281.63C55.0785 281.05 54.8857 280.468 54.8086 279.9L54.2845 276.482L53.8954 273.071C53.4072 268.525 53.0531 263.986 52.728 259.441C52.0867 250.354 51.6289 241.259 51.2507 232.171C50.8638 223.081 50.5708 213.974 50.4119 204.874L50.2979 198.044C50.2617 195.777 50.2453 193.488 50.2459 191.217C50.2577 186.663 50.2133 182.122 50.5196 177.536C50.5289 177.334 50.7144 177.174 50.9215 177.186C51.1198 177.195 51.2775 177.373 51.2698 177.563L51.3054 177.635Z" fill="black"/>
<path d="M114.733 55.5572C117.06 55.0541 119.449 54.7573 121.841 54.7039C124.244 54.6402 126.667 54.8363 129.048 55.3291C131.421 55.8199 133.762 56.6092 135.927 57.7649C138.093 58.9081 140.084 60.4055 141.773 62.1878C143.452 63.9803 144.825 66.0311 145.927 68.1963C147.038 70.3636 147.841 72.649 148.469 74.9687C149.714 79.6186 150.207 84.408 150.36 89.1541C150.597 98.6809 149.521 108.123 148.231 117.477C146.921 126.838 145.142 136.113 144.123 145.467C144.103 145.679 143.911 145.825 143.715 145.803C143.509 145.78 143.36 145.604 143.378 145.404C143.775 140.687 144.414 136.002 145.04 131.328C145.685 126.657 146.327 121.987 146.928 117.306C148.116 107.967 149.069 98.5708 148.727 89.2228C148.553 84.5612 148.047 79.8839 146.84 75.4219C145.651 70.964 143.635 66.7042 140.511 63.4046C137.376 60.1152 133.166 57.9856 128.678 57.1166C124.181 56.1693 119.522 56.217 114.818 56.3303C114.609 56.3315 114.442 56.1766 114.435 55.9581C114.427 55.7519 114.556 55.5915 114.733 55.5572Z" fill="black"/>
<path d="M163.008 85.8859C163.247 87.13 163.474 88.3844 163.685 89.6345L164.262 93.3969L164.716 97.1814L165.099 100.974C165.553 106.035 165.769 111.115 165.841 116.187C165.984 126.342 165.676 136.479 165.317 146.59C164.978 156.745 163.948 166.85 162.788 176.911C161.618 186.982 160.273 197.011 159.169 207.06C158.048 217.105 157.148 227.176 156.99 237.272C156.982 239.797 156.902 242.318 157.013 244.834L157.117 248.611C157.163 249.873 157.284 251.127 157.358 252.383L157.615 256.158C157.697 257.428 157.832 258.699 157.868 259.971C157.903 261.243 157.982 262.525 157.946 263.793L157.93 265.703L157.833 267.621C157.787 268.898 157.622 270.173 157.495 271.445C157.426 272.079 157.302 272.714 157.216 273.344C157.113 273.97 157.026 274.613 156.868 275.239C156.39 277.754 155.611 280.222 154.617 282.601C153.613 284.977 152.336 287.238 150.71 289.261C149.092 291.286 147.13 293.038 144.938 294.416C140.525 297.19 135.27 298.281 130.159 298.183C125.022 298.078 119.987 296.887 115.21 295.132C115.02 295.061 114.915 294.845 114.986 294.657C115.057 294.47 115.271 294.368 115.46 294.439C120.193 296.119 125.156 297.242 130.164 297.291C135.146 297.333 140.195 296.217 144.377 293.541C146.462 292.215 148.306 290.512 149.839 288.581C151.364 286.635 152.577 284.449 153.525 282.148C154.455 279.844 155.188 277.454 155.632 274.994C155.777 274.391 155.863 273.773 155.949 273.143C156.033 272.525 156.151 271.915 156.209 271.29C156.324 270.042 156.485 268.804 156.52 267.549L156.603 265.667L156.604 263.778C156.63 262.521 156.547 261.276 156.501 260.014C156.463 258.767 156.314 257.506 156.23 256.261L155.949 252.467C155.868 251.196 155.742 249.929 155.687 248.665L155.559 244.856C155.433 242.312 155.507 239.776 155.499 237.235C155.602 227.074 156.445 216.951 157.526 206.871C158.615 196.793 159.934 186.758 161.092 176.709C162.233 166.657 163.239 156.598 163.558 146.515C163.9 136.399 164.194 126.297 164.034 116.201C163.959 111.155 163.784 106.11 163.498 101.076L163.27 97.2947L162.967 93.521L162.635 89.7533C162.497 88.4952 162.36 87.2369 162.249 85.9851L162.25 85.9731C162.233 85.7648 162.387 85.5845 162.589 85.5689C162.798 85.5677 162.97 85.6981 163.008 85.8859Z" fill="black"/>
</svg>
