<svg width="353" height="489" viewBox="0 0 353 489" fill="none" xmlns="http://www.w3.org/2000/svg">
<path d="M104.661 220.074C97.7037 219.323 90.7462 219.173 83.7891 219.473C76.832 219.849 69.8753 220.75 63.0694 221.951C56.2636 223.153 49.609 225.255 43.4081 228.184C41.82 228.86 40.3832 229.761 38.8708 230.587C38.1146 230.962 37.4337 231.488 36.6775 231.938C35.9969 232.389 35.2409 232.839 34.5603 233.365C33.1991 234.416 31.7625 235.393 30.5525 236.519C29.9476 237.12 29.267 237.57 28.662 238.246L26.8468 240.048C24.5026 242.526 22.385 245.154 20.6458 248.083L19.9656 249.134L19.3601 250.26C18.982 251.011 18.5285 251.762 18.1504 252.513C17.4699 254.09 16.7139 255.592 16.1846 257.244C13.8404 263.627 12.8567 270.46 12.9323 277.293C13.0836 284.126 14.2182 290.959 16.2599 297.492C18.3017 304.025 21.175 310.333 24.6535 316.265C28.1321 322.197 32.2156 327.754 36.7528 333.01C41.2901 338.267 46.2059 343.148 51.1968 348.028C56.1878 352.909 61.1788 357.79 65.9429 362.971C70.6314 368.153 75.0169 373.709 78.7223 379.716C82.3521 385.724 85.1501 392.257 87.4187 398.864C89.6117 405.548 91.2754 412.306 92.3341 419.214C94.5271 433.031 95.0564 446.998 94.9808 460.889C94.9808 467.873 94.83 474.781 94.6788 481.765L94.6027 486.946L94.6027 487.622L94.6027 487.922C95.8882 487.847 92.6368 487.472 93.015 487.772L93.015 487.697C93.0906 487.321 93.166 486.871 93.2417 486.42L93.6198 483.792L95.1322 473.505L96.6446 463.217C97.174 459.763 97.6275 456.384 98.0056 452.93C98.8375 446.021 99.4427 439.113 100.199 432.205C100.955 425.297 101.863 418.388 103.148 411.555C103.829 408.101 104.585 404.722 105.568 401.343C106.626 398.039 107.61 394.659 109.047 391.431C111.769 384.973 115.55 378.891 120.087 373.559C124.549 368.153 129.842 363.497 134.606 358.466C139.446 353.51 143.757 348.028 146.63 341.796C148.143 338.717 149.201 335.413 150.033 332.109C150.865 328.805 151.545 325.351 152.074 321.972C153.058 315.139 153.512 308.23 153.512 301.322C153.512 294.414 152.982 287.505 151.999 280.597C151.016 273.764 149.503 267.006 147.311 260.398C145.117 253.865 142.244 247.482 138.463 241.7C134.682 235.918 129.842 230.812 124.095 226.982C118.272 223.228 111.542 220.9 104.661 220.074ZM104.811 219.173C111.844 219.999 118.65 222.327 124.624 226.231C130.523 230.136 135.438 235.317 139.295 241.174C143.152 247.031 146.1 253.489 148.293 260.097C150.486 266.705 151.999 273.539 153.058 280.447C154.041 287.355 154.57 294.339 154.646 301.322C154.646 308.305 154.268 315.289 153.285 322.197C152.755 325.651 152.15 329.105 151.243 332.485C150.335 335.864 149.353 339.243 147.765 342.397C144.815 348.779 140.429 354.486 135.514 359.442C130.674 364.473 125.456 369.129 121.07 374.46C116.608 379.791 112.979 385.649 110.332 392.032C108.896 395.185 107.913 398.489 106.929 401.793C106.022 405.097 105.265 408.476 104.585 411.855C103.299 418.613 102.392 425.522 101.711 432.43C100.955 439.338 100.35 446.247 99.5941 453.155C99.216 456.609 98.6868 460.063 98.2331 463.517L96.796 473.805L95.2836 484.092L94.9055 486.646C94.8299 487.096 94.7544 487.471 94.6788 487.997L94.6027 488.222C94.9808 488.748 91.6541 488.298 92.9396 488.072C92.9396 487.922 92.9396 487.772 92.9396 487.697L92.9396 487.021L93.015 481.84C93.1662 474.856 93.2417 467.948 93.2417 461.04C93.3173 447.148 92.7126 433.256 90.5196 419.665C89.3853 412.831 87.7973 406.149 85.6043 399.541C83.4113 393.008 80.6891 386.625 77.0593 380.768C73.4295 374.911 69.1187 369.429 64.5058 364.323C59.8173 359.217 54.8268 354.411 49.8358 349.53C44.8448 344.649 39.8533 339.768 35.2404 334.437C30.6276 329.181 26.3932 323.474 22.8391 317.391C19.2849 311.309 16.3354 304.927 14.218 298.168C12.1006 291.485 10.891 284.427 10.7398 277.368C10.6641 270.31 11.6468 263.176 14.0666 256.493C14.596 254.766 15.4279 253.189 16.1085 251.537C16.4866 250.711 16.9408 249.96 17.3189 249.209L17.9237 248.008L18.6039 246.881C20.4188 243.803 22.6878 241.024 25.1077 238.396C30.023 233.215 35.9966 229.16 42.4244 226.156C48.8522 223.153 55.7339 221.275 62.7667 220.224C69.7238 219.173 76.681 218.422 83.7138 218.197C90.7465 218.122 97.8544 218.347 104.811 219.173Z" fill="black"/>
<path d="M285.091 200.399C281.915 200.474 278.739 201.45 275.941 203.027C273.143 204.604 270.648 206.706 268.455 209.034C264.069 213.765 260.666 219.321 257.716 225.103C254.767 230.81 252.801 237.043 251.137 243.2C249.474 249.433 248.264 255.815 247.206 262.198C245.164 274.963 244.181 287.954 243.803 300.869C243.5 313.86 243.802 326.776 245.088 339.691C245.768 346.149 246.6 352.532 247.886 358.915C248.566 362.068 249.247 365.222 250.154 368.301C251.062 371.38 252.045 374.458 253.406 377.312C256.128 383.094 259.91 388.35 264.069 393.306C266.111 395.784 268.304 398.187 270.497 400.665L273.748 404.269C274.807 405.546 275.941 406.747 276.924 408.024C285.167 418.311 291.065 430.401 294.166 443.166C295.754 449.549 296.51 456.082 296.661 462.689C296.737 464.341 296.661 465.993 296.661 467.57C296.661 468.396 296.661 469.147 296.661 470.049C296.585 470.875 296.51 471.7 296.434 472.451C296.434 472.601 296.434 472.827 296.434 472.902C296.207 472.752 296.888 473.202 295.905 472.301C294.392 472.602 295.3 472.602 294.997 472.602L295.073 472.376L295.527 471.25C295.829 470.499 296.207 469.748 296.434 468.997L297.266 466.745C297.568 465.994 297.795 465.243 298.022 464.417C301.954 452.102 303.467 439.036 307.929 426.646C310.122 420.414 313.222 414.557 317.003 409.15C320.709 403.744 324.943 398.712 329.026 393.606C333.11 388.575 337.118 383.394 340.369 377.837C341.957 375.059 343.319 372.131 344.529 369.127C345.663 366.123 346.646 363.044 347.478 359.891C349.066 353.658 349.974 347.2 350.428 340.743C350.881 334.285 350.881 327.827 350.654 321.294C350.125 308.304 348.385 295.463 346.419 282.623L343.394 263.324C342.336 256.942 341.202 250.484 339.689 244.251C338.857 241.097 338.025 238.019 336.967 234.94C335.908 231.861 334.698 228.858 333.262 226.004C330.388 220.222 326.607 214.891 321.616 210.761C320.406 209.71 319.045 208.809 317.759 207.832C316.398 207.006 315.037 206.106 313.524 205.43C312.087 204.679 310.575 204.078 309.063 203.477C308.307 203.177 307.551 202.952 306.794 202.726L305.66 202.351L304.45 202.051C298.173 200.849 291.595 200.248 285.091 200.399ZM285.091 199.497C291.67 199.347 298.325 199.873 304.677 201.525L305.887 201.825L307.096 202.201C307.853 202.426 308.685 202.726 309.441 202.952C310.954 203.552 312.542 204.153 313.978 204.904C315.491 205.58 316.852 206.481 318.289 207.307C319.65 208.283 321.011 209.184 322.221 210.311C327.363 214.516 331.22 219.997 334.169 225.854C335.606 228.783 336.892 231.861 337.95 234.94C339.009 238.019 339.916 241.173 340.748 244.326C342.336 250.634 343.47 257.092 344.529 263.475L347.629 282.773C349.671 295.613 351.335 308.529 351.94 321.595C352.242 328.127 352.242 334.66 351.789 341.193C351.335 347.726 350.427 354.184 348.839 360.566C348.083 363.72 347.025 366.874 345.89 369.953C344.68 373.031 343.319 375.96 341.655 378.889C338.328 384.596 334.244 389.777 330.161 394.808C326.077 399.914 321.919 404.87 318.289 410.276C314.659 415.608 311.634 421.315 309.441 427.397C305.131 439.562 303.694 452.628 299.686 465.168C299.459 465.919 299.156 466.745 298.93 467.496L298.098 469.823C297.796 470.574 297.493 471.325 297.19 472.076L296.737 473.202C296.661 473.277 296.661 473.353 296.586 473.503C296.283 473.578 297.115 473.728 295.451 474.028C294.317 473.127 294.997 473.353 294.77 473.127C294.77 472.827 294.77 472.602 294.77 472.376C294.846 471.55 294.922 470.724 294.997 469.973L294.997 467.57C294.997 465.918 294.997 464.341 294.997 462.689C294.846 456.232 294.09 449.849 292.502 443.541C289.477 431.001 283.655 419.212 275.563 409.15C274.58 407.874 273.521 406.672 272.462 405.471L269.211 401.866C267.018 399.463 264.825 396.985 262.708 394.507C258.473 389.476 254.541 384.145 251.743 378.063C250.306 375.059 249.247 371.905 248.34 368.752C247.357 365.598 246.676 362.369 245.995 359.215C244.71 352.832 243.802 346.3 243.122 339.842C241.761 326.851 241.382 313.785 241.685 300.719C241.987 287.654 243.046 274.663 245.012 261.748C246.071 255.29 247.281 248.907 249.096 242.524C250.004 239.371 250.986 236.217 252.196 233.138C253.331 230.059 254.768 227.056 256.28 224.127C259.456 218.42 263.01 212.789 267.623 208.058C269.892 205.655 272.538 203.552 275.412 201.975C278.437 200.549 281.764 199.572 285.091 199.497Z" fill="black"/>
<path d="M79.856 221.648C78.4192 213.163 77.0587 204.753 75.1682 196.418C73.2777 188.083 71.0841 179.823 68.513 171.638C65.9419 163.453 63.2196 155.343 60.1948 147.309C57.2456 139.274 54.2208 131.24 51.1204 123.205C48.0956 115.17 44.9956 107.135 42.1221 99.0255L39.9288 92.9431L37.8116 86.8607C36.4504 82.8058 35.1649 78.6759 34.0306 74.546C29.4934 57.951 26.7709 40.9056 23.6705 24.0854C23.5949 23.8601 23.8217 23.5596 24.0486 23.5596C24.2754 23.4845 24.5781 23.7098 24.5781 23.935C27.9053 40.7553 30.9298 57.6506 35.6183 74.1705C36.7526 78.3005 38.0386 82.3556 39.4754 86.4105L41.5926 92.4925L43.7858 98.4998C46.735 106.534 49.8349 114.569 53.0109 122.529C56.1113 130.563 59.2122 138.523 62.1614 146.633C65.1862 154.668 67.9838 162.852 70.5549 171.037C73.2016 179.222 75.3949 187.557 77.2854 195.967L78.5711 202.275L78.8731 203.852L79.0998 205.429L79.554 208.658C80.2346 212.938 80.4614 217.218 80.6883 221.498C80.6883 221.723 80.5366 221.949 80.2341 222.024C80.1585 222.099 79.9316 221.949 79.856 221.648Z" fill="black"/>
<path d="M92.4104 232.086C91.7299 227.805 91.0491 223.45 90.7467 219.095C90.5198 216.917 90.2931 214.74 90.1419 212.562L89.7638 206.029C89.3857 197.319 89.0829 188.608 89.0829 179.898C89.0073 171.187 89.1588 162.477 89.3857 153.766C89.6125 145.056 89.9151 136.345 90.2932 127.71C90.6713 118.999 91.2005 110.364 91.6542 101.653L92.3344 88.6628C92.5612 84.3076 92.7883 80.0272 92.8639 75.6719C93.3176 58.326 92.8642 40.9051 94.679 23.5592C94.679 23.3339 94.9061 23.1086 95.2085 23.1086C95.4354 23.1086 95.662 23.334 95.662 23.6344C94.0739 40.9052 94.8301 58.3261 94.5277 75.7471C94.452 80.1023 94.3011 84.4575 94.0742 88.8128L93.4687 101.804C93.0906 110.514 92.6369 119.149 92.3344 127.86C91.9563 136.57 91.6544 145.206 91.4275 153.916C91.2007 162.627 91.1245 171.262 91.2001 179.973C91.2757 188.683 91.5782 197.319 91.9563 205.954C92.41 214.589 93.0156 223.3 93.318 231.935C93.318 232.161 93.0907 232.386 92.8639 232.386C92.637 232.461 92.4104 232.311 92.4104 232.086Z" fill="black"/>
<path d="M104.863 227.114C105.443 218.873 106.704 210.609 108.254 202.518C109.804 194.427 111.511 186.273 113.061 178.182C114.686 170.097 116.086 161.994 117.642 153.828L122.224 129.475C125.33 113.218 128.655 97.0536 132.205 80.9066C135.831 64.7653 139.751 48.7222 144.115 32.7887C144.208 32.5699 144.451 32.3628 144.67 32.4551C144.89 32.5474 145.097 32.7895 145.004 33.0083C142.935 40.9838 141.009 49.0457 139.159 57.1134C137.308 65.1811 135.533 73.2545 133.833 81.3338C130.432 97.4924 127.257 113.669 124.226 129.931L119.72 154.291C118.245 162.387 116.839 170.565 115.214 178.65C113.664 186.741 111.963 194.82 110.482 202.992L108.154 215.166C107.376 219.249 106.605 223.257 105.752 227.334C105.734 227.558 105.416 227.76 105.196 227.667C104.977 227.575 104.845 227.339 104.863 227.114Z" fill="black"/>
<path d="M111.798 191.736C112.141 191.235 112.327 190.797 112.652 190.521C112.814 190.383 113.064 190.101 113.232 189.888L113.887 189.26C114.299 188.84 114.786 188.426 115.273 188.011C115.76 187.597 116.171 187.177 116.652 186.837C118.518 185.248 120.523 183.821 122.453 182.388C126.457 179.608 130.455 176.903 134.176 173.875C135.069 173.115 135.962 172.355 136.86 171.52C137.759 170.686 138.652 169.926 139.475 169.085C141.122 167.404 142.706 165.568 143.544 163.598C143.922 162.648 144.156 161.611 143.921 160.764C143.692 159.843 143.219 159.128 142.347 158.684C141.55 158.246 140.434 158.009 139.301 157.997C138.173 157.91 137.033 157.973 135.819 158.03C134.604 158.086 133.458 158.224 131.954 158.108C131.578 158.079 131.203 158.05 130.625 157.704L130.406 157.612C130.336 157.531 130.261 157.525 130.192 157.444C130.054 157.283 129.909 157.197 129.852 156.966C129.789 156.811 129.656 156.574 129.668 156.425C129.68 156.275 129.623 156.044 129.629 155.97C129.682 155.296 129.73 154.696 129.859 154.028C130.288 151.5 131.237 149.087 132.474 146.847C135.019 142.448 138.481 138.872 141.787 135.361L144.264 132.764C145.093 131.849 145.917 131.008 146.74 130.168C147.564 129.327 148.317 128.406 148.996 127.479C149.165 127.266 149.339 126.978 149.508 126.765L149.943 126.046C149.943 126.046 149.943 126.046 149.937 126.12C149.838 126.414 150.206 127.497 150.016 127.03L149.952 126.875C149.883 126.794 149.814 126.713 149.745 126.633C149.607 126.471 149.387 126.379 149.248 126.218C148.451 125.78 147.336 125.543 146.208 125.456C145.08 125.369 143.94 125.431 142.726 125.488C141.511 125.545 140.359 125.758 139.069 125.809C138.763 125.86 138.462 125.837 138.011 125.802C137.936 125.797 137.785 125.785 137.71 125.779C137.635 125.773 137.41 125.756 137.265 125.669C137.19 125.664 136.976 125.497 136.832 125.41C136.693 125.249 136.762 125.329 136.693 125.249L136.492 124.932C136.025 124.142 135.941 123.307 136.001 122.558C136.039 121.13 136.435 119.955 136.913 118.711C137.309 117.536 137.855 116.373 138.396 115.285C139.483 113.033 140.715 110.868 142.16 108.87C144.982 104.793 148.143 101.195 150.733 97.1759C152.028 95.1663 153.173 93.1451 154.029 90.9509C154.296 90.4442 154.419 89.8508 154.611 89.3382C154.809 88.7508 155.001 88.2382 154.962 87.7831C154.998 87.3338 154.953 86.9538 154.739 86.7866C154.532 86.5446 154.243 86.3715 153.722 86.256C152.763 85.9559 151.554 85.9382 150.351 85.8453C149.148 85.7525 147.789 85.7228 146.409 85.0135C146.045 84.8347 145.686 84.5812 145.404 84.3333C145.127 84.0106 144.856 83.6127 144.735 83.2267C144.54 82.8349 144.5 82.3798 144.449 82.0745L144.452 81.0954L144.454 80.1163C144.478 79.8168 144.508 79.4422 144.532 79.1427C144.585 78.4687 144.634 77.8697 144.757 77.2765C145.185 74.748 146.128 72.4101 147.29 70.1643C148.372 67.9876 149.679 65.8281 150.899 63.8127C152.124 61.7224 153.274 59.6265 154.199 57.5131C154.392 57.0005 154.665 56.4188 154.857 55.9062L155.371 54.2132L155.733 52.5081C155.832 52.2144 155.758 52.2088 155.827 52.2895C155.896 52.3701 155.896 52.3702 155.896 52.3702C155.896 52.3702 155.82 52.3644 155.745 52.3586C155.369 52.3296 154.762 52.3579 154.149 52.4612C153.535 52.5646 152.922 52.6678 152.171 52.6098C151.795 52.5808 151.343 52.5461 150.835 52.2808C150.69 52.1943 150.546 52.1076 150.477 52.0269L150.269 51.7851C150.131 51.6237 149.992 51.4623 149.929 51.3067C149.526 50.6728 149.279 49.9756 149.182 49.2901C148.914 47.9133 148.94 46.6347 149.117 45.3676C149.218 44.0946 149.464 42.9082 149.791 41.6526C150.364 39.2106 151.226 36.9416 151.862 34.6552C152.574 32.3746 153.135 30.0821 153.471 27.7725C153.731 25.457 153.766 23.1243 152.944 21.102C152.495 20.0879 151.878 19.2869 151.018 18.6931C150.158 18.0993 149.135 17.6438 148.094 17.4128C147.054 17.1818 145.989 17.2503 145.051 17.63C144.113 18.0096 143.227 18.6944 142.484 19.4658C140.994 21.0836 139.912 23.2604 138.987 25.3739C137.276 29.7622 136.292 34.5079 135.684 39.2828C135.637 39.8818 135.513 40.475 135.466 41.074L135.322 42.8714C135.227 44.0695 135.05 45.3365 134.804 46.523C134.681 47.1162 134.477 47.7785 134.279 48.366C134.18 48.6597 134 49.0223 133.825 49.3102C133.651 49.5981 133.314 50.0241 132.839 50.2888C132.602 50.4212 132.22 50.4672 132.07 50.4556C131.844 50.4382 131.613 50.4957 131.468 50.4092C131.243 50.3918 131.099 50.3053 130.873 50.2879L130.359 50.0973C129.706 49.7456 129.204 49.4056 128.707 48.9906C127.708 48.2354 126.872 47.342 125.93 46.8173C125.497 46.5578 125.059 46.3734 124.677 46.4193C124.601 46.4135 124.52 46.4826 124.445 46.4768C124.369 46.4709 124.289 46.5398 124.132 46.6031L123.819 46.7298L123.501 46.9311C122.702 47.4721 122.323 48.4223 122.014 49.4532C121.78 50.4899 121.759 51.6938 121.82 52.8286C121.936 55.173 122.433 57.4717 123.005 59.7761C123.578 62.0805 124.301 64.3965 125.03 66.6376C125.392 67.7956 125.753 68.9536 126.115 70.1116C126.292 70.728 126.47 71.3445 126.566 72.03C126.663 72.7155 126.604 73.4643 126.312 74.2706C125.946 75.0711 125.222 75.6181 124.597 75.8712C123.971 76.1243 123.276 76.2967 122.732 76.4807C121.575 76.768 120.492 77.0611 119.762 77.6828C119.032 78.3045 118.653 79.2549 118.639 80.3838C118.549 81.507 118.61 82.6418 118.746 83.7824C119.093 86.0694 119.741 88.3796 120.464 90.6957C121.187 93.0117 121.99 95.2586 122.632 97.6437C123.274 100.029 123.835 102.483 123.55 105.098C123.368 106.44 123.041 107.695 122.344 108.847C121.647 109.999 120.58 111.046 119.329 111.553C118.073 112.134 116.777 112.26 115.556 112.391C114.335 112.523 113.19 112.661 112.246 113.115C111.302 113.57 110.86 114.365 110.539 115.545L110.323 116.357C110.224 116.651 110.2 116.95 110.182 117.175L110.041 117.993C110.017 118.292 109.993 118.592 109.969 118.892C109.859 121.219 110.281 123.511 110.929 125.821C112.149 130.436 114.209 134.965 114.642 139.971C114.744 140.582 114.69 141.255 114.718 141.86C114.745 142.465 114.617 143.133 114.494 143.726C114.242 144.988 113.92 146.168 113.374 147.332C112.827 148.495 112.211 149.577 111.225 150.556C110.982 150.763 110.663 150.965 110.42 151.172C110.101 151.373 109.795 151.425 109.482 151.552C108.863 151.73 108.318 151.914 107.699 152.092C107.155 152.276 106.536 152.454 106.067 152.644C105.522 152.828 105.042 153.168 104.792 153.45C104.711 153.519 104.705 153.594 104.699 153.668L104.588 154.112C104.489 154.406 104.465 154.705 104.447 154.93C104.399 155.529 104.358 156.053 104.385 156.658C104.425 158.997 104.998 161.301 105.49 163.675C105.776 164.827 105.981 166.048 106.186 167.269C106.397 168.416 106.602 169.637 106.888 170.789C107.38 173.163 107.953 175.467 108.519 177.846C109.086 180.226 109.733 182.536 110.306 184.84L111.234 188.377L111.699 190.146C111.75 190.452 111.812 190.607 111.795 190.832C111.84 191.212 111.822 191.437 111.798 191.736ZM111.576 192.623C111.45 192.312 111.248 191.995 111.128 191.609C111.001 191.298 110.887 190.837 110.76 190.526L110.296 188.757L109.362 185.295C108.714 182.984 108.072 180.599 107.5 178.295C106.927 175.99 106.36 173.611 105.794 171.232C105.507 170.08 105.302 168.858 105.097 167.637C104.892 166.416 104.681 165.269 104.395 164.117C103.903 161.744 103.261 159.359 103.158 156.864C103.13 156.26 103.184 155.586 103.232 154.987C103.256 154.687 103.28 154.388 103.385 154.019L103.496 153.576C103.589 153.357 103.682 153.138 103.769 152.994C104.274 152.355 104.9 152.102 105.531 151.774C106.156 151.521 106.7 151.337 107.32 151.158C107.939 150.98 108.483 150.796 109.028 150.612C109.334 150.561 109.571 150.428 109.734 150.29C109.971 150.158 110.134 150.02 110.377 149.813C111.189 149.122 111.723 148.108 112.189 147.014C112.654 145.92 112.97 144.814 113.209 143.702C113.332 143.109 113.374 142.585 113.347 141.98C113.319 141.375 113.361 140.851 113.334 140.247C112.952 135.546 110.887 131.092 109.598 126.397C108.956 124.012 108.47 121.563 108.598 119.012C108.622 118.712 108.646 118.413 108.676 118.038L108.829 117.071C108.853 116.771 108.876 116.472 108.981 116.103L109.279 115.222C109.378 114.928 109.477 114.634 109.582 114.266C109.681 113.972 109.861 113.609 110.035 113.321C110.459 112.751 111.033 112.193 111.664 111.865C112.927 111.209 114.223 111.083 115.444 110.951C116.665 110.82 117.816 110.607 118.76 110.153C119.704 109.698 120.515 109.007 121.044 108.069C121.306 107.637 121.498 107.124 121.696 106.537L121.801 106.168L121.906 105.8L122.047 104.982C122.226 102.735 121.729 100.437 121.156 98.1323C120.509 95.8221 119.704 93.5752 118.981 91.2592C118.258 88.9432 117.542 86.5521 117.206 84.1153C117.001 82.8941 116.953 81.6095 117.054 80.3366C117.081 79.0578 117.582 77.5146 118.718 76.5475C119.854 75.5805 121.237 75.3106 122.395 75.0233C123.014 74.8451 123.552 74.7357 124.021 74.5459C124.49 74.356 124.739 74.0738 124.914 73.7859C125.094 73.4231 125.13 72.974 125.021 72.4382C124.988 71.9083 124.804 71.3667 124.696 70.8309C124.334 69.6729 123.973 68.515 123.605 67.4318C122.882 65.1158 122.16 62.7997 121.518 60.4147C120.876 58.0296 120.384 55.6561 120.206 53.1561C120.157 51.8715 120.183 50.5926 120.435 49.3313C120.534 49.0376 120.564 48.6634 120.738 48.3755L120.93 47.8627L121.198 47.3563C121.372 47.0683 121.621 46.786 121.801 46.4232C122.051 46.1411 122.3 45.8593 122.619 45.6578L123.1 45.3183C123.257 45.255 123.413 45.1914 123.575 45.0533C123.888 44.9267 124.351 44.8118 124.732 44.7659C125.647 44.6858 126.374 45.0434 126.952 45.3894C128.182 46.0871 129.019 46.9805 129.948 47.655C130.376 47.9893 130.878 48.3296 131.311 48.589L131.606 48.6868C131.681 48.6926 131.832 48.7043 131.901 48.785C132.051 48.7966 132.352 48.8198 132.277 48.814C132.277 48.814 132.439 48.6759 132.526 48.5319C132.619 48.3131 132.787 48.1001 132.805 47.8755C132.997 47.363 133.115 46.8445 133.238 46.2513C133.477 45.1397 133.648 43.9476 133.744 42.7495L133.887 40.9522C133.941 40.2782 133.982 39.7541 134.111 39.0859C134.8 34.242 135.715 29.4156 137.519 24.8085C138.456 22.5453 139.55 20.2187 141.371 18.2498C142.282 17.2653 143.331 16.4422 144.656 15.9419C145.982 15.4415 147.429 15.3273 148.764 15.6564C150.03 15.9048 151.354 16.3834 152.422 17.2192C153.571 17.986 154.459 19.1847 154.964 20.4291C155.976 22.9181 155.912 25.6255 155.639 28.0907C155.292 30.5501 154.719 32.9922 154.007 35.2728C153.365 37.6342 152.503 39.9031 151.942 42.1954C151.696 43.3818 151.456 44.4935 151.366 45.6166C151.277 46.7398 151.257 47.9436 151.405 48.9345C151.513 49.4702 151.627 49.931 151.898 50.3286C151.967 50.4093 152.037 50.4902 152.106 50.5708L152.169 50.7262C152.169 50.7262 152.314 50.8127 152.545 50.7552C152.996 50.79 153.61 50.6868 154.223 50.5835C154.837 50.4801 155.449 50.3768 156.276 50.4407C156.502 50.4581 156.728 50.4753 157.016 50.6482C157.311 50.7463 157.594 50.9944 157.796 51.3113C158.199 51.9452 158.001 52.5326 157.977 52.8321L157.602 54.6867L157.002 56.5239C156.804 57.1113 156.53 57.6928 156.332 58.2803C155.32 60.5377 154.164 62.7086 152.938 64.7989C151.712 66.8892 150.486 68.9796 149.411 71.0814C148.336 73.1833 147.48 75.3773 147.075 77.6063C146.952 78.1995 146.91 78.7236 146.863 79.3226C146.839 79.6221 146.815 79.9217 146.797 80.1463L146.806 80.9759C146.774 82.3295 146.889 82.7902 147.692 83.1536C148.495 83.5169 149.692 83.6847 150.819 83.7717C152.022 83.8646 153.231 83.8827 154.641 84.2176C155.306 84.4196 156.109 84.7829 156.657 85.5032C157.279 86.2294 157.353 87.2145 157.299 87.8884C157.239 88.6372 157.035 89.2993 156.837 89.8867C156.638 90.4741 156.441 91.0615 156.242 91.6489C155.375 93.9929 154.143 96.158 152.767 98.2367C150.09 102.4 146.847 106.067 144.188 110.006C142.818 112.009 141.604 113.95 140.598 116.132C140.057 117.221 139.591 118.315 139.207 119.34C138.817 120.44 138.501 121.546 138.424 122.519C138.382 123.044 138.503 123.43 138.635 123.666C138.635 123.666 138.629 123.741 138.704 123.747C138.704 123.747 138.773 123.827 138.704 123.747C138.635 123.666 138.491 123.579 138.491 123.579C138.416 123.573 138.416 123.573 138.491 123.579C138.491 123.579 138.566 123.585 138.641 123.591C138.867 123.608 139.173 123.557 139.399 123.574C140.539 123.511 141.765 123.305 143.055 123.254C144.276 123.122 145.56 123.146 146.844 123.169C148.122 123.268 149.463 123.522 150.769 124.226C151.058 124.399 151.416 124.652 151.699 124.9C151.837 125.061 151.981 125.148 152.12 125.309L152.327 125.552C152.213 125.091 152.649 126.254 152.469 126.617C152.382 126.761 152.376 126.836 152.37 126.911L151.854 127.7C151.68 127.988 151.511 128.201 151.337 128.489C150.576 129.485 149.741 130.475 148.912 131.39C148.082 132.306 147.259 133.146 146.43 134.062L143.872 136.727C140.491 140.233 137.19 143.67 134.895 147.787C133.751 149.809 132.901 151.928 132.496 154.157C132.379 154.675 132.407 155.28 132.365 155.804C132.365 155.804 132.353 155.954 132.365 155.804C132.365 155.804 132.371 155.729 132.296 155.723C132.227 155.643 132.227 155.643 132.227 155.643C132.227 155.643 132.226 155.643 132.151 155.637C132.151 155.637 132.371 155.729 132.597 155.747C133.574 155.822 134.795 155.69 136.01 155.633C137.225 155.576 138.521 155.45 139.799 155.549C141.077 155.648 142.424 155.827 143.804 156.537C144.457 156.888 145.098 157.39 145.501 158.024C145.98 158.663 146.301 159.366 146.398 160.052C146.805 161.59 146.385 163.064 145.838 164.228C144.733 166.704 142.999 168.529 141.265 170.354C140.361 171.263 139.467 172.023 138.569 172.858C137.67 173.692 136.702 174.446 135.734 175.2C131.863 178.217 127.727 180.76 123.654 183.46C121.655 184.812 119.655 186.165 117.726 187.598C117.245 187.937 116.758 188.352 116.277 188.692C115.79 189.106 115.309 189.445 114.897 189.866L114.248 190.418C114.005 190.626 113.843 190.764 113.518 191.04C112.776 191.812 112.132 192.289 111.576 192.623Z" fill="black"/>
<path d="M89.9232 189.972C89.9968 189.673 90.0687 189.449 90.139 189.3C90.2094 189.151 90.4174 188.855 90.5581 188.558L91.5997 186.928C92.2947 185.816 92.988 184.779 93.6813 183.742C95.0025 181.592 96.3252 179.367 97.2479 177.058C98.2375 174.751 98.8272 172.36 98.678 170.028C98.5707 168.824 98.2606 167.691 97.8167 166.555C97.3728 165.418 96.8617 164.281 96.2838 163.142C95.7746 161.929 95.2001 160.64 95.0292 159.284C94.7913 157.927 94.8235 156.501 94.9876 155.152C95.2186 153.805 95.5834 152.461 96.146 151.271C96.7087 150.081 97.2711 148.891 97.966 147.779C99.222 145.553 100.612 143.329 101.933 141.179C103.188 139.028 104.444 136.801 105.164 134.563C105.238 134.265 105.31 134.041 105.383 133.742C105.457 133.443 105.529 133.219 105.536 132.919L105.544 132.543L105.549 132.318L105.551 132.243L105.552 132.168C105.556 132.018 105.49 131.941 105.427 131.79C105.231 131.56 104.768 131.25 104.306 130.94L102.651 130.003C101.459 129.376 100.204 128.523 99.3602 127.303C98.449 126.082 97.9463 124.569 97.8423 123.215C97.6731 121.784 97.9047 120.437 98.1357 119.09C98.2847 118.417 98.4335 117.744 98.5808 117.146C98.7968 116.475 99.0114 115.879 99.2274 115.207C100.222 112.675 101.612 110.451 103 108.302C104.388 106.154 105.909 104.083 107.163 101.932C108.417 99.7802 109.473 97.5493 109.928 95.1554C110.008 94.5562 110.155 93.9585 110.236 93.3594C110.316 92.7602 110.328 92.2345 110.206 91.7061C110.095 90.6521 109.639 90.0416 108.644 89.5696C107.649 89.0976 106.384 88.77 105.056 88.2157C104.392 87.9011 103.731 87.5117 103.207 86.9746C102.615 86.4362 102.229 85.7519 101.909 85.069C101.269 83.7033 101.099 82.2725 101.062 80.9196C101.071 80.5443 101.011 80.2422 101.019 79.8668L101.109 78.8172C101.118 78.4419 101.124 78.1416 101.199 77.7677L101.422 76.7961C101.952 74.1033 103.145 71.6498 104.468 69.4247C105.858 67.2011 107.379 65.1306 108.7 62.9806C110.019 60.9057 111.074 58.6749 111.394 56.3532C111.474 55.754 111.486 55.2285 111.361 54.8502C111.235 54.472 111.039 54.2423 110.644 53.9334C109.783 53.4643 108.515 53.2118 107.252 52.7341C106.587 52.4945 105.922 52.2551 105.264 51.7152C104.604 51.2504 104.084 50.5632 103.767 49.7301C103.641 49.3519 103.516 48.9736 103.457 48.5968C103.398 48.22 103.405 47.9197 103.346 47.5429C103.288 47.1661 103.295 46.8655 103.303 46.4901C103.311 46.1147 103.318 45.8145 103.326 45.4391C103.423 44.0891 103.721 42.7436 104.152 41.4759C104.582 40.2081 105.079 38.9419 105.707 37.8287C106.9 35.4505 108.422 33.3045 109.942 31.2339L111.116 29.6819C111.53 29.165 111.944 28.6477 112.22 28.2781C112.778 27.3135 113.273 26.1224 113.7 25.0048C114.06 23.8858 114.422 22.6917 114.38 21.5641C114.392 21.0385 114.27 20.5104 114.072 20.3559C113.943 20.1278 113.479 19.8924 112.945 19.8059C111.88 19.4826 110.608 19.3802 109.337 19.2779C108.066 19.1756 106.795 19.0734 105.457 18.9697C104.788 18.8803 104.12 18.7909 103.454 18.6264C103.12 18.5442 102.72 18.4602 102.389 18.3029C102.189 18.2235 101.99 18.1442 101.792 17.9897C101.66 17.9118 101.595 17.8354 101.464 17.6823C101.399 17.6058 101.333 17.5295 101.268 17.4529C100.355 16.3067 99.7805 15.0172 99.407 13.7322C98.6599 11.1624 98.5864 8.45694 98.3049 6.04728C98.129 4.91681 97.7553 3.63173 97.2361 2.86948C97.1071 2.64138 96.9748 2.56344 96.9095 2.48692C96.8425 2.48549 96.7772 2.40898 96.5745 2.47976C96.2379 2.54767 95.762 2.83786 95.2864 3.12814C95.0821 3.27399 94.8091 3.49371 94.6031 3.71465C94.3971 3.93558 94.2599 4.08265 94.0556 4.22851C93.9166 4.45087 93.7109 4.6721 93.6389 4.8959C93.4999 5.11827 93.3609 5.34064 93.2872 5.63952C92.8619 6.68201 92.6322 7.9538 92.4714 9.15218C92.2421 10.4242 92.0801 11.6977 91.7837 12.9683C91.4874 14.2389 90.9866 15.6555 89.888 16.8338C89.3387 17.423 88.7287 17.7102 88.1157 18.1478C87.5061 18.4352 86.8283 18.7964 86.155 18.9322C84.8052 19.354 83.3296 19.3975 81.9931 19.2187C80.6566 19.0398 79.3236 18.7109 78.1228 18.4599C76.9219 18.2089 75.7846 18.1092 74.9707 18.5424L74.6991 18.687C74.7008 18.6119 74.6991 18.687 74.6991 18.687C74.6991 18.687 74.6961 18.837 74.6274 18.9107L74.6207 19.2109C74.609 19.7364 74.7981 20.2664 74.9873 20.7962C75.3642 21.931 75.9441 22.9951 76.6593 23.9869C76.9843 24.4446 77.3747 24.9786 77.7683 25.3625L79.078 26.7428C79.9958 27.6639 80.8467 28.5832 81.6959 29.5779C83.3959 31.4921 85.0939 33.4816 86.6566 35.5431C87.4371 36.6114 88.1505 37.6782 88.7937 38.8938C88.921 39.197 89.114 39.5766 89.1727 39.9534L89.231 40.3302C89.2277 40.4804 89.2244 40.6306 89.221 40.7808C89.149 41.0046 89.1439 41.2297 89.0719 41.4535C88.7169 42.3473 88.1024 42.8599 87.4894 43.2975C86.1982 44.0961 84.9169 44.4443 83.6357 44.7925C82.3546 45.1406 81.0766 45.3387 79.7987 45.5367L75.9657 46.1306C74.6879 46.3286 73.4098 46.5267 72.3296 46.8791C72.0599 46.9485 71.7889 47.0928 71.5863 47.1636C71.5193 47.1622 71.5175 47.2373 71.4505 47.2359L71.3814 47.3092C71.3144 47.3078 71.3814 47.3092 71.3814 47.3092C71.3831 47.2342 71.3814 47.3092 71.3814 47.3092C71.3044 47.7583 71.3615 48.2105 71.4838 48.7389C71.864 49.7235 72.5795 50.7151 73.3633 51.6333C74.998 53.471 76.9036 55.1644 78.8783 56.7841C80.7843 58.4774 82.8265 60.0982 84.6638 61.8651C86.5681 63.6335 88.402 65.5508 89.757 67.9084C90.0786 68.5162 90.3998 69.1239 90.6527 69.8054C90.7784 70.1836 90.8389 70.4853 90.8976 70.8621C90.9545 71.314 90.9427 71.8395 90.7317 72.2857C90.3097 73.178 89.6972 73.6154 89.0859 73.9779C88.4746 74.3404 87.8649 74.628 87.2553 74.9154C84.7532 75.9135 82.2591 76.5359 79.7654 77.1586C78.5512 77.5082 77.3374 77.8578 76.1216 78.2825C75.5806 78.4963 74.9728 78.7086 74.5642 79.0003C74.4286 79.0725 74.4266 79.1478 74.291 79.22C74.2893 79.2951 74.2226 79.2934 74.2226 79.2934L74.2209 79.3685L74.2159 79.594L74.1385 80.0427C74.0867 82.3701 74.9732 84.7178 76.0619 86.9945C78.3081 91.4743 81.3645 95.6708 83.8786 100.156C85.1683 102.437 86.3238 104.716 87.1379 107.287C87.5115 108.572 87.8853 109.857 87.9892 111.211C88.0411 111.888 88.0928 112.565 88.0108 113.24C87.9288 113.914 87.7786 114.662 87.4956 115.332C86.9296 116.672 85.9014 117.701 84.7442 118.503C83.6539 119.306 82.4346 119.88 81.2171 120.38C79.9995 120.88 78.7838 121.304 77.6333 121.806C77.0923 122.019 76.4822 122.307 76.0736 122.599C75.8692 122.744 75.6651 122.89 75.5277 123.038C75.4574 123.186 75.3886 123.26 75.3803 123.635C75.0588 126.032 75.5415 128.446 76.3606 130.792C77.2467 133.14 78.4042 135.343 79.6956 137.549C80.92 139.753 82.2786 141.961 83.5013 144.24C84.724 146.52 85.8778 148.873 86.4223 151.514C86.6619 152.796 86.8326 154.151 86.5329 155.572C86.3839 156.245 86.101 156.915 85.6187 157.506C85.1364 158.096 84.5902 158.535 83.979 158.898C82.7564 159.623 81.4758 159.971 80.4592 160.475C79.9166 160.764 79.5074 161.055 79.2294 161.5C79.0905 161.722 79.0188 161.946 78.9468 162.17L78.7927 163.068C78.4696 165.54 78.5465 168.095 79.029 170.509C79.5115 172.923 80.4633 175.347 81.6207 177.55C82.7764 179.828 84.205 181.887 85.7007 183.947C86.4829 184.94 87.2631 186.009 88.0453 187.002L89.2183 188.529C89.4745 189.061 89.6652 189.516 89.9232 189.972ZM90.0356 190.951C89.5097 190.489 88.9201 189.875 88.3975 189.263L87.1578 187.734C86.3757 186.741 85.5938 185.748 84.8132 184.679C83.2506 182.618 81.8235 180.484 80.6025 178.13C79.3797 175.85 78.4301 173.351 77.8823 170.86C77.3362 168.295 77.2605 165.664 77.587 163.042C77.6606 162.744 77.6691 162.368 77.7428 162.069C77.8182 161.695 77.9602 161.323 78.1695 160.951C78.5865 160.284 79.2667 159.848 79.811 159.484C81.0319 158.834 82.2458 158.485 83.264 157.906C84.2823 157.327 85.0395 156.442 85.2655 155.32C85.4915 154.198 85.3838 152.994 85.1425 151.787C84.593 149.371 83.5047 147.094 82.3473 144.891C81.1229 142.687 79.7645 140.48 78.4731 138.274C77.1818 136.068 75.9588 133.788 75.009 131.289C74.1246 128.866 73.5152 126.149 73.9103 123.454L73.9153 123.228C73.917 123.153 73.9184 123.078 73.9887 122.93C74.0607 122.706 74.2 122.483 74.272 122.26C74.5483 121.89 74.8212 121.67 75.1611 121.452C75.7741 121.015 76.3821 120.803 76.9917 120.515C78.2093 120.015 79.425 119.591 80.5755 119.09C81.7261 118.588 82.8765 118.087 83.8311 117.357C84.784 116.701 85.608 115.817 86.0334 114.775C86.246 114.254 86.3917 113.731 86.4051 113.13C86.4168 112.605 86.4297 112.004 86.3778 111.327C86.2705 110.123 85.9624 108.914 85.5855 107.779C84.8334 105.435 83.6777 103.157 82.3863 100.951C79.8705 96.5403 76.879 92.4202 74.5039 87.7123C73.926 86.5732 73.4172 85.3606 72.9767 84.0743C72.6031 82.7894 72.2983 81.4305 72.397 80.0054L72.4754 79.4815L72.4821 79.1813L72.4854 79.031C72.4871 78.9559 72.5561 78.8824 72.5578 78.8074C72.6315 78.5085 72.8372 78.2875 72.9762 78.0652C73.1135 77.9179 73.318 77.772 73.4553 77.6247C74.1352 77.1885 74.7447 76.9009 75.3526 76.6886C76.6372 76.1903 77.8511 75.841 79.1306 75.5679C81.626 74.8702 84.1202 74.2474 86.4196 73.3201C86.9606 73.1063 87.503 72.8174 87.9787 72.5271C88.4543 72.2369 88.8646 71.8702 89.0052 71.5728C89.0756 71.4241 89.0787 71.2738 89.082 71.1237C89.02 70.897 88.9598 70.5952 88.8995 70.2934C88.7102 69.7636 88.4538 69.2322 88.1306 68.6995C86.9029 66.6452 85.1346 64.8048 83.2956 63.1129C81.4566 61.421 79.483 59.7263 77.5084 58.1067C75.5354 56.4119 73.5629 54.7172 71.7976 52.7265C70.9484 51.7318 70.1024 50.5869 69.5965 49.2241C69.3436 48.5426 69.2281 47.7138 69.4474 46.8923C69.4508 46.7421 69.588 46.5951 69.6583 46.4464C69.7286 46.2977 69.8645 46.2255 69.9349 46.0767C70.0722 45.9295 70.1388 45.9307 70.2075 45.857C70.2761 45.7834 70.412 45.7114 70.479 45.7128C70.819 45.4948 71.1573 45.3517 71.4939 45.2838C72.8438 44.862 74.1215 44.6639 75.3993 44.4659L79.233 43.8719C80.5108 43.674 81.7233 43.3994 82.9359 43.1249C84.15 42.7753 85.2969 42.4244 86.2481 41.8438C86.7237 41.5536 87.0006 41.1837 87.1412 40.8863C87.1429 40.8112 87.1443 40.7362 87.213 40.6626C87.213 40.6626 87.213 40.6625 87.2146 40.5875C87.2163 40.5124 87.2163 40.5126 87.218 40.4375C87.156 40.2109 87.0937 39.9839 86.9648 39.7558C86.4522 38.6932 85.7373 37.7014 84.9551 36.7082C83.4578 34.7232 81.8261 32.7356 80.1245 30.8965C79.2736 29.9769 78.4228 29.0573 77.505 28.1363C77.046 27.6758 76.6527 27.2916 76.1285 26.7545C75.6712 26.219 75.2123 25.7588 74.8237 25.1495C74.0449 24.0062 73.3998 22.8654 72.9609 21.504C72.708 20.8225 72.5225 20.1427 72.5392 19.3919C72.5476 19.0165 72.5575 18.5658 72.7702 18.0446C72.8405 17.8959 72.842 17.8208 72.9794 17.6735C73.1167 17.5262 73.187 17.3775 73.3227 17.3053L73.8651 17.0165C74.2051 16.7984 74.6089 16.7319 75.0141 16.5903C75.4178 16.5239 75.8215 16.4576 76.1565 16.4648C76.5584 16.4734 76.8931 16.4806 77.2264 16.5629C77.5613 16.57 77.8946 16.6521 78.2279 16.7343C79.5627 16.9882 80.7623 17.3146 81.9664 17.4154C83.1706 17.5163 84.3109 17.4653 85.3894 17.1879C85.9287 17.0493 86.4712 16.7605 86.9451 16.5453C87.4207 16.255 87.965 15.8912 88.3067 15.5981C88.9916 14.9367 89.4186 13.8192 89.7133 12.6237C90.008 11.4281 90.1686 10.2298 90.3326 8.88122C90.562 7.60919 90.7935 6.26195 91.2909 4.99566C91.4315 4.69822 91.5733 4.32583 91.781 4.02982C91.9217 3.73238 92.1966 3.43758 92.4059 3.06649C92.6805 2.77192 92.9553 2.47764 93.2283 2.25814C93.5013 2.03864 93.7744 1.81885 94.0474 1.59935C94.6586 1.23686 95.2043 0.79793 96.1472 0.592768C96.6178 0.527725 97.2189 0.615923 97.6829 0.851193C98.1468 1.08646 98.4734 1.4688 98.6677 1.77341C99.1216 2.45915 99.3748 3.14074 99.5607 3.82074C99.7467 4.50075 99.9341 5.10545 100.051 5.85909C100.222 7.2148 100.33 8.41899 100.435 9.69818C100.61 10.9037 100.782 12.1846 101.092 13.3179C101.402 14.4513 101.914 15.5138 102.633 16.3554C102.698 16.432 102.697 16.5068 102.764 16.5083C102.764 16.5083 102.764 16.5082 102.831 16.5097C102.897 16.5111 102.963 16.5878 103.028 16.6643C103.227 16.7437 103.494 16.8243 103.76 16.9051C104.295 16.9917 104.962 17.0813 105.564 17.1693C106.835 17.2716 108.106 17.3738 109.377 17.4761C110.648 17.5784 111.986 17.6823 113.385 18.0878C113.718 18.1701 114.117 18.3288 114.449 18.4862C114.78 18.6435 115.242 18.9535 115.502 19.3347C116.087 20.1734 116.202 21.0023 116.185 21.7531C116.219 23.2561 115.788 24.5237 115.425 25.7929C114.995 27.0606 114.499 28.2518 113.801 29.5138C113.384 30.1809 112.972 30.6229 112.558 31.1398L111.386 32.617C109.867 34.6126 108.481 36.6861 107.359 38.9155C106.798 40.0302 106.304 41.1464 105.944 42.2653C105.582 43.4594 105.356 44.5811 105.195 45.7795C105.189 46.0798 105.182 46.3802 105.175 46.6805C105.169 46.9809 105.162 47.2813 105.222 47.5831C105.215 47.8834 105.276 48.1849 105.269 48.4852C105.331 48.7119 105.393 48.9385 105.455 49.1651C105.772 49.9982 106.564 50.5411 107.695 50.9409C108.825 51.3407 110.095 51.5178 111.552 52.3002C111.882 52.5326 112.212 52.765 112.538 53.1476C112.798 53.5287 113.057 53.9099 113.181 54.3632C113.431 55.1948 113.346 56.0193 113.264 56.6936C112.934 59.4658 111.671 61.9927 110.281 64.2163C108.891 66.44 107.371 68.5104 106.116 70.6619C104.862 72.8133 103.807 75.0442 103.353 77.363L103.199 78.2612C103.192 78.5615 103.186 78.8616 103.112 79.1605L103.025 80.0601C103.019 80.3605 103.079 80.6623 103.072 80.9627C103.112 82.1653 103.286 83.3708 103.735 84.2818C104.182 85.2678 104.905 85.9592 105.9 86.4311C106.895 86.9031 108.162 87.1558 109.487 87.8602C110.15 88.1748 110.875 88.7161 111.329 89.4019C111.85 90.089 112.1 90.9206 112.217 91.6743C112.334 92.4279 112.317 93.1786 112.235 93.8529C112.153 94.5272 112.005 95.1998 111.923 95.8741C111.328 98.4903 110.2 101.02 108.877 103.245C107.552 105.546 106.099 107.618 104.71 109.766C103.322 111.915 102.067 114.066 101.146 116.3C100.932 116.896 100.787 117.419 100.572 118.015C100.425 118.613 100.278 119.211 100.13 119.808C99.9697 121.007 99.7419 122.204 99.9178 123.334C100.027 124.463 100.338 125.522 100.99 126.362C101.641 127.202 102.564 127.898 103.625 128.446L105.346 129.385C105.942 129.698 106.604 130.087 107.19 130.851C107.516 131.234 107.706 131.763 107.761 132.29L107.756 132.516L107.753 132.666L107.746 132.966L107.733 133.567C107.725 133.942 107.649 134.316 107.575 134.615C107.5 134.989 107.426 135.288 107.284 135.66C106.421 138.271 105.097 140.571 103.774 142.796C102.451 145.021 101.063 147.17 99.8089 149.321C99.1809 150.434 98.553 151.548 98.0606 152.589C97.5666 153.705 97.2066 154.824 96.9789 156.021C96.7512 157.218 96.7929 158.345 96.9688 159.476C97.1447 160.606 97.5888 161.743 98.0326 162.879C98.5435 164.016 99.0526 165.229 99.4931 166.516C99.9337 167.802 100.239 169.161 100.343 170.515C100.482 173.297 99.6844 175.984 98.626 178.365C97.5007 180.745 96.1113 182.968 94.6561 185.115C93.9628 186.152 93.2023 187.187 92.4404 188.298L91.3331 189.852L90.7105 190.74C90.5849 190.361 90.2432 190.654 90.0356 190.951Z" fill="black"/>
<path d="M71.6133 177.945C71.5377 177.645 71.4619 177.495 71.4619 177.344C71.4619 177.269 71.4619 177.119 71.4619 176.969L71.4619 176.519L71.5372 174.642L71.6886 170.962C71.7642 168.484 71.9159 166.006 72.1428 163.528C72.294 162.251 72.4447 161.05 72.6715 159.773C72.8984 158.497 73.2766 157.295 73.5791 156.094C74.2597 153.766 74.8645 151.363 74.9402 149.036C74.9402 147.909 74.8645 146.708 74.5621 145.732C74.2596 144.831 73.5793 144.305 72.5962 144.004C71.6131 143.704 70.4035 143.629 69.1179 143.554C67.8324 143.479 66.5462 143.404 65.1094 142.803C64.4288 142.502 63.7482 142.052 63.2189 141.376C62.6896 140.775 62.3872 140.025 62.236 139.349C61.8579 137.922 61.9336 136.57 62.0093 135.294C62.2361 132.666 62.9167 130.188 63.8998 127.86C64.8072 125.532 65.9413 123.279 66.9999 121.027C68.0586 118.774 69.1933 116.596 69.9495 114.419C70.7057 112.166 71.0836 109.838 70.5543 107.811C70.2518 106.76 69.7225 105.858 69.0419 105.258C68.2857 104.657 67.3027 104.281 66.1684 104.131C63.9754 103.906 61.4799 104.357 59.3625 105.032C58.8332 105.258 58.2279 105.483 57.5473 105.708C56.8667 105.933 56.1861 106.084 55.2787 106.009C54.825 105.933 54.3714 105.783 53.9177 105.483C53.4639 105.183 53.2369 104.882 53.0101 104.582C52.5563 103.981 52.2544 103.23 52.1032 102.555C51.7251 101.203 51.7248 99.8511 51.8004 98.4995C51.876 97.2229 52.103 95.9467 52.3299 94.6701C52.8593 92.1922 53.54 89.8643 53.9937 87.4614C54.4474 85.1336 54.7496 82.7305 54.4472 80.4777C54.2959 79.3514 53.9933 78.2252 53.5396 77.249C53.0858 76.2728 52.4051 75.522 51.4976 75.0714C50.5902 74.6209 49.4565 74.3956 48.3221 74.3205C47.1122 74.2455 45.902 74.2452 44.6164 74.0951C43.9358 74.02 43.2551 73.9449 42.5745 73.7196C41.8939 73.4943 41.1376 73.1192 40.5326 72.5184C39.9276 71.9177 39.5495 71.1667 39.3983 70.4909C39.247 69.815 39.0958 69.2142 39.0202 68.5384C38.6421 65.9103 39.0961 63.2822 39.701 60.8043C40.3816 58.3263 41.3646 55.9985 42.1964 53.7458C43.1038 51.418 43.9355 49.1652 44.3136 46.8373C44.7674 44.5846 44.7677 42.1065 44.2383 39.9289C44.0871 39.4032 43.9357 38.8776 43.7088 38.4271C43.482 37.9765 43.1798 37.5263 42.8773 37.2259C42.1967 36.5501 41.2135 36.3246 40.0792 36.2495C38.9448 36.1744 37.6596 36.3248 36.2228 36.0244C35.8447 35.9493 35.4663 35.7992 35.1638 35.7241C34.7857 35.5739 34.4833 35.3484 34.1809 35.1232C33.8784 34.8228 33.5754 34.5975 33.3486 34.2971C33.1217 33.9967 32.895 33.6966 32.7438 33.3962C31.5338 30.9933 31.0801 28.3652 30.8532 25.8872C30.6264 23.4092 30.4753 21.0062 29.8703 18.6784C29.5678 17.5521 29.114 16.5009 28.5846 15.4497C27.9796 14.4735 27.2992 13.4972 26.4674 12.7463C24.8793 11.1694 22.7616 9.89283 20.8711 10.7939C19.8124 11.1694 18.905 11.77 18.2244 12.596C17.5438 13.422 17.0902 14.3981 16.8633 15.5245C16.4096 17.7021 16.5613 20.1803 16.9394 22.5081C17.3175 24.911 17.922 27.314 18.3758 29.7169C18.6026 30.9183 18.9054 32.1949 19.0567 33.4714C19.2079 34.7479 19.208 36.1746 18.8299 37.5262C18.6031 38.202 18.3 38.8779 17.8463 39.4786C17.3925 40.0794 16.8632 40.5299 16.3339 40.9804C15.1995 41.8064 13.9141 42.2568 12.7042 42.6322C10.2087 43.3831 7.7132 43.6086 5.52019 44.3595C4.38587 44.735 3.40265 45.2604 2.72206 46.0113C2.11709 46.7622 1.8152 47.7386 1.8152 48.8649C1.89082 51.1177 2.64659 53.3701 4.00777 55.3224C5.36895 57.1997 7.10838 58.8518 9.07453 60.2785C11.0407 61.7052 13.1582 62.9819 15.2756 64.1833C17.393 65.4599 19.5856 66.7364 21.6273 68.3133C22.6104 69.0642 23.5941 69.9652 24.5015 70.8663C25.409 71.8425 26.2408 72.8185 26.7701 74.0951C27.0726 74.6958 27.2233 75.4468 27.2989 76.1226C27.2989 76.7985 27.3748 77.4744 27.2236 78.1502C27.0723 79.5019 26.6188 80.7781 25.8625 81.9796C24.4257 84.3074 22.2323 85.8846 20.1149 87.1611C19.0562 87.8369 17.922 88.4376 16.8633 89.0384C15.8047 89.6391 14.5949 90.1646 13.6118 90.7653C12.5531 91.366 11.6453 92.0417 11.0404 92.8677C10.4354 93.6937 10.2843 94.7452 10.4356 95.7965C10.738 98.0492 12.0997 100.001 13.9146 101.503C15.7295 103.005 17.9219 104.132 20.1149 105.183C24.5765 107.21 29.3413 108.937 33.576 111.866C35.6934 113.293 37.5838 115.02 39.0962 117.197C39.4743 117.723 39.852 118.248 40.1545 118.849L40.6087 119.675C40.7599 119.975 40.9108 120.276 41.0621 120.576C41.2889 121.252 41.4405 122.003 41.3649 122.679C41.2892 123.43 41.0621 124.106 40.684 124.706C40.3059 125.307 39.8523 125.832 39.3229 126.283C38.8692 126.733 38.3399 127.109 37.8105 127.484C36.7518 128.235 35.693 128.836 34.6343 129.512C33.5756 130.188 32.5927 130.864 31.7608 131.614C30.929 132.365 30.324 133.342 30.2484 134.318C30.2484 134.768 30.3239 135.369 30.4751 135.895C30.6264 136.42 30.8531 136.946 31.08 137.472C31.6093 138.448 32.4411 139.274 33.3486 139.95C35.2391 141.301 37.5835 142.127 39.9278 142.878C42.272 143.629 44.6922 144.305 47.0364 145.431C48.1708 145.957 49.3049 146.708 50.288 147.609C51.2711 148.51 52.0271 149.636 52.4052 150.988C52.5565 151.664 52.5565 152.415 52.4052 153.09C52.254 153.766 52.0276 154.367 51.7251 154.968C51.1201 156.094 50.2877 157.145 49.6071 158.122C48.9265 159.098 48.2464 160.074 47.7926 161.2C47.4145 162.251 47.2634 163.378 47.5659 164.504C48.0953 166.832 49.5318 168.784 51.4223 170.286C53.3128 171.788 55.5058 172.839 57.8501 173.665C60.1944 174.491 62.5389 175.167 64.9588 175.768C66.1687 176.068 67.3785 176.444 68.5884 176.744C69.1934 176.894 69.7979 177.12 70.4029 177.27L71.3105 177.57C71.4617 177.645 71.4616 177.645 71.5372 177.72L71.6133 177.945ZM72.1428 178.771C71.9159 178.771 71.6888 178.696 71.4619 178.696C71.235 178.621 70.9327 178.546 70.8571 178.471L70.0248 178.171C69.4198 177.945 68.8906 177.795 68.2857 177.645C67.0757 177.27 65.8656 176.969 64.7313 176.669C62.3114 176.068 59.8916 175.392 57.5473 174.566C55.2031 173.74 52.8593 172.689 50.8175 171.112C48.7757 169.535 47.1872 167.283 46.5823 164.805C46.431 164.204 46.2799 163.453 46.3556 162.777C46.4312 162.101 46.5829 161.425 46.8097 160.825C47.2634 159.548 48.0197 158.497 48.7002 157.521C49.4565 156.469 50.1365 155.568 50.7414 154.517C51.2708 153.466 51.5734 152.415 51.2709 151.363C51.0441 150.312 50.288 149.336 49.5318 148.585C48.7 147.759 47.7166 147.158 46.5823 146.633C44.3893 145.581 42.0456 144.981 39.6257 144.23C37.2815 143.479 34.7858 142.653 32.6684 141.151C31.6097 140.4 30.6262 139.424 29.9456 138.223C29.5675 137.622 29.3407 137.021 29.1894 136.345C29.0382 135.67 28.8874 135.069 28.8874 134.318C28.8874 133.567 29.1141 132.891 29.4922 132.215C29.8703 131.615 30.3242 131.089 30.7779 130.638C31.761 129.737 32.8194 128.986 33.8781 128.311C34.9368 127.635 35.9959 126.959 36.979 126.283C37.9621 125.607 38.8689 124.856 39.3983 123.88C39.7008 123.43 39.8524 122.979 39.8524 122.454C39.8524 121.928 39.777 121.477 39.6257 120.952C39.5501 120.727 39.3989 120.426 39.2476 120.201L38.7934 119.45C38.491 118.924 38.113 118.474 37.8105 117.948C36.4493 115.996 34.6346 114.419 32.6684 113.067C28.6605 110.364 23.972 108.637 19.4348 106.609C17.1661 105.558 14.8973 104.357 12.8556 102.705C11.8725 101.879 10.9651 100.903 10.2088 99.7761C9.45263 98.6498 8.99861 97.3733 8.77175 96.0216C8.6205 95.3458 8.6205 94.595 8.77175 93.9192C8.92299 93.1683 9.22592 92.4924 9.60402 91.8916C10.4359 90.6902 11.5699 89.9393 12.7042 89.2635C13.8385 88.5877 14.8975 88.0621 16.0318 87.4614C17.0905 86.8607 18.225 86.26 19.208 85.6593C21.2498 84.3827 23.2155 82.8808 24.4254 81.0035C25.0304 80.0273 25.4088 78.9759 25.4844 77.8496C25.5601 77.3239 25.5598 76.7234 25.5598 76.1978C25.4841 75.6722 25.4088 75.2216 25.1063 74.696C24.6526 73.7198 23.896 72.7435 23.1397 71.9175C22.3079 71.0915 21.4005 70.2657 20.493 69.5148C18.6025 68.013 16.4854 66.8113 14.368 65.5348C12.2506 64.2583 10.0573 62.9818 8.01554 61.48C5.97377 59.9782 4.00777 58.251 2.49535 56.0733C0.982926 53.8957 0.151242 51.3427 2.48444e-08 48.6394C2.40069e-08 47.2878 0.377958 45.711 1.36103 44.5846C2.3441 43.4583 3.62981 42.8576 4.91537 42.4071C7.41086 41.5811 9.90606 41.2808 12.1747 40.605C14.4433 40.0043 16.5607 38.8027 17.0901 36.7753C17.3925 35.724 17.3927 34.6728 17.2415 33.4714C17.0902 32.2699 16.8635 31.1434 16.6366 29.942C16.1073 27.5391 15.5023 25.1361 15.1242 22.6581C14.7461 20.1801 14.5195 17.5521 15.0489 14.9239C15.3514 13.6474 15.8803 12.2958 16.8633 11.2445C17.7708 10.1933 18.9807 9.36719 20.2663 8.91665C20.4175 8.84156 20.5692 8.76632 20.7205 8.76632L21.2492 8.61636C21.6273 8.54127 22.0054 8.5412 22.3835 8.5412C23.1397 8.5412 23.8965 8.76654 24.5015 8.99182C25.7871 9.51745 26.9209 10.4186 27.8284 11.3197C28.7358 12.2959 29.5678 13.2718 30.2484 14.4733C30.929 15.6747 31.3827 16.8761 31.7608 18.1526C32.4414 20.7057 32.593 23.184 32.8198 25.5869C33.0467 27.9898 33.5003 30.3927 34.559 32.345C35.0883 33.3212 35.6175 33.8467 36.6762 34.072C37.6593 34.2972 38.945 34.222 40.2305 34.2971C40.9111 34.3722 41.5916 34.4473 42.3478 34.6725L42.8773 34.8229L43.4068 35.1232C43.7849 35.2733 44.0112 35.5736 44.3136 35.7989C44.843 36.3245 45.2969 36.9256 45.5993 37.6014C45.9774 38.2021 46.129 38.8776 46.2802 39.5534C46.5827 40.83 46.7337 42.1817 46.7337 43.4583C46.7337 44.1341 46.734 44.7349 46.6583 45.4107C46.5827 46.0865 46.5068 46.6873 46.3556 47.3631C45.9018 49.9162 44.9944 52.3188 44.0869 54.5715C43.1795 56.8993 42.2719 59.1522 41.6669 61.48C41.0619 63.8078 40.6843 66.1358 40.9868 68.3885C41.0624 68.9141 41.2136 69.5146 41.3649 70.0402C41.5161 70.4908 41.7425 70.8662 42.045 71.1666C42.65 71.7673 43.6332 71.9928 44.8431 72.143C45.9774 72.2181 47.2633 72.2179 48.5489 72.293C49.8344 72.368 51.2711 72.5935 52.5566 73.2693C53.8422 73.9452 54.9765 75.0712 55.5815 76.3478C56.1864 77.6243 56.4889 78.901 56.7158 80.2526C56.867 81.5292 56.8667 82.8809 56.7911 84.1575C56.7155 85.434 56.4892 86.7105 56.2624 87.912C55.8086 90.39 55.1279 92.7926 54.5985 95.1204C54.3717 96.3218 54.1447 97.4483 54.069 98.6498C53.9934 99.7761 53.9933 100.978 54.2958 101.954C54.447 102.479 54.5981 102.93 54.9006 103.306C55.2031 103.756 55.2787 103.756 55.6568 103.831C55.9593 103.906 56.4892 103.756 57.0186 103.606C57.5479 103.456 58.0767 103.23 58.6816 102.93C59.3622 102.705 59.9672 102.554 60.5722 102.329C61.1771 102.179 61.8577 102.029 62.4627 101.954C63.7482 101.728 65.11 101.653 66.4712 101.879C67.8324 102.029 69.269 102.479 70.479 103.456C70.7814 103.681 71.0836 103.906 71.3105 104.206C71.4617 104.357 71.5374 104.507 71.6886 104.657L71.9914 105.108C72.3695 105.708 72.5961 106.384 72.8229 107.06C73.201 108.412 73.2013 109.838 73.1257 111.115C72.9745 112.467 72.6715 113.743 72.2934 114.945C71.4616 117.423 70.3273 119.675 69.2686 121.853C68.2099 124.105 67.0756 126.283 66.2437 128.536C65.4119 130.788 64.7315 133.041 64.5046 135.369C64.429 136.57 64.3538 137.697 64.5807 138.673C64.8075 139.649 65.3363 140.325 66.2437 140.7C67.1512 141.076 68.2861 141.226 69.496 141.301C70.706 141.376 71.9909 141.451 73.4277 141.827C74.1083 142.052 74.8647 142.352 75.4697 142.878C76.0746 143.404 76.5285 144.155 76.7554 144.83C77.2091 146.182 77.2844 147.534 77.2088 148.885C77.0575 151.513 76.3019 153.991 75.5457 156.319C75.1676 157.521 74.7889 158.647 74.5621 159.773C74.3352 160.975 74.1085 162.176 73.9572 163.378C73.6547 165.781 73.4279 168.259 73.201 170.737L72.899 174.416L72.7476 176.293L72.6715 177.27C72.369 177.945 72.2184 178.396 72.1428 178.771Z" fill="black"/>
<path d="M305.813 208.736C307.552 198.373 309.896 188.086 312.542 177.949C315.189 167.812 318.063 157.675 321.087 147.612C322.6 142.581 324.113 137.55 325.701 132.519L328.045 125.01C328.801 122.532 329.632 119.979 330.54 117.501C332.355 112.545 334.397 107.664 336.514 102.858L339.614 95.6497L341.127 92.0455C341.656 90.6938 342.337 89.5673 343.017 88.4409C344.378 86.1882 345.664 83.9354 346.874 81.6076C347.479 80.4812 348.009 79.2801 348.387 78.1537C348.462 77.8534 348.613 77.5529 348.613 77.3276L348.689 76.877L348.689 76.5016L348.689 76.2765C348.689 76.3515 348.689 76.1262 348.689 76.2013C348.462 76.1262 350.504 77.628 349.596 76.9522L349.521 76.9522C349.445 76.9522 349.445 76.9522 349.37 76.9522C349.294 77.0273 349.143 77.0274 349.067 77.0274C348.916 77.1025 348.84 77.1773 348.689 77.1773C347.706 77.703 346.723 78.604 345.815 79.43C344.908 80.3311 344.077 81.3075 343.245 82.2837C341.581 84.236 339.993 86.3384 338.556 88.5161C337.044 90.6186 335.607 92.8715 334.246 95.0491C333.565 96.1754 332.884 97.3018 332.355 98.4281C332.053 99.0289 331.75 99.5543 331.599 100.08L330.994 101.957C329.33 106.913 327.818 111.944 326.457 116.975C325.096 122.006 323.885 127.113 322.6 132.219L320.785 139.878C320.18 142.431 319.499 144.984 318.97 147.537C316.853 157.75 316.626 168.337 313.979 178.625C313.904 178.85 313.677 179 313.375 179C313.148 178.925 312.997 178.7 312.997 178.399C315.492 168.262 315.567 157.674 317.609 147.312C318.138 144.684 318.743 142.206 319.348 139.578L321.087 131.918C322.222 126.812 323.432 121.706 324.793 116.6C326.154 111.494 327.591 106.463 329.255 101.432L329.86 99.5545C330.087 98.8787 330.389 98.278 330.691 97.6772C331.296 96.4758 331.977 95.3494 332.658 94.223C334.019 91.9703 335.455 89.7177 336.968 87.54C338.48 85.3624 340.069 83.2599 341.732 81.1573C342.564 80.1061 343.471 79.1299 344.454 78.1537C345.437 77.1775 346.421 76.2765 347.782 75.5256C347.933 75.4505 348.159 75.3752 348.311 75.3001L348.916 75.0749L349.294 74.9998L349.445 74.9998L349.521 74.9998C348.689 74.324 350.731 75.9009 350.504 75.8258C350.504 75.976 350.504 75.976 350.579 76.2013L350.579 76.5016C350.579 76.7269 350.579 76.8769 350.579 77.1022L350.504 77.6279C350.428 78.0034 350.352 78.3037 350.201 78.6791C349.748 80.0308 349.218 81.2322 348.613 82.4337C347.404 84.8366 346.043 87.0894 344.757 89.3421C344.152 90.4685 343.471 91.5948 343.017 92.7212L341.505 96.4006L338.48 103.684C336.438 108.49 334.397 113.296 332.582 118.252C331.674 120.73 330.918 123.208 330.086 125.686L327.743 133.195C326.155 138.226 324.642 143.182 323.129 148.213C320.18 158.275 317.306 168.337 314.66 178.474C312.013 188.612 309.442 198.749 306.644 208.886C306.569 209.111 306.342 209.262 306.039 209.187C305.888 209.187 305.737 208.961 305.813 208.736Z" fill="black"/>
<path d="M298.325 214.819C298.173 209.938 298.173 205.057 298.551 200.251L298.703 198.449L298.929 196.647L299.308 193.043C299.686 190.64 299.913 188.237 300.367 185.834C301.955 176.223 304.223 166.761 306.718 157.45C309.214 148.064 312.012 138.828 314.659 129.516C317.305 120.205 319.725 110.894 321.616 101.433L322.977 94.3738L323.128 93.4729L323.28 92.5717L323.507 90.8448L323.658 89.8684C323.734 89.568 323.809 89.1929 323.809 89.0427C323.809 89.1178 323.809 89.0424 323.809 89.1926C323.885 89.3428 323.809 89.418 324.263 89.7184C324.641 89.9437 324.944 89.8687 325.095 89.7936C325.171 89.7936 325.17 89.7184 325.246 89.7184L325.17 89.7936L324.868 90.0939L324.187 90.6944C322.373 92.2713 320.86 94.0735 319.423 95.9508C318.062 97.9031 316.701 99.8555 315.566 101.958C311.029 110.368 308.76 119.829 307.248 129.291C305.735 138.827 305.055 148.439 304.45 158.051C303.845 167.662 303.391 177.349 301.954 186.961C301.879 187.186 301.652 187.411 301.425 187.336C301.198 187.336 300.971 187.036 301.047 186.81C302.332 177.274 302.635 167.587 303.165 157.9C303.694 148.214 304.223 138.527 305.66 128.915C307.097 119.304 309.366 109.692 313.978 100.982C315.113 98.8044 316.474 96.7019 317.911 94.6745C319.423 92.7221 321.011 90.7695 322.902 89.1175L323.583 88.5169L323.961 88.2166L324.036 88.1414C324.112 88.0663 324.187 87.9911 324.263 87.9911C324.49 87.916 324.792 87.7658 325.246 87.9911C325.699 88.3666 325.624 88.4419 325.7 88.5921C325.775 88.7422 325.7 88.7421 325.775 88.8172C325.775 88.9674 325.775 88.9676 325.775 89.0427C325.7 89.4932 325.624 89.7934 325.624 90.0187L325.624 90.169L325.624 90.3942L325.548 90.8448L325.322 92.6469L325.246 93.5481L325.095 94.449L323.733 101.583C321.918 111.119 319.499 120.506 316.852 129.892C314.205 139.203 311.483 148.514 308.987 157.825C306.491 167.137 304.299 176.523 302.711 186.059C301.047 195.521 300.064 205.133 299.384 214.744C299.384 214.969 299.157 215.195 298.854 215.195C298.552 215.27 298.325 215.045 298.325 214.819Z" fill="black"/>
<path d="M291.292 216.466C290.158 205.578 289.553 194.615 289.25 183.652C288.948 172.689 288.872 161.725 289.175 150.762C289.553 139.799 290.233 128.911 290.536 117.948C290.687 112.466 290.763 107.059 290.536 101.578C290.309 96.1713 289.855 90.6896 289.175 85.3582C288.797 82.655 288.342 80.027 287.813 77.3237C287.208 74.6956 286.528 72.0673 285.394 69.6644C284.864 68.4629 284.184 67.3367 283.352 66.4356C283.276 66.2854 283.125 66.2104 283.049 66.1353L282.898 65.985L282.822 65.9098L282.747 65.9098C283.276 65.6846 281.461 66.2854 284.108 65.6096C284.259 65.3843 284.108 65.5343 284.183 65.4592L284.183 65.5344L284.183 65.6096L284.108 65.8347L283.957 66.2853L283.427 68.2377C283.049 69.5894 282.747 70.8657 282.369 72.2174L282.141 73.1938C282.141 73.344 282.066 73.4942 282.066 73.6444L281.991 74.1698C281.915 74.8456 281.839 75.5216 281.839 76.1974C281.461 81.5288 282.142 86.9354 282.822 92.417C283.125 95.1203 283.503 97.8234 283.73 100.602L284.41 108.787C286.376 130.563 289.25 152.264 290.611 174.115C290.611 174.341 290.46 174.566 290.158 174.641C289.931 174.641 289.704 174.491 289.628 174.19C288.04 152.414 284.864 130.713 282.747 108.937L281.991 100.752C281.764 98.0485 281.385 95.3454 281.007 92.6421C280.327 87.2356 279.571 81.6789 279.949 76.1222C279.949 75.4464 280.025 74.6957 280.1 74.0198L280.176 73.4941C280.176 73.2688 280.251 73.0437 280.251 72.8935L280.478 71.8419C280.781 70.4903 281.159 69.1388 281.537 67.8623L282.066 65.8347L282.218 65.3093L282.293 65.0838L282.369 64.9338L282.369 64.8587C282.445 64.7836 282.369 64.9339 282.444 64.6335C285.091 63.8826 283.427 64.5582 283.957 64.408L284.032 64.4832L284.108 64.5584L284.335 64.7835C284.486 64.9337 284.637 65.0088 284.788 65.1589C285.847 66.2853 286.528 67.5618 287.208 68.8383C288.418 71.4665 289.175 74.1698 289.78 76.798C290.385 79.5012 290.838 82.2044 291.216 84.9828C291.972 90.4644 292.426 95.9463 292.653 101.428C292.88 106.909 292.804 112.391 292.728 117.873C292.426 128.836 291.746 139.724 291.444 150.687C291.141 161.575 291.216 172.538 291.594 183.426C291.897 194.315 292.35 205.278 292.35 216.241C292.35 216.466 292.124 216.692 291.897 216.692C291.519 216.917 291.292 216.692 291.292 216.466Z" fill="black"/>
<path d="M295.223 209.634C294.996 208.207 294.769 206.781 294.618 205.354C294.391 203.927 294.24 202.5 294.089 201.074L293.711 196.794C293.56 195.367 293.559 193.94 293.408 192.438C293.03 186.656 293.03 180.874 293.105 175.167C293.332 163.603 294.088 152.115 294.996 140.701C295.828 129.212 296.811 117.798 297.34 106.31C297.567 100.603 297.718 94.8208 298.323 89.0388C298.853 83.2568 299.76 77.5497 301.122 71.9179C302.483 66.2861 304.298 60.7294 306.566 55.398C307.096 54.0464 307.7 52.77 308.381 51.4184C308.683 50.7426 309.062 50.0667 309.44 49.4659C309.591 49.1656 309.818 48.7903 309.969 48.4899L310.12 48.2644C310.12 48.2644 310.196 48.1896 310.196 48.1145L310.423 47.6638C310.498 47.5137 310.574 47.2882 310.726 47.0629C310.801 46.9878 310.801 46.8379 311.104 46.6127C311.255 46.5376 311.255 46.4623 311.557 46.3872C311.935 46.3121 312.162 46.3873 312.389 46.5375C312.616 46.7628 312.616 46.8378 312.691 46.9129C312.767 46.988 312.767 47.1381 312.767 47.1381L313.145 48.1893C313.221 48.5647 313.372 48.8654 313.523 49.2408L313.75 50.3672C313.826 50.7426 313.902 51.1181 313.977 51.4935L314.129 52.6199C314.204 52.9953 314.204 53.3708 314.279 53.7463L314.355 54.8726C314.733 60.8048 313.75 66.5864 312.616 72.2182L310.801 80.6285C310.196 83.4069 309.666 86.2604 309.137 89.0388C304.902 111.641 301.726 134.468 295.525 156.695C295.45 156.92 295.223 157.071 294.92 156.996C294.694 156.921 294.542 156.695 294.618 156.395C300.592 134.168 303.541 111.341 307.549 88.6633C308.079 85.8099 308.532 83.0313 309.137 80.1779L310.952 71.768C312.087 66.1362 312.994 60.5044 312.616 54.8726L312.54 53.821C312.54 53.4456 312.464 53.1453 312.389 52.7699L312.238 51.7187C312.162 51.3432 312.086 51.043 312.011 50.7426L311.784 49.7662C311.708 49.4659 311.557 49.0906 311.482 48.7902L311.179 47.8138C311.179 47.7387 311.179 47.8139 311.179 47.889C311.179 47.889 311.179 47.9643 311.406 48.1145C311.557 48.1896 311.784 48.3395 312.087 48.2644C312.389 48.1893 312.314 48.1896 312.465 48.1145C312.616 47.9643 312.54 48.0393 312.54 48.0393C312.464 48.1144 312.389 48.2646 312.313 48.4148L312.087 48.9402C312.011 49.0153 312.011 49.1657 311.935 49.2408L311.784 49.4659C311.633 49.7663 311.406 50.0668 311.254 50.3672C310.952 50.9679 310.574 51.5686 310.271 52.2444C309.666 53.521 309.062 54.7973 308.532 56.1489C306.415 61.4053 304.6 66.887 303.314 72.4437C302.029 78.0004 301.121 83.6322 300.592 89.3391C299.987 95.046 299.912 100.753 299.609 106.535C299.08 118.024 298.172 129.512 297.34 141.001C296.509 152.49 295.752 163.904 295.525 175.393C295.45 181.1 295.374 186.882 295.525 192.589C295.525 194.015 295.526 195.442 295.601 196.868L295.828 201.149C295.904 204.002 296.206 206.856 296.281 209.709C296.281 209.934 296.055 210.16 295.828 210.16C295.45 210.009 295.223 209.859 295.223 209.634Z" fill="black"/>
<path d="M284.636 211.21C283.88 203.476 283.502 195.742 282.972 188.082C282.443 180.348 281.611 172.689 280.326 165.105C279.04 157.521 277.225 150.012 274.73 142.728C272.234 135.519 268.453 128.761 263.765 122.679C262.63 121.177 261.345 119.675 260.135 118.173C259.53 117.422 258.849 116.746 258.244 115.996L257.261 114.869C256.883 114.419 256.656 114.043 256.354 113.593C256.051 113.217 255.825 112.842 255.522 112.541C255.447 112.466 255.371 112.391 255.371 112.391C255.371 112.391 255.447 112.466 255.522 112.466C255.749 112.541 255.975 112.391 256.051 112.316C256.127 112.241 256.202 112.166 256.202 112.166C256.202 112.166 256.202 112.166 256.202 112.091C256.202 112.091 256.202 112.091 256.202 112.016L256.202 112.091L256.202 112.241C256.127 112.692 255.976 113.067 255.976 113.517C255.976 113.968 255.9 114.419 255.9 114.869C255.825 116.671 256.202 118.549 256.581 120.351C257.034 122.153 257.639 124.03 258.32 125.757C259 127.56 259.756 129.287 260.588 131.014C262.252 134.468 264.143 137.847 266.033 141.226C269.739 148.059 273.369 154.967 276.545 162.026C279.721 169.16 282.368 176.519 284.258 184.028C284.334 184.253 284.183 184.553 283.88 184.628C283.653 184.703 283.35 184.553 283.274 184.328C281.233 176.894 278.511 169.61 275.259 162.627C272.007 155.568 268.302 148.81 264.521 142.052C260.74 135.369 256.732 128.46 254.766 120.726C254.312 118.774 253.934 116.821 254.01 114.719C254.01 114.193 254.085 113.668 254.085 113.142C254.161 112.616 254.312 112.091 254.388 111.565L254.463 111.34L254.463 111.265C254.463 111.19 254.539 111.115 254.539 111.04C254.539 110.964 254.615 110.889 254.615 110.814C254.69 110.739 254.766 110.589 254.917 110.514C255.144 110.288 255.522 110.214 255.824 110.289C256.051 110.289 256.203 110.439 256.354 110.514C256.429 110.589 256.581 110.664 256.657 110.739C256.808 110.889 256.884 110.965 257.035 111.115C257.413 111.565 257.715 111.94 258.018 112.391C258.32 112.766 258.547 113.217 258.849 113.517L259.832 114.569C260.513 115.32 261.194 115.996 261.799 116.746C263.084 118.248 264.294 119.75 265.58 121.252C270.419 127.484 274.352 134.393 276.923 141.827C279.494 149.186 281.384 156.845 282.67 164.504C284.031 172.163 284.863 179.898 285.392 187.707C285.544 189.659 285.619 191.611 285.771 193.489C285.846 195.441 285.921 197.394 285.921 199.346C285.997 203.251 285.922 207.08 285.771 210.985C285.771 211.21 285.544 211.436 285.241 211.436C284.863 211.661 284.636 211.435 284.636 211.21Z" fill="black"/>
<path d="M41.7442 228.184C43.7103 228.334 45.6766 228.559 47.5671 228.859C49.5332 229.16 51.4234 229.46 53.3139 229.836L59.0608 230.887L64.8084 231.788C72.5217 232.989 80.2351 233.891 88.024 234.642C95.7373 235.392 103.526 235.918 111.315 236.293C119.104 236.669 126.892 236.819 134.681 236.894C134.908 236.894 135.135 237.12 135.135 237.345C135.135 237.57 134.908 237.795 134.681 237.795C126.892 238.02 119.028 238.02 111.239 237.87C103.45 237.645 95.5855 237.27 87.7966 236.669C80.0077 235.993 72.2189 235.092 64.5056 233.966L58.6827 233.065L52.8605 232.089C50.97 231.713 49.0034 231.338 47.1129 230.887C45.2224 230.361 43.3319 229.836 41.4414 229.16C41.2145 229.085 41.0637 228.784 41.1393 228.559C41.3662 228.259 41.5173 228.184 41.7442 228.184Z" fill="black"/>
<path d="M23.8975 243.428C28.5103 245.831 33.1233 247.934 38.0387 249.586C42.8784 251.238 47.9453 252.364 53.0875 253.19C63.2963 254.767 73.7321 254.992 84.2434 255.518C94.6791 256.044 105.115 257.245 115.475 258.146C125.835 259.047 136.27 259.573 146.631 258.597C146.857 258.597 147.084 258.747 147.159 259.047C147.159 259.273 147.008 259.498 146.781 259.573C136.345 260.774 125.834 260.474 115.399 259.798C104.963 259.047 94.603 257.996 84.1673 257.621C73.7317 257.17 63.2204 256.945 52.7847 255.368C47.5669 254.617 42.3495 253.416 37.3585 251.764C32.3676 250.036 27.5276 247.634 23.444 244.254C23.2172 244.104 23.2175 243.804 23.3687 243.579C23.4443 243.429 23.7462 243.353 23.8975 243.428Z" fill="black"/>
<path d="M12.5525 269.409C18.3753 270.159 24.1986 270.985 30.0214 271.962C35.8441 272.938 41.6669 273.914 47.4141 275.191C50.2877 275.791 53.2365 276.542 56.0344 277.218C58.908 277.969 61.7066 278.645 64.5801 279.321C70.3273 280.672 76.0743 281.874 81.8215 282.775C87.6443 283.676 93.4668 284.277 99.2896 284.502C105.112 284.727 111.011 284.577 116.834 284.126C128.555 283.3 140.125 281.048 151.544 278.269C151.771 278.194 152.073 278.345 152.149 278.645C152.224 278.87 152.073 279.17 151.846 279.246C140.427 282.249 128.857 284.727 117.06 285.779C111.162 286.304 105.264 286.454 99.2896 286.379C93.3912 286.229 87.4176 285.703 81.5948 284.802C75.6964 283.901 69.9492 282.775 64.202 281.423C61.3285 280.747 58.4546 280.072 55.581 279.321C52.7074 278.57 49.9096 277.894 47.036 277.293C41.2888 276.092 35.4657 275.116 29.7186 274.14C23.8958 273.163 18.0734 272.037 12.4019 270.235C12.175 270.16 12.0235 269.859 12.0991 269.634C12.0991 269.484 12.3257 269.409 12.5525 269.409Z" fill="black"/>
<path d="M15.2013 290.735C21.0241 291.411 26.6963 292.462 32.4434 293.738L49.4581 297.493C60.8012 299.971 72.2193 302.374 83.6381 304.176C95.0568 305.978 106.627 307.105 118.273 307.33C129.843 307.555 141.488 306.879 152.982 305.377C153.209 305.377 153.512 305.528 153.512 305.753C153.512 305.978 153.361 306.204 153.134 306.279C141.639 308.006 129.919 308.982 118.273 308.982C106.552 308.907 94.906 307.931 83.336 306.203C71.7661 304.476 60.347 302.149 49.0039 299.671L31.9893 295.916C29.1157 295.316 26.3176 294.64 23.5196 293.964C20.7216 293.288 17.8484 292.537 15.126 291.636C14.8992 291.561 14.7476 291.261 14.8232 291.035C14.8232 290.81 15.0501 290.66 15.2013 290.735Z" fill="black"/>
<path d="M27.4505 322.722C29.8704 323.773 32.2145 324.824 34.4831 326.026C36.9029 327.077 39.2475 328.129 41.5917 329.18L48.851 331.958L56.2624 334.286C66.2443 337.064 76.5284 338.641 86.9641 339.392C97.3241 340.143 107.76 340.068 118.195 339.467C128.631 338.867 138.991 337.815 149.351 336.464C149.578 336.464 149.881 336.614 149.881 336.839C149.881 337.064 149.729 337.29 149.502 337.365C139.142 338.942 128.782 340.293 118.347 341.044C107.911 341.795 97.4 342.02 86.8887 341.345C76.3775 340.669 65.9417 339.092 55.7329 336.313L48.1708 333.986L40.7602 331.132C38.3403 330.006 35.9958 328.879 33.6515 327.678C31.3829 326.326 29.1901 324.9 26.9971 323.398C26.7702 323.248 26.7698 322.947 26.921 322.722C26.9966 322.647 27.2236 322.647 27.4505 322.722Z" fill="black"/>
<path d="M64.2048 361.922C66.7759 361.772 69.3467 362.072 71.8422 362.598C74.3376 363.123 76.8334 363.649 79.3289 364.175C84.3198 365.301 89.2345 366.427 94.2255 367.403C99.2164 368.379 104.208 369.13 109.199 369.356C114.265 369.656 119.256 369.356 124.323 368.68C124.55 368.605 124.852 368.83 124.852 369.055C124.852 369.281 124.7 369.506 124.474 369.581C119.483 370.632 114.265 371.083 109.199 371.008C104.057 370.933 98.9144 370.332 93.9234 369.431C88.8569 368.53 83.9417 367.403 78.9508 366.352C76.4553 365.826 73.9595 365.301 71.4641 364.85C70.2541 364.625 68.9683 364.325 67.7584 364.024C66.5485 363.724 65.3387 363.348 64.1288 362.898C63.9019 362.823 63.7511 362.523 63.8267 362.297C63.9023 362.072 64.0536 361.922 64.2048 361.922Z" fill="black"/>
<path d="M85.3777 394.506C85.907 394.431 86.3603 394.431 86.8141 394.506C87.2678 394.581 87.646 394.731 88.0998 394.881C88.9316 395.182 89.7633 395.482 90.5951 395.707C92.2588 396.233 93.9982 396.683 95.6619 397.059C97.4012 397.434 99.1408 397.66 100.88 397.885C102.619 398.11 104.434 398.185 106.174 398.336C106.4 398.336 106.627 398.561 106.627 398.861C106.627 399.086 106.4 399.312 106.249 399.312C104.434 399.537 102.619 399.612 100.804 399.612C98.9891 399.612 97.1743 399.387 95.2838 399.162C93.4689 398.861 91.6543 398.486 89.915 397.96C89.0075 397.66 88.1757 397.434 87.2682 397.059C86.4364 396.759 85.6046 396.308 84.9996 395.407C84.8483 395.182 84.8478 394.806 85.1502 394.656C85.2259 394.581 85.3021 394.581 85.3777 394.506Z" fill="black"/>
<path d="M262.555 215.494C265.505 215.794 268.302 216.545 271.1 217.371C273.898 218.197 276.696 219.023 279.494 219.849C285.09 221.426 290.762 222.853 296.433 223.679C302.105 224.58 307.928 224.955 313.751 224.88C319.574 224.805 325.321 224.279 331.144 223.679C331.37 223.679 331.672 223.829 331.672 224.054C331.672 224.279 331.521 224.505 331.294 224.58C325.547 225.556 319.649 226.232 313.826 226.532C307.928 226.757 302.029 226.532 296.207 225.781C290.384 224.955 284.637 223.528 278.965 222.026C276.167 221.276 273.294 220.45 270.496 219.624C267.698 218.798 264.9 217.821 262.329 216.47C262.102 216.32 262.026 216.094 262.101 215.794C262.177 215.569 262.329 215.494 262.555 215.494Z" fill="black"/>
<path d="M259.154 223.904C260.818 224.129 262.481 224.505 264.069 224.955C265.657 225.406 267.321 225.856 268.909 226.382L273.673 227.884L278.437 229.31C284.865 231.112 291.293 232.689 297.872 233.891C304.375 235.167 311.029 235.993 317.684 236.293C324.339 236.669 330.993 236.444 337.648 235.843C337.875 235.843 338.102 235.993 338.178 236.293C338.178 236.519 338.026 236.744 337.799 236.819C331.145 237.795 324.414 238.171 317.684 238.021C310.954 237.871 304.223 237.119 297.644 235.993C290.99 234.867 284.487 233.29 277.983 231.488L273.144 230.136L268.304 228.71C265.128 227.733 261.952 226.532 258.927 224.955C258.7 224.805 258.624 224.579 258.7 224.279C258.776 223.979 258.927 223.904 259.154 223.904Z" fill="black"/>
<path d="M246.599 261.373C248.641 261.223 250.683 261.298 252.725 261.373C254.766 261.448 256.808 261.673 258.774 261.899C262.782 262.349 266.866 262.875 270.873 263.325C278.889 264.301 286.98 265.353 294.996 265.953C303.012 266.629 311.103 266.93 319.195 266.479C327.21 266.029 335.226 264.752 343.015 262.424C343.242 262.349 343.545 262.499 343.621 262.725C343.696 262.95 343.545 263.25 343.318 263.325C335.605 266.028 327.513 267.455 319.346 268.131C311.179 268.732 303.012 268.582 294.921 268.056C286.829 267.455 278.738 266.479 270.647 265.578C266.639 265.127 262.555 264.602 258.547 264.226C256.506 264.001 254.54 263.776 252.498 263.476C250.456 263.175 248.49 262.875 246.523 262.424C246.297 262.349 246.145 262.124 246.145 261.823C246.145 261.523 246.372 261.373 246.599 261.373Z" fill="black"/>
<path d="M244.86 276.39C246.977 276.39 249.019 276.465 251.136 276.615C253.254 276.765 255.296 276.915 257.338 277.141L263.539 277.741L269.74 278.192C278.058 278.717 286.376 278.868 294.695 278.642C303.013 278.492 311.331 277.891 319.573 276.99C327.816 276.089 336.059 274.813 344.301 273.386C344.528 273.311 344.831 273.536 344.831 273.761C344.907 273.987 344.68 274.212 344.453 274.287C336.286 276.089 328.043 277.516 319.725 278.642C311.406 279.694 303.088 280.444 294.695 280.745C286.301 281.045 277.907 280.895 269.588 280.445L263.312 279.994L257.035 279.468C254.918 279.243 252.876 279.018 250.834 278.642C248.793 278.267 246.675 277.891 244.709 277.366C244.482 277.291 244.331 277.065 244.407 276.765C244.482 276.54 244.633 276.39 244.86 276.39Z" fill="black"/>
<path d="M243.348 308.005C245.616 308.005 247.809 308.155 250.002 308.381C252.195 308.531 254.388 308.832 256.581 309.057L263.161 309.882L269.74 310.559C278.512 311.46 287.359 312.135 296.131 312.361C304.979 312.661 313.751 312.511 322.598 311.835C331.37 311.159 340.143 309.883 348.763 307.93C348.99 307.855 349.293 308.006 349.293 308.306C349.368 308.531 349.217 308.831 348.99 308.831C340.445 311.159 331.597 312.586 322.75 313.487C313.902 314.313 304.979 314.613 296.131 314.463C287.208 314.238 278.361 313.637 269.513 312.811L262.858 312.135L256.279 311.384C251.893 310.859 247.507 310.183 243.196 308.982C242.97 308.907 242.819 308.681 242.894 308.381C242.894 308.155 243.121 308.005 243.348 308.005Z" fill="black"/>
<path d="M244.029 320.467C246.298 320.543 248.491 320.693 250.759 320.918C253.028 321.068 255.221 321.369 257.414 321.594L264.069 322.27L270.723 322.87C279.646 323.546 288.57 323.772 297.569 323.697C306.492 323.621 315.491 323.171 324.338 322.345C333.262 321.519 342.109 320.317 350.956 318.816C351.183 318.741 351.486 318.966 351.486 319.191C351.561 319.416 351.334 319.641 351.108 319.717C342.336 321.519 333.412 322.945 324.489 323.922C315.566 324.898 306.567 325.498 297.569 325.649C288.57 325.799 279.571 325.574 270.572 324.973L263.842 324.447L257.112 323.771C254.843 323.471 252.65 323.171 250.457 322.795C248.264 322.345 246.071 321.894 243.878 321.294C243.651 321.218 243.5 320.993 243.575 320.693C243.575 320.618 243.803 320.467 244.029 320.467Z" fill="black"/>
<path d="M247.206 353.657C251.441 353.131 255.675 352.906 259.985 352.681L272.766 352.155C281.311 351.78 289.856 351.554 298.477 351.93C307.022 352.305 315.491 352.831 324.036 353.131C332.506 353.432 341.051 353.432 349.52 352.681C349.747 352.681 349.974 352.831 350.05 353.131C350.05 353.356 349.899 353.582 349.672 353.657C341.202 354.708 332.581 354.858 324.036 354.783C315.491 354.633 306.946 354.183 298.477 353.957C290.007 353.657 281.462 353.882 272.992 354.333L260.212 354.933C255.977 355.083 251.667 355.083 247.357 354.558C247.13 354.558 246.903 354.258 246.979 354.032C246.827 353.807 247.055 353.657 247.206 353.657Z" fill="black"/>
<path d="M249.097 365.524C251.139 365.374 253.18 365.374 255.222 365.449C257.264 365.524 259.305 365.6 261.347 365.75C265.431 366.05 269.514 366.276 273.598 366.501C281.765 366.951 289.932 367.177 298.099 367.252C306.266 367.402 314.433 367.252 322.6 366.876C330.767 366.501 338.934 365.9 347.026 364.849C347.252 364.849 347.554 364.999 347.554 365.224C347.554 365.449 347.403 365.675 347.176 365.75C339.085 367.102 330.918 367.927 322.751 368.453C314.584 368.979 306.341 369.204 298.174 369.204C290.007 369.204 281.765 368.979 273.598 368.603C269.514 368.378 265.431 368.228 261.347 367.928C257.264 367.627 253.181 367.252 249.097 366.426C248.87 366.351 248.643 366.125 248.719 365.9C248.643 365.75 248.87 365.6 249.097 365.524Z" fill="black"/>
<path d="M264.068 392.48C266.79 391.879 269.512 391.729 272.31 391.729L280.553 391.729L297.038 391.88C302.559 391.955 308.003 392.03 313.523 392.105C318.968 392.18 324.489 392.18 329.933 392.105C330.16 392.105 330.387 392.33 330.387 392.555C330.387 392.781 330.16 393.006 329.933 393.006C324.413 393.381 318.968 393.531 313.448 393.682C307.928 393.757 302.483 393.832 296.963 393.907L280.478 393.907L272.235 393.982C270.874 393.982 269.512 393.982 268.151 393.907C266.79 393.832 265.429 393.682 264.068 393.456C263.841 393.381 263.614 393.156 263.69 392.931C263.766 392.63 263.917 392.48 264.068 392.48Z" fill="black"/>
<path d="M270.722 400.814C271.781 400.664 272.84 400.589 273.899 400.589C274.957 400.589 276.016 400.664 276.999 400.739L283.2 401.265L295.677 402.241L320.632 404.043C320.859 404.043 321.086 404.268 321.086 404.569C321.086 404.794 320.859 405.019 320.632 405.019C316.473 405.019 312.314 404.944 308.155 404.794C303.996 404.644 299.837 404.494 295.677 404.268C291.518 404.043 287.359 403.818 283.2 403.518L276.924 402.992C274.882 402.842 272.764 402.542 270.722 401.791C270.496 401.716 270.344 401.415 270.42 401.19C270.42 400.889 270.571 400.814 270.722 400.814Z" fill="black"/>
</svg>
