<svg width="387" height="429" viewBox="0 0 387 429" fill="none" xmlns="http://www.w3.org/2000/svg">
<path d="M280.509 114.368C279.98 115.344 279.602 116.246 279.148 117.072C278.921 117.522 278.694 117.898 278.468 118.348L277.636 119.625L274.157 125.031C271.888 128.635 269.544 132.24 267.2 135.844C262.511 142.978 257.672 150.111 252.681 157.095C247.69 164.078 242.472 170.911 237.027 177.594C234.305 180.898 231.507 184.202 228.633 187.431L220.012 197.043C196.948 222.499 173.128 247.278 149.231 271.833C125.26 296.463 101.137 320.867 77.3918 345.572C65.6706 358.112 52.4372 369.3 41.3966 382.291C35.8763 388.749 30.961 395.732 27.4068 403.467C25.6675 407.296 24.3061 411.351 23.3987 415.406C22.9449 417.433 22.6426 419.536 22.4157 421.638C22.2645 422.765 22.1133 423.741 22.0376 424.792C22.0376 425.318 21.962 425.844 22.0376 426.219C22.0376 426.294 22.0376 426.444 22.0376 426.444C22.0376 426.369 21.9618 426.294 21.8106 426.219C21.5837 426.144 21.8106 426.219 21.8106 426.219L21.9619 426.294L22.2644 426.369C24.0793 426.67 26.1211 426.069 28.0116 425.318C29.9021 424.492 31.7169 423.441 33.5318 422.314C37.0859 419.987 40.4135 417.358 43.6652 414.58C50.093 408.948 56.1425 402.941 62.0409 396.633C67.8637 390.401 73.5352 383.943 78.9799 377.335C84.4246 370.727 89.7938 364.044 94.6335 356.986C104.464 342.944 115.202 329.503 126.319 316.362C131.839 309.829 137.511 303.296 143.106 296.838C148.778 290.38 154.374 283.923 160.196 277.615C171.842 265 183.866 252.685 195.587 240.22C207.308 227.755 218.954 215.065 229.919 201.924C240.96 188.783 251.471 175.192 260.545 160.699C265.083 153.415 269.242 145.981 272.72 138.172L274.006 135.243L275.14 132.24C275.518 131.264 275.896 130.287 276.274 129.236L277.258 126.233C277.938 124.205 278.392 122.103 278.921 120.075C279.223 119.024 279.299 118.123 279.602 117.222C279.904 116.321 280.207 115.344 280.509 114.368ZM280.811 113.467C280.736 114.518 280.66 115.72 280.509 116.921C280.358 118.123 280.207 119.324 279.904 120.3C279.375 122.403 278.921 124.506 278.24 126.533L277.258 129.612C276.955 130.663 276.501 131.639 276.123 132.615L274.989 135.619L273.703 138.547C270.225 146.432 266.065 153.941 261.528 161.225C252.454 175.792 241.942 189.459 230.977 202.675C220.012 215.891 208.443 228.581 196.721 241.121C185 253.661 173.052 265.976 161.482 278.591C155.659 284.899 150.063 291.357 144.392 297.814C138.72 304.272 133.125 310.73 127.604 317.338C116.564 330.479 105.901 343.845 96.0702 357.887C94.8603 359.614 93.6504 361.416 92.3649 363.143C91.0793 364.87 89.7937 366.597 88.5082 368.324C85.8614 371.703 83.1389 375.082 80.4166 378.386C74.8963 384.994 69.3004 391.452 63.4019 397.76C57.5035 404.067 51.4539 410.15 44.9506 415.857C41.6989 418.71 38.2959 421.413 34.6661 423.741C32.8512 424.943 30.8853 425.994 28.8435 426.895C27.7848 427.345 26.7259 427.721 25.5916 427.946C24.4573 428.171 23.2476 428.322 22.0376 428.096L21.5838 428.021L21.3571 427.946C21.2059 427.871 21.3571 427.946 20.979 427.796C20.6765 427.646 20.5252 427.42 20.4495 427.27C20.3739 427.12 20.2981 426.97 20.2981 426.895C20.2225 426.67 20.2228 426.519 20.2228 426.369C20.1472 425.693 20.2228 425.168 20.2228 424.642C20.2984 423.516 20.4497 422.389 20.6009 421.413C20.8278 419.236 21.1301 417.058 21.5838 414.955C22.4913 410.675 23.928 406.545 25.6673 402.641C29.2971 394.756 34.3639 387.623 39.8842 381.015C51.0761 367.799 64.2338 356.685 75.9551 344.22C99.7 319.44 123.823 294.961 147.719 270.331C171.615 245.702 195.36 220.922 218.349 195.466L226.97 185.93C229.768 182.701 232.641 179.472 235.288 176.168C240.733 169.56 245.95 162.802 251.017 155.893C256.084 148.985 260.999 142.002 265.839 134.868C268.259 131.339 270.678 127.81 273.023 124.205L276.577 118.874L277.56 117.447C277.862 116.921 278.24 116.471 278.619 116.02L280.811 113.467Z" fill="black"/>
<path d="M35.1967 386.724C37.6165 366.449 41.3219 346.4 45.7835 326.501C46.9178 321.545 48.1276 316.589 49.4132 311.633C50.6987 306.677 52.0602 301.797 53.497 296.841C54.9338 291.96 56.4459 287.079 58.1095 282.198C59.7732 277.392 61.5882 272.586 63.5544 267.856C65.5961 263.125 67.7891 258.469 70.3602 254.039C70.9652 252.913 71.7215 251.861 72.4021 250.735C73.1583 249.684 73.8389 248.557 74.6707 247.506L75.9561 246.004C76.4098 245.479 76.788 244.953 77.2418 244.502L78.6785 243.076C78.9053 242.85 79.1321 242.625 79.359 242.4L80.1152 241.799C84.1231 238.345 88.7359 235.792 93.2731 233.464C97.886 231.136 102.499 229.034 106.734 226.331L107.566 225.805L108.322 225.279L109.834 224.228C110.364 223.853 110.817 223.477 111.271 223.102C111.725 222.726 112.254 222.351 112.708 221.9C114.523 220.173 116.186 218.371 117.547 216.344C120.345 212.289 122.311 207.633 123.899 202.827C125.487 198.021 126.849 193.141 128.512 188.26C130.176 183.379 132.218 178.573 135.243 174.293C136.831 172.19 138.494 170.163 140.687 168.511C142.88 166.859 145.376 165.808 147.871 164.982C152.862 163.405 158.004 162.654 162.844 161.377C167.684 160.026 172.448 158.223 176.229 155.07C180.161 152.066 183.035 147.861 185.303 143.431C189.841 134.495 191.882 124.358 196.495 115.046C198.764 110.391 201.865 106.036 205.872 102.581C207.914 100.929 210.183 99.3525 212.678 98.4514C215.174 97.4753 217.745 96.7994 220.316 96.424C225.533 95.6731 230.676 95.6731 235.667 94.9973C238.162 94.6218 240.582 94.1713 242.926 93.3453C245.195 92.5944 247.312 91.2427 249.203 89.6658C252.984 86.4369 256.084 82.4571 259.034 78.3272C261.983 74.1972 264.63 69.8419 267.503 65.5618C268.94 63.4593 270.377 61.2816 271.965 59.2542C273.553 57.2267 275.216 55.1993 277.182 53.3971C279.149 51.595 281.493 50.0931 284.291 49.4924C284.971 49.2672 285.728 49.3422 286.408 49.2672C286.786 49.2672 287.089 49.3422 287.467 49.3422C287.845 49.4173 288.147 49.4173 288.526 49.4924C289.887 49.8679 291.097 50.3935 292.307 50.9942C294.651 52.1957 296.844 53.9228 298.508 56.0253C300.171 58.1278 301.305 60.6058 302.137 63.0838C303.65 68.1149 303.952 73.2961 304.557 78.3272C305.162 83.3582 305.918 88.3893 308.414 92.5944C308.716 93.12 309.019 93.6456 309.397 94.0962L309.926 94.8471L310.531 95.5229C311.363 96.424 312.27 97.1749 313.329 97.8507C315.371 99.2023 317.715 100.103 320.059 100.929C322.479 101.755 324.899 102.581 327.319 103.558C329.739 104.534 332.158 105.81 334.125 107.763C335.108 108.739 335.94 109.865 336.545 111.067C337.15 112.268 337.603 113.545 337.906 114.821C338.586 117.449 338.586 120.153 338.133 122.781C337.679 125.409 336.771 127.887 335.713 130.29C334.654 132.693 333.369 134.87 332.007 137.123C329.285 141.478 326.26 145.608 323.613 149.888C322.328 152.066 321.042 154.244 320.135 156.496C319.681 157.623 319.303 158.824 318.925 160.026L318.547 161.828L318.396 162.729C318.32 163.029 318.32 163.33 318.32 163.63C317.715 168.586 318.093 173.617 318.622 178.648C319.152 183.679 319.908 188.785 319.832 193.967L319.757 195.919C319.681 196.595 319.606 197.195 319.606 197.871C319.53 199.148 319.227 200.424 319 201.701C318.849 202.377 318.623 202.977 318.471 203.578C318.245 204.179 318.169 204.855 317.866 205.455C317.337 206.657 316.883 207.933 316.278 209.06C313.859 213.64 310.607 217.92 306.296 220.999C302.062 224.153 297.071 226.03 292.155 227.457C287.24 228.959 282.249 230.16 277.712 232.338C275.443 233.389 273.25 234.666 271.36 236.242C270.376 237.068 269.469 237.819 268.713 238.796C267.957 239.772 267.276 240.748 266.747 241.874C265.688 244.052 265.083 246.455 264.705 248.933C264.327 251.411 264.176 253.889 264.025 256.442C263.722 261.473 263.646 266.729 261.983 271.76C261.605 273.037 261.075 274.238 260.395 275.44C259.714 276.566 258.958 277.692 258.126 278.669C256.462 280.696 254.421 282.423 252.152 283.85C247.69 286.703 242.699 288.355 237.784 289.857C232.869 291.359 227.954 292.786 223.643 295.339C221.526 296.615 219.484 298.117 217.896 299.919C216.308 301.797 215.174 303.974 214.342 306.302C212.602 310.958 211.771 316.064 209.956 320.945C208.217 325.825 206.023 330.481 203.377 334.911C198.008 343.697 190.899 351.506 182.279 357.213L180.615 358.265L178.876 359.166C178.346 359.466 177.742 359.766 177.137 360.067L175.397 360.893C172.977 361.869 170.557 362.845 168.137 363.521C163.222 365.023 158.156 366.074 153.089 367.05C148.022 368.026 143.032 368.927 138.116 370.204C133.125 371.48 128.21 372.907 123.37 374.334C113.54 377.262 103.86 380.566 94.2564 384.021C84.6526 387.475 75.0486 391.229 65.7473 395.359C65.5204 395.434 65.2181 395.359 65.1425 395.134C65.0668 394.909 65.1423 394.608 65.3692 394.533C74.7461 390.328 84.2746 386.574 93.954 383.12C103.558 379.59 113.313 376.361 123.143 373.358C128.059 371.856 132.974 370.429 137.965 369.153C142.956 367.876 148.022 366.9 153.013 365.924C158.004 364.948 163.071 363.896 167.911 362.395C170.331 361.644 172.75 360.743 175.019 359.766L176.758 358.94C177.363 358.64 177.893 358.415 178.422 358.114L180.086 357.213L181.674 356.162C190.143 350.53 197.1 342.871 202.318 334.236C204.889 329.88 207.082 325.3 208.746 320.569C210.485 315.838 211.241 310.807 213.056 305.926C213.964 303.524 215.173 301.121 216.913 299.018C218.728 296.991 220.769 295.414 223.038 294.062C227.575 291.434 232.642 289.932 237.482 288.43C242.321 286.929 247.237 285.277 251.396 282.573C255.555 279.87 259.109 276.04 260.546 271.31C262.058 266.579 262.21 261.473 262.436 256.442C262.588 253.889 262.739 251.336 263.117 248.783C263.495 246.23 264.1 243.601 265.31 241.198C265.915 239.997 266.596 238.871 267.503 237.819C268.335 236.768 269.394 235.867 270.377 235.041C272.418 233.389 274.687 232.037 277.031 230.911C281.795 228.658 286.862 227.457 291.702 225.955C296.541 224.528 301.306 222.651 305.313 219.723C309.321 216.794 312.497 212.814 314.766 208.384C315.371 207.258 315.825 206.131 316.278 205.005C316.581 204.479 316.656 203.803 316.883 203.278C317.035 202.677 317.261 202.076 317.337 201.476C317.564 200.274 317.866 199.073 317.942 197.796L318.093 195.919L318.169 194.042C318.245 189.011 317.488 183.98 316.959 178.948C316.354 173.917 315.976 168.736 316.581 163.48C316.656 163.179 316.656 162.804 316.732 162.504L316.959 161.527L317.337 159.575C317.64 158.299 318.093 157.022 318.622 155.821C319.605 153.418 320.891 151.09 322.252 148.912C324.975 144.482 327.924 140.427 330.646 136.072C332.008 133.894 333.217 131.717 334.276 129.464C335.335 127.211 336.167 124.883 336.545 122.405C336.923 120.002 336.923 117.524 336.318 115.197C336.015 114.07 335.637 112.869 335.108 111.818C334.579 110.766 333.898 109.79 333.066 108.964C331.402 107.312 329.21 106.111 326.865 105.134C324.521 104.158 322.101 103.407 319.681 102.581C317.262 101.68 314.766 100.779 312.497 99.2774C311.363 98.5265 310.304 97.7005 309.397 96.7243L308.716 95.9734L308.111 95.1474C307.657 94.6218 307.355 94.0211 307.053 93.4955C305.691 91.1676 304.859 88.6897 304.254 86.1366C303.65 83.5835 303.272 81.0304 302.969 78.4774C302.364 73.3712 302.062 68.3401 300.625 63.6094C299.869 61.2816 298.81 59.0289 297.298 57.1517C295.785 55.2744 293.819 53.7726 291.702 52.6462C290.643 52.1206 289.433 51.595 288.374 51.2946C288.072 51.2195 287.845 51.2195 287.543 51.1444C287.24 51.1444 287.013 51.0693 286.711 51.0693C286.106 51.1444 285.576 51.0693 284.971 51.2195C282.703 51.67 280.585 53.0217 278.771 54.6737C276.956 56.3257 275.292 58.278 273.78 60.2304C272.267 62.2578 270.83 64.2852 269.394 66.4629C266.596 70.6679 263.873 75.0232 260.924 79.2283C257.975 83.4333 254.799 87.5633 250.791 90.9424C248.749 92.5944 246.481 94.0962 243.909 94.9973C241.414 95.8983 238.843 96.3489 236.196 96.7243C231.054 97.4002 225.836 97.4002 220.921 98.1511C218.425 98.5265 216.005 99.1272 213.737 100.028C211.468 100.929 209.426 102.281 207.536 103.858C203.755 107.087 200.881 111.217 198.613 115.647C194.151 124.658 192.109 134.795 187.421 144.106C185.076 148.687 181.976 153.117 177.817 156.421C173.658 159.8 168.667 161.753 163.676 163.104C158.685 164.456 153.543 165.207 148.779 166.709C146.435 167.46 144.166 168.511 142.275 169.938C141.292 170.613 140.461 171.59 139.629 172.416C139.175 172.866 138.797 173.317 138.419 173.842L137.284 175.269C134.411 179.324 132.445 183.98 130.857 188.71C129.193 193.516 127.907 198.397 126.244 203.278C124.58 208.159 122.614 212.964 119.589 217.32C118.152 219.497 116.338 221.45 114.372 223.252C113.918 223.702 113.388 224.078 112.859 224.528C112.33 224.904 111.876 225.354 111.347 225.73L109.759 226.856L108.927 227.382L108.095 227.907C103.709 230.686 99.0203 232.863 94.4831 235.191C89.9459 237.519 85.56 239.997 81.779 243.226L81.0985 243.827C80.8716 244.052 80.6445 244.277 80.4176 244.502L79.1323 245.779C78.6786 246.23 78.3004 246.68 77.9223 247.206L76.7123 248.632C75.9561 249.609 75.2756 250.66 74.595 251.711C73.9145 252.762 73.2338 253.814 72.6288 254.94C70.1334 259.295 67.9405 263.876 65.9744 268.531C62.0421 277.843 58.7901 287.529 55.8409 297.216C52.8917 306.978 50.3964 316.815 48.0521 326.651C45.7079 336.563 43.5905 346.475 41.6244 356.462C39.6583 366.449 37.9191 376.436 36.4823 386.574C36.4823 386.799 36.1797 387.024 35.9529 386.949C35.3479 387.249 35.121 387.024 35.1967 386.724Z" fill="black"/>
<path d="M20.6763 420.739C20.2982 404.97 20.3741 389.126 20.9791 373.357C21.0547 371.404 21.1303 369.377 21.2815 367.424L21.6596 361.492L22.0377 355.56C22.189 353.608 22.3403 351.655 22.4915 349.628L23.5501 337.839L24.9111 326.05C25.138 324.097 25.3649 322.145 25.6674 320.193L26.4993 314.335L27.3312 308.478C27.6336 306.526 27.8603 304.574 28.2384 302.621L30.2803 290.907C30.4315 289.931 30.5829 288.955 30.8098 287.979L31.4146 285.05L32.6246 279.268L33.8346 273.486L34.137 272.06L34.5151 270.633L35.1956 267.779L37.9937 256.291L41.2453 244.877C41.7746 242.999 42.3041 241.047 42.9091 239.17L44.7239 233.538C54.3277 203.352 67.7881 174.367 85.1052 147.785C93.8016 134.494 103.557 121.954 114.143 110.089C119.437 104.157 124.957 98.4503 130.704 92.9687C132.141 91.617 133.578 90.1903 135.015 88.9138C136.452 87.5622 137.888 86.2105 139.401 84.934C142.425 82.3058 145.45 79.7527 148.627 77.3499C151.803 74.947 154.979 72.5441 158.23 70.2913C159.062 69.7657 159.894 69.165 160.726 68.6394C160.953 68.4892 161.179 68.339 161.331 68.2639C161.482 68.1137 161.709 67.9635 161.86 67.8134C162.238 67.513 162.616 67.1375 163.07 66.8372C163.297 66.687 163.524 66.4617 163.977 66.3115C164.204 66.2365 164.658 66.1614 165.112 66.4617C165.565 66.7621 165.641 67.2126 165.641 67.3628C165.717 67.8884 165.793 68.4141 165.793 68.9397C165.793 69.991 165.717 71.1173 165.49 72.0935C165.036 74.121 164.204 76.0733 163.221 77.8004C162.238 79.6026 161.028 81.2546 159.818 82.8315C157.323 85.9853 154.525 88.8387 151.727 91.617C146.055 97.0987 140.535 102.806 135.09 108.512C129.646 114.294 124.428 120.151 119.361 126.234C109.304 138.398 100.002 151.164 92.2135 164.905C84.2733 178.497 77.0896 192.614 70.8887 207.106L69.6787 209.809C69.3006 210.711 68.8469 211.612 68.5444 212.513L66.3515 217.994C64.9147 221.674 63.3264 225.278 61.9652 228.958L57.8818 240.071L54.1008 251.259C52.8152 255.014 51.7565 258.769 50.6221 262.523C49.4878 266.278 48.2781 270.032 47.3706 273.862L44.3458 285.275L41.7748 296.839C40.8673 300.669 40.1867 304.574 39.4304 308.403C38.7499 312.308 37.9179 316.138 37.3885 320.042L35.6494 331.756L34.3637 343.471C32.9269 359.165 32.3977 374.934 33.3051 390.703C33.3051 390.928 33.1538 391.153 32.8513 391.228C32.6244 391.228 32.3978 391.078 32.3222 390.778C31.3391 375.009 31.7925 359.165 33.1537 343.396L34.3637 331.606L36.0275 319.892C36.5569 315.987 37.3131 312.083 37.9937 308.178C38.6743 304.273 39.3549 300.369 40.2623 296.539L42.8334 284.975L45.7825 273.486C46.69 269.657 47.8997 265.902 49.034 262.073C50.1684 258.318 51.2271 254.488 52.5127 250.734L56.218 239.47L60.3018 228.357C61.5874 224.602 63.1752 220.998 64.612 217.319L66.8049 211.837C67.183 210.936 67.5611 210.035 67.9392 209.134L69.1492 206.43C75.4257 191.863 82.6099 177.746 90.55 164.079C98.339 150.263 107.64 137.347 117.773 125.107C122.84 119.025 128.133 113.093 133.578 107.311C139.023 101.529 144.543 95.8221 150.215 90.3405C153.013 87.5622 155.735 84.7838 158.155 81.7051C159.365 80.2033 160.499 78.6264 161.406 76.8993C162.314 75.2473 163.146 73.4451 163.524 71.643C163.751 70.7419 163.826 69.8408 163.751 68.9397C163.751 68.4892 163.675 68.0386 163.599 67.5881C163.599 67.513 163.599 67.6632 163.826 67.8884C164.129 68.1137 164.28 67.9635 164.28 67.9635C164.28 67.9635 164.053 68.0386 163.902 68.1888C163.524 68.4141 163.221 68.7895 162.768 69.0899C162.541 69.2401 162.389 69.3903 162.163 69.6155C161.86 69.8408 161.709 69.9159 161.482 70.0661C160.65 70.5917 159.818 71.1173 159.062 71.643C155.81 73.8957 152.635 76.2235 149.534 78.6264C146.434 81.0293 143.333 83.5824 140.384 86.1354C138.872 87.412 137.435 88.7636 135.998 90.1152C134.561 91.4669 133.124 92.8185 131.688 94.1701C126.016 99.6517 120.571 105.359 115.278 111.216C104.766 123.005 95.1626 135.545 86.4662 148.686C69.3004 175.118 55.9912 203.952 46.463 233.989L44.6482 239.62C44.0432 241.498 43.5894 243.375 42.9844 245.327L39.8085 256.666L37.0104 268.155L36.3299 271.008L35.9518 272.435L35.6494 273.862L34.4394 279.644L33.2294 285.426L32.6246 288.354C32.3977 289.33 32.2463 290.307 32.0951 291.283L30.0536 302.922C29.6755 304.874 29.4485 306.826 29.146 308.779L28.3141 314.636L27.4822 320.493C27.1797 322.445 27.0285 324.398 26.8017 326.35L25.4406 338.064L24.382 349.853C24.2308 351.806 24.0038 353.758 23.8525 355.71L23.4744 361.642C23.2476 365.547 22.9451 369.527 22.7182 373.432L22.1134 385.221L21.962 388.149L21.8863 391.078L21.7353 397.01C21.4328 404.895 21.4327 412.779 21.2815 420.664C21.2815 420.889 21.0546 421.114 20.8277 421.114C20.9033 421.189 20.7519 420.964 20.6763 420.739Z" fill="black"/>
<path d="M20.7522 381.32C18.9373 375.088 17.0467 368.93 15.005 362.698C13.0388 356.54 10.9972 350.308 9.10673 344.075C7.21622 337.843 5.4771 331.535 3.96469 325.228C2.52791 318.845 1.31798 312.462 0.561775 305.929C-0.118808 299.397 -0.194577 292.789 0.410387 286.256L1.0152 281.375L1.54469 278.972L1.8471 277.771L2.2252 276.569L2.98141 274.166L3.889 271.838C4.19148 271.087 4.49374 270.337 4.79622 269.511C5.0987 268.76 5.47703 268.009 5.77951 267.258C8.65308 261.326 12.1317 255.769 15.3078 250.137C18.4838 244.505 21.3573 238.723 22.7941 232.566C23.0966 230.989 23.4748 229.487 23.626 227.91C23.7016 227.084 23.8528 226.334 23.9284 225.508L24.0794 223.105C24.155 222.279 24.1551 221.528 24.1551 220.702L24.1551 218.299C24.0795 216.722 24.0797 215.07 24.0041 213.493C23.7016 207.035 23.021 200.577 22.8698 194.045C22.7185 190.741 22.8697 187.512 23.1722 184.208L23.4746 181.73L23.626 180.528L23.8527 179.327L24.3822 176.924C24.6091 176.098 24.8358 175.347 25.0627 174.521C25.4408 172.869 26.1212 171.367 26.7261 169.79L26.9532 169.19L27.2556 168.664L27.7851 167.538C28.1632 166.787 28.541 166.036 28.9947 165.36C29.4485 164.684 29.9024 163.933 30.3561 163.258L31.8685 161.305C32.3223 160.629 32.9273 160.029 33.4566 159.428C33.986 158.827 34.5907 158.151 35.1201 157.626C39.8085 152.895 45.102 149.065 50.2442 145.011C52.8153 142.983 55.2352 140.956 57.5795 138.703C59.9237 136.45 61.9653 134.047 63.8558 131.494C67.41 126.163 70.1324 120.306 72.2498 114.223C74.4428 108.141 76.1822 101.909 78.0727 95.6761C79.9632 89.4436 82.0803 83.2111 85.0295 77.354C85.4076 76.6031 85.7101 75.8522 86.1638 75.1764L87.3738 72.9987C88.1301 71.572 89.1131 70.2204 90.0206 68.7937C90.2474 68.4182 90.4742 68.1179 90.7011 67.7424L91.4573 66.7662L92.9697 64.8139C93.499 64.2132 94.1042 63.6124 94.7092 63.0117L95.5407 62.1106L96.4483 61.2846C98.8681 58.9568 101.742 57.1546 104.691 55.6528C107.64 54.0759 110.741 52.9496 113.841 51.8983C116.941 50.847 120.117 49.946 123.218 48.8947C126.318 47.9185 129.419 46.9423 132.444 45.7409C144.694 41.3106 156.037 34.8528 167.38 28.4701L175.925 23.6643C178.799 22.0874 181.748 20.5105 184.773 19.234C187.798 17.9574 190.974 16.8311 194.301 16.3054C197.628 15.7798 201.183 15.93 204.359 17.4318C205.947 18.1827 207.308 19.234 208.518 20.5105C209.728 21.787 210.56 23.2137 211.467 24.6405C211.845 25.3914 212.299 26.1423 212.601 26.8932L213.055 28.0946L213.357 29.3712C213.736 31.0232 213.811 32.8253 213.508 34.4773C213.206 36.1293 212.677 37.7813 212.072 39.2831L210.181 43.7885C208.971 46.7171 207.913 49.7958 207.61 52.9496C207.308 56.1034 207.837 59.1821 209.123 62.1106C210.333 65.0392 212.072 67.8175 213.282 70.9713C213.887 72.5482 214.265 74.2002 214.265 75.9273C214.34 77.6544 214.038 79.3063 213.508 80.9583C212.979 82.5352 212.299 84.1121 211.467 85.5389C211.013 86.2147 210.635 86.9656 210.181 87.6414L208.745 89.6688C206.703 92.297 204.207 94.5497 201.561 96.5021C198.914 98.4544 196.116 100.182 193.394 101.984C190.671 103.786 188.025 105.588 185.605 107.691L183.866 109.343C183.336 109.943 182.731 110.469 182.202 111.07C181.143 112.196 180.463 113.548 180.009 115.049C179.177 118.053 179.101 121.357 179.177 124.511C179.253 127.74 179.555 130.969 179.857 134.197C180.16 137.426 180.462 140.655 180.614 143.959C180.689 145.611 180.689 147.263 180.614 148.84C180.538 150.492 180.311 152.144 179.782 153.721C179.706 153.946 179.404 154.096 179.177 154.021C178.95 153.946 178.799 153.646 178.875 153.421C179.328 151.919 179.555 150.342 179.631 148.765C179.706 147.188 179.706 145.536 179.631 143.959C179.479 140.73 179.177 137.501 178.875 134.273C178.572 131.044 178.27 127.815 178.194 124.511C178.118 121.282 178.194 117.903 179.026 114.674C179.253 113.848 179.555 113.097 179.933 112.271C180.16 111.896 180.387 111.52 180.614 111.145C180.916 110.769 181.143 110.469 181.446 110.169C182.051 109.568 182.58 108.967 183.185 108.366L185 106.714C187.495 104.537 190.218 102.659 192.94 100.857C195.662 99.0551 198.46 97.3281 201.031 95.3757C203.602 93.4234 205.947 91.2457 207.913 88.6926L209.274 86.7403C209.728 86.0645 210.106 85.3887 210.484 84.7129C211.24 83.3612 211.92 81.8594 212.374 80.4327C212.828 78.9309 213.055 77.4291 212.979 75.8522C212.904 74.2753 212.601 72.7735 211.996 71.3468C210.862 68.4182 209.123 65.6399 207.837 62.5612C207.156 61.0594 206.627 59.4074 206.4 57.7554C206.098 56.1034 206.022 54.3763 206.249 52.7243C206.627 49.3452 207.686 46.1914 208.896 43.1878C210.106 40.1091 211.618 37.2557 212.072 34.177C212.677 31.1733 211.769 28.0946 210.181 25.3914C209.349 24.0397 208.518 22.6881 207.459 21.5618C206.4 20.4354 205.19 19.5343 203.829 18.8585C201.031 17.5069 197.855 17.4318 194.679 17.8823C191.579 18.408 188.478 19.4592 185.529 20.6607C179.631 23.2137 174.035 26.6679 168.363 29.8217C157.02 36.2795 145.526 42.7373 133.2 47.2427C130.099 48.4442 126.999 49.4203 123.898 50.3965C120.798 51.3727 117.622 52.3489 114.597 53.4001C108.472 55.4276 102.498 58.1308 97.8093 62.4861L96.9021 63.3121L96.0702 64.2132C95.5408 64.8139 94.9357 65.3395 94.4064 65.9402L92.894 67.8175L92.1378 68.7186C91.9109 69.0189 91.6841 69.3944 91.4573 69.6948C90.5498 71.0464 89.6425 72.3229 88.8863 73.7496L87.6763 75.8522C87.2981 76.528 86.9201 77.2789 86.6176 78.0298C83.7441 83.8118 81.7023 89.8941 79.8118 96.1266C77.9213 102.284 76.1819 108.592 73.9889 114.749C71.7959 120.906 69.0736 126.989 65.3682 132.47C63.4777 135.174 61.2847 137.727 58.8648 139.979C56.445 142.232 53.9496 144.41 51.3785 146.437C46.2363 150.492 40.9431 154.322 36.4815 158.902C35.8765 159.428 35.347 160.029 34.8177 160.629C34.2883 161.23 33.759 161.831 33.3053 162.432L31.8685 164.309C31.4148 164.985 31.0366 165.66 30.5828 166.336C30.1291 167.012 29.8266 167.688 29.4485 168.439L28.9194 169.49L28.6166 170.016L28.3899 170.541C27.8606 172.043 27.1799 173.47 26.8018 175.047C26.575 175.798 26.3482 176.549 26.1213 177.375L25.6675 179.702L25.4408 180.904L25.2894 182.105L24.987 184.508C24.7602 187.662 24.6091 190.891 24.7603 194.12C24.9115 200.577 25.5921 207.035 25.8946 213.568C25.9702 215.22 25.97 216.872 26.0456 218.449L26.0456 220.927C26.0456 221.753 26.0456 222.579 25.9699 223.405L25.8189 225.883C25.7433 226.709 25.6677 227.535 25.5165 228.361C25.3653 230.013 24.9871 231.665 24.6846 233.242C23.0966 239.7 20.2229 245.707 16.9712 251.414C13.7195 257.121 10.3166 262.602 7.51863 268.384C4.7963 274.166 2.90601 280.249 2.45228 286.706C1.84732 293.089 1.92272 299.547 2.6033 305.929C3.35951 312.312 4.41842 318.695 5.8552 325.002C7.29199 331.31 9.03126 337.543 10.7705 343.775C12.5854 350.008 14.4758 356.24 16.2907 362.473C18.1056 368.705 19.9203 374.938 21.4327 381.32C21.5083 381.546 21.3571 381.846 21.0546 381.846C21.0546 381.696 20.8278 381.546 20.7522 381.32Z" fill="black"/>
<path d="M51.9075 407.974C60.6039 405.646 69.3003 403.543 78.0724 401.366C86.8444 399.263 95.5405 397.161 104.237 394.908C112.933 392.655 121.554 390.327 130.099 387.624L136.451 385.521C138.569 384.771 140.686 384.095 142.804 383.344C147.038 381.842 151.197 380.19 155.357 378.613C172.069 372.155 188.781 365.547 204.737 357.438C212.753 353.458 220.466 348.952 227.953 344.147L233.473 340.392L234.834 339.416L236.195 338.44L238.842 336.412L241.489 334.385L242.85 333.409L244.135 332.357L249.278 328.077L250.563 327.026L251.773 325.9L254.193 323.647L256.613 321.394C257.445 320.643 258.277 319.892 259.033 319.066L263.722 314.261C264.478 313.435 265.309 312.684 266.065 311.858L268.334 309.38L272.796 304.424C274.233 302.772 275.669 300.97 277.106 299.318C278.543 297.59 279.98 295.863 281.341 294.136L285.424 288.805C296.314 274.688 305.54 259.369 313.48 243.375C321.42 227.381 328.075 210.861 334.276 194.116L343.728 169.036L348.341 156.42L348.87 154.843L349.022 154.468C347.434 154.318 351.29 154.168 350.912 154.768L350.912 154.994L350.836 155.82L350.61 159.199C350.534 160.325 350.383 161.451 350.232 162.578L349.854 165.957C348.568 174.893 346.375 183.603 343.653 192.163C340.93 200.724 337.754 209.059 334.276 217.319C330.797 225.579 327.167 233.764 323.537 241.873L317.941 254.038C315.9 258.018 313.934 262.073 311.892 266.052C303.498 281.897 293.743 297.065 282.551 311.107C281.87 312.008 281.19 312.909 280.433 313.735L278.24 316.288L273.855 321.394L269.242 326.35L266.973 328.828L264.553 331.156L259.713 335.887C258.05 337.388 256.386 338.89 254.722 340.392L252.227 342.645C251.395 343.396 250.488 344.072 249.656 344.822L244.438 349.103C242.623 350.454 240.808 351.806 239.069 353.157L236.347 355.185L233.549 357.062L227.953 360.892L222.205 364.421L219.332 366.223L216.383 367.875C214.417 369.002 212.45 370.128 210.484 371.179L204.51 374.258C203.527 374.784 202.544 375.309 201.485 375.76L198.461 377.186C196.419 378.163 194.377 379.139 192.335 380.04L186.134 382.668C185.076 383.119 184.093 383.569 183.034 383.945L179.858 385.146C177.74 385.972 175.699 386.798 173.581 387.549L167.229 389.802L164.053 390.928L160.877 391.979L154.449 394.082L147.946 396.034C130.704 401.14 113.16 405.045 95.4651 408.499C77.8455 411.953 60.0744 414.807 42.3035 417.51C42.0766 417.585 41.7744 417.36 41.7744 417.135C41.6987 416.909 41.9256 416.609 42.1525 416.609C59.9234 413.906 77.6184 410.902 95.2381 407.448C112.858 403.919 130.326 399.939 147.568 394.833L153.996 392.88L160.348 390.778L163.524 389.727L166.7 388.6L173.052 386.347C175.169 385.521 177.211 384.695 179.329 383.869L182.429 382.668C183.488 382.293 184.471 381.767 185.529 381.392L191.73 378.763C193.772 377.862 195.814 376.886 197.78 375.91L200.805 374.483C201.788 374.033 202.771 373.432 203.754 372.981L209.728 369.903C211.694 368.851 213.585 367.725 215.551 366.599L218.5 364.947L221.374 363.145L227.045 359.615L232.566 355.861L235.364 353.983L238.01 351.956C239.825 350.604 241.564 349.328 243.379 347.901L248.522 343.621C249.353 342.87 250.261 342.194 251.093 341.518L253.588 339.266C255.252 337.764 256.915 336.262 258.579 334.76L263.343 330.105L265.687 327.777L267.956 325.299L272.493 320.418L276.804 315.312L278.997 312.759C279.753 311.933 280.358 311.032 281.114 310.131C292.231 296.164 301.834 281.071 310.228 265.302C312.27 261.322 314.236 257.342 316.278 253.362L321.874 241.198C325.504 233.013 329.134 224.903 332.536 216.643C335.939 208.383 339.115 200.123 341.838 191.638C344.484 183.153 346.677 174.517 347.963 165.732L348.341 162.428C348.492 161.301 348.644 160.25 348.644 159.124L348.87 155.82L348.946 154.994L348.946 154.768C348.568 155.069 352.273 155.294 350.685 155.144L350.534 155.519L349.929 157.096L345.392 169.711L336.015 194.792C329.814 211.537 323.159 228.207 315.219 244.276C307.203 260.346 297.978 275.814 287.013 290.006L282.929 295.338C281.568 297.14 280.055 298.792 278.694 300.519C277.257 302.246 275.896 303.973 274.384 305.7L269.922 310.731L267.654 313.209C266.897 314.035 266.065 314.861 265.309 315.612L260.621 320.418C259.865 321.244 259.033 321.995 258.201 322.746L255.706 325.074L253.21 327.401L252 328.528L250.715 329.579L245.573 333.934L244.287 334.986L242.926 336.037L240.203 338.064L237.481 340.092L236.12 341.143L234.759 342.119L229.163 345.949C221.601 350.83 213.812 355.41 205.72 359.39C189.689 367.575 172.901 374.183 156.189 380.716C152.029 382.293 147.794 383.945 143.56 385.446C141.442 386.197 139.325 386.873 137.132 387.624L130.704 389.651C122.083 392.28 113.387 394.683 104.691 396.785C95.9187 398.888 87.1469 400.915 78.4505 402.867C69.6784 404.82 60.9063 406.772 52.2099 408.8C51.983 408.875 51.6807 408.724 51.6051 408.424C51.5294 408.274 51.6806 408.049 51.9075 407.974Z" fill="black"/>
<path d="M82.7622 410.152C85.9383 410.452 89.0387 410.603 92.2148 410.753C95.3908 410.828 98.567 410.903 101.743 410.903C108.095 410.978 114.447 410.828 120.724 410.603C133.428 410.152 146.057 409.326 158.685 408.049C171.314 406.773 183.867 405.121 196.193 402.267C199.218 401.517 202.318 400.691 205.268 399.714L207.461 398.888C208.217 398.588 208.898 398.288 209.578 397.987C211.015 397.387 212.376 396.561 213.737 395.885C219.182 392.881 224.173 388.976 228.786 384.771C238.087 376.361 246.254 366.524 256.236 358.415C256.841 357.889 257.446 357.363 258.126 356.913L260.093 355.486C260.773 355.036 261.378 354.51 262.059 354.059L264.101 352.783C266.748 350.981 269.697 349.554 272.722 348.353C278.696 345.95 284.972 344.523 291.097 342.946C297.222 341.369 303.348 339.642 308.868 336.864C311.59 335.437 314.237 333.71 316.43 331.607C317.564 330.556 318.623 329.43 319.531 328.228L321.043 326.426C321.572 325.825 321.95 325.15 322.404 324.549C325.958 319.443 328.681 313.811 330.949 307.954C333.218 302.097 335.033 296.089 336.772 290.007C338.511 283.925 340.175 277.842 342.065 271.835C343.956 265.828 346.074 259.821 349.023 254.114C352.048 248.407 356.131 243.451 360.366 238.72C364.601 233.99 369.138 229.559 372.995 224.678C376.927 219.798 380.33 214.466 382.372 208.609C384.489 202.752 385.094 196.519 384.64 190.287C384.111 184.054 382.674 177.972 380.859 171.965C379.044 165.958 376.927 159.95 375.188 153.868C373.373 147.786 371.936 141.553 371.407 135.171C371.18 132.017 371.18 128.788 371.482 125.559C371.785 122.33 372.465 119.251 373.07 116.173C374.28 110.015 375.565 103.783 375.792 97.5502C375.868 94.4715 375.717 91.3177 374.809 88.3891C374.356 86.9624 373.751 85.5357 372.995 84.2592C372.768 83.9588 372.616 83.5833 372.389 83.3581L372.087 82.9826L371.633 82.6823C371.104 82.2317 370.423 81.9314 369.743 81.5559C366.945 80.3545 363.769 79.8288 360.668 79.153C359.08 78.7775 357.568 78.4772 355.98 77.8014C354.392 77.1256 353.106 76.1494 351.821 75.1732C349.325 73.1458 347.132 70.818 344.485 69.3912C343.805 69.0158 343.124 68.7154 342.368 68.5652C341.99 68.4902 341.612 68.34 341.234 68.2649L340.1 68.1147C338.587 68.0396 337.075 68.34 335.713 68.9407C332.991 70.2172 330.798 72.545 328.983 75.023C328.076 76.2996 327.244 77.6512 326.488 79.0028C325.732 80.3545 325.051 81.7812 324.37 83.2079C323.085 86.0613 321.95 88.9899 320.892 91.9935C319.833 94.9971 318.926 98.0007 317.792 100.929C317.716 101.155 317.413 101.305 317.186 101.23C316.959 101.155 316.808 100.854 316.884 100.629C317.943 97.7004 318.85 94.6216 319.909 91.6931C320.967 88.6895 322.026 85.761 323.387 82.8324C324.068 81.4057 324.748 79.979 325.505 78.5523C326.261 77.1256 327.093 75.7739 328 74.4974C328.908 73.2209 329.966 71.9443 331.1 70.818C332.31 69.6916 333.596 68.7154 335.109 68.0396C336.621 67.3638 338.285 66.9883 340.024 67.0634L341.309 67.2136C341.687 67.2887 342.141 67.4389 342.519 67.514C343.351 67.7392 344.107 68.0396 344.864 68.4151C347.813 69.992 350.006 72.3198 352.426 74.2721C353.636 75.2483 354.921 76.1494 356.282 76.7501C357.644 77.3508 359.232 77.6512 360.744 78.0266C363.844 78.7025 367.02 79.2281 370.045 80.5046C370.801 80.805 371.558 81.1804 372.238 81.7812L372.768 82.1566L373.221 82.6823C373.524 82.9826 373.751 83.3581 373.978 83.7335C374.885 85.1602 375.49 86.6621 376.019 88.239C376.927 91.3928 377.154 94.6216 377.078 97.8505C376.927 104.233 375.641 110.466 374.431 116.698C373.826 119.777 373.221 122.856 372.919 125.934C372.692 129.013 372.692 132.167 372.919 135.246C373.448 141.478 374.885 147.56 376.624 153.568C378.364 159.575 380.481 165.507 382.372 171.589C384.186 177.672 385.774 183.829 386.304 190.287C386.757 196.67 386.153 203.203 383.96 209.285C381.842 215.367 378.364 220.924 374.356 225.805C370.348 230.836 365.886 235.266 361.652 239.997C357.417 244.652 353.484 249.533 350.535 255.015C347.662 260.572 345.62 266.504 343.729 272.436C341.839 278.443 340.251 284.526 338.512 290.608C336.772 296.69 334.957 302.773 332.689 308.705C330.42 314.637 327.622 320.419 323.917 325.75C323.463 326.426 323.085 327.102 322.555 327.703L321.043 329.58C320.06 330.856 319.001 332.058 317.716 333.184C315.296 335.437 312.574 337.239 309.7 338.741C303.953 341.745 297.676 343.472 291.551 345.048C285.426 346.625 279.225 348.127 273.402 350.38C270.528 351.506 267.731 352.933 265.159 354.66L263.193 355.937C262.513 356.387 261.908 356.838 261.303 357.288L259.412 358.715C258.807 359.166 258.202 359.691 257.597 360.217C247.842 368.176 239.751 377.938 230.298 386.498C225.61 390.779 220.543 394.834 214.872 397.912C213.435 398.663 211.998 399.414 210.561 400.09C209.805 400.39 209.049 400.766 208.293 401.066L206.024 401.892C202.999 402.943 199.899 403.769 196.798 404.52C190.598 406.022 184.321 407.148 177.969 408.049C171.692 409.026 165.34 409.777 158.988 410.452C152.636 411.128 146.284 411.579 139.931 411.954C133.579 412.33 127.227 412.63 120.875 412.78C108.171 412.93 95.3908 412.93 82.7622 411.278C82.5353 411.278 82.3085 410.978 82.3841 410.753C82.2328 410.302 82.4597 410.077 82.7622 410.152Z" fill="black"/>
<path d="M223.642 95.9717C224.247 94.1695 224.625 92.2922 224.928 90.415C225.23 88.5377 225.457 86.6604 225.76 84.7081C226.213 80.8785 226.667 77.0488 227.423 73.2192C227.801 71.2669 228.255 69.3896 228.86 67.5123C229.465 65.6351 230.221 63.6827 231.507 61.9556C232.112 61.1297 232.868 60.3037 233.775 59.6278C234.683 58.952 235.666 58.5015 236.725 58.2011C238.766 57.6004 240.808 57.4502 242.774 57.3C244.74 57.1499 246.631 57.0748 248.37 56.6242C250.185 56.1737 251.924 55.4979 253.512 54.6719C256.84 52.9448 259.713 50.4668 262.436 47.7635C267.805 42.357 272.644 36.0494 279.223 31.4689C280.055 30.9433 280.887 30.3425 281.794 29.892C282.626 29.3664 283.609 28.9909 284.517 28.6155C284.971 28.3902 285.5 28.3151 285.954 28.1649L286.71 27.9396C286.785 27.9396 286.786 27.9396 286.786 27.9396C286.937 27.9396 287.088 27.9396 287.239 27.9396C287.39 27.9396 287.466 28.0147 287.542 28.0147C287.617 28.0147 287.693 28.0898 287.768 28.0898C287.995 28.1649 288.147 28.3151 288.222 28.3902C289.13 29.1411 289.735 29.8169 290.415 30.5678C291.701 32.0696 292.911 33.4963 294.196 34.9981C295.482 36.4249 296.692 37.9267 298.053 39.1281C298.355 39.4285 298.658 39.5787 299.112 39.879C299.49 40.1043 299.943 40.3296 300.322 40.5548C301.153 41.0054 302.061 41.3808 302.893 41.7563C304.632 42.5072 306.447 43.2581 308.262 44.0841C310.077 44.9101 311.816 45.8112 313.479 47.0126C315.143 48.2141 316.58 49.7159 317.714 51.2928C318.924 52.9448 319.832 54.747 320.437 56.6993C321.042 58.6517 321.344 60.604 321.42 62.6315C321.571 66.6113 320.739 70.516 319.605 74.2705C317.261 81.7795 313.555 88.6128 310.152 95.5211C310.077 95.7464 309.774 95.8215 309.547 95.7464C309.32 95.6713 309.245 95.3709 309.32 95.1457C312.648 88.1622 316.202 81.2539 318.395 73.895C319.453 70.2156 320.134 66.4611 319.983 62.7066C319.832 58.952 318.622 55.2726 316.429 52.3441C315.294 50.8422 314.009 49.4906 312.497 48.4394C310.984 47.3881 309.32 46.487 307.581 45.7361C305.842 44.9852 304.027 44.2343 302.212 43.4834C301.305 43.1079 300.397 42.6574 299.49 42.2068C299.036 41.9816 298.582 41.7563 298.204 41.531C297.826 41.3057 297.221 41.0054 296.843 40.6299C295.255 39.2783 294.045 37.7765 292.759 36.2747C291.474 34.7729 290.264 33.3462 288.978 31.9194C288.373 31.2436 287.693 30.4927 287.088 30.0422C287.012 29.9671 286.937 29.9671 286.937 29.9671C286.937 29.9671 286.937 29.9671 287.012 29.9671C287.088 29.9671 287.163 29.9671 287.239 29.9671L287.164 29.9671L286.483 30.1924C286.029 30.3425 285.576 30.4176 285.197 30.6429C284.366 31.0183 283.458 31.3938 282.702 31.8443C281.87 32.2949 281.114 32.8205 280.358 33.3462C277.257 35.5238 274.535 38.1519 271.888 40.9303C269.241 43.7086 266.67 46.6372 263.948 49.4155C261.15 52.1939 258.125 54.822 254.571 56.6993C252.756 57.6755 250.866 58.4264 248.9 58.8769C247.916 59.1022 246.858 59.3275 245.875 59.4026C244.892 59.4777 243.909 59.5527 242.926 59.6278C241.035 59.778 239.144 59.9282 237.405 60.4538C235.741 60.9795 234.305 61.8806 233.322 63.3824C232.339 64.8091 231.582 66.5362 231.053 68.3383C230.524 70.1405 230.07 71.9427 229.692 73.8199C228.936 77.5745 228.482 81.4041 227.801 85.1586C227.499 87.0359 227.121 88.9882 226.591 90.8655C226.062 92.7428 225.533 94.6951 224.625 96.4222C224.474 96.6475 224.247 96.7226 224.02 96.6475C223.642 96.4222 223.567 96.1969 223.642 95.9717Z" fill="black"/>
<path d="M209.878 42.9579C212.601 39.8792 214.945 36.6503 217.214 33.1961C219.482 29.817 221.524 26.2127 223.717 22.6834C225.986 19.1542 228.406 15.7 231.43 12.6964C231.809 12.3209 232.187 11.9455 232.64 11.6451L233.851 10.5939C234.682 9.91804 235.59 9.31732 236.497 8.7166C237.405 8.19096 238.388 7.66533 239.371 7.13969C240.354 6.68915 241.413 6.3137 242.547 6.08843C243.681 5.86315 245.042 5.86316 246.177 6.38879C246.782 6.68915 247.311 7.0646 247.765 7.51515C248.143 7.96569 248.521 8.41623 248.824 8.94186C249.958 10.9693 250.412 12.9968 251.092 14.9491C251.697 16.9015 252.378 18.7787 253.588 20.2805C254.798 21.7073 256.461 22.8336 258.276 23.5094C260.167 24.1852 262.133 24.4856 264.25 24.9362C265.309 25.1614 266.368 25.5369 267.351 26.0625C268.334 26.5881 269.241 27.4141 269.922 28.3152C270.527 29.2914 270.905 30.3427 271.208 31.3939C271.435 32.4452 271.51 33.4965 271.586 34.5477C271.661 35.599 271.586 36.7254 271.283 37.7766C270.981 38.8279 270.678 39.729 270.527 40.7052C270.452 40.9304 270.225 41.1557 269.998 41.0806C269.771 41.0055 269.544 40.7803 269.62 40.555C269.771 39.5037 270.073 38.4524 270.3 37.4763C270.527 36.5001 270.527 35.599 270.451 34.5477C270.3 32.5203 269.922 30.4929 268.863 28.991C268.334 28.2401 267.654 27.6394 266.746 27.1889C265.914 26.7383 264.931 26.5131 263.948 26.2878C261.982 25.8372 259.864 25.612 257.747 24.9362C255.705 24.2603 253.739 23.0589 252.227 21.2567C250.79 19.4545 250.034 17.4271 249.353 15.4747C248.672 13.5224 248.143 11.4949 247.16 9.91804C246.933 9.54259 246.631 9.16714 246.328 8.86677C246.026 8.56641 245.723 8.34114 245.345 8.19096C244.664 7.8906 243.757 7.8906 242.925 8.04078C242.018 8.19096 241.11 8.56641 240.203 8.94186C239.295 9.39241 238.463 9.91804 237.556 10.3686C236.724 10.9693 235.892 11.4949 235.136 12.0957L234.002 13.0718C233.623 13.3722 233.245 13.7477 232.867 14.1231C229.994 16.9766 227.65 20.2805 225.532 23.8098C223.339 27.264 221.297 30.8683 219.029 34.3976C216.76 37.8517 214.038 41.3059 210.408 43.6337C210.181 43.7839 209.878 43.7088 209.727 43.4835C209.727 43.3333 209.727 43.1081 209.878 42.9579Z" fill="black"/>
<path d="M301.532 41.0074C303.272 37.7786 305.767 34.9251 308.716 32.6724C310.153 31.546 311.741 30.4948 313.405 29.5937C315.068 28.6926 316.808 27.9417 318.85 27.6413C319.833 27.4911 320.891 27.4911 321.95 27.6413C323.009 27.8666 323.992 28.242 324.824 28.7677C326.563 29.8189 327.849 31.2457 329.134 32.5222C330.344 33.8738 331.554 35.1504 332.915 36.2767C334.201 37.4031 335.637 38.3793 337.15 39.1302C338.662 39.8811 340.401 40.4818 342.065 41.0825C343.804 41.6833 345.544 42.3591 347.207 43.4103C348.796 44.4616 350.232 45.9634 351.215 47.6154C352.198 49.2674 352.879 50.9945 353.408 52.7967C353.938 54.5988 354.24 56.401 354.392 58.2032C354.618 60.0054 354.618 61.8826 354.618 63.6848C354.618 67.3642 354.165 70.9686 353.635 74.4978C353.56 74.7231 353.333 74.9484 353.106 74.8733C352.879 74.7982 352.652 74.5729 352.728 74.3477C353.106 70.8184 353.409 67.2141 353.333 63.6848C353.257 60.1555 352.879 56.5512 351.82 53.2472C351.291 51.5952 350.61 49.9432 349.703 48.5165C348.795 47.0898 347.661 45.8883 346.224 44.9872C343.351 43.1851 339.721 42.5843 336.242 40.9324C334.503 40.1064 332.915 39.0551 331.478 37.7786C330.041 36.5771 328.756 35.2255 327.546 33.8738C326.336 32.5973 325.05 31.3208 323.689 30.4948C322.328 29.6688 320.816 29.4435 319.152 29.6688C317.564 29.9691 315.976 30.6449 314.463 31.4709C312.951 32.2969 311.514 33.2731 310.077 34.3995C308.641 35.5258 307.355 36.5771 306.07 37.8536C304.784 39.0551 303.574 40.3316 302.213 41.6082C301.986 41.7584 301.684 41.7584 301.532 41.6082C301.457 41.3829 301.381 41.1576 301.532 41.0074Z" fill="black"/>
<path d="M257.823 22.1585C260.394 19.0047 263.343 16.1513 266.519 13.5231C269.695 10.8949 272.947 8.41695 276.501 6.23932C278.241 5.18805 280.055 4.13679 281.946 3.2357C283.761 2.33461 285.651 1.43353 287.693 0.757713C289.735 0.156988 292.004 -0.293559 294.272 0.232075C296.541 0.907891 298.356 2.10934 299.944 3.53606C303.12 6.38951 305.464 9.69349 308.565 12.0213C308.943 12.3217 309.397 12.5469 309.775 12.8473C310.153 13.0726 310.606 13.2978 311.06 13.5231C311.967 13.8986 312.875 14.3491 313.858 14.7246C315.749 15.4755 317.639 16.1513 319.53 16.9022C321.42 17.6531 323.386 18.404 325.201 19.3802C327.016 20.3564 328.831 21.7831 329.965 23.5853C330.116 23.8105 330.268 24.0358 330.419 24.2611L330.797 25.012L331.175 25.7629C331.326 25.9882 331.326 26.2885 331.478 26.5138C331.629 27.0394 331.856 27.49 331.931 28.0156L332.234 29.5174C332.385 30.043 332.385 30.5687 332.461 31.0943L332.612 32.6712C332.612 33.7225 332.612 34.6987 332.612 35.7499C332.612 35.9752 332.385 36.2005 332.158 36.2005C331.932 36.2005 331.705 35.9752 331.705 35.7499L331.705 35.6748C331.629 34.6987 331.629 33.6474 331.553 32.6712L331.402 31.1694C331.327 30.6438 331.326 30.1932 331.175 29.7427L330.873 28.316C330.722 27.8654 330.57 27.4149 330.419 26.9643C330.343 26.7391 330.268 26.5138 330.117 26.2885L329.738 25.6878L329.36 25.0871C329.285 24.8618 329.058 24.7116 328.907 24.4863C327.772 22.9094 326.26 21.7831 324.521 20.882C322.781 19.9809 320.891 19.3051 319 18.6293C317.11 17.9535 315.144 17.2776 313.253 16.5267C312.27 16.1513 311.363 15.7758 310.379 15.3253C309.926 15.1 309.396 14.8747 308.943 14.5744C308.489 14.274 308.035 14.0487 307.582 13.6733C304.103 11.1953 301.607 7.81623 298.658 5.26315C298.28 4.96279 297.902 4.66242 297.524 4.36206C297.146 4.0617 296.768 3.83642 296.314 3.61115C295.936 3.38588 295.482 3.16061 295.104 3.01043L294.499 2.71007L293.894 2.55988C292.231 2.18443 290.264 2.4848 288.449 3.08552C286.634 3.68625 284.82 4.51224 283.005 5.41333C281.19 6.31441 279.526 7.29059 277.787 8.34186C274.384 10.4444 271.208 12.9224 268.107 15.4755C265.007 18.0285 261.982 20.6567 258.579 23.0596C258.352 23.2098 258.05 23.1347 257.899 22.9845C257.672 22.6091 257.672 22.3838 257.823 22.1585Z" fill="black"/>
<path d="M105.675 314.487C107.036 311.032 108.7 307.804 110.288 304.5C111.876 301.271 113.313 297.892 114.296 294.437C115.279 290.983 115.808 287.454 115.581 283.925C115.354 280.471 114.069 277.092 112.33 273.938C110.666 270.709 108.624 267.63 107.112 264.176C106.356 262.449 105.675 260.647 105.297 258.769C104.919 256.892 104.767 255.015 104.843 253.063C104.919 251.185 105.146 249.308 105.524 247.431C105.902 245.629 106.431 243.827 106.96 242.024C107.565 240.222 108.17 238.495 108.927 236.843C109.683 235.116 110.439 233.464 111.271 231.812C111.422 231.587 111.649 231.512 111.876 231.587C112.103 231.737 112.178 231.962 112.103 232.187C110.59 235.491 109.229 238.946 108.17 242.4C107.641 244.127 107.263 245.929 106.96 247.656C106.658 249.458 106.507 251.26 106.507 252.988C106.507 254.79 106.658 256.517 107.036 258.244C107.414 259.971 108.095 261.623 108.851 263.275C110.363 266.504 112.405 269.583 114.22 272.887C116.035 276.19 117.472 279.795 117.775 283.7C118.001 287.529 117.472 291.359 116.489 294.963C115.506 298.567 114.069 302.097 112.405 305.401C110.742 308.78 108.851 311.934 106.507 314.862C106.355 315.087 106.053 315.087 105.826 314.937C105.675 314.937 105.599 314.712 105.675 314.487Z" fill="black"/>
<path d="M172.674 244.505C173.581 241.501 174.942 238.723 176.228 236.019C177.513 233.241 178.648 230.463 179.479 227.609C180.236 224.756 180.614 221.752 180.311 218.824C180.16 217.397 179.858 215.895 179.555 214.393C179.177 212.966 178.799 211.465 178.345 210.038C177.438 207.185 176.228 204.406 174.942 201.553C173.657 198.774 172.371 195.921 171.388 192.917C170.405 189.914 169.876 186.835 169.649 183.681C169.422 180.527 169.725 177.449 170.103 174.37C170.103 174.145 170.405 173.919 170.632 173.995C170.859 173.995 171.086 174.22 171.01 174.52L170.859 176.773L170.783 177.899C170.783 178.275 170.783 178.65 170.783 179.026L170.783 181.278L170.935 183.531C171.237 186.535 171.918 189.463 172.901 192.317C173.884 195.17 175.245 197.948 176.53 200.727C177.891 203.505 179.177 206.359 180.236 209.287C180.765 210.789 181.143 212.291 181.597 213.792C181.899 215.369 182.278 216.871 182.429 218.448C182.731 221.677 182.353 224.906 181.597 227.985C180.765 231.063 179.631 233.992 178.27 236.845C176.909 239.699 175.396 242.327 173.506 244.805C173.354 245.03 173.052 245.03 172.825 244.88C172.674 244.88 172.598 244.73 172.674 244.505Z" fill="black"/>
<path d="M225.986 187.659C227.12 184.13 228.633 180.901 230.07 177.597C231.507 174.293 232.792 170.989 233.775 167.535C234.759 164.081 235.364 160.627 235.364 157.098C235.364 156.196 235.288 155.37 235.212 154.469C235.137 153.568 235.061 152.667 234.91 151.841C234.683 150.039 234.305 148.312 233.926 146.585C233.095 143.131 231.885 139.752 230.675 136.297C229.465 132.843 228.255 129.239 228.179 125.484C228.028 121.655 229.086 117.975 230.599 114.596C232.111 111.217 234.002 108.063 236.044 105.06C236.195 104.835 236.498 104.759 236.725 104.91C236.952 105.06 237.027 105.36 236.876 105.51C234.986 108.589 233.17 111.743 231.809 115.047C230.523 118.351 229.616 121.88 229.843 125.334C229.994 128.864 231.128 132.243 232.414 135.622C233.7 139.001 234.985 142.455 235.893 146.059C236.347 147.861 236.725 149.664 236.952 151.466C237.103 152.367 237.178 153.268 237.33 154.244C237.405 155.145 237.481 156.121 237.481 157.022C237.481 160.777 236.876 164.456 235.893 168.061C234.91 171.59 233.548 175.044 232.111 178.423C230.675 181.802 228.935 185.031 226.818 188.035C226.666 188.26 226.364 188.335 226.137 188.185C225.986 188.035 225.986 187.81 225.986 187.659Z" fill="black"/>
<path d="M260.621 162.426C263.193 160.548 265.915 159.197 268.637 157.695C271.284 156.193 273.93 154.616 276.274 152.739C278.619 150.862 280.736 148.684 282.249 146.206L282.778 145.23C282.929 144.93 283.08 144.554 283.307 144.254L284.29 142.226C284.819 140.8 285.424 139.448 285.802 137.946C286.634 135.093 287.164 132.089 287.542 129.01C287.92 125.932 288.373 122.853 289.205 119.774C290.113 116.696 291.625 113.842 293.44 111.289C293.894 110.688 294.347 110.012 294.877 109.412L296.465 107.61C296.994 107.009 297.599 106.483 298.129 105.958L299.868 104.381C300.019 104.231 300.321 104.231 300.548 104.381C300.699 104.531 300.699 104.831 300.548 105.057C298.431 107.234 296.314 109.487 294.65 112.04C292.986 114.593 291.701 117.296 290.869 120.225C290.113 123.153 289.735 126.157 289.432 129.236C289.13 132.314 288.676 135.468 287.844 138.472C287.466 140.049 286.861 141.475 286.332 142.977L285.349 145.155C285.197 145.53 285.046 145.906 284.82 146.206L284.214 147.257C282.551 150.036 280.282 152.364 277.787 154.391C275.291 156.418 272.645 158.07 269.847 159.647C267.049 161.149 264.251 162.426 261.151 163.252C260.924 163.327 260.621 163.177 260.546 162.951C260.395 162.801 260.47 162.576 260.621 162.426Z" fill="black"/>
<path d="M230.902 201.702C233.473 199.675 236.346 198.023 239.296 196.671C242.245 195.319 245.27 194.043 248.37 192.992C251.471 191.94 254.647 191.039 257.898 190.439C261.15 189.838 264.326 189.387 267.502 188.937C270.678 188.486 273.854 188.036 276.955 187.21C280.055 186.384 283.005 185.332 285.651 183.68C291.096 180.452 295.482 175.571 300.624 171.591C300.851 171.441 301.153 171.441 301.305 171.666C301.456 171.891 301.456 172.117 301.229 172.342C298.809 174.444 296.54 176.697 294.196 178.875C291.852 181.052 289.356 183.23 286.559 185.032C283.761 186.834 280.66 188.111 277.484 188.937C274.308 189.838 271.057 190.364 267.88 190.889C264.704 191.34 261.453 191.79 258.352 192.391C255.252 193.067 252.151 193.893 249.202 194.944C246.177 195.995 243.228 197.197 240.354 198.623C237.481 199.975 234.532 201.327 231.507 202.453C231.28 202.528 230.977 202.378 230.902 202.153C230.675 202.003 230.75 201.852 230.902 201.702Z" fill="black"/>
<path d="M170.707 267.255C173.505 265.528 176.379 263.951 179.328 262.45C182.277 260.948 185.226 259.446 188.175 258.019C191.2 256.592 194.225 255.241 197.401 254.114C200.577 253.063 203.904 252.237 207.307 251.937L208.593 251.862C209.046 251.862 209.425 251.862 209.878 251.862L211.164 251.862C211.618 251.862 211.996 251.937 212.449 252.012L213.735 252.162L215.02 252.462C215.852 252.613 216.684 252.913 217.516 253.138C220.768 254.265 223.641 256.067 226.515 257.569C229.389 259.07 232.338 260.347 235.514 260.948C238.69 261.548 241.942 261.548 245.193 261.248C245.42 261.248 245.647 261.398 245.722 261.699C245.722 261.924 245.571 262.149 245.344 262.224C242.017 262.675 238.614 262.825 235.287 262.299C231.96 261.774 228.708 260.572 225.759 259.07C222.81 257.569 219.936 255.917 216.911 254.94C216.155 254.715 215.399 254.49 214.642 254.34L213.508 254.114L212.298 253.964C211.92 253.964 211.542 253.889 211.088 253.889L209.878 253.889C209.5 253.889 209.046 253.889 208.668 253.889L207.458 254.039C204.282 254.34 201.106 255.091 198.082 256.142C195.057 257.193 192.032 258.545 189.083 259.972C186.134 261.398 183.26 262.975 180.311 264.477C177.361 265.979 174.337 267.406 171.009 268.081C170.783 268.156 170.48 268.006 170.404 267.706C170.48 267.556 170.556 267.33 170.707 267.255Z" fill="black"/>
<path d="M102.045 347.601C104.389 344.147 106.96 340.843 109.758 337.689C112.556 334.535 115.43 331.457 118.53 328.528C121.631 325.6 124.958 322.896 128.663 320.719C132.369 318.541 136.452 316.889 140.763 316.289C145.073 315.688 149.459 315.988 153.618 316.964C157.777 317.941 161.71 319.517 165.718 320.719C166.701 320.944 167.684 321.32 168.742 321.47L170.255 321.77C170.784 321.845 171.238 321.92 171.767 321.995C172.297 322.07 172.75 322.146 173.28 322.146L174.792 322.146C175.851 322.221 176.834 322.07 177.817 321.995C181.9 321.545 185.833 320.043 189.614 318.316C189.841 318.241 190.143 318.316 190.219 318.541C190.294 318.767 190.219 319.067 189.992 319.142C186.211 321.094 182.278 322.671 177.968 323.272C173.733 323.948 169.272 323.422 165.188 322.221C161.105 321.094 157.172 319.593 153.164 318.691C149.157 317.79 144.997 317.64 140.989 318.241C136.982 318.842 133.201 320.418 129.646 322.521C126.168 324.624 122.916 327.252 119.967 330.105C116.942 332.959 114.144 336.037 111.422 339.116C108.699 342.27 105.901 345.424 102.725 348.202C102.498 348.352 102.196 348.352 102.045 348.127C101.969 347.977 101.969 347.751 102.045 347.601Z" fill="black"/>
<path d="M24.4577 330.106C23.7771 327.478 23.1724 324.925 22.4917 322.372C21.8867 319.819 21.0546 317.19 20.2983 314.637C19.542 312.009 18.7861 309.381 18.3323 306.678C18.1054 305.326 17.9541 303.899 17.8785 302.548C17.8029 301.196 17.8029 299.769 17.8785 298.418C18.1054 292.936 19.2397 287.605 19.6934 282.273C19.9203 279.645 20.0716 276.942 19.7691 274.314C19.5423 271.686 18.9371 269.057 18.1052 266.58C18.0296 266.354 18.1808 266.054 18.4077 265.979C18.6345 265.904 18.9373 265.979 19.0129 266.204C20.0716 268.757 20.8278 271.385 21.1303 274.164C21.5084 276.867 21.5086 279.645 21.3574 282.424C20.9792 287.905 19.9958 293.237 19.9202 298.493C19.8445 299.845 19.9202 301.121 19.9959 302.473C20.0715 303.749 20.2229 305.101 20.5254 306.377C20.9792 309.006 21.7355 311.559 22.4917 314.112C23.248 316.665 24.0799 319.293 24.7605 321.921C25.4412 324.549 25.8192 327.403 25.4411 330.181C25.4411 330.406 25.1384 330.632 24.9116 330.557C24.6091 330.406 24.4577 330.256 24.4577 330.106Z" fill="black"/>
<path d="M46.8426 226.858C46.0107 224.155 45.2545 221.602 44.1958 219.049C43.2127 216.495 41.9273 214.093 40.5661 211.615C39.2049 209.137 37.7678 206.734 36.5579 204.106C35.3479 201.477 34.2895 198.774 33.7601 195.921C32.6258 190.139 33.4575 184.357 34.8187 178.875C36.2556 173.394 38.2975 168.137 40.2637 162.881C40.3393 162.656 40.6416 162.505 40.8685 162.581C41.0954 162.656 41.2465 162.956 41.1709 163.181C39.5072 168.588 37.6168 173.844 36.4069 179.251C35.1969 184.657 34.592 190.214 35.7263 195.47C36.2557 198.098 37.3141 200.651 38.4484 203.129C39.6584 205.607 41.0198 208.01 42.4566 210.488C43.8178 212.966 45.1791 215.444 46.3134 218.147C47.3721 220.851 47.977 223.779 47.7502 226.633C47.7502 226.858 47.5232 227.083 47.2207 227.083C47.0694 227.233 46.9182 227.083 46.8426 226.858Z" fill="black"/>
<path d="M90.777 139.375C89.9452 136.522 89.8694 133.518 90.2475 130.589C90.6257 127.661 91.3821 124.807 92.3652 122.029C93.2727 119.251 94.4069 116.623 95.6169 113.994C96.7512 111.366 97.9612 108.738 99.0199 106.11C100.079 103.482 100.986 100.778 101.742 98.0752C102.423 95.372 102.877 92.5936 103.104 89.7402C103.633 84.1084 103.331 78.4015 103.331 72.6195C103.331 72.3943 103.558 72.169 103.784 72.169C104.011 72.169 104.238 72.3943 104.238 72.6195C104.389 75.473 104.616 78.3264 104.692 81.1799C104.767 84.0333 104.843 86.9618 104.692 89.8153C104.54 92.7438 104.162 95.5972 103.482 98.4507C102.801 101.304 101.894 104.082 100.911 106.786C98.7931 112.192 96.2219 117.298 94.4825 122.63C93.575 125.333 92.8944 128.036 92.5162 130.74C92.1381 133.518 92.0625 136.221 91.76 139.075C91.76 139.3 91.5334 139.525 91.2309 139.525C91.004 139.675 90.777 139.525 90.777 139.375Z" fill="black"/>
<path d="M137.208 86.8137C138.267 84.2606 139.553 81.9328 140.838 79.605C142.124 77.2772 143.258 74.8743 144.241 72.3212C146.283 67.3653 147.644 62.1089 149.61 57.0028C150.668 54.4497 151.878 51.8966 153.467 49.5688C155.055 47.241 156.945 45.2135 159.062 43.3363C163.297 39.7319 168.213 37.0287 173.204 34.776C173.43 34.7009 173.733 34.776 173.808 35.0012C173.884 35.2265 173.809 35.5269 173.582 35.602C171.162 36.8785 168.818 38.155 166.549 39.6568C164.28 41.1587 162.163 42.7356 160.197 44.5377C158.231 46.3399 156.491 48.3674 155.055 50.545C153.618 52.7977 152.483 55.2006 151.576 57.6786C149.685 62.7096 148.324 67.966 146.283 73.0721C145.299 75.6252 144.089 78.1783 142.804 80.5812C141.518 82.9841 139.93 85.3119 137.964 87.2643C137.813 87.4144 137.435 87.4144 137.284 87.2643C137.133 87.1892 137.132 86.9639 137.208 86.8137Z" fill="black"/>
<path d="M131.309 111.441C132.595 110.54 133.88 109.789 135.242 109.038C136.527 108.287 137.888 107.536 139.174 106.785C140.535 106.034 141.745 105.208 143.031 104.382C144.241 103.481 145.45 102.655 146.585 101.679C151.273 97.9244 155.281 93.2688 159.516 88.8385C161.633 86.6609 163.902 84.4832 166.171 82.4558C167.381 81.4796 168.515 80.4283 169.725 79.4522C170.935 78.476 172.22 77.5749 173.506 76.6738C178.648 73.2196 184.017 70.2911 189.008 66.7619C189.235 66.6117 189.537 66.6868 189.688 66.8369C189.84 67.0622 189.764 67.2875 189.613 67.5128C184.773 71.3424 179.404 74.4211 174.489 78.0254C173.279 78.9265 172.069 79.8276 170.859 80.8038C169.725 81.78 168.59 82.8312 167.456 83.8074C165.263 85.91 163.07 88.0125 161.028 90.2652C156.869 94.6955 152.861 99.4263 148.022 103.406C146.812 104.457 145.602 105.358 144.316 106.259C143.03 107.085 141.745 107.987 140.384 108.813C137.737 110.465 134.788 111.666 131.763 112.417C131.536 112.492 131.234 112.342 131.158 112.041C131.082 111.816 131.158 111.591 131.309 111.441Z" fill="black"/>
<path d="M78.0727 188.708C80.6438 184.878 83.6684 181.499 86.9201 178.27C90.1718 175.042 93.5748 172.038 97.2046 169.185C100.834 166.331 104.615 163.703 108.623 161.45C109.606 160.85 110.665 160.324 111.648 159.798L113.161 159.047L114.749 158.296C115.807 157.771 116.866 157.395 117.925 156.945C118.983 156.494 120.042 156.044 121.177 155.743C125.487 154.166 129.948 152.965 134.334 151.764C138.72 150.562 143.107 149.436 147.266 147.784C151.425 146.132 155.433 144.029 158.911 141.251C162.465 138.473 165.566 135.244 168.44 131.79C168.591 131.564 168.893 131.564 169.12 131.714C169.347 131.865 169.347 132.165 169.196 132.39C166.398 135.995 163.297 139.374 159.743 142.302C156.189 145.231 152.181 147.558 147.871 149.361C143.636 151.088 139.174 152.364 134.788 153.641C130.402 154.917 126.092 156.194 121.857 157.771C120.798 158.146 119.74 158.597 118.681 158.972C117.622 159.423 116.563 159.798 115.58 160.324L114.068 161L112.555 161.751C111.572 162.276 110.589 162.802 109.606 163.327C105.75 165.58 102.044 168.133 98.4903 170.912C95.0117 173.69 91.6086 176.769 88.4325 179.922C85.2564 183.076 82.0805 186.305 78.7532 189.384C78.5263 189.534 78.2239 189.534 78.0727 189.384C77.9214 189.159 77.9214 188.858 78.0727 188.708Z" fill="black"/>
<path d="M57.5794 237.969C58.4869 236.918 59.4698 235.866 60.4528 234.965C61.5115 234.064 62.7214 233.313 63.8557 232.487C65.0656 231.736 66.2758 231.136 67.4857 230.385C68.6956 229.784 69.9811 229.183 71.2667 228.583C76.4088 226.33 81.7021 224.753 87.0711 223.476C92.4401 222.2 97.809 221.149 103.178 219.947C108.547 218.746 113.84 217.469 118.982 215.592C119.209 215.517 119.512 215.592 119.588 215.892C119.663 216.118 119.587 216.418 119.36 216.493C114.294 218.671 108.925 220.173 103.632 221.599C98.2627 222.951 92.8937 224.077 87.6759 225.504C82.3825 226.856 77.1649 228.432 72.2496 230.685C71.0397 231.286 69.8299 231.812 68.62 232.487C67.4857 233.163 66.2757 233.839 65.1414 234.515C64.0071 235.266 62.8728 236.017 61.7385 236.692C60.6798 237.443 59.5455 238.194 58.2599 238.87L58.1842 238.87C57.9574 239.02 57.655 238.87 57.5037 238.645C57.4281 238.344 57.4282 238.119 57.5794 237.969Z" fill="black"/>
<path d="M215.778 352.033C216.383 350.907 217.064 349.856 217.82 348.88C218.198 348.354 218.576 347.903 218.954 347.453C219.332 346.927 219.71 346.477 220.089 345.951L221.223 344.524L221.752 343.774L222.281 343.023C222.962 341.971 223.643 340.995 224.248 339.944C226.743 335.739 228.407 331.158 229.39 326.353C230.448 321.547 230.902 316.591 231.961 311.71C233.02 306.829 234.834 302.023 237.179 297.593C237.33 297.368 237.556 297.292 237.783 297.368C238.01 297.518 238.086 297.743 238.01 297.968L236.573 301.347C236.12 302.474 235.742 303.675 235.364 304.802C235.137 305.402 234.985 306.003 234.834 306.529L234.38 308.331C234.078 309.532 233.851 310.734 233.624 311.935C232.717 316.741 232.415 321.697 231.507 326.728C231.28 328.004 230.978 329.206 230.675 330.407C230.373 331.609 229.919 332.81 229.541 334.012C229.087 335.213 228.558 336.34 228.029 337.541L226.214 340.92C225.533 342.046 224.852 343.098 224.172 344.149L223.643 344.975L223.038 345.726L221.903 347.228C221.525 347.753 221.147 348.204 220.693 348.729C220.24 349.18 219.786 349.631 219.332 350.081C218.425 350.982 217.442 351.808 216.459 352.559C216.232 352.709 215.929 352.634 215.778 352.484C215.703 352.409 215.703 352.184 215.778 352.033Z" fill="black"/>
<path d="M270.225 307.656C271.359 304.802 272.569 302.174 273.628 299.396C274.686 296.693 275.519 293.839 276.123 290.911C277.333 285.129 277.636 279.121 278.09 273.114C278.543 267.107 279.224 261.025 280.887 255.167C282.627 249.31 285.425 243.754 289.281 239.023C289.432 238.798 289.735 238.798 289.962 238.948C290.188 239.098 290.189 239.398 290.037 239.624C288.298 242.102 286.786 244.655 285.5 247.283C284.215 249.986 283.232 252.765 282.475 255.618C280.963 261.325 280.434 267.332 280.131 273.264C279.753 279.272 279.451 285.354 278.241 291.361C277.636 294.365 276.804 297.368 275.745 300.222C274.611 303.075 273.174 305.854 271.057 308.106C270.906 308.332 270.603 308.332 270.376 308.106C270.225 308.031 270.149 307.806 270.225 307.656Z" fill="black"/>
<path d="M334.956 194.267C334.653 193.291 334.502 192.39 334.351 191.414C334.2 190.513 334.124 189.537 334.124 188.636L333.897 185.857L333.595 183.079C333.141 179.324 332.612 175.645 331.704 171.966C330.872 168.286 329.814 164.682 328.377 161.228C327.016 157.698 325.352 154.319 323.386 151.09C323.234 150.865 323.31 150.565 323.537 150.415C323.764 150.264 323.991 150.34 324.142 150.565C326.411 153.644 328.301 157.023 329.814 160.552C331.402 164.081 332.612 167.761 333.595 171.44C334.502 175.195 335.258 178.949 335.636 182.779L335.939 185.632L336.166 188.486C336.241 190.363 336.241 192.315 335.712 194.267C335.636 194.493 335.41 194.643 335.107 194.643C335.107 194.568 334.956 194.418 334.956 194.267Z" fill="black"/>
<path d="M329.285 227.228C330.873 224.75 332.915 222.573 335.032 220.62C337.225 218.668 339.418 216.791 341.687 214.989C346.149 211.309 350.837 207.855 354.921 203.95C359.004 200.046 362.483 195.465 364.6 190.209C366.793 185.028 367.852 179.321 368.457 173.689C368.457 173.464 368.684 173.238 368.986 173.238C369.213 173.238 369.44 173.464 369.44 173.689C369.137 179.471 368.306 185.253 366.188 190.81C365.13 193.513 363.768 196.141 362.104 198.619C360.441 201.022 358.55 203.275 356.433 205.377C352.274 209.507 347.585 212.961 343.199 216.641C341.006 218.443 338.814 220.32 336.696 222.272C334.579 224.225 332.461 226.102 330.117 227.829C329.89 227.979 329.588 227.979 329.437 227.754C329.21 227.604 329.21 227.379 329.285 227.228Z" fill="black"/>
<path d="M294.65 292.708C295.709 290.38 297.221 288.353 298.885 286.476C300.548 284.598 302.288 282.796 304.103 281.069C307.657 277.54 311.513 274.311 315.597 271.383C319.756 268.454 324.218 266.201 328.377 263.648C330.494 262.372 332.536 261.02 334.426 259.518C336.317 258.016 338.056 256.289 339.568 254.337C339.72 254.112 340.022 254.112 340.249 254.262C340.476 254.412 340.476 254.712 340.325 254.863C337.451 258.993 333.443 262.297 329.284 265C325.049 267.703 320.739 270.106 316.807 272.959C312.874 275.813 309.169 279.117 305.691 282.571C303.951 284.298 302.288 286.1 300.7 287.902C299.112 289.705 297.448 291.582 295.557 293.159C295.33 293.309 295.028 293.309 294.877 293.084C294.65 293.084 294.574 292.858 294.65 292.708Z" fill="black"/>
<path d="M202.091 374.184C203.074 373.283 204.133 372.457 205.191 371.706C206.326 370.955 207.46 370.354 208.594 369.678L212.149 367.876L215.778 366.224C220.618 364.047 225.458 362.094 230.373 360.142C235.289 358.19 240.129 356.312 244.817 354.06C249.581 351.882 254.194 349.479 258.58 346.626C258.807 346.475 259.109 346.551 259.261 346.776C259.412 347.001 259.336 347.226 259.11 347.377C254.875 350.455 250.262 353.083 245.498 355.486C240.734 357.814 235.894 359.917 231.13 361.944C226.29 363.972 221.45 365.924 216.686 368.102L213.132 369.754L209.653 371.556C208.519 372.156 207.385 372.757 206.175 373.283C205.04 373.883 203.83 374.409 202.545 374.86C202.318 374.935 202.015 374.785 201.94 374.559C201.94 374.484 202.015 374.334 202.091 374.184Z" fill="black"/>
</svg>
