<svg width="180" height="275" viewBox="0 0 180 275" fill="none" xmlns="http://www.w3.org/2000/svg">
<path d="M45.1245 85.5928C41.6742 78.7538 39.0235 71.5624 35.4377 64.8842C34.5278 63.2332 33.5857 61.5757 32.4932 60.0528C32.2417 59.6552 31.9419 59.2878 31.6568 58.9147C31.3716 58.5415 31.0999 58.1628 30.7811 57.8141C30.1772 57.0922 29.559 56.4063 28.8725 55.8023C27.5043 54.5818 25.9194 53.6089 24.211 52.885C22.5075 52.1485 20.7049 51.6298 18.869 51.1678C17.0332 50.7057 15.1491 50.3077 13.2921 49.6558C12.3636 49.3298 11.4315 48.9197 10.573 48.3557C9.71454 47.7916 8.91544 47.0781 8.32808 46.1925C7.74072 45.3069 7.37797 44.308 7.1538 43.3241C7.06574 42.817 6.96302 42.3157 6.9414 41.8228C6.88656 41.3228 6.89413 40.8179 6.89631 40.3256C6.9056 39.3286 7.00619 38.3457 7.14839 37.3772C7.20759 36.8927 7.32828 36.4045 7.42564 35.9146C7.55622 35.4319 7.67708 34.9424 7.85525 34.4608C8.18781 33.497 8.70159 32.563 9.39378 31.7533C10.1003 30.9377 11.0564 30.3117 12.075 29.9834C13.0986 29.6427 14.1519 29.5605 15.1513 29.5853C16.1601 29.6166 17.1335 29.7348 18.0884 29.8721C19.0434 30.0094 19.9746 30.1774 20.8968 30.276C21.8046 30.3805 22.7173 30.4412 23.5097 30.2905C23.9151 30.2374 24.266 30.0828 24.5919 29.9267C24.8851 29.732 25.1692 29.4992 25.3641 29.1885L25.5146 28.9594L25.666 28.6664C25.7688 28.4669 25.8657 28.2794 25.9497 28.0669C26.1364 27.6549 26.2909 27.2351 26.4399 26.797C27.031 25.0569 27.4143 23.2051 27.8356 21.3473C28.2713 19.4835 28.6878 17.576 29.5568 15.7104C29.9935 14.7871 30.5642 13.8592 31.4171 13.1292C32.2655 12.3802 33.4136 11.9353 34.5046 11.8803C36.7242 11.7964 38.636 12.6148 40.3853 13.4787C42.1386 14.3931 43.7857 15.4255 45.3491 16.6382C46.8982 17.8569 48.3198 19.3355 49.3809 21.0596C50.4708 22.7719 51.1149 24.7013 51.6121 26.5755C52.1044 28.4623 52.4497 30.359 52.8186 32.2238C53.5276 35.9653 54.3269 39.6565 55.3753 43.2991C56.4142 46.9351 57.6586 50.5072 59.0706 54.0199C60.4826 57.5327 62.0385 60.987 63.6562 64.4354C64.4699 66.1471 65.2935 67.8642 66.136 69.564C66.9305 71.2941 67.8501 72.9525 68.6634 74.6957L68.6723 74.7018C68.7648 74.8935 68.68 75.1064 68.4883 75.1963C68.3159 75.2678 68.1173 75.226 68.0149 75.0593C63.8589 68.6383 60.2796 61.8208 57.4143 54.687C55.9888 51.1171 54.7209 47.4809 53.6829 43.7818C52.6211 40.0821 51.8184 36.3079 51.1238 32.5605C50.7599 30.6832 50.4238 28.8248 49.9589 27.0208C49.4891 25.2292 48.8946 23.4776 47.9399 21.9707C46.0741 18.9075 42.886 16.7282 39.6447 14.988C38.0234 14.1651 36.268 13.4717 34.6387 13.5513C33.8288 13.5943 33.1148 13.8792 32.5173 14.3883C31.9198 14.8973 31.4535 15.6248 31.071 16.4106C30.3152 18.0203 29.8892 19.8595 29.4634 21.6983C29.0327 23.5495 28.6441 25.445 28.0037 27.3101C27.8305 27.7791 27.6571 28.2486 27.4506 28.7106C27.3568 28.9481 27.2349 29.1656 27.1173 29.4025L26.9355 29.7392L26.6976 30.0992C26.3861 30.5838 25.914 30.9893 25.4049 31.3049C24.8868 31.5824 24.3355 31.789 23.7919 31.8576C22.7085 32.0454 21.6876 31.9573 20.7133 31.8385C19.739 31.7197 18.789 31.5386 17.8579 31.4019C16.0099 31.1226 14.1519 30.898 12.5452 31.4073C11.7514 31.6528 11.0551 32.1097 10.5084 32.7336C9.96164 33.3575 9.52596 34.1223 9.23335 34.9545C9.07043 35.367 8.96034 35.7998 8.83514 36.2385C8.75259 36.6909 8.62722 37.131 8.56846 37.584C8.42716 38.4894 8.32778 39.4074 8.31488 40.3223C8.31315 40.783 8.30286 41.2388 8.35365 41.6882C8.36628 42.1429 8.46018 42.5735 8.52534 43.0169C8.71312 43.8799 9.01029 44.7084 9.47641 45.4143C10.4082 46.8575 12.0145 47.7496 13.7386 48.373C15.4771 48.9904 17.3326 49.4019 19.1824 49.8895C21.0321 50.3772 22.9098 50.916 24.7026 51.7305C26.4958 52.5134 28.1947 53.5971 29.6518 54.9271C32.5124 57.6615 34.5319 61.006 36.3313 64.3895C38.1114 67.7915 39.6272 71.3115 41.1249 74.82C42.6227 78.3286 44.1104 81.8321 45.7711 85.2627C45.8636 85.4543 45.7899 85.6724 45.5982 85.7623C45.4397 85.8594 45.217 85.7844 45.1245 85.5928Z" fill="black"/>
<path d="M43.6464 82.55C44.6854 83.4783 45.526 84.3654 46.5003 85.1533C47.4509 85.9406 48.575 86.5288 49.7698 86.8803C50.9739 87.2383 52.2382 87.3833 53.5007 87.3199C54.7587 87.2374 56.0338 86.9603 57.1171 86.4381C58.239 85.8789 59.3215 85.0858 60.3472 84.2528C61.3779 83.4073 62.3425 82.4831 63.2749 81.5216C64.1978 80.5535 65.0981 79.5553 65.889 78.4956C66.6705 77.4293 67.4047 76.2984 67.8504 75.0787L67.8558 75.065C67.9298 74.8775 68.1406 74.7689 68.3395 74.8433C68.5195 74.9045 68.6214 75.1047 68.5711 75.2928C68.1991 76.6911 67.5099 77.9164 66.7553 79.0969C65.9913 80.2709 65.157 81.3797 64.2426 82.4174C63.3282 83.4551 62.3581 84.4551 61.3072 85.3821C60.2563 86.3091 59.1528 87.1832 57.8715 87.9025C55.1631 89.224 52.1093 89.4132 49.274 88.5919C47.8611 88.1845 46.5137 87.4886 45.37 86.5513C44.2215 85.6266 43.3307 84.3552 43.0081 82.9208C42.9587 82.7113 43.091 82.5 43.3011 82.4547C43.43 82.4326 43.5482 82.4659 43.6376 82.5439L43.6464 82.55Z" fill="black"/>
<path d="M45.5834 90.3646C45.9938 90.299 46.3314 90.3263 46.6542 90.3911C46.9869 90.4309 47.294 90.5316 47.5922 90.659L48.5162 90.9669L49.4514 91.2178C50.7089 91.5015 52.0053 91.6851 53.3001 91.6919C54.5994 91.7178 55.9108 91.5923 57.1903 91.3337C58.4792 91.0816 59.7363 90.664 60.9578 90.1262C61.1495 90.0363 61.3684 90.1246 61.461 90.3162C61.5396 90.4823 61.474 90.6757 61.325 90.7793C60.1713 91.5712 58.868 92.1628 57.5145 92.609C56.1564 93.0361 54.7443 93.2674 53.3103 93.3391C51.8862 93.3859 50.4407 93.2749 49.0408 92.9562L48.0023 92.6958L46.9775 92.3676C46.6412 92.2457 46.3107 92.0805 46.0135 91.8901C45.7167 91.6681 45.4444 91.4134 45.2352 91.0611C45.1144 90.8498 45.1751 90.5734 45.391 90.4525C45.4391 90.4222 45.4974 90.399 45.545 90.4001L45.5834 90.3646Z" fill="black"/>
<path d="M67.0877 71.8479C69.291 72.541 71.5048 73.2089 73.6244 74.2249C74.6858 74.7288 75.7205 75.2988 76.6996 75.989C76.9534 76.1441 77.1635 76.3643 77.4042 76.5526C77.6315 76.7528 77.879 76.9239 78.0896 77.1442C78.5007 77.5883 78.9493 78.0066 79.283 78.5136C80.7426 80.4691 81.5755 82.6556 82.6076 84.6743C83.623 86.7132 84.7168 88.6907 85.9915 90.5603C87.2801 92.4394 88.5075 94.4455 89.7384 96.3376C90.9762 98.2344 92.3458 99.9789 93.9663 101.527C94.3629 101.919 94.7827 102.295 95.1892 102.662L95.4702 102.879C95.5664 102.946 95.6945 103.023 95.8044 103.099C96.0242 103.252 96.268 103.389 96.5013 103.53C97.4582 104.099 98.4729 104.634 99.477 105.172C101.499 106.237 103.552 107.261 105.591 108.369C106.102 108.65 106.613 108.931 107.121 109.241C107.375 109.396 107.637 109.555 107.908 109.754C108.173 109.949 108.419 110.162 108.657 110.38C109.588 111.28 110.252 112.303 110.878 113.267C111.504 114.231 112.089 115.166 112.814 115.881C113.531 116.612 114.362 117.105 115.334 117.325C116.317 117.562 117.435 117.565 118.63 117.664C119.812 117.753 121.159 118.021 122.302 118.783C123.394 119.52 124.225 120.521 124.888 121.522C125.556 122.536 126.083 123.568 126.658 124.528C127.222 125.492 127.841 126.365 128.589 127.043C129.34 127.734 130.203 128.164 131.237 128.405C132.258 128.658 133.394 128.749 134.577 128.945C135.167 129.048 135.774 129.173 136.379 129.37C136.987 129.56 137.583 129.868 138.083 130.152C142.285 132.455 145.637 135.914 148.415 139.653C149.805 141.539 151.054 143.517 152.175 145.555C152.727 146.595 153.266 147.583 153.748 148.712C154.234 149.854 154.517 151.087 154.606 152.303C154.804 154.749 154.37 157.042 154.479 159.225C154.548 161.4 155.244 163.472 156.252 165.463C157.24 167.462 158.495 169.403 159.555 171.505C160.084 172.56 160.562 173.654 160.922 174.804C161.279 175.962 161.474 177.178 161.546 178.392C161.682 180.816 161.247 183.182 160.65 185.446C160.043 187.714 159.234 189.895 158.395 192.043C157.562 194.197 156.684 196.309 155.943 198.452C155.767 198.987 155.573 199.518 155.421 200.059C155.343 200.322 155.252 200.597 155.184 200.858C155.137 201.11 155.055 201.361 155.025 201.615C154.863 202.646 154.905 203.735 155.023 204.855C155.134 205.969 155.306 207.136 155.313 208.358C155.324 209.573 155.137 210.884 154.573 212.048C153.477 214.358 151.49 215.975 149.471 217.188C147.434 218.4 145.317 219.303 143.454 220.497C142.527 221.093 141.66 221.761 140.927 222.533C140.274 223.255 139.865 224.201 139.591 225.271C139.297 226.326 139.097 227.499 138.628 228.666C138.388 229.252 138.061 229.829 137.647 230.346C137.215 230.841 136.695 231.316 136.145 231.601L135.333 232.065C135.059 232.203 134.782 232.307 134.501 232.419C134.22 232.531 133.943 232.657 133.666 232.761L132.823 233.032C132.264 233.227 131.695 233.384 131.129 233.531C130.56 233.687 129.998 233.825 129.432 233.951C127.161 234.471 124.878 234.845 122.597 235.189C120.31 235.528 118.03 235.808 115.746 236.075L108.896 236.838C107.759 236.97 106.622 237.1 105.502 237.254C104.477 237.411 103.49 237.807 102.518 238.34C101.55 238.864 100.596 239.503 99.5608 240.087C98.5353 240.666 97.3871 241.183 96.1355 241.405C94.7922 241.637 93.5589 241.32 92.422 241.007C91.278 240.668 90.1949 240.244 89.1353 239.869C84.8514 238.505 80.2706 237.602 75.914 235.912C74.823 235.483 73.751 235.003 72.6992 234.453C72.1849 234.16 71.6583 233.878 71.1637 233.535L70.7887 233.286C70.6582 233.195 70.5286 233.084 70.4013 232.985C70.1534 232.771 69.9222 232.536 69.7113 232.295C68.8809 231.295 68.4084 230.182 67.9109 229.159C67.6655 228.65 67.425 228.155 67.1498 227.699C66.8818 227.27 66.5245 226.8 66.1917 226.358C64.8262 224.563 63.2499 222.854 61.9464 220.88C60.6089 218.903 59.7203 216.655 59.1166 214.394C57.9024 209.866 57.6869 205.207 56.3608 200.94C55.6954 198.88 54.3184 197.087 52.8651 195.337C51.4252 193.576 49.8419 191.736 49.0229 189.4C48.8068 188.794 48.6842 188.285 48.493 187.75C48.3187 187.216 48.1132 186.692 47.9118 186.16C47.4954 185.109 47.0459 184.057 46.5956 183.003C45.705 180.892 44.7847 178.697 44.3939 176.34C43.97 174.044 43.7931 171.676 43.9738 169.335C44.1306 166.987 44.6421 164.696 45.1475 162.463C45.6629 160.227 46.1018 158.011 46.2906 155.76L46.3599 154.919L46.3886 154.071C46.4111 153.504 46.4333 152.937 46.4116 152.371C46.399 151.251 46.3442 150.08 46.3378 148.922C46.3293 144.289 46.75 139.657 47.7529 135.123C47.9893 134.059 48.0368 132.938 48.0274 131.809C48.0181 130.681 47.9474 129.552 47.8359 128.416C47.6267 126.153 47.2893 123.885 46.9135 121.623L46.3272 118.232C46.2788 117.933 46.2278 117.686 46.1596 117.437C46.0846 117.184 45.9891 116.938 45.8803 116.704C45.6523 116.217 45.3632 115.751 45.0537 115.271C44.4383 114.325 43.7133 113.326 43.4167 112.082C43.1096 110.821 43.4145 109.539 43.8886 108.449C44.366 107.351 44.9877 106.374 45.463 105.37C45.6972 104.865 45.8968 104.359 46.0289 103.847C46.1642 103.327 46.1779 102.807 46.1566 102.263C46.0971 101.195 45.7091 100.163 45.1647 99.1923C44.6236 98.2132 43.9639 97.2682 43.4049 96.2237C42.2423 94.1144 41.934 91.677 41.9825 89.3602C42.0477 87.0232 42.4649 84.7284 42.98 82.4708C43.0248 82.2689 43.2221 82.1419 43.4234 82.1863C43.6246 82.2308 43.7476 82.4333 43.7029 82.6351C43.2008 84.8594 42.811 87.1084 42.7584 89.3694C42.7293 91.615 43.0335 93.9006 44.1187 95.8292C44.6496 96.8119 45.3142 97.7499 45.8968 98.7791C46.4726 99.8034 46.9307 100.968 47.0096 102.208C47.0352 102.809 47.0197 103.445 46.8616 104.045C46.7138 104.641 46.499 105.211 46.2516 105.749C45.7432 106.814 45.1378 107.792 44.7034 108.803C44.2756 109.798 44.0482 110.879 44.3006 111.88C44.5428 112.885 45.1853 113.807 45.8282 114.772C46.1446 115.256 46.4725 115.758 46.7354 116.312C46.8619 116.59 46.9757 116.881 47.0752 117.183C47.1578 117.483 47.2226 117.804 47.2639 118.076L47.8656 121.47C48.2552 123.742 48.6078 126.018 48.8346 128.325C48.9497 129.474 49.036 130.635 49.046 131.807C49.0592 132.97 49.0246 134.163 48.7592 135.345C47.8026 139.784 47.4043 144.358 47.4424 148.916C47.4553 150.058 47.521 151.183 47.5379 152.359C47.5632 152.938 47.5398 153.526 47.5209 154.106L47.4924 154.974L47.4279 155.851C47.2436 158.179 46.8001 160.476 46.2983 162.721C45.7966 164.967 45.3247 167.182 45.1833 169.423C45.025 171.664 45.2025 173.914 45.6252 176.124C45.9965 178.309 46.8709 180.398 47.7648 182.501C48.2152 183.555 48.6713 184.613 49.1017 185.696C49.3169 186.237 49.5226 186.781 49.7109 187.346C49.9058 187.894 50.0615 188.5 50.2316 188.978C51.6574 193.081 56.0372 195.792 57.6047 200.533C59.0095 205.066 59.2187 209.7 60.4066 214.05C60.992 216.225 61.8216 218.294 63.0654 220.131C64.2924 221.989 65.8504 223.674 67.2712 225.529C67.6249 226.007 67.9712 226.438 68.3124 226.993C68.6362 227.524 68.898 228.056 69.147 228.578C69.6448 229.622 70.1026 230.639 70.7598 231.413C70.9292 231.605 71.0965 231.774 71.2859 231.937L71.5755 232.159L71.9256 232.381C72.379 232.696 72.865 232.949 73.3485 233.231C74.3353 233.747 75.3633 234.206 76.4098 234.615C78.5161 235.421 80.7055 236.061 82.9108 236.66C85.1198 237.272 87.3366 237.795 89.5848 238.53C90.6921 238.917 91.746 239.331 92.8148 239.639C93.8698 239.937 94.9471 240.176 95.8832 240C97.9458 239.653 99.7459 238.224 101.824 237.084C102.864 236.513 104.035 236.024 105.284 235.832C106.434 235.667 107.582 235.533 108.72 235.402L115.563 234.625C117.838 234.362 120.113 234.078 122.373 233.741C124.633 233.404 126.881 233.028 129.088 232.516C129.644 232.394 130.19 232.253 130.729 232.108C131.274 231.968 131.824 231.82 132.341 231.64L133.137 231.378C133.401 231.286 133.646 231.17 133.897 231.068C134.143 230.953 134.413 230.866 134.646 230.741L135.333 230.361C135.805 230.117 136.136 229.786 136.461 229.429C136.765 229.058 137.007 228.622 137.204 228.144C137.595 227.177 137.795 226.076 138.104 224.915C138.397 223.774 138.883 222.523 139.787 221.542C140.641 220.642 141.607 219.904 142.604 219.262C144.612 217.967 146.735 217.069 148.65 215.921C149.598 215.339 150.487 214.706 151.262 213.963C151.658 213.603 151.987 213.187 152.324 212.775C152.614 212.33 152.925 211.9 153.133 211.441C154.045 209.596 153.686 207.378 153.432 205.074C153.313 203.911 153.247 202.679 153.44 201.437C153.484 201.128 153.571 200.818 153.631 200.51C153.705 200.212 153.793 199.945 153.881 199.656C154.036 199.087 154.234 198.547 154.42 197.987C155.177 195.782 156.053 193.647 156.876 191.518C157.699 189.39 158.488 187.259 159.066 185.088C159.633 182.919 160.027 180.704 159.897 178.528C159.827 177.442 159.66 176.384 159.339 175.335C159.012 174.303 158.564 173.283 158.067 172.282C157.062 170.282 155.805 168.35 154.747 166.24C154.229 165.181 153.73 164.094 153.397 162.92C153.057 161.763 152.833 160.538 152.792 159.334C152.679 156.916 153.1 154.625 152.906 152.478C152.823 151.404 152.585 150.372 152.17 149.406C151.751 148.427 151.188 147.39 150.66 146.399C149.567 144.423 148.356 142.502 147.014 140.692C144.334 137.085 141.111 133.809 137.221 131.691C136.72 131.407 136.289 131.193 135.801 131.034C135.312 130.875 134.786 130.764 134.254 130.67C133.17 130.489 132.007 130.401 130.792 130.108C130.188 129.953 129.57 129.767 128.987 129.469C128.398 129.166 127.857 128.79 127.388 128.359C126.43 127.503 125.72 126.46 125.114 125.447C124.507 124.433 123.979 123.421 123.381 122.519C122.784 121.617 122.106 120.828 121.282 120.277C120.5 119.755 119.525 119.545 118.429 119.461C117.339 119.361 116.141 119.377 114.882 119.085C113.607 118.814 112.38 118.089 111.506 117.175C110.596 116.268 109.961 115.235 109.332 114.28C108.713 113.321 108.109 112.413 107.371 111.711C106.995 111.355 106.641 111.099 106.144 110.806C105.671 110.52 105.173 110.25 104.676 109.979L98.5913 106.771C97.5734 106.223 96.5557 105.675 95.5471 105.06C95.2932 104.905 95.0357 104.758 94.7815 104.581C94.651 104.491 94.531 104.419 94.3936 104.324L93.9917 104.012C93.5404 103.603 93.1157 103.213 92.6948 102.794C90.9982 101.15 89.527 99.25 88.2781 97.2926L84.5927 91.4636C83.3235 89.5133 82.2353 87.4344 81.2531 85.3338C80.2505 83.2403 79.4619 81.0733 78.1887 79.3106C76.9691 77.5006 75.1014 76.2252 73.1075 75.2012L71.5794 74.458L70.0058 73.809C68.9587 73.3575 67.8724 73.0067 66.7988 72.6003L66.7859 72.5913C66.5876 72.5172 66.495 72.3043 66.5669 72.1001C66.7033 71.8878 66.8999 71.7916 67.0877 71.8479Z" fill="black"/>
<path d="M50.8013 87.9174C50.0034 87.1087 49.5314 86.1449 49.1501 85.1634L48.0162 82.2261C47.2487 80.2757 46.5099 78.3133 45.6943 76.3933C44.898 74.4548 44.0525 72.5469 43.1265 70.6935C42.2055 68.8277 41.1793 67.0159 39.9943 65.3013C39.8776 65.1406 39.9139 64.8946 40.0917 64.779C40.2551 64.6695 40.4604 64.701 40.587 64.8367C42.0118 66.431 43.2003 68.2281 44.2883 70.0665C45.3621 71.9109 46.3155 73.8136 47.2024 75.7354C48.0701 77.6757 48.899 79.6219 49.6759 81.5788L50.8358 84.5168C51.2171 85.4983 51.5167 86.5032 51.5007 87.6389C51.4976 87.8597 51.3182 88.0373 51.0897 88.038C50.9801 88.0416 50.8812 87.9888 50.8013 87.9174Z" fill="black"/>
<path d="M59.3554 84.2967C58.7537 84.0861 58.4647 83.6953 58.2657 83.2864L57.6683 82.028C57.2659 81.1912 56.9027 80.3493 56.5098 79.519C55.7576 77.8341 55.0002 76.1924 54.2193 74.5194C54.1268 74.3278 54.2149 74.1037 54.3922 74.0197C54.5552 73.9417 54.731 73.9832 54.8388 74.1058C56.0754 75.5376 57.0575 77.1596 57.9678 78.779C58.4132 79.5979 58.8575 80.417 59.2599 81.2538L59.8808 82.4813C60.0892 82.8967 60.2111 83.3467 60.0311 83.9544C59.9463 84.23 59.6597 84.3815 59.3895 84.3054C59.38 84.2989 59.3648 84.3032 59.3554 84.2967Z" fill="black"/>
<path d="M66.1477 77.6561C65.6341 77.6181 65.423 77.393 65.2982 77.1311L64.9143 76.3395C64.6503 75.8218 64.4208 75.2782 64.1855 74.7485C63.7341 73.6706 63.3015 72.5749 63.0032 71.444C62.9489 71.247 63.0709 71.0301 63.2716 70.9783C63.4198 70.9378 63.5751 70.9968 63.6641 71.1063L63.6832 71.1196C64.4273 72.0343 65.0465 73.0207 65.642 74.0075C65.9253 74.5068 66.223 75.0021 66.4777 75.5134L66.8865 76.275C67.0162 76.5244 67.0646 76.8268 66.82 77.2941L66.8146 77.3077C66.6589 77.55 66.4045 77.6751 66.1477 77.6561Z" fill="black"/>
<path d="M73.8237 188.502C74.2353 188.342 74.3577 188.365 74.3995 188.442L74.5208 188.653C74.6092 188.794 74.6549 188.953 74.724 189.113C74.8242 189.437 74.9055 189.781 74.8804 190.209L74.88 190.239C74.867 190.484 74.6443 190.682 74.3875 190.663C74.3399 190.662 74.2983 190.648 74.2651 190.641C73.8767 190.498 73.6073 190.265 73.3536 190.025C73.2364 189.896 73.1154 189.779 73.0224 189.619L72.8774 189.406C72.8307 189.342 72.8563 189.216 73.1938 188.909C73.3819 188.737 73.5887 188.611 73.8136 188.528L73.8237 188.502Z" fill="black"/>
<path d="M74.7157 228.056C74.7709 227.855 74.8165 227.71 74.8412 227.648C74.8708 227.573 74.8805 227.548 74.8805 227.548L74.9085 227.568C74.9274 227.581 74.9465 227.626 74.9793 227.664L75.1173 227.952C75.1497 228.022 75.1813 228.155 75.1701 228.274C75.1539 228.407 75.087 228.456 75.03 228.448C75.008 228.656 74.8386 228.81 74.6294 228.793C74.4202 228.775 74.2654 228.588 74.2825 228.392C74.2255 228.385 74.1577 228.434 74.1321 228.559C74.1209 228.679 74.1525 228.812 74.1848 228.882C74.2445 229.035 74.2814 229.093 74.2948 229.15C74.3276 229.189 74.3324 229.239 74.3419 229.245L74.3556 229.272C74.3556 229.272 74.3902 229.183 74.5055 228.769C74.3111 228.714 74.1913 228.503 74.2465 228.303C74.3112 228.109 74.5213 228.001 74.7157 228.056Z" fill="black"/>
<path d="M84.5704 228.956C84.9169 228.687 84.994 228.643 85.0223 228.662L85.0697 228.728C85.1119 228.773 85.12 228.842 85.1335 228.899C85.1506 229.038 85.1478 229.198 85.0396 229.441C84.9314 229.685 84.7347 229.849 84.5097 229.932L84.494 229.938C84.231 230.027 84.0695 230.01 83.9316 229.993C83.8701 229.967 83.8001 229.965 83.7579 229.92L83.6813 229.867C83.6624 229.854 83.707 229.773 84.0113 229.459C84.1756 229.286 84.3778 229.109 84.5704 228.956Z" fill="black"/>
<path d="M58.4823 191.43C58.9303 191.391 59.0571 191.463 59.0984 191.571L59.2083 191.902C59.2909 192.118 59.3317 192.354 59.395 192.589C59.4741 193.058 59.5482 193.539 59.4693 194.074C59.4374 194.307 59.2303 194.465 59.0023 194.434C58.912 194.419 58.8402 194.387 58.7791 194.329C58.3795 193.972 58.1183 193.567 57.8718 193.156C57.7653 192.939 57.6409 192.741 57.5632 192.512L57.4295 192.18C57.3882 192.072 57.4321 191.927 57.7975 191.671C57.9946 191.537 58.2344 191.449 58.4823 191.43Z" fill="black"/>
<path d="M95.1589 229.154C95.3218 228.741 95.4086 228.674 95.4607 228.694L95.6317 228.75C95.7408 228.778 95.8437 228.849 95.9524 228.908C96.1598 229.052 96.3578 229.221 96.5204 229.509L96.5307 229.516C96.6699 229.772 96.5845 230.079 96.3443 230.231C96.0561 230.413 95.7987 230.457 95.5509 230.476C95.4319 230.473 95.3068 230.483 95.1883 230.448L95.0087 230.418C94.9517 230.411 94.9093 230.302 94.9726 229.868C94.9999 229.616 95.0704 229.378 95.1543 229.166L95.1589 229.154Z" fill="black"/>
<path d="M67.7398 184.507C68.2157 184.519 68.3658 184.655 68.43 184.827L68.6243 185.343C68.7577 185.674 68.8522 186.042 68.9712 186.38C69.1612 187.085 69.3309 187.81 69.3723 188.587L69.3676 188.599C69.3789 188.814 69.2092 188.999 68.9995 189.013C68.8756 189.022 68.7532 188.969 68.6831 188.873C68.182 188.286 67.8096 187.645 67.4571 186.986C67.2999 186.654 67.1203 186.322 66.9869 185.991L66.7656 185.486C66.692 185.307 66.7084 185.114 67.0464 184.775C67.2345 184.603 67.4874 184.507 67.7398 184.507Z" fill="black"/>
<path d="M53.2238 168.825C53.6763 168.805 53.7895 168.883 53.8164 168.998L53.8917 169.354C53.9138 169.48 53.9365 169.606 53.9343 169.764C53.933 169.859 53.9406 169.928 53.9195 170.072C53.9083 170.192 53.8485 170.373 53.8095 170.441C53.7852 170.472 53.7918 170.398 53.7873 170.379C53.7783 170.341 53.763 170.378 53.7581 170.391C53.7478 170.447 53.7137 170.536 53.7123 170.63C53.6859 170.819 53.6587 171.038 53.5887 171.276L53.5833 171.29C53.5133 171.528 53.2741 171.647 53.0465 171.584C52.9801 171.57 52.9233 171.532 52.8717 171.48C52.6885 171.305 52.5571 171.118 52.4269 170.9C52.3712 170.798 52.3117 170.676 52.2664 170.518C52.2533 170.429 52.2261 170.347 52.2328 170.208C52.2202 170.088 52.2658 169.912 52.2811 169.843C52.2815 169.812 52.251 169.886 52.2461 169.899C52.2407 169.943 52.2317 169.904 52.2223 169.897C52.1945 169.846 52.1777 169.771 52.1597 169.694L52.0823 169.434C52.0598 169.339 52.1177 169.221 52.5065 168.997L52.5254 168.978C52.7503 168.895 52.9952 168.826 53.2238 168.825Z" fill="black"/>
</svg>
