<svg width="292" height="156" viewBox="0 0 292 156" fill="none" xmlns="http://www.w3.org/2000/svg">
<path d="M238.878 59.5707C238.662 59.5707 238.301 59.4961 238.013 59.4211L237.076 59.2707C236.499 59.1956 235.85 59.1207 235.346 59.0456C235.058 59.0456 234.77 59.0456 234.553 59.0456C234.337 59.0456 234.048 59.1201 233.76 59.1952C233.472 59.2703 233.184 59.346 232.896 59.4211C232.607 59.4961 232.319 59.5708 232.031 59.721C229.796 60.4719 227.634 61.8985 225.111 62.9498C223.813 63.4754 222.444 63.7759 221.075 63.851C220.354 63.851 219.633 63.8509 218.912 63.7007C218.192 63.5505 217.399 63.2503 216.75 62.7247C216.101 62.199 215.597 61.4482 215.309 60.6222C215.237 60.397 215.164 60.2469 215.164 60.0216C215.164 59.7964 215.092 59.6463 215.092 59.4211C215.092 59.0456 215.092 58.6701 215.092 58.2947C215.165 57.4687 215.525 56.7175 215.958 56.1167C216.39 55.4409 216.966 54.9906 217.543 54.5401C218.696 53.7141 219.994 53.1127 221.363 52.8124C222.661 52.4369 223.958 52.2119 225.255 51.9867C227.85 51.6112 230.517 51.5361 233.184 51.9867C235.85 52.4372 238.446 53.4888 240.464 55.291C241.473 56.1921 242.41 57.3934 242.554 58.8953C242.554 59.2707 242.626 59.7962 242.193 60.2468C242.121 60.397 241.977 60.3968 241.833 60.4719C241.689 60.547 241.545 60.5474 241.473 60.5474C241.256 60.5474 241.04 60.5474 240.824 60.5474C240.464 60.4723 240.103 60.3222 239.815 60.172C239.671 60.0969 239.527 60.0215 239.383 59.8713L239.166 59.721L238.878 59.5707ZM239.31 58.7449L239.526 58.8953L239.743 59.0456C239.887 59.1207 239.959 59.1956 240.103 59.2707C240.392 59.4209 240.608 59.4959 240.896 59.4959C241.112 59.5709 241.328 59.4961 241.256 59.4211C241.256 59.4211 241.328 59.1953 241.256 58.9701C241.112 57.9188 240.319 56.9424 239.454 56.1915C237.58 54.6897 235.274 53.7889 232.823 53.4885C230.373 53.1881 227.922 53.2631 225.471 53.7136C224.246 53.9389 223.021 54.2397 221.867 54.5401C220.714 54.9155 219.633 55.3661 218.768 56.0419C217.903 56.7177 217.254 57.5432 217.182 58.4443C217.182 58.6696 217.182 58.8948 217.182 59.1952C217.182 59.3454 217.183 59.4205 217.255 59.5707C217.255 59.7208 217.327 59.7959 217.327 59.9461C217.471 60.3967 217.687 60.6973 218.047 60.9977C218.696 61.5233 219.85 61.6734 221.003 61.5983C222.156 61.5232 223.309 61.2231 224.39 60.7726C226.624 59.8715 228.715 58.4444 231.382 57.4682C232.03 57.243 232.751 57.0926 233.4 56.9424C234.12 56.8673 234.914 56.8678 235.635 57.018C236.355 57.1682 237.004 57.393 237.653 57.6934C237.941 57.8435 238.229 57.9942 238.518 58.1443C238.734 58.3696 238.95 58.5197 239.31 58.7449Z" fill="black"/>
<path d="M151.268 139.391C150.19 139.616 149.112 139.69 148.111 139.916C147.11 140.141 146.032 140.291 145.031 140.592C142.951 141.042 140.872 141.793 138.715 142.319C137.637 142.619 136.482 142.845 135.404 142.995C135.096 143.07 134.864 143.07 134.556 143.07C134.248 143.07 134.017 143.145 133.632 143.145C132.862 143.145 132.246 142.995 131.63 142.77C130.397 142.244 129.319 141.493 128.549 140.216C128.395 139.916 128.241 139.54 128.164 139.165C128.087 138.94 128.087 138.79 128.087 138.564L128.087 138.264L128.087 138.039C128.164 137.363 128.395 136.687 128.703 136.087C129.396 134.885 130.475 134.134 131.553 133.609C132.631 133.083 133.786 132.782 134.941 132.557C137.251 132.182 139.485 132.182 141.796 132.407C142.951 132.557 144.029 132.707 145.185 133.083C145.724 133.233 146.263 133.458 146.802 133.684C147.033 133.834 147.341 133.984 147.572 134.059C147.803 134.209 148.034 134.284 148.265 134.434C149.267 134.96 150.268 135.411 151.192 136.087C151.654 136.462 152.116 136.837 152.501 137.438C152.655 137.738 152.732 138.264 152.501 138.64C152.347 139.015 152.039 139.24 151.808 139.466C151.731 139.616 151.422 139.541 151.268 139.391C151.114 139.165 151.192 138.865 151.346 138.715C151.5 138.564 151.654 138.415 151.731 138.264C151.808 138.114 151.731 138.039 151.654 137.889C151.499 137.589 151.038 137.288 150.652 136.988C149.805 136.462 148.804 136.011 147.803 135.561C147.572 135.411 147.264 135.335 147.033 135.185C146.802 135.035 146.571 134.96 146.34 134.885C145.878 134.735 145.338 134.585 144.876 134.434C143.875 134.209 142.797 134.059 141.719 133.984C139.64 133.834 137.483 133.909 135.404 134.36C134.402 134.585 133.401 134.885 132.554 135.336C131.707 135.786 130.937 136.387 130.552 137.138C130.398 137.513 130.244 137.889 130.167 138.339C130.09 138.715 130.166 138.94 130.32 139.315C130.628 139.916 131.475 140.517 132.245 140.817C132.631 140.967 133.093 141.042 133.478 141.042C133.632 141.042 133.94 140.967 134.171 140.967C134.402 140.967 134.71 140.892 134.941 140.892C135.942 140.742 137.02 140.517 138.022 140.216C140.101 139.691 142.181 138.94 144.415 138.414C146.571 137.888 149.035 137.739 151.268 138.489C151.499 138.565 151.654 138.865 151.577 139.09C151.654 139.24 151.499 139.391 151.268 139.391Z" fill="black"/>
<path d="M60.564 82.9226C60.7802 83.7486 60.6363 84.7998 60.1318 85.5506C59.6272 86.3766 58.8341 86.8268 58.0412 87.1272C57.2484 87.4275 56.5279 87.5775 55.8071 87.7277L54.7259 87.9535C54.3655 88.0286 53.9327 88.1031 53.5723 88.1031C52.7794 88.1782 52.0592 88.1782 51.2663 88.1031C50.906 88.1031 50.4731 88.0283 50.1127 88.0283C49.6081 87.9532 49.2476 87.8783 48.8872 87.8032C48.1664 87.578 47.4457 87.3524 46.7249 87.1272C46.0041 86.8268 45.2833 86.5269 44.5626 86.0764C44.4184 85.9262 44.2023 85.7759 43.9861 85.5506C43.8419 85.3254 43.5539 84.9497 43.5539 84.4992C43.5539 83.9736 43.9141 83.5986 44.1304 83.4484C44.3466 83.2231 44.5631 83.1481 44.7794 83.073C45.5722 82.7726 46.2924 82.5471 47.0853 82.3969C48.5989 82.1716 50.1127 82.3218 51.5542 82.3969C52.9958 82.5471 54.4376 82.6974 55.8071 82.5472C56.5279 82.4721 57.2487 82.3221 57.9694 82.3221C58.3298 82.3221 58.6899 82.2466 59.1224 82.2466C59.3386 82.2466 59.4831 82.247 59.7714 82.3221C59.9155 82.3221 59.9876 82.3969 60.1318 82.3969C60.2038 82.3969 60.2758 82.4721 60.3479 82.5472C60.4199 82.6223 60.564 82.6974 60.564 82.9226ZM59.6271 83.073C59.6992 83.2231 59.771 83.2225 59.6989 83.2225C59.6989 83.2225 59.6274 83.2228 59.5553 83.1478C59.4111 83.1478 59.2666 83.1478 59.1224 83.1478C58.762 83.1478 58.402 83.1475 58.1137 83.2225C57.393 83.2976 56.6722 83.373 55.9514 83.5232C54.3657 83.7484 52.924 83.5983 51.4824 83.5232C50.0409 83.5232 48.5995 83.448 47.3021 83.7483C46.6534 83.8985 46.0047 84.1236 45.5001 84.3488C45.356 84.4239 45.2836 84.4992 45.2115 84.4992C45.1395 84.5742 45.2115 84.4994 45.2115 84.4244C45.2115 84.2742 45.1395 84.2737 45.2115 84.3488C45.2836 84.4239 45.356 84.4996 45.5001 84.5747C46.0047 84.875 46.6534 85.1003 47.3021 85.3255C47.9508 85.5508 48.5993 85.7004 49.3201 85.8505C49.6084 85.9256 50.041 86.0009 50.1852 86.0009C50.5456 86.0009 50.906 86.0009 51.2663 86.0009C51.9871 86.0009 52.6357 86.0012 53.2844 85.9261C53.6448 85.851 53.9327 85.8508 54.293 85.7758L55.3024 85.5506C55.9511 85.4005 56.672 85.2502 57.2487 85.0249C57.8253 84.7996 58.4018 84.6496 58.9063 84.4244C59.1946 84.3493 59.3386 84.1987 59.4828 83.9734C59.5549 83.8983 59.555 83.7481 59.6271 83.598C59.6992 83.3727 59.6271 83.2231 59.6271 83.073Z" fill="black"/>
<path d="M93.7922 57.619C93.576 57.3186 93.2877 57.0932 93.0715 56.7177L92.8547 56.4178C92.7826 56.2676 92.7832 56.1926 92.7111 56.0424C92.7111 55.8922 92.7111 55.7419 92.7111 55.5166C92.7832 55.3664 92.8551 55.141 92.9272 54.9908C92.9992 54.8407 93.1434 54.6905 93.2876 54.6154C93.4317 54.5403 93.5038 54.3903 93.6479 54.3903C93.8642 54.2401 94.08 54.1647 94.2962 54.0896C94.7287 53.9394 95.0895 53.9396 95.4499 53.8645C95.8102 53.8645 96.1706 53.8645 96.531 53.8645L96.8189 53.8645L97.1793 53.8645C97.3955 53.8645 97.612 53.9397 97.8283 54.0148C98.6932 54.2401 99.4139 54.7654 99.9906 55.216C101.144 56.2672 101.865 57.3934 102.658 58.4447C102.874 58.6699 103.018 58.8952 103.234 59.1955L103.883 59.9464C104.315 60.4721 104.748 60.9981 105.18 61.5237C105.396 61.8241 105.613 62.1246 105.757 62.425C105.973 62.7253 106.117 63.0257 106.261 63.5513C106.261 63.7015 106.333 63.8514 106.333 64.0015C106.333 64.2268 106.262 64.5272 106.045 64.7524C105.757 64.9777 105.541 65.0531 105.325 65.0531C105.18 65.0531 105.036 65.0531 104.892 65.0531C104.387 64.978 104.099 64.8278 103.739 64.6776C102.441 64.0769 101.288 63.3254 100.207 62.5746C99.0534 61.8237 97.9726 61.0731 96.8914 60.2471C95.8102 59.4211 94.7292 58.6702 93.7922 57.619ZM94.4405 57.0184C96.2424 58.8205 98.5487 60.3225 100.783 61.6741C101.936 62.3499 103.09 62.9504 104.243 63.401C104.532 63.4761 104.82 63.6261 105.036 63.6261C105.108 63.6261 105.108 63.6261 105.108 63.6261C105.108 63.6261 105.036 63.6262 104.892 63.7764C104.747 63.9266 104.747 64.0763 104.747 64.0763C104.747 64.0763 104.747 64.1514 104.747 64.0763C104.675 63.9262 104.531 63.6262 104.387 63.401C104.243 63.1757 104.027 62.9504 103.81 62.6501C103.378 62.1996 102.946 61.6736 102.513 61.2231L101.792 60.5477C101.576 60.3225 101.288 60.0221 101.072 59.7968C100.135 58.7456 99.4139 57.6938 98.549 56.9429C98.1166 56.5674 97.6842 56.3422 97.2518 56.192C97.1797 56.192 97.0353 56.1172 96.9632 56.1172L96.8189 56.1172L96.6028 56.1172L95.6659 56.192C95.3776 56.192 95.0892 56.2671 94.8009 56.192C94.5847 56.192 94.3687 56.1923 94.3687 56.1172L94.3687 56.0424C94.3687 56.0424 94.3683 56.0424 94.2962 56.0424L94.2244 56.1172L94.2244 56.2675C94.1523 56.4928 94.2963 56.718 94.4405 57.0184Z" fill="black"/>
<path d="M208.893 103.874C209.397 104.175 209.47 104.4 209.398 104.55L209.253 105.151C209.109 105.526 208.966 105.902 208.749 106.277C208.317 107.028 207.74 107.629 207.019 108.079C206.803 108.23 206.443 108.155 206.298 107.854C206.226 107.704 206.227 107.629 206.227 107.479C206.443 106.728 206.586 106.127 206.731 105.526C206.803 105.226 206.875 104.926 206.947 104.55L207.019 104.1C207.091 103.95 207.163 103.8 207.74 103.725C208.317 103.65 208.605 103.724 208.893 103.874Z" fill="black"/>
<path d="M200.387 103.725C200.676 104.175 200.676 104.4 200.532 104.551L200.171 104.851C199.955 105.077 199.667 105.227 199.379 105.452C198.802 105.752 198.153 105.978 197.432 105.978C197.144 105.978 196.928 105.752 196.928 105.452C196.928 105.377 196.999 105.226 196.999 105.151C197.36 104.625 197.792 104.25 198.081 103.874C198.297 103.724 198.442 103.499 198.658 103.274L198.946 102.974C199.018 102.899 199.234 102.898 199.739 103.123C200.027 103.274 200.243 103.499 200.387 103.725Z" fill="black"/>
<path d="M201.109 114.609C201.325 115.134 201.325 115.284 201.181 115.434L200.821 115.735C200.532 115.96 200.244 116.11 200.027 116.26C199.451 116.56 198.802 116.861 198.154 117.011C197.865 117.086 197.577 116.861 197.577 116.561C197.577 116.411 197.577 116.335 197.649 116.26C198.009 115.659 198.37 115.209 198.802 114.683C199.018 114.458 199.235 114.232 199.451 114.007L199.811 113.707C199.956 113.632 200.099 113.557 200.604 113.858C200.748 114.083 200.964 114.308 201.109 114.609Z" fill="black"/>
<path d="M173.293 113.486C173.447 114.011 173.447 114.161 173.37 114.161L173.216 114.237C173.062 114.312 172.985 114.312 172.831 114.312C172.523 114.312 172.292 114.236 171.984 114.011C171.676 113.861 171.598 113.486 171.675 113.185L171.675 113.111C171.829 112.735 171.984 112.51 172.138 112.36C172.215 112.285 172.292 112.209 172.446 112.134L172.6 112.059C172.677 112.059 172.754 112.134 172.985 112.585C173.062 112.96 173.216 113.261 173.293 113.486Z" fill="black"/>
<path d="M189.792 114.162C189.936 114.688 189.864 114.838 189.792 114.913L189.504 115.063C189.288 115.138 189.071 115.214 188.855 115.214C188.423 115.289 187.918 115.288 187.414 115.138C187.125 115.063 186.981 114.688 187.053 114.387C187.053 114.312 187.126 114.313 187.126 114.238C187.414 113.862 187.702 113.562 188.063 113.336C188.207 113.261 188.351 113.111 188.567 113.036L188.855 112.885C188.927 112.81 189.071 112.886 189.432 113.336C189.576 113.562 189.72 113.862 189.792 114.162Z" fill="black"/>
<path d="M184.46 109.431C184.316 109.957 184.171 110.107 184.027 110.107L183.523 110.107C183.163 110.107 182.874 110.107 182.514 110.107C181.865 110.032 181.216 109.957 180.567 109.656C180.279 109.581 180.207 109.281 180.279 108.981C180.352 108.906 180.423 108.755 180.496 108.755C181.144 108.38 181.793 108.23 182.369 108.08C182.658 108.005 183.018 107.929 183.306 107.929L183.811 107.854C183.955 107.854 184.171 107.929 184.316 108.455C184.532 108.831 184.532 109.131 184.46 109.431Z" fill="black"/>
<path d="M183.378 124.147C183.018 124.672 182.73 124.748 182.441 124.672L181.576 124.522C181 124.447 180.423 124.297 179.846 124.147C178.693 123.846 177.54 123.321 176.603 122.495C176.387 122.345 176.387 122.045 176.531 121.819C176.675 121.669 176.819 121.669 176.963 121.669C178.044 121.894 179.054 121.97 180.135 122.12C180.639 122.195 181.216 122.194 181.792 122.269L182.658 122.345C182.946 122.42 183.234 122.57 183.378 123.096C183.595 123.546 183.522 123.846 183.378 124.147Z" fill="black"/>
<path d="M175.451 113.711C175.09 114.162 174.946 114.161 174.874 114.161L174.657 114.011C174.513 113.936 174.369 113.786 174.225 113.635C174.009 113.335 173.721 113.035 173.649 112.509C173.577 112.209 173.793 111.833 174.153 111.833L174.225 111.833L174.297 111.833C174.729 111.833 175.09 111.909 175.378 111.984C175.522 112.059 175.667 112.059 175.811 112.209L176.027 112.359C176.099 112.434 176.099 112.509 175.883 113.035C175.811 113.185 175.595 113.486 175.451 113.711Z" fill="black"/>
<path d="M170.043 117.164C169.538 117.389 169.322 117.314 169.178 117.164L168.889 116.714C168.673 116.413 168.529 116.113 168.385 115.812C168.097 115.212 167.808 114.536 167.736 113.785C167.736 113.484 167.88 113.259 168.168 113.184C168.312 113.184 168.384 113.184 168.529 113.259C169.177 113.634 169.61 114.161 170.043 114.611C170.259 114.836 170.475 115.062 170.691 115.362L170.98 115.738C171.052 115.888 171.052 116.038 170.764 116.489C170.619 116.864 170.331 117.014 170.043 117.164Z" fill="black"/>
<path d="M169.898 106.576C169.466 106.952 169.322 106.952 169.25 106.876L169.106 106.727C168.962 106.652 168.889 106.502 168.817 106.351C168.673 106.051 168.529 105.75 168.529 105.3C168.529 104.924 168.817 104.699 169.178 104.699L169.25 104.699C169.682 104.699 169.971 104.774 170.259 104.924C170.403 104.999 170.547 105.074 170.619 105.149L170.764 105.3C170.836 105.375 170.763 105.45 170.475 105.9C170.403 106.201 170.187 106.426 169.898 106.576Z" fill="black"/>
<path d="M209.758 58.4436C210.19 58.8191 210.263 58.9695 210.191 59.1197L209.974 59.5699C209.83 59.8702 209.686 60.1707 209.614 60.471C209.325 61.0716 208.965 61.597 208.532 62.1977C208.316 62.4229 208.028 62.4234 207.812 62.2732C207.74 62.1981 207.668 62.0477 207.668 61.9726C207.524 61.2218 207.596 60.5462 207.74 59.8705C207.812 59.5702 207.884 59.1949 208.028 58.8946L208.172 58.3689C208.244 58.2187 208.389 58.0687 208.965 58.1438C209.182 58.1438 209.542 58.2935 209.758 58.4436Z" fill="black"/>
<path d="M200.244 59.0431C200.748 59.1933 200.893 59.3434 200.893 59.4185L200.821 59.7183C200.821 59.9435 200.749 60.0935 200.676 60.3187C200.532 60.6941 200.388 61.0694 200.1 61.4448C199.884 61.67 199.523 61.7452 199.307 61.5951C199.235 61.5951 199.234 61.5199 199.162 61.4448C198.802 60.9944 198.73 60.5441 198.658 60.0937C198.658 59.8684 198.586 59.6437 198.658 59.4185L198.658 59.1179C198.658 59.0428 198.803 58.8928 199.379 58.8928C199.667 58.8928 199.955 58.968 200.244 59.0431Z" fill="black"/>
<path d="M206.37 45.6774C206.586 46.2031 206.514 46.4288 206.37 46.5039L205.937 46.8793C205.649 47.1046 205.361 47.3294 205.145 47.5547C204.568 48.0052 204.064 48.4559 203.415 48.8314C203.199 48.9816 202.838 48.9063 202.694 48.6811C202.622 48.606 202.622 48.4558 202.622 48.3056C202.767 47.4796 203.199 46.7287 203.631 46.0529C203.847 45.7525 204.136 45.4527 204.424 45.1524L204.856 44.7769C205.001 44.6267 205.217 44.6264 205.721 44.8517C206.01 45.1521 206.225 45.3771 206.37 45.6774Z" fill="black"/>
<path d="M221.436 46.8767C221.364 47.4774 221.22 47.6276 221.004 47.6276L220.426 47.7779C220.066 47.853 219.634 47.928 219.273 48.0031C218.481 48.1532 217.76 48.3031 216.967 48.4533C216.678 48.5284 216.462 48.3031 216.39 48.0778C216.39 47.9277 216.39 47.7775 216.462 47.7024C217.039 46.9515 217.832 46.4257 218.624 46.0503C219.057 45.9001 219.417 45.7502 219.85 45.6L220.499 45.4497C220.715 45.3746 220.931 45.4498 221.292 45.9755C221.364 46.2758 221.436 46.5763 221.436 46.8767Z" fill="black"/>
<path d="M226.407 41.2478C226.191 41.7735 226.046 41.8484 225.902 41.8484L225.469 41.7736C225.181 41.6985 224.893 41.6229 224.677 41.5478C224.172 41.3976 223.74 41.1729 223.307 41.0227L223.164 40.9472C222.875 40.8721 222.803 40.5722 222.875 40.2718C222.875 40.1967 222.947 40.1215 223.019 40.1215C223.308 39.8962 223.667 39.7456 224.028 39.6705C224.388 39.5954 224.677 39.5957 224.965 39.5957C225.254 39.5957 225.541 39.5954 225.83 39.6705L226.19 39.746C226.334 39.746 226.407 39.8958 226.479 40.4214L226.479 40.5717C226.551 40.7219 226.479 41.0226 226.407 41.2478Z" fill="black"/>
<path d="M243.561 46.5038C243.057 46.8792 242.768 46.804 242.552 46.7289L241.831 46.3534C241.327 46.1281 240.894 45.8278 240.39 45.6025C239.453 45.0768 238.444 44.5509 237.507 43.8C237.29 43.6498 237.219 43.3498 237.435 43.1245C237.507 42.9744 237.723 42.8994 237.867 42.8994C239.02 43.0496 240.102 43.35 241.183 43.6504C241.687 43.8756 242.263 44.0257 242.768 44.251L243.561 44.6264C243.849 44.7766 243.993 45.0017 243.993 45.6025C243.993 46.0531 243.777 46.3536 243.561 46.5038Z" fill="black"/>
<path d="M239.454 50.862C239.165 51.3126 239.021 51.3874 238.877 51.3123L238.589 51.1627C238.372 51.0876 238.228 50.9371 238.084 50.862C237.796 50.5616 237.436 50.3365 237.219 49.8859C237.075 49.5855 237.219 49.21 237.507 49.1349C237.579 49.1349 237.58 49.1345 237.652 49.0594L237.723 49.0594C238.228 48.9092 238.661 48.9843 239.022 49.0594C239.238 49.1345 239.382 49.1346 239.598 49.2097L239.886 49.2853C239.958 49.3604 240.03 49.4355 239.886 50.0362C239.814 50.3366 239.67 50.6367 239.454 50.862Z" fill="black"/>
<path d="M250.985 50.1846C251.561 50.1846 251.777 50.3348 251.922 50.56L252.282 51.311C252.498 51.7615 252.643 52.2872 252.787 52.8128C253.075 53.8641 253.219 54.9908 252.931 56.1172C252.859 56.4176 252.643 56.5678 252.354 56.4927C252.21 56.4927 252.066 56.3422 251.994 56.192C251.634 55.2909 251.273 54.3898 250.84 53.5638C250.624 53.1132 250.408 52.7383 250.192 52.2878L249.832 51.6116C249.688 51.3863 249.687 51.1612 250.12 50.6356C250.336 50.3352 250.624 50.1846 250.985 50.1846Z" fill="black"/>
<path d="M248.319 59.421C248.895 59.496 248.968 59.5705 248.968 59.5705L248.968 59.6461C248.968 59.7211 248.895 59.7963 248.895 59.7963C248.751 59.9465 248.607 60.0211 248.319 60.0962C248.03 60.1713 247.67 60.1716 247.382 60.0214C247.093 59.8713 246.949 59.7207 246.877 59.5705C246.877 59.4955 246.805 59.4205 246.805 59.3455L246.805 59.2707C246.805 59.2707 246.949 59.1956 247.454 59.2707C247.67 59.2707 248.03 59.3459 248.319 59.421Z" fill="black"/>
<path d="M282.7 33.1385C282.988 33.589 283.061 33.739 282.988 33.739L282.844 33.8138C282.772 33.8889 282.7 33.889 282.556 33.9641C282.339 34.0392 282.123 34.0395 281.763 33.8893C281.403 33.8142 281.187 33.5136 281.187 33.2133C281.115 32.8379 281.186 32.6129 281.259 32.3877C281.331 32.3126 281.33 32.1622 281.475 32.0871L281.547 31.9368C281.619 31.9368 281.691 31.9372 282.051 32.3877C282.339 32.6129 282.484 32.8382 282.7 33.1385Z" fill="black"/>
<path d="M272.537 39.821C272.609 40.4218 272.537 40.5724 272.393 40.6475L271.888 40.8727C271.527 41.0228 271.239 41.0979 270.878 41.2481C270.158 41.3983 269.437 41.5487 268.644 41.3985C268.356 41.3234 268.14 41.0975 268.212 40.7971C268.212 40.6469 268.283 40.5723 268.356 40.4972C268.932 40.0466 269.509 39.6707 270.014 39.2952C270.302 39.145 270.59 38.9951 270.878 38.8449L271.311 38.6197C271.455 38.5447 271.672 38.5447 272.032 38.9952C272.393 39.2205 272.465 39.5206 272.537 39.821Z" fill="black"/>
<path d="M261.655 37.7934C261.655 38.319 261.583 38.4695 261.511 38.4695L261.223 38.4695C261.079 38.4695 260.863 38.4695 260.647 38.4695C260.286 38.3944 259.854 38.3944 259.421 38.0941C259.133 37.9439 259.06 37.5687 259.277 37.2684L259.348 37.1928L259.421 37.118C259.709 36.8177 260.07 36.5921 260.358 36.4419C260.502 36.3668 260.719 36.2916 260.863 36.2916L261.151 36.2168C261.223 36.2168 261.367 36.2917 261.511 36.8174C261.655 37.1177 261.655 37.418 261.655 37.7934Z" fill="black"/>
<path d="M277.151 24.8031C277.511 25.3287 277.439 25.7042 277.223 25.9295C277.079 26.2298 276.863 26.4556 276.718 26.7559C276.358 27.2816 275.925 27.7322 275.493 28.2578C274.556 29.1589 273.547 29.9094 272.394 30.4351C272.178 30.5102 271.889 30.4352 271.745 30.21C271.673 30.0598 271.673 29.8348 271.817 29.7597C272.538 28.7835 273.258 27.8822 273.907 26.9811C274.268 26.5305 274.556 26.0796 274.844 25.554C274.988 25.3287 275.133 25.1034 275.277 24.8031C275.421 24.5778 275.637 24.3528 276.286 24.3528C276.646 24.3528 276.934 24.5778 277.151 24.8031Z" fill="black"/>
<path d="M263.383 27.8839C263.527 28.4095 263.455 28.5597 263.311 28.6347L262.95 28.7843C262.734 28.8594 262.446 28.9351 262.23 29.0101C261.725 29.0852 261.221 29.16 260.644 29.0849C260.356 29.0098 260.139 28.7092 260.211 28.4089C260.211 28.3338 260.284 28.2589 260.284 28.1838L260.284 28.109C260.644 27.6585 261.005 27.3579 261.365 27.0576C261.581 26.9075 261.725 26.8324 261.942 26.6822L262.23 26.5319C262.302 26.4568 262.518 26.5323 262.807 26.9828C263.167 27.2831 263.311 27.5836 263.383 27.8839Z" fill="black"/>
<path d="M242.986 31.1876C243.058 31.7884 242.842 31.939 242.698 32.0141C242.482 32.0892 242.265 32.1637 242.049 32.1637C241.616 32.2388 241.184 32.2388 240.752 32.1637C239.959 32.0135 239.311 31.7887 238.662 31.4883C238.446 31.3381 238.301 31.0374 238.445 30.8121C238.517 30.6619 238.59 30.587 238.734 30.587C239.455 30.2866 240.176 30.2869 240.824 30.1367C241.112 30.1367 241.4 30.0615 241.617 29.9864C241.761 29.9864 241.833 29.9108 241.977 29.9108C242.121 29.8357 242.194 29.9113 242.626 30.3618L242.698 30.4366C242.842 30.6619 242.914 30.9623 242.986 31.1876Z" fill="black"/>
<path d="M253.436 28.258C253.364 28.8588 253.22 29.009 253.004 29.009C252.787 29.009 252.572 29.0838 252.355 29.0838C251.923 29.1589 251.49 29.0838 251.13 29.0838C250.337 29.0087 249.472 28.7834 248.751 28.3328C248.535 28.1826 248.463 27.8819 248.607 27.6566C248.679 27.5064 248.823 27.4315 248.895 27.4315C249.688 27.2813 250.337 27.2062 251.057 27.056C251.418 27.056 251.706 26.9056 252.067 26.9056C252.211 26.9056 252.427 26.8308 252.571 26.8308C252.716 26.8308 252.931 26.9061 253.22 27.3567L253.22 27.4315C253.436 27.6568 253.509 27.9576 253.436 28.258Z" fill="black"/>
<path d="M235.994 25.3265C235.778 25.8521 235.489 26.0026 235.201 26.0026C234.912 26.0026 234.696 25.9271 234.408 25.9271C233.904 25.852 233.399 25.7018 232.895 25.5516C231.958 25.2512 231.093 24.8005 230.228 24.2748C230.012 24.1246 229.939 23.8247 230.083 23.5994C230.156 23.4492 230.3 23.3743 230.444 23.3743C231.453 23.2992 232.462 23.4488 233.327 23.5239C233.759 23.599 234.192 23.5991 234.624 23.6742C234.84 23.6742 235.057 23.6747 235.273 23.7498C235.489 23.7498 235.705 23.8995 235.921 24.4252L235.921 24.5007C236.138 24.726 236.066 25.1012 235.994 25.3265Z" fill="black"/>
<path d="M225.615 28.8574C225.543 29.383 225.399 29.5327 225.255 29.5327L224.823 29.5327C224.535 29.5327 224.318 29.4582 224.03 29.3832C223.525 29.233 223.021 29.0825 222.588 28.707C222.372 28.4818 222.3 28.1814 222.516 27.9561C222.588 27.881 222.66 27.8058 222.732 27.8058C223.237 27.5054 223.742 27.4307 224.246 27.3556C224.463 27.3556 224.679 27.28 224.967 27.28L225.327 27.28C225.472 27.28 225.544 27.3554 225.688 27.9561L225.688 28.0309C225.688 28.2562 225.687 28.557 225.615 28.8574Z" fill="black"/>
<path d="M67.628 85.3258C67.9163 85.7763 67.9168 85.9261 67.8447 86.0012L67.628 86.1515C67.4838 86.2266 67.3397 86.3016 67.2676 86.3767C66.9793 86.4517 66.691 86.527 66.1864 86.527C65.8261 86.4519 65.5379 86.1512 65.61 85.8508C65.61 85.4003 65.7541 85.1 65.9703 84.8747C66.0424 84.7245 66.1869 84.6495 66.2589 84.4993L66.4032 84.3489C66.4753 84.2738 66.6193 84.3489 66.9797 84.7244C67.268 84.7995 67.4838 85.0254 67.628 85.3258Z" fill="black"/>
<path d="M73.8982 88.6306C74.1145 89.1562 74.1149 89.3819 73.9708 89.457L73.5378 89.8324C73.2495 90.0577 72.961 90.2825 72.6727 90.5078C72.024 90.8833 71.3756 91.2588 70.5827 91.409C70.2944 91.4841 70.0062 91.2588 70.0062 91.0336C70.0062 90.8834 70.0059 90.8083 70.078 90.6581C70.4384 89.9823 70.8708 89.4569 71.3754 88.9312C71.5916 88.706 71.8079 88.4056 72.0962 88.1803L72.4566 87.8049C72.6008 87.6547 72.8172 87.6549 73.3217 87.9552C73.538 88.1054 73.7541 88.3302 73.8982 88.6306Z" fill="black"/>
<path d="M65.1058 99.2177C65.1058 99.7434 65.0338 99.8935 64.8897 99.9686L64.5292 100.043C64.313 100.119 64.0249 100.118 63.7366 100.118C63.232 100.118 62.5834 100.043 62.0788 99.7428C61.8625 99.5926 61.7182 99.2922 61.9344 98.9918C62.0065 98.9167 62.0067 98.8422 62.0788 98.8422L62.1506 98.7666C62.5831 98.4663 62.9436 98.3165 63.3762 98.0912C63.5924 98.0161 63.8082 97.9404 64.0245 97.8653L64.3849 97.7905C64.5291 97.7905 64.6734 97.8655 64.8897 98.3912C65.0338 98.6165 65.1058 98.8422 65.1058 99.2177Z" fill="black"/>
<path d="M60.4193 92.158C60.4914 92.6835 60.4196 92.8336 60.3475 92.9087L59.9871 92.9835C59.7708 93.0585 59.5543 93.0587 59.338 93.1338C58.9055 93.1338 58.4009 93.1339 57.8962 92.9087C57.6079 92.7586 57.4641 92.4583 57.6083 92.158C57.6083 92.0829 57.6801 92.0828 57.6801 92.0077C58.0406 91.6324 58.4013 91.4074 58.6896 91.1822C58.9059 91.1072 59.0502 90.9572 59.1944 90.9572L59.4823 90.8069C59.5544 90.8069 59.6987 90.807 59.9871 91.3325C60.2754 91.6328 60.4193 91.9328 60.4193 92.158Z" fill="black"/>
<path d="M49.1048 98.5426C48.8885 99.0682 48.6717 99.1432 48.5275 99.1432L48.0235 99.0684C47.6631 98.9933 47.3745 98.9179 47.0141 98.7677C46.3653 98.5425 45.7166 98.167 45.212 97.6414C44.9958 97.4161 44.9958 97.1158 45.212 96.8905C45.2841 96.8154 45.4285 96.7402 45.5006 96.7402C46.2215 96.6651 46.7976 96.7402 47.4463 96.7402C47.7346 96.8152 48.0956 96.8157 48.3839 96.8157L48.8162 96.8905C48.9603 96.8905 49.1045 97.0407 49.1766 97.6414C49.3207 97.9417 49.2489 98.2422 49.1048 98.5426Z" fill="black"/>
<path d="M42.6186 90.0565C42.3303 90.507 42.186 90.5823 42.1139 90.5823L41.8978 90.5067C41.7536 90.4316 41.6815 90.357 41.5373 90.2068C41.3211 89.9816 41.1768 89.7559 41.0326 89.3805C40.9605 89.0801 41.1765 88.705 41.4648 88.5549L41.5373 88.5549C41.8978 88.4047 42.186 88.4045 42.4743 88.4045C42.6185 88.4045 42.7626 88.4793 42.8347 88.4793L42.979 88.5549C43.0511 88.5549 43.051 88.7046 42.8347 89.2302C42.9068 89.5305 42.7628 89.8313 42.6186 90.0565Z" fill="black"/>
<path d="M37.1412 95.391C36.5646 95.6163 36.3485 95.5412 36.2043 95.391L35.7721 94.8652C35.4838 94.5649 35.195 94.1899 34.8346 93.8144C34.258 93.0636 33.7539 92.3128 33.4656 91.3367C33.3935 91.1114 33.5372 90.8104 33.7534 90.7354C33.8976 90.6603 34.0422 90.7358 34.1863 90.8109C34.9792 91.3365 35.6279 91.8618 36.3486 92.3875C36.709 92.6878 36.9969 92.9883 37.3573 93.2887L37.8619 93.7389C38.0061 93.8891 38.0782 94.1149 37.8619 94.7157C37.6457 95.0911 37.4295 95.3159 37.1412 95.391Z" fill="black"/>
<path d="M35.7719 85.7016C35.1952 85.7766 35.1229 85.7764 35.1229 85.7764L35.1229 85.7016L35.1947 85.6261C35.2668 85.551 35.4111 85.4764 35.6994 85.3263C35.9878 85.2512 36.3481 85.176 36.6364 85.176C36.9247 85.176 37.0695 85.2508 37.2137 85.2508L37.2855 85.3263L37.2855 85.4011C37.2855 85.4011 37.2131 85.4763 36.6364 85.5513C36.4201 85.6264 36.0603 85.6265 35.7719 85.7016Z" fill="black"/>
<path d="M74.2582 98.5417C74.6186 98.9922 74.6189 99.2175 74.5468 99.2925L74.2582 99.6679C74.042 99.8932 73.8258 100.119 73.5375 100.344C73.033 100.719 72.5286 101.095 71.88 101.32C71.5917 101.395 71.3031 101.32 71.231 101.019C71.1589 100.944 71.1589 100.794 71.231 100.719C71.3752 100.044 71.7359 99.5175 72.0242 98.9919C72.1684 98.7667 72.3127 98.5419 72.5289 98.3166L72.745 98.016C72.8171 97.9409 72.9609 97.8663 73.5375 98.0915L73.61 98.0915C73.8262 98.1666 74.042 98.3165 74.2582 98.5417Z" fill="black"/>
<path d="M79.1607 48.8323C78.6562 48.9824 78.4402 48.9824 78.3681 48.8323L78.1521 48.4569C78.0079 48.2316 77.9355 47.9313 77.8635 47.7061C77.7193 47.1805 77.6471 46.6548 77.7192 46.0541C77.7912 45.7538 78.0798 45.5288 78.3681 45.6039C78.4402 45.6039 78.5122 45.6787 78.5842 45.6787C79.0888 45.979 79.3771 46.3547 79.6654 46.7301C79.8095 46.9554 79.9541 47.1054 80.0983 47.3307L80.3144 47.6313C80.3864 47.7064 80.3144 47.8561 79.954 48.3066C79.7377 48.6069 79.449 48.7572 79.1607 48.8323Z" fill="black"/>
<path d="M85.4315 40.1204C85.2152 40.646 85.0714 40.7213 84.9993 40.6462L84.7832 40.5707C84.6391 40.4956 84.4945 40.4206 84.3503 40.3455C84.062 40.1953 83.8461 40.0453 83.5578 39.7449L83.4853 39.6694C83.2691 39.4441 83.2691 39.0689 83.4853 38.8436C83.9178 38.4681 84.3508 38.3933 84.7832 38.3933C84.9994 38.3933 85.2155 38.393 85.3597 38.4681L85.6476 38.5429C85.7196 38.5429 85.7921 38.6934 85.72 39.2191C85.648 39.5946 85.5756 39.8951 85.4315 40.1204Z" fill="black"/>
<path d="M100.496 43.9543C100.064 44.3298 99.8469 44.3296 99.7027 44.1795L99.2705 43.8795C98.9822 43.6543 98.7663 43.4287 98.478 43.2034C97.9734 42.7528 97.541 42.3023 97.0365 41.7016C96.8923 41.4763 96.892 41.1759 97.1082 40.9506C97.1803 40.8755 97.3245 40.8003 97.4686 40.8003C98.2615 40.8003 98.9822 41.101 99.6309 41.4764C99.9192 41.6266 100.279 41.852 100.568 42.0022L101.001 42.3021C101.145 42.3772 101.217 42.603 101.072 43.1286C100.928 43.5041 100.784 43.8041 100.496 43.9543Z" fill="black"/>
<path d="M94.5149 49.6554C94.0824 50.0309 93.8662 50.0304 93.7941 49.9553L93.4338 49.6554C93.2175 49.5052 93.0013 49.2797 92.713 49.1296C92.2805 48.7541 91.8479 48.3036 91.4875 47.7779C91.3434 47.5526 91.4156 47.1772 91.6318 47.027C91.7039 46.9519 91.8476 46.9514 91.9197 46.9514C92.6405 46.9514 93.2175 47.1772 93.7941 47.4024C94.0824 47.5526 94.3705 47.7025 94.5867 47.8527L94.9471 48.0779C95.0912 48.153 95.1633 48.3036 94.9471 48.9044C94.9471 49.1297 94.7311 49.4301 94.5149 49.6554Z" fill="black"/>
<path d="M88.8923 52.6628C88.4598 53.0383 88.2435 53.0382 88.1715 52.888L87.8836 52.6628C87.6673 52.5126 87.523 52.2872 87.3788 52.137C87.0905 51.7615 86.8022 51.311 86.658 50.7853C86.586 50.4849 86.7301 50.1842 87.0184 50.1091C87.0905 50.1091 87.1625 50.1091 87.2345 50.1091L87.307 50.1091C87.8837 50.1842 88.3162 50.4097 88.7487 50.635C88.9649 50.7852 89.181 50.8603 89.3252 51.0105L89.6131 51.2356C89.6852 51.3107 89.7578 51.4609 89.4695 51.9866C89.3253 52.287 89.1085 52.5126 88.8923 52.6628Z" fill="black"/>
<path d="M104.965 50.3338C105.469 50.0334 105.757 50.1088 105.973 50.259L106.622 50.7092C107.055 51.0096 107.415 51.3853 107.848 51.7608C108.569 52.5117 109.289 53.4127 109.793 54.3889C109.938 54.6141 109.794 54.9141 109.505 55.0642C109.361 55.1393 109.145 55.1393 109.073 55.0642C108.208 54.5386 107.415 53.9385 106.55 53.4129C106.117 53.1125 105.685 52.8868 105.325 52.5865L104.676 52.1362C104.46 51.986 104.316 51.7609 104.46 51.1602C104.46 50.7097 104.676 50.484 104.965 50.3338Z" fill="black"/>
<path d="M110.514 49.0584C111.018 48.7581 111.234 48.8334 111.379 48.9836L111.739 49.359C112.027 49.6593 112.244 49.9598 112.46 50.2602C112.892 50.8608 113.253 51.5367 113.469 52.2875C113.541 52.5879 113.397 52.813 113.109 52.8881C112.965 52.8881 112.82 52.8876 112.748 52.8125C112.1 52.4371 111.523 51.9869 110.946 51.6115C110.658 51.3863 110.441 51.1607 110.153 50.9355L109.793 50.56C109.649 50.4099 109.649 50.26 109.865 49.7344C110.009 49.4341 110.225 49.2085 110.514 49.0584Z" fill="black"/>
<path d="M119.813 60.3232C120.389 60.3983 120.605 60.6237 120.605 60.849L120.75 61.525C120.894 61.9755 120.894 62.4256 120.966 62.9512C121.038 63.9273 121.038 64.9036 120.678 65.8797C120.606 66.105 120.317 66.2554 120.029 66.1804C119.885 66.1053 119.741 66.0299 119.741 65.8797C119.453 64.9787 119.236 64.228 118.948 63.4021C118.804 62.9516 118.659 62.576 118.587 62.1255L118.371 61.525C118.299 61.2998 118.371 61.0741 118.803 60.6987C119.164 60.3983 119.452 60.3232 119.813 60.3232Z" fill="black"/>
<path d="M111.812 59.4954C112.388 59.4954 112.532 59.6455 112.604 59.8708L112.749 60.4714C112.893 60.8468 112.893 61.2978 112.965 61.6732C113.037 62.4992 113.036 63.4001 112.676 64.151C112.604 64.3763 112.316 64.526 112.028 64.4509C111.884 64.3758 111.811 64.3012 111.739 64.151C111.451 63.4001 111.163 62.7993 110.947 62.1235C110.802 61.748 110.658 61.4474 110.586 61.0719L110.442 60.5469C110.37 60.3967 110.442 60.1715 110.874 59.796C111.234 59.5707 111.523 59.4954 111.812 59.4954Z" fill="black"/>
<path d="M109.522 150.881C109.06 149.229 108.444 147.427 108.29 145.7C107.982 143.972 107.982 142.171 107.982 140.368C108.136 136.764 109.138 133.235 110.909 130.081C112.681 126.927 115.299 124.224 118.226 122.196C121.152 120.169 124.541 118.667 127.929 117.691C131.395 116.715 134.938 116.264 138.481 116.264C142.023 116.264 145.566 116.565 149.032 117.466C155.886 119.118 162.51 122.572 167.362 127.978C169.749 130.682 171.597 133.76 172.753 137.214C173.061 138.116 173.215 139.017 173.292 139.993C173.369 140.969 173.215 142.02 172.829 142.921C172.444 143.897 171.675 144.724 170.827 145.249C170.442 145.55 169.98 145.775 169.518 146C169.056 146.15 168.594 146.3 168.209 146.45C166.36 146.976 164.512 147.051 162.663 146.826C160.892 146.601 159.121 146.226 157.426 145.775C154.038 144.874 150.803 143.672 147.492 143.597C145.874 143.522 144.257 143.898 142.717 144.498C141.176 145.099 139.636 145.85 138.096 146.676C135.092 148.328 132.165 150.205 129.085 151.857C127.544 152.683 126.004 153.434 124.309 154.11C122.692 154.711 120.921 155.236 119.073 155.387C117.301 155.537 115.375 155.311 113.758 154.485C113.373 154.26 112.911 154.034 112.603 153.809C112.218 153.509 111.833 153.284 111.525 152.984C111.217 152.683 110.832 152.383 110.524 152.082L109.522 150.881ZM110.37 150.506C110.678 150.806 110.909 151.031 111.14 151.331C111.448 151.632 111.756 151.857 112.064 152.158C112.372 152.458 112.757 152.608 113.065 152.909C113.374 153.134 113.758 153.284 114.143 153.509C115.607 154.185 117.301 154.41 118.918 154.26C122.23 153.96 125.388 152.383 128.314 150.731C131.318 149.079 134.167 147.127 137.248 145.4C138.788 144.574 140.329 143.747 142.023 143.071C143.64 142.396 145.566 141.945 147.414 142.021C151.111 142.096 154.5 143.222 157.811 144.123C161.123 145.024 164.512 145.625 167.593 144.724C169.133 144.273 170.442 143.447 170.982 142.246C171.521 140.969 171.289 139.392 170.827 137.815C169.826 134.736 167.977 131.808 165.744 129.33C161.277 124.374 155.039 121.145 148.493 119.568C141.946 117.991 134.938 118.067 128.469 119.869C125.234 120.77 122.153 122.121 119.458 124.074C116.762 125.951 114.452 128.429 112.835 131.282L112.295 132.334C112.141 132.709 111.91 133.085 111.756 133.46C111.448 134.211 111.14 134.961 110.909 135.787C110.755 136.613 110.446 137.365 110.292 138.191C110.215 139.017 110.061 139.842 109.907 140.668C109.83 142.32 109.677 143.972 109.831 145.7L109.907 146.976C109.907 147.427 109.985 147.802 110.062 148.177C110.139 148.778 110.293 149.605 110.37 150.506Z" fill="black"/>
<path d="M212.136 34.6407L213.505 34.1897L214.226 33.9646L214.947 33.8143L216.388 33.4388C216.893 33.2886 217.325 33.2888 217.83 33.2137L219.271 32.9886L220.713 32.8382C221.65 32.6881 222.659 32.6879 223.596 32.6879C227.488 32.5377 231.38 32.9135 235.128 33.7395C238.949 34.5655 242.625 35.6917 246.229 37.3437C249.76 38.9957 253.148 41.0231 255.887 44.1018C257.184 45.6037 258.193 47.3305 259.13 49.0575C259.995 50.7846 260.716 52.6625 261.221 54.5398C261.725 56.417 262.013 58.4445 261.797 60.547C261.581 62.5745 260.788 64.6767 259.274 66.2536C258.914 66.6291 258.482 66.9293 258.121 67.2297L257.544 67.6806C257.328 67.8308 257.112 67.9807 256.896 68.1309L255.526 68.8818C255.022 69.1071 254.589 69.2574 254.085 69.4076C252.067 70.0083 249.977 70.0831 248.031 69.8578C246.012 69.6326 244.138 69.1068 242.336 68.5812C240.462 68.0555 238.661 67.4554 236.859 66.9297C235.057 66.4792 233.255 66.1036 231.453 66.0285C229.651 66.0285 227.849 66.2538 226.047 66.7794C222.443 67.7556 219.055 69.4076 215.523 70.9094C211.991 72.4112 208.316 73.8377 204.351 73.9878C202.405 74.0629 200.315 73.6879 198.513 72.937C196.639 72.1861 194.981 71.0596 193.54 69.783C192.098 68.5065 190.729 66.9297 190.008 65.0525C189.215 63.1752 188.999 61.1472 189.288 59.1948C189.504 57.2424 190.225 55.3656 191.089 53.6385C191.954 51.9114 193.035 50.3345 194.26 48.7576C196.639 45.754 199.45 43.0506 202.478 40.7228C205.289 38.3199 208.532 36.1425 212.136 34.6407ZM212.496 35.5412C209.036 36.9679 205.865 39.0711 202.91 41.3989C199.955 43.7267 197.216 46.3549 194.909 49.2834C193.756 50.7852 192.747 52.2864 191.882 53.9384C191.089 55.5904 190.441 57.3178 190.224 59.12C190.008 60.9222 190.224 62.7244 190.945 64.3764C191.666 66.0284 192.819 67.4552 194.26 68.6567C195.63 69.8581 197.216 70.909 198.874 71.5848C200.531 72.2606 202.405 72.5611 204.207 72.486C207.883 72.3358 211.415 70.9094 214.875 69.4076C218.335 67.9058 221.794 66.1785 225.542 65.1273C227.416 64.6016 229.362 64.226 231.38 64.226C233.398 64.226 235.345 64.6016 237.219 65.1273C239.093 65.5778 240.895 66.1782 242.697 66.7039C244.499 67.2295 246.3 67.6801 248.102 67.8302C249.904 68.0555 251.706 67.9056 253.364 67.38C255.022 66.9294 256.464 65.8034 257.761 64.677C258.914 63.4756 259.49 61.8987 259.707 60.1716C259.851 58.4445 259.635 56.6423 259.203 54.9152C258.77 53.1881 258.049 51.4609 257.256 49.884C256.391 48.232 255.454 46.7302 254.301 45.3785C251.922 42.7504 248.679 40.7976 245.364 39.2957C241.976 37.7939 238.372 36.6676 234.768 35.9167C233.831 35.6914 232.966 35.5418 232.029 35.3916C231.092 35.2414 230.155 35.0908 229.29 34.9406C228.353 34.7904 227.416 34.6403 226.479 34.5652C225.542 34.4901 224.605 34.34 223.668 34.34C222.731 34.265 221.794 34.2653 220.857 34.2653L219.416 34.2653C218.983 34.2653 218.478 34.34 218.046 34.34C216.028 34.4902 214.226 34.9405 212.496 35.5412Z" fill="black"/>
<path d="M216.678 33.4396C216.174 32.088 215.885 30.586 215.885 29.1593C215.885 27.6575 216.029 26.2312 216.534 24.7294C216.75 23.9785 217.11 23.3029 217.543 22.6271C217.975 22.0263 218.408 21.3502 218.912 20.8246C219.922 19.6982 221.147 18.7219 222.588 18.0461C225.399 16.6945 228.571 16.4691 231.382 16.7694C234.265 17.0698 237.076 17.7461 239.815 18.3468C242.554 18.9475 245.221 19.6984 247.888 19.8486C250.626 19.9988 253.365 19.8486 256.032 19.4731C261.438 18.6471 266.699 16.4692 272.466 15.7934C275.349 15.418 278.376 15.4929 281.187 16.394C281.908 16.6193 282.556 16.9201 283.277 17.2204C283.926 17.5959 284.575 17.8958 285.223 18.2712C286.449 19.0972 287.674 20.0734 288.611 21.2748C289.548 22.4763 290.269 23.8282 290.629 25.33C290.99 26.7567 291.134 28.3339 290.99 29.7606C290.701 32.6891 289.62 35.467 288.178 37.945C286.737 40.423 284.863 42.6755 282.629 44.5528C281.548 45.4539 280.322 46.3555 279.025 47.0313C277.728 47.7072 276.43 48.3077 275.061 48.7583C272.322 49.6594 269.583 50.2596 266.699 50.56C263.888 50.8604 261.005 51.0105 258.194 50.56C257.906 50.4849 257.762 50.2602 257.762 50.035C257.834 49.8097 258.05 49.5844 258.266 49.6595C261.005 49.9599 263.816 49.8095 266.555 49.5092C269.294 49.1337 272.033 48.4575 274.556 47.5564C275.853 47.1058 277.079 46.5053 278.304 45.8295C279.457 45.1537 280.539 44.3275 281.548 43.4264C283.566 41.6243 285.295 39.4471 286.665 37.1193C288.034 34.7915 288.971 32.2384 289.188 29.6103C289.404 26.9821 288.755 24.3535 287.097 22.4012C286.304 21.425 285.295 20.5995 284.142 19.8486C283.566 19.4731 282.989 19.1729 282.412 18.8726C281.835 18.6473 281.187 18.3466 280.538 18.1964C278.016 17.4455 275.277 17.3705 272.61 17.821C267.204 18.4968 261.942 20.6744 256.248 21.5755C253.437 22.026 250.554 22.1759 247.599 22.0257C244.644 21.8756 241.833 21.1247 239.166 20.5239C236.427 19.9232 233.76 19.2474 231.021 19.0221C228.354 18.7969 225.688 18.9473 223.381 20.0737C222.228 20.5993 221.219 21.3502 220.354 22.3264C219.922 22.7769 219.489 23.3026 219.129 23.8282C218.768 24.3538 218.48 24.8796 218.192 25.4803C217.255 27.8081 216.967 30.5863 217.399 33.2145C217.471 33.4397 217.255 33.7402 216.966 33.7402C216.966 33.8153 216.75 33.6649 216.678 33.4396Z" fill="black"/>
<path d="M154.98 0.0986175C158.367 -0.427023 161.539 1.2244 163.917 3.25187C165.143 4.30315 166.296 5.35458 167.377 6.40586L168.963 7.98322C169.467 8.50886 170.044 9.0345 170.549 9.48505C172.639 11.4374 175.377 12.5634 178.26 13.1641C181.143 13.8399 184.171 14.0656 187.27 14.366C190.369 14.6664 193.541 15.1914 196.568 16.3929C197.289 16.7683 198.082 17.069 198.731 17.4445C199.091 17.6697 199.451 17.8198 199.812 18.045L200.821 18.7959C202.119 19.8472 203.199 21.2743 203.848 22.8512C204.497 24.4281 204.785 26.1549 204.641 27.8069C204.497 29.4589 203.992 31.1108 203.2 32.5375C202.407 33.9643 201.398 35.3164 200.1 36.3676C198.803 37.4189 197.433 38.2445 195.992 38.9203C194.55 39.5961 193.037 40.1222 191.523 40.4977C190.73 40.7229 190.009 40.8733 189.216 41.0235C188.423 41.1736 187.703 41.3238 186.91 41.3989C186.117 41.474 185.324 41.5485 184.531 41.5485L182.153 41.5485L179.774 41.3234C178.982 41.2483 178.189 41.0233 177.468 40.8731C171.269 39.5215 165.719 36.2172 161.179 31.937C156.71 27.5816 153.178 22.3252 150.943 16.5432C149.862 13.6897 148.997 10.5357 149.358 7.3819C149.502 5.80498 150.078 4.22806 151.015 2.87641C151.52 2.27568 152.096 1.67554 152.817 1.22499C153.105 0.999715 153.538 0.773854 153.827 0.623671C154.187 0.398397 154.619 0.2488 154.98 0.0986175ZM155.196 0.999128C154.907 1.14931 154.547 1.29993 154.259 1.45012C153.97 1.67539 153.61 1.82543 153.322 2.0507C152.745 2.42616 152.241 2.9518 151.736 3.55253C150.871 4.6789 150.367 6.10549 150.294 7.53223C150.006 10.4608 150.871 13.4649 151.88 16.2433C152.961 19.0217 154.331 21.7998 156.061 24.2027C157.791 26.6807 159.737 29.0087 161.899 31.1112C166.296 35.2413 171.774 38.3197 177.612 39.4461C178.333 39.5963 179.053 39.7465 179.846 39.8216L182.081 39.9719L184.315 39.9719C185.036 39.9719 185.829 39.8218 186.549 39.7468C187.27 39.6717 187.991 39.5215 188.784 39.3713C189.505 39.2211 190.226 39.0708 190.946 38.8455C192.388 38.4701 193.757 37.9447 195.127 37.2689C196.424 36.6682 197.721 35.8417 198.802 34.9406C199.884 34.0395 200.749 32.8385 201.398 31.637C202.046 30.3605 202.479 29.0082 202.551 27.6566C202.623 26.3049 202.406 24.8784 201.83 23.6769C201.253 22.4003 200.389 21.3492 199.38 20.4481L198.515 19.8475C198.226 19.6222 197.866 19.4719 197.578 19.3217C197.001 18.9463 196.28 18.6461 195.631 18.3457C192.965 17.2944 189.937 16.8436 186.91 16.5432C183.882 16.2428 180.784 16.0179 177.612 15.342C176.026 15.0417 174.512 14.516 172.999 13.8402C172.278 13.4648 171.557 13.1639 170.837 12.6383C170.476 12.413 170.116 12.1878 169.828 11.8874C169.467 11.6621 169.179 11.3617 168.89 11.1365C166.44 9.03391 164.638 6.5559 162.62 4.37824C161.611 3.32696 160.457 2.35107 159.16 1.67524C158.872 1.52506 158.512 1.37517 158.151 1.22499C157.791 1.1499 157.502 0.999422 157.142 0.92433C156.781 0.92433 156.421 0.774441 156.061 0.849532L155.196 0.999128Z" fill="black"/>
<path d="M51.8442 78.1917C53.2857 77.9664 54.727 77.5904 56.2406 77.2149C57.6822 76.8395 59.1962 76.3889 60.6378 76.0886C63.593 75.4127 66.7644 74.8877 70.0079 75.5635C71.5936 75.939 73.1792 76.4642 74.5486 77.3652C75.846 78.2663 77.1432 79.243 78.2243 80.4444C79.3055 81.6459 80.2424 82.9974 80.9631 84.4241C81.6118 85.9259 81.9726 87.5027 82.1168 89.1547C82.2609 92.3836 81.2519 95.6127 79.5941 98.316C77.9363 101.019 75.7737 103.347 73.1789 105.149C70.6562 106.951 67.7014 108.303 64.6021 108.979L63.4484 109.204L62.2954 109.354C61.5026 109.43 60.7096 109.429 59.9888 109.504C59.196 109.504 58.475 109.504 57.6822 109.504C56.8893 109.429 56.1684 109.43 55.3756 109.354C49.249 108.679 43.2668 106.801 38.0051 103.647C35.3383 102.07 32.8876 100.193 30.7974 97.865C28.7071 95.6122 27.0495 92.9845 25.8962 90.0559C25.3196 88.6292 24.959 87.0519 24.8869 85.4749C24.8148 83.898 25.1756 82.2463 26.0405 80.8947C26.9055 79.4679 28.1306 78.4168 29.5001 77.6659C30.8696 76.915 32.4554 76.4642 33.9691 76.2389C40.1678 75.6382 46.0059 78.4921 51.8442 78.1917ZM51.9885 79.0922C48.8171 79.2424 45.8615 78.567 42.9063 78.0414C41.3926 77.741 39.9514 77.5154 38.5098 77.3652C37.0683 77.2151 35.5542 77.1403 34.1127 77.2905C32.6711 77.5157 31.3022 77.8913 30.0048 78.5671C28.7795 79.3181 27.6982 80.219 26.9774 81.4205C26.2566 82.6219 25.9685 84.0485 26.0405 85.4001C26.1126 86.8269 26.4729 88.2533 26.9774 89.6049C28.0586 92.3082 29.7161 94.7864 31.7342 96.8889C33.7524 98.9915 36.1314 100.794 38.6541 102.296C43.7716 105.224 49.6095 106.952 55.5199 107.477C56.2406 107.552 56.9618 107.552 57.7547 107.627C58.4755 107.627 59.196 107.627 59.9888 107.627C60.7096 107.552 61.4304 107.552 62.1511 107.477L63.2323 107.327L64.3135 107.102C67.1245 106.426 69.7912 105.149 72.0977 103.422C74.4042 101.695 76.4224 99.5921 77.8639 97.1141C79.3055 94.7111 80.1704 91.858 80.0263 89.1547C79.9542 87.8031 79.5939 86.4516 79.0894 85.175C78.5128 83.8985 77.7198 82.7721 76.7828 81.7959C75.8458 80.7446 74.6925 79.9182 73.5393 79.0922C72.386 78.3413 71.0888 77.8907 69.7193 77.5904C69.0706 77.4402 68.3495 77.3655 67.6288 77.2905C66.908 77.2905 66.1872 77.2149 65.4664 77.2149C64.0249 77.2149 62.5836 77.2903 61.07 77.5156C59.5564 77.6658 58.1147 77.8913 56.601 78.1917C55.0153 78.6422 53.5021 78.8669 51.9885 79.0922Z" fill="black"/>
<path d="M60.8524 76.9907C58.3296 75.4889 56.1669 73.5369 54.2929 71.2842C52.4189 69.0315 50.9053 66.4783 49.9683 63.6248C49.5358 62.1981 49.2475 60.6963 49.2475 59.1194C49.2475 57.5425 49.6083 55.9659 50.4011 54.5392C51.194 53.1125 52.3472 51.9857 53.6446 51.0846C54.942 50.2586 56.3837 49.5828 57.7532 49.2074C60.6363 48.3063 63.5909 48.0064 66.546 48.1565C69.5012 48.3067 72.3843 48.7568 75.1953 49.5828C80.8174 51.1597 86.0794 53.7128 90.7645 57.0918C93.0709 58.8189 95.3049 60.7711 97.1789 62.9487C99.125 65.1263 100.783 67.4543 102.297 69.8572C103.81 72.3351 105.108 74.8881 106.045 77.5913C106.982 80.2946 107.63 83.2231 107.414 86.2267C107.27 89.1552 106.117 92.1591 104.171 94.4118C102.224 96.6645 99.4855 98.2414 96.6024 98.9172C93.7193 99.593 90.6924 99.5181 87.8814 98.6921C85.0703 97.8661 82.4751 96.2891 80.6011 94.0364C80.457 93.8111 80.4574 93.5104 80.6736 93.3602C80.8899 93.2101 81.1777 93.2105 81.3219 93.4358C83.1238 95.4632 85.5749 96.8896 88.2417 97.6405C90.9086 98.3163 93.7198 98.3914 96.3146 97.6405C98.9093 96.9647 101.36 95.5383 103.018 93.4358C104.675 91.4083 105.684 88.78 105.756 86.1519C105.901 83.5237 105.324 80.7457 104.387 78.1926C103.45 75.6395 102.153 73.161 100.711 70.8332C99.1974 68.5054 97.5396 66.2528 95.6656 64.2254C93.7916 62.198 91.7737 60.3209 89.4672 58.744C84.9984 55.5151 79.8808 53.1122 74.5471 51.6104C69.2133 50.1837 63.5189 49.7328 58.4014 51.3097C55.8787 52.0606 53.5006 53.4875 52.3474 55.59C51.7707 56.6413 51.4823 57.8429 51.4823 59.1194C51.4823 60.3959 51.7702 61.6722 52.1306 62.9487C52.9234 65.4267 54.293 67.8296 55.8787 70.0823C57.4644 72.335 59.3389 74.3626 61.357 76.2398C61.5733 76.39 61.5733 76.6907 61.357 76.9159C61.285 77.0661 61.0686 77.1409 60.8524 76.9907Z" fill="black"/>
<path d="M25.6797 89.3817C23.7336 90.5081 21.6432 91.4841 19.4088 92.2351C17.2465 92.986 14.8675 93.4365 12.4889 93.3614C11.2636 93.3614 10.1104 93.2115 8.88504 92.9112C7.7318 92.6108 6.5787 92.2352 5.42546 91.6345C3.11897 90.5081 1.46147 88.406 0.668613 86.0781C0.452381 85.4774 0.308086 84.8764 0.163929 84.2756C0.0918503 83.6749 -0.0524444 83.0739 0.0196343 82.4732C0.0196343 81.8724 0.0200577 81.2721 0.0921326 80.6714C0.164211 80.371 0.163647 80.0705 0.235725 79.7702L0.452522 78.8689C1.02914 76.5411 2.18196 74.2888 3.9839 72.5617C5.71377 70.8346 7.87638 69.6331 10.0387 68.8071C12.201 67.9811 14.4352 67.3802 16.5975 66.7795C20.9222 65.6531 25.2471 64.4513 28.4185 61.5979C30.0763 60.2462 31.5176 58.444 33.5358 57.0924C34.5448 56.4166 35.6264 55.8909 36.8517 55.5905C38.005 55.2902 39.2303 55.2151 40.4556 55.2151C41.6809 55.2902 42.9063 55.4407 44.0595 55.8912C45.2128 56.3418 46.2936 57.1678 47.0144 58.1439C47.7352 59.1952 48.1679 60.3216 48.3842 61.5231C48.6004 62.7245 48.5998 63.8511 48.5278 65.0525C48.3115 67.3804 47.7351 69.5576 46.8701 71.7352C46.0052 73.8378 44.9239 75.8655 43.4823 77.6677C43.3382 77.893 43.0503 77.8927 42.8341 77.7425C42.6178 77.5924 42.6174 77.2924 42.7616 77.0672C44.0589 75.3401 45.0682 73.3124 45.789 71.285C46.5097 69.2575 47.0866 67.0798 47.1587 64.9022C47.3029 62.7996 47.0143 60.5466 45.789 58.9697C45.2123 58.2187 44.3475 57.6182 43.4105 57.2427C42.4735 56.8672 41.4643 56.792 40.3831 56.7169C39.302 56.7169 38.293 56.8671 37.2839 57.0924C36.2748 57.3927 35.4101 57.8431 34.5451 58.4439C32.8153 59.6453 31.4459 61.3724 29.644 62.9494C27.9141 64.5263 25.8233 65.728 23.661 66.6291C21.4986 67.5302 19.2645 68.1308 17.1022 68.7316C14.9398 69.3323 12.7777 69.9335 10.7595 70.6844C8.74131 71.4353 6.86701 72.4861 5.42546 73.988C3.9839 75.4147 2.97482 77.2924 2.54235 79.3199C2.10988 81.2723 2.10974 83.4499 2.75844 85.3272C3.47922 87.2045 4.70468 88.7813 6.50662 89.6824C7.37156 90.1329 8.38064 90.5079 9.38973 90.7332C10.3988 90.9585 11.4798 91.1087 12.4889 91.1087C16.7415 91.1838 20.9222 89.7575 25.2468 88.556C25.5351 88.4809 25.7512 88.6307 25.8233 88.8559C25.9675 89.0812 25.8959 89.2315 25.6797 89.3817Z" fill="black"/>
<path d="M74.4044 50.7097C73.4674 50.0339 72.6024 49.1332 71.8817 48.1571C71.1609 47.1809 70.5843 45.979 70.4401 44.7025C70.2239 43.4259 70.3677 42.0741 70.8723 40.7976C71.3768 39.5961 72.0979 38.4704 72.9628 37.6444C74.7648 35.8422 76.999 34.6405 79.3055 33.9646C80.4588 33.5892 81.6123 33.3642 82.8376 33.1389C83.4142 33.0639 84.0629 32.9886 84.6396 32.9886L85.5046 32.9131L86.369 32.9131C91.1982 33.0633 95.7394 34.4901 99.992 36.4425C104.245 38.3948 108.209 40.9481 111.813 43.7264C115.489 46.5799 118.732 50.034 121.327 53.8636C122.624 55.816 123.706 57.9184 124.498 60.096C125.291 62.3487 125.724 64.6768 125.58 67.1548C125.508 68.3563 125.219 69.6327 124.57 70.759C123.994 71.8854 123.057 72.8617 122.047 73.5375C119.957 74.8892 117.507 75.3397 115.128 75.4148C112.75 75.4899 110.443 75.1891 108.137 74.5884C105.902 73.9876 103.668 73.1619 101.65 71.8854C101.433 71.7352 101.361 71.4345 101.505 71.2093C101.649 70.984 101.938 70.9095 102.154 71.0597C104.028 72.186 106.19 72.9367 108.353 73.3872C110.515 73.9128 112.822 74.138 114.984 73.9878C117.146 73.8376 119.381 73.3875 121.111 72.186C121.976 71.5853 122.624 70.8344 123.129 69.9333C123.561 69.0322 123.849 67.9807 123.849 67.0045C123.922 64.902 123.489 62.724 122.768 60.6966C121.975 58.6692 120.894 56.7169 119.669 54.8397C117.146 51.1602 113.975 47.9312 110.443 45.303C106.839 42.5998 103.019 40.197 98.9826 38.3198C94.9463 36.4425 90.5501 35.1661 86.2254 35.091L85.4321 35.091L84.6396 35.1658C84.0629 35.1658 83.5583 35.241 83.0537 35.3161C81.9725 35.4663 80.9632 35.6916 79.882 36.067C77.8638 36.7429 75.9177 37.7943 74.4762 39.221C73.0346 40.6477 72.1697 42.525 72.3138 44.4773C72.458 46.4297 73.6114 48.382 74.9809 50.1091C75.125 50.3344 75.1253 50.635 74.9091 50.7852C74.837 50.8603 74.5485 50.8599 74.4044 50.7097Z" fill="black"/>
<path d="M213.362 101.018C213.506 101.769 213.578 102.52 213.65 103.346C213.722 103.721 213.722 104.097 213.794 104.547L213.794 105.674L213.794 106.8L213.794 107.4L213.722 108.001L213.506 110.329C213.001 113.408 211.92 116.336 210.262 119.04C208.605 121.668 206.37 123.996 203.847 125.798C201.252 127.6 198.37 128.877 195.415 129.703C189.432 131.355 182.945 131.054 177.107 128.952C174.152 127.9 171.412 126.399 169.034 124.371C166.655 122.419 164.637 119.941 163.123 117.238L162.547 116.186L162.115 115.135C161.826 114.384 161.538 113.708 161.321 112.957C161.105 112.207 160.889 111.456 160.745 110.705C160.601 109.954 160.457 109.202 160.385 108.376C160.24 106.8 160.313 105.148 160.889 103.571C161.178 102.745 161.61 101.994 162.187 101.393C162.763 100.717 163.484 100.267 164.277 99.8914C165.863 99.1405 167.665 99.0652 169.178 99.3656C170.764 99.5909 172.206 100.117 173.647 100.642C175.089 101.168 176.458 101.769 177.827 102.22C179.197 102.67 180.567 103.046 181.936 102.971C183.305 102.971 184.675 102.595 186.045 102.069C187.414 101.544 188.711 100.868 190.009 100.192C192.604 98.7653 195.198 97.1882 197.937 95.9117C199.307 95.2359 200.748 94.7103 202.262 94.4099C203.776 94.0344 205.433 94.0346 207.019 94.5602C208.532 95.0859 209.902 96.0617 210.839 97.2632C211.848 98.2394 212.641 99.5159 213.362 101.018ZM212.425 101.243C211.776 100.041 211.055 98.7654 210.118 97.7142C209.181 96.6629 208.028 95.7614 206.73 95.3859C205.433 95.0105 203.992 95.0108 202.622 95.3111C201.253 95.6115 199.883 96.2122 198.586 96.8129C195.919 98.0895 193.468 99.741 190.801 101.243C189.504 101.994 188.134 102.67 186.693 103.27C185.251 103.871 183.738 104.322 182.08 104.322C180.423 104.397 178.837 103.946 177.395 103.496C175.954 103.045 174.512 102.444 173.142 101.994C171.773 101.468 170.403 101.018 169.034 100.867C167.664 100.642 166.295 100.718 165.214 101.318C164.637 101.619 164.133 101.994 163.701 102.445C163.268 102.895 162.979 103.496 162.763 104.021C162.331 105.223 162.258 106.649 162.403 108.001C162.475 108.677 162.619 109.428 162.763 110.104C162.907 110.78 163.124 111.455 163.34 112.131C163.484 112.807 163.773 113.483 164.061 114.159L164.493 115.135L164.998 116.036C166.367 118.514 168.169 120.767 170.404 122.569C172.638 124.371 175.16 125.798 177.899 126.699C183.305 128.651 189.36 128.801 194.91 127.3C197.649 126.549 200.316 125.347 202.622 123.695C204.929 122.043 206.947 119.941 208.46 117.538C209.974 115.135 210.983 112.507 211.632 109.653C211.848 108.226 212.208 106.8 212.28 105.373L212.425 104.322C212.497 103.947 212.424 103.646 212.496 103.27C212.352 102.67 212.353 101.994 212.425 101.243Z" fill="black"/>
</svg>
