<svg width="231" height="365" viewBox="0 0 231 365" fill="none" xmlns="http://www.w3.org/2000/svg">
<path d="M96.7205 181.195C96.0606 181.492 95.2185 181.52 94.5054 181.266C93.7816 181.012 93.1969 180.56 92.686 180.081C91.6855 179.079 90.9844 177.907 90.3778 176.722C89.1751 174.337 88.3741 171.826 87.7036 169.3C87.5333 168.651 87.387 168.072 87.238 167.381C87.089 166.661 87.0457 165.927 87.0883 165.236C87.1734 163.825 87.4914 162.498 87.9065 161.214C88.758 158.66 89.9933 156.318 91.3556 154.074C94.1122 149.601 97.4017 145.523 101.084 141.812C102.936 139.963 104.895 138.214 107.045 136.661C108.13 135.899 109.248 135.18 110.494 134.601C111.111 134.319 111.77 134.065 112.473 133.896C113.175 133.74 113.961 133.656 114.781 133.853C115.611 134.037 116.366 134.672 116.76 135.377C116.962 135.73 117.102 136.097 117.209 136.464C117.262 136.647 117.303 136.845 117.335 137.085C117.346 137.141 117.345 137.226 117.345 137.282C117.345 137.339 117.347 137.423 117.325 137.522L117.305 137.663C117.284 137.72 117.26 137.79 117.239 137.847C117.196 137.96 117.09 138.101 116.973 138.214C116.728 138.425 116.411 138.496 116.251 138.482C116.059 138.496 115.942 138.467 115.825 138.439C115.602 138.397 115.419 138.341 115.27 138.284C114.94 138.171 114.664 138.072 114.398 138.002C114.132 137.931 113.887 137.903 113.707 137.917C113.515 137.945 113.408 137.988 113.291 138.086C113.11 138.228 112.749 139.004 112.429 139.554C112.067 140.119 111.726 140.697 111.332 141.219C110.576 142.306 109.747 143.322 108.917 144.324C107.235 146.313 105.435 148.204 103.615 150.038C102.7 150.956 101.775 151.859 100.838 152.762L99.4345 154.102L99.2649 154.272L99.1784 154.356C99.1465 154.385 99.1878 154.356 99.1984 154.328C99.2197 154.3 99.2416 154.272 99.2416 154.258C99.2523 154.201 99.2217 154.385 99.2217 154.498C99.211 154.766 99.2203 155.076 99.2416 155.386L99.3181 156.332C99.3288 156.487 99.3481 156.685 99.3481 156.84C99.3268 156.642 99.3181 156.699 99.3181 156.685L99.3481 156.741C99.38 156.783 99.4219 156.854 99.4645 156.91C99.8157 157.39 100.252 157.842 100.688 158.364C101.519 159.38 102.308 160.41 103.063 161.468C104.585 163.571 106.023 165.744 107.311 168.016C108.567 170.288 109.767 172.658 110.267 175.311C110.385 175.974 110.429 176.666 110.344 177.371C110.248 178.063 109.98 178.796 109.469 179.347C108.969 179.897 108.29 180.236 107.62 180.405C106.949 180.589 106.268 180.631 105.598 180.631C105.385 180.631 105.225 180.462 105.225 180.25C105.225 180.038 105.395 179.883 105.598 179.883C106.822 179.869 108.119 179.629 108.854 178.796C109.599 177.964 109.61 176.666 109.386 175.466C108.886 173.039 107.672 170.739 106.406 168.538C105.107 166.337 103.649 164.22 102.105 162.174C101.339 161.158 100.54 160.142 99.7206 159.182C99.3268 158.717 98.8485 158.251 98.4334 157.687C98.3802 157.616 98.3276 157.545 98.2638 157.447C98.2425 157.404 98.1986 157.348 98.1773 157.291C98.1454 157.207 98.0928 157.193 98.0609 156.91C98.0503 156.741 98.0383 156.614 98.0276 156.445L97.9445 155.471C97.9232 155.132 97.9006 154.808 97.9112 154.427C97.9219 154.328 97.9239 154.229 97.9345 154.116L97.9644 153.947C97.9857 153.877 98.009 153.792 98.0409 153.707C98.0622 153.651 98.1048 153.58 98.1474 153.524C98.1899 153.467 98.2538 153.397 98.2538 153.397L98.337 153.312L98.5066 153.143L99.8902 151.788C100.806 150.885 101.724 149.982 102.618 149.065C104.406 147.216 106.151 145.339 107.78 143.378C108.578 142.39 109.375 141.388 110.088 140.344C110.46 139.836 110.768 139.3 111.109 138.764L111.545 137.945L111.801 137.466C111.918 137.282 112.056 137.099 112.236 136.929C112.588 136.591 113.109 136.379 113.567 136.337C114.025 136.294 114.43 136.365 114.781 136.45C115.143 136.534 115.464 136.647 115.762 136.746C115.9 136.788 116.039 136.831 116.135 136.845C116.177 136.859 116.22 136.859 116.188 136.859C116.198 136.859 116.039 136.859 115.922 136.986C115.858 137.028 115.813 137.127 115.792 137.155C115.781 137.169 115.772 137.198 115.772 137.226C115.772 137.24 115.762 137.24 115.762 137.24C115.762 137.254 115.762 137.268 115.762 137.24C115.762 137.226 115.773 137.226 115.762 137.198C115.751 137.113 115.728 136.986 115.686 136.873C115.611 136.619 115.517 136.379 115.39 136.167C115.145 135.758 114.835 135.504 114.388 135.405C113.494 135.18 112.28 135.561 111.205 136.055C110.109 136.563 109.054 137.24 108.032 137.974C105.989 139.441 104.096 141.163 102.308 142.955C98.7321 146.581 95.5158 150.603 92.8656 154.935C91.5565 157.108 90.3864 159.366 89.6094 161.722C89.2263 162.893 88.9515 164.093 88.8877 165.264C88.8558 165.857 88.897 166.421 89.0141 166.957C89.1418 167.536 89.3134 168.185 89.4731 168.792C90.1223 171.247 90.8547 173.688 91.8445 175.988C92.3448 177.131 92.9089 178.232 93.6539 179.149C94.3883 180.066 95.3695 180.701 96.4977 180.433C96.6999 180.391 96.9008 180.504 96.9433 180.716C96.9753 180.955 96.8802 181.125 96.7205 181.195Z" fill="black"/>
<path d="M91.2423 178.119C91.221 178.204 91.2629 178.218 91.1991 178.19C91.1565 178.176 91.0707 178.162 90.9962 178.147C90.8259 178.119 90.6363 178.105 90.4341 178.091C90.0403 178.077 89.6239 178.091 89.23 178.133C89.0385 178.147 88.8356 178.176 88.6546 178.218C88.4631 178.26 88.4098 178.289 88.2289 178.373C87.9096 178.528 87.5577 178.754 87.2278 178.98C86.5466 179.432 85.888 179.954 85.2388 180.476C84.5789 180.998 83.9496 181.548 83.343 182.113C82.119 183.241 80.9722 184.483 80.1101 185.824C79.695 186.487 79.3517 187.207 79.2453 187.856C79.2027 188.025 79.226 188.166 79.2154 188.321C79.2473 188.462 79.2346 188.604 79.2985 188.717C79.373 188.97 79.534 189.182 79.7575 189.38C80.2258 189.789 80.9269 190.001 81.7997 190.311L84.2377 191.214C85.8448 191.821 87.4433 192.385 89.0504 192.752C90.6682 193.133 92.2967 193.288 93.8931 193.105C94.2976 193.077 94.6794 192.964 95.0839 192.907C95.4777 192.809 95.8502 192.696 96.2546 192.583C97.0955 192.315 97.9256 192.061 98.7558 191.821C102.066 190.861 105.344 189.874 108.548 188.674C111.73 187.475 114.912 186.106 117.594 184.145C118.893 183.157 120.116 181.957 120.541 180.504C120.733 179.784 120.69 179.036 120.435 178.317C120.36 178.133 120.307 177.95 120.222 177.781C120.126 177.611 120.042 177.428 119.936 177.273C119.734 176.934 119.488 176.666 119.211 176.44C118.657 175.988 117.923 175.861 117.135 175.96C116.348 176.045 115.528 176.299 114.688 176.525C113.847 176.75 112.954 176.962 112.007 176.92C111.049 176.906 110.092 176.44 109.442 175.763C109.304 175.607 109.303 175.382 109.452 175.226C109.601 175.085 109.826 175.085 109.975 175.226C110.539 175.763 111.252 176.087 112.04 176.073C112.817 176.087 113.625 175.876 114.445 175.636C115.264 175.396 116.093 175.114 117.019 174.987C117.477 174.93 117.966 174.902 118.466 175.001C118.966 175.085 119.445 175.311 119.85 175.608C120.254 175.904 120.595 176.285 120.851 176.68C121.127 177.075 121.329 177.484 121.499 177.936C121.84 178.825 121.937 179.869 121.692 180.814C121.458 181.774 120.926 182.592 120.352 183.312C119.777 184.046 119.075 184.624 118.383 185.189C115.52 187.348 112.295 188.759 109.07 190.057C105.824 191.327 102.514 192.371 99.2148 193.387C98.3953 193.641 97.5651 193.881 96.7668 194.149C96.3518 194.276 95.8934 194.417 95.4464 194.53C94.9887 194.601 94.5404 194.728 94.0827 194.77C92.2521 194.996 90.3995 194.827 88.6646 194.417C86.9191 194.022 85.2501 193.429 83.6323 192.837L81.2143 191.962C80.4693 191.694 79.4582 191.44 78.6067 190.72C78.3938 190.551 78.2022 190.311 78.0213 190.085C77.8617 189.831 77.704 189.577 77.6189 189.281C77.5018 188.999 77.4812 188.702 77.4492 188.42C77.4492 188.152 77.4359 187.856 77.4891 187.602C77.6594 186.543 78.1078 185.683 78.5867 184.892C79.5766 183.326 80.8105 182.014 82.109 180.8C83.4181 179.601 84.8144 178.5 86.3896 177.625C86.7941 177.414 87.1985 177.202 87.6668 177.033C87.8797 176.948 88.2509 176.863 88.485 176.863C88.7405 176.849 88.9653 176.849 89.2101 176.863C89.6678 176.892 90.1228 176.948 90.5804 177.061C90.8146 177.117 91.0407 177.188 91.2855 177.287C91.4133 177.343 91.5297 177.4 91.668 177.512C91.7851 177.597 91.976 177.795 91.9973 178.091C92.008 178.303 91.847 178.472 91.6447 178.486C91.4319 178.486 91.2529 178.331 91.2423 178.119Z" fill="black"/>
<path d="M81.0547 183.58C80.0329 183.665 79.0458 184.116 78.1411 184.709C77.2258 185.288 76.3716 185.979 75.5734 186.741C73.9769 188.251 72.5527 189.958 71.2329 191.736C69.9131 193.514 68.6985 195.377 67.6341 197.31C67.102 198.27 66.6124 199.257 66.1973 200.259C65.9844 200.753 65.8041 201.261 65.6551 201.769C65.5168 202.249 65.4117 202.785 65.3159 203.321C64.9647 205.452 64.8788 207.667 64.7937 209.911C64.7511 211.04 64.7092 212.169 64.6241 213.312C64.5815 213.876 64.515 214.455 64.4511 215.033L64.3247 215.894L64.2283 216.712C63.6216 221.044 64.048 225.461 64.8569 229.807C65.6764 234.168 66.9017 238.457 68.0299 242.818C69.1581 247.164 70.1892 251.609 70.5511 256.167C70.7107 258.452 70.752 260.753 70.5178 263.038C70.3156 265.353 69.8373 267.54 69.4435 269.769C68.5388 274.186 67.4652 278.575 66.2305 282.907C64.9746 287.239 63.5677 291.514 62.0564 295.748C60.545 299.981 58.9073 304.172 57.2469 308.349C53.8943 316.688 50.392 324.929 47.0393 333.268C45.2832 337.431 43.3361 341.453 42.1866 345.7C41.6225 347.817 41.2507 349.976 41.3252 352.106C41.3891 354.237 41.9837 356.312 43.1545 358.061C43.2929 358.287 43.4432 358.499 43.6135 358.696C43.7838 358.894 43.9208 359.12 44.1124 359.303L44.6679 359.896L45.2532 360.545C45.6258 360.968 45.9876 361.377 46.3708 361.758C46.7433 362.139 47.1364 362.52 47.4983 362.788C47.5835 362.845 47.6793 362.901 47.7112 362.915C47.7538 362.944 47.7092 362.915 47.6879 362.915C47.954 362.647 46.4958 363.564 46.9429 363.536C46.9322 363.607 46.9429 363.579 46.9429 363.579C46.9322 363.423 46.8697 363.113 46.8165 362.859L46.6369 362.026L46.6136 361.899C46.6029 361.885 46.5936 361.645 46.5936 361.66V361.448V361.025C46.6043 360.728 46.6043 360.432 46.6469 360.079C46.6894 359.74 46.8378 359.275 47.1358 358.936C47.4231 358.597 47.7311 358.414 47.9972 358.259C48.2633 358.104 48.5301 357.962 48.7855 357.835C49.8392 357.313 50.9993 356.918 52.1381 356.678C53.277 356.438 54.4165 356.297 55.534 356.17C57.7585 355.902 59.9729 355.705 61.91 354.9C62.4103 354.717 62.8453 354.463 63.3136 354.209C63.7287 353.913 64.1751 353.645 64.5476 353.278C64.9201 352.967 65.3472 352.53 65.7516 352.149C66.1667 351.754 66.5592 351.359 66.9955 350.978C68.6665 349.439 70.4021 348.014 72.1476 346.589C75.6492 343.767 79.224 341.058 82.598 338.151C85.9932 335.258 89.1556 332.125 91.8377 328.612C93.1362 326.848 94.3508 324.957 95.5429 323.066C96.7349 321.175 97.8937 319.256 99.0751 317.351C101.427 313.527 103.834 309.703 106.612 306.119C107.996 304.327 109.462 302.591 111.069 300.983C111.473 300.573 111.826 300.178 112.21 299.769C112.572 299.36 112.985 298.993 113.294 298.541L114.295 297.243C114.614 296.806 114.882 296.326 115.18 295.875C116.297 294.012 117.084 291.98 117.531 289.849C117.989 287.718 118.137 285.503 118.286 283.274C118.414 281.044 118.574 278.758 118.968 276.514C119.362 274.271 119.957 272.027 120.787 269.925C124.044 261.416 129.407 254.05 132.249 245.626C132.962 243.523 133.41 241.392 133.889 239.163C134.378 236.962 134.944 234.789 135.519 232.615C136.679 228.269 137.923 223.965 138.934 219.619C139.935 215.273 140.732 210.856 140.86 206.411C140.86 205.297 140.935 204.196 140.85 203.081L140.764 201.416C140.742 200.866 140.637 200.316 140.584 199.765L140.371 198.114L140.042 196.492C139.84 195.391 139.573 194.361 139.147 193.345C138.306 191.313 137.188 189.38 135.964 187.531C134.74 185.683 133.368 183.919 131.857 182.296C131.112 181.478 130.293 180.744 129.442 180.052L128.78 179.573C128.556 179.417 128.322 179.304 128.098 179.163C127.853 179.008 127.683 178.938 127.406 178.867C127.151 178.796 126.887 178.74 126.621 178.684C125.536 178.472 124.426 178.331 123.309 178.147C122.755 178.063 122.192 177.978 121.639 177.865C121.352 177.809 121.075 177.752 120.787 177.668C120.649 177.625 120.501 177.583 120.342 177.512C120.257 177.47 120.192 177.442 120.086 177.371C120.011 177.315 119.841 177.188 119.82 176.906C119.82 176.694 119.99 176.525 120.192 176.525C120.394 176.525 120.565 176.694 120.565 176.906C120.565 176.765 120.478 176.75 120.531 176.779C120.542 176.793 120.606 176.821 120.638 176.835C120.744 176.877 120.863 176.92 120.99 176.948C121.246 177.019 121.513 177.075 121.779 177.131C122.321 177.23 122.862 177.315 123.415 177.399C124.522 177.569 125.63 177.71 126.758 177.922C127.034 177.978 127.322 178.034 127.609 178.119C127.886 178.19 128.227 178.331 128.461 178.486C128.716 178.641 128.982 178.768 129.216 178.938L129.921 179.446C130.825 180.165 131.665 180.927 132.442 181.76C134.006 183.411 135.399 185.203 136.666 187.08C137.922 188.956 139.071 190.918 139.965 193.034C140.412 194.093 140.724 195.236 140.937 196.336L141.286 198.001L141.509 199.695C141.573 200.259 141.68 200.824 141.702 201.388L141.798 203.081C141.894 204.21 141.817 205.353 141.828 206.482C141.722 211.012 140.935 215.485 139.955 219.887C138.966 224.29 137.742 228.608 136.603 232.94C136.039 235.099 135.495 237.272 135.016 239.459C134.569 241.618 134.104 243.89 133.38 246.049C130.496 254.713 125.152 262.15 122.002 270.433C121.193 272.507 120.638 274.609 120.255 276.783C119.883 278.956 119.735 281.171 119.597 283.401C119.458 285.644 119.307 287.916 118.828 290.174C118.36 292.431 117.509 294.633 116.327 296.622C116.019 297.102 115.733 297.61 115.393 298.076L114.338 299.445C113.998 299.91 113.57 300.305 113.197 300.729C112.804 301.138 112.413 301.589 112.04 301.97C110.486 303.537 109.048 305.244 107.696 306.994C104.982 310.508 102.607 314.303 100.266 318.113C99.0951 320.018 97.9356 321.951 96.7436 323.856C95.5515 325.761 94.3402 327.652 92.9885 329.501C90.2319 333.141 86.9937 336.359 83.5559 339.28C80.1394 342.229 76.5552 344.952 73.0855 347.76C71.3613 349.171 69.6351 350.597 68.0066 352.106C67.5916 352.473 67.1998 352.868 66.8059 353.249C66.4015 353.63 66.0277 354.011 65.5487 354.421C65.1123 354.844 64.6021 355.169 64.1019 355.507C63.5697 355.789 63.0462 356.1 62.4821 356.297C60.2577 357.215 57.9274 357.412 55.7136 357.68C54.6067 357.807 53.5111 357.948 52.4574 358.174C51.4037 358.4 50.4246 358.739 49.4773 359.218C48.9984 359.458 48.4762 359.74 48.3165 359.938C48.242 360.023 48.1988 360.107 48.1668 360.333C48.1349 360.531 48.1376 360.799 48.1269 361.067V361.476V361.688C48.1269 361.772 48.1163 361.617 48.1269 361.66L48.1469 361.744L48.3265 362.563C48.3904 362.859 48.4436 363.099 48.4861 363.508C48.4861 363.579 48.4975 363.607 48.4762 363.762C48.9232 363.818 47.4132 364.778 47.6047 364.468C47.4451 364.453 47.2642 364.411 47.179 364.369C46.9449 364.284 46.8058 364.185 46.6568 364.087C46.1034 363.691 45.6976 363.282 45.2932 362.873C44.8887 362.45 44.5082 362.026 44.1357 361.617L43.5902 361.01L42.9949 360.375C42.7926 360.164 42.6137 359.924 42.4328 359.684C42.2412 359.458 42.0702 359.204 41.9106 358.95C40.5695 356.961 39.8864 354.562 39.8118 352.205C39.7267 349.849 40.1205 347.535 40.7165 345.319C41.9192 340.888 43.8882 336.782 45.6125 332.69C52.2219 316.025 59.7368 299.656 64.654 282.469C65.8673 278.165 66.9204 273.833 67.8038 269.459C68.1869 267.272 68.6672 265.056 68.8481 262.897C69.0716 260.724 69.0277 258.523 68.8681 256.336C68.5169 251.947 67.4951 247.601 66.3669 243.283C65.2387 238.951 63.9954 234.619 63.144 230.16C62.2925 225.701 61.908 221.073 62.5786 216.487L62.685 215.64L62.8014 214.836C62.8759 214.3 62.9311 213.749 62.9843 213.199C63.0801 212.098 63.1313 210.998 63.1739 209.869C63.2804 207.639 63.3555 205.339 63.8025 203.067C63.909 202.489 64.0374 201.938 64.2183 201.346C64.4099 200.781 64.6227 200.231 64.8569 199.709C65.3252 198.651 65.8693 197.634 66.4334 196.647C67.5829 194.671 68.8601 192.794 70.265 191.002C71.6699 189.224 73.2112 187.531 74.9248 186.021C75.7869 185.273 76.7042 184.568 77.7153 183.989C78.7158 183.411 79.8433 182.945 81.078 182.903C81.2802 182.889 81.4605 183.058 81.4605 183.27C81.4711 183.467 81.3234 183.637 81.1212 183.651L81.0547 183.58Z" fill="black"/>
<path d="M89.8766 44.3479C89.4615 44.3762 89.0058 44.3903 88.5162 44.1504C88.2821 44.0375 88.0453 43.8117 87.9175 43.5436C87.7898 43.2755 87.7579 43.0074 87.7579 42.7675C87.7898 41.7938 88.1524 41.0601 88.4929 40.3263C89.2167 38.887 90.1114 37.6029 91.0374 36.347C91.9633 35.0912 92.9312 33.8918 93.921 32.6923L95.3911 30.9144L96.1029 30.0395C96.3158 29.7573 96.5726 29.4186 96.6683 29.2493L96.6251 29.3481C96.6464 29.3058 96.6677 29.2634 96.6783 29.221L96.6983 29.1787L96.7315 29.1082L96.7947 28.9953C96.8267 28.9248 96.8699 28.8542 96.8912 28.7837C96.9444 28.6567 96.987 28.5155 96.9976 28.4591C96.9976 28.4309 96.997 28.4167 97.0076 28.4591C97.0076 28.4873 97.0409 28.6284 97.1473 28.7131L96.8047 28.4168C96.3045 28.0217 95.6978 27.7253 95.0486 27.4713C93.7288 26.9633 92.252 26.6529 90.7513 26.159C89.9957 25.905 89.238 25.6369 88.4929 25.1854L87.9408 24.8467C87.7599 24.7197 87.6089 24.5786 87.4386 24.4375C87.098 24.1694 86.8239 23.8589 86.5472 23.5344C85.4616 22.2503 84.7591 20.811 84.1525 19.3858C83.5458 17.9606 83.0562 16.5072 82.5028 15.1243C81.9599 13.7555 81.352 12.3868 80.5005 11.4273C80.1067 10.9616 79.5426 10.623 78.904 10.2984C78.276 9.97385 77.6042 9.69162 76.9017 9.43762C75.5181 8.91552 74.0713 8.44982 72.6344 7.9136C71.9107 7.6455 71.1676 7.34918 70.4758 7.01052C70.5077 7.01052 70.1858 6.98229 69.9303 7.06695C69.792 7.09517 69.6443 7.15162 69.5379 7.20806C69.4953 7.22217 69.4095 7.29277 69.5479 7.17988L69.4215 7.33511C68.7616 8.06888 69.1334 9.46582 69.7507 10.7499C70.3681 12.0481 71.167 13.3322 71.9226 14.6728C72.2952 15.3501 72.6677 16.0415 72.987 16.7753C73.2956 17.5232 73.5943 18.3133 73.6156 19.2729C73.6369 19.7385 73.5517 20.2466 73.3495 20.7263C73.1366 21.192 72.8173 21.6153 72.4448 21.9258C72.2639 22.081 72.0716 22.2221 71.8694 22.335C71.6778 22.4478 71.4743 22.5607 71.2508 22.6595C71.1231 22.7018 71.0053 22.7583 70.835 22.7865C70.686 22.8148 70.4645 22.8571 70.1665 22.7865C69.8259 22.716 69.4966 22.3632 69.4115 22.081C69.3263 21.827 69.3243 21.6294 69.335 21.4883C69.3776 20.8957 69.5266 20.5429 69.6543 20.1478L70.0601 19.0612C70.1878 18.7367 70.3241 18.3416 70.3561 18.144C70.3561 18.144 70.3561 18.1158 70.3561 18.1299C70.3561 18.1441 70.3587 18.1581 70.3694 18.1722C70.3694 18.2287 70.3907 18.2852 70.4226 18.3275C70.4013 18.3416 70.4439 18.3557 70.3694 18.2851C70.2949 18.1863 70.1545 18.0593 70.0268 17.9465C67.8343 15.985 65.248 13.9249 64.0133 10.764C63.4173 9.19772 63.4293 7.26453 64.2595 5.75467C65.0258 4.21658 66.269 3.10183 67.5356 2.17051C68.1742 1.70485 68.8474 1.29564 69.5179 0.900534L70.549 0.350223L70.8051 0.209114C70.9328 0.15267 71.1031 0.0821023 71.2308 0.0538805C71.5288 -0.016674 71.7843 -0.00260443 72.0291 0.0115065C72.9763 0.124394 73.7001 0.477193 74.4238 0.815855C75.1369 1.16863 75.7961 1.56376 76.456 1.97298C77.7545 2.7773 79.0091 3.68039 80.2544 4.44238C81.3932 5.17615 82.7675 5.24669 84.1724 4.99269C86.9929 4.42826 89.697 2.9325 92.6239 1.95885C94.0927 1.47908 95.6353 1.06984 97.2637 1.08395C98.0726 1.08395 98.8908 1.19683 99.6784 1.43672C100.072 1.54961 100.447 1.71897 100.819 1.8883L101.85 2.43861C103.202 3.21471 104.481 4.11782 105.609 5.20436C106.748 6.27678 107.704 7.53264 108.502 8.85906C109.311 10.1855 109.951 11.5824 110.611 12.9371C111.271 14.2776 111.984 15.5758 113.006 16.5918C114.017 17.6078 115.335 18.2569 116.751 18.6379C118.167 19.0048 119.668 19.1177 121.158 19.1459H121.168C121.37 19.1459 121.54 19.3152 121.54 19.5269C121.54 19.7386 121.37 19.8938 121.168 19.8938C119.635 19.8938 118.083 19.795 116.561 19.4281C115.05 19.0471 113.547 18.3416 112.397 17.2268C111.248 16.112 110.461 14.7151 109.77 13.3604C109.078 11.9917 108.439 10.6511 107.651 9.39525C106.863 8.13938 105.949 6.98234 104.874 5.99458C103.799 4.99271 102.587 4.16015 101.288 3.44049L100.307 2.93249C99.9877 2.79138 99.6691 2.65026 99.3391 2.56559C98.6686 2.36804 97.9761 2.28337 97.2737 2.28337C95.8581 2.29748 94.4339 2.67851 93.0396 3.15828C91.6454 3.65216 90.2604 4.2448 88.8555 4.83746C87.4506 5.416 86.0037 5.99455 84.4285 6.3191C83.6409 6.47432 82.8114 6.54488 81.9706 6.46021C81.1404 6.37555 80.265 6.07919 79.5625 5.65586C78.2108 4.83743 76.9982 3.97668 75.721 3.20058C75.0824 2.80548 74.4438 2.43863 73.8052 2.11408C73.1666 1.80364 72.4867 1.52141 71.9226 1.46497C71.7949 1.46497 71.6652 1.45087 71.5801 1.47909C71.5268 1.47909 71.5162 1.50727 71.4736 1.50727L71.2308 1.63426L70.2496 2.15639C69.6217 2.53738 68.9951 2.91836 68.4203 3.34169C67.2708 4.20245 66.1972 5.20436 65.6331 6.40378C65.0052 7.5891 65.0151 8.92962 65.4834 10.1996C65.973 11.4696 66.8451 12.6267 67.8349 13.685C68.8354 14.7574 69.953 15.6746 71.1344 16.7189C71.2834 16.86 71.433 16.9869 71.6033 17.1845C71.6672 17.255 71.7936 17.4244 71.8894 17.5937C71.932 17.6925 71.9652 17.7913 71.9759 17.89C71.9865 17.9606 71.9858 18.017 71.9858 18.0734C71.9858 18.2004 71.9765 18.2569 71.9659 18.3416C71.8701 18.8919 71.7184 19.2165 71.5801 19.5975L71.1876 20.6417C71.0705 20.9662 70.9647 21.3331 70.9647 21.5024C70.9541 21.5448 70.9734 21.5306 70.9415 21.4742C70.9202 21.3613 70.7419 21.1638 70.5822 21.1497C70.4652 21.1214 70.4439 21.1496 70.4758 21.1355C70.4971 21.1355 70.549 21.1073 70.6022 21.0932C70.7299 21.0509 70.857 20.9662 70.9847 20.8816C71.1231 20.811 71.2308 20.7263 71.3373 20.6275C71.7736 20.2748 71.9333 19.8514 71.9226 19.2729C71.912 18.6943 71.6865 18.0311 71.4204 17.3962C71.1437 16.747 70.7945 16.098 70.4326 15.4489C69.6982 14.1507 68.8787 12.8666 68.1975 11.4273C67.8569 10.7076 67.5476 9.93146 67.4092 9.04248C67.3454 8.60504 67.3227 8.11121 67.4292 7.61733C67.4717 7.37745 67.5695 7.12344 67.6653 6.89766C67.793 6.67189 67.8975 6.43199 68.0678 6.24855L68.3139 5.96633C68.5906 5.71233 68.6751 5.71236 68.8028 5.64181C69.037 5.52892 69.2505 5.45834 69.4847 5.40189C69.7188 5.34545 69.9536 5.30315 70.2197 5.28903C70.4858 5.28903 70.7951 5.28899 71.1676 5.45832C71.8382 5.78287 72.4974 6.03687 73.1998 6.30498C74.5941 6.81297 76.0503 7.27867 77.4871 7.82899C78.2108 8.0971 78.9353 8.40749 79.659 8.76026C80.3721 9.12714 81.1271 9.56459 81.7444 10.256C82.9045 11.5824 83.5112 13.0641 84.086 14.4893C84.65 15.9145 85.1509 17.3397 85.7257 18.7084C86.3004 20.0631 86.961 21.3613 87.8444 22.3914C88.0679 22.6454 88.2907 22.8994 88.5462 23.0969C88.6739 23.1957 88.791 23.3227 88.9187 23.4074L89.3344 23.6614C89.8879 24 90.5691 24.2541 91.2502 24.4798C92.6339 24.9314 94.1226 25.2418 95.6339 25.8063C96.3896 26.1026 97.1566 26.4695 97.8591 27.0057C98.0294 27.1468 98.201 27.302 98.3713 27.4431C98.5948 27.6689 98.7225 27.9793 98.7438 28.2051C98.7757 28.445 98.7551 28.6143 98.7338 28.7695C98.6806 29.08 98.5828 29.3057 98.4977 29.5174C98.4551 29.6303 98.4012 29.7291 98.348 29.8279L98.2748 29.969L98.2416 30.0254L98.2316 30.0536C98.2422 30.0395 98.2549 30.0113 98.2549 29.9971L98.2116 30.096C97.9243 30.5898 97.6987 30.8439 97.4433 31.1825L96.6883 32.0856C96.1881 32.6783 95.6892 33.2568 95.1783 33.8353C94.1672 34.9924 93.1773 36.1496 92.1982 37.3208C91.2403 38.492 90.291 39.6913 89.514 40.9472C89.1309 41.5681 88.7803 42.2455 88.7058 42.824C88.6845 43.1203 88.7284 43.2614 88.8987 43.4025C89.0903 43.5436 89.4395 43.6142 89.7801 43.6283H89.7934C89.9957 43.6424 90.1526 43.8118 90.1526 44.0234C90.2165 44.1786 90.0682 44.3338 89.8766 44.3479Z" fill="black"/>
<path d="M90.6015 44.8842C90.3674 44.9406 90.1119 44.983 89.8565 45.0112C89.5691 45.0395 89.3988 45.0676 89.2179 45.0958C88.8454 45.1382 88.4822 45.2511 88.1203 45.3499C87.4072 45.5757 86.7061 45.8578 86.0249 46.2247C84.6519 46.9162 83.3408 47.7628 81.9572 48.553C81.276 48.9481 80.5536 49.315 79.8085 49.6396C79.0635 49.9641 78.2227 50.1758 77.5202 50.4016L76.4226 50.7402L75.3816 51.1777L74.8594 51.4034C74.6891 51.4881 74.5301 51.5869 74.3705 51.6715C74.0512 51.855 73.7086 52.0243 73.3893 52.2218C72.144 53.0403 71.091 54.0845 70.3992 55.3545C69.6967 56.6104 69.3794 58.0638 69.3581 59.5313C69.3262 61.013 69.6229 62.5087 70.0167 63.9621C70.4211 65.4297 70.9946 66.8548 71.6332 68.2377C74.2514 73.8115 77.9579 78.8915 81.864 83.7174C83.833 86.1303 85.8739 88.501 87.9706 90.7869C90.078 93.0729 92.3144 95.2601 94.5495 97.4332C99.0623 101.751 103.755 105.914 108.299 110.274C112.833 114.634 117.231 119.206 120.988 124.328C124.756 129.465 127.628 135.123 130.544 140.655C133.46 146.186 136.483 151.661 140.442 156.403C144.359 161.158 149.351 164.968 154.438 168.552C159.547 172.136 164.871 175.537 169.735 179.615C172.161 181.647 174.459 183.905 176.46 186.388C178.471 188.858 180.229 191.51 181.868 194.22C185.125 199.638 187.871 205.283 191.118 210.588C192.735 213.241 194.48 215.795 196.449 218.208C198.397 220.621 200.503 222.907 202.696 225.137C204.888 227.352 207.144 229.525 209.401 231.712L211.094 233.363L211.935 234.196C212.074 234.337 212.201 234.464 212.361 234.619C212.521 234.789 212.658 234.958 212.797 235.127C213.829 236.51 214.458 237.992 215.075 239.459C216.267 242.408 217.181 245.428 218.182 248.391C218.426 249.125 218.684 249.859 218.95 250.579C219.216 251.284 219.501 252.018 219.841 252.611C219.926 252.752 220.024 252.879 220.087 252.949C220.119 252.992 220.139 252.992 220.107 252.977C220.097 252.963 219.905 252.907 219.788 252.963C219.682 253.02 219.801 252.949 219.811 252.949L219.928 252.893L220.151 252.766C220.289 252.667 220.439 252.582 220.566 252.469C221.088 252.046 221.523 251.51 221.864 250.903C222.555 249.676 222.875 248.18 223.078 246.684C223.269 245.174 223.346 243.622 223.42 242.056C223.516 240.489 223.577 238.867 223.992 237.244C224.365 235.734 224.717 234.21 225.047 232.686C226.345 226.576 227.401 220.41 228.103 214.201C228.454 211.096 228.697 207.992 228.772 204.888C228.825 201.797 228.762 198.665 228.113 195.701C228.017 195.335 227.93 194.968 227.824 194.615C227.696 194.276 227.611 193.909 227.451 193.571C227.185 192.936 226.783 192.145 226.507 191.412C225.911 189.916 225.452 188.406 224.973 186.924C224.484 185.443 223.962 184.003 223.28 182.663C222.929 182 222.547 181.379 222.09 180.73L220.779 178.782C217.246 173.618 213.564 168.467 210.711 162.795C209.988 161.384 209.348 159.916 208.762 158.449C208.209 156.981 207.613 155.514 207.103 154.032C206.017 151.069 205.06 148.077 204.112 145.086C202.261 139.074 200.601 133.021 198.887 126.995C197.163 120.97 195.406 114.959 193.31 109.075L192.521 106.873L191.69 104.686C191.413 103.952 191.117 103.247 190.862 102.457C190.606 101.681 190.404 100.904 190.223 100.128C189.861 98.5902 189.564 97.0663 189.095 95.627C188.861 94.9073 188.572 94.2159 188.221 93.5809C187.859 92.9318 187.424 92.2544 187.03 91.5912C183.773 86.2573 180.281 81.0645 176.609 75.9987C174.779 73.4728 172.885 70.9753 170.959 68.5059L169.498 66.6573C169.019 66.0506 168.509 65.4297 168.052 64.7665C167.126 63.4401 166.371 62.043 165.647 60.632C164.923 59.235 164.243 57.8239 163.498 56.4692C163.126 55.7919 162.74 55.1287 162.314 54.4937C162.112 54.1692 161.889 53.8588 161.666 53.5483L160.984 52.5746C159.142 49.9641 157.686 47.1279 156.44 44.2351C153.95 38.4215 152.279 32.3537 149.682 26.6953L148.661 24.6069C148.288 23.9296 147.926 23.2381 147.543 22.5749C147.128 21.9258 146.735 21.2485 146.309 20.6276C145.884 20.0208 145.381 19.4705 144.806 19.0048C143.656 18.0594 142.262 17.4385 140.815 16.9164C140.091 16.6625 139.337 16.4084 138.603 16.1685L137.505 15.844C137.133 15.7452 136.76 15.6747 136.388 15.59C133.397 14.9833 130.257 15.2373 127.404 16.3661C124.541 17.4668 121.987 19.2871 119.634 21.2908C114.909 25.3406 110.93 30.2512 106.088 34.3434C105.481 34.8514 104.864 35.3453 104.225 35.825C103.576 36.2907 102.926 36.7281 102.266 37.1656C100.946 38.0263 99.6051 38.8447 98.2747 39.6773L94.2835 42.1608C93.6236 42.5841 92.9737 43.0075 92.3244 43.4449C92.0051 43.6707 91.6878 43.8823 91.3898 44.1222C91.2408 44.2351 91.0891 44.3621 90.9508 44.475C90.8763 44.5314 90.8244 44.5879 90.7712 44.6443C90.7179 44.6726 90.7399 44.6443 90.6015 44.8842ZM90.0793 44.348C89.9836 44.3903 90.1312 44.2069 90.2057 44.1222C90.2909 44.0375 90.3674 43.9529 90.4419 43.8824C90.6015 43.7413 90.7612 43.6142 90.9208 43.4872C91.2401 43.2332 91.5588 43.0075 91.8887 42.7817C92.5379 42.3301 93.1978 41.9068 93.8577 41.4835L97.839 38.9717C99.1694 38.1392 100.498 37.3067 101.807 36.46C102.456 36.0367 103.105 35.5992 103.723 35.1477C104.34 34.682 104.949 34.2023 105.545 33.6943C110.282 29.6586 114.239 24.7339 119.039 20.5994C121.434 18.5392 124.063 16.6483 127.065 15.4771C128.566 14.8986 130.14 14.5035 131.758 14.3624C133.365 14.2213 134.995 14.32 136.571 14.6163C136.964 14.701 137.358 14.7716 137.751 14.8704L138.912 15.209C139.668 15.4489 140.402 15.6888 141.157 15.9569C142.647 16.479 144.17 17.1422 145.458 18.2006C146.096 18.7227 146.669 19.3435 147.147 20.0208C147.605 20.6982 148.002 21.3613 148.438 22.0387C148.842 22.7301 149.202 23.4216 149.595 24.113L150.65 26.2438C153.321 31.9869 155.005 38.0687 157.485 43.7836C158.719 46.634 160.154 49.3997 161.942 51.9114L162.614 52.8568C162.848 53.1814 163.092 53.5059 163.305 53.8446C163.752 54.5078 164.145 55.1993 164.539 55.9048C165.306 57.3018 165.997 58.7129 166.721 60.0958C167.434 61.4786 168.19 62.8332 169.063 64.075C169.488 64.6959 169.98 65.2885 170.47 65.9094L171.936 67.7579C173.873 70.2274 175.789 72.725 177.641 75.265C181.355 80.3308 184.869 85.5659 188.157 90.9281C188.562 91.6054 188.977 92.2404 189.381 92.9741C189.786 93.7079 190.104 94.4699 190.359 95.246C190.87 96.7982 191.168 98.3504 191.53 99.8602C191.711 100.608 191.905 101.356 192.139 102.076C192.373 102.767 192.67 103.501 192.957 104.249L193.798 106.45L194.597 108.665C196.715 114.592 198.493 120.631 200.218 126.657C201.942 132.696 203.601 138.736 205.453 144.705C206.4 147.682 207.347 150.659 208.433 153.595C208.944 155.076 209.529 156.515 210.083 157.969C210.657 159.408 211.275 160.819 211.989 162.202C214.777 167.748 218.426 172.842 221.97 178.02L223.3 179.968C223.737 180.603 224.195 181.322 224.568 182.042C225.313 183.495 225.867 185.005 226.357 186.515C226.857 188.011 227.303 189.507 227.867 190.918C228.154 191.652 228.474 192.244 228.815 193.063C228.996 193.444 229.092 193.839 229.231 194.234C229.348 194.629 229.444 195.024 229.54 195.419C230.232 198.594 230.284 201.797 230.252 204.958C230.177 208.119 229.931 211.266 229.58 214.398C228.877 220.664 227.836 226.872 226.527 233.025C226.197 234.563 225.855 236.101 225.472 237.639C225.1 239.064 225.035 240.602 224.95 242.154C224.865 243.721 224.814 245.301 224.601 246.91C224.388 248.504 224.058 250.155 223.217 251.679C222.802 252.427 222.237 253.147 221.534 253.697C221.364 253.838 221.173 253.951 220.992 254.092L220.706 254.262L220.556 254.346C220.482 254.374 220.522 254.374 220.32 254.459C220.012 254.586 219.61 254.501 219.429 254.389C219.227 254.276 219.099 254.163 219.003 254.05C218.812 253.838 218.671 253.641 218.554 253.443C218.107 252.667 217.83 251.933 217.543 251.171C217.256 250.423 217 249.676 216.745 248.928C215.744 245.95 214.818 242.959 213.658 240.094C213.073 238.683 212.434 237.258 211.583 236.129C211.476 235.988 211.371 235.861 211.253 235.748L210.848 235.353L210.02 234.535L208.337 232.898C206.091 230.725 203.815 228.552 201.601 226.308C199.387 224.064 197.236 221.736 195.245 219.281C193.234 216.825 191.437 214.201 189.787 211.506C186.488 206.115 183.729 200.457 180.514 195.137C178.907 192.47 177.184 189.888 175.236 187.503C173.299 185.104 171.098 182.945 168.713 180.956C163.967 176.962 158.675 173.604 153.513 169.991C150.938 168.185 148.383 166.308 145.957 164.276C143.519 162.244 141.222 160.029 139.178 157.56C135.081 152.663 132.005 147.075 129.067 141.53C126.13 135.984 123.286 130.41 119.615 125.429C115.943 120.434 111.611 115.933 107.099 111.615C102.586 107.297 97.8802 103.148 93.3355 98.7878C91.0685 96.6006 88.8221 94.3852 86.6934 92.0428C84.5648 89.7004 82.5233 87.3157 80.5436 84.8463C78.5639 82.391 76.6694 79.8651 74.9026 77.2264C73.1465 74.5876 71.4975 71.8643 70.2096 68.9292C69.5604 67.4617 68.9843 65.9659 68.5799 64.3855C68.1754 62.8192 67.8774 61.1964 67.9413 59.5313C67.9838 57.8804 68.3869 56.1729 69.2384 54.7054C70.0792 53.2378 71.3365 52.0384 72.7307 51.1635C73.082 50.9519 73.4532 50.7685 73.815 50.585C73.996 50.4863 74.1796 50.3875 74.3605 50.3028L74.9226 50.077L76.0634 49.6396L77.2209 49.3151C78.0191 49.0752 78.7136 48.934 79.4161 48.6518C80.1185 48.3696 80.8077 48.0451 81.4782 47.6782C82.8406 46.9585 84.1949 46.126 85.6424 45.4346C86.3662 45.0818 87.1305 44.8137 87.9074 44.5879C88.3119 44.4891 88.7064 44.3903 89.1214 44.3621C89.5898 44.2351 89.7388 44.2774 90.0793 44.348Z" fill="black"/>
<path d="M86.0021 193.246C84.9272 194.798 83.8947 196.407 82.9156 198.044C82.426 198.848 81.9158 199.681 81.522 200.471C81.4475 200.626 81.3643 200.866 81.2792 201.078C81.194 201.289 81.1075 201.515 81.033 201.727C80.8734 202.164 80.7257 202.602 80.5873 203.053C79.4698 206.595 79.0946 210.349 79.9354 213.904C80.3505 215.626 81.0636 217.503 81.5852 219.351C82.1386 221.2 82.6388 223.062 83.1284 224.925C84.0757 228.664 84.8739 232.418 85.5764 236.2C86.9813 243.763 88.0057 251.369 89.0488 258.946L89.8337 264.633C90.0785 266.566 90.2608 268.499 90.2927 270.447C90.3885 274.327 90.0812 278.222 89.4213 282.046C88.0802 289.694 85.5145 297.032 82.3535 304.045C79.1818 311.072 75.444 317.803 71.5272 324.393C69.5689 327.695 67.5586 330.954 65.547 334.214L62.5336 339.11C61.4799 340.775 60.1928 342.257 58.8517 343.654C56.1696 346.448 53.234 348.903 50.6264 351.669C49.3279 353.038 48.1013 354.505 47.154 356.114C46.2174 357.723 45.5915 359.515 45.5808 361.363C45.5808 361.575 45.4112 361.73 45.1983 361.73C44.9961 361.73 44.8258 361.561 44.8258 361.363C44.8152 359.36 45.4737 357.412 46.4423 355.705C47.4214 353.997 48.6554 352.488 49.9645 351.062C52.5934 348.226 55.4997 345.714 58.0967 342.949C59.3952 341.566 60.6205 340.112 61.589 338.532L64.5359 333.607C66.5049 330.319 68.4733 327.031 70.3997 323.744C74.2526 317.14 77.9239 310.423 80.9998 303.466C84.0757 296.51 86.5456 289.257 87.8015 281.792C88.4295 278.067 88.7188 274.285 88.623 270.517C88.5911 268.626 88.4088 266.75 88.164 264.887L87.3658 259.2C86.3015 251.609 85.2691 244.031 83.8535 236.538C83.151 232.785 82.3528 229.06 81.4055 225.377C80.9266 223.528 80.4257 221.694 79.8722 219.873C79.3401 218.025 78.6795 216.317 78.1793 214.328C77.7216 212.38 77.5966 210.334 77.7669 208.345C77.8414 207.343 78.009 206.369 78.2325 205.396C78.4454 204.422 78.7341 203.477 79.064 202.545C79.2237 202.08 79.4046 201.628 79.5962 201.176C79.6813 200.951 79.7891 200.725 79.8955 200.499C80.002 200.273 80.0758 200.062 80.2248 199.794C80.7463 198.89 81.2978 198.129 81.8512 197.338C82.4153 196.548 83.002 195.786 83.5874 195.024C84.1728 194.262 84.7801 193.514 85.44 192.78C85.5784 192.625 85.8125 192.611 85.9722 192.752C86.0893 192.879 86.1086 193.091 86.0021 193.246Z" fill="black"/>
<path d="M118.426 185.048C118.703 184.991 118.754 184.751 118.722 184.653C118.722 184.61 118.713 184.596 118.702 184.582C118.713 184.582 118.712 184.596 118.722 184.61L118.819 184.723L119.052 184.963L119.544 185.443L120.542 186.402C121.202 187.037 121.907 187.7 122.524 188.406C123.759 189.775 125.034 191.144 126.226 192.597C127.418 194.05 128.557 195.589 129.462 197.324C129.92 198.213 130.228 199.088 130.59 199.963C130.92 200.852 131.241 201.741 131.518 202.644C132.614 206.27 133.261 210.024 133.463 213.792C133.708 217.559 133.528 221.313 133.177 225.038C132.996 226.901 132.771 228.749 132.515 230.598C132.441 231.063 132.401 231.515 132.316 231.98L132.026 233.392C131.931 233.857 131.847 234.337 131.73 234.803L131.305 236.171C130.155 239.826 128.301 243.185 126.183 246.275C124.065 249.379 121.682 252.272 119.351 255.136C117.009 258.015 114.69 260.88 112.785 263.97L112.07 265.127L111.455 266.326C111.253 266.736 111.017 267.117 110.846 267.54L110.347 268.782C109.687 270.447 109.217 272.225 108.834 274.003C108.057 277.573 107.675 281.242 107.271 284.939C106.856 288.622 106.419 292.361 105.525 296.016C104.62 299.67 103.312 303.198 101.833 306.627C100.364 310.07 98.6596 313.386 96.8503 316.646C95.0622 319.92 93.1052 323.094 91.0829 326.199C89.0607 329.317 86.8881 332.351 84.6105 335.3C82.3222 338.235 79.9374 341.1 77.2766 343.739C77.1276 343.88 76.8934 343.88 76.7444 343.739C76.606 343.598 76.606 343.358 76.7444 343.217C79.3307 340.592 81.6636 337.713 83.8987 334.764C86.1125 331.815 88.2292 328.767 90.1982 325.649C92.1779 322.53 94.0744 319.355 95.8092 316.081C97.5547 312.822 99.1925 309.52 100.619 306.119C102.056 302.732 103.313 299.261 104.164 295.705C105.005 292.149 105.408 288.48 105.791 284.798C106.174 281.115 106.527 277.389 107.304 273.692C107.687 271.844 108.155 270.023 108.847 268.231L109.366 266.891C109.547 266.439 109.782 266.03 109.995 265.607L110.643 264.337L111.378 263.123C113.358 259.892 115.723 256.985 118.054 254.092C120.395 251.214 122.725 248.349 124.779 245.329C126.823 242.31 128.591 239.092 129.655 235.649L130.057 234.365C130.164 233.928 130.238 233.49 130.333 233.053L130.6 231.726C130.685 231.289 130.729 230.823 130.792 230.358C131.048 228.523 131.25 226.703 131.431 224.869C132.123 217.559 131.963 210.123 129.781 203.166C129.664 202.729 129.494 202.305 129.356 201.868C129.207 201.444 129.08 201.007 128.91 200.584C128.569 199.751 128.259 198.862 127.876 198.1C127.109 196.52 126.055 195.038 124.959 193.571C123.862 192.103 122.682 190.692 121.533 189.21C120.979 188.477 120.393 187.799 119.787 187.094L118.872 186.035L118.426 185.485L118.2 185.189C118.168 185.132 118.126 185.09 118.084 185.019C118.062 184.991 118.042 184.949 118.02 184.892C117.999 184.85 117.988 184.808 117.977 184.751C117.945 184.61 118.011 184.356 118.32 184.286C118.522 184.257 118.711 184.399 118.732 184.61C118.775 184.822 118.639 185.019 118.426 185.048Z" fill="black"/>
<path d="M94.9963 41.7798C95.1985 46.9726 96.5422 51.9961 98.6283 56.7233L99.4266 58.4871L100.298 60.1804L100.734 61.0271C100.893 61.2952 101.076 61.5633 101.246 61.8314L102.277 63.44C103.788 65.4861 105.416 67.4757 107.289 69.2537C110.929 72.8943 115.125 76.027 119.18 79.3571C123.246 82.6732 127.237 86.2433 130.462 90.5189C132.026 92.7343 133.367 94.9356 134.772 97.151C136.167 99.3664 137.54 101.61 138.86 103.882C140.169 106.168 141.423 108.482 142.509 110.923C143.594 113.35 144.489 115.834 145.372 118.289C146.256 120.744 147.149 123.186 148.213 125.528C149.267 127.87 150.535 130.1 152.068 132.132C155.282 136.196 158.645 140.217 162.072 144.154C168.895 152.071 175.963 159.803 182.551 167.974C185.829 172.066 188.968 176.285 191.927 180.631C194.886 184.977 197.556 189.507 200.089 194.107C201.281 196.449 202.548 198.749 203.645 201.148C204.741 203.533 205.751 205.974 206.698 208.415C208.592 213.312 210.253 218.293 211.86 223.274L214.245 230.753L215.449 234.492L215.598 234.958L215.671 235.17L215.758 235.381L216.14 236.27L216.929 238.062C217.972 240.475 218.97 242.902 219.779 245.414C220.173 246.67 220.547 247.94 220.77 249.266C220.887 249.93 220.96 250.593 220.96 251.284C220.949 251.962 220.875 252.695 220.471 253.373C220.365 253.556 220.132 253.613 219.962 253.5C219.792 253.387 219.726 253.161 219.832 252.992L219.842 252.978C220.119 252.526 220.194 251.905 220.205 251.284C220.205 250.663 220.132 250.028 220.015 249.407C219.792 248.152 219.418 246.91 219.024 245.668C218.205 243.213 217.194 240.8 216.14 238.415L215.332 236.623L214.926 235.72L214.83 235.48L214.747 235.226L214.587 234.76L213.35 231.035L210.892 223.585C207.593 213.665 204.092 203.801 198.962 194.728C196.428 190.184 193.748 185.697 190.799 181.407C187.841 177.117 184.711 172.955 181.433 168.891C174.845 160.805 167.744 153.115 160.868 145.213C157.42 141.262 154.069 137.254 150.781 133.12C149.152 130.975 147.819 128.632 146.723 126.205C145.627 123.778 144.713 121.309 143.829 118.839C142.935 116.384 142.052 113.943 140.999 111.586C139.956 109.244 138.698 106.958 137.41 104.714C136.111 102.471 134.74 100.255 133.345 98.0399L131.25 94.7239L130.728 93.8913L130.186 93.1011L129.098 91.5207C126.012 87.4285 122.139 83.9714 118.106 80.6835C114.082 77.3816 109.846 74.2349 106.079 70.4814C104.152 68.647 102.469 66.5586 100.883 64.3996L99.819 62.6922C99.6488 62.4099 99.4565 62.1277 99.2969 61.8314L98.8512 60.9283L97.9664 59.1221C97.7004 58.5154 97.4562 57.9086 97.2114 57.2877C96.2535 54.8183 95.4347 52.2783 94.9131 49.6678C94.4235 47.0573 94.1874 44.3903 94.3045 41.7516C94.3151 41.5399 94.4874 41.3847 94.7003 41.3988C94.828 41.4412 94.9856 41.5964 94.9963 41.7798Z" fill="black"/>
<path d="M113.636 26.8082C114.786 27.161 116.007 27.0763 117.188 26.78C118.38 26.4695 119.542 25.9756 120.734 25.4959C123.097 24.5363 125.673 23.5909 128.44 23.6191C129.813 23.6333 131.187 23.8872 132.475 24.3529C133.113 24.5928 133.741 24.8609 134.337 25.1855L134.783 25.4253C134.932 25.51 135.082 25.5805 135.242 25.7075C135.402 25.8204 135.583 25.9474 135.721 26.0744L136.114 26.4695C137.103 27.5278 137.763 28.6708 138.412 29.8138C139.05 30.9709 139.636 32.128 140.158 33.3133C142.287 38.0404 144.042 42.8946 145.756 47.7346C147.459 52.5888 149.065 57.4712 150.768 62.283C151.204 63.4824 151.632 64.6818 152.132 65.8248C152.653 66.9819 153.152 68.1672 153.695 69.3102C154.781 71.6102 155.911 73.8962 157.124 76.1398C159.54 80.6412 162.18 85.0156 164.947 89.3053C167.725 93.6092 170.639 97.8142 173.598 102.005L178.058 108.27C179.548 110.359 181.07 112.405 182.475 114.649C183.816 116.892 184.965 119.235 185.997 121.619C186.998 124.018 187.913 126.431 188.711 128.886C190.351 133.783 191.673 138.764 193.035 143.703C193.716 146.172 194.386 148.642 195.121 151.097C195.472 152.325 195.874 153.538 196.268 154.752C196.705 155.937 197.1 157.15 197.579 158.336C199.452 163.063 201.784 167.621 204.211 172.136C206.648 176.638 209.19 181.111 211.531 185.697C213.873 190.283 216.025 194.996 217.621 199.921L217.927 200.838L218.193 201.769L218.706 203.646C219.046 204.888 219.332 206.115 219.684 207.357C220.365 209.826 221.1 212.282 221.845 214.737C223.336 219.648 224.899 224.53 226.485 229.412C226.549 229.61 226.444 229.822 226.252 229.878C226.061 229.949 225.847 229.836 225.783 229.638C224.155 224.77 222.547 219.887 221.004 214.991C220.238 212.536 219.482 210.08 218.769 207.611C218.407 206.383 218.088 205.113 217.748 203.886L217.226 202.051L216.959 201.134L216.65 200.231C215.032 195.405 212.863 190.763 210.5 186.233C208.127 181.703 205.539 177.273 203.08 172.757C200.611 168.242 198.239 163.656 196.301 158.844C195.812 157.644 195.398 156.417 194.951 155.203C194.547 153.976 194.14 152.748 193.767 151.52C193.011 149.051 192.32 146.581 191.628 144.112C190.245 139.173 188.894 134.22 187.255 129.394C186.456 126.967 185.53 124.597 184.551 122.254C183.529 119.926 182.4 117.668 181.102 115.509C179.771 113.407 178.228 111.332 176.738 109.244L172.258 102.979C169.288 98.7878 166.353 94.5687 163.553 90.2367C160.754 85.9187 158.082 81.502 155.634 76.9583C154.399 74.6865 153.249 72.3723 152.142 70.044C151.588 68.8728 151.087 67.6875 150.555 66.5162C150.034 65.3027 149.588 64.0891 149.152 62.8756C147.427 58.0215 145.819 53.1532 144.116 48.3273C142.402 43.5014 140.648 38.6896 138.562 34.0612C138.04 32.9041 137.475 31.7752 136.879 30.6746C136.283 29.5881 135.636 28.5015 134.87 27.6689L134.58 27.3727C134.484 27.288 134.39 27.2315 134.294 27.1469C134.22 27.0763 134.069 26.9916 133.942 26.9211L133.549 26.6953C133.017 26.399 132.474 26.145 131.909 25.9333C130.792 25.4959 129.609 25.2701 128.417 25.1995C126.012 25.0725 123.608 25.8204 121.203 26.6812C119.99 27.0904 118.744 27.5279 117.435 27.7819C116.125 28.0359 114.677 28.0217 113.4 27.4996C113.208 27.415 113.112 27.2033 113.197 27.0058C113.25 26.8505 113.445 26.7518 113.636 26.8082Z" fill="black"/>
<path d="M46.8872 83.1107C46.7701 83.2659 46.5267 83.3223 46.3351 83.1812C46.2606 83.1248 46.2194 83.0683 46.2087 83.026C46.1768 82.9695 46.1535 82.9272 46.1322 82.8849C46.1003 82.8143 46.0803 82.7438 46.059 82.6873C46.0165 82.5603 45.9845 82.4474 45.9526 82.3204C45.8994 82.0806 45.8448 81.8406 45.8129 81.6008C45.7384 81.121 45.6972 80.6412 45.6865 80.1614C45.6865 79.6675 45.7065 79.1737 45.8129 78.6375C45.8661 78.3835 45.9719 78.073 46.089 77.8331L46.4316 77.1558C46.9318 76.281 47.5711 75.519 48.2309 74.8275C48.9015 74.1502 49.6033 73.5293 50.3164 72.9226C51.0188 72.3299 51.71 71.7514 52.3486 71.1446C52.9978 70.5378 53.5945 69.9169 54.0415 69.2396C54.9781 67.8991 55.2322 66.3046 54.9662 64.5971C54.732 62.8897 54.1466 61.1259 53.9018 59.1927C53.7848 58.2332 53.7648 57.203 53.9351 56.2012C54.0947 55.1993 54.4446 54.2257 54.9662 53.3367C55.4983 52.4618 56.2015 51.6857 56.9784 51.0648C57.766 50.4298 58.6175 49.9501 59.4796 49.5267C60.3311 49.1034 61.2038 48.7506 62.034 48.3979C62.8535 48.0451 63.6717 47.6641 64.1826 47.1984C64.2997 47.0856 64.4181 46.9586 64.4819 46.8457C64.5032 46.8174 64.5139 46.7892 64.5352 46.7469L64.5984 46.6058L64.7281 46.3235C64.9197 45.9425 65.0261 45.5475 65.1538 45.1524C65.356 44.348 65.4412 43.4873 65.4731 42.5983C65.505 41.7093 65.4924 40.7639 65.6095 39.7902C65.7266 38.8166 66.0039 37.8429 66.3977 36.9257C66.6319 36.4882 66.8221 36.0367 67.1095 35.6416L67.5153 35.0348C67.6537 34.8373 67.812 34.6538 67.961 34.4704L68.41 33.906L68.8989 33.3838L69.3879 32.8618C69.4091 32.8335 69.5162 32.7347 69.5907 32.6783C69.6759 32.6218 69.7491 32.5796 69.8236 32.5231C69.9832 32.4384 70.1335 32.382 70.2826 32.3396C70.8679 32.1844 71.3682 32.1985 71.8791 32.2126C72.3793 32.2409 72.8569 32.3114 73.3359 32.4102C73.8148 32.509 74.2731 32.6219 74.7627 32.7912C74.8798 32.8335 75.0069 32.89 75.1452 32.9464C75.2091 32.9747 75.2862 33.017 75.3714 33.0734C75.414 33.1016 75.4778 33.144 75.531 33.2004C75.5736 33.2427 75.6149 33.2992 75.6574 33.3556C75.6681 33.3698 75.6987 33.4262 75.7306 33.5109C75.7519 33.5814 75.7738 33.6661 75.7738 33.7507C75.7951 33.8918 75.7013 34.1317 75.5843 34.2587L75.4978 34.3293C75.4446 34.3716 75.3907 34.4139 75.3481 34.4421C75.263 34.4986 75.1891 34.5269 75.1253 34.5692C74.9869 34.6397 74.8705 34.682 74.7428 34.7244C74.2745 34.8937 73.8361 35.0066 73.4423 35.1477C73.2401 35.2182 73.0804 35.2888 72.9633 35.3735L72.4744 35.7545C71.8571 36.2907 71.3163 36.9257 71.0076 37.7159C70.3265 39.254 70.218 41.0743 70.3457 42.8522C70.4522 44.6443 70.7934 46.4365 71.0808 48.2568C71.2511 49.1881 71.2285 50.1758 71.154 51.1071L71.0376 52.4759C71.0163 52.7017 71.007 52.9274 71.0176 53.1109C71.0176 53.2097 71.0369 53.3084 71.0475 53.3507C71.0582 53.379 71.0589 53.379 71.0376 53.3507C71.0163 53.3225 70.9531 53.2943 70.9212 53.3084C71.134 53.3084 71.2937 53.4778 71.2937 53.6894C71.2937 53.9011 71.1234 54.0704 70.9212 54.0704C70.7828 54.0704 70.6012 54.014 70.5054 53.9011C70.4096 53.8023 70.3577 53.6894 70.3258 53.6048C70.2726 53.4354 70.25 53.2943 70.2393 53.1673C70.218 52.8992 70.2287 52.6734 70.2393 52.4335L70.3258 51.0507C70.3684 50.1476 70.3571 49.2727 70.1761 48.4119C69.8568 46.6198 69.451 44.7996 69.2914 42.9369C69.1317 41.0743 69.1537 39.0988 69.92 37.2503C70.2712 36.3189 70.9212 35.4864 71.6662 34.809L72.2615 34.3434C72.517 34.16 72.793 34.047 73.0166 33.9624C73.4849 33.7931 73.9332 33.666 74.327 33.5249C74.4228 33.4826 74.5186 33.4544 74.5931 33.4121C74.625 33.398 74.6556 33.3839 74.6663 33.3698C74.6876 33.3557 74.6669 33.3698 74.6563 33.3698L74.6463 33.3838C74.5292 33.4826 74.466 33.6943 74.4767 33.8213C74.4767 33.8777 74.4853 33.9483 74.5066 34.0188C74.5385 34.0894 74.5598 34.1317 74.5598 34.1317C74.5811 34.16 74.6044 34.1882 74.6363 34.2164C74.647 34.2305 74.6563 34.2305 74.6563 34.2305C74.6456 34.2305 74.6257 34.2164 74.5831 34.1882C74.5086 34.16 74.4228 34.1176 74.327 34.0894C73.9439 33.9624 73.5188 33.8495 73.0931 33.779C72.2629 33.6238 71.3243 33.5391 70.675 33.7225C70.6005 33.7508 70.538 33.7649 70.4954 33.7931L70.4422 33.8213C70.4316 33.8354 70.4422 33.8213 70.389 33.8777L69.9433 34.3716L69.4943 34.8655L69.0918 35.3876C68.9641 35.5569 68.8131 35.7263 68.696 35.9097L68.3568 36.46C68.1013 36.8128 67.9503 37.2079 67.7481 37.5889C67.4288 38.365 67.208 39.1693 67.1228 40.0301C67.027 40.8767 67.0477 41.7798 67.0264 42.7111C67.0051 43.6566 66.9312 44.6443 66.6971 45.618C66.5481 46.0978 66.4283 46.5775 66.2048 47.0432L66.0585 47.3819L65.982 47.5512C65.9501 47.6077 65.8975 47.6923 65.8656 47.7629C65.7059 48.0451 65.4924 48.2709 65.2902 48.4684C64.4387 49.2304 63.534 49.5973 62.6826 49.9924C61.8205 50.3734 60.9923 50.712 60.2047 51.1071C58.6295 51.8832 57.2325 52.8851 56.413 54.2821C56.0085 54.9735 55.7325 55.7637 55.6048 56.5681C55.477 57.3724 55.4883 58.2049 55.5948 59.0656C55.8076 60.7731 56.4023 62.5228 56.6791 64.456C56.8174 65.4156 56.8707 66.4457 56.6791 67.4757C56.4981 68.4917 56.0624 69.4936 55.4983 70.3403C54.9342 71.187 54.2544 71.9066 53.5626 72.5557C52.8708 73.2189 52.1557 73.8116 51.4638 74.4042C50.0696 75.5895 48.7199 76.7325 47.762 78.1013L47.4327 78.6375C47.3263 78.7927 47.2704 78.9338 47.2065 79.1172C47.0788 79.47 47.007 79.8933 46.9537 80.3167C46.9005 80.74 46.8679 81.1775 46.8573 81.629C46.8466 81.8548 46.8466 82.0664 46.8573 82.2781C46.8573 82.3909 46.8673 82.4897 46.8673 82.5885L46.8772 82.7155C46.8772 82.7296 46.8779 82.7437 46.8673 82.7296C46.8566 82.7296 46.8446 82.6873 46.7808 82.645C46.6105 82.518 46.3976 82.5744 46.3018 82.7155C46.4296 82.5603 46.6644 82.5321 46.824 82.6591C46.9837 82.7155 47.0149 82.9413 46.8872 83.1107Z" fill="black"/>
<path d="M69.3981 64.7242C69.3768 64.9076 69.2717 65.2604 69.2185 65.5567C69.144 65.8671 69.0702 66.1776 68.9956 66.5021C68.8466 67.1371 68.6531 67.7721 68.4402 68.393L67.8249 70.298L67.6752 70.7777C67.6114 70.947 67.5781 71.0741 67.4823 71.2998C67.3227 71.7091 67.1098 72.0477 66.8969 72.3582C66.4712 72.9649 66.0248 73.4729 65.6097 73.9809C65.4075 74.2349 65.2046 74.4748 65.0343 74.7288C64.8534 74.9686 64.7277 75.2085 64.6851 75.3638C64.5574 75.8153 64.5341 76.4644 64.5554 77.0994C64.5767 77.7344 64.6306 78.3835 64.7051 79.0326C64.9818 81.6572 65.4621 84.2959 65.9091 86.9347C66.1432 88.2611 66.3328 89.5876 66.5244 90.9281C66.7053 92.2686 66.8863 93.6092 66.8437 95.0061C66.8437 95.2178 66.6634 95.373 66.4612 95.373C66.2696 95.373 66.12 95.2178 66.0987 95.0344V95.0061C65.8752 92.4238 65.1853 89.7992 64.6319 87.1746C64.0784 84.55 63.4824 81.9254 63.0886 79.2161C63.0035 78.5387 62.9283 77.8473 62.8857 77.1417C62.8644 76.4362 62.8332 75.7306 63.0354 74.8699C63.1738 74.376 63.3953 74.0374 63.5975 73.7269C63.8104 73.4165 64.0232 73.1343 64.2361 72.8662C64.6618 72.33 65.0896 71.822 65.4301 71.3281C65.6004 71.0882 65.7375 70.8483 65.8226 70.6366C65.8545 70.5519 65.9197 70.3544 65.9623 70.2133L66.112 69.7335L66.7173 67.8004C66.9302 67.1513 67.1657 66.5163 67.4956 65.8954C67.6553 65.585 67.8349 65.2745 68.0477 64.9782C68.2819 64.6819 68.4615 64.3855 68.9191 64.1174C69.0788 64.0186 69.2824 64.0751 69.3781 64.2303C69.4207 64.3008 69.432 64.3714 69.4214 64.4561L69.3981 64.7242Z" fill="black"/>
<path d="M16.9275 91.5348C17.5342 88.3458 18.4947 85.1285 20.3999 82.391C21.3471 81.0223 22.5392 79.8087 23.9654 78.9197C24.6785 78.4682 25.4328 78.0872 26.2204 77.805C27.0081 77.5086 27.8183 77.2829 28.6485 77.1559C31.9585 76.5914 35.2999 77.1558 38.4503 77.9884C40.0468 78.4258 41.6107 79.0044 43.0901 79.7805C44.5589 80.5707 45.9432 81.502 47.231 82.518C49.796 84.5782 52.0185 86.9629 54.5516 88.7409C55.1902 89.1642 55.8421 89.5734 56.5339 89.898C56.8639 90.0814 57.2238 90.1943 57.575 90.3495L58.1071 90.5612L58.6825 90.7446C60.2258 91.2526 61.7811 91.8171 63.2924 92.4944C64.8038 93.1859 66.3032 93.9901 67.6229 95.2037C67.6974 95.2742 67.8032 95.3871 67.8458 95.4153C67.8458 95.3871 67.8025 95.4012 67.8558 95.4153C67.877 95.4153 67.8884 95.4295 67.899 95.4436L67.9954 95.4718C68.0487 95.4859 68.1232 95.5 68.2083 95.5141C68.517 95.5565 68.8895 95.5706 69.2726 95.5706C70.039 95.5706 70.8479 95.5141 71.7206 95.5423C71.9441 95.5564 72.167 95.5565 72.4224 95.5988C72.5395 95.6129 72.6898 95.6411 72.8282 95.6834C72.9878 95.7258 73.051 95.754 73.1575 95.7964C73.5619 95.9375 73.9444 96.0926 74.3382 96.2479C75.1045 96.5724 75.8622 96.9252 76.5966 97.3062C78.0654 98.0682 79.4916 98.9008 80.8539 99.8321C82.2162 100.763 83.5353 101.751 84.7487 102.993C85.9727 104.348 86.7164 105.872 87.3763 107.41C88.0042 108.962 88.4938 110.542 88.8663 112.165C89.2282 113.788 89.4943 115.425 89.5581 117.118C89.5901 117.541 89.5581 117.965 89.5581 118.388C89.5368 118.825 89.5056 119.249 89.4417 119.686C89.314 120.603 88.9947 121.365 88.7499 122.184C88.6435 122.593 88.4306 122.96 88.271 123.355L87.7488 124.498C87.3337 125.218 86.9519 125.965 86.5048 126.657C84.738 129.451 82.6506 131.963 80.6178 134.46C78.5742 136.958 76.5414 139.427 74.7639 142.066C72.9971 144.691 71.5071 147.499 70.6663 150.49C69.8148 153.482 69.6245 156.671 69.7416 159.832C69.8587 163.007 70.2518 166.196 70.6031 169.413C70.7734 171.021 70.9536 172.63 71.0388 174.267C71.1026 175.085 71.1033 175.904 71.1352 176.722C71.1139 177.555 71.1339 178.373 71.0488 179.206C71.0062 179.615 70.9962 180.038 70.9323 180.448L70.7428 181.689C70.6789 182.099 70.5392 182.508 70.4434 182.931C70.3902 183.143 70.3376 183.34 70.2738 183.552L70.0509 184.145C69.4975 185.739 68.6966 187.207 67.8558 188.618C66.1635 191.44 64.2277 194.022 62.5141 196.717C60.7899 199.398 59.3305 202.221 58.4896 205.226C57.6701 208.232 57.6402 211.407 57.9275 214.582C58.1936 217.757 58.6825 220.974 58.7358 224.276V225.518L58.6825 226.76C58.6187 227.592 58.5229 228.425 58.4165 229.215C58.2142 230.823 57.9914 232.418 57.7679 234.027C57.2996 237.23 56.788 240.419 56.1814 243.608C55.5853 246.797 54.9161 249.958 54.1392 253.105C53.3729 256.237 52.5294 259.412 51.3586 262.46C49.0171 268.556 45.8035 274.257 42.1422 279.619C38.4596 284.967 34.2887 289.976 29.6695 294.562C27.3387 296.834 24.8275 298.979 21.9432 300.63C20.517 301.463 18.9418 302.083 17.4198 302.62C15.8871 303.156 14.3532 303.664 12.8099 304.158H12.7999C12.47 304.257 12.128 304.087 12.0216 303.749C11.9258 303.452 12.0742 303.128 12.3509 302.987C12.8937 302.733 13.4052 302.493 13.9906 302.281C14.1609 302.225 14.2474 302.182 14.3432 302.126C14.439 302.083 14.5328 302.041 14.6392 301.956L14.9286 301.745L15.2046 301.477C15.9284 300.757 16.5031 299.769 16.9608 298.782C17.4184 297.78 17.7697 296.721 17.9719 295.649C18.1528 294.591 18.2692 293.462 17.8754 292.587C17.5029 291.641 16.7685 290.837 15.9596 290.075C15.1401 289.327 14.2254 288.622 13.342 287.817C12.4799 287.013 11.6165 286.096 11.0737 284.953C10.5734 283.81 10.2548 282.653 10.0526 281.496C9.61621 279.181 9.4253 276.867 9.29758 274.553C9.16986 272.239 9.11531 269.925 9.10467 267.625C9.08338 263.01 9.22241 258.396 9.30756 253.796L9.33084 252.074C9.3202 251.51 9.29891 250.931 9.27762 250.367L9.2111 248.66C9.16853 248.095 9.09469 247.531 9.04148 246.952L8.86187 245.245L8.59579 243.551L8.31973 241.858L7.97714 240.179C7.05118 235.692 5.76467 231.289 4.49811 226.858C3.23156 222.427 1.97432 217.983 1.11221 213.425C0.2501 208.881 -0.206897 204.21 0.0911154 199.554C0.367841 194.897 1.42219 190.339 2.68875 185.909C3.96595 181.464 5.4447 177.103 6.68997 172.687C7.94588 168.27 8.89247 163.783 9.14791 159.225C9.26499 158.082 9.17984 156.953 9.20113 155.81C9.17984 154.667 9.03283 153.538 8.95832 152.409C8.67096 150.123 8.43547 147.823 8.23325 145.523C7.85009 140.923 7.6492 136.295 7.78756 131.666C7.86206 129.352 8.0104 127.038 8.27649 124.738C8.40421 123.581 8.57384 122.438 8.76542 121.295C8.96764 120.123 9.30689 118.995 9.69005 117.894C11.244 113.491 13.7684 109.54 14.9286 105.166C16.0142 100.749 16.1293 96.1068 16.9275 91.5348ZM17.6626 91.6618C16.8962 96.1632 16.7918 100.806 15.7168 105.364C14.5035 109.921 11.9784 113.872 10.4883 118.176C10.1158 119.249 9.79782 120.335 9.61688 121.436C9.4253 122.565 9.26565 123.694 9.13793 124.837C8.88249 127.108 8.73282 129.394 8.66896 131.694C8.54124 136.28 8.75477 140.867 9.13793 145.453C9.34015 147.739 9.58562 150.025 9.87298 152.31C9.95813 153.468 10.1078 154.625 10.1291 155.796C10.1184 156.953 10.1923 158.124 10.0859 159.281C9.84105 163.938 8.87052 168.51 7.61461 172.955C6.36934 177.4 4.90256 181.774 3.64665 186.191C2.40138 190.607 1.37829 195.081 1.11221 199.638C0.824839 204.182 1.2845 208.754 2.14661 213.241C3.00871 217.743 4.26196 222.159 5.53916 226.576C6.81636 230.993 8.11684 235.438 9.07474 239.967L9.42397 241.675L9.70336 243.396L9.97942 245.118L10.159 246.853C10.2122 247.432 10.2861 248.01 10.3287 248.589L10.3952 250.339C10.4165 250.917 10.4477 251.51 10.4584 252.089L10.4351 253.824C10.3606 258.438 10.2229 263.039 10.2655 267.625C10.2761 269.925 10.3413 272.211 10.4584 274.497C10.5861 276.783 10.7883 279.069 11.2034 281.284C11.4056 282.399 11.7123 283.471 12.138 284.445C12.5957 285.39 13.3314 286.195 14.1403 286.957C14.9705 287.704 15.8745 288.41 16.7579 289.214C17.62 290.019 18.4927 290.936 18.993 292.149C19.1313 292.432 19.2078 292.77 19.2823 293.109C19.3143 293.433 19.3662 293.758 19.3555 294.068C19.3449 294.379 19.3449 294.689 19.3023 295C19.281 295.31 19.2291 295.607 19.1759 295.903C18.9524 297.088 18.5679 298.231 18.0783 299.332C17.5674 300.418 16.9807 301.477 16.076 302.394L15.7268 302.733L15.321 303.029C15.1933 303.128 15.025 303.212 14.8654 303.283C14.6951 303.368 14.5228 303.438 14.4163 303.466C13.9161 303.65 13.3939 303.904 12.883 304.13L12.4274 302.972C13.96 302.479 15.4933 301.971 16.994 301.434C18.516 300.898 19.9522 300.334 21.3145 299.529C24.0499 297.963 26.4879 295.889 28.7549 293.645C33.2996 289.13 37.4059 284.163 41.0246 278.871C44.6221 273.565 47.7738 267.949 50.0515 261.98C51.1903 259.003 51.9999 255.913 52.7556 252.78C53.5112 249.661 54.1691 246.515 54.7545 243.354C55.3399 240.193 55.8501 237.018 56.3078 233.829C56.5313 232.235 56.7548 230.64 56.9464 229.045C57.0528 228.241 57.1393 227.465 57.1925 226.689L57.2457 225.518V224.332C57.1818 221.172 56.6909 217.983 56.4142 214.737C56.1162 211.506 56.1295 208.119 57.0129 204.874C57.9069 201.656 59.4482 198.679 61.1937 195.941C62.9392 193.176 64.867 190.579 66.4954 187.87C67.3043 186.515 68.0473 185.118 68.5476 183.665L68.7505 183.129C68.8037 182.945 68.8469 182.762 68.9001 182.578C68.9853 182.211 69.113 181.845 69.1662 181.464L69.3458 180.321C69.4097 179.94 69.4203 179.544 69.4522 179.149C69.5374 178.373 69.5075 177.583 69.5287 176.793C69.4968 176.003 69.4962 175.212 69.4323 174.422C69.3471 172.842 69.1569 171.233 68.9866 169.639C68.6247 166.435 68.2196 163.218 68.0919 159.944C67.9748 156.685 68.1445 153.326 69.0598 150.109C69.9538 146.878 71.5403 143.914 73.3603 141.191C75.191 138.468 77.2545 135.942 79.2873 133.444C81.3202 130.947 83.3637 128.463 85.0347 125.796C85.4605 125.133 85.8117 124.441 86.2055 123.764L86.6844 122.706C86.8334 122.353 87.0244 122.014 87.1201 121.633C87.333 120.914 87.6437 120.166 87.7288 119.474C87.782 119.108 87.804 118.741 87.8253 118.36C87.8146 117.979 87.8439 117.598 87.812 117.217C87.6523 114.14 86.8966 111.008 85.7365 108.115C85.1405 106.69 84.4088 105.279 83.4615 104.249C82.4078 103.19 81.1306 102.217 79.8428 101.342C78.5443 100.453 77.17 99.6627 75.7651 98.9431C75.0626 98.5903 74.3495 98.2516 73.6364 97.9553C73.2745 97.8142 72.914 97.6731 72.5521 97.5461C72.467 97.5179 72.3479 97.4614 72.316 97.4614C72.2627 97.4473 72.2215 97.4332 72.1364 97.4191C71.998 97.3909 71.8151 97.3908 71.6341 97.3767C70.8997 97.3485 70.0935 97.405 69.2527 97.4191C68.827 97.4191 68.3886 97.4191 67.899 97.3486C67.7819 97.3344 67.6549 97.3062 67.5165 97.278L67.3136 97.2216L67.0808 97.1228C66.9424 97.0804 66.7382 96.9394 66.5786 96.7982L66.3557 96.5866C65.302 95.5847 63.939 94.8227 62.5341 94.1595C61.1185 93.4963 59.6291 92.9459 58.1071 92.4379L57.545 92.2404L56.9464 92.0005C56.5526 91.8312 56.1381 91.7042 55.7656 91.4784C54.9993 91.1115 54.2756 90.6458 53.5837 90.1802C52.2001 89.2206 50.9861 88.0918 49.8153 86.9771C48.6446 85.8623 47.4958 84.7475 46.2931 83.7315C45.0904 82.7156 43.8039 81.8125 42.4415 81.0364C41.0792 80.2744 39.619 79.6958 38.1077 79.2442C35.0637 78.3553 31.8927 77.7485 28.7848 78.2001C25.6876 78.5952 22.8558 80.359 21.0784 82.9554C19.2584 85.439 18.2799 88.5574 17.6626 91.6618Z" fill="black"/>
<path d="M52.1377 88.3598C51.2223 88.0071 50.2425 87.9225 49.3272 88.12C48.4012 88.3176 47.5411 88.7832 46.7428 89.3617C45.9446 89.9262 45.2182 90.6317 44.5477 91.3796C43.8665 92.1133 43.2512 92.9318 42.6551 93.7644C40.3243 97.1086 38.4723 100.834 36.8545 104.63C36.0563 106.535 35.3199 108.468 34.7026 110.429C34.3939 111.417 34.1279 112.377 33.9044 113.378L33.2125 116.441C32.3079 120.504 31.4564 124.568 31.0307 128.675C30.8178 130.721 30.7014 132.781 30.7546 134.827C30.7759 135.843 30.8411 136.873 30.9475 137.875C31.0433 138.891 31.193 139.949 31.31 140.979C31.8209 145.128 32.2872 149.291 32.6172 153.482C32.9471 157.673 33.1187 161.878 32.9697 166.097C32.8846 168.213 32.7256 170.316 32.4276 172.433C32.236 173.477 32.075 174.535 31.8622 175.565C31.6067 176.595 31.3952 177.639 31.0972 178.655C28.7663 186.84 24.7837 194.29 21.282 201.84C19.5153 205.607 17.8755 209.431 16.609 213.368C16.3003 214.356 15.9497 215.358 15.8007 216.289C15.7369 216.783 15.6843 217.291 15.6311 217.785L15.5579 219.323C15.5154 221.383 15.5786 223.458 15.6744 225.532C15.8979 229.695 16.2391 233.843 16.5691 238.02C16.7287 240.108 16.8963 242.183 16.9815 244.299C16.9921 244.836 17.0154 245.358 17.0048 245.894C16.9941 246.444 16.9396 246.98 16.8651 247.517C16.7161 248.589 16.4826 249.619 16.2165 250.649C15.6737 252.695 14.9918 254.685 14.2575 256.66C13.8956 257.648 13.5038 258.622 13.11 259.595L12.8106 260.329C12.7255 260.569 12.631 260.781 12.5778 261.021C12.4394 261.486 12.3437 261.994 12.2585 262.488C11.9605 264.506 11.8514 266.623 11.6066 268.697C11.3725 270.785 11.0339 272.874 10.5656 274.92C10.523 275.117 10.3188 275.244 10.1165 275.202C9.91432 275.16 9.78793 274.962 9.83051 274.751C10.2669 272.719 10.5762 270.673 10.7784 268.598C11.0019 266.524 11.0764 264.45 11.3638 262.333C11.4383 261.811 11.5341 261.275 11.6831 260.738C11.747 260.47 11.864 260.216 11.9492 259.948L12.2352 259.229C12.6184 258.255 12.9816 257.281 13.3328 256.308C14.0353 254.346 14.6952 252.385 15.1954 250.381C15.4402 249.379 15.6531 248.377 15.7808 247.375C15.8446 246.867 15.8866 246.374 15.8972 245.88C15.9078 245.386 15.8746 244.864 15.8639 244.342C15.7575 242.281 15.5659 240.193 15.385 238.119C15.0125 233.956 14.6087 229.793 14.3639 225.602C14.2575 223.5 14.1723 221.411 14.2042 219.281L14.2674 217.686C14.3207 217.15 14.3659 216.614 14.4404 216.063C14.632 214.92 14.9699 213.947 15.2786 212.945C16.5451 208.909 18.1962 205.029 19.9417 201.219C23.422 193.613 27.3068 186.177 29.5206 178.218C29.8186 177.23 30.0102 176.214 30.2657 175.227C30.4679 174.225 30.6269 173.209 30.8078 172.193C31.0845 170.161 31.2455 168.1 31.32 166.04C31.4584 161.906 31.2781 157.757 30.9375 153.609C30.6076 149.46 30.118 145.326 29.6071 141.177C29.4794 140.133 29.341 139.117 29.2346 138.058C29.1069 137 29.043 135.928 29.0217 134.855C28.9685 132.724 29.0743 130.594 29.2978 128.491C29.7342 124.272 30.585 120.138 31.4896 116.045L32.1815 112.983C32.405 111.953 32.6937 110.895 33.013 109.893C33.6409 107.861 34.3959 105.886 35.2048 103.924C36.8545 100.03 38.7916 96.2337 41.3779 92.8189C42.6871 91.1397 44.1439 89.5028 46.0277 88.3034C46.9644 87.7249 48.0187 87.2592 49.1575 87.104C50.2964 86.9347 51.4778 87.1604 52.457 87.6826C52.6379 87.7813 52.7131 88.0071 52.6066 88.1906C52.5215 88.3599 52.3186 88.4304 52.1377 88.3598Z" fill="black"/>
<path d="M27.212 295.508C27.1268 295.437 27.0503 295.367 26.9758 295.296C26.912 295.211 26.8694 295.113 26.8162 295.028C26.7523 294.844 26.7097 294.661 26.7097 294.492C26.6885 294.153 26.7523 293.843 26.8162 293.56C26.9652 292.982 27.178 292.46 27.4016 291.938C27.8699 290.922 28.404 289.948 28.9681 289.003C29.5429 288.057 30.1282 287.14 30.7243 286.223C31.3203 285.32 31.9569 284.388 32.4571 283.528C32.4891 283.471 32.5223 283.429 32.5436 283.372L32.5735 283.302L32.5868 283.274C32.5868 283.274 32.6188 283.175 32.6401 283.118L32.6933 282.921L32.9261 282.145C33.0858 281.637 33.2361 281.115 33.3851 280.592C33.6937 279.562 33.9592 278.504 34.2465 277.46C34.8106 275.371 35.2982 273.269 35.7665 271.152C37.6291 262.686 38.8538 254.078 39.3221 245.442C39.7584 236.778 39.5888 228.086 39.5782 219.351C39.5675 214.991 39.6214 210.617 39.8343 206.242C40.0365 201.868 40.3758 197.493 41.025 193.161C41.1634 192.075 41.3656 190.988 41.5572 189.916C41.7594 188.829 41.9097 187.771 42.229 186.642C42.8357 184.427 43.8887 182.395 45.1127 180.546C47.5607 176.821 50.5953 173.66 52.7559 169.991C53.0326 169.54 53.2655 169.06 53.5209 168.608C53.7551 168.143 53.9566 167.649 54.1695 167.183C54.5526 166.181 54.9691 165.179 55.3203 164.149C56.0547 162.117 56.7046 160.057 57.2261 157.969C58.2904 153.792 58.7474 149.488 59.2583 145.156C59.5138 142.997 59.7805 140.824 60.0998 138.651C60.4297 136.506 60.6945 134.333 61.1309 132.174C61.5779 130.015 62.1533 127.842 63.2496 125.838C64.3778 123.905 65.6117 122.141 66.7718 120.293C67.9213 118.458 69.0402 116.61 69.9449 114.662C70.8283 112.715 71.5627 110.683 71.6478 108.581C71.7329 106.408 71.8381 104.235 71.721 102.09C71.6571 101.017 71.55 99.9448 71.3052 98.9288C71.1775 98.4208 71.0085 97.927 70.7531 97.5319C70.6254 97.3202 70.4637 97.165 70.3041 97.038C70.1338 96.9251 69.9542 96.8687 69.752 96.8546H69.7187C69.5165 96.8405 69.3588 96.657 69.3695 96.4594C69.3801 96.2619 69.5497 96.1067 69.752 96.1067C70.0925 96.1208 70.4424 96.2196 70.7298 96.403C71.0065 96.6006 71.232 96.8404 71.3917 97.0944C71.7323 97.6165 71.9112 98.1668 72.0602 98.7172C72.3476 99.8178 72.4647 100.919 72.5392 102.019C72.6775 104.22 72.603 106.408 72.5392 108.595C72.454 110.881 71.7103 113.026 70.8163 115.043C69.9116 117.061 68.7927 118.966 67.6433 120.829C66.5044 122.692 65.2605 124.512 64.2174 126.346C63.2383 128.181 62.6961 130.269 62.2917 132.372C61.8872 134.488 61.6524 136.633 61.3437 138.806C61.0564 140.951 60.7896 143.11 60.5555 145.269C60.0765 149.587 59.6302 153.975 58.5765 158.265C58.0656 160.41 57.4051 162.513 56.6707 164.587C56.3194 165.631 55.9063 166.647 55.5232 167.677C55.289 168.185 55.0762 168.721 54.8314 169.215C54.5653 169.709 54.3205 170.217 54.0331 170.697C51.7661 174.563 48.7327 177.766 46.4232 181.351C45.263 183.129 44.3045 185.019 43.7723 187.023C43.4956 187.997 43.3452 189.097 43.1537 190.156C42.9621 191.214 42.7725 192.286 42.6448 193.359C42.0062 197.635 41.6862 201.967 41.484 206.285C41.2818 210.617 41.2399 214.963 41.2611 219.309C41.2824 228.001 41.484 236.736 41.0583 245.485C40.6112 254.247 39.3853 262.94 37.5227 271.505C37.0544 273.65 36.5242 275.767 35.9495 277.883C35.6515 278.941 35.3415 279.986 35.0115 281.044C34.8519 281.566 34.6836 282.088 34.5026 282.61L34.2366 283.386L34.1601 283.584C34.1388 283.654 34.1408 283.683 34.0769 283.81L34.0004 283.965L33.9372 284.078C33.8946 284.148 33.8527 284.219 33.8208 284.289C33.1928 285.277 32.5429 286.11 31.915 287.013C31.2764 287.888 30.6391 288.763 30.0325 289.652C29.4151 290.541 28.8278 291.43 28.3062 292.361C28.0614 292.827 27.8273 293.292 27.6676 293.772C27.4973 294.224 27.4435 294.746 27.6244 294.873L27.6477 294.887C27.818 295.014 27.8479 295.24 27.7308 295.409C27.6138 295.578 27.3823 295.621 27.212 295.494C27.2226 295.508 27.2226 295.508 27.212 295.508Z" fill="black"/>
</svg>
