<svg width="220" height="531" viewBox="0 0 220 531" fill="none" xmlns="http://www.w3.org/2000/svg">
<path d="M63.5745 65.0697C63.5215 65.1616 63.3959 65.2728 63.3232 65.2921L63.2505 65.3114L63.105 65.35L62.9068 65.4801L62.51 65.7411L61.6972 66.1899C61.1552 66.4893 60.5404 66.808 59.9061 67.0541C59.1992 67.3195 58.5255 67.4208 57.8519 67.5218C57.1784 67.6228 56.5777 67.7042 55.8845 67.7326C55.4289 67.7757 55.0402 67.4904 54.9421 67.1276L54.9223 67.0546C54.0762 64.7907 53.448 62.4692 52.8926 60.1281C52.3371 57.787 51.9996 55.3884 51.5895 53.0087C50.7888 48.3219 50.0608 43.6156 49.4055 38.8902C48.0222 29.4589 46.7118 20.0083 45.7644 10.4612L45.7251 10.316L45.6858 10.1707C44.0226 10.0678 48.0109 9.55347 47.6339 9.88684L47.6536 9.95983L47.732 10.2496L47.7772 10.7047L47.94 11.5948L47.985 12.0492C48.0242 12.1943 48.0439 12.2668 48.0831 12.412C48.1616 12.7022 48.2205 12.9196 48.299 13.2098C48.5934 14.2981 49.053 15.4206 49.4397 16.5622L50.0362 18.1923C50.2659 18.7535 50.4232 19.3342 50.6529 19.8954C51.0396 21.037 51.426 22.1785 51.7401 23.3394C53.1416 27.9445 54.3786 32.5159 55.7074 37.1403C56.944 41.7113 58.2003 46.3549 59.5096 50.9067L61.5194 57.7611L62.5342 61.2244L63.0779 62.946L63.3135 63.8168L63.4314 64.2526L63.4902 64.4701C63.5099 64.5427 63.4902 64.47 63.5491 64.6876C63.5883 64.8327 63.6275 64.9779 63.5745 65.0697ZM62.6909 64.6822C62.5456 64.7208 62.677 64.9189 62.6377 64.7738L62.5789 64.5563L62.4612 64.1212L62.1529 63.2697L61.6094 61.5473L60.5218 58.1033L58.3665 51.2876C56.9846 46.7551 55.5831 42.15 54.2738 37.5982C52.9646 33.0464 51.6357 28.4221 50.1811 23.9089C49.7944 22.7673 49.4074 21.6255 49.0403 20.5565C48.8107 19.9953 48.6539 19.4149 48.4438 18.9263L47.7545 17.2426C47.2951 16.1203 46.9085 14.9788 46.5218 13.8371C46.4433 13.5469 46.3648 13.2568 46.2667 12.894C46.2274 12.7489 46.1881 12.6037 46.1292 12.386L46.0843 11.9316L45.9214 11.0415L45.8764 10.5872L45.8371 10.4419L45.8567 10.5142C45.4796 10.8476 49.4676 10.3334 47.8044 10.2304L47.8241 10.3034C48.8972 19.7394 50.2079 29.1901 51.6639 38.6022C52.3919 43.3083 53.1197 48.0139 53.9204 52.7007C54.3305 55.0804 54.7213 57.3877 55.2571 59.6562C55.4985 60.8364 55.7929 61.9249 56.107 63.0858C56.421 64.2467 56.7153 65.3345 57.0293 66.4954L56.0674 65.8181C56.6879 65.809 57.3083 65.7996 57.9288 65.7904C58.5493 65.7813 59.1502 65.6999 59.6784 65.6374C60.187 65.5025 60.8215 65.2558 61.4028 65.1016L62.3276 64.7787L62.7637 64.6629L62.9815 64.6051L63.127 64.5665L63.1997 64.5472C62.8698 64.4792 62.744 64.5904 62.6909 64.6822Z" fill="black"/>
<path d="M53.1447 58.4226C49.836 60.6223 47.4992 63.8125 45.6453 67.3422C44.7085 69.0707 43.8844 70.9253 43.0402 72.7073L40.4741 78.2173C38.7326 81.8733 37.0643 85.5098 35.5081 89.2726C35.1422 90.2267 34.7563 91.1083 34.3905 92.0623L34.1114 92.7595L33.8321 93.4574C33.6393 93.8981 33.466 94.4112 33.2732 94.8519C32.9604 95.714 32.7402 96.6292 32.719 97.4142C32.7448 97.7971 32.771 98.1802 32.9229 98.4518C32.9624 98.5972 33.0943 98.796 33.2264 98.9949C33.3586 99.1938 33.418 99.4117 33.6032 99.5186C34.112 100.241 34.8196 100.834 35.5075 101.353C36.2684 101.854 37.0823 102.262 38.0223 102.559C39.8294 103.173 41.7962 103.51 43.7035 103.629C44.6571 103.689 45.6638 103.656 46.6706 103.624L49.6909 103.527C51.7045 103.463 53.6982 103.325 55.7649 103.168C57.7588 103.031 59.7864 102.729 61.7407 102.446C62.708 102.268 63.6753 102.09 64.7155 101.893C65.6828 101.715 66.6105 101.392 67.558 101.142C69.4334 100.568 71.4148 99.8104 73.4755 99.3436C74.5156 99.1465 75.5756 99.0218 76.6553 98.9702C77.735 98.9185 78.7812 99.0315 79.8275 99.1446C81.9201 99.3707 83.9596 99.689 85.9261 100.026C86.8995 100.159 87.8927 100.363 88.939 100.477C89.9853 100.59 90.9783 100.795 91.8196 100.729C92.2766 100.686 92.6607 100.662 93.0252 100.565C93.2439 100.507 93.317 100.488 93.5159 100.358L94.0396 99.9858C94.7624 99.483 95.2802 98.8002 95.5595 98.1028C96.1516 96.5434 95.7112 94.6334 95.052 92.7813C94.3928 90.9292 93.6213 88.9511 93.0881 86.9878C92.5549 85.0244 92.0748 82.9688 91.8332 80.9284C91.5187 78.9072 91.35 76.8477 91.3271 74.7494C91.3238 72.7239 91.4664 70.6596 91.2642 68.7646C91.1533 67.7807 90.989 66.889 90.6594 65.963C90.3496 65.1096 89.8744 64.2219 89.4187 63.4071C88.4148 61.724 87.1191 60.1178 86.1819 58.1054C85.6868 57.1451 85.3907 56.0542 85.134 55.1088C84.8575 54.0908 84.6008 53.1454 84.3441 52.2001C83.7578 50.3287 82.9529 48.5154 81.4843 47.4228C80.7964 46.9033 79.9093 46.5141 79.0088 46.3625C78.1082 46.2109 77.0821 46.1707 76.1679 46.2566C75.1809 46.3616 74.2529 46.6849 73.3979 46.9889C72.4899 47.3848 71.5819 47.7806 70.7863 48.3027C67.3454 50.3036 64.36 53.1192 60.6807 55.1051C60.4818 55.2356 60.1509 55.1672 59.999 54.8956C59.8669 54.6967 59.9337 54.3675 60.1326 54.237C63.5932 52.3088 66.5588 49.4204 70.1256 47.3083C70.9942 46.7669 71.9554 46.2787 72.9363 45.8635C73.937 45.521 74.9375 45.1785 75.9974 45.0542C77.0376 44.8571 78.157 44.9513 79.2032 45.0644C80.2693 45.2502 81.3217 45.6735 82.2875 46.3534C83.2534 47.0333 83.8942 47.9551 84.4623 48.896C85.0303 49.837 85.3795 50.8352 85.7289 51.834C86.0783 52.8328 86.3352 53.7785 86.6116 54.7966C86.8881 55.8146 87.1977 56.6676 87.6002 57.5744C88.4583 59.296 89.7341 60.8297 90.8504 62.6389C91.3986 63.5072 91.8941 64.4675 92.3361 65.5197C92.6854 66.5185 92.9815 67.6091 93.1122 68.6657C93.3736 70.7789 93.231 72.843 93.2342 74.8686C93.2177 76.8214 93.4396 78.789 93.7541 80.8102C94.0489 82.7587 94.509 84.7417 95.0224 86.6324C95.5556 88.5958 96.268 90.3559 96.9667 92.3535C97.316 93.3522 97.5925 94.3702 97.8158 95.4802C97.9662 96.6095 97.9711 97.7771 97.499 98.9152C97.0997 100.034 96.2765 101.031 95.3548 101.664L94.6321 102.167C94.4331 102.298 94.0887 102.467 93.7972 102.544C93.2338 102.771 92.6306 102.852 92.008 102.861C90.8554 102.932 89.7893 102.746 88.8159 102.614C87.7697 102.501 86.7965 102.368 85.7304 102.183C83.691 101.864 81.7244 101.527 79.7245 101.354C78.7708 101.294 77.7246 101.182 76.7907 101.195C75.8568 101.208 74.8896 101.386 73.9223 101.564C72.0075 101.992 70.1717 102.711 68.2234 103.304C67.2227 103.646 66.2022 103.916 65.162 104.113C64.1218 104.31 63.1742 104.561 62.1143 104.685C60.087 104.988 58.0596 105.289 55.9929 105.446C53.9262 105.603 51.9324 105.74 49.846 105.824L46.7526 105.941C45.7458 105.973 44.6465 105.952 43.6199 105.912C41.4742 105.778 39.3621 105.478 37.3697 104.758C36.3371 104.407 35.3575 103.965 34.3916 103.286C33.4455 102.678 32.5329 101.907 31.892 100.985C31.687 100.805 31.5351 100.533 31.3832 100.262C31.2313 99.99 31.0989 99.791 30.9273 99.4467C30.6767 98.8115 30.5721 98.138 30.5598 97.5178C30.6083 96.2579 30.8619 95.1777 31.3007 94.2043C31.4737 93.6909 31.6663 93.2502 31.8394 92.7368L32.1188 92.0395L32.3983 91.3423C32.7642 90.3882 33.13 89.4343 33.4959 88.4803C35.0521 84.7175 36.7738 80.9884 38.4424 77.3517C40.1838 73.6958 41.7595 70.0056 43.9049 66.3988C44.4363 65.4789 44.9876 64.6319 45.6116 63.7655C46.2554 62.9717 46.8795 62.1057 47.6159 61.3655C49.0888 59.8849 50.7668 58.5835 52.6892 57.6076C52.8881 57.4771 53.2387 57.6182 53.2979 57.8364C53.43 58.0353 53.3436 58.2921 53.1447 58.4226Z" fill="black"/>
<path d="M32.4605 101.196C32.333 102.165 32.0004 102.954 31.6876 103.817C31.3748 104.679 31.0425 105.468 30.6173 106.204C29.8596 107.73 29.0483 109.348 28.4561 110.907C28.4227 111.072 28.3361 111.328 28.283 111.42L28.2694 111.658C28.2694 111.658 28.2892 111.731 28.2694 111.658C28.2694 111.658 28.2693 111.658 28.2496 111.585C28.3088 111.804 28.461 112.076 28.6129 112.347C28.9896 112.871 29.6047 113.41 30.2532 113.784C31.643 114.586 33.2849 115.165 34.9601 115.58C38.3304 116.482 41.781 116.817 45.3517 116.73C48.8495 116.663 52.434 116.338 56.0244 116.324C56.2628 116.339 56.4678 116.519 56.5468 116.81C56.5332 117.047 56.3539 117.251 56.1351 117.308C54.3794 117.461 52.5706 117.705 50.8346 117.93C49.0986 118.155 47.2701 118.328 45.4217 118.427C41.8177 118.678 38.0953 118.493 34.5063 117.649C32.7384 117.181 30.9507 116.64 29.2101 115.697C28.3762 115.216 27.5026 114.589 26.8616 113.667C26.5046 113.216 26.2936 112.726 26.1158 112.072C26.0566 111.854 26.0506 111.543 26.084 111.378L26.2038 110.957C26.2903 110.7 26.377 110.444 26.3906 110.206C27.0694 108.39 27.8074 106.791 28.6184 105.174C29.4293 103.556 30.3525 102.065 31.6266 100.715C31.8058 100.511 32.1172 100.507 32.3222 100.687C32.3815 100.905 32.4408 101.123 32.4605 101.196Z" fill="black"/>
<path d="M58.8943 104.695C59.0181 105.44 59.0296 106.059 58.9883 106.77C58.947 107.481 58.8861 108.119 58.7525 108.777L58.4247 110.731L58.1889 112.738C57.9648 115.364 57.9055 118.024 58.0843 120.699C58.3357 123.355 58.8054 125.953 59.6384 128.454C60.4714 130.956 61.6677 133.36 63.1354 135.616C63.267 135.814 63.2004 136.143 63.002 136.274C62.8035 136.404 62.5654 136.389 62.3611 136.21C60.5496 134.123 59.0958 131.631 58.0251 129.115C57.0074 126.507 56.3338 123.731 55.99 121.022C55.6993 118.221 55.646 115.434 55.9035 112.644L56.1197 110.564L56.4283 108.538C56.6759 107.15 57.0888 105.796 57.9435 104.636C58.1223 104.433 58.4129 104.356 58.6173 104.535C58.8354 104.477 58.855 104.55 58.8943 104.695Z" fill="black"/>
<path d="M96.1124 99.2056C97.6008 98.6559 99.0757 98.3432 100.722 98.3743C101.581 98.3803 102.387 98.4783 103.326 98.7747C103.583 98.8621 103.953 99.0758 104.158 99.2551C104.362 99.4344 104.567 99.6137 104.718 99.8849C104.982 100.282 105.245 100.679 105.436 101.095C106.18 102.688 106.521 104.233 106.789 105.796C107.077 107.432 107.126 109.053 107.01 110.64C106.78 113.814 106.053 116.886 105.049 119.797C104.584 121.244 103.972 122.729 103.249 124.088C102.546 125.519 101.803 126.806 100.842 128.15C100.663 128.353 100.372 128.429 100.167 128.25C99.9824 128.143 99.9037 127.853 100.01 127.669C101.496 125.097 102.592 122.238 103.451 119.365C104.309 116.492 104.817 113.478 104.889 110.579C104.951 109.084 104.868 107.627 104.639 106.209C104.338 104.81 104.017 103.339 103.445 102.089C103.195 101.455 102.746 100.951 102.6 100.99C102.085 100.815 101.371 100.77 100.658 100.726C99.9438 100.682 99.1768 100.729 98.4432 100.612C97.6566 100.587 96.9232 100.47 96.0776 100.227C95.8199 100.14 95.6686 99.8682 95.755 99.6118C95.9142 99.3362 95.9669 99.2441 96.1124 99.2056Z" fill="black"/>
<path d="M48.1119 135.257C48.5893 135.287 49.0665 135.316 49.5637 135.419C49.8024 135.434 50.0612 135.522 50.2999 135.537C50.5385 135.552 50.7041 135.586 50.9428 135.601L52.1559 135.747L53.3494 135.822C54.1582 135.92 55.0006 135.853 55.7896 135.879C56.6319 135.812 57.4207 135.837 58.2432 135.697C61.4269 135.323 64.5791 134.254 67.3737 132.734C70.1486 131.14 72.7122 129.055 74.7925 126.631C76.8332 124.06 78.8346 121.345 80.7628 118.648C81.0487 118.26 81.4866 118.144 81.891 118.193C83.3825 118.501 84.8204 118.901 86.3315 119.281C86.6827 119.423 87.0871 119.472 87.531 119.667C87.9749 119.861 88.2532 120.022 88.6241 120.236C89.3462 120.591 90.0153 121.039 90.6644 121.413C93.2471 123.15 95.4845 125.055 98.0217 126.335C98.6511 126.637 99.2807 126.939 99.9436 127.076C100.275 127.145 100.606 127.213 100.938 127.281C101.269 127.35 101.581 127.345 101.893 127.341C103.066 127.342 104.228 126.722 105.257 125.903C107.276 124.119 108.84 121.52 109.873 118.982C110.119 118.448 110.683 118.221 111.22 118.469C111.386 118.503 111.498 118.63 111.61 118.756L113.396 121.016C113.979 121.72 114.654 122.479 115.222 123.421C115.506 123.892 115.757 124.528 115.842 125.13C115.927 125.732 115.866 126.373 115.693 126.888C115.385 128.062 114.76 128.93 114.208 129.779C113.564 130.574 112.899 131.297 112.215 131.946L111.172 133.003C110.793 133.338 110.488 133.653 110.109 133.987C108.594 135.325 106.855 136.41 104.944 137.151C103.032 137.891 100.89 138.068 98.8681 137.822C96.8461 137.577 94.9245 136.837 93.1094 135.912C91.3672 134.968 89.7118 133.767 88.2753 132.508C87.5471 131.842 86.8193 131.176 86.0912 130.51L84.1788 128.362L85.1731 128.566C83.5401 129.467 81.9071 130.368 80.3668 131.323C79.5503 131.773 78.7536 132.296 78.1028 132.781L75.9174 134.531C73.0284 136.857 70.0862 139.276 66.7472 141.097C65.0412 142.017 63.2958 142.792 61.4713 143.275C61.0334 143.391 60.5027 143.453 60.0648 143.569L58.6191 143.718C57.6111 143.75 56.6561 143.691 55.6816 143.558C54.6873 143.353 53.7466 143.056 52.9318 142.647C52.0439 142.258 51.1895 141.703 50.4613 141.037C49.7332 140.371 49.1313 139.593 48.6358 138.631C48.4246 138.141 48.233 137.723 48.1677 137.194C48.0887 136.902 48.0493 136.757 48.0236 136.374C47.978 135.917 48.0449 135.587 48.1119 135.257ZM48.7138 136.034C48.8461 136.234 48.9389 136.287 48.9587 136.36C48.9784 136.433 49.0575 136.724 49.097 136.87C49.2155 137.307 49.387 137.652 49.5055 138.089C49.8687 138.852 50.4511 139.557 51.0865 140.169C51.7219 140.782 52.4636 141.21 53.2784 141.618C54.0735 141.954 54.9416 142.271 55.8432 142.423C56.7447 142.575 57.6266 142.653 58.4689 142.586L59.8219 142.384L61.1551 142.109C62.9066 141.645 64.5793 140.89 66.1196 139.936C69.2929 138.081 72.0893 135.701 74.9586 133.302L77.1237 131.479C77.9007 130.882 78.6975 130.359 79.4943 129.836C81.1076 128.862 82.721 127.889 84.354 126.988C84.6991 126.818 85.1034 126.868 85.3481 127.194L87.2407 129.269C87.8761 129.881 88.6042 130.547 89.3125 131.14C90.7293 132.326 92.2722 133.402 93.9216 134.292C95.5513 135.11 97.3071 135.816 99.0706 135.973C100.854 136.204 102.592 135.978 104.304 135.368C105.923 134.705 107.464 133.751 108.852 132.525C109.157 132.21 109.556 131.948 109.842 131.56L110.812 130.522C111.496 129.873 112.087 129.169 112.606 128.486C113.125 127.802 113.551 127.065 113.738 126.313C113.805 125.983 113.852 125.579 113.846 125.268C113.84 124.958 113.688 124.686 113.516 124.341C113.099 123.671 112.517 122.966 111.843 122.208L110.057 119.948L111.867 119.703C111.254 121.192 110.602 122.537 109.711 123.866C108.893 125.175 107.909 126.45 106.627 127.493C105.418 128.515 103.785 129.416 101.915 129.443C101.457 129.486 100.98 129.456 100.629 129.315C100.224 129.266 99.8003 129.144 99.3762 129.022C98.5476 128.851 97.8254 128.495 97.1033 128.14C94.2149 126.719 91.9575 124.74 89.4872 123.13C88.9111 122.736 88.262 122.362 87.6326 122.06C87.3544 121.899 87.0033 121.758 86.7251 121.598C86.4667 121.51 86.1154 121.369 85.784 121.3C84.4188 120.881 82.9274 120.574 81.5089 120.246L82.6371 119.791C80.6359 122.507 78.7274 125.277 76.5604 127.959C74.3205 130.66 71.5575 132.875 68.5104 134.619C66.9306 135.427 65.3312 136.163 63.6724 136.68C61.9939 137.125 60.2225 137.515 58.4452 137.595C57.6029 137.662 56.668 137.676 55.8059 137.67C54.9242 137.591 54.062 137.585 53.2137 137.341L51.908 137.141L50.6553 136.848C50.4896 136.814 50.231 136.726 50.0653 136.691C49.8995 136.657 49.7872 136.531 49.6215 136.497L48.7138 136.034Z" fill="black"/>
<path d="M51.134 140.462C52.6177 141.318 53.6301 142.456 54.6956 143.501C55.7611 144.546 56.8797 145.499 58.0792 145.884C60.6636 146.761 63.5829 145.987 66.1983 144.67C68.8867 143.333 71.3837 141.579 73.7484 139.625C74.9771 138.675 76.1131 137.671 77.3221 136.648C78.4581 135.644 79.6671 134.621 80.8761 133.598C81.0753 133.467 81.387 133.463 81.5192 133.663C81.6514 133.862 81.6378 134.1 81.5314 134.284C79.3916 136.49 77.1984 138.789 74.8732 140.889C72.5479 142.988 70.0374 144.981 67.2425 146.502C65.8086 147.272 64.2621 147.916 62.617 148.195C61.7944 148.335 60.8792 148.422 60.0172 148.416C59.1551 148.41 58.2337 148.185 57.3854 147.942C55.5763 147.328 54.2523 146.195 53.1473 145.004C51.9693 143.832 51.0635 142.511 50.5029 141.019C50.4239 140.728 50.5107 140.47 50.8026 140.393C50.8756 140.374 51.0215 140.335 51.134 140.462Z" fill="black"/>
<path d="M81.7194 133.399C83.5283 134.013 85.051 135.015 86.4813 135.963C87.9314 136.984 89.435 137.913 90.9717 138.677C92.5085 139.441 94.1717 140.094 95.8088 140.363C96.2329 140.485 96.6174 140.461 97.0218 140.51C97.4261 140.559 97.8104 140.536 98.2878 140.566C99.1497 140.572 99.9723 140.432 100.887 140.345C102.625 140.12 104.343 139.821 106.094 139.358C107.772 138.913 109.484 138.305 110.991 137.516C112.497 136.727 113.944 135.719 114.153 134.181C114.434 132.623 113.96 130.875 113.36 129.239C113.3 129.02 113.387 128.764 113.659 128.614C113.878 128.556 114.137 128.644 114.269 128.843C115.035 130.513 115.767 132.349 115.531 134.363C115.518 134.6 115.431 134.857 115.344 135.114C115.258 135.371 115.171 135.629 115.011 135.905C114.745 136.366 114.46 136.753 114.101 137.161C113.436 137.883 112.587 138.498 111.77 138.948C110.157 139.922 108.372 140.55 106.641 141.086C104.909 141.623 103.065 142.033 101.275 142.351C100.379 142.509 99.4641 142.596 98.4563 142.629C97.9987 142.672 97.4485 142.661 96.9712 142.631C96.4939 142.602 96.0167 142.572 95.5196 142.469C93.624 142.112 91.8149 141.498 90.0927 140.627C88.3902 139.829 86.7944 138.846 85.2713 137.844C83.7483 136.843 82.3318 135.657 81.2207 134.156C81.0885 133.956 81.0822 133.646 81.2616 133.442C81.3878 133.331 81.534 133.292 81.7194 133.399Z" fill="black"/>
<path d="M47.9347 146.506C50.0411 146.495 52.134 146.721 54.1933 147.112C56.2328 147.43 58.2191 147.84 60.1659 148.105C61.1394 148.237 62.0933 148.297 63.1001 148.265C64.0341 148.252 65.0209 148.146 65.9883 147.968C67.923 147.613 69.9108 147.165 71.8592 146.572C73.8273 146.052 75.7757 145.459 77.7969 144.846C79.8379 144.307 81.8256 143.859 83.8134 143.412C85.8012 142.964 87.8818 142.57 89.8894 142.195C90.8568 142.017 91.9897 141.874 92.8842 141.715C93.8515 141.538 94.8717 141.267 96.0973 141.177C96.7199 141.169 97.2699 141.179 97.9518 141.389C98.1173 141.423 98.283 141.457 98.3953 141.584C98.5609 141.618 98.6533 141.671 98.7657 141.797L99.487 142.152C100.486 142.667 101.379 143.366 102.146 144.177C103.753 145.779 104.69 147.791 105.462 149.77C106.932 153.746 107.508 157.88 108.9 161.565C110.364 165.231 112.756 168.574 115.148 171.917C117.54 175.259 120.058 178.491 122.072 182.167C122.205 182.366 122.138 182.696 121.866 182.845C121.667 182.976 121.336 182.908 121.277 182.69C119.157 179.197 116.585 176.058 114.047 172.754C111.602 169.503 108.972 166.145 107.355 162.208C105.739 158.27 105.163 154.135 103.699 150.469C102.967 148.636 102.036 146.934 100.726 145.566C100.072 144.881 99.3112 144.381 98.4774 143.9L97.8484 143.598C97.7558 143.545 97.6633 143.492 97.5707 143.438C97.478 143.385 97.4053 143.404 97.3126 143.35C96.9815 143.282 96.5776 143.233 96.1205 143.276C95.2594 143.27 94.3117 143.521 93.2715 143.718C92.1584 143.934 91.244 144.02 90.2038 144.217C88.1962 144.592 86.1889 144.966 84.2011 145.414C82.2132 145.862 80.2452 146.382 78.2771 146.903C76.309 147.423 74.3604 148.015 72.4121 148.608C70.4638 149.201 68.4033 149.669 66.3229 150.063C65.2826 150.26 64.2224 150.384 63.1427 150.436C62.0629 150.487 60.9437 150.394 59.8973 150.281C55.6193 149.775 51.8 148.369 47.8606 147.384C47.6024 147.296 47.4701 147.097 47.5368 146.767C47.59 146.675 47.789 146.545 47.9347 146.506Z" fill="black"/>
<path d="M48.4919 147.642C48.4604 149.829 48.2249 151.836 48.4251 153.727C48.5154 154.637 48.7706 155.58 49.1517 156.412C49.5524 157.317 50.0984 158.183 50.6641 159.122C51.2298 160.06 51.7623 161.164 52.0038 162.344C52.2454 163.525 52.2687 164.763 52.1076 165.894C51.7853 168.158 51.074 170.136 50.8381 172.143C50.7379 172.636 50.7833 173.09 50.7558 173.564C50.7617 173.874 50.8599 174.237 51.0504 174.653C51.4314 175.485 52.1953 176.294 52.6745 177.489C53.1342 178.611 53.2109 179.758 53.4132 180.793C53.6155 181.828 53.8508 182.698 54.3576 183.419C55.5755 185.041 57.1176 186.421 58.7323 187.781C60.347 189.142 62.0876 190.392 63.828 191.641C64.0323 191.82 64.1106 192.11 63.9319 192.313C63.7531 192.516 63.5349 192.574 63.3306 192.395C61.5372 191.237 59.744 190.08 57.984 188.758C56.2436 187.508 54.4637 186.114 53.0612 184.386C52.2382 183.36 51.9238 182.199 51.7019 181.091C51.48 179.983 51.2974 179.021 50.9891 178.169C50.7003 177.39 49.9364 176.581 49.351 175.57C49.0485 175.028 48.799 174.394 48.748 173.63C48.7362 173.011 48.744 172.465 48.8246 171.899C49.0546 169.582 49.7659 167.605 50.0018 165.598C50.1295 164.631 50.1116 163.701 49.8759 162.831C49.6403 161.96 49.2595 161.128 48.6938 160.189C48.2205 159.303 47.582 158.384 47.0693 157.353C46.5567 156.322 46.2229 155.089 46.0736 153.962C45.9048 152.763 46.0658 151.631 46.2997 150.48C46.5531 149.401 46.9718 148.357 47.4826 147.366C47.569 147.11 47.9324 147.014 48.1367 147.193C48.394 147.28 48.4526 147.497 48.4919 147.642Z" fill="black"/>
<path d="M53.7806 204.141C53.7411 203.995 53.6623 203.704 53.603 203.485C53.5635 203.339 53.6168 203.247 53.5971 203.174L53.6306 203.009L53.6521 202.222L53.7882 200.702L54.0797 197.734C54.2078 196.763 54.2628 195.811 54.3179 194.859C54.2922 194.475 54.2999 193.926 54.3078 193.377C54.3215 193.139 54.3156 192.828 54.3826 192.498C54.4161 192.333 54.4498 192.168 54.4636 191.93C54.5169 191.837 54.57 191.745 54.6233 191.653L54.6765 191.561C54.7297 191.468 54.803 191.449 54.803 191.449C54.876 191.43 54.929 191.337 55.002 191.318C55.075 191.298 55.1481 191.279 55.1481 191.279L55.367 191.221C56.4225 190.785 57.557 190.641 58.6186 190.516C59.6998 190.463 60.7475 190.576 61.7953 190.689C63.8178 190.934 65.8069 191.344 67.6834 191.628C68.6582 191.76 69.5403 191.84 70.4558 191.753C71.3713 191.667 72.1209 191.546 72.8844 191.187C73.6479 190.829 74.4451 190.305 75.3151 189.762C76.1852 189.219 77.0554 188.675 78.184 188.22C78.476 188.143 78.7678 188.065 79.0598 187.988L79.5175 187.944L79.9024 187.921C80.4332 187.858 80.9837 187.868 81.5539 187.952C82.5819 187.992 83.6494 188.178 84.6439 188.383C86.6329 188.793 88.4757 189.242 90.2929 189.307C92.0904 189.299 93.8426 188.835 95.4762 187.933C97.1098 187.031 98.6647 185.838 100.292 184.626C101.143 184.01 102.013 183.466 102.976 182.977C103.938 182.487 105.013 182.124 105.962 181.872C108.026 181.403 110.096 181.245 112.132 181.252C114.169 181.259 116.172 181.432 118.135 181.459C119.09 181.518 120.098 181.485 121.053 181.544C121.915 181.55 122.884 181.371 123.945 181.246C124.476 181.183 125.007 181.121 125.577 181.204C125.889 181.199 126.22 181.268 126.552 181.336L126.811 181.424L126.996 181.531C127.162 181.565 127.274 181.692 127.367 181.746C128.387 182.335 129.208 183.054 129.883 183.813C131.326 185.384 132.476 187.032 133.627 188.68C133.911 189.151 133.83 189.719 133.378 190.073C133.305 190.092 133.252 190.185 133.106 190.224C131.467 190.814 129.807 191.332 128.128 191.777C127.69 191.893 127.252 192.01 126.794 192.053C126.337 192.096 125.879 192.139 125.421 192.182C124.506 192.269 123.643 192.263 122.781 192.257C119.239 192.18 115.812 191.37 112.503 190.998C110.812 190.821 109.14 190.717 107.528 190.832C105.916 190.946 104.291 191.299 102.797 191.852C99.6639 192.995 96.7817 194.774 93.6545 196.228C92.0544 196.965 90.4346 197.628 88.6826 198.093C87.8065 198.325 86.8179 198.431 85.9557 198.425C85.0204 198.439 84.1185 198.287 83.2898 198.116C81.5593 197.794 79.9353 197.287 78.3173 197.091C77.5083 196.993 76.7391 197.04 75.9163 197.18C75.0738 197.247 74.2706 197.46 73.4478 197.6C70.1034 198.252 66.8974 199.415 63.7642 200.558C62.1976 201.129 60.5776 201.793 59.0308 202.437L56.6276 203.386L55.4263 203.861C54.8226 203.943 54.2384 204.098 53.7806 204.141ZM54.3527 203.364C54.6783 203.122 54.8579 202.918 55.1302 202.768L56.2584 202.312L58.6421 201.29C60.1889 200.645 61.8087 199.982 63.4286 199.318C66.615 198.083 69.8942 196.901 73.2918 196.157C74.1876 195.998 74.9906 195.785 75.9061 195.698C76.7289 195.558 77.7371 195.525 78.6191 195.604C80.4561 195.742 82.0799 196.249 83.7177 196.518C85.3554 196.787 86.9537 196.91 88.467 196.431C90.0731 196.005 91.62 195.361 93.0543 194.59C96.0888 193.083 99.0441 191.284 102.304 190.029C103.943 189.439 105.768 188.955 107.526 188.801C109.284 188.648 111.121 188.786 112.812 188.963C116.287 189.37 119.602 190.053 122.978 190.096C123.84 190.101 124.61 190.054 125.452 189.987C125.837 189.963 126.275 189.847 126.66 189.823C127.045 189.799 127.41 189.702 127.848 189.586C129.454 189.16 131.04 188.662 132.679 188.071L132.232 189.596C131.101 188.02 129.95 186.373 128.64 185.001C127.985 184.316 127.276 183.722 126.607 183.274C126.163 183.08 126.144 183.007 125.667 182.978C125.262 182.929 124.804 182.972 124.346 183.015C123.358 183.121 122.462 183.28 121.308 183.352C120.3 183.385 119.271 183.344 118.243 183.304C116.26 183.205 114.278 183.106 112.314 183.079C110.351 183.053 108.427 183.172 106.675 183.636C105.799 183.869 104.943 184.174 104.106 184.552C103.289 185.002 102.492 185.527 101.695 186.05C100.121 187.171 98.513 188.456 96.6801 189.489C94.8472 190.522 92.6769 191.175 90.4749 191.134C88.2926 191.166 86.2641 190.609 84.3679 190.253C83.3734 190.048 82.4717 189.896 81.6094 189.89C81.1319 189.86 80.6743 189.903 80.1968 189.874L79.8848 189.879L79.5929 189.956C79.4469 189.995 79.228 190.053 79.009 190.111C78.2257 190.396 77.4819 190.828 76.6118 191.371C75.8147 191.895 74.9643 192.51 73.9088 192.946C73.4175 193.155 72.8531 193.383 72.269 193.538C71.685 193.692 71.1348 193.682 70.604 193.745C69.5227 193.797 68.475 193.684 67.4273 193.571C65.4048 193.326 63.3959 192.843 61.5391 192.632C59.6627 192.348 57.7527 192.23 56.2059 192.874L56.0598 192.913C56.0598 192.913 56.0598 192.913 56.1328 192.893C56.2058 192.874 56.206 192.874 56.2593 192.782C56.3323 192.763 56.3122 192.689 56.3852 192.67L56.4386 192.578L56.4919 192.485C56.4919 192.485 56.4386 192.578 56.4583 192.651C56.4248 192.816 56.4111 193.054 56.3973 193.292C56.3698 193.768 56.3225 194.171 56.3344 194.793C56.2261 195.837 56.0249 196.828 55.8238 197.819C55.6227 198.81 55.4217 199.8 55.2008 200.718L54.8795 202.131L54.7652 202.864L54.7316 203.03C54.7316 203.03 54.7316 203.03 54.6585 203.049C54.4988 203.326 54.406 203.272 54.3527 203.364Z" fill="black"/>
<path d="M90.0328 207.332C90.6978 208.246 91.1001 209.152 91.3564 210.097C91.6127 211.042 91.8203 211.999 92.0477 213.029C92.1857 213.538 92.304 213.974 92.4131 214.568C92.5025 215.09 92.5722 215.538 92.6905 215.974C92.7497 216.192 92.8089 216.41 92.8286 216.483C92.8286 216.483 92.8483 216.556 92.8286 216.483C92.8286 216.483 92.8287 216.483 92.8971 216.543C93.0824 216.65 93.5303 216.765 93.7931 216.773L93.8418 216.76C93.8904 216.747 93.8905 216.747 93.9392 216.734C94.202 216.743 94.4161 216.764 94.6303 216.785C94.8446 216.806 94.9419 216.78 95.2534 216.776C95.7108 216.733 96.1483 216.617 96.6057 216.574C97.0433 216.458 97.481 216.342 97.8306 216.094L97.9766 216.055C97.9766 216.055 98.0251 216.043 98.0737 216.03C98.171 216.004 98.1999 215.919 98.2972 215.893C98.4234 215.782 98.5008 215.683 98.4522 215.696L98.4234 215.781C98.4431 215.854 98.3945 215.867 98.4142 215.94L98.4338 216.012L98.4537 216.085L98.4142 215.94L98.2866 215.662C98.1591 215.384 98.0999 215.166 98.0407 214.948L97.6176 213.581L96.7713 210.845C96.2298 209.042 95.688 207.238 95.1754 205.349C95.1163 205.131 95.2517 204.861 95.4948 204.797C95.7379 204.733 95.9721 204.827 96.0312 205.045C96.7672 206.797 97.4546 208.562 98.142 210.327L99.1829 213.011L99.7034 214.353L99.9294 214.993L100.077 215.344L100.136 215.562L100.175 215.707C100.175 215.707 100.195 215.78 100.215 215.853C100.234 215.925 100.215 215.852 100.234 215.925C100.254 215.998 100.225 216.084 100.245 216.156C100.245 216.156 100.265 216.229 100.216 216.242C100.062 216.827 99.81 217.05 99.5774 217.345C99.4512 217.457 99.3251 217.568 99.1989 217.679C99.1503 217.692 99.0727 217.79 98.9754 217.816L98.7521 217.953C98.208 218.253 97.6926 218.467 97.1577 218.608C96.6228 218.75 96.0881 218.892 95.5335 218.961C95.339 219.012 94.8816 219.055 94.6188 219.047C94.3073 219.051 94.0443 219.043 93.7618 218.962L93.8787 219.009C93.1388 218.971 92.6132 218.954 91.8917 218.6C91.7064 218.493 91.5209 218.387 91.3645 218.194C91.1595 218.015 90.9832 217.75 90.8952 217.617C90.6993 217.28 90.6693 216.976 90.5418 216.699C90.384 216.117 90.3143 215.669 90.2249 215.147C90.175 214.771 90.0172 214.19 89.8989 213.754C89.6912 212.796 89.4153 211.779 89.2076 210.821C89.0486 209.851 88.9184 208.795 89.1484 207.722C89.1865 207.478 89.4875 207.243 89.77 207.324C89.8278 207.153 89.8961 207.213 90.0328 207.332Z" fill="black"/>
<path d="M54.2688 203.114C57.6907 203.613 60.9921 204.535 64.2738 205.383C67.5555 206.232 70.9242 206.823 74.2335 207.196C77.5961 207.476 80.9923 207.591 84.3233 207.177C87.6011 206.854 90.8276 205.763 93.9416 204.547L98.7486 202.646C100.369 201.982 102.028 201.464 103.595 200.892C106.802 199.729 110.008 198.565 113.176 197.256C116.363 196.02 119.53 194.711 122.605 193.348C125.733 191.893 128.768 190.385 131.763 188.731C131.962 188.6 132.294 188.668 132.446 188.941C132.578 189.14 132.511 189.47 132.312 189.601C126.472 193.182 120.164 196.184 113.849 198.875C110.682 200.184 107.495 201.421 104.235 202.676C102.615 203.34 101.047 203.912 99.5003 204.557L94.713 206.53C91.5457 207.839 88.1003 208.988 84.5304 209.388C81.0336 209.768 77.5112 209.765 74.0559 209.431C70.6005 209.097 67.1392 208.453 63.7114 207.643C62.8826 207.472 62.0143 207.155 61.1855 206.984C60.3369 206.74 59.5616 206.478 58.6933 206.161C57.0495 205.581 55.459 204.909 53.9217 204.144C53.6632 204.057 53.5842 203.765 53.744 203.488C53.9039 203.211 54.1031 203.08 54.2688 203.114Z" fill="black"/>
<path d="M84.1782 209.062C83.2068 210.958 81.7715 212.586 80.1117 213.962C78.4518 215.337 76.5278 216.315 74.4713 217.093C73.4696 217.436 72.4483 217.706 71.3539 217.996C70.8432 218.131 70.3127 218.193 69.7822 218.256L69.3977 218.28C69.2518 218.318 69.086 218.284 68.9401 218.322C68.6285 218.327 68.3169 218.331 68.0782 218.316C66.9778 218.295 66.0036 218.163 64.9959 218.195C64.5186 218.166 64.061 218.209 63.6962 218.305C63.6233 218.325 63.5504 218.344 63.4775 218.363C63.4045 218.383 63.4047 218.382 63.2588 218.421C63.0596 218.552 62.8405 218.61 62.6414 218.741C61.0287 219.714 59.4026 220.924 58.0543 222.295C57.6759 222.63 57.3899 223.017 57.1042 223.405L56.8718 223.701C56.7989 223.72 56.8718 223.701 56.8718 223.701L56.9246 223.609C56.9049 223.536 56.9246 223.609 56.9246 223.609C56.9246 223.609 56.9112 223.846 56.9507 223.992C56.9765 224.375 57.1147 224.885 57.2332 225.322C57.3518 225.759 57.5432 226.177 57.7347 226.594C58.5006 228.264 59.8501 229.78 61.2864 231.038C61.677 231.325 62.0678 231.612 62.4052 231.991C62.7958 232.278 63.1333 232.657 63.5771 232.852C64.4115 233.333 65.1924 233.906 66.153 234.276C69.67 235.999 73.6796 236.655 77.6967 236.763C81.7139 236.87 85.7388 236.429 89.797 235.823C93.875 235.29 97.9134 234.612 102.031 234.225C106.148 233.838 110.232 233.615 114.35 233.228C116.418 233.071 118.414 232.933 120.443 232.631C122.4 232.347 124.409 231.971 126.174 231.27C127.102 230.946 127.899 230.424 128.55 229.939C129.253 229.363 129.771 228.679 130.031 227.908C130.364 227.118 130.346 226.187 130.348 225.328L130.118 223.906C129.98 223.396 129.915 222.867 129.796 222.43C129.678 221.993 129.559 221.557 129.334 221.304C129.315 221.231 129.222 221.178 129.222 221.178C129.129 221.124 129.109 221.052 129.017 220.998C128.831 220.891 128.719 220.764 128.533 220.657C127.811 220.302 126.837 220.169 125.863 220.037C124.908 219.978 123.9 220.01 122.893 220.043C121.885 220.075 120.897 220.181 119.909 220.287C115.904 220.8 112.004 221.988 108.104 223.176C104.184 224.291 100.343 225.698 96.3895 226.978C94.4394 227.572 92.4161 228.185 90.4265 228.634C88.364 229.101 86.3352 229.405 84.2665 229.562C82.1782 229.646 80.0302 229.512 77.9692 229.121L76.4586 228.74C75.9616 228.638 75.4249 228.39 74.9811 228.195C73.9475 227.844 73.0207 227.309 72.0935 226.774C68.458 224.615 65.5734 221.476 62.8544 218.372C62.6492 218.192 62.716 217.862 62.9152 217.732C63.0945 217.528 63.4257 217.596 63.5579 217.796C66.3301 220.808 69.1755 223.801 72.6256 225.853C73.46 226.335 74.3673 226.797 75.3082 227.094C75.752 227.289 76.2687 227.464 76.6928 227.586L78.1107 227.913C80.079 228.251 82.061 228.35 84.0764 228.285C86.0721 228.147 88.0814 227.772 90.071 227.323C92.0408 226.802 94.0107 226.281 95.9411 225.614C99.8215 224.353 103.643 222.874 107.616 221.666C111.516 220.478 115.469 219.198 119.693 218.627C120.754 218.502 121.815 218.378 122.823 218.345C123.831 218.312 124.911 218.261 126.012 218.282C127.132 218.375 128.252 218.469 129.345 219.038C129.623 219.198 129.901 219.359 130.179 219.52C130.292 219.646 130.457 219.68 130.57 219.807C130.682 219.933 130.815 220.131 130.927 220.258C131.324 220.855 131.482 221.438 131.62 221.948C131.758 222.457 131.843 223.059 131.962 223.495C132.1 224.005 132.185 224.607 132.251 225.136C132.328 226.286 132.332 227.455 131.86 228.595C131.46 229.715 130.729 230.767 129.826 231.474C128.943 232.254 127.908 232.762 126.926 233.178C124.889 234.029 122.807 234.424 120.705 234.746C118.603 235.068 116.607 235.206 114.558 235.436C110.441 235.823 106.356 236.046 102.239 236.433C98.1943 236.801 94.1561 237.479 90.0979 238.085C86.0396 238.69 81.849 239.097 77.6129 239.047C76.6052 239.08 75.4653 238.913 74.4379 238.873C73.8876 238.863 73.3907 238.76 72.8937 238.658C72.3967 238.555 71.8465 238.544 71.3297 238.369C70.316 238.091 69.2489 237.905 68.2154 237.555L66.6652 237.028L65.2214 236.318C64.2411 235.875 63.2941 235.268 62.367 234.733C61.9034 234.465 61.4932 234.105 61.0828 233.746C60.6725 233.386 60.2086 233.118 59.7983 232.759C58.1569 231.32 56.6949 229.678 55.7374 227.591C55.5262 227.1 55.2955 226.537 55.1374 225.955C54.9991 225.445 54.8409 224.863 54.7558 224.261C54.7497 223.951 54.6709 223.659 54.7712 223.164C54.8244 223.072 54.8578 222.907 54.8912 222.742C54.9444 222.65 54.9248 222.577 54.978 222.485C55.0312 222.393 55.0842 222.301 55.0842 222.301L55.3167 222.006C55.6754 221.599 56.0146 221.118 56.3931 220.784C57.9207 219.209 59.6001 217.906 61.4849 216.783C61.757 216.633 61.9562 216.503 62.2283 216.353C62.3742 216.314 62.5732 216.184 62.7191 216.145C62.865 216.107 63.084 216.049 63.23 216.01C63.8866 215.836 64.4365 215.846 64.9867 215.857C66.0872 215.878 67.1348 215.991 68.0893 216.051C68.328 216.066 68.5664 216.08 68.7852 216.022C68.8582 216.003 69.0239 216.037 69.0969 216.018L69.4813 215.994C70.0118 215.932 70.4693 215.889 70.907 215.773C71.8752 215.595 72.8433 215.417 73.772 215.093C77.5262 213.943 80.9314 211.794 83.251 208.527C83.4304 208.324 83.7221 208.246 83.9273 208.426C84.2784 208.567 84.3378 208.786 84.1782 209.062Z" fill="black"/>
<path d="M128.512 219.85C127.156 219.741 126.031 219.338 124.887 218.861L121.508 217.341C119.2 216.315 116.944 215.198 114.756 213.751C113.698 213.018 112.694 212.194 111.742 211.277C110.791 210.36 109.985 209.405 109.232 208.358C107.727 206.264 106.44 204.112 105.299 201.921C105.166 201.723 105.233 201.393 105.505 201.243C105.703 201.113 105.961 201.201 106.093 201.399C107.579 203.421 108.919 205.481 110.511 207.319C112.103 209.156 113.874 210.791 115.858 212.058C117.841 213.325 120.149 214.351 122.365 215.323L125.817 216.824C126.961 217.3 128.092 218.014 128.917 219.042C129.05 219.241 129.056 219.551 128.804 219.773C128.804 219.773 128.658 219.811 128.512 219.85Z" fill="black"/>
<path d="M80.2893 238.628L79.5989 238.967L78.9281 239.379L77.4939 240.149L74.6062 241.618L73.9158 241.957C73.7698 241.996 73.7165 242.087 73.5705 242.126C73.5705 242.126 73.6433 242.107 73.6966 242.015C73.7498 241.923 73.876 241.811 73.9293 241.719C73.9825 241.627 73.9826 241.627 73.9628 241.554L73.9293 241.719C73.809 242.142 73.7817 242.617 73.8272 243.073C73.8451 244.006 73.9757 245.065 74.2324 246.012C74.4359 247.052 74.7124 248.072 75.0618 249.073L75.569 250.657L75.7862 251.458L75.8454 251.677L75.8849 251.822L75.9837 252.187C76.1949 252.678 76.4063 253.168 76.5978 253.586C76.6176 253.659 76.7302 253.786 76.7499 253.858C76.7499 253.858 76.7498 253.858 76.7301 253.785C76.7103 253.712 76.4517 253.625 76.4517 253.625L76.5444 253.678C76.8956 253.819 77.1739 253.98 77.3791 254.16C77.8625 254.501 78.2138 254.642 78.3796 254.676L78.4526 254.657C78.4526 254.657 78.5983 254.618 78.6181 254.691L79.0029 254.667L79.7921 254.692C83.9905 254.595 88.1514 253.493 92.2528 252.172C96.3542 250.851 100.396 249.312 104.664 248.025C113.125 245.471 121.92 245.015 130.301 243.029C131.415 242.812 132.291 242.58 133.181 242.11C134.071 241.64 134.755 240.99 135.42 240.267C136.657 238.768 137.443 236.763 137.918 234.763C138.393 232.763 138.663 230.583 138.714 228.461C138.765 226.338 138.649 224.182 138.388 222.064L139.423 222.415L138.286 223.419L137.17 224.496C136.412 225.165 135.675 225.907 135.01 226.63C134.272 227.372 133.608 228.095 132.797 228.857C131.967 229.545 131.116 230.161 130.154 230.65C129.954 230.781 129.623 230.713 129.544 230.421C129.412 230.222 129.478 229.891 129.77 229.814C130.66 229.344 131.457 228.821 132.195 228.079C132.952 227.41 133.597 226.613 134.262 225.891C135 225.148 135.738 224.407 136.475 223.664L137.591 222.588L138.728 221.583C138.98 221.36 139.385 221.41 139.61 221.662C139.703 221.716 139.742 221.862 139.781 222.008C140.135 224.179 140.27 226.408 140.239 228.603C140.208 230.798 140.031 233.032 139.615 235.251C139.107 237.416 138.306 239.659 136.837 241.454C136.065 242.361 135.202 243.215 134.093 243.743C133.077 244.325 131.836 244.653 130.814 244.924C122.287 246.948 113.571 247.696 105.329 250.192C101.208 251.44 97.1851 253.052 93.0107 254.392C88.8362 255.732 84.5299 256.873 79.9665 257.067L79.1043 257.061L78.7196 257.085C78.6466 257.105 78.5733 257.124 78.4806 257.07C78.4076 257.089 78.242 257.056 78.169 257.075C77.2673 256.923 76.6713 256.456 76.3003 256.242C76.0951 256.062 75.9099 255.955 75.7442 255.921L75.6513 255.867C75.5783 255.887 75.2803 255.653 75.1876 255.6C75.0948 255.546 75.075 255.473 74.9822 255.42L74.8696 255.293C74.7374 255.094 74.6983 254.949 74.5858 254.822C74.2818 254.278 74.0705 253.787 73.8395 253.223L73.6481 252.806L73.569 252.514L73.5098 252.295L73.2926 251.494L72.7851 249.91C72.4889 248.817 72.1393 247.816 71.9161 246.704C71.6929 245.591 71.5426 244.46 71.5916 243.197C71.6526 242.556 71.6604 242.008 71.8674 241.328L71.9543 241.071L71.9345 240.998C71.9345 240.998 71.9346 240.998 71.9148 240.925C71.9681 240.833 71.9682 240.833 72.0214 240.74C72.0747 240.648 72.1812 240.464 72.3272 240.425C72.4002 240.406 72.4531 240.313 72.4531 240.313C72.5991 240.275 72.7255 240.163 72.8715 240.125L73.6548 239.839C74.6372 239.423 75.7122 239.06 76.7143 238.716C77.2253 238.581 77.7167 238.373 78.3007 238.218L79.1037 238.005L79.9794 237.773C80.1984 237.715 80.4766 237.876 80.5359 238.094C80.5951 238.313 80.4885 238.497 80.2893 238.628Z" fill="black"/>
<path d="M76.2124 254.821C75.2824 256.003 74.2398 257.059 73.3098 258.241C72.36 259.35 71.6689 260.547 71.3817 261.794C71.0945 263.04 71.2844 264.315 71.7327 265.679C72.0883 266.989 72.7749 268.367 73.4223 269.6C74.0894 270.906 74.9024 272.173 75.5893 273.552C75.761 273.896 75.9525 274.313 76.144 274.731C76.3355 275.148 76.4341 275.512 76.5328 275.876C76.7304 276.604 76.9278 277.332 77.1056 277.987C77.2834 278.642 77.5874 279.186 77.9445 279.637C78.1497 279.817 78.2819 280.016 78.5402 280.104L78.7258 280.211L78.911 280.318C79.0766 280.352 79.189 280.478 79.3546 280.512C80.5733 280.97 82.0246 281.132 83.5685 281.348C85.1124 281.563 86.7492 281.833 88.3053 282.669C89.7884 283.525 90.8929 284.715 91.9855 285.284C92.5417 285.605 93.1511 285.834 93.721 285.917C94.3835 286.054 95.0065 286.045 95.7025 286.017C97.0944 285.961 98.5001 285.667 99.886 285.301C102.731 284.548 105.51 283.267 108.653 282.748C109.402 282.628 110.244 282.561 111.013 282.513C111.801 282.539 112.57 282.491 113.359 282.517C114.863 282.587 116.46 282.711 117.911 282.873C120.96 283.158 123.935 283.464 126.812 283.405C128.296 283.402 129.742 283.253 131.147 282.96C132.553 282.666 133.938 282.299 135.265 281.714C136.611 281.202 137.806 280.418 139.166 279.668L143.08 277.385C144.367 276.655 145.728 275.904 147.034 275.247C147.851 274.797 148.507 274.623 149.197 274.285C149.542 274.115 149.814 273.966 150.086 273.816C150.212 273.704 150.285 273.685 150.285 273.685C150.305 273.758 150.285 273.685 150.338 273.593L150.444 273.408C150.618 272.895 150.586 272.201 150.481 271.527C150.376 270.853 150.125 270.217 149.855 269.509C149.333 268.164 148.667 266.858 147.927 265.572C146.519 262.98 144.568 260.688 142.637 258.468C140.613 256.195 138.589 253.923 136.943 251.316C135.224 248.728 133.996 245.932 132.987 243.079C132.928 242.861 133.015 242.603 133.287 242.453C133.505 242.396 133.764 242.484 133.916 242.755C134.998 245.59 136.259 248.22 137.958 250.735C139.637 253.177 141.641 255.377 143.665 257.65C145.67 259.85 147.734 262.268 149.306 264.895C150.139 266.235 150.806 267.54 151.44 269.011C151.71 269.719 152 270.501 152.145 271.321C152.289 272.141 152.361 272.98 152.067 273.915L151.927 274.265C151.874 274.357 151.821 274.448 151.715 274.633C151.482 274.928 151.283 275.059 151.084 275.189C150.686 275.451 150.341 275.62 149.996 275.79C149.306 276.128 148.524 276.413 147.98 276.713C146.619 277.463 145.333 278.193 144.045 278.924L140.224 281.261C138.936 281.992 137.596 282.814 136.124 283.437C134.671 284.134 133.139 284.539 131.661 284.852C130.109 285.185 128.571 285.279 127.034 285.374C123.938 285.491 120.87 285.132 117.914 284.9C116.39 284.757 114.959 284.668 113.455 284.598C112.739 284.553 111.95 284.527 111.254 284.555C110.558 284.583 109.862 284.612 109.133 284.805C106.282 285.247 103.556 286.436 100.585 287.3C99.0534 287.705 97.5016 288.037 95.8909 288.151C95.049 288.218 94.2606 288.193 93.3594 288.041C92.5313 287.87 91.6634 287.553 90.9218 287.126C89.4189 286.197 88.4269 285.134 87.2416 284.511C86.1292 283.869 84.804 283.595 83.2798 283.453C81.8286 283.29 80.2318 283.167 78.5693 282.515C78.384 282.408 78.1452 282.393 77.9598 282.286L77.6818 282.125L77.3112 281.911C76.8477 281.644 76.5101 281.264 76.1926 280.958C75.5908 280.182 75.2078 279.347 75.0103 278.619C74.5027 277.037 74.2734 275.616 73.6656 274.528C72.9985 273.223 72.1855 271.956 71.4257 270.597C70.7389 269.218 70.032 267.767 69.6172 266.238C69.2023 264.71 68.9471 262.905 69.5002 261.199C69.7403 260.355 70.166 259.619 70.6112 258.955C71.0564 258.291 71.5945 257.681 72.1522 257.143C73.2675 256.068 74.4026 255.066 75.5575 254.136C75.7565 254.005 76.0679 254.001 76.2001 254.2C76.4052 254.38 76.3917 254.617 76.2124 254.821Z" fill="black"/>
<path d="M101.028 286.573C101.684 288.422 101.885 290.314 102.013 292.225C102.122 294.063 102.25 295.974 102.504 297.773C103.031 301.445 103.921 305.021 105.592 308.312C107.191 311.623 109.404 314.614 111.941 317.365C114.478 320.115 117.287 322.716 119.897 325.448C120.101 325.627 120.107 325.936 119.909 326.067C119.73 326.27 119.492 326.255 119.288 326.075L114.996 322.312C113.565 321.058 112.134 319.803 110.756 318.457C108.001 315.764 105.53 312.685 103.728 309.195C101.925 305.706 100.811 301.878 100.317 298.041C100.023 296.097 99.8953 294.186 99.7673 292.275C99.6392 290.364 99.6761 288.487 100.169 286.568C100.255 286.311 100.526 286.162 100.764 286.177C100.876 286.302 100.988 286.428 101.028 286.573Z" fill="black"/>
<path d="M144.034 278.637C144.791 279.993 145.091 281.391 145.319 282.808C145.547 284.226 145.702 285.663 145.858 287.1C146.168 289.973 146.406 292.866 146.551 295.706C146.643 298.637 146.643 301.516 146.478 304.36C146.241 307.223 145.858 310.125 145.144 312.959C145.058 313.215 144.786 313.365 144.529 313.278C144.271 313.191 144.14 312.992 144.154 312.755C144.556 309.926 144.741 307.154 144.741 304.276C144.761 301.47 144.688 298.611 144.397 295.81C144.179 292.99 143.869 290.116 143.505 287.334C143.35 285.898 143.122 284.48 142.914 283.135C142.81 282.463 142.759 281.699 142.727 281.007C142.696 280.315 142.717 279.531 142.904 278.781C142.99 278.525 143.262 278.375 143.499 278.39C143.81 278.386 143.922 278.512 144.034 278.637Z" fill="black"/>
<path d="M95.0572 287.777C93.108 289.227 91.0206 290.168 88.748 291.003C88.1651 291.157 87.6021 291.384 87.0191 291.538C86.4362 291.692 85.9261 291.827 85.1974 292.02C83.992 292.183 82.8594 292.326 81.8393 292.596C81.6207 292.654 81.4021 292.711 81.2762 292.822C81.2033 292.842 81.2033 292.842 81.1501 292.934C81.0773 292.953 81.0243 293.045 80.9712 293.137C80.7389 293.432 80.6189 293.853 80.5188 294.347C80.3185 295.335 80.2305 296.449 80.2155 297.544C80.2004 298.639 80.2778 299.787 80.3022 301.028C80.3069 302.195 80.3116 303.363 80.4423 304.419C80.5001 305.495 80.7232 306.605 81.1256 307.511C81.4354 308.364 82.196 308.864 83.1752 309.307C84.1347 309.677 85.2204 309.935 86.3393 310.029C87.4779 310.195 88.5966 310.289 89.7686 310.291C92.0397 310.314 94.3243 310.099 96.5696 309.739C98.8877 309.36 101.186 308.908 103.431 308.548C103.65 308.49 103.928 308.651 104.007 308.942C104.066 309.16 103.907 309.435 103.688 309.493C101.409 310.018 99.1507 310.615 96.8523 311.067C94.5539 311.519 92.1627 311.917 89.7458 311.933C88.5738 311.931 87.3092 311.875 86.1903 311.782C84.9788 311.634 83.7676 311.488 82.55 311.031C81.9412 310.802 81.3126 310.5 80.7174 310.034C80.142 309.641 79.6534 308.991 79.33 308.376C78.7561 307.125 78.5658 305.85 78.3956 304.648C78.2255 303.447 78.2209 302.279 78.2163 301.112C78.1387 299.964 78.0612 298.815 78.1096 297.555C78.105 296.388 78.1537 295.129 78.4208 293.812C78.5543 293.153 78.7605 292.475 79.2781 291.792C79.3843 291.608 79.5105 291.497 79.6896 291.294C79.8156 291.183 79.9947 290.98 80.1935 290.849C80.5913 290.588 80.8827 290.511 81.247 290.415C82.5587 290.068 83.7112 289.997 84.824 289.781C85.2612 289.666 85.8439 289.512 86.4268 289.357C87.0098 289.203 87.5002 288.995 88.0832 288.841C90.2297 288.118 92.4292 287.302 94.7473 286.923C95.0388 286.846 95.2438 287.026 95.3228 287.317C95.2894 287.481 95.1832 287.665 95.0572 287.777Z" fill="black"/>
<path d="M108.003 320.749C108.116 320.876 108.248 321.074 108.327 321.366C108.346 321.439 108.366 321.512 108.366 321.512L108.386 321.585L108.406 321.658C108.445 321.803 108.485 321.949 108.524 322.095C108.603 322.386 108.682 322.678 108.761 322.969C108.919 323.552 109.15 324.116 109.381 324.679C109.612 325.243 109.843 325.806 110.127 326.278C110.431 326.822 110.637 327.002 111.008 327.216C111.359 327.357 111.856 327.46 112.333 327.489C112.884 327.5 113.414 327.437 113.998 327.282C115.113 327.065 116.261 326.683 117.204 326.121C121.546 323.956 125.333 320.61 129.57 317.769C131.688 316.349 133.9 314.982 136.356 313.941C136.993 313.694 137.557 313.467 138.214 313.293C138.871 313.119 139.508 312.872 140.111 312.79L141.08 312.612L142.069 312.506C142.672 312.424 143.422 312.303 143.972 312.314C145.18 312.15 146.46 311.967 147.76 311.857C148.383 311.848 149.06 311.747 149.776 311.792C150.493 311.837 151.116 311.827 151.964 312.071C152.388 312.193 152.833 312.388 153.19 312.84C153.415 313.093 153.566 313.364 153.645 313.656L153.705 313.875L153.744 314.02L153.804 314.239C153.889 314.842 154.066 315.497 154.045 316.283C154.07 316.667 154.023 317.071 153.923 317.566C153.803 317.988 153.536 318.449 153.158 318.784C152.473 319.433 151.763 319.699 151.126 319.946C148.518 320.715 145.898 320.863 143.371 321.063C140.824 321.191 138.37 321.373 136.147 322.118C133.923 322.864 131.858 324.192 129.905 325.646C127.972 327.174 126.079 328.846 124.073 330.393C122.067 331.94 119.69 333.273 117.248 334.076C116.007 334.404 114.766 334.732 113.393 334.862C112.112 335.045 110.7 335.029 109.374 334.755C108.048 334.482 106.71 333.587 105.97 332.299C105.25 331.084 105.093 329.642 105.123 328.307C105.152 326.971 105.44 325.724 105.8 324.457C106.027 323.85 106.254 323.243 106.554 322.617C106.713 322.34 106.873 322.063 107.013 321.714L107.12 321.53C107.173 321.438 107.299 321.326 107.425 321.214C107.512 320.957 107.877 320.861 108.003 320.749ZM107.69 321.613C107.656 321.778 107.861 321.958 107.861 321.958C107.861 321.958 107.861 321.958 107.881 322.031L107.775 322.215C107.615 322.492 107.528 322.749 107.369 323.026C107.122 323.56 106.895 324.167 106.742 324.754C106.434 325.929 106.2 327.084 106.151 328.346C106.155 329.517 106.325 330.721 106.893 331.664C107.462 332.607 108.409 333.215 109.496 333.474C111.743 333.972 114.245 333.387 116.561 332.696C118.857 331.931 120.942 330.676 122.875 329.148C124.808 327.621 126.609 325.895 128.687 324.329C130.693 322.782 132.865 321.27 135.434 320.355C140.537 318.691 145.835 319.474 150.301 318.056C150.812 317.921 151.283 317.64 151.536 317.417C151.662 317.306 151.715 317.213 151.748 317.048C151.782 316.883 151.816 316.718 151.81 316.407C151.837 315.931 151.679 315.349 151.574 314.674L151.515 314.455L151.476 314.309C151.476 314.309 151.29 314.202 151.124 314.168C150.7 314.046 150.13 313.962 149.58 313.952C149.029 313.942 148.406 313.951 147.802 314.033C146.575 314.123 145.368 314.287 144.087 314.47C143.391 314.499 142.88 314.634 142.276 314.715L141.361 314.802L140.465 314.961C139.862 315.043 139.297 315.27 138.714 315.425C138.13 315.58 137.565 315.807 137.001 316.035C134.744 316.945 132.659 318.2 130.634 319.674C126.543 322.476 122.683 325.841 118.088 328.23C116.854 328.869 115.559 329.29 114.226 329.565C113.549 329.666 112.853 329.694 112.084 329.742C111.367 329.698 110.539 329.527 109.797 329.099C109.611 328.992 109.426 328.884 109.293 328.685C109.108 328.578 108.976 328.379 108.844 328.18C108.579 327.781 108.408 327.436 108.256 327.164C108.005 326.528 107.827 325.872 107.649 325.216C107.472 324.56 107.386 323.958 107.282 323.283C107.276 322.972 107.177 322.608 107.171 322.297C107.205 322.132 107.165 321.986 107.179 321.749L107.212 321.583L107.192 321.511C107.378 321.618 107.563 321.725 107.69 321.613Z" fill="black"/>
<path d="M105.917 327.544C105.715 329.392 105.288 330.987 104.953 332.636C104.619 334.285 104.45 335.967 104.952 337.239C105.736 339.84 110.131 339.614 112.818 338.279C115.87 336.847 118.538 334.581 121.002 332.135C122.243 330.948 123.538 329.67 124.76 328.41C125.982 327.151 127.277 325.872 128.611 324.738C128.81 324.608 129.122 324.603 129.254 324.802C129.386 325.001 129.373 325.239 129.267 325.424C126.823 327.943 124.603 330.714 122.179 333.305C119.755 335.897 117 338.421 113.696 340.075C113.278 340.264 112.807 340.545 112.369 340.66C111.859 340.795 111.421 340.911 110.983 341.027C110.015 341.205 109.1 341.291 108.093 341.323C107.065 341.283 105.999 341.097 104.979 340.509C103.959 339.92 103.225 338.944 102.876 337.944C102.157 335.872 102.412 333.932 102.76 332.046C102.908 331.149 103.201 330.212 103.607 329.403C104.013 328.593 104.491 327.764 105.083 327.062C105.262 326.858 105.573 326.854 105.779 327.034C105.838 327.252 105.95 327.379 105.917 327.544Z" fill="black"/>
<path d="M153.656 316.586C154.309 317.269 154.506 317.995 154.558 318.759C154.609 319.524 154.661 320.289 154.712 321.053C154.815 322.583 154.772 324.151 154.564 325.685C154.356 327.219 154.076 328.772 153.537 330.237C153.072 331.684 152.368 333.115 151.552 334.42C151.374 334.623 151.155 334.681 150.898 334.594C150.713 334.487 150.654 334.269 150.667 334.032C151.618 331.212 152.259 328.397 152.403 325.479C152.485 324.056 152.475 322.58 152.391 321.123C152.34 320.358 152.308 319.666 152.184 318.921C152.133 318.156 152.101 317.464 152.578 316.637C152.738 316.361 153.101 316.265 153.379 316.425C153.544 316.459 153.564 316.532 153.656 316.586Z" fill="black"/>
<path d="M104.854 338.42C105.641 338.446 106.124 338.785 106.46 339.163C106.797 339.542 107.227 339.974 107.563 340.352C108.31 341.089 109.076 341.899 109.896 342.617C111.534 344.053 113.206 345.324 115.077 346.464C115.262 346.571 115.341 346.862 115.255 347.119C115.148 347.303 114.93 347.36 114.692 347.345C112.429 346.776 110.393 345.601 108.536 344.223C107.644 343.524 106.732 342.753 105.893 341.962C105.483 341.603 105.054 341.172 104.697 340.721C104.268 340.289 103.984 339.819 104.006 339.034C104.145 338.686 104.47 338.444 104.854 338.42Z" fill="black"/>
<path d="M102.2 352.48C102.399 352.35 102.505 352.166 102.704 352.036L103.155 351.683L104.004 351.068C104.601 350.677 105.125 350.304 105.722 349.912C106.843 349.148 108.056 348.437 109.382 347.853C110.635 347.288 112.053 346.757 113.385 346.483C114.79 346.19 116.069 346.007 117.308 345.68C117.891 345.526 118.528 345.279 119.018 345.072C119.582 344.845 120.033 344.491 120.557 344.119C121.605 343.374 122.54 342.503 123.529 341.54C124.517 340.577 125.526 339.687 126.607 338.778C127.781 337.921 129.048 337.119 130.559 336.642C132.216 336.126 133.779 336.414 135.103 336.687C135.765 336.824 136.408 336.888 136.977 336.971C137.289 336.967 137.527 336.982 137.839 336.977C138.15 336.973 138.441 336.896 138.753 336.892C141.31 336.527 143.935 335.834 146.559 335.14L148.528 334.619C149.184 334.446 149.84 334.272 150.423 334.118C151.642 333.718 152.935 333.298 154.022 332.698C154.566 332.399 155.11 332.099 155.633 331.726C156.085 331.373 156.662 330.909 157.166 330.464L160.211 327.866L160.284 327.847C160.735 327.494 161.377 327.558 161.787 327.917C161.807 327.99 161.9 328.043 161.92 328.116C162.719 329.619 163.114 331.074 163.602 332.583C164.016 334.11 164.338 335.583 164.534 337.168C164.803 338.734 164.907 340.266 164.937 341.817L165.015 342.966C165.001 343.204 165.06 343.422 165.212 343.694C165.423 344.183 165.873 344.688 166.342 345.265C166.884 345.823 167.407 346.309 167.916 347.032C168.161 347.358 168.424 347.755 168.689 348.153C168.821 348.352 168.88 348.57 168.939 348.788C168.999 349.006 169.131 349.206 169.19 349.424C169.717 351.077 169.695 352.72 169.705 354.198C169.716 355.677 169.853 357.044 170.354 358.314C170.856 359.585 171.595 360.871 172.355 362.229C173.114 363.587 173.767 365.129 174.129 366.748C174.418 368.387 174.395 370.03 174.061 371.677C173.727 373.325 173.042 374.831 172.225 376.139C171.78 376.802 171.335 377.465 170.798 378.075C170.493 378.39 170.134 378.796 169.736 379.057C169.338 379.318 168.921 379.507 168.483 379.623C166.754 380.158 165.23 380.015 163.713 380.182C162.249 380.257 160.731 380.425 159.327 380.718C157.922 381.012 156.464 381.397 155.118 381.909C153.719 382.512 152.228 383.063 150.79 383.521C147.933 384.51 145.017 385.281 142.517 386.722C141.304 387.432 140.077 388.38 138.717 389.129C137.378 389.951 135.761 390.613 134.058 390.674C132.428 390.715 130.826 390.28 129.276 389.754C127.8 389.209 126.377 388.573 125.007 387.844C123.637 387.114 122.267 386.385 120.937 385.802C119.606 385.218 118.17 384.818 116.713 384.346C115.256 383.874 113.78 383.328 112.37 382.454C110.961 381.579 109.876 380.463 108.845 379.255C107.814 378.046 107.107 376.595 106.62 375.087C106.059 373.599 105.81 372.106 105.488 370.632C105.166 369.158 104.844 367.684 104.376 366.249C103.981 364.794 103.586 363.34 103.244 361.793C102.922 360.319 102.58 358.772 102.404 357.26C102.279 356.513 102.227 355.747 102.176 354.981C102.15 354.598 102.124 354.215 102.098 353.833C102.165 353.503 102.173 352.955 102.2 352.48ZM103.034 352.962C103.113 353.253 103.099 353.49 103.125 353.873C103.151 354.256 103.177 354.639 103.203 355.022C103.254 355.788 103.379 356.534 103.411 357.227C103.587 358.74 103.909 360.214 104.285 361.596C104.607 363.07 105.075 364.505 105.47 365.959C105.937 367.395 106.279 368.941 106.601 370.415C106.923 371.889 107.245 373.363 107.767 374.707C108.288 376.05 108.954 377.355 109.873 378.437C110.792 379.519 111.93 380.543 113.081 381.33C114.305 382.098 115.689 382.59 117.126 382.989C118.563 383.389 120.092 383.842 121.495 384.406C122.991 385.024 124.288 385.772 125.639 386.429C126.989 387.085 128.339 387.742 129.723 388.233C131.107 388.725 132.524 389.052 133.915 388.996C135.233 388.959 136.486 388.394 137.773 387.664C138.986 386.954 140.213 386.006 141.553 385.184C144.324 383.594 147.313 382.803 150.17 381.814C151.608 381.356 152.954 380.844 154.352 380.241C155.824 379.618 157.355 379.213 158.906 378.881C160.457 378.549 161.974 378.381 163.511 378.287C165.028 378.119 166.604 378.17 167.824 377.77C168.115 377.693 168.387 377.543 168.659 377.393C168.931 377.243 169.037 377.059 169.29 376.836C169.754 376.246 170.146 375.675 170.538 375.103C171.301 373.888 171.807 372.585 172.075 371.268C172.342 369.95 172.351 368.544 172.048 367.142C171.766 365.814 171.245 364.471 170.505 363.185C169.838 361.881 169.006 360.542 168.353 359C168.063 358.219 167.845 357.418 167.701 356.599C167.556 355.78 167.578 354.995 167.526 354.229C167.496 352.678 167.505 351.273 167.076 349.983C166.898 349.328 166.687 348.838 166.238 348.333C165.788 347.829 165.319 347.251 164.776 346.693C164.234 346.135 163.653 345.431 163.27 344.597C163.078 344.18 162.92 343.598 162.948 343.123L162.87 341.974C162.786 340.515 162.703 339.056 162.454 337.563C162.224 336.143 161.975 334.649 161.599 333.267C161.224 331.885 160.756 330.451 160.109 329.218L161.745 329.487L158.647 332.177C158.143 332.623 157.639 333.068 157.062 333.532C156.484 333.997 155.795 334.334 155.198 334.726C152.659 336.021 149.869 336.681 147.244 337.375C144.62 338.069 141.996 338.762 139.219 339.185C138.835 339.208 138.543 339.286 138.159 339.31C137.775 339.333 137.39 339.357 136.986 339.307C136.198 339.282 135.536 339.145 134.874 339.009C133.57 338.808 132.357 338.66 131.337 338.93C129.097 339.6 127.172 341.434 125.175 343.288C124.167 344.178 123.178 345.141 121.932 346.016C121.335 346.408 120.665 346.819 119.975 347.157C119.286 347.495 118.557 347.688 117.901 347.862C116.516 348.228 115.144 348.357 113.792 348.558C112.514 348.74 111.274 349.068 110.074 349.541C108.875 350.014 107.622 350.58 106.462 351.198C105.845 351.517 105.301 351.817 104.685 352.135L103.796 352.604C103.65 352.643 103.452 352.774 103.379 352.793C103.253 352.904 103.107 352.942 103.034 352.962Z" fill="black"/>
<path d="M109.258 380.768C108.307 381.878 107.264 382.934 106.533 383.986C106.373 384.263 106.214 384.54 106.18 384.705C106.127 384.797 106.18 384.705 106.18 384.705L106.2 384.777C106.22 384.85 106.239 384.923 106.352 385.05C106.616 385.448 107.066 385.953 107.569 386.366C108.073 386.779 108.668 387.246 109.191 387.732C109.787 388.199 110.29 388.612 110.886 389.078C111.985 389.958 113.137 390.747 114.362 391.515C116.72 392.999 119.257 394.278 121.895 395.063C124.532 395.848 127.269 396.138 130.074 396.098C135.664 395.945 141.263 394.386 147.138 393.845C153.067 393.212 158.919 394.317 164.469 394.019C167.254 393.906 169.994 393.337 172.502 392.205C173.119 391.885 173.737 391.566 174.281 391.266C174.878 390.874 175.403 390.5 176 390.108C177.176 389.251 178.298 388.485 179.214 387.54C179.394 387.336 179.626 387.04 179.733 386.856C179.679 386.948 179.766 386.692 179.687 386.4C179.602 385.798 179.352 385.162 179.174 384.507C178.923 383.871 178.672 383.235 178.349 382.618C178.197 382.346 178.025 382.001 177.873 381.729C177.76 381.603 177.721 381.457 177.608 381.33L177.476 381.131C177.476 381.131 177.456 381.059 177.383 381.078C177.403 381.151 177.496 381.204 177.569 381.185C177.642 381.165 177.569 381.185 177.641 381.165L177.569 381.185C177.496 381.204 177.35 381.242 177.204 381.281C176.912 381.358 176.567 381.528 176.275 381.606C175.638 381.852 175.021 382.172 174.404 382.491C173.096 383.149 171.862 383.788 170.647 384.5C168.218 385.924 165.755 387.512 163.16 388.901C160.638 390.271 157.725 391.355 154.78 391.744C151.836 392.134 148.899 391.974 145.956 391.504C143.086 391.015 140.249 390.361 137.466 389.614C137.208 389.527 137.056 389.255 137.142 388.998C137.229 388.741 137.428 388.61 137.687 388.698C140.523 389.352 143.287 390.025 146.117 390.369C148.948 390.712 151.792 390.818 154.571 390.394C157.35 389.971 159.97 388.965 162.4 387.541C164.849 386.191 167.219 384.549 169.702 383.033C170.97 382.229 172.277 381.571 173.512 380.932C174.202 380.593 174.819 380.273 175.509 379.935C175.854 379.765 176.219 379.669 176.564 379.499C176.783 379.441 177.002 379.383 177.221 379.325C177.367 379.287 177.44 379.268 177.678 379.283C177.771 379.336 177.844 379.317 178.01 379.351C178.175 379.385 178.361 379.492 178.454 379.546C178.566 379.672 178.659 379.725 178.771 379.852L178.996 380.105C179.128 380.304 179.241 380.43 179.3 380.648C179.472 380.993 179.644 381.338 179.815 381.683C180.159 382.373 180.429 383.082 180.7 383.791C180.97 384.499 181.168 385.227 181.385 386.029C181.444 386.247 181.431 386.485 181.417 386.723C181.384 386.888 181.403 386.96 181.39 387.198C181.336 387.29 181.356 387.363 181.323 387.528L181.289 387.693L181.236 387.785C181.023 388.154 180.737 388.542 180.505 388.838C179.428 390.06 178.233 390.844 177.078 391.774C176.48 392.167 175.83 392.651 175.232 393.043C174.562 393.455 173.945 393.775 173.255 394.113C170.474 395.396 167.516 396.023 164.512 396.194C158.577 396.516 152.817 395.464 147.273 396.073C141.636 396.629 136.057 398.261 130.083 398.437C127.132 398.516 124.083 398.231 121.187 397.358C118.291 396.485 115.589 395.171 113.119 393.561C111.893 392.793 110.629 391.879 109.53 390.999C108.934 390.532 108.411 390.046 107.888 389.56C107.366 389.074 106.77 388.607 106.227 388.049C105.684 387.49 105.142 386.931 104.686 386.115C104.553 385.916 104.474 385.624 104.468 385.313C104.429 385.168 104.462 385.003 104.423 384.857C104.456 384.692 104.47 384.455 104.524 384.363C104.77 383.829 105.002 383.533 105.235 383.238C106.258 382.108 107.413 381.177 108.588 380.32C108.788 380.189 109.1 380.185 109.232 380.384C109.451 380.327 109.437 380.564 109.258 380.768Z" fill="black"/>
<path d="M172.278 374.753C172.841 374.526 173.172 374.594 173.396 374.846C173.601 375.025 173.825 375.277 174.103 375.437C174.532 375.869 174.961 376.301 175.318 376.751C176.103 377.634 176.796 378.462 177.582 379.344C177.787 379.524 177.72 379.853 177.541 380.056C177.415 380.168 177.196 380.225 177.104 380.172C175.907 379.788 174.83 378.983 173.918 378.212C173.489 377.781 173.007 377.441 172.597 377.083C172.392 376.903 172.187 376.724 171.983 376.544C171.778 376.365 171.627 376.094 171.78 375.508C171.754 375.126 172.006 374.903 172.278 374.753Z" fill="black"/>
<path d="M111.881 392.793C111.184 393.679 110.672 394.673 110.306 395.628C109.959 396.656 109.759 397.645 109.816 398.722C109.912 400.802 110.903 402.724 112.292 404.385C113.608 406.065 115.341 407.556 117.128 408.956C118.895 410.283 120.862 411.478 122.935 412.49C123.934 413.006 124.988 413.43 126.06 413.926L129.259 415.342C131.405 416.334 133.477 417.346 135.59 418.503C136.609 419.092 137.629 419.68 138.648 420.268L140.151 421.197C140.707 421.518 141.21 421.931 141.621 422.291C142.514 422.99 143.427 423.763 144.354 424.298C145.228 424.925 146.208 425.367 146.997 425.393C149.051 425.473 151.2 424.749 153.236 423.899C155.345 423.029 157.395 421.94 159.782 421.231C160.93 420.85 162.189 420.594 163.415 420.504C164.642 420.414 165.835 420.488 167.027 420.562C169.32 420.658 171.614 420.754 173.431 419.961C173.63 419.83 173.849 419.772 174.121 419.622L174.791 419.211C174.99 419.081 175.242 418.858 175.441 418.727C175.64 418.596 175.893 418.374 176.092 418.243C176.921 417.556 177.619 416.669 178.243 415.802C179.546 413.975 180.57 411.988 181.409 409.894C182.247 407.8 183.066 405.634 183.885 403.467L184.958 400.219L185.458 398.605L185.698 397.762L185.818 397.34L185.851 397.175L185.832 397.102L185.851 397.175C185.699 396.903 186.016 398.067 186.619 397.986L186.546 398.005C186.215 397.937 185.757 397.98 185.319 398.096C184.882 398.211 184.371 398.346 183.88 398.554C183.39 398.762 182.879 398.897 182.461 399.085C181.97 399.293 181.48 399.501 180.989 399.709C179.172 400.501 177.473 401.731 175.774 402.961C174.075 404.19 172.323 405.511 170.419 406.561C168.515 407.611 166.293 408.354 164.04 408.404C161.786 408.454 159.594 407.864 157.561 406.998C155.528 406.132 153.654 404.989 151.926 403.808C150.125 402.646 148.451 401.373 146.703 400.119C144.976 398.938 143.248 397.757 141.288 396.872C141.029 396.784 140.95 396.492 141.037 396.236C141.123 395.979 141.415 395.902 141.674 395.989C143.634 396.875 145.507 398.017 147.255 399.271C149.056 400.433 150.73 401.706 152.531 402.868C154.332 404.03 156.093 405.046 158.033 405.859C159.974 406.672 161.961 407.082 163.976 407.017C165.991 406.952 167.921 406.286 169.659 405.202C171.417 404.191 173.096 402.889 174.795 401.659C176.494 400.43 178.246 399.109 180.262 398.185C180.806 397.885 181.244 397.769 181.735 397.561C182.226 397.353 182.717 397.146 183.207 396.938C183.698 396.73 184.282 396.576 184.865 396.422C185.449 396.267 186.052 396.186 186.787 396.303L186.715 396.323C187.318 396.241 187.653 397.478 187.502 397.206L187.521 397.279C187.541 397.352 187.541 397.352 187.488 397.444L187.455 397.608L187.368 397.866L187.248 398.288L187.008 399.131L186.528 400.818L185.475 404.139C184.656 406.305 183.929 408.526 183.037 410.712C182.145 412.898 181.088 415.05 179.752 417.041C178.324 418.979 176.544 420.775 174.203 421.941C173.022 422.487 171.67 422.689 170.444 422.779C169.217 422.869 168.024 422.795 166.832 422.72C165.639 422.646 164.538 422.625 163.458 422.677C162.377 422.728 161.357 422.999 160.282 423.361C158.187 423.993 156.137 425.081 153.955 425.97C151.773 426.859 149.425 427.715 146.748 427.643C145.224 427.5 144.038 426.878 142.999 426.216C141.96 425.555 141.046 424.783 140.153 424.083C139.67 423.743 139.259 423.383 138.796 423.116L137.313 422.26C136.293 421.672 135.366 421.137 134.274 420.568C132.254 419.464 130.181 418.452 128.055 417.532L124.857 416.116C123.804 415.692 122.731 415.196 121.638 414.627C119.473 413.562 117.414 412.312 115.554 410.932C113.602 409.499 111.828 407.861 110.36 405.91C109.626 404.934 108.946 403.866 108.537 402.648C108.055 401.449 107.792 400.193 107.841 398.932C107.889 397.671 108.25 396.406 108.795 395.248C109.36 394.162 110.111 393.184 110.974 392.331C111.154 392.128 111.465 392.123 111.67 392.303C112.001 392.371 112.061 392.589 111.881 392.793Z" fill="black"/>
<path d="M178.224 390.115C178.859 389.868 179.283 389.989 179.653 390.203C180.023 390.416 180.413 390.703 180.73 391.008C181.437 391.6 182.071 392.211 182.632 392.841C183.193 393.471 183.681 394.12 184.223 394.677C184.764 395.235 185.326 395.865 185.94 396.403C186.145 396.582 186.151 396.892 185.971 397.096C185.845 397.207 185.627 397.265 185.442 397.158C184.649 396.823 183.908 396.396 183.129 395.824C182.441 395.305 181.734 394.713 181.12 394.175C180.506 393.637 179.964 393.08 179.297 392.634C178.999 392.401 178.702 392.168 178.332 391.954C178.034 391.722 177.737 391.489 177.613 390.743C177.719 390.559 177.952 390.264 178.224 390.115Z" fill="black"/>
<path d="M148.952 426.439C149.749 427.083 150.09 427.77 150.306 428.568L151.026 430.943C151.53 432.519 151.889 434.135 152.301 435.658C152.66 437.274 153.092 438.87 153.358 440.432C153.645 442.066 153.931 443.701 154.125 445.282C154.112 445.519 153.952 445.795 153.715 445.78C153.497 445.838 153.293 445.659 153.234 445.442L150.32 436.107L148.9 431.43L148.2 429.127C147.984 428.329 147.841 427.512 148.133 426.579C148.2 426.25 148.544 426.081 148.82 426.241C148.787 426.405 148.86 426.386 148.952 426.439Z" fill="black"/>
<path d="M154.931 425.392C155.635 425.983 155.904 426.689 156.028 427.434L156.471 429.649C156.791 431.119 157.111 432.59 157.358 434.079C157.925 437.039 158.42 440.019 158.696 443.056C158.682 443.293 158.523 443.568 158.285 443.553C158.048 443.539 157.863 443.432 157.805 443.215C156.947 440.332 156.162 437.43 155.377 434.528C154.985 433.077 154.665 431.606 154.272 430.155L153.756 427.959C153.56 427.234 153.509 426.47 153.894 425.59C154.053 425.315 154.397 425.145 154.674 425.305C154.838 425.339 154.838 425.339 154.931 425.392Z" fill="black"/>
<path d="M148.69 430.24C147.913 430.835 147.078 431.211 146.223 431.515C145.368 431.819 144.493 432.05 143.691 432.262C142.816 432.494 142.014 432.706 141.212 432.918C140.848 433.014 140.43 433.203 140.066 433.299L139.794 433.449L139.449 433.618C139.25 433.748 139.031 433.806 138.813 433.864C137.122 434.545 135.465 435.061 133.828 435.65C132.973 435.954 132.191 436.238 131.408 436.523C130.626 436.808 129.791 437.185 129.194 437.577C129.121 437.596 129.068 437.688 128.995 437.707L128.922 437.726C128.869 437.818 128.922 437.726 128.922 437.726C129.048 437.615 128.975 437.634 128.995 437.707C129.015 437.78 128.962 437.872 128.981 437.944C128.915 438.274 128.887 438.749 128.913 439.132C128.912 439.99 128.91 440.848 129.055 441.668C129.08 442.051 129.199 442.487 129.225 442.87C129.264 443.015 129.324 443.234 129.304 443.161C129.304 443.161 129.284 443.088 129.211 443.107C129.211 443.107 129.099 442.981 129.026 443C128.953 443.019 129.026 443 129.026 443C129.099 442.981 129.191 443.035 129.191 443.035C129.834 443.099 130.709 442.867 131.623 442.781C132.08 442.738 132.61 442.676 133.2 442.832C133.365 442.866 133.531 442.901 133.643 443.027C133.829 443.134 133.829 443.133 134.014 443.24C134.199 443.347 134.404 443.527 134.59 443.634C135.37 444.207 136.005 444.819 136.66 445.504C137.897 446.892 138.861 448.43 139.68 450.006C139.812 450.205 139.745 450.534 139.473 450.684C139.274 450.815 139.016 450.727 138.884 450.528C137.866 449.082 136.848 447.636 135.671 446.466C135.036 445.855 134.421 445.315 133.753 444.868C133.455 444.635 132.992 444.368 132.846 444.407C132.608 444.392 132.223 444.416 131.839 444.44C131.017 444.579 130.162 444.883 129.043 444.789C128.877 444.755 128.731 444.793 128.566 444.759L128.473 444.705L128.4 444.725C128.4 444.725 128.4 444.725 128.307 444.671C128.215 444.618 128.03 444.511 127.937 444.457C127.844 444.404 127.825 444.331 127.732 444.278C127.468 443.88 127.408 443.662 127.329 443.371C127.191 442.862 127.073 442.425 127.027 441.969C126.863 441.077 126.844 440.147 126.826 439.216C126.853 438.741 126.808 438.285 126.888 437.718C126.922 437.554 126.902 437.481 126.935 437.316C126.969 437.151 127.003 436.987 127.235 436.692C127.414 436.488 127.414 436.488 127.467 436.396L127.666 436.266C127.792 436.154 127.918 436.043 127.991 436.024C128.86 435.482 129.695 435.105 130.55 434.801C131.386 434.424 132.241 434.121 133.023 433.836C134.66 433.247 136.37 432.639 137.988 431.977C138.207 431.92 138.405 431.789 138.551 431.751L139.187 431.504C139.678 431.296 140.116 431.181 140.533 430.992C141.389 430.688 142.263 430.457 143.158 430.298C144.907 429.836 146.571 429.63 148.366 429.623C148.677 429.619 148.883 429.798 148.889 430.109C148.849 429.963 148.816 430.128 148.69 430.24Z" fill="black"/>
<path d="M130.928 453.717C133.337 452.221 135.977 451.288 138.565 450.447C141.171 449.679 143.831 448.819 146.419 447.979C151.573 446.224 156.668 444.251 161.103 441.283L161.899 440.76C162.171 440.61 162.351 440.407 162.603 440.184C163.035 439.757 163.447 439.258 163.859 438.759C164.682 437.76 165.447 436.543 166.563 435.468C167.606 434.411 168.874 433.607 170.181 432.949C170.798 432.63 171.508 432.364 172.145 432.117C172.782 431.871 173.511 431.677 174.148 431.431L174.659 431.296L174.951 431.218C175.097 431.18 175.243 431.142 175.336 431.195L175.866 431.132L176.012 431.094L175.939 431.113C175.866 431.132 175.813 431.225 175.74 431.244C175.687 431.336 175.633 431.428 175.6 431.593C175.547 431.685 175.586 431.831 175.586 431.831C175.586 431.831 175.626 431.977 175.606 431.904L175.586 431.831L175.454 431.632C175.415 431.486 175.322 431.433 175.209 431.306C175.097 431.18 175.004 431.126 174.892 431C174.779 430.874 174.686 430.82 174.574 430.694C173.66 429.921 172.329 429.337 171.143 428.714C170.514 428.412 169.865 428.038 169.269 427.571C168.972 427.338 168.654 427.032 168.429 426.779L168.277 426.507L168.164 426.381L168.145 426.308L168.125 426.236C168.105 426.163 168.046 425.944 168.046 425.944L168.06 425.707C168.093 425.542 168.073 425.469 168.126 425.376C168.313 424.625 168.54 424.019 168.82 423.32C169.046 422.714 169.399 421.996 169.572 421.482L169.553 421.409C169.639 421.152 169.931 421.075 170.189 421.162C170.448 421.25 170.527 421.542 170.494 421.707C170.307 422.459 170.06 422.992 169.781 423.69C169.554 424.297 169.347 424.976 169.266 425.543C169.286 425.616 169.233 425.708 169.233 425.708C169.233 425.708 169.233 425.708 169.253 425.781L169.233 425.708L169.478 426.033C169.683 426.213 169.908 426.466 170.113 426.645C170.596 426.986 171.153 427.307 171.782 427.609C172.967 428.232 174.332 428.651 175.544 429.657C175.729 429.764 175.842 429.891 175.954 430.017C176.067 430.143 176.252 430.25 176.384 430.449C176.497 430.575 176.629 430.774 176.742 430.901L176.894 431.173L177.006 431.299C177.006 431.299 177.046 431.445 177.065 431.518C177.085 431.59 177.125 431.736 177.091 431.901C177.058 432.066 177.024 432.231 176.898 432.342C176.845 432.434 176.719 432.546 176.646 432.565C176.573 432.585 176.5 432.604 176.447 432.696L176.3 432.735C176.155 432.773 176.009 432.812 175.936 432.831L175.405 432.894C175.332 432.913 175.332 432.913 175.259 432.932L175.041 432.99L174.53 433.125C173.893 433.372 173.236 433.545 172.672 433.772C172.035 434.019 171.491 434.319 170.874 434.638C169.713 435.258 168.664 436.004 167.8 436.857C166.957 437.783 166.152 438.854 165.368 439.998C164.976 440.57 164.51 441.161 163.953 441.699C163.72 441.995 163.395 442.237 163.07 442.479L162.22 443.094C157.533 446.286 152.312 448.37 147.084 450.144C144.444 451.077 141.837 451.844 139.25 452.685C136.663 453.526 134.036 454.221 131.257 454.644C131.039 454.702 130.76 454.541 130.681 454.25C130.695 454.012 130.801 453.828 130.928 453.717Z" fill="black"/>
<path d="M172.459 421.25C173.418 422.478 174.43 423.615 175.428 424.988C175.918 425.639 176.354 426.382 176.79 427.124C177.246 427.939 177.41 428.832 177.627 429.632C177.845 430.433 177.949 431.107 178.18 431.67C178.411 432.232 178.861 432.738 179.35 433.388C179.82 433.966 180.455 434.578 180.891 435.321C181.155 435.719 181.42 436.116 181.558 436.626C181.637 436.917 181.696 437.135 181.736 437.281C181.795 437.499 181.854 437.717 181.841 437.955C182.149 439.667 182.126 441.311 182.031 442.974C181.862 444.656 181.601 446.285 181.028 447.918C180.908 448.34 180.695 448.709 180.502 449.149C180.309 449.59 180.024 449.978 179.811 450.346C179.22 451.048 178.609 451.678 177.886 452.181C176.533 453.241 175.007 453.956 173.462 454.599C167.48 457.039 161.281 458.678 155.175 460.371C152.132 461.254 149.069 462.064 146.065 463.093C143.042 464.048 139.965 465.096 136.73 465.562L136.657 465.581L135.908 465.701L135.013 465.86L134.556 465.903L134.317 465.887L134.152 465.854L133.986 465.819L133.913 465.838C133.913 465.838 133.748 465.805 133.728 465.732C133.635 465.678 133.542 465.624 133.523 465.551C133.503 465.479 133.503 465.479 133.503 465.479L133.483 465.407L133.444 465.261L133.312 465.062C133.272 464.916 133.159 464.79 133.12 464.644C132.585 463.538 132.322 462.282 132.172 461.152C132.021 460.022 131.944 458.872 131.794 457.742C131.643 456.612 131.293 455.613 130.798 454.652C130.666 454.453 130.733 454.123 131.024 454.046C131.224 453.915 131.555 453.984 131.634 454.275C132.222 455.289 132.631 456.507 132.854 457.618C133.097 458.801 133.175 459.95 133.398 461.061C133.548 462.191 133.825 463.21 134.32 464.171C134.36 464.316 134.452 464.37 134.492 464.515L134.604 464.642L134.624 464.715L134.644 464.787L134.624 464.715C134.604 464.642 134.512 464.589 134.512 464.589C134.492 464.516 134.346 464.554 134.346 464.554L134.419 464.535L134.565 464.496L134.949 464.473L135.771 464.333L136.209 464.217C136.355 464.179 136.428 464.16 136.739 464.156L136.666 464.175C139.716 463.602 142.7 462.501 145.703 461.472C148.707 460.444 151.731 459.489 154.847 458.587C160.914 456.748 167 454.983 172.856 452.654C175.654 451.446 178.447 449.927 179.2 447.232C179.686 445.855 179.914 444.391 180.049 442.874C180.185 441.356 180.154 439.805 179.852 438.403C179.812 438.257 179.753 438.039 179.713 437.893C179.674 437.748 179.615 437.53 179.595 437.457C179.516 437.166 179.364 436.894 179.139 436.642C178.762 436.117 178.22 435.559 177.731 434.908C177.168 434.277 176.587 433.573 176.184 432.666C175.781 431.759 175.637 430.939 175.493 430.119C175.18 427.238 172.897 424.878 171.736 421.754C171.677 421.535 171.744 421.206 172.036 421.128C172.162 421.017 172.327 421.051 172.459 421.25Z" fill="black"/>
<path d="M156.521 459.707C158.423 464.723 159.817 469.875 161.191 474.954L163.199 482.664C163.905 485.276 164.428 487.781 165.187 490.302C165.947 492.822 166.707 495.342 167.486 497.935C167.892 499.149 168.338 500.508 168.618 501.833C168.899 503.159 169.18 504.484 169.388 505.829C169.596 507.173 169.857 508.426 170.118 509.679C170.294 510.332 170.379 510.932 170.556 511.585C170.634 511.875 170.732 512.237 170.811 512.528C170.85 512.673 170.909 512.891 170.948 513.036L171.086 513.544C171.262 514.197 171.346 514.796 171.523 515.449C171.602 515.739 171.68 516.03 171.812 516.228C171.831 516.301 171.831 516.301 171.831 516.301C171.831 516.301 171.831 516.301 171.739 516.248C171.72 516.175 171.554 516.141 171.647 516.194L172.089 516.388C173.229 516.863 174.423 517.246 175.631 517.392C175.941 517.388 176.179 517.402 176.489 517.398C176.634 517.359 176.726 517.412 176.872 517.373L176.944 517.354C176.872 517.373 176.799 517.393 176.727 517.412C176.581 517.451 176.528 517.543 176.475 517.634C176.403 517.654 176.422 517.727 176.422 517.727C176.369 517.819 176.369 517.819 176.422 517.727C176.456 517.562 176.523 517.233 176.517 516.924C176.511 516.614 176.577 516.286 176.572 515.976L176.554 515.047C176.548 514.738 176.542 514.428 176.464 514.138C176.379 513.538 176.276 512.866 176.191 512.266C175.722 509.669 175.108 507.11 174.494 504.551C173.173 499.381 171.944 494.263 170.55 489.111C167.782 478.881 164.361 468.825 161.719 458.483C161.66 458.265 161.819 457.989 162.037 457.932C162.255 457.874 162.532 458.034 162.591 458.252C164.057 463.384 165.577 468.424 167.261 473.499C168.926 478.5 170.61 483.574 172.076 488.707C173.542 493.839 174.863 499.01 176.237 504.089C176.924 506.628 177.558 509.259 178.047 511.929C178.151 512.602 178.255 513.274 178.359 513.946C178.384 514.328 178.463 514.618 178.416 515.02L178.453 516.021C178.459 516.331 178.484 516.713 178.417 517.042C178.37 517.443 178.376 517.752 178.276 518.246C178.242 518.41 178.189 518.502 178.103 518.758C178.05 518.85 177.977 518.869 177.924 518.961C177.799 519.072 177.746 519.164 177.528 519.222C177.455 519.241 177.31 519.28 177.237 519.299L177.164 519.318L177.092 519.338C176.874 519.395 176.709 519.361 176.491 519.419C176.108 519.443 175.725 519.467 175.322 519.418C173.805 519.277 172.518 518.84 171.193 518.259L170.659 518.012C170.659 518.012 170.474 517.906 170.362 517.78C170.25 517.654 170.158 517.6 170.139 517.528C170.027 517.402 169.987 517.257 169.875 517.131C169.685 516.715 169.587 516.352 169.488 515.989C169.292 515.264 169.116 514.61 169.031 514.011L168.913 513.576C168.874 513.431 168.855 513.358 168.796 513.141C168.698 512.778 168.619 512.487 168.521 512.125C168.344 511.472 168.168 510.818 168.064 510.146C167.783 508.821 167.575 507.476 167.314 506.224C167.033 504.898 166.845 503.626 166.511 502.393C166.25 501.14 165.844 499.926 165.418 498.639C164.586 496.138 163.806 493.546 163.047 491.025C162.287 488.505 161.633 485.801 160.946 483.262L158.938 475.552C157.617 470.381 156.389 465.263 155.576 459.958C155.517 459.74 155.677 459.465 155.967 459.387C156.278 459.383 156.462 459.489 156.521 459.707Z" fill="black"/>
</svg>
