<svg width="240" height="100" viewBox="0 0 240 100" fill="none" xmlns="http://www.w3.org/2000/svg">
<path d="M10.1325 93.6751L13.5289 99.5529C14.424 99.7233 19.2945 100.573 25.3164 96.9099C32.091 92.7885 33.2062 85.596 30.3262 80.834C27.7623 76.5947 23.0285 75.1848 16.5234 77.3946L12.5927 78.7531C9.67099 79.8156 7.64723 79.2197 6.55844 77.4194C5.01307 74.8642 6.42833 72.0967 9.38136 70.3002C11.1184 69.2434 13.2067 68.7674 15.3197 68.5941C17.6415 68.3732 19.9424 68.6417 21.4308 69.0072L18.024 63.3742C15.9442 63.2095 10.9371 62.9192 6.30485 65.7372C-0.238124 69.7177 -1.36762 76.3628 1.44215 81.0086C4.35728 85.8287 9.23441 85.642 13.467 84.2587L17.1661 83.041C21.3636 81.5996 23.7452 81.7395 25.1852 84.1205C26.5901 86.4434 26.0965 90.0801 22.3908 92.3345C20.3063 93.6027 17.9741 94.0682 15.8611 94.2415C13.3181 94.3586 11.0978 93.9617 10.1325 93.6751Z" fill="black"/>
<path d="M44.0025 43.6773C43.9446 43.7126 42.8363 69.2515 42.6398 74.2962L22.3041 40.6721L17.1508 43.8071L42.4387 85.6195L47.592 82.4845C47.6841 79.8864 48.9177 51.4115 48.9405 51.3182L62.3572 73.502L67.5105 70.3669L49.3875 40.4014L44.0025 43.6773Z" fill="black"/>
<path d="M53.1759 20.8582C50.9756 22.1968 50.2922 24.9958 51.6269 27.2025C52.9264 29.3512 55.7522 30.0947 57.9525 28.7561C60.1528 27.4176 60.8011 24.5606 59.5016 22.4119C58.1669 20.2051 55.3762 19.5197 53.1759 20.8582ZM63.2872 31.9453L58.1339 35.0804L76.2569 65.046L81.4102 61.9109L63.2872 31.9453Z" fill="black"/>
<path d="M109.776 3.66344L109.789 32.8895C109.789 32.8895 96.8639 11.5187 96.806 11.5539L90.842 15.1822C90.7841 15.2174 90.8499 40.9952 90.8898 44.4663L89.5447 42.5042L77.9298 23.0374L72.7764 26.1725L90.8995 56.1381L96.0528 53.003C96.0053 47.9478 96.0078 21.89 96.0657 21.8548L109.834 44.6193L114.987 41.4843C114.978 37.2792 114.942 10.3713 115 10.3361L128.768 33.1006L133.921 29.9656L115.798 0L109.776 3.66344Z" fill="black"/>
<path d="M77.1431 89.3364L77.0076 96.1285C77.6848 96.7398 81.4095 100 88.4526 100C96.3761 100 101.049 94.4305 101.049 88.8609C101.049 83.9027 97.7305 80.235 91.0261 78.7407L86.9627 77.8577C83.9152 77.2464 82.4931 75.6842 82.4931 73.5787C82.4931 70.5902 85.1342 68.96 88.5881 68.96C90.6197 68.96 92.6514 69.6393 94.5476 70.5902C96.647 71.609 98.4755 73.0353 99.559 74.1221V67.5337C97.866 66.3111 93.7349 63.4584 88.3172 63.4584C80.6646 63.4584 76.2627 68.5525 76.2627 73.9862C76.2627 79.6237 80.5291 82.0009 84.8634 83.0197L88.6558 83.9027C92.99 84.8536 94.9539 86.212 94.9539 88.9968C94.9539 91.7136 92.6514 94.5663 88.3172 94.5663C85.8792 94.5663 83.6444 93.7513 81.7481 92.8004C79.5133 91.5778 77.8203 90.0835 77.1431 89.3364Z" fill="black"/>
<path d="M131.956 64.2056C131.888 64.2056 117.734 85.4649 114.958 89.676V50.3497H108.931V99.2529H114.958C116.38 97.0794 132.159 73.3749 132.227 73.307V99.2529H138.254V64.2056H131.956Z" fill="black"/>
<path d="M173.136 64.2056V70.1826C170.563 66.2432 166.432 63.798 160.946 63.798H160.879C152.684 63.798 146.115 71.6769 146.115 81.7292C146.115 91.9174 152.684 99.6604 160.879 99.6604H160.946C166.432 99.6604 170.563 97.2152 173.136 93.2758C173.136 94.4984 173.136 96.4002 173.136 99.2529H179.163V94.1588C179.163 88.7251 179.163 86.5516 179.163 81.1179V64.2056H173.136ZM162.978 93.7513H162.91C156.273 93.7513 152.142 88.793 152.142 81.7292C152.142 74.8013 156.206 69.7072 162.91 69.7072H162.978C169.005 69.7072 173.136 75.005 173.136 81.7292C173.136 88.4534 169.005 93.7513 162.978 93.7513Z" fill="black"/>
<path d="M232.957 64.2056L217.855 89.2005C217.855 89.2005 217.855 64.2056 217.787 64.2056H210.812C210.744 64.2056 197.471 86.2799 195.71 89.2685L195.574 86.8912L195.71 64.2056H189.683V99.2529H195.71C198.283 94.9059 211.76 72.6278 211.828 72.6278V99.2529H217.855C220.022 95.653 233.905 72.6278 233.973 72.6278V99.2529H240V64.2056H232.957Z" fill="black"/>
</svg>
