<svg width="40" height="72" viewBox="0 0 40 72" fill="none" xmlns="http://www.w3.org/2000/svg">
<path d="M12.773 67.5147L12.8157 61.1441C12.8482 59.0323 12.8868 56.9111 13.0281 54.8022C13.1555 52.6977 13.3325 50.5851 13.6121 48.4848C13.7489 47.4393 13.9213 46.39 14.1234 45.3463C14.3349 44.3221 14.4779 43.2673 14.7965 42.2316L14.8009 42.2077C14.8281 42.1318 14.9022 42.0859 14.977 42.1071C15.0066 42.1127 15.0222 42.1227 15.0396 42.1472C15.162 42.2655 15.2828 42.3694 15.4113 42.4783L15.7952 42.7906C15.922 42.8851 16.0489 42.9796 16.1897 43.0697C16.3226 43.1547 16.4695 43.2354 16.6286 43.2972L16.3369 43.3371C16.4678 43.2209 16.5908 43.0997 16.7295 42.9885C16.8604 42.8723 16.9991 42.7612 17.1473 42.6694C17.2955 42.5776 17.4454 42.5003 17.5875 42.4179C17.7375 42.3406 17.8796 42.2582 18.0278 42.1665C18.0618 42.1482 18.0913 42.1538 18.1226 42.1738C18.2399 42.2489 18.3494 42.319 18.4651 42.3796C18.5746 42.4497 18.6979 42.5153 18.8153 42.5903C19.0438 42.7499 19.2444 42.9182 19.479 43.0684L19.2101 43.0562L20.3767 42.2832C20.4168 42.2556 20.4822 42.2574 20.5168 42.3062C20.6036 42.4284 20.6842 42.5599 20.7648 42.6915C20.8376 42.818 20.9199 42.964 20.9682 43.1282C21.0615 43.4278 21.1173 43.7167 21.1748 44.0201L20.8303 43.9197L21.5584 43.1059C21.6675 42.9891 21.7794 42.8341 21.8868 42.7029L22.2117 42.271C22.2422 42.2239 22.3137 42.2163 22.3606 42.2463C22.384 42.2613 22.4014 42.2858 22.4048 42.3146C22.6301 43.3651 22.7423 44.4366 22.7751 45.5106C22.7946 46.0429 22.7723 46.5885 22.7483 47.1196L22.6701 48.7223C22.5462 50.8556 22.3927 52.9833 22.2313 55.106C22.0639 57.2381 21.8591 59.3597 21.6681 61.4768L21.0831 67.8469C21.0743 67.8945 21.0498 67.9322 21.008 67.9454C20.3336 68.2336 19.6427 68.4447 18.9407 68.622C18.2387 68.7993 17.5158 68.9232 16.7907 68.9657C16.0638 68.9938 15.3222 68.9592 14.616 68.7339C14.2638 68.6285 13.9203 68.4754 13.6153 68.2802C13.2947 68.0751 13.0298 67.8523 12.773 67.5147ZM12.9603 67.4479C13.16 67.669 13.4283 67.9206 13.7177 68.1058C14.0148 68.2959 14.3348 68.434 14.6714 68.5294C15.3463 68.7347 16.0661 68.7687 16.7712 68.74C17.4747 68.697 18.1835 68.5774 18.8777 68.3951C19.5658 68.2222 20.2549 67.9967 20.9015 67.7173L20.8264 67.8159L21.4192 61.4508C21.6163 59.3243 21.8211 57.2027 21.9964 55.0756C22.1717 52.9485 22.3252 50.8209 22.4431 48.697L22.529 47.0992C22.553 46.5681 22.5771 46.037 22.5575 45.5047C22.5264 44.445 22.416 43.3881 22.1924 42.352L22.3916 42.3861L22.1057 42.843C22.0079 42.9937 21.9178 43.1493 21.7921 43.3088L21.1405 44.1581C21.0776 44.2378 20.9504 44.2631 20.8705 44.1986C20.8236 44.1686 20.8029 44.1153 20.796 44.0577C20.7759 43.7649 20.748 43.4671 20.7 43.1831C20.6768 43.0483 20.6258 42.9224 20.5669 42.7914C20.5081 42.6605 20.4414 42.5245 20.3686 42.398L20.5087 42.421L19.4774 43.3606C19.405 43.4209 19.304 43.4229 19.2319 43.3634L19.2007 43.3434C19.0524 43.1286 18.8823 42.9131 18.6956 42.7404C18.6062 42.6565 18.4967 42.5864 18.3872 42.5164C18.2777 42.4463 18.156 42.3951 18.0342 42.3439L18.1353 42.3418C17.9853 42.4192 17.8354 42.4966 17.7011 42.5839C17.559 42.6663 17.4186 42.763 17.2922 42.8554C17.1657 42.9477 17.0566 43.0646 16.9553 43.1863C16.8619 43.3131 16.7623 43.4494 16.6845 43.5862L16.6784 43.5956C16.6311 43.6853 16.5257 43.7112 16.4335 43.6655C16.4179 43.6555 16.3945 43.6406 16.385 43.6211C16.1602 43.3707 15.9109 43.1579 15.6678 42.9357C15.5532 42.8223 15.4263 42.7278 15.2855 42.6378C15.1526 42.5527 15.0118 42.4626 14.8666 42.3964L15.1097 42.312C14.8077 43.305 14.6569 44.3548 14.4471 45.3935C14.2433 46.4227 14.063 47.467 13.9184 48.5075C13.6231 50.5977 13.4662 52.6966 13.2953 54.7999C13.1244 56.9032 13.0267 59.0132 13.0081 61.1206C12.9958 62.1791 12.9896 63.2281 12.9851 64.2915L12.9844 65.8772L12.9833 66.6629L12.9603 67.4479Z" fill="#07453A"/>
<path d="M14.4959 43.5037C13.3306 43.7126 12.1169 43.6644 10.9678 43.3751C10.6765 43.3108 10.4014 43.2144 10.1101 43.134C9.9644 43.0858 9.83499 43.0376 9.68934 42.9733L9.47882 42.893L9.26846 42.7966C8.7182 42.5716 8.20028 42.2662 7.69857 41.9287C7.19687 41.5913 6.74371 41.2056 6.32293 40.8038C5.90214 40.3699 5.51379 39.936 5.17392 39.4378C4.83406 38.9557 4.54271 38.4253 4.33232 37.8629C4.23522 37.5897 4.13818 37.3004 4.07344 37.0111L3.92772 36.1433C3.91154 36.0308 3.99255 35.9183 4.10584 35.9023C4.17057 35.8862 4.21913 35.9023 4.26768 35.9344C4.57518 36.1594 4.88255 36.4005 5.19004 36.6254L4.88264 36.8183L4.7208 35.9344C4.70462 35.838 4.76935 35.7255 4.88264 35.7094C4.93119 35.6934 4.99584 35.7094 5.0282 35.7416C5.61083 36.1594 6.19352 36.5612 6.79233 36.979C7.39114 37.3808 7.9737 37.7825 8.5887 38.1361C9.20369 38.4896 9.85105 38.795 10.5308 38.9878C11.2105 39.1967 11.9065 39.3253 12.6186 39.4539C12.6671 39.4699 12.7157 39.5182 12.6995 39.5664C12.6833 39.6146 12.6347 39.6628 12.5862 39.6467C11.8741 39.5342 11.1621 39.4217 10.4661 39.2289C9.77023 39.036 9.0905 38.7468 8.44313 38.3932C8.11945 38.2164 7.81199 38.0397 7.50449 37.8468C7.19699 37.654 6.8894 37.4611 6.59809 37.2683C5.99928 36.8665 5.40047 36.4647 4.81784 36.063L5.1254 35.8701L5.28724 36.754C5.30343 36.8665 5.23869 36.9629 5.1254 36.979C5.07685 36.9951 5.01205 36.979 4.97968 36.9469C4.67219 36.7219 4.34854 36.4969 4.04104 36.2719L4.36472 36.079L4.51044 36.9147C4.55899 37.1879 4.6561 37.4611 4.7532 37.7183C4.94741 38.2325 5.22244 38.7307 5.54612 39.1967C5.86981 39.6628 6.25819 40.0806 6.64661 40.4824C7.05121 40.8681 7.48827 41.2377 7.95761 41.5591C8.42695 41.8645 8.92869 42.1537 9.44658 42.3787L9.64066 42.4591L9.8349 42.5394C9.96437 42.5877 10.0938 42.6358 10.2395 42.6841C10.5146 42.7644 10.7737 42.8608 11.065 42.9091C12.1655 43.1823 13.3146 43.2465 14.4636 43.2947C14.5122 43.2947 14.5607 43.343 14.5607 43.4072C14.5769 43.4554 14.5444 43.4876 14.4959 43.5037Z" fill="#07453A"/>
<path d="M22.5063 43.4077C23.0404 43.4399 23.5907 43.472 24.1248 43.472C24.3999 43.472 24.6589 43.472 24.9178 43.472C25.1768 43.472 25.452 43.456 25.7109 43.4399C26.7791 43.3756 27.8309 43.1667 28.8181 42.781C29.8054 42.4114 30.7279 41.8489 31.4724 41.1097C31.8446 40.74 32.1682 40.3383 32.4595 39.8883C32.6052 39.6633 32.7347 39.4383 32.848 39.1973C32.9613 38.9723 33.0584 38.7151 33.1717 38.4741L33.3983 38.7794L32.5405 38.8919C32.4272 38.908 32.3139 38.8276 32.2977 38.7151C32.2977 38.683 32.2978 38.6348 32.314 38.6027L32.3949 38.4259C32.4273 38.3616 32.4596 38.3134 32.4758 38.2491L32.6538 37.8955L32.8641 38.2009L32.5082 38.233C32.3949 38.2491 32.2654 38.2491 32.1521 38.2652L31.4239 38.3777C30.9545 38.458 30.469 38.5384 29.9997 38.6669C29.061 38.8919 28.1546 39.2133 27.2806 39.6151C26.8437 39.8079 26.423 40.0329 26.0022 40.2901C25.5976 40.5472 25.193 40.8204 24.8208 41.1097C24.0601 41.7043 23.3157 42.331 22.555 42.9417C22.5065 42.9738 22.4417 42.9738 22.4093 42.9256C22.3769 42.8774 22.3769 42.8131 22.4254 42.781C23.1699 42.1542 23.8983 41.5114 24.659 40.9007C25.0474 40.5954 25.4357 40.3061 25.8565 40.0329C26.2773 39.7597 26.698 39.5187 27.1512 39.3097C28.0413 38.8758 28.9639 38.5384 29.9188 38.2973C30.3881 38.1687 30.8735 38.0723 31.3591 37.992L32.0873 37.8795C32.2006 37.8634 32.3301 37.8473 32.4595 37.8313L32.8319 37.7991C32.9452 37.7831 33.0422 37.8795 33.0584 37.992C33.0584 38.0241 33.0584 38.0723 33.0423 38.1044L32.8804 38.4419C32.8481 38.5062 32.8157 38.5544 32.7995 38.6187L32.7347 38.7955L32.5082 38.5062L33.3659 38.3777C33.4792 38.3616 33.5925 38.4419 33.6087 38.5705C33.6087 38.6026 33.6086 38.6509 33.5924 38.683C33.4791 38.9401 33.382 39.1812 33.2687 39.4383C33.1393 39.6794 33.0098 39.9204 32.8641 40.1615C32.5728 40.6275 32.2168 41.0775 31.8122 41.4632C31.0192 42.2346 30.0481 42.8453 29.0124 43.231C27.9766 43.6327 26.8761 43.8577 25.7756 43.922C24.675 44.0024 23.5584 43.9059 22.4902 43.6006C22.4417 43.5845 22.4092 43.5363 22.4254 43.472C22.4092 43.4399 22.4578 43.4077 22.5063 43.4077Z" fill="#07453A"/>
<path d="M12.6887 38.6C12.4879 38.3171 12.327 38.0246 12.1784 37.7083C12.0497 37.3872 11.9409 37.0613 11.8582 36.7187C11.7065 36.0405 11.6882 35.3405 11.7844 34.654C11.9433 33.2789 12.4614 31.9825 13.1184 30.7872C13.4469 30.1895 13.8305 29.62 14.2352 29.0764C14.64 28.5327 15.0921 27.9983 15.6082 27.5417C15.8662 27.3133 16.138 27.0921 16.4174 26.8896C16.6967 26.6872 17.0111 26.5178 17.2781 26.3391C17.8321 25.9769 18.3708 25.5768 18.9096 25.1768C19.0002 25.1031 19.1424 25.1308 19.2201 25.2156C19.2277 25.2345 19.249 25.2604 19.2566 25.2793L19.8113 26.8543L19.4658 26.7827L20.5357 25.6634C20.6125 25.5826 20.7334 25.5844 20.8172 25.6573C20.8309 25.6643 20.8523 25.6903 20.8599 25.7092C21.0662 26.115 21.3 26.5349 21.5586 26.9074L22.3753 28.046C22.9137 28.8169 23.4597 29.6067 23.8292 30.5014C23.92 30.7281 23.9972 30.9477 24.0619 31.191C24.1267 31.4344 24.1501 31.6566 24.2011 31.8929C24.2894 32.3584 24.364 32.817 24.4323 33.2874C24.5691 34.2281 24.6125 35.1813 24.4876 36.1233C24.4767 36.1778 24.4244 36.2111 24.3709 36.2137C24.3235 36.2045 24.2809 36.1527 24.2857 36.1101C24.3982 35.1917 24.3151 34.2483 24.166 33.3313C24.0914 32.8727 24.0031 32.4071 23.9086 31.9534C23.8514 31.729 23.8204 31.4879 23.7571 31.2753C23.6999 31.0509 23.6166 30.8431 23.5333 30.6353C23.1666 29.8021 22.6343 29.0193 22.0836 28.2721L21.247 27.1384C20.9672 26.74 20.747 26.3271 20.5132 25.9072L20.8374 25.9529L19.7751 27.0911C19.6983 27.1718 19.5713 27.1819 19.4874 27.109C19.4661 27.0831 19.4448 27.0572 19.4372 27.0383L18.8563 25.4799L19.1895 25.5753C18.6583 25.9942 18.1195 26.3941 17.5394 26.773C17.2463 26.9684 16.958 27.1212 16.6985 27.3188C16.4254 27.5093 16.1797 27.7139 15.9415 27.9374C15.4653 28.3844 15.0317 28.8833 14.6331 29.4151C14.2345 29.9468 13.8771 30.4997 13.5548 31.0855C12.9225 32.2334 12.4428 33.4894 12.2934 34.7793C12.2218 35.4183 12.2252 36.0806 12.3143 36.7118C12.3557 37.0333 12.437 37.3451 12.532 37.664C12.6332 37.971 12.7543 38.2732 12.8891 38.5824C12.9119 38.6391 12.8873 38.6865 12.8351 38.7199C12.765 38.654 12.7038 38.6377 12.6887 38.6Z" fill="#07453A"/>
<path d="M25.4112 35.8643C25.6287 35.48 25.8462 35.0957 26.1248 34.7276C26.2572 34.5401 26.417 34.3666 26.5845 34.212C26.7383 34.0503 26.9195 33.9028 27.0808 33.76C27.4096 33.4627 27.746 33.1843 28.0885 32.894C28.4311 32.6037 28.7813 32.3324 29.1451 32.068C29.8591 31.5322 30.6157 31.0483 31.3875 30.6021C31.5838 30.4924 31.7801 30.3825 31.9703 30.2846C32.1667 30.1748 32.3569 30.0769 32.5822 30.012L33.8423 29.5303C33.9542 29.4825 34.0779 29.5458 34.1233 29.6591C34.1309 29.678 34.1323 29.7087 34.1337 29.7395L34.1327 31.0455L33.8612 30.8315L35.6949 30.4181C35.8082 30.401 35.9182 30.4572 35.9438 30.5754C35.9376 30.5873 35.9513 30.5943 35.9451 30.6061C36.0179 31.4694 36.0771 32.3256 36.1362 33.1818L36.1655 33.8275L36.1733 34.1469L36.1741 34.3125C36.1831 34.3621 36.166 34.4284 36.1688 34.4899C36.1387 34.7149 36.1149 34.9279 36.091 35.1409C36.0671 35.354 36.0233 35.5719 35.9857 35.7779C35.9043 36.2018 35.8168 36.6376 35.688 37.0522C35.5393 37.4717 35.3569 37.889 35.0707 38.2382C34.7846 38.5873 34.4282 38.8705 34.0492 39.0971C33.6702 39.3237 33.2761 39.5126 32.882 39.7014C32.8359 39.7229 32.7747 39.7066 32.752 39.6499C32.7231 39.6051 32.7541 39.5458 32.8001 39.5243C33.1805 39.3285 33.5608 39.1326 33.9261 38.899C34.2851 38.6772 34.6154 38.4107 34.8556 38.083C35.1095 37.7624 35.2795 37.3688 35.3959 36.9779C35.5186 36.5751 35.5938 36.163 35.6553 35.744C35.6929 35.538 35.7168 35.325 35.7407 35.1119L35.8123 34.4728C35.8177 34.2953 35.8003 34.0611 35.7843 33.8578L35.735 33.2168C35.6759 32.3606 35.5969 31.5093 35.5042 30.6509L35.7606 30.8271L33.9282 31.2712C33.8087 31.3002 33.6912 31.2251 33.6657 31.1069C33.6581 31.088 33.6642 31.0761 33.6567 31.0572L33.6577 29.7513L33.969 29.9556L32.7488 30.4276C32.5373 30.4996 32.347 30.5975 32.1506 30.7072C31.9604 30.8052 31.7641 30.915 31.5677 31.0247C30.8022 31.459 30.0792 31.9452 29.3852 32.4761C29.0412 32.7356 28.6911 33.007 28.3547 33.2855C28.0184 33.5639 27.6896 33.8613 27.3608 34.1586C27.0183 34.4489 26.688 34.7154 26.4066 35.022C26.1191 35.3404 25.8391 35.6777 25.5453 36.008C25.5069 36.0484 25.4396 36.044 25.4046 36.0111C25.3956 35.9614 25.3866 35.9118 25.4112 35.8643Z" fill="#07453A"/>
<path d="M4.55863 38.3285C3.42575 37.7661 2.43853 36.8661 1.72643 35.7894C1.03052 34.7127 0.561158 33.4913 0.318398 32.2539C0.0756391 31.0004 0.0109665 29.7308 0.140438 28.4612C0.205174 27.8345 0.318335 27.1917 0.496359 26.581C0.674382 25.9703 0.93342 25.3918 1.16 24.8132C1.20855 24.7007 1.33799 24.6525 1.45128 24.7007C1.48364 24.7168 1.51601 24.7329 1.5322 24.765L2.82691 26.2917L2.45471 26.356L2.77839 25.4239L2.94023 24.9579L3.08579 24.4757C3.11816 24.3633 3.23154 24.315 3.34483 24.3472C3.3772 24.3632 3.40957 24.3793 3.42575 24.3954L4.55863 25.5525C4.93086 25.9382 5.28687 26.3399 5.6591 26.7256L7.82782 29.104C8.53991 29.9076 9.28437 30.6629 10.0127 31.4664C10.7409 32.2539 11.4367 33.0896 11.987 34.0216C12.0193 34.0699 12.0033 34.1341 11.9547 34.1663C11.9062 34.1984 11.8414 34.1823 11.809 34.1341C11.2426 33.2342 10.5466 32.4306 9.80213 31.6593C9.07386 30.8879 8.29706 30.1326 7.56878 29.3451L5.36783 26.9988C4.99559 26.6131 4.63958 26.2114 4.26735 25.8257L3.13447 24.6847L3.47427 24.6043L3.32855 25.0703L3.16671 25.5364L2.84303 26.4846C2.81066 26.5971 2.68132 26.6613 2.56803 26.6131C2.53566 26.597 2.5032 26.581 2.47083 26.5488L1.17612 25.0382L1.54832 24.9739C1.30556 25.5525 1.07898 26.131 0.900958 26.7096C0.722934 27.2881 0.625894 27.8827 0.561158 28.4934C0.44787 29.7147 0.512638 30.9522 0.755397 32.1414C0.998156 33.3306 1.43503 34.4877 2.11475 35.5162C2.43843 36.0304 2.82685 36.4965 3.24763 36.9304C3.66841 37.3643 4.13784 37.7661 4.63955 38.1357C4.6881 38.1678 4.68804 38.2321 4.65567 38.2803C4.65567 38.3446 4.59099 38.3607 4.55863 38.3285Z" fill="#07453A"/>
<path d="M22.1706 28.0105C22.74 26.95 23.482 25.9928 24.3139 25.0967C24.5185 24.8709 24.7368 24.6522 24.9626 24.4523C25.1809 24.2336 25.4206 24.0407 25.654 23.8598L27.0869 22.7454C27.1837 22.6597 27.326 22.6875 27.3976 22.7842C27.4189 22.8101 27.434 22.8478 27.4491 22.8856L27.6903 24.496L27.2958 24.3843L28.4421 23.0182C28.519 22.9373 28.6522 22.9154 28.7361 22.9883C28.7498 22.9954 28.7712 23.0213 28.7788 23.0402C29.1833 23.6677 29.5739 24.2881 29.9524 24.9323C30.1484 25.258 30.337 25.5647 30.4947 25.9307C30.5235 25.9756 30.5401 26.0441 30.5552 26.0819L30.5882 26.219C30.6124 26.3064 30.6303 26.4057 30.6545 26.4931C30.6965 26.6799 30.7386 26.8666 30.7669 27.0463C30.8877 27.784 30.9288 28.5411 30.869 29.2915C30.8092 30.0419 30.6683 30.7809 30.4861 31.4988C30.4752 31.5533 30.423 31.5867 30.3618 31.5704C30.3144 31.5612 30.278 31.4975 30.2827 31.4548C30.4312 30.7348 30.566 30.0076 30.5935 29.2857C30.6273 28.552 30.5676 27.8305 30.4344 27.1165C30.4061 26.9368 30.3578 26.762 30.3158 26.5752C30.2917 26.4878 30.2675 26.4003 30.2434 26.3129L30.2104 26.1758C30.1952 26.138 30.1876 26.1191 30.1725 26.0814C30.0238 25.765 29.8215 25.4512 29.633 25.1445C29.2423 24.524 28.8378 23.8965 28.4271 23.2808L28.7638 23.3029L27.6313 24.6761C27.5483 24.7688 27.415 24.7907 27.3174 24.7107C27.2685 24.6708 27.2396 24.6259 27.2306 24.5763L26.9758 22.9589L27.338 23.0991L25.9312 24.1968C25.6977 24.3778 25.4719 24.5777 25.2659 24.7727C25.0538 24.9796 24.8416 25.1865 24.6433 25.4004C23.8436 26.2679 23.1628 27.2414 22.3095 28.1116C22.2711 28.152 22.2036 28.1476 22.1686 28.1146C22.161 28.0957 22.1521 28.0461 22.1706 28.0105Z" fill="#07453A"/>
<path d="M5.48107 26.8875C5.36778 26.1482 5.46485 25.3608 5.69143 24.6376C5.93419 23.9144 6.29021 23.2395 6.71099 22.6127C7.13178 21.986 7.63355 21.4235 8.15144 20.8771C8.41038 20.6039 8.68551 20.3467 8.96064 20.1057C9.23577 19.8646 9.52696 19.6236 9.80208 19.3825C9.89919 19.3021 10.0287 19.3182 10.1096 19.4147C10.1096 19.4147 10.1258 19.4307 10.1258 19.4468C10.1905 19.5432 10.2553 19.6396 10.3039 19.7521C10.3524 19.8646 10.401 19.961 10.4333 20.0735C10.4657 20.186 10.498 20.2825 10.5304 20.395L10.6113 20.7164L10.2554 20.5878C10.3363 20.5235 10.4334 20.4592 10.4981 20.3789C10.579 20.3146 10.6438 20.2342 10.7085 20.1539C10.838 19.9932 10.9673 19.8164 11.0968 19.6236C11.1615 19.5271 11.2911 19.5111 11.3882 19.5754C11.4044 19.5914 11.4205 19.5914 11.4205 19.6075C11.55 19.7521 11.6796 19.8968 11.7929 20.0575L12.1488 20.5074C12.3754 20.8128 12.6182 21.1021 12.8448 21.4074C13.298 22.0181 13.7187 22.6609 14.1071 23.3359C14.4794 23.9948 14.8193 24.7019 15.1106 25.409C15.4019 26.1161 15.6122 26.8554 15.7902 27.5946C15.8064 27.6428 15.774 27.7071 15.7093 27.7071C15.6607 27.7232 15.5961 27.691 15.5961 27.6428C15.4019 26.9196 15.1591 26.1965 14.8678 25.5054C14.5765 24.8144 14.2204 24.1394 13.832 23.4966C13.4436 22.8538 13.0228 22.227 12.5697 21.6324C12.3431 21.327 12.1003 21.0378 11.8575 20.7485L11.5014 20.2985C11.3881 20.1539 11.2587 20.0253 11.1292 19.8807L11.4529 19.8646C11.3234 20.0575 11.1939 20.2342 11.0483 20.4271C10.9674 20.5235 10.8864 20.6039 10.8055 20.7003C10.7246 20.7807 10.6275 20.861 10.5304 20.9253C10.4333 21.0056 10.3039 20.9896 10.223 20.9092C10.2068 20.8771 10.1906 20.8449 10.1744 20.8128C10.1259 20.6039 10.0773 20.411 10.0126 20.2182C9.98024 20.1218 9.94784 20.0253 9.89928 19.945C9.86692 19.8646 9.80218 19.7843 9.73744 19.7039L10.0611 19.7521C9.49468 20.2342 8.92824 20.7003 8.44272 21.2306C7.94101 21.761 7.47168 22.3074 7.06707 22.918C6.66247 23.5127 6.33879 24.1555 6.09603 24.8304C5.86945 25.5054 5.72373 26.1964 5.62663 26.9196C5.62663 26.9678 5.56186 27.0161 5.51331 27C5.51331 26.9678 5.48107 26.9357 5.48107 26.8875Z" fill="#07453A"/>
<path d="M13.9828 23.6387C13.8945 23.1731 13.9334 22.6974 14.0333 22.238C14.1332 21.7785 14.2942 21.3353 14.4828 20.9062C14.8736 20.0549 15.3819 19.2788 15.9116 18.5287C16.455 17.7855 17.0336 17.0754 17.667 16.3933C18.2806 15.7161 18.9216 15.0529 19.6114 14.4297C19.7082 14.3441 19.8429 14.353 19.9206 14.4378C19.9419 14.4637 19.9494 14.4825 19.957 14.5014L20.5572 15.8897L20.1854 15.8346L21.4742 14.3616C21.5511 14.2808 21.6782 14.2708 21.7621 14.3437C21.7758 14.3507 21.7834 14.3696 21.7971 14.3766C22.3067 15.1029 22.8224 15.8172 23.3258 16.5553C23.5707 16.9208 23.8293 17.2934 24.068 17.6708C24.1257 17.7604 24.191 17.8689 24.2488 17.9585L24.3293 18.1049L24.4035 18.263C24.5067 18.4659 24.5963 18.6619 24.6857 18.8578C25.0449 19.6723 25.378 20.5035 25.5594 21.3922C25.7469 22.269 25.7814 23.1726 25.7883 24.0622C25.7911 24.1237 25.7388 24.157 25.6852 24.1596C25.6317 24.1622 25.5891 24.1104 25.5802 24.0608C25.5671 23.1831 25.5004 22.308 25.3005 21.4549C25.1006 20.6018 24.7552 19.7944 24.3836 19.0036L24.0816 18.4136L24.0011 18.2673L23.9282 18.1399C23.8704 18.0503 23.8127 17.9607 23.7549 17.871C23.5101 17.5055 23.2652 17.14 23.0142 16.7863C22.5046 16.0601 21.9889 15.3457 21.467 14.6432L21.7898 14.6582L20.5285 16.1453C20.4454 16.238 20.3183 16.248 20.2207 16.1681C20.1994 16.1422 20.1782 16.1163 20.1568 16.0903L19.5567 14.7021L19.9161 14.7808C19.2523 15.3873 18.6174 16.0386 18.0176 16.7228C17.4102 17.3882 16.8317 18.0984 16.3144 18.8248C15.7909 19.5631 15.3086 20.3225 14.9425 21.1263C14.5763 21.9301 14.2652 22.762 14.2185 23.6542C14.2076 23.7087 14.1691 23.7491 14.1156 23.7517C14.0469 23.7165 13.998 23.6765 13.9828 23.6387Z" fill="#07453A"/>
<path d="M34.9594 30.7043C35.102 30.2968 35.2658 29.9151 35.4022 29.5194C35.5385 29.1237 35.6687 28.7399 35.7515 28.3468C35.9294 27.537 35.9988 26.7016 36.0819 25.8733C36.1527 25.0687 36.0078 24.2438 35.8429 23.4237C35.6781 22.6037 35.4598 21.7863 35.2291 20.9926L35.6145 21.0546L34.748 22.2179C34.6849 22.3057 34.5516 22.3277 34.4616 22.2666C34.4128 22.2266 34.3901 22.1699 34.3811 22.1203L34.3028 20.3986L34.5914 20.5462L33.189 21.4353L32.8299 21.657C32.7194 21.7356 32.6014 21.7954 32.4909 21.874C32.2698 22.0311 32.0625 22.1953 31.8628 22.3784C31.4496 22.7376 31.0716 23.1298 30.7072 23.529C30.3504 23.947 29.9936 24.365 29.7055 24.8182C29.6808 24.8657 29.6073 24.8731 29.5661 24.852C29.5248 24.8309 29.5084 24.7624 29.533 24.715C29.8197 24.231 30.1552 23.787 30.512 23.369C30.8749 22.9391 31.2455 22.5281 31.6648 22.157C31.8707 21.9621 32.0842 21.786 32.3114 21.617C32.4281 21.5265 32.5386 21.4479 32.6629 21.3764L33.0081 21.1476L34.3968 20.2515C34.4812 20.1896 34.6035 20.2221 34.6612 20.3117C34.6826 20.3376 34.684 20.3684 34.6854 20.3991L34.7973 22.1231L34.4168 22.0184L35.2619 20.8292C35.3312 20.7295 35.4644 20.7076 35.5681 20.7757C35.6032 20.8086 35.6384 20.8416 35.6473 20.8913C35.8994 21.7109 36.1177 22.5283 36.2962 23.3553C36.3755 23.7713 36.4686 24.1943 36.5081 24.6199C36.5613 25.0525 36.5884 25.5018 36.5407 25.9278C36.4651 26.775 36.4034 27.6293 36.2069 28.4747C36.1056 28.9034 35.9768 29.318 35.7869 29.7163C35.597 30.1146 35.372 30.48 35.1257 30.8194C35.0873 30.8598 35.0276 30.8743 34.9926 30.8414C34.9637 30.7966 34.9547 30.7469 34.9594 30.7043Z" fill="#07453A"/>
<path d="M8.45899 20.5869C8.16768 20.0726 7.92489 19.5262 7.69832 18.9798C7.47174 18.4334 7.24523 17.887 7.03485 17.3406C6.80827 16.7942 6.58167 16.2478 6.35509 15.7175C6.11234 15.1872 5.86964 14.6408 5.6107 14.1265L6.03142 14.1265C5.91813 14.3515 5.80491 14.5604 5.69162 14.7693C5.62689 14.8818 5.57824 14.9783 5.51351 15.0907C5.48114 15.139 5.44883 15.2032 5.41647 15.2515L5.38407 15.2997L5.36795 15.3157L5.35167 15.3318C5.33548 15.3479 5.33561 15.3639 5.31943 15.3639L5.30315 15.38C5.28696 15.3961 5.25469 15.4122 5.23851 15.4122C5.20614 15.4282 5.18996 15.4282 5.15759 15.4282C5.12522 15.4282 5.09276 15.4282 5.06039 15.4122C5.02802 15.3961 4.99566 15.38 4.97947 15.3639C4.96329 15.3479 4.96326 15.3479 4.94707 15.3318C4.93089 15.3157 4.91483 15.2836 4.91483 15.2836C4.89865 15.2354 4.88243 15.2193 4.88243 15.1872C4.86625 15.1068 4.86622 15.0425 4.85003 14.9783C4.85003 14.9461 4.8501 14.914 4.83391 14.8979L4.81764 14.8176C4.78527 14.689 4.76918 14.5765 4.75299 14.4479C4.70444 14.2069 4.67204 13.9658 4.63968 13.7248L5.01187 13.8533C4.62346 14.2229 4.25123 14.6086 3.87901 14.9943C3.6848 15.1872 3.50672 15.38 3.3287 15.5729C3.24778 15.6693 3.15067 15.7657 3.08594 15.8621C3.05357 15.9104 3.02127 15.9586 2.9889 16.0228L2.89186 16.1836C2.82712 16.296 2.74608 16.4085 2.68134 16.521L2.50339 16.8746L2.40635 17.0513C2.37398 17.1156 2.35779 17.1799 2.32543 17.2281L2.17971 17.5977C2.13116 17.7263 2.09882 17.8388 2.05027 17.9674C2.0179 18.0959 1.96932 18.2084 1.93695 18.337C1.87222 18.5941 1.80755 18.8512 1.75899 19.1084C1.66189 19.6226 1.61334 20.153 1.59716 20.6833C1.58097 21.2136 1.58085 21.7439 1.6294 22.2743C1.69413 23.3349 1.87225 24.3956 2.05027 25.4562C2.06645 25.5044 2.0179 25.5687 1.96935 25.5687C1.9208 25.5848 1.87222 25.5366 1.85603 25.4884C1.64564 24.4277 1.45141 23.3831 1.33812 22.2903C1.27339 21.76 1.2572 21.2136 1.2572 20.6672C1.27339 20.1208 1.30582 19.5744 1.40292 19.0441C1.43529 18.7709 1.51621 18.5138 1.56476 18.2406C1.59712 18.112 1.64571 17.9834 1.67808 17.8388C1.72663 17.7102 1.75896 17.5817 1.80751 17.4531L1.95307 17.0674C1.98544 17.0031 2.00162 16.9389 2.03399 16.8746L2.13119 16.6817L2.30915 16.3121C2.37388 16.1835 2.45477 16.0711 2.51951 15.9586L2.63282 15.7818C2.66519 15.7175 2.69759 15.6693 2.74614 15.605C2.82706 15.4925 2.9241 15.38 3.00502 15.2836C3.18304 15.0747 3.37731 14.8818 3.55533 14.6729C3.92756 14.2872 4.31591 13.9015 4.70432 13.5158C4.78524 13.4355 4.93089 13.4355 5.02799 13.5158C5.06036 13.548 5.07661 13.5962 5.09279 13.6444C5.12516 13.8855 5.17374 14.1105 5.20611 14.3515C5.22229 14.464 5.25457 14.5926 5.27075 14.689C5.27075 14.7211 5.28703 14.7372 5.28703 14.7854C5.28703 14.8336 5.30315 14.8497 5.30315 14.8818C5.30315 14.9461 5.31943 15.0104 5.31943 15.0425C5.31943 15.0425 5.31943 15.0586 5.31943 15.0265C5.31943 15.0265 5.30315 15.0104 5.30315 14.9943L5.28703 14.9783C5.27084 14.9783 5.2546 14.9461 5.22223 14.9461C5.18986 14.93 5.15749 14.93 5.14131 14.93C5.12513 14.93 5.09285 14.93 5.07667 14.9461C5.06049 14.9461 5.04418 14.9622 5.02799 14.9783L5.01187 14.9943L4.99575 15.0104L5.01187 14.9943L5.02799 14.9622C5.06036 14.914 5.09273 14.8658 5.10891 14.8176C5.17365 14.7211 5.22229 14.6086 5.28703 14.5122C5.40031 14.3033 5.5136 14.0944 5.6107 13.8694C5.67544 13.7569 5.80481 13.7087 5.9181 13.773C5.96665 13.789 5.99911 13.8373 6.0153 13.8694C6.29042 14.3997 6.53321 14.9461 6.77597 15.4764C7.01872 16.0228 7.24527 16.5692 7.47184 17.1156C7.69841 17.662 7.92499 18.2084 8.11919 18.7709C8.3134 19.3334 8.50757 19.8958 8.65322 20.4583C8.66941 20.5065 8.63704 20.5708 8.57231 20.5869C8.52375 20.6511 8.47517 20.6351 8.45899 20.5869Z" fill="#07453A"/>
<path d="M6.33816 15.1587C6.32195 14.8431 6.30071 14.5373 6.34033 14.2012C6.37994 13.8651 6.48398 13.5496 6.60672 13.256C6.72945 12.9624 6.87591 12.6809 7.0224 12.3995L7.25154 11.9883C7.29195 11.9106 7.32221 11.8524 7.37449 11.7808C7.42678 11.7093 7.47221 11.6219 7.53132 11.5661C7.74223 11.3053 7.97868 11.0822 8.22193 10.8748C8.46518 10.6675 8.7084 10.4601 8.95848 10.2685C9.46367 9.87566 9.97062 9.50827 10.4895 9.14697C10.5875 9.07422 10.7384 9.10227 10.8031 9.2091C10.8286 9.24673 10.849 9.29403 10.8406 9.33893L10.8452 10.8037L10.4619 10.6445L11.7807 9.35292C11.8669 9.2741 12.0041 9.27054 12.0788 9.35796L12.0907 9.36402C12.6549 9.9845 13.187 10.6377 13.6972 11.3043C14.2073 11.9709 14.6903 12.6604 15.1295 13.3767C15.3491 13.7348 15.5518 14.0966 15.7443 14.4778C15.9369 14.859 16.1126 15.2438 16.2543 15.6359C16.3961 16.0279 16.5278 16.4394 16.5918 16.8654C16.6608 17.2817 16.6739 17.7185 16.5888 18.142C16.5755 18.1966 16.5265 18.233 16.4739 18.2184C16.4214 18.2038 16.384 18.1601 16.3974 18.1055C16.4555 17.7051 16.4271 17.2973 16.348 16.9004C16.2689 16.5035 16.144 16.1078 15.9921 15.7352C15.6815 14.9741 15.2762 14.2505 14.8388 13.5598C14.4014 12.869 13.9082 12.1988 13.393 11.542C12.8728 10.8948 12.3475 10.2573 11.785 9.66235L12.1 9.66375L10.7882 10.9712C10.697 11.0597 10.5597 11.0632 10.4731 10.9697C10.4357 10.926 10.4033 10.8726 10.4048 10.8119L10.3834 9.35077L10.7396 9.53303C10.2258 9.88463 9.73077 10.2581 9.2425 10.6473C9.0043 10.845 8.75421 11.0366 8.52788 11.2403C8.30156 11.444 8.08206 11.6635 7.89641 11.8758C7.84917 11.9377 7.81202 11.9801 7.78171 12.0383C7.76656 12.0674 7.75141 12.0966 7.7312 12.1354L7.67564 12.2421L7.45844 12.6595C7.31701 12.9312 7.17059 13.2127 7.04608 13.4808C6.97537 13.6167 6.91655 13.7586 6.86276 13.8909C6.80392 14.0328 6.762 14.1711 6.72008 14.3095C6.64812 14.5922 6.60666 14.9028 6.53648 15.211C6.5231 15.2656 6.47409 15.3019 6.42154 15.2873C6.37228 15.2376 6.34676 15.1999 6.33816 15.1587Z" fill="#07453A"/>
<path d="M24.2652 18.6798C24.6858 17.3031 25.3449 16.0034 26.0528 14.7437C26.4136 14.1173 26.8081 13.4932 27.2788 12.9231C27.3928 12.7711 27.528 12.6451 27.6495 12.512C27.771 12.3789 27.9062 12.2528 28.0414 12.1268C28.2981 11.8677 28.5625 11.6275 28.8329 11.3754C28.9297 11.2897 29.0643 11.2985 29.1557 11.3904C29.1694 11.3974 29.177 11.4163 29.177 11.4163L30.0251 12.7963L29.6131 12.8858L29.8396 11.0795C29.8478 10.9635 29.9583 10.8849 30.0792 10.8867C30.1465 10.8911 30.1954 10.9311 30.2243 10.9759L31.8403 13.1543L32.6422 14.2553C32.7715 14.4416 32.9007 14.6278 33.03 14.8141C33.0589 14.8589 33.0878 14.9038 33.1242 14.9675C33.1455 14.9934 33.1607 15.0312 33.1683 15.0501L33.1986 15.1257L33.3273 15.4468C33.6543 16.2899 33.9228 17.1782 34.0184 18.098C34.1201 19.0061 34.0349 19.9387 33.8674 20.8291C33.8564 20.8835 33.8043 20.917 33.7569 20.9077C33.7095 20.8985 33.6669 20.8467 33.6778 20.7922C33.8118 19.8996 33.8722 19.0144 33.7581 18.1301C33.6441 17.2458 33.3706 16.4001 33.0176 15.5737L32.8827 15.2644L32.8525 15.1889C32.8449 15.17 32.8373 15.151 32.8159 15.1251C32.8008 15.0873 32.7581 15.0355 32.7292 14.9907C32.5999 14.8044 32.4645 14.63 32.3353 14.4437L31.5272 13.3545L29.879 11.2047L30.2635 11.1011L30.0506 12.9145C30.0363 13.0423 29.9258 13.1209 29.8111 13.1073C29.7438 13.1029 29.6812 13.0558 29.6523 13.011L28.7844 11.6359L29.1285 11.6768C28.8642 11.917 28.6137 12.1643 28.3494 12.4045C28.2142 12.5306 28.0989 12.6518 27.9774 12.7849C27.8559 12.918 27.7407 13.0392 27.6329 13.1793C27.1944 13.7208 26.8123 14.3213 26.4576 14.9358C26.103 15.5503 25.7895 16.1858 25.4561 16.8262C25.129 17.4548 24.8094 18.1022 24.4348 18.7215C24.4101 18.769 24.3505 18.7835 24.2955 18.7554C24.2694 18.7721 24.2466 18.7154 24.2652 18.6798Z" fill="#07453A"/>
<path d="M15.2073 13.636C15.3605 12.8733 15.6073 12.0985 16.0052 11.4009C16.403 10.7033 16.8909 10.0669 17.4139 9.46334C17.9308 8.87168 18.4888 8.30111 19.0544 7.74945C19.62 7.19778 20.1932 6.665 20.8076 6.15332C20.9044 6.06768 21.0391 6.07652 21.1244 6.18022C21.132 6.19911 21.1457 6.20613 21.1533 6.22502L21.9936 8.02161L21.6109 8.02107L22.5335 6.3154C22.5829 6.22052 22.7086 6.17967 22.8048 6.2289C22.8323 6.24296 22.8536 6.26889 22.8673 6.27592C23.2889 6.83703 23.7105 7.39815 24.1122 7.96408C24.5138 8.53002 24.9292 9.10299 25.3048 9.68561C25.6941 10.2753 26.0635 10.8698 26.4068 11.4809C26.5754 11.7925 26.7439 12.1039 26.8925 12.4203C27.035 12.7485 27.1775 13.0767 27.2142 13.4409C27.2232 13.4906 27.1785 13.5428 27.125 13.5455C27.0714 13.5481 27.0163 13.5199 27.0135 13.4584C26.9583 13.1298 26.8234 12.8205 26.6686 12.516C26.5138 12.2115 26.3453 11.9 26.1706 11.6004C25.8211 11.0011 25.4255 10.4232 25.0239 9.85728C24.2267 8.71355 23.3973 7.59838 22.5357 6.51175L22.8633 6.48413L21.982 8.21096C21.9265 8.3177 21.8007 8.3585 21.6908 8.30224C21.6495 8.28114 21.6145 8.2482 21.5994 8.21042L20.7392 6.41869L21.0848 6.49038C20.5041 7.00426 19.9308 7.537 19.3713 8.0768C18.8256 8.62364 18.2738 9.18236 17.7769 9.76919C17.2663 10.349 16.8044 10.9688 16.425 11.6307C16.0457 12.2927 15.7488 12.9969 15.3983 13.7037C15.3736 13.7511 15.3077 13.7775 15.2665 13.7564C15.2177 13.7164 15.1887 13.6715 15.2073 13.636Z" fill="#07453A"/>
<path d="M9.4505 9.9169C9.5086 9.57124 9.6141 9.23482 9.79448 8.9217C9.87471 8.76755 9.98852 8.61556 10.0962 8.47547C10.204 8.33538 10.3254 8.20231 10.4407 8.08111C10.6912 7.83389 10.9294 7.6104 11.1462 7.36097C11.3768 7.11857 11.5737 6.87397 11.7967 6.61268C12.229 6.08307 12.6826 5.5794 13.15 5.08274C13.6173 4.58608 14.0922 4.10832 14.6008 3.63275C14.6975 3.54713 14.8321 3.55593 14.9098 3.64072C14.9311 3.66663 14.9387 3.68555 14.9463 3.70444L15.5732 5.24137L15.1969 5.22904L15.9257 3.69497C15.9751 3.6001 16.0808 3.56413 16.177 3.61335C16.2045 3.62741 16.232 3.64147 16.2396 3.66035C16.7601 4.33205 17.2407 5.0134 17.729 5.71364C17.9662 6.06024 18.1972 6.41868 18.4084 6.78196C18.6195 7.14525 18.8245 7.52041 18.9712 7.94078C18.9939 7.99744 18.963 8.05673 18.9033 8.07121C18.8573 8.09272 18.8023 8.06457 18.7796 8.00791C18.6419 7.63717 18.4109 7.27874 18.1936 6.92731C17.9762 6.57588 17.719 6.23409 17.4756 5.89935C16.9751 5.22283 16.4683 4.55815 15.9554 3.90535L16.2693 3.87073L15.5678 5.41882C15.5185 5.51368 15.4066 5.56158 15.3043 5.52422C15.263 5.50313 15.2142 5.46312 15.1991 5.42535L14.5384 3.88613L14.8978 3.96488C14.4153 4.42376 13.9403 4.90148 13.4929 5.39331C13.0454 5.88514 12.5919 6.38885 12.1658 6.9066C11.9627 7.16307 11.7335 7.43621 11.4968 7.69047C11.26 7.94473 11.0157 8.18007 10.7851 8.42247C10.5545 8.66486 10.3439 8.90248 10.1607 9.15411C9.97138 9.4176 9.80951 9.69516 9.64147 9.98457C9.61678 10.032 9.55084 10.0583 9.50204 10.0183C9.46081 9.99725 9.44573 9.9595 9.4505 9.9169Z" fill="#07453A"/>
<path d="M29.8245 11.9855C29.6828 11.8228 29.5611 11.6552 29.4654 11.471C29.3635 11.2986 29.2678 11.1143 29.192 10.9252L28.6913 9.81214L27.6762 7.57902L28.0603 7.6104L27.3874 8.60336L27.3812 8.61523C27.3181 8.70314 27.1985 8.73208 27.1084 8.67092C27.0809 8.65684 27.0459 8.62388 27.0445 8.5931L26.5467 7.54161L26.8311 7.59713C26.4948 7.87573 26.1659 8.17325 25.8509 8.4778C25.7033 8.62766 25.5495 8.78936 25.4095 8.95813C25.2695 9.1269 25.1295 9.29567 25.0568 9.46887L25.0507 9.48074C25.026 9.52821 24.9738 9.56164 24.9188 9.53347C24.8776 9.51235 24.8548 9.45561 24.8596 9.41296C24.9432 9.18524 25.0619 8.99053 25.2081 8.80989C25.3405 8.62221 25.4943 8.46051 25.6343 8.29174C25.928 7.96123 26.2492 7.64478 26.578 7.34727C26.6487 7.27827 26.7635 7.29195 26.8336 7.35793C26.8474 7.36497 26.855 7.38389 26.855 7.38389L27.3989 8.41387L27.056 8.4036L27.6877 7.38953C27.757 7.28975 27.8827 7.24892 27.9865 7.31711C28.0278 7.33823 28.0491 7.36417 28.078 7.40903L29.1192 9.62549L29.6398 10.7337C29.7355 10.918 29.8113 11.107 29.8671 11.301C29.9367 11.5019 29.9926 11.6959 30.0224 11.9065C30.0252 11.968 29.9867 12.0085 29.927 12.0229C29.8933 12.0207 29.8596 12.0185 29.8245 11.9855Z" fill="#07453A"/>
<path d="M16.4944 4.37754C16.5286 4.24478 16.5705 4.13096 16.6246 3.99337C16.6726 3.86764 16.7467 3.72522 16.8221 3.61358C16.9792 3.37843 17.1775 3.16434 17.3635 2.97405C17.5495 2.78375 17.7417 2.58164 17.9415 2.39838C18.0444 2.30082 18.1411 2.21508 18.2441 2.11752C18.3471 2.01996 18.4439 1.93431 18.5806 1.83897C18.6911 1.76031 18.8334 1.78808 18.9049 1.88484C18.9263 1.91079 18.9414 1.94861 18.949 1.96752L19.2078 3.07692L18.7886 3.01256L19.4574 1.92729C19.5267 1.82751 19.6524 1.78668 19.7562 1.85488C19.7837 1.86896 19.805 1.89488 19.8263 1.92083C20.0926 2.31269 20.3589 2.70457 20.6053 3.10126C20.8517 3.49796 21.092 3.90658 21.326 4.32701C21.5601 4.74744 21.7604 5.16563 21.9484 5.60758C22.1365 6.04954 22.2984 6.50822 22.3347 7.0077C22.3375 7.06926 22.299 7.10968 22.2455 7.11229C22.1919 7.1149 22.143 7.07484 22.134 7.02516C22.0669 6.58501 21.8927 6.15013 21.6923 5.73192C21.4919 5.3137 21.2655 4.91218 21.0253 4.50361C20.5524 3.70539 20.0197 2.92163 19.4686 2.17349L19.8438 2.15523L19.1888 3.24752C19.1332 3.35434 18.9875 3.39996 18.87 3.32473C18.815 3.29656 18.7723 3.24466 18.7695 3.1831L18.497 2.06669L18.8593 2.20711C18.7748 2.26907 18.6718 2.3666 18.575 2.4523C18.4782 2.53799 18.3814 2.62369 18.2922 2.7283C18.1062 2.91859 17.9064 3.1018 17.7204 3.2921C17.5344 3.48239 17.3683 3.66787 17.1961 3.8652C17.113 3.95794 17.0437 4.05771 16.9545 4.16231C16.8791 4.27395 16.7899 4.37858 16.6869 4.47614C16.6485 4.51658 16.5811 4.51212 16.5323 4.47209C16.4849 4.46283 16.4759 4.41315 16.4944 4.37754Z" fill="#07453A"/>
<path d="M27.3891 7.91688C27.1805 7.6147 27.0715 7.28832 26.9503 6.98574C26.8352 6.67129 26.714 6.36875 26.5667 6.08286C26.4193 5.79698 26.2445 5.49702 26.0511 5.23266C25.8639 4.95644 25.6568 4.685 25.4435 4.42548L25.8049 4.40014C25.5785 4.7351 25.3459 5.08198 25.1195 5.41694L25.1134 5.42882C25.044 5.5286 24.9108 5.55053 24.8207 5.48937C24.7794 5.46824 24.7504 5.42333 24.7353 5.3855L24.3149 4.1181L24.5747 4.22109C24.3446 4.32872 24.1145 4.43635 23.8844 4.54398C23.7663 4.60373 23.6681 4.65863 23.5499 4.71838C23.4517 4.7733 23.3411 4.85195 23.2367 4.91874C23.0081 5.05715 22.8055 5.17886 22.5905 5.32431C22.3818 5.4579 22.1669 5.60336 21.9657 5.75586C21.9135 5.78925 21.8661 5.78004 21.8235 5.72813C21.7946 5.68327 21.8054 5.62869 21.8439 5.58825C22.0375 5.41685 22.2386 5.26436 22.446 5.09999C22.6472 4.9475 22.8622 4.8021 23.0772 4.65665C23.1815 4.58986 23.2584 4.50895 23.3889 4.42546C23.4994 4.3468 23.6175 4.28704 23.7219 4.22025C23.9444 4.09371 24.1807 3.97424 24.4108 3.86661C24.5028 3.82356 24.6053 3.86099 24.6631 3.95071L24.6706 3.9696L25.131 5.22743L24.7529 5.18412C24.9718 4.83024 25.1982 4.49528 25.4171 4.14141C25.4864 4.04162 25.6259 4.00786 25.7297 4.07607C25.7572 4.09015 25.7647 4.10902 25.7785 4.11607C26.0055 4.38264 26.2127 4.65407 26.4137 4.93734C26.6284 5.22765 26.8031 5.52757 26.9718 5.83941C27.1405 6.15125 27.283 6.47977 27.3858 6.81796C27.4885 7.15615 27.5438 7.48508 27.5531 7.83554C27.5559 7.8971 27.5113 7.94943 27.444 7.945C27.4516 7.96391 27.4104 7.94283 27.3891 7.91688Z" fill="#07453A"/>
<path d="M20.0179 2.49053C20.1243 2.31951 20.2733 2.20037 20.4162 2.09312C20.5728 1.99291 20.7445 1.93049 20.9026 1.86107C21.0606 1.79164 21.2324 1.72927 21.3905 1.65984C21.5623 1.59745 21.7203 1.52801 21.8859 1.47749C22.0117 1.43664 22.1355 1.50004 22.1748 1.62537L22.4982 2.67774L22.1969 2.55361L22.9981 2.15197L23.018 2.14712C23.0901 2.10888 23.1713 2.1204 23.2278 2.17934C23.3681 2.3113 23.4747 2.441 23.5752 2.58262C23.6756 2.72425 23.77 2.87774 23.8643 3.03123C23.9586 3.18473 24.0131 3.3479 24.0813 3.51809C24.1357 3.68125 24.1779 3.86816 24.1924 4.04097C24.2014 4.09066 24.1568 4.14296 24.1031 4.14559C24.0495 4.14821 24.0083 4.12713 23.9856 4.0704C23.9042 3.75817 23.7767 3.46744 23.5895 3.19123C23.5028 3.05665 23.3961 2.92691 23.2971 2.81607C23.1842 2.69819 23.0775 2.5684 22.9661 2.4813L23.1957 2.50867L22.4234 2.95514C22.3252 3.01008 22.1891 2.9705 22.1313 2.88078C22.1237 2.86187 22.1237 2.86186 22.1161 2.84295L22.1223 2.83107L21.7652 1.77649L22.0678 1.93138C21.7442 2.05132 21.4206 2.17128 21.1182 2.31717C20.9602 2.3866 20.8159 2.46306 20.6579 2.53249C20.4998 2.60192 20.3403 2.64054 20.1671 2.67215C20.1073 2.68664 20.0447 2.63957 20.0419 2.578C19.9931 2.53797 19.9918 2.50723 20.0179 2.49053Z" fill="#07453A"/>
<path d="M2.55176 26.0516C2.94017 26.6462 3.21533 27.289 3.47427 27.9158C3.73322 28.5586 3.99216 29.2014 4.28347 29.8281C4.84991 31.0816 5.46493 32.3191 6.25794 33.444C7.03477 34.5689 7.97341 35.5975 9.05773 36.4331C9.5918 36.851 10.1744 37.2527 10.757 37.5902C11.3559 37.9438 11.9709 38.2491 12.6021 38.5544C12.6506 38.5705 12.6668 38.6348 12.6506 38.683C12.6344 38.7312 12.5697 38.7473 12.5212 38.7312C11.2264 38.2009 9.96397 37.542 8.8311 36.7063C7.69822 35.8546 6.71113 34.8261 5.88574 33.6851C5.07655 32.528 4.42909 31.2745 3.84647 30.0049C3.55516 29.3621 3.2801 28.7193 3.02115 28.0925C2.76221 27.4497 2.51936 26.8069 2.35752 26.1159C2.34133 26.0676 2.3737 26.0034 2.43844 25.9873C2.48699 25.9873 2.53557 26.0034 2.55176 26.0516Z" fill="#07453A"/>
<path d="M19.6586 26.8062C19.6909 27.2401 19.6424 27.674 19.5777 28.0918C19.5129 28.5097 19.4483 28.9275 19.3997 29.3453C19.3512 29.7631 19.3026 30.181 19.254 30.6149C19.2216 31.0327 19.1893 31.4506 19.157 31.8845C19.0922 32.7362 18.9789 33.604 18.8494 34.4397L18.6391 35.7093L18.4287 36.9788C18.4125 37.027 18.364 37.0752 18.3154 37.0592C18.2669 37.0431 18.2345 37.011 18.2345 36.9467C18.2992 36.0949 18.3964 35.2432 18.5096 34.3915C18.6229 33.5397 18.7037 32.7041 18.7361 31.8523C18.7523 31.4345 18.7685 31.0006 18.8009 30.5667C18.8333 30.1328 18.8818 29.715 18.9303 29.281C18.9789 28.8471 19.0436 28.4293 19.1083 28.0115C19.173 27.5936 19.2702 27.1758 19.4644 26.774C19.4967 26.7258 19.5453 26.6937 19.6101 26.7258C19.6424 26.7419 19.6586 26.774 19.6586 26.8062Z" fill="#07453A"/>
<path d="M33.9164 31.0487C33.8355 31.2737 33.7223 31.4987 33.609 31.7076C33.4958 31.9165 33.3501 32.1094 33.2044 32.3022C32.9131 32.6879 32.6218 33.0736 32.3143 33.4432C31.6993 34.1825 31.0519 34.8896 30.356 35.5645C29.6601 36.2395 28.948 36.8663 28.2035 37.4769C27.8313 37.7823 27.4753 38.0715 27.103 38.3929C26.7308 38.7144 26.3262 38.9715 25.9378 39.2447C25.8892 39.2768 25.8246 39.2608 25.7922 39.2125C25.7598 39.1643 25.776 39.1161 25.8083 39.084L26.3586 38.634C26.5367 38.4894 26.7308 38.3287 26.8927 38.168C27.2325 37.8465 27.5886 37.5091 27.9446 37.2037C28.6729 36.577 29.3526 35.9342 30.0162 35.2592C30.6797 34.5842 31.3109 33.8771 31.9097 33.1379C32.2172 32.7683 32.4923 32.3986 32.7836 32.013C33.0587 31.6273 33.3501 31.2576 33.7224 30.9362C33.7709 30.9041 33.8356 30.9041 33.8679 30.9362C33.9165 30.9684 33.9164 31.0166 33.9164 31.0487Z" fill="#07453A"/>
<path d="M34.7905 21.6636C34.8228 21.8725 34.839 22.0653 34.839 22.2742C34.8228 22.4832 34.8067 22.676 34.7743 22.8689L34.6447 23.4635L34.4992 24.0581C34.2888 24.8295 34.0298 25.6009 33.7385 26.3401C33.431 27.0794 33.1073 27.8186 32.7674 28.5257C32.4276 29.2489 32.0554 29.956 31.6993 30.6631C31.667 30.7113 31.6183 30.7274 31.5697 30.7113C31.5212 30.6952 31.505 30.631 31.5212 30.5828C31.8287 29.8435 32.1524 29.1203 32.4599 28.3811C32.7674 27.6579 33.0749 26.9187 33.3339 26.1794C33.609 25.4402 33.8518 24.6848 34.0461 23.9295L34.1916 23.351L34.3049 22.7724C34.3373 22.5796 34.3696 22.3867 34.4344 22.1939C34.4829 22.001 34.5316 21.8082 34.6125 21.6153C34.6287 21.5671 34.6933 21.535 34.7581 21.5671C34.7581 21.5993 34.7743 21.6314 34.7905 21.6636Z" fill="#07453A"/>
<path d="M27.6533 24.3481C27.6533 24.6052 27.6208 24.8463 27.5885 25.0873C27.5561 25.3284 27.5075 25.5695 27.4427 25.7944L27.103 27.2087C26.8764 28.1568 26.6498 29.105 26.3908 30.0371C26.1319 30.9692 25.8569 31.9173 25.5494 32.8333C25.2257 33.7494 24.8696 34.6654 24.4488 35.5493C24.4326 35.5975 24.3679 35.6135 24.3194 35.5975C24.2708 35.5814 24.2547 35.5171 24.2708 35.4689C24.6269 34.569 24.9506 33.6529 25.2257 32.7369C25.517 31.8048 25.7597 30.8727 25.9862 29.9406C26.229 29.0086 26.4395 28.0604 26.6499 27.1122L26.9896 25.698C27.1029 25.232 27.2486 24.7659 27.4751 24.316C27.5075 24.2678 27.5723 24.2517 27.6209 24.2677C27.637 24.2677 27.6533 24.2999 27.6533 24.3481Z" fill="#07453A"/>
<path d="M10.4984 20.764C10.4984 21.0211 10.4498 21.2622 10.4175 21.5032C10.3851 21.7443 10.3527 21.9853 10.3042 22.2264L10.2232 22.9496L10.1908 23.6727C10.1747 24.653 10.3041 25.6333 10.5145 26.5815C10.7249 27.5457 11.0324 28.4939 11.3885 29.4099C11.7445 30.3259 12.1813 31.2259 12.6345 32.1098C12.6669 32.158 12.6345 32.2222 12.586 32.2383C12.5374 32.2704 12.4727 32.2383 12.4565 32.2062C11.9387 31.3544 11.4693 30.4545 11.0485 29.5385C10.6439 28.6225 10.3042 27.6582 10.0614 26.6779C9.83483 25.6976 9.68921 24.6852 9.68921 23.6567L9.72145 22.8853L9.80237 22.13C9.85092 21.8729 9.89956 21.6318 9.98048 21.3907C10.0614 21.1497 10.1746 20.9086 10.2879 20.6836C10.3202 20.6354 10.385 20.6193 10.4336 20.6515C10.4821 20.6836 10.4984 20.7318 10.4984 20.764Z" fill="#07453A"/>
<path d="M5.25461 15.1714C5.33554 15.6053 5.31929 16.0392 5.27073 16.457C5.22218 16.8748 5.18993 17.3087 5.15756 17.7266C5.09282 18.5783 5.02795 19.43 5.02795 20.2657C5.01177 21.1175 5.06039 21.9531 5.17368 22.8049C5.28698 23.6405 5.48121 24.4762 5.74018 25.2797C5.75636 25.328 5.72393 25.3922 5.67537 25.4083C5.62682 25.4244 5.57829 25.3922 5.54592 25.344C5.20602 24.5405 4.97943 23.7048 4.81757 22.8531C4.6719 22.0014 4.59097 21.1335 4.57479 20.2657C4.5586 19.3979 4.60725 18.5301 4.672 17.6784C4.70437 17.2445 4.73661 16.8266 4.78517 16.3927C4.83373 15.9588 4.88238 15.541 5.04423 15.1231C5.06042 15.0749 5.12513 15.0428 5.17368 15.0589C5.22224 15.1071 5.23843 15.1392 5.25461 15.1714Z" fill="#07453A"/>
<path d="M10.8867 10.5592C10.8219 10.7681 10.7249 10.9449 10.6278 11.1216C10.5307 11.2984 10.4498 11.4752 10.3365 11.652C10.2394 11.8287 10.1585 12.0055 10.0614 12.1823C9.98045 12.3591 9.89953 12.5519 9.81861 12.7287C9.5273 13.484 9.33306 14.2715 9.21977 15.0589C9.10649 15.8624 9.10652 16.682 9.17125 17.4855C9.23599 18.3051 9.38164 19.1087 9.57585 19.8961C9.59203 19.9443 9.55967 20.0086 9.49493 20.0247C9.44638 20.0407 9.3978 20.0086 9.38161 19.9604C9.12267 19.1729 8.9284 18.3533 8.8313 17.5177C8.73419 16.682 8.71813 15.8463 8.79905 15.0107C8.89616 14.175 9.07412 13.3393 9.38161 12.5519C9.46253 12.3591 9.54345 12.1662 9.62437 11.9734C9.72147 11.7805 9.81855 11.5877 9.91565 11.4109C10.0289 11.2341 10.1423 11.0574 10.2717 10.8806C10.4174 10.7199 10.563 10.5592 10.7248 10.4306C10.7734 10.3985 10.8382 10.3985 10.8706 10.4467C10.9029 10.4949 10.9029 10.527 10.8867 10.5592Z" fill="#07453A"/>
<path d="M20.5323 15.8948C20.4837 16.1198 20.419 16.3127 20.338 16.5216C20.2733 16.7305 20.1924 16.9233 20.0953 17.1162L19.8525 17.7108L19.6259 18.3054C19.3346 19.1089 19.0919 19.9285 18.9139 20.7642C18.7197 21.5999 18.5739 22.4355 18.493 23.2873C18.3959 24.139 18.3474 24.9908 18.3312 25.8586C18.3312 25.9068 18.2827 25.955 18.2341 25.955C18.1856 25.955 18.1369 25.9068 18.1369 25.8586C18.0722 24.9908 18.0884 24.123 18.1369 23.2551C18.2017 22.3873 18.3151 21.5195 18.4769 20.6678C18.6549 19.816 18.8815 18.9643 19.1728 18.1447L19.3994 17.534L19.6583 16.9234C19.7554 16.7305 19.8526 16.5216 19.9658 16.3448C20.0791 16.152 20.2086 15.9752 20.3704 15.8145C20.4028 15.7663 20.4675 15.7663 20.516 15.8145C20.5322 15.8145 20.5323 15.8466 20.5323 15.8948Z" fill="#07453A"/>
<path d="M29.8541 12.8096C30.016 13.2756 30.0646 13.7417 30.0808 14.2238C30.0969 14.6898 30.0808 15.172 30.0808 15.638C30.0646 16.5862 29.9836 17.5183 29.9189 18.4664L29.7084 21.2788C29.6275 22.2109 29.5142 23.159 29.2876 24.0751C29.2714 24.1233 29.2229 24.1554 29.1743 24.1554C29.1258 24.1394 29.0934 24.0911 29.0934 24.0429C29.239 23.1269 29.3039 22.1948 29.3524 21.2467L29.4819 18.4343C29.5304 17.5022 29.579 16.554 29.6113 15.6219C29.6275 15.1559 29.6275 14.6898 29.6113 14.2238C29.5951 13.7577 29.5952 13.2917 29.6761 12.8257C29.6923 12.7614 29.7407 12.7292 29.7893 12.7453C29.8055 12.7453 29.8379 12.7775 29.8541 12.8096Z" fill="#07453A"/>
<path d="M21.8755 8.08401C22.0374 8.3572 22.1021 8.66254 22.1507 8.96788C22.1831 9.27322 22.2154 9.57855 22.2477 9.86782C22.3125 10.4785 22.3449 11.0731 22.3611 11.6838C22.3773 12.2945 22.3772 12.9051 22.3772 13.4997C22.361 14.1104 22.3287 14.705 22.2801 15.3157C22.2801 15.3639 22.2316 15.4121 22.1668 15.4121C22.1183 15.4121 22.0698 15.3639 22.0698 15.3157C22.0536 14.705 22.0373 14.1104 22.0211 13.5158C22.0049 12.9212 21.9726 12.3105 21.924 11.7159C21.8917 11.1213 21.8269 10.5267 21.7622 9.91604C21.7298 9.6107 21.6974 9.32142 21.6489 9.01608C21.6327 8.87144 21.6165 8.71075 21.6165 8.56612C21.6165 8.42148 21.6166 8.26078 21.6651 8.10007C21.6813 8.03579 21.7298 8.00365 21.7946 8.01972C21.8431 8.03579 21.8593 8.05187 21.8755 8.08401Z" fill="#07453A"/>
<path d="M15.4667 5.28773C15.4829 5.44844 15.4829 5.60914 15.4506 5.76985C15.4344 5.93055 15.402 6.07519 15.3697 6.21983C15.2887 6.52517 15.224 6.81443 15.1593 7.11977C15.0298 7.71438 14.9327 8.32504 14.8518 8.93572C14.7709 9.5464 14.7062 10.1571 14.6738 10.7678C14.6253 11.3784 14.5928 12.0052 14.5766 12.6159C14.5766 12.6641 14.5282 12.7123 14.4635 12.7123C14.4149 12.7123 14.3663 12.6641 14.3663 12.6159C14.3339 11.9891 14.3177 11.3784 14.3177 10.7517C14.3339 10.1249 14.3662 9.4982 14.4148 8.88752C14.4795 8.26077 14.5605 7.6501 14.6899 7.02335C14.7547 6.71801 14.8194 6.41266 14.8842 6.10732C14.9651 5.80198 15.0622 5.51271 15.2564 5.23951C15.2887 5.1913 15.3535 5.17524 15.4021 5.22345C15.4506 5.22345 15.4667 5.25559 15.4667 5.28773Z" fill="#07453A"/>
<path d="M19.0594 3.10236C19.1403 3.31128 19.1403 3.50411 19.1079 3.69696L19.027 4.27549C18.9785 4.66119 18.93 5.03082 18.8976 5.41652C18.8652 5.80221 18.833 6.17183 18.833 6.55752C18.8168 6.94321 18.833 7.32889 18.833 7.71459C18.833 7.7628 18.7843 7.811 18.7358 7.811C18.6872 7.811 18.6388 7.77886 18.6388 7.73065C18.5579 7.34496 18.5093 6.95928 18.4769 6.55752C18.4446 6.17183 18.4445 5.77006 18.4607 5.38436C18.4768 4.99867 18.5093 4.59692 18.5579 4.21123L18.6388 3.63267C18.6711 3.43983 18.7196 3.24698 18.8652 3.07021C18.9138 3.022 18.9785 3.022 19.027 3.05414C19.0432 3.07021 19.0432 3.08629 19.0594 3.10236Z" fill="#07453A"/>
<path d="M25.0799 5.32076C25.2094 5.44932 25.2579 5.57789 25.2579 5.72252C25.2741 5.86715 25.2742 5.99573 25.2742 6.14037C25.2742 6.41356 25.2418 6.70282 25.1932 6.99209C25.1285 7.26529 25.0313 7.53848 24.8857 7.79561C24.7562 8.03667 24.5944 8.27773 24.4164 8.48665C24.384 8.53486 24.3192 8.53485 24.2707 8.50271C24.2383 8.47057 24.2221 8.42237 24.2383 8.39023C24.3516 8.14917 24.4649 7.90812 24.562 7.66706C24.6591 7.426 24.7239 7.18493 24.7562 6.9278C24.7886 6.67068 24.8047 6.42963 24.8047 6.1725C24.8047 6.04394 24.7886 5.91537 24.7886 5.78681C24.7886 5.65824 24.7886 5.52968 24.8857 5.38504C24.9342 5.28862 25.0152 5.27255 25.0799 5.32076Z" fill="#07453A"/>
<path d="M22.3452 2.86118C22.3775 2.92546 22.3776 2.98974 22.3776 3.03796C22.3776 3.08617 22.3613 3.13438 22.3452 3.1826C22.2966 3.26295 22.2644 3.35937 22.232 3.43972C22.1673 3.6165 22.0862 3.79329 22.0215 3.97007C21.8758 4.32362 21.7626 4.69324 21.6007 5.06287C21.5846 5.11108 21.5198 5.14323 21.4713 5.11109C21.4227 5.09502 21.4065 5.04681 21.4065 5.01467C21.4389 4.6129 21.5036 4.22719 21.6007 3.84149C21.6493 3.64864 21.7141 3.4558 21.795 3.26295C21.8274 3.16653 21.8759 3.07009 21.9244 2.97367C21.973 2.87724 22.0377 2.7969 22.1833 2.76476C22.2319 2.74869 22.3128 2.78083 22.3452 2.86118Z" fill="#07453A"/>
<path d="M5.20625 36.7219C5.57848 36.9469 5.85361 37.2523 6.09636 37.5737C6.33912 37.8951 6.59804 38.1844 6.87316 38.4576C7.4396 38.9718 8.11933 39.4058 8.81524 39.8075C9.51115 40.2093 10.2232 40.5789 10.9677 40.8842C11.696 41.1896 12.4567 41.4789 13.2497 41.6074C13.2983 41.6235 13.3468 41.6717 13.3306 41.7199C13.3144 41.7681 13.282 41.8003 13.2173 41.8003C12.3919 41.736 11.5989 41.4949 10.8221 41.2057C10.0615 40.9164 9.31688 40.5628 8.5886 40.1771C8.23255 39.9843 7.87651 39.7754 7.53664 39.5504C7.19678 39.3254 6.85704 39.0843 6.53336 38.7951C6.22587 38.5058 5.95065 38.1844 5.70789 37.863C5.57841 37.7022 5.4651 37.5415 5.35181 37.3808C5.23852 37.2201 5.14151 37.0434 5.04441 36.8505C5.01204 36.8023 5.04438 36.738 5.09293 36.7059C5.14148 36.6898 5.19006 36.7059 5.20625 36.7219Z" fill="#07453A"/>
<path d="M32.654 38.7795C32.5084 38.9724 32.3465 39.1331 32.1685 39.2938C31.9905 39.4384 31.7963 39.583 31.6021 39.7277L31.0032 40.1134L30.4045 40.4669C29.5954 40.933 28.7375 41.3347 27.8798 41.6883C27.0058 42.0418 26.132 42.3471 25.2257 42.6043C24.3356 42.8614 23.4291 43.0864 22.5067 43.2792C22.4581 43.2953 22.3935 43.2632 22.3935 43.1989C22.3773 43.1507 22.4096 43.1024 22.4581 43.0864C23.3483 42.8292 24.2384 42.5721 25.1124 42.2829C25.9863 41.9936 26.8602 41.6561 27.7018 41.2865C28.5434 40.9169 29.3688 40.5151 30.1618 40.0491L30.7443 39.6955L31.3108 39.3259C31.4888 39.1974 31.683 39.0688 31.8933 38.9563C32.0876 38.8277 32.2819 38.7152 32.5085 38.6188C32.557 38.6028 32.6217 38.6188 32.6379 38.667C32.6703 38.6992 32.6702 38.7474 32.654 38.7795Z" fill="#07453A"/>
<path d="M24.8857 40.7073C25.1284 40.3216 25.3065 39.9359 25.436 39.5341C25.5654 39.1324 25.6625 38.6985 25.6949 38.2645C25.7272 37.8306 25.6949 37.3967 25.5978 36.9789C25.5654 36.8825 25.5492 36.77 25.5006 36.6896L25.4684 36.6254L25.436 36.545L25.3712 36.3843L25.0799 35.7736L25.4036 35.87L24.4164 36.4164C24.3031 36.4807 24.1736 36.4325 24.1089 36.3361C24.1089 36.32 24.0927 36.32 24.0927 36.3039L23.6881 35.1629L23.9794 35.2915C23.6234 35.4201 23.2511 35.5968 22.895 35.7736C22.539 35.9504 22.1991 36.1593 21.8916 36.4004C21.5841 36.6414 21.2928 36.8986 21.0824 37.2039C20.8558 37.5253 20.6617 37.8789 20.4998 38.2324C20.16 38.9395 19.9172 39.7109 19.7716 40.4823C19.6097 41.2697 19.5126 42.0572 19.3831 42.8607C19.3669 42.909 19.3183 42.9572 19.2698 42.9411C19.2212 42.9411 19.1727 42.8768 19.1888 42.8286C19.2698 42.0251 19.3508 41.2215 19.4803 40.418C19.6098 39.6145 19.8363 38.811 20.1762 38.0717C20.3542 37.7021 20.5484 37.3325 20.775 36.995C21.0178 36.6254 21.3252 36.3361 21.6488 36.079C21.9725 35.8218 22.3286 35.5968 22.7008 35.404C23.073 35.2112 23.4453 35.0344 23.8337 34.8897C23.947 34.8415 24.0765 34.9058 24.1089 35.0183L24.5296 36.1593L24.2059 36.0468L25.1769 35.4844C25.2902 35.4201 25.4359 35.4522 25.4845 35.5647L25.5006 35.5808L25.7921 36.2075L25.873 36.3682L25.9052 36.4486L25.9376 36.5289C25.9862 36.6414 26.0186 36.77 26.0509 36.8825C26.1642 37.3485 26.1966 37.8306 26.1643 38.3128C26.1319 38.7949 26.0347 39.2609 25.8567 39.7109C25.6787 40.1448 25.3873 40.5626 25.0151 40.868C24.9665 40.9001 24.9019 40.9001 24.8695 40.8519C24.8695 40.7876 24.8533 40.7394 24.8857 40.7073Z" fill="#07453A"/>
<path d="M19.3186 41.5593C19.2053 40.9969 19.1244 40.4505 18.9949 39.9201C18.8816 39.3737 18.7359 38.8434 18.5255 38.3452C18.3151 37.8309 18.0562 37.3488 17.7487 36.8989C17.4251 36.4489 17.069 35.9989 16.7292 35.5489L17.0528 35.5811L16.017 36.481C15.9199 36.5614 15.7904 36.5453 15.6933 36.465C15.6771 36.4489 15.6609 36.4328 15.6609 36.4007L15.1593 35.2436L15.4991 35.3239C14.9165 35.8061 14.35 36.3685 13.8807 36.9471C13.6379 37.2524 13.4114 37.5578 13.2496 37.8952C13.1687 38.0559 13.0876 38.2327 13.0391 38.4095C13.0067 38.4898 12.9905 38.5863 12.9582 38.6827C12.9258 38.7791 12.9097 38.8595 12.8935 38.9559C12.8126 39.3255 12.7802 39.6951 12.8287 40.0648C12.8611 40.4344 12.9744 40.7879 13.1524 41.1254C13.3304 41.4629 13.5571 41.7682 13.816 42.0414C14.075 42.3307 14.35 42.6039 14.6414 42.8611C14.6899 42.8932 14.6899 42.9575 14.6414 43.0057C14.609 43.0378 14.5442 43.0539 14.4956 43.0218C13.8968 42.5236 13.2818 41.9772 12.8772 41.2701C12.683 40.9165 12.5375 40.5147 12.4889 40.113C12.4242 39.7112 12.4565 39.2934 12.5374 38.8916C12.5536 38.7952 12.5699 38.6988 12.6022 38.6024C12.6346 38.5059 12.6346 38.4095 12.6832 38.3131C12.7479 38.1202 12.8287 37.9274 12.9096 37.7345C13.0877 37.3649 13.3305 37.0435 13.5733 36.7221C14.075 36.0953 14.6251 35.5168 15.2239 35.0025C15.321 34.9222 15.4506 34.9383 15.5315 35.0186C15.5477 35.0347 15.5639 35.0508 15.5639 35.0668L16.0655 36.2239L15.7094 36.1435L16.7453 35.2275C16.8424 35.1472 16.988 35.1472 17.069 35.2436C17.069 35.2436 17.0689 35.2597 17.0851 35.2597C17.425 35.7096 17.7811 36.1596 18.1209 36.6257C18.4446 37.1078 18.7359 37.622 18.9463 38.1524C19.1728 38.6827 19.3347 39.2452 19.4318 39.8237C19.5289 40.4023 19.5451 40.9808 19.4966 41.5433C19.4966 41.5915 19.448 41.6397 19.3833 41.6397C19.3671 41.6236 19.3348 41.5915 19.3186 41.5593Z" fill="#07453A"/>
<path d="M15.9848 36.0955C16.0171 36.2562 16.0172 36.4009 16.0172 36.5616C16.0172 36.7062 16.001 36.8509 15.9687 36.9955L15.9201 37.4294L15.8877 37.8633C15.8554 38.4579 15.8554 39.0364 15.9201 39.631C15.9687 40.2257 16.0657 40.8042 16.179 41.3827C16.3085 41.9613 16.4704 42.5398 16.6484 43.1023C16.6646 43.1505 16.6321 43.2148 16.5836 43.2308C16.535 43.2469 16.4865 43.2309 16.4542 43.1826C16.1952 42.6363 15.9848 42.0577 15.8229 41.4631C15.6611 40.8685 15.5316 40.2739 15.4669 39.6632C15.4021 39.0525 15.3699 38.4418 15.4022 37.8311L15.4346 37.3651L15.4832 36.899C15.4993 36.7544 15.5316 36.5937 15.5802 36.4491C15.6287 36.3044 15.6935 36.1598 15.7744 36.0152C15.8068 35.967 15.8716 35.9509 15.9201 35.983C15.9687 36.0312 15.9848 36.0634 15.9848 36.0955Z" fill="#07453A"/>
<path d="M24.5782 35.9666C24.5944 36.3202 24.4972 36.6416 24.3839 36.9469L24.2058 37.413L24.0117 37.879C23.7528 38.4897 23.4452 39.0843 23.1378 39.6789C22.8141 40.2575 22.458 40.8199 22.0858 41.3663C21.6974 41.9127 21.2928 42.4431 20.872 42.9413C20.8396 42.9895 20.7748 42.9895 20.7263 42.9573C20.6939 42.9252 20.6778 42.8609 20.7102 42.8288C21.0824 42.2824 21.4547 41.752 21.7945 41.1896C22.1344 40.6271 22.4581 40.0646 22.7656 39.4861C23.0731 38.9075 23.3481 38.3129 23.5909 37.7183L23.769 37.2683L23.9469 36.8183C23.9955 36.6576 24.0603 36.513 24.1412 36.3684C24.2059 36.2237 24.2868 36.0791 24.4001 35.9345C24.4324 35.8863 24.4972 35.8863 24.5458 35.9184C24.562 35.9023 24.5782 35.9345 24.5782 35.9666Z" fill="#07453A"/>
<path d="M16.2435 43.295C16.2759 44.1789 16.2111 45.0628 16.1302 45.9306L15.9845 47.2484L15.8389 48.5662C15.6285 50.3179 15.4018 52.0535 15.1753 53.8051C14.9325 55.5408 14.7059 57.2924 14.4955 59.0281C14.2851 60.7797 14.0909 62.5153 13.9291 64.267C13.9291 64.3152 13.8806 64.3474 13.832 64.3474C13.7835 64.3474 13.7511 64.2992 13.7511 64.267C13.8482 62.5153 14.0101 60.7637 14.1881 59.012C14.3823 57.2603 14.5927 55.5086 14.8031 53.773C15.0135 52.0213 15.2401 50.2857 15.4343 48.534L15.5799 47.2323L15.7093 45.9145C15.7417 45.4806 15.7903 45.0467 15.855 44.6128C15.9036 44.1789 15.9683 43.745 16.0493 43.3111C16.0654 43.2629 16.0978 43.2308 16.1463 43.2468C16.211 43.2147 16.2435 43.2468 16.2435 43.295Z" fill="#07453A"/>
<path d="M14.9812 68.6861C14.9488 68.3486 14.949 68.0111 14.949 67.6575C14.949 67.3201 14.965 66.9826 14.9812 66.6451L15.1108 64.6202L15.3536 60.5544C15.4345 59.2044 15.5316 57.8384 15.6449 56.4885C15.7582 55.1386 15.8714 53.7726 16.0332 52.4226C16.0332 52.3744 16.0819 52.3423 16.1304 52.3423C16.179 52.3423 16.2114 52.3905 16.2114 52.4387C16.1143 53.7886 16.0171 55.1546 15.9523 56.5046C15.8714 57.8545 15.8067 59.2205 15.7419 60.5704L15.5316 64.6363L15.4182 66.6772C15.3697 67.3522 15.3211 68.0272 15.1755 68.7021C15.1593 68.7503 15.127 68.7825 15.0784 68.7664C15.0137 68.7664 14.9974 68.7343 14.9812 68.6861Z" fill="#07453A"/>
<path d="M18.0722 42.4015C18.0884 42.783 18.0883 43.1644 18.0883 43.5299C18.0883 43.9114 18.056 44.2769 18.0398 44.6584C17.9912 45.4054 17.9427 46.1682 17.9104 46.9152L17.7 51.4448C17.6191 52.9547 17.5381 54.4645 17.4248 55.9744C17.2953 57.4842 17.1496 58.9941 16.923 60.4881C16.923 60.5358 16.8745 60.5675 16.826 60.5517C16.7774 60.5517 16.745 60.504 16.7612 60.4563C16.923 58.9623 17.0364 57.4525 17.1335 55.9426C17.2306 54.4327 17.2953 52.9229 17.3439 51.413L17.5219 46.8834C17.5542 46.1206 17.6028 45.3736 17.6352 44.6107C17.6837 43.8637 17.7485 43.1008 17.9104 42.3538C17.9265 42.3062 17.9588 42.2744 18.0074 42.2903C18.0398 42.3379 18.0722 42.3697 18.0722 42.4015Z" fill="#07453A"/>
<path d="M16.6965 68.7992C16.5832 68.6225 16.5669 68.4296 16.5507 68.2368L16.5346 67.6743C16.5184 67.2886 16.5184 66.919 16.5022 66.5333C16.5022 66.1476 16.4861 65.778 16.4861 65.3923C16.4861 65.0066 16.486 64.6369 16.5022 64.2513C16.5022 64.203 16.5508 64.1709 16.5831 64.1709C16.6317 64.1709 16.6641 64.203 16.6641 64.2513C16.7126 64.6209 16.745 65.0066 16.7774 65.3762C16.8098 65.7619 16.826 66.1315 16.8583 66.5172C16.8745 66.9029 16.9068 67.2725 16.923 67.6582L16.9554 68.2207C16.9554 68.4135 16.9554 68.6064 16.8583 68.7992C16.8421 68.8475 16.7774 68.8635 16.7289 68.8475C16.7127 68.8314 16.6965 68.8153 16.6965 68.7992Z" fill="#07453A"/>
<path d="M15.5474 42.7642C15.5797 43.1981 15.515 43.6159 15.4503 44.0338L15.2237 45.2712C15.078 46.0908 14.9324 46.9265 14.803 47.7621C14.6573 48.5817 14.5278 49.4174 14.4145 50.2531C14.3012 51.0887 14.2042 51.9244 14.1071 52.744C14.1071 52.7922 14.0584 52.8243 14.0099 52.8243C13.9613 52.8243 13.929 52.7761 13.929 52.744C13.9613 51.9083 14.0262 51.0566 14.1071 50.2209C14.188 49.3852 14.3012 48.5496 14.4145 47.7139C14.5439 46.8782 14.6734 46.0426 14.8191 45.223L15.0296 43.9856C15.0943 43.5677 15.1914 43.166 15.3694 42.7642C15.3856 42.716 15.4342 42.6999 15.4827 42.716C15.5151 42.6999 15.5312 42.732 15.5474 42.7642Z" fill="#07453A"/>
<path d="M19.1081 43.0536C19.2052 43.3589 19.2214 43.6804 19.2214 43.9857L19.2214 44.9178L19.2053 46.782C19.1891 47.4087 19.1728 48.0355 19.1405 48.6622C19.1081 49.289 19.0758 49.9157 19.011 50.5264C19.011 50.5746 18.9625 50.6068 18.914 50.6068C18.8654 50.6068 18.8331 50.5585 18.8331 50.5264C18.8331 49.8996 18.8331 49.2729 18.8331 48.6622C18.8331 48.0355 18.833 47.4248 18.8168 46.798L18.8007 44.9338L18.8007 44.0018C18.8007 43.6964 18.8169 43.375 18.914 43.0697C18.9302 43.0214 18.9786 43.0054 19.0271 43.0054C19.0757 43.0054 19.1081 43.0375 19.1081 43.0536Z" fill="#07453A"/>
<path d="M20.4674 42.5553C20.5159 42.941 20.5321 43.3267 20.5483 43.7284C20.5483 44.1141 20.5483 44.4998 20.5322 44.9016L20.4674 46.0586L20.3864 47.2157C20.2732 48.7585 20.1114 50.3173 19.9333 51.8601C19.7391 53.4029 19.5288 54.9456 19.3184 56.4723L18.6548 61.0845C18.6548 61.1328 18.6063 61.1649 18.5578 61.1488C18.5092 61.1488 18.4768 61.1006 18.493 61.0524C18.6548 59.5096 18.849 57.9669 19.027 56.4241C19.2212 54.8813 19.3993 53.3386 19.5612 51.8119C19.7392 50.2691 19.8848 48.7263 19.9819 47.1836L20.0467 46.0265L20.0952 44.8694C20.1114 44.4837 20.1275 44.098 20.1598 43.7124C20.176 43.3267 20.2084 42.941 20.2731 42.5553C20.2731 42.5071 20.3218 42.4749 20.3703 42.491C20.4351 42.4749 20.4674 42.5071 20.4674 42.5553Z" fill="#07453A"/>
<path d="M21.8756 43.2463C21.9565 43.632 21.9564 44.0338 21.9402 44.4195L21.8756 45.5926C21.827 46.364 21.7946 47.1515 21.7298 47.9229C21.6651 48.6942 21.6004 49.4817 21.5195 50.2531C21.4386 51.0245 21.3414 51.7958 21.2119 52.5672C21.2119 52.6154 21.1635 52.6476 21.1149 52.6315C21.0663 52.6315 21.0339 52.5833 21.0501 52.5351C21.1148 51.7637 21.1797 50.9923 21.2282 50.2049C21.2768 49.4335 21.3252 48.646 21.3738 47.8746C21.4223 47.1033 21.4547 46.3158 21.4871 45.5444L21.5356 44.3713C21.5518 43.9856 21.5842 43.5999 21.6974 43.2142C21.7136 43.166 21.7622 43.1499 21.8108 43.1499C21.8431 43.1981 21.8594 43.2142 21.8756 43.2463Z" fill="#07453A"/>
<path d="M20.3058 68.0441C20.1925 67.5137 20.1601 66.9673 20.1439 66.437L20.0954 64.83C20.0631 63.7532 20.0468 62.6765 20.0306 61.5998C20.0306 60.5231 20.0468 59.4463 20.0792 58.3696C20.1277 57.2929 20.1924 56.2162 20.3219 55.1394C20.3219 55.0912 20.3705 55.0591 20.4191 55.0591C20.4676 55.0591 20.5 55.1073 20.5 55.1555C20.4353 56.2322 20.3867 57.2929 20.3867 58.3696C20.3705 59.4463 20.3866 60.5231 20.4028 61.5837C20.419 62.6604 20.4514 63.7372 20.4837 64.7978L20.5324 66.4049C20.5486 66.9352 20.5485 67.4816 20.4676 68.028C20.4676 68.0762 20.4191 68.1084 20.3706 68.0923C20.3382 68.1084 20.3058 68.0762 20.3058 68.0441Z" fill="#07453A"/>
<path d="M17.9914 68.6224C17.8781 68.3171 17.8458 68.0117 17.8296 67.6903L17.7811 66.7582L17.6839 64.878L17.6192 62.9977C17.6031 62.371 17.5867 61.7442 17.5706 61.1175C17.5706 61.0693 17.6029 61.0371 17.6515 61.0371C17.7 61.0371 17.7324 61.0693 17.7324 61.1175C17.7971 61.7442 17.8457 62.371 17.8942 62.9816L18.0399 64.8458L18.1533 66.71L18.2179 67.6421C18.2341 67.9474 18.2342 68.2689 18.1533 68.5903C18.1371 68.6385 18.0885 68.6706 18.0399 68.6546C18.0238 68.6706 18.0076 68.6385 17.9914 68.6224Z" fill="#07453A"/>
<path d="M19.2377 68.269C19.1082 68.0762 19.0597 67.8673 19.0435 67.6583C19.0273 67.4494 19.0111 67.2405 18.995 67.0155C18.9626 66.5977 18.9625 66.1638 18.9463 65.7459C18.9463 65.3281 18.9464 64.8942 18.9626 64.4764C18.9788 64.0586 18.9948 63.6407 19.0272 63.2068C19.0272 63.1586 19.0758 63.1265 19.1244 63.1265C19.1729 63.1265 19.2053 63.1586 19.2053 63.2068C19.2377 63.6247 19.2376 64.0425 19.27 64.4603L19.3186 65.7138C19.3348 66.1316 19.3671 66.5495 19.3833 66.9673C19.3994 67.1762 19.4156 67.3851 19.4318 67.5941C19.448 67.6905 19.4481 67.803 19.4481 67.8994C19.4481 68.0119 19.4319 68.1083 19.3995 68.2208C19.3834 68.269 19.3348 68.3012 19.2862 68.2851C19.27 68.3012 19.2539 68.2851 19.2377 68.269Z" fill="#07453A"/>
</svg>
