<svg width="63" height="102" viewBox="0 0 63 102" fill="none" xmlns="http://www.w3.org/2000/svg">
<path d="M2.20218 0.811947C2.36402 1.45477 2.50967 2.09761 2.60678 2.7565C2.67151 3.07791 2.68771 3.41533 2.73626 3.73674C2.75244 4.07422 2.78482 4.39566 2.78482 4.73314C2.81719 6.067 2.62299 7.38478 2.3155 8.67042C2.02419 9.95607 1.66811 11.2256 1.39298 12.5113C1.10167 13.7969 0.891274 15.0826 0.745618 16.3843C0.454306 18.9877 0.486697 21.6233 0.648537 24.2428C0.794193 26.8623 1.16642 29.4657 1.65194 32.0531C2.13746 34.6404 2.76863 37.1956 3.43218 39.7347C4.11191 42.2739 4.8078 44.8131 5.5199 47.3522C6.96028 52.4144 8.49776 57.4606 10.1809 62.4424C11.0225 64.9334 11.9126 67.4243 12.8189 69.8831C13.7414 72.3579 14.6315 74.8328 15.5702 77.2916C16.5089 79.7504 17.5285 82.177 18.7423 84.5073C19.3411 85.6804 20.0046 86.8054 20.7167 87.9142C21.4126 89.0231 22.1409 90.132 22.9177 91.1926C23.6945 92.2533 24.5037 93.2818 25.3939 94.246C26.284 95.2103 27.2389 96.1102 28.2746 96.9137C30.3462 98.5208 32.7414 99.726 35.2823 100.401C37.8232 101.076 40.4936 101.237 43.0992 100.883C45.7048 100.546 48.2457 99.6779 50.5438 98.4244C51.6929 97.7976 52.7934 97.0583 53.813 96.2387C54.8326 95.4192 55.7874 94.5032 56.6614 93.5228C58.4254 91.5783 59.9305 89.3927 61.0472 87.0304C61.3224 86.4358 61.5651 85.825 61.7755 85.2143C61.9697 84.5876 62.1478 83.9609 62.261 83.3181C62.3905 82.6752 62.4714 82.0324 62.52 81.3896C62.5524 80.7468 62.5685 80.0878 62.5362 79.429C62.4229 76.8095 61.727 74.2542 60.8045 71.7954C59.882 69.3367 58.7167 66.9743 57.5515 64.612C56.9689 63.4388 56.3862 62.2496 55.7712 61.0925C55.4637 60.514 55.1401 59.9354 54.8164 59.3569C54.4927 58.7944 54.169 58.2159 53.813 57.6534C51.1103 53.1215 48.0353 48.8307 45.0413 44.4755C43.5523 42.29 42.112 40.0883 40.5907 37.9188C39.0856 35.7653 37.4995 33.6441 35.7355 31.6835C33.9714 29.7229 31.9646 28.0033 29.893 26.3641C27.8215 24.7249 25.6852 23.15 23.6622 21.4465C22.6426 20.5948 21.6715 19.7108 20.7329 18.7627C19.8104 17.8145 18.9203 16.8182 18.0463 15.8379C17.1724 14.8415 16.2985 13.8612 15.376 12.9291C14.9066 12.4631 14.4373 11.997 13.9518 11.5631C13.4663 11.1292 12.9646 10.6953 12.4305 10.3257C11.3624 9.57034 10.1809 8.94362 9.09658 8.18831C8.54632 7.80261 8.01224 7.40088 7.5429 6.93484C7.42961 6.80627 7.31635 6.69373 7.20306 6.56517C7.08977 6.4366 6.99267 6.30805 6.87938 6.17949C6.66899 5.90629 6.52331 5.58486 6.41002 5.27952C6.18344 4.65277 6.03781 3.99388 5.90834 3.35106C5.76268 2.70824 5.6494 2.04938 5.42282 1.45477C5.35808 1.31013 5.29334 1.16548 5.21242 1.03692C5.1315 0.908354 5.01821 0.828033 4.88874 0.828033C4.85637 0.828033 4.82399 0.828033 4.79162 0.828033C4.75925 0.828033 4.72691 0.844057 4.69454 0.860127C4.61362 0.892268 4.51652 0.924394 4.41942 0.924394C4.24139 0.940464 4.06334 0.924456 3.9015 0.908386C3.56163 0.860174 3.23798 0.77979 2.9143 0.715508C2.75246 0.683367 2.59059 0.651242 2.44494 0.651242C2.36402 0.651242 2.29929 0.651194 2.25074 0.683336C2.23455 0.699406 2.23458 0.699437 2.23458 0.715508C2.23458 0.715508 2.23458 0.73161 2.23458 0.74768L2.20218 0.811947ZM2.00798 0.860127L1.99182 0.779774C1.99182 0.747633 1.99182 0.715477 1.99182 0.683336C2.008 0.619053 2.05655 0.554771 2.1051 0.52263C2.21839 0.458348 2.3155 0.47445 2.39642 0.47445C2.57444 0.47445 2.73626 0.506575 2.8981 0.538716C3.22178 0.602999 3.54546 0.683383 3.86914 0.731594C4.03098 0.747665 4.19284 0.763751 4.3385 0.74768C4.41942 0.73161 4.48412 0.731563 4.54886 0.699422C4.59741 0.683351 4.64597 0.667312 4.67834 0.651242C4.72689 0.651242 4.77547 0.635155 4.82402 0.635155C4.87257 0.635155 4.92111 0.651257 4.96966 0.667328L5.03438 0.699422C5.05056 0.715492 5.08296 0.731594 5.09914 0.731594C5.14769 0.763735 5.18005 0.795892 5.21242 0.828033C5.24479 0.860174 5.27717 0.892268 5.30954 0.94048C5.42283 1.08511 5.48756 1.2458 5.5523 1.40651C5.79506 2.03326 5.90832 2.69215 6.05398 3.33497C6.19964 3.9778 6.32912 4.62066 6.5557 5.23134C6.66899 5.53668 6.79845 5.82592 6.99266 6.08305C7.08976 6.21162 7.20304 6.32416 7.30014 6.45272C7.41343 6.56521 7.52673 6.69373 7.64002 6.80622C8.10936 7.27227 8.62723 7.67407 9.1613 8.04369C10.2456 8.78293 11.4109 9.40965 12.5114 10.181C13.5957 10.9524 14.5668 11.8684 15.5055 12.8166C16.428 13.7648 17.318 14.7451 18.192 15.7415C19.0659 16.7218 19.9399 17.7181 20.8623 18.6502C21.801 19.5823 22.7721 20.4662 23.7917 21.318C25.8147 23.0214 27.951 24.5803 30.0225 26.2195C31.0583 27.0391 32.094 27.8747 33.0813 28.7586C34.0685 29.6425 35.0234 30.5745 35.9135 31.5548C37.6937 33.5155 39.2797 35.6367 40.801 37.8063C42.3223 39.9758 43.7627 42.1775 45.2516 44.347C48.2457 48.6861 51.3368 52.993 54.0396 57.5248C54.3794 58.0873 54.7031 58.6659 55.043 59.2283C55.3666 59.8069 55.6903 60.3854 55.9978 60.9639C56.629 62.121 57.1954 63.3102 57.7942 64.4994C58.9757 66.8618 60.1409 69.2402 61.0796 71.7151C62.0183 74.19 62.7304 76.7773 62.8437 79.445C62.876 80.1039 62.8598 80.7789 62.8275 81.4378C62.7627 82.0967 62.698 82.7556 62.5685 83.4145C62.4552 84.0734 62.261 84.7162 62.0668 85.343C61.8564 85.9697 61.6137 86.5965 61.3224 87.1911C60.2057 89.6016 58.6682 91.8033 56.888 93.78C55.9978 94.7603 55.043 95.6924 53.991 96.5281C52.9552 97.3637 51.8385 98.119 50.6733 98.7619C48.3428 100.048 45.7534 100.931 43.0992 101.269C40.445 101.622 37.7261 101.478 35.1366 100.787C32.5472 100.096 30.1034 98.8744 27.9995 97.2512C26.9475 96.4316 25.9765 95.5156 25.0702 94.5353C24.1639 93.555 23.3385 92.5104 22.5617 91.4498C21.7848 90.373 21.0566 89.2642 20.3445 88.1553C19.6324 87.0464 18.9688 85.8894 18.3538 84.7162C17.1238 82.3699 16.1042 79.9272 15.1494 77.4523C14.2107 74.9935 13.3206 72.5026 12.3981 70.0438C11.4756 67.5689 10.5855 65.0941 9.74394 62.5871C8.04462 57.5891 6.50714 52.543 5.05058 47.4808C4.33848 44.9416 3.62639 42.4025 2.94666 39.8633C2.26693 37.3081 1.63574 34.7529 1.15022 32.1495C0.648514 29.5621 0.324833 26.9266 0.179177 24.291C0.130625 23.6321 0.114441 22.9732 0.0982574 22.3143C0.0982574 21.6554 0.0820733 20.9965 0.0982574 20.3376C0.130625 19.0199 0.211577 17.686 0.373417 16.3843C0.535257 15.0665 0.778001 13.7648 1.0855 12.4792C1.37681 11.1935 1.76524 9.92391 2.07274 8.65434C2.36405 7.38476 2.57444 6.0831 2.55826 4.76531C2.55826 4.4439 2.52588 4.10641 2.5097 3.785C2.47733 3.46359 2.44497 3.14216 2.39642 2.80468C2.3155 2.14579 2.16982 1.50295 2.00798 0.860127Z" fill="#07453A"/>
<path d="M2.17 0.747559C2.38041 0.779699 2.54228 0.892157 2.67176 1.03679C2.80124 1.18142 2.93071 1.34215 3.02782 1.47071C3.14112 1.59927 3.23823 1.72783 3.35152 1.79211C3.46482 1.85639 3.62666 1.90458 3.78851 1.93672C4.11222 2.001 4.4683 1.9849 4.77582 1.90455C4.93767 1.85634 5.06714 1.79208 5.16425 1.67959C5.26136 1.5671 5.29374 1.42245 5.29374 1.26175L5.29374 1.24567C5.29374 1.19746 5.34231 1.14931 5.39086 1.14931C5.43942 1.14931 5.48795 1.18145 5.48795 1.22966L5.50415 1.37427C5.50415 1.42248 5.50415 1.48676 5.50415 1.53497C5.48797 1.64746 5.4556 1.74387 5.39086 1.84029C5.26138 2.03313 5.08333 2.1456 4.88911 2.22595C4.50067 2.37058 4.11222 2.40271 3.70759 2.37057C3.51337 2.33843 3.31915 2.30635 3.10875 2.19386C2.89834 2.08137 2.75269 1.92065 2.6394 1.77602C2.50991 1.63139 2.41279 1.50283 2.29949 1.37427C2.1862 1.24571 2.07289 1.11717 2.00815 0.908259C1.99197 0.843979 2.02434 0.779636 2.08908 0.763566C2.13763 0.747496 2.15382 0.747559 2.17 0.747559Z" fill="#07453A"/>
<path d="M2.71996 6.5331C2.93035 6.67773 3.12455 6.83841 3.31876 6.98304C3.51297 7.12768 3.70717 7.28835 3.91756 7.43299C4.32216 7.72226 4.74295 7.99546 5.17992 8.23652C6.07004 8.7347 6.96015 9.23294 7.88263 9.65078C8.80512 10.0686 9.75997 10.4221 10.7472 10.6471L12.2361 10.9846C12.7378 11.0971 13.2234 11.1775 13.7251 11.1614C13.7736 11.1614 13.8221 11.2096 13.8221 11.2578C13.8221 11.306 13.7898 11.3543 13.7251 11.3543C13.2072 11.4025 12.6731 11.3382 12.1552 11.2578L11.3945 11.1132C11.1518 11.065 10.8929 11.0328 10.6339 10.9685C9.61432 10.7596 8.62709 10.4221 7.67223 10.0204C6.71738 9.6186 5.81108 9.10438 4.92096 8.60619C4.46781 8.34906 4.01466 8.0919 3.59388 7.77048C3.1731 7.46514 2.78467 7.0795 2.52572 6.61345C2.49335 6.56524 2.52573 6.50089 2.57428 6.46875C2.63902 6.50089 2.68759 6.51702 2.71996 6.5331Z" fill="#07453A"/>
<path d="M0.48662 18.8918C1.13398 20.7399 1.79751 22.5719 2.52579 24.3878C3.25407 26.2038 4.03091 27.9877 4.92104 29.7233C5.79498 31.4589 6.74984 33.1624 7.91509 34.7212C8.2064 35.1069 8.51389 35.4765 8.83757 35.8301C8.91849 35.9265 8.99941 36.0069 9.08033 36.0872L9.12889 36.1354C9.27455 36.2157 8.93468 35.9265 8.75665 36.2961L8.75665 36.2479L8.77285 36.0711C8.78903 35.8301 8.80523 35.6051 8.78905 35.364C8.77287 34.4159 8.61102 33.4516 8.38445 32.5195C7.91511 30.6393 7.20299 28.8234 6.45852 27.0235C6.08629 26.1235 5.69789 25.2235 5.34184 24.3075C4.98579 23.3915 4.62973 22.4755 4.32223 21.5434C4.24131 21.3023 4.17657 21.0774 4.11183 20.8363L3.93383 20.1131L3.83671 19.7596L3.78815 19.5828C3.78815 19.5506 3.77199 19.5185 3.77199 19.4863L3.75579 19.39C3.73961 19.2614 3.72343 19.1328 3.72343 19.0042C3.72343 18.9399 3.72341 18.8757 3.73959 18.7953C3.73959 18.7632 3.75579 18.715 3.75579 18.6668C3.75579 18.6346 3.77197 18.6186 3.78815 18.5864C3.80434 18.5543 3.83671 18.506 3.91763 18.4578C3.95 18.4418 3.99856 18.4257 4.04711 18.4257C4.07948 18.4257 4.12801 18.4417 4.14419 18.4417C4.20893 18.4739 4.19277 18.4739 4.20895 18.4739L4.28987 18.5221L4.45171 18.6346C4.565 18.715 4.64591 18.7953 4.7592 18.8757L5.03432 19.1489L5.27708 19.4381C5.60076 19.8399 5.85972 20.2577 6.10248 20.6916C6.588 21.5594 6.99259 22.4594 7.46193 23.2951C7.96363 24.1147 8.49773 24.9343 9.06417 25.7378C10.1809 27.3449 11.3785 28.8876 12.6085 30.4143C13.2235 31.1696 13.8546 31.941 14.4696 32.6802C15.1008 33.4355 15.7482 34.1426 16.5088 34.7533C16.6869 34.8979 16.8811 35.0587 17.0753 35.1712C17.0915 35.1872 17.1238 35.2033 17.1238 35.2033C17.1238 35.2033 17.1238 35.2033 17.1076 35.2033C17.1076 35.2033 17.0753 35.2033 17.0591 35.2033C17.0105 35.2194 16.9944 35.2354 16.9944 35.2354C16.9782 35.2515 16.9782 35.2515 16.9944 35.2354C16.9944 35.2194 17.0105 35.2033 17.0105 35.1872C17.0267 35.1069 17.0267 34.9783 17.0267 34.8658C17.0105 34.3998 16.9134 33.9177 16.8002 33.4517C16.7031 32.9856 16.5736 32.5035 16.4441 32.0535C16.3793 31.8285 16.2822 31.6035 16.2013 31.3785L15.9424 30.7036C15.2141 28.9037 14.3402 27.152 13.5148 25.3681C13.1102 24.4843 12.7056 23.5843 12.3495 22.6683C12.0097 21.7523 11.6374 20.8523 11.2976 19.9203C11.2167 19.6953 11.1357 19.4542 11.071 19.2132C11.0386 19.1007 11.0063 18.9721 10.9739 18.8596C10.9577 18.7953 10.9415 18.7311 10.9253 18.6668C10.9253 18.6507 10.9253 18.6346 10.9091 18.6024C10.9091 18.5864 10.9091 18.5703 10.9091 18.5221C10.9253 18.4417 11.1681 18.3293 11.071 18.3775L11.1843 18.3614C11.4756 18.3453 11.7507 18.4257 11.9773 18.5221C12.2201 18.6185 12.4304 18.7471 12.657 18.8918C13.0778 19.165 13.4662 19.4863 13.8385 19.8077C14.2107 20.1291 14.5829 20.4828 14.9066 20.8363C16.2499 22.2987 17.2695 24.0182 18.1596 25.7699C18.3862 26.2038 18.5966 26.6538 18.807 27.0877C19.0174 27.5377 19.2116 27.9877 19.4058 28.4376C19.6 28.8876 19.778 29.3536 19.9561 29.8036L20.2312 30.4786L20.3768 30.816L20.4416 30.9767L20.4739 31.0571L20.4901 31.1054L20.5063 31.1214C20.5872 31.1857 20.3768 30.9607 20.2797 31.0732L20.2635 31.0893C20.2473 31.0893 20.2473 31.1054 20.2473 31.1054C20.2473 31.1054 20.2473 31.0893 20.2635 31.0893C20.2635 31.0732 20.2797 31.0411 20.2797 31.0089C20.2959 30.9446 20.2959 30.8803 20.2959 30.816C20.3121 30.6875 20.3121 30.5589 20.3121 30.4304C20.3283 30.1732 20.3121 29.9 20.3121 29.6429C20.3121 29.3697 20.2959 29.1126 20.2797 28.8394C20.2797 28.7108 20.2635 28.5823 20.2473 28.4537C20.2311 28.3252 20.215 28.1966 20.1988 28.052C20.1341 27.5216 20.0208 27.0073 19.8913 26.4931C19.7618 25.9788 19.6 25.4646 19.4058 24.9825C19.0335 23.9861 18.5318 23.0379 17.9492 22.154C17.3666 21.2541 16.6707 20.4506 16.0395 19.5667C15.7158 19.1328 15.4245 18.6667 15.1656 18.2007C15.1332 18.1364 15.1008 18.0722 15.0684 18.0079C15.0522 17.9757 15.0361 17.9436 15.0199 17.8793C15.0199 17.8793 15.0199 17.8632 15.0199 17.8472C15.0199 17.8472 15.0199 17.8151 15.0199 17.7829C15.0199 17.7829 15.0361 17.7346 15.0523 17.7186C15.0846 17.6864 15.0684 17.7026 15.0846 17.7026L15.1008 17.6865C15.1332 17.6704 15.1494 17.6543 15.1818 17.6543C15.2789 17.6222 15.3598 17.6382 15.4407 17.6543C15.5216 17.6704 15.5863 17.7025 15.6511 17.7186C15.91 17.8311 16.1528 17.9757 16.3794 18.1203C16.8325 18.4096 17.2695 18.7471 17.6903 19.0686C17.8036 19.1489 17.9007 19.2293 18.014 19.3096L18.3538 19.5346L19.0174 20.0006C19.8913 20.6274 20.7652 21.238 21.7525 21.6719C22.238 21.8808 22.7397 22.0576 23.2738 22.154C23.7917 22.2505 24.3257 22.2987 24.8598 22.2987C24.9083 22.2987 24.9569 22.3469 24.9569 22.3951C24.9569 22.4433 24.9083 22.4915 24.8598 22.4915C24.3095 22.4915 23.7755 22.4594 23.2252 22.3469C22.6911 22.2505 22.1571 22.0737 21.6554 21.8648C20.652 21.4309 19.7618 20.8042 18.8717 20.1774L18.2082 19.7114L17.8683 19.4863C17.755 19.406 17.6417 19.3256 17.5446 19.2453C17.1076 18.9239 16.6869 18.6025 16.2337 18.3132C16.0071 18.1686 15.7806 18.04 15.5378 17.9436C15.4731 17.9275 15.4245 17.8954 15.3598 17.8954C15.3112 17.8793 15.2465 17.8793 15.2141 17.8954C15.1979 17.8954 15.1979 17.8954 15.1979 17.8954C15.1979 17.8954 15.1817 17.9114 15.2141 17.8793C15.2303 17.8632 15.2465 17.8311 15.2465 17.8311C15.2627 17.7829 15.2465 17.7989 15.2465 17.7989C15.2465 17.815 15.2627 17.8472 15.2788 17.8633C15.3112 17.9115 15.3274 17.9757 15.3598 18.04C15.6187 18.506 15.91 18.956 16.2175 19.3739C16.8487 20.2256 17.5608 21.0452 18.1596 21.9612C18.7584 22.8612 19.2601 23.8254 19.6485 24.8378C19.8427 25.336 20.0046 25.8664 20.1503 26.3806C20.2797 26.911 20.393 27.4413 20.4739 27.9716C20.4901 28.1002 20.5063 28.2448 20.5225 28.3734C20.5387 28.5019 20.5549 28.6466 20.5549 28.7751C20.571 29.0483 20.5872 29.3215 20.5872 29.5787C20.5872 29.8519 20.5872 30.125 20.5872 30.3822C20.5872 30.5107 20.571 30.6554 20.571 30.8C20.571 30.8643 20.5548 30.9446 20.5387 31.0089C20.5387 31.0411 20.5225 31.0893 20.5063 31.1214C20.5063 31.1375 20.4901 31.1696 20.4739 31.1857L20.4577 31.2339C20.4415 31.25 20.4254 31.2821 20.4092 31.2981L20.393 31.3142C20.2797 31.4107 20.0693 31.1696 20.1503 31.2178L20.1341 31.2018L20.1179 31.1535L20.0855 31.0732L20.0208 30.8964L19.8751 30.559L19.5838 29.884C19.4058 29.4179 19.2277 28.968 19.0335 28.518C18.8393 28.068 18.6613 27.6181 18.4509 27.1842C18.2405 26.7503 18.0301 26.3003 17.8036 25.8663C16.9134 24.1307 15.91 22.4433 14.5991 21.013C14.2754 20.6595 13.9194 20.322 13.5471 20.0167C13.1749 19.6953 12.8027 19.3899 12.3981 19.1328C12.2039 19.0043 11.9935 18.8917 11.7831 18.7953C11.5727 18.6989 11.3461 18.6346 11.1519 18.6507L11.0872 18.6507C10.9739 18.715 11.2005 18.5864 11.2167 18.5221C11.2328 18.4899 11.2167 18.49 11.2167 18.49L11.2167 18.5061C11.2328 18.5543 11.2328 18.6186 11.249 18.6668C11.2814 18.7793 11.3137 18.8917 11.3461 19.0042C11.4108 19.2292 11.4918 19.4703 11.5727 19.6953C11.8964 20.6113 12.2686 21.5113 12.6247 22.4273C12.9807 23.3272 13.3691 24.2271 13.7899 25.111C14.6153 26.8788 15.4893 28.6305 16.2337 30.4625L16.5088 31.1535C16.5898 31.3946 16.6868 31.6035 16.7678 31.8606C16.9134 32.3427 17.0267 32.8088 17.14 33.291C17.2371 33.7731 17.3504 34.2551 17.3666 34.7694C17.3666 34.898 17.3666 35.0265 17.3504 35.1872C17.3504 35.2194 17.3342 35.2676 17.318 35.3158C17.2857 35.364 17.2695 35.4123 17.2048 35.4605C17.2048 35.4605 17.1724 35.4926 17.1076 35.5087C17.0753 35.5087 17.0267 35.5087 17.0105 35.5087C16.9943 35.5087 16.962 35.4926 16.962 35.4926C16.9458 35.4926 16.9296 35.4765 16.9296 35.4765C16.881 35.4604 16.8487 35.4444 16.8163 35.4283C16.5736 35.2837 16.3955 35.123 16.2013 34.9623L15.9262 34.7212C15.8291 34.6409 15.732 34.5605 15.6511 34.4802C15.4731 34.3034 15.295 34.1426 15.117 33.9659C14.7771 33.6123 14.4535 33.2427 14.1298 32.857C13.4986 32.1017 12.8836 31.3464 12.2524 30.5911C11.0224 29.0644 9.80863 27.5216 8.69193 25.8985C8.12549 25.095 7.59141 24.2753 7.07352 23.4236C6.588 22.5558 6.1834 21.672 5.69788 20.8202C5.45512 20.4024 5.19619 20.0006 4.90488 19.631L4.67828 19.3578L4.43551 19.1167C4.33841 19.0524 4.25751 18.9721 4.17659 18.8918L4.03091 18.7953L3.96619 18.7471C3.96619 18.7471 3.93382 18.7311 3.96619 18.7471C3.98238 18.7471 3.99857 18.7631 4.01475 18.7631C4.04712 18.7631 4.07949 18.7632 4.09567 18.7471C4.14423 18.715 4.16039 18.6989 4.16039 18.6989C4.16039 18.6828 4.16039 18.6989 4.16039 18.6989C4.16039 18.715 4.16038 18.7311 4.14419 18.7471C4.14419 18.7954 4.14419 18.8436 4.14419 18.9078C4.14419 19.0203 4.16041 19.1328 4.17659 19.2453L4.19275 19.3256C4.19275 19.3578 4.20895 19.3738 4.20895 19.406L4.25751 19.5828L4.35459 19.9363L4.53263 20.6434C4.59737 20.8684 4.6783 21.1094 4.74304 21.3344C5.03435 22.2505 5.39037 23.1665 5.7626 24.0664C6.11865 24.9664 6.50709 25.8664 6.87932 26.7824C7.62379 28.5984 8.35205 30.4303 8.83757 32.3427C9.08033 33.307 9.2422 34.2873 9.27457 35.2837C9.29076 35.5408 9.27456 35.7818 9.25837 36.0389L9.24217 36.2318L9.24217 36.28C9.06415 36.6657 8.69191 36.3604 8.83757 36.4407L8.80521 36.4086L8.72429 36.3283C8.62719 36.2318 8.54629 36.1515 8.46537 36.055C8.1255 35.6854 7.81798 35.2997 7.51049 34.914C6.31287 33.3391 5.34183 31.6036 4.48408 29.8358C3.61014 28.068 2.83332 26.2681 2.15359 24.4361C1.45767 22.604 0.858861 20.7398 0.292419 18.8596C0.276235 18.8114 0.308588 18.7471 0.35714 18.7311C0.421876 18.8114 0.470436 18.8435 0.48662 18.8918Z" fill="#07453A"/>
</svg>
