<svg width="77" height="59" viewBox="0 0 77 59" fill="none" xmlns="http://www.w3.org/2000/svg">
<path d="M27.3842 46.5508C26.834 45.5865 26.4294 44.558 25.9601 43.5616C25.8468 43.3206 25.7172 43.0795 25.5877 42.8384C25.523 42.7259 25.4584 42.5974 25.3936 42.4849C25.3289 42.3724 25.264 42.2599 25.1831 42.1474C24.8756 41.7296 24.4549 41.376 24.0826 40.9261C23.9046 40.7011 23.7427 40.4439 23.6456 40.1547C23.5323 39.8493 23.5486 39.5118 23.6134 39.2226C23.759 38.628 24.0827 38.1619 24.1959 37.6798C24.2607 37.4387 24.2607 37.1977 24.1959 36.9888C24.1312 36.7959 23.9693 36.6192 23.7589 36.4263C23.6618 36.3299 23.5648 36.2174 23.4677 36.0888C23.3706 35.9603 23.2896 35.7995 23.241 35.6388C23.1601 35.3014 23.2249 34.9799 23.2734 34.7067C23.3382 34.4335 23.3867 34.1925 23.3543 33.9836C23.3382 33.8871 23.2896 33.7747 23.241 33.6782C23.1925 33.5818 23.1116 33.4693 23.0307 33.3729C22.8688 33.164 22.6746 32.9711 22.4966 32.714C22.3186 32.4569 22.1892 32.1516 22.2053 31.798C22.2215 31.4444 22.3833 31.1552 22.5451 30.9141C22.707 30.6731 22.8851 30.4641 23.0145 30.2552C23.0793 30.1427 23.1277 30.0463 23.1601 29.9338C23.1763 29.8856 23.1925 29.8213 23.1925 29.7731C23.1925 29.741 23.1925 29.7249 23.1925 29.6927L23.1925 29.6124C23.1763 29.3874 23.0792 29.1624 22.9497 28.9374C22.8203 28.7124 22.6584 28.4875 22.5127 28.2303C22.3671 27.9732 22.2538 27.6839 22.2215 27.3625C22.1891 27.0411 22.3024 26.7197 22.4481 26.4465C22.5938 26.1894 22.7717 25.9644 22.9173 25.7394C23.063 25.5144 23.1926 25.3055 23.2573 25.0805C23.322 24.8555 23.2896 24.6466 23.1925 24.4216C23.0954 24.1966 22.9337 23.9717 22.8042 23.7306C22.6585 23.4735 22.5291 23.1681 22.5614 22.8145C22.5614 22.6538 22.6261 22.4771 22.707 22.3324C22.7879 22.1878 22.9012 22.0593 22.9983 21.9628C23.2087 21.7539 23.4191 21.5932 23.581 21.4004C23.6619 21.3039 23.7105 21.2236 23.7428 21.1111C23.7914 20.9825 23.8399 20.87 23.8723 20.7415C23.9046 20.629 23.9208 20.5004 23.9047 20.404C23.9047 20.3075 23.856 20.2111 23.8075 20.0986C23.6942 19.8737 23.5323 19.6487 23.4029 19.3594C23.3381 19.2147 23.3058 19.038 23.3058 18.8773C23.3058 18.7166 23.3544 18.5398 23.4191 18.3952C23.5486 18.0898 23.759 17.8809 23.9371 17.672C24.1151 17.4631 24.2769 17.2702 24.3578 17.0613C24.4387 16.8363 24.4873 16.5792 24.5035 16.3221C24.5197 16.0649 24.5196 15.7917 24.5196 15.5185C24.5196 14.9721 24.5357 14.3775 24.7785 13.8151C25.264 12.8026 25.863 11.8545 26.5265 10.9706C27.19 10.0867 27.9183 9.23498 28.7274 8.4636C29.132 8.0779 29.5529 7.72435 29.9251 7.33866C30.2974 6.95297 30.6371 6.53511 30.8475 6.06906C31.0741 5.58695 31.2683 5.07271 31.4139 4.55845C31.5596 4.04419 31.673 3.51384 31.7863 2.96744C31.8996 2.42105 32.0452 1.89072 32.2394 1.36039C32.288 1.23183 32.3364 1.10328 32.385 0.974714C32.4335 0.846149 32.4982 0.717601 32.5468 0.589037L32.5955 0.492598L32.6116 0.444378C32.6278 0.428308 32.5954 0.460441 32.644 0.396159C32.644 0.251524 33.0972 0.364049 33.0001 0.428331C33.0324 0.492613 33.0323 0.50866 33.0323 0.524731L33.0486 0.57295L33.0486 0.605084L33.0486 0.637217L33.178 1.03898L33.4208 1.82646C33.437 1.89074 33.4694 1.95502 33.4856 2.0193C33.5018 2.08358 33.5179 2.16394 33.5341 2.22822C33.5665 2.37286 33.5826 2.51748 33.5988 2.66212C33.6473 3.22459 33.6149 3.78704 33.5988 4.33344C33.5988 4.60664 33.5827 4.87984 33.615 5.13696C33.6312 5.26553 33.6312 5.39412 33.6636 5.52268C33.6797 5.65125 33.712 5.74766 33.7606 5.87623C33.8577 6.10121 34.0196 6.32622 34.1815 6.53513C34.2624 6.64763 34.3433 6.7601 34.4242 6.87259C34.4566 6.93687 34.5052 6.9851 34.5376 7.04938C34.5699 7.11366 34.6184 7.19399 34.6346 7.22613C34.7479 7.41898 34.9745 7.56362 35.201 7.75647C35.3143 7.85289 35.4276 7.98146 35.4923 8.1261C35.557 8.27073 35.6056 8.43145 35.6218 8.57608C35.6541 8.88142 35.6218 9.1707 35.6056 9.42783C35.5894 9.68496 35.6056 9.94209 35.7027 10.151C35.8969 10.601 36.3662 10.9384 36.6737 11.4527C36.8355 11.7098 36.9327 12.0313 36.9327 12.3205C36.9489 12.6259 36.9165 12.8991 36.9003 13.1562C36.8842 13.4133 36.9166 13.6704 37.0137 13.8794C37.127 14.1043 37.2725 14.3133 37.4344 14.5222C37.7742 14.94 38.1951 15.3418 38.4378 15.8882C38.5673 16.1614 38.6158 16.4828 38.5997 16.7721C38.5997 17.0613 38.5512 17.3506 38.5026 17.6077C38.4703 17.8809 38.454 18.138 38.4863 18.3791C38.5187 18.6202 38.6482 18.8612 38.7615 19.0862C39.0204 19.5522 39.3765 19.9701 39.6516 20.4683C39.7973 20.7254 39.9106 20.9825 39.9753 21.2718C40.04 21.5611 40.0562 21.8825 39.9753 22.1717C39.8296 22.7663 39.4897 23.2163 39.3441 23.6984C39.1822 24.1966 39.1661 24.743 39.1337 25.2894C39.1175 25.5626 39.1013 25.8519 39.0528 26.1251L38.9233 26.9447C38.891 27.2179 38.8586 27.475 38.8748 27.7321C38.891 27.9732 38.988 28.2303 39.0528 28.5035C39.1337 28.7767 39.1822 29.0981 39.1013 29.4035C39.0204 29.7088 38.8586 29.966 38.713 30.1909C38.5511 30.4159 38.3893 30.6409 38.2599 30.8659C38.1951 30.9784 38.1626 31.0909 38.1303 31.2194C38.0979 31.3319 38.098 31.4605 38.098 31.5891C38.098 32.1033 38.2759 32.6336 38.2921 33.2283C38.2921 33.3729 38.276 33.5175 38.2436 33.6622C38.2112 33.8068 38.1628 33.9514 38.098 34.08C37.9847 34.3532 37.8228 34.5943 37.6447 34.8032C37.3049 35.2532 36.8842 35.6228 36.5605 36.0567C36.3987 36.2656 36.2531 36.4906 36.1559 36.7316C36.0588 36.9727 35.9941 37.2298 35.9617 37.4869C35.897 38.0173 35.9456 38.5637 35.9132 39.1261C35.897 39.3993 35.8485 39.6886 35.7513 39.9618C35.6542 40.235 35.4924 40.4922 35.3144 40.7171C34.6023 41.6171 33.5827 42.1474 32.8058 42.8867C32.7087 42.9831 32.6116 43.0795 32.5307 43.1759L32.2555 43.4813C32.0613 43.6902 31.8672 43.883 31.673 44.0759C31.2684 44.4616 30.8314 44.8151 30.3782 45.1205C29.4719 45.7633 28.4523 46.2615 27.4003 46.5989C27.4489 46.615 27.3842 46.5829 27.3842 46.5508C27.368 46.4865 27.3841 46.4222 27.4489 46.4061C28.4846 46.0686 29.4718 45.5704 30.362 44.9276C30.8151 44.6062 31.236 44.2687 31.6244 43.883C31.8186 43.6902 32.0128 43.4973 32.207 43.3045L32.4822 42.9991C32.5793 42.8867 32.6763 42.7902 32.7734 42.6938C33.5826 41.9064 34.586 41.376 35.2496 40.5243C35.4114 40.3154 35.5571 40.0904 35.638 39.8493C35.7189 39.6083 35.7674 39.3512 35.7836 39.078C35.816 38.5476 35.7674 37.9852 35.816 37.4227C35.8484 37.1334 35.9131 36.8602 36.0264 36.587C36.1396 36.3138 36.2853 36.0728 36.4633 35.8478C36.8032 35.3978 37.2079 35.0121 37.5316 34.5943C37.6934 34.3853 37.8391 34.1604 37.9362 33.9193C37.9847 33.8068 38.0333 33.6782 38.0656 33.5658C38.0818 33.4372 38.098 33.3247 38.098 33.1961C38.098 32.6819 37.9038 32.1516 37.9038 31.5569C37.9038 31.4123 37.9199 31.2677 37.9523 31.107C37.9847 30.9623 38.0494 30.8177 38.1141 30.6891C38.2436 30.432 38.4217 30.207 38.5835 29.982C38.7292 29.757 38.8748 29.5321 38.9233 29.3071C38.9881 29.0821 38.9396 28.841 38.8748 28.5839C38.7939 28.3268 38.6968 28.0536 38.6806 27.7482C38.6644 27.459 38.6967 27.1697 38.7291 26.8965L38.8585 26.0769C38.8909 25.8197 38.9072 25.5465 38.9233 25.2733C38.9557 24.7269 38.972 24.1645 39.15 23.602C39.328 23.0396 39.6678 22.5896 39.7811 22.0914C39.9105 21.6093 39.7326 21.095 39.4737 20.645C39.2147 20.179 38.8587 19.7612 38.5835 19.263C38.4541 19.0059 38.3084 18.7487 38.2599 18.4434C38.2113 18.138 38.2275 17.8488 38.2599 17.5756C38.2922 17.3024 38.3408 17.0292 38.3408 16.7721C38.3408 16.5149 38.3084 16.2739 38.1951 16.0489C37.9847 15.5828 37.5962 15.1971 37.2401 14.7632C37.0621 14.5382 36.8841 14.3133 36.7546 14.0401C36.6252 13.7508 36.5929 13.4294 36.6091 13.1562C36.6253 12.8669 36.6577 12.5937 36.6415 12.3527C36.6253 12.0955 36.5604 11.8705 36.4309 11.6616C36.172 11.2277 35.6866 10.8902 35.4277 10.3278C35.282 10.0385 35.2819 9.7171 35.2981 9.42783C35.3143 9.13856 35.3467 8.88141 35.3144 8.64035C35.2982 8.52785 35.2657 8.39931 35.2172 8.30289C35.1686 8.20647 35.0877 8.1261 35.0068 8.04575C34.8288 7.86897 34.5699 7.72433 34.3757 7.43506C34.3272 7.35471 34.3109 7.30652 34.2624 7.25831C34.23 7.21009 34.1976 7.14581 34.1491 7.0976C34.0682 6.98511 33.9872 6.8726 33.9063 6.7601C33.7445 6.53512 33.5665 6.31011 33.4532 6.02084C33.3885 5.89228 33.3399 5.73158 33.3238 5.58695C33.2914 5.44231 33.2913 5.29769 33.2751 5.15305C33.2589 4.86378 33.259 4.59059 33.259 4.31739C33.2751 3.77099 33.3075 3.22458 33.259 2.69425C33.2428 2.56569 33.2266 2.43714 33.2104 2.30858C33.1943 2.24429 33.1781 2.18002 33.1619 2.11574C33.1457 2.05145 33.1295 1.98714 33.0971 1.92286L32.8544 1.15151L32.7249 0.765789L32.7249 0.733656C32.7249 0.733656 32.7086 0.701507 32.7086 0.685436L32.6925 0.62117L32.6764 0.57295C32.6764 0.55688 32.6602 0.540809 32.6764 0.57295C32.5793 0.621162 33.0163 0.733648 33.0001 0.605084C33.0324 0.556872 33.0001 0.605084 33.0001 0.605084L32.9838 0.653303L32.9353 0.749742C32.8867 0.878306 32.822 0.990768 32.7734 1.11933C32.7249 1.2479 32.6763 1.37647 32.6277 1.48896C32.4497 2.00322 32.3204 2.51747 32.1909 3.0478C32.0776 3.57812 31.9642 4.12454 31.8024 4.67094C31.6406 5.21733 31.4463 5.7316 31.2036 6.24586C30.9608 6.77618 30.5885 7.22613 30.2001 7.6279C29.8117 8.02966 29.3909 8.3993 28.9863 8.76892C28.2095 9.52424 27.4974 10.3599 26.8339 11.2277C26.1865 12.0955 25.5877 13.0276 25.1346 13.9918C24.9242 14.4418 24.9081 14.9721 24.9081 15.5185C24.9081 16.0649 24.9243 16.6435 24.7139 17.222C24.6006 17.5274 24.3901 17.7523 24.2121 17.9613C24.034 18.1702 23.8561 18.363 23.7752 18.5719C23.7267 18.6684 23.7104 18.7809 23.7104 18.8934C23.7104 18.9898 23.7267 19.1023 23.7752 19.2148C23.8561 19.4398 24.0179 19.6487 24.1635 19.9219C24.2283 20.0504 24.2931 20.2111 24.3093 20.3879C24.3254 20.5647 24.2931 20.7254 24.2607 20.87C24.2284 21.0147 24.1798 21.1593 24.115 21.2878C24.0665 21.4325 23.9694 21.5932 23.8723 21.7057C23.6781 21.9468 23.4514 22.1235 23.2734 22.3003C23.0954 22.4771 22.966 22.6539 22.966 22.8789C22.9498 23.0878 23.0306 23.3127 23.1601 23.5377C23.2896 23.7627 23.4515 23.9877 23.581 24.277C23.6457 24.4216 23.6942 24.5662 23.7104 24.743C23.7266 24.9037 23.7104 25.0805 23.678 25.2412C23.5971 25.5466 23.4353 25.8037 23.2734 26.0447C23.1116 26.2697 22.9498 26.4947 22.8203 26.7036C22.707 26.9286 22.6262 27.1375 22.6423 27.3625C22.6585 27.5875 22.7394 27.8125 22.8688 28.0375C22.9983 28.2625 23.1602 28.4875 23.3058 28.7285C23.4515 28.9856 23.581 29.2589 23.6134 29.5963L23.6295 29.7088C23.6295 29.757 23.6295 29.7892 23.6295 29.8374C23.6295 29.9178 23.6133 29.9981 23.5971 30.0785C23.5486 30.2392 23.4838 30.3838 23.4029 30.5124C23.2572 30.7695 23.063 30.9945 22.9173 31.2034C22.7717 31.4123 22.6746 31.6373 22.6585 31.8301C22.6585 31.9266 22.6746 32.039 22.707 32.1515C22.7394 32.264 22.8041 32.3604 22.8688 32.4569C23.0145 32.6658 23.1926 32.8587 23.3706 33.0836C23.5486 33.3086 23.7266 33.5818 23.7913 33.9193C23.8399 34.2568 23.7752 34.5621 23.7104 34.8193C23.6457 35.0764 23.6133 35.3174 23.6619 35.5264C23.7105 35.7192 23.856 35.896 24.0502 36.1049C24.2282 36.2978 24.4711 36.5227 24.5844 36.8602C24.6815 37.1816 24.6653 37.503 24.5844 37.8084C24.4226 38.403 24.115 38.869 24.0017 39.3511C23.937 39.5922 23.9371 39.8172 24.018 40.0422C24.0989 40.2672 24.2282 40.4921 24.3739 40.7011C24.6814 41.1189 25.1185 41.4885 25.4421 41.9706C25.4907 42.0349 25.5231 42.0992 25.5555 42.1635L25.6525 42.3402C25.7172 42.4688 25.782 42.5813 25.8467 42.7099C25.9762 42.967 26.0895 43.208 26.2028 43.4652C26.6398 44.4776 27.012 45.5062 27.4975 46.5025C27.5137 46.5507 27.4974 46.615 27.4489 46.6311C27.465 46.615 27.4004 46.5829 27.3842 46.5508Z" fill="#07453A"/>
<path d="M0.259821 4.79997C0.810077 5.04103 1.31188 5.39458 1.81358 5.6035C2.07252 5.71599 2.31525 5.76421 2.59038 5.76421C2.86551 5.78028 3.173 5.74813 3.4805 5.76421C3.64234 5.78028 3.80418 5.79635 3.96602 5.84456C4.12786 5.89277 4.28976 5.97312 4.43542 6.08562C4.71054 6.29453 4.8885 6.59985 5.01798 6.90519C5.13127 7.19446 5.21222 7.49983 5.29314 7.77303C5.37406 8.04623 5.47116 8.30333 5.61682 8.51225C5.76247 8.72117 5.95662 8.86581 6.19938 8.96224C6.44214 9.05866 6.71733 9.10687 6.99246 9.12294C7.28377 9.13901 7.57508 9.15509 7.88257 9.17116C8.19007 9.2033 8.51372 9.23544 8.82121 9.364C8.90213 9.39614 8.98312 9.4283 9.04785 9.46044L9.24193 9.57293C9.37141 9.63721 9.50094 9.71754 9.63041 9.7979C9.88936 9.9586 10.1321 10.1193 10.3748 10.2961C10.8603 10.6497 11.3297 11.0193 11.7829 11.3728C12.236 11.7424 12.7054 12.096 13.1909 12.4174C13.3042 12.4978 13.4336 12.5781 13.5631 12.6424C13.6926 12.7228 13.8058 12.787 13.9353 12.8513C14.1781 12.9799 14.4371 13.0763 14.7122 13.1406C15.2625 13.2531 15.8613 13.2531 16.4601 13.3174C16.7676 13.3495 17.075 13.4138 17.3663 13.5263L17.593 13.6227C17.6577 13.6709 17.7386 13.7031 17.8033 13.7513C17.949 13.8477 18.0622 13.9602 18.1755 14.0727C18.5963 14.5548 18.8068 15.1173 19.2114 15.4708C19.2599 15.519 19.3085 15.5512 19.3732 15.5994L19.5512 15.728C19.6645 15.8083 19.7939 15.8887 19.9234 15.969C20.1661 16.1297 20.4252 16.2904 20.6679 16.4351C21.1696 16.7404 21.6875 17.0136 22.2054 17.3029C22.7233 17.5922 23.2412 17.8814 23.7429 18.1868C23.7914 18.2189 23.8077 18.2832 23.7753 18.3314C23.7429 18.3796 23.6781 18.3957 23.6457 18.3635C23.144 18.0743 22.6262 17.785 22.0921 17.5118C21.5742 17.2386 21.0401 16.9654 20.5222 16.6761C20.2633 16.5315 20.0043 16.3868 19.7615 16.2261C19.6321 16.1458 19.5026 16.0654 19.3893 15.9851L19.1951 15.8565C19.1304 15.8083 19.0657 15.7601 19.001 15.7119C18.4993 15.294 18.2727 14.6994 17.9166 14.3137C17.8195 14.2173 17.7224 14.1209 17.6091 14.0566C17.5605 14.0245 17.4958 13.9923 17.4472 13.9602L17.253 13.8798C16.9941 13.7834 16.719 13.7352 16.4277 13.7031C15.8612 13.6388 15.2624 13.6548 14.6475 13.5424C14.34 13.4781 14.0325 13.3817 13.7573 13.237C13.6279 13.1727 13.4822 13.0924 13.3527 13.012C13.2233 12.9317 13.0937 12.8513 12.9643 12.771C12.4625 12.4495 11.977 12.096 11.5077 11.7264C11.0384 11.3567 10.5853 11.0032 10.0998 10.6657C9.85705 10.505 9.61429 10.3282 9.37153 10.1836C9.24206 10.1193 9.12865 10.039 8.99918 9.97469L8.80509 9.87825C8.74036 9.84611 8.69171 9.83004 8.62698 9.7979C8.14146 9.60505 7.54274 9.63722 6.94393 9.58901C6.63644 9.57294 6.31263 9.5247 6.00514 9.39613C5.69764 9.28364 5.40642 9.07475 5.21222 8.78548C5.01801 8.51228 4.90466 8.20692 4.82374 7.91765C4.74282 7.62838 4.66196 7.3552 4.56486 7.09807C4.46775 6.84094 4.32207 6.63202 4.12786 6.48738C3.93365 6.34275 3.70711 6.27844 3.43198 6.26237C3.15685 6.2463 2.86548 6.26239 2.55798 6.24632C2.25048 6.24632 1.89447 6.1499 1.61934 6.00526C1.0529 5.73206 0.615901 5.33029 0.130381 4.99281C0.0818289 4.96067 0.0818922 4.8964 0.11426 4.84819C0.162812 4.79998 0.211269 4.7839 0.259821 4.79997Z" fill="#07453A"/>
<path d="M37.7581 34.8192C38.0008 35.7673 37.7419 36.7315 37.7905 37.5993C37.7905 37.7118 37.8066 37.8083 37.839 37.9047C37.8552 38.0011 37.9038 38.0975 37.9523 38.21C38.0494 38.4029 38.1465 38.5957 38.276 38.7886C38.5349 39.1582 38.8424 39.5118 39.0852 39.9457C39.3441 40.3635 39.4898 40.8938 39.4574 41.392C39.4412 41.6331 39.4412 41.858 39.4089 42.0991C39.3765 42.3402 39.3603 42.5652 39.3279 42.8062C39.1985 43.7383 39.0043 44.6543 38.7939 45.5543C38.3731 47.3542 37.9362 49.1541 37.9847 50.9861L38.0008 51.3236L38.0332 51.6611L38.0656 51.9986C38.0656 52.0307 38.0818 52.095 38.098 52.1432L38.1465 52.32C38.1789 52.4325 38.1951 52.545 38.2275 52.6735C38.2275 52.7057 38.2436 52.7378 38.2436 52.77L38.2436 52.8342C38.2436 52.8503 38.2436 52.8664 38.2436 52.8824C38.2436 52.8664 38.2436 52.9788 38.1951 53.0271C38.1627 53.0592 38.1789 53.0432 38.1627 53.0592L38.1465 53.0753L38.098 53.1074C38.0657 53.1396 38.0332 53.1556 38.0008 53.1717C37.7581 53.3164 37.5316 53.3967 37.2888 53.461C36.8195 53.5896 36.3501 53.6378 35.8808 53.7021L35.1849 53.7985L34.8288 53.8467L34.4728 53.8788C32.5792 54.0234 30.6857 53.8467 28.8408 53.5092C26.9958 53.1878 25.167 52.7057 23.3867 52.1754C22.4966 51.9022 21.5741 51.6129 20.7325 51.1629C20.3117 50.9379 19.9071 50.6647 19.5511 50.3272C19.3731 50.1505 19.2113 49.9415 19.0819 49.7326C18.9686 49.5076 18.8713 49.2826 18.7904 49.0576C18.6448 48.5916 18.564 48.1416 18.4345 47.7077C18.3698 47.4988 18.2888 47.2899 18.1917 47.097C18.1432 47.0006 18.0784 46.9042 18.0299 46.8078C17.9652 46.7113 17.9004 46.6149 17.8357 46.5185C17.3178 45.7792 16.6542 45.1364 15.9906 44.4775C15.6669 44.1561 15.3271 43.8186 15.0035 43.4651C14.8416 43.2883 14.696 43.1116 14.5503 42.9187C14.4047 42.7259 14.259 42.5169 14.1457 42.308C13.9192 41.8741 13.7897 41.4241 13.6278 40.9902C13.5469 40.7813 13.4659 40.5724 13.3527 40.3796C13.3041 40.2831 13.2394 40.1867 13.1908 40.1064C13.1261 40.026 13.0613 39.9296 12.9966 39.8653C12.7053 39.56 12.3168 39.3189 11.9122 39.0779C11.5076 38.8368 11.0868 38.5636 10.7793 38.1618C10.6175 37.969 10.4882 37.7279 10.4234 37.4869C10.3587 37.2458 10.3263 37.0047 10.3101 36.7637C10.2777 36.2976 10.2776 35.8316 10.132 35.4459C9.98633 35.0441 9.69505 34.7067 9.35518 34.4013C9.0315 34.0799 8.65934 33.7746 8.36802 33.3728C8.22237 33.1639 8.0928 32.9389 8.02807 32.6978C7.94715 32.4568 7.91481 32.2157 7.89863 31.9747C7.86626 31.4925 7.91481 31.0265 7.89863 30.5765C7.88244 30.1426 7.78537 29.6927 7.52643 29.3712C7.26748 29.0338 6.86282 28.8088 6.49059 28.4874C6.31256 28.3267 6.13454 28.1338 6.00507 27.9088C5.8756 27.6839 5.82711 27.4106 5.82711 27.1696C5.82711 26.6714 5.95664 26.2054 5.97283 25.7715C5.98901 25.5465 5.97276 25.3375 5.90803 25.1447C5.87566 25.0483 5.82714 24.9358 5.77859 24.8394C5.73004 24.7269 5.6976 24.6304 5.63287 24.5179C5.43866 24.1001 5.22836 23.6983 5.00179 23.2966C4.54864 22.493 4.04681 21.7217 3.57747 20.9021C3.10814 20.0986 2.67117 19.2629 2.36367 18.3629C2.21802 17.8969 2.18571 17.4148 2.18571 16.9487C2.18571 16.4827 2.23426 16.0166 2.26663 15.5506C2.28282 15.1006 2.28282 14.6346 2.18571 14.2007C2.16953 14.0882 2.12104 13.9918 2.08867 13.8793C2.04012 13.7828 2.00769 13.6703 1.94295 13.5739C1.84585 13.3811 1.71634 13.1882 1.58687 12.9954C1.32793 12.6258 1.02043 12.2561 0.777674 11.8383C0.534914 11.4365 0.389322 10.9384 0.356954 10.4723C0.292218 9.50808 0.551193 8.60813 0.470273 7.69211C0.405537 6.77609 0.162778 5.87612 0.0656738 4.94403C0.0656738 4.89582 0.0979786 4.83154 0.162714 4.83154C0.211266 4.83154 0.25985 4.86368 0.276034 4.9119C0.389322 5.82792 0.632018 6.72788 0.696754 7.65997C0.777674 8.60813 0.534978 9.54019 0.599714 10.4401C0.632082 10.8901 0.761459 11.324 0.988034 11.7097C1.21461 12.0954 1.52211 12.449 1.79723 12.8347C1.94289 13.0275 2.07242 13.2204 2.18571 13.4293C2.25045 13.5257 2.299 13.6543 2.34755 13.7507C2.37992 13.8632 2.4285 13.9757 2.46087 14.1042C2.57416 14.5863 2.5741 15.0524 2.55791 15.5184C2.54173 15.9845 2.49327 16.4506 2.49327 16.9005C2.49327 17.3505 2.52558 17.8004 2.67123 18.2344C2.96254 19.0861 3.39957 19.9057 3.86891 20.7092C4.33824 21.4967 4.85613 22.2842 5.32547 23.0877C5.55204 23.4894 5.77862 23.9073 5.97283 24.3412C6.02138 24.4536 6.06984 24.5501 6.11839 24.6626C6.16694 24.7751 6.21546 24.8715 6.24783 25.0001C6.32875 25.2411 6.34493 25.4982 6.32875 25.7554C6.29638 26.2375 6.167 26.7035 6.18319 27.1214C6.18319 27.3303 6.23164 27.5392 6.32875 27.716C6.42585 27.8927 6.57151 28.0534 6.73335 28.1981C7.05703 28.4874 7.47784 28.7284 7.81771 29.1302C7.97955 29.323 8.09293 29.5802 8.15766 29.8051C8.2224 30.0462 8.25464 30.2873 8.27083 30.5283C8.28701 31.0104 8.23846 31.4765 8.27083 31.9104C8.28701 32.1354 8.31941 32.3443 8.38414 32.5532C8.44888 32.7621 8.54595 32.9389 8.67542 33.1157C8.93437 33.4692 9.27436 33.7585 9.61422 34.096C9.95409 34.4174 10.2939 34.8031 10.4719 35.2852C10.65 35.7673 10.6338 36.2655 10.6662 36.7155C10.6985 37.1654 10.7794 37.5833 11.0545 37.9047C11.3134 38.2422 11.7019 38.4832 12.0903 38.7243C12.4788 38.9653 12.9158 39.2064 13.2556 39.576C13.6117 39.9457 13.8059 40.3957 13.9839 40.8456C14.1457 41.2956 14.2751 41.7295 14.4855 42.1152C14.5826 42.308 14.696 42.4848 14.8416 42.6616C14.9873 42.8383 15.133 43.0151 15.2786 43.1759C15.5861 43.5133 15.9098 43.8347 16.2497 44.1722C16.9132 44.8311 17.5928 45.4739 18.1431 46.2614C18.2078 46.3578 18.2887 46.4542 18.3373 46.5667C18.402 46.6631 18.4669 46.7756 18.5154 46.8881C18.6287 47.1131 18.7257 47.3381 18.7904 47.5631C18.9361 48.0291 19.0171 48.4791 19.1628 48.8969C19.2275 49.1059 19.3084 49.3148 19.4216 49.5076C19.5188 49.7005 19.6483 49.8612 19.8101 50.0058C20.1338 50.3112 20.506 50.5522 20.9106 50.7772C21.7036 51.2111 22.5936 51.4843 23.4838 51.7414C25.264 52.2557 27.0766 52.7378 28.9054 53.0592C30.7342 53.3806 32.5954 53.5574 34.4242 53.3967L34.764 53.3646L35.104 53.3163L35.7999 53.2199C36.2692 53.1557 36.7223 53.0914 37.1431 52.9789C37.3535 52.9146 37.5638 52.8503 37.7257 52.7539C37.7419 52.7378 37.7582 52.7217 37.7743 52.7217L37.7905 52.7057L37.8066 52.6896C37.8066 52.6896 37.8228 52.6735 37.8066 52.6896C37.758 52.7217 37.7581 52.8182 37.7581 52.8021L37.7581 52.77L37.7419 52.6896C37.7258 52.5932 37.6934 52.4807 37.661 52.3682L37.6125 52.2075C37.5963 52.1432 37.58 52.095 37.5638 52.0146L37.5316 51.6611L37.4992 51.3075L37.4829 50.954C37.4505 50.0058 37.5477 49.0577 37.7095 48.1416C37.8714 47.2095 38.0817 46.3096 38.2921 45.4096C38.5025 44.5097 38.713 43.6097 38.8424 42.7098C38.8748 42.4848 38.891 42.2598 38.9233 42.0348C38.9395 41.8098 38.9557 41.5849 38.9719 41.3599C39.0042 40.926 38.891 40.5242 38.6806 40.1385C38.4702 39.7528 38.1789 39.3993 37.9199 38.9975C37.7904 38.7886 37.6772 38.5797 37.5801 38.3547C37.5316 38.2422 37.4992 38.1297 37.4668 38.0011C37.4344 37.8725 37.4345 37.744 37.4183 37.6315C37.4021 37.1333 37.4992 36.6833 37.5316 36.2173C37.5801 35.7673 37.5963 35.3013 37.5316 34.8674C37.5154 34.8191 37.564 34.7549 37.6125 34.7549C37.6934 34.7388 37.7419 34.771 37.7581 34.8192Z" fill="#07453A"/>
<path d="M68.6372 4.10788C67.8766 4.73463 67.1646 5.42566 66.3392 6.03635C65.9346 6.32562 65.4814 6.59881 65.0121 6.79165C64.5428 6.9845 64.0573 7.1452 63.5879 7.3059C63.1186 7.46661 62.6493 7.61127 62.2123 7.82019C61.7753 8.01304 61.3706 8.27016 61.0307 8.5755C60.9336 8.65585 60.8689 8.73618 60.788 8.8326C60.7394 8.88082 60.7233 8.91296 60.6909 8.96118C60.6586 9.00939 60.6262 9.04154 60.61 9.08975C60.5129 9.2826 60.4482 9.4915 60.4321 9.71648C60.3835 10.1665 60.4644 10.6486 60.5291 11.1307C60.5938 11.6289 60.6586 12.1431 60.5615 12.6895C60.5291 12.8181 60.4968 12.9627 60.4321 13.0913C60.3997 13.1556 60.3835 13.2199 60.3511 13.2842L60.2539 13.4609L60.1569 13.6377C60.1245 13.6859 60.0759 13.7502 60.0436 13.7984C59.9627 13.9109 59.8979 14.0073 59.8008 14.1037C59.1211 14.8912 58.2634 15.4537 57.5189 16.0804C57.1467 16.4018 56.8067 16.7232 56.5316 17.1089C56.2565 17.4946 56.0624 17.9125 55.9814 18.3624C55.9005 18.8124 55.9328 19.2945 56.0137 19.7606C56.0946 20.2427 56.2079 20.7248 56.2888 21.223C56.3698 21.7212 56.4022 22.2515 56.3212 22.7658C56.2403 23.2801 56.0947 23.7622 55.9166 24.2443C55.5768 25.1924 55.1884 26.0924 55.1398 27.0405C55.0751 27.9726 55.4959 28.8726 55.949 29.7404C56.1756 30.1743 56.4022 30.6243 56.5964 31.1064C56.645 31.2189 56.6773 31.3475 56.7258 31.476L56.8392 31.8296C56.9201 32.0706 56.9848 32.3117 57.0495 32.5527C57.5836 34.4651 58.0205 36.4097 58.7164 38.2417C59.0725 39.1577 59.4934 40.0416 60.0274 40.8612C60.0922 40.9576 60.1568 41.0701 60.2215 41.1666L60.4321 41.4558C60.513 41.5522 60.5776 41.6487 60.6585 41.7451L60.9013 42.0183C60.9822 42.1147 61.0631 42.2112 61.1441 42.2915C61.1764 42.3236 61.2088 42.3718 61.2574 42.3879L61.3222 42.4361L61.3868 42.4683C61.5648 42.5647 61.7915 42.5968 62.0181 42.5807C62.4712 42.5486 62.9405 42.3879 63.3774 42.1951C63.8144 42.0022 64.2514 41.7451 64.656 41.488C65.4814 40.9576 66.2744 40.363 67.0512 39.7523C68.6049 38.531 70.1263 37.2453 71.4048 35.7508C71.7123 35.3811 72.0197 34.9794 72.2786 34.5776C72.5376 34.1759 72.748 33.742 72.9099 33.2759C73.2336 32.3599 73.4278 31.3957 73.622 30.4153C73.7191 29.9332 73.8162 29.4351 73.9294 28.953L74.2694 27.5066C74.496 26.5424 74.7063 25.5781 74.9005 24.6139C75.0947 23.6497 75.2727 22.6693 75.4345 21.689C75.5155 21.2069 75.5802 20.7088 75.6773 20.2266C75.7582 19.7445 75.8392 19.2624 75.8554 18.7642C75.8716 18.2821 75.8554 17.8 75.6936 17.3661C75.5317 16.9322 75.2404 16.5465 74.9005 16.1929C74.5606 15.8554 74.1722 15.534 73.8 15.1966C73.4278 14.8591 73.0717 14.4734 72.8451 14.0073C72.7803 13.8949 72.7481 13.7663 72.6995 13.6377C72.6672 13.5092 72.6347 13.3645 72.6347 13.2199C72.6509 12.9306 72.7643 12.6895 72.8938 12.4646C73.0232 12.2396 73.1688 12.0467 73.2821 11.8378C73.3954 11.6289 73.4763 11.42 73.4763 11.195C73.4763 10.97 73.3792 10.7771 73.2497 10.5682C73.1202 10.3593 72.9908 10.1665 72.829 9.98971C72.5053 9.62009 72.1492 9.29866 71.777 8.96118C71.4048 8.63977 71.0163 8.31836 70.6602 7.96481C70.3042 7.61126 69.9805 7.22557 69.6892 6.80774C69.1389 5.97207 68.7344 5.03996 68.5078 4.05966C68.4916 4.01145 68.524 3.94717 68.5887 3.94717C68.6373 3.9311 68.702 3.96325 68.702 4.02753C68.9124 4.97569 69.3171 5.89173 69.8673 6.69525C70.1424 7.09702 70.4499 7.48271 70.806 7.82019C71.162 8.15767 71.5505 8.47906 71.9227 8.80047C72.3111 9.12188 72.6832 9.45936 73.0069 9.84506C73.1688 10.0379 73.3307 10.2468 73.4602 10.4557C73.5897 10.6647 73.7191 10.9379 73.7191 11.2111C73.7191 11.5003 73.6219 11.7575 73.4924 11.9824C73.363 12.2074 73.2174 12.4164 73.1041 12.6253C72.9908 12.8342 72.8938 13.0431 72.8938 13.2681C72.8938 13.3163 72.8937 13.3806 72.9099 13.4288C72.9261 13.477 72.9261 13.5252 72.9423 13.5895C72.9908 13.702 73.0232 13.8145 73.0717 13.9109C73.2821 14.3287 73.6057 14.6984 73.978 15.0198C74.334 15.3572 74.7387 15.6626 75.0947 16.0162C75.4508 16.3697 75.7745 16.7875 75.9687 17.2857C76.1468 17.7839 76.179 18.3142 76.1628 18.8124C76.1466 19.3267 76.0658 19.8088 75.9849 20.307C75.9039 20.7891 75.8391 21.2873 75.7582 21.7694C75.6126 22.7497 75.4185 23.73 75.2404 24.6943C75.0462 25.6746 74.8358 26.6388 74.6092 27.603L74.2694 29.0494C74.1561 29.5315 74.059 30.0136 73.9618 30.4957C73.7676 31.4599 73.5734 32.4563 73.2336 33.4045C73.0717 33.8866 72.8452 34.3526 72.5701 34.7705C72.3111 35.2044 71.9875 35.6061 71.68 35.9918C70.3852 37.5346 68.8477 38.8202 67.2779 40.0577C66.4848 40.6684 65.708 41.279 64.8503 41.8254C64.4295 42.0986 63.9925 42.3558 63.5231 42.5647C63.0538 42.7736 62.5683 42.9504 62.0181 42.9825C61.7429 42.9986 61.4515 42.9664 61.1926 42.8218C61.1602 42.8057 61.1279 42.7897 61.0955 42.7736L60.9985 42.7093C60.9338 42.6772 60.8852 42.6129 60.8367 42.5647C60.7395 42.4683 60.6747 42.3718 60.5776 42.2754L60.3349 41.9861C60.2539 41.8897 60.1893 41.7772 60.1084 41.6808L59.8817 41.3755C59.8008 41.279 59.7361 41.1665 59.6714 41.054C59.1211 40.2023 58.6841 39.3024 58.3118 38.3703C57.5836 36.5061 57.1628 34.5455 56.6125 32.6492C56.5478 32.4081 56.4831 32.167 56.4022 31.942L56.2888 31.5885C56.2565 31.476 56.2079 31.3635 56.1755 31.251C55.9975 30.801 55.771 30.3671 55.5444 29.9332C55.3179 29.4833 55.0913 29.0333 54.9295 28.5512C54.7515 28.0691 54.6705 27.5387 54.6867 27.0084C54.7029 26.4781 54.8323 25.9799 54.978 25.4978C55.1237 25.0157 55.3178 24.5496 55.4796 24.0836C55.6415 23.6175 55.7871 23.1515 55.8518 22.6854C55.9328 22.2194 55.9005 21.7533 55.8196 21.2712C55.7387 20.7891 55.6254 20.307 55.5444 19.8088C55.4635 19.3106 55.4149 18.7803 55.512 18.25C55.6091 17.7196 55.8358 17.2375 56.1433 16.8036C56.4508 16.3697 56.8229 16.0162 57.2114 15.6787C57.9882 15.0198 58.8136 14.4734 59.4286 13.7502C59.5095 13.6699 59.5742 13.5734 59.639 13.477C59.6713 13.4288 59.7036 13.3806 59.736 13.3324L59.8169 13.1877L59.8979 13.0431C59.914 12.9949 59.9465 12.9467 59.9627 12.8985C60.0112 12.802 60.0273 12.6896 60.0597 12.5931C60.1406 12.1592 60.0922 11.6771 60.0274 11.195C59.9627 10.7129 59.8817 10.1986 59.9303 9.65222C59.9626 9.37902 60.0435 9.10583 60.173 8.86478C60.2054 8.80049 60.254 8.75227 60.2863 8.68798C60.3187 8.6237 60.3672 8.57549 60.4158 8.52728C60.5129 8.43086 60.5938 8.33442 60.6909 8.238C61.0793 7.88445 61.5325 7.61126 62.0181 7.40234C62.4874 7.19342 62.9729 7.03273 63.4422 6.88809C63.9277 6.74346 64.3971 6.5988 64.8503 6.42202C65.3034 6.24525 65.7241 6.00422 66.1287 5.73102C66.9379 5.18462 67.6825 4.50963 68.4917 3.93109C68.5402 3.89895 68.6049 3.91503 68.6372 3.94717C68.6858 4.01146 68.6696 4.05967 68.6372 4.10788Z" fill="#07453A"/>
<path d="M61.2734 42.6289C61.2734 42.87 61.225 43.0949 61.1603 43.3038C61.0955 43.5288 61.0308 43.7377 60.9336 43.9467C60.7556 44.3645 60.5615 44.7824 60.3511 45.1841C60.254 45.377 60.1407 45.5859 60.0274 45.7787L59.6875 46.3572L59.5904 46.5179C59.5581 46.5661 59.5257 46.6144 59.5095 46.6465C59.4933 46.6626 59.4932 46.6947 59.4932 46.6626L59.4932 46.6465C59.4932 46.6304 59.4932 46.6143 59.4932 46.5983L59.4932 46.6144C59.5094 46.6465 59.5257 46.6787 59.5419 46.7108C59.5904 46.7751 59.6551 46.8554 59.736 46.9197C59.7683 46.9518 59.8169 46.984 59.8493 47.0322L59.9141 47.0804L59.9465 47.1126C59.9789 47.1286 59.9788 47.1447 59.995 47.1447C60.0274 47.1768 60.0759 47.225 60.0921 47.2411L60.0759 47.2411L60.0597 47.2411C60.0435 47.2411 60.0112 47.2411 59.995 47.2411C59.9788 47.2411 59.9626 47.2411 59.9626 47.2572L59.9787 47.2572C59.9949 47.2572 60.0112 47.2411 60.0274 47.2411C60.0921 47.209 60.173 47.1286 60.2378 47.0643C60.3672 46.9197 60.4967 46.7429 60.61 46.5501C60.8365 46.1805 61.0146 45.7787 61.1764 45.3609C61.4839 44.5413 61.678 43.6574 61.8399 42.7896C61.8561 42.7414 61.9046 42.6932 61.9532 42.7092C62.0018 42.7253 62.0341 42.7735 62.0341 42.8217C61.9856 43.2717 61.9208 43.7217 61.8399 44.1556C61.759 44.6056 61.6457 45.0394 61.5001 45.4733C61.3544 45.9072 61.1763 46.3251 60.9498 46.7429C60.8365 46.9518 60.707 47.1447 60.5452 47.3375C60.4643 47.434 60.3672 47.5304 60.2539 47.6107C60.2215 47.6268 60.1892 47.6429 60.1569 47.6589L60.1245 47.675L60.1083 47.675C60.1083 47.675 60.0759 47.675 60.0759 47.6911C60.0436 47.6911 60.0112 47.6911 59.995 47.6911L59.9626 47.675C59.9464 47.675 59.9302 47.6589 59.9302 47.6589C59.914 47.6429 59.8978 47.6429 59.8978 47.6429C59.8331 47.5946 59.7845 47.5625 59.736 47.5143L59.7199 47.4982L59.6875 47.4661L59.6228 47.4179C59.5743 47.3857 59.5256 47.3375 59.4932 47.3054C59.3961 47.225 59.3153 47.1447 59.2343 47.0322C59.1858 46.984 59.1534 46.9197 59.121 46.8393C59.1048 46.8233 59.1049 46.7911 59.1049 46.7751L59.0886 46.7429C59.0886 46.7108 59.0886 46.6947 59.0886 46.6626C59.0886 46.6465 59.0886 46.6304 59.0886 46.6304C59.1048 46.5501 59.1211 46.534 59.1373 46.5019C59.1697 46.4376 59.202 46.3894 59.2343 46.3412L59.3153 46.1965C59.5418 45.7948 59.7684 45.4091 59.9626 45.0234C60.1568 44.6216 60.351 44.2199 60.5291 43.8181C60.7071 43.4164 60.8689 43.0146 61.1279 42.6128C61.1603 42.5646 61.2249 42.5485 61.2734 42.5807C61.2573 42.5646 61.2734 42.5968 61.2734 42.6289Z" fill="#07453A"/>
<path d="M38.1303 52.5771C38.3731 52.6735 38.5997 52.786 38.8101 52.9306C38.9234 52.9949 39.0205 53.0753 39.1176 53.1556C39.2147 53.236 39.3118 53.3163 39.4089 53.4128C39.7812 53.7663 40.121 54.1841 40.38 54.618C40.5094 54.843 40.6228 55.068 40.7361 55.3091C40.8332 55.5501 40.914 55.7912 40.9949 56.0483C41.0597 56.3054 41.1083 56.5786 41.0921 56.8518C41.076 57.1411 40.9949 57.4143 40.8816 57.6554L40.8979 57.6232C40.8979 57.6393 40.8816 57.6554 40.8816 57.6554L40.8816 57.6715L40.8655 57.6875L40.8494 57.7197L40.817 57.7678L40.7685 57.8643C40.7361 57.9286 40.7037 57.9929 40.6551 58.0411L40.5903 58.1375C40.5742 58.1536 40.5742 58.1696 40.5418 58.1857C40.5256 58.2018 40.5257 58.2018 40.4933 58.2339C40.4771 58.2339 40.4771 58.25 40.4609 58.25L40.4285 58.2661C40.4285 58.2661 40.4124 58.2661 40.4124 58.2821C40.3962 58.2821 40.4124 58.2821 40.3639 58.2982C40.3153 58.3143 40.2344 58.2821 40.202 58.25L40.1048 58.1696L40.0239 58.0732C39.8297 57.8322 39.7002 57.575 39.5869 57.3179C39.4736 57.0608 39.3604 56.8197 39.2471 56.5626C39.1985 56.434 39.1339 56.3215 39.0691 56.209C39.0044 56.0965 38.9233 55.9841 38.8586 55.8716C38.5673 55.4216 38.2437 54.9877 37.9038 54.5698C37.5639 54.152 37.1917 53.7502 36.8194 53.3645C36.7871 53.3163 36.7871 53.2681 36.8194 53.2199C36.8518 53.1878 36.9166 53.1878 36.9652 53.2199C37.3698 53.5895 37.7581 53.9752 38.1303 54.393C38.5025 54.7948 38.8587 55.2287 39.1662 55.6787C39.2471 55.7912 39.3281 55.9037 39.3928 56.0323C39.4737 56.1608 39.5384 56.2894 39.6032 56.4019C39.7326 56.659 39.8298 56.9001 39.9592 57.1411C40.0725 57.3822 40.202 57.6072 40.3639 57.7839L40.4285 57.8482L40.477 57.8964C40.4446 57.8804 40.38 57.8482 40.3315 57.8482C40.2991 57.8482 40.2991 57.8482 40.2991 57.8482L40.2829 57.8482C40.2667 57.8482 40.2505 57.8643 40.2505 57.8643L40.2343 57.8804C40.2181 57.8964 40.2181 57.8964 40.2343 57.8804L40.2505 57.8482L40.2991 57.7678L40.3961 57.5911L40.4448 57.5107L40.4609 57.4625L40.477 57.4464L40.477 57.4625L40.4933 57.4304C40.5904 57.2215 40.6551 57.0126 40.6551 56.7876C40.6713 56.5626 40.6227 56.3536 40.5579 56.1287C40.4932 55.9037 40.4123 55.6787 40.3152 55.4537C40.2181 55.2287 40.1048 55.0198 39.9915 54.827C39.7487 54.4252 39.4251 54.0556 39.0852 53.7181C38.7454 53.3806 38.3732 53.0753 38.0171 52.6896C37.9848 52.6414 37.9848 52.5771 38.0171 52.5449C38.0495 52.561 38.0979 52.561 38.1303 52.5771Z" fill="#07453A"/>
<path d="M27.4002 46.31C27.4487 46.5189 27.4326 46.7118 27.4164 46.9046C27.4003 47.0974 27.384 47.2903 27.3678 47.4831C27.3678 47.676 27.384 47.8688 27.384 48.0617L27.384 48.2063C27.384 48.2706 27.384 48.3188 27.384 48.367C27.384 48.3831 27.384 48.4152 27.384 48.4313C27.384 48.4313 27.4001 48.4474 27.3678 48.3992C27.3678 48.3992 27.3678 48.3831 27.3516 48.3831C27.3355 48.367 27.303 48.351 27.2868 48.351C27.2383 48.3349 27.206 48.3509 27.1737 48.367C27.1575 48.367 27.1412 48.3992 27.1574 48.3831L27.2383 48.2706C27.4649 47.9653 27.6105 47.6117 27.7724 47.2581C27.9342 46.9046 28.08 46.535 28.3066 46.1814C28.3228 46.1493 28.3713 46.1493 28.4036 46.1653C28.436 46.1814 28.4359 46.2296 28.4198 46.2457C28.2417 46.5992 28.1286 46.9689 27.9829 47.3385C27.8372 47.7081 27.7077 48.0938 27.465 48.4313L27.3678 48.5599C27.3678 48.5599 27.3516 48.592 27.3192 48.6081C27.2869 48.6241 27.2384 48.6402 27.1898 48.6402C27.1574 48.6402 27.1251 48.6241 27.1089 48.592C27.0927 48.5759 27.0928 48.5759 27.0928 48.5599C27.0604 48.4956 27.0604 48.4795 27.0604 48.4634C27.0604 48.4313 27.0604 48.3991 27.0604 48.367C27.0604 48.3188 27.0604 48.2706 27.0604 48.2385L27.0441 48.0938L27.028 47.7885C27.028 47.6921 27.028 47.5956 27.028 47.4831C27.028 47.2742 27.0441 47.0814 27.0765 46.8725C27.0927 46.6796 27.1413 46.4868 27.2546 46.2939C27.2708 46.2618 27.3193 46.2457 27.3516 46.2618C27.384 46.2778 27.4002 46.2939 27.4002 46.31Z" fill="#07453A"/>
<path d="M27.5623 46.2293C28.0316 44.3812 28.4524 42.5331 28.8246 40.6689C29.1968 38.8047 29.4719 36.9244 29.7147 35.0281C30.184 31.2515 30.4754 27.4429 30.9123 23.6502C31.3331 19.8576 31.7701 16.0649 32.0291 12.2562C32.0938 11.308 32.1585 10.3599 32.1909 9.41173C32.2233 8.46356 32.2556 7.49933 32.2879 6.55117C32.3365 4.63878 32.4174 2.72641 32.6601 0.830087C32.6601 0.781875 32.7249 0.733664 32.7734 0.749734C32.822 0.749734 32.8706 0.814009 32.8544 0.86222C32.4174 4.65486 32.6602 8.47962 32.3689 12.2883C32.1261 16.097 31.7215 19.9058 31.333 23.6984C30.9123 27.491 30.6373 31.2998 30.168 35.0924C29.9252 36.9887 29.6662 38.8851 29.294 40.7653C28.9218 42.6456 28.4363 44.5097 27.7565 46.2936C27.7404 46.3418 27.6757 46.3739 27.6271 46.3578C27.5786 46.3257 27.5461 46.2775 27.5623 46.2293Z" fill="#07453A"/>
<path d="M61.1766 42.8217C61.3061 42.0181 61.468 41.2146 61.646 40.4111C61.8078 39.6075 61.9858 38.804 62.18 38.0166L62.7302 35.6221L63.2644 33.2276C63.9603 30.0295 64.6076 26.8154 65.2226 23.6013C65.8376 20.3872 66.4039 17.157 66.938 13.9269C67.4721 10.6967 67.9901 7.46647 68.4432 4.22022C68.4432 4.17201 68.5079 4.1238 68.5564 4.13987C68.605 4.13987 68.6535 4.20415 68.6373 4.25236C68.2165 7.49861 67.7797 10.7449 67.278 13.9911C66.7763 17.2213 66.2259 20.4676 65.6433 23.6817C65.0445 26.9118 64.3972 30.126 63.7175 33.324L63.1996 35.7185L62.6656 38.113C62.4714 38.9165 62.2932 39.704 62.0828 40.5075C61.8725 41.295 61.6459 42.0824 61.387 42.8699C61.3708 42.9181 61.3061 42.9502 61.2575 42.9342C61.1928 42.9181 61.1604 42.8699 61.1766 42.8217Z" fill="#07453A"/>
<path d="M37.5317 52.9952C37.1433 52.7381 36.8357 52.4167 36.5444 52.0792C36.2531 51.7417 35.978 51.3882 35.6867 51.0507C35.1202 50.3597 34.5862 49.6525 34.0521 48.9294C33.5342 48.2062 33.0164 47.483 32.5146 46.7438C32.0129 46.0046 31.5274 45.2653 31.0742 44.51C31.0418 44.4618 31.0581 44.3975 31.1066 44.3654C31.1552 44.3332 31.2037 44.3493 31.236 44.3975C31.7539 45.1207 32.2719 45.8278 32.8059 46.551C33.3238 47.2741 33.8578 47.9812 34.4081 48.6723C34.9421 49.3794 35.4924 50.0704 36.0589 50.7614C36.334 51.0989 36.6253 51.4364 36.9166 51.7739C37.0622 51.9346 37.1917 52.1114 37.3212 52.2881C37.4507 52.4649 37.5802 52.6577 37.6773 52.8666C37.7096 52.9149 37.6773 52.9792 37.6288 53.0113C37.6126 53.0274 37.5641 53.0274 37.5317 52.9952Z" fill="#07453A"/>
<path d="M22.4644 31.492C21.5095 30.3832 20.6194 29.2422 19.6807 28.1333C18.7582 27.0244 17.7064 26.012 16.622 25.0638C14.4534 23.1353 12.0743 21.4158 9.92178 19.4391C8.83745 18.4427 7.81792 17.3821 6.91161 16.225C5.98913 15.084 5.19608 13.8466 4.45161 12.5931C2.96268 10.07 1.74882 7.43441 0.340805 4.89526C0.308437 4.84705 0.324653 4.78279 0.373205 4.76672C0.421757 4.73458 0.486462 4.75065 0.502646 4.79886C1.95921 7.32194 3.23778 9.94142 4.74289 12.4163C5.48736 13.6537 6.29653 14.859 7.21902 15.9839C8.12532 17.1089 9.14492 18.1374 10.2131 19.1177C12.3494 21.0783 14.7284 22.7818 16.9294 24.7103C18.0299 25.6745 19.0819 26.703 20.0368 27.828C20.5223 28.3904 20.9593 28.969 21.3963 29.5636C21.8171 30.1582 22.2379 30.7528 22.6101 31.3795C22.6425 31.4278 22.6263 31.4921 22.5777 31.5242C22.5454 31.5403 22.4968 31.5402 22.4644 31.492Z" fill="#07453A"/>
</svg>
