<svg width="63" height="34" viewBox="0 0 63 34" fill="none" xmlns="http://www.w3.org/2000/svg">
<path d="M51.5907 13.0508C51.5444 13.0508 51.4672 13.0349 51.4055 13.0188L51.205 12.9867C51.0816 12.9706 50.9427 12.9545 50.8348 12.9385C50.7731 12.9385 50.7114 12.9385 50.6651 12.9385C50.6189 12.9385 50.5571 12.9544 50.4954 12.9705C50.4337 12.9866 50.3721 13.0028 50.3104 13.0188C50.2487 13.0349 50.1869 13.0509 50.1252 13.083C49.647 13.2437 49.1842 13.549 48.6443 13.774C48.3666 13.8865 48.0736 13.9508 47.7805 13.9669C47.6263 13.9669 47.472 13.9669 47.3177 13.9347C47.1635 13.9026 46.9938 13.8384 46.855 13.7259C46.7161 13.6134 46.6082 13.4527 46.5465 13.2759C46.531 13.2277 46.5156 13.1956 46.5156 13.1474C46.5156 13.0992 46.5002 13.067 46.5002 13.0188C46.5002 12.9385 46.5002 12.8581 46.5002 12.7778C46.5156 12.601 46.5928 12.4402 46.6854 12.3117C46.7779 12.167 46.9012 12.0707 47.0246 11.9742C47.2714 11.7974 47.5492 11.6688 47.8423 11.6045C48.1199 11.5241 48.3975 11.476 48.6752 11.4278C49.2305 11.3474 49.8012 11.3313 50.372 11.4278C50.9427 11.5242 51.4982 11.7492 51.9301 12.1349C52.146 12.3278 52.3465 12.5849 52.3773 12.9063C52.3773 12.9867 52.3928 13.0991 52.3002 13.1955C52.2848 13.2277 52.2539 13.2277 52.2231 13.2437C52.1922 13.2598 52.1614 13.2599 52.1459 13.2599C52.0997 13.2599 52.0535 13.2599 52.0072 13.2599C51.9301 13.2438 51.8529 13.2117 51.7912 13.1795C51.7603 13.1635 51.7295 13.1473 51.6987 13.1152L51.6523 13.083L51.5907 13.0508ZM51.6832 12.8741L51.7294 12.9063L51.7758 12.9385C51.8067 12.9545 51.8221 12.9706 51.8529 12.9867C51.9147 13.0188 51.9609 13.0348 52.0226 13.0348C52.0688 13.0509 52.1151 13.0349 52.0997 13.0188C52.0997 13.0188 52.1151 12.9705 52.0997 12.9223C52.0688 12.6973 51.8992 12.4884 51.7141 12.3277C51.313 12.0062 50.8193 11.8135 50.2949 11.7492C49.7704 11.6849 49.2459 11.7009 48.7214 11.7974C48.4592 11.8456 48.1969 11.9099 47.9501 11.9742C47.7033 12.0546 47.472 12.151 47.2869 12.2956C47.1018 12.4403 46.9629 12.6169 46.9475 12.8098C46.9475 12.858 46.9475 12.9062 46.9475 12.9705C46.9475 13.0026 46.9476 13.0187 46.963 13.0508C46.963 13.083 46.9783 13.0991 46.9783 13.1312C47.0092 13.2276 47.0555 13.292 47.1326 13.3563C47.2714 13.4688 47.5183 13.5009 47.7651 13.4848C48.012 13.4687 48.2586 13.4045 48.49 13.3081C48.9682 13.1152 49.4156 12.8098 49.9864 12.6009C50.1252 12.5527 50.2794 12.5205 50.4182 12.4884C50.5725 12.4723 50.7423 12.4724 50.8965 12.5045C51.0508 12.5367 51.1896 12.5848 51.3284 12.6491C51.3901 12.6812 51.4519 12.7135 51.5136 12.7456C51.5598 12.7938 51.606 12.8259 51.6832 12.8741Z" fill="#07453A"/>
<path d="M32.8408 30.1335C32.6101 30.1817 32.3794 30.1977 32.1651 30.2459C31.9508 30.2941 31.7201 30.3263 31.5058 30.3906C31.0608 30.487 30.6157 30.6477 30.1542 30.7601C29.9235 30.8244 29.6763 30.8727 29.4455 30.9048C29.3796 30.9209 29.33 30.9208 29.2641 30.9208C29.1982 30.9208 29.1489 30.937 29.0664 30.937C28.9016 30.937 28.7697 30.9049 28.6378 30.8567C28.3741 30.7442 28.1433 30.5834 27.9785 30.3102C27.9455 30.2459 27.9126 30.1655 27.8961 30.0852C27.8796 30.037 27.8797 30.0048 27.8797 29.9566L27.8797 29.8924L27.8797 29.8441C27.8962 29.6995 27.9456 29.5549 28.0115 29.4263C28.1598 29.1692 28.3906 29.0086 28.6214 28.8961C28.8521 28.7836 29.0993 28.7192 29.3465 28.671C29.841 28.5907 30.319 28.5906 30.8135 28.6388C31.0608 28.671 31.2916 28.7032 31.5388 28.7835C31.6542 28.8157 31.7695 28.8639 31.8849 28.9121C31.9343 28.9442 32.0003 28.9764 32.0497 28.9924C32.0992 29.0246 32.1487 29.0406 32.1981 29.0728C32.4124 29.1853 32.6266 29.2817 32.8244 29.4263C32.9233 29.5067 33.0222 29.587 33.1047 29.7156C33.1376 29.7799 33.1541 29.8924 33.1047 29.9728C33.0717 30.0532 33.0057 30.1013 32.9562 30.1495C32.9398 30.1816 32.8738 30.1656 32.8408 30.1335C32.8079 30.0853 32.8245 30.0209 32.8574 29.9888C32.8904 29.9567 32.9233 29.9246 32.9398 29.8924C32.9563 29.8603 32.9397 29.8442 32.9233 29.8121C32.8903 29.7478 32.7914 29.6835 32.709 29.6192C32.5277 29.5067 32.3134 29.4102 32.0991 29.3138C32.0497 29.2817 31.9837 29.2656 31.9343 29.2335C31.8849 29.2013 31.8355 29.1854 31.7861 29.1693C31.6872 29.1371 31.5717 29.1049 31.4728 29.0728C31.2586 29.0246 31.0279 28.9925 30.7971 28.9764C30.3521 28.9443 29.8905 28.9603 29.4455 29.0568C29.2312 29.105 29.0169 29.1692 28.8356 29.2656C28.6543 29.3621 28.4896 29.4907 28.4071 29.6514C28.3742 29.7317 28.3412 29.812 28.3247 29.9085C28.3082 29.9888 28.3246 30.037 28.3576 30.1173C28.4235 30.2459 28.6048 30.3745 28.7696 30.4387C28.852 30.4709 28.951 30.4869 29.0334 30.4869C29.0664 30.4869 29.1322 30.4709 29.1817 30.4709C29.2311 30.4709 29.2971 30.4549 29.3465 30.4549C29.5608 30.4228 29.7915 30.3745 30.0058 30.3102C30.4508 30.1977 30.896 30.037 31.374 29.9245C31.8355 29.812 32.3628 29.7799 32.8408 29.9406C32.8903 29.9567 32.9233 30.0209 32.9068 30.0692C32.9233 30.1013 32.8903 30.1335 32.8408 30.1335Z" fill="#07453A"/>
<path d="M13.4287 18.0485C13.475 18.2253 13.4442 18.4502 13.3363 18.6109C13.2283 18.7877 13.0585 18.884 12.8888 18.9483C12.7192 19.0126 12.565 19.0447 12.4107 19.0769L12.1793 19.1252C12.1022 19.1413 12.0095 19.1572 11.9324 19.1572C11.7627 19.1733 11.6086 19.1733 11.4389 19.1572C11.3618 19.1572 11.2691 19.1412 11.192 19.1412C11.084 19.1251 11.0069 19.1091 10.9297 19.093C10.7755 19.0448 10.6212 18.9965 10.467 18.9483C10.3127 18.884 10.1585 18.8199 10.0042 18.7234C9.97335 18.6913 9.9271 18.6591 9.88082 18.6109C9.84997 18.5627 9.78833 18.4823 9.78833 18.3859C9.78833 18.2734 9.86543 18.1932 9.91171 18.161C9.95798 18.1128 10.0043 18.0967 10.0506 18.0807C10.2203 18.0164 10.3744 17.9681 10.5441 17.936C10.868 17.8878 11.192 17.9199 11.5005 17.936C11.809 17.9681 12.1176 18.0003 12.4107 17.9681C12.565 17.9521 12.7192 17.92 12.8735 17.92C12.9506 17.92 13.0277 17.9038 13.1202 17.9038C13.1665 17.9038 13.1974 17.9039 13.2591 17.92C13.29 17.92 13.3054 17.936 13.3363 17.936C13.3517 17.936 13.3671 17.9521 13.3825 17.9681C13.3979 17.9842 13.4287 18.0003 13.4287 18.0485ZM13.2282 18.0807C13.2437 18.1128 13.259 18.1127 13.2436 18.1127C13.2436 18.1127 13.2283 18.1127 13.2129 18.0967C13.182 18.0967 13.1511 18.0967 13.1202 18.0967C13.0431 18.0967 12.9661 18.0966 12.9044 18.1127C12.7501 18.1288 12.5958 18.1449 12.4416 18.177C12.1022 18.2252 11.7937 18.1931 11.4852 18.177C11.1766 18.177 10.8682 18.1609 10.5905 18.2252C10.4517 18.2573 10.3128 18.3055 10.2049 18.3537C10.174 18.3698 10.1585 18.3859 10.1431 18.3859C10.1277 18.402 10.1431 18.386 10.1431 18.3699C10.1431 18.3377 10.1277 18.3377 10.1431 18.3537C10.1585 18.3698 10.174 18.386 10.2049 18.4021C10.3128 18.4663 10.4517 18.5145 10.5905 18.5628C10.7293 18.611 10.8681 18.643 11.0224 18.6751C11.0841 18.6912 11.1767 18.7073 11.2075 18.7073C11.2847 18.7073 11.3618 18.7073 11.4389 18.7073C11.5932 18.7073 11.732 18.7073 11.8708 18.6913C11.9479 18.6752 12.0095 18.6752 12.0867 18.6591L12.3027 18.6109C12.4415 18.5788 12.5958 18.5466 12.7192 18.4984C12.8426 18.4502 12.966 18.4181 13.074 18.3699C13.1357 18.3538 13.1665 18.3216 13.1974 18.2734C13.2128 18.2573 13.2128 18.2252 13.2282 18.193C13.2437 18.1448 13.2282 18.1128 13.2282 18.0807Z" fill="#07453A"/>
<path d="M20.54 12.6331C20.4938 12.5688 20.4321 12.5206 20.3858 12.4402L20.3394 12.376C20.324 12.3439 20.3241 12.3278 20.3087 12.2957C20.3087 12.2635 20.3087 12.2314 20.3087 12.1832C20.3241 12.151 20.3395 12.1028 20.3549 12.0706C20.3703 12.0385 20.4012 12.0064 20.432 11.9903C20.4629 11.9742 20.4783 11.9421 20.5092 11.9421C20.5554 11.91 20.6016 11.8938 20.6479 11.8778C20.7405 11.8456 20.8177 11.8457 20.8948 11.8296C20.9719 11.8296 21.0491 11.8296 21.1262 11.8296L21.1878 11.8296L21.2649 11.8296C21.3112 11.8296 21.3575 11.8457 21.4038 11.8618C21.5889 11.91 21.7432 12.0224 21.8666 12.1188C22.1134 12.3438 22.2677 12.5848 22.4374 12.8098C22.4836 12.858 22.5145 12.9062 22.5607 12.9705L22.6996 13.1312C22.7922 13.2437 22.8847 13.3563 22.9772 13.4688C23.0235 13.5331 23.0698 13.5974 23.1006 13.6617C23.1469 13.7259 23.1778 13.7902 23.2086 13.9027C23.2086 13.9349 23.224 13.9669 23.224 13.9991C23.224 14.0473 23.2087 14.1116 23.1624 14.1598C23.1007 14.208 23.0544 14.2241 23.0081 14.2241C22.9773 14.2241 22.9463 14.2241 22.9155 14.2241C22.8075 14.2081 22.7459 14.1759 22.6687 14.1438C22.3911 14.0152 22.1442 13.8544 21.9128 13.6937C21.666 13.533 21.4347 13.3723 21.2033 13.1956C20.9719 13.0188 20.7406 12.8581 20.54 12.6331ZM20.6788 12.5046C21.0644 12.8903 21.558 13.2117 22.0362 13.501C22.283 13.6456 22.5299 13.7741 22.7767 13.8705C22.8384 13.8866 22.9001 13.9187 22.9464 13.9187C22.9618 13.9187 22.9617 13.9187 22.9617 13.9187C22.9617 13.9187 22.9463 13.9188 22.9155 13.9509C22.8846 13.983 22.8846 14.0151 22.8846 14.0151C22.8846 14.0312 22.8846 14.0151 22.8846 14.0151C22.8692 13.9829 22.8383 13.9188 22.8075 13.8705C22.7766 13.8223 22.7304 13.7741 22.6841 13.7098C22.5916 13.6134 22.499 13.5009 22.4065 13.4044L22.2522 13.2599C22.2059 13.2117 22.1442 13.1474 22.098 13.0992C21.8974 12.8742 21.7432 12.6491 21.5581 12.4884C21.4655 12.4081 21.373 12.3598 21.2804 12.3277C21.265 12.3277 21.2341 12.3117 21.2187 12.3117L21.1878 12.3117L21.1415 12.3117L20.941 12.3277C20.8793 12.3277 20.8176 12.3438 20.7559 12.3277C20.7096 12.3277 20.6634 12.3278 20.6634 12.3117L20.6634 12.2957C20.6634 12.2957 20.6633 12.2957 20.6479 12.2957L20.6325 12.3117L20.6325 12.3439C20.6171 12.3921 20.6479 12.4403 20.6788 12.5046Z" fill="#07453A"/>
<path d="M45.1734 22.5325C45.2814 22.5968 45.2969 22.645 45.2814 22.6772L45.2506 22.8057C45.2197 22.886 45.189 22.9664 45.1427 23.0467C45.0501 23.2074 44.9267 23.3361 44.7724 23.4325C44.7262 23.4646 44.649 23.4486 44.6182 23.3843C44.6028 23.3522 44.6028 23.3361 44.6028 23.3039C44.6491 23.1432 44.6798 23.0146 44.7107 22.886C44.7261 22.8218 44.7416 22.7575 44.7571 22.6772L44.7724 22.5808C44.7879 22.5487 44.8033 22.5165 44.9267 22.5005C45.0501 22.4844 45.1117 22.5003 45.1734 22.5325Z" fill="#07453A"/>
<path d="M43.353 22.5004C43.4147 22.5969 43.4148 22.645 43.3839 22.6772L43.3068 22.7415C43.2605 22.7897 43.1989 22.8219 43.1372 22.8701C43.0138 22.9344 42.8749 22.9826 42.7206 22.9826C42.6589 22.9826 42.6126 22.9344 42.6126 22.8701C42.6126 22.854 42.628 22.8218 42.628 22.8057C42.7051 22.6932 42.7977 22.6128 42.8594 22.5325C42.9056 22.5003 42.9366 22.4521 42.9829 22.4039L43.0445 22.3397C43.0599 22.3237 43.1063 22.3235 43.2143 22.3717C43.276 22.4039 43.3222 22.4522 43.353 22.5004Z" fill="#07453A"/>
<path d="M43.5075 24.8298C43.5537 24.9423 43.5538 24.9744 43.523 25.0065L43.4458 25.0709C43.3841 25.1191 43.3223 25.1511 43.2761 25.1833C43.1527 25.2476 43.0139 25.3118 42.8751 25.344C42.8134 25.3601 42.7517 25.3119 42.7517 25.2476C42.7517 25.2155 42.7516 25.1993 42.767 25.1833C42.8442 25.0547 42.9212 24.9583 43.0138 24.8458C43.0601 24.7976 43.1064 24.7493 43.1527 24.7011L43.2298 24.6369C43.2607 24.6208 43.2915 24.6048 43.3994 24.6691C43.4303 24.7173 43.4766 24.7655 43.5075 24.8298Z" fill="#07453A"/>
<path d="M37.5545 24.5895C37.5875 24.702 37.5874 24.7341 37.5709 24.7341L37.5379 24.7502C37.505 24.7663 37.4885 24.7662 37.4555 24.7662C37.3896 24.7662 37.3402 24.7501 37.2743 24.7019C37.2083 24.6698 37.1918 24.5895 37.2083 24.5252L37.2083 24.5092C37.2412 24.4289 37.2743 24.3807 37.3073 24.3485C37.3237 24.3324 37.3401 24.3163 37.3731 24.3002L37.4061 24.2842C37.4226 24.2842 37.4391 24.3003 37.4885 24.3967C37.505 24.477 37.538 24.5413 37.5545 24.5895Z" fill="#07453A"/>
<path d="M41.0855 24.7342C41.1163 24.8467 41.1009 24.8789 41.0855 24.8949L41.0238 24.9271C40.9776 24.9432 40.9312 24.9593 40.885 24.9593C40.7924 24.9753 40.6844 24.9752 40.5765 24.9431C40.5147 24.927 40.4839 24.8467 40.4993 24.7824C40.4993 24.7663 40.5148 24.7665 40.5148 24.7504C40.5765 24.67 40.6382 24.6057 40.7153 24.5575C40.7462 24.5414 40.7771 24.5092 40.8233 24.4932L40.885 24.461C40.9004 24.4449 40.9312 24.4611 41.0083 24.5575C41.0392 24.6057 41.07 24.6699 41.0855 24.7342Z" fill="#07453A"/>
<path d="M39.9443 23.7217C39.9134 23.8342 39.8825 23.8664 39.8516 23.8664L39.7438 23.8664C39.6666 23.8664 39.6049 23.8664 39.5278 23.8664C39.3889 23.8503 39.2501 23.8342 39.1112 23.7699C39.0495 23.7538 39.0342 23.6896 39.0496 23.6253C39.065 23.6093 39.0804 23.577 39.0959 23.577C39.2347 23.4966 39.3735 23.4646 39.4969 23.4325C39.5586 23.4164 39.6357 23.4003 39.6974 23.4003L39.8054 23.3843C39.8362 23.3843 39.8825 23.4003 39.9134 23.5128C39.9597 23.5932 39.9597 23.6574 39.9443 23.7217Z" fill="#07453A"/>
<path d="M39.7129 26.8711C39.6357 26.9836 39.5741 26.9997 39.5124 26.9836L39.3272 26.9514C39.2038 26.9354 39.0803 26.9032 38.9569 26.8711C38.7101 26.8068 38.4633 26.6945 38.2628 26.5177C38.2165 26.4855 38.2166 26.4212 38.2474 26.373C38.2783 26.3409 38.3091 26.3408 38.3399 26.3408C38.5713 26.389 38.7873 26.4052 39.0187 26.4373C39.1267 26.4534 39.2501 26.4533 39.3735 26.4693L39.5586 26.4855C39.6203 26.5016 39.682 26.5337 39.7129 26.6462C39.7591 26.7426 39.7437 26.8068 39.7129 26.8711Z" fill="#07453A"/>
<path d="M38.0162 24.6376C37.9391 24.7341 37.9083 24.734 37.8928 24.734L37.8464 24.7018C37.8156 24.6858 37.7848 24.6536 37.754 24.6215C37.7077 24.5572 37.646 24.4929 37.6306 24.3804C37.6152 24.3161 37.6615 24.2358 37.7386 24.2358L37.754 24.2358L37.7693 24.2358C37.8619 24.2358 37.939 24.2519 38.0007 24.268C38.0315 24.2841 38.0625 24.2841 38.0933 24.3162L38.1396 24.3484C38.155 24.3644 38.155 24.3804 38.1087 24.4929C38.0933 24.5251 38.0471 24.5894 38.0162 24.6376Z" fill="#07453A"/>
<path d="M36.8589 25.3767C36.7509 25.4249 36.7046 25.4088 36.6737 25.3767L36.612 25.2803C36.5657 25.216 36.535 25.1517 36.5041 25.0874C36.4424 24.9588 36.3806 24.8142 36.3652 24.6534C36.3652 24.5892 36.396 24.541 36.4577 24.5249C36.4886 24.5249 36.504 24.5248 36.5348 24.5409C36.6737 24.6213 36.7663 24.7339 36.8589 24.8303C36.9052 24.8785 36.9514 24.9268 36.9976 24.991L37.0594 25.0714C37.0748 25.1035 37.0749 25.1357 37.0132 25.2321C36.9823 25.3125 36.9206 25.3445 36.8589 25.3767Z" fill="#07453A"/>
<path d="M36.828 23.1108C36.7354 23.1912 36.7045 23.1911 36.6891 23.175L36.6584 23.143C36.6275 23.1269 36.612 23.0948 36.5966 23.0626C36.5658 22.9983 36.5349 22.934 36.5349 22.8375C36.5349 22.7572 36.5966 22.709 36.6737 22.709L36.6891 22.709C36.7817 22.709 36.8434 22.725 36.9051 22.7572C36.936 22.7732 36.9668 22.7893 36.9822 22.8054L37.0131 22.8375C37.0285 22.8536 37.0131 22.8696 36.9514 22.9661C36.9359 23.0304 36.8897 23.0787 36.828 23.1108Z" fill="#07453A"/>
<path d="M45.3585 12.8097C45.451 12.89 45.4665 12.9222 45.4511 12.9543L45.4047 13.0507C45.3739 13.115 45.343 13.1793 45.3276 13.2435C45.2659 13.3721 45.1887 13.4845 45.0962 13.6131C45.0499 13.6613 44.9882 13.6614 44.9419 13.6293C44.9265 13.6132 44.9112 13.581 44.9112 13.5649C44.8804 13.4042 44.8957 13.2596 44.9266 13.115C44.942 13.0508 44.9575 12.9704 44.9883 12.9062L45.0191 12.7937C45.0345 12.7615 45.0654 12.7294 45.1888 12.7455C45.2351 12.7455 45.3122 12.7775 45.3585 12.8097Z" fill="#07453A"/>
<path d="M43.3223 12.9379C43.4303 12.9701 43.4612 13.0022 43.4612 13.0183L43.4458 13.0824C43.4458 13.1306 43.4304 13.1627 43.4149 13.2109C43.3841 13.2913 43.3533 13.3716 43.2916 13.4519C43.2453 13.5001 43.168 13.5162 43.1218 13.4841C43.1063 13.4841 43.1063 13.468 43.0909 13.4519C43.0138 13.3555 42.9984 13.2592 42.983 13.1628C42.983 13.1146 42.9676 13.0665 42.983 13.0183L42.983 12.9539C42.983 12.9379 43.0139 12.9058 43.1373 12.9058C43.199 12.9058 43.2606 12.9219 43.3223 12.9379Z" fill="#07453A"/>
<path d="M44.6334 10.0775C44.6797 10.1899 44.6642 10.2383 44.6334 10.2543L44.5409 10.3347C44.4792 10.3829 44.4176 10.431 44.3713 10.4792C44.2479 10.5756 44.1399 10.6721 44.001 10.7525C43.9548 10.7846 43.8776 10.7685 43.8468 10.7203C43.8314 10.7042 43.8314 10.6721 43.8314 10.6399C43.8623 10.4631 43.9547 10.3024 44.0473 10.1578C44.0936 10.0935 44.1553 10.0294 44.217 9.96509L44.3095 9.88473C44.3404 9.85259 44.3867 9.85253 44.4947 9.90074C44.5564 9.96502 44.6025 10.0132 44.6334 10.0775Z" fill="#07453A"/>
<path d="M47.8578 10.3341C47.8424 10.4627 47.8116 10.4948 47.7653 10.4948L47.6418 10.527C47.5646 10.5431 47.4721 10.5591 47.395 10.5752C47.2253 10.6073 47.071 10.6394 46.9013 10.6715C46.8396 10.6876 46.7934 10.6394 46.778 10.5912C46.778 10.559 46.7779 10.5269 46.7933 10.5108C46.9167 10.3501 47.0864 10.2376 47.2561 10.1572C47.3487 10.1251 47.4258 10.093 47.5184 10.0609L47.6573 10.0287C47.7036 10.0126 47.7498 10.0287 47.8269 10.1412C47.8423 10.2055 47.8578 10.2698 47.8578 10.3341Z" fill="#07453A"/>
<path d="M48.9216 9.12946C48.8753 9.24196 48.8444 9.258 48.8136 9.258L48.7209 9.24199C48.6592 9.22592 48.5976 9.20972 48.5513 9.19365C48.4434 9.16151 48.3508 9.11342 48.2582 9.08128L48.2275 9.06512C48.1658 9.04905 48.1503 8.98486 48.1657 8.92058C48.1657 8.90451 48.1812 8.8884 48.1966 8.8884C48.2583 8.84019 48.3353 8.80796 48.4124 8.79189C48.4896 8.77582 48.5514 8.77588 48.6131 8.77588C48.6748 8.77588 48.7364 8.77582 48.7981 8.79189L48.8752 8.80805C48.906 8.80805 48.9215 8.8401 48.937 8.95259L48.937 8.98476C48.9524 9.01691 48.937 9.08125 48.9216 9.12946Z" fill="#07453A"/>
<path d="M52.5929 10.2543C52.485 10.3347 52.4232 10.3186 52.3769 10.3025L52.2227 10.2221C52.1147 10.1739 52.0221 10.1096 51.9142 10.0614C51.7136 9.94891 51.4977 9.83635 51.2972 9.67564C51.2509 9.6435 51.2355 9.57931 51.2818 9.53109C51.2972 9.49895 51.3434 9.48291 51.3743 9.48291C51.6211 9.51505 51.8526 9.57934 52.0839 9.64362C52.1919 9.69184 52.3152 9.72395 52.4232 9.77216L52.5929 9.85252C52.6546 9.88466 52.6854 9.93284 52.6854 10.0614C52.6854 10.1578 52.6392 10.2222 52.5929 10.2543Z" fill="#07453A"/>
<path d="M51.7139 11.1871C51.6522 11.2835 51.6214 11.2995 51.5905 11.2834L51.5287 11.2514C51.4825 11.2354 51.4516 11.2031 51.4207 11.1871C51.359 11.1228 51.282 11.0746 51.2357 10.9782C51.2049 10.9139 51.2356 10.8335 51.2973 10.8174C51.3128 10.8174 51.3128 10.8173 51.3282 10.8013L51.3436 10.8013C51.4516 10.7691 51.5443 10.7852 51.6214 10.8013C51.6677 10.8173 51.6985 10.8174 51.7448 10.8334L51.8064 10.8496C51.8218 10.8657 51.8373 10.8818 51.8064 11.0103C51.791 11.0746 51.7602 11.1389 51.7139 11.1871Z" fill="#07453A"/>
<path d="M54.1817 11.042C54.3051 11.042 54.3513 11.0741 54.3822 11.1223L54.4593 11.2831C54.5056 11.3795 54.5365 11.492 54.5673 11.6045C54.629 11.8295 54.6599 12.0706 54.5982 12.3117C54.5828 12.376 54.5365 12.4081 54.4748 12.392C54.444 12.392 54.4131 12.3598 54.3977 12.3277C54.3206 12.1348 54.2434 11.942 54.1508 11.7652C54.1045 11.6688 54.0583 11.5885 54.0121 11.4921L53.9349 11.3474C53.9041 11.2992 53.904 11.251 53.9965 11.1385C54.0428 11.0742 54.1045 11.042 54.1817 11.042Z" fill="#07453A"/>
<path d="M53.6111 13.0188C53.7345 13.0349 53.75 13.0508 53.75 13.0508L53.75 13.067C53.75 13.083 53.7345 13.0991 53.7345 13.0991C53.7036 13.1313 53.6728 13.1472 53.6111 13.1633C53.5494 13.1794 53.4723 13.1794 53.4106 13.1473C53.3489 13.1152 53.318 13.0829 53.3026 13.0508C53.3026 13.0347 53.2872 13.0187 53.2872 13.0026L53.2872 12.9866C53.2872 12.9866 53.318 12.9706 53.426 12.9866C53.4722 12.9866 53.5494 13.0027 53.6111 13.0188Z" fill="#07453A"/>
<path d="M60.9692 7.39391C61.0309 7.49032 61.0464 7.52242 61.0309 7.52242L61.0001 7.53843C60.9846 7.5545 60.9692 7.55453 60.9383 7.5706C60.892 7.58667 60.8458 7.58673 60.7687 7.55459C60.6916 7.53852 60.6453 7.47419 60.6453 7.40991C60.6299 7.32957 60.6453 7.28143 60.6607 7.23322C60.6761 7.21716 60.6761 7.18496 60.707 7.16889L60.7225 7.13672C60.7379 7.13672 60.7532 7.13681 60.8303 7.23322C60.892 7.28143 60.9229 7.32963 60.9692 7.39391Z" fill="#07453A"/>
<path d="M58.7941 8.82414C58.8096 8.95271 58.7941 8.98495 58.7632 9.00102L58.6552 9.04921C58.5781 9.08135 58.5163 9.09742 58.4392 9.12957C58.2849 9.16171 58.1307 9.19388 57.961 9.16174C57.8993 9.14567 57.8531 9.09733 57.8685 9.03304C57.8685 9.0009 57.8838 8.98492 57.8993 8.96885C58.0227 8.87242 58.1462 8.79196 58.2542 8.7116C58.3159 8.67946 58.3775 8.64738 58.4392 8.61523L58.5318 8.56705C58.5627 8.55098 58.609 8.55098 58.6861 8.64741C58.7632 8.69562 58.7787 8.75985 58.7941 8.82414Z" fill="#07453A"/>
<path d="M56.4653 8.39015C56.4653 8.50265 56.4499 8.53485 56.4344 8.53485L56.3728 8.53485C56.342 8.53485 56.2957 8.53485 56.2494 8.53485C56.1723 8.51878 56.0797 8.51878 55.9871 8.4545C55.9254 8.42236 55.91 8.34207 55.9563 8.27778L55.9716 8.26162L55.9871 8.24561C56.0488 8.18133 56.126 8.13306 56.1877 8.10091C56.2185 8.08484 56.2648 8.06874 56.2957 8.06874L56.3573 8.05273C56.3727 8.05273 56.4036 8.06877 56.4344 8.18127C56.4653 8.24555 56.4653 8.3098 56.4653 8.39015Z" fill="#07453A"/>
<path d="M59.7817 5.61004C59.8588 5.72254 59.8435 5.80289 59.7972 5.85111C59.7663 5.91539 59.72 5.9637 59.6892 6.02798C59.612 6.14048 59.5194 6.23691 59.4269 6.34941C59.2264 6.54226 59.0104 6.70288 58.7636 6.81538C58.7173 6.83145 58.6556 6.81541 58.6247 6.7672C58.6093 6.73505 58.6094 6.6869 58.6402 6.67083C58.7945 6.46191 58.9487 6.26902 59.0875 6.07617C59.1646 5.97974 59.2263 5.88325 59.288 5.77075C59.3189 5.72254 59.3498 5.67432 59.3806 5.61004C59.4115 5.56182 59.4577 5.51367 59.5965 5.51367C59.6736 5.51367 59.7354 5.56182 59.7817 5.61004Z" fill="#07453A"/>
<path d="M56.8351 6.26938C56.866 6.38186 56.8505 6.414 56.8196 6.43007L56.7425 6.46208C56.6962 6.47814 56.6345 6.49434 56.5882 6.51041C56.4803 6.52648 56.3724 6.54248 56.249 6.52641C56.1873 6.51034 56.1409 6.44601 56.1563 6.38173C56.1563 6.36567 56.1719 6.34963 56.1719 6.33356L56.1719 6.31756C56.249 6.22115 56.3261 6.15681 56.4032 6.09254C56.4495 6.0604 56.4803 6.04433 56.5266 6.01219L56.5882 5.98003C56.6037 5.96396 56.6501 5.98012 56.7118 6.07653C56.7889 6.1408 56.8197 6.20511 56.8351 6.26938Z" fill="#07453A"/>
<path d="M52.47 6.97643C52.4854 7.105 52.4391 7.13724 52.4082 7.15332C52.3619 7.16939 52.3156 7.18533 52.2693 7.18533C52.1768 7.20141 52.0843 7.20141 51.9917 7.18533C51.822 7.15319 51.6833 7.10507 51.5445 7.04078C51.4982 7.00864 51.4672 6.94428 51.4981 6.89607C51.5135 6.86392 51.529 6.84788 51.5598 6.84788C51.7141 6.7836 51.8684 6.78366 52.0072 6.75151C52.0689 6.75151 52.1306 6.73541 52.1768 6.71934C52.2077 6.71934 52.2231 6.70317 52.254 6.70317C52.2848 6.6871 52.3003 6.70327 52.3928 6.7997L52.4082 6.81571C52.4391 6.86392 52.4545 6.92821 52.47 6.97643Z" fill="#07453A"/>
<path d="M54.7064 6.34939C54.691 6.47797 54.66 6.51011 54.6137 6.51011C54.5675 6.51011 54.5213 6.52612 54.475 6.52612C54.3825 6.54219 54.2899 6.52612 54.2127 6.52612C54.0431 6.51005 53.858 6.46183 53.7037 6.3654C53.6574 6.33325 53.642 6.2689 53.6728 6.22068C53.6883 6.18854 53.719 6.17249 53.7345 6.17249C53.9041 6.14035 54.043 6.12428 54.1972 6.09213C54.2744 6.09213 54.3361 6.05996 54.4132 6.05996C54.4441 6.05996 54.4904 6.04395 54.5213 6.04395C54.5521 6.04395 54.5983 6.06005 54.66 6.15648L54.66 6.17249C54.7063 6.22071 54.7218 6.2851 54.7064 6.34939Z" fill="#07453A"/>
<path d="M50.9734 5.72199C50.9271 5.83449 50.8653 5.8667 50.8036 5.8667C50.7419 5.8667 50.6957 5.85053 50.634 5.85053C50.526 5.83446 50.4181 5.80232 50.3101 5.77018C50.1096 5.70589 49.9244 5.60943 49.7393 5.49693C49.6931 5.46479 49.6776 5.40059 49.7085 5.35238C49.7239 5.32024 49.7547 5.3042 49.7856 5.3042C50.0015 5.28813 50.2175 5.32014 50.4026 5.33621C50.4952 5.35229 50.5877 5.35232 50.6802 5.36839C50.7265 5.36839 50.7729 5.36848 50.8191 5.38455C50.8654 5.38455 50.9116 5.4166 50.9579 5.5291L50.9579 5.54527C51.0041 5.59348 50.9888 5.67378 50.9734 5.72199Z" fill="#07453A"/>
<path d="M48.7523 6.47771C48.7369 6.59021 48.706 6.62225 48.6752 6.62225L48.5827 6.62225C48.521 6.62225 48.4746 6.60631 48.4129 6.59024C48.305 6.5581 48.197 6.52589 48.1044 6.44554C48.0581 6.39733 48.0428 6.33305 48.0891 6.28483C48.1045 6.26876 48.1199 6.25266 48.1353 6.25266C48.2433 6.18838 48.3513 6.17237 48.4593 6.1563C48.5056 6.1563 48.5519 6.14014 48.6136 6.14014L48.6907 6.14014C48.7215 6.14014 48.737 6.15627 48.7678 6.28483L48.7678 6.30084C48.7678 6.34905 48.7677 6.41343 48.7523 6.47771Z" fill="#07453A"/>
<path d="M14.9405 18.5628C15.0022 18.6592 15.0024 18.6913 14.9869 18.7074L14.9405 18.7395C14.9097 18.7556 14.8788 18.7716 14.8634 18.7877C14.8017 18.8038 14.74 18.8199 14.632 18.8199C14.5549 18.8038 14.4932 18.7395 14.5087 18.6752C14.5087 18.5787 14.5395 18.5145 14.5858 18.4663C14.6012 18.4341 14.6321 18.4181 14.6476 18.3859L14.6784 18.3537C14.6939 18.3377 14.7247 18.3537 14.8018 18.4341C14.8635 18.4502 14.9097 18.4985 14.9405 18.5628Z" fill="#07453A"/>
<path d="M16.2825 19.2701C16.3288 19.3826 16.3288 19.4309 16.298 19.4469L16.2053 19.5273C16.1436 19.5755 16.0819 19.6236 16.0202 19.6718C15.8814 19.7522 15.7426 19.8326 15.5729 19.8647C15.5112 19.8808 15.4495 19.8326 15.4495 19.7844C15.4495 19.7522 15.4495 19.7361 15.4649 19.704C15.542 19.5594 15.6346 19.4469 15.7425 19.3344C15.7888 19.2862 15.8351 19.2219 15.8968 19.1737L15.9739 19.0934C16.0048 19.0612 16.0511 19.0613 16.1591 19.1255C16.2054 19.1577 16.2516 19.2058 16.2825 19.2701Z" fill="#07453A"/>
<path d="M14.4008 21.5359C14.4008 21.6484 14.3854 21.6805 14.3545 21.6966L14.2774 21.7126C14.2311 21.7287 14.1694 21.7286 14.1077 21.7286C13.9997 21.7286 13.8609 21.7126 13.7529 21.6483C13.7066 21.6161 13.6758 21.5518 13.722 21.4876C13.7375 21.4715 13.7375 21.4555 13.7529 21.4555L13.7683 21.4394C13.8609 21.3751 13.938 21.343 14.0306 21.2948C14.0769 21.2787 14.1231 21.2625 14.1693 21.2465L14.2465 21.2305C14.2773 21.2305 14.3082 21.2465 14.3545 21.359C14.3854 21.4072 14.4008 21.4555 14.4008 21.5359Z" fill="#07453A"/>
<path d="M13.3978 20.025C13.4132 20.1375 13.3978 20.1696 13.3824 20.1857L13.3053 20.2017C13.259 20.2177 13.2126 20.2178 13.1664 20.2338C13.0738 20.2338 12.9658 20.2339 12.8578 20.1857C12.7961 20.1535 12.7653 20.0893 12.7962 20.025C12.7962 20.0089 12.8115 20.0089 12.8115 19.9928C12.8887 19.9125 12.9659 19.8644 13.0276 19.8162C13.0739 19.8001 13.1048 19.768 13.1356 19.768L13.1972 19.7358C13.2127 19.7358 13.2436 19.7359 13.3053 19.8483C13.367 19.9126 13.3978 19.9768 13.3978 20.025Z" fill="#07453A"/>
<path d="M10.9762 21.3914C10.9299 21.5039 10.8835 21.52 10.8527 21.52L10.7448 21.504C10.6677 21.4879 10.6059 21.4717 10.5288 21.4396C10.3899 21.3914 10.2511 21.311 10.1431 21.1986C10.0968 21.1503 10.0968 21.0861 10.1431 21.0378C10.1585 21.0218 10.1894 21.0057 10.2049 21.0057C10.3591 20.9896 10.4824 21.0057 10.6213 21.0057C10.683 21.0217 10.7602 21.0218 10.822 21.0218L10.9145 21.0378C10.9453 21.0378 10.9762 21.07 10.9916 21.1986C11.0224 21.2628 11.0071 21.3271 10.9762 21.3914Z" fill="#07453A"/>
<path d="M9.58809 19.5747C9.52638 19.6712 9.49549 19.6873 9.48007 19.6873L9.43381 19.6711C9.40296 19.655 9.38753 19.639 9.35668 19.6069C9.3104 19.5587 9.27951 19.5104 9.24866 19.4301C9.23323 19.3658 9.27945 19.2855 9.34116 19.2534L9.35668 19.2534C9.43381 19.2212 9.49549 19.2212 9.5572 19.2212C9.58806 19.2212 9.61891 19.2372 9.63434 19.2372L9.66522 19.2534C9.68065 19.2534 9.68062 19.2854 9.63434 19.3979C9.64976 19.4622 9.61894 19.5265 9.58809 19.5747Z" fill="#07453A"/>
<path d="M8.4159 20.7169C8.2925 20.7651 8.24625 20.749 8.2154 20.7169L8.12291 20.6044C8.06121 20.5401 7.99939 20.4598 7.92226 20.3795C7.79885 20.2188 7.69097 20.0581 7.62926 19.8492C7.61384 19.801 7.6446 19.7366 7.69088 19.7205C7.72173 19.7044 7.75267 19.7206 7.78352 19.7367C7.9532 19.8492 8.09203 19.9616 8.24628 20.0741C8.32341 20.1384 8.38502 20.2027 8.46215 20.267L8.57016 20.3633C8.60101 20.3955 8.61644 20.4438 8.57016 20.5723C8.52388 20.6527 8.47761 20.7008 8.4159 20.7169Z" fill="#07453A"/>
<path d="M8.12286 18.6432C7.99944 18.6593 7.98395 18.6592 7.98395 18.6592L7.98395 18.6432L7.99932 18.6271C8.01474 18.611 8.04563 18.595 8.10734 18.5629C8.16905 18.5469 8.24616 18.5308 8.30787 18.5308C8.36958 18.5308 8.40055 18.5468 8.43141 18.5468L8.44678 18.5629L8.44678 18.5789C8.44678 18.5789 8.43129 18.595 8.30787 18.6111C8.26159 18.6271 8.18457 18.6272 8.12286 18.6432Z" fill="#07453A"/>
<path d="M16.3595 21.3912C16.4366 21.4876 16.4367 21.5358 16.4213 21.5519L16.3595 21.6323C16.3132 21.6805 16.267 21.7287 16.2053 21.7769C16.0973 21.8573 15.9893 21.9376 15.8505 21.9858C15.7888 22.0019 15.7271 21.9857 15.7116 21.9215C15.6962 21.9054 15.6962 21.8733 15.7116 21.8573C15.7425 21.7127 15.8197 21.6001 15.8814 21.4876C15.9123 21.4394 15.9431 21.3913 15.9894 21.3431L16.0357 21.2787C16.0511 21.2626 16.0819 21.2467 16.2053 21.2949L16.2208 21.2949C16.2671 21.3109 16.3132 21.343 16.3595 21.3912Z" fill="#07453A"/>
<path d="M17.4087 10.7526C17.3008 10.7848 17.2545 10.7848 17.2391 10.7526L17.1929 10.6723C17.162 10.6241 17.1465 10.5598 17.1311 10.5116C17.1003 10.3991 17.0848 10.2866 17.1002 10.1581C17.1156 10.0938 17.1774 10.0456 17.2391 10.0617C17.2545 10.0617 17.2699 10.0777 17.2854 10.0777C17.3933 10.142 17.455 10.2224 17.5167 10.3027C17.5476 10.3509 17.5785 10.3831 17.6094 10.4313L17.6556 10.4956C17.6711 10.5117 17.6556 10.5437 17.5785 10.6401C17.5322 10.7044 17.4704 10.7366 17.4087 10.7526Z" fill="#07453A"/>
<path d="M18.7507 8.88817C18.7044 9.00068 18.6737 9.01678 18.6582 9.00071L18.612 8.98454C18.5811 8.96847 18.5502 8.95243 18.5193 8.93636C18.4576 8.90421 18.4114 8.8721 18.3497 8.80781L18.3342 8.79165C18.2879 8.74343 18.2879 8.66314 18.3342 8.61492C18.4268 8.53456 18.5194 8.51855 18.612 8.51855C18.6583 8.51855 18.7045 8.51849 18.7354 8.53456L18.797 8.55057C18.8124 8.55057 18.8279 8.58278 18.8125 8.69528C18.7971 8.77564 18.7816 8.83996 18.7507 8.88817Z" fill="#07453A"/>
<path d="M21.9748 9.7087C21.8822 9.78906 21.8359 9.78903 21.805 9.75689L21.7125 9.6927C21.6508 9.64448 21.6046 9.59621 21.5429 9.54799C21.4349 9.45157 21.3424 9.35514 21.2344 9.22657C21.2035 9.17836 21.2035 9.11408 21.2498 9.06586C21.2652 9.04979 21.296 9.03369 21.3269 9.03369C21.4966 9.03369 21.6508 9.09804 21.7896 9.17839C21.8513 9.21054 21.9284 9.25878 21.9901 9.29092L22.0828 9.35511C22.1136 9.37118 22.129 9.41949 22.0982 9.53199C22.0673 9.61234 22.0365 9.67656 21.9748 9.7087Z" fill="#07453A"/>
<path d="M20.6947 10.9288C20.6022 11.0092 20.5559 11.0091 20.5405 10.993L20.4633 10.9288C20.417 10.8966 20.3708 10.8484 20.3091 10.8163C20.2165 10.7359 20.1239 10.6395 20.0468 10.527C20.016 10.4788 20.0314 10.3984 20.0777 10.3663C20.0931 10.3502 20.1239 10.3501 20.1393 10.3501C20.2936 10.3501 20.417 10.3984 20.5405 10.4466C20.6022 10.4788 20.6638 10.5109 20.7101 10.543L20.7872 10.5912C20.8181 10.6073 20.8335 10.6395 20.7872 10.7681C20.7872 10.8163 20.741 10.8806 20.6947 10.9288Z" fill="#07453A"/>
<path d="M19.4914 11.5724C19.3989 11.6528 19.3526 11.6527 19.3372 11.6206L19.2756 11.5724C19.2293 11.5403 19.1984 11.492 19.1675 11.4599C19.1058 11.3795 19.0441 11.2831 19.0133 11.1706C18.9978 11.1063 19.0287 11.042 19.0904 11.0259C19.1058 11.0259 19.1212 11.0259 19.1367 11.0259L19.1522 11.0259C19.2756 11.042 19.3681 11.0902 19.4607 11.1384C19.507 11.1706 19.5532 11.1866 19.5841 11.2188L19.6457 11.267C19.6611 11.283 19.6767 11.3152 19.615 11.4277C19.5841 11.492 19.5377 11.5403 19.4914 11.5724Z" fill="#07453A"/>
<path d="M22.9312 11.0739C23.0391 11.0097 23.1008 11.0258 23.147 11.0579L23.2859 11.1543C23.3785 11.2186 23.4556 11.299 23.5482 11.3793C23.7024 11.54 23.8566 11.7329 23.9646 11.9418C23.9954 11.99 23.9647 12.0542 23.903 12.0863C23.8721 12.1024 23.8257 12.1024 23.8103 12.0863C23.6252 11.9738 23.4555 11.8454 23.2704 11.7329C23.1779 11.6686 23.0854 11.6203 23.0083 11.5561L22.8694 11.4597C22.8231 11.4276 22.7923 11.3794 22.8232 11.2508C22.8232 11.1544 22.8695 11.1061 22.9312 11.0739Z" fill="#07453A"/>
<path d="M24.1187 10.801C24.2266 10.7367 24.2729 10.7529 24.3038 10.785L24.3809 10.8653C24.4426 10.9296 24.4889 10.9939 24.5352 11.0582C24.6277 11.1867 24.7049 11.3314 24.7512 11.4921C24.7666 11.5564 24.7358 11.6045 24.6741 11.6206C24.6432 11.6206 24.6124 11.6205 24.5969 11.6044C24.4581 11.5241 24.3347 11.4277 24.2113 11.3474C24.1496 11.2992 24.1032 11.2509 24.0415 11.2027L23.9644 11.1224C23.9335 11.0902 23.9336 11.0582 23.9799 10.9457C24.0108 10.8814 24.0569 10.8331 24.1187 10.801Z" fill="#07453A"/>
<path d="M26.1088 13.2114C26.2322 13.2275 26.2784 13.2757 26.2784 13.3239L26.3093 13.4686C26.3402 13.565 26.3401 13.6614 26.3556 13.7738C26.371 13.9827 26.3711 14.1917 26.294 14.4006C26.2785 14.4488 26.2168 14.481 26.1551 14.4649C26.1242 14.4489 26.0934 14.4327 26.0934 14.4006C26.0317 14.2078 25.9854 14.0471 25.9237 13.8704C25.8928 13.7739 25.862 13.6936 25.8465 13.5971L25.8003 13.4686C25.7849 13.4204 25.8002 13.3721 25.8928 13.2918C25.9699 13.2275 26.0317 13.2114 26.1088 13.2114Z" fill="#07453A"/>
<path d="M24.3964 13.0347C24.5199 13.0347 24.5506 13.0668 24.5661 13.115L24.597 13.2435C24.6278 13.3239 24.6278 13.4204 24.6432 13.5008C24.6586 13.6775 24.6586 13.8703 24.5814 14.0311C24.566 14.0793 24.5044 14.1113 24.4427 14.0952C24.4118 14.0792 24.3964 14.0632 24.3809 14.0311C24.3192 13.8703 24.2576 13.7418 24.2113 13.5971C24.1805 13.5168 24.1496 13.4524 24.1342 13.3721L24.1033 13.2597C24.0879 13.2276 24.1032 13.1794 24.1958 13.099C24.2729 13.0508 24.3347 13.0347 24.3964 13.0347Z" fill="#07453A"/>
<path d="M23.9065 32.5927C23.8076 32.2392 23.6758 31.8534 23.6429 31.4838C23.5769 31.1142 23.5769 30.7285 23.5769 30.3428C23.6098 29.5714 23.8242 28.8161 24.2033 28.1411C24.5824 27.4662 25.1428 26.8876 25.7692 26.4537C26.3955 26.0198 27.1207 25.6984 27.8459 25.4895C28.5876 25.2806 29.3459 25.1841 30.1041 25.1841C30.8623 25.1841 31.6205 25.2485 32.3622 25.4413C33.8292 25.7949 35.2466 26.5341 36.285 27.6912C36.796 28.2697 37.1916 28.9286 37.4388 29.6678C37.5048 29.8607 37.5378 30.0536 37.5542 30.2625C37.5707 30.4714 37.5377 30.6963 37.4552 30.8891C37.3728 31.098 37.2081 31.2749 37.0268 31.3874C36.9443 31.4517 36.8454 31.4999 36.7465 31.5481C36.6476 31.5803 36.5487 31.6123 36.4663 31.6445C36.0707 31.757 35.6751 31.773 35.2795 31.7248C34.9004 31.6766 34.5213 31.5964 34.1587 31.4999C33.4335 31.3071 32.7413 31.0499 32.0326 31.0338C31.6864 31.0178 31.3403 31.0981 31.0106 31.2267C30.681 31.3553 30.3513 31.5159 30.0217 31.6927C29.3788 32.0462 28.7525 32.448 28.0932 32.8016C27.7635 32.9784 27.4338 33.1391 27.0712 33.2837C26.7251 33.4123 26.346 33.5248 25.9504 33.5569C25.5713 33.5891 25.1592 33.5408 24.8131 33.3641C24.7307 33.3158 24.6318 33.2676 24.5658 33.2194C24.4834 33.1551 24.4011 33.1069 24.3352 33.0426C24.2692 32.9784 24.1869 32.9141 24.1209 32.8498L23.9065 32.5927ZM24.0879 32.5124C24.1539 32.5766 24.2033 32.6248 24.2528 32.6891C24.3187 32.7533 24.3846 32.8017 24.4506 32.8659C24.5165 32.9302 24.5989 32.9624 24.6648 33.0266C24.7308 33.0749 24.8131 33.107 24.8955 33.1552C25.2086 33.2998 25.5713 33.348 25.9174 33.3159C26.6262 33.2516 27.302 32.9141 27.9283 32.5605C28.5712 32.207 29.181 31.7892 29.8403 31.4196C30.1699 31.2428 30.4996 31.0659 30.8622 30.9213C31.2083 30.7767 31.6204 30.6803 32.016 30.6964C32.8072 30.7125 33.5324 30.9535 34.2411 31.1464C34.9499 31.3392 35.6752 31.4677 36.3345 31.2749C36.6641 31.1785 36.9444 31.0017 37.0598 30.7446C37.1751 30.4714 37.1257 30.1338 37.0268 29.7964C36.8125 29.1375 36.4168 28.5108 35.9388 27.9804C34.9828 26.9198 33.6478 26.2287 32.2468 25.8912C30.8458 25.5538 29.3459 25.5699 27.9613 25.9556C27.2691 26.1484 26.6097 26.4376 26.0328 26.8555C25.456 27.2572 24.9615 27.7875 24.6154 28.3982L24.5 28.6232C24.467 28.7036 24.4176 28.784 24.3846 28.8643C24.3187 29.025 24.2528 29.1857 24.2033 29.3624C24.1704 29.5392 24.1043 29.6999 24.0714 29.8767C24.0549 30.0535 24.0219 30.2302 23.9889 30.407C23.9725 30.7606 23.9396 31.1142 23.9725 31.4838L23.9889 31.757C23.9889 31.8534 24.0055 31.9337 24.0219 32.0141C24.0384 32.1426 24.0714 32.3195 24.0879 32.5124Z" fill="#07453A"/>
<path d="M45.8673 7.71539L46.1605 7.61887L46.3147 7.57069L46.469 7.53852L46.7775 7.45816C46.8855 7.42602 46.978 7.42605 47.086 7.40998L47.3945 7.3618L47.703 7.32963C47.9036 7.29749 48.1195 7.29746 48.3201 7.29746C49.1531 7.26532 49.986 7.34573 50.7882 7.52251C51.6057 7.69929 52.3925 7.94031 53.1638 8.29387C53.9197 8.64742 54.6446 9.08133 55.2307 9.74022C55.5084 10.0616 55.7244 10.4312 55.9249 10.8008C56.11 11.1704 56.2643 11.5723 56.3723 11.9741C56.4803 12.3759 56.542 12.8098 56.4957 13.2597C56.4494 13.6936 56.2797 14.1436 55.9558 14.481C55.8787 14.5614 55.7862 14.6256 55.709 14.6899L55.5855 14.7864C55.5392 14.8186 55.493 14.8507 55.4468 14.8828L55.1536 15.0435C55.0456 15.0917 54.9531 15.1239 54.8451 15.156C54.4132 15.2846 53.9659 15.3006 53.5494 15.2524C53.1175 15.2042 52.7164 15.0917 52.3307 14.9792C51.9297 14.8667 51.5441 14.7382 51.1585 14.6257C50.7728 14.5293 50.3872 14.4489 50.0015 14.4329C49.6159 14.4329 49.2302 14.4811 48.8446 14.5936C48.0733 14.8025 47.3482 15.156 46.5924 15.4775C45.8365 15.7989 45.0498 16.1041 44.2014 16.1363C43.7849 16.1524 43.3376 16.0721 42.952 15.9114C42.5509 15.7507 42.196 15.5096 41.8875 15.2364C41.579 14.9632 41.286 14.6257 41.1318 14.224C40.9621 13.8222 40.9158 13.3882 40.9775 12.9703C41.0238 12.5525 41.178 12.1508 41.3632 11.7812C41.5483 11.4116 41.7796 11.0741 42.0418 10.7366C42.5508 10.0938 43.1525 9.51523 43.8004 9.01704C44.402 8.50278 45.096 8.0368 45.8673 7.71539ZM45.9445 7.90811C45.204 8.21345 44.5253 8.66355 43.8929 9.16174C43.2604 9.65993 42.6743 10.2224 42.1807 10.8492C41.9339 11.1706 41.7179 11.4919 41.5328 11.8454C41.3631 12.199 41.2243 12.5686 41.178 12.9543C41.1317 13.34 41.178 13.7257 41.3323 14.0793C41.4865 14.4328 41.7333 14.7382 42.0418 14.9953C42.3349 15.2525 42.6743 15.4774 43.0291 15.622C43.3839 15.7666 43.7849 15.8309 44.1705 15.8149C44.9572 15.7827 45.7132 15.4775 46.4536 15.156C47.1941 14.8346 47.9345 14.465 48.7366 14.24C49.1377 14.1275 49.5541 14.0471 49.986 14.0471C50.4179 14.0471 50.8345 14.1275 51.2356 14.24C51.6367 14.3364 52.0222 14.4649 52.4079 14.5774C52.7935 14.6899 53.1792 14.7863 53.5648 14.8185C53.9504 14.8667 54.3361 14.8346 54.6908 14.7221C55.0456 14.6257 55.3542 14.3847 55.6319 14.1436C55.8787 13.8865 56.002 13.549 56.0483 13.1794C56.0791 12.8098 56.033 12.4241 55.9404 12.0544C55.8479 11.6848 55.6936 11.3152 55.5239 10.9777C55.3388 10.6241 55.1382 10.3027 54.8914 10.0135C54.3823 9.45098 53.6882 9.03305 52.9787 8.71164C52.2537 8.39023 51.4823 8.14917 50.7111 7.98846C50.5105 7.94025 50.3254 7.90824 50.1249 7.87609C49.9244 7.84395 49.7239 7.81172 49.5388 7.77958C49.3382 7.74744 49.1376 7.71529 48.9371 7.69922C48.7366 7.68315 48.536 7.65104 48.3354 7.65104C48.1349 7.63497 47.9345 7.63504 47.7339 7.63504L47.4254 7.63504C47.3329 7.63504 47.2248 7.65104 47.1323 7.65104C46.7003 7.68318 46.3147 7.77955 45.9445 7.90811Z" fill="#07453A"/>
<path d="M46.8395 7.45834C46.7316 7.16907 46.6698 6.84763 46.6698 6.54229C46.6698 6.22088 46.7007 5.91564 46.8087 5.59423C46.8549 5.43353 46.932 5.28892 47.0245 5.14429C47.1171 5.01573 47.2097 4.87103 47.3177 4.75854C47.5336 4.51748 47.7958 4.30853 48.1043 4.1639C48.7059 3.87463 49.3847 3.82639 49.9863 3.89067C50.6033 3.95495 51.2049 4.09968 51.7911 4.22824C52.3773 4.35681 52.9481 4.51751 53.5188 4.54965C54.105 4.58179 54.6911 4.54965 55.2619 4.4693C56.4188 4.29252 57.5448 3.82642 58.7789 3.68178C59.3959 3.60143 60.0439 3.61747 60.6455 3.81032C60.7997 3.85853 60.9385 3.9229 61.0927 3.98719C61.2316 4.06754 61.3704 4.13173 61.5093 4.21208C61.7715 4.38885 62.0338 4.59777 62.2343 4.8549C62.4348 5.11202 62.589 5.40135 62.6662 5.72276C62.7433 6.0281 62.7742 6.36564 62.7433 6.67098C62.6816 7.29773 62.4502 7.89224 62.1416 8.42257C61.8331 8.95289 61.4322 9.43497 60.954 9.83674C60.7226 10.0296 60.4604 10.2226 60.1827 10.3672C59.905 10.5118 59.6274 10.6404 59.3343 10.7368C58.7481 10.9296 58.1619 11.0581 57.5448 11.1224C56.9432 11.1867 56.3262 11.2188 55.7246 11.1224C55.6629 11.1063 55.6321 11.0582 55.6321 11.01C55.6476 10.9618 55.6937 10.9136 55.74 10.9297C56.3262 10.9939 56.9278 10.9618 57.514 10.8975C58.1001 10.8171 58.6864 10.6724 59.2263 10.4796C59.504 10.3831 59.7662 10.2546 60.0285 10.11C60.2753 9.96533 60.5066 9.78852 60.7226 9.59568C61.1545 9.20999 61.5247 8.74404 61.8178 8.24586C62.1109 7.74767 62.3114 7.20128 62.3577 6.63881C62.4039 6.07634 62.265 5.51378 61.9103 5.09595C61.7406 4.88704 61.5247 4.71036 61.2779 4.54965C61.1545 4.4693 61.031 4.40505 60.9076 4.34077C60.7842 4.29256 60.6454 4.22821 60.5066 4.19607C59.9667 4.03537 59.3805 4.01929 58.8098 4.11572C57.6528 4.26035 56.5267 4.72639 55.3081 4.91924C54.7065 5.01566 54.0895 5.04774 53.457 5.0156C52.8246 4.98346 52.223 4.82275 51.6522 4.69419C51.066 4.56563 50.4953 4.42099 49.9092 4.37278C49.3384 4.32457 48.7677 4.35677 48.2741 4.59783C48.0273 4.71032 47.8113 4.87103 47.6262 5.07994C47.5336 5.17637 47.4411 5.28886 47.3639 5.40135C47.2868 5.51385 47.2251 5.62637 47.1634 5.75493C46.9629 6.25312 46.9012 6.84769 46.9938 7.41016C47.0092 7.45837 46.9629 7.52268 46.9012 7.52268C46.9012 7.53876 46.855 7.50655 46.8395 7.45834Z" fill="#07453A"/>
<path d="M33.6351 0.322863C34.3601 0.210368 35.0389 0.563799 35.5479 0.997709C35.8102 1.2227 36.057 1.44772 36.2883 1.67271L36.6277 2.01029C36.7357 2.12279 36.8592 2.23528 36.9671 2.33171C37.4145 2.74954 38.0005 2.99051 38.6176 3.11908C39.2346 3.26371 39.8825 3.31202 40.5458 3.3763C41.2091 3.44059 41.8879 3.55296 42.5358 3.81009C42.69 3.89044 42.8597 3.95479 42.9985 4.03514C43.0757 4.08335 43.1528 4.11546 43.2299 4.16368L43.4459 4.32438C43.7236 4.54937 43.9549 4.85478 44.0937 5.19227C44.2325 5.52975 44.2943 5.89932 44.2635 6.25287C44.2326 6.60643 44.1246 6.95995 43.9549 7.2653C43.7853 7.57064 43.5693 7.86001 43.2917 8.085C43.014 8.30999 42.7209 8.48667 42.4124 8.63131C42.1039 8.77595 41.7799 8.88854 41.456 8.96889C41.2863 9.0171 41.132 9.04927 40.9623 9.08142C40.7926 9.11356 40.6383 9.1457 40.4687 9.16177C40.299 9.17784 40.1293 9.19379 39.9596 9.19379L39.4506 9.19379L38.9416 9.1456C38.7719 9.12953 38.6022 9.08138 38.4479 9.04924C37.1213 8.75997 35.9336 8.05279 34.9618 7.13676C34.0054 6.20466 33.2495 5.07971 32.7713 3.84226C32.5399 3.23157 32.3548 2.55657 32.4319 1.8816C32.4628 1.54411 32.5862 1.20663 32.7867 0.917355C32.8947 0.788789 33.0181 0.660349 33.1723 0.563925C33.234 0.515712 33.3266 0.467375 33.3883 0.435233C33.4655 0.387021 33.558 0.355005 33.6351 0.322863ZM33.6813 0.515587C33.6196 0.547728 33.5425 0.579964 33.4808 0.612105C33.4191 0.660318 33.342 0.692428 33.2803 0.74064C33.1569 0.820994 33.0489 0.933489 32.9409 1.06205C32.7558 1.30312 32.6479 1.60843 32.6324 1.91377C32.5707 2.54053 32.7559 3.18345 32.9718 3.77807C33.2032 4.37269 33.4963 4.96724 33.8665 5.48151C34.2367 6.01184 34.6533 6.51007 35.1161 6.96005C36.057 7.84394 37.2293 8.50278 38.4788 8.74384C38.6331 8.77598 38.7873 8.80812 38.957 8.82419L39.4352 8.85636L39.9134 8.85636C40.0676 8.85636 40.2373 8.82425 40.3915 8.80818C40.5458 8.79211 40.7001 8.75997 40.8698 8.72783C41.0241 8.69569 41.1783 8.66351 41.3326 8.6153C41.6411 8.53495 41.9342 8.42252 42.2272 8.27788C42.5049 8.14931 42.7825 7.97244 43.0139 7.77959C43.2453 7.58674 43.4305 7.32971 43.5693 7.07257C43.7081 6.79937 43.8006 6.50997 43.8161 6.2207C43.8315 5.93143 43.7852 5.62611 43.6618 5.36898C43.5384 5.09578 43.3534 4.87082 43.1374 4.67797L42.9523 4.54944C42.8906 4.50122 42.8135 4.46905 42.7518 4.43691C42.6284 4.35656 42.4741 4.2923 42.3352 4.22802C41.7645 4.00303 41.1165 3.90654 40.4687 3.84226C39.8208 3.77798 39.1576 3.72983 38.4788 3.58519C38.1395 3.52091 37.8155 3.40841 37.4915 3.26378C37.3373 3.18342 37.183 3.11905 37.0288 3.00655C36.9516 2.95834 36.8746 2.91013 36.8129 2.84584C36.7358 2.79763 36.6739 2.73335 36.6122 2.68514C36.0878 2.23516 35.7022 1.70482 35.2703 1.23877C35.0544 1.01378 34.8074 0.804923 34.5298 0.660286C34.4681 0.628145 34.391 0.596066 34.3139 0.563925C34.2368 0.547854 34.175 0.51565 34.0979 0.499579C34.0207 0.499579 33.9436 0.4675 33.8665 0.483571L33.6813 0.515587Z" fill="#07453A"/>
<path d="M11.5626 17.036C11.8711 16.9878 12.1796 16.9073 12.5035 16.827C12.812 16.7466 13.136 16.6502 13.4446 16.5859C14.077 16.4413 14.7557 16.3289 15.4499 16.4736C15.7893 16.5539 16.1286 16.6663 16.4217 16.8592C16.6994 17.052 16.977 17.261 17.2083 17.5181C17.4397 17.7753 17.6402 18.0645 17.7945 18.3699C17.9333 18.6913 18.0105 19.0287 18.0414 19.3823C18.0722 20.0733 17.8563 20.7644 17.5015 21.3429C17.1467 21.9215 16.6839 22.4196 16.1285 22.8053C15.5886 23.191 14.9563 23.4804 14.293 23.625L14.0461 23.6732L13.7993 23.7053C13.6296 23.7214 13.4599 23.7213 13.3057 23.7374C13.136 23.7374 12.9817 23.7374 12.812 23.7374C12.6423 23.7213 12.488 23.7214 12.3184 23.7053C11.0072 23.5607 9.72689 23.1589 8.60081 22.4839C8.03006 22.1464 7.50559 21.7446 7.05824 21.2464C6.61089 20.7643 6.25613 20.2019 6.00932 19.5752C5.88591 19.2698 5.80873 18.9322 5.7933 18.5948C5.77787 18.2573 5.85509 17.9038 6.0402 17.6145C6.22531 17.3092 6.48752 17.0842 6.78061 16.9235C7.0737 16.7628 7.41309 16.6663 7.73703 16.6181C9.06365 16.4895 10.3131 17.1003 11.5626 17.036ZM11.5935 17.2287C10.9147 17.2609 10.2822 17.1163 9.64973 17.0039C9.32579 16.9396 9.01734 16.8913 8.70882 16.8592C8.40031 16.827 8.07628 16.811 7.76776 16.8431C7.45925 16.8914 7.16628 16.9717 6.88862 17.1164C6.62638 17.2771 6.39496 17.4699 6.24071 17.727C6.08645 17.9842 6.02478 18.2895 6.0402 18.5787C6.05563 18.8841 6.13273 19.1894 6.24071 19.4786C6.47209 20.0572 6.82682 20.5875 7.25874 21.0375C7.69067 21.4875 8.1998 21.8732 8.73971 22.1946C9.83493 22.8214 11.0843 23.1911 12.3492 23.3036C12.5035 23.3197 12.6578 23.3195 12.8275 23.3356C12.9818 23.3356 13.136 23.3356 13.3057 23.3356C13.4599 23.3195 13.6142 23.3197 13.7684 23.3036L13.9998 23.2714L14.2312 23.2232C14.8328 23.0786 15.4035 22.8053 15.8972 22.4357C16.3908 22.0661 16.8227 21.616 17.1312 21.0857C17.4397 20.5714 17.6248 19.9608 17.594 19.3823C17.5786 19.093 17.5015 18.8038 17.3935 18.5306C17.2701 18.2574 17.1004 18.0163 16.8998 17.8074C16.6993 17.5824 16.4525 17.4055 16.2057 17.2287C15.9589 17.068 15.6812 16.9716 15.3881 16.9073C15.2493 16.8752 15.095 16.8592 14.9407 16.8431C14.7865 16.8431 14.6322 16.827 14.478 16.827C14.1694 16.827 13.861 16.8431 13.537 16.8913C13.2131 16.9235 12.9046 16.9717 12.5806 17.036C12.2413 17.1325 11.9174 17.1805 11.5935 17.2287Z" fill="#07453A"/>
<path d="M13.4904 16.779C12.9505 16.4576 12.4876 16.0398 12.0865 15.5577C11.6855 15.0756 11.3615 14.5291 11.161 13.9185C11.0684 13.6131 11.0067 13.2917 11.0067 12.9542C11.0067 12.6167 11.084 12.2793 11.2536 11.974C11.4233 11.6686 11.6701 11.4275 11.9478 11.2347C12.2255 11.0579 12.534 10.9132 12.8271 10.8329C13.4441 10.64 14.0765 10.5759 14.7089 10.608C15.3414 10.6401 15.9584 10.7365 16.56 10.9132C17.7632 11.2507 18.8894 11.7971 19.892 12.5203C20.3856 12.8899 20.8638 13.3077 21.2648 13.7738C21.6813 14.2398 22.0362 14.738 22.3601 15.2523C22.6841 15.7826 22.9618 16.329 23.1623 16.9075C23.3628 17.486 23.5016 18.1128 23.4553 18.7556C23.4244 19.3823 23.1776 20.0252 22.7611 20.5073C22.3446 20.9895 21.7585 21.3269 21.1414 21.4716C20.5244 21.6162 19.8766 21.6002 19.275 21.4234C18.6734 21.2466 18.118 20.9091 17.7169 20.427C17.6861 20.3788 17.6862 20.3144 17.7324 20.2823C17.7787 20.2502 17.8403 20.2502 17.8712 20.2985C18.2568 20.7324 18.7814 21.0376 19.3521 21.1983C19.9229 21.343 20.5245 21.359 21.0798 21.1983C21.6352 21.0537 22.1596 20.7484 22.5144 20.2985C22.8692 19.8646 23.0851 19.3021 23.1005 18.7396C23.1314 18.1771 23.0079 17.5826 22.8074 17.0362C22.6069 16.4898 22.3293 15.9593 22.0207 15.4612C21.6968 14.963 21.342 14.4809 20.9409 14.047C20.5399 13.6131 20.108 13.2113 19.6144 12.8739C18.658 12.1828 17.5627 11.6686 16.4212 11.3472C15.2797 11.0418 14.0611 10.9454 12.9658 11.2828C12.4259 11.4435 11.917 11.7489 11.6702 12.1989C11.5468 12.4239 11.485 12.681 11.485 12.9542C11.485 13.2274 11.5466 13.5006 11.6238 13.7738C11.7935 14.3041 12.0866 14.8183 12.4259 15.3004C12.7653 15.7826 13.1665 16.2165 13.5984 16.6183C13.6447 16.6504 13.6447 16.7147 13.5984 16.763C13.583 16.7951 13.5366 16.8111 13.4904 16.779Z" fill="#07453A"/>
<path d="M5.96296 19.4308C5.54646 19.6719 5.09909 19.8808 4.62089 20.0415C4.15812 20.2022 3.64898 20.2986 3.13993 20.2826C2.87769 20.2826 2.63088 20.2505 2.36864 20.1862C2.12183 20.1219 1.87505 20.0415 1.62823 19.913C1.13461 19.6719 0.779879 19.222 0.610195 18.7238C0.563918 18.5953 0.533036 18.4666 0.502185 18.3381C0.486759 18.2095 0.455877 18.0809 0.471303 17.9523C0.471303 17.8237 0.471394 17.6953 0.486819 17.5667C0.502245 17.5024 0.502125 17.4381 0.51755 17.3738L0.563949 17.1809C0.687354 16.6827 0.934075 16.2007 1.31972 15.8311C1.68994 15.4615 2.15277 15.2043 2.61554 15.0276C3.07831 14.8508 3.55645 14.7222 4.01922 14.5936C4.94477 14.3525 5.87037 14.0954 6.54911 13.4847C6.9039 13.1954 7.21235 12.8097 7.64427 12.5204C7.86023 12.3758 8.09171 12.2633 8.35395 12.199C8.60076 12.1347 8.863 12.1187 9.12524 12.1187C9.38747 12.1347 9.64971 12.1669 9.89652 12.2634C10.1433 12.3598 10.3747 12.5366 10.5289 12.7455C10.6832 12.9705 10.7758 13.2115 10.8221 13.4687C10.8683 13.7258 10.8682 13.9669 10.8528 14.224C10.8065 14.7222 10.6831 15.1882 10.498 15.6542C10.3129 16.1042 10.0815 16.5382 9.773 16.9239C9.74214 16.9721 9.68053 16.972 9.63425 16.9399C9.58798 16.9077 9.58789 16.8435 9.61874 16.7953C9.8964 16.4257 10.1124 15.9918 10.2666 15.5579C10.4209 15.1239 10.5444 14.6579 10.5598 14.1918C10.5907 13.7419 10.5289 13.2597 10.2666 12.9222C10.1432 12.7615 9.95817 12.6329 9.75763 12.5526C9.5571 12.4722 9.34111 12.4561 9.10972 12.4401C8.87833 12.4401 8.6624 12.4722 8.44644 12.5204C8.23048 12.5847 8.0454 12.6811 7.86029 12.8097C7.49008 13.0668 7.19702 13.4364 6.81137 13.7739C6.44116 14.1114 5.99369 14.3686 5.53092 14.5614C5.06814 14.7543 4.59001 14.8828 4.12723 15.0114C3.66446 15.14 3.20172 15.2686 2.7698 15.4293C2.33788 15.59 1.93675 15.8149 1.62823 16.1363C1.31972 16.4417 1.10376 16.8435 1.0112 17.2775C0.91865 17.6953 0.918619 18.1613 1.05745 18.5631C1.21171 18.9649 1.47398 19.3023 1.85962 19.4952C2.04473 19.5916 2.26069 19.6719 2.47665 19.7201C2.69261 19.7683 2.92397 19.8004 3.13993 19.8004C4.05005 19.8165 4.94477 19.5113 5.87031 19.2541C5.93202 19.2381 5.97826 19.2701 5.99369 19.3183C6.02454 19.3665 6.00924 19.3987 5.96296 19.4308Z" fill="#07453A"/>
<path d="M16.3907 11.1545C16.1902 11.0098 16.0051 10.8171 15.8508 10.6082C15.6966 10.3992 15.5731 10.142 15.5423 9.86881C15.496 9.59561 15.5268 9.30631 15.6348 9.03311C15.7428 8.77598 15.8971 8.53505 16.0822 8.35827C16.4678 7.97258 16.946 7.71539 17.4396 7.57075C17.6864 7.4904 17.9333 7.44225 18.1956 7.39404C18.319 7.37797 18.4578 7.36187 18.5812 7.36187L18.7663 7.3457L18.9513 7.3457C19.9849 7.37784 20.9567 7.68322 21.8669 8.10105C22.777 8.51888 23.6255 9.06531 24.3967 9.65992C25.1835 10.2706 25.8775 11.0099 26.4328 11.8294C26.7105 12.2473 26.9419 12.6972 27.1116 13.1633C27.2813 13.6454 27.3739 14.1436 27.343 14.674C27.3276 14.9311 27.2658 15.2043 27.127 15.4453C27.0036 15.6864 26.803 15.8953 26.5871 16.04C26.1397 16.3292 25.6153 16.4257 25.1063 16.4417C24.5972 16.4578 24.1036 16.3934 23.6099 16.2649C23.1317 16.1363 22.6535 15.9596 22.2216 15.6864C22.1753 15.6542 22.1599 15.5899 22.1907 15.5417C22.2216 15.4935 22.2833 15.4775 22.3296 15.5097C22.7307 15.7507 23.1934 15.9114 23.6562 16.0078C24.119 16.1203 24.6126 16.1685 25.0754 16.1363C25.5382 16.1042 26.0164 16.0079 26.3866 15.7507C26.5717 15.6222 26.7105 15.4615 26.8185 15.2686C26.911 15.0758 26.9727 14.8507 26.9727 14.6418C26.9881 14.1918 26.8956 13.7257 26.7413 13.2918C26.5717 12.8579 26.3403 12.4401 26.0781 12.0383C25.5382 11.2509 24.8595 10.5598 24.1036 9.99734C23.3323 9.4188 22.5147 8.90458 21.6508 8.50281C20.787 8.10105 19.8461 7.82788 18.9206 7.81181L18.7508 7.81181L18.5812 7.82782C18.4578 7.82782 18.3498 7.84392 18.2418 7.85999C18.0104 7.89213 17.7944 7.94034 17.563 8.0207C17.1311 8.16533 16.7146 8.39035 16.4061 8.69569C16.0976 9.00103 15.9124 9.4028 15.9433 9.82063C15.9742 10.2385 16.221 10.6563 16.5141 11.0259C16.5449 11.0741 16.545 11.1385 16.4987 11.1706C16.4833 11.1867 16.4216 11.1866 16.3907 11.1545Z" fill="#07453A"/>
<path d="M46.1298 21.9211C46.1606 22.0818 46.1761 22.2426 46.1915 22.4194C46.207 22.4998 46.207 22.58 46.2224 22.6765L46.2224 22.9175L46.2224 23.1586L46.2224 23.2871L46.2069 23.4157L46.1606 23.9139C46.0527 24.5728 45.8213 25.1995 45.4665 25.7781C45.1117 26.3405 44.6334 26.8387 44.0935 27.2244C43.5382 27.6101 42.9213 27.8833 42.2889 28.0601C41.0085 28.4137 39.6201 28.3494 38.3707 27.8994C37.7382 27.6744 37.152 27.3531 36.643 26.9192C36.1339 26.5013 35.702 25.971 35.378 25.3925L35.2546 25.1674L35.1621 24.9424C35.1004 24.7817 35.0387 24.6371 34.9924 24.4764C34.9461 24.3157 34.8998 24.155 34.869 23.9943C34.8381 23.8336 34.8073 23.6728 34.7919 23.496C34.761 23.1585 34.7765 22.8051 34.8999 22.4676C34.9616 22.2908 35.0541 22.13 35.1775 22.0015C35.3009 21.8568 35.4552 21.7604 35.6249 21.6801C35.9643 21.5194 36.3499 21.5032 36.6738 21.5675C37.0132 21.6157 37.3217 21.7283 37.6303 21.8408C37.9388 21.9533 38.2318 22.0819 38.5249 22.1783C38.818 22.2748 39.1111 22.3551 39.4042 22.339C39.6973 22.339 39.9904 22.2587 40.2835 22.1462C40.5766 22.0337 40.8543 21.889 41.1319 21.7444C41.6873 21.4391 42.2426 21.1015 42.8288 20.8283C43.1218 20.6837 43.4304 20.5712 43.7543 20.5069C44.0782 20.4266 44.433 20.4266 44.7723 20.5391C45.0963 20.6516 45.3893 20.8605 45.5899 21.1176C45.8058 21.3265 45.9755 21.5997 46.1298 21.9211ZM45.9293 21.9693C45.7904 21.7122 45.6361 21.4391 45.4356 21.2141C45.2351 20.9891 44.9882 20.7962 44.7106 20.7158C44.4329 20.6355 44.1245 20.6355 43.8314 20.6998C43.5383 20.7641 43.2452 20.8927 42.9675 21.0212C42.3967 21.2944 41.8723 21.6479 41.3015 21.9693C41.0239 22.13 40.7308 22.2747 40.4223 22.4032C40.1137 22.5318 39.7899 22.6283 39.4351 22.6283C39.0803 22.6444 38.7409 22.5478 38.4324 22.4514C38.1239 22.355 37.8153 22.2264 37.5223 22.13C37.2292 22.0175 36.936 21.9211 36.643 21.8889C36.3499 21.8407 36.0568 21.8569 35.8254 21.9855C35.702 22.0497 35.5941 22.1301 35.5015 22.2265C35.409 22.3229 35.3472 22.4514 35.3009 22.5639C35.2083 22.8211 35.1929 23.1264 35.2238 23.4157C35.2392 23.5603 35.27 23.7211 35.3009 23.8658C35.3317 24.0104 35.3781 24.1549 35.4244 24.2995C35.4553 24.4442 35.517 24.5888 35.5787 24.7335L35.6712 24.9424L35.7792 25.1352C36.0723 25.6656 36.4579 26.1477 36.9361 26.5334C37.4143 26.9191 37.9541 27.2244 38.5403 27.4173C39.6972 27.8351 40.9931 27.8672 42.1808 27.5458C42.767 27.3851 43.3378 27.128 43.8314 26.7745C44.325 26.4209 44.7569 25.9709 45.0808 25.4567C45.4048 24.9424 45.6208 24.3799 45.7596 23.7692C45.8059 23.4639 45.883 23.1585 45.8984 22.8532L45.9293 22.6283C45.9447 22.5479 45.9292 22.4836 45.9446 22.4032C45.9138 22.2747 45.9138 22.13 45.9293 21.9693Z" fill="#07453A"/>
</svg>
