<svg width="93" height="71" viewBox="0 0 93 71" fill="none" xmlns="http://www.w3.org/2000/svg">
<path d="M76.5145 53.9086C77.3723 53.4908 78.23 53.1211 79.0878 52.7515C79.9455 52.3819 80.8033 51.9801 81.6286 51.5301C82.454 51.0801 83.2632 50.598 84.0239 50.0677C84.4123 49.7945 84.7845 49.5213 85.1406 49.216L85.4157 48.991L85.6746 48.7499C85.8527 48.5892 86.0307 48.4446 86.1925 48.2839C87.5682 47.0143 88.7982 45.584 89.7692 43.993C90.2385 43.1895 90.6593 42.3538 90.983 41.486C91.3067 40.6181 91.5333 39.7021 91.6466 38.77C91.6466 38.7218 91.7113 38.6736 91.7598 38.6897C91.8084 38.6897 91.8569 38.7379 91.8408 38.8022C91.6627 40.6985 91.0154 42.5306 90.0605 44.1859C89.1057 45.8412 87.8595 47.3035 86.4838 48.6213C86.3058 48.782 86.1278 48.9427 85.9498 49.1034L85.6908 49.3445L85.4157 49.5696C85.0435 49.8749 84.6713 50.1642 84.2828 50.4374C83.506 50.9838 82.6806 51.4819 81.8552 51.948C81.0137 52.398 80.1559 52.8158 79.282 53.2015C78.408 53.5872 77.5179 53.9086 76.5793 54.1014C76.5307 54.1175 76.466 54.0854 76.466 54.0211C76.4498 53.9729 76.4822 53.9247 76.5145 53.9086Z" fill="#07453A"/>
<path d="M56.1715 21.253C56.3657 19.196 56.0097 17.1229 55.2328 15.2266C54.456 13.3303 53.3069 11.5785 51.9313 10.0518C51.2516 9.28045 50.5071 8.55728 49.7303 7.88232C48.9535 7.20736 48.1281 6.56457 47.2865 5.98603C45.5872 4.81288 43.7584 3.80045 41.8649 2.94872C39.9713 2.08091 37.9969 1.45414 35.9415 1.08452C33.9023 0.730969 31.8146 0.554178 29.7269 0.586319C25.5676 0.63453 21.4083 1.27738 17.4432 2.54695C17.2005 2.62731 16.9415 2.70766 16.6988 2.78801L15.9705 3.04515C15.485 3.20586 14.9994 3.41478 14.5139 3.60762C14.0284 3.80047 13.5591 4.02542 13.0897 4.21827L12.3938 4.55577C12.1672 4.66826 11.9245 4.78071 11.6979 4.90927C11.2448 5.15033 10.7754 5.39142 10.3385 5.66462L9.67494 6.06638L9.02758 6.48423L8.7039 6.69312C8.59061 6.7574 8.4935 6.83773 8.38022 6.91809L7.74902 7.36811C7.53863 7.51274 7.34441 7.68952 7.13402 7.85022C6.93981 8.01093 6.72943 8.17165 6.53522 8.34843C4.98156 9.69835 3.55736 11.2411 2.52158 13.0249C2.24646 13.4588 2.03608 13.9248 1.8095 14.3909C1.69622 14.6319 1.61529 14.8731 1.51819 15.098C1.46963 15.2105 1.4211 15.3391 1.37255 15.4515L1.25927 15.8212L1.14595 16.1908L1.08123 16.3676L1.03267 16.5604L0.854666 17.3157C0.773746 17.8139 0.676634 18.3282 0.644266 18.8424C0.547162 19.8549 0.56333 20.8995 0.708986 21.9119C0.854642 22.9244 1.08124 23.9368 1.42111 24.9011C1.76097 25.8653 2.18172 26.8134 2.68342 27.7134C3.18513 28.6133 3.76777 29.4651 4.39894 30.2847C6.95601 33.5309 10.4841 36.0218 14.433 37.3235L14.4492 37.3235C16.5046 38.2396 18.7541 38.7056 20.9875 38.9467C23.2371 39.1877 25.519 39.2038 27.7848 39.0591C30.0506 38.9145 32.3001 38.6091 34.5335 38.1752C36.7669 37.7253 38.9517 37.1467 41.1042 36.4075C41.1528 36.3914 41.2175 36.4236 41.2337 36.4718C41.2499 36.52 41.2175 36.5843 41.1689 36.6004C39.0165 37.3557 36.8155 37.9503 34.5821 38.4163C32.3487 38.8663 30.0829 39.1877 27.801 39.3323C25.5191 39.477 23.2371 39.477 20.9552 39.252C18.6894 39.0109 16.4236 38.5449 14.3035 37.6289L14.3197 37.6289C13.3163 37.2914 12.3453 36.8896 11.3904 36.4236C10.4517 35.9415 9.54545 35.4111 8.6877 34.8004C7.82995 34.1898 7.00455 33.5309 6.2439 32.8077C5.48325 32.0845 4.77117 31.3132 4.10762 30.4936C3.46026 29.6579 2.87763 28.7901 2.35974 27.8741C1.85804 26.9581 1.42107 25.9938 1.06503 24.9974C0.708978 24.001 0.482402 22.9726 0.336747 21.928C0.191091 20.8834 0.174923 19.8228 0.272026 18.7782C0.304394 18.2478 0.401483 17.7336 0.498586 17.2193L0.676626 16.448L0.725186 16.2551L0.789906 16.0623L0.903186 15.6926L1.01651 15.323C1.06506 15.1944 1.11359 15.0819 1.16215 14.9533C1.25925 14.7123 1.35634 14.4552 1.46963 14.2142C1.6962 13.7481 1.92278 13.266 2.1979 12.816C3.24986 10.984 4.69027 9.40908 6.2763 8.02702C6.47051 7.85024 6.68087 7.68952 6.89126 7.52881C7.10165 7.36811 7.29587 7.19133 7.50626 7.0467L8.15362 6.58067C8.2669 6.50032 8.36401 6.4199 8.4773 6.35562L8.80098 6.14673L9.46454 5.7128L10.1443 5.31104C10.5974 5.03784 11.0667 4.79681 11.5199 4.53968C11.7465 4.41112 11.9892 4.29859 12.232 4.1861L12.9441 3.84868C13.4296 3.63976 13.8989 3.41471 14.3844 3.22187C14.87 3.02902 15.3555 2.8201 15.8572 2.6594L16.6016 2.38625C16.8444 2.3059 17.1034 2.22554 17.3461 2.14519C21.3598 0.859549 25.5514 0.200673 29.7592 0.152462C31.8631 0.136391 33.9671 0.297034 36.0548 0.650585C37.0906 0.843431 38.1264 1.06843 39.1298 1.38984C39.6315 1.53448 40.1332 1.72736 40.6349 1.90413C41.1204 2.09698 41.6059 2.30586 42.0914 2.51478C44.0173 3.36652 45.8623 4.39505 47.594 5.58427C49.3257 6.77348 50.9441 8.15553 52.3359 9.74651C53.7277 11.3214 54.9091 13.1214 55.6536 15.098C56.4143 17.0586 56.7056 19.212 56.4304 21.3012C56.4304 21.3494 56.3657 21.3976 56.3172 21.3815C56.2039 21.3494 56.1715 21.3012 56.1715 21.253Z" fill="#07453A"/>
<path d="M0.546957 19.7748C0.595509 20.2569 0.611693 20.723 0.627877 21.189C0.644061 21.6551 0.627877 22.1371 0.627877 22.6032L0.579317 25.4477C0.546949 27.3441 0.530781 29.2404 0.514597 31.1206C0.498413 33.017 0.482237 34.9133 0.482237 36.7936L0.466037 42.4665C0.466037 42.5147 0.417509 42.5629 0.368957 42.5629C0.320405 42.5629 0.271837 42.5147 0.271837 42.4665C0.207101 40.5702 0.158565 38.6739 0.126197 36.7936C0.0938286 34.8973 0.0776367 33.0009 0.0776367 31.1045C0.0776367 29.2082 0.0938128 27.3119 0.109997 25.4156L0.142357 22.5711C0.158541 21.6229 0.207101 20.6747 0.352757 19.7266C0.368941 19.6784 0.417485 19.6301 0.466037 19.6462C0.498405 19.6944 0.530773 19.7265 0.546957 19.7748Z" fill="#07453A"/>
<path d="M56.3817 21.2212C56.5112 22.0729 56.5274 22.9407 56.5274 23.7925C56.5274 24.6442 56.5112 25.512 56.495 26.3637C56.4626 28.0833 56.4141 29.8028 56.3494 31.5063C56.2684 33.2258 56.1713 34.9293 56.0742 36.6488C55.9609 38.3684 55.8476 40.0718 55.7343 41.7914C55.7343 41.8396 55.6858 41.8878 55.621 41.8878C55.5725 41.8878 55.5239 41.8396 55.5239 41.7914C55.5725 40.0718 55.6534 38.3684 55.7182 36.6488C55.7829 34.9293 55.8638 33.2258 55.9124 31.5063C55.9771 29.7867 56.0095 28.0833 56.0257 26.3637C56.0418 25.512 56.0419 24.6442 56.0419 23.7925C56.0419 23.3586 56.0419 22.9407 56.0742 22.5068C56.0904 22.0729 56.1228 21.6551 56.1875 21.2212C56.1875 21.173 56.2522 21.1248 56.3008 21.1408C56.3332 21.1408 56.3655 21.173 56.3817 21.2212Z" fill="#07453A"/>
<path d="M55.7181 41.8227C55.6857 41.9834 55.6209 42.1441 55.5238 42.3048C55.4267 42.4494 55.2973 42.594 55.1516 42.6905C54.8441 42.8994 54.4719 42.9797 54.132 42.9958C53.954 42.9958 53.776 42.9797 53.6141 42.9476L53.1448 42.8512C52.8373 42.7869 52.5136 42.7226 52.2061 42.6423C50.9599 42.353 49.7138 42.0316 48.4838 41.6941C47.2538 41.3406 46.0238 40.9709 44.81 40.5852C43.5962 40.1834 42.3824 39.7656 41.201 39.2995C41.1524 39.2835 41.1201 39.2192 41.1524 39.171C41.1686 39.1228 41.2333 39.0907 41.2819 39.1067C42.4957 39.5085 43.7095 39.8781 44.9233 40.2478C46.1371 40.6013 47.3671 40.9549 48.5971 41.2763C49.8271 41.5977 51.057 41.919 52.3032 42.1923C52.6107 42.2565 52.9182 42.3208 53.2419 42.3851L53.7112 42.4655C53.8569 42.4976 54.0025 42.4976 54.1482 42.5137C54.4395 42.5137 54.7146 42.4655 54.9574 42.337C55.0707 42.2727 55.184 42.1923 55.2973 42.0959C55.3944 41.9995 55.4915 41.887 55.5724 41.7584C55.6047 41.7102 55.6695 41.6941 55.7181 41.7262C55.7181 41.7423 55.7342 41.7905 55.7181 41.8227Z" fill="#07453A"/>
<path d="M91.9218 38.6416C92.0513 39.5898 92.0837 40.5379 92.0837 41.5021L92.0837 44.3627C92.0837 46.259 92.0836 48.1714 92.0998 50.0677C92.0998 51.9641 92.1322 53.8765 92.197 55.7728C92.2455 57.6691 92.3426 59.5655 92.4721 61.4618C92.4721 61.51 92.4397 61.5582 92.375 61.5743C92.3264 61.5743 92.2779 61.5421 92.2617 61.4778C92.0675 59.5815 91.938 57.6852 91.8409 55.7728C91.7438 53.8765 91.6952 51.9641 91.6629 50.0677C91.6305 48.1714 91.6305 46.259 91.6143 44.3627L91.5981 41.5021C91.5981 41.02 91.5981 40.554 91.6143 40.0719C91.6305 39.5898 91.6629 39.1237 91.7114 38.6416C91.7114 38.5934 91.7762 38.5452 91.8247 38.5613C91.8733 38.5613 91.9056 38.5934 91.9218 38.6416Z" fill="#07453A"/>
<path d="M0.514505 42.4497C0.967657 43.2854 1.48556 44.0889 2.06818 44.8442C2.65081 45.5995 3.28197 46.3067 3.9617 46.9656C5.32116 48.2994 6.85864 49.4565 8.46086 50.5172C9.25387 51.0475 10.0792 51.5618 10.9046 52.0439C11.73 52.5099 12.5878 52.9599 13.4617 53.3616C13.8987 53.5706 14.3356 53.7473 14.7888 53.9241L15.4685 54.1813L15.8084 54.3099L16.1482 54.4223C17.0546 54.7437 17.977 54.9848 18.9157 55.2098C22.6542 56.0936 26.5545 56.2383 30.374 55.7883C34.1934 55.3544 37.9481 54.342 41.5409 52.9599C41.5895 52.9438 41.6542 52.9599 41.6704 53.0242C41.6866 53.0724 41.6704 53.1367 41.6218 53.1528C38.029 54.5991 34.2743 55.6598 30.4225 56.1419C26.5707 56.624 22.6218 56.5115 18.8348 55.6437C17.8961 55.4187 16.9412 55.1616 16.0349 54.8563L15.6951 54.7437L15.3552 54.6152L14.6755 54.3581C14.2223 54.1652 13.7692 53.9884 13.3322 53.7956C12.4421 53.4099 11.5843 52.9439 10.7428 52.4618C9.90121 51.9796 9.07582 51.4654 8.26662 50.919C6.64822 49.8583 5.0784 48.6852 3.68658 47.3192C2.29476 45.9692 1.09714 44.3621 0.401225 42.5462C0.385041 42.4979 0.401209 42.4337 0.465945 42.4176C0.433577 42.3855 0.498321 42.4176 0.514505 42.4497Z" fill="#07453A"/>
<path d="M76.9029 70.7191C77.2265 70.5263 77.5664 70.3495 77.9063 70.1888C78.2461 70.0121 78.586 69.8674 78.9259 69.7067L79.9454 69.2407L80.965 68.7425C82.3083 68.0675 83.6354 67.3443 84.9139 66.5569C86.2086 65.7855 87.471 64.9659 88.7009 64.082C89.9309 63.2142 91.1286 62.2982 92.31 61.35C92.3585 61.3179 92.4233 61.3179 92.4557 61.3661C92.488 61.4143 92.488 61.4625 92.4395 61.5107C91.3066 62.5232 90.1251 63.4713 88.9113 64.3713C87.6976 65.2712 86.4352 66.123 85.1567 66.9265C83.862 67.7301 82.5349 68.4693 81.1754 69.1603L80.1558 69.6585L79.12 70.1407C78.764 70.2853 78.4241 70.446 78.0681 70.5745C77.712 70.7031 77.3398 70.8156 76.9676 70.8959C76.919 70.912 76.8543 70.8799 76.8381 70.8156C76.8381 70.7834 76.8705 70.7352 76.9029 70.7191Z" fill="#07453A"/>
<path d="M41.1682 36.4882C41.233 36.8257 41.2653 37.1793 41.2815 37.5168C41.3139 37.8542 41.3139 38.2078 41.3139 38.5453C41.3301 39.2363 41.3301 39.9273 41.3463 40.6184C41.3786 42.0004 41.4272 43.3825 41.4758 44.7485L41.589 48.8947C41.6214 50.2768 41.6376 51.6588 41.6376 53.0409C41.6376 53.0891 41.589 53.1373 41.5405 53.1373C41.4919 53.1373 41.4434 53.0891 41.4434 53.0409L41.0387 44.7645C40.974 43.3825 40.9254 42.0004 40.8769 40.6184C40.8607 39.9273 40.8446 39.2363 40.8284 38.5453C40.8122 37.8542 40.8445 37.1632 40.9578 36.4722C40.974 36.424 41.0226 36.3758 41.0711 36.3918C41.1197 36.4079 41.152 36.44 41.1682 36.4882Z" fill="#07453A"/>
<path d="M76.8868 54.1006C76.9516 54.4541 76.984 54.8077 77.0001 55.1451C77.0163 55.4987 77.0325 55.8523 77.0325 56.1897L77.0487 58.295L77.0972 62.4894L77.1296 66.6838C77.1296 68.0819 77.1458 69.48 77.1458 70.8942C77.1458 70.9424 77.0972 70.9907 77.0487 70.9907C77.0001 70.9907 76.9516 70.9424 76.9516 70.8942C76.8868 69.4961 76.8383 68.0979 76.7897 66.6998L76.6603 62.5055L76.5955 58.295L76.5793 56.1897C76.5793 55.4826 76.5955 54.7916 76.7088 54.0845C76.725 54.0363 76.7736 53.9881 76.8221 54.0041C76.8545 54.0202 76.8868 54.0524 76.8868 54.1006Z" fill="#07453A"/>
<path d="M56.3169 21.3172C55.0384 21.2368 53.776 21.0601 52.5137 20.8833C51.2513 20.6905 49.989 20.5136 48.7266 20.3369C46.2019 19.9833 43.6772 19.6458 41.1525 19.3244C38.6278 19.003 36.1031 18.7298 33.5622 18.4887C31.0213 18.2476 28.4966 18.0227 25.9557 17.9423C25.9072 17.9423 25.8586 17.8941 25.8586 17.8459C25.8586 17.7977 25.9072 17.7495 25.9557 17.7495C27.2343 17.7656 28.5128 17.8138 29.7752 17.878C31.0537 17.9423 32.316 18.0388 33.5946 18.1352C36.1355 18.3441 38.6763 18.6012 41.201 18.8905C43.7257 19.1958 46.2505 19.5333 48.7914 19.8708C50.0537 20.0476 51.316 20.2244 52.5784 20.4012C53.8408 20.5941 55.1031 20.803 56.3331 21.1083C56.3816 21.1244 56.414 21.1726 56.414 21.2368C56.414 21.3011 56.3655 21.3333 56.3169 21.3172Z" fill="#07453A"/>
<path d="M91.7922 38.8503C90.5137 38.7699 89.2513 38.5931 87.989 38.4164C86.7266 38.2235 85.4643 38.0468 84.202 37.87C81.6773 37.5165 79.1525 37.179 76.6278 36.8576C74.1031 36.5362 71.5784 36.263 69.0375 36.0219C66.4966 35.7809 63.9719 35.5559 61.4311 35.4756C61.3825 35.4756 61.334 35.4274 61.334 35.3792C61.334 35.3309 61.3825 35.2827 61.4311 35.2827C62.7096 35.2988 63.9881 35.347 65.2505 35.4113C66.529 35.4756 67.7914 35.572 69.0699 35.6685C71.6108 35.8774 74.1517 36.1344 76.6764 36.4237C79.2011 36.729 81.7258 37.0665 84.2667 37.404C85.529 37.5808 86.7914 37.7575 88.0537 37.9343C89.3161 38.1271 90.5784 38.3361 91.8084 38.6414C91.857 38.6575 91.8893 38.7056 91.8893 38.7699C91.8893 38.8181 91.8408 38.8503 91.7922 38.8503Z" fill="#07453A"/>
<path d="M25.9885 17.9103C26.3446 18.2639 26.6845 18.6335 27.0081 19.0031C27.348 19.3727 27.6555 19.7584 27.9792 20.1441C28.6104 20.9155 29.2577 21.6708 29.8889 22.4422L33.7568 27.0062C35.0354 28.5329 36.2978 30.0757 37.5439 31.6506C38.7739 33.2255 39.9877 34.8004 41.1368 36.4396C41.1691 36.4878 41.1529 36.5521 41.1044 36.5842C41.0558 36.6164 40.9911 36.6003 40.9587 36.5681C39.7611 34.9772 38.5149 33.4184 37.2526 31.8917C35.9903 30.3489 34.6955 28.8222 33.4008 27.3116L29.5167 22.7636C28.8693 22.0083 28.222 21.2369 27.5908 20.4655C26.9596 19.6941 26.3446 18.9067 25.8105 18.055C25.7782 18.0067 25.7944 17.9425 25.8429 17.9103C25.9076 17.8782 25.9562 17.8782 25.9885 17.9103Z" fill="#07453A"/>
<path d="M61.4635 35.4435C61.8358 35.7971 62.1756 36.1668 62.4993 36.5524C62.8392 36.9221 63.1629 37.3077 63.4865 37.7095C64.1339 38.4809 64.7813 39.2522 65.4286 40.0236L69.3451 44.652C70.6399 46.1947 71.9184 47.7535 73.1807 49.3445C74.4269 50.9194 75.6569 52.5426 76.8221 54.1818C76.8545 54.23 76.8383 54.2943 76.8059 54.3264C76.7574 54.3585 76.6927 54.3425 76.6603 54.3104C75.4465 52.7033 74.1842 51.1284 72.9056 49.5696C71.6271 48.0107 70.3162 46.4679 69.0053 44.9412L65.0725 40.345C64.4252 39.5736 63.7617 38.8023 63.1143 38.0309C62.4669 37.2595 61.8519 36.456 61.3179 35.5882C61.2855 35.54 61.3017 35.4757 61.3502 35.4435C61.3826 35.3953 61.4312 35.4114 61.4635 35.4435Z" fill="#07453A"/>
<path d="M0.514653 21.6222C0.95162 20.7704 1.46952 19.967 2.01977 19.1795C2.57003 18.3921 3.12029 17.6207 3.68673 16.8493C4.80342 15.3065 5.95246 13.7637 7.10152 12.2531C8.26677 10.7425 9.44823 9.23183 10.6458 7.75334C11.8596 6.27485 13.0734 4.79639 14.352 3.36612C14.3843 3.31791 14.449 3.31789 14.4976 3.35003C14.5461 3.38217 14.5462 3.44644 14.5138 3.49465C13.3 4.95707 12.1024 6.4516 10.9371 7.96223C9.75569 9.47286 8.60664 10.9835 7.47376 12.5102C6.3247 14.0369 5.19182 15.5797 4.07513 17.1224C3.52487 17.8938 2.97463 18.6813 2.42437 19.4527C2.14924 19.8384 1.87412 20.2241 1.58281 20.6098C1.2915 20.9955 1.00017 21.3651 0.676493 21.7347C0.644125 21.7829 0.579405 21.7829 0.530853 21.7508C0.498485 21.7026 0.498469 21.6543 0.514653 21.6222Z" fill="#07453A"/>
<path d="M1.19397 24.4354C1.4691 23.9211 1.76042 23.423 2.05173 22.9248C2.35923 22.4266 2.68289 21.9445 3.00657 21.4784L3.99381 20.0482L4.99721 18.634C6.34048 16.7537 7.73232 14.8895 9.14033 13.0575C10.5483 11.2254 11.9887 9.40947 13.4291 7.5935C14.8695 5.7936 16.3422 3.9937 17.7988 2.20987C17.8311 2.16166 17.8958 2.16164 17.9444 2.19378C17.993 2.22592 17.993 2.29019 17.9606 2.3384L13.7042 7.81847C12.28 9.65051 10.872 11.4826 9.49637 13.3307C8.10455 15.1788 6.72892 17.0269 5.38565 18.9232L4.38221 20.3374L3.39501 21.7677C3.07133 22.2499 2.74764 22.7159 2.40777 23.1819C2.06791 23.648 1.72805 24.114 1.35581 24.564C1.32345 24.6122 1.25873 24.6122 1.21017 24.5801C1.17781 24.5319 1.17779 24.4675 1.19397 24.4354Z" fill="#07453A"/>
<path d="M0.57925 17.8936C0.822008 17.299 1.14569 16.7525 1.51792 16.2383C1.87397 15.724 2.2462 15.2098 2.61843 14.7116C3.36289 13.6991 4.12355 12.7028 4.90037 11.7064C5.6772 10.7101 6.47018 9.72979 7.26319 8.74949C8.0562 7.7692 8.84922 6.80495 9.65841 5.84073C9.69078 5.79251 9.7555 5.7925 9.80405 5.82464C9.8526 5.85678 9.85262 5.92105 9.82025 5.96926C9.05961 6.9817 8.29895 7.9781 7.53831 8.97447C6.77767 9.97083 6.00087 10.9672 5.25641 11.9796C4.49577 12.976 3.7351 13.9884 3.00683 15.0009C2.6346 15.5151 2.27856 16.0133 1.92252 16.5276C1.7445 16.7847 1.56649 17.0418 1.37228 17.2828C1.17808 17.5239 0.983862 17.781 0.757288 18.006C0.72492 18.0542 0.660201 18.0542 0.611649 18.006C0.563097 17.9739 0.563066 17.9418 0.57925 17.8936Z" fill="#07453A"/>
<path d="M2.13282 27.1674C2.4565 26.5728 2.79635 25.9943 3.13622 25.4157C3.49227 24.8533 3.86451 24.2908 4.23674 23.7283L5.36962 22.0731L6.5187 20.4178C8.07236 18.2161 9.64221 16.0467 11.2444 13.8932C12.8466 11.7398 14.4812 9.60233 16.132 7.48102C17.7828 5.35971 19.4497 3.25447 21.1005 1.13316C21.1328 1.08495 21.1976 1.08501 21.2462 1.11715C21.2947 1.14929 21.2947 1.21356 21.2623 1.26177L16.4071 7.68998C14.7887 9.82736 13.1865 11.9808 11.6005 14.1503C10.0144 16.3037 8.44458 18.4894 6.9071 20.691L5.75802 22.3463L4.62514 24.0016C4.25291 24.564 3.88067 25.1104 3.49226 25.6568C3.10384 26.2032 2.71544 26.7496 2.29466 27.2799C2.26229 27.3282 2.19757 27.3282 2.14902 27.296C2.11665 27.2639 2.11663 27.2156 2.13282 27.1674Z" fill="#07453A"/>
<path d="M3.4763 29.5778C4.05892 28.1957 4.81958 26.894 5.62877 25.6405C6.45416 24.387 7.31189 23.1656 8.20201 21.9604C9.09213 20.7551 9.99845 19.5659 10.8886 18.3767C11.7787 17.1875 12.685 15.9982 13.5913 14.809C15.4039 12.4466 17.2489 10.0843 19.0938 7.73797C20.9388 5.39168 22.7838 3.04542 24.6287 0.699124C24.6611 0.650913 24.7258 0.650897 24.7744 0.683038C24.8229 0.715179 24.823 0.779445 24.7906 0.827657C22.9942 3.22216 21.1978 5.60058 19.3852 7.96294C17.5725 10.3253 15.7599 12.7038 13.9635 15.0822C13.0572 16.2714 12.1671 17.4606 11.277 18.6659C10.3868 19.8551 9.48055 21.0444 8.60661 22.2497C7.73268 23.455 6.87493 24.6763 6.06573 25.9137C5.25654 27.1672 4.47971 28.4207 3.6867 29.6742C3.65433 29.7224 3.58957 29.7385 3.54102 29.7064C3.47628 29.6742 3.46011 29.626 3.4763 29.5778Z" fill="#07453A"/>
<path d="M5.06247 31.2496C5.90404 29.8997 6.92362 28.6783 7.92703 27.4569C8.42873 26.8463 8.93041 26.2356 9.39974 25.6088L10.8239 23.7124C12.7013 21.1733 14.5624 18.6181 16.4074 16.0468C18.2524 13.4755 20.0974 10.9042 21.91 8.31686L27.3964 0.570802C27.4287 0.52259 27.4934 0.506567 27.542 0.538708C27.5906 0.570849 27.5905 0.635116 27.5744 0.683328C25.7941 3.30283 24.0139 5.90624 22.2175 8.52574C20.4211 11.1292 18.6084 13.7166 16.7797 16.304C14.9509 18.8913 13.0897 21.4465 11.2124 24.0018L9.80434 25.9141C9.33501 26.557 8.83333 27.1677 8.33162 27.7784C7.31203 28.9997 6.27626 30.1729 5.25667 31.3781C5.2243 31.4264 5.15954 31.4264 5.11099 31.3942C5.03007 31.346 5.0301 31.2978 5.06247 31.2496Z" fill="#07453A"/>
<path d="M7.32801 33.1286C8.12102 31.6501 9.04349 30.2359 10.0145 28.8699C10.9856 27.5039 11.989 26.154 12.9924 24.8041C14.9992 22.1203 17.0384 19.4686 18.9643 16.7206C20.8902 13.9886 22.719 11.1763 24.5963 8.39609C26.4575 5.61589 28.3834 2.85178 30.4549 0.216214C30.4873 0.168003 30.552 0.167987 30.6006 0.200128C30.6491 0.232269 30.6491 0.296535 30.6168 0.344747C28.5776 2.99638 26.7164 5.7927 24.8876 8.58897C23.0427 11.3852 21.2462 14.2136 19.3365 16.9777C17.4106 19.7258 15.3714 22.3935 13.3808 25.0773C12.3774 26.4272 11.3902 27.7771 10.4191 29.1431C9.44809 30.5091 8.49323 31.8751 7.50601 33.2411C7.47364 33.2893 7.40892 33.2893 7.36037 33.2572C7.328 33.2251 7.31182 33.1607 7.32801 33.1286Z" fill="#07453A"/>
<path d="M9.64239 35.2502C10.6943 33.852 11.6978 32.4378 12.7012 31.0076C13.7046 29.5773 14.6594 28.1148 15.6952 26.7006C17.7344 23.8561 19.725 20.9956 21.6671 18.0868C23.6253 15.1941 25.5512 12.2854 27.4609 9.36054L33.2063 0.602108C33.2386 0.553896 33.3033 0.537794 33.3519 0.569935C33.4004 0.602076 33.4167 0.666421 33.3843 0.714633L27.7523 9.55342C25.8587 12.4943 23.9652 15.4352 22.0231 18.3439C20.081 21.2527 18.0904 24.1294 16.0675 26.9738C15.064 28.388 14.093 29.8504 13.0896 31.2968C12.0862 32.7271 11.018 34.1413 9.78807 35.3948C9.7557 35.4269 9.69094 35.4269 9.64239 35.3948C9.6262 35.3466 9.6262 35.2984 9.64239 35.2502Z" fill="#07453A"/>
<path d="M12.4911 36.6643C12.9442 35.8929 13.4136 35.1216 13.8991 34.3662C14.3846 33.6109 14.8701 32.8556 15.3718 32.1164L18.3659 27.6487L24.3377 18.6975C26.3445 15.7244 28.3352 12.7353 30.3582 9.77829C32.3812 6.80524 34.4203 3.86431 36.4757 0.923397C36.5081 0.875185 36.5728 0.859083 36.6214 0.891224C36.6699 0.923366 36.6861 0.987711 36.6537 1.03592C34.6308 4.00898 32.6401 6.98197 30.6495 9.97109C28.6589 12.9602 26.6844 15.9494 24.71 18.9385L18.7543 27.9058L15.7602 32.3895C14.7568 33.8841 13.7372 35.3465 12.6367 36.7768C12.6044 36.825 12.5396 36.8251 12.4911 36.7929C12.4911 36.7608 12.4749 36.7125 12.4911 36.6643Z" fill="#07453A"/>
<path d="M15.7761 37.8694C15.9865 37.4677 16.2292 37.0981 16.472 36.7124C16.7148 36.3267 16.9575 35.9571 17.2164 35.5875L17.9771 34.4785L18.7216 33.3536C19.7088 31.859 20.6636 30.3324 21.6185 28.8057C22.5733 27.279 23.512 25.7523 24.4507 24.2256L27.2505 19.6294C27.2829 19.5812 27.3476 19.5652 27.3962 19.5973C27.4447 19.6294 27.4609 19.6776 27.4285 19.7258C26.5546 21.3007 25.6483 22.8596 24.742 24.4024C23.8357 25.9451 22.9132 27.5039 21.9745 29.0306C21.0359 30.5573 20.081 32.084 19.0938 33.5946L18.3493 34.7196L17.5887 35.8445C17.087 36.5838 16.5367 37.307 15.9056 37.9659C15.8732 38.0141 15.8084 38.0141 15.7599 37.9659C15.7599 37.9498 15.7599 37.9016 15.7761 37.8694Z" fill="#07453A"/>
<path d="M62.9202 37.3237C62.8716 37.1791 62.8878 37.0987 62.9364 37.0184L63.082 36.7773C63.1791 36.6166 63.2762 36.4559 63.3895 36.3113C63.6161 36.022 63.8427 35.7166 64.1016 35.4595C64.134 35.4113 64.1988 35.4113 64.2473 35.4595C64.2797 35.4916 64.2797 35.5399 64.2635 35.572C64.1178 35.9095 63.9398 36.2309 63.7456 36.5523C63.6485 36.713 63.5676 36.8738 63.4704 37.0345L63.341 37.2755C63.2924 37.3559 63.2277 37.4201 63.082 37.4362C63.0173 37.4362 62.9364 37.404 62.9202 37.3237Z" fill="#07453A"/>
<path d="M28.4318 17.7493C28.7879 17.0101 29.2249 16.319 29.6942 15.6441C30.1635 14.9691 30.6329 14.3103 31.1184 13.6514L33.9991 9.68191C34.9702 8.36412 35.9251 7.04633 36.8637 5.72854C37.8024 4.39469 38.7249 3.06082 39.6312 1.69483C39.6635 1.64661 39.7283 1.63059 39.7768 1.66273C39.8254 1.69487 39.8416 1.75912 39.8092 1.79126C38.9676 3.1894 38.0775 4.55543 37.1712 5.92142C36.2487 7.27134 35.31 8.6052 34.3714 9.93905L31.523 13.9084C31.0537 14.5673 30.5843 15.2423 30.115 15.9172C29.8884 16.2547 29.6456 16.5762 29.4029 16.9136C29.1601 17.2351 28.9012 17.5564 28.626 17.8618C28.5937 17.91 28.529 17.91 28.4804 17.8618C28.4319 17.8296 28.4157 17.7815 28.4318 17.7493Z" fill="#07453A"/>
<path d="M19.1909 38.7863C19.5308 38.0471 19.9516 37.3721 20.3885 36.6972L21.6994 34.6883L24.3374 30.6707L26.9916 26.6691C27.8817 25.3353 28.7718 24.0014 29.6781 22.6836C29.7105 22.6354 29.7753 22.6194 29.8238 22.6515C29.8724 22.6836 29.8885 22.7479 29.8562 22.78C29.0146 24.146 28.1568 25.4959 27.2991 26.8459L24.7097 30.8957L22.104 34.9294L20.7931 36.9382C20.3562 37.6132 19.903 38.2721 19.3689 38.8828C19.3366 38.931 19.2719 38.9309 19.2233 38.8988C19.1748 38.8666 19.1585 38.8185 19.1909 38.7863Z" fill="#07453A"/>
<path d="M65.3315 40.377C65.3477 40.1199 65.461 39.9271 65.5743 39.7342L65.9465 39.1718C66.1893 38.8021 66.4482 38.4325 66.691 38.0629C66.9499 37.6933 67.1927 37.3237 67.4678 36.9541C67.7268 36.5845 67.9857 36.2309 68.2609 35.8773C68.2932 35.8291 68.358 35.8291 68.4065 35.8613C68.4389 35.8934 68.4551 35.9417 68.4389 35.9899C68.2285 36.3756 68.0019 36.7612 67.7753 37.163C67.5488 37.5487 67.306 37.9344 67.0794 38.304C66.8367 38.6897 66.6101 39.0593 66.3673 39.445L66.0113 40.0074C65.8818 40.2003 65.7523 40.3771 65.5257 40.4896C65.4772 40.5217 65.3963 40.5056 65.3639 40.4413C65.3315 40.4252 65.3315 40.4092 65.3315 40.377Z" fill="#07453A"/>
<path d="M32.6238 18.1841C32.9313 17.4931 33.3197 16.8503 33.7243 16.2075L34.9543 14.3111L37.4143 10.5185L39.9066 6.74199C40.7482 5.4885 41.5736 4.23494 42.4313 2.98145C42.4637 2.93323 42.5284 2.91721 42.577 2.94935C42.6255 2.98149 42.6417 3.04574 42.6094 3.07788C41.8163 4.36352 41.0233 5.63307 40.2141 6.9187L37.8027 10.7435L35.3589 14.5522L34.1451 16.4485C33.7405 17.0753 33.3035 17.702 32.8018 18.2644C32.7694 18.3126 32.7047 18.3127 32.6562 18.2805C32.6076 18.2645 32.5914 18.2162 32.6238 18.1841Z" fill="#07453A"/>
<path d="M22.8159 39.0267C23.091 38.3839 23.4471 37.7893 23.8355 37.2107C24.2239 36.6322 24.6123 36.0698 25.0007 35.4912L27.3636 32.0843C28.1566 30.9593 28.9334 29.8183 29.6941 28.6613C30.4547 27.5042 31.1992 26.3471 31.976 25.2061C32.0084 25.1579 32.0731 25.1418 32.1217 25.1739C32.1702 25.2061 32.1864 25.2704 32.154 25.3026L31.0859 27.0703C30.7298 27.6649 30.3738 28.2595 30.0015 28.8381C29.2733 30.0112 28.5126 31.1682 27.7358 32.3092L25.4053 35.7323C25.0169 36.3108 24.6285 36.8732 24.2562 37.4518C23.8678 38.0303 23.4794 38.5928 23.0101 39.1071C22.9777 39.1553 22.913 39.1553 22.8644 39.1071C22.8159 39.1071 22.7997 39.0589 22.8159 39.0267Z" fill="#07453A"/>
<path d="M67.6133 42.9007C67.6942 42.5633 67.856 42.2579 68.034 41.9847L68.5681 41.149C68.9242 40.5865 69.2964 40.0401 69.6525 39.4776L70.753 37.8224C71.1252 37.276 71.4974 36.7295 71.8859 36.1831C71.9182 36.1349 71.983 36.1189 72.0315 36.151C72.0801 36.1832 72.0801 36.2313 72.0639 36.2795C71.7402 36.8581 71.4003 37.4367 71.0605 37.9992L70.0247 39.7026C69.6686 40.2651 69.3288 40.8275 68.9727 41.39L68.4386 42.2257C68.2606 42.4989 68.0664 42.7721 67.7913 42.9971C67.7427 43.0292 67.678 43.0293 67.6456 42.9811C67.6133 42.965 67.6133 42.9329 67.6133 42.9007Z" fill="#07453A"/>
<path d="M36.2329 18.4729C36.508 17.8301 36.8641 17.2193 37.2363 16.6408L38.3692 14.8891L40.6511 11.3858C41.428 10.2287 42.2048 9.07165 42.9816 7.91458C43.7746 6.77358 44.5676 5.61654 45.3768 4.4916C45.4092 4.44339 45.474 4.44338 45.5225 4.47552C45.5711 4.50766 45.571 4.57191 45.5549 4.60405C44.7942 5.76112 44.0336 6.93431 43.2729 8.10746C42.5123 9.2806 41.7678 10.4376 41.0234 11.6108L38.7738 15.1141L37.6571 16.8659C37.2849 17.4444 36.8803 18.0229 36.4109 18.5533C36.3786 18.6015 36.3138 18.6015 36.2653 18.5533C36.2167 18.5533 36.2005 18.505 36.2329 18.4729Z" fill="#07453A"/>
<path d="M26.4734 39.1561C26.6837 38.6097 26.9751 38.0955 27.2826 37.6133L28.2212 36.151L30.0824 33.2101L31.9759 30.2853C32.6071 29.3211 33.2383 28.3407 33.8857 27.3765C33.918 27.3283 33.9828 27.3122 34.0313 27.3443C34.0799 27.3765 34.0961 27.4408 34.0637 27.473C33.4811 28.4693 32.8823 29.4656 32.2834 30.462L30.4708 33.435L28.642 36.3921L27.7196 37.8705C27.4121 38.3687 27.0884 38.8347 26.6676 39.2687C26.6352 39.3169 26.5705 39.3169 26.5219 39.2687C26.4734 39.2365 26.4572 39.1883 26.4734 39.1561Z" fill="#07453A"/>
<path d="M69.5234 45.0696C69.6529 44.6518 69.8633 44.266 70.0899 43.9125L70.7858 42.8358C70.8991 42.659 71.0124 42.4662 71.1257 42.3055L71.4979 41.7752L72.2262 40.7306L73.7151 38.6575C74.2168 37.9664 74.7185 37.2754 75.2202 36.6005C75.2526 36.5523 75.3173 36.5523 75.3659 36.5844C75.4144 36.6165 75.4144 36.6809 75.3982 36.713C74.9451 37.4362 74.4758 38.1433 74.0064 38.8664L72.5984 41.0037L71.8863 42.0644C71.6436 42.418 71.4008 42.7715 71.1904 43.1251L70.5107 44.2017C70.2841 44.5553 70.0414 44.9089 69.7177 45.1981C69.6691 45.2303 69.6044 45.2303 69.572 45.1981C69.5234 45.1499 69.5234 45.1017 69.5234 45.0696Z" fill="#07453A"/>
<path d="M39.5668 18.8751C39.8257 18.2966 40.1656 17.7662 40.5216 17.2359L41.5898 15.677C42.3019 14.6485 43.014 13.6039 43.7099 12.5593C44.4058 11.5147 45.1017 10.4701 45.7653 9.40944C46.445 8.34878 47.0924 7.27205 47.7397 6.19531C47.7721 6.1471 47.8368 6.13108 47.8854 6.16322C47.9339 6.19536 47.9501 6.24354 47.9177 6.29175C47.3351 7.4167 46.7039 8.5095 46.0728 9.58623C45.4254 10.663 44.7618 11.7397 44.0821 12.8004C43.4024 13.861 42.6903 14.9056 41.9944 15.9502L40.9262 17.5091C40.5702 18.0234 40.198 18.5376 39.7286 18.9876C39.6963 19.0197 39.6315 19.0197 39.583 18.9876C39.5506 18.9715 39.5506 18.9233 39.5668 18.8751Z" fill="#07453A"/>
<path d="M29.9536 38.8347C30.0183 38.6097 30.1155 38.4008 30.2288 38.1919C30.3259 37.9829 30.4391 37.7901 30.5686 37.5973C30.8114 37.2116 31.0541 36.8259 31.2807 36.4241C31.7501 35.6366 32.2032 34.8492 32.6564 34.0618L34.032 31.6832C34.5013 30.8958 34.9544 30.1083 35.4562 29.3369C35.4885 29.2887 35.5533 29.2727 35.6018 29.3048C35.6504 29.337 35.6666 29.3851 35.6342 29.4334L34.3557 31.86L33.061 34.2706C32.624 35.0742 32.1708 35.8777 31.7015 36.6652C31.4749 37.0669 31.2322 37.4527 30.9894 37.8384C30.7466 38.2241 30.4715 38.6097 30.1316 38.915C30.0831 38.9472 30.0184 38.9472 29.986 38.915C29.9536 38.915 29.9374 38.8668 29.9536 38.8347Z" fill="#07453A"/>
<path d="M71.109 47.062C71.1899 46.8049 71.287 46.5799 71.4003 46.3549C71.5136 46.13 71.6431 45.9049 71.7725 45.68C72.0315 45.2461 72.3066 44.8122 72.5817 44.3783C73.132 43.5105 73.6822 42.6748 74.2648 41.8231L75.9965 39.3161L77.7444 36.8252C77.7767 36.777 77.8415 36.761 77.8901 36.7931C77.9386 36.8252 77.9386 36.8895 77.9224 36.9216C77.3883 37.7894 76.8381 38.6412 76.2878 39.509L74.6209 42.0641C74.0706 42.9159 73.5204 43.7676 72.9701 44.6354C72.695 45.0693 72.4361 45.5032 72.1771 45.9371C71.9182 46.371 71.6431 46.7888 71.2708 47.1745C71.2385 47.2227 71.1737 47.2227 71.1252 47.1745C71.109 47.1423 71.0928 47.0942 71.109 47.062Z" fill="#07453A"/>
<path d="M42.0912 19.1155C42.3178 18.553 42.6091 18.0548 42.9328 17.5566C43.2565 17.0584 43.5639 16.5603 43.8714 16.0621C44.4864 15.0657 45.1014 14.0693 45.7164 13.0569L47.5776 10.0517C48.2088 9.05529 48.84 8.05891 49.4873 7.07861C49.5197 7.0304 49.5844 7.01438 49.633 7.04652C49.6815 7.07866 49.6977 7.14291 49.6653 7.17505C49.0665 8.18749 48.4677 9.19992 47.8851 10.2124L46.1048 13.2658C45.506 14.2782 44.891 15.2907 44.276 16.2871C43.9685 16.7852 43.6611 17.2834 43.3374 17.7816C43.0137 18.2798 42.6738 18.7619 42.253 19.1958C42.2207 19.244 42.1559 19.244 42.1074 19.1958C42.075 19.1958 42.075 19.1476 42.0912 19.1155Z" fill="#07453A"/>
<path d="M33.5464 38.401C33.6111 38.0635 33.7567 37.7903 33.9186 37.5171L34.4203 36.7136C34.7602 36.1832 35.1 35.6529 35.4399 35.1225L36.4757 33.5476C36.8317 33.0173 37.1716 32.503 37.5438 31.9888C37.5762 31.9406 37.6409 31.9245 37.6895 31.9567C37.738 31.9888 37.738 32.037 37.7218 32.0852C37.4143 32.6316 37.1069 33.178 36.7832 33.7244L35.8283 35.3476C35.5046 35.894 35.181 36.4242 34.8411 36.9706L34.3394 37.7742C34.1775 38.0474 33.9833 38.3045 33.7244 38.4973C33.6758 38.5295 33.6111 38.5296 33.5787 38.4813C33.5464 38.4653 33.5302 38.4331 33.5464 38.401Z" fill="#07453A"/>
<path d="M73.1972 49.6815C73.4076 49.103 73.6989 48.5567 74.0064 48.0424L74.9288 46.4835L76.79 43.3497L78.6673 40.2321C79.2985 39.2035 79.9297 38.1589 80.577 37.1304C80.6094 37.0822 80.6742 37.0661 80.7227 37.0983C80.7713 37.1304 80.7874 37.1786 80.7551 37.2268C80.1724 38.2875 79.5736 39.3482 78.9748 40.3928L77.1622 43.5586L75.3334 46.7085L74.411 48.2835C74.1035 48.8138 73.7798 49.3119 73.359 49.778C73.3266 49.8262 73.2619 49.8262 73.2133 49.7941C73.181 49.7619 73.181 49.7137 73.1972 49.6815Z" fill="#07453A"/>
<path d="M44.9238 19.437C45.0695 18.9388 45.3123 18.4728 45.555 18.0388L46.3157 16.705L47.8369 14.0534L49.3906 11.4017C49.9085 10.5179 50.4264 9.64999 50.9604 8.76611C50.9928 8.7179 51.0575 8.70188 51.1061 8.73402C51.1547 8.76616 51.1708 8.81434 51.1385 8.86255C50.6691 9.7625 50.1836 10.6625 49.6981 11.5625L48.2254 14.2462L46.7203 16.9139L45.9758 18.2477C45.7168 18.6977 45.4579 19.1317 45.1019 19.5174C45.0695 19.5656 45.0048 19.5656 44.9562 19.5174C44.9239 19.5174 44.9076 19.4692 44.9238 19.437Z" fill="#07453A"/>
<path d="M37.2689 37.42C37.2527 37.2272 37.3174 37.0665 37.3983 36.9218L37.6573 36.504C37.8191 36.2308 37.9971 35.9416 38.1751 35.6684C38.5312 35.122 38.8872 34.5756 39.2757 34.0453C39.308 33.9971 39.3728 33.9971 39.4213 34.0292C39.4537 34.0614 39.4699 34.1095 39.4537 34.1578C39.1786 34.7523 38.8711 35.3309 38.5636 35.8934C38.4017 36.1826 38.2561 36.4558 38.0781 36.745L37.8353 37.1629C37.7544 37.3075 37.6573 37.4361 37.4631 37.5165C37.3983 37.5486 37.3336 37.5164 37.3012 37.4521C37.2688 37.4521 37.2689 37.4361 37.2689 37.42Z" fill="#07453A"/>
<path d="M74.896 51.7548C75.1549 51.112 75.4948 50.5174 75.8508 49.9388L76.9514 48.2032C77.6796 47.0462 78.4241 45.8891 79.1362 44.732C79.8645 43.5749 80.5604 42.4017 81.2725 41.2285C81.9846 40.0554 82.6967 38.8822 83.4088 37.7252C83.4411 37.6769 83.5059 37.6608 83.5544 37.693C83.603 37.7251 83.6192 37.7734 83.5868 37.8216C82.9233 39.0269 82.2435 40.2161 81.58 41.4053C80.9002 42.5945 80.2367 43.7838 79.5246 44.9569C78.8125 46.1301 78.0842 47.2872 77.356 48.4443L76.2716 50.1799C75.9156 50.7584 75.5271 51.3209 75.074 51.8512C75.0416 51.8994 74.9769 51.8995 74.9284 51.8673C74.896 51.8352 74.896 51.7869 74.896 51.7548Z" fill="#07453A"/>
<path d="M47.772 20.0161C47.8853 19.5822 48.0795 19.1805 48.2899 18.7949L48.9372 17.6538L50.2481 15.3718L51.5752 13.1058C52.0284 12.3505 52.4815 11.5952 52.9347 10.856C52.967 10.8077 53.0318 10.7917 53.0803 10.8239C53.1289 10.856 53.1451 10.9042 53.1127 10.9524C52.7081 11.7399 52.3035 12.5112 51.8827 13.2826L50.6204 15.5968L49.3418 17.8949L48.6945 19.0359C48.4841 19.4216 48.2413 19.7912 47.9176 20.1126C47.8852 20.1608 47.8043 20.1608 47.772 20.1126C47.772 20.0804 47.772 20.0483 47.772 20.0161Z" fill="#07453A"/>
<path d="M54.7959 13.6682C54.7797 13.8289 54.7311 13.9896 54.6826 14.1343C54.634 14.2789 54.5693 14.4235 54.4884 14.5681C54.3427 14.8413 54.2133 15.1307 54.0838 15.4199C53.8248 15.9824 53.5659 16.5609 53.3069 17.1394C53.048 17.718 52.7891 18.2804 52.5139 18.859C52.2388 19.4215 51.9636 20 51.64 20.5464C51.6076 20.5946 51.5429 20.6106 51.4943 20.5785C51.4458 20.5463 51.4296 20.4982 51.4458 20.4499C51.7047 19.8714 51.9475 19.2929 52.174 18.7144C52.4168 18.1358 52.6434 17.5572 52.87 16.9626C53.1127 16.3841 53.3555 15.7895 53.6145 15.227C53.7439 14.9378 53.8734 14.6485 54.0191 14.3593C54.1647 14.07 54.3266 13.7967 54.5855 13.5878C54.6341 13.5557 54.6988 13.5557 54.7311 13.6039C54.7959 13.62 54.7959 13.636 54.7959 13.6682Z" fill="#07453A"/>
<path d="M87.3095 38.2399C87.0667 38.9791 86.7268 39.6701 86.3384 40.3451C85.9662 41.02 85.5616 41.679 85.157 42.3379C84.3478 43.6557 83.5062 44.9413 82.6485 46.2108C81.7907 47.4804 80.9168 48.75 80.0752 50.0357C79.6544 50.6785 79.2013 51.3052 78.7643 51.932C78.3112 52.5587 77.8742 53.1855 77.4049 53.7962C77.3725 53.8444 77.3077 53.8444 77.2592 53.8123C77.2106 53.7801 77.2107 53.7159 77.243 53.6676C78.117 52.3981 78.9747 51.1284 79.7839 49.8267C80.6093 48.525 81.4509 47.2394 82.2924 45.9538C83.134 44.6681 83.9756 43.3825 84.7686 42.0807C85.1732 41.4219 85.5616 40.7629 85.9338 40.104C86.3061 39.4451 86.6945 38.7702 87.1476 38.1435C87.18 38.0952 87.2447 38.0952 87.2933 38.1274C87.3094 38.1434 87.3256 38.1917 87.3095 38.2399Z" fill="#07453A"/>
<path d="M81.8714 51.5466C82.1465 50.952 82.5188 50.4217 82.9072 49.8913L84.0562 48.3325C84.8169 47.2879 85.5775 46.2433 86.2896 45.1826C87.0179 44.122 87.6977 43.0292 88.3612 41.9203C88.6849 41.3578 89.0248 40.8115 89.3323 40.249C89.6559 39.6865 89.9634 39.1241 90.3033 38.5616C90.3357 38.5134 90.4004 38.4973 90.4489 38.5294C90.4975 38.5615 90.5137 38.6097 90.4813 38.6579C89.8987 39.799 89.2999 40.9561 88.6687 42.081C88.0375 43.206 87.374 44.3309 86.6619 45.4076C85.9498 46.4843 85.1891 47.545 84.4447 48.5896L83.2956 50.1645C82.9072 50.6787 82.5026 51.193 82.0332 51.643C82.0009 51.6751 81.9361 51.6751 81.8876 51.643C81.8552 51.6269 81.839 51.5787 81.8714 51.5466Z" fill="#07453A"/>
<path d="M54.1161 20.8509C54.1 20.658 54.1485 20.4973 54.2294 20.3688L54.4722 19.9509L54.9415 19.1153C55.2652 18.5689 55.5727 18.0064 55.8964 17.46C55.9287 17.4118 55.9935 17.3957 56.0421 17.4279C56.0906 17.46 56.1068 17.5082 56.0906 17.5403C55.8802 18.151 55.6212 18.7456 55.3299 19.3081C55.1843 19.5974 55.0386 19.8867 54.8768 20.1599L54.6502 20.5777C54.5693 20.7223 54.4722 20.8509 54.2942 20.9312C54.2294 20.9634 54.1647 20.9313 54.1323 20.867C54.1323 20.883 54.1161 20.867 54.1161 20.8509Z" fill="#07453A"/>
<path d="M76.8706 70.8793C76.5145 70.5097 76.1909 70.108 75.8834 69.7223C75.5597 69.3366 75.236 68.9509 74.9123 68.5491L73.9413 67.3921L72.9379 66.2511C71.5784 64.7404 70.1381 63.3102 68.6977 61.8478C67.2735 60.3853 65.8331 58.939 64.4736 57.4123C63.1142 55.8856 61.8195 54.3107 60.6704 52.6233C60.638 52.5751 60.6542 52.5108 60.7028 52.4786C60.7513 52.4465 60.8161 52.4626 60.8484 52.5108C62.0299 54.1661 63.3731 55.6928 64.7488 57.1873C66.1244 58.6819 67.581 60.1122 69.0375 61.5424C70.4779 62.9888 71.9183 64.419 73.3101 65.9296L74.3297 67.0707L75.3169 68.2438C75.6406 68.6455 75.9481 69.0473 76.2556 69.4651C76.5469 69.883 76.822 70.3169 77.0648 70.7669C77.0972 70.8151 77.081 70.8793 77.0324 70.9115C76.9515 70.9276 76.903 70.9115 76.8706 70.8793Z" fill="#07453A"/>
<path d="M61.4471 35.524C61.528 36.2472 61.4957 36.9544 61.4471 37.6775L61.2853 39.8149C61.172 41.2452 61.0587 42.6594 60.9778 44.0897C60.8807 45.52 60.7998 46.9342 60.7836 48.3645C60.7512 49.7948 60.7836 51.209 60.8483 52.6392C60.8483 52.6875 60.8159 52.7357 60.7512 52.7518C60.7027 52.7518 60.6541 52.7196 60.6379 52.6553C60.4923 51.225 60.4276 49.7948 60.4114 48.3645C60.4114 46.9342 60.4437 45.5039 60.5247 44.0736C60.6056 42.6433 60.7027 41.213 60.816 39.7988L60.9616 37.6615C60.9778 37.3079 61.0102 36.9543 61.0587 36.6008C61.1073 36.2472 61.1558 35.8937 61.2367 35.5401C61.2529 35.4919 61.3015 35.4437 61.3662 35.4597C61.3986 35.4437 61.4309 35.4758 61.4471 35.524Z" fill="#07453A"/>
<path d="M49.8434 34.8967C49.6168 34.8164 49.3741 34.7842 49.1151 34.7842C48.9857 34.7842 48.8562 34.8002 48.7429 34.8002C48.6297 34.8163 48.5326 34.8645 48.4193 34.9127C48.2089 35.0091 47.9985 35.0895 47.8043 35.2341C47.6101 35.3627 47.4482 35.5234 47.3349 35.7162C47.2864 35.8127 47.2378 35.9091 47.2055 36.0055C47.1893 36.0537 47.1893 36.102 47.1731 36.1502C47.1731 36.1823 47.1731 36.1984 47.1731 36.2305L47.1731 36.3269C47.1731 36.568 47.1892 36.8251 47.2216 37.0501C47.254 37.2751 47.3188 37.484 47.4482 37.6769C47.5777 37.8697 47.7395 38.0625 47.9014 38.2554L47.8528 38.2232C48.2736 38.4964 48.8239 38.5607 49.3418 38.4964C49.6007 38.4643 49.8597 38.3839 50.0701 38.2554C50.1186 38.2232 50.1671 38.1911 50.2156 38.159C50.2642 38.1269 50.2804 38.0787 50.3289 38.0305C50.4099 37.918 50.4584 37.8054 50.5232 37.6929C50.6203 37.4518 50.685 37.1947 50.7174 36.9215C50.7336 36.6483 50.7174 36.3912 50.6689 36.118C50.6365 35.9894 50.6202 35.8448 50.5717 35.7162C50.5393 35.5877 50.4909 35.4752 50.4261 35.3627C50.3128 35.1377 50.1024 34.9771 49.8434 34.8967ZM49.9243 34.7038C50.1995 34.8003 50.4585 34.977 50.6365 35.2341C50.7174 35.3627 50.7821 35.5073 50.8144 35.6359C50.863 35.7645 50.8954 35.909 50.9278 36.0537C51.0411 36.6161 51.041 37.2108 50.8144 37.7732C50.7497 37.9018 50.7012 38.0464 50.6041 38.175C50.5717 38.2393 50.5069 38.3036 50.4584 38.3679C50.3936 38.4322 50.329 38.4644 50.2643 38.5126C50.0053 38.6733 49.714 38.7696 49.4227 38.8178C48.8401 38.9303 48.2089 38.8661 47.6749 38.5608C47.6587 38.5608 47.6425 38.5447 47.6425 38.5286C47.4645 38.3357 47.2864 38.1429 47.1246 37.9179C46.9627 37.693 46.8494 37.4036 46.8009 37.1304C46.7523 36.8572 46.7361 36.6001 46.7361 36.3269L46.7361 36.2305C46.7361 36.1984 46.7361 36.1502 46.7361 36.118C46.7361 36.0377 46.7523 35.9733 46.7685 35.893C46.8009 35.7483 46.8657 35.6038 46.9466 35.4752C47.0923 35.2181 47.3026 35.0091 47.5292 34.8484C47.7557 34.6877 48.0147 34.5432 48.2898 34.4949C48.4355 34.4628 48.5812 34.4627 48.7268 34.4788C48.8563 34.4949 48.9857 34.5109 49.1151 34.527C49.4065 34.5591 49.6654 34.6074 49.9243 34.7038Z" fill="#07453A"/>
<path d="M64.3282 47.2069C64.2311 47.1909 64.1179 47.207 64.0208 47.2391C63.9237 47.2873 63.8428 47.3355 63.7781 47.4158C63.6324 47.5605 63.5353 47.7373 63.422 47.9141C63.3087 48.0909 63.2277 48.2998 63.163 48.4926C63.1144 48.7015 63.082 48.9105 63.082 49.1194C63.082 49.5533 63.163 49.9872 63.3248 50.3889C63.4057 50.5818 63.519 50.7747 63.6485 50.9354C63.7779 51.0961 63.956 51.2246 64.1179 51.305C64.2959 51.3693 64.474 51.3532 64.6358 51.2728C64.7976 51.1764 64.9433 51.0157 65.0404 50.8229C65.1375 50.63 65.2023 50.4211 65.2346 50.2122C65.2508 49.9872 65.2669 49.7622 65.2669 49.5372C65.2507 49.0872 65.2023 48.6211 65.0728 48.1872C65.0081 47.9783 64.9271 47.7533 64.7976 47.5765C64.6843 47.3837 64.5224 47.2391 64.3282 47.2069ZM64.3445 47.0141C64.474 47.0301 64.6034 47.0944 64.7167 47.1748C64.8138 47.2551 64.9109 47.3516 64.9756 47.448C65.1213 47.6569 65.2022 47.8818 65.2832 48.1068C65.4288 48.5568 65.4935 49.039 65.5259 49.505C65.5421 49.7461 65.5421 49.9711 65.5259 50.2122C65.5097 50.4693 65.445 50.7104 65.3317 50.9354C65.2184 51.1604 65.0566 51.3854 64.83 51.53C64.6035 51.6908 64.2635 51.7228 64.0046 51.6264C63.7456 51.53 63.5352 51.3693 63.3572 51.1765C63.1792 50.9836 63.0498 50.7746 62.9365 50.5496C62.7261 50.0996 62.629 49.6015 62.6128 49.1033C62.6128 48.8622 62.629 48.605 62.6937 48.3479C62.7584 48.0908 62.8555 47.8659 63.0011 47.6409C63.1306 47.4159 63.3248 47.2231 63.5676 47.1106C63.697 47.0463 63.8266 47.0141 63.956 46.998C64.0855 46.998 64.215 46.998 64.3445 47.0141Z" fill="#07453A"/>
<path d="M39.68 23.1816C39.5182 23.1977 39.3402 23.262 39.1945 23.3423C39.0488 23.4227 38.9033 23.5352 38.7738 23.6638C38.531 23.9048 38.3044 24.1781 38.1101 24.4513C37.7217 25.0137 37.5437 25.7207 37.657 26.3635C37.7218 26.685 37.8835 26.9903 38.0777 27.2796C38.272 27.5689 38.5148 27.826 38.7899 28.0349C39.065 28.2599 39.3563 28.4366 39.6961 28.533C39.858 28.5813 40.0199 28.6135 40.1979 28.6296C40.3598 28.6456 40.5378 28.6295 40.7159 28.6134C41.0557 28.5652 41.4117 28.4689 41.703 28.3082C41.8487 28.2278 41.9782 28.1152 42.0915 28.0028C42.2048 27.8742 42.3018 27.7296 42.3989 27.585C42.5769 27.2796 42.7226 26.9582 42.7711 26.6208C42.8197 26.2833 42.8035 25.9297 42.7226 25.5762C42.6417 25.2226 42.496 24.9011 42.3504 24.5636C42.2695 24.4029 42.1885 24.2262 42.1076 24.0815C42.0105 23.9369 41.8972 23.8084 41.7515 23.7119C41.4764 23.503 41.1366 23.3745 40.7805 23.2942C40.4083 23.2138 40.0361 23.1816 39.68 23.1816ZM39.68 22.9888C40.0684 22.9888 40.4407 23.0049 40.8129 23.0853C41.1851 23.1656 41.5574 23.3102 41.8649 23.5352C42.0267 23.6477 42.1562 23.7923 42.2695 23.953C42.3828 24.1298 42.4637 24.2906 42.5446 24.4513C42.7065 24.7887 42.8521 25.1262 42.9653 25.4958C43.0624 25.8655 43.1111 26.2511 43.0625 26.6368C43.014 27.0225 42.8682 27.392 42.6902 27.7295C42.5931 27.8902 42.496 28.0509 42.3665 28.2116C42.237 28.3723 42.0753 28.501 41.8973 28.5974C41.5574 28.8063 41.1689 28.9188 40.7805 28.967C40.5863 28.9991 40.3922 28.9991 40.1979 28.9991C40.0037 28.9831 39.7933 28.9508 39.5991 28.9026C39.2107 28.7901 38.8708 28.5974 38.5471 28.3563C38.2396 28.1153 37.9645 27.842 37.7379 27.5206C37.5114 27.1992 37.3171 26.8457 37.22 26.4439C37.0582 25.6404 37.2849 24.8208 37.7218 24.1619C37.9322 23.8244 38.2234 23.5513 38.5633 23.3423C38.9031 23.1656 39.2754 23.0209 39.68 22.9888Z" fill="#07453A"/>
<path d="M47.5614 23.2142C47.5129 23.1659 47.4319 23.1338 47.3348 23.1016C47.2539 23.0695 47.1567 23.0534 47.0596 23.0373C46.8816 23.0051 46.6874 22.973 46.5256 22.9891L45.9916 23.0373C45.8135 23.0534 45.6518 23.0856 45.4899 23.1338C45.1662 23.2302 44.9072 23.423 44.7778 23.7123C44.6321 23.9855 44.616 24.3552 44.6483 24.6927C44.6969 25.0623 44.7454 25.4157 44.9072 25.6889C45.069 25.9461 45.3928 26.1068 45.7327 26.171C46.4286 26.3157 47.1891 26.1551 47.7879 25.7373L47.7557 25.7693C47.9013 25.5604 48.0308 25.3514 48.1279 25.1265C48.225 24.9015 48.2735 24.6605 48.2573 24.4195C48.2573 24.1784 48.1764 23.9374 48.0469 23.7284C47.9822 23.632 47.9012 23.5194 47.8203 23.4391C47.7556 23.3748 47.6747 23.3106 47.5614 23.2142ZM47.6909 23.0695C47.8851 23.2141 48.0955 23.4231 48.2412 23.6481C48.3868 23.8892 48.4678 24.1462 48.4839 24.4355C48.5001 24.7087 48.4514 24.9819 48.3543 25.239C48.2572 25.4961 48.1278 25.7372 47.9821 25.9622C47.9821 25.9782 47.9659 25.9783 47.9497 25.9943C47.3186 26.4764 46.4771 26.6854 45.6679 26.5408C45.4737 26.5087 45.2633 26.4443 45.069 26.3479C44.8748 26.2515 44.6969 26.1068 44.5674 25.914C44.4379 25.7372 44.3731 25.5284 44.3084 25.3355C44.2598 25.1427 44.2276 24.9497 44.1952 24.7569C44.1467 24.3551 44.1466 23.9212 44.3408 23.5194C44.4379 23.3105 44.5835 23.1337 44.7454 22.9891C44.9234 22.8445 45.1177 22.7481 45.3281 22.6839C45.7327 22.5553 46.1535 22.5231 46.5419 22.6195C46.7523 22.6677 46.9302 22.732 47.1244 22.7962C47.2215 22.8284 47.3025 22.8605 47.3996 22.9088C47.5129 22.957 47.6099 22.9891 47.6909 23.0695Z" fill="#07453A"/>
<path d="M44.7454 34.801C44.7615 34.7528 44.7454 34.6886 44.7292 34.6243C44.7131 34.56 44.6968 34.4957 44.6644 34.4314C44.6159 34.3029 44.5511 34.1743 44.4702 34.0779C44.3893 33.9654 44.2922 33.869 44.2113 33.7726C44.1304 33.6762 44.0495 33.5798 43.9686 33.4994C43.7905 33.3387 43.5802 33.2744 43.3536 33.3065C43.127 33.3387 42.9004 33.4672 42.69 33.6279C42.4796 33.8047 42.2531 33.9815 42.1398 34.1744C42.0913 34.2708 42.0589 34.3672 42.0589 34.4958C42.0589 34.6083 42.075 34.7368 42.1235 34.8654C42.2044 35.1064 42.334 35.3475 42.512 35.5403C42.69 35.7332 42.9166 35.8938 43.1594 35.9903L43.1108 35.9741C43.4993 36.0062 43.8877 35.942 44.1952 35.7492C44.357 35.6528 44.4703 35.5082 44.5674 35.3475C44.6645 35.1868 44.713 35.0099 44.7454 34.801ZM44.9396 34.8492C44.9234 35.042 44.8587 35.267 44.7616 35.4438C44.6645 35.6367 44.5188 35.7974 44.3408 35.9259C44.1627 36.0545 43.9523 36.1349 43.7419 36.1831C43.5315 36.2313 43.3212 36.2473 43.1108 36.2473C43.0947 36.2473 43.0784 36.2473 43.0784 36.2473C42.4958 36.0384 42.0102 35.5725 41.7998 34.9779C41.7513 34.8332 41.7028 34.6725 41.7028 34.4958C41.6866 34.3351 41.7352 34.1422 41.8161 33.9815C41.978 33.6762 42.2207 33.4672 42.4311 33.2744C42.6738 33.0815 42.949 32.9047 43.3051 32.8404C43.4831 32.8083 43.6611 32.8244 43.8391 32.8726C44.0171 32.9208 44.1628 33.0173 44.2922 33.1298C44.5512 33.3387 44.7454 33.6118 44.8263 33.9172C44.8748 34.0779 44.8911 34.2225 44.9235 34.3671C44.9397 34.4474 44.9395 34.5118 44.9557 34.5921C44.9395 34.6725 44.9558 34.7528 44.9396 34.8492Z" fill="#07453A"/>
<path d="M34.436 23.7761C34.4683 23.76 34.517 23.7119 34.5656 23.6476C34.5979 23.5994 34.6464 23.535 34.6787 23.4707C34.7435 23.3421 34.8083 23.2136 34.8244 23.1011C34.8568 22.9565 34.8731 22.8278 34.8892 22.7153C34.9216 22.5868 34.9378 22.4743 34.9378 22.3457C34.9378 22.1047 34.8567 21.9118 34.6787 21.7511C34.5007 21.6064 34.2581 21.51 33.9991 21.4618C33.724 21.4136 33.4487 21.3654 33.2222 21.4136C33.1089 21.4458 33.0118 21.478 32.9309 21.5583C32.8338 21.6387 32.7529 21.7351 32.6881 21.8476C32.5425 22.0726 32.4616 22.3296 32.4292 22.5868C32.3969 22.8439 32.4292 23.1172 32.5102 23.3743L32.4939 23.3261C32.7205 23.6315 33.028 23.8886 33.384 23.985C33.562 24.0332 33.7563 24.0331 33.9343 24.001C34.0962 23.9689 34.2579 23.9047 34.436 23.7761ZM34.5332 23.9528C34.3713 24.0653 34.1609 24.1618 33.9667 24.2101C33.7563 24.2583 33.5298 24.2583 33.3194 24.2101C33.109 24.1618 32.9147 24.0654 32.7366 23.9368C32.5586 23.8082 32.4131 23.6636 32.2674 23.5029C32.2512 23.4868 32.2511 23.4868 32.2511 23.4707C32.0407 22.8921 32.0732 22.2171 32.3807 21.6707C32.4616 21.5261 32.5587 21.3976 32.672 21.2851C32.7853 21.1726 32.9633 21.0761 33.1251 21.0279C33.465 20.9475 33.7725 20.9957 34.08 21.0279C34.3875 21.0761 34.7112 21.1726 34.9863 21.3976C35.1158 21.5101 35.2452 21.6547 35.31 21.8154C35.3909 21.9761 35.4233 22.1529 35.4233 22.3297C35.4233 22.6672 35.3585 22.9887 35.1805 23.2458C35.0834 23.3904 34.9863 23.5029 34.8892 23.6154C34.8407 23.6797 34.7921 23.7278 34.7435 23.7921C34.6626 23.8403 34.6141 23.9046 34.5332 23.9528Z" fill="#07453A"/>
<path d="M54.5044 31.2009C54.553 31.0402 54.5531 30.8472 54.5207 30.6704C54.4883 30.4937 54.4398 30.317 54.3589 30.1563C54.2132 29.8349 54.0352 29.5295 53.8248 29.2402C53.6144 28.951 53.3555 28.7099 53.0642 28.5171C52.7728 28.3242 52.4329 28.1795 52.1092 28.1313C51.7856 28.0831 51.4134 28.1313 51.0736 28.2116C50.7337 28.3081 50.3937 28.4366 50.0863 28.6134C49.7788 28.7902 49.5036 29.0152 49.2771 29.3044C49.1638 29.4491 49.0666 29.5938 49.0019 29.7545C48.9372 29.9152 48.8724 30.092 48.8401 30.2527C48.7591 30.6062 48.7268 30.9597 48.7915 31.3133C48.8239 31.49 48.8725 31.6507 48.9534 31.7954C49.0343 31.94 49.1477 32.1009 49.2609 32.2455C49.4875 32.5348 49.7465 32.7757 50.0701 32.9525C50.3776 33.1293 50.7336 33.2257 51.1058 33.2739C51.478 33.3221 51.8503 33.3061 52.2226 33.2739C52.4006 33.2578 52.611 33.2419 52.7729 33.2097C52.9509 33.1776 53.1127 33.0971 53.2584 33.0007C53.5659 32.8078 53.8085 32.5347 54.0189 32.2293C54.2131 31.8918 54.375 31.5384 54.5044 31.2009ZM54.6987 31.2651C54.5692 31.6347 54.4074 31.9883 54.197 32.3097C53.9866 32.6311 53.7114 32.9365 53.3716 33.1454C53.2097 33.2579 53.0156 33.3382 52.8214 33.3864C52.611 33.4347 52.4329 33.4507 52.2387 33.4668C51.8503 33.515 51.462 33.5311 51.0736 33.499C50.6852 33.4668 50.2805 33.3703 49.9244 33.1936C49.5684 33.0168 49.2608 32.7436 49.0019 32.4382C48.8724 32.2775 48.7593 32.1329 48.646 31.9561C48.5327 31.7793 48.4678 31.5705 48.4355 31.3776C48.3545 30.9758 48.387 30.558 48.4841 30.1723C48.5327 29.9795 48.5812 29.7867 48.6621 29.5938C48.743 29.401 48.8564 29.2241 48.9697 29.0634C49.2124 28.7419 49.536 28.4687 49.8759 28.2598C50.2158 28.0509 50.588 27.8902 50.9764 27.7777C51.3648 27.6813 51.7695 27.6171 52.2064 27.6653C53.048 27.7939 53.76 28.3081 54.2455 28.967C54.4883 29.2884 54.6663 29.6741 54.7311 30.0598C54.7796 30.4615 54.7958 30.8633 54.6987 31.2651Z" fill="#07453A"/>
<path d="M71.0119 56.9136C70.8339 57.1064 70.7207 57.3956 70.6721 57.6849C70.6236 57.9742 70.5912 58.2634 70.5427 58.5366C70.4617 59.0991 70.4778 59.6937 70.6073 60.224C70.6397 60.3526 70.6884 60.4973 70.7369 60.6098C70.7855 60.7223 70.8501 60.8347 70.931 60.9472C71.0928 61.1561 71.3033 61.3328 71.5461 61.4453C71.7889 61.5578 72.0477 61.6061 72.2905 61.5578C72.42 61.5257 72.5332 61.4776 72.6303 61.4133C72.7436 61.333 72.8408 61.2365 72.9379 61.1401C73.1321 60.9312 73.2777 60.69 73.391 60.4329C73.4557 60.3043 73.4881 60.1758 73.5204 60.0311C73.5366 59.9669 73.5528 59.9026 73.5528 59.8223L73.5852 59.5972C73.65 59.0187 73.6337 58.4242 73.4395 57.8778C73.3424 57.6046 73.1967 57.3473 73.0349 57.1063C72.954 56.9938 72.857 56.8653 72.7599 56.7528L72.6142 56.5921C72.5656 56.5439 72.517 56.4957 72.4685 56.4474C72.2581 56.2867 71.9669 56.3028 71.7079 56.3993C71.4814 56.56 71.2223 56.7368 71.0119 56.9136ZM70.8663 56.7689C71.1091 56.5599 71.3518 56.3831 71.6593 56.2546C71.8049 56.1903 71.9668 56.1582 72.1448 56.1582C72.3228 56.1582 72.4846 56.2225 72.6303 56.3189C72.695 56.3671 72.7599 56.4314 72.8084 56.4796L72.9703 56.6403C73.0674 56.7528 73.1644 56.8653 73.2615 56.9939C73.4396 57.235 73.6015 57.5082 73.7309 57.7974C73.9737 58.376 74.006 59.0187 73.9574 59.6294L73.9413 59.8544C73.9251 59.9348 73.9251 60.0151 73.8928 60.0955C73.8604 60.2562 73.8118 60.4007 73.7471 60.5614C73.6176 60.8507 73.4557 61.1239 73.2291 61.365C73.1159 61.4935 73.0025 61.59 72.8731 61.7025C72.7274 61.799 72.5657 61.8792 72.4038 61.9274C72.064 62.0239 71.6918 61.9596 71.3843 61.8311C71.0768 61.6864 70.8016 61.4776 70.5912 61.2204C70.4779 61.0919 70.3969 60.9472 70.316 60.7865C70.2513 60.6419 70.2027 60.4811 70.1542 60.3204C69.9923 59.6936 69.9762 59.067 70.0733 58.4403C70.1218 58.1349 70.2189 57.8295 70.3645 57.5402C70.494 57.2991 70.6398 57.026 70.8663 56.7689Z" fill="#07453A"/>
<path d="M67.2897 48.8785C67.4839 48.9106 67.6782 48.8624 67.84 48.7659C68.0018 48.6695 68.1151 48.5409 68.2446 48.4124C68.3741 48.2838 68.4873 48.1231 68.5683 47.9624C68.6492 47.8017 68.6978 47.625 68.714 47.4321C68.7464 47.0625 68.6815 46.6607 68.5359 46.3232C68.4549 46.1465 68.3579 45.9857 68.2285 45.8571C68.099 45.7125 67.9532 45.6 67.7752 45.5357C67.6134 45.4715 67.4354 45.4394 67.2736 45.4876C67.1117 45.5358 66.9499 45.6322 66.8204 45.7608C66.691 45.9054 66.5938 46.0661 66.5453 46.2429C66.4967 46.4197 66.4644 46.6447 66.4644 46.8375C66.4482 47.2393 66.4805 47.6571 66.5938 48.0428C66.6585 48.2356 66.7396 48.4124 66.8528 48.5731C66.9338 48.7338 67.0955 48.8463 67.2897 48.8785ZM67.2412 49.0873C66.9984 49.0391 66.7881 48.8945 66.6586 48.7178C66.513 48.541 66.432 48.332 66.3511 48.1231C66.2216 47.7053 66.1731 47.2714 66.1731 46.8375C66.1731 46.6125 66.1892 46.4035 66.2377 46.1785C66.2863 45.9536 66.3996 45.7447 66.5614 45.5679C66.7071 45.3911 66.9175 45.2465 67.1602 45.1662C67.403 45.0858 67.6619 45.118 67.8885 45.1983C68.1151 45.2787 68.3093 45.4234 68.4873 45.5841C68.6492 45.7448 68.7948 45.9376 68.8919 46.1465C69.1023 46.5644 69.1832 47.0303 69.1508 47.4963C69.1346 47.7213 69.07 47.9623 68.9729 48.1873C68.8758 48.4123 68.7301 48.5892 68.5683 48.7659C68.4064 48.9427 68.1798 49.0713 67.937 49.1195C67.7105 49.1516 67.4677 49.1195 67.2412 49.0873Z" fill="#07453A"/>
</svg>
