<svg width="45" height="60" viewBox="0 0 45 60" fill="none" xmlns="http://www.w3.org/2000/svg">
<path d="M20.6531 13.1614C20.3294 13.7399 20.0219 14.3345 19.7306 14.9291C19.5849 15.2345 19.4393 15.5237 19.2936 15.8291C19.1642 16.1183 19.0185 16.4397 18.889 16.7451C18.3226 17.9664 17.659 19.1396 16.9308 20.2806C16.2025 21.4216 15.3933 22.4983 14.5355 23.5268C13.6616 24.5553 12.7229 25.5356 11.7519 26.4517C10.7647 27.3677 9.72888 28.2355 8.66074 29.0551C8.12667 29.4569 7.57643 29.8586 7.02618 30.2443C6.75105 30.4372 6.47593 30.6139 6.18462 30.8068C5.89331 30.9996 5.58581 31.1443 5.2945 31.305C4.69569 31.6264 4.11305 31.9478 3.53043 32.2692C2.9478 32.5906 2.36518 32.9281 1.83111 33.2977C1.70164 33.3941 1.57218 33.4905 1.44271 33.587C1.31324 33.6834 1.19995 33.7959 1.11903 33.8923C1.07048 33.9405 1.05427 34.0048 1.05427 34.0048C1.05427 34.0209 1.05429 34.0048 1.03811 33.9727C1.02192 33.9405 1.00575 33.9244 1.00575 33.9244C1.00575 33.9084 0.989533 33.9084 0.973349 33.8923L0.957189 33.8762C0.957189 33.8762 0.989541 33.8923 1.02191 33.8923C1.15138 33.9084 1.32943 33.9084 1.49127 33.9084C2.15481 33.8923 2.81832 33.828 3.48187 33.7477C4.14541 33.6673 4.80896 33.587 5.4725 33.4905C5.79618 33.4423 6.13606 33.3941 6.45974 33.3298C6.62158 33.2977 6.78342 33.2656 6.94526 33.2334C7.1071 33.2013 7.25274 33.1531 7.41458 33.1048C8.69311 32.7352 9.95547 32.2852 11.1855 31.7549C13.6292 30.6943 15.9436 29.3122 17.9504 27.5605C18.9538 26.6766 19.8762 25.7124 20.6854 24.6678C21.1062 24.1536 21.4623 23.5911 21.8345 23.0447C22.1906 22.4822 22.5304 21.9037 22.8379 21.3252C23.4529 20.152 24.0193 18.9307 24.3592 17.6611C24.4401 17.3397 24.5049 17.0183 24.5534 16.6969C24.6182 16.3755 24.6667 16.038 24.7153 15.7166C24.7638 15.3952 24.8123 15.0577 24.8447 14.7202C24.8771 14.3988 24.9256 14.0613 24.9256 13.7399C24.9256 13.6917 24.9742 13.6435 25.0228 13.6435C25.0713 13.6435 25.1199 13.6917 25.1199 13.7399C25.1199 14.0774 25.0875 14.4149 25.039 14.7523C25.0066 15.0898 24.958 15.4112 24.9095 15.7487C24.8609 16.0862 24.8123 16.4076 24.7638 16.7451C24.7152 17.0826 24.6505 17.404 24.5696 17.7415C24.2297 19.0592 23.6795 20.2806 23.0645 21.4859C22.757 22.0805 22.4171 22.6751 22.0773 23.2376C21.705 23.8 21.349 24.3786 20.9282 24.9089C20.1028 25.9856 19.1803 26.9659 18.1769 27.8659C16.1539 29.6658 13.8073 31.0639 11.3473 32.1567C10.1173 32.7031 8.83878 33.1691 7.54406 33.5388C7.38222 33.587 7.22036 33.6352 7.04234 33.6834C6.8805 33.7155 6.7025 33.7477 6.54066 33.7798C6.2008 33.8441 5.87713 33.8923 5.53726 33.9405C4.87372 34.0369 4.19397 34.1334 3.53043 34.2137C2.8507 34.2941 2.18716 34.3583 1.50743 34.3744C1.3294 34.3744 1.16756 34.3744 0.973349 34.3584C0.924797 34.3423 0.876269 34.3423 0.795349 34.3101C0.779165 34.3101 0.746773 34.2941 0.73059 34.278C0.714406 34.278 0.698253 34.2458 0.682069 34.2298C0.665885 34.2137 0.649693 34.1816 0.633509 34.1494C0.617325 34.1012 0.61731 34.0851 0.61731 34.0851L0.61731 34.053C0.61731 34.0369 0.61731 34.0048 0.61731 33.9887C0.633494 33.828 0.714437 33.7316 0.762989 33.6512C0.892461 33.4905 1.02192 33.378 1.15139 33.2655C1.28086 33.1531 1.42653 33.0566 1.57219 32.9602C2.13863 32.5745 2.72124 32.237 3.30387 31.8996C3.88649 31.5621 4.48528 31.2567 5.0679 30.9353C5.35921 30.7746 5.65053 30.6139 5.92566 30.4371C6.20079 30.2604 6.47593 30.0675 6.75106 29.8747C7.30132 29.489 7.83539 29.1033 8.36946 28.7015C9.4376 27.898 10.441 27.0302 11.4282 26.1142C12.3993 25.1982 13.3217 24.2339 14.1795 23.2215C15.0372 22.209 15.8303 21.1323 16.5424 20.0074C17.2545 18.8825 17.918 17.7414 18.5168 16.5522C19.0994 15.363 19.7306 14.1577 20.4912 13.0489C20.5236 13.0007 20.5883 12.9846 20.6369 13.0167C20.6531 13.0489 20.6693 13.1131 20.6531 13.1614Z" fill="#07453A"/>
<path d="M26.722 41.5422C26.722 41.5582 26.722 41.5743 26.722 41.6064C26.722 41.6225 26.722 41.6225 26.722 41.6547C26.722 41.6707 26.722 41.6707 26.722 41.6868C26.7058 41.7029 26.6896 41.7993 26.544 41.735C26.5278 41.7189 26.5116 41.6868 26.5116 41.6868L26.5116 41.6707C26.4954 41.6225 26.4792 41.5904 26.463 41.5422L26.4145 41.3172C26.3821 41.1725 26.3498 41.0118 26.3174 40.8672C26.2527 40.5619 26.2041 40.2726 26.1556 39.9673L26.0099 39.0673L25.9452 38.6173C25.929 38.4566 25.8966 38.312 25.8804 38.1513C25.7672 36.9138 25.8966 35.6764 26.0746 34.4711C26.1717 33.8765 26.2689 33.2658 26.366 32.6712C26.4469 32.0766 26.5601 31.482 26.6734 30.8713C26.9324 29.6821 27.2884 28.509 27.7092 27.3519C28.1624 26.2109 28.6641 25.102 29.2305 24.0253C29.8131 22.9485 30.4281 21.904 31.1078 20.8915C31.7876 19.8791 32.5158 18.8988 33.2927 17.9667C34.0695 17.0346 34.8948 16.1346 35.7688 15.2829C35.8011 15.2508 35.8659 15.2508 35.9144 15.2829C35.9468 15.315 35.9468 15.3793 35.9144 15.4275C35.0729 16.2953 34.2799 17.2114 33.5192 18.1434C32.7586 19.0916 32.0788 20.0719 31.3991 21.0844C30.7356 22.0968 30.1368 23.1414 29.5865 24.202C29.0363 25.2788 28.5508 26.3716 28.13 27.4965C27.7254 28.6214 27.3855 29.7785 27.1266 30.9517C27.0295 31.5463 26.9162 32.1248 26.8353 32.7355C26.7382 33.3301 26.6411 33.9247 26.544 34.5193C26.3659 35.7086 26.2365 36.8978 26.366 38.0709C26.3821 38.2156 26.3983 38.3602 26.4145 38.5048L26.4792 38.9548C26.5116 39.2601 26.544 39.5655 26.5764 39.8547C26.6087 40.1601 26.6249 40.4654 26.6573 40.7547L26.6896 41.2047L26.7058 41.4297L26.722 41.5261C26.722 41.5261 26.7058 41.494 26.6896 41.494C26.544 41.4297 26.5278 41.5261 26.5278 41.5261C26.5278 41.5422 26.5278 41.5422 26.5278 41.5422C26.5278 41.5422 26.5278 41.5422 26.5278 41.5261C26.5278 41.51 26.5278 41.4939 26.5278 41.4779C26.5278 41.4297 26.5763 41.3815 26.6411 41.3815C26.6734 41.4618 26.722 41.4939 26.722 41.5422Z" fill="#07453A"/>
<path d="M26.5601 41.5907C26.7543 41.43 26.8514 41.1728 26.9 40.8996C26.9647 40.6264 26.9809 40.3532 26.997 40.064C27.0132 39.7747 27.0132 39.4854 27.0294 39.1961C27.0294 39.0515 27.0456 38.9069 27.0618 38.7462C27.0942 38.5533 27.1427 38.4248 27.1751 38.2801C27.4988 37.1391 27.871 36.0302 28.3241 34.9375C28.5507 34.3911 28.7773 33.8447 29.0362 33.3143C29.2952 32.784 29.5703 32.2537 29.8292 31.7394C30.3795 30.6948 30.9459 29.6663 31.5447 28.6539C32.7424 26.629 34.0209 24.6523 35.3803 22.7399C35.7202 22.2578 36.06 21.7757 36.4161 21.3096C36.756 20.8275 37.0958 20.3454 37.4195 19.8633C37.7432 19.3812 38.0831 18.8991 38.3906 18.4009C38.5524 18.1598 38.7142 17.9027 38.8599 17.6616C39.0055 17.4206 39.1674 17.1634 39.2645 16.9063L39.2645 16.8902C39.2807 16.842 39.3454 16.8099 39.394 16.826C39.4425 16.842 39.4749 16.9063 39.4587 16.9545C39.3454 17.2599 39.1997 17.5009 39.0541 17.758C38.9084 18.0152 38.7466 18.2723 38.6009 18.5134C38.2934 19.0115 37.9698 19.5097 37.6461 19.9919C37.3224 20.49 36.9987 20.9722 36.6588 21.4543L35.6555 22.9006C34.3284 24.8291 33.066 26.8058 31.9008 28.8306C31.3182 29.8431 30.7517 30.8716 30.2177 31.9001C29.9425 32.4144 29.6836 32.9447 29.4246 33.459C29.1819 33.9893 28.9391 34.5196 28.7287 35.066C28.3079 36.1427 27.9357 37.2516 27.612 38.3765C27.5797 38.5051 27.5149 38.6658 27.5149 38.7622C27.4987 38.8908 27.4987 39.0354 27.4826 39.1801C27.4664 39.4693 27.4502 39.7747 27.4016 40.064C27.3693 40.3693 27.3045 40.6586 27.2074 40.9639C27.1589 41.1085 27.0941 41.2532 26.997 41.3978C26.8999 41.5264 26.7866 41.6549 26.6248 41.7353C26.5762 41.7674 26.5115 41.7353 26.4954 41.6871C26.5115 41.671 26.5115 41.6228 26.5601 41.5907Z" fill="#07453A"/>
<path d="M38.6658 15.6359C38.5849 15.7805 38.5039 15.9251 38.4068 16.0537C38.3097 16.1823 38.245 16.3269 38.1803 16.4715C38.1479 16.5519 38.1155 16.6162 38.0993 16.6965L38.0346 16.9215L37.9537 17.1626L37.9051 17.2751C37.8889 17.2911 37.8889 17.3233 37.8727 17.3393C37.8727 17.3554 37.8566 17.3554 37.8566 17.3715L37.8404 17.3876C37.8242 17.4036 37.808 17.4197 37.7918 17.4358C37.7433 17.4679 37.6623 17.4518 37.63 17.4036L37.6138 17.3876L37.6138 17.3715C37.5491 17.2108 37.4682 17.034 37.4196 16.8251C37.3872 16.6162 37.4034 16.4233 37.4196 16.2465L37.5976 15.1698L37.808 15.3305C37.5814 15.4269 37.3548 15.5073 37.1121 15.5555C36.9988 15.5876 36.8693 15.6037 36.7398 15.6037C36.6104 15.6037 36.4971 15.6037 36.3676 15.5876C36.2382 15.5716 36.1249 15.5555 35.9954 15.5234C35.8821 15.4912 35.7365 15.4591 35.6232 15.3948C35.5099 15.3305 35.3966 15.2502 35.2995 15.1698C35.2024 15.0734 35.1215 14.993 35.0567 14.8805C35.0082 14.8163 35.0244 14.7198 35.1053 14.6716C35.1377 14.6395 35.1862 14.6395 35.2348 14.6555C35.4613 14.7198 35.7203 14.752 35.963 14.7841C36.0925 14.8002 36.2058 14.8002 36.3191 14.8163C36.4324 14.8163 36.5295 14.8002 36.6589 14.768C36.9017 14.7198 37.1283 14.6395 37.3548 14.543C37.4681 14.4948 37.5814 14.4466 37.6462 14.3823C37.7271 14.3181 37.808 14.2216 37.8889 14.1252C37.9699 14.0288 38.0346 13.9324 38.1155 13.8359C38.1802 13.7395 38.245 13.6431 38.3097 13.5306C38.423 13.3217 38.5363 13.0967 38.6334 12.8717C38.7305 12.6467 38.8276 12.4057 38.9409 12.1807C39.0542 11.9557 39.1836 11.7307 39.3293 11.5057C39.8957 10.654 40.624 9.8665 41.5627 9.40045C41.8055 9.28795 42.0482 9.19153 42.3072 9.14332C42.5661 9.09511 42.8412 9.07904 43.1164 9.12726C43.3915 9.17547 43.6504 9.30403 43.8447 9.49688C44.0389 9.67366 44.2169 9.8665 44.3787 10.0754C44.5244 10.2843 44.67 10.5254 44.7509 10.7665C44.7995 10.895 44.8319 11.0236 44.8481 11.1522C44.8642 11.2164 44.8643 11.2807 44.8643 11.3611C44.8643 11.4253 44.8643 11.4896 44.8643 11.5539C44.8643 11.6182 44.8642 11.6825 44.8481 11.7628C44.8319 11.8271 44.8319 11.9075 44.7833 11.9878C44.7672 12.0039 44.751 12.036 44.7348 12.0521C44.7186 12.0682 44.7024 12.0842 44.6862 12.0842L44.67 12.1003C44.6538 12.1003 44.6862 12.1003 44.6215 12.1164C44.5568 12.1325 44.492 12.0682 44.5082 12.0842L44.492 12.0682C44.4597 12.036 44.4434 12.02 44.4273 11.9878C44.3949 11.9396 44.3463 11.8914 44.314 11.8593C44.2331 11.7789 44.136 11.6985 44.0551 11.6503C43.958 11.6021 43.8285 11.5378 43.7314 11.4896C43.5048 11.3932 43.2782 11.3129 43.0355 11.2486C42.9222 11.2164 42.7927 11.1843 42.6794 11.1682L42.5014 11.1522C42.469 11.1522 42.4366 11.1522 42.4205 11.1522L42.3395 11.1522C41.8702 11.1682 41.4494 11.4414 41.1095 11.7789C40.7697 12.1325 40.4946 12.5503 40.2518 12.9681C40.1385 13.1931 40.009 13.402 39.9119 13.627C39.7986 13.852 39.6853 14.077 39.6206 14.302C39.5397 14.527 39.475 14.768 39.4426 15.0091C39.4102 15.2502 39.4102 15.4912 39.4264 15.7483C39.4264 15.8769 39.4426 15.9894 39.475 16.1019C39.5073 16.2144 39.5397 16.343 39.5721 16.4555C39.6044 16.568 39.653 16.6804 39.7015 16.7929C39.7177 16.8411 39.7501 16.9054 39.7825 16.9536C39.7986 16.9697 39.8148 17.0019 39.831 17.0179C39.831 17.034 39.8472 17.034 39.8472 17.034C39.831 17.034 39.831 17.0179 39.8148 17.034L39.7339 17.2429L39.7177 17.2268L39.8148 17.259C39.7177 17.2751 39.6206 17.2268 39.5721 17.1947C39.5073 17.1626 39.4588 17.1143 39.4102 17.0661C39.394 17.0501 39.3617 17.034 39.3455 17.0179L39.2646 16.9536C39.216 16.9054 39.1675 16.8733 39.1189 16.8251C38.9247 16.6483 38.779 16.4233 38.6819 16.1823C38.5848 15.9412 38.5201 15.7001 38.4716 15.443C38.423 15.1859 38.423 14.9127 38.5363 14.6555C38.7143 14.1895 38.9409 13.7395 39.1675 13.3056C39.394 12.8717 39.6044 12.4217 39.8634 12.0039C40.1223 11.5861 40.4298 11.1682 40.8183 10.8468C41.2067 10.5254 41.676 10.3004 42.1615 10.1558C42.2748 10.1236 42.4043 10.0915 42.5337 10.0594C42.6632 10.0433 42.7765 10.0111 42.906 9.99506C43.1649 9.96292 43.4239 9.99506 43.6666 10.0754C43.7961 10.1076 43.9094 10.1558 44.0227 10.2201C44.0712 10.2522 44.1359 10.2843 44.1845 10.3165L44.2654 10.3647C44.2978 10.3808 44.3302 10.4129 44.3463 10.429C44.4434 10.5254 44.5082 10.6379 44.5729 10.7343C44.6053 10.7825 44.6377 10.8307 44.67 10.8789C44.6862 10.895 44.7024 10.9272 44.7186 10.9432C44.7348 10.9432 44.7348 10.9593 44.7509 10.9593C44.7509 10.9593 44.751 10.9593 44.7671 10.9593C44.7995 10.9593 44.8319 10.9914 44.8319 11.0236C44.8319 11.0557 44.7995 11.0879 44.7671 11.0879C44.751 11.0879 44.7348 11.0879 44.7186 11.0718L44.6862 11.0557C44.67 11.0397 44.6538 11.0236 44.6377 11.0236C44.6215 10.9914 44.5891 10.9754 44.5729 10.9432C44.5406 10.895 44.492 10.8468 44.4597 10.7825C44.3949 10.6861 44.3302 10.5736 44.2493 10.4933C44.2331 10.4772 44.2169 10.4611 44.1845 10.445L44.1036 10.3968C44.055 10.3647 44.0065 10.3325 43.9417 10.3165C43.8284 10.2683 43.7313 10.2201 43.6181 10.1879C43.3915 10.1236 43.1488 10.0915 42.9222 10.1236C42.8089 10.1397 42.6794 10.1718 42.5661 10.1879C42.4528 10.204 42.3233 10.2522 42.2101 10.2843C41.7407 10.429 41.3038 10.6379 40.9315 10.9432C40.5593 11.2486 40.268 11.6503 40.0252 12.0682C39.7825 12.486 39.5559 12.9199 39.3455 13.3699C39.1189 13.8038 38.9085 14.2538 38.7467 14.7038C38.6658 14.9127 38.6658 15.1377 38.6981 15.3787C38.7305 15.6198 38.7952 15.8448 38.8923 16.0537C38.9894 16.2626 39.1189 16.4555 39.2808 16.6162C39.3131 16.6644 39.3617 16.6965 39.4102 16.7287L39.475 16.7769C39.5073 16.7929 39.5235 16.8251 39.5559 16.8412C39.653 16.9215 39.7339 16.9858 39.7825 16.9697C39.8148 16.9697 39.8472 16.9697 39.8634 16.9858L39.8796 16.9858L39.8957 17.0019C39.9443 17.0501 39.9443 17.1144 39.9119 17.1626C39.8796 17.1947 39.8472 17.2108 39.8148 17.1947C39.7824 17.1947 39.7663 17.1786 39.7339 17.1786C39.7177 17.1626 39.7015 17.1626 39.7015 17.1465C39.6692 17.1304 39.6692 17.1144 39.653 17.0983C39.6206 17.0661 39.6044 17.034 39.5883 17.0019C39.5559 16.9376 39.5235 16.8894 39.4911 16.8251C39.4426 16.7126 39.394 16.584 39.3455 16.4555C39.2969 16.3269 39.2646 16.2144 39.2322 16.0858C39.1998 15.9573 39.1837 15.8126 39.1837 15.7001C39.1675 15.443 39.1675 15.1859 39.1999 14.9287C39.2322 14.6555 39.2969 14.4145 39.3779 14.1734C39.4588 13.9324 39.5721 13.6913 39.6854 13.4663C39.7987 13.2413 39.9119 13.0163 40.0414 12.7914C40.2842 12.3414 40.5755 11.9075 40.9315 11.5378C41.0286 11.4575 41.1258 11.3611 41.2229 11.2807L41.3847 11.1682L41.5627 11.0718C41.8055 10.9432 42.0644 10.8468 42.3395 10.8468L42.4367 10.8468C42.469 10.8468 42.5014 10.8468 42.5337 10.8468L42.7441 10.8629C42.8736 10.879 43.0031 10.9111 43.1325 10.9432C43.3915 11.0075 43.6342 11.1039 43.8608 11.2004C43.9741 11.2486 44.0874 11.2968 44.2169 11.3611C44.3464 11.4414 44.4435 11.5218 44.5406 11.6182C44.5891 11.6664 44.6377 11.7146 44.67 11.7628L44.7186 11.8271C44.7348 11.8432 44.6862 11.7789 44.6215 11.795C44.5568 11.811 44.5891 11.811 44.5729 11.811C44.5729 11.811 44.5729 11.811 44.5729 11.795C44.5891 11.7628 44.6053 11.7146 44.6053 11.6503C44.6053 11.6021 44.6215 11.5378 44.6215 11.4736C44.6539 10.9914 44.4596 10.5575 44.1845 10.1558C44.0388 9.96292 43.877 9.78615 43.699 9.62544C43.521 9.46474 43.3106 9.36831 43.084 9.3201C42.6309 9.23974 42.1453 9.36831 41.7084 9.57723C40.8344 10.0111 40.1223 10.7504 39.5883 11.57C39.4588 11.7789 39.3293 11.9878 39.216 12.2128C39.1027 12.4378 39.0218 12.6628 38.9247 12.8878C38.8276 13.1288 38.7143 13.3538 38.5849 13.5788C38.5201 13.6913 38.4554 13.8038 38.3745 13.9163C38.2935 14.0127 38.2126 14.1252 38.1317 14.2216C38.0508 14.3181 37.9699 14.4145 37.8566 14.5109C37.808 14.5591 37.7271 14.6073 37.6624 14.6395C37.5976 14.6716 37.5329 14.7038 37.4843 14.7198C37.2416 14.8163 36.9988 14.8966 36.7398 14.9609C36.6751 14.977 36.6104 14.993 36.5456 14.993C36.4809 15.0091 36.4 15.0091 36.3352 15.0091C36.2058 15.0091 36.0601 14.993 35.9306 14.977C35.6717 14.9448 35.4128 14.8966 35.17 14.8323L35.348 14.5913C35.3966 14.6716 35.4775 14.752 35.5422 14.8323C35.607 14.8966 35.7041 14.9609 35.785 15.0091C35.9468 15.1055 36.1734 15.1377 36.4 15.1537C36.5133 15.1698 36.6266 15.1698 36.7398 15.1698C36.837 15.1698 36.9503 15.1537 37.0474 15.1377C37.2578 15.0895 37.4843 15.0252 37.6785 14.9448C37.7595 14.9127 37.8404 14.9448 37.8727 15.0252C37.8889 15.0573 37.8889 15.0894 37.8889 15.1055L37.6947 16.1662C37.6785 16.343 37.6623 16.5197 37.6785 16.6804C37.6947 16.8412 37.7595 17.0019 37.8242 17.1786L37.6462 17.1143C37.63 17.1143 37.63 17.1304 37.6138 17.1465C37.6138 17.1465 37.6138 17.1304 37.63 17.1304C37.63 17.1144 37.6462 17.0983 37.6462 17.0822L37.6947 16.9697L37.7757 16.7447C37.808 16.6644 37.8242 16.584 37.8566 16.5197C37.8889 16.4394 37.9213 16.359 37.9699 16.2787C38.0508 16.134 38.1479 15.9894 38.245 15.8448C38.3421 15.7162 38.4392 15.5876 38.5363 15.4591C38.5525 15.4269 38.601 15.4269 38.6334 15.443C38.6658 15.5716 38.682 15.6037 38.6658 15.6359Z" fill="#07453A"/>
<path d="M7.9081 42.1834C7.79482 42.0548 7.71392 41.9102 7.64919 41.7816C7.61682 41.7173 7.58442 41.653 7.53587 41.5887C7.51968 41.5566 7.50353 41.5245 7.48735 41.5084C7.47116 41.4923 7.47113 41.4923 7.45495 41.4762C7.45495 41.4762 7.43879 41.4602 7.43879 41.4762C7.43879 41.4762 7.45495 41.4923 7.45495 41.4762L7.40643 41.4762C7.37406 41.4762 7.34168 41.4923 7.30931 41.4923C7.24457 41.5084 7.16365 41.5245 7.09891 41.5405C6.95326 41.5727 6.80762 41.6209 6.67815 41.6691C6.11172 41.8459 5.56143 42.0869 5.10829 42.4565C4.65514 42.8262 4.28293 43.2922 4.04017 43.8225L3.95925 44.0315L3.87833 44.2404C3.84597 44.3368 3.86213 44.4654 3.89449 44.5939C3.97541 44.8511 4.13725 45.1082 4.29909 45.3492C4.63895 45.8314 5.05974 46.2813 5.48052 46.7152L5.64236 46.8759C5.69091 46.9242 5.75565 46.9884 5.8042 47.0527C5.85275 47.117 5.90133 47.1813 5.94988 47.2456L6.07932 47.4545C6.24116 47.7277 6.35445 48.017 6.45156 48.3062C6.66195 48.8848 6.77524 49.4954 6.90471 50.0901L6.98563 50.54C7.018 50.6847 7.06656 50.8293 7.11511 50.9579C7.2284 51.2311 7.34167 51.5043 7.50351 51.7614C7.51969 51.7935 7.51971 51.8417 7.48735 51.8578C7.45498 51.8739 7.4226 51.8739 7.39023 51.8418C7.22839 51.5846 7.08272 51.3114 6.96943 51.0222C6.9047 50.8775 6.85616 50.7329 6.82379 50.5722L6.72667 50.1222C6.5972 49.5276 6.45155 48.9491 6.24116 48.3866C6.14405 48.1134 6.01461 47.8402 5.86896 47.5831L5.75564 47.4063C5.70709 47.342 5.67475 47.2938 5.6262 47.2295C5.57765 47.1813 5.52907 47.117 5.48052 47.0688L5.31868 46.9081C4.88172 46.4742 4.46096 46.0403 4.08873 45.526C3.91071 45.2689 3.73268 45.0118 3.63558 44.6904C3.58702 44.5296 3.55464 44.3529 3.61938 44.16L3.7003 43.935L3.79741 43.7101C4.05636 43.1315 4.44475 42.6172 4.94645 42.2155C5.43196 41.8137 6.03077 41.5405 6.61339 41.3637C6.75905 41.3155 6.9209 41.2834 7.06655 41.2352C7.14747 41.2191 7.22839 41.203 7.30931 41.187C7.35786 41.187 7.39024 41.1709 7.43879 41.1709L7.50351 41.1709C7.55206 41.1709 7.60062 41.187 7.63299 41.203C7.69772 41.2513 7.7301 41.2834 7.76247 41.3316C7.79483 41.3798 7.811 41.412 7.82718 41.4441C7.85955 41.5245 7.89192 41.5887 7.9081 41.6691C7.95666 41.8137 8.00521 41.9584 8.06994 42.0709C8.08613 42.103 8.06995 42.1512 8.03758 42.1673C7.95666 42.2155 7.92429 42.2155 7.9081 42.1834Z" fill="#07453A"/>
<path d="M7.92428 42.2473C7.55205 42.5526 7.16362 42.7616 6.7752 43.0026C6.38678 43.2437 6.01458 43.4847 5.70708 43.7901C5.56142 43.9347 5.43193 44.1115 5.3672 44.2883C5.33483 44.3847 5.33481 44.465 5.351 44.5454C5.36718 44.6258 5.41577 44.7382 5.46432 44.8186C5.67471 45.2043 5.94982 45.5579 6.25732 45.8793C6.41916 46.04 6.58102 46.1846 6.75904 46.3132C6.80759 46.3453 6.83993 46.3775 6.88848 46.3935L6.95324 46.4417C6.98561 46.4578 7.01798 46.4739 7.03416 46.49C7.14745 46.5703 7.22836 46.6507 7.30928 46.7471C7.47112 46.9239 7.60061 47.1328 7.73008 47.3095C7.85956 47.4863 8.00519 47.6631 8.15085 47.8238C8.45834 48.1613 8.76585 48.4988 9.08953 48.8041C9.25137 48.9488 9.42938 49.0934 9.60741 49.2541C9.68833 49.3345 9.78545 49.3987 9.86637 49.4791C9.91492 49.5273 9.9473 49.5594 9.99585 49.6076C10.012 49.6237 10.0282 49.6559 10.0606 49.6719L10.0929 49.7201C10.1091 49.7362 10.1091 49.7684 10.1091 49.7844C10.1091 49.8005 10.093 49.8166 10.0768 49.8326L10.0606 49.8326L9.97965 49.8005C9.97965 49.8005 9.97965 49.8005 9.97965 49.7844L9.96345 49.7523C9.94727 49.7362 9.93111 49.7201 9.91493 49.688C9.88256 49.6559 9.834 49.6077 9.78545 49.5755C9.70453 49.4952 9.60741 49.4309 9.52649 49.3666C9.34846 49.222 9.17043 49.0934 8.99241 48.9327C8.65254 48.6113 8.32889 48.3059 8.0052 47.9685C7.84336 47.7917 7.6977 47.631 7.55204 47.4381C7.40639 47.2453 7.2769 47.0685 7.13124 46.9078C7.06651 46.8274 6.9856 46.7471 6.90468 46.6989C6.8885 46.6828 6.87233 46.6667 6.83996 46.6667L6.75904 46.6185C6.69431 46.5864 6.64575 46.5542 6.5972 46.5221C6.40299 46.3935 6.22494 46.2328 6.04692 46.0721C5.72324 45.7346 5.41573 45.3811 5.18916 44.9472C5.14061 44.8347 5.07589 44.7383 5.04352 44.5936C5.01115 44.449 5.02735 44.3043 5.05972 44.1758C5.09209 44.0472 5.1568 43.9347 5.23772 43.8222C5.30245 43.7258 5.38337 43.6294 5.48048 43.533C5.82034 43.1794 6.20878 42.9223 6.5972 42.6812C6.98562 42.4401 7.4064 42.2473 7.84336 42.0866C7.87573 42.0705 7.92428 42.0866 7.92428 42.1348C7.95665 42.1991 7.94047 42.2312 7.92428 42.2473Z" fill="#07453A"/>
<path d="M34.4255 41.8474C34.1827 42.5063 34.0047 43.1812 33.7943 43.8562C33.681 44.1937 33.5677 44.5312 33.4221 44.8687C33.3411 45.0294 33.2602 45.2061 33.1793 45.3668L33.0336 45.6079L32.888 45.8329C32.1111 47.0221 31.2858 48.1953 30.3147 49.2398C29.3437 50.3005 28.2593 51.2487 27.0132 51.9879C26.3982 52.3736 25.7508 52.679 25.0873 52.9522C24.4076 53.2093 23.7278 53.4343 23.0319 53.595L22.4978 53.7075C22.3198 53.7396 22.1256 53.7718 21.9476 53.7718C21.5753 53.8039 21.2193 53.8039 20.8471 53.7718C20.1188 53.7235 19.4067 53.5628 18.727 53.3861C17.3351 53.0004 16.0242 52.47 14.7295 51.8754C13.4348 51.2808 12.1725 50.6219 10.9263 49.9791L10.813 49.9148C10.7806 49.8988 10.7321 49.8666 10.7159 49.8666C10.6673 49.8505 10.6026 49.8345 10.5217 49.8505C10.376 49.8666 10.2304 49.947 10.0847 50.0434C9.93907 50.1398 9.8096 50.2362 9.68013 50.3487C9.55065 50.4612 9.42118 50.5898 9.27553 50.7023C8.70909 51.1523 8.09409 51.5058 7.49529 51.8754C7.44673 51.9076 7.38197 51.8915 7.34961 51.8433C7.31724 51.7951 7.33341 51.7308 7.38197 51.6987C7.98077 51.2969 8.57961 50.9433 9.11369 50.5094C9.24316 50.3969 9.35643 50.2844 9.50209 50.1559C9.63156 50.0273 9.77721 49.9148 9.93905 49.8184C10.1009 49.722 10.2627 49.6256 10.4731 49.5773C10.5702 49.5613 10.6997 49.5613 10.813 49.5934C10.8777 49.6095 10.9101 49.6416 10.9424 49.6577L11.0558 49.722C12.3343 50.3487 13.5966 50.9755 14.8752 51.554C16.1699 52.1326 17.4808 52.6468 18.8402 53.0004C20.1997 53.3378 21.6077 53.5468 22.9348 53.1611C23.6145 53.0164 24.2781 52.7914 24.9254 52.5343C25.5566 52.2611 26.204 51.9719 26.7866 51.5862C27.9842 50.863 29.0362 49.9309 29.9748 48.9024C30.9135 47.8739 31.7227 46.7168 32.4834 45.5436L32.629 45.3186L32.7585 45.1097C32.8394 44.9651 32.9204 44.8044 32.9851 44.6597C33.1307 44.3544 33.2602 44.033 33.3735 43.6955C33.6163 43.0366 33.859 42.3616 34.2313 41.7349C34.2636 41.6867 34.3283 41.6706 34.3769 41.7028C34.4254 41.751 34.4416 41.7992 34.4255 41.8474Z" fill="#07453A"/>
<path d="M34.4094 41.7192C34.4741 41.7192 34.5227 41.7674 34.5389 41.7996C34.5712 41.8317 34.5713 41.8799 34.5874 41.9121C34.6036 41.9764 34.6036 42.0406 34.6036 42.0888C34.6036 42.2013 34.6036 42.3139 34.5874 42.4263C34.5551 42.6353 34.5227 42.8442 34.4742 43.0531C34.3932 43.4548 34.3123 43.8727 34.2152 44.2745C34.0372 45.0941 33.8268 45.8976 33.5678 46.7011C33.3089 47.5046 32.9852 48.276 32.6292 49.0474C32.2731 49.8027 31.8685 50.542 31.4478 51.2652C30.59 52.7115 29.6028 54.0775 28.4537 55.3149C27.3046 56.5524 26.0099 57.6612 24.4724 58.4487C23.7118 58.8183 22.8702 59.1076 22.0448 59.2522C21.2033 59.3968 20.3617 59.5093 19.5039 59.4772C18.6462 59.4611 17.8046 59.3486 16.9792 59.1719C16.1538 58.979 15.3446 58.7058 14.5678 58.3844C13.791 58.063 13.0303 57.6773 12.3021 57.2595C11.5738 56.8416 10.8617 56.3916 10.1819 55.9095C9.5022 55.3953 8.90339 54.7846 8.40169 54.1096C7.89998 53.4347 7.46303 52.6794 7.28501 51.8437C7.26882 51.7955 7.30119 51.7312 7.36593 51.7312C7.41448 51.7151 7.47921 51.7473 7.47921 51.8115C7.65723 52.599 8.09419 53.3222 8.59589 53.965C9.09759 54.6078 9.69643 55.2024 10.36 55.6846C11.0397 56.1506 11.7518 56.5845 12.4801 56.9863C13.2083 57.388 13.9528 57.7576 14.7135 58.063C15.4741 58.3683 16.2671 58.6255 17.0763 58.8022C17.8855 58.979 18.7109 59.0754 19.5201 59.0754C20.3455 59.0915 21.1709 58.9951 21.9639 58.8344C22.7731 58.6897 23.5499 58.4165 24.2782 58.0469C25.0065 57.6773 25.6862 57.2112 26.3336 56.697C26.9648 56.1827 27.5636 55.6042 28.13 54.9935C29.2467 53.7722 30.2178 52.4222 31.0432 51.008C31.4639 50.3009 31.8523 49.5617 32.1922 48.8224C32.5321 48.0832 32.8558 47.3118 33.0985 46.5404C33.3575 45.7529 33.5678 44.9655 33.7782 44.162C33.8915 43.7602 34.0048 43.3584 34.1181 42.9567C34.1829 42.7638 34.2314 42.571 34.28 42.3621C34.2961 42.2656 34.3285 42.1692 34.3285 42.0728C34.3285 42.0246 34.3285 41.9764 34.3285 41.9442C34.3285 41.9282 34.3285 41.9121 34.3285 41.9121C34.3285 41.9121 34.3285 41.9121 34.3447 41.9121C34.2961 41.896 34.2476 41.8478 34.2638 41.7996C34.2961 41.7514 34.3447 41.7192 34.4094 41.7192Z" fill="#07453A"/>
<path d="M7.68956 41.8317C7.41443 42.0245 7.10693 42.1531 6.79943 42.2816C6.49193 42.3941 6.18443 42.5227 5.9093 42.6673C5.63417 42.812 5.35902 43.0048 5.16481 43.2298C5.06771 43.3423 4.97063 43.4708 4.90589 43.5994L4.85733 43.6958L4.80877 43.8083C4.7764 43.8726 4.76022 43.953 4.72785 44.0172C4.63074 44.3065 4.64694 44.6279 4.69549 44.9333C4.76023 45.2386 4.87351 45.544 5.01917 45.8332L5.22957 46.2832C5.29431 46.4439 5.35903 46.5725 5.45614 46.701C5.63416 46.9582 5.86076 47.2153 6.03878 47.5046C6.05497 47.5367 6.05495 47.5849 6.02258 47.601C5.99022 47.6171 5.95783 47.6171 5.92546 47.5849C5.73125 47.3278 5.50469 47.0867 5.2943 46.8135C5.18101 46.685 5.10007 46.5243 5.03533 46.3796C4.95441 46.235 4.88969 46.0903 4.80877 45.9296C4.66311 45.6243 4.53363 45.319 4.43653 44.9815C4.35561 44.644 4.33942 44.2744 4.43653 43.9369C4.46889 43.8565 4.48508 43.7601 4.51745 43.6798L4.56601 43.5512L4.63073 43.4387C4.71165 43.278 4.80878 43.1334 4.93825 43.0048C5.18101 42.7316 5.47231 42.5388 5.76362 42.3781C6.07112 42.2173 6.37865 42.0888 6.68615 41.9602C6.99365 41.8477 7.30113 41.7352 7.641 41.687C7.67337 41.687 7.70574 41.7031 7.72192 41.7513C7.72192 41.7834 7.72193 41.8156 7.68956 41.8317Z" fill="#07453A"/>
<path d="M5.3589 45.1262C5.3589 45.1262 5.3589 45.1101 5.3589 45.1262C5.37508 45.1262 5.34271 45.1584 5.43982 45.1584C5.48837 45.1423 5.48838 45.1101 5.48838 45.0941L5.48838 45.078L5.50458 45.0941L5.53694 45.1262L5.5855 45.2066C5.61787 45.2548 5.65021 45.303 5.68258 45.3673C5.74732 45.4798 5.79587 45.5762 5.84442 45.6887C5.89298 45.8012 5.94155 45.9137 5.9901 46.0101C6.00629 46.0422 6.03866 46.1065 6.07103 46.1547L6.16811 46.2994C6.29758 46.4922 6.44327 46.685 6.60511 46.8779C6.76695 47.0547 6.92876 47.2636 7.05824 47.4725C7.33337 47.9225 7.44668 48.4207 7.5276 48.9028C7.60852 49.3849 7.67325 49.867 7.7218 50.3652C7.7218 50.3973 7.70563 50.4295 7.65708 50.4455C7.62471 50.4455 7.59234 50.4295 7.57616 50.3973C7.47905 49.9152 7.38194 49.4331 7.28484 48.9671C7.17155 48.501 7.04206 48.035 6.78311 47.6493C6.65364 47.4564 6.50799 47.2797 6.34615 47.0868C6.18431 46.894 6.02246 46.7011 5.89298 46.4922L5.7959 46.3315C5.76353 46.2672 5.73113 46.2351 5.68258 46.1547C5.61785 46.0422 5.56929 45.9297 5.52074 45.8172C5.47219 45.7047 5.42367 45.5923 5.3913 45.4798C5.37511 45.4155 5.35892 45.3673 5.34274 45.303L5.32654 45.2066L5.32654 45.1584L5.3589 45.1262L5.34274 45.1101L5.34274 45.0941C5.34274 45.0619 5.34275 45.0459 5.3913 45.0298C5.4884 45.0298 5.45604 45.0619 5.47222 45.0459C5.4884 45.0619 5.4722 45.0619 5.48838 45.0619C5.50456 45.0941 5.50459 45.1423 5.47222 45.1584C5.43985 45.1744 5.37508 45.1423 5.3589 45.1262Z" fill="#07453A"/>
<path d="M9.56684 49.2724C9.58302 49.2724 9.58306 49.2724 9.59924 49.2724C9.59924 49.2724 9.61542 49.2724 9.6316 49.3045C9.64779 49.3367 9.6316 49.3688 9.6316 49.3688C9.6316 49.3849 9.6154 49.3849 9.6154 49.3849C9.6154 49.3849 9.61542 49.3849 9.59924 49.401L9.59924 49.417L9.58304 49.4331C9.58304 49.4492 9.56684 49.4652 9.56684 49.4652C9.56684 49.4813 9.5345 49.5135 9.51832 49.5456C9.48595 49.5938 9.43739 49.626 9.38884 49.6742C9.29173 49.7545 9.17842 49.8027 9.08131 49.867C8.98421 49.9313 8.9033 49.9956 8.77383 50.0599C8.66054 50.1241 8.54723 50.1563 8.43394 50.2045C8.32065 50.2366 8.22356 50.2848 8.12645 50.317L7.81897 50.4616C7.70568 50.5098 7.59237 50.558 7.47908 50.5902C7.44671 50.6062 7.41433 50.6062 7.38196 50.6062C7.36578 50.6062 7.33341 50.6223 7.30104 50.6223C7.25249 50.6384 7.17157 50.6544 7.10684 50.6544C7.07447 50.6544 7.04211 50.6223 7.04211 50.5902C7.04211 50.558 7.07447 50.5259 7.10684 50.5259C7.15539 50.5259 7.18776 50.4938 7.23632 50.4777C7.26869 50.4616 7.28489 50.4455 7.33344 50.4455C7.36581 50.4295 7.38199 50.4295 7.41436 50.4134C7.51147 50.3652 7.60854 50.317 7.70565 50.2527C7.80275 50.1884 7.89988 50.1241 8.01317 50.0759C8.12646 50.0116 8.23975 49.9634 8.33686 49.9152C8.45015 49.867 8.54724 49.8349 8.64434 49.7706C8.72526 49.7224 8.83856 49.642 8.93567 49.5938C9.03277 49.5295 9.12987 49.4652 9.21079 49.401C9.25935 49.3688 9.30792 49.3367 9.35648 49.3045C9.38884 49.2885 9.405 49.2885 9.45356 49.2724C9.46974 49.2724 9.48595 49.2563 9.51832 49.2563L9.55068 49.2563C9.55068 49.2563 9.55066 49.2563 9.56684 49.2563C9.56684 49.2563 9.55068 49.2563 9.55068 49.2724C9.55068 49.2724 9.5345 49.3046 9.55068 49.3367C9.56686 49.3688 9.58304 49.3688 9.58304 49.3688C9.59922 49.3688 9.59922 49.3688 9.6154 49.3688C9.58303 49.3688 9.55068 49.3367 9.55068 49.3045C9.50213 49.3045 9.53447 49.2724 9.56684 49.2724Z" fill="#07453A"/>
<path d="M7.94831 47.666C8.07779 47.6981 8.15873 47.7945 8.20729 47.891C8.25584 47.9874 8.2882 48.0999 8.32057 48.2124C8.36913 48.4373 8.33675 48.6623 8.35293 48.8391C8.35293 49.0159 8.40152 49.2087 8.46626 49.3855C8.531 49.5623 8.61189 49.7551 8.67663 49.9479C8.69282 49.9801 8.67664 50.0283 8.64427 50.0283C8.6119 50.0444 8.57953 50.0283 8.56335 49.9962C8.45005 49.8194 8.35296 49.6587 8.25585 49.4658C8.15874 49.273 8.09398 49.0641 8.0778 48.8391C8.06161 48.6141 8.07779 48.4373 8.02924 48.2606C8.01305 48.1802 7.98068 48.0999 7.94831 48.0195C7.91594 47.9392 7.8674 47.8588 7.88359 47.7303C7.88359 47.682 7.91596 47.6499 7.96451 47.6499C7.93214 47.666 7.94831 47.666 7.94831 47.666Z" fill="#07453A"/>
<path d="M21.3999 12.0214C21.1789 12.1307 20.9564 12.2561 20.7515 12.3668L20.5979 12.4499L20.5627 12.479C20.5451 12.4936 20.5452 12.4936 20.5276 12.5082L20.4573 12.5664L20.3167 12.683L20.2465 12.7412L20.2113 12.7704L20.1938 12.785C20.1777 12.7835 20.2113 12.7703 20.2304 12.7398C20.2348 12.6917 20.2056 12.6568 20.1896 12.6554C20.4657 12.8255 20.802 12.8718 21.1296 12.8367C21.2934 12.8191 21.4572 12.8015 21.6225 12.7679C21.7044 12.7592 21.7878 12.7344 21.8712 12.7096C21.937 12.6993 22.0219 12.6585 22.1053 12.6337C22.1886 12.6089 22.2721 12.5841 22.3715 12.5607C22.4213 12.549 22.471 12.5374 22.5207 12.5257C22.5705 12.514 22.6348 12.5198 22.7137 12.543C22.8233 12.5851 22.93 12.6592 22.9869 12.7451C23.0599 12.8324 23.0992 12.9328 23.1224 13.0318C23.1865 13.2151 23.2023 13.3942 23.2357 13.5586C23.2443 13.6401 23.2705 13.707 23.2968 13.774C23.323 13.8409 23.3507 13.8918 23.396 13.9282C23.4266 13.9471 23.3522 13.8758 23.2849 13.902C23.2527 13.8991 23.2527 13.8991 23.2512 13.9152C23.2336 13.9297 23.2512 13.9152 23.2351 13.9137L23.2527 13.8991L23.2878 13.87L23.3772 13.7812C23.4314 13.7215 23.4695 13.6603 23.5237 13.6006C23.6175 13.4637 23.6952 13.3254 23.7744 13.171C23.8125 13.1099 23.8375 13.0152 23.9108 12.9249C23.9284 12.9104 23.9299 12.8944 23.9474 12.8798L23.965 12.8652C23.9826 12.8507 23.9826 12.8506 24.0001 12.8361C24.0177 12.8215 24.0499 12.8244 24.0499 12.8244L24.0659 12.8259L24.1464 12.8331C24.1946 12.8374 24.259 12.8432 24.3057 12.8635C24.5103 12.9303 24.6608 13.0568 24.7966 13.1659C25.0668 13.4001 25.2827 13.6939 25.5312 13.8131C25.5618 13.832 25.5779 13.8335 25.5779 13.8335C25.5779 13.8335 25.5428 13.8626 25.5794 13.8175C25.616 13.7723 25.6542 13.7111 25.6762 13.6485C25.7203 13.5233 25.719 13.3617 25.6827 13.2293C25.6478 13.0809 25.5808 12.9295 25.4947 12.8088C25.4086 12.688 25.2889 12.5804 25.1691 12.4728C24.9121 12.2721 24.5862 12.1137 24.319 11.8475C24.1861 11.7065 24.0709 11.5508 24.0068 11.3675C23.9427 11.1841 23.9109 11.0036 23.9126 10.81C23.8986 10.4374 23.962 10.104 23.9932 9.76779C24.025 9.07638 24.1211 8.39077 24.2172 7.70514C24.3133 7.01952 24.4094 6.3339 24.5216 5.64972C24.6338 4.96554 24.7621 4.28283 24.905 3.61755C24.9845 3.28563 25.0479 2.9522 25.1449 2.60572C25.1935 2.43247 25.2405 2.2753 25.2714 2.11663C25.3024 1.95795 25.3173 1.79777 25.2824 1.64933C25.1552 1.62176 24.6101 1.37912 24.4726 1.46364C24.3656 1.56706 24.2704 1.71998 24.1926 1.85831C24.1149 1.99664 24.0343 2.16698 23.9726 2.30676C23.8464 2.61833 23.7508 2.94876 23.7035 3.28357C23.6562 3.61838 23.6235 3.9707 23.5761 4.30551L23.0974 8.41188C23.0174 9.09895 22.9359 9.80202 22.6804 10.4572C22.4163 11.0309 21.9884 11.6222 21.3999 12.0214ZM21.3299 11.9021C21.6066 11.717 21.8555 11.481 22.0592 11.2087C22.2629 10.9364 22.4198 10.6437 22.5475 10.3161C22.8015 9.67697 22.8801 9.00589 22.944 8.31738L23.4066 4.20956C23.4379 3.87331 23.4706 3.52099 23.5179 3.18618C23.5667 2.83536 23.6638 2.48889 23.79 2.17731C23.8546 2.00551 23.9163 1.86572 24.013 1.69681C24.0526 1.61964 24.1083 1.54391 24.164 1.46818C24.2197 1.39246 24.2593 1.3153 24.3457 1.25847C24.3632 1.2439 24.3984 1.21478 24.432 1.20166C24.4657 1.18854 24.4978 1.19141 24.53 1.1943C24.5783 1.19863 24.6265 1.20296 24.6748 1.20729C24.7698 1.23197 24.8502 1.23924 24.9437 1.27993C25.0227 1.30316 25.1177 1.32782 25.1951 1.36706C25.2419 1.38741 25.2725 1.40626 25.3208 1.41059C25.3369 1.41204 25.3676 1.43095 25.3837 1.4324C25.3997 1.43384 25.4143 1.45131 25.4143 1.45131C25.4143 1.45131 25.4289 1.46878 25.445 1.47023C25.4596 1.48768 25.4581 1.50365 25.4742 1.50509C25.4727 1.5211 25.4727 1.52112 25.4888 1.52257C25.5353 1.72049 25.5175 1.91263 25.485 2.08732C25.4526 2.26201 25.404 2.43528 25.357 2.59251C25.2775 2.92443 25.198 3.25632 25.1346 3.58968C24.9918 4.25497 24.8795 4.93919 24.7673 5.62338C24.6551 6.30756 24.5766 6.97859 24.4805 7.66422C24.3844 8.34984 24.3058 9.02087 24.2901 9.71372C24.2735 10.0674 24.2101 10.4008 24.2286 10.7254C24.231 11.0485 24.3329 11.3483 24.5563 11.5621C24.7783 11.7919 25.088 11.9489 25.3758 12.1685C25.5277 12.279 25.662 12.4041 25.7773 12.5597C25.8926 12.7154 25.9567 12.8988 26.0046 13.0807C26.0526 13.2626 26.0493 13.4721 25.9818 13.676C25.9407 13.7691 25.8996 13.8624 25.8263 13.9527C25.8087 13.9672 25.8073 13.9833 25.7546 14.027C25.7194 14.0561 25.6697 14.0678 25.6199 14.0794C25.538 14.0882 25.4752 14.0664 25.4123 14.0446C25.0412 13.8499 24.8413 13.5575 24.6018 13.3422C24.4821 13.2346 24.3448 13.1415 24.2191 13.0979C24.1884 13.079 24.1547 13.0922 24.1241 13.0733L24.0758 13.069C24.0758 13.069 24.108 13.0718 24.1095 13.0558C24.1271 13.0412 24.127 13.0412 24.127 13.0412L24.1446 13.0266C24.108 13.0718 24.0845 13.1504 24.0434 13.2436C23.9642 13.3979 23.885 13.5523 23.7897 13.7052C23.734 13.7809 23.6783 13.8566 23.6065 13.9309C23.5714 13.96 23.5523 13.9906 23.5157 14.0358C23.4981 14.0504 23.4806 14.0649 23.463 14.0795C23.4454 14.094 23.4454 14.0941 23.4278 14.1086C23.4103 14.1232 23.4103 14.1232 23.3927 14.1378C23.3751 14.1524 23.3751 14.1523 23.343 14.1494C23.2772 14.1597 23.2012 14.1044 23.2173 14.1059C23.1267 14.0332 23.0552 13.9299 23.0144 13.8455C22.9751 13.7451 22.9504 13.6621 22.9271 13.5632C22.8952 13.3827 22.8618 13.2182 22.827 13.0698C22.7921 12.9214 22.703 12.8326 22.6095 12.7919C22.6095 12.7919 22.5774 12.789 22.5452 12.7862C22.513 12.7833 22.4794 12.7964 22.4457 12.8095C22.3623 12.8343 22.295 12.8606 22.2116 12.8854C22.1282 12.9102 22.0448 12.935 21.9453 12.9584C21.862 12.9832 21.764 12.9905 21.6821 12.9993C21.5007 13.0315 21.3223 13.0316 21.1439 13.0317C20.7871 13.032 20.404 12.9653 20.1002 12.7442C20.0841 12.7428 20.0564 12.6919 20.077 12.6453C20.0814 12.5972 20.1151 12.5841 20.1151 12.5841L20.1327 12.5695L20.1502 12.555L20.1854 12.5259L20.2557 12.4676L20.4108 12.3685L20.4972 12.3117C20.5147 12.2971 20.5308 12.2985 20.5484 12.284L20.5835 12.2549L20.7533 12.1732C20.8864 12.1367 21.1089 12.0114 21.3299 11.9021Z" fill="#07453A"/>
<path d="M24.9848 1.49684C24.8923 1.97267 24.7371 2.42675 24.5994 2.86623C24.4441 3.32027 24.3225 3.76113 24.2474 4.22241C24.0814 5.14351 24.0086 6.10533 23.9212 7.04967C23.8768 7.52984 23.8324 8.01 23.7574 8.47127C23.697 8.94999 23.638 9.4127 23.5615 9.88997C23.4099 10.8285 23.1913 11.7933 22.7088 12.6375C22.6898 12.668 22.6563 12.6812 22.6257 12.6623C22.5951 12.6434 22.582 12.6099 22.601 12.5794C23.0193 11.7294 23.2189 10.7952 23.3384 9.85378C23.3973 9.39107 23.4418 8.91083 23.5022 8.43211C23.5612 7.96939 23.5896 7.48778 23.634 7.00761C23.7053 6.06183 23.7781 5.10006 23.9471 4.14694C24.0397 3.67111 24.1643 3.19819 24.3034 2.7427C24.4587 2.28866 24.6299 1.83606 24.8785 1.42271C24.8975 1.39214 24.931 1.379 24.9777 1.39934C24.9747 1.43136 24.9878 1.46483 24.9848 1.49684Z" fill="#07453A"/>
</svg>
