<svg width="92" height="65" viewBox="0 0 92 65" fill="none" xmlns="http://www.w3.org/2000/svg">
<path d="M44.8695 31.071C44.7239 30.4924 44.6753 29.9139 44.6753 29.3354C44.6753 28.7568 44.6753 28.1783 44.6592 27.5998C44.643 27.0213 44.6106 26.4427 44.5782 25.8642L44.562 25.4303L44.5458 25.2214L44.5458 25.1089L44.5458 25.0767L44.5458 25.0607L44.5458 25.0445C44.5458 25.0284 44.5458 25.0445 44.5458 24.9963C44.4649 24.9321 45.3227 24.8839 44.9828 24.9803L44.9828 24.9963L44.9828 25.0125L44.9828 25.0285L44.9828 25.0607C45.0152 25.366 45.0313 25.6553 45.0475 25.9446C45.0637 26.2338 45.0799 26.507 45.1123 26.7963L45.1771 27.2302C45.1771 27.2945 45.1771 27.3266 45.1771 27.3587L45.1771 27.4391C45.1771 27.423 45.177 27.4391 45.1608 27.4069C45.1608 27.3908 45.1446 27.3748 45.1284 27.3587C45.1122 27.3427 45.0798 27.3106 45.0475 27.3106C45.0151 27.2945 44.9827 27.2945 44.9666 27.3106C44.9504 27.3106 44.9181 27.3266 44.9019 27.3266C44.8857 27.3426 44.8695 27.3587 44.8695 27.3587L44.8534 27.3747C44.8534 27.3908 44.8534 27.3908 44.8534 27.3747L44.8856 27.3266L44.9343 27.2302L45.1608 26.8766L45.1932 26.8284C45.1932 26.8284 45.1932 26.8283 45.1932 26.8123L45.2256 26.7159C45.2256 26.6998 45.2418 26.6677 45.258 26.6356C45.2742 26.6034 45.2903 26.5552 45.3874 26.507C45.4198 26.491 45.436 26.4909 45.4684 26.4909C45.5007 26.4909 45.5331 26.491 45.5493 26.507C45.5978 26.5231 45.5977 26.5392 45.6139 26.5392C45.6463 26.5553 45.6787 26.5873 45.6948 26.6034C45.8405 26.7641 45.8729 26.9087 45.9215 27.0533C45.97 27.198 46.0024 27.3426 46.0348 27.4873C46.1481 28.0497 46.2775 28.6283 46.3422 29.2068C46.3746 29.4961 46.4232 29.7854 46.4394 30.0747C46.4556 30.364 46.4556 30.6693 46.4394 30.9586C46.4394 31.0068 46.3908 31.055 46.3261 31.055C46.2775 31.055 46.229 31.0068 46.229 30.9586C46.229 30.6693 46.2127 30.3799 46.1804 30.1067C46.148 29.8175 46.0995 29.5443 46.0509 29.255C46.0024 28.9658 45.9538 28.6926 45.8891 28.4033L45.6787 27.5676C45.6464 27.423 45.614 27.2944 45.5654 27.1659C45.5168 27.0373 45.4683 26.9087 45.4036 26.8444C45.4036 26.8284 45.4036 26.8444 45.4036 26.8444C45.4036 26.8444 45.3875 26.8445 45.4198 26.8606C45.436 26.8606 45.4522 26.8606 45.4684 26.8606C45.4845 26.8606 45.5168 26.8605 45.533 26.8444C45.5977 26.8123 45.5816 26.7963 45.5978 26.7963L45.5817 26.8284L45.5493 26.941C45.5493 26.957 45.5331 26.9892 45.5169 27.0213L45.4845 27.0695L45.258 27.4551L45.2093 27.5516L45.1771 27.5998C45.1771 27.5998 45.177 27.5997 45.1608 27.6158C45.1446 27.6319 45.1446 27.6319 45.1284 27.648C45.1284 27.648 45.1123 27.6641 45.0962 27.6801C45.08 27.6962 45.0475 27.6962 45.0314 27.6962C44.999 27.7122 44.8858 27.6802 44.8534 27.632C44.8372 27.6159 44.821 27.5998 44.821 27.5676C44.8048 27.5355 44.8047 27.5355 44.8047 27.5194C44.7885 27.4391 44.7886 27.423 44.7886 27.3747C44.7886 27.3426 44.7886 27.2944 44.7886 27.2944L44.7238 26.8606C44.6752 26.5713 44.6591 26.266 44.6268 25.9767C44.6106 25.6875 44.5944 25.3981 44.5458 25.1249L44.5458 25.0929L44.5458 25.0767L44.5458 25.0929C44.206 25.1732 45.0638 25.141 44.9828 25.0767C44.9828 25.0445 44.9828 25.0606 44.9828 25.0445L44.9828 25.0607L44.9828 25.0929L44.9828 25.2052L44.999 25.4303L45.0314 25.8642C45.0637 26.4427 45.1122 27.0213 45.1284 27.5998C45.1446 28.1783 45.1608 28.7568 45.1608 29.3354C45.1608 29.9139 45.1609 30.4924 45.0638 31.071C45.0638 31.1192 44.999 31.1674 44.9504 31.1513C44.9181 31.1352 44.8857 31.1031 44.8695 31.071Z" fill="#07453A"/>
<path d="M49.6928 30.7976C49.4824 30.2672 49.4014 29.7207 49.3691 29.1743C49.3367 28.6119 49.3367 28.0816 49.3367 27.5191C49.3529 27.2298 49.3691 26.9406 49.4339 26.6674L49.4339 26.6512C49.4339 26.6352 49.4338 26.6352 49.45 26.603C49.4662 26.5709 49.4176 26.6353 49.4985 26.5389C49.5632 26.4424 49.7413 26.4745 49.6928 26.4745L49.709 26.4745L49.7413 26.4745C49.7898 26.4906 49.8223 26.5067 49.8385 26.5067C49.887 26.5388 49.9355 26.5709 49.9679 26.603C50.0326 26.6673 50.0812 26.7156 50.1298 26.7799C50.2269 26.8924 50.3078 27.0209 50.3725 27.1333C50.4049 27.1976 50.4373 27.2459 50.4858 27.3102L50.5344 27.4066L50.5668 27.4548C50.5829 27.4708 50.583 27.4708 50.5992 27.5351C50.6153 27.5673 50.6153 27.5834 50.6153 27.5995L50.6153 27.6155C50.6153 27.6155 50.6152 27.6155 50.5829 27.5673C50.5829 27.5673 50.5505 27.5352 50.5344 27.5191C50.5182 27.503 50.4696 27.4869 50.421 27.4869C50.4048 27.4869 50.3726 27.4869 50.3564 27.4869C50.3402 27.4869 50.3239 27.5031 50.3077 27.5031C50.2915 27.5031 50.2592 27.5351 50.2592 27.5351L50.2592 27.5191C50.2754 27.487 50.2916 27.4387 50.324 27.3744L50.3564 27.278L50.3886 27.1817L50.4534 26.9888C50.502 26.8602 50.5344 26.7316 50.5668 26.603C50.6477 26.3459 50.7123 26.0728 50.7932 25.8157C50.8094 25.7514 50.8419 25.671 50.8419 25.6228L50.8742 25.5263C50.8903 25.4942 50.8904 25.462 50.9066 25.3978C50.9066 25.3817 50.9066 25.3817 50.939 25.3496L50.9551 25.3336C50.9389 25.3175 51.1169 25.221 51.1978 25.2692C51.2626 25.3014 51.2464 25.3014 51.2788 25.3336C51.2949 25.3657 51.3112 25.3979 51.3112 25.4139C51.3112 25.43 51.3112 25.446 51.3112 25.4621L51.3112 25.4781L51.3112 25.5263L51.3112 25.6388C51.3112 25.7031 51.3112 25.7834 51.3112 25.8477C51.295 26.4102 51.1979 26.9567 51.1008 27.5031C51.0037 28.0334 50.939 28.5637 50.9228 29.1101C50.9067 29.3833 50.9065 29.6565 50.8742 29.9297C50.858 30.2029 50.8257 30.476 50.7771 30.7492C50.7609 30.7974 50.7123 30.8456 50.6638 30.8296C50.6152 30.8135 50.5667 30.7654 50.5829 30.7172C50.6476 30.1708 50.6477 29.6404 50.6477 29.094C50.6477 28.5476 50.6801 27.9851 50.761 27.4387C50.8419 26.8924 50.9228 26.362 50.9228 25.8317C50.9228 25.7674 50.9228 25.7031 50.9228 25.6388L50.9228 25.5425L50.9228 25.4943L50.9228 25.4781L50.9228 25.4943C50.9228 25.5103 50.9389 25.5425 50.9551 25.5746C50.9874 25.6068 50.9713 25.6067 51.036 25.6388C51.1169 25.7031 51.2949 25.6067 51.2788 25.5906C51.2788 25.5906 51.2789 25.5746 51.295 25.5746C51.3112 25.5425 51.3112 25.5425 51.3112 25.5425L51.295 25.6228L51.2788 25.7192C51.2626 25.7995 51.2464 25.8638 51.2302 25.9281C51.1493 26.1852 51.0846 26.4424 51.0199 26.7156C50.9875 26.8441 50.9389 26.9888 50.9066 27.1173L50.8419 27.3102L50.8095 27.4066L50.7771 27.5031C50.7609 27.5674 50.7286 27.6477 50.6801 27.7442C50.6639 27.7602 50.6476 27.7924 50.6314 27.8245C50.6152 27.8406 50.5991 27.8566 50.5829 27.8727C50.5829 27.8727 50.5505 27.9049 50.5344 27.9049C50.5344 27.9049 50.502 27.9209 50.4858 27.9209C50.4696 27.9209 50.4372 27.9209 50.421 27.9209C50.3725 27.9209 50.324 27.8888 50.2916 27.8727C50.2754 27.8566 50.2431 27.8245 50.2431 27.8245C50.2107 27.7763 50.2107 27.7602 50.1946 27.7442L50.1783 27.712L50.1622 27.6798L49.9679 27.3744C49.9032 27.2619 49.8222 27.1494 49.7413 27.053C49.7089 27.0048 49.6605 26.9566 49.6281 26.9245C49.6119 26.9084 49.5957 26.8923 49.5957 26.8923C49.5472 26.8923 49.709 26.9085 49.79 26.8281C49.8709 26.7156 49.8223 26.7798 49.8385 26.7638L49.8385 26.7477C49.7899 26.9888 49.7576 27.262 49.7576 27.5191C49.7576 28.0494 49.7737 28.5958 49.8061 29.1422C49.8384 29.6725 49.8708 30.219 49.8546 30.7654C49.8546 30.8297 49.806 30.8617 49.7413 30.8617C49.7413 30.8617 49.7089 30.8458 49.6928 30.7976Z" fill="#07453A"/>
<path d="M51.9258 30.7331C51.8125 30.6688 51.7964 30.5884 51.7964 30.508C51.8126 30.4277 51.8125 30.3634 51.8449 30.267C51.8611 30.2188 51.8774 30.1867 51.8936 30.1225C51.9098 30.0903 51.9259 30.0742 51.9421 30.0421C51.9583 30.026 51.9583 30.01 51.9906 29.9939L52.023 29.9778L52.0391 29.9618C52.0715 29.9457 52.1201 29.9296 52.1525 29.9136C52.1848 29.9136 52.1848 29.9136 52.201 29.9136C52.2172 29.9136 52.2334 29.9136 52.2334 29.9136C52.2496 29.9136 52.2658 29.9296 52.2658 29.9296C52.282 29.9296 52.2981 29.9456 52.3143 29.9456C52.3467 29.9617 52.3629 29.9617 52.3791 29.9778C52.4115 29.9938 52.4438 30.026 52.4761 30.0421C52.6056 30.1385 52.7189 30.251 52.7998 30.3795C52.8807 30.5081 52.9454 30.6366 52.9778 30.7813C52.994 30.8295 52.9616 30.8937 52.8969 30.9098C52.8645 30.9259 52.816 30.9099 52.7998 30.8778C52.7027 30.7814 52.6218 30.6849 52.5247 30.6046C52.4276 30.5242 52.3467 30.46 52.2334 30.3957C52.201 30.3796 52.1848 30.3634 52.1525 30.3473C52.1363 30.3473 52.1362 30.3313 52.1201 30.3313L52.1363 30.3313C52.1363 30.3313 52.1524 30.3313 52.1686 30.3313C52.1848 30.3313 52.1848 30.3313 52.201 30.3313C52.2334 30.3313 52.2658 30.3152 52.2982 30.2992C52.2982 30.2992 52.2981 30.2992 52.3143 30.2992C52.3143 30.2992 52.3142 30.2992 52.3304 30.2992C52.3304 30.3152 52.3143 30.3313 52.3143 30.3473C52.2981 30.3956 52.2982 30.4598 52.2982 30.508C52.2982 30.5723 52.2658 30.6366 52.1363 30.7009C52.0716 30.7813 51.9906 30.7813 51.9258 30.7331Z" fill="#07453A"/>
<path d="M44.2062 31.0703C44.1414 31.0703 44.0927 31.0543 44.0765 31.0543C44.0604 31.0543 44.0604 31.0543 44.0604 31.0543C44.0604 31.0543 44.0605 31.0543 44.0443 31.0543C43.9796 31.0061 43.9309 30.9098 43.9147 30.8776L43.8662 30.8133C43.8662 30.8133 43.85 30.7973 43.8662 30.7973L43.8825 30.8133C43.8986 30.8133 43.8985 30.8132 43.9147 30.8293C43.9471 30.8454 43.9957 30.8615 44.028 30.8615C44.0442 30.8615 44.0766 30.8615 44.0928 30.8454C44.109 30.8454 44.109 30.8454 44.1252 30.8293C44.1414 30.8293 44.1414 30.8293 44.1414 30.8293L44.1252 30.8293L44.1089 30.8454L43.9471 30.9258C43.8338 30.974 43.7529 31.0221 43.6719 31.0703C43.591 31.1185 43.5102 31.199 43.4455 31.2954C43.4131 31.3436 43.3483 31.3435 43.2997 31.3114C43.2674 31.2953 43.2673 31.2472 43.2673 31.215C43.2835 31.0865 43.3483 30.9418 43.4292 30.8293C43.5101 30.7168 43.6235 30.6204 43.7367 30.54L43.8986 30.4437L43.9147 30.4275L43.931 30.4275L43.9471 30.4275C43.9633 30.4275 43.9633 30.4276 43.9795 30.4115C43.9957 30.4115 44.0281 30.3955 44.0443 30.3955C44.0929 30.3955 44.1414 30.4115 44.1738 30.4275C44.1899 30.4436 44.19 30.4437 44.2062 30.4437L44.2223 30.4597C44.2546 30.4918 44.2708 30.508 44.2708 30.524L44.3356 30.6044C44.3841 30.6687 44.3841 30.6848 44.4165 30.7169C44.4327 30.733 44.4489 30.749 44.465 30.7811C44.4812 30.8132 44.4813 30.8293 44.4974 30.8615C44.4974 30.9097 44.4812 30.9579 44.4326 31.0061C44.3517 31.0544 44.2871 31.0703 44.2062 31.0703Z" fill="#07453A"/>
<path d="M39.4644 31.8421C38.1696 32.0028 36.875 32.2117 35.5965 32.5331C34.3341 32.8545 33.088 33.2723 31.9066 33.8348C30.7413 34.4133 29.6407 35.1365 28.6859 36.0043C27.731 36.8721 26.9056 37.8846 26.2259 38.9773C26.1773 39.0577 26.0641 39.0899 25.967 39.0417C25.9185 39.0096 25.8861 38.9452 25.8861 38.897C25.8699 37.8524 25.9185 36.8078 25.967 35.7632C26.0156 34.7187 26.0641 33.6902 26.0479 32.6617C26.0479 32.1474 26.0156 31.6331 25.967 31.135C25.9185 30.6368 25.8052 30.1386 25.6757 29.6404C25.4168 28.6441 25.0931 27.6637 24.7532 26.6834L24.8017 26.7637C24.7532 26.7155 24.7046 26.6674 24.656 26.6192C24.6075 26.571 24.5589 26.5227 24.4942 26.4905C24.3809 26.4102 24.2677 26.3299 24.1544 26.2656C24.0411 26.2013 23.9926 26.0566 24.0573 25.928L24.3486 25.4299L24.4942 25.1729C24.5427 25.0925 24.5752 24.996 24.6238 24.9156L24.8665 24.3853C24.9475 24.2086 25.0122 24.0157 25.0769 23.8389L25.1739 23.5658L25.2549 23.2926C25.3034 23.0997 25.3681 22.923 25.4167 22.7301C25.5138 22.3444 25.6109 21.9747 25.6595 21.589C25.7889 20.8176 25.8699 20.0462 25.8861 19.2588C25.9023 18.4874 25.8537 17.684 25.7243 16.9447L25.7243 16.9286C25.7243 16.8964 25.7243 16.8643 25.7243 16.8322C26.0479 15.5626 26.404 14.3251 26.7762 13.0716C27.1484 11.8181 27.5368 10.5808 27.9737 9.34339C28.087 9.03805 28.2004 8.73267 28.3137 8.42733C28.427 8.12199 28.5564 7.81662 28.6859 7.51128C28.8154 7.20594 28.9448 6.90067 29.1066 6.6114C29.2523 6.30606 29.4142 6.03279 29.5599 5.74353C29.8512 5.18106 30.0776 4.57038 30.3204 3.97577C30.4337 3.67043 30.5955 3.38122 30.725 3.07588L31.162 2.192L31.4048 2.51341C30.8707 2.60984 30.3205 2.73837 29.8026 2.883C29.5437 2.96336 29.2848 3.04374 29.0744 3.15623C28.8316 3.2848 28.6049 3.42937 28.3783 3.574C27.4558 4.15254 26.6305 4.87565 25.9022 5.67918C25.1577 6.48271 24.5105 7.36659 23.8631 8.25046C23.5394 8.70044 23.2157 9.13441 22.9082 9.60045C22.6007 10.0504 22.2933 10.5165 21.9534 10.9664C21.8725 11.0629 21.743 11.079 21.6459 10.9986C21.6135 10.9825 21.5972 10.9504 21.5811 10.9183C21.3868 10.5004 21.2088 10.0664 21.0955 9.61646C20.9661 9.16648 20.9014 8.7005 20.8852 8.23446C20.8366 7.30237 20.9985 6.37034 21.2898 5.48646C21.4516 5.05256 21.6297 4.61859 21.8401 4.21683L22.4389 2.99553L23.6203 0.568784L23.8307 0.858022L22.3256 1.03489C21.8401 1.0831 21.3708 1.17943 20.9015 1.34014C20.4321 1.50084 19.9789 1.69378 19.5419 1.91877C19.105 2.14376 18.6679 2.40082 18.2633 2.65795L18.2957 2.62578C17.6322 3.41324 17.0173 4.26507 16.4509 5.13288C15.8682 6.00069 15.3502 6.8845 14.8647 7.80052C14.3954 8.71654 13.9908 9.68074 13.7157 10.661C13.5862 11.1592 13.4729 11.6575 13.4405 12.1557L13.4244 12.5413C13.4244 12.6699 13.4244 12.7984 13.4244 12.9109C13.4244 13.0395 13.4405 13.2003 13.4081 13.3288C13.4081 13.3931 13.3921 13.4734 13.3759 13.5377C13.3597 13.602 13.3596 13.6823 13.3272 13.7466C13.1978 14.2769 13.0037 14.7591 12.8095 15.2573C12.7124 15.4984 12.6313 15.7394 12.5504 15.9805L12.5019 16.1572C12.4857 16.2215 12.4857 16.2698 12.4695 16.3341C12.4695 16.3983 12.4534 16.4465 12.4534 16.5108L12.4534 16.7037C12.4534 17.2179 12.5343 17.7161 12.6152 18.2304C12.6638 18.4875 12.7123 18.7286 12.7771 18.9857L12.8741 19.3553L12.9874 19.7249C13.6186 21.6855 14.6705 23.5015 15.9976 25.0925C16.0461 25.1407 16.0462 25.2049 16.03 25.2692C15.8034 25.9763 15.8035 26.7638 15.9329 27.5191C16.0462 28.2744 16.2728 29.0298 16.5318 29.753C16.6613 30.1226 16.8068 30.4922 16.9525 30.8457C17.0982 31.2153 17.2438 31.5689 17.4056 31.9385C17.7131 32.6617 18.0368 33.3687 18.4252 34.0437C18.7974 34.7186 19.2507 35.3615 19.7686 35.9239L19.9627 36.1328L20.0599 36.2454L20.1732 36.3419C20.3188 36.4704 20.4644 36.599 20.61 36.7115L21.0794 37.0489C21.2413 37.1614 21.403 37.2418 21.5811 37.3543C22.2608 37.7239 22.973 38.0292 23.7337 38.222C24.1059 38.3506 24.4943 38.415 24.8665 38.5114C25.2549 38.5917 25.6433 38.6559 26.0155 38.7363C26.1126 38.7524 26.1774 38.8488 26.1612 38.9452C26.1612 38.9612 26.145 38.9774 26.145 38.9935C25.5785 39.9899 25.0931 41.0505 24.6723 42.1273C24.4619 42.6737 24.2838 43.2039 24.0896 43.7663C23.8954 44.3127 23.7012 44.8592 23.5231 45.4056C23.3451 45.952 23.1834 46.4983 23.0539 47.0608C22.9244 47.6233 22.8596 48.1857 22.8758 48.7482C22.892 49.3107 22.9891 49.8732 23.2319 50.3714C23.4746 50.8696 23.7983 51.3517 24.1705 51.7696C24.5589 52.1874 24.9798 52.573 25.433 52.9265C25.8861 53.264 26.3877 53.5855 26.8733 53.8748C27.8767 54.4533 28.9286 54.9354 29.9967 55.4336C32.1168 56.43 34.2369 57.3942 36.3894 58.262C38.5581 59.1298 40.743 59.9333 42.9926 60.544L43.834 60.7691L44.6919 60.9618L45.1126 61.0583C45.2583 61.0905 45.4039 61.1065 45.5334 61.1387L46.3912 61.2994C46.6825 61.3476 46.9738 61.3798 47.249 61.4119L47.686 61.4761L48.1228 61.5083C48.4141 61.5243 48.7055 61.5564 48.9968 61.5564L49.8708 61.5564C50.1621 61.5564 50.4371 61.5244 50.7122 61.4601C50.9874 61.3958 51.2625 61.3153 51.5214 61.2029C52.0555 60.9939 52.5572 60.7208 53.0589 60.4155C54.0461 59.8209 54.9849 59.1137 55.9074 58.4227C56.8299 57.7156 57.7524 56.9925 58.7396 56.3497C58.9823 56.189 59.2413 56.0442 59.5003 55.8996C59.7592 55.771 60.0181 55.6265 60.2932 55.514C60.5683 55.4015 60.8273 55.2729 61.1024 55.1604L61.507 54.9997L61.9279 54.855C63.0284 54.4532 64.1612 54.1479 65.2941 53.8426C65.8605 53.6819 66.4269 53.5372 66.9771 53.3605C67.5274 53.1998 68.0777 53.0069 68.6279 52.798C68.9031 52.7016 69.1621 52.573 69.421 52.4444L69.7932 52.2355C69.9227 52.1713 70.0359 52.091 70.1654 52.0106C70.6347 51.6892 71.0717 51.3195 71.4116 50.8695C71.7515 50.4196 71.9781 49.8892 72.1238 49.3428C72.2047 49.0696 72.237 48.7803 72.2693 48.5071C72.2855 48.3625 72.2856 48.218 72.2856 48.0734C72.2856 47.9287 72.3018 47.7841 72.2856 47.6394C72.2532 46.4984 72.0104 45.3573 71.7029 44.2485C71.3954 43.1396 70.9746 42.0629 70.4567 41.0343C69.4047 38.9773 67.9482 37.1293 66.2003 35.6187C65.3264 34.8634 64.3878 34.1724 63.3844 33.6099C62.381 33.0474 61.2966 32.5813 60.1961 32.2117C57.9789 31.4885 55.6646 31.1349 53.3341 30.9903C51.0036 30.8456 48.673 30.91 46.3426 31.0868C44.093 31.2636 41.7787 31.5529 39.4644 31.8421ZM39.4321 31.6331C41.7464 31.3438 44.0769 31.0547 46.4074 30.8779C48.7378 30.7011 51.0846 30.6368 53.4313 30.7654C55.7618 30.91 58.1083 31.2635 60.3417 31.9867C61.4584 32.3563 62.5428 32.8063 63.5624 33.3848C64.582 33.9634 65.5369 34.6544 66.427 35.4258C68.2072 36.9686 69.68 38.8327 70.7481 40.9058C71.2822 41.9504 71.703 43.0432 72.0104 44.1681C72.3341 45.293 72.5769 46.4501 72.6093 47.6233C72.6255 47.7679 72.6093 47.9127 72.6093 48.0734C72.5931 48.218 72.6092 48.3626 72.593 48.5233C72.5445 48.8126 72.5283 49.1178 72.4312 49.391C72.2855 49.9696 72.0427 50.532 71.6705 50.9981C71.3144 51.4802 70.8452 51.882 70.3596 52.2034C70.2302 52.2837 70.1169 52.3641 69.9874 52.4444L69.599 52.6535C69.3238 52.782 69.0649 52.9105 68.7898 53.0069C68.2395 53.2319 67.6893 53.4087 67.1229 53.5855C66.5564 53.7623 65.9899 53.9069 65.4397 54.0676C64.3068 54.373 63.1901 54.6944 62.1058 55.08L61.7012 55.2247L61.2966 55.3855C61.0215 55.4819 60.7625 55.6104 60.5035 55.7229C60.2446 55.8354 59.9857 55.9801 59.7267 56.1086C59.4678 56.2372 59.2251 56.3978 58.9823 56.5424C58.0113 57.1692 57.1049 57.8925 56.1663 58.5996C55.2438 59.3067 54.3051 60.0137 53.3017 60.6244C52.8 60.9297 52.2821 61.2029 51.7157 61.4279C51.4405 61.5404 51.1493 61.6369 50.8579 61.7011C50.5666 61.7654 50.2591 61.8136 49.9678 61.7975L49.0777 61.7975C48.7864 61.7975 48.495 61.7654 48.2037 61.7493L47.7669 61.7171L47.3299 61.653C47.0386 61.6208 46.7472 61.5726 46.4559 61.5404L45.582 61.3797C45.4364 61.3476 45.2907 61.3315 45.145 61.2994L44.708 61.2029L43.8503 61.0101L43.0087 60.7851C40.743 60.1744 38.5419 59.3708 36.3733 58.503C34.2046 57.6352 32.0684 56.6711 29.9645 55.6747C28.9125 55.1765 27.8444 54.6944 26.8086 54.1158C26.3069 53.8265 25.8052 53.5051 25.3197 53.1516C24.8503 52.798 24.3971 52.3962 24.0087 51.9623C23.6041 51.5123 23.2804 51.0143 23.0215 50.4839C22.7625 49.9375 22.6492 49.3268 22.633 48.7322C22.6168 48.1376 22.6978 47.543 22.8273 46.9644C22.9567 46.3859 23.1186 45.8234 23.2967 45.277C23.4747 44.7146 23.6851 44.1682 23.8631 43.6218C24.0411 43.0754 24.2353 42.513 24.4457 41.9666C24.8664 40.8738 25.352 39.813 25.9346 38.7845L26.0641 39.0417C25.6756 38.9613 25.2873 38.897 24.8827 38.8166C24.4942 38.7202 24.1058 38.6399 23.7174 38.5274C22.9405 38.3185 22.1961 38.0132 21.484 37.6275C21.306 37.5311 21.1279 37.4346 20.9661 37.3221L20.4806 36.9685C20.3187 36.84 20.1731 36.7114 20.0275 36.5668L19.9141 36.4704L19.8171 36.3579L19.6067 36.1328C19.0565 35.5382 18.6032 34.8794 18.2148 34.1884C17.8264 33.4973 17.4866 32.7742 17.1791 32.051C17.0173 31.6814 16.8715 31.3279 16.7259 30.9582C16.5802 30.5886 16.4346 30.2189 16.3051 29.8493C16.03 29.1101 15.8034 28.3387 15.6739 27.5513C15.5444 26.7638 15.5283 25.9281 15.7872 25.1407L15.8196 25.3174C14.4763 23.6943 13.3759 21.8462 12.7285 19.8374L12.6152 19.4517L12.518 19.0661C12.4371 18.8089 12.4048 18.5517 12.3401 18.2945C12.2591 17.7642 12.1782 17.25 12.1782 16.7197L12.1782 16.5268C12.1782 16.4625 12.1782 16.3822 12.1943 16.3019C12.2105 16.2376 12.2106 16.1573 12.2267 16.093L12.2753 15.9001C12.3562 15.643 12.4372 15.3858 12.5343 15.1448C12.7123 14.6627 12.9227 14.1806 13.0359 13.6984C13.0521 13.6342 13.0683 13.5699 13.0683 13.5217C13.0845 13.4574 13.0846 13.4091 13.1007 13.3449C13.1007 13.2806 13.1169 13.2324 13.1169 13.1681C13.1169 13.1039 13.1169 13.0556 13.1169 12.9913C13.1169 12.8627 13.1007 12.7181 13.1169 12.5895L13.1331 12.1877C13.1817 11.6574 13.2788 11.1271 13.4244 10.6129C13.6995 9.58435 14.1204 8.62015 14.5897 7.67199C15.0752 6.7399 15.6092 5.82382 16.1918 4.95601C16.7744 4.0882 17.3895 3.23649 18.0693 2.41689C18.0854 2.40082 18.1015 2.38472 18.1015 2.38472C18.5385 2.09545 18.9593 1.83836 19.4286 1.61337C19.8818 1.38838 20.3511 1.17943 20.8367 1.01873C21.0794 0.938375 21.3221 0.858053 21.5811 0.809842C21.84 0.74556 22.0991 0.729458 22.358 0.697317L23.8468 0.520604C23.9601 0.504533 24.0573 0.584823 24.0735 0.697317C24.0735 0.729458 24.0735 0.777701 24.0573 0.809842L22.8758 3.25259L22.2771 4.47389C22.0667 4.85958 21.8886 5.27742 21.7429 5.67918C21.4678 6.51485 21.306 7.38275 21.3546 8.26663C21.3869 8.70053 21.4516 9.13444 21.5649 9.55227C21.6782 9.97011 21.84 10.3879 22.0181 10.7736L21.6459 10.7414C21.9857 10.3236 22.277 9.85755 22.5845 9.40757C22.892 8.94153 23.2319 8.49155 23.5394 8.04158C24.1868 7.14163 24.8503 6.25778 25.6109 5.42211C26.3716 4.60252 27.2294 3.84727 28.1842 3.23659C28.427 3.07588 28.6698 2.94728 28.9125 2.80265C29.1877 2.65802 29.4627 2.5776 29.7378 2.49725C30.2881 2.33654 30.8221 2.22414 31.3724 2.11165C31.5018 2.09558 31.6152 2.1598 31.6314 2.28836C31.6476 2.33657 31.6313 2.38485 31.6151 2.43306L31.1944 3.30077C31.0487 3.59004 30.9031 3.86324 30.7898 4.18465C30.5632 4.77926 30.3205 5.40598 30.013 6.00059C29.8674 6.28986 29.7055 6.57919 29.5599 6.86846C29.4142 7.14166 29.2848 7.44706 29.1553 7.73633C29.0258 8.04167 28.9125 8.33088 28.7992 8.63622C28.6859 8.94156 28.5725 9.24693 28.4592 9.55227C28.0223 10.7736 27.6501 12.0111 27.2779 13.2485C26.9056 14.4859 26.5658 15.7394 26.2422 16.9929L26.2422 16.8965C26.3069 17.3144 26.3554 17.7001 26.3716 18.1018C26.3878 18.3107 26.3878 18.5036 26.404 18.7125L26.404 19.3231C26.3878 20.1266 26.323 20.9302 26.1774 21.7177C26.1126 22.1195 26.0156 22.5051 25.9185 22.9068C25.8699 23.0997 25.8051 23.2926 25.7404 23.4855L25.6595 23.7747L25.5461 24.0639C25.4652 24.2568 25.4006 24.4496 25.3197 24.6264L25.0606 25.1729C25.0121 25.2693 24.9797 25.3495 24.9312 25.4459L24.7856 25.7032L24.4781 26.2334L24.3971 25.896C24.5428 25.9764 24.6723 26.0727 24.8017 26.1691C24.8665 26.2173 24.9311 26.2656 24.9797 26.3138C25.0444 26.362 25.0931 26.4102 25.1578 26.4745C25.174 26.5066 25.2063 26.5227 25.2063 26.5549C25.5462 27.5512 25.8537 28.5316 26.1289 29.5601C26.2583 30.0743 26.3716 30.5886 26.4201 31.119C26.4687 31.6493 26.4849 32.1635 26.5011 32.6938C26.5172 33.7384 26.4363 34.783 26.3877 35.8276C26.323 36.8722 26.2583 37.9007 26.2583 38.9292L25.9185 38.8328C26.6306 37.7239 27.4882 36.6953 28.4916 35.8114C29.4789 34.9275 30.6118 34.2044 31.8094 33.6419C33.007 33.0634 34.2694 32.6456 35.548 32.3403C36.8265 32.0028 38.1212 31.7938 39.4321 31.6331Z" fill="#07453A"/>
<path d="M24.1544 26.0896C23.9602 26.0575 23.7984 25.9932 23.6204 25.9289C23.4424 25.8646 23.2805 25.7844 23.1349 25.704C22.8112 25.5433 22.4875 25.3665 22.1638 25.2219C21.5165 24.9166 20.8529 24.6594 20.1569 24.4987C19.4772 24.338 18.7652 24.2898 18.0693 24.4184L17.8103 24.4665C17.7294 24.4826 17.6323 24.4987 17.5514 24.5309L17.2924 24.6112C17.2114 24.6434 17.1144 24.6595 17.0335 24.6916C16.8716 24.7559 16.7098 24.8201 16.548 24.9005L16.0786 25.1576C16.03 25.1897 15.9653 25.1576 15.9491 25.1094C15.9329 25.0612 15.933 25.013 15.9815 24.9808C16.5803 24.563 17.2762 24.2255 18.0045 24.0648C18.749 23.9041 19.5259 23.9201 20.2541 24.0648C20.9986 24.2255 21.6945 24.4826 22.3581 24.788C22.6979 24.9487 23.0215 25.1094 23.3452 25.2701C23.6689 25.4469 23.9764 25.6397 24.2353 25.9129C24.2677 25.9611 24.2677 26.0255 24.2353 26.0576C24.2192 26.0897 24.1868 26.1057 24.1544 26.0896Z" fill="#07453A"/>
<path d="M26.3066 31.5528C26.5494 31.5206 26.7437 31.5851 26.9379 31.6815C27.1321 31.7618 27.3101 31.8581 27.5043 31.9545C27.8765 32.1474 28.2326 32.3564 28.5887 32.5653C28.9447 32.7903 29.2846 33.0314 29.6082 33.2885C29.9319 33.5456 30.2393 33.8349 30.5145 34.1402C30.5468 34.1884 30.5469 34.2526 30.4984 34.2848C30.466 34.3169 30.4013 34.3169 30.3689 34.2848C30.0452 34.0276 29.7215 33.7866 29.3816 33.5616C29.0417 33.3366 28.702 33.1278 28.3459 32.9349C27.9899 32.726 27.6338 32.5492 27.2616 32.3725C27.0835 32.276 26.8893 32.1956 26.7112 32.1153C26.5332 32.0349 26.3553 31.9224 26.2096 31.7457C26.1772 31.6974 26.1772 31.6171 26.2257 31.585C26.2743 31.5689 26.2905 31.5528 26.3066 31.5528Z" fill="#07453A"/>
<path d="M66.5564 35.7636C66.3136 35.1208 66.2004 34.4459 66.1518 33.771C66.1194 33.096 66.1518 32.4049 66.2327 31.73C66.3298 31.055 66.4594 30.396 66.6212 29.7372C66.783 29.0783 66.9771 28.4355 67.2199 27.7927C67.2361 27.7605 67.2523 27.7283 67.2847 27.6962C67.7055 27.3587 68.1263 27.0373 68.6118 26.7641C68.7251 26.6998 68.8706 26.6356 69.0001 26.5874C69.1296 26.5392 69.2591 26.491 69.3886 26.4589C69.6475 26.3785 69.9227 26.3303 70.1817 26.266C70.4406 26.2178 70.7156 26.1696 70.9746 26.1374L71.7677 26.0088C72.3017 25.9284 72.8357 25.8641 73.3698 25.848C73.9039 25.832 74.4542 25.8481 75.0045 25.9606C75.2796 26.0249 75.5546 26.1052 75.7974 26.2498C76.0563 26.3784 76.2829 26.5712 76.4771 26.8123C76.5742 26.9248 76.639 27.0534 76.7038 27.198C76.7685 27.3266 76.8008 27.4552 76.8493 27.5998L76.9141 27.7927L76.9465 27.889L76.9626 27.9856L77.0436 28.3873C77.1083 28.9337 77.1245 29.4801 77.0436 30.0104L77.0274 30.2033C77.0113 30.2675 76.995 30.3319 76.995 30.3961L76.9141 30.7979C76.8818 30.9265 76.8495 31.0549 76.8171 31.1835C76.7847 31.3121 76.7523 31.4407 76.7038 31.5693L76.5743 31.9549C76.5258 32.0834 76.4772 32.196 76.4286 32.3246C76.3315 32.5817 76.2182 32.8227 76.1211 33.0638C75.6841 34.028 75.1501 34.944 74.5675 35.844C73.9848 36.7278 73.4184 37.6117 72.7872 38.4634C72.156 39.3152 71.4278 40.1027 70.6024 40.7777C70.5538 40.8098 70.489 40.8099 70.4567 40.7616C70.4243 40.7134 70.4244 40.6491 70.473 40.6169C71.2821 39.942 71.9619 39.1545 72.5769 38.3027C73.1919 37.451 73.7421 36.5511 74.3086 35.6672C74.8588 34.7834 75.3766 33.8673 75.7974 32.9191C75.8945 32.678 76.0079 32.437 76.0888 32.1959C76.1374 32.0674 76.1859 31.9549 76.2183 31.8263L76.3316 31.4567C76.3801 31.3282 76.4124 31.2157 76.4286 31.0871C76.461 30.9586 76.4933 30.8461 76.5257 30.7176L76.5904 30.3318C76.6066 30.2675 76.6228 30.2032 76.6228 30.1389L76.639 29.946C76.7037 29.4318 76.6876 28.9337 76.6228 28.4355L76.5581 28.0659L76.5419 27.9694L76.5095 27.873L76.4447 27.6962C76.38 27.4551 76.283 27.2462 76.1373 27.0533C75.846 26.6837 75.3928 26.4749 74.9073 26.3785C74.4217 26.266 73.9039 26.2498 73.3861 26.282C72.3503 26.3302 71.3145 26.5231 70.2787 26.6999C70.0198 26.7481 69.7771 26.8123 69.5343 26.8766C69.4048 26.9088 69.2915 26.957 69.1782 26.9892C69.0649 27.0374 68.9678 27.0856 68.8546 27.1499C68.4176 27.3909 67.9968 27.7123 67.5922 28.0337L67.6569 27.9372C67.4303 28.5479 67.2361 29.1908 67.0904 29.8175C66.9286 30.4603 66.7992 31.1032 66.7182 31.7621C66.6373 32.421 66.5887 33.0637 66.5725 33.7226C66.5725 34.3815 66.6374 35.0244 66.7506 35.6833C66.7668 35.7315 66.7183 35.7958 66.6697 35.7958C66.6212 35.844 66.5726 35.8118 66.5564 35.7636Z" fill="#07453A"/>
<path d="M68.3038 27.1332C68.0773 26.8118 67.8183 26.4905 67.6241 26.1369C67.527 25.9602 67.4138 25.7994 67.3167 25.6226C67.2196 25.4459 67.1386 25.2691 67.0415 25.0923C66.7017 24.3692 66.378 23.6299 66.1353 22.8585C65.8925 22.0871 65.682 21.3157 65.5202 20.5283C65.3583 19.7408 65.229 18.9534 65.1643 18.1498C65.1643 18.1338 65.1643 18.1337 65.1643 18.1177C65.3099 16.6553 65.3908 15.1929 65.3746 13.7304C65.3584 13.0073 65.326 12.268 65.2289 11.5609C65.1318 10.8538 64.889 10.1788 64.5491 9.53594C63.8856 8.2503 62.9146 7.14146 61.9436 6.0326C61.7008 5.7594 61.4581 5.47016 61.2153 5.18089C61.102 5.03625 60.9887 4.89159 60.8592 4.74695L60.4709 4.36135L58.901 2.81849C58.8201 2.73814 58.8201 2.5935 58.901 2.49708C58.9334 2.46494 58.9819 2.43289 59.0305 2.43289C59.4027 2.38468 59.7588 2.33634 60.1472 2.3042C60.1634 2.3042 60.212 2.3042 60.2281 2.3042L60.2928 2.3042L60.4385 2.3042C60.5356 2.32027 60.6327 2.3203 60.7298 2.33637C60.924 2.35244 61.1182 2.38468 61.2962 2.43289C62.0569 2.59359 62.7528 2.88286 63.4325 3.23642C64.7596 3.94352 65.9734 4.84341 67.0415 5.90406C67.5756 6.43439 68.0612 7.0129 68.482 7.63965C68.9027 8.2664 69.2587 8.94139 69.4691 9.68064C69.5662 10.0503 69.6471 10.4038 69.7119 10.7734C69.7766 11.143 69.8413 11.4965 69.8898 11.8662C69.9869 12.6054 70.0841 13.3286 70.1489 14.0679L70.0356 13.9072C70.7153 14.1964 71.4436 14.4215 72.1719 14.5661C72.9002 14.7108 73.6447 14.8071 74.3891 14.7589C75.1336 14.7267 75.8456 14.55 76.4768 14.1804C77.1727 13.7947 77.9333 13.65 78.5807 13.3125L78.5645 13.3125C78.6455 13.2643 78.694 13.2484 78.7749 13.2001L78.791 13.2001C78.791 13.2001 78.8072 13.2001 78.8234 13.184C78.8234 13.184 78.8235 13.184 78.8882 13.184C78.9206 13.184 78.9853 13.2322 78.9853 13.2162L79.0177 13.2483C79.0338 13.2644 79.05 13.2804 79.0662 13.2965C79.0986 13.3287 79.1147 13.3769 79.1471 13.409C79.228 13.5697 79.2766 13.7143 79.3089 13.859C79.3737 14.1643 79.4061 14.4535 79.4223 14.7589C79.4546 15.3535 79.4223 15.9482 79.3737 16.5428C79.3576 16.8321 79.309 17.1374 79.2604 17.4267C79.2119 17.7159 79.1633 18.0051 79.1147 18.2944C79.0014 18.8729 78.8882 19.4516 78.7264 20.0301C78.5807 20.6087 78.4189 21.1711 78.2409 21.7335C78.0628 22.296 77.8524 22.8425 77.642 23.4049C77.2051 24.4977 76.7034 25.5745 76.1693 26.619C76.137 26.6673 76.0883 26.6833 76.0398 26.6672C75.9912 26.6351 75.975 26.5869 75.9912 26.5387C76.5253 25.4941 77.0109 24.4334 77.4317 23.3406C77.6421 22.7942 77.8362 22.2478 78.0142 21.6854C78.1923 21.1229 78.3542 20.5604 78.4836 19.998C78.6293 19.4355 78.7426 18.8569 78.8397 18.2784C78.8883 17.9891 78.9367 17.6998 78.9853 17.4105C79.0338 17.1212 79.0663 16.8321 79.0825 16.5428C79.131 15.9642 79.1471 15.3857 79.1147 14.8072C79.0985 14.5179 79.0663 14.2285 79.0015 13.9553C78.9692 13.8268 78.9205 13.6822 78.8719 13.5857C78.8558 13.5536 78.8396 13.5376 78.8234 13.5216C78.8234 13.5055 78.8073 13.5055 78.8073 13.4894L78.791 13.4732C78.7748 13.4572 78.8396 13.5215 78.8719 13.5054C78.9205 13.5054 78.9206 13.5054 78.9206 13.5054L78.9367 13.5054C78.8882 13.5215 78.8235 13.5698 78.7588 13.6019L78.7425 13.6019C78.0466 13.9555 77.286 14.1161 76.6549 14.4696C75.9751 14.8714 75.1821 15.0642 74.4052 15.1124C73.6284 15.1607 72.8516 15.0803 72.091 14.9196C71.3303 14.7589 70.602 14.5501 69.8737 14.2447C69.809 14.2126 69.7604 14.1643 69.7604 14.1C69.6795 13.3769 69.5985 12.6377 69.4852 11.9145C69.4367 11.5449 69.372 11.1913 69.3073 10.8377C69.2425 10.4842 69.1616 10.1306 69.0645 9.777C69.0483 9.69665 69.016 9.60029 68.9836 9.51993L68.9351 9.3914L68.8866 9.26287C68.8218 9.10216 68.757 8.92539 68.6599 8.78075L68.5305 8.53969C68.4819 8.45934 68.4334 8.37892 68.401 8.31464L68.2553 8.08959L68.1096 7.8647C67.705 7.27009 67.2357 6.70765 66.7178 6.20947C66.2 5.69521 65.6497 5.22904 65.0671 4.79513C64.4844 4.36123 63.8695 3.97566 63.2222 3.63818C62.5748 3.3007 61.9113 3.02747 61.1992 2.88283C61.0212 2.85069 60.843 2.81855 60.665 2.80248C60.5841 2.78641 60.487 2.78632 60.4061 2.78632L60.2767 2.78632L60.2119 2.78632C60.1957 2.78632 60.1795 2.78632 60.1633 2.78632C59.8073 2.81846 59.435 2.86679 59.079 2.91501L59.2084 2.52925L60.7946 4.10413L61.1992 4.50589C61.3286 4.63446 61.4418 4.79526 61.5551 4.92382C61.7979 5.21309 62.0245 5.48617 62.2673 5.75936C63.2383 6.86823 64.2417 7.99323 64.9376 9.35923C65.2775 10.0342 65.5526 10.7574 65.6659 11.5127C65.7792 12.2681 65.8115 13.0072 65.8277 13.7465C65.8439 15.241 65.763 16.7195 65.6174 18.198L65.6174 18.1498C65.6821 18.9212 65.8116 19.7087 65.9734 20.4801C66.1353 21.2515 66.3133 22.0229 66.5399 22.7621C66.7503 23.5174 67.0253 24.2566 67.3328 24.9798C67.6403 25.703 68.0125 26.394 68.4333 27.069C68.4657 27.1172 68.4496 27.1814 68.401 27.2135C68.401 27.1814 68.3362 27.1814 68.3038 27.1332Z" fill="#07453A"/>
<path d="M21.8398 10.9503C21.5161 11.1753 21.16 11.3038 20.8039 11.4163C20.4479 11.5127 20.0756 11.6091 19.7196 11.6895C18.9913 11.8663 18.263 12.0109 17.5348 12.1716C16.8065 12.3323 16.0944 12.493 15.3823 12.7019C14.6702 12.9108 13.9905 13.1518 13.3108 13.4732C13.2623 13.4893 13.1976 13.4733 13.1814 13.4251C13.1652 13.3769 13.1813 13.3287 13.2299 13.2965C13.8772 12.9269 14.5732 12.6215 15.2853 12.3805C15.9974 12.1394 16.7256 11.9306 17.4377 11.7538L19.6064 11.2395C19.9625 11.1592 20.3185 11.0627 20.6745 10.9663C20.8525 10.9181 21.0305 10.8699 21.2085 10.8378C21.3866 10.8056 21.5808 10.7734 21.775 10.7734C21.8397 10.7734 21.8722 10.8217 21.8722 10.886C21.8884 10.902 21.8721 10.9342 21.8398 10.9503Z" fill="#07453A"/>
<path d="M78.7265 13.2318C78.7103 12.6372 78.7265 12.0587 78.6941 11.4802C78.6941 11.3356 78.678 11.1909 78.678 11.0463C78.6618 10.9016 78.6618 10.757 78.6456 10.6123C78.6132 10.323 78.597 10.0339 78.5647 9.74461C78.4999 9.16607 78.4028 8.5875 78.2895 8.02503C78.1762 7.46256 78.0305 6.88402 77.8525 6.33762L77.8849 6.40181L74.6966 2.22347L75.0851 2.15928C74.7614 3.17173 74.5025 4.23229 74.4054 5.27687C74.3892 5.534 74.3731 5.80726 74.3892 6.06439C74.3892 6.19295 74.4053 6.32158 74.4215 6.45015L74.4539 6.86792C74.4863 7.41431 74.4863 7.97675 74.3892 8.52315C74.3083 9.06955 74.1626 9.61595 73.9684 10.1302C73.7903 10.6445 73.5638 11.1427 73.3534 11.6409C72.9164 12.6373 72.4795 13.6176 72.1396 14.6461C72.1234 14.6943 72.0587 14.7264 72.0102 14.7103C71.9616 14.6942 71.9292 14.6461 71.9454 14.5818C72.2529 13.5372 72.6737 12.5247 73.0945 11.5284C73.3049 11.0302 73.4991 10.5319 73.661 10.0177C73.8228 9.50342 73.9522 8.98929 74.0332 8.45896C74.1141 7.92863 74.1141 7.39824 74.0817 6.86792L74.0493 6.46615C74.0331 6.33759 74.0169 6.19302 74.0169 6.04838C74.0007 5.77518 74.0008 5.48588 74.0332 5.21268C74.0655 4.66628 74.1626 4.11986 74.2759 3.57346C74.3892 3.02706 74.5186 2.51274 74.6966 1.98241C74.729 1.86992 74.8585 1.80573 74.9718 1.83787C75.0204 1.85394 75.0528 1.88608 75.0851 1.91822L78.2895 6.09656C78.3057 6.11263 78.3219 6.14468 78.3219 6.16075C78.4999 6.73929 78.6456 7.31795 78.775 7.89649C78.9045 8.47503 78.9854 9.06964 79.0663 9.66425C79.1472 10.2589 79.1797 10.8534 79.1635 11.448L79.1472 11.898C79.1311 12.0426 79.1149 12.2033 79.0987 12.3479C79.0664 12.6532 79.0016 12.9425 78.953 13.2318C78.9368 13.28 78.8884 13.3282 78.8398 13.3121C78.7589 13.3282 78.7265 13.28 78.7265 13.2318Z" fill="#07453A"/>
<path d="M66.443 30.8945C66.3136 30.9588 66.2002 30.9748 66.0869 30.9909C65.9737 31.007 65.8443 31.0231 65.731 31.0231L65.3749 31.0392L65.0189 31.0713C64.5495 31.1195 64.0803 31.1998 63.6271 31.3123C63.174 31.4248 62.7207 31.5695 62.2676 31.7462C61.8306 31.923 61.3937 32.1159 60.9567 32.3409C60.9082 32.373 60.8433 32.3409 60.8271 32.2927C60.811 32.2445 60.8272 32.1963 60.8595 32.1642C61.2641 31.891 61.6849 31.6498 62.1219 31.4248C62.5588 31.2159 63.0282 31.0231 63.4975 30.8945C63.9668 30.766 64.4685 30.6535 64.9541 30.6053L65.3264 30.5731L65.6986 30.5571C65.9414 30.5571 66.2003 30.5893 66.4269 30.7178C66.4755 30.75 66.5078 30.8142 66.4754 30.8624C66.4754 30.8624 66.4592 30.8785 66.443 30.8945Z" fill="#07453A"/>
<path d="M70.8937 41.3557C71.1203 41.0504 71.3792 40.7773 71.6705 40.5202C71.9457 40.2791 72.2371 40.0381 72.5284 39.797C72.5931 39.7488 72.674 39.7326 72.7388 39.7487C73.5156 39.9737 74.26 40.247 74.9721 40.6487C75.3282 40.8576 75.668 41.0825 75.9432 41.4361C76.0726 41.6129 76.1859 41.8218 76.2344 42.0629C76.2506 42.1754 76.2506 42.304 76.2344 42.4165C76.2183 42.529 76.1697 42.6576 76.1211 42.7379C75.9593 43.1236 75.7166 43.461 75.4252 43.7503C75.1339 44.0396 74.8103 44.2806 74.4542 44.4735C73.7421 44.8592 72.9976 45.1163 72.237 45.3252C72.1884 45.3413 72.1237 45.3092 72.1075 45.261C72.0913 45.2128 72.1238 45.1645 72.1723 45.1323C72.9006 44.8591 73.6451 44.586 74.2762 44.1843C74.5999 43.9753 74.9073 43.7503 75.1501 43.4771C75.409 43.2039 75.6033 42.8985 75.7328 42.561C75.7652 42.4807 75.7974 42.4004 75.7974 42.3361C75.8136 42.2558 75.8136 42.1914 75.7974 42.1111C75.7651 41.9665 75.6842 41.8219 75.5871 41.6933C75.3767 41.4201 75.053 41.2111 74.7294 41.0343C74.0658 40.6808 73.3376 40.4077 72.6093 40.1988L72.8197 40.1504C72.5284 40.3915 72.2533 40.6326 71.962 40.8736C71.6707 41.0986 71.3631 41.3237 71.007 41.4844C70.9585 41.5166 70.8937 41.4843 70.8613 41.4361C70.8613 41.42 70.8775 41.3879 70.8937 41.3557Z" fill="#07453A"/>
<path d="M74.1627 40.279C74.5026 39.3951 75.0528 38.6236 75.5545 37.8201C75.8134 37.4183 76.0886 37.0487 76.3637 36.647L77.1729 35.4899C77.2052 35.4256 77.27 35.3935 77.3347 35.3935C77.5289 35.3774 77.707 35.3613 77.9012 35.3613C77.9983 35.3613 78.0954 35.3614 78.2087 35.3775C78.3058 35.3936 78.403 35.4096 78.4839 35.4257C78.6781 35.4739 78.8723 35.5061 79.0827 35.6186C79.1798 35.6828 79.2768 35.7632 79.3577 35.8596C79.4225 35.9721 79.4711 36.0845 79.4873 36.197C79.5197 36.422 79.5034 36.6148 79.471 36.8077C79.4549 36.9041 79.4226 37.0005 79.4064 37.0969C79.3902 37.1933 79.3578 37.2898 79.3255 37.3701C79.2122 37.7398 79.0502 38.0772 78.8722 38.4147C78.5 39.0736 78.0307 39.6522 77.5128 40.1825C76.995 40.7128 76.4446 41.211 75.8782 41.677C75.8296 41.7091 75.765 41.7092 75.7326 41.661C75.7002 41.6289 75.7002 41.5645 75.7326 41.5163C76.2667 41.002 76.7846 40.504 77.2701 39.9576C77.7556 39.4112 78.1925 38.8487 78.5324 38.2058C78.6942 37.8844 78.84 37.5631 78.9209 37.2256C78.9532 37.1452 78.9693 37.0487 78.9855 36.9684C79.0017 36.888 79.0179 36.7917 79.034 36.7113C79.0664 36.5506 79.0665 36.3738 79.0503 36.2292C79.0341 36.1649 79.0179 36.1005 78.9855 36.0523C78.9531 36.0041 78.9046 35.9721 78.8561 35.94C78.7428 35.8757 78.5648 35.8274 78.403 35.7953C78.322 35.7792 78.2248 35.7632 78.1439 35.7471C78.0792 35.7471 77.9983 35.731 77.9012 35.7471C77.7231 35.7471 77.5451 35.7632 77.3671 35.7793L77.529 35.6827L76.736 36.8398C76.4771 37.2255 76.2019 37.6112 75.943 38.013C75.4413 38.8004 74.9719 39.6201 74.3246 40.3272C74.2922 40.3754 74.2274 40.3754 74.1788 40.3272C74.1627 40.3754 74.1465 40.3272 74.1627 40.279Z" fill="#07453A"/>
<path d="M78.4028 35.5219C78.419 34.7826 78.5161 34.0434 78.6617 33.3202C78.8074 32.597 79.0016 31.8739 79.212 31.1668C79.4224 30.4597 79.6651 29.7525 79.924 29.0615L80.6038 26.9723C80.62 26.908 80.6686 26.8599 80.7171 26.8438C81.0084 26.7152 81.2835 26.6188 81.5748 26.5546C81.8661 26.4903 82.1737 26.4421 82.4973 26.4582C82.8048 26.4743 83.1609 26.5546 83.4199 26.7796C83.695 27.0046 83.8405 27.3259 83.8891 27.6473C83.9538 27.9527 83.9377 28.258 83.9054 28.5634C83.873 28.8526 83.8406 29.1419 83.7921 29.4151C83.7111 29.9776 83.5817 30.54 83.4199 31.1025C83.2742 31.665 83.08 32.2114 82.8534 32.7417C82.6268 33.272 82.3516 33.7863 82.0279 34.2684C81.7043 34.7505 81.3321 35.2005 80.9113 35.6022C80.4906 36.004 80.005 36.3416 79.5033 36.6308C79.4548 36.663 79.39 36.6469 79.3576 36.5987C79.3252 36.5504 79.3414 36.4862 79.39 36.4701C79.8755 36.1648 80.3125 35.8273 80.7171 35.4255C81.1055 35.0238 81.4616 34.5898 81.7529 34.1077C82.3356 33.1596 82.7563 32.0989 83.0314 31.0061C83.177 30.4597 83.2903 29.9134 83.3551 29.3509C83.4036 29.0777 83.4199 28.7884 83.4523 28.5152C83.4846 28.242 83.4684 27.9687 83.4199 27.7277C83.3713 27.4705 83.2579 27.2617 83.0799 27.117C82.9019 26.9724 82.6754 26.908 82.4164 26.892C81.8985 26.8759 81.3483 27.0366 80.8628 27.2456L80.976 27.101L80.2964 29.2062C80.0536 29.8972 79.8108 30.5883 79.6166 31.2954C79.4062 31.9864 79.2443 32.7096 79.0663 33.4167C78.9045 34.1238 78.7426 34.847 78.5484 35.5541C78.5322 35.6023 78.4837 35.6345 78.419 35.6184C78.4351 35.6023 78.4028 35.554 78.4028 35.5219Z" fill="#07453A"/>
<path d="M83.3713 27.15C83.2095 26.3625 83.1285 25.5751 83.0638 24.7876C82.999 24.0001 82.9181 23.1966 82.821 22.4092C82.7239 21.6217 82.6268 20.8342 82.4649 20.0468C82.3193 19.2593 82.2061 18.4718 81.9957 17.7326L82.4164 17.7326C82.1575 18.4718 81.9146 19.2433 81.7042 19.9986C81.4939 20.77 81.2997 21.5252 81.1541 22.3127C81.0084 23.0841 80.8789 23.8716 80.8141 24.6591C80.7818 25.0448 80.7818 25.4465 80.798 25.8322C80.8142 26.2179 80.8627 26.6197 80.976 26.9893C80.9921 27.0375 80.9599 27.1018 80.9113 27.1178C80.8628 27.1339 80.7981 27.1017 80.7819 27.0535C80.5229 26.266 80.5068 25.4464 80.5391 24.6429C80.5715 23.8394 80.6685 23.0359 80.8141 22.2485C80.9598 21.461 81.1378 20.6735 81.332 19.9021C81.5263 19.1307 81.7529 18.3594 82.0118 17.588C82.0442 17.4755 82.1737 17.4112 82.287 17.4433C82.3517 17.4594 82.4163 17.5237 82.4325 17.588C82.6753 18.3916 82.7725 19.179 82.9343 19.9504C83.08 20.7379 83.1932 21.5253 83.3065 22.3288C83.4036 23.1163 83.5007 23.9198 83.5654 24.7072C83.6301 25.5108 83.6787 26.3143 83.5978 27.1178C83.5978 27.166 83.5492 27.2142 83.4845 27.2142C83.4197 27.2142 83.3875 27.1821 83.3713 27.15Z" fill="#07453A"/>
<path d="M72.4796 47.5269C72.6091 47.3984 72.7385 47.3181 72.8842 47.2377C73.0298 47.1574 73.1755 47.1091 73.3212 47.0448C73.6287 46.9484 73.9201 46.8681 74.2276 46.7878C74.3247 46.7556 74.4379 46.8037 74.4864 46.9001C74.8263 47.4626 75.1339 48.0251 75.3604 48.6519C75.4737 48.9572 75.5708 49.2786 75.5708 49.6643C75.5546 49.825 75.5546 49.9857 75.5223 50.1464C75.4899 50.3232 75.4575 50.4999 75.3604 50.6767C75.3119 50.7571 75.2309 50.8535 75.1662 50.9018C75.1015 50.966 75.0368 51.0142 74.9558 51.0625C74.8911 51.1107 74.8101 51.1589 74.7292 51.2072L74.6159 51.2713L74.5026 51.3195C74.1789 51.4481 73.8553 51.5124 73.5154 51.5446C72.8519 51.5767 72.2045 51.4803 71.5734 51.3357C71.5248 51.3196 71.4924 51.2714 71.4924 51.2072C71.5086 51.1589 71.5572 51.1268 71.6058 51.1268C72.2369 51.2232 72.8681 51.2875 73.4669 51.2072C73.7744 51.175 74.0656 51.0946 74.3407 50.9821L74.4379 50.9339L74.535 50.8857C74.5997 50.8536 74.6645 50.8053 74.7131 50.7571C74.7778 50.7249 74.8264 50.6607 74.8749 50.6125C74.9397 50.5643 74.9557 50.5321 74.9881 50.4678C75.1014 50.2589 75.1015 49.9375 75.1177 49.6321C75.1177 49.375 75.0367 49.0858 74.9234 48.7966C74.6969 48.2341 74.4055 47.6715 74.0819 47.1412L74.3407 47.2537C74.0494 47.318 73.7581 47.4144 73.4506 47.4948C73.1593 47.5751 72.868 47.6394 72.5605 47.6876C72.4958 47.7037 72.4473 47.6555 72.4473 47.6073C72.4473 47.5912 72.4634 47.5591 72.4796 47.5269Z" fill="#07453A"/>
<path d="M75.2958 48.5073C75.8461 48.218 76.4287 47.977 76.9951 47.7359C77.5616 47.4949 78.1441 47.2699 78.7106 47.0128L79.5684 46.6272C79.8598 46.4986 80.151 46.386 80.4423 46.2574C81.0249 46.0164 81.6076 45.7915 82.174 45.5504C82.2711 45.5183 82.3844 45.5504 82.4492 45.6308C82.5786 45.8236 82.692 46.0164 82.8052 46.2092C82.87 46.3057 82.9185 46.4021 82.9671 46.5146C82.9994 46.5628 83.0318 46.6271 83.048 46.7235L83.0802 46.9002C83.145 47.3663 83.1613 47.8485 83.0156 48.3146C82.9509 48.5556 82.8375 48.7805 82.6756 48.9734C82.53 49.1662 82.3197 49.343 82.1255 49.4555C81.7371 49.7126 81.3001 49.8893 80.8632 50.034C80.4262 50.1786 79.9568 50.2591 79.5036 50.2912C79.0505 50.3394 78.5973 50.3394 78.1441 50.3394C77.2378 50.3233 76.3478 50.243 75.4415 50.2109C75.393 50.2109 75.3443 50.1625 75.3443 50.1143C75.3443 50.0661 75.393 50.018 75.4415 50.018C76.3478 50.0019 77.2378 50.0662 78.1441 50.0501C78.5973 50.0501 79.0343 50.018 79.4712 49.9698C79.9082 49.9216 80.3452 49.8412 80.7498 49.6966C81.1544 49.5519 81.5591 49.3912 81.9151 49.1341C82.2712 48.9091 82.5139 48.5877 82.611 48.202C82.7243 47.8163 82.692 47.3824 82.6434 46.9646L82.611 46.8039C82.611 46.7878 82.5948 46.7557 82.5625 46.7075C82.5139 46.6111 82.4653 46.5307 82.4168 46.4343C82.3035 46.2414 82.1902 46.0647 82.0607 45.8718L82.3358 45.9522C81.7532 46.1772 81.1867 46.4181 80.6041 46.6592C80.3128 46.7877 80.0377 46.9004 79.7464 47.0289L78.9048 47.4145C77.7557 47.9288 76.6068 48.443 75.3606 48.668C75.3121 48.6841 75.2473 48.6358 75.2473 48.5876C75.2311 48.5716 75.2473 48.5234 75.2958 48.5073Z" fill="#07453A"/>
<path d="M82.8215 46.4017C83.3394 45.4856 83.9382 44.6178 84.5694 43.766C85.2005 42.9304 85.8642 42.1109 86.5277 41.2913C87.1913 40.4717 87.8548 39.652 88.5507 38.8485L89.0685 38.2539L89.6027 37.6754C89.9587 37.2897 90.3147 36.904 90.7031 36.5183C90.7841 36.4379 90.9296 36.4379 91.0105 36.5183C91.0591 36.5665 91.0753 36.6469 91.0753 36.7112C90.9782 37.3379 90.8811 37.9647 90.7517 38.5914C90.6869 38.8968 90.6222 39.2182 90.5413 39.5235C90.5089 39.6842 90.4604 39.8287 90.4119 39.9895C90.3633 40.1502 90.2985 40.3109 90.2338 40.4556C89.7159 41.6287 89.0847 42.7537 88.3241 43.7822C87.9518 44.2965 87.5472 44.7946 87.1103 45.2767C86.6733 45.7428 86.2201 46.2089 85.7508 46.6267C84.7959 47.4945 83.7601 48.2336 82.6758 48.9086C82.6273 48.9408 82.5626 48.9248 82.5303 48.8766C82.4979 48.8284 82.5141 48.764 82.5627 48.7319C83.6308 48.0409 84.6342 47.2695 85.5567 46.4017C86.4792 45.5339 87.3045 44.5857 88.0328 43.5571C88.7611 42.5286 89.376 41.4359 89.8616 40.2788C89.9263 40.1342 89.9748 40.0056 90.0234 39.8449C90.0719 39.7003 90.1043 39.5557 90.1367 39.395C90.2176 39.0896 90.2662 38.7843 90.3309 38.4789C90.4442 37.8682 90.5574 37.2414 90.6383 36.6146L91.0105 36.8075C90.6383 37.1771 90.2823 37.5629 89.9425 37.9486L89.4084 38.5271L88.8905 39.1217C88.2108 39.9253 87.5473 40.7287 86.8999 41.5483C86.2364 42.3679 85.589 43.1876 84.9578 44.0233C84.3105 44.8589 83.6793 45.6785 82.9834 46.482C82.951 46.5302 82.8862 46.5302 82.8377 46.498C82.8053 46.498 82.8054 46.4338 82.8215 46.4017Z" fill="#07453A"/>
<path d="M66.7179 53.4411C67.0092 53.409 67.3005 53.4091 67.5756 53.4251C67.867 53.4412 68.1421 53.4572 68.4334 53.4893C68.9998 53.5536 69.5662 53.634 70.1327 53.7144C70.1812 53.7144 70.2299 53.7466 70.2623 53.7787C70.7316 54.2769 71.1362 54.7912 71.4761 55.3858C71.6379 55.675 71.7997 55.9803 71.8968 56.3338C71.9454 56.5106 71.9777 56.6873 71.9777 56.8641C71.9777 56.9123 71.9777 56.9606 71.9777 57.0088C71.9777 57.057 71.9778 57.1053 71.9616 57.1535C71.9616 57.2017 71.9454 57.2498 71.9292 57.2981L71.9129 57.3624C71.9129 57.3785 71.8806 57.4266 71.8644 57.4588C71.7835 57.5873 71.6863 57.6516 71.5892 57.6998C71.4921 57.748 71.4113 57.7802 71.3304 57.8123C71.1523 57.8606 70.9905 57.8927 70.8448 57.9409L70.7963 57.957L70.7478 57.973L70.6182 58.0052C70.5373 58.0213 70.4564 58.0533 70.3754 58.0694C70.2136 58.1015 70.0356 58.1337 69.8738 58.1498C69.1941 58.214 68.5305 58.182 67.8669 58.0856C66.556 57.8927 65.2776 57.5392 64.0314 57.1535C62.7853 56.7678 61.5391 56.3339 60.2767 56.0446C60.2282 56.0285 60.1958 55.9803 60.1958 55.9321C60.212 55.8839 60.2606 55.8517 60.3091 55.8517C60.9565 55.9642 61.6037 56.1249 62.2349 56.3017L64.1285 56.8321C65.3908 57.1857 66.6532 57.523 67.9317 57.6676C68.5629 57.748 69.2102 57.7641 69.8414 57.6998C70.0032 57.6837 70.149 57.6516 70.3108 57.6195C70.3917 57.6034 70.4564 57.5874 70.5373 57.5553L70.6506 57.5231L70.7154 57.5069L70.78 57.4909C70.9419 57.4588 71.1038 57.4266 71.2333 57.3784C71.2981 57.3623 71.3627 57.3302 71.4274 57.2981C71.476 57.2659 71.5246 57.2339 71.5246 57.2339C71.5246 57.2339 71.5246 57.2338 71.5246 57.2177L71.5407 57.1695C71.5569 57.1374 71.557 57.1053 71.557 57.0732C71.557 57.041 71.5731 57.0088 71.5731 56.9766C71.5731 56.9445 71.5731 56.9124 71.5731 56.8803C71.5731 56.7356 71.5408 56.607 71.4922 56.4624C71.4113 56.1731 71.2656 55.9 71.1037 55.6268C70.78 55.0965 70.3755 54.5821 69.9547 54.1321L70.0842 54.1965L68.4011 53.9554C68.126 53.9072 67.8508 53.8589 67.5595 53.8107C67.2844 53.7625 67.0092 53.6982 66.734 53.65C66.6855 53.634 66.6369 53.5859 66.6531 53.5377C66.6369 53.4734 66.6856 53.4411 66.7179 53.4411Z" fill="#07453A"/>
<path d="M71.1205 54.9026C71.4442 54.5169 71.8488 54.2436 72.2858 54.0026C72.7066 53.7615 73.1596 53.5848 73.6128 53.3919C74.0659 53.2151 74.503 53.0383 74.9723 52.8776C75.4254 52.7169 75.8786 52.5723 76.3479 52.4277C76.4127 52.4116 76.4773 52.4277 76.5259 52.4599C76.5906 52.5081 76.6231 52.5402 76.6555 52.5724C76.6879 52.6045 76.7363 52.6527 76.7687 52.7009C76.8334 52.7813 76.882 52.8777 76.9144 52.9902C76.9306 53.0384 76.9467 53.0866 76.9629 53.1509L76.9792 53.2794L77.0277 53.5366C77.0763 53.8741 77.1086 54.2437 77.0438 54.6294C76.9791 55.0151 76.7526 55.3686 76.4937 55.6096C76.2509 55.8667 75.9757 56.0917 75.6682 56.3006C75.0856 56.7024 74.4221 56.9756 73.7424 57.1685C73.0626 57.3613 72.3829 57.4738 71.687 57.5381C71.6384 57.5381 71.5898 57.506 71.5737 57.4417C71.5737 57.3935 71.606 57.3453 71.6546 57.3292C72.3343 57.2167 72.9978 57.0882 73.6452 56.8793C73.9689 56.7828 74.2763 56.6542 74.5838 56.4935C74.8913 56.3489 75.1828 56.1881 75.4417 55.9792C75.7168 55.7864 75.9595 55.5775 76.1861 55.3204C76.4127 55.0954 76.5583 54.8221 76.6068 54.5329C76.6554 54.2436 76.6231 53.9223 76.5746 53.5848L76.5259 53.3437L76.5098 53.2152C76.5098 53.1831 76.4936 53.1508 76.4774 53.1187C76.4612 53.0544 76.4289 53.0062 76.3803 52.958C76.3642 52.9258 76.3479 52.9099 76.3155 52.8938C76.2994 52.8777 76.2671 52.8455 76.2509 52.8455L76.4289 52.8776C75.9757 53.0223 75.5226 53.1669 75.0856 53.3276C74.6325 53.4883 74.1955 53.6651 73.7585 53.8419C73.5319 53.9383 73.3215 54.0347 73.1111 54.1311C72.9007 54.2275 72.6903 54.3401 72.4799 54.4365C72.0591 54.6454 71.6385 54.8544 71.2339 55.0633C71.1853 55.0955 71.1205 55.0632 71.0881 55.015C71.0881 54.9668 71.1044 54.9348 71.1205 54.9026Z" fill="#07453A"/>
<path d="M76.6064 52.7504C77.1242 52.7183 77.6098 52.895 78.0629 53.0718C78.5161 53.2646 78.9369 53.5218 79.3576 53.779C79.7784 54.0361 80.183 54.3093 80.5714 54.5825C80.9599 54.8718 81.3483 55.1449 81.7367 55.4502C81.7691 55.4824 81.8015 55.5305 81.8176 55.5787C81.9147 55.9805 81.9795 56.3824 82.0119 56.8002C82.0442 57.218 82.0443 57.6519 81.9148 58.0858C81.8501 58.2948 81.7529 58.5197 81.6073 58.6965C81.4616 58.8893 81.235 59.018 81.0084 59.0822C80.7819 59.1465 80.5391 59.1464 80.3287 59.1143C80.1021 59.0821 79.908 59.0339 79.6976 58.9536C78.9046 58.6643 78.2086 58.1983 77.5613 57.6841C76.9301 57.1698 76.3151 56.6234 75.7486 56.0449C75.7163 56.0127 75.7163 55.9484 75.7486 55.9002C75.781 55.868 75.8458 55.868 75.8944 55.9002C76.4932 56.4466 77.1082 56.9609 77.7555 57.443C78.0792 57.6841 78.4029 57.909 78.759 58.1018C79.0988 58.2947 79.4548 58.4716 79.827 58.6001C80.1831 58.7126 80.5877 58.7929 80.9114 58.6965C81.2351 58.6161 81.4454 58.3109 81.5264 57.9573C81.6882 57.2341 81.5588 56.4305 81.3969 55.6591L81.4778 55.7878C81.1056 55.4985 80.7171 55.2091 80.3287 54.9359C79.9403 54.6627 79.5358 54.4056 79.1312 54.1646C78.7266 53.9074 78.3057 53.6985 77.885 53.4896C77.4642 53.2807 77.0433 53.0717 76.6064 52.9271C76.5578 52.911 76.5255 52.8468 76.5417 52.7986C76.5417 52.7825 76.574 52.7504 76.6064 52.7504Z" fill="#07453A"/>
<path d="M81.9312 57.0891C82.5462 57.4908 83.0802 58.0051 83.5657 58.5676C84.035 59.1301 84.4721 59.7247 84.8443 60.3675C85.2165 60.9943 85.5401 61.653 85.8314 62.328C86.1228 63.003 86.3656 63.6941 86.5436 64.4012L86.5436 64.4172C86.576 64.5297 86.4951 64.6423 86.3818 64.6744C86.3332 64.6905 86.2846 64.6743 86.236 64.6582C85.6372 64.385 85.0547 64.0959 84.4882 63.7423C84.4235 63.6941 84.3426 63.6458 84.2779 63.5976C84.1969 63.5334 84.1483 63.4852 84.0836 63.4209C83.9541 63.3084 83.8408 63.1959 83.7275 63.0673C83.501 62.8263 83.2907 62.5691 83.0965 62.312C82.708 61.7817 82.3843 61.2191 82.0606 60.6406C81.7369 60.0781 81.4294 59.5158 81.0896 58.9694C81.0572 58.9212 81.0734 58.8568 81.122 58.8247C81.1705 58.7925 81.2352 58.8086 81.2514 58.8568C81.6237 59.3872 81.9636 59.9497 82.2873 60.4961C82.6271 61.0425 82.9669 61.5888 83.3553 62.0869C83.5495 62.3441 83.7599 62.5691 83.9703 62.7941C84.0836 62.9066 84.197 63.0191 84.3103 63.1155C84.375 63.1637 84.4235 63.2281 84.4882 63.2602C84.5529 63.3084 84.6177 63.3405 84.6825 63.3888C85.2165 63.7102 85.8153 63.9833 86.3979 64.2405L86.1066 64.4815C85.9286 63.7905 85.6859 63.1316 85.3946 62.4727C85.1033 61.8138 84.7796 61.1871 84.4236 60.5764C84.0513 59.9657 83.6467 59.3872 83.1774 58.8568C82.7242 58.3104 82.2224 57.7962 81.7855 57.2176C81.7531 57.1694 81.7532 57.1052 81.8017 57.0731C81.8503 57.057 81.8988 57.0569 81.9312 57.0891Z" fill="#07453A"/>
<path d="M26.8892 54.1641C26.5008 54.1481 26.1286 54.0838 25.7563 54.0034C25.3841 53.9231 25.0117 53.8428 24.6557 53.7464C23.9274 53.5535 23.1991 53.3446 22.4709 53.1517L22.649 53.1195C22.0987 53.441 21.5484 53.7784 21.0143 54.132C20.8848 54.2123 20.7554 54.3088 20.6421 54.4052C20.5288 54.4855 20.448 54.582 20.4156 54.6784C20.3347 54.8873 20.3832 55.1766 20.4641 55.482C20.5127 55.6266 20.5612 55.7873 20.6097 55.9319C20.6583 56.0765 20.7068 56.2052 20.7715 56.3498C20.901 56.623 21.0791 56.88 21.2733 57.105C21.3704 57.2175 21.4675 57.33 21.5807 57.4264C21.6131 57.4425 21.6293 57.4748 21.6617 57.4748C21.694 57.4908 21.6779 57.4907 21.7265 57.5068L21.8235 57.539L21.9368 57.5551C22.2281 57.6033 22.5357 57.6033 22.8593 57.6033C24.1217 57.539 25.384 57.2818 26.6302 56.9765C27.2452 56.8158 27.8764 56.6391 28.4752 56.4302C28.7827 56.3338 29.074 56.2051 29.3653 56.0926C29.6566 55.964 29.9479 55.8354 30.1906 55.6587C30.2392 55.6265 30.304 55.6426 30.3364 55.6908C30.3687 55.7391 30.3525 55.8034 30.3201 55.8355C30.045 56.0445 29.7537 56.189 29.4624 56.3337C29.1711 56.4783 28.8636 56.5908 28.5561 56.7033C27.9411 56.9282 27.3261 57.1212 26.7111 57.3141C26.0799 57.4908 25.4487 57.6354 24.8175 57.764C24.1864 57.8926 23.539 57.989 22.8755 58.0372C22.5518 58.0533 22.212 58.0533 21.8722 58.0051L21.7426 57.9889L21.6131 57.9569C21.5808 57.9569 21.4999 57.9247 21.4513 57.8925C21.4028 57.8604 21.3704 57.8283 21.3219 57.8122C21.1762 57.6997 21.063 57.5712 20.9497 57.4426C20.7231 57.1855 20.5451 56.9122 20.3832 56.6069C20.3023 56.4623 20.2375 56.2855 20.189 56.1248C20.1404 55.9801 20.0918 55.8194 20.0433 55.6587C19.9947 55.498 19.9463 55.3374 19.9301 55.1445C19.9139 54.9678 19.9138 54.7587 19.9948 54.5659C20.0757 54.3731 20.2213 54.2124 20.3669 54.0999C20.4964 53.9875 20.6421 53.8909 20.7715 53.8105C21.3218 53.4409 21.8559 53.1035 22.4223 52.7821C22.4709 52.75 22.5357 52.7339 22.6005 52.75L24.7853 53.3446C25.1413 53.441 25.5134 53.5535 25.8695 53.666C26.2255 53.7785 26.5817 53.907 26.9377 54.0356C26.9863 54.0517 27.0186 54.1159 27.0024 54.1641C26.97 54.132 26.9378 54.1641 26.8892 54.1641Z" fill="#07453A"/>
<path d="M20.2701 54.4534C19.9788 54.4373 19.6875 54.3732 19.4123 54.3089C19.1372 54.2285 18.8621 54.1482 18.6031 54.0678C18.3442 53.9875 18.069 53.9071 17.8101 53.8428C17.5349 53.7946 17.2599 53.7464 16.9847 53.6982L17.1951 53.6179C17.0818 53.7625 16.9523 53.9232 16.839 54.0678C16.7257 54.2125 16.6125 54.3731 16.5316 54.5178C16.3698 54.8231 16.2725 55.1927 16.1593 55.5623C16.1107 55.7391 16.0623 55.932 16.0137 56.1088C15.9651 56.2856 15.9327 56.4783 15.9165 56.6551C15.9165 56.7033 15.9165 56.7355 15.9165 56.7676C15.9165 56.7837 15.9165 56.7997 15.9165 56.8158C15.9165 56.8319 15.9166 56.8319 15.9004 56.7998L15.8843 56.7836L15.9004 56.7998L15.9328 56.8158L15.9813 56.848C16.0137 56.8641 16.046 56.8962 16.0783 56.9283C16.1593 56.9605 16.2241 57.0087 16.305 57.0409L16.5639 57.1372C17.276 57.3461 18.0529 57.3944 18.8135 57.4105C19.5741 57.4105 20.3672 57.3622 21.1117 57.2176C21.1602 57.2015 21.225 57.2336 21.225 57.2979C21.2412 57.3461 21.2087 57.3944 21.1602 57.4105C20.7718 57.5229 20.3833 57.5873 19.9949 57.6355C19.6065 57.6837 19.2181 57.7158 18.8135 57.7319C18.0205 57.764 17.2274 57.7157 16.4344 57.5068L16.1431 57.4105C16.046 57.3783 15.949 57.314 15.8519 57.2658C15.8033 57.2336 15.7547 57.2015 15.7061 57.1694L15.6415 57.1212L15.6091 57.089L15.5928 57.073C15.5766 57.057 15.5605 57.0408 15.5443 57.0247C15.4957 56.9604 15.4958 56.9123 15.4797 56.8802C15.4635 56.848 15.4634 56.8158 15.4634 56.7836C15.4634 56.7194 15.4634 56.6712 15.4634 56.6069C15.4957 56.1891 15.5929 55.8195 15.69 55.4338C15.7871 55.0642 15.8842 54.6623 16.0946 54.2927C16.2079 54.0999 16.3211 53.9393 16.4344 53.7786C16.5477 53.6179 16.6772 53.4732 16.7905 53.3125C16.8391 53.2482 16.9361 53.2161 17.0009 53.2321C17.2922 53.2803 17.5673 53.3125 17.8586 53.3768C18.1499 53.4411 18.4251 53.5214 18.7002 53.6017C18.9753 53.6821 19.2504 53.7785 19.5094 53.891C19.7683 54.0034 20.0272 54.1161 20.2862 54.2607C20.3347 54.2928 20.351 54.357 20.3186 54.4052C20.351 54.4374 20.3186 54.4534 20.2701 54.4534Z" fill="#07453A"/>
<path d="M16.8068 53.6653C16.1756 53.7778 15.5445 53.8742 14.9295 53.9545C14.2983 54.0349 13.6672 54.1312 13.0522 54.2437C12.7447 54.292 12.4209 54.3563 12.1134 54.4206C11.8059 54.4849 11.4823 54.5491 11.2072 54.6295C10.6084 54.8063 10.0096 55.0312 9.42694 55.2562L9.57266 55.0954C9.49174 55.5294 9.41079 55.9795 9.37842 56.4294C9.32987 56.8794 9.31372 57.3133 9.3299 57.7632C9.34608 57.9882 9.37839 58.1971 9.42694 58.3899C9.47549 58.5828 9.57253 58.7756 9.68582 58.872C9.70201 58.8881 9.71832 58.8881 9.7345 58.9042C9.75068 58.9203 9.76684 58.9203 9.78302 58.9364C9.7992 58.9364 9.81529 58.9524 9.84766 58.9524L9.92858 58.9685C10.0257 59.0007 10.1229 59.0167 10.2361 59.0167C10.4465 59.0328 10.6731 59.0329 10.8835 59.0007C11.3205 58.9525 11.7574 58.8399 12.1943 58.7113C12.6313 58.5828 13.0522 58.4221 13.4729 58.2454C14.3145 57.8918 15.1238 57.49 15.9653 57.0883C16.0139 57.0722 16.0786 57.0882 16.0948 57.1364C16.111 57.1846 16.0948 57.2489 16.0462 57.265C15.2371 57.6989 14.4278 58.1328 13.5863 58.5024C12.7447 58.8721 11.8707 59.2256 10.932 59.3541C10.6893 59.3863 10.4465 59.4024 10.2037 59.3863C10.0743 59.3702 9.96101 59.3543 9.83154 59.3221L9.7345 59.306C9.70213 59.2899 9.66967 59.2738 9.6373 59.2738C9.60493 59.2577 9.57263 59.2417 9.54026 59.2256C9.50789 59.2095 9.47543 59.1936 9.44306 59.1614C9.21649 58.9686 9.1032 58.7114 9.03846 58.4864C8.97373 58.2454 8.94139 58.0042 8.90902 57.7793C8.84429 56.8311 8.95764 55.9151 9.13566 54.9991C9.15184 54.9187 9.20037 54.8705 9.2651 54.8384C9.86391 54.6134 10.4627 54.3724 11.0777 54.1796C11.4014 54.0831 11.7088 54.0188 12.0325 53.9545C12.34 53.8902 12.6638 53.8259 12.9713 53.7616C13.6025 53.6491 14.2336 53.5367 14.881 53.4724C15.5283 53.4081 16.1757 53.376 16.823 53.4564C16.8716 53.4564 16.9201 53.5205 16.9201 53.5687C16.8715 53.617 16.8391 53.6492 16.8068 53.6653Z" fill="#07453A"/>
<path d="M9.18417 55.9802C8.4397 56.4623 7.69521 56.9284 6.96693 57.4265C6.23865 57.9247 5.54274 58.4551 4.86301 59.0176C4.52315 59.3069 4.18325 59.5801 3.85957 59.8855C3.69773 60.0301 3.53589 60.1908 3.37405 60.3354C3.21221 60.48 3.06659 60.6406 2.92093 60.8013C2.62962 61.1228 2.35456 61.4604 2.09562 61.8139C1.96614 61.9907 1.8367 62.1674 1.72341 62.3442C1.59394 62.521 1.48062 62.7137 1.36734 62.8905L1.1083 62.5853C1.82039 62.3281 2.53249 62.0709 3.21221 61.7656C3.39024 61.6852 3.53589 61.6049 3.69773 61.5085L4.18325 61.2193L5.17057 60.6406C6.48147 59.8853 7.77613 59.0979 9.07085 58.3104C9.1194 58.2783 9.1842 58.2944 9.21657 58.3426C9.24894 58.3908 9.23272 58.4551 9.18417 58.4711C8.55299 58.889 7.92185 59.3069 7.27449 59.7248C6.64331 60.1265 5.99589 60.5443 5.34853 60.93L4.37749 61.5245L3.89197 61.8139C3.73013 61.9103 3.55208 62.0066 3.37405 62.087C2.67814 62.4084 1.96611 62.6977 1.25402 62.9549C1.14073 63.0031 1.02741 62.9388 0.978857 62.8263C0.962673 62.762 0.962768 62.6977 0.995136 62.6495C1.46447 61.8781 1.98233 61.1388 2.58113 60.4799C2.72679 60.3192 2.88854 60.1425 3.05038 59.9978C3.21221 59.8371 3.37405 59.6925 3.53589 59.5479C3.85957 59.2425 4.19947 58.9533 4.53933 58.664C5.21906 58.0855 5.93119 57.539 6.67565 57.0248C7.04788 56.7677 7.43623 56.5267 7.82465 56.3178C8.22925 56.1089 8.63388 55.9321 9.07085 55.8035C9.1194 55.7874 9.1841 55.8196 9.20029 55.8678C9.24884 55.916 9.21654 55.9641 9.18417 55.9802Z" fill="#07453A"/>
<path d="M22.6004 48.9723C22.034 48.8598 21.4837 48.7152 20.9172 48.5545C20.367 48.3938 19.8168 48.1688 19.2827 47.9117C19.0238 47.7831 18.7647 47.6385 18.5058 47.5099L17.729 47.1402L16.1915 46.385L16.4505 46.3528C16.0297 46.7385 15.6251 47.1564 15.2529 47.5903C15.0586 47.8152 14.8807 48.024 14.7188 48.2651C14.6379 48.3776 14.557 48.4901 14.5085 48.6187C14.4761 48.683 14.4437 48.7313 14.4275 48.7955L14.4113 48.8437L14.3951 48.8597L14.3951 48.8759C14.3951 48.892 14.3951 48.8919 14.3951 48.9241C14.3951 48.9884 14.4598 49.1008 14.5246 49.2133C14.6055 49.3258 14.6863 49.4223 14.7835 49.5187C14.9777 49.7116 15.2042 49.8883 15.4308 50.049C15.9001 50.3544 16.418 50.5954 16.9683 50.8044C17.5024 50.9972 18.0689 51.1418 18.6354 51.2543C19.2018 51.3668 19.7843 51.4471 20.3669 51.5114C21.5322 51.6399 22.6974 51.6881 23.8789 51.7202C23.9274 51.7202 23.9761 51.7686 23.9761 51.8168C23.9761 51.865 23.9274 51.9131 23.8789 51.9131C22.6974 51.9292 21.516 51.9132 20.3508 51.8168C19.7682 51.7686 19.1693 51.7042 18.5867 51.5917C18.0041 51.4792 17.4216 51.3506 16.8551 51.1578C16.2887 50.9649 15.7383 50.7239 15.2205 50.3864C14.9615 50.2097 14.735 50.0329 14.5085 49.824C14.3952 49.7115 14.2819 49.5989 14.1848 49.4704C14.0877 49.3418 13.9905 49.1972 13.9581 48.9723C13.9419 48.924 13.9581 48.8598 13.9743 48.7955L13.9905 48.7472L14.0067 48.7152L14.0229 48.6508C14.0553 48.5705 14.0876 48.4901 14.12 48.4258C14.1847 48.2812 14.2818 48.1526 14.3627 48.024C14.5408 47.7669 14.7188 47.542 14.9131 47.317C15.3015 46.8671 15.706 46.4492 16.143 46.0314C16.2077 45.9671 16.3209 45.951 16.4018 45.9992L17.9717 46.7546L18.7485 47.1241C19.0075 47.2527 19.2503 47.3974 19.5092 47.5099C20.0109 47.751 20.545 47.9599 21.0791 48.1527C21.6132 48.3456 22.1635 48.5544 22.6814 48.8276C22.7299 48.8597 22.7461 48.908 22.7299 48.9562C22.6975 48.9562 22.649 48.9723 22.6004 48.9723Z" fill="#07453A"/>
<path d="M15.334 46.7713C14.8161 46.3374 14.3468 45.8714 13.8774 45.3893C13.4081 44.9072 12.955 44.409 12.5342 43.8948C11.6765 42.8663 10.8511 41.8056 10.0257 40.761L10.3009 40.8252C10.1067 40.9056 9.92856 41.0181 9.75054 41.1306C9.57252 41.2431 9.3945 41.3556 9.26502 41.5002C9.20029 41.5645 9.15177 41.6449 9.13558 41.6931C9.1194 41.7092 9.11937 41.7735 9.10319 41.8056C9.087 41.8538 9.08706 41.9019 9.08706 41.9501C9.07088 42.143 9.10315 42.3519 9.15171 42.5448C9.34591 43.3322 9.91235 44.0394 10.4464 44.6983C11.0129 45.3572 11.6602 45.9357 12.34 46.4821C13.0197 47.0285 13.7318 47.5428 14.4439 48.0731C14.4924 48.1053 14.4924 48.1694 14.46 48.2177C14.4276 48.2659 14.363 48.266 14.3144 48.2338C13.5862 47.7356 12.8578 47.2374 12.1457 46.7071C11.4336 46.1768 10.7539 45.5982 10.1551 44.9232C9.86383 44.5857 9.57258 44.2322 9.32982 43.8626C9.07088 43.493 8.86046 43.0751 8.73099 42.6251C8.66625 42.4002 8.63379 42.159 8.63379 41.918C8.63379 41.8537 8.63388 41.7895 8.65007 41.7413C8.66625 41.677 8.66622 41.6288 8.69859 41.5324C8.74714 41.3717 8.84431 41.2752 8.92523 41.1788C9.10325 41.002 9.29746 40.8734 9.49166 40.7449C9.68587 40.6163 9.87995 40.5199 10.0903 40.4074C10.1874 40.3592 10.3008 40.3913 10.3655 40.4716C11.1909 41.5162 12.0324 42.5609 12.874 43.5894C13.2948 44.0876 13.7641 44.5697 14.2172 45.0679C14.6704 45.5661 15.1075 46.0642 15.4797 46.6428C15.5121 46.691 15.4959 46.7553 15.4473 46.7875C15.4149 46.8035 15.3664 46.8034 15.334 46.7713Z" fill="#07453A"/>
<path d="M9.86394 40.5847C9.45934 39.958 9.11947 39.2991 8.81198 38.6081C8.52066 37.917 8.26172 37.21 8.0837 36.4707C8.00278 36.1011 7.93801 35.7314 7.88946 35.3618C7.8409 34.9922 7.80857 34.6226 7.76002 34.253C7.72765 33.8834 7.6791 33.5298 7.59818 33.1763C7.56581 33.0156 7.48489 32.8387 7.43634 32.678C7.40397 32.5976 7.38769 32.5012 7.33914 32.4369L7.22598 32.1959L7.59818 32.228C7.35542 32.5655 7.14496 32.9673 6.96694 33.353C6.78891 33.7547 6.65944 34.1725 6.56234 34.6064C6.36813 35.4582 6.33576 36.3583 6.48142 37.2261C6.62707 38.0939 6.91842 38.9455 7.32302 39.733C7.72762 40.5205 8.24547 41.2597 8.8281 41.9347C8.86047 41.9829 8.86053 42.0471 8.81198 42.0792C8.76343 42.1114 8.71481 42.1114 8.66626 42.0632C8.05127 41.4043 7.50101 40.6651 7.04786 39.8615C6.82128 39.4598 6.62714 39.042 6.46529 38.6081C6.30345 38.1742 6.19014 37.7242 6.10921 37.2742C5.94737 36.3582 5.96359 35.4261 6.14161 34.5101C6.23872 34.0601 6.36819 33.6102 6.54621 33.1763C6.72424 32.7424 6.93466 32.3406 7.22598 31.9388C7.29071 31.8424 7.43627 31.8263 7.53338 31.8906C7.56574 31.9067 7.58199 31.9388 7.59818 31.971L7.72762 32.2442C7.77617 32.3246 7.79238 32.4209 7.84094 32.5173C7.90567 32.6941 7.98653 32.8709 8.0189 33.0637C8.116 33.4494 8.14846 33.8191 8.19702 34.1887C8.24557 34.5583 8.2779 34.9279 8.32646 35.2814C8.37501 35.6511 8.43978 36.0046 8.5207 36.3582C8.68254 37.0653 8.94139 37.7402 9.2327 38.4152C9.50783 39.0901 9.81539 39.7812 10.0258 40.4883C10.042 40.5366 10.0095 40.6008 9.96098 40.6169C9.94479 40.649 9.89631 40.6168 9.86394 40.5847Z" fill="#07453A"/>
<path d="M24.0894 42.9791C23.5392 42.5774 23.0051 42.1595 22.471 41.7417C21.937 41.3077 21.4191 40.8738 20.885 40.456L19.2829 39.1864L18.8783 38.865C18.7489 38.7685 18.6032 38.64 18.4737 38.5275C18.2148 38.3025 17.9719 38.0614 17.7292 37.8204L17.9395 37.8847C17.6644 37.949 17.3893 38.0294 17.1142 38.1098C17.0495 38.1258 16.9847 38.1579 16.92 38.174C16.8552 38.19 16.7905 38.2222 16.7257 38.2543C16.661 38.2864 16.5964 38.3025 16.5316 38.3347C16.4669 38.3668 16.4021 38.399 16.3535 38.4312C16.127 38.5597 15.9166 38.7204 15.7871 38.9133C15.6576 39.1061 15.6253 39.3472 15.6415 39.6043C15.6577 39.8614 15.7385 40.1185 15.8356 40.3757C15.9327 40.6328 16.046 40.8738 16.1917 41.1148C16.4992 41.5809 16.8391 42.031 17.2275 42.4166C18.0205 43.2202 18.9592 43.863 19.9464 44.4255C20.9336 44.9879 21.9856 45.4701 23.0214 45.9522C23.0699 45.9682 23.0861 46.0325 23.0699 46.0807C23.0537 46.1289 22.989 46.145 22.9404 46.1289C21.8723 45.695 20.8203 45.2289 19.8007 44.6825C19.299 44.4093 18.7812 44.1201 18.3119 43.7826C17.8425 43.4452 17.3731 43.0755 16.9685 42.6737C16.5477 42.2719 16.1756 41.8059 15.8519 41.3077C15.69 41.0506 15.5606 40.7935 15.4473 40.5042C15.334 40.231 15.253 39.9417 15.2206 39.6203C15.1883 39.315 15.2207 38.9453 15.4149 38.6561C15.5929 38.3668 15.8681 38.174 16.127 38.0132C16.1918 37.9811 16.2565 37.9329 16.3374 37.9007C16.4021 37.8686 16.4668 37.8365 16.5478 37.8044C16.6125 37.7722 16.6934 37.7401 16.7581 37.724C16.8229 37.6919 16.9038 37.6757 16.9685 37.6597C17.2436 37.5793 17.535 37.499 17.8101 37.4186C17.891 37.4025 17.9719 37.4187 18.0204 37.4669C18.2632 37.708 18.5061 37.933 18.765 38.1579C18.8945 38.2704 19.0077 38.3669 19.1533 38.4794L19.5579 38.8008L21.1602 40.0702C21.6943 40.4881 22.2446 40.9059 22.7625 41.3559C23.2804 41.8059 23.7821 42.272 24.219 42.8184C24.2514 42.8666 24.2513 42.9308 24.2028 42.963C24.1704 43.0112 24.1218 43.0113 24.0894 42.9791Z" fill="#07453A"/>
<path d="M17.3893 37.7717C16.9362 37.2896 16.5801 36.7271 16.2564 36.1646C15.9328 35.6021 15.6414 35.0237 15.3339 34.4612C15.0264 33.8987 14.6866 33.3522 14.3144 32.838C13.9421 32.3237 13.5376 31.8095 13.133 31.3113L13.2948 31.3916C13.1168 31.3756 12.9224 31.3918 12.7606 31.44C12.6797 31.4721 12.615 31.4881 12.5502 31.5523L12.5017 31.5845L12.4693 31.6327C12.4369 31.6648 12.4208 31.6971 12.3884 31.7292C12.2104 32.0185 12.2105 32.4202 12.2428 32.822C12.259 33.0309 12.2913 33.2237 12.3399 33.4326L12.3884 33.754L12.4369 34.0594C12.534 34.4612 12.6636 34.8469 12.8093 35.2326C13.133 36.0039 13.5212 36.7271 13.9744 37.4503C14.4275 38.1574 14.9131 38.8485 15.4148 39.5234C15.4472 39.5716 15.4311 39.6358 15.3987 39.668C15.3502 39.7001 15.3015 39.6841 15.253 39.652C14.7189 38.9931 14.201 38.3182 13.7155 37.6271C13.4728 37.2736 13.2461 36.92 13.0358 36.5504C12.8254 36.1807 12.6312 35.795 12.4693 35.4093C12.3075 35.0075 12.1619 34.6058 12.0486 34.188L11.9838 33.8666L11.9192 33.5612C11.8868 33.3522 11.8382 33.1433 11.8058 32.9183C11.7735 32.6933 11.7572 32.4846 11.7734 32.2435C11.7896 32.0185 11.8381 31.7613 11.9838 31.5523C12.0162 31.5041 12.0486 31.4398 12.0971 31.3916L12.1619 31.3113C12.1781 31.2952 12.2105 31.2632 12.2428 31.2471L12.3238 31.1827C12.3561 31.1667 12.3885 31.1506 12.4047 31.1346C12.4694 31.1024 12.5179 31.0703 12.5826 31.0542C12.8254 30.9739 13.052 30.9578 13.3109 30.9739C13.3756 30.9739 13.4243 31.006 13.4566 31.0542C13.8612 31.5685 14.2657 32.0666 14.6542 32.5969C15.0426 33.1273 15.3824 33.6898 15.7061 34.2523C16.0298 34.8148 16.3373 35.3933 16.6448 35.9557C16.9522 36.5182 17.2436 37.0807 17.5188 37.6753C17.5349 37.7235 17.5188 37.7878 17.4702 37.8038C17.4702 37.8199 17.4217 37.8038 17.3893 37.7717Z" fill="#07453A"/>
<path d="M12.6473 31.1028C12.4208 30.4761 12.2265 29.8654 12.0646 29.2226C11.919 28.5797 11.7572 27.921 11.6763 27.2621C11.5954 26.6193 11.4982 25.9603 11.3688 25.3174C11.304 24.996 11.2393 24.6747 11.1584 24.3694C11.0775 24.048 10.9642 23.7425 10.8832 23.4372L11.304 23.4372L10.9642 24.5301L10.9318 24.6586C10.9156 24.7068 10.9155 24.739 10.8994 24.7711L10.8671 25.0604L10.8023 25.6228C10.77 25.9925 10.7538 26.3782 10.7538 26.7478C10.7538 27.1174 10.8024 27.5031 10.8347 27.8727C10.9156 28.628 11.045 29.3672 11.2554 30.1064C11.4658 30.8296 11.741 31.5368 12.0485 32.2439C12.0647 32.2922 12.0485 32.3564 12 32.3725C11.9514 32.3885 11.8866 32.3725 11.8704 32.3243C11.5305 31.6333 11.2069 30.926 10.9803 30.1868C10.7375 29.4475 10.5757 28.6762 10.4786 27.9209C10.4301 27.5352 10.3815 27.1495 10.3653 26.7638C10.3491 26.3781 10.3654 25.9764 10.3816 25.5907L10.4301 25.0122L10.4625 24.7228C10.4787 24.6585 10.4786 24.5943 10.4948 24.5461L10.5272 24.4014C10.6243 24.0318 10.7376 23.6622 10.8671 23.2926C10.8995 23.1801 11.0288 23.1158 11.1421 23.1479C11.2069 23.164 11.2717 23.2283 11.2878 23.2926C11.3849 23.614 11.4982 23.9354 11.5791 24.2568C11.66 24.5783 11.741 24.8996 11.8057 25.2371C11.9352 25.896 12.0323 26.5388 12.1294 27.1977C12.2103 27.8406 12.3721 28.4674 12.5177 29.1102C12.5987 29.4316 12.6635 29.753 12.7283 30.0744C12.7768 30.3958 12.8252 30.7332 12.8414 31.0707C12.8414 31.1189 12.7929 31.1672 12.7444 31.1672C12.6958 31.1833 12.6635 31.1511 12.6473 31.1028Z" fill="#07453A"/>
<path d="M35.7741 32.485C35.1914 33.2725 34.5765 34.0117 33.9615 34.7831C33.3627 35.5384 32.7801 36.3258 32.2298 37.1293C31.6795 37.9328 31.1617 38.7525 30.6438 39.5721C30.1421 40.4077 29.6404 41.2434 29.171 42.0952C28.7017 42.9469 28.2647 43.8147 27.8601 44.6825C27.4555 45.5663 27.0995 46.4663 26.792 47.3823C26.4845 48.2983 26.2256 49.2304 26.0476 50.1786C25.8695 51.1268 25.74 52.0911 25.6591 53.0553C25.6591 53.1035 25.6106 53.1517 25.5459 53.1517C25.4973 53.1517 25.4487 53.1035 25.4487 53.0553C25.5135 51.0947 25.8533 49.1502 26.436 47.2699C26.7273 46.3378 27.0833 45.4217 27.4717 44.5218C27.8601 43.6218 28.2971 42.738 28.7664 41.8863C29.2358 41.0185 29.7213 40.1827 30.2392 39.347C30.7409 38.5114 31.2749 37.6919 31.8252 36.8723C32.3755 36.0527 32.9581 35.2652 33.5569 34.4938C34.1719 33.7225 34.8355 32.9992 35.5961 32.3563C35.6447 32.3242 35.7094 32.3243 35.7417 32.3725C35.8065 32.4047 35.8064 32.4529 35.7741 32.485Z" fill="#07453A"/>
<path d="M39.6582 31.8101C39.3993 32.2922 39.1242 32.7422 38.849 33.2083C38.7196 33.4493 38.5901 33.6743 38.4444 33.8993C38.315 34.1243 38.1693 34.3492 38.0398 34.5903C37.7809 35.0563 37.522 35.5224 37.2792 36.0045C37.0527 36.4866 36.7937 36.9687 36.5833 37.4508C35.677 39.3954 34.9326 41.4203 34.2852 43.4613C33.6217 45.5022 33.0714 47.5914 32.5859 49.6806C32.1004 51.7698 31.6634 53.891 31.2912 56.0123C31.275 56.0605 31.2264 56.1087 31.1778 56.0926C31.1293 56.0766 31.0807 56.0283 31.0969 55.9801C31.4206 53.8427 31.7929 51.7215 32.246 49.6002C32.6992 47.495 33.2332 45.3897 33.8644 43.3166C34.5118 41.2435 35.2563 39.2186 36.1626 37.2419C36.3891 36.7437 36.6319 36.2617 36.8746 35.7796C37.1174 35.2975 37.3925 34.8153 37.6514 34.3492C37.9266 33.8832 38.2179 33.4172 38.5092 32.9672C38.8329 32.5173 39.1727 32.0994 39.5126 31.6816C39.545 31.6334 39.6097 31.6333 39.6582 31.6654C39.6744 31.7136 39.6906 31.7619 39.6582 31.8101Z" fill="#07453A"/>
<path d="M63.3521 33.4328C63.5787 33.7864 63.7891 34.156 63.9833 34.5256C64.1775 34.8952 64.3555 35.281 64.5173 35.6667L65.0028 36.8238L65.4721 37.9969C66.0871 39.5718 66.6374 41.1628 67.1067 42.7859C67.5761 44.409 67.9645 46.0482 68.2558 47.7034C68.5471 49.3587 68.7575 51.0461 68.8223 52.7175C68.8223 52.7657 68.7899 52.8139 68.7251 52.83C68.6766 52.83 68.6281 52.7979 68.6119 52.7336C68.4662 51.0623 68.2234 49.407 67.8997 47.7678C67.5761 46.1286 67.1553 44.5055 66.6698 42.8984C66.1843 41.2914 65.634 39.7165 65.019 38.1576L64.5497 37.0005L64.048 35.8434C63.87 35.4577 63.7081 35.072 63.5625 34.6863C63.4006 34.3006 63.255 33.8989 63.1417 33.4972C63.1255 33.449 63.1578 33.3847 63.2064 33.3687C63.2873 33.3847 63.3359 33.4007 63.3521 33.4328Z" fill="#07453A"/>
<path d="M58.0919 31.6492C58.5289 32.5331 58.8526 33.4491 59.1439 34.3812C59.4352 35.3133 59.7103 36.2454 59.9692 37.1936L60.7784 40.0059L61.6038 42.8021C62.1541 44.6663 62.6719 46.5466 63.1251 48.459C63.5783 50.3553 63.9344 52.2838 64.1447 54.2284C64.1447 54.2766 64.1124 54.3409 64.0638 54.3409C64.0153 54.3409 63.9667 54.3087 63.9505 54.2605C63.6592 52.3321 63.2708 50.4357 62.7853 48.5555C62.316 46.6752 61.7495 44.811 61.183 42.9468L60.3415 40.1505L59.5161 37.3543C59.241 36.4222 58.9658 35.49 58.6745 34.5579C58.3832 33.6259 58.1081 32.6938 57.8977 31.7456C57.8815 31.6974 57.9139 31.6331 57.9786 31.6331C58.0272 31.5849 58.0757 31.601 58.0919 31.6492Z" fill="#07453A"/>
<path d="M52.7029 30.5885C52.9457 31.1027 53.1723 31.6332 53.3503 32.1635C53.4474 32.4367 53.5445 32.6938 53.6254 32.967L53.8682 33.7866C54.1757 34.8794 54.4508 35.9882 54.6936 37.097C55.1791 39.3148 55.5513 41.5486 55.875 43.7985C56.0368 44.9234 56.1663 46.0484 56.2958 47.1733C56.4415 48.2982 56.5386 49.4232 56.7166 50.5321C57.0403 52.7659 57.4772 54.9996 57.5581 57.2656C57.5581 57.3138 57.5096 57.3621 57.461 57.3621C57.4124 57.3621 57.364 57.3298 57.364 57.2656C57.2345 55.0157 56.7328 52.8141 56.3605 50.5803C56.1825 49.4553 56.053 48.3303 55.8912 47.2215C55.7455 46.0965 55.5837 44.9878 55.4219 43.8628C55.0982 41.629 54.7259 39.4112 54.2242 37.2096C53.9814 36.1168 53.6902 35.0241 53.3989 33.9313C53.0914 32.8545 52.7677 31.7777 52.5088 30.6688C52.4926 30.6206 52.5249 30.5564 52.5897 30.5403C52.6382 30.5081 52.6867 30.5403 52.7029 30.5885Z" fill="#07453A"/>
<path d="M43.5914 31.3276C43.4943 31.9222 43.3486 32.5169 43.2191 33.0954C43.1544 33.3847 43.0897 33.69 43.0249 33.9793C42.9602 34.2685 42.8792 34.5578 42.8145 34.8632C42.5394 36.0363 42.2967 37.2095 42.0701 38.3987C41.6331 40.761 41.2932 43.1556 41.0343 45.5501C40.7753 47.9446 40.6135 50.3551 40.5487 52.7496C40.484 55.1602 40.5164 57.5709 40.7268 59.9654C40.7268 60.0136 40.6944 60.0617 40.6297 60.0777C40.5811 60.0777 40.5326 60.0456 40.5164 59.9814C40.2413 57.5708 40.1603 55.1603 40.1765 52.7336C40.2089 50.307 40.3546 47.8963 40.5811 45.4857C40.8239 43.0751 41.1638 40.6806 41.5846 38.3022C41.795 37.1129 42.0377 35.9238 42.3129 34.7506C42.4423 34.156 42.6042 33.5774 42.7822 32.9989C42.9602 32.4203 43.1544 31.8419 43.3809 31.2795C43.3971 31.2312 43.4619 31.199 43.5105 31.2151C43.5752 31.2312 43.6076 31.2794 43.5914 31.3276Z" fill="#07453A"/>
<path d="M48.2686 30.9903C48.3172 31.6331 48.3334 32.2759 48.3495 32.9188C48.3657 33.5616 48.3657 34.2044 48.3495 34.8472L48.3333 36.7597L48.3333 38.6721C48.3495 41.2274 48.3981 43.7986 48.5114 46.3538C48.6085 48.909 48.7541 51.4643 48.9807 54.0195C49.1911 56.5747 49.45 59.1139 49.7899 61.653C49.7899 61.7012 49.7575 61.7654 49.709 61.7654C49.6604 61.7654 49.6119 61.7332 49.5957 61.685C49.2073 59.1459 48.8836 56.6067 48.6408 54.0515C48.3981 51.4963 48.22 48.9411 48.0906 46.3698C47.9773 43.8146 47.9126 41.2434 47.8802 38.6721L47.864 36.7437L47.864 34.8152C47.8802 33.5296 47.9126 32.2439 48.0583 30.9743C48.0583 30.9261 48.1068 30.8779 48.1715 30.8779C48.22 30.894 48.2524 30.9421 48.2686 30.9903Z" fill="#07453A"/>
<path d="M33.1527 33.3208C32.8938 33.6583 32.6024 33.9797 32.3111 34.285C32.036 34.6064 31.7447 34.9119 31.4534 35.2172L30.6118 36.1653L29.8026 37.1457C28.7506 38.4795 27.7958 39.8937 26.9704 41.3722C26.1288 42.8507 25.4167 44.3935 24.8503 45.9845C24.2838 47.5755 23.8631 49.2306 23.6042 50.918C23.588 50.9662 23.5394 51.0144 23.4908 50.9984C23.4423 50.9984 23.3937 50.9342 23.4099 50.886C23.5879 49.1825 23.9764 47.4951 24.5105 45.872C25.0607 44.2488 25.7566 42.6578 26.5658 41.1472C27.3912 39.6365 28.346 38.2062 29.4142 36.8563L30.2234 35.86L31.0811 34.8958C31.3724 34.5905 31.6799 34.2851 31.9874 33.9798C32.3111 33.6905 32.651 33.4172 32.9909 33.1601C33.0394 33.1279 33.1041 33.1441 33.1365 33.1762C33.1851 33.2244 33.1851 33.2726 33.1527 33.3208Z" fill="#07453A"/>
<path d="M38.1856 32.034C37.8781 32.4679 37.5543 32.8858 37.2307 33.2876C36.907 33.7054 36.5833 34.1071 36.2596 34.5089L35.3048 35.7464L34.3985 37.0159C33.217 38.7354 32.1489 40.5354 31.2426 42.4156C30.3201 44.2798 29.5594 46.2405 28.9768 48.2332C28.3942 50.226 27.9734 52.2829 27.7792 54.356C27.7792 54.4042 27.7307 54.4524 27.666 54.4524C27.6174 54.4524 27.5688 54.4043 27.5688 54.34C27.7145 52.2508 28.0868 50.1616 28.637 48.1367C29.2034 46.1118 29.9479 44.1352 30.838 42.2228C31.7443 40.3264 32.8124 38.4944 33.9939 36.7588L34.9164 35.4731L35.8712 34.2197C36.2111 33.8179 36.5509 33.4161 36.907 33.0144C37.2792 32.6287 37.6514 32.259 38.0399 31.9055C38.0884 31.8733 38.1532 31.8733 38.1856 31.9055C38.2179 31.9376 38.2179 31.9858 38.1856 32.034Z" fill="#07453A"/>
<path d="M41.633 31.5688C41.3417 32.6777 40.9533 33.7545 40.5325 34.8151L39.2701 37.997C38.4447 40.1184 37.6517 42.2557 37.0206 44.4413C36.3732 46.6108 35.9201 48.8447 35.6611 51.0945C35.4022 53.3444 35.305 55.6264 35.4507 57.8923C35.4507 57.9405 35.4184 57.9888 35.3536 58.0049C35.3051 58.0049 35.2565 57.9726 35.2403 57.9083C35.0461 55.6263 35.0785 53.3283 35.305 51.0624C35.5478 48.7803 35.9686 46.5304 36.5998 44.3287C37.2309 42.1271 38.0078 39.9737 38.8332 37.8363L40.0793 34.6544C40.5001 33.5938 40.9371 32.5492 41.4549 31.5207C41.4873 31.4724 41.5359 31.4562 41.5845 31.4723C41.633 31.4723 41.6492 31.5206 41.633 31.5688Z" fill="#07453A"/>
<path d="M45.7925 31.1992C45.663 32.4527 45.4365 33.69 45.2099 34.9275C44.9833 36.1649 44.7729 37.3864 44.6434 38.6399C44.3683 41.1308 44.4007 43.6378 44.336 46.1448C44.255 48.6518 44.2227 51.1588 44.336 53.6658C44.4331 56.1728 44.6758 58.6637 45.1452 61.1386C45.1613 61.1868 45.1128 61.2511 45.0642 61.2511C45.0157 61.2672 44.9509 61.219 44.9509 61.1708C44.4169 58.712 44.1255 56.1888 43.9799 53.6818C43.8342 51.1587 43.8504 48.6517 43.899 46.1287C43.9475 43.6217 43.9152 41.0986 44.1741 38.5755C44.3036 37.322 44.514 36.0685 44.7406 34.8311C44.9671 33.5937 45.2584 32.3723 45.5983 31.1509C45.6145 31.1027 45.663 31.0706 45.7277 31.0867C45.7601 31.1028 45.7925 31.151 45.7925 31.1992Z" fill="#07453A"/>
<path d="M50.5017 31.0381C50.5826 31.6488 50.6635 32.2433 50.7606 32.8379L51.052 34.6378L51.3433 36.4378L51.6184 38.2537L52.1525 41.8696L52.4114 43.6855C52.4923 44.2801 52.5894 44.8909 52.6542 45.5016C52.9131 47.9443 52.9455 50.3709 53.1235 52.7975C53.2692 55.2242 53.787 57.6027 54.0136 60.0454C54.0136 60.0936 53.9812 60.1417 53.9165 60.1578C53.868 60.1578 53.8194 60.1257 53.8033 60.0614C53.5281 57.6509 52.9455 55.2724 52.7513 52.8297C52.5409 50.4031 52.4761 47.9604 52.201 45.5498C52.1363 44.9552 52.0391 44.3445 51.9582 43.7499L51.6831 41.9499L51.1329 38.3341L50.8577 36.5341L50.5503 34.7343C50.3561 33.5291 50.2104 32.3076 50.2751 31.0701C50.2751 31.0219 50.3237 30.9738 50.3884 30.9738C50.4532 30.9416 50.4855 30.9899 50.5017 31.0381Z" fill="#07453A"/>
<path d="M55.3893 31.0706C55.7454 32.0509 56.0205 33.0634 56.2632 34.0758C56.506 35.0883 56.7326 36.1008 56.9592 37.1132C57.4123 39.1381 57.8493 41.179 58.2539 43.22C58.4481 44.2485 58.6423 45.261 58.8041 46.3056C58.966 47.3341 59.1116 48.3625 59.2735 49.391C59.581 51.448 59.9209 53.5051 60.5197 55.4818C60.5358 55.53 60.5034 55.5942 60.4549 55.6103C60.4063 55.6264 60.3416 55.5943 60.3254 55.5461C59.6781 53.5534 59.2734 51.4964 58.9336 49.4393C58.7717 48.4108 58.6099 47.3823 58.4319 46.3538C58.2538 45.3252 58.0435 44.3128 57.8331 43.3004C57.4285 41.2594 56.9753 39.2344 56.506 37.2096C56.2794 36.1971 56.0367 35.1848 55.7939 34.1723C55.5511 33.1599 55.3245 32.1473 55.1951 31.1028C55.1951 31.0545 55.2274 30.9902 55.276 30.9902C55.3245 31.0063 55.3731 31.0384 55.3893 31.0706Z" fill="#07453A"/>
<path d="M60.568 32.2116C60.9564 33.0634 61.264 33.9151 61.5715 34.7829C61.8628 35.6507 62.1703 36.5345 62.4454 37.4184C62.591 37.8523 62.7205 38.3024 62.85 38.7524C62.9795 39.1863 63.1089 39.6361 63.2546 40.07C63.5459 40.9378 63.8534 41.8058 64.1447 42.6896C64.436 43.5575 64.7111 44.4574 64.9539 45.3413C65.1967 46.2412 65.4233 47.1251 65.6175 48.0411C66.0221 49.841 66.3457 51.6729 66.5885 53.4889C66.5885 53.5371 66.5561 53.6014 66.5076 53.6014C66.459 53.6014 66.4104 53.5693 66.3943 53.5211C66.0706 51.7051 65.7145 49.9053 65.2776 48.1214C65.0672 47.2215 64.8244 46.3375 64.5816 45.4536C64.3389 44.5698 64.0476 43.702 63.7401 42.8342C63.4326 41.9664 63.1251 41.0986 62.8338 40.2147C62.6881 39.7808 62.5425 39.3309 62.413 38.8809C62.2835 38.4309 62.154 37.997 62.0084 37.5631C61.7333 36.6953 61.4258 35.8275 61.1183 34.9436C60.8108 34.0758 60.5356 33.1918 60.3738 32.2758C60.3576 32.2276 60.4061 32.1635 60.4547 32.1635C60.5033 32.1474 60.5518 32.1795 60.568 32.2116Z" fill="#07453A"/>
<path d="M67.1549 36.1171C67.3491 36.3903 67.5109 36.6796 67.6727 36.985C67.8184 37.2903 67.9641 37.5955 68.0773 37.9008L68.4334 38.8331L68.7733 39.7811C69.2103 41.0346 69.5986 42.3202 69.9223 43.6059C70.2298 44.9076 70.4888 46.2094 70.6992 47.5271C70.8934 48.8449 71.039 50.1627 71.1038 51.4966C71.1038 51.5448 71.0714 51.593 71.0066 51.6091C70.9581 51.6091 70.9095 51.5769 70.8933 51.5126C70.7477 50.1948 70.5697 48.8932 70.3431 47.5915C70.1165 46.2898 69.8252 45.004 69.4854 43.7184C69.1617 42.4328 68.7732 41.1793 68.3201 39.9258L67.9802 38.9938L67.6242 38.0777C67.4948 37.7724 67.3814 37.467 67.2681 37.1617C67.1549 36.8563 67.0416 36.5349 66.9607 36.2134C66.9445 36.1652 66.9769 36.101 67.0416 36.0849C67.0901 36.0688 67.1387 36.0849 67.1549 36.1171Z" fill="#07453A"/>
</svg>
