<svg width="35" height="48" viewBox="0 0 35 48" fill="none" xmlns="http://www.w3.org/2000/svg">
<path d="M34.4163 27.4801C34.1459 27.7645 33.8596 28.0172 33.5573 28.2542C33.255 28.4912 32.9526 28.7439 32.6663 28.9967C32.3799 29.2495 32.0777 29.5181 31.7754 29.7708C31.4731 30.0236 31.1867 30.2764 30.9004 30.5449C30.3276 31.0663 29.7866 31.6192 29.3253 32.2354C29.1025 32.5355 28.8798 32.8673 28.6889 33.1991C28.4821 33.5308 28.2913 33.8626 28.1003 34.2101C28.0685 34.2575 28.0049 34.2891 27.9413 34.2575C27.8935 34.2259 27.8775 34.1628 27.8934 34.1154C28.2116 33.4045 28.5775 32.6935 29.0071 32.0142C29.4525 31.3507 29.9936 30.7503 30.5663 30.1974C30.8527 29.9288 31.1391 29.6602 31.4414 29.3917L32.3322 28.6176C32.6345 28.3648 32.9368 28.0962 33.2391 27.8434C33.3982 27.7171 33.5573 27.6065 33.7482 27.5117C33.9232 27.4169 34.114 27.3379 34.3368 27.3063C34.4004 27.2905 34.4642 27.3379 34.4642 27.4011C34.4483 27.4169 34.4322 27.4485 34.4163 27.4801Z" fill="#07453A"/>
<path d="M27.9727 34.0518C28.1318 34.1623 28.3228 34.273 28.4819 34.3993C28.625 34.5257 28.7841 34.6363 28.9273 34.7627C29.2137 35.0154 29.4842 35.2998 29.7388 35.5842C30.2479 36.1687 30.6933 36.7848 31.1069 37.4325C31.9183 38.728 32.6025 40.1024 33.1912 41.5242C33.4775 42.2351 33.7002 42.9934 33.732 43.7991C33.7479 44.0045 33.732 44.1941 33.7161 44.3994C33.7002 44.4942 33.6843 44.6048 33.6684 44.6996C33.6684 44.747 33.6525 44.7944 33.6366 44.8576C33.6207 44.905 33.6048 44.9682 33.5889 45.0156C33.4139 45.4263 33.0956 45.7265 32.7774 45.9635C32.4433 46.2004 32.0934 46.3742 31.7593 46.548C31.4093 46.7218 31.0592 46.8797 30.6773 47.0061C29.9455 47.2747 29.15 47.4169 28.3705 47.4327C27.9727 47.4327 27.5751 47.4011 27.1933 47.3379C26.8114 47.2589 26.4137 47.1799 26.0477 47.0377C25.8568 46.9745 25.6818 46.8955 25.5068 46.8323L24.9818 46.5954C24.8227 46.5164 24.6318 46.4532 24.4568 46.3742C24.3613 46.3268 24.2818 46.2794 24.1863 46.232C24.0908 46.1688 24.0114 46.1056 23.9318 46.0266C23.6295 45.7581 23.3908 45.4263 23.1999 45.063C23.0249 44.6996 22.9136 44.3046 22.8659 43.9255C22.7545 43.1356 22.8659 42.3615 23.0568 41.6032C23.2477 40.8607 23.5181 40.134 23.8363 39.4389C23.9954 39.0913 24.1704 38.7438 24.3454 38.412C24.5204 38.0803 24.6795 37.7327 24.8545 37.401C24.95 37.2272 25.0454 37.0692 25.1409 36.8954C25.2522 36.7374 25.3637 36.5794 25.4751 36.4215C25.6819 36.1055 25.8887 35.7895 26.1114 35.4736C26.3342 35.1576 26.5727 34.8575 26.8591 34.5889C26.9227 34.5257 27.0182 34.4625 27.0819 34.3993C27.1614 34.352 27.2409 34.2888 27.3363 34.2414L27.4637 34.1781C27.5115 34.1624 27.5591 34.1465 27.6068 34.1307C27.7341 34.0834 27.8614 34.0676 27.9727 34.0518ZM27.925 34.2414C27.8932 34.2572 27.8614 34.2572 27.8136 34.273C27.7977 34.273 27.7818 34.2729 27.7659 34.2887L27.7024 34.3045C27.6547 34.3203 27.6227 34.3361 27.575 34.3519L27.4637 34.4151C27.3842 34.4625 27.3205 34.5099 27.241 34.5573C27.1773 34.6205 27.0978 34.6679 27.0342 34.7311C26.7637 34.9838 26.5409 35.284 26.3341 35.6C26.1273 35.9159 25.9205 36.2319 25.7137 36.5478C25.6023 36.7058 25.491 36.8638 25.3955 37.0218C25.3001 37.1798 25.2046 37.3378 25.125 37.5115C24.95 37.8433 24.7908 38.1909 24.6317 38.5384C24.4726 38.8702 24.2976 39.2177 24.1545 39.5653C23.8522 40.2604 23.5977 40.9555 23.4227 41.6822C23.2477 42.4089 23.1522 43.1514 23.2636 43.8623C23.3113 44.2257 23.4227 44.5732 23.5818 44.8892C23.7409 45.2051 23.9635 45.4895 24.234 45.7265C24.4726 45.9635 24.8227 46.0582 25.1886 46.2162L25.6977 46.4532C25.8727 46.5164 26.0477 46.5954 26.2227 46.6428C26.5727 46.7692 26.9387 46.8481 27.3047 46.9113C27.6706 46.9745 28.0364 46.9903 28.4023 46.9903C29.1341 46.9745 29.8661 46.8323 30.5661 46.5796C30.9161 46.4532 31.2501 46.311 31.5842 46.1372C31.9183 45.9634 32.2524 45.8055 32.5388 45.5843C32.8251 45.3789 33.0798 45.1262 33.1912 44.826C33.2071 44.7944 33.2228 44.747 33.2228 44.7154C33.2388 44.6838 33.2388 44.6364 33.2547 44.589C33.2706 44.5101 33.2865 44.4152 33.3024 44.3363C33.3183 44.1625 33.3343 43.9887 33.3184 43.7991C33.2866 43.0724 33.0639 42.3615 32.7934 41.6822C32.2207 40.292 31.5366 38.9492 30.7252 37.6695C30.3275 37.0376 29.8978 36.4215 29.4364 35.8369C29.1978 35.5368 28.9592 35.2524 28.7047 34.9839C28.5774 34.8417 28.4501 34.7153 28.3069 34.5889C28.2433 34.5099 28.1796 34.4783 28.116 34.4151L27.925 34.2414Z" fill="#07453A"/>
<path d="M29.1027 35.0945C29.1027 35.1103 29.0868 35.1577 29.055 35.1893C29.0231 35.2051 29.0231 35.2051 29.0231 35.2051L29.0071 35.2051C28.9912 35.2051 28.9913 35.2051 28.9913 35.2209C28.9754 35.2209 28.9753 35.2367 28.9594 35.2367L28.9117 35.2683C28.8799 35.2841 28.8481 35.2841 28.8322 35.2999C28.7844 35.3157 28.7208 35.2999 28.6731 35.2999L28.3867 35.2209C28.2913 35.2051 28.1958 35.1735 28.1004 35.1419L28.0685 35.1419L28.0844 35.1419L28.0685 35.1419L28.0525 35.1419L27.989 35.1261C27.9413 35.1261 27.8935 35.1103 27.8457 35.1103C27.6548 35.0945 27.4798 35.0787 27.2889 35.0945C27.098 35.1103 26.939 35.1419 26.7162 35.1893C26.6685 35.2051 26.6048 35.1577 26.6048 35.1103C26.5889 35.0629 26.6207 35.0313 26.6525 34.9997C26.8116 34.9049 27.0185 34.8101 27.2254 34.747C27.4322 34.6996 27.6549 34.6838 27.8617 34.668C27.9095 34.668 27.9731 34.668 28.0208 34.668L28.1004 34.668L28.1162 34.668L28.1321 34.668L28.1639 34.668L28.2116 34.6837C28.3071 34.6995 28.4026 34.7312 28.514 34.747L28.8003 34.8101C28.848 34.8259 28.8958 34.8417 28.9436 34.8733C28.9595 34.8891 28.9912 34.9049 29.0071 34.9207C29.023 34.9365 29.0231 34.9523 29.039 34.9523L29.055 34.9681C29.055 34.9681 29.055 34.9681 29.055 34.9839L29.039 34.9839C29.039 34.9839 29.0389 34.9839 29.0071 34.9997C28.9753 35.0155 28.9594 35.0629 28.9594 35.0787C28.9594 35.0313 29.0072 34.9839 29.055 34.9839C29.055 34.9997 29.1027 35.0313 29.1027 35.0945Z" fill="#07453A"/>
<path d="M29.1183 47.1006C29.2296 46.7214 29.4046 46.3897 29.5637 46.0421C29.7228 45.7103 29.882 45.347 30.0093 44.9994C30.2798 44.2885 30.5024 43.546 30.6774 42.8035C30.8524 42.061 31.0115 41.3027 31.107 40.5444C31.1547 40.1653 31.2184 39.7703 31.2502 39.3911C31.2661 39.2016 31.282 39.012 31.2979 38.8224C31.2979 38.6329 31.2979 38.4433 31.2502 38.2853C31.2343 38.2379 31.266 38.1747 31.3137 38.1589C31.3615 38.1431 31.4092 38.1747 31.4251 38.2221C31.5683 38.6171 31.5366 39.0278 31.5207 39.4227C31.5048 39.6123 31.4887 39.8177 31.4728 40.0073L31.4251 40.5918C31.3615 41.3659 31.2342 42.14 31.0751 42.9141C30.9001 43.6724 30.6933 44.4307 30.4229 45.1732C30.2797 45.5366 30.1364 45.8999 29.9614 46.2633C29.9137 46.358 29.8661 46.437 29.8183 46.5318C29.7706 46.6108 29.707 46.7056 29.6592 46.7846C29.5479 46.9426 29.4046 47.1006 29.2455 47.2269C29.1978 47.2585 29.1342 47.2585 29.1024 47.2111C29.1024 47.1795 29.1024 47.1322 29.1183 47.1006Z" fill="#07453A"/>
<path d="M26.9706 47.0065C27.1296 46.5326 27.257 46.0744 27.3843 45.5847C27.5116 45.0949 27.5911 44.6052 27.7025 44.0997C27.9093 43.1044 28.1478 42.1091 28.3547 41.1139C28.5774 40.1186 28.7524 39.1233 28.8319 38.128C28.9115 37.1169 29.0229 36.1059 28.8956 35.1106C28.8956 35.0632 28.9274 35 28.9752 35C29.0229 35 29.0705 35.0316 29.0864 35.079C29.1978 35.6003 29.2138 36.1059 29.2138 36.6272C29.2138 37.1485 29.1978 37.6541 29.166 38.1596C29.1023 39.1865 28.9591 40.2134 28.7682 41.2086C28.5773 42.2197 28.3387 43.215 28.1319 44.1945C28.0364 44.6842 27.957 45.1898 27.8297 45.6953C27.7661 45.9481 27.6864 46.2008 27.5751 46.4378C27.4637 46.6748 27.3206 46.9117 27.1296 47.1013C27.0819 47.1329 27.0184 47.1329 26.9866 47.1013C26.9707 47.0855 26.9547 47.0381 26.9706 47.0065Z" fill="#07453A"/>
<path d="M25.682 46.4841C25.6661 46.4841 25.6501 46.4683 25.6183 46.4841C25.6024 46.4841 25.5865 46.5157 25.5865 46.4999L25.5706 46.5157C25.5706 46.5315 25.5706 46.5157 25.5706 46.5157C25.5706 46.5157 25.5706 46.5157 25.5706 46.4999L25.5706 46.4683L25.5548 46.3893L25.5229 46.2155C25.507 46.0892 25.4911 45.9786 25.4911 45.8522C25.4752 45.7258 25.4752 45.6152 25.4752 45.4889C25.4752 45.3625 25.4752 45.2361 25.4911 45.1097C25.5229 44.6199 25.5865 44.146 25.6502 43.6563C25.7615 42.7084 25.857 41.7605 25.9365 40.7968C26.0161 39.849 26.0957 38.8853 26.1593 37.9216L26.2229 37.1949C26.2388 36.9579 26.2706 36.7051 26.3024 36.4682L26.398 35.7573L26.4457 35.3939L26.4775 35.2201L26.4933 35.1253C26.5093 35.0937 26.5093 35.0621 26.5252 35.0148C26.557 34.9674 26.6047 34.9516 26.6524 34.9673C26.7002 34.9989 26.7161 35.0463 26.7001 35.0937C26.7001 35.0937 26.7001 35.1253 26.7001 35.1569L26.6843 35.2517L26.6684 35.4255L26.6366 35.7888L26.5729 36.4998C26.557 36.7367 26.5411 36.9737 26.5252 37.2107L26.4933 37.9374C26.4456 38.9011 26.4139 39.8647 26.3503 40.8126C26.2866 41.7763 26.2229 42.74 26.0956 43.7037C26.032 44.1776 25.9843 44.6516 25.9525 45.1255L25.9365 45.473C25.9365 45.5836 25.9206 45.71 25.9047 45.8364C25.8887 45.9628 25.8729 46.0734 25.857 46.1998C25.8411 46.263 25.841 46.3261 25.8251 46.3893L25.7934 46.4841L25.7774 46.5315L25.7616 46.5631C25.7616 46.5789 25.7615 46.5789 25.7456 46.5947C25.7456 46.6105 25.7297 46.6105 25.7297 46.6263C25.7297 46.6263 25.7138 46.6421 25.682 46.6579C25.6661 46.6579 25.6342 46.6579 25.6183 46.6579C25.5706 46.6421 25.5389 46.5789 25.5548 46.5315C25.5707 46.4841 25.6343 46.4683 25.682 46.4841Z" fill="#07453A"/>
<path d="M26.2136 27.6017C25.8721 27.3235 25.63 26.9592 25.438 26.5988C25.2259 26.2275 25.0836 25.8241 24.9613 25.4315C24.7266 24.6283 24.5518 23.811 24.427 22.9974C24.1774 21.3703 24.0775 19.7079 24.0378 18.0779C24.0229 17.254 24.0281 16.4409 24.0432 15.6099C24.0607 15.1998 24.0782 14.7897 24.0957 14.3796C24.1133 13.9695 24.1509 13.5703 24.1684 13.1602C24.2035 12.3401 24.2387 11.5199 24.2438 10.7068C24.2614 10.2967 24.2489 9.89373 24.2464 9.47278C24.234 9.06979 24.2316 8.64884 24.1892 8.25293C24.1889 8.20616 24.2185 8.15222 24.2784 8.13804C24.3284 8.14182 24.3886 8.17444 24.3889 8.22121C24.5038 9.0527 24.4987 9.86578 24.5337 10.7006C24.5486 11.5245 24.5434 12.3376 24.5283 13.1686C24.5108 13.5787 24.4932 13.9888 24.4757 14.3989C24.4581 14.809 24.4406 15.2191 24.453 15.6221C24.4478 16.4352 24.4628 17.2592 24.4777 18.0831C24.5174 19.713 24.637 21.3396 24.8965 22.9488C25.0312 23.7443 25.1859 24.5508 25.4203 25.3071C25.6547 26.0635 25.9092 26.8308 26.3529 27.4907C26.3832 27.5304 26.3735 27.5951 26.3238 27.6381C26.2939 27.6452 26.2438 27.6414 26.2136 27.6017Z" fill="#07453A"/>
<path d="M7.27482 9.61266C7.73619 10.0866 8.16575 10.592 8.59531 11.0976C9.02487 11.6031 9.4385 12.1087 9.85214 12.63C10.6794 13.6569 11.5226 14.6838 12.3818 15.6632C14.1 17.6538 15.9455 19.5337 17.9819 21.2083C19.0001 22.0456 20.0501 22.8356 21.1161 23.6255C22.1661 24.4154 23.232 25.2052 24.3139 25.9635C25.3957 26.7218 26.4776 27.4801 27.5912 28.191C28.1481 28.5385 28.7049 28.8862 29.2935 29.2021C29.5799 29.3601 29.8822 29.5023 30.1845 29.6287C30.3277 29.6919 30.4868 29.7393 30.6459 29.7867C30.789 29.8183 30.964 29.8341 31.0595 29.7867C31.1072 29.7551 31.1709 29.7708 31.2027 29.8181C31.2345 29.8655 31.2186 29.9289 31.1709 29.9447C31.0754 30.0078 30.964 30.0077 30.8686 30.0077C30.7731 30.0077 30.6936 29.9919 30.5981 29.9761C30.4231 29.9445 30.264 29.8813 30.1049 29.8181C29.7867 29.6918 29.4844 29.5496 29.1822 29.4075C28.5935 29.1073 28.0208 28.7755 27.448 28.428C26.3185 27.7328 25.2048 27.0062 24.123 26.2479C23.0411 25.4896 21.9593 24.7155 20.8933 23.9414C20.3524 23.5465 19.8274 23.1515 19.3024 22.7566L18.5069 22.1561L17.7273 21.5401C15.6591 19.8655 13.7977 17.954 12.0477 15.9635C11.1726 14.9682 10.3294 13.9412 9.50214 12.9143C9.0885 12.393 8.67485 11.8718 8.29303 11.3504C7.89529 10.8133 7.51345 10.2919 7.14753 9.73901C7.11571 9.69162 7.13163 9.62836 7.17936 9.59677C7.17936 9.58097 7.243 9.58106 7.27482 9.61266Z" fill="#07453A"/>
<path d="M24.795 26.7414C24.5349 26.7405 24.2848 26.7216 24.0346 26.7028C23.7845 26.6839 23.5344 26.665 23.2941 26.6281L22.5437 26.5715C22.2836 26.5706 22.0536 26.5625 21.7837 26.5796C20.7737 26.6156 19.7745 26.7742 18.7858 27.0083C17.7971 27.2424 16.8188 27.5521 15.8606 27.8727C15.611 27.9475 15.3614 28.0221 15.1319 28.1077C14.8823 28.1824 14.6528 28.268 14.4032 28.3428C13.9241 28.5031 13.415 28.6704 12.9155 28.773C12.8556 28.7872 12.8054 28.7367 12.8051 28.6899C12.8048 28.6431 12.8345 28.5892 12.8743 28.5642C13.3636 28.4327 13.8325 28.2436 14.3215 28.0653C14.561 27.9617 14.8105 27.8869 15.04 27.8014C15.2896 27.7266 15.5192 27.6411 15.7586 27.5375C16.7165 27.1701 17.6846 26.8315 18.7132 26.5724C19.7118 26.3203 20.7508 26.1367 21.8108 26.1044C22.0708 26.1054 22.3308 26.1063 22.6008 26.0892L23.3812 26.1388C23.6514 26.1685 23.9117 26.2163 24.1622 26.282C24.4126 26.3477 24.6732 26.4422 24.9038 26.5438C24.9439 26.5655 24.9844 26.6341 24.9547 26.688C24.8648 26.7093 24.8249 26.7343 24.795 26.7414Z" fill="#07453A"/>
<path d="M29.808 29.7168L29.6529 29.7168L29.5641 29.7168L29.4977 29.7168C29.409 29.7168 29.2982 29.7168 29.2095 29.7168C29.01 29.7168 28.8326 29.7423 28.6331 29.7678C28.2562 29.8189 27.8793 29.8699 27.5024 29.9465C26.7486 30.0997 25.9948 30.304 25.2632 30.5082C23.7778 30.9166 22.3147 31.4016 20.8515 31.9377C20.1199 32.193 19.4105 32.4738 18.6789 32.7546C17.9473 33.0354 17.2378 33.2907 16.5062 33.5715C15.7746 33.8523 15.0652 34.1076 14.3558 34.4139C13.6463 34.7202 12.959 35.0521 12.2717 35.384L12.1388 35.435C12.0945 35.4606 12.0279 35.4861 11.9836 35.5116C11.8727 35.5627 11.7841 35.5882 11.6732 35.6138C11.4737 35.6648 11.2741 35.6903 11.0746 35.7159C10.6755 35.7669 10.2765 35.7669 9.87745 35.7669C9.07934 35.7414 8.30337 35.6648 7.52743 35.4606C7.15055 35.3585 6.77364 35.2308 6.39676 35.0521C6.28591 35.0011 6.19727 34.9245 6.10859 34.8224C6.01991 34.7203 5.95345 34.6181 5.93128 34.4905C5.86477 34.2352 5.90904 34.0055 5.97555 33.8268C6.10857 33.4184 6.30808 33.0865 6.5076 32.7546C6.70713 32.4227 6.92889 32.0909 7.12842 31.7846C7.32795 31.4527 7.52745 31.1208 7.66047 30.7889C7.79349 30.4571 7.88221 30.0742 7.70486 29.8444C7.66052 29.7934 7.61613 29.7168 7.54962 29.6657C7.52745 29.6402 7.48312 29.6147 7.43878 29.5891L7.32793 29.5125C7.17274 29.4104 6.99534 29.3083 6.84015 29.2062C6.5076 29.0275 6.17514 28.8488 5.82043 28.6701C5.13317 28.3382 4.42374 28.032 3.7143 27.7001C3.00487 27.3682 2.29538 27.0363 1.65245 26.5768C1.49727 26.4492 1.34206 26.3215 1.18687 26.1939C1.05385 26.0407 0.920918 25.8621 0.832239 25.6579C0.765729 25.4536 0.743538 25.1983 0.810047 24.9941C0.876556 24.7899 0.987383 24.6112 1.1204 24.458C1.38644 24.1516 1.69684 23.8964 2.02938 23.6921C2.36193 23.4624 2.6945 23.2837 3.04921 23.1051C3.40393 22.9264 3.73643 22.7477 4.11332 22.5945C4.46803 22.4413 4.84492 22.3137 5.2218 22.2116C5.97557 22.0073 6.75149 21.9052 7.52743 21.8286C8.30337 21.7521 9.05721 21.6499 9.81098 21.5223C10.1879 21.4712 10.5648 21.3946 10.9195 21.267C11.0081 21.2415 11.0967 21.1904 11.1632 21.1649C11.2298 21.1138 11.2963 21.0628 11.3185 21.0373C11.3406 21.0117 11.3407 21.0117 11.3407 20.9862L11.3407 20.9607C11.3407 20.9607 11.3407 20.9607 11.3407 20.9352C11.3185 20.9096 11.2519 20.8586 11.1854 20.8075C11.0303 20.7309 10.8529 20.6799 10.6756 20.6543C10.4982 20.6033 10.2987 20.5778 10.1213 20.5522C9.74445 20.5012 9.36752 20.4756 8.96847 20.4501C8.59158 20.4246 8.19259 20.3991 7.8157 20.3991L7.52743 20.3735C7.48309 20.3735 7.4388 20.3735 7.35012 20.348C7.28361 20.3225 7.19495 20.2714 7.15061 20.1948C7.06193 20.0417 7.08404 19.914 7.08404 19.7864C7.10621 19.6843 7.12836 19.5821 7.1727 19.48C7.30571 19.0971 7.50531 18.7653 7.68266 18.4079L7.8157 18.1526C7.83787 18.1015 7.86 18.076 7.88217 18.0249L7.88217 17.9994C7.88217 17.9739 7.86 18.025 7.88217 18.1015C7.88217 18.1271 7.88217 18.1015 7.88217 18.1015L7.85998 18.076C7.83781 18.0505 7.79349 17.9994 7.77132 17.9739L7.66047 17.8463L7.48316 17.6165C6.97325 17.0549 6.41895 16.5188 5.8647 15.9827C5.31046 15.4466 4.73403 14.936 4.17978 14.3744C3.62554 13.8128 3.11568 13.2512 2.67228 12.5875C1.78549 11.2855 1.23127 9.77941 1.03174 8.2222C0.943066 7.43084 0.943001 6.63948 1.07602 5.87364C1.14253 5.49072 1.25338 5.1078 1.40857 4.72488L1.51941 4.44404L1.65245 4.16321L1.80769 3.90793C1.85202 3.83135 1.89639 3.75479 1.94073 3.6782C2.0294 3.49951 2.11804 3.32081 2.22889 3.16764C2.33974 2.98895 2.47278 2.81028 2.69447 2.68264C2.73881 2.65711 2.80528 2.63157 2.87179 2.60604C2.9383 2.58051 3.00487 2.58049 3.04921 2.58049C3.16006 2.55496 3.24872 2.555 3.35957 2.555C3.55909 2.52947 3.78075 2.555 3.98028 2.555C4.80056 2.63158 5.55433 3.01446 6.19725 3.47397C6.84017 3.93347 7.41656 4.46955 7.94864 5.05669C8.48071 5.61831 8.96851 6.23098 9.45624 6.84365C9.94398 7.45633 10.4095 8.06902 10.8973 8.65617C11.385 9.24331 11.8949 9.83043 12.4713 10.2899C12.7596 10.5197 13.0699 10.7239 13.4024 10.826C13.4911 10.8516 13.5798 10.8771 13.6463 10.8771C13.7128 10.8771 13.8015 10.8771 13.868 10.8516C14.0232 10.8005 14.1784 10.7239 14.3336 10.6218C14.644 10.4176 14.91 10.1623 15.176 9.88153C15.442 9.60072 15.686 9.31987 15.9077 9.01353C16.0407 8.86037 16.1515 8.70725 16.2845 8.55408C16.3066 8.52855 16.3289 8.50301 16.3511 8.47748C16.3954 8.47748 16.3288 8.42644 16.5284 8.42644C16.5505 8.42644 16.5727 8.42644 16.5948 8.42644C16.6613 8.45197 16.7279 8.47745 16.7723 8.50297C16.8831 8.57956 16.9496 8.65614 17.0161 8.75826C17.26 9.11565 17.4152 9.47309 17.5482 9.83048C17.8142 10.5708 18.0138 11.3111 18.2133 12.0514C18.3241 12.4343 18.4128 12.7917 18.5236 13.1491C18.568 13.3278 18.6344 13.5065 18.701 13.6852C18.7231 13.7618 18.7675 13.8639 18.8118 13.9405C18.834 13.966 18.8562 14.0171 18.8784 14.0426C18.9006 14.0681 18.9227 14.0936 18.9006 14.0681C18.8784 14.0681 18.9006 14.0681 18.9006 14.0681L18.9227 14.0681C18.9448 14.0681 18.9449 14.0681 18.967 14.0681C18.9892 14.0681 19.0335 14.0681 19.0557 14.0426C19.1222 14.0171 19.1666 13.966 19.2109 13.915C19.2996 13.7873 19.3883 13.6341 19.4326 13.4554C19.5435 13.1236 19.61 12.7407 19.6321 12.3577C19.6543 11.9748 19.6765 11.5919 19.6321 11.2345C19.5878 10.8516 19.5656 10.4431 19.5877 10.0602C19.5877 9.29437 19.6543 8.50297 19.743 7.73713C19.8317 6.97129 19.9425 6.20545 20.0977 5.43961C20.2529 4.67377 20.4524 3.93351 20.7184 3.1932C20.8514 2.8358 21.0067 2.47836 21.2062 2.12097C21.4057 1.78911 21.6274 1.43173 21.9378 1.17645C22.0929 1.04881 22.2703 0.921154 22.4698 0.84457C22.6693 0.767986 22.8911 0.716954 23.1128 0.742483C23.2237 0.742483 23.3345 0.768023 23.4454 0.819079C23.5562 0.870135 23.6449 0.921179 23.7335 0.997763C23.8887 1.15093 24.0218 1.3296 24.1105 1.48277C24.31 1.84016 24.4429 2.1976 24.5759 2.555L24.9529 3.65265C25.0859 4.01004 25.2189 4.36746 25.3963 4.69933C25.4849 4.85249 25.5958 5.00565 25.7066 5.13329C25.8175 5.26093 25.9505 5.33751 26.1278 5.38857C26.4604 5.49068 26.8594 5.49072 27.2363 5.49072C27.6132 5.49072 28.0123 5.46517 28.3892 5.46517C28.5887 5.46517 28.7883 5.46519 28.9878 5.49072C29.0986 5.51625 29.1873 5.5162 29.2982 5.56725C29.409 5.59278 29.5198 5.64389 29.6085 5.746C29.6307 5.77153 29.6528 5.79701 29.675 5.82253C29.6971 5.84806 29.6972 5.8736 29.7194 5.89913L29.7858 6.02677C29.8302 6.10335 29.8745 6.20547 29.9189 6.28205C30.0075 6.46075 30.0962 6.63947 30.1628 6.81816C30.4731 7.53295 30.6726 8.2988 30.8057 9.06464C30.9387 9.83048 31.0052 10.5963 31.0274 11.3877C31.0717 12.9449 30.9165 14.4766 30.717 16.0082C30.5175 17.5399 30.2071 19.0461 29.8967 20.5522L29.409 22.7987C29.2538 23.539 29.1208 24.3049 29.0765 25.0707C29.0321 25.8365 29.0321 26.6024 29.2095 27.3427C29.2982 27.7001 29.409 28.083 29.542 28.4404L29.7416 28.9765C29.7637 29.0786 29.808 29.1552 29.8302 29.2573C29.8524 29.3083 29.8524 29.3594 29.8746 29.4105C29.8746 29.436 29.8967 29.4615 29.8967 29.4871C29.8967 29.5126 29.8967 29.5126 29.8967 29.5381C29.8523 29.6147 29.941 29.5636 29.808 29.7168ZM29.7416 29.5125C29.6085 29.6402 29.6971 29.5636 29.675 29.5891L29.675 29.5636L29.6529 29.5125L29.6085 29.3849L29.4977 29.1296C29.4312 28.9509 29.3647 28.7723 29.2982 28.5936C29.1651 28.2362 29.0543 27.8532 28.9656 27.4703C28.7883 26.7045 28.7882 25.9131 28.8326 25.1473C28.8769 24.3815 29.0099 23.6156 29.1651 22.8498L29.6307 20.6033C29.9411 19.0971 30.2293 17.591 30.4288 16.0593C30.6284 14.5531 30.7613 13.0215 30.717 11.4898C30.6727 9.95812 30.4732 8.42644 29.8746 7.0224C29.8081 6.8437 29.7194 6.69054 29.6307 6.51184C29.5864 6.43526 29.542 6.33314 29.4977 6.25656L29.4312 6.12892C29.409 6.10339 29.409 6.07781 29.3868 6.07781L29.3646 6.05232C29.2759 5.95021 29.0986 5.92466 28.9212 5.89913C28.7439 5.8736 28.5443 5.87364 28.367 5.87364C27.9901 5.87364 27.5911 5.89913 27.2142 5.89913C26.8152 5.89913 26.416 5.89915 26.017 5.79704C25.9061 5.77151 25.8175 5.72046 25.7066 5.6694C25.6179 5.61835 25.5072 5.54175 25.4406 5.46517C25.2855 5.312 25.1746 5.1333 25.0859 4.95461C24.8864 4.59721 24.7533 4.23983 24.6203 3.88244L24.2434 2.78472C24.1104 2.42733 23.9774 2.06994 23.8 1.7636C23.6226 1.45727 23.3788 1.17645 23.0462 1.17645C22.7137 1.15092 22.3812 1.30412 22.1152 1.53388C21.8491 1.76363 21.6274 2.06994 21.4501 2.4018C21.2727 2.73367 21.1175 3.06553 20.9845 3.42292C20.7185 4.13771 20.5411 4.87805 20.3859 5.61836C20.2307 6.35867 20.1198 7.12449 20.0311 7.89033C19.9425 8.65617 19.8982 9.42198 19.876 10.1623C19.876 10.5452 19.876 10.9282 19.9203 11.2856C19.9646 11.694 19.9425 12.0769 19.9203 12.4598C19.876 12.8427 19.8316 13.2512 19.6986 13.6341C19.6321 13.8384 19.5435 14.017 19.4104 14.1957C19.2774 14.3744 19.0114 14.5276 18.7231 14.451C18.5901 14.4 18.568 14.3489 18.5236 14.2979C18.4793 14.2468 18.4572 14.1957 18.435 14.1447C18.3906 14.0426 18.3463 13.966 18.3019 13.8639C18.2354 13.6852 18.169 13.481 18.1246 13.3023C18.0138 12.9193 17.9028 12.562 17.8142 12.179C17.6146 11.4387 17.4151 10.6984 17.1491 9.98361C17.0161 9.62622 16.8831 9.26885 16.6614 8.98804C16.6171 8.91146 16.5505 8.86038 16.5062 8.83485C16.484 8.80932 16.4619 8.80936 16.4397 8.80936L16.4175 8.80936C16.5727 8.78383 16.5062 8.78381 16.5284 8.78381C16.5284 8.78381 16.5062 8.80936 16.484 8.80936C16.3731 8.937 16.2402 9.09016 16.1294 9.24332C15.8855 9.54966 15.6415 9.856 15.3755 10.1368C15.1095 10.4176 14.8213 10.6984 14.4887 10.9281C14.3114 11.0302 14.1341 11.1579 13.9124 11.209C13.8015 11.2345 13.6907 11.26 13.5576 11.2345C13.4246 11.209 13.3359 11.209 13.2251 11.1579C12.826 11.0303 12.4713 10.8005 12.1609 10.5452C11.5401 10.0347 11.0303 9.44755 10.5425 8.8604C10.0548 8.27326 9.58924 7.66056 9.10151 7.04789C8.61377 6.43522 8.14816 5.8481 7.61609 5.28648C7.10619 4.72487 6.55203 4.18878 5.93128 3.7548C5.31052 3.32082 4.62324 2.98895 3.91381 2.91236C3.73645 2.88684 3.55909 2.88684 3.35957 2.91236C3.27089 2.91236 3.18217 2.93792 3.09349 2.93792C3.04915 2.93792 3.00481 2.93788 2.98264 2.96341C2.96047 2.96341 2.91615 2.98892 2.89398 3.01445C2.78313 3.09104 2.65011 3.21871 2.56143 3.37188C2.47276 3.52505 2.38403 3.67819 2.29535 3.85689C2.25102 3.93347 2.20676 4.03558 2.16242 4.11217L2.02938 4.34196L1.91853 4.59724L1.80769 4.85252C1.67467 5.20991 1.56384 5.56729 1.49733 5.92468C1.36431 6.665 1.36425 7.40532 1.43076 8.17116C1.60811 9.65179 2.14019 11.1324 2.98264 12.3833C3.40386 12.996 3.91379 13.583 4.44586 14.1191C4.97794 14.6552 5.55435 15.1913 6.10859 15.7274C6.66284 16.2635 7.23923 16.7996 7.74913 17.3867L7.92655 17.6165L8.01521 17.7186C8.03738 17.7441 8.08172 17.7952 8.12606 17.8207L8.14825 17.8463C8.17042 17.8718 8.17036 17.8718 8.19253 17.9229C8.23687 18.025 8.19253 18.1015 8.19253 18.1015L8.17033 18.1526C8.14816 18.2036 8.12604 18.2547 8.10387 18.2802L7.94864 18.5355C7.77128 18.8674 7.57182 19.1993 7.46097 19.5311C7.4388 19.6077 7.41656 19.7098 7.39439 19.7864C7.37222 19.863 7.39439 19.9395 7.39439 19.9395C7.39439 19.9395 7.39441 19.9395 7.41658 19.9395C7.41658 19.9395 7.48309 19.9396 7.52743 19.9651L7.8157 19.9906C8.19259 20.0161 8.59158 20.0161 8.96847 20.0672C9.36752 20.0927 9.74447 20.1183 10.1435 20.1693C10.3431 20.1949 10.5425 20.2204 10.7199 20.2714C10.9194 20.3225 11.119 20.3735 11.3185 20.4501C11.4072 20.5012 11.518 20.5522 11.6066 20.6799C11.6288 20.7054 11.651 20.7564 11.651 20.782C11.651 20.8075 11.6732 20.8586 11.6732 20.9096C11.6732 20.9862 11.651 21.0628 11.6066 21.1139C11.518 21.2415 11.4293 21.2925 11.3407 21.3436C11.252 21.3946 11.1411 21.4457 11.0524 21.4712C10.6755 21.5989 10.2765 21.6754 9.89964 21.7265C9.1237 21.8541 8.34778 21.9307 7.59401 22.0073C6.81807 22.0839 6.06425 22.186 5.33265 22.3903C4.95577 22.4924 4.60107 22.62 4.24636 22.7476C3.89164 22.9008 3.55905 23.054 3.20434 23.2327C2.87179 23.4114 2.53924 23.59 2.2067 23.8198C1.89632 24.024 1.58599 24.2538 1.36429 24.5346C1.25344 24.6622 1.16472 24.8154 1.09821 24.9941C1.05387 25.1473 1.05389 25.3259 1.1204 25.4791C1.23125 25.7854 1.5195 26.0407 1.82988 26.2705C2.45063 26.7045 3.15997 27.0363 3.84724 27.3427C4.55667 27.649 5.2661 27.9809 5.95336 28.3127C6.30808 28.4914 6.66284 28.6446 6.99538 28.8489C7.17274 28.951 7.32788 29.0531 7.50524 29.1552L7.63828 29.2318C7.68262 29.2573 7.72698 29.2828 7.77132 29.3083C7.86 29.3849 7.9487 29.4615 8.01521 29.5636C8.14823 29.7678 8.1925 30.0231 8.17033 30.2273C8.14816 30.4571 8.08172 30.6358 8.01521 30.84C7.86002 31.2229 7.66049 31.5548 7.46097 31.8867C7.26144 32.2185 7.0397 32.5504 6.86234 32.8822C6.66281 33.2141 6.48552 33.546 6.37467 33.8779C6.33033 34.0566 6.30812 34.2097 6.33029 34.3374C6.37463 34.465 6.46335 34.5671 6.59637 34.6437C6.90675 34.7969 7.28357 34.9245 7.63828 35.0011C8.36988 35.1798 9.14587 35.2563 9.89964 35.2563C10.2765 35.2563 10.6534 35.2308 11.0303 35.1798C11.2077 35.1542 11.4072 35.1287 11.5624 35.0777C11.651 35.0521 11.7397 35.0266 11.8063 35.0011C11.8506 34.9755 11.8728 34.9756 11.9171 34.95L12.05 34.899C12.7373 34.5671 13.4689 34.2353 14.1784 33.9545C14.8878 33.6481 15.6195 33.3928 16.3511 33.1375C17.0827 32.8822 17.8142 32.627 18.5236 32.3462C19.2552 32.0654 19.9868 31.8101 20.7184 31.5548C22.1816 31.0442 23.667 30.5847 25.1746 30.2018C25.9283 29.9976 26.6821 29.8189 27.458 29.6912C27.8349 29.6146 28.234 29.5636 28.6109 29.5125C28.8104 29.487 29.01 29.4871 29.1873 29.4871C29.276 29.4871 29.3868 29.4871 29.4755 29.4871L29.542 29.4871L29.6085 29.4871L29.7416 29.5125Z" fill="#07453A"/>
</svg>
