<svg width="156" height="84" viewBox="0 0 156 84" fill="none" xmlns="http://www.w3.org/2000/svg">
<path d="M7.16385 22.3345C13.3298 21.7096 19.5163 21.442 25.7176 21.4297C31.9147 21.433 38.1108 21.6874 44.2663 22.2159C50.4375 22.7485 56.5722 23.5395 62.6664 24.6046L64.9479 25.026L66.0829 25.2268C66.4664 25.2951 66.85 25.3634 67.2293 25.4474L69.4981 25.9157C70.2609 26.068 71.0082 26.2161 71.7627 26.3996L74.0229 26.8992L75.1609 27.1511L76.2862 27.4498L76.8489 27.5992C77.0364 27.649 77.2197 27.7145 77.4073 27.7643L78.5199 28.1099C78.8908 28.2251 79.2574 28.356 79.624 28.4868L80.724 28.8794C83.633 29.9533 86.4685 31.1753 89.2588 32.5026C92.0491 33.8298 94.7984 35.2467 97.4827 36.7804C98.1509 37.1588 98.8107 37.5686 99.4789 37.947C100.139 38.3568 100.798 38.7665 101.442 39.1721C102.078 39.609 102.738 40.0187 103.365 40.4868L103.842 40.8311L104.082 40.9954L104.318 41.1754L105.227 41.9026C106.393 42.916 107.588 43.8867 108.816 44.799C110.043 45.7113 111.314 46.585 112.618 47.4004C113.922 48.2157 115.25 49.0039 116.578 49.7921L118.57 50.9744L119.059 51.2718L119.304 51.4205L119.362 51.4528L119.42 51.485C119.447 51.5089 119.494 51.5213 119.541 51.5338C119.881 51.6407 120.261 51.658 120.642 51.6753C121.403 51.7098 122.181 51.6818 122.944 51.6497C123.706 51.6176 124.489 51.574 125.255 51.5262L129.895 51.2166C132.978 51.0297 136.087 50.8668 139.185 50.9351C140.731 50.9771 142.281 51.0701 143.816 51.2767C144.587 51.3977 145.354 51.5343 146.105 51.7335C146.851 51.9483 147.584 52.2101 148.283 52.5968C148.326 52.6249 148.345 52.6801 148.312 52.7385C148.284 52.7812 148.228 52.8 148.17 52.7678C147.502 52.3893 146.78 52.1474 146.05 51.9368C145.315 51.7418 144.548 51.6051 143.792 51.4883C142.273 51.2858 140.723 51.1928 139.188 51.1706C136.102 51.122 133.012 51.2735 129.921 51.4917L125.293 51.821C124.526 51.8687 123.74 51.928 122.977 51.9601C122.199 51.9881 121.436 52.0202 120.64 51.993C120.244 51.9716 119.863 51.9543 119.441 51.8423C119.394 51.8298 119.331 51.8133 119.289 51.7852L119.215 51.7488L119.157 51.7166L118.912 51.5679L118.423 51.2704L116.431 50.0882C115.103 49.2999 113.775 48.5117 112.471 47.6964C111.167 46.8811 109.88 46.0032 108.637 45.0868C107.394 44.1703 106.188 43.1799 105.017 42.1821L104.124 41.459L103.904 41.2832L103.663 41.1188L103.202 40.7787C102.591 40.3147 101.931 39.905 101.291 39.4837C100.651 39.0625 99.9873 38.6685 99.3275 38.2587C98.6636 37.8646 97.9996 37.4705 97.3314 37.092C94.6586 35.5781 91.9093 34.1613 89.1346 32.8382C86.3401 31.5265 83.5244 30.2931 80.6268 29.2389L79.5382 28.8661C79.1716 28.7353 78.8206 28.6086 78.4497 28.4934L77.3527 28.1519C77.1651 28.1021 76.9819 28.0367 76.7943 27.9869L76.2317 27.8375L75.122 27.5429L73.984 27.291L71.7237 26.7914C70.9651 26.6235 70.2178 26.4754 69.4549 26.3231L67.1819 25.8704C66.8026 25.7865 66.419 25.7181 66.0511 25.654L64.9161 25.4532L62.6346 25.0317C56.5561 23.9708 50.4171 23.1954 44.2615 22.6669C38.106 22.1385 31.9255 21.8883 25.7555 21.9089C19.5783 21.8941 13.3918 22.1617 7.22678 22.5355C7.17566 22.5387 7.12157 22.4908 7.11863 22.4397C7.06879 22.3762 7.11274 22.3377 7.16385 22.3345Z" fill="#07453A"/>
<path d="M148.34 52.5869C148.134 53.1009 147.854 53.5786 147.563 54.0365C147.271 54.4944 146.98 54.9524 146.688 55.4103C146.089 56.3221 145.48 57.2141 144.854 58.1019C144.244 58.9939 143.618 59.8817 143.024 60.7779C142.717 61.2317 142.43 61.674 142.154 62.1361C142.024 62.3692 141.893 62.6023 141.783 62.824C141.734 62.9447 141.688 63.0497 141.679 63.1475L141.655 63.5428C141.588 64.5953 141.756 65.6435 142.086 66.6509C142.416 67.6583 142.873 68.6322 143.353 69.5791C143.845 70.5458 144.361 71.4854 144.813 72.4749C145.285 73.453 145.697 74.4655 145.995 75.5312L146.006 75.5509C145.753 76.0525 145.842 75.7248 145.797 75.8299L145.741 75.8487L145.655 75.8592L145.497 75.8843C145.391 75.9063 145.289 75.9127 145.171 75.9149C144.951 75.9234 144.746 75.9362 144.531 75.9292C144.095 75.9307 143.687 75.8895 143.264 75.8443C142.422 75.7381 141.601 75.5539 140.793 75.3229C139.985 75.0919 139.189 74.8141 138.413 74.5248C138.02 74.3703 137.642 74.22 137.248 74.0655C136.87 73.9151 136.481 73.745 136.092 73.5748C134.561 72.9183 133.076 72.1566 131.619 71.3522C130.163 70.5479 128.742 69.6697 127.347 68.7644C125.951 67.8591 124.579 66.9268 123.211 65.9788C121.839 65.0465 120.491 64.087 119.087 63.2129C118.385 62.7759 117.678 62.3545 116.955 61.9955C116.585 61.8139 116.207 61.6635 115.832 61.5641C115.739 61.5392 115.645 61.5144 115.547 61.5051L115.402 61.4835L115.253 61.4774L114.634 61.4136L113.392 61.3017C112.984 61.2606 112.572 61.235 112.145 61.2054L110.898 61.109L109.663 61.0324C103.035 60.6469 96.3759 60.6879 89.7165 60.7288C83.0571 60.7697 76.4048 60.8459 69.7434 60.5852C66.4126 60.4549 63.0874 60.2424 59.7803 59.9009C56.4733 59.5594 53.1731 59.0692 49.9079 58.3875C49.1026 58.2075 48.2774 58.0389 47.4763 57.8433L46.269 57.54C45.8585 57.4479 45.4607 57.3089 45.0701 57.2054L43.8713 56.8708L42.685 56.4895L42.0841 56.2968C41.8852 56.2273 41.6822 56.1734 41.4875 56.0884L40.3139 55.6602C37.1996 54.4834 34.2138 52.9559 31.3851 51.2192C28.5606 49.4669 25.8578 47.5127 23.2754 45.4232C20.693 43.3336 18.2309 41.1087 15.8495 38.7714L14.9632 37.9009L14.0968 37.0189C13.5192 36.4309 12.9459 35.8273 12.3725 35.2237C11.2414 34.0207 10.0748 32.825 9.04 31.5137C8.51478 30.856 8.02496 30.1909 7.599 29.4759C7.17303 28.7608 6.79099 28.0073 6.53945 27.2047C6.47657 27.004 6.42931 26.8075 6.37065 26.5913C6.32762 26.3792 6.28042 26.1827 6.27286 25.9632C6.21805 25.5473 6.21855 25.1126 6.26593 24.6903C6.34507 23.8415 6.6983 23.032 7.17101 22.3378C7.19931 22.2951 7.27023 22.2804 7.31288 22.3085C7.35552 22.3365 7.36986 22.4072 7.34156 22.4499C6.8887 23.1326 6.5638 23.8995 6.47748 24.7129C6.43432 25.1195 6.44227 25.5231 6.49709 25.9391C6.50887 26.1429 6.55615 26.3394 6.60341 26.5359C6.65067 26.7324 6.69792 26.9289 6.7608 27.1295C7.27655 28.6879 8.20789 30.0722 9.23131 31.3638C10.2704 32.6595 11.4255 33.8354 12.5567 35.0384C13.13 35.642 13.7035 36.2456 14.2853 36.818L15.1517 37.7L16.0379 38.5705C18.4121 40.8724 20.8741 43.0973 23.4608 45.1713C26.0474 47.2452 28.7389 49.1797 31.5519 50.9122C34.3849 52.6333 37.3395 54.1525 40.4424 55.3096L41.6002 55.7336C41.7991 55.8031 41.9981 55.8725 42.1814 55.9378L42.7666 56.1264L43.9528 56.5078L45.1517 56.8424C45.5579 56.9501 45.9443 57.0692 46.3506 57.1769L47.5579 57.4803C48.3548 57.6915 49.1685 57.8403 49.9895 58.0245C53.239 58.702 56.5236 59.188 59.8306 59.5295C63.1377 59.871 66.4473 60.0794 69.778 60.2098C76.4239 60.4663 83.0762 60.39 89.7398 60.3335C96.4035 60.277 103.063 60.236 109.71 60.6101L110.961 60.6908L112.208 60.7872C112.62 60.8127 113.047 60.8424 113.455 60.8835L114.697 60.9955L115.316 61.0593L115.481 61.0694L115.641 61.0952C115.755 61.1086 115.864 61.1377 115.974 61.1667C116.395 61.2785 116.785 61.4486 117.174 61.6187C117.929 61.986 118.651 62.4116 119.364 62.8684C120.78 63.7622 122.132 64.706 123.504 65.6384C124.876 66.5707 126.248 67.5031 127.628 68.4042C129.028 69.2939 130.433 70.168 131.874 70.9682C133.315 71.7684 134.785 72.526 136.319 73.1669C137.838 73.8038 139.377 74.4291 140.967 74.8672C141.759 75.094 142.564 75.2741 143.375 75.372C143.783 75.4131 144.19 75.4543 144.595 75.4444C144.795 75.4473 144.999 75.4346 145.204 75.4219C145.29 75.4114 145.393 75.405 145.499 75.383L145.641 75.3537L145.712 75.3391L145.732 75.3277C145.706 75.4213 145.826 75.1018 145.582 75.5722L145.589 75.6076C145.294 74.5929 144.893 73.6001 144.437 72.6262C143.981 71.6522 143.465 70.7126 142.989 69.7501C142.497 68.7835 142.045 67.7938 141.708 66.7511C141.37 65.7083 141.203 64.5937 141.272 63.4745L141.3 63.0637C141.33 62.8879 141.388 62.736 141.453 62.6195C141.572 62.3666 141.722 62.122 141.852 61.8889C142.148 61.4154 142.435 60.973 142.742 60.5192C143.352 59.6272 143.993 58.7435 144.619 57.8557C145.245 56.9678 145.882 56.0998 146.507 55.2119C146.81 54.7737 147.117 54.3199 147.409 53.862C147.7 53.4041 147.992 52.9461 148.205 52.4675C148.218 52.4206 148.293 52.3904 148.336 52.4184C148.334 52.485 148.369 52.5442 148.34 52.5869Z" fill="#07453A"/>
<path d="M51.414 23.255C51.3073 23.9587 51.1695 24.6542 51.0317 25.3497C50.8939 26.0451 50.7405 26.7364 50.5716 27.4235L49.6204 31.5632C48.9915 34.3244 48.3739 37.1052 47.7295 39.8622C47.0653 42.6305 46.3742 45.3752 45.6167 48.1188C44.8438 50.8582 44.0128 53.5656 43.0688 56.2596C43.0563 56.3062 42.997 56.3404 42.9349 56.3239C42.8883 56.3115 42.8543 56.2525 42.871 56.1904C43.7642 53.4995 44.5485 50.7797 45.2748 48.0278C45.997 45.2915 46.6612 42.5231 47.3057 39.7661C47.9502 37.0091 48.5522 34.2241 49.1656 31.4589L50.1054 27.2996C50.4276 25.9211 50.7696 24.5312 51.2162 23.1857C51.2287 23.1392 51.288 23.1051 51.3501 23.1216C51.3884 23.165 51.4111 23.2043 51.414 23.255Z" fill="#07453A"/>
<path d="M52.5573 23.5746C52.4256 24.9872 52.1808 26.3864 51.9205 27.7815L51.124 31.9627C50.5878 34.7488 50.0516 37.5349 49.4844 40.3127C48.9016 43.0864 48.3032 45.8559 47.6696 48.6327C47.0402 51.394 46.3599 54.1584 45.6372 56.8949C45.6246 56.9415 45.5654 56.9757 45.5188 56.9633C45.4721 56.9509 45.4382 56.8919 45.4507 56.8454C46.1113 54.0923 46.7407 51.331 47.3432 48.546C47.9416 45.7764 48.5088 42.9986 49.0605 40.2167C49.6122 37.4347 50.1484 34.6486 50.6691 31.8584L51.45 27.6731C51.5724 26.9735 51.7103 26.2781 51.8638 25.5867C52.0173 24.8954 52.1708 24.204 52.3553 23.5209C52.3679 23.4743 52.4271 23.4401 52.4738 23.4525C52.5317 23.4846 52.5544 23.5239 52.5573 23.5746Z" fill="#07453A"/>
<path d="M55.7889 24.0024C55.4469 25.3923 55.105 26.7824 54.7941 28.1806C54.4832 29.5788 54.2034 30.9853 53.9236 32.3918C53.6438 33.7983 53.3796 35.209 53.0645 36.6228C52.7381 38.0169 52.4075 39.4265 52.0655 40.8165C51.3774 43.612 50.678 46.3878 50.0251 49.176C49.3567 51.9601 48.7308 54.7721 48.2023 57.5934C48.1897 57.64 48.1461 57.6783 48.0797 57.6773C48.0331 57.6649 47.9948 57.6214 47.996 57.5552C48.4779 54.7215 49.0374 51.9085 49.6789 49.1006C50.3048 46.2886 50.9732 43.5045 51.6458 40.7049C51.9722 39.3108 52.3142 37.9208 52.6293 36.507C52.9402 35.1088 53.2044 33.6981 53.4686 32.2875C53.7328 30.8768 54.0126 29.4703 54.3277 28.0566C54.6386 26.6583 55.0355 25.2497 55.5952 23.9176C55.6077 23.871 55.6824 23.841 55.7249 23.8689C55.7673 23.8968 55.8014 23.9558 55.7889 24.0024Z" fill="#07453A"/>
<path d="M57.7749 24.4293C57.5413 25.8483 57.2611 27.2549 56.981 28.6614C56.7008 30.0679 56.4517 31.4828 56.2181 32.9017C55.7355 35.7355 55.3151 38.5857 54.8014 41.4112C54.2834 44.2522 53.6454 47.0447 53.0342 49.8609C52.4075 52.673 51.8004 55.4737 51.3686 58.3043C51.356 58.3508 51.3082 58.4046 51.2616 58.3923C51.2149 58.3799 51.1767 58.3364 51.1738 58.2857C51.5476 55.4231 52.1079 52.61 52.688 49.7855C53.2837 46.9651 53.8906 44.1644 54.3733 41.3307C54.8714 38.5011 55.2877 35.6664 55.759 32.813C55.9925 31.394 56.2416 29.9793 56.526 28.5572C56.8062 27.1506 57.1372 25.741 57.5926 24.3643C57.6051 24.3178 57.6643 24.2835 57.7265 24.3001C57.7534 24.3238 57.7874 24.3828 57.7749 24.4293Z" fill="#07453A"/>
<path d="M60.0679 24.6904C59.8809 26.1217 59.6318 27.5365 59.363 28.9628C59.0983 30.3734 58.8605 31.8079 58.627 33.2268L57.2481 41.7798C57.0146 43.1988 56.7613 44.6291 56.4769 46.0512C56.1925 47.4733 55.8967 48.8758 55.5968 50.2937C54.9855 53.11 54.339 55.9335 53.8055 58.7704C53.7929 58.817 53.7492 58.8553 53.6828 58.8543C53.6362 58.8419 53.5979 58.7985 53.5992 58.7322C54.086 55.8829 54.6662 53.0584 55.2506 50.2183C55.535 48.7963 55.8308 47.3939 56.0841 45.9635C56.3487 44.5528 56.5865 43.1184 56.8045 41.6953L58.1522 33.134C58.3858 31.7151 58.6236 30.2806 58.8727 28.8658C59.1415 27.4396 59.4415 26.0217 59.8503 24.6326C59.8628 24.586 59.9221 24.5518 59.9687 24.5642C60.0422 24.6004 60.0649 24.6397 60.0679 24.6904Z" fill="#07453A"/>
<path d="M62.0686 24.9216C61.8308 26.3562 61.5506 27.7629 61.2548 29.1654C60.9549 30.5834 60.6903 31.9941 60.4256 33.4049C59.9076 36.2461 59.4362 39.0996 58.969 41.9377C58.4821 44.7871 57.9797 47.6324 57.5125 50.4705C57.0411 53.324 56.6051 56.1703 56.2976 59.0341C56.3005 59.0848 56.2371 59.1345 56.1905 59.1221C56.1396 59.1253 56.09 59.0622 56.1026 59.0156C56.3635 56.1394 56.7416 53.2611 57.1777 50.4148C57.6179 47.5529 58.1007 44.719 58.541 41.8572C59.0123 39.0036 59.4639 36.1615 59.9861 33.3048C60.2394 31.8744 60.5196 30.4678 60.804 29.0456C61.104 27.6276 61.4351 26.2178 61.8905 24.8411C61.9031 24.7945 61.9623 24.7603 62.0245 24.7768C62.043 24.8317 62.0812 24.8751 62.0686 24.9216Z" fill="#07453A"/>
<path d="M64.7258 25.248C64.5347 26.6948 64.2503 28.1169 63.9504 29.5349L63.0195 33.7804C62.4041 36.6122 61.8043 39.4481 61.2667 42.3005C60.7135 45.1487 60.2266 47.998 59.7511 50.8669C59.2757 53.7358 58.8044 56.5892 58.3134 59.454C58.3008 59.5006 58.2571 59.5389 58.1907 59.5379C58.1441 59.5256 58.1058 59.4821 58.1071 59.4159C58.5473 56.5542 58.9564 53.6843 59.4008 50.8072C59.841 47.9455 60.3009 45.0724 60.823 42.2158C61.3607 39.3634 61.945 36.5235 62.549 33.6721L63.4643 29.4224C63.7642 28.0044 64.0952 26.5947 64.5237 25.1943C64.5363 25.1477 64.5955 25.1135 64.6422 25.1259C64.7043 25.1424 64.7229 25.1973 64.7258 25.248Z" fill="#07453A"/>
<path d="M66.8744 25.8522C66.7228 27.2762 66.4737 28.691 66.1935 30.0976L65.3376 34.3131L63.5945 42.7358C63.0186 45.5448 62.4427 48.3537 61.929 51.1791C61.3998 54.0005 60.9214 56.8187 60.5207 59.6576C60.5082 59.7042 60.4603 59.758 60.4137 59.7456C60.367 59.7332 60.3288 59.6897 60.3258 59.639C60.6799 56.7878 61.1116 53.9572 61.5942 51.1235C62.0923 48.2939 62.6216 45.4726 63.1819 42.6595L64.9095 34.2326L65.7655 30.0172C65.9035 29.3216 66.0456 28.6106 66.2033 27.9037C66.3611 27.1968 66.5302 26.5095 66.719 25.8109C66.7316 25.7643 66.7908 25.7302 66.8374 25.7426C66.853 25.7467 66.8715 25.8015 66.8744 25.8522Z" fill="#07453A"/>
<path d="M68.7296 26.1128C68.7066 27.5543 68.4845 28.9929 68.1888 30.3953C67.8932 31.7977 67.5466 33.2032 67.2354 34.6015L66.282 38.8077L65.2976 43.0056C64.6399 45.8095 63.9864 48.5978 63.4262 51.4108C63.146 52.8173 62.897 54.2322 62.6635 55.6511C62.4455 57.0741 62.2629 58.4899 62.1113 59.914C62.1142 59.9647 62.0508 60.0143 62.0042 60.002C61.9534 60.0051 61.9038 59.942 61.9164 59.8954C62.1418 57.0267 62.5622 54.1765 63.0758 51.351C63.6049 48.5297 64.2316 45.7176 64.8582 42.9056L65.8271 38.7035L66.7649 34.4931C67.0761 33.0948 67.4226 31.6894 67.7141 30.3025C68.0098 28.9001 68.2702 27.5049 68.5192 26.0902C68.5318 26.0436 68.5754 26.0052 68.6418 26.0062C68.6884 26.0186 68.7267 26.062 68.7296 26.1128Z" fill="#07453A"/>
<path d="M70.794 26.4794C70.6579 27.9076 70.4285 29.311 70.1639 30.7217C69.9034 32.1169 69.6232 33.5234 69.343 34.93L67.6589 43.3186C67.0872 46.1121 66.5155 48.9055 65.9748 51.7073C65.4695 54.5017 65.1662 57.3498 64.5436 60.1464C64.5311 60.193 64.4874 60.2313 64.421 60.2303C64.3744 60.2179 64.3362 60.1745 64.3374 60.1083C64.9091 57.3148 65.1419 54.4812 65.6245 51.6474C66.1341 48.8375 66.6747 46.0358 67.2153 43.2341L68.8683 34.8372C69.1443 33.4462 69.4089 32.0355 69.6694 30.6403C69.9298 29.2452 70.2101 27.8386 70.568 26.4527C70.5806 26.4061 70.6398 26.3719 70.6864 26.3843C70.7683 26.3894 70.8066 26.4328 70.794 26.4794Z" fill="#07453A"/>
<path d="M72.3975 26.888C72.332 28.3018 72.1731 29.6907 71.9987 31.0756L71.467 35.2613C71.114 38.0466 70.7454 40.8278 70.3415 43.6162C69.9376 46.4046 69.4871 49.1807 68.9433 51.932C68.3995 54.6832 67.8205 57.4417 67.4053 60.2105C67.3927 60.2571 67.3448 60.311 67.2981 60.2986C67.2515 60.2862 67.2132 60.2427 67.2103 60.192C67.5788 57.4109 68.1113 54.6399 68.6084 51.8763C69.1211 49.1167 69.5363 46.348 69.9205 43.5709C70.3046 40.7939 70.6576 38.0086 71.0107 35.2233L71.5424 31.0376C71.721 29.6372 71.9265 28.2606 72.2337 26.8777C72.2463 26.8311 72.3055 26.797 72.3564 26.7938C72.3564 26.7938 72.3946 26.8373 72.3975 26.888Z" fill="#07453A"/>
<path d="M74.7862 27.3405C74.561 28.7285 74.2933 30.0885 74.006 31.46C73.7186 32.8315 73.4665 34.1956 73.2102 35.5754C72.7173 38.3234 72.2556 41.0797 71.7741 43.8474C71.2968 46.5996 70.7998 49.3631 70.3733 52.1121C69.9271 54.8726 69.5473 57.634 69.2763 60.4244C69.2793 60.4751 69.2159 60.5247 69.1692 60.5124C69.1184 60.5155 69.0688 60.4524 69.0814 60.4058C69.286 57.6145 69.6234 54.8252 70.0229 52.0524C70.4225 49.2796 70.8843 46.5232 71.346 43.7669C71.8077 41.0106 72.2539 38.2502 72.751 35.4866C72.9917 34.1028 73.2635 32.7272 73.5354 31.3517C73.8228 29.9802 74.1412 28.617 74.5882 27.2713C74.6008 27.2247 74.6601 27.1905 74.7223 27.207C74.7647 27.2349 74.7988 27.2939 74.7862 27.3405Z" fill="#07453A"/>
<path d="M76.8939 27.9845C76.7745 29.3507 76.5773 30.6962 76.3491 32.0336L75.6757 36.0653C75.2305 38.7597 74.8051 41.4426 74.3952 44.1297C73.9854 46.8168 73.6067 49.5121 73.259 52.2157C72.9114 54.9193 72.5989 57.6156 72.3332 60.3243C72.3361 60.375 72.2727 60.4247 72.2261 60.4123C72.1752 60.4155 72.1257 60.3524 72.1383 60.3058C72.3574 57.5847 72.6075 54.8719 72.9241 52.1601C73.2407 49.4482 73.6038 46.7487 73.9826 44.0533C74.3769 41.3621 74.791 38.6596 75.2362 35.9653L75.894 31.9294C76.1222 30.5921 76.3702 29.2433 76.7115 27.9194C76.7241 27.8728 76.7834 27.8386 76.83 27.8509C76.8682 27.8944 76.9065 27.9379 76.8939 27.9845Z" fill="#07453A"/>
<path d="M79.0145 28.698C78.919 30.0374 78.6949 31.3592 78.4553 32.677C78.2157 33.9947 77.9803 35.2969 77.807 36.6156C77.4605 39.2531 77.1607 41.9028 76.8567 44.5682C76.699 45.891 76.5413 47.2139 76.3638 48.5482C76.1906 49.8669 75.9976 51.197 75.8088 52.5116C75.4271 55.1563 75.0496 57.7855 74.8783 60.4528C74.8813 60.5035 74.8334 60.5574 74.7712 60.5409C74.7203 60.544 74.6665 60.4964 74.6833 60.4343C74.8037 57.7701 75.1233 55.1089 75.4584 52.4518C75.6317 51.1331 75.8091 49.7989 75.9823 48.4802C76.14 47.1573 76.2977 45.8345 76.4399 44.5075C76.7397 41.8577 77.0239 39.2037 77.3746 36.5507C77.5323 35.2279 77.7761 33.8946 78.0115 32.5924C78.2511 31.2747 78.5332 29.9849 78.8548 28.6723C78.8674 28.6257 78.9267 28.5915 78.9733 28.6039C78.9889 28.608 79.0115 28.6473 79.0145 28.698Z" fill="#07453A"/>
<path d="M81.2881 29.3363C81.1657 30.6519 80.95 31.9427 80.7187 33.2294C80.4875 34.516 80.2562 35.8027 80.0561 37.0976C79.6558 39.6875 79.4153 42.3032 79.1789 44.9033C78.9383 47.5189 78.7132 50.1386 78.344 52.7368C77.9748 55.3349 77.4927 57.9197 77.2054 60.5229C77.2084 60.5736 77.145 60.6233 77.0983 60.6109C77.0475 60.6141 76.9978 60.551 77.0104 60.5044C77.251 57.8887 77.6555 55.2834 77.9894 52.6925C78.3431 50.0902 78.5328 47.4778 78.7381 44.8694C78.9631 42.2497 79.1881 39.6299 79.5926 37.0245C79.7927 35.7296 80.0126 34.4233 80.2439 33.1366C80.4751 31.8499 80.7416 30.5559 81.0859 29.2826C81.0985 29.2361 81.1577 29.2018 81.2044 29.2142C81.2624 29.2463 81.3007 29.2897 81.2881 29.3363Z" fill="#07453A"/>
<path d="M83.4043 30.3661C83.2945 31.635 83.107 32.8834 82.9153 34.1472C82.708 35.4069 82.5205 36.6552 82.3288 37.9191C81.9496 40.4312 81.5858 42.9475 81.2222 45.4638C81.0305 46.7277 80.8585 47.9801 80.6513 49.2398C80.444 50.4995 80.2212 51.7551 80.0181 52.9993C79.5922 55.499 79.213 58.0112 79.1615 60.5439C79.1645 60.5946 79.1166 60.6484 79.0502 60.6474C78.9994 60.6506 78.9456 60.603 78.9427 60.5523C78.9475 58.0073 79.2687 55.4631 79.6635 52.9551C79.8552 51.6912 80.0738 50.4512 80.2655 49.1873C80.4531 47.939 80.6137 46.6669 80.7856 45.4145C81.1338 42.894 81.4819 40.3736 81.8611 37.8614C82.0528 36.5976 82.2404 35.3493 82.4321 34.0854C82.6393 32.8257 82.8621 31.5702 83.2093 30.3476C83.2219 30.301 83.2811 30.2668 83.3277 30.2792C83.3786 30.2761 83.4013 30.3154 83.4043 30.3661Z" fill="#07453A"/>
<path d="M85.5805 31.1784C85.5807 31.7942 85.5455 32.4173 85.4948 33.0363C85.4441 33.6552 85.3779 34.27 85.2961 34.8807L85.0508 36.7128L84.7856 38.5562C84.4232 41.0063 84.0142 43.4439 83.6051 45.8815C83.1805 48.315 82.7714 50.7527 82.3779 53.1944C81.9844 55.6362 81.6261 58.0707 81.3301 60.5217C81.333 60.5724 81.2696 60.6222 81.2229 60.6098C81.1763 60.5974 81.1381 60.554 81.1351 60.5033C81.369 58.0357 81.6806 55.5888 82.0274 53.1347C82.3899 50.6846 82.7834 48.2429 83.1571 45.8125C83.5507 43.3708 83.9442 40.929 84.3024 38.4945L84.5633 36.6665L84.8087 34.8345C84.8749 34.2197 84.9567 33.609 85.054 33.0024C85.1358 32.3917 85.2331 31.7852 85.3658 31.1714C85.3783 31.1248 85.4221 31.0864 85.4884 31.0874C85.5548 31.0884 85.5931 31.1318 85.5805 31.1784Z" fill="#07453A"/>
<path d="M87.6587 32.1638C87.5346 33.3623 87.3328 34.5403 87.0999 35.7099L86.4013 39.2189C85.9355 41.5582 85.5008 43.9057 85.1127 46.2657C84.7091 48.6215 84.3564 50.9743 84.0658 53.3435C83.7753 55.7127 83.5511 58.0829 83.4357 60.482C83.4387 60.5327 83.3908 60.5866 83.3286 60.5701C83.2777 60.5732 83.224 60.5256 83.2408 60.4635C83.3053 58.0676 83.4828 55.6849 83.7267 53.3033C83.9862 50.9259 84.3121 48.5494 84.6846 46.1853C85.0726 43.8254 85.5073 41.4778 85.9617 39.1188L86.6491 35.5902C86.882 34.4205 87.1304 33.255 87.4919 32.1028C87.5044 32.0562 87.5637 32.022 87.6103 32.0344C87.633 32.0737 87.6713 32.1172 87.6587 32.1638Z" fill="#07453A"/>
<path d="M89.562 32.9369C89.4308 34.1003 89.2415 35.2317 89.0481 36.3786C88.8547 37.5254 88.6768 38.6765 88.5342 39.8202C88.2293 42.1191 87.9711 44.4304 87.693 46.7531C87.4192 49.0603 87.0946 51.3706 86.7543 53.6768C86.3986 55.9788 86.0273 58.2767 85.656 60.5746C85.6434 60.6212 85.5955 60.6751 85.5333 60.6586C85.4867 60.6462 85.4484 60.6028 85.4454 60.552L86.3841 53.6284C86.7088 51.3181 86.9827 49.0109 87.2409 46.6996C87.4992 44.3883 87.7574 42.077 88.051 39.7585C88.1978 38.5992 88.3757 37.4481 88.5536 36.2971C88.747 35.1502 88.9912 34.0002 89.3444 32.8791C89.3569 32.8325 89.4162 32.7983 89.4784 32.8148C89.5364 32.8469 89.5746 32.8903 89.562 32.9369Z" fill="#07453A"/>
<path d="M91.307 33.7998C91.2703 34.9218 91.0852 36.0377 90.8888 37.1339C90.6924 38.2301 90.4762 39.3377 90.3151 40.4267C89.9844 42.6356 89.6849 44.8528 89.4164 47.0783C89.1325 49.2997 88.8838 51.5138 88.6464 53.7476C88.4133 55.9658 88.176 58.1995 87.9428 60.4177C87.9458 60.4684 87.8823 60.5181 87.8357 60.5058C87.7848 60.5089 87.7352 60.4458 87.7478 60.3992C87.9187 58.1645 88.0897 55.9297 88.2917 53.7033C88.4938 51.4768 88.7312 49.2431 88.9799 47.029C89.2328 44.7994 89.5323 42.5821 89.8474 40.369C89.9972 39.2604 90.2133 38.1528 90.4097 37.0566C90.6062 35.9604 90.8379 34.8569 91.112 33.7813C91.1246 33.7347 91.1839 33.7005 91.2305 33.7129C91.2814 33.7098 91.3041 33.7491 91.307 33.7998Z" fill="#07453A"/>
<path d="M93.1174 34.6635C93.0877 35.2049 93.0425 35.7421 92.9774 36.2907C92.9166 36.8238 92.836 37.3682 92.7597 37.8972L92.2776 41.0978C91.968 43.2292 91.6852 45.3843 91.4067 47.5239C91.1281 49.6634 90.8652 51.8072 90.6177 53.9551C90.3703 56.1029 90.1229 58.2507 89.891 60.4027C89.8939 60.4534 89.8305 60.5031 89.7838 60.4907C89.733 60.4939 89.6834 60.4308 89.696 60.3842C89.877 58.2353 90.0622 56.071 90.2786 53.9149C90.4949 51.7588 90.7268 49.6068 90.9898 47.4631C91.2528 45.3194 91.5355 43.1643 91.8296 41.0288L92.2962 37.8241C92.4531 36.7507 92.6411 35.6855 92.9422 34.6337C92.9548 34.5871 93.014 34.5529 93.0606 34.5652C93.0917 34.5735 93.1144 34.6128 93.1174 34.6635Z" fill="#07453A"/>
<path d="M94.6078 35.5933C94.5356 36.1067 94.4281 36.6274 94.3093 37.1285C94.206 37.6337 94.0872 38.1347 93.9642 38.6512L93.6346 40.1782L93.3362 41.7133C92.9656 43.7619 92.708 45.8239 92.4816 47.8941C92.2551 49.9643 92.0795 52.0315 91.935 54.1068L91.4661 60.3401C91.4691 60.3908 91.4056 60.4405 91.359 60.4281C91.3081 60.4313 91.2585 60.3682 91.2711 60.3216C91.3845 58.238 91.4627 56.1617 91.5917 54.0822C91.7206 52.0027 91.8495 49.9233 92.0605 47.8489C92.2714 45.7746 92.5332 43.6971 92.8883 41.6443L93.1711 40.105L93.4851 38.574C93.6081 38.0574 93.7425 37.5605 93.8811 37.048C94.0352 36.5397 94.2006 36.0511 94.3972 35.5707C94.4098 35.5241 94.4846 35.4941 94.527 35.522C94.5821 35.5033 94.6048 35.5426 94.6078 35.5933Z" fill="#07453A"/>
<path d="M96.6001 36.4725C96.5928 37.4858 96.5035 38.494 96.4029 39.4826C96.298 40.4867 96.1931 41.4908 96.0925 42.4794L95.5141 48.5008C95.32 50.5131 95.048 52.5047 94.7761 54.4964C94.5042 56.488 94.2125 58.4911 94.007 60.4838C94.01 60.5345 93.9465 60.5843 93.8998 60.5719C93.849 60.575 93.7994 60.5119 93.812 60.4654C93.9709 58.4603 94.1962 56.4562 94.437 54.4563C94.6778 52.4564 94.9186 50.4564 95.0774 48.4514L95.6204 42.4372C95.7098 41.429 95.8147 40.425 95.9153 39.4364C96.0202 38.4323 96.1561 37.4364 96.4051 36.454C96.4177 36.4074 96.477 36.3732 96.5236 36.3856C96.5703 36.398 96.593 36.4373 96.6001 36.4725Z" fill="#07453A"/>
<path d="M98.7885 37.737C98.7755 38.2162 98.7315 38.6872 98.6719 39.154C98.6279 39.625 98.5527 40.0878 98.4889 40.5702L98.2749 41.978L98.0764 43.39C97.8183 45.2689 97.5913 47.156 97.3996 49.0359C97.1882 50.9271 97.012 52.8112 96.8359 54.6951C96.6753 56.5833 96.5147 58.4713 96.3852 60.3677C96.3882 60.4184 96.3247 60.4682 96.278 60.4558C96.2272 60.4589 96.1734 60.4114 96.1902 60.3493C96.2689 58.456 96.3672 56.5514 96.4967 54.655C96.6262 52.7586 96.7868 50.8705 96.9671 48.971C97.163 47.0756 97.3745 45.1844 97.617 43.3014L97.7999 41.8853L97.9984 40.4732C98.1374 39.5281 98.3074 38.5913 98.5708 37.6792C98.5834 37.6326 98.6426 37.5983 98.6892 37.6107C98.7628 37.6469 98.8011 37.6904 98.7885 37.737Z" fill="#07453A"/>
<path d="M100.545 38.8033C100.536 39.267 100.512 39.7266 100.461 40.1625C100.421 40.6179 100.365 41.0693 100.294 41.5165C100.168 42.415 100.057 43.3177 99.931 44.2162C99.7094 46.0216 99.4879 47.827 99.3129 49.6448C99.1225 51.4584 98.9517 53.2606 98.8079 55.0866C98.6528 56.893 98.5287 58.7077 98.4202 60.5264C98.4231 60.5771 98.3753 60.6309 98.313 60.6144C98.2622 60.6176 98.2084 60.57 98.2252 60.5079C98.2673 58.6881 98.3603 56.8653 98.4688 55.0466C98.5773 53.2278 98.7211 51.4017 98.8918 49.5995C99.0667 47.7818 99.2727 45.9723 99.4788 44.1628C99.5895 43.2601 99.7003 42.3574 99.8308 41.4433C99.9572 40.5447 100.103 39.6348 100.358 38.7537C100.371 38.7071 100.43 38.673 100.477 38.6854C100.504 38.7092 100.542 38.7525 100.545 38.8033Z" fill="#07453A"/>
<path d="M102.984 40.3024C102.937 40.7226 102.87 41.1542 102.792 41.5662C102.714 41.9782 102.632 42.4058 102.538 42.8136L102.284 44.061L102.046 45.3124C101.741 46.9955 101.487 48.6755 101.279 50.3679C101.056 52.0561 100.848 53.7485 100.672 55.4491L100.127 60.5468C100.13 60.5975 100.066 60.6472 100.02 60.6348C99.9687 60.638 99.9346 60.579 99.9317 60.5283C100.057 58.8308 100.187 57.1178 100.328 55.4245C100.489 53.7197 100.646 52.0305 100.842 50.3185C101.05 48.6261 101.293 46.9265 101.598 45.2434L101.825 43.9722L102.083 42.7093C102.181 42.286 102.275 41.8781 102.388 41.4589C102.517 41.0437 102.642 40.6442 102.802 40.2373C102.814 40.1907 102.889 40.1607 102.936 40.1731C102.958 40.2124 102.981 40.2516 102.984 40.3024Z" fill="#07453A"/>
<path d="M104.906 41.9291C104.875 42.7198 104.767 43.4898 104.628 44.2516L104.205 46.5526C103.922 48.0917 103.659 49.6195 103.407 51.1669C103.14 52.7102 102.908 54.2461 102.692 55.7863C102.46 57.3223 102.27 58.8862 102.085 60.4346C102.072 60.4811 102.024 60.535 101.977 60.5226C101.931 60.5103 101.892 60.4668 101.89 60.4161C102.013 58.8512 102.167 57.2946 102.352 55.7462C102.538 54.1978 102.759 52.6421 102.991 51.1061C103.227 49.5546 103.49 48.0268 103.757 46.4836L104.164 44.1785C104.303 43.4167 104.463 42.6435 104.715 41.8951C104.728 41.8485 104.787 41.8143 104.849 41.8308C104.88 41.839 104.918 41.8825 104.906 41.9291Z" fill="#07453A"/>
<path d="M106.652 43.1586C106.634 43.5364 106.603 43.8945 106.553 44.264C106.504 44.6335 106.454 45.003 106.392 45.3529L106.216 46.4378L106.055 47.5267C105.844 48.9852 105.679 50.4561 105.499 51.9228C105.319 53.3896 105.155 54.8604 104.975 56.3272C104.78 57.7898 104.564 59.2638 104.302 60.7254C104.29 60.772 104.246 60.8103 104.18 60.8094C104.133 60.797 104.095 60.7535 104.092 60.7028C104.303 59.2443 104.467 57.7734 104.616 56.2984C104.781 54.8275 104.91 53.364 105.058 51.889C105.207 50.414 105.372 48.9431 105.583 47.4846L105.748 46.3802L105.929 45.2798C105.994 44.9144 106.06 44.549 106.156 44.1919C106.253 43.8347 106.35 43.4776 106.481 43.1132C106.494 43.0666 106.553 43.0324 106.615 43.0489C106.627 43.0685 106.649 43.1079 106.652 43.1586Z" fill="#07453A"/>
<path d="M108.486 45.0442C108.489 45.7107 108.41 46.3721 108.304 47.0096L107.947 48.9451L107.214 52.8275C106.968 54.1099 106.717 55.4078 106.485 56.6943C106.254 57.9809 106.034 59.2871 105.834 60.5819C105.822 60.6285 105.774 60.6823 105.712 60.6658C105.665 60.6534 105.627 60.6099 105.624 60.5592C105.762 59.2479 105.931 57.9449 106.131 56.6501C106.331 55.3553 106.551 54.0492 106.782 52.7626L107.48 48.8875L107.821 46.9479C107.874 46.6291 107.946 46.2989 108.015 45.9843C108.083 45.6696 108.171 45.3435 108.291 45.0257C108.303 44.9791 108.362 44.945 108.425 44.9615C108.456 44.9698 108.483 44.9935 108.486 45.0442Z" fill="#07453A"/>
<path d="M110.264 46.1507C110.246 46.4622 110.213 46.7696 110.149 47.0688C110.1 47.372 110.036 47.6711 109.972 47.9702L109.764 48.8636L109.571 49.761C109.33 50.9616 109.108 52.1509 108.913 53.3639C108.703 54.5728 108.513 55.7704 108.334 56.9876L107.785 60.6194C107.772 60.6659 107.724 60.7198 107.678 60.7074C107.631 60.6951 107.593 60.6516 107.59 60.6009C107.703 59.3828 107.846 58.1728 107.994 56.9474C108.138 55.7375 108.302 54.5163 108.497 53.3032C108.691 52.0902 108.901 50.8812 109.127 49.6764L109.304 48.7749L109.497 47.8775C109.641 47.2833 109.801 46.6933 110.073 46.1167C110.101 46.0742 110.16 46.0401 110.203 46.068C110.254 46.0648 110.276 46.1041 110.264 46.1507Z" fill="#07453A"/>
<path d="M111.783 47.3524C111.776 47.933 111.691 48.4929 111.575 49.0446L111.223 50.7152C110.987 51.8341 110.771 52.9417 110.571 54.0533C110.354 55.1608 110.165 56.2922 110.011 57.4162C109.842 58.5361 109.719 59.6684 109.616 60.7893C109.619 60.84 109.555 60.8897 109.509 60.8774C109.458 60.8805 109.424 60.8215 109.421 60.7708C109.462 59.6334 109.553 58.4929 109.676 57.3606C109.799 56.2283 109.973 55.0929 110.158 53.9771C110.347 52.8458 110.563 51.7382 110.784 50.6152L111.12 48.9404C111.236 48.3887 111.371 47.8257 111.612 47.307C111.64 47.2645 111.699 47.2303 111.741 47.2582C111.753 47.2779 111.78 47.3017 111.783 47.3524Z" fill="#07453A"/>
<path d="M113.589 48.2835C113.626 48.8258 113.565 49.3589 113.474 49.8836L113.326 50.6765L113.163 51.4652C112.949 52.5065 112.703 53.5394 112.473 54.5766C112.228 55.6095 111.967 56.6384 111.737 57.6755C111.491 58.7085 111.281 59.7343 111.082 60.7797C111.069 60.8263 111.025 60.8646 110.959 60.8636C110.912 60.8512 110.874 60.8077 110.871 60.757C111.004 59.7106 111.187 58.661 111.386 57.6156C111.6 56.5743 111.815 55.5331 112.045 54.496C112.275 53.4588 112.505 52.4217 112.715 51.3959L112.858 50.6186L113.002 49.8413C113.038 49.5846 113.093 49.3165 113.16 49.0681C113.212 48.8155 113.283 48.5516 113.386 48.2959C113.402 48.2338 113.473 48.2194 113.52 48.2318C113.559 48.209 113.582 48.2483 113.589 48.2835Z" fill="#07453A"/>
<path d="M115.104 49.1857C115.067 49.6918 114.957 50.1617 114.831 50.6275C114.705 51.0933 114.591 51.5787 114.481 52.0487C114.256 53.004 114.063 53.9676 113.869 54.9312L113.561 56.3803C113.462 56.8699 113.337 57.3356 113.222 57.8211C112.982 58.7723 112.742 59.7236 112.615 60.6882C112.602 60.7348 112.554 60.7886 112.508 60.7762C112.461 60.7638 112.423 60.7204 112.42 60.6696C112.489 59.6729 112.682 58.7093 112.891 57.7498C112.99 57.2602 113.1 56.7903 113.18 56.3121L113.437 54.8662C113.615 53.8984 113.793 52.9306 114.017 51.9753C114.132 51.4898 114.242 51.02 114.372 50.5387C114.502 50.0574 114.663 49.5843 114.913 49.1516C114.941 49.1092 114.996 49.0905 115.054 49.1226C115.094 49.0998 115.116 49.1391 115.104 49.1857Z" fill="#07453A"/>
<path d="M116.694 50.308C116.698 50.5419 116.654 50.7634 116.607 51.0004C116.564 51.2219 116.521 51.4434 116.447 51.6567C116.329 52.0914 116.208 52.5417 116.09 52.9764C115.867 53.8655 115.648 54.7391 115.44 55.6324C115.232 56.5257 115.044 57.4075 114.871 58.2935C114.699 59.1795 114.538 60.0852 114.412 60.9836C114.399 61.0302 114.351 61.0841 114.304 61.0717C114.258 61.0593 114.22 61.0158 114.217 60.9651C114.28 60.0501 114.406 59.1517 114.536 58.2378C114.682 57.328 114.839 56.4378 115.016 55.5363C115.208 54.6389 115.4 53.7414 115.624 52.8523C115.725 52.4134 115.847 51.9632 115.964 51.5284C116.082 51.0937 116.234 50.6517 116.476 50.2501C116.504 50.2076 116.56 50.189 116.618 50.2211C116.68 50.2376 116.687 50.2728 116.694 50.308Z" fill="#07453A"/>
<path d="M117.908 51.1466C117.923 51.5833 117.841 52.0107 117.732 52.4144L117.416 53.645L116.796 56.1259C116.589 56.9529 116.383 57.7799 116.196 58.5955C116.004 59.4266 115.833 60.2462 115.657 61.0815C115.645 61.1281 115.601 61.1664 115.535 61.1654C115.488 61.153 115.45 61.1096 115.447 61.0589C115.545 60.203 115.685 59.3749 115.83 58.5315C115.99 57.6921 116.165 56.8569 116.341 56.0216C116.532 55.1905 116.724 54.3594 116.93 53.5325L117.246 52.3019C117.355 51.8982 117.484 51.4831 117.702 51.1084C117.73 51.0659 117.789 51.0317 117.847 51.0638C117.894 51.0762 117.916 51.1155 117.908 51.1466Z" fill="#07453A"/>
<path d="M119.483 51.8325C119.534 52.262 119.483 52.6978 119.405 53.1098L119.167 54.3611C119.012 55.185 118.836 56.0203 118.665 56.8401C118.474 57.6713 118.287 58.4869 118.08 59.3139C117.873 60.1409 117.655 60.9482 117.418 61.767C117.405 61.8135 117.346 61.8477 117.299 61.8353C117.253 61.8229 117.218 61.7639 117.231 61.7173C117.402 60.8976 117.593 60.0665 117.749 59.2426C117.921 58.4228 118.081 57.5833 118.236 56.7594C118.392 55.9355 118.552 55.0962 118.708 54.2723L118.926 53.0322C118.965 52.8263 119.004 52.6203 119.058 52.4185C119.113 52.2166 119.183 52.0189 119.273 51.8098C119.305 51.7519 119.36 51.7332 119.418 51.7653C119.449 51.7735 119.476 51.7973 119.483 51.8325Z" fill="#07453A"/>
<path d="M49.5639 23.0958C49.308 24.4753 49.0055 25.8425 48.7029 27.2096C48.4004 28.5767 48.129 29.9521 47.8575 31.3275C47.5861 32.7029 47.2991 34.0741 46.9769 35.4526C46.6588 36.8156 46.2899 38.1817 45.9097 39.5282C45.5295 40.8747 45.1492 42.2211 44.7845 43.5717C44.4198 44.9223 44.0863 46.2812 43.7527 47.64C43.0854 50.3577 42.414 53.0909 41.7158 55.8004C41.7032 55.847 41.644 55.8812 41.5973 55.8688C41.5507 55.8564 41.5167 55.7974 41.5292 55.7508C42.1964 53.0331 42.786 50.2948 43.4263 47.5533C43.7444 46.1903 44.0779 44.8314 44.4157 43.457C44.7649 42.1023 45.1338 40.7361 45.4985 39.3855C45.8631 38.0349 46.2278 36.6844 46.5459 35.3214C46.864 33.9585 47.1354 32.5831 47.4069 31.2077C47.6783 29.8323 47.9497 28.4569 48.2367 27.0856C48.5237 25.7144 48.8771 24.3441 49.3661 23.0266C49.3787 22.98 49.4379 22.9459 49.5001 22.9624C49.5383 23.0059 49.5765 23.0493 49.5639 23.0958Z" fill="#07453A"/>
<path d="M48.0046 22.964C47.7219 24.3197 47.4746 25.6681 47.1453 27.0114C47.0686 27.3571 46.9806 27.6831 46.8884 28.0246L46.616 29.0336L46.0754 31.0362L43.8976 39.0422L42.8009 43.0431L42.2448 45.0415C42.0646 45.709 41.9 46.3807 41.7198 47.0482L40.6697 51.0616C40.4895 51.7291 40.3093 52.3966 40.1602 53.0724L39.7129 55.0997C39.7003 55.1463 39.6566 55.1846 39.5903 55.1836C39.5437 55.1712 39.5054 55.1277 39.5066 55.0615L39.9074 53.0218C40.0409 52.3419 40.2056 51.6701 40.3702 50.9985L41.3581 46.9687C41.5228 46.297 41.6875 45.6254 41.8677 44.9579L42.3927 42.9512L43.4427 38.9378L45.5896 30.9236L46.1301 28.921L46.3983 27.9275C46.4863 27.6015 46.5629 27.2559 46.6509 26.9299C46.9803 25.5866 47.2784 24.2351 47.7829 22.9217C47.7954 22.8752 47.8547 22.841 47.9168 22.8575C47.9832 22.8585 48.0016 22.9133 48.0046 22.964Z" fill="#07453A"/>
<path d="M6.49677 24.1659C6.68125 24.1648 6.81339 24.2332 6.92571 24.3131C7.03803 24.393 7.15041 24.473 7.26273 24.5529C7.48737 24.7127 7.7276 24.8767 7.95645 25.021C8.42556 25.3292 8.92713 25.5792 9.45279 25.8022C9.49965 25.8147 9.52964 25.8895 9.50136 25.9321C9.48871 25.9788 9.43347 25.9976 9.38661 25.9852C8.81159 25.8827 8.25042 25.667 7.72601 25.3775C7.46169 25.2405 7.21726 25.0921 6.97701 24.9281C6.84907 24.8441 6.73674 24.7642 6.62443 24.6842C6.51211 24.6043 6.40821 24.4932 6.35665 24.3124C6.34228 24.2418 6.37901 24.1681 6.44993 24.1535C6.47696 24.1774 6.49255 24.1815 6.49677 24.1659Z" fill="#07453A"/>
<path d="M15.974 24.7397C15.7316 24.7087 15.5558 24.6788 15.3716 24.6799C15.1917 24.6656 14.9949 24.7134 14.852 24.809C14.7091 24.9045 14.6203 25.0477 14.6093 25.2116C14.5984 25.3755 14.6697 25.5444 14.7877 25.7259C14.8944 25.8876 15.0449 26.011 15.2164 26.0565C15.388 26.102 15.5764 26.0853 15.7546 25.9824C15.9287 25.8952 16.0727 25.7333 16.1545 25.5548C16.2362 25.3764 16.264 25.1502 16.2209 24.9386C16.218 24.8878 16.2505 24.8297 16.3015 24.8266C16.3525 24.8234 16.395 24.8514 16.4178 24.8908C16.5034 25.1304 16.514 25.4 16.4268 25.6604C16.3438 25.9053 16.1786 26.145 15.9367 26.2976C15.7104 26.4544 15.4074 26.5242 15.1225 26.4653C14.8376 26.4064 14.5863 26.2229 14.4257 26.0135C14.2651 25.8041 14.1369 25.5365 14.1389 25.2202C14.1474 25.189 14.1445 25.1383 14.1529 25.1071L14.1824 24.9982C14.2034 24.9204 14.24 24.8467 14.2725 24.7886C14.3091 24.7149 14.3728 24.6651 14.4052 24.607C14.4532 24.553 14.5169 24.5032 14.5763 24.4689C14.8224 24.3007 15.1057 24.2424 15.3876 24.2505C15.6696 24.2586 15.9532 24.3839 16.0856 24.6359C16.1198 24.695 16.1029 24.7572 16.0435 24.7915C16.0405 24.7407 16.0094 24.7324 15.974 24.7397Z" fill="#07453A"/>
<path d="M15.4014 25.1875C15.519 25.1853 15.5503 25.1936 15.5461 25.2091L15.5532 25.2444C15.5603 25.2797 15.5561 25.2952 15.5477 25.3264C15.5308 25.3886 15.5182 25.4353 15.4503 25.5007C15.4022 25.5547 15.3157 25.5652 15.2575 25.5331C15.1879 25.4813 15.1496 25.4378 15.1154 25.3787C15.104 25.3591 15.0969 25.3237 15.0855 25.3041L15.0784 25.2688C15.0826 25.2533 15.1024 25.2418 15.2129 25.2044C15.264 25.2012 15.3347 25.1866 15.4014 25.1875Z" fill="#07453A"/>
<path d="M23.9355 21.7474C23.8697 22.5455 23.7064 23.3343 23.5276 24.1189C23.3333 24.8995 23.1234 25.6759 22.9134 26.4522C22.4781 28.0009 21.9961 29.5372 21.425 31.0331C20.8539 32.5291 20.1738 33.9962 19.4204 35.427C18.6555 36.8383 17.8017 38.2092 16.8784 39.5284C16.8502 39.5709 16.7796 39.5854 16.7372 39.5575C16.6947 39.5295 16.6804 39.4592 16.7086 39.4168C17.5738 38.0655 18.377 36.6977 19.0951 35.274C19.8289 33.8546 20.458 32.3907 21.0093 30.9061C21.5649 29.406 22.0427 27.8852 22.4583 26.348C22.6682 25.5716 22.8584 24.8066 23.0528 24.0261C23.1422 23.6338 23.2471 23.2456 23.3634 22.877C23.4684 22.4888 23.5889 22.1048 23.7405 21.729C23.7531 21.6824 23.8279 21.6523 23.8746 21.6647C23.9098 21.6574 23.9326 21.6967 23.9355 21.7474Z" fill="#07453A"/>
<path d="M30.2266 38.7777C31.2378 39.2458 32.181 39.7794 33.1483 40.286C34.1113 40.8081 35.0912 41.2679 36.108 41.654C36.365 41.7554 36.6262 41.8413 36.8719 41.923C36.9926 41.9716 37.1331 42.0089 37.2538 42.0575L37.4526 42.1269L37.5463 42.1517C37.5775 42.1599 37.6088 42.1682 37.64 42.1765C38.1596 42.2973 38.7188 42.3953 39.2384 42.5161C39.7778 42.6255 40.3172 42.7348 40.8595 42.8951C40.9376 42.9157 41.0001 42.9323 41.0895 42.9727C41.1052 42.9768 41.1322 43.0007 41.1634 43.0089C41.1904 43.0328 41.206 43.0369 41.233 43.0607C41.2444 43.0804 41.2444 43.0805 41.2558 43.1002C41.2786 43.1396 41.317 43.1832 41.3398 43.2227C41.3584 43.2777 41.3812 43.3171 41.3841 43.368C41.387 43.4188 41.3899 43.4697 41.3886 43.5362C41.376 43.5829 41.3747 43.6494 41.3464 43.692C41.3337 43.7387 41.3054 43.7813 41.2771 43.8239C41.079 44.1222 40.8325 44.2908 40.5745 44.4397C40.0785 44.7259 39.5524 44.9374 39.0193 45.1136C38.4861 45.2897 37.9415 45.4462 37.4097 45.5559C37.1416 45.6185 36.8622 45.6615 36.5671 45.7003C36.4962 45.7149 36.4295 45.714 36.3472 45.7089C36.2805 45.7079 36.1982 45.7029 36.1315 45.7019L35.7157 45.692C35.1594 45.645 34.596 45.5627 34.0536 45.4024C33.5155 45.2266 32.9942 44.9883 32.5169 44.7117C32.0439 44.4194 31.6033 44.069 31.1868 43.6915C30.3737 42.9252 29.6839 42.0745 29.0223 41.1812C28.9839 41.1376 29.0009 41.0753 29.0448 41.0369C29.0887 40.9984 29.1512 41.0149 29.1896 41.0585C29.8596 41.9206 30.5692 42.7598 31.3794 43.4753C31.7845 43.833 32.2179 44.1482 32.6796 44.4207C33.1412 44.6932 33.6397 44.892 34.1466 45.0596C34.6577 45.2116 35.1899 45.2857 35.7349 45.313L36.135 45.3187C36.2017 45.3196 36.2684 45.3206 36.3351 45.3216C36.4018 45.3225 36.457 45.3038 36.5237 45.3047C36.7833 45.2732 37.0514 45.2106 37.3152 45.1635C37.8513 45.0382 38.3604 44.889 38.878 44.7087C39.3799 44.5243 39.8861 44.3243 40.3467 44.0454C40.565 43.9194 40.7803 43.7426 40.8893 43.5877C40.9303 43.4984 40.9429 43.4516 40.9088 43.3924C40.8974 43.3727 40.886 43.353 40.8704 43.3489C40.8704 43.3489 40.859 43.3292 40.8704 43.3489C40.8818 43.3686 40.8817 43.3686 40.8973 43.3728C40.8973 43.3728 40.8974 43.3728 40.8818 43.3686C40.8349 43.3562 40.7767 43.3241 40.7142 43.3076C40.1989 43.1712 39.6595 43.0617 39.1201 42.9524C38.5806 42.843 38.037 42.7492 37.4862 42.6201C37.455 42.6118 37.4081 42.5994 37.3769 42.5912L37.2832 42.5663L37.0844 42.497C36.9439 42.4598 36.8232 42.4111 36.6826 42.3739C36.4214 42.2881 36.1643 42.1866 35.9031 42.1008C34.8708 41.7106 33.8638 41.2269 32.8809 40.7162C31.898 40.2055 30.9675 39.6252 30.0779 38.9555C30.0353 38.9275 30.021 38.8569 30.0649 38.8184C30.1287 38.7685 30.184 38.7497 30.2266 38.7777Z" fill="#07453A"/>
<path d="M40.5192 42.8698C40.6367 42.0026 40.832 41.156 41.0428 40.3136L41.6595 37.7822C41.8703 36.9398 42.0853 36.0819 42.3116 35.2436C42.5379 34.4054 42.7839 33.5557 43.0413 32.7257C43.5561 31.0657 44.0751 29.3901 44.5589 27.7218C45.0426 26.0536 45.4953 24.3769 45.8547 22.6756C45.8672 22.629 45.9109 22.5908 45.9772 22.5918C46.0239 22.6042 46.062 22.6476 46.0608 22.7138C45.7636 24.4317 45.3534 26.1362 44.9122 27.8324C44.4553 29.5244 43.9561 31.1886 43.4723 32.8569C43.2305 33.691 42.9886 34.5252 42.7623 35.3635C42.5359 36.2017 42.3407 37.0483 42.1299 37.8907L41.5244 40.4417C41.3136 41.2841 41.0676 42.1338 40.717 42.939C40.6889 42.9814 40.6297 43.0156 40.5872 42.9877C40.5293 42.9556 40.5066 42.9164 40.5192 42.8698Z" fill="#07453A"/>
<path d="M40.4391 44.4766C40.4468 44.6949 40.4078 44.9009 40.3689 45.1068C40.3299 45.3128 40.2754 45.5146 40.2209 45.7164L39.8825 46.9077L39.2212 49.2943C39.0074 50.086 38.7894 50.8933 38.5756 51.685L37.9257 54.0913C37.9131 54.1379 37.854 54.1721 37.8073 54.1597C37.7607 54.1473 37.7266 54.0883 37.7392 54.0418C37.8909 53.2335 38.0778 52.418 38.245 51.6138C38.432 50.7983 38.6147 49.9983 38.8172 49.1869C39.0197 48.3755 39.218 47.5796 39.4515 46.7765L39.7899 45.5853C39.8989 45.1816 40.039 44.7862 40.2682 44.4312C40.2963 44.3887 40.3668 44.3742 40.4093 44.4021C40.4093 44.4021 40.4319 44.4414 40.4391 44.4766Z" fill="#07453A"/>
<path d="M38.7921 45.0532C38.7884 45.2519 38.7734 45.4309 38.7231 45.6172C38.6883 45.8076 38.6422 45.9784 38.5763 46.1606C38.4643 46.5135 38.3679 46.8706 38.2559 47.2235C38.0475 47.9335 37.8546 48.6477 37.6575 49.3773C37.4646 50.0915 37.2676 50.8211 37.0747 51.5352C36.8818 52.2494 36.6847 52.9791 36.4918 53.6932C36.4792 53.7398 36.42 53.7739 36.3734 53.7615C36.3268 53.7491 36.2927 53.6902 36.3053 53.6437C36.436 52.913 36.602 52.175 36.7483 51.4485C36.9101 50.7261 37.076 49.9882 37.2378 49.2658C37.4152 48.5475 37.5967 47.8137 37.8051 47.1037C37.9016 46.7466 38.0136 46.3937 38.1142 46.0211C38.2262 45.6682 38.3538 45.3194 38.5901 44.9995C38.6182 44.957 38.6887 44.9425 38.7312 44.9704C38.7778 44.9828 38.8047 45.0066 38.7921 45.0532Z" fill="#07453A"/>
<path d="M44.4317 22.7295C44.3652 23.1611 44.2717 23.5688 44.1741 23.9921C44.0765 24.4154 43.9675 24.819 43.8388 25.234L43.4879 26.4718L43.1526 27.7137C42.7083 29.3592 42.3106 31.0172 41.8973 32.671L40.6691 37.6521C40.2558 39.3059 39.8228 40.971 39.3474 42.6083C39.3349 42.6549 39.2757 42.6891 39.2291 42.6767C39.1825 42.6643 39.1484 42.6053 39.161 42.5587C39.5587 40.9008 39.9563 39.2429 40.3385 37.5808L41.4891 32.579C41.8868 30.9211 42.2887 29.2477 42.7175 27.598L43.0372 26.3519L43.3725 25.11C43.6102 24.2914 43.8634 23.4769 44.2254 22.6913C44.2536 22.6489 44.3128 22.6147 44.3552 22.6426C44.4216 22.6436 44.4401 22.6985 44.4317 22.7295Z" fill="#07453A"/>
<path d="M42.7169 22.5061C42.6504 22.9376 42.5569 23.3454 42.4593 23.7687C42.3616 24.1919 42.2526 24.5956 42.1239 25.0106C41.8862 25.8292 41.664 26.6521 41.4418 27.4748C40.9975 29.1204 40.5842 30.7742 40.1865 32.4321C39.7732 34.0859 39.3755 35.7439 38.9778 37.4018C38.58 39.0597 38.1823 40.7177 37.7648 42.3871C37.7522 42.4337 37.693 42.4678 37.6464 42.4554C37.5998 42.443 37.5657 42.3841 37.5783 42.3375L38.6472 37.3306C39.0139 35.6643 39.3805 33.9982 39.7669 32.3206C40.1646 30.6626 40.5665 28.9891 40.9953 27.3395C41.2175 26.5167 41.4397 25.6939 41.6661 24.8556C41.9038 24.037 42.1571 23.2225 42.5191 22.4369C42.5472 22.3945 42.6064 22.3603 42.6488 22.3882C42.7068 22.4202 42.7295 22.4595 42.7169 22.5061Z" fill="#07453A"/>
<path d="M36.846 45.684C36.8506 45.8516 36.844 45.9996 36.8218 46.1435C36.7996 46.2873 36.7577 46.4426 36.7199 46.5824L36.4695 47.4477L35.9955 49.202L35.506 50.9522C35.3311 51.538 35.1407 52.1198 34.9389 52.6818C34.9263 52.7284 34.867 52.7626 34.8049 52.7461C34.7582 52.7337 34.7242 52.6747 34.7367 52.6281C34.8806 52.034 35.0202 51.4554 35.1485 50.8572L35.5603 49.0863C35.7041 48.4922 35.8437 47.9137 36.0031 47.3237L36.2422 46.4387C36.3219 46.1438 36.4327 45.857 36.6325 45.6106C36.6607 45.5682 36.7312 45.5537 36.785 45.6012C36.8274 45.6292 36.8388 45.6488 36.846 45.684Z" fill="#07453A"/>
<path d="M35.0841 45.6311C35.1216 45.924 35.07 46.1765 34.9987 46.4404L34.7889 47.2167L34.3695 48.7693C34.2311 49.2816 34.0729 49.8053 33.9189 50.3135C33.7452 50.8331 33.5913 51.3414 33.3906 51.8372C33.3781 51.8838 33.3188 51.918 33.2566 51.9014C33.21 51.889 33.1759 51.83 33.1885 51.7835C33.3114 51.267 33.4541 50.7391 33.5769 50.2227L33.9497 48.6577C34.0726 48.1412 34.1997 47.6093 34.3226 47.0928L34.5167 46.3124C34.5881 46.0484 34.6904 45.7928 34.8664 45.5733C34.91 45.535 34.9807 45.5205 35.0189 45.5639C35.0614 45.5918 35.0727 45.6115 35.0841 45.6311Z" fill="#07453A"/>
<path d="M33.5645 45.1764C33.5907 45.4496 33.5391 45.7021 33.4607 45.9308L33.2169 46.6482L32.7448 48.087L32.2727 49.5258C32.1115 49.9988 31.9617 50.4915 31.785 50.9604C31.7724 51.007 31.7132 51.0412 31.651 51.0247C31.6043 51.0123 31.5703 50.9533 31.5828 50.9067C31.6818 50.4171 31.8005 49.9162 31.915 49.4308C32.0295 48.9453 32.1638 48.4485 32.3094 47.9713C32.455 47.4941 32.5893 46.9973 32.7504 46.5243L32.9787 45.8028C33.0613 45.5585 33.1554 45.3339 33.3624 45.1227C33.4061 45.0844 33.4767 45.0698 33.5149 45.1132C33.546 45.1215 33.5532 45.1567 33.5645 45.1764Z" fill="#07453A"/>
<path d="M32.2337 44.2741C32.2909 44.5555 32.2705 44.8164 32.2034 45.0648L32.0331 45.8183C31.9144 46.3192 31.7801 46.8161 31.6459 47.3129C31.5117 47.8097 31.3774 48.3066 31.2276 48.7992L30.7939 50.2814C30.7813 50.328 30.7221 50.3622 30.6754 50.3498C30.6288 50.3374 30.5947 50.2784 30.6073 50.2318C30.6949 49.7226 30.7981 49.2176 30.9012 48.7125C31.0044 48.2074 31.123 47.7064 31.2417 47.2055L31.5978 45.7026L31.768 44.9491C31.8196 44.6966 31.9023 44.4523 32.0627 44.2286C32.095 44.1707 32.1614 44.1717 32.2194 44.2037C32.211 44.2348 32.2379 44.2586 32.2337 44.2741Z" fill="#07453A"/>
<path d="M30.9297 43.145C30.956 43.4182 30.9003 43.6863 30.8063 43.9109L30.5428 44.6396L30.0201 46.0816L28.9549 48.9769C28.9423 49.0235 28.883 49.0577 28.8208 49.0412C28.7741 49.0287 28.7401 48.9697 28.7527 48.9232C28.8713 48.4222 29.0054 47.9253 29.1395 47.4284C29.2737 46.9316 29.4389 46.443 29.5886 45.9503C29.7539 45.4617 29.9036 44.969 30.0844 44.4845L30.3323 43.7516C30.415 43.5073 30.5287 43.2713 30.7161 43.0715C30.7598 43.0332 30.8304 43.0186 30.8687 43.0621C30.9112 43.0901 30.9225 43.1098 30.9297 43.145Z" fill="#07453A"/>
<path d="M25.3227 21.7674C25.3771 22.614 25.2791 23.4699 25.1343 24.3135C24.9895 25.1571 24.7982 25.9884 24.5757 26.8114C24.1307 28.4573 23.5033 30.0382 22.849 31.5952L21.8676 33.9308C21.5405 34.7093 21.1822 35.4796 20.8085 36.2457C20.0496 37.7584 19.186 39.2266 18.2687 40.6472C18.2405 40.6897 18.17 40.7042 18.1275 40.6763C18.0851 40.6484 18.0666 40.5936 18.0989 40.5356C18.5307 39.8015 18.9427 39.0788 19.359 38.3405C19.7596 37.5982 20.1447 36.8517 20.4987 36.0969C20.8528 35.3422 21.1955 34.5678 21.5071 33.7851L22.4574 31.4413C23.0961 29.8801 23.7037 28.3106 24.1403 26.6958C24.5924 25.085 24.7761 23.4196 25.1391 21.7685C25.1517 21.7219 25.1954 21.6836 25.2618 21.6846C25.2816 21.6732 25.3198 21.7167 25.3227 21.7674Z" fill="#07453A"/>
<path d="M27.0929 21.7229C27.0444 22.6419 26.887 23.532 26.683 24.4098C26.479 25.2875 26.2554 26.1766 26.0203 27.0461C25.5459 28.8006 25.0094 30.5386 24.4304 32.2487C24.1331 33.1017 23.8359 33.9546 23.5033 34.8149C23.175 35.6596 22.8 36.4919 22.3939 37.3159C21.992 38.1245 21.559 38.9248 21.1104 39.7209C20.6619 40.5171 20.1865 41.2895 19.7111 42.0619C19.683 42.1043 19.6279 42.123 19.5699 42.0909C19.5275 42.063 19.509 42.0082 19.5413 41.9503C20.4342 40.3735 21.3115 38.7925 22.0842 37.1672C22.4705 36.3545 22.8258 35.5335 23.1386 34.6847C23.4514 33.8358 23.7331 32.9788 24.0304 32.1258C24.5938 30.4116 25.1261 28.6891 25.5807 26.946C25.8158 26.0766 26.0198 25.1989 26.2238 24.3211C26.4278 23.4434 26.6162 22.5615 26.8979 21.7044C26.9105 21.6578 26.9698 21.6237 27.032 21.6402C27.0672 21.6329 27.0899 21.6722 27.0929 21.7229Z" fill="#07453A"/>
<path d="M28.7446 21.7471C28.6214 22.6961 28.4164 23.64 28.1688 24.556C27.9213 25.472 27.6851 26.4077 27.4375 27.3237C26.9383 29.1712 26.4079 31.0104 25.8464 32.8414C25.5678 33.7491 25.285 34.6724 24.9753 35.5719C24.6656 36.4714 24.3206 37.3781 23.9642 38.2652C23.7917 38.7185 23.6079 39.1522 23.4043 39.5973C23.2204 40.0311 23.0168 40.4762 22.8174 40.9058C22.3989 41.7764 21.9225 42.6149 21.4077 43.41C21.3796 43.4524 21.3091 43.4669 21.2666 43.439C21.2242 43.4111 21.2056 43.3563 21.2379 43.2983C21.7102 42.4753 22.1713 41.6326 22.5545 40.7693C22.9533 39.9101 23.294 39.019 23.6348 38.1278C23.9756 37.2365 24.3009 36.3412 24.5951 35.4376C24.8893 34.534 25.1523 33.6221 25.4351 32.6989C25.981 30.8637 26.4917 29.0359 26.991 27.1884C27.2385 26.2724 27.4747 25.3367 27.7223 24.4207C27.9543 23.5006 28.2216 22.5732 28.5624 21.682C28.5749 21.6354 28.6341 21.6012 28.6963 21.6177C28.719 21.657 28.7417 21.6964 28.7446 21.7471Z" fill="#07453A"/>
<path d="M30.1575 21.7925C30.0375 22.7923 29.8045 23.7786 29.5447 24.7411L28.7608 27.6443C28.5009 28.6068 28.2721 29.5776 28.0391 30.564C27.7948 31.5306 27.5619 32.517 27.2978 33.495C26.7583 35.4315 26.1722 37.3556 25.4928 39.2548C24.7978 41.1499 24.0293 43.0089 23.1717 44.8275C23.1436 44.8699 23.0844 44.9041 23.0419 44.8762C22.9995 44.8483 22.9654 44.7892 22.9936 44.7468C23.3934 43.8215 23.7734 42.9075 24.1265 41.9698C24.4952 41.0362 24.8329 40.0943 25.1549 39.1483C25.7991 37.2563 26.3696 35.3281 26.8739 33.3989C27.1337 32.4364 27.3667 31.45 27.5955 30.4792C27.8243 29.5084 28.0417 28.518 28.3016 27.5555L29.0699 24.6482C29.3298 23.6856 29.6094 22.7117 29.9626 21.7739C29.9752 21.7274 30.0343 21.6932 30.0965 21.7098C30.1318 21.7025 30.1545 21.7418 30.1575 21.7925Z" fill="#07453A"/>
<path d="M31.6747 21.7629C31.5535 22.8289 31.3235 23.8659 31.078 24.8987L30.3102 27.9892L28.7593 34.1658C28.4982 35.1945 28.2527 36.2274 27.9605 37.2479C27.6683 38.2684 27.3605 39.2847 27.0062 40.2886C26.313 42.3006 25.5111 44.2838 24.5507 46.1748C24.5225 46.2173 24.4633 46.2514 24.4209 46.2235C24.3784 46.1956 24.3599 46.1407 24.3725 46.0941C25.2707 44.1865 26.0261 42.1911 26.6684 40.1822C26.9917 39.17 27.2952 38.1691 27.5719 37.1445C27.8485 36.1199 28.0899 35.1025 28.3199 34.0655L29.8397 27.8807L30.5919 24.7861C30.8374 23.7532 31.1141 22.7287 31.4529 21.7206C31.4655 21.674 31.5247 21.6398 31.5869 21.6564C31.6491 21.6729 31.6873 21.7163 31.6747 21.7629Z" fill="#07453A"/>
<path d="M33.3133 21.8333C33.137 22.9178 32.8676 23.9777 32.5981 25.0374C32.313 26.0931 32.0435 27.1528 31.774 28.2126C31.2349 30.3321 30.7115 32.4557 30.1528 34.5867C29.8677 35.6423 29.5826 36.6979 29.2779 37.7649C28.9773 38.8164 28.6259 39.8711 28.2787 40.9102C27.9315 41.9493 27.5532 42.9801 27.1749 44.0109C26.7966 45.0418 26.4028 46.0685 25.9821 47.0715C25.9695 47.118 25.8947 47.1481 25.8523 47.1201C25.8057 47.1078 25.7758 47.0332 25.8039 46.9908C26.5874 44.9529 27.2818 42.8747 27.9607 40.7923C28.2924 39.7491 28.6241 38.7059 28.9247 37.6544C29.2097 36.5987 29.4792 35.539 29.7487 34.4792C30.2877 32.3597 30.8112 30.2361 31.3346 28.1124C31.6042 27.0526 31.8581 25.9887 32.1431 24.933C32.4282 23.8774 32.7288 22.8259 33.1382 21.8034C33.1508 21.7568 33.2255 21.7267 33.2721 21.7391C33.2876 21.7432 33.3103 21.7826 33.3133 21.8333Z" fill="#07453A"/>
<path d="M34.7943 21.8117C34.7413 22.563 34.5837 23.2699 34.4064 23.9881L33.8633 26.1232C33.4931 27.5556 33.1272 28.9724 32.7924 30.3975C32.4378 31.8339 32.0874 33.2549 31.6862 34.679C31.285 36.1031 30.8725 37.5075 30.3936 38.9109C30.381 38.9575 30.3218 38.9917 30.2597 38.9752C30.2131 38.9628 30.179 38.9038 30.1916 38.8572C30.5886 37.4486 30.9742 36.0204 31.3401 34.6036C31.7061 33.1868 32.0451 31.7461 32.3489 30.3128C32.6879 28.8722 33.0383 27.4512 33.3928 26.0147L33.9205 23.8756C34.0978 23.1573 34.2865 22.4587 34.5725 21.7694C34.5851 21.7228 34.6598 21.6928 34.7022 21.7207C34.7644 21.7372 34.7871 21.7765 34.7943 21.8117Z" fill="#07453A"/>
<path d="M29.5928 41.6408C29.6262 41.9493 29.5663 42.233 29.4795 42.4928L29.2261 43.3074C29.0638 43.8467 28.8662 44.3933 28.6884 44.9284C28.495 45.4595 28.3016 45.9905 28.0884 46.533C27.8794 47.0599 27.6705 47.5868 27.4304 48.1054C27.4023 48.1478 27.343 48.182 27.3005 48.154C27.2539 48.1416 27.2353 48.0868 27.2479 48.0402L28.2726 44.8012L28.775 43.1874L29.0283 42.3728C29.1037 42.0933 29.2061 41.8376 29.406 41.5912C29.4342 41.5487 29.5048 41.5343 29.5587 41.5819C29.5742 41.586 29.6011 41.6098 29.5928 41.6408Z" fill="#07453A"/>
<path d="M41.147 22.3548C41.0223 23.1869 40.8044 23.9941 40.5667 24.8128L39.8507 27.218C39.3838 28.8242 38.9168 30.4303 38.481 32.0448C38.0296 33.6551 37.6247 35.2779 37.2199 36.9006C36.8151 38.5234 36.3948 40.142 35.9702 41.7761C35.9577 41.8227 35.8985 41.8569 35.8519 41.8445C35.8053 41.8321 35.7712 41.7731 35.7838 41.7265C36.142 40.0914 36.5157 38.4604 36.8781 36.8097C37.2518 35.1787 37.6297 33.5321 38.05 31.9135C38.4703 30.2949 38.9415 28.6732 39.3929 27.0629L40.0933 24.6536C40.3268 23.8505 40.5914 23.0556 40.9492 22.2856C40.9773 22.2431 41.0365 22.209 41.0789 22.2369C41.1369 22.2689 41.1554 22.3238 41.147 22.3548Z" fill="#07453A"/>
<path d="M39.783 22.0076C39.6116 22.8272 39.3626 23.6262 39.1021 24.4055C38.8375 25.2004 38.5772 25.9797 38.3281 26.7787C37.8342 28.3612 37.3869 29.956 36.9509 31.5705C36.7329 32.3778 36.5191 33.1695 36.3167 33.9809C36.0987 34.7881 35.9315 35.5923 35.7602 36.4119C35.5888 37.2316 35.4217 38.0357 35.2348 38.8512C35.0479 39.6667 34.861 40.4822 34.5964 41.2771C34.5838 41.3237 34.5246 41.3579 34.4625 41.3413C34.4158 41.3289 34.3818 41.27 34.3944 41.2234C34.8261 39.6244 35.0869 37.98 35.3944 36.348C35.5502 35.5242 35.7216 34.7045 35.9043 33.9045C36.0912 33.089 36.2935 32.2776 36.4918 31.4817C36.9122 29.8631 37.3595 28.2683 37.8421 26.6661C38.0912 25.8672 38.3402 25.0682 38.6006 24.2888C38.8652 23.494 39.1567 22.7229 39.557 21.9808C39.5851 21.9383 39.6443 21.9042 39.7023 21.9362C39.7728 21.9217 39.78 21.9569 39.783 22.0076Z" fill="#07453A"/>
<path d="M38.3141 21.8C38.1159 22.5959 37.8597 23.3597 37.6191 24.1276C37.3784 24.8955 37.1533 25.6676 36.9437 26.4438C36.5204 28.0117 36.1634 29.5806 35.7556 31.1526L34.4856 35.8564C34.0468 37.4202 33.6235 38.9881 33.1847 40.5519C33.1721 40.5984 33.1129 40.6326 33.0662 40.6202C33.0196 40.6078 32.9856 40.5488 32.9981 40.5023C33.3748 38.9219 33.7671 37.3457 34.1551 35.7851L35.3432 31.0762C35.7354 29.5001 36.0924 27.9311 36.5044 26.3436C36.7182 25.5518 36.9277 24.7757 37.1725 23.9922C37.4174 23.2088 37.7202 22.4574 38.1318 21.7349C38.1599 21.6925 38.2149 21.6738 38.2729 21.7059C38.304 21.7141 38.3267 21.7535 38.3141 21.8Z" fill="#07453A"/>
<path d="M36.7261 21.9767C36.6182 22.7466 36.4523 23.4844 36.2512 24.2296L35.6518 26.4494L34.4842 30.8975C34.086 32.3722 33.6836 33.8625 33.2699 35.3332C33.0687 36.0783 32.8407 36.7996 32.624 37.5406C32.4073 38.2816 32.175 39.0185 31.9158 39.7316C31.9032 39.7782 31.8441 39.8124 31.7819 39.7959C31.7353 39.7835 31.7013 39.7245 31.7138 39.6779C32.1586 38.2156 32.5413 36.7367 32.9281 35.2423C33.3107 33.7634 33.682 32.2648 34.0646 30.7859L35.2011 26.3296L35.785 24.1056C35.8856 23.733 35.9861 23.3604 36.1178 22.9961C36.2339 22.6277 36.3812 22.2676 36.5439 21.9115C36.572 21.8691 36.6312 21.8349 36.6736 21.8628C36.7005 21.8866 36.7232 21.926 36.7261 21.9767Z" fill="#07453A"/>
<path d="M58.7609 24.0645C59.1274 23.7837 59.5354 23.6167 59.9434 23.4496C60.3682 23.307 60.772 23.16 61.1967 23.0175C62.0252 22.7279 62.8704 22.4628 63.7156 22.1978C64.136 22.0753 64.5231 21.9039 64.9688 21.7657C65.0866 21.7272 65.1791 21.7044 65.3135 21.6904C65.3135 21.6904 65.3388 21.6747 65.3807 21.6834C65.3807 21.6834 65.3807 21.6834 65.4017 21.6878C65.4227 21.6922 65.4437 21.6965 65.4646 21.7009C65.4856 21.7053 65.5066 21.7096 65.5024 21.7297C65.5191 21.7542 65.54 21.7586 65.5567 21.7831C65.5734 21.8076 65.5902 21.832 65.5859 21.8521C65.5816 21.8722 65.5816 21.8723 65.5983 21.8968C65.594 21.9169 65.5897 21.9369 65.5854 21.9571C65.5811 21.9772 65.5769 21.9973 65.5726 22.0174C65.5597 22.0777 65.5345 22.0935 65.5302 22.1136L65.4373 22.2413L65.433 22.2614L65.4245 22.3016L65.3864 22.3777L65.3102 22.5298L65.183 22.8184C65.1235 22.9951 65.1017 23.2006 65.0799 23.4061C65.0581 23.6116 65.0782 23.8258 65.0774 24.0357C65.0975 24.2499 65.1177 24.4641 65.1588 24.6827C65.1999 24.9014 65.2453 25.0999 65.3117 25.3027C65.3242 25.3473 65.3113 25.4076 65.2398 25.4348C65.1936 25.4461 65.1306 25.433 65.1182 25.3884C64.9225 24.9696 64.8402 24.5324 64.8042 24.0838C64.7841 23.8696 64.7682 23.6352 64.7733 23.4053C64.7784 23.1753 64.7835 22.9453 64.8769 22.7127L65.0083 22.404L65.0635 22.2475L65.1016 22.1714L65.1102 22.1311C65.1144 22.111 65.1187 22.0909 65.144 22.0752L65.2412 21.9274C65.2455 21.9073 65.2707 21.8915 65.2707 21.8915C65.2707 21.8915 65.2707 21.8915 65.2664 21.9116C65.2664 21.9116 65.2621 21.9317 65.2579 21.9519L65.2536 21.972L65.266 22.0166C65.2827 22.0411 65.3037 22.0454 65.2994 22.0655C65.3204 22.0699 65.3161 22.09 65.3371 22.0944C65.3581 22.0988 65.3581 22.0988 65.379 22.1031L65.4 22.1075C65.421 22.1119 65.4463 22.0961 65.421 22.1119C65.3286 22.1346 65.2108 22.1731 65.1183 22.1959C64.7188 22.3227 64.3232 22.5344 63.8775 22.6726L61.3753 23.5167C60.9506 23.6593 60.5468 23.8063 60.1431 23.9532C59.7393 24.1002 59.3146 24.2428 58.865 24.2962C58.7978 24.3032 58.7601 24.2743 58.7519 24.2096C58.7061 24.116 58.7357 24.0802 58.7609 24.0645Z" fill="#07453A"/>
<path d="M56.6621 23.8179C57.0334 23.4123 57.4338 23.0757 57.8761 22.7478L59.1525 21.7956C60.0119 21.1556 60.8713 20.5156 61.7306 19.8755C62.1686 19.5677 62.6066 19.2599 63.0447 18.9521L63.6891 18.4983L63.8449 18.3837L63.925 18.3164C63.9503 18.3006 63.9755 18.2849 64.0261 18.2534L64.047 18.2578C64.0723 18.242 64.1185 18.2307 64.1395 18.235C64.1814 18.2437 64.2234 18.2524 64.24 18.2768L64.261 18.2812C64.282 18.2855 64.2987 18.3099 64.2944 18.33C64.311 18.3545 64.3277 18.3789 64.3444 18.4033C64.3568 18.4479 64.3691 18.4924 64.3815 18.5369C64.4063 18.626 64.4144 18.6906 64.4225 18.7552C64.4344 18.9046 64.4506 19.0338 64.4415 19.1788L64.4438 19.5778L64.4274 20.3717C64.4249 20.8957 64.4644 21.4284 64.7522 21.8238C64.7856 21.8726 64.7727 21.9329 64.7222 21.9644C64.6716 21.9959 64.6297 21.9871 64.592 21.9583C64.4 21.7297 64.2795 21.474 64.2305 21.1911C64.1771 20.9283 64.1491 20.6497 64.142 20.3755L64.1374 19.5773L64.1141 19.1738C64.0979 19.0446 64.1027 18.9197 64.0865 18.7905C64.0784 18.7259 64.0703 18.6612 64.0579 18.6167C64.0413 18.5923 64.0456 18.5722 64.0289 18.5477L64.1084 18.5852C64.1504 18.5939 64.1966 18.5825 64.2009 18.5624L64.1461 18.614L64.066 18.6813L63.9102 18.7959L63.2615 19.2698C62.8444 19.5819 62.4021 19.9098 61.9851 20.222L59.4236 22.1665L58.1429 23.1388C57.7005 23.4667 57.2668 23.7544 56.7578 23.9846C56.7073 24.0161 56.6487 23.9829 56.6153 23.934C56.6239 23.8939 56.6325 23.8537 56.6621 23.8179Z" fill="#07453A"/>
<path d="M53.6484 23.3371C54.0035 22.8025 54.4295 22.3455 54.8722 21.9129L56.2046 20.5951C57.111 19.7342 58.0174 18.8734 58.9404 18.0371C59.3998 17.6289 59.8844 17.205 60.3648 16.8012L61.0853 16.1955L61.4351 15.8905C61.5404 15.8074 61.6543 15.6842 61.7682 15.561C61.823 15.5094 61.903 15.4421 61.9998 15.3993L62.046 15.3879C62.0669 15.3923 62.0922 15.3765 62.0922 15.3765C62.0503 15.3678 62.1846 15.3537 62.2556 15.4314C62.3266 15.509 62.2723 15.4558 62.2889 15.4802L62.2847 15.5003C62.2804 15.5204 62.2804 15.5204 62.3013 15.5247L62.3137 15.5692L62.3299 15.6985C62.3628 15.8521 62.3704 16.0215 62.4032 16.1751C62.4479 16.478 62.4717 16.7766 62.5669 17.048C62.7531 17.611 63.1537 18.0925 63.622 18.4623C63.6596 18.4911 63.6678 18.5557 63.6339 18.6116C63.6044 18.6474 63.5372 18.6545 63.4995 18.6257C62.9893 18.2473 62.5468 17.757 62.3063 17.1408C62.1734 16.8406 62.133 16.5176 62.0882 16.2147C62.0554 16.061 62.0435 15.9117 62.0106 15.7581L61.9902 15.649L61.9945 15.6289C62.0111 15.6533 61.9778 15.6045 62.0278 15.6778C62.0778 15.7511 62.2165 15.7169 62.1703 15.7283C62.1241 15.7397 62.0693 15.7912 62.0145 15.8428C61.9048 15.9459 61.8162 16.0534 61.6814 16.1722L61.3316 16.4773L60.632 17.0873C60.1726 17.4955 59.709 17.9237 59.2496 18.3318C58.3266 19.1682 57.4411 20.0334 56.5514 20.9186L55.219 22.2365C54.7763 22.6691 54.3126 23.0973 53.7989 23.4522C53.7484 23.4837 53.6855 23.4707 53.6522 23.4218C53.6312 23.4175 53.6189 23.373 53.6484 23.3371Z" fill="#07453A"/>
<path d="M49.9243 22.7923C50.2545 22.1687 50.681 21.607 51.1284 21.0496C51.5716 20.5123 52.019 19.955 52.4831 19.4221C53.3904 18.3518 54.3396 17.2903 55.3011 16.2733C55.7819 15.7648 56.3046 15.2649 56.802 14.7808C57.0507 14.5388 57.2995 14.2968 57.5691 14.0591C57.704 13.9402 57.8388 13.8214 57.9737 13.7026L58.0789 13.6195L58.1295 13.588L58.18 13.5565L58.3739 13.3661C58.433 13.2945 58.5088 13.2472 58.5888 13.1799L58.6393 13.1485C58.6645 13.1327 58.6855 13.1371 58.7108 13.1214C58.736 13.1056 58.757 13.1099 58.7989 13.1186C58.8198 13.123 58.8198 13.123 58.8408 13.1273C58.8618 13.1317 58.8827 13.136 58.9037 13.1404C58.9832 13.1778 59.0166 13.2267 59.0542 13.2554C59.1919 13.4308 59.2666 13.5931 59.3414 13.7554C59.4162 13.9177 59.4657 14.0958 59.549 14.2179C59.6281 14.3601 59.7029 14.5224 59.8029 14.669C60.161 15.2466 60.6159 15.7813 61.1384 16.2042C61.176 16.233 61.1841 16.2976 61.1503 16.3535C61.1208 16.3893 61.0536 16.3964 61.0159 16.3676C60.4262 15.9517 59.9504 15.4126 59.5504 14.8263C59.4503 14.6798 59.3503 14.5332 59.2756 14.3709C59.1798 14.2043 59.126 14.0463 59.047 13.9041C58.9679 13.7619 58.8932 13.5996 58.8055 13.4975C58.7888 13.4731 58.7679 13.4687 58.7512 13.4443C58.7722 13.4487 58.7722 13.4486 58.7974 13.4329L58.7721 13.4487C58.7216 13.4801 58.6626 13.5518 58.5868 13.599L58.3929 13.7895L58.3381 13.841L58.2833 13.8926L58.178 13.9756C58.0431 14.0944 57.9293 14.2176 57.7944 14.3365C57.5457 14.5785 57.297 14.8206 57.0483 15.0626C56.5465 15.5668 56.07 16.0552 55.585 16.5838C54.6234 17.6008 53.6995 18.6466 52.7922 19.7168C52.3491 20.2541 51.9059 20.7914 51.4585 21.3488C51.0154 21.8861 50.5722 22.4234 50.0538 22.9031C50.0033 22.9346 49.9571 22.9459 49.9028 22.8927C49.9071 22.8726 49.9157 22.8325 49.9243 22.7923Z" fill="#07453A"/>
<path d="M46.8475 22.5024C46.9976 21.7997 47.2692 21.1431 47.5784 20.5153C47.8918 19.8674 48.2011 19.2396 48.5521 18.6205C49.2124 17.3736 49.9313 16.1599 50.6501 14.9461C50.997 14.347 51.4109 13.741 51.7787 13.1463L52.0702 12.7035L52.104 12.6476L52.1336 12.6118L52.2012 12.5001C52.2393 12.4241 52.2984 12.3525 52.3408 12.2564L52.3746 12.2005C52.3789 12.1804 52.3789 12.1805 52.4042 12.1647C52.4085 12.1447 52.4294 12.149 52.4589 12.1132L52.4842 12.0974C52.4842 12.0974 52.4842 12.0975 52.5094 12.0817C52.5304 12.0861 52.5347 12.066 52.5556 12.0703C52.5766 12.0747 52.5808 12.0546 52.6018 12.059C52.6227 12.0633 52.6228 12.0633 52.6228 12.0633L52.6437 12.0677C52.6647 12.072 52.6856 12.0763 52.7066 12.0807C52.7485 12.0894 52.7652 12.1138 52.7861 12.1181C52.8823 12.18 52.9575 12.2375 53.0118 12.2907L53.4213 12.6273C53.7013 12.8531 53.9394 13.0702 54.2237 13.2759C54.508 13.4816 54.7966 13.6672 55.0852 13.8529C55.6876 14.2084 56.3324 14.468 57.0115 14.5668C57.0744 14.5799 57.1077 14.6287 57.0949 14.689C57.082 14.7492 57.0315 14.7807 56.9896 14.772C56.6248 14.7383 56.2686 14.6644 55.9419 14.5547C55.5942 14.4407 55.2761 14.2909 54.9623 14.121C54.6484 13.951 54.3389 13.761 54.0503 13.5754C53.7618 13.3897 53.4608 13.1596 53.2018 12.9381L52.7922 12.6016C52.717 12.5441 52.6627 12.4909 52.6041 12.4578C52.5832 12.4534 52.5832 12.4534 52.5832 12.4534L52.6041 12.4578C52.6251 12.4621 52.6251 12.4621 52.6503 12.4464C52.6713 12.4507 52.6756 12.4307 52.6965 12.435L52.7218 12.4193C52.7261 12.3992 52.7218 12.4193 52.7218 12.4193L52.7175 12.4394L52.6836 12.4953C52.6455 12.5712 52.5865 12.6428 52.5484 12.7188L52.4807 12.8306C52.4765 12.8506 52.4512 12.8664 52.4426 12.9065L52.4088 12.9624L52.1382 13.4095C51.7705 14.0042 51.3817 14.5945 51.0516 15.218C50.3537 16.4361 49.6348 17.6499 48.9955 18.9012C48.6654 19.5247 48.3562 20.1524 48.047 20.7802C47.7378 21.408 47.4495 22.0402 47.0775 22.655C47.0437 22.7108 46.9765 22.7178 46.9389 22.6891C46.8513 22.587 46.8389 22.5426 46.8475 22.5024Z" fill="#07453A"/>
<path d="M44.3874 22.2949C44.3484 21.6582 44.4184 21.023 44.5303 20.3966C44.6422 19.7702 44.775 19.1481 44.9287 18.5304C45.2152 17.2906 45.5812 16.0883 45.9306 14.8615L46.4922 13.0501L46.6326 12.5973L46.6412 12.5571C46.6412 12.5571 46.6455 12.537 46.6498 12.517L46.6712 12.4166C46.6798 12.3765 46.6674 12.332 46.7055 12.2561C46.7098 12.236 46.7098 12.236 46.735 12.2203C46.7393 12.2003 46.7645 12.1845 46.7688 12.1644C46.773 12.1444 46.8235 12.113 46.8654 12.1217C46.9115 12.1103 46.9325 12.1146 46.9744 12.1233C47.0748 12.1651 47.0538 12.1607 47.0914 12.1895C47.3755 12.3951 47.5796 12.668 47.7671 12.9165C47.9545 13.165 48.142 13.4134 48.3633 13.606C48.5803 13.8187 48.8267 13.9956 49.0984 14.1568C49.6209 14.4748 50.211 14.681 50.8139 14.8271C50.8767 14.8401 50.91 14.889 50.8971 14.9492C50.8843 15.0094 50.8338 15.0408 50.771 15.0278C50.457 14.9626 50.1429 14.8974 49.8374 14.7921C49.5319 14.6868 49.2307 14.5614 48.959 14.4002C48.6873 14.2391 48.3989 14.0535 48.161 13.8365C47.8979 13.6352 47.6938 13.3623 47.5063 13.1138C47.3188 12.8654 47.1271 12.637 46.8763 12.4802C46.8763 12.4802 46.8178 12.4471 46.8763 12.4802C46.8972 12.4845 46.9182 12.4888 46.9644 12.4775C46.9853 12.4818 47.0357 12.4504 47.0357 12.4504L47.0652 12.4146C47.0652 12.4146 47.0652 12.4146 47.0695 12.3945C47.0695 12.3945 47.0609 12.4347 47.0566 12.4547L47.0519 12.5795C47.0476 12.5996 47.0433 12.6196 47.0348 12.6597L47.0219 12.72L46.8815 13.1728L46.3617 14.9929C46.0167 16.1996 45.6716 17.4063 45.3893 18.626C45.2565 19.2481 45.128 19.8501 45.0161 20.4765C44.9043 21.1029 44.7757 21.7049 44.6011 22.3183C44.5882 22.3785 44.5168 22.4056 44.4792 22.3768C44.4164 22.3638 44.3998 22.3394 44.3874 22.2949Z" fill="#07453A"/>
<path d="M42.7476 22.0515C42.6565 21.7601 42.6492 21.486 42.6462 21.1919C42.6598 20.9223 42.6569 20.6282 42.6538 20.3341C42.6435 19.766 42.6374 19.1778 42.648 18.614L42.6556 17.7561L42.6685 17.6959L42.6727 17.6759C42.677 17.6558 42.6684 17.6959 42.6727 17.6759C42.6727 17.6759 42.677 17.6558 42.6603 17.6314C42.6646 17.6113 42.6479 17.5868 42.6564 17.5467C42.6607 17.5266 42.644 17.5022 42.6863 17.4062C42.6906 17.3861 42.7201 17.3504 42.7453 17.3346C42.7705 17.3189 42.7957 17.3032 42.8209 17.2875C42.8461 17.2718 42.8671 17.2761 42.888 17.2805L42.909 17.2848C42.9299 17.2892 42.9509 17.2936 42.9718 17.2979C43.0137 17.3067 43.0512 17.3355 43.0931 17.3442C43.2521 17.4192 43.3649 17.5056 43.482 17.5719C43.5948 17.6583 43.691 17.7202 43.829 17.7909C43.9461 17.8572 44.0884 17.9078 44.2055 17.9741C44.4691 18.071 44.7328 18.1678 45.0093 18.2044C45.0721 18.2175 45.1054 18.2664 45.0926 18.3266C45.0798 18.3868 45.0294 18.4182 44.9875 18.4095C44.6858 18.3886 44.3927 18.3276 44.1248 18.2508C43.9825 18.2002 43.8401 18.1496 43.6979 18.099C43.5556 18.0484 43.4175 17.9777 43.3047 17.8913C43.1876 17.825 43.0705 17.7587 42.9492 17.7125C42.9282 17.7081 42.8864 17.6994 42.8654 17.695C42.8445 17.6907 42.8445 17.6907 42.8236 17.6863L42.8445 17.6907C42.8654 17.695 42.8654 17.695 42.8906 17.6793C42.9159 17.6636 42.9368 17.6679 42.962 17.6522C42.9872 17.6365 43.0167 17.6008 43.0167 17.6008C43.0547 17.5249 43.0338 17.5205 43.0338 17.5205C43.0338 17.5205 43.0337 17.5205 43.0504 17.5449C43.0461 17.565 43.0628 17.5894 43.0586 17.6095L43.0667 17.674L43.0624 17.6941L43.0705 17.7587L43.0839 18.6209L43.1358 20.3297C43.1388 20.6238 43.1461 20.8978 43.1491 21.1919C43.1522 21.486 43.1133 21.7713 42.9655 22.055C42.9318 22.1108 42.8647 22.1178 42.8228 22.1091C42.76 22.096 42.7433 22.0716 42.7476 22.0515Z" fill="#07453A"/>
<path d="M76.4003 27.6019C77.6015 27.185 78.8842 27.0239 80.1404 27.0229C81.4008 27.0063 82.6587 27.1228 83.9111 27.3215C85.1677 27.5045 86.3749 27.8083 87.602 28.1006C88.8092 28.4043 90.0237 28.7433 91.2128 29.176C92.3863 29.6045 93.5585 30.0996 94.6501 30.707C95.7573 31.3185 96.7881 32.0269 97.7822 32.809C98.2771 33.2079 98.7564 33.6027 99.2315 34.013L99.4094 34.1606L99.506 34.2363L99.5601 34.2842L99.5871 34.308L99.5985 34.3278L99.61 34.3475C99.6214 34.3673 99.6099 34.3475 99.6171 34.3829C99.6243 34.4182 99.6315 34.4535 99.623 34.4847L99.6188 34.5003L99.6104 34.5316C99.6062 34.5472 99.5821 34.5742 99.5779 34.5898C99.5538 34.6169 99.5298 34.6439 99.5099 34.6554C99.466 34.6939 99.4263 34.7168 99.3908 34.7241C99.3115 34.7699 99.2363 34.8001 99.1498 34.8106C98.8378 34.9117 98.5228 34.9618 98.2192 35.0317C96.9892 35.3072 95.7221 35.4724 94.46 35.3715C94.4089 35.3747 94.3591 35.3113 94.3717 35.2645C94.3688 35.2135 94.4325 35.1636 94.4794 35.1761C95.7144 35.2531 96.9546 35.0639 98.1575 34.7645C98.4611 34.6946 98.7605 34.6404 99.0568 34.5351C99.132 34.5049 99.1873 34.4862 99.2468 34.4518C99.2823 34.4445 99.3064 34.4174 99.3262 34.4059C99.3304 34.3903 99.3304 34.3904 99.3461 34.3946C99.3418 34.4102 99.3291 34.4569 99.3405 34.4767C99.3519 34.4964 99.3363 34.4922 99.352 34.4964L99.3405 34.4767L99.2979 34.4486L99.2168 34.3769L99.0234 34.2253C98.5399 33.8462 98.0606 33.4514 97.577 33.0723C96.5944 32.3098 95.5551 31.6327 94.475 31.045C93.3948 30.4573 92.2495 29.9862 91.0718 29.5733C89.9097 29.1645 88.7109 28.8296 87.5037 28.5259C86.2922 28.2377 85.0808 27.9497 83.8596 27.7593C82.6385 27.5689 81.392 27.4721 80.1671 27.4814C79.5468 27.484 78.9337 27.5219 78.3206 27.5598C77.7033 27.6134 77.0974 27.6866 76.4716 27.7713C76.4205 27.7744 76.3623 27.7423 76.3593 27.6913C76.3323 27.6674 76.3606 27.6248 76.4003 27.6019Z" fill="#07453A"/>
<path d="M78.016 60.4172C79.6934 60.9618 81.3184 61.5762 82.9675 62.1634C84.6166 62.7507 86.2911 63.2444 87.9896 63.7111C89.6797 64.209 91.3457 64.7339 93.0189 65.2942L94.2673 65.6917C94.388 65.7404 94.4932 65.7851 94.5827 65.8255L94.7347 65.8824L94.7972 65.8989L94.8284 65.9072C94.8284 65.9072 94.844 65.9114 94.8128 65.9031L94.7972 65.8989C94.7972 65.8989 94.7816 65.8948 94.7617 65.9063C94.7419 65.9177 94.7262 65.9136 94.7021 65.9407C94.678 65.9677 94.6498 66.0103 94.6414 66.0415C94.6329 66.0727 94.6287 66.0883 94.6359 66.1236C94.643 66.1589 94.6472 66.1434 94.643 66.1589L94.6544 66.1787C94.6658 66.1984 94.6658 66.1984 94.6544 66.1787L94.6046 66.1153C94.5662 66.0717 94.5392 66.0479 94.5008 66.0043C94.4197 65.9327 94.3543 65.8652 94.2732 65.7936C93.9604 65.5269 93.5881 65.2945 93.2313 65.0663L92.9557 64.9097L92.6644 64.749L92.3731 64.5883L92.2253 64.5158L92.1514 64.4795L92.1087 64.4514L92.0931 64.4473L92.0775 64.4432L92.0619 64.439C92.1767 64.3859 91.8351 64.5962 92.1164 64.0524L91.9931 64.1368C92.0653 64.0556 92.149 63.9942 92.2085 63.9598C92.2837 63.9296 92.3389 63.9108 92.4099 63.8962C92.5361 63.8628 92.6539 63.8605 92.7717 63.8583C93.0073 63.8539 93.2189 63.8765 93.4503 63.8877C93.889 63.9371 94.3234 64.002 94.7465 64.0473C94.958 64.0699 95.1653 64.1081 95.3925 64.1348C95.604 64.1575 95.8156 64.1801 96.0043 64.1633C96.0554 64.1601 96.0908 64.1528 96.1263 64.1455L96.1461 64.134C96.1461 64.134 96.1461 64.134 96.1263 64.1455C96.1263 64.1455 96.122 64.161 96.1064 64.1569L96.1022 64.1725L96.098 64.1881C96.0739 64.2151 96.0853 64.2349 96.0768 64.266C96.0726 64.2816 96.084 64.3014 96.084 64.3014C96.0798 64.317 96.0798 64.3169 96.0954 64.3211C96.1182 64.3605 96.1225 64.345 96.1068 64.3408C96.0912 64.3367 96.0799 64.3169 96.0486 64.3087L95.9051 64.2205C95.8624 64.1925 95.7814 64.1209 95.7543 64.0971C95.7273 64.0732 95.6846 64.0452 95.6462 64.0016C95.5609 63.9456 95.4757 63.8895 95.3946 63.8179C95.0379 63.5897 94.6613 63.373 94.3058 63.0783C94.2248 63.0067 94.1281 62.9309 94.0555 62.8281C94.0285 62.8043 94.0171 62.7845 93.9901 62.7606L93.9289 62.6776L93.9175 62.6578C93.9175 62.6578 93.8947 62.6184 93.899 62.6028C93.899 62.6028 93.8918 62.5675 93.9002 62.5363C93.9087 62.5052 93.9129 62.4896 93.9213 62.4584C93.9298 62.4272 93.9539 62.4002 93.9737 62.3887C93.9936 62.3772 93.9936 62.3772 94.0134 62.3658C94.029 62.3699 94.0489 62.3584 94.0489 62.3584L94.0688 62.347C94.0844 62.3512 94.1042 62.3397 94.1042 62.3397L94.1198 62.3438C94.1667 62.3563 94.1979 62.3645 94.2178 62.3531C94.249 62.3613 94.2646 62.3655 94.2803 62.3696L94.347 62.3706L94.5116 62.3808L94.841 62.4011C95.2725 62.4152 95.7154 62.449 96.1426 62.4787L96.7858 62.5153L97.1151 62.5357L97.2953 62.55L97.3777 62.5552L97.4089 62.5635C97.4089 62.5635 97.4089 62.5635 97.3933 62.5593C97.3933 62.5593 97.3777 62.5551 97.3734 62.5707C97.3536 62.5822 97.3338 62.5937 97.3139 62.6051L97.2898 62.6321C97.2658 62.6592 97.2446 62.7372 97.256 62.7569C97.2518 62.7725 97.2632 62.7922 97.2746 62.8119C97.286 62.8317 97.286 62.8317 97.3016 62.8358C97.3016 62.8358 97.3172 62.84 97.3016 62.8358L97.286 62.8317L97.2277 62.7995L97.0956 62.7311L96.8271 62.6098L96.2702 62.3787C95.908 62.2326 95.5259 62.098 95.148 61.9478C94.996 61.8908 94.7845 61.8681 94.5928 61.8341L94.4324 61.8083C94.3855 61.7959 94.3386 61.7835 94.2605 61.7628C94.2449 61.7586 94.2449 61.7586 94.2179 61.7347L94.2023 61.7306C94.1867 61.7265 94.1752 61.7068 94.1795 61.6912C94.1681 61.6715 94.1681 61.6714 94.1609 61.6361C94.1538 61.6008 94.1622 61.5696 94.1664 61.554C94.1749 61.5228 94.199 61.4958 94.2188 61.4843C94.2231 61.4687 94.2386 61.4729 94.2585 61.4614C94.2783 61.45 94.2784 61.45 94.2982 61.4385C94.3337 61.4312 94.3535 61.4198 94.389 61.4125C94.4443 61.3937 94.4954 61.3905 94.5465 61.3874C94.9522 61.311 95.3682 61.3209 95.757 61.3069L96.0593 61.3035L96.2126 61.2939C96.2637 61.2908 96.3148 61.2876 96.3659 61.2845C96.566 61.2874 96.7661 61.2902 96.9663 61.293C97.0684 61.2867 97.1664 61.2959 97.253 61.2855C97.3041 61.2823 97.3395 61.275 97.3906 61.2718C97.4261 61.2645 97.4814 61.2458 97.4814 61.2458C97.4814 61.2458 97.4814 61.2457 97.4772 61.2613C97.4729 61.2769 97.4687 61.2925 97.4645 61.3081C97.4602 61.3237 97.4603 61.3237 97.4759 61.3279L97.4873 61.3475C97.4561 61.3393 97.4134 61.3113 97.3666 61.2989C97.2771 61.2585 97.1833 61.2336 97.0938 61.1932C96.341 60.9436 95.5642 60.7211 94.8114 60.4715C94.7646 60.4591 94.7303 60.3999 94.7472 60.3376C94.7599 60.2908 94.8195 60.2564 94.8663 60.2688C95.6234 60.5028 96.4044 60.7097 97.1572 60.9593C97.2509 60.9841 97.3404 61.0246 97.4497 61.0535C97.4966 61.066 97.5392 61.094 97.6017 61.1105C97.633 61.1188 97.66 61.1426 97.6714 61.1624C97.6984 61.1862 97.7099 61.206 97.7171 61.2413C97.7242 61.2766 97.7115 61.3234 97.703 61.3546C97.679 61.3816 97.6549 61.4087 97.6351 61.4201C97.5557 61.4659 97.5046 61.4692 97.4493 61.4879C97.3939 61.5067 97.3429 61.5099 97.2918 61.513C97.1896 61.5194 97.0874 61.5257 96.9852 61.5321C96.7851 61.5292 96.585 61.5263 96.3806 61.539C96.3295 61.5422 96.2784 61.5453 96.2472 61.5371L96.0939 61.5466L95.7874 61.5656C95.3829 61.5755 94.994 61.5894 94.6038 61.6699C94.5527 61.673 94.513 61.696 94.462 61.6992L94.4067 61.7179C94.4067 61.7179 94.4222 61.722 94.4265 61.7064C94.4463 61.695 94.4662 61.6836 94.4746 61.6524C94.4831 61.6212 94.4873 61.6056 94.4801 61.5703C94.473 61.5349 94.473 61.535 94.4574 61.5309C94.446 61.5111 94.446 61.5111 94.4303 61.507L94.4147 61.5028C94.3991 61.4987 94.3991 61.4987 94.3991 61.4987C94.4147 61.5028 94.4772 61.5194 94.5084 61.5277L94.6532 61.5493L94.9585 61.5967C95.0522 61.6215 95.1658 61.635 95.2751 61.664C95.6572 61.7986 96.0238 61.9291 96.4016 62.0793L96.9627 62.2948L97.2468 62.4202L97.3946 62.4928C97.4258 62.501 97.4372 62.5208 97.4684 62.5291C97.4841 62.5332 97.4955 62.553 97.5111 62.5571C97.5268 62.5612 97.5225 62.5768 97.5381 62.581C97.5495 62.6007 97.5496 62.6007 97.5766 62.6245C97.588 62.6443 97.5993 62.664 97.5951 62.6796C97.6022 62.7149 97.601 62.7814 97.5571 62.8199L97.533 62.847C97.5132 62.8585 97.4891 62.8855 97.4692 62.897C97.4536 62.8928 97.4494 62.9084 97.4338 62.9043C97.4139 62.9157 97.4139 62.9157 97.3983 62.9115C97.3827 62.9074 97.3628 62.9189 97.3628 62.9189L97.3117 62.9221L97.2294 62.917L97.0804 62.9109L96.751 62.8905L96.108 62.8538C95.6765 62.8398 95.2335 62.806 94.802 62.792L94.4727 62.7716L94.308 62.7613L94.2101 62.7521C94.1633 62.7397 94.132 62.7314 94.1122 62.7429C94.0809 62.7346 94.0653 62.7305 94.0497 62.7263C94.0497 62.7263 94.0496 62.7263 94.0652 62.7304L94.0809 62.7346C94.0809 62.7346 94.1008 62.7231 94.1164 62.7273C94.1362 62.7158 94.1362 62.7158 94.156 62.7044C94.1759 62.6929 94.2 62.6658 94.2042 62.6502C94.2127 62.6191 94.2169 62.6035 94.2211 62.5879C94.2253 62.5723 94.2181 62.537 94.2181 62.537C94.2224 62.5214 94.211 62.5016 94.211 62.5016L94.2224 62.5214L94.2608 62.565L94.2992 62.6086C94.3646 62.6761 94.4301 62.7435 94.5112 62.8151C94.8282 63.0662 95.2048 63.283 95.5771 63.5153C95.678 63.5755 95.7633 63.6315 95.86 63.7073C95.9026 63.7353 95.9567 63.783 95.9993 63.811C96.0533 63.8587 96.0533 63.8588 96.1115 63.8909L96.2551 63.979C96.2821 64.0029 96.3134 64.0112 96.3404 64.0351C96.3674 64.059 96.41 64.0869 96.4556 64.1658C96.467 64.1856 96.467 64.1856 96.4628 64.2012C96.4742 64.2209 96.47 64.2365 96.4615 64.2677C96.4645 64.3186 96.4404 64.3457 96.4319 64.3769C96.4277 64.3924 96.4277 64.3924 96.4079 64.4038L96.388 64.4153C96.3838 64.4309 96.3681 64.4268 96.3639 64.4424C96.3597 64.458 96.3441 64.4538 96.3399 64.4694L96.32 64.4809C96.3002 64.4923 96.2804 64.5038 96.2449 64.5111C96.225 64.5226 96.2094 64.5184 96.1895 64.5298C96.1186 64.5445 96.0476 64.5591 95.9966 64.5623C95.7567 64.5823 95.5296 64.5555 95.3181 64.5329C95.1066 64.5103 94.8794 64.4836 94.6679 64.461C94.2334 64.396 93.8103 64.3508 93.3872 64.3055C93.1757 64.2829 92.96 64.2759 92.7598 64.273C92.6577 64.2793 92.5555 64.2857 92.4689 64.2962C92.3823 64.3067 92.3186 64.3566 92.3228 64.341L92.1995 64.4254C92.4964 63.8857 92.1392 64.0919 92.2697 64.0429C92.2697 64.0429 92.2541 64.0388 92.2697 64.0429L92.2853 64.047L92.3123 64.0709L92.3862 64.1072L92.534 64.1798L92.8253 64.3405L93.1166 64.5012L93.4079 64.6619C93.7845 64.8787 94.1682 65.1307 94.5237 65.4254C94.6047 65.497 94.7014 65.5728 94.7782 65.66C94.8166 65.7036 94.8551 65.7472 94.8935 65.7908L94.9589 65.8582C94.9746 65.8624 94.9859 65.8822 95.0087 65.9216L95.0201 65.9414C95.0159 65.957 95.0315 65.961 95.0272 65.9766C95.0386 65.9964 95.0386 65.9964 95.0302 66.0276C95.0374 66.0629 95.0289 66.094 95.0205 66.1252C95.012 66.1564 94.9795 66.2147 94.9554 66.2417C94.9157 66.2646 94.9115 66.2802 94.876 66.2875C94.8406 66.2948 94.8207 66.3063 94.8207 66.3063C94.8051 66.3022 94.8051 66.3021 94.7853 66.3136C94.7185 66.3126 94.7029 66.3085 94.6873 66.3043C94.6717 66.3002 94.6561 66.2961 94.6404 66.2919L94.5467 66.2671L94.3947 66.2101C94.2896 66.1656 94.1845 66.121 94.1064 66.1003L92.8423 65.6986C91.1847 65.1425 89.4989 64.629 87.8244 64.1353C86.1415 63.6727 84.4359 63.1707 82.7825 62.599C81.1136 62.0232 79.4898 61.3423 77.9028 60.5876C77.8602 60.5596 77.826 60.5005 77.8543 60.4579C77.9138 60.4235 77.9692 60.4047 78.016 60.4172Z" fill="#07453A"/>
<path d="M119.312 53.0488C120.49 52.8431 121.669 52.7548 122.855 52.7019C124.042 52.649 125.224 52.6117 126.406 52.5743C128.782 52.5194 131.149 52.4957 133.508 52.5032L137.063 52.5441C138.249 52.5577 139.434 52.5713 140.622 52.6359C142.987 52.7452 145.368 53.0428 147.639 53.7459C147.686 53.7583 147.72 53.8176 147.707 53.8643C147.695 53.9111 147.635 53.9455 147.588 53.9331C145.32 53.2809 142.969 53.0582 140.616 52.9686C139.439 52.9237 138.25 52.9257 137.076 52.9318L133.523 52.9419C131.16 52.95 128.793 52.9737 126.433 53.0328C125.25 53.0701 124.068 53.1075 122.897 53.1645C121.711 53.2174 120.544 53.2589 119.348 53.2255C119.297 53.2287 119.243 53.1809 119.244 53.1144C119.228 53.1102 119.257 53.0676 119.312 53.0488Z" fill="#07453A"/>
<path d="M119.157 54.0453C120.266 53.9716 121.38 53.9997 122.486 54.0591L125.805 54.2373C128.013 54.3716 130.232 54.5257 132.439 54.7266C133.548 54.837 134.641 54.9432 135.746 55.0691C136.851 55.195 137.947 55.3522 139.048 55.4938C140.149 55.6353 141.241 55.808 142.34 56.0162C143.44 56.2243 144.522 56.4948 145.575 56.8745C145.622 56.887 145.656 56.9463 145.639 57.0087C145.627 57.0555 145.567 57.0898 145.505 57.0732C143.413 56.3844 141.208 56.1169 139.002 55.8494C137.897 55.7235 136.797 55.582 135.703 55.4758C134.594 55.3654 133.501 55.2592 132.399 55.1843C130.188 54.9989 127.984 54.849 125.772 54.7303L122.449 54.5677C121.343 54.5083 120.237 54.449 119.129 54.2721C119.083 54.2596 119.028 54.2118 119.045 54.1494C119.066 54.0714 119.106 54.0485 119.157 54.0453Z" fill="#07453A"/>
<path d="M119.099 55.1864C121.141 55.5624 123.163 56.0164 125.222 56.33C126.248 56.5024 127.286 56.6279 128.315 56.7847L131.413 57.224C132.447 57.3652 133.476 57.522 134.514 57.6476L136.07 57.8438C136.586 57.9144 137.096 57.9497 137.625 58.04C138.67 58.201 139.682 58.4866 140.69 58.7214C141.699 58.9562 142.716 59.1599 143.748 59.1836C143.799 59.1805 143.853 59.2282 143.856 59.2792C143.859 59.3301 143.811 59.3842 143.76 59.3873C142.704 59.3906 141.663 59.2141 140.634 58.9908C139.601 58.783 138.597 58.5326 137.579 58.3955C137.077 58.3291 136.552 58.2897 136.031 58.2347L134.467 58.0697C133.429 57.944 132.391 57.8185 131.353 57.6929L128.252 57.2692C127.218 57.128 126.184 56.9869 125.154 56.8301C124.124 56.6733 123.083 56.4967 122.066 56.2931C121.558 56.1913 121.038 56.0698 120.538 55.9368C120.038 55.8038 119.53 55.6355 119.051 55.4245C119.009 55.3964 118.974 55.3371 119.003 55.2945C118.992 55.2082 119.048 55.1895 119.099 55.1864Z" fill="#07453A"/>
<path d="M118.787 56.6458C119.791 56.7119 120.765 56.8873 121.74 57.0627L124.667 57.6398C125.637 57.8308 126.627 58.0103 127.597 58.2013C128.568 58.3923 129.554 58.5874 130.524 58.7784C132.472 59.1958 134.416 59.6288 136.351 60.093C138.282 60.5728 140.209 61.0682 142.119 61.626C142.165 61.6385 142.2 61.6978 142.187 61.7447C142.174 61.7915 142.115 61.8259 142.068 61.8134C140.141 61.318 138.206 60.8538 136.278 60.425C134.338 59.9764 132.402 59.5788 130.446 59.1927C129.475 59.0017 128.489 58.8065 127.515 58.6311C126.54 58.4557 125.566 58.2804 124.58 58.0853L121.649 57.5237C120.678 57.3327 119.697 57.122 118.74 56.8175C118.693 56.8051 118.659 56.7458 118.676 56.6834C118.68 56.6678 118.72 56.6448 118.787 56.6458Z" fill="#07453A"/>
<path d="M118.273 58.2347C119.269 58.3321 120.239 58.5232 121.206 58.7299C122.168 58.9522 123.13 59.1746 124.087 59.4125C126.007 59.8728 127.918 60.3644 129.83 60.8559C131.737 61.3631 133.639 61.8858 135.538 62.4241C137.437 62.9625 139.331 63.5166 141.221 64.0862C141.268 64.0987 141.303 64.1579 141.29 64.2048C141.277 64.2516 141.218 64.286 141.171 64.2735L135.45 62.7521C133.542 62.2449 131.631 61.7535 129.716 61.2776C127.804 60.786 125.889 60.3101 123.965 59.8654C123.003 59.643 122.041 59.4207 121.079 59.1984C120.606 59.0893 120.117 58.9761 119.648 58.8514C119.164 58.7225 118.695 58.5977 118.223 58.422C118.176 58.4095 118.142 58.3503 118.158 58.2878C118.182 58.2607 118.242 58.2264 118.273 58.2347Z" fill="#07453A"/>
<path d="M118.195 59.2769C118.712 59.3474 119.22 59.4491 119.725 59.5664C120.229 59.6837 120.729 59.8167 121.225 59.9653C122.217 60.2624 123.205 60.5752 124.208 60.8921C126.179 61.5331 128.142 62.2054 130.105 62.8777C132.063 63.5657 134.022 64.2535 135.989 64.9102C137.952 65.5825 139.923 66.2236 141.911 66.8022C141.958 66.8147 141.992 66.874 141.98 66.9208C141.967 66.9677 141.907 67.0021 141.86 66.9896C139.86 66.4578 137.86 65.8594 135.885 65.2339C133.909 64.6085 131.947 63.9361 129.98 63.2794C128.017 62.6071 126.05 61.9505 124.074 61.325C123.087 61.0123 122.099 60.6995 121.103 60.418C120.607 60.2694 120.111 60.1209 119.619 59.9567C119.127 59.7925 118.631 59.644 118.148 59.4486C118.101 59.4362 118.071 59.3612 118.1 59.3185C118.108 59.2873 118.148 59.2644 118.195 59.2769Z" fill="#07453A"/>
<path d="M117.927 60.2846C119.065 60.5365 120.165 60.9289 121.248 61.3837C122.32 61.8187 123.383 62.285 124.442 62.7669C126.564 63.715 128.662 64.6902 130.773 65.6185C132.883 66.5469 135.042 67.4211 137.198 68.2444C139.354 69.0676 141.534 69.8638 143.722 70.6288C143.769 70.6412 143.803 70.7005 143.787 70.763C143.774 70.8098 143.714 70.8441 143.652 70.8275C141.451 70.1093 139.254 69.3756 137.074 68.5794C134.894 67.7832 132.727 66.9402 130.592 66.0389C128.461 65.122 126.363 64.1468 124.237 63.2143C123.174 62.7481 122.111 62.2818 121.055 61.8509C119.983 61.4159 118.911 60.9808 117.868 60.5031C117.825 60.4751 117.791 60.4158 117.82 60.3731C117.841 60.2951 117.88 60.2722 117.927 60.2846Z" fill="#07453A"/>
<path d="M117.732 61.1466C118.917 61.5949 120.052 62.164 121.148 62.7559C122.26 63.3521 123.352 63.9597 124.459 64.5714C126.662 65.7751 128.861 66.9944 131.106 68.1086C133.346 69.2384 135.61 70.3412 137.928 71.3077C140.245 72.2742 142.621 73.0888 145.068 73.6381C145.115 73.6506 145.149 73.7098 145.137 73.7567C145.124 73.8035 145.08 73.842 145.017 73.8254C142.542 73.3187 140.122 72.5426 137.776 71.6188C135.435 70.6793 133.146 69.6037 130.902 68.4894C128.638 67.3867 126.419 66.1788 124.216 64.9751C123.104 64.379 122.012 63.7714 120.901 63.1753C119.789 62.5792 118.693 61.9872 117.614 61.3328C117.572 61.3047 117.553 61.2497 117.586 61.1914C117.629 61.1529 117.685 61.1341 117.732 61.1466Z" fill="#07453A"/>
</svg>
