<svg width="329" height="262" viewBox="0 0 329 262" fill="none" xmlns="http://www.w3.org/2000/svg">
<path d="M121.118 187.845C122.06 187.405 123.002 186.777 123.945 186.148C124.196 186.023 124.447 185.834 124.761 185.708C124.824 185.646 124.887 185.646 125.075 185.583H125.201C125.264 185.583 125.201 185.583 125.389 185.583C125.578 185.583 125.766 185.709 125.829 185.771L125.892 185.834C126.018 185.96 126.08 186.086 126.08 186.211C126.143 186.337 126.143 186.463 126.143 186.525C126.206 187.342 126.018 187.845 125.955 188.41C125.892 188.661 125.892 188.975 125.829 189.227C125.829 189.478 125.829 189.729 125.829 189.729C125.766 189.667 125.829 189.729 125.955 189.729C126.018 189.729 126.269 189.729 126.457 189.666C126.897 189.541 127.4 189.29 127.965 189.038C128.279 188.913 128.593 188.787 129.033 188.787C129.159 188.787 129.284 188.787 129.41 188.787C129.536 188.787 129.661 188.85 129.85 188.912C129.975 188.975 130.101 189.038 130.227 189.164C130.352 189.289 130.352 189.29 130.415 189.352C132.111 190.986 133.619 192.619 135.253 194.189L135.881 194.755L136.006 194.881C136.069 194.943 136.195 195.132 136.32 195.258C136.446 195.509 136.572 195.76 136.635 195.949C136.823 196.765 136.76 197.393 136.697 198.022C136.572 199.278 136.32 200.409 136.006 201.54C135.441 203.801 134.75 206 133.933 208.136C133.179 210.335 132.3 212.408 131.42 214.544C129.598 218.753 127.651 222.899 125.578 226.983C124.51 228.993 123.442 231.066 122.248 233.014C121.683 234.019 121.055 235.024 120.364 235.966C120.05 236.469 119.673 236.971 119.296 237.411C119.107 237.662 118.856 237.914 118.605 238.165C118.479 238.29 118.353 238.416 118.165 238.542L117.788 238.793C114.144 241.683 110.375 244.259 106.417 246.583C98.5015 251.295 90.0207 255.127 81.1 257.514C76.6396 258.708 72.0536 259.525 67.4047 259.776C62.7559 260.027 58.0443 259.713 53.4583 258.519C48.8723 257.389 44.5374 255.378 40.7681 252.551C39.0091 251.232 37.0616 250.164 35.1141 248.845C34.1718 248.154 33.1666 247.4 32.2871 246.52C31.8474 246.018 31.4705 245.515 31.0936 244.95L30.8424 244.51L30.2769 243.379C26.2563 235.15 22.8011 226.731 19.66 218.125L18.5292 214.921L17.9638 213.288L17.7125 212.471L17.4612 211.842C17.0215 211.026 16.3304 210.209 15.5137 209.581C14.697 208.89 13.8175 208.325 12.8752 207.822C11.9329 207.382 10.9278 207.005 9.9226 206.817C8.91745 206.628 7.91223 206.565 7.03273 206.817C6.78144 206.88 6.59297 207.005 6.40451 207.068C6.15322 207.131 6.09037 207.256 5.9019 207.382C5.52497 207.633 5.21089 208.01 4.83396 208.45C4.14291 209.267 3.57758 210.209 3.01218 211.089V211.151C2.76089 211.591 2.13261 211.78 1.69286 211.528C1.50439 211.403 1.31596 211.214 1.25313 211.026C1.00185 210.272 0.813441 209.518 0.687797 208.701C0.687797 208.262 0.624944 207.822 0.81341 207.257C0.939054 206.88 1.00188 206.817 1.12752 206.628L1.37875 206.126C2.06979 204.806 3.01209 203.55 4.01724 202.419C5.08521 201.288 6.46733 200.409 7.97506 199.906C9.48278 199.404 11.1162 199.341 12.624 199.529C15.7023 200.032 18.3408 201.477 20.7908 203.047C23.2409 204.618 25.5024 206.44 27.764 208.262C29.9628 210.084 32.1616 211.968 34.4232 213.727C35.554 214.607 36.6848 215.423 37.8784 216.177C38.1925 216.366 38.4437 216.554 38.7578 216.68L39.1976 216.931C39.3232 216.994 39.5118 217.057 39.6374 217.119L40.0772 217.308L40.5798 217.434C40.8939 217.496 41.2079 217.622 41.5848 217.622C44.2862 217.936 47.1131 217.559 49.8773 217.057C52.6415 216.554 55.4058 215.863 58.1699 215.109C63.6354 213.539 69.038 211.654 74.3779 209.581C79.7178 207.508 84.9949 205.309 90.1463 202.859C92.722 201.603 95.2977 200.346 97.6849 198.901C100.072 197.331 102.585 195.823 105.098 194.441C107.674 193.059 110.187 191.802 112.825 190.546C115.715 189.604 118.479 188.85 121.118 187.845ZM121.557 188.975C118.856 190.043 116.029 190.797 113.453 191.802C110.94 192.996 108.365 194.315 105.852 195.697C103.339 197.08 100.952 198.524 98.5016 200.158C95.9887 201.665 93.4131 202.922 90.8374 204.178C85.6231 206.691 80.346 208.953 75.0061 211.026C69.6662 213.099 64.2007 215.046 58.6724 216.617C55.9082 217.434 53.0813 218.125 50.2543 218.627C47.4273 219.13 44.4747 219.57 41.4592 219.256C41.0823 219.256 40.7053 219.13 40.3284 219.067C40.1399 219.004 39.9515 219.004 39.7631 218.942L39.1976 218.753C39.0091 218.69 38.8207 218.627 38.6322 218.502L38.1296 218.25C37.8155 218.062 37.5014 217.874 37.1873 217.685C35.9309 216.931 34.7373 216.052 33.6065 215.172C31.2821 213.413 29.1461 211.529 26.8845 209.769C24.6858 207.948 22.4241 206.251 20.0369 204.744C17.6496 203.236 15.1367 201.979 12.4982 201.54C11.1789 201.351 9.85978 201.414 8.66616 201.854C7.47254 202.294 6.40451 202.985 5.46218 203.927C4.58267 204.932 3.76601 206 3.13779 207.194L2.88657 207.634C2.82374 207.759 2.69807 208.011 2.69807 207.948C2.63525 208.011 2.63525 208.324 2.69807 208.639C2.76089 209.204 2.94933 209.895 3.13779 210.461L1.37875 210.335C2.00697 209.267 2.63516 208.324 3.38902 207.382C3.76595 206.879 4.20577 206.44 4.70834 206C4.95963 205.812 5.33656 205.56 5.65067 205.435C5.96478 205.309 6.27889 205.183 6.593 205.058C7.91227 204.681 9.23159 204.744 10.4252 204.995C11.6816 205.246 12.8124 205.623 13.8804 206.189C14.9484 206.754 16.0163 207.382 16.9586 208.199C17.901 209.016 18.7804 209.895 19.4086 211.089C19.5343 211.403 19.7228 211.717 19.7856 212.031L20.0369 212.848L20.6023 214.418L21.7332 217.622C24.8743 226.103 28.4551 234.458 32.4129 242.562L32.9782 243.693L33.1667 244.007C33.418 244.384 33.7321 244.761 34.0462 245.138C34.7372 245.892 35.554 246.52 36.4963 247.149C38.2554 248.405 40.3284 249.473 42.2759 250.855C45.8568 253.431 49.8773 255.253 54.1492 256.258C58.4211 257.326 62.8816 257.577 67.2791 257.326C71.6767 257.074 76.0741 256.258 80.4089 255.064C89.0155 252.677 97.2452 248.908 104.972 244.322C108.804 241.997 112.511 239.484 116.029 236.72L116.343 236.469C116.406 236.406 116.469 236.343 116.532 236.28C116.657 236.155 116.846 235.966 116.971 235.778C117.285 235.401 117.599 234.961 117.914 234.521C118.542 233.642 119.107 232.699 119.673 231.694C120.803 229.747 121.871 227.799 122.877 225.789C124.95 221.768 126.834 217.685 128.593 213.539C130.352 209.393 132.111 205.246 133.493 201.037C133.808 199.969 134.122 198.901 134.31 197.896C134.373 197.394 134.436 196.891 134.373 196.577C134.373 196.514 134.373 196.514 134.373 196.514L134.436 196.577L134.31 196.388L133.745 195.76C132.237 194.064 130.792 192.242 129.284 190.609C129.159 190.483 129.159 190.546 129.222 190.483H129.159C129.033 190.483 128.782 190.546 128.593 190.609C128.091 190.734 127.588 190.986 126.96 191.174C126.646 191.237 126.269 191.363 125.766 191.237C125.515 191.174 125.264 191.111 125.075 190.923C124.95 190.86 124.887 190.797 124.761 190.672C124.636 190.546 124.573 190.42 124.573 190.295C124.447 189.792 124.51 189.478 124.51 189.164C124.573 188.85 124.636 188.536 124.698 188.284C124.824 187.719 124.95 187.154 124.887 186.839C124.887 186.777 124.824 186.714 124.887 186.777C124.95 186.839 125.075 186.965 125.201 186.965C125.389 186.965 125.264 186.965 125.327 186.965L125.201 187.028C125.013 187.153 124.761 187.279 124.51 187.405C123.63 187.845 122.688 188.473 121.557 188.975Z" fill="black"/>
<path d="M18.0885 211.78C17.9628 212.031 18.9679 211.654 18.7794 210.963C18.6538 210.775 18.6538 210.775 18.6538 210.775H18.7167L18.9052 210.837L20.2244 211.403L22.0463 212.22C23.2399 212.785 24.4335 213.35 25.6271 213.978C26.8207 214.607 27.9514 215.235 29.145 216.052C29.7733 216.492 30.2131 216.868 30.7785 217.245L32.349 218.376C36.4953 221.391 41.0185 223.967 45.8558 225.601C48.243 226.417 50.7559 226.983 53.2688 227.234L57.1637 227.548C58.483 227.611 59.7394 227.611 61.0587 227.674C66.2729 227.737 71.4243 227.36 76.5129 226.417C86.6901 224.596 96.4903 220.449 104.469 213.79L107.358 211.214L110.06 208.45C110.939 207.508 111.756 206.503 112.573 205.497L113.201 204.744C113.452 204.493 113.641 204.178 113.892 203.927C114.332 203.424 114.771 202.922 115.274 202.419C117.096 200.472 118.981 198.65 120.74 196.702C121.619 195.76 122.499 194.755 123.315 193.75C123.692 193.247 124.132 192.745 124.446 192.242C124.76 191.74 125.137 191.111 125.137 190.797V190.734C125.137 190.42 125.451 190.106 125.828 190.169C126.142 190.169 126.456 190.483 126.394 190.86C126.331 191.865 125.891 192.431 125.577 192.996C125.2 193.561 124.823 194.127 124.446 194.692C123.629 195.76 122.813 196.765 121.933 197.77C120.174 199.781 118.352 201.728 116.593 203.676C116.154 204.178 115.714 204.681 115.337 205.121C115.148 205.372 114.96 205.623 114.771 205.874L114.143 206.691C113.327 207.759 112.51 208.827 111.63 209.832L108.929 212.785L105.976 215.549C97.8095 222.585 87.6324 227.108 77.1411 229.182C71.8641 230.187 66.4614 230.627 61.1215 230.564C59.8023 230.501 58.4201 230.501 57.1008 230.438L53.0803 230.124C50.3161 229.873 47.6147 229.244 45.039 228.365C39.8248 226.669 35.0503 223.967 30.7156 220.826C30.1502 220.449 29.6477 220.009 29.0823 219.632C28.5797 219.255 28.0143 218.753 27.5745 218.439C26.6322 217.685 25.5014 216.994 24.4334 216.24C23.3654 215.486 22.2347 214.795 21.1667 214.041L19.5334 212.911L18.7167 212.282L18.3397 211.968L18.1512 211.78L18.0256 211.654L17.9629 211.591C17.9629 211.591 17.9 211.591 17.7744 211.34C17.5859 210.586 18.6538 210.272 18.4653 210.461H18.5911C18.9052 210.523 19.0936 210.9 19.0308 211.214C18.7167 211.654 18.4026 211.843 18.0885 211.78Z" fill="black"/>
<path d="M317.311 224.344C317.06 224.03 316.871 223.716 316.62 223.465C316.369 223.213 316.117 223.025 315.803 222.836C315.489 222.585 315.175 222.397 314.861 222.208C314.61 222.02 314.233 221.957 314.296 222.02C314.296 222.02 314.547 222.02 314.672 221.957C314.798 221.894 314.735 221.894 314.735 221.957C314.672 222.145 314.61 222.459 314.547 222.836C314.421 223.59 314.358 224.407 314.17 225.286C313.982 226.166 313.856 227.108 313.353 228.113C312.851 228.993 312.348 229.873 311.594 230.564C310.903 231.255 310.086 231.82 309.395 232.26C308.704 232.699 308.139 233.139 307.762 233.579C306.945 234.458 306.568 235.841 306.443 237.411C306.38 237.788 306.38 238.165 306.38 238.605V239.233C306.38 239.61 306.317 239.861 306.254 240.112C306.003 241.055 305.752 241.809 305.563 242.625C305.312 243.379 305.124 244.196 304.998 244.887C304.935 245.264 304.935 245.578 304.935 245.829C304.998 246.081 304.998 246.269 305.061 246.206C305.061 246.269 305.124 246.206 305.061 246.269L305.563 246.52C305.94 246.709 306.254 246.834 306.631 246.96C307.008 247.086 307.322 247.274 307.699 247.337C308.076 247.463 308.453 247.525 308.767 247.588C310.212 247.902 311.657 247.84 313.039 247.4C314.421 246.96 315.74 246.08 316.934 245.075C317.562 244.573 318.128 244.008 318.756 243.442C319.007 243.191 319.384 242.814 319.761 242.562C320.075 242.248 320.452 241.997 320.829 241.746C322.211 240.741 323.53 239.861 324.221 238.668C324.41 238.354 324.536 238.039 324.661 237.725C324.787 237.411 324.787 237.16 324.85 236.846C324.85 236.218 324.661 235.526 324.347 234.71C324.096 233.893 323.719 233.014 323.719 231.946L323.782 229.433C323.844 227.799 323.907 226.04 322.965 225.412C322.462 225.035 321.771 224.784 320.955 224.658C320.201 224.532 319.384 224.47 318.568 224.407C318.253 224.407 317.939 224.093 318.002 223.779C318.002 223.465 318.316 223.213 318.63 223.213C319.51 223.213 320.326 223.213 321.269 223.276C322.148 223.402 323.091 223.59 323.97 224.156C324.41 224.47 324.787 224.909 325.038 225.349C325.164 225.601 325.227 225.852 325.289 226.04C325.352 226.292 325.415 226.543 325.478 226.731C325.604 227.674 325.603 228.553 325.666 229.37V231.883C325.666 232.511 325.98 233.202 326.294 233.956C326.609 234.71 326.986 235.652 327.048 236.72C327.048 237.223 326.986 237.851 326.797 238.354C326.609 238.793 326.42 239.296 326.169 239.673C325.164 241.432 323.593 242.5 322.337 243.505C321.709 244.007 321.143 244.51 320.578 245.075C319.95 245.704 319.321 246.269 318.693 246.834C317.374 247.965 315.866 249.096 314.044 249.724C313.165 250.101 312.222 250.227 311.217 250.353C310.275 250.415 309.27 250.352 308.39 250.164C307.95 250.101 307.448 249.975 307.008 249.85C306.568 249.724 306.129 249.599 305.689 249.41C305.249 249.285 304.872 249.096 304.433 248.907L303.804 248.656C303.49 248.405 303.113 248.216 302.862 247.902C302.297 247.274 302.234 246.583 302.108 245.955C302.045 245.39 302.108 244.887 302.171 244.384C302.297 243.442 302.548 242.563 302.799 241.746C303.05 240.929 303.302 240.112 303.427 239.421C303.49 239.233 303.49 239.107 303.49 239.045C303.49 239.045 303.49 238.856 303.49 238.793V238.479C303.49 238.039 303.49 237.6 303.553 237.16C303.616 236.28 303.741 235.338 304.056 234.396C304.307 233.453 304.872 232.511 305.501 231.694C306.192 230.878 307.008 230.312 307.699 229.873C308.39 229.37 308.956 228.993 309.458 228.49C309.961 228.051 310.275 227.422 310.589 226.857C310.84 226.354 311.029 225.601 311.155 224.847C311.28 224.093 311.406 223.213 311.594 222.334C311.72 221.894 311.845 221.392 312.16 220.826C312.348 220.512 312.537 220.198 312.976 219.884C313.416 219.57 314.044 219.444 314.484 219.507C315.364 219.695 315.803 220.072 316.18 220.386C316.557 220.7 316.871 221.078 317.185 221.454C317.437 221.769 317.814 222.208 318.002 222.711C318.191 223.151 318.316 223.653 318.379 224.093C318.442 224.47 318.19 224.784 317.814 224.847C317.688 224.658 317.437 224.595 317.311 224.344Z" fill="black"/>
<path d="M325.415 236.406C325.855 229.244 326.609 222.145 325.918 215.235C325.855 214.355 325.729 213.539 325.604 212.659L325.415 211.403C325.352 210.963 325.289 210.649 325.164 210.272C324.724 208.827 323.782 207.445 322.777 206.063L321.143 203.927C320.578 203.173 320.075 202.294 319.635 201.665C318.756 200.22 317.688 198.901 316.557 197.582C311.971 192.493 305.689 189.226 299.03 187.342C292.371 185.457 285.272 184.955 278.236 185.143C271.2 185.394 264.164 186.4 257.316 188.096C250.468 189.729 243.746 191.991 237.401 195.006C234.26 196.514 231.182 198.21 228.418 200.283C225.654 202.356 223.141 204.806 220.816 207.382C218.492 210.02 216.293 212.785 214.157 215.612L210.953 219.884C210.388 220.575 209.885 221.329 209.383 222.02C208.88 222.711 208.378 223.402 207.938 224.156C204.231 230.061 201.907 236.783 199.143 243.442C197.761 246.772 196.19 250.038 194.243 253.179C193.74 253.933 193.238 254.75 192.672 255.441C192.107 256.195 191.541 256.949 190.913 257.64C190.285 258.331 189.657 259.085 189.028 259.65C188.777 259.901 188.526 260.215 188.463 260.341C188.463 260.341 188.463 260.341 188.463 260.278C188.463 260.215 188.463 260.027 188.337 259.901C188.275 259.838 188.275 259.776 188.212 259.776C188.149 259.713 188.023 259.65 187.898 259.587C187.646 259.524 187.458 259.587 187.395 259.587L190.85 256.195C192.107 254.938 193.426 253.682 194.871 252.488C195.562 251.923 196.316 251.295 197.133 250.792C197.949 250.227 198.766 249.85 199.583 249.41C201.216 248.593 202.849 247.777 204.483 247.086C207.812 245.641 211.267 244.51 214.848 243.693C218.429 242.877 221.947 242.311 225.465 241.809C226.407 241.746 227.35 241.62 228.292 241.62C229.234 241.62 230.114 241.62 231.056 241.683C232.878 241.746 234.7 241.997 236.459 242.186C240.04 242.688 243.558 243.316 247.076 244.07C254.112 245.515 261.022 247.274 267.933 249.221C271.388 250.164 274.843 251.232 278.236 252.363C281.502 253.431 285.02 253.808 288.476 253.431C295.449 252.74 302.108 249.661 309.333 248.844C309.647 248.782 309.961 249.033 310.024 249.41C310.086 249.724 309.835 250.038 309.458 250.101C306.003 250.541 302.548 251.483 299.155 252.488C295.763 253.493 292.245 254.499 288.601 254.938C284.958 255.378 281.188 255.064 277.67 253.933C274.278 252.865 270.885 251.86 267.43 250.918C260.52 249.096 253.61 247.4 246.636 246.017C243.118 245.326 239.663 244.761 236.145 244.259C232.627 243.882 229.046 243.505 225.779 243.882C222.261 244.447 218.743 244.95 215.351 245.766C211.959 246.583 208.629 247.714 205.425 249.159C203.854 249.85 202.221 250.604 200.713 251.483C199.959 251.923 199.143 252.3 198.515 252.74C197.824 253.179 197.133 253.745 196.504 254.31C195.185 255.441 193.929 256.635 192.672 257.891L189.845 260.718C189.719 260.844 189.531 261.032 189.342 261.221C189.091 261.409 188.903 261.66 188.4 261.849C188.149 261.974 187.709 262.037 187.27 261.849C187.018 261.786 186.83 261.66 186.704 261.535C186.578 261.409 186.453 261.283 186.39 261.095C186.201 260.781 186.139 260.341 186.139 260.09C186.139 259.776 186.264 259.587 186.327 259.336C186.641 258.645 187.018 258.268 187.395 257.891C188.086 257.2 188.589 256.635 189.154 256.006C189.72 255.378 190.222 254.624 190.725 253.996C191.227 253.305 191.667 252.551 192.169 251.86C193.991 248.907 195.436 245.704 196.818 242.437C199.52 235.903 201.844 228.993 205.676 222.711C206.116 221.894 206.681 221.14 207.184 220.386C207.687 219.632 208.252 218.879 208.755 218.187L211.958 213.853C214.094 210.963 216.293 208.136 218.743 205.435C221.13 202.733 223.832 200.157 226.722 197.959C229.674 195.76 232.941 194.001 236.208 192.43C242.741 189.289 249.652 186.965 256.688 185.269C263.724 183.573 270.886 182.505 278.173 182.191C285.397 181.939 292.748 182.442 299.846 184.452C306.883 186.399 313.793 189.918 318.819 195.509C319.447 196.2 320.012 196.954 320.64 197.645C321.269 198.336 321.708 199.215 322.211 199.969C322.776 200.786 323.153 201.414 323.656 202.168L325.227 204.304C326.294 205.749 327.363 207.445 327.991 209.455C328.116 209.958 328.242 210.46 328.305 210.963L328.493 212.345C328.619 213.225 328.682 214.167 328.745 215.109C328.996 218.753 328.807 222.396 328.43 225.977C327.991 229.558 327.425 233.076 326.86 236.594C326.797 236.908 326.483 237.16 326.169 237.097C325.603 237.034 325.415 236.72 325.415 236.406Z" fill="black"/>
<path d="M313.228 221.831C313.039 221.517 312.599 221.266 312.097 221.015C311.594 220.826 311.029 220.638 310.401 220.449C309.207 220.135 308.013 219.947 306.757 219.758C304.244 219.381 301.731 219.13 299.155 218.879C296.58 218.628 294.067 218.502 291.491 218.439C290.235 218.439 288.915 218.376 287.722 218.439C287.094 218.439 286.528 218.502 285.963 218.565C285.335 218.69 284.644 218.753 284.015 218.879C278.738 219.57 273.587 219.633 268.498 220.198C263.41 220.701 258.384 221.769 253.358 222.962C243.307 225.287 233.444 228.365 223.706 231.883C221.256 232.762 218.869 233.642 216.482 234.584C214.094 235.527 211.77 236.658 209.445 237.788C207.121 238.919 204.86 240.113 202.661 241.432C201.593 242.123 200.462 242.751 199.457 243.505C198.515 244.259 197.447 245.138 197.07 246.018V246.081C196.944 246.395 196.567 246.52 196.253 246.395C195.939 246.269 195.813 245.892 195.939 245.641C196.253 244.824 196.693 244.322 197.195 243.819C197.698 243.316 198.2 242.877 198.703 242.437C199.771 241.62 200.839 240.866 201.907 240.113C204.106 238.668 206.367 237.411 208.692 236.218C211.016 235.024 213.34 233.831 215.728 232.763C218.178 231.757 220.565 230.752 223.015 229.873C232.753 226.166 242.616 222.899 252.793 220.324C257.881 219.067 263.033 217.999 268.247 217.434C273.461 216.868 278.675 216.743 283.701 216.052C284.329 215.989 284.958 215.863 285.586 215.801C286.34 215.675 287.031 215.612 287.722 215.612C289.041 215.549 290.36 215.549 291.68 215.549C294.318 215.612 296.957 215.738 299.532 215.926C302.171 216.177 304.747 216.491 307.385 217.183C308.704 217.497 309.961 217.874 311.217 218.439C311.845 218.69 312.474 219.067 313.102 219.507C313.667 219.947 314.358 220.512 314.547 221.517C314.61 221.831 314.421 222.146 314.044 222.271C313.793 222.334 313.542 222.208 313.416 222.02L313.228 221.831Z" fill="black"/>
<path d="M133.869 12.2573C135 12.1317 134.497 12.3828 134.686 12.3828L134.812 12.5086L135.063 12.6969L135.503 13.0739L136.319 13.8905L137.953 15.461C139.021 16.529 140.089 17.7226 141.031 18.9162C142.978 21.3035 144.8 23.7537 146.496 26.3294C149.763 31.5436 152.653 37.0092 154.538 42.9772C155.417 45.9927 156.108 48.9453 156.548 52.0236C157.05 55.1018 157.176 58.3057 156.925 61.4468C156.359 67.7291 154.098 73.9485 150.58 79.0999C147.125 84.3141 142.727 88.7745 138.267 92.9207C133.806 97.067 129.158 101.025 124.76 105.171C120.362 109.317 116.153 113.589 112.698 118.427C111.002 120.814 109.369 123.326 108.112 126.028L107.61 127.033L107.17 128.038C106.919 128.729 106.604 129.358 106.353 130.049C105.913 131.431 105.348 132.813 105.034 134.257C104.217 137.084 103.84 140.037 103.652 142.99L103.526 147.513C103.463 149.021 103.463 150.528 103.589 151.911C103.652 152.602 103.777 153.293 103.966 153.669C103.966 153.732 104.029 153.732 104.029 153.795C104.092 153.858 104.28 154.047 104.406 154.172L105.222 154.989C106.29 156.12 107.295 157.25 108.301 158.381C110.311 160.643 112.321 162.716 114.709 164.349C115.902 165.166 117.159 165.92 118.478 166.611L119.42 167.114C119.734 167.239 119.985 167.365 120.3 167.428C120.928 167.616 121.619 167.742 122.31 167.867C125.137 168.307 128.215 168.244 131.356 168.684C132.927 168.935 134.623 169.187 136.256 170.443L136.822 170.883L137.262 171.26L138.078 171.951C138.644 172.453 139.146 172.956 139.712 173.396C142.099 175.092 144.549 176.662 147.313 177.668C152.716 179.804 158.684 180.683 164.589 180.18C170.494 179.741 176.274 178.044 181.488 175.406C184.127 174.087 186.577 172.453 188.964 170.631C189.592 170.192 190.095 169.689 190.66 169.187L192.294 167.679L192.733 167.302C193.11 166.988 193.487 166.799 193.864 166.737C194.555 166.611 194.995 166.674 195.497 166.737C196.377 166.925 197.194 167.176 197.948 167.49L200.021 168.433C200.649 168.747 201.34 168.935 202.031 169.187C203.413 169.626 204.858 169.878 206.303 170.129C209.193 170.569 212.208 170.694 215.161 170.569C221.129 170.38 227.097 169.563 232.814 167.867C235.641 167.051 238.216 165.794 240.227 163.847C242.3 161.899 243.682 159.386 244.624 156.622C245.127 155.24 245.504 153.795 245.818 152.35C246.195 150.906 246.509 149.398 247.137 147.764C247.326 147.387 247.514 146.948 247.765 146.571C247.891 146.382 248.08 146.131 248.268 145.942L248.708 145.503C249.336 144.937 249.964 144.435 250.655 143.995C251.975 143.115 253.357 142.362 254.739 141.671C257.44 140.289 260.141 138.969 262.34 137.147C264.476 135.326 266.109 132.938 266.612 130.174C267.177 127.41 266.8 124.52 266.047 121.693C265.293 118.866 264.225 116.039 263.094 113.212C260.895 107.621 258.131 102.281 254.739 97.3812C254.299 96.7529 253.922 96.1245 253.419 95.5591L252.037 93.8002C251.032 92.6694 250.153 91.5387 249.085 90.4707C247.074 88.272 244.813 86.3242 242.426 84.5652C237.651 80.9844 232.248 78.283 226.72 76.0843C221.129 73.8855 215.349 72.1267 209.507 70.3677C203.727 68.6087 197.885 66.7238 192.168 64.4622C189.341 63.3314 186.514 62.0749 183.75 60.6929C182.179 59.939 181.048 58.7454 179.98 57.6146C178.913 56.421 177.97 55.2275 177.091 53.9082C173.573 48.8196 170.683 43.4797 167.793 38.1398C164.903 32.8 162.013 27.4602 158.998 22.246C155.92 17.0318 152.716 11.8803 148.758 7.41993C146.748 5.22116 144.549 3.14804 141.91 2.08006C141.219 1.82877 140.591 1.64043 139.9 1.57761C139.586 1.57761 139.209 1.51479 138.958 1.57761C138.895 1.57761 138.832 1.57736 138.769 1.64018C138.706 1.64018 138.644 1.64025 138.644 1.70307C138.581 1.70307 138.581 1.76595 138.581 1.76595C138.518 1.8916 138.518 2.20558 138.581 2.58251C138.581 2.95945 138.644 3.33662 138.644 3.77638C138.644 4.21613 138.581 4.71852 138.329 5.15828C138.078 5.66085 137.638 5.97509 137.262 6.22637C136.256 6.66613 135.377 6.54042 134.623 6.4776C133.869 6.35196 133.053 6.22631 132.424 6.16349C132.299 6.16349 132.11 6.16349 132.11 6.16349L131.922 6.35183C131.796 6.47748 131.67 6.60318 131.608 6.72883L131.356 7.10582C131.105 7.6084 131.168 8.17386 131.419 8.73925C131.67 9.30465 132.173 9.87011 132.676 10.3727C133.178 10.8753 133.744 11.3778 134.309 11.8804C135.44 12.8855 136.633 13.8905 137.639 15.1469C137.827 15.3982 137.827 15.8382 137.513 16.0267C137.261 16.2151 136.822 16.215 136.633 15.9009C135.754 14.7701 134.623 13.8278 133.429 12.8227C132.864 12.3201 132.299 11.8175 131.733 11.2521C131.168 10.6867 130.602 10.1213 130.226 9.30459C129.786 8.55073 129.723 7.41999 130.163 6.54048L130.54 5.91226C130.665 5.7238 130.854 5.59797 130.979 5.4095L131.168 5.15828C131.231 5.09546 131.545 4.90699 131.67 4.84417C131.985 4.71852 132.236 4.78128 132.487 4.78128C133.367 4.84411 134.058 5.03257 134.812 5.0954C135.503 5.15822 136.256 5.22122 136.633 4.96993C137.136 4.71865 137.324 4.34172 137.324 3.7135C137.324 3.39939 137.262 3.02233 137.262 2.6454C137.262 2.26847 137.136 1.82883 137.387 1.20061C137.513 0.886505 137.764 0.635094 138.078 0.446628C138.204 0.320984 138.33 0.321107 138.518 0.258285C138.644 0.195463 138.769 0.195401 138.895 0.195401C139.398 0.132579 139.774 0.195401 140.214 0.195401C141.031 0.258223 141.848 0.50945 142.601 0.760738C145.617 2.01718 147.941 4.21601 150.014 6.4776C154.161 11.0636 157.427 16.2778 160.569 21.492C163.71 26.7062 166.599 32.1091 169.552 37.3862C172.505 42.6632 175.394 48.0029 178.85 52.903C179.729 54.0966 180.609 55.2902 181.614 56.3582C182.619 57.4262 183.624 58.4315 184.881 58.9969C187.582 60.3161 190.346 61.5096 193.173 62.6404C204.418 67.1008 216.292 69.6138 227.788 74.0741C233.505 76.3357 239.096 79.0998 244.059 82.8063C246.572 84.6282 248.896 86.7012 251.032 88.9628C252.163 90.0307 253.105 91.2872 254.11 92.418L255.555 94.2401C256.058 94.8683 256.498 95.4965 256.937 96.1247C260.455 101.213 263.282 106.742 265.544 112.396C266.675 115.223 267.806 118.049 268.622 121.128C269.439 124.143 269.879 127.41 269.251 130.677C268.685 133.944 266.738 136.896 264.225 138.969C261.712 141.042 258.885 142.424 256.246 143.807C254.927 144.498 253.608 145.189 252.414 146.005C251.849 146.382 251.221 146.822 250.781 147.325L250.404 147.639C250.341 147.764 250.278 147.764 250.153 147.89C250.027 148.078 249.839 148.392 249.713 148.707C249.21 149.963 248.896 151.408 248.519 152.916C248.142 154.423 247.766 155.931 247.263 157.439C246.258 160.391 244.624 163.344 242.237 165.606C239.85 167.867 236.834 169.375 233.819 170.192C227.851 171.951 221.694 172.83 215.538 173.019C212.46 173.082 209.318 173.019 206.24 172.579C204.67 172.328 203.162 172.013 201.591 171.574C200.837 171.322 200.084 171.134 199.33 170.757L197.257 169.878C196.628 169.626 195.937 169.375 195.372 169.312C195.058 169.25 194.806 169.249 194.744 169.249C194.681 169.249 194.744 169.249 194.869 169.187L194.43 169.564L192.671 171.134C192.105 171.637 191.54 172.202 190.911 172.642C188.461 174.589 185.823 176.285 183.059 177.668C177.53 180.495 171.374 182.254 165.154 182.756C158.935 183.322 152.527 182.379 146.685 180.055C143.732 178.987 141.031 177.291 138.455 175.406C137.827 174.903 137.262 174.401 136.633 173.835L135.754 173.019L135.314 172.642L135 172.391C134.183 171.762 132.801 171.385 131.356 171.197C128.529 170.757 125.451 170.883 122.31 170.38C121.493 170.254 120.677 170.129 119.86 169.878C119.42 169.752 119.043 169.563 118.603 169.375L117.535 168.81C116.153 168.056 114.771 167.302 113.515 166.36C110.876 164.538 108.615 162.276 106.604 160.015C105.599 158.884 104.594 157.753 103.526 156.685L102.772 155.868C102.647 155.743 102.521 155.617 102.332 155.429C102.207 155.303 102.081 155.177 102.018 154.989C101.956 154.863 101.893 154.737 101.83 154.612C101.327 153.607 101.265 152.79 101.202 151.911C101.076 150.277 101.076 148.707 101.139 147.199L101.265 142.613C101.516 139.472 101.893 136.394 102.772 133.378C103.149 131.87 103.652 130.363 104.154 128.918C104.406 128.164 104.783 127.473 105.034 126.719L105.474 125.651L105.976 124.583C107.295 121.756 108.992 119.117 110.813 116.604C114.457 111.579 118.729 107.118 123.189 102.909C127.65 98.7003 132.236 94.7425 136.696 90.6591C141.094 86.5128 145.303 82.2408 148.507 77.3407C151.836 72.5034 153.972 66.9124 154.475 61.1327C155.103 55.3531 153.909 49.3851 152.402 43.6683C150.768 38.0144 148.13 32.5486 145.114 27.3972C143.607 24.8215 141.973 22.3087 140.151 19.9214C139.209 18.7278 138.33 17.5342 137.324 16.4662L135.817 14.7702L135.063 13.9534L134.435 13.3251C134.623 13.2623 133.995 13.4508 135.063 13.3251C134.749 13.5136 134.372 13.3881 134.183 13.1368C133.492 12.8227 133.618 12.383 133.869 12.2573Z" fill="black"/>
<path d="M136.384 5.34655C136.572 5.28373 136.886 5.40925 136.949 5.5349L137.137 5.72324L137.514 6.10023L138.834 7.79655L140.53 10.0582C141.598 11.5659 142.666 13.0735 143.734 14.6441C145.681 17.7852 147.691 20.8634 149.702 24.0045C153.66 30.2239 157.743 36.6317 160.444 43.7934C163.146 50.7667 164.842 58.4938 164.151 66.1581C164.088 67.1005 163.9 68.0428 163.711 68.9851L163.46 70.4299C163.397 70.9325 163.209 71.3723 163.083 71.8121L162.329 74.5762L161.324 77.2777C161.135 77.7175 161.01 78.157 160.821 78.5968L160.256 79.9161C159.879 80.7956 159.502 81.6752 159.062 82.4918C158.183 84.1252 157.366 85.8842 156.487 87.4547C152.843 93.9882 148.885 100.271 145.367 106.741C144.425 108.375 143.608 110.008 142.791 111.641C142.352 112.458 141.912 113.274 141.598 114.091C141.221 114.908 140.907 115.725 140.53 116.604C139.148 119.996 137.954 123.514 136.823 126.97C134.562 134.006 132.488 141.105 131.232 148.329C130.918 150.151 130.667 151.973 130.541 153.732C130.415 155.554 130.415 157.376 130.855 158.946L132.677 164.223C132.991 165.103 133.242 165.982 133.494 166.925C133.745 167.867 133.996 168.746 133.996 169.814C133.996 170.129 133.745 170.443 133.368 170.443C133.054 170.443 132.74 170.191 132.74 169.877V169.814C132.677 168.998 132.489 168.118 132.237 167.239C131.986 166.359 131.672 165.48 131.358 164.663L129.41 159.449C128.782 157.501 128.782 155.554 128.845 153.669C128.908 151.784 129.159 149.9 129.41 148.078C129.976 144.371 130.792 140.728 131.672 137.084C132.551 133.44 133.556 129.86 134.687 126.341C135.818 122.761 136.949 119.243 138.331 115.725C138.645 114.845 139.022 113.966 139.399 113.086C139.776 112.207 140.216 111.327 140.655 110.511C141.535 108.877 142.352 107.181 143.231 105.548C146.749 98.9513 150.581 92.6061 154.099 86.1354C157.617 79.7275 160.57 72.9429 161.261 65.844C161.889 58.7451 160.319 51.5206 157.617 44.7986C155.042 38.0139 151.084 31.8573 147.063 25.6379C145.053 22.5597 143.105 19.293 141.346 16.0263L138.645 11.2518L137.326 8.80176L136.635 7.6079L136.321 6.97968L136.132 6.72845L136.069 6.60299V6.54011C136.069 6.60293 136.383 6.72839 136.572 6.66557C136.258 6.72839 135.881 6.47723 135.881 6.16312C135.881 5.84901 136.069 5.40938 136.384 5.34655Z" fill="black"/>
<path d="M138.33 2.20553C140.027 3.14786 141.534 4.46694 142.854 5.7862C144.173 7.16828 145.367 8.67601 146.435 10.1837C148.633 13.262 150.518 16.4659 152.528 19.5442C153.031 20.298 153.533 21.0519 154.036 21.8058L155.669 24.0046L157.366 26.2662C157.931 27.0201 158.434 27.8369 158.936 28.5908C161.072 31.7319 162.831 35.0613 164.527 38.4536C171.124 52.0232 174.83 66.5981 179.102 80.733L180.735 86.01C181.301 87.769 181.866 89.5281 182.369 91.4128C183.311 95.1821 183.625 98.9513 184.002 102.595C184.19 104.417 184.442 106.239 184.756 107.998C184.882 108.877 185.133 109.694 185.321 110.699L185.635 112.144L185.824 113.589C186.327 117.421 186.264 121.19 186.138 124.897C186.012 128.603 185.761 132.31 185.95 135.954C186.012 137.775 186.201 139.597 186.515 141.356C186.829 143.115 187.332 144.937 187.646 146.759C188.4 150.402 189.028 154.046 190.096 157.564C190.536 159.26 191.541 160.705 192.546 162.276C193.048 163.03 193.614 163.846 194.054 164.663C194.493 165.48 194.996 166.359 195.059 167.553C195.059 167.867 194.808 168.181 194.493 168.181C194.179 168.181 193.865 167.93 193.865 167.616V167.553C193.802 166.862 193.425 166.045 192.923 165.291C192.483 164.537 191.918 163.784 191.415 163.03C190.912 162.276 190.347 161.522 189.845 160.642C189.593 160.203 189.342 159.826 189.154 159.323C188.965 158.821 188.777 158.381 188.651 157.941C187.457 154.36 186.703 150.654 185.887 147.073C185.51 145.251 185.007 143.555 184.568 141.607C184.191 139.723 183.939 137.838 183.876 135.954C183.625 132.184 183.814 128.415 183.876 124.708C183.939 121.002 184.002 117.358 183.437 113.777L183.248 112.458L182.934 111.139C182.746 110.259 182.494 109.317 182.306 108.375C181.929 106.49 181.678 104.605 181.489 102.783C181.049 99.0768 180.735 95.4333 179.793 91.9781C179.353 90.2819 178.725 88.5227 178.097 86.7637L176.401 81.4238C172.066 67.2261 168.297 52.8398 161.826 39.6472C160.193 36.3805 158.433 33.1768 156.36 30.1613C155.858 29.4075 155.355 28.6535 154.853 27.8997L153.219 25.7009L151.523 23.4392C150.958 22.6854 150.392 21.8686 149.89 21.1147C147.817 17.9736 145.995 14.7071 144.11 11.6288C142.163 8.55055 140.152 5.5351 137.514 3.14786C137.262 2.89657 137.2 2.51939 137.451 2.26811C137.765 2.14246 138.079 2.07989 138.33 2.20553Z" fill="black"/>
<path d="M248.268 148.455C248.142 148.455 247.891 148.392 247.765 148.33C247.703 148.267 247.64 148.267 247.64 148.204C247.514 148.078 247.514 148.078 247.451 148.015C247.389 147.89 247.326 147.827 247.263 147.764C247.137 147.576 247.074 147.45 247.012 147.262L246.572 146.319L246.383 145.88L246.132 145.503L245.567 144.623C244.876 143.43 244.248 142.173 243.619 140.98C242.991 139.786 242.363 138.655 241.609 137.587C240.855 136.394 240.101 135.263 239.41 134.069C236.583 129.358 233.882 124.583 230.866 120.123C229.359 117.861 227.788 115.725 226.029 113.652C224.333 111.579 222.448 109.694 220.501 107.684C216.731 103.663 213.213 99.4542 209.067 96.0618C207.057 94.4285 204.67 92.7952 202.534 91.099C200.335 89.4028 198.199 87.6436 196.126 85.8846C191.917 82.3037 187.896 78.5343 184.064 74.5137C180.232 70.4931 176.651 66.2841 173.51 61.6981C170.369 57.1121 167.605 52.212 165.909 46.9349C165.783 46.6208 165.971 46.2441 166.285 46.1812C166.599 46.0556 166.976 46.2438 167.039 46.5579C168.924 51.6465 171.688 56.3581 174.892 60.6929C178.096 65.0904 181.74 69.1111 185.572 73.006C189.404 76.901 193.487 80.5447 197.634 83.9999C199.77 85.7589 201.905 87.3923 204.041 89.0257C206.24 90.7218 208.439 92.1669 210.7 93.9259C215.098 97.5068 218.679 101.779 222.448 105.673C224.27 107.558 226.343 109.569 228.102 111.767C229.924 113.903 231.558 116.165 233.128 118.489C236.269 123.075 239.033 127.85 241.86 132.561L243.996 136.079C244.75 137.273 245.378 138.592 245.881 139.911C246.446 141.231 246.886 142.487 247.326 143.744L247.703 144.686C247.766 144.812 247.828 145 247.891 145.251C247.954 145.44 247.954 145.628 248.017 145.754L248.205 146.759L248.331 147.199L248.394 147.387C248.394 147.387 248.331 147.387 248.331 147.325C248.268 147.262 248.08 147.199 247.954 147.262C248.268 147.262 248.582 147.513 248.645 147.827C248.896 148.141 248.645 148.393 248.268 148.455Z" fill="black"/>
</svg>
