<svg width="57" height="48" viewBox="0 0 57 48" fill="none" xmlns="http://www.w3.org/2000/svg">
<path d="M39.1118 24.0499L39.2413 24.7731L39.3061 25.1427L39.3546 25.5285C39.4355 26.0427 39.5002 26.5409 39.565 27.0552C39.6944 28.0676 39.7915 29.0961 39.8886 30.1086C39.9857 31.121 40.0504 32.1495 40.099 33.178C40.1476 34.2065 40.1961 35.2189 40.2123 36.2474C40.2285 37.2759 40.2286 38.3045 40.1962 39.317C40.1638 40.3294 40.2123 41.3419 40.2608 42.3704C40.2932 42.8846 40.3095 43.3988 40.3256 43.9131L40.3256 44.2989C40.3256 44.4274 40.3256 44.5399 40.3418 44.6684C40.3579 44.9095 40.3742 45.1667 40.4066 45.4238C40.4389 45.6648 40.4713 45.9219 40.5199 46.163C40.5361 46.2915 40.5684 46.4041 40.6008 46.5166C40.617 46.5808 40.6331 46.6291 40.6493 46.6773C40.6655 46.7094 40.6654 46.7254 40.6654 46.7254C40.6654 46.7254 40.6655 46.7255 40.6493 46.7094C40.6493 46.7094 40.6007 46.6613 40.536 46.6613C40.4227 46.6613 40.4228 46.6933 40.439 46.6773L41.1348 46.3398C41.3614 46.2273 41.588 46.1148 41.8146 46.0023C45.4398 44.122 48.6279 41.4383 51.0717 38.192C52.3017 36.5689 53.3538 34.8172 54.1953 32.9691C54.6161 32.0531 54.9883 31.1049 55.2958 30.1246C55.6033 29.1603 55.8621 28.1801 56.0078 27.1837C56.0725 26.6855 56.105 26.1873 56.1374 25.673L56.2183 24.1463C56.2669 23.1339 56.2991 22.1053 56.3315 21.0929C56.3962 19.0519 56.4449 17.011 56.4611 14.9701C56.4773 12.9291 56.4772 10.8881 56.3963 8.84709C56.3477 7.83465 56.2992 6.80623 56.1535 5.80985C56.1212 5.56879 56.0725 5.31167 56.0078 5.08668C55.9754 4.97418 55.9432 4.86169 55.8946 4.76527C55.8785 4.71705 55.846 4.68482 55.8298 4.66875C55.8137 4.65268 55.8298 4.66875 55.8298 4.66875C55.8298 4.66875 55.8298 4.66875 55.846 4.66875C55.8783 4.66875 55.9108 4.6528 55.9108 4.63673C55.9108 4.63673 55.9269 4.62066 55.9108 4.63673C55.8946 4.66887 55.8621 4.71705 55.846 4.76527C55.8136 4.81348 55.7975 4.8777 55.7813 4.94198L55.6519 5.29556C55.6033 5.40806 55.5547 5.53659 55.5062 5.66515L55.3443 6.01874L54.7131 7.41691C54.5027 7.88296 54.2762 8.34894 54.0335 8.79891C53.548 9.71494 53.03 10.5988 52.4473 11.4506C52.156 11.8845 51.8648 12.3023 51.5411 12.704C51.2174 13.1058 50.91 13.5237 50.5539 13.8933C49.8742 14.6808 49.1459 15.3879 48.3852 16.095C46.8639 17.4771 45.2132 18.7145 43.611 20.0001C42.8018 20.643 42.0249 21.2857 41.2643 21.9768L40.6978 22.4911C40.5036 22.6678 40.3255 22.8446 40.1475 23.0214L39.8725 23.2946C39.7754 23.391 39.7106 23.4714 39.6135 23.5678L39.1118 24.0499ZM38.9176 23.9856C39.2736 23.5999 39.6297 23.182 40.002 22.8285C40.18 22.6517 40.3579 22.459 40.5521 22.2822L41.1186 21.7519C41.8792 21.0608 42.6722 20.4019 43.4652 19.7591C45.0674 18.4734 46.7022 17.2199 48.2073 15.8378C48.9517 15.1468 49.6799 14.4236 50.3434 13.6523C50.6833 13.2826 50.9908 12.8647 51.3145 12.463C51.622 12.0612 51.9133 11.6434 52.1885 11.2095C52.7549 10.3578 53.2727 9.47397 53.7421 8.57402C53.9686 8.12404 54.1953 7.658 54.4057 7.20802L55.0368 5.80985L55.1986 5.45627C55.2472 5.34377 55.2958 5.23125 55.3443 5.10268L55.49 4.7491C55.5224 4.68482 55.5386 4.6206 55.571 4.57239C55.6033 4.50811 55.6194 4.44385 55.6841 4.3635C55.7003 4.34743 55.7166 4.31523 55.7489 4.29916C55.7651 4.28309 55.8299 4.26705 55.8622 4.25098C55.8946 4.25098 55.8945 4.25098 55.9269 4.25098C55.9916 4.26705 56.0565 4.29919 56.105 4.33133C56.1859 4.39561 56.2345 4.47593 56.2668 4.54022C56.3316 4.66878 56.38 4.79734 56.4124 4.94198C56.4771 5.19911 56.5257 5.45621 56.5742 5.71334C56.7199 6.74185 56.7685 7.77046 56.817 8.78291C56.8979 10.8239 56.9141 12.8809 56.8979 14.9219C56.8817 16.9629 56.8333 19.0198 56.7848 21.0607C56.7524 22.0892 56.72 23.1018 56.6714 24.1303L56.5905 25.657C56.5582 26.1713 56.542 26.6855 56.4611 27.1997C56.3154 28.2282 56.0564 29.2246 55.7489 30.2209C55.4414 31.2012 55.0691 32.1655 54.6322 33.0976C53.7906 34.9779 52.7225 36.7617 51.4763 38.4169C49.0001 41.7275 45.7634 44.4595 42.0896 46.3719C41.863 46.5004 41.6365 46.6129 41.3937 46.7254L40.6978 47.063C40.714 47.0469 40.6816 47.079 40.5521 47.095C40.4712 47.095 40.4227 47.0469 40.4066 47.0308C40.358 46.9826 40.3418 46.9665 40.3256 46.9343C40.2933 46.8861 40.2771 46.8541 40.2771 46.822C40.2448 46.7577 40.2285 46.6772 40.2123 46.6129C40.18 46.4844 40.1476 46.3559 40.1153 46.2273C40.0667 45.9702 40.018 45.7131 39.9857 45.456C39.9533 45.1988 39.921 44.9416 39.921 44.6844C39.921 44.5559 39.9048 44.4273 39.9048 44.2827L39.9048 43.8971C39.8886 43.3828 39.8725 42.8846 39.8401 42.3704C39.7754 41.3579 39.7268 40.3133 39.7592 39.2848C39.7754 38.2724 39.7754 37.2438 39.7592 36.2314C39.7268 34.1904 39.6297 32.1495 39.484 30.1246C39.4193 29.1121 39.3384 28.0836 39.2413 27.0712C39.1927 26.5569 39.1441 26.0587 39.0956 25.5445L39.0146 24.7731L38.9176 23.9856Z" fill="#07453A"/>
<path d="M55.7168 4.52404C51.5575 4.25084 47.3982 4.4436 43.2389 4.66858C41.1512 4.78108 39.0634 4.8936 36.9757 4.94181C34.8718 5.02217 32.7679 4.79721 30.6963 4.57222C29.6605 4.45973 28.6247 4.33117 27.5889 4.25081C26.5532 4.17046 25.5174 4.13826 24.4816 4.10612C22.41 4.07397 20.3061 4.10615 18.2183 3.97758C14.0428 3.73652 9.89985 3.06153 5.80529 2.258L2.73033 1.66352L1.20897 1.32595L1.01473 1.27777L0.966205 1.26176C0.933837 1.26176 0.901469 1.24566 0.885285 1.22959L0.788244 1.18141C0.77206 1.18141 0.755781 1.16533 0.771965 1.18141C0.788149 1.16533 0.788149 1.22949 0.933806 1.13307C1.01473 1.0045 0.966142 0.956292 0.982326 0.972363L1.01473 1.05272C1.03091 1.10093 1.04716 1.16521 1.07953 1.21342L1.16045 1.37413C1.19281 1.42234 1.22512 1.47055 1.25749 1.53483C1.32222 1.63125 1.40321 1.7278 1.48413 1.82423C1.80781 2.20992 2.19619 2.5474 2.58461 2.86881C2.98921 3.19022 3.41003 3.47943 3.83081 3.7687C4.68856 4.33117 5.59487 4.86156 6.50118 5.35974C7.40748 5.85793 8.32991 6.32388 9.26858 6.78992C10.2073 7.25597 11.1459 7.68997 12.0684 8.17208C13.9296 9.10417 15.7908 10.0523 17.6358 11.0326C21.3257 12.9771 24.9672 15.018 28.5439 17.1232L31.2303 18.7143C32.1205 19.2446 33.0267 19.7749 33.9168 20.3213C35.6971 21.4141 37.445 22.5712 39.0472 23.905C39.0958 23.9372 39.0959 24.0015 39.0635 24.0497C39.0311 24.0979 38.9663 24.0979 38.9178 24.0657C37.3155 22.748 35.5839 21.6069 33.8037 20.5302C32.9136 19.9999 32.0072 19.4697 31.117 18.9393L28.4305 17.3643C24.8377 15.2751 21.18 13.2663 17.49 11.3379C15.6451 10.3736 13.8002 9.42558 11.9228 8.49349C11.0003 8.02745 10.0454 7.59354 9.10674 7.1275C8.16807 6.66145 7.24555 6.19535 6.32306 5.69716C5.40057 5.19897 4.49439 4.66858 3.62045 4.10612C3.18348 3.81685 2.74645 3.51163 2.34185 3.19022C1.93725 2.85274 1.53262 2.51513 1.17657 2.0973C1.09565 1.98481 0.998542 1.88838 0.933806 1.77589C0.901438 1.71161 0.852854 1.66346 0.820486 1.59918L0.723445 1.4063C0.691077 1.34202 0.674893 1.2777 0.642525 1.21342L0.610125 1.11706C0.626309 1.11706 0.561541 1.05281 0.658646 0.908175C0.804302 0.795681 0.836796 0.859901 0.869164 0.84383C0.917717 0.859901 0.933901 0.859932 0.950085 0.876002L1.031 0.908175C1.04719 0.908175 1.04713 0.908175 1.04713 0.908175L1.09565 0.924183L1.28989 0.972363L2.81125 1.30994L5.88621 1.90458C9.98077 2.7081 14.0914 3.35093 18.2507 3.59198C20.3223 3.72055 22.4101 3.67221 24.4979 3.70435C25.5498 3.72042 26.5855 3.75269 27.6375 3.83304C28.6894 3.91339 29.7252 4.02579 30.7609 4.13829C32.8325 4.36327 34.9041 4.57222 36.9757 4.49187C39.0634 4.44366 41.1349 4.31513 43.2227 4.20263C45.3104 4.09014 47.3982 4.00982 49.4859 3.99375C50.0038 3.99375 50.5379 4.00975 51.0558 4.00975C51.5737 4.02583 52.1078 4.04186 52.6257 4.05793L53.4025 4.10612L54.1793 4.17046C54.6972 4.2026 55.2151 4.26688 55.733 4.33117C55.7816 4.33117 55.8301 4.37941 55.8301 4.44369C55.8301 4.4919 55.7815 4.52404 55.7168 4.52404Z" fill="#07453A"/>
<path d="M36.1337 21.4466C36.4735 21.1252 36.8296 20.8198 37.1856 20.5305C37.5417 20.2252 37.8978 19.936 38.2538 19.6628L39.3219 18.7789L40.3577 17.8629C41.7172 16.6094 42.9795 15.2755 44.1285 13.8452C45.2776 12.415 46.3295 10.9044 47.2196 9.29731C48.1097 7.69026 48.8542 6.00272 49.4368 4.26711C49.453 4.2189 49.5177 4.18685 49.5663 4.20292C49.6148 4.21899 49.6472 4.26717 49.631 4.33145C49.1132 6.11528 48.401 7.83483 47.5433 9.47402C46.6693 11.1132 45.6337 12.6721 44.4846 14.1345C43.3356 15.5969 42.057 16.9469 40.6975 18.2165L39.6617 19.1485L38.5936 20.0484C38.2214 20.3377 37.8491 20.6109 37.4769 20.8841C37.0885 21.1412 36.7002 21.3983 36.2794 21.6233C36.2308 21.6554 36.166 21.6395 36.1337 21.5913C36.0851 21.527 36.1013 21.4787 36.1337 21.4466Z" fill="#07453A"/>
<path d="M32.509 19.1797C32.7356 18.8744 32.9783 18.5851 33.2373 18.2958C33.4962 18.0065 33.7551 17.7333 34.0141 17.4761L34.807 16.6566L35.5839 15.8209C36.6035 14.712 37.5907 13.555 38.497 12.3497C39.4033 11.1444 40.2448 9.89093 40.9892 8.57315C41.7337 7.25537 42.3649 5.88928 42.8827 4.459C42.8989 4.41079 42.9636 4.37874 43.0122 4.39481C43.0607 4.41088 43.0932 4.47513 43.077 4.52335C42.6238 5.96969 42.025 7.38393 41.3129 8.73385C40.6008 10.0838 39.7755 11.3694 38.8692 12.6068C37.9629 13.8281 36.9757 15.0013 35.9561 16.1423L35.1793 16.978L34.3863 17.7975C33.8522 18.3439 33.302 18.8583 32.6709 19.3082C32.6223 19.3404 32.5575 19.3242 32.5251 19.2921C32.4766 19.2599 32.4928 19.2118 32.509 19.1797Z" fill="#07453A"/>
<path d="M27.4111 4.10661L28.2526 5.18337C28.5277 5.553 28.803 5.90652 29.0295 6.3565C29.0619 6.42078 29.0781 6.46908 29.1105 6.53337C29.1266 6.59765 29.159 6.678 29.159 6.77443C29.159 6.82264 29.1589 6.87085 29.1266 6.93513C29.1104 6.99942 29.0618 7.06363 29.0133 7.11185C28.9971 7.12792 28.9485 7.16003 28.9323 7.16003L28.8999 7.17619L28.819 7.22437C28.6248 7.33687 28.4145 7.4493 28.2041 7.56179C27.7995 7.77071 27.3787 7.97976 26.9579 8.1726C26.5371 8.36545 26.1163 8.5422 25.6632 8.7029C25.4366 8.78326 25.2263 8.84751 24.9836 8.91179C24.9188 8.92786 24.8702 8.94396 24.8054 8.94396L24.7084 8.95997L24.6921 8.95997L24.676 8.95997L24.6921 8.95997C24.6759 8.95997 24.6274 8.99217 24.5951 9.02431C24.5627 9.05646 24.5141 9.08853 24.4818 9.12068C24.3199 9.26531 24.1742 9.42602 24.0448 9.6028C23.98 9.68315 23.9153 9.77967 23.8829 9.86002C23.8667 9.90823 23.8506 9.94025 23.8344 9.97239C23.8344 9.98846 23.8344 9.98846 23.8344 9.97239C23.8344 9.95632 23.8345 9.95644 23.8183 9.94037C23.8183 9.94037 23.8183 9.94028 23.8183 9.92421L23.8183 9.94037L23.8344 9.95638C24.061 10.3099 24.3523 10.6153 24.7245 10.8243C25.0806 11.0332 25.5013 11.1455 25.9383 11.1777C26.3753 11.2098 26.8123 11.1938 27.2493 11.1295C28.1394 11.017 29.0133 10.7599 29.8873 10.5189C30.3242 10.4064 30.7773 10.2778 31.2305 10.1653C31.4571 10.1171 31.6836 10.0689 31.9264 10.0367C31.9911 10.0207 32.0398 10.0207 32.1045 10.0207L32.1854 10.0046L32.2339 10.0046C32.2501 10.0046 32.1853 10.0047 32.1691 10.0207C32.1368 10.0368 32.1206 10.0527 32.1206 10.0527C32.1044 10.0688 32.1044 10.0849 32.0882 10.0849L32.0882 10.1011C32.0882 10.1171 32.0882 10.1171 32.0882 10.1171C32.0882 10.1171 32.0882 10.1332 32.0882 10.1171C32.0882 10.1171 32.0882 10.0528 32.0882 10.0046C32.0882 9.95635 32.0721 9.89207 32.0721 9.84385C32.0397 9.63494 31.9912 9.40995 31.9427 9.20103C31.8941 8.99211 31.8293 8.76718 31.7645 8.5422C31.716 8.31721 31.6675 8.09225 31.6351 7.85119C31.6189 7.7387 31.6028 7.61 31.619 7.48144C31.619 7.41716 31.6189 7.35291 31.6351 7.27255C31.6513 7.24041 31.6513 7.19217 31.6675 7.16003C31.6675 7.14396 31.6837 7.11191 31.6999 7.09584C31.6999 7.07977 31.716 7.06367 31.7321 7.06367L31.7484 7.04766C31.7484 7.04766 31.7646 7.03159 31.7484 7.04766L31.7321 7.06367L31.716 7.07967C31.7322 7.04753 31.7484 7.03156 31.7808 7.01549C31.797 6.99942 31.8293 6.98331 31.8455 6.98331C31.8616 6.98331 31.8778 6.96731 31.894 6.96731C31.9102 6.96731 31.9265 6.96731 31.9427 6.96731C31.9912 6.96731 32.0234 6.98331 32.0558 6.98331C32.1205 6.99938 32.1691 7.01552 32.2177 7.04766C32.3148 7.09587 32.3957 7.14405 32.4928 7.17619C32.6708 7.27262 32.8328 7.36895 32.9946 7.48144C33.3183 7.69036 33.6419 7.89934 33.9494 8.10826C34.2569 8.31718 34.5806 8.5422 34.9043 8.7029C34.9367 8.71897 34.9851 8.73501 35.0013 8.75108C34.9851 8.75108 34.9851 8.75108 34.9689 8.75108C34.9527 8.76715 34.9205 8.76712 34.9043 8.79926C34.8881 8.81533 34.888 8.83144 34.888 8.83144C34.888 8.84751 34.888 8.84754 34.888 8.86361C34.888 8.87968 34.888 8.87962 34.888 8.87962C34.8718 8.8314 34.791 8.73508 34.7424 8.65472C34.6292 8.49402 34.532 8.33331 34.4349 8.1726C34.0303 7.52978 33.6582 6.87088 33.2374 6.24413C32.8328 5.61737 32.3634 5.02266 31.7808 4.54055C31.7323 4.5084 31.7322 4.44422 31.7645 4.396C31.7969 4.34779 31.8617 4.3477 31.9103 4.37984C32.5091 4.86196 33.0107 5.47267 33.4314 6.09943C33.8684 6.72618 34.2407 7.38514 34.6615 8.0119C34.7748 8.1726 34.8719 8.33321 34.9852 8.47785C35.0338 8.5582 35.0984 8.62258 35.1632 8.73508C35.1632 8.75115 35.1794 8.76712 35.1794 8.79926C35.1794 8.81533 35.1794 8.83137 35.1794 8.84744C35.1794 8.86351 35.1794 8.87971 35.1794 8.89578C35.1794 8.91185 35.1632 8.92789 35.1632 8.94396C35.1308 8.99217 35.0985 9.00824 35.0661 9.02431C35.0338 9.04039 35.0175 9.04032 35.0013 9.04032C34.969 9.04032 34.9529 9.04039 34.9367 9.02431C34.8719 9.00824 34.8234 8.97604 34.7748 8.95997C34.4188 8.78319 34.0951 8.57424 33.7714 8.36532C33.4477 8.15641 33.1402 7.94752 32.8165 7.75467C32.6547 7.65825 32.4928 7.56186 32.331 7.46543C32.2501 7.41722 32.1691 7.38505 32.0882 7.35291C32.0558 7.33684 32.0073 7.32073 31.9749 7.32073C31.9587 7.32073 31.9427 7.32073 31.9427 7.32073L31.9588 7.32073C31.975 7.32073 31.9912 7.30473 31.9912 7.30473C32.0074 7.28866 32.0236 7.28862 32.0236 7.27255L32.0073 7.28872C32.0073 7.30479 31.9912 7.30466 31.9912 7.32073C31.975 7.3368 31.9912 7.32073 31.9912 7.32073C31.9912 7.32073 31.9912 7.32083 31.9912 7.3369C31.9912 7.35297 31.9749 7.36901 31.9749 7.38508C31.9749 7.41722 31.9588 7.4654 31.9588 7.51361C31.9588 7.61004 31.9749 7.72259 31.9749 7.81902C32.0073 8.02794 32.0559 8.25292 32.1045 8.46184C32.153 8.67076 32.2339 8.89569 32.2825 9.12068C32.3472 9.34566 32.3958 9.57062 32.4282 9.81168C32.4444 9.87596 32.4443 9.92427 32.4443 9.98855C32.4443 10.0528 32.4605 10.101 32.4443 10.2134C32.4443 10.2134 32.4443 10.2295 32.4443 10.2456C32.4443 10.2617 32.4444 10.2617 32.4282 10.2778L32.4119 10.31C32.3957 10.326 32.3957 10.3421 32.3795 10.3581C32.3633 10.3742 32.3472 10.3903 32.3149 10.4063C32.2987 10.4224 32.2339 10.4225 32.2501 10.4225L32.2015 10.4225L32.1206 10.4385C32.0721 10.4385 32.0073 10.4545 31.9588 10.4545C31.7322 10.4866 31.5219 10.535 31.2953 10.5832C30.8583 10.6957 30.4213 10.8081 29.9843 10.9366C29.1104 11.1938 28.2202 11.4509 27.2815 11.5795C26.8122 11.6437 26.3429 11.676 25.8574 11.6278C25.3719 11.5796 24.8864 11.4509 24.4656 11.2099C24.0287 10.9527 23.6726 10.5993 23.4137 10.1814L23.3974 10.1653L23.3974 10.1493L23.3813 10.1171C23.3651 10.0689 23.3489 10.0367 23.3489 10.0046C23.3489 9.94028 23.349 9.89207 23.3652 9.84385C23.3813 9.7635 23.4137 9.69925 23.4461 9.63497C23.5108 9.52247 23.5755 9.40998 23.6564 9.31356C23.8021 9.12071 23.9639 8.94387 24.142 8.76709C24.1905 8.71888 24.239 8.68677 24.2875 8.63856C24.3361 8.59034 24.3847 8.55824 24.4818 8.51002L24.5142 8.49402C24.5303 8.49402 24.5465 8.47785 24.5627 8.47785L24.6112 8.46184L24.6921 8.44568C24.7407 8.42961 24.7892 8.42973 24.854 8.41366C25.0643 8.36545 25.2748 8.28507 25.4852 8.22078C25.906 8.07615 26.3268 7.89934 26.7314 7.70649C27.136 7.51364 27.5406 7.32077 27.9452 7.11185C28.1394 6.99935 28.3498 6.90293 28.544 6.79043L28.6249 6.74225L28.6572 6.72625C28.6734 6.72625 28.6572 6.72625 28.6572 6.72625C28.641 6.72625 28.6411 6.74219 28.6411 6.75826C28.6411 6.72612 28.6086 6.61372 28.5763 6.53337C28.4953 6.34052 28.3822 6.14767 28.2689 5.97089C28.1556 5.77805 28.0261 5.58511 27.9128 5.39226C27.67 5.00656 27.4273 4.62096 27.2169 4.20312C27.1845 4.15491 27.2169 4.09066 27.2654 4.07459C27.3302 4.05852 27.3788 4.05839 27.4111 4.10661Z" fill="#07453A"/>
<path d="M32.2011 10.0525C32.3144 9.92396 32.4439 9.87587 32.5734 9.8598C32.7028 9.84373 32.8323 9.81152 32.9456 9.79545C33.1883 9.74724 33.4473 9.68292 33.6739 9.60257C33.9166 9.52221 34.1433 9.42588 34.3537 9.29731C34.564 9.16874 34.7745 9.02398 34.9364 8.8472C34.9688 8.79898 35.0334 8.79898 35.082 8.8472C35.1143 8.87934 35.1306 8.92758 35.0982 8.95972C34.9688 9.21686 34.7745 9.42578 34.5479 9.60257C34.3213 9.77935 34.0785 9.90801 33.8196 10.0205C33.5606 10.133 33.3016 10.2133 33.0265 10.2776C32.897 10.3097 32.7514 10.3419 32.6219 10.3579C32.4924 10.374 32.3468 10.374 32.2011 10.2776C32.1526 10.2133 32.1364 10.1329 32.2011 10.0525C32.185 10.0686 32.185 10.0525 32.2011 10.0525Z" fill="#07453A"/>
<path d="M23.915 9.426C23.9312 9.29744 23.9637 9.2652 24.0122 9.24913L24.1417 9.21712C24.2226 9.20105 24.3197 9.18485 24.4169 9.16878C24.5949 9.15271 24.7891 9.15274 24.9833 9.20095C25.0481 9.21702 25.0804 9.2652 25.0642 9.32949C25.0642 9.36163 25.0317 9.37776 25.0156 9.39383C24.8537 9.47418 24.6919 9.5385 24.53 9.58671C24.4491 9.60278 24.3682 9.63492 24.2873 9.66706L24.1578 9.69923C24.1093 9.7153 24.0607 9.69914 23.996 9.60272C23.9312 9.5545 23.915 9.49029 23.915 9.426Z" fill="#07453A"/>
<path d="M12.7478 8.57374C12.8287 8.31661 12.9744 8.1076 13.1363 7.91475L13.6218 7.35228C13.9455 6.98266 14.2691 6.59703 14.5604 6.21134C14.8679 5.82565 15.1592 5.43989 15.4181 5.02206C15.6933 4.6203 15.936 4.18649 16.1464 3.75259C16.1788 3.70437 16.2273 3.68818 16.2758 3.70425C16.3244 3.72032 16.3407 3.78473 16.3245 3.83294C16.1627 4.31505 15.9522 4.76496 15.7094 5.21494C15.4667 5.64884 15.1915 6.08281 14.9002 6.48457C14.6089 6.88633 14.2853 7.28807 13.9616 7.65769L13.4761 8.22015C13.3142 8.413 13.1362 8.57361 12.8772 8.6861C12.8287 8.71825 12.7479 8.6862 12.7317 8.62192C12.7479 8.62192 12.7478 8.58981 12.7478 8.57374Z" fill="#07453A"/>
<path d="M14.1399 9.16784C14.1885 9.0232 14.2694 8.91074 14.3503 8.79824C14.4312 8.68575 14.5121 8.58942 14.6092 8.493C14.7872 8.30015 14.9815 8.0912 15.1595 7.89836C15.5155 7.49659 15.8554 7.07869 16.1629 6.62872C16.4704 6.19481 16.7616 5.72877 17.0044 5.26272C17.2633 4.79667 17.4737 4.29845 17.6518 3.7842C17.6679 3.73598 17.7328 3.70394 17.7814 3.72001C17.8299 3.73608 17.8622 3.78432 17.846 3.83253C17.7165 4.36286 17.5385 4.89316 17.3281 5.40742C17.1015 5.92168 16.8265 6.40373 16.5351 6.86978C16.2277 7.33582 15.8878 7.7697 15.5317 8.2036C15.3537 8.41252 15.1594 8.6215 14.9814 8.83042C14.7872 9.03933 14.5769 9.21605 14.3018 9.32854C14.2532 9.34461 14.1884 9.32863 14.156 9.26435C14.1237 9.23221 14.1237 9.19998 14.1399 9.16784Z" fill="#07453A"/>
<path d="M29.628 9.23249C29.5147 9.13606 29.4986 9.03967 29.531 8.94324C29.5472 8.89503 29.5471 8.84675 29.5795 8.79854C29.5957 8.75032 29.6119 8.70221 29.6443 8.65399L29.6928 8.57364C29.709 8.55757 29.7252 8.52536 29.7576 8.50929C29.79 8.46108 29.8546 8.42891 29.9032 8.39676C29.9517 8.36462 30.0164 8.34855 30.065 8.31641C30.1135 8.30034 30.1783 8.28424 30.2268 8.28424C30.4534 8.26816 30.6314 8.33248 30.7933 8.39676C30.9551 8.47712 31.1169 8.5575 31.2464 8.67C31.2949 8.70214 31.295 8.76649 31.2626 8.8147C31.2303 8.84684 31.1979 8.86279 31.1493 8.84672C30.9875 8.79851 30.8256 8.76649 30.6799 8.73435C30.5343 8.70221 30.3886 8.70211 30.2754 8.71818C30.1621 8.73425 30.1136 8.79854 30.0489 8.87889C30.0327 8.89496 30.0327 8.92711 30.0165 8.95925C30.0003 8.99139 30.0004 9.02363 30.0004 9.05577C29.9842 9.12005 29.9518 9.18421 29.8385 9.24849L29.8222 9.26466C29.7575 9.2968 29.6766 9.2807 29.628 9.23249Z" fill="#07453A"/>
<path d="M0.917761 1.11709L0.820562 2.16168C0.804378 2.51523 0.788226 2.85271 0.772042 3.20626C0.772042 3.55981 0.755921 3.89729 0.755921 4.25085C0.772105 4.6044 0.772137 4.94188 0.788321 5.29543C0.869241 6.6775 1.03105 8.05953 1.24144 9.4416C1.43565 10.8237 1.67834 12.1896 1.90492 13.5878C1.95347 13.9413 2.01821 14.2788 2.06676 14.6324C2.11531 14.9859 2.16393 15.3234 2.21248 15.6769C2.26103 16.0305 2.29343 16.368 2.3258 16.7215C2.35817 17.059 2.39044 17.4287 2.39044 17.7823C2.39044 18.4894 2.34198 19.1964 2.3258 19.8875C2.30961 20.5785 2.30955 21.2696 2.42284 21.9284C2.43902 22.0088 2.45518 22.0892 2.47136 22.1695C2.48754 22.2499 2.50379 22.3302 2.53616 22.4106C2.58471 22.5713 2.6332 22.732 2.71412 22.8767C2.77886 23.0374 2.85984 23.1659 2.94076 23.2944C3.03786 23.4391 3.13487 23.5676 3.24816 23.7122C3.66894 24.2425 4.15453 24.7408 4.6886 25.1747C5.75674 26.0425 6.98666 26.7013 8.26519 27.2477C9.54373 27.7941 10.8709 28.2603 12.198 28.7424C13.5251 29.2406 14.836 29.7547 16.0822 30.4618C16.681 30.8315 17.2959 31.1691 17.8947 31.5548L18.7848 32.1172L19.2381 32.4065L19.6749 32.6957C22.0216 34.2546 24.2713 35.942 26.5208 37.6294C28.7704 39.3168 31.0037 41.0042 33.3342 42.5791C35.6647 44.154 38.0761 45.6004 40.617 46.7896C40.6656 46.8057 40.6817 46.8699 40.6656 46.9181C40.6494 46.9664 40.5847 46.9824 40.5361 46.9663C37.979 45.7932 35.5352 44.363 33.1885 42.8041C30.8418 41.2453 28.5762 39.574 26.3266 37.9026C24.077 36.2313 21.8113 34.5599 19.4808 33.0171L19.0438 32.7279L18.6068 32.4547L17.7167 31.8922C17.1179 31.5226 16.5191 31.185 15.9041 30.8154C14.6903 30.1405 13.3955 29.6263 12.0684 29.1442C10.7575 28.6621 9.41435 28.1959 8.11963 27.6495C6.82491 27.087 5.54641 26.4282 4.42972 25.5121C3.87946 25.0622 3.36145 24.5479 2.92448 23.9854C2.81119 23.8408 2.71409 23.6961 2.6008 23.5515L2.45524 23.3104C2.40669 23.2301 2.37435 23.1498 2.3258 23.0534C2.24488 22.8927 2.1963 22.6998 2.13156 22.5391C2.09919 22.4587 2.08294 22.3623 2.06676 22.2659C2.05058 22.1694 2.01824 22.0892 2.01824 21.9928C1.77548 20.5464 1.9859 19.1321 1.96972 17.7661C1.96972 17.4286 1.93729 17.0912 1.90492 16.7377C1.87255 16.3841 1.84015 16.0466 1.7916 15.7091C1.74305 15.3716 1.71078 15.0182 1.64604 14.6807C1.59749 14.3432 1.54894 13.9896 1.4842 13.6521C1.25762 12.27 1.01477 10.9041 0.820562 9.50595C0.610171 8.12388 0.46461 6.70958 0.432242 5.31144C0.416058 4.95789 0.432242 4.6044 0.432242 4.25085C0.432242 3.89729 0.464578 3.54381 0.480762 3.19025C0.51313 2.8367 0.561714 2.48315 0.594082 2.14567C0.642633 1.79212 0.707306 1.45464 0.772042 1.10108C0.788226 1.05287 0.83681 1.00466 0.885362 1.02073C0.885362 1.02073 0.917761 1.06888 0.917761 1.11709Z" fill="#07453A"/>
<path d="M5.27061 8.63819C5.28679 8.65426 5.3031 8.65435 5.31928 8.65435L5.31928 8.67036C5.31928 8.68643 5.31928 8.68646 5.31928 8.70253C5.31928 8.73467 5.31928 8.76675 5.31928 8.79889C5.31928 8.86318 5.31918 8.92749 5.303 8.99177C5.28682 9.12033 5.23828 9.2328 5.2221 9.36136C5.18973 9.48992 5.17355 9.60239 5.14119 9.73095L5.07656 10.1007L5.07656 10.1327C5.09274 10.1006 5.09274 10.0524 5.07656 10.0042C5.07656 9.98811 5.06035 9.95606 5.04417 9.93999L5.02789 9.92383L5.04417 9.93999L5.07656 9.97201L5.14119 10.0364L5.27061 10.1649L5.28688 10.181C5.25452 10.165 5.22213 10.1488 5.17358 10.1327C5.12504 10.1327 5.07647 10.1489 5.06029 10.1489L5.09268 10.1327C5.12504 10.1166 5.14129 10.1168 5.15747 10.1007C5.20601 10.0686 5.25452 10.0363 5.28688 10.0042C5.46487 9.85954 5.62671 9.6828 5.7238 9.47388C5.82089 9.26497 5.8694 9.04004 5.77231 8.89541C5.72377 8.81506 5.64286 8.75068 5.5296 8.71854C5.48105 8.70247 5.41624 8.68643 5.35151 8.67036C5.31915 8.67036 5.31915 8.67033 5.27061 8.63819ZM5.15747 8.46148C5.23837 8.44541 5.36769 8.44531 5.43242 8.44531C5.49714 8.44531 5.57817 8.46141 5.6429 8.47748C5.78852 8.50963 5.93415 8.58998 6.04742 8.71854C6.16069 8.84711 6.20923 9.02394 6.20923 9.18465C6.20923 9.34535 6.16059 9.48995 6.11205 9.63459C5.99878 9.90779 5.82085 10.1489 5.6105 10.3418C5.56196 10.39 5.49714 10.4381 5.43242 10.4863C5.40005 10.5024 5.36776 10.5346 5.33539 10.5506L5.28688 10.5828C5.2707 10.5828 5.22213 10.5988 5.17358 10.5988C5.12504 10.5988 5.07647 10.5828 5.06029 10.5506L5.04417 10.5345L5.02789 10.5185C4.97935 10.4703 4.9309 10.422 4.88236 10.3738L4.81757 10.2934L4.78518 10.2614L4.76906 10.2452L4.75294 10.2292L4.73667 10.2131C4.72049 10.197 4.72046 10.181 4.70427 10.1489C4.68809 10.1007 4.68809 10.0525 4.70427 10.0203L4.70427 10.0524L4.76906 9.6506C4.78524 9.52203 4.8176 9.3774 4.84997 9.24884C4.88233 9.12027 4.89854 8.9918 4.96326 8.86324C4.99563 8.79896 5.02792 8.73458 5.06029 8.68637C5.07647 8.65423 5.09271 8.62209 5.12507 8.60602L5.14119 8.59001L5.15747 8.574L5.17358 8.54183C5.09268 8.50969 5.12511 8.47755 5.15747 8.46148Z" fill="#07453A"/>
<path d="M9.28477 14.2788C9.30096 14.311 9.34951 14.2948 9.36569 14.2948C9.36569 14.3109 9.36569 14.3431 9.36569 14.3592C9.36569 14.4074 9.36569 14.4395 9.36569 14.4877C9.36569 14.5681 9.34938 14.6483 9.31701 14.7126C9.26846 14.8573 9.23622 15.002 9.20386 15.1627C9.18767 15.2109 9.17136 15.2591 9.15518 15.3073C9.139 15.3555 9.13906 15.3555 9.13906 15.3876C9.12288 15.4519 9.12294 15.5162 9.12294 15.5483C9.12294 15.5644 9.12294 15.5644 9.12294 15.5805C9.12294 15.5805 9.12294 15.5805 9.12294 15.5965C9.12294 15.5965 9.12285 15.5966 9.10666 15.5805C9.09048 15.5805 9.12281 15.5966 9.15518 15.5645C9.25228 15.5324 9.34947 15.4359 9.41421 15.3394C9.47894 15.227 9.52752 15.1144 9.52752 14.9859C9.52752 14.8573 9.49506 14.7288 9.43033 14.6002C9.39796 14.536 9.34944 14.4716 9.30089 14.4234L9.26849 14.3752L9.25237 14.3592C9.25237 14.3592 9.25237 14.3591 9.25237 14.343C9.30092 14.343 9.30096 14.311 9.28477 14.2788ZM9.2361 14.0859C9.28465 14.102 9.36566 14.1181 9.41421 14.1663C9.43039 14.1824 9.44654 14.1824 9.46273 14.1985L9.49512 14.2145L9.54364 14.2627C9.60838 14.3269 9.67314 14.3913 9.73787 14.4555C9.85116 14.6002 9.93204 14.7769 9.94823 14.9859C9.96441 15.1787 9.91589 15.3876 9.81879 15.5483C9.72169 15.7251 9.59219 15.8699 9.38181 15.9663C9.28471 16.0145 9.13912 16.0466 8.96111 15.9823C8.88019 15.9501 8.81543 15.8859 8.76688 15.8216C8.75069 15.7894 8.73454 15.7574 8.71836 15.7252C8.70217 15.6931 8.70208 15.6608 8.70208 15.6287C8.6859 15.5162 8.6859 15.4198 8.70208 15.3073C8.70208 15.2591 8.73441 15.1787 8.7506 15.1466C8.76678 15.1144 8.76688 15.0984 8.76688 15.0662C8.79924 14.9055 8.83164 14.7288 8.88019 14.5681C8.89637 14.4877 8.92868 14.4073 8.97723 14.343C8.99341 14.3109 9.02578 14.2788 9.05814 14.2466C9.07433 14.2306 9.09048 14.2145 9.10666 14.1985C9.13903 14.1342 9.20373 14.102 9.2361 14.0859Z" fill="#07453A"/>
<path d="M8.4592 21.6872C8.47538 21.6872 8.47541 21.6872 8.4916 21.6872C8.4916 21.7033 8.50772 21.7033 8.50772 21.7194C8.52391 21.7355 8.524 21.7515 8.524 21.7836C8.54019 21.8157 8.55641 21.864 8.55641 21.8961C8.57259 21.9765 8.57253 22.0407 8.57253 22.105C8.55634 22.2336 8.55634 22.3783 8.57253 22.4747C8.57253 22.4908 8.58865 22.5228 8.58865 22.5068C8.58865 22.5068 8.58878 22.4908 8.55641 22.4747C8.54022 22.4587 8.49157 22.4426 8.4592 22.4426C8.41064 22.4426 8.41061 22.4586 8.42679 22.4426C8.44298 22.4426 8.45929 22.4104 8.47548 22.4104C8.54022 22.3461 8.6049 22.2336 8.65346 22.105C8.70202 21.9925 8.75055 21.864 8.78292 21.7354C8.81529 21.6069 8.83151 21.4622 8.81532 21.3818C8.81532 21.3658 8.79914 21.3498 8.81532 21.3498L8.86385 21.3658C8.86385 21.3498 8.79907 21.382 8.75051 21.4302C8.6534 21.4945 8.54013 21.6069 8.4592 21.6872ZM8.28121 21.6069C8.36214 21.4462 8.4431 21.3337 8.55641 21.2051C8.62115 21.1409 8.66965 21.0766 8.81532 21.0444C8.8477 21.0444 8.91241 21.0444 8.94478 21.0604C8.96097 21.0765 8.9934 21.0765 9.00959 21.0926C9.02577 21.1087 9.04193 21.1247 9.05812 21.1408C9.10667 21.2051 9.13905 21.2533 9.13905 21.3015C9.1876 21.4943 9.17135 21.6551 9.15517 21.8158C9.13898 21.9765 9.10674 22.1372 9.04199 22.2819C8.97725 22.4426 8.91241 22.5872 8.78292 22.7318C8.75055 22.7639 8.71814 22.8122 8.66958 22.8443C8.62103 22.8765 8.55628 22.9247 8.42679 22.9247C8.36205 22.9247 8.28124 22.8925 8.23268 22.8603C8.18413 22.8282 8.15166 22.78 8.13547 22.7478C8.1031 22.6835 8.08701 22.6193 8.07082 22.5711C8.03845 22.3783 8.03836 22.2337 8.05454 22.073C8.05454 21.9926 8.0707 21.9122 8.10307 21.8479C8.11925 21.8158 8.13557 21.7836 8.15175 21.7354C8.16794 21.7194 8.16781 21.7033 8.184 21.6872C8.184 21.6712 8.20028 21.6711 8.20028 21.6551C8.24884 21.639 8.26503 21.623 8.28121 21.6069Z" fill="#07453A"/>
<path d="M25.614 27.8099C25.6302 27.842 25.6626 27.8421 25.6788 27.8261C25.6788 27.8421 25.6788 27.8582 25.6788 27.8743C25.6788 27.9064 25.6787 27.9546 25.6625 27.9868C25.6464 28.0511 25.6303 28.1154 25.5979 28.1797C25.5493 28.2921 25.5007 28.4045 25.4522 28.5331C25.436 28.5652 25.4361 28.5813 25.4361 28.6134C25.4199 28.6456 25.4198 28.6617 25.4198 28.6778C25.4198 28.7099 25.4198 28.742 25.4037 28.726C25.4037 28.7099 25.3875 28.71 25.3875 28.71C25.3875 28.71 25.3875 28.71 25.4037 28.71C25.4198 28.71 25.4684 28.7099 25.517 28.6938C25.7112 28.6295 25.8891 28.4528 25.9053 28.3082C25.9215 28.2278 25.8892 28.1474 25.8082 28.051C25.7759 28.0028 25.7274 27.9706 25.6788 27.9224C25.6626 27.9064 25.6303 27.8743 25.6303 27.8743C25.6303 27.8582 25.614 27.826 25.614 27.8099ZM25.5494 27.6172C25.6303 27.6172 25.7758 27.6814 25.8244 27.7135C25.8891 27.7457 25.9539 27.7939 26.0186 27.8421C26.1319 27.9385 26.2614 28.0993 26.2614 28.3082C26.2614 28.501 26.1805 28.6777 26.0834 28.8063C25.9701 28.9349 25.8406 29.0314 25.6788 29.1117C25.5979 29.1439 25.5169 29.1759 25.4037 29.1759C25.3389 29.1759 25.2903 29.16 25.2094 29.1439C25.1771 29.1278 25.1448 29.1117 25.1124 29.0795C25.08 29.0474 25.0477 29.0313 25.0315 28.9992C24.9506 28.8706 24.9506 28.742 24.9506 28.6456C24.9506 28.5974 24.9667 28.5492 24.9667 28.5171C24.9829 28.4689 24.9829 28.4367 24.9991 28.4045C25.0476 28.2599 25.0962 28.1314 25.1609 28.0028C25.1933 27.9385 25.2257 27.8743 25.2742 27.8261C25.3066 27.7939 25.3228 27.7779 25.3551 27.7457C25.3713 27.7296 25.3875 27.7296 25.4037 27.7135C25.4684 27.6493 25.517 27.6172 25.5494 27.6172Z" fill="#07453A"/>
<path d="M33.2691 25.3032C33.2853 25.3354 33.3338 25.3353 33.35 25.3192L33.35 25.3354L33.35 25.3676C33.35 25.3997 33.35 25.4318 33.35 25.4639C33.35 25.5282 33.3339 25.5925 33.3015 25.6407C33.2529 25.7532 33.2205 25.8658 33.1882 25.9783C33.172 26.0425 33.1559 26.0907 33.1559 26.1228C33.1559 26.171 33.1559 26.2033 33.1559 26.2193C33.1559 26.2354 33.1558 26.2193 33.1397 26.2193C33.1397 26.2193 33.1559 26.2193 33.1721 26.2193C33.2368 26.2033 33.3177 26.1551 33.3663 26.0908C33.4149 26.0265 33.4472 25.9461 33.4472 25.8497C33.4472 25.7533 33.4149 25.6567 33.3663 25.5603C33.3339 25.5121 33.3177 25.464 33.2691 25.4158L33.2369 25.3836C33.2207 25.3675 33.2369 25.3676 33.2369 25.3676C33.253 25.3676 33.2691 25.3354 33.2691 25.3032ZM33.2206 25.1104C33.2691 25.1264 33.3177 25.1426 33.3663 25.1747C33.3825 25.1908 33.4148 25.2068 33.4309 25.2229L33.4633 25.2551C33.5119 25.3033 33.5605 25.3515 33.6091 25.4158C33.69 25.5283 33.7709 25.6728 33.8033 25.8336C33.8357 25.9943 33.8032 26.171 33.7061 26.3157C33.609 26.4603 33.4795 26.5889 33.3015 26.6371C33.2044 26.6693 33.0912 26.6853 32.9617 26.6371C32.8322 26.5889 32.735 26.4603 32.7027 26.3639C32.6703 26.2514 32.6704 26.171 32.6704 26.0746C32.6866 25.9943 32.7027 25.914 32.7189 25.8497C32.7513 25.7212 32.7998 25.5925 32.8484 25.4639C32.8646 25.3997 32.8969 25.3354 32.9454 25.2872C32.9616 25.2551 32.994 25.239 33.0263 25.2069L33.0426 25.1907L33.0587 25.1907C33.0587 25.1907 33.0588 25.1908 33.075 25.1747C33.1398 25.1426 33.1882 25.1104 33.2206 25.1104Z" fill="#07453A"/>
<path d="M36.0692 39.3647C36.1015 39.3808 36.1338 39.3647 36.1338 39.3647C36.1338 39.3808 36.1501 39.413 36.1501 39.429C36.1663 39.4773 36.1661 39.5254 36.1823 39.5736C36.1985 39.67 36.1986 39.7504 36.1986 39.8468C36.1986 40.0236 36.1986 40.2003 36.1986 40.3771C36.1986 40.7306 36.231 41.0843 36.3119 41.4057L36.3119 41.4217C36.3119 41.3895 36.3119 41.4057 36.3119 41.4057L36.3119 41.4217L36.3281 41.4698L36.3766 41.5824C36.4089 41.6466 36.4414 41.727 36.4738 41.7913L36.4899 41.8074C36.4899 41.8074 36.5062 41.8234 36.4738 41.7913L36.4575 41.7752C36.4413 41.7592 36.4252 41.7431 36.3929 41.7431C36.3605 41.727 36.2795 41.7109 36.2147 41.7431C36.1824 41.7591 36.1662 41.7752 36.1662 41.7752L36.1823 41.7592L36.1986 41.7431L36.2795 41.6789C36.3443 41.6307 36.3765 41.5824 36.4251 41.5342C36.6193 41.3253 36.7164 41.0681 36.7488 40.7789C36.7812 40.5057 36.7165 40.2004 36.5708 39.9593L36.5223 39.8628C36.5061 39.8307 36.4737 39.7985 36.4575 39.7825C36.4089 39.7182 36.3605 39.67 36.3119 39.6218C36.2634 39.5735 36.1985 39.5254 36.1338 39.4772C36.1176 39.4612 36.1014 39.4611 36.1014 39.4451L36.0853 39.429C36.1177 39.413 36.1015 39.3808 36.0692 39.3647ZM35.972 39.188C36.0205 39.188 36.0853 39.2039 36.1338 39.22C36.1824 39.2361 36.2633 39.2683 36.2957 39.2843C36.3766 39.3326 36.4576 39.3648 36.5223 39.429C36.587 39.4773 36.668 39.5415 36.7166 39.6058C36.7489 39.6379 36.7812 39.67 36.8136 39.7021L36.8945 39.8146C37.1049 40.1039 37.2183 40.4574 37.2021 40.827C37.2021 41.1806 37.0725 41.5503 36.8297 41.8396C36.765 41.9039 36.7166 41.9841 36.6356 42.0323L36.5384 42.1127L36.506 42.1288L36.4899 42.1448C36.5061 42.1448 36.4737 42.1609 36.4414 42.177C36.3928 42.2091 36.3118 42.1931 36.2633 42.177C36.2471 42.1609 36.2148 42.1609 36.1986 42.1448C36.1824 42.1288 36.1823 42.1288 36.1823 42.1288C36.15 42.0967 36.15 42.0805 36.1338 42.0645L36.1177 42.0323C36.0691 41.952 36.0367 41.8717 36.0044 41.8074L35.9558 41.6949L35.9234 41.6305L35.9073 41.5985C35.9073 41.5825 35.891 41.5824 35.891 41.5342L35.891 41.5502C35.7777 41.1645 35.7617 40.7789 35.7455 40.4093C35.7455 40.2164 35.7293 40.0236 35.7455 39.8468C35.7617 39.7504 35.7777 39.6539 35.8101 39.5736C35.8263 39.5254 35.8425 39.4772 35.8586 39.4451C35.8748 39.429 35.8749 39.3968 35.891 39.3807C35.891 39.2843 35.9396 39.2041 35.972 39.188Z" fill="#07453A"/>
<path d="M0.755889 2.25799C1.09575 2.54726 1.43552 2.85266 1.79157 3.12586C1.96959 3.2705 2.14768 3.39906 2.34188 3.52763C2.51991 3.65619 2.71418 3.78482 2.8922 3.91338C3.63666 4.42764 4.41346 4.87758 5.20647 5.32756C5.99949 5.76146 6.79247 6.19537 7.60167 6.6132C8.41086 7.03103 9.20394 7.46484 10.0131 7.88268C13.2499 9.53794 16.5676 11.0486 19.772 12.7842C21.3742 13.652 22.9764 14.5359 24.5463 15.4358C26.1323 16.3358 27.7184 17.2357 29.272 18.1678C30.8419 19.0999 32.3793 20.0643 33.933 21.0285C34.7098 21.5106 35.4866 21.9927 36.2472 22.4908C36.6357 22.748 37.0079 22.989 37.3801 23.2622C37.5743 23.3908 37.7524 23.5193 37.9466 23.664C38.0437 23.7282 38.1246 23.8086 38.2217 23.8728C38.2703 23.905 38.3187 23.9532 38.3673 23.9854C38.3835 24.0014 38.4159 24.0336 38.4321 24.0497C38.4483 24.0658 38.4644 24.0818 38.4806 24.0979C38.4968 24.114 38.4968 24.114 38.513 24.1301C38.5292 24.1622 38.5292 24.1783 38.5454 24.2104L38.5454 24.2264C38.7396 26.0585 38.9177 27.9066 39.0633 29.7548C39.1442 30.6708 39.2089 31.6028 39.2413 32.5349C39.2575 33.001 39.2736 33.467 39.2898 33.9331C39.2898 34.3991 39.2737 34.8652 39.2737 35.3313C39.2413 39.0275 39.4516 42.7237 39.7429 46.4199C39.7429 46.4681 39.7106 46.5162 39.6459 46.5323C39.5973 46.5323 39.5487 46.5002 39.5326 46.4359C39.2089 42.7397 38.95 39.0435 38.95 35.3313C38.9986 33.4831 38.8366 31.651 38.691 29.8029C38.5291 27.9548 38.335 26.1227 38.1408 24.2746L38.1408 24.2908C38.1408 24.3068 38.1407 24.3229 38.1569 24.339C38.1569 24.355 38.1569 24.339 38.1569 24.339C38.1569 24.339 38.157 24.339 38.1408 24.3229C38.1246 24.3069 38.1085 24.2907 38.0923 24.2746C38.0599 24.2425 38.0113 24.2104 37.979 24.1783C37.898 24.114 37.8008 24.0497 37.7199 23.9694C37.5419 23.8408 37.3478 23.7122 37.1698 23.5836C36.7975 23.3265 36.4253 23.0693 36.0369 22.8283C35.2762 22.3301 34.4994 21.864 33.7226 21.3819C32.169 20.4338 30.6152 19.4696 29.0615 18.5536C27.5079 17.6215 25.922 16.7375 24.3359 15.8376C22.7499 14.9376 21.1639 14.0539 19.5617 13.2021C16.3572 11.4826 13.0556 9.97188 9.80262 8.31661C8.99342 7.89878 8.18423 7.48104 7.37503 7.04713C6.56583 6.6293 5.75666 6.19537 4.97984 5.72932C3.40999 4.8133 1.87261 3.73654 0.626449 2.40269C0.594081 2.35448 0.594081 2.3062 0.626449 2.25799C0.658817 2.22585 0.707337 2.22585 0.755889 2.25799Z" fill="#07453A"/>
</svg>
