<svg width="49" height="86" viewBox="0 0 49 86" fill="none" xmlns="http://www.w3.org/2000/svg">
<path d="M22.8139 21.9399C22.6035 21.5381 22.296 21.1685 21.9238 20.9113C21.5677 20.6542 21.1632 20.5418 20.7424 20.5579C20.3216 20.574 19.8846 20.7025 19.4962 20.8953C19.0916 21.0882 18.7033 21.3453 18.3472 21.6185C17.6189 22.181 16.9393 22.8078 16.3566 23.5309C16.0653 23.8845 15.8224 24.2701 15.6606 24.6719C15.515 25.0736 15.4827 25.5236 15.6284 25.9253C15.6931 26.1182 15.7901 26.3111 15.9358 26.4718C16.0814 26.6325 16.2434 26.7609 16.4376 26.8574C16.826 27.0663 17.2791 27.1627 17.7323 27.1788C18.1854 27.2109 18.6385 27.1306 19.0755 27.0021C19.5125 26.8735 19.9333 26.6807 20.3217 26.4236C21.0985 25.9254 21.7296 25.2182 22.2151 24.4468C22.4578 24.0611 22.6845 23.6434 22.8302 23.2095C22.9758 22.7917 23.0081 22.3256 22.8139 21.9399ZM22.992 21.8435C23.1053 22.0685 23.17 22.3257 23.17 22.5667C23.17 22.8078 23.1214 23.0649 23.0567 23.2899C22.911 23.7559 22.6845 24.1737 22.4256 24.5755C21.9239 25.379 21.2765 26.1183 20.4835 26.6647C20.0789 26.9378 19.642 27.1467 19.1888 27.2913C18.7195 27.4359 18.2339 27.5324 17.7484 27.5164C17.2629 27.5003 16.7611 27.4038 16.308 27.1788C16.0814 27.0663 15.871 26.9056 15.693 26.7288C15.515 26.536 15.3855 26.3111 15.2884 26.07C15.1104 25.5879 15.1266 25.0415 15.2884 24.5593C15.4502 24.0772 15.7254 23.6595 16.0167 23.2899C16.5993 22.5185 17.2953 21.8595 18.0559 21.2649C18.4444 20.9756 18.8489 20.7025 19.2859 20.4776C19.7228 20.2686 20.2083 20.0919 20.7424 20.0758C21.0013 20.0597 21.2764 20.1079 21.5192 20.2043C21.762 20.3008 21.9885 20.4615 22.1666 20.6383C22.5064 21.0079 22.7493 21.4257 22.992 21.8435Z" fill="#07453A"/>
<path d="M25.3386 23.1605C25.1282 23.1444 24.9016 23.1445 24.6912 23.2088C24.4808 23.2731 24.2866 23.3694 24.1248 23.4819C23.7849 23.739 23.5097 24.0606 23.2508 24.4141C23.1213 24.5909 23.0081 24.7837 22.911 24.9766C22.8624 25.073 22.8138 25.1694 22.7653 25.2658L22.6519 25.5711C22.5225 25.9728 22.4739 26.4067 22.4577 26.8567C22.4577 27.7245 22.6357 28.6085 23.0241 29.396C23.2022 29.7977 23.4611 30.1512 23.7524 30.4565C23.8333 30.5369 23.8981 30.6173 23.9791 30.6816L24.2379 30.8743L24.5131 31.035C24.5617 31.0672 24.6103 31.0833 24.6588 31.0994L24.8044 31.1637C25.1928 31.3083 25.6298 31.2921 26.0021 31.1154C26.3743 30.9386 26.6817 30.6173 26.9083 30.2477C27.1349 29.878 27.2806 29.4601 27.3453 29.0262C27.3939 28.5923 27.41 28.1264 27.3938 27.6764C27.3615 26.7764 27.2321 25.8765 26.957 25.0248C26.8113 24.6069 26.6333 24.189 26.3582 23.8355C26.1316 23.498 25.7594 23.2248 25.3386 23.1605ZM25.3547 22.9678C25.5975 22.9999 25.8403 23.0963 26.0345 23.2248C26.2449 23.3534 26.4067 23.5301 26.5524 23.7229C26.8437 24.0926 27.0378 24.5265 27.1835 24.9604C27.491 25.8443 27.6205 26.7604 27.669 27.6764C27.6852 28.1424 27.7013 28.5923 27.6366 29.0584C27.5881 29.5244 27.4424 29.9905 27.1835 30.4084C27.1187 30.5048 27.054 30.6172 26.9892 30.7136C26.9569 30.7618 26.9246 30.8101 26.8761 30.8583L26.7465 30.9868C26.6656 31.0833 26.5686 31.1475 26.4715 31.2279C26.4229 31.26 26.3744 31.2923 26.3096 31.3244C26.2611 31.3566 26.2125 31.3886 26.1478 31.4208C25.6946 31.6458 25.1443 31.6939 24.675 31.5171L24.497 31.4529C24.4323 31.4369 24.3837 31.4047 24.3351 31.3726L24.0115 31.1957L23.7202 30.9708C23.6231 30.9065 23.5421 30.8101 23.445 30.7298C23.1052 30.3923 22.8138 29.9905 22.6034 29.5727C22.1664 28.7209 21.9561 27.7888 21.9561 26.8407C21.9561 26.3586 22.0208 25.8926 22.1664 25.4265L22.2959 25.0889C22.3444 24.9764 22.393 24.864 22.4416 24.7675C22.5387 24.5586 22.6681 24.3497 22.8138 24.1569C23.0889 23.7551 23.4612 23.4176 23.8981 23.1927C24.1247 23.0802 24.3675 23.0159 24.594 22.9838C24.8853 22.9356 25.1281 22.9517 25.3547 22.9678Z" fill="#07453A"/>
<path d="M14.1068 21.8431L13.9611 21.7306C13.9125 21.6984 13.8802 21.6502 13.8155 21.6181C13.7022 21.5538 13.6051 21.4896 13.4918 21.4413C13.3785 21.3931 13.2652 21.3449 13.1357 21.3288C13.0224 21.2967 12.8929 21.2645 12.7797 21.2485C12.5369 21.2002 12.2941 21.2002 12.0514 21.1841L11.8734 21.1841C11.8087 21.1841 11.7439 21.168 11.6953 21.1841C11.5658 21.1841 11.4526 21.1841 11.3231 21.1841C10.3359 21.2323 9.34872 21.4574 8.47479 21.8913C8.24822 21.9877 8.03782 22.1324 7.82743 22.2449C7.61704 22.3734 7.43892 22.5341 7.24472 22.6948C6.87249 23.0162 6.54881 23.3858 6.27368 23.7876C5.99855 24.1893 5.78826 24.6393 5.72352 25.0892C5.69115 25.3142 5.70731 25.5392 5.77204 25.7642C5.83678 25.9732 5.95 26.1822 6.11184 26.3429C6.27368 26.5197 6.46795 26.6642 6.66216 26.7767C6.87255 26.9052 7.08288 27.0018 7.32564 27.0661C7.43892 27.0982 7.55224 27.1463 7.68172 27.1784L8.03779 27.2588C8.28055 27.2909 8.52325 27.3231 8.78219 27.3231C9.28389 27.3231 9.76951 27.275 10.255 27.1464C10.7405 27.0178 11.1936 26.825 11.6468 26.5839C12.5207 26.0857 13.2814 25.3947 13.8316 24.5751C14.0744 24.1573 14.2524 23.6751 14.3495 23.1929C14.3981 22.9519 14.4143 22.7108 14.3819 22.4698C14.3496 22.2287 14.2686 22.0038 14.1068 21.8431ZM14.2525 21.6984C14.4467 21.9073 14.5437 22.1805 14.5923 22.4376C14.6247 22.7108 14.6085 22.968 14.5762 23.2251C14.4953 23.7394 14.3009 24.2375 14.042 24.6875C13.4755 25.5714 12.6826 26.2785 11.7925 26.8088C11.3393 27.066 10.8538 27.2748 10.3521 27.4195C9.85036 27.5641 9.31636 27.6445 8.79847 27.6445C8.53953 27.6445 8.26434 27.6124 8.00539 27.5964L7.61707 27.516C7.4876 27.4999 7.35807 27.4356 7.2286 27.4035C6.96965 27.3392 6.72696 27.2266 6.4842 27.0981C6.25762 26.9695 6.03105 26.8089 5.83684 26.5999C5.64263 26.4071 5.48076 26.15 5.39984 25.8768C5.31892 25.6036 5.28655 25.3143 5.31892 25.0411C5.38366 24.4947 5.62635 23.9965 5.90148 23.5465C6.19279 23.0965 6.5489 22.7108 6.93732 22.3572C7.13152 22.1805 7.34182 22.0198 7.5684 21.8751C7.79497 21.7305 8.02158 21.5858 8.24815 21.4734C9.18682 20.9912 10.2387 20.7503 11.2907 20.686C11.8248 20.6699 12.3589 20.7342 12.8606 20.8949C12.99 20.927 13.1195 20.9753 13.2328 21.0396C13.3622 21.0878 13.4756 21.152 13.5889 21.2163C13.8478 21.3449 14.0583 21.5216 14.2525 21.6984Z" fill="#07453A"/>
<path d="M14.2206 24.1252C14.3015 24.0288 14.35 24.0128 14.3985 24.0289L14.5279 24.0771C14.625 24.1092 14.706 24.1414 14.8031 24.1896C14.9811 24.286 15.1592 24.3985 15.2725 24.5753C15.3048 24.6235 15.2886 24.6877 15.2401 24.7198C15.2077 24.7359 15.1753 24.736 15.1592 24.736C14.9811 24.6878 14.8194 24.6395 14.6575 24.6073C14.5766 24.5912 14.4794 24.5753 14.3985 24.5431L14.2691 24.511C14.2205 24.4949 14.1882 24.4628 14.172 24.3343C14.1558 24.2539 14.1882 24.1895 14.2206 24.1252Z" fill="#07453A"/>
<path d="M16.0331 26.857C16.1626 27.4194 16.114 28.0141 15.9522 28.5605C15.7904 29.1069 15.5313 29.6372 15.2076 30.1032C14.884 30.5693 14.4794 30.9871 14.0101 31.3407C13.7835 31.5175 13.5407 31.6782 13.2979 31.8228C13.0552 31.9674 12.78 32.096 12.5049 32.1924C12.2297 32.2888 11.9223 32.337 11.5986 32.3049C11.2911 32.2728 10.9997 32.2085 10.7246 32.0478C10.4495 31.8871 10.2391 31.646 10.0773 31.3889C9.9316 31.1157 9.85081 30.8264 9.80226 30.5532C9.70515 29.9746 9.76989 29.4122 9.88318 28.8498C9.99646 28.3034 10.1745 27.7569 10.4496 27.2587C10.482 27.2105 10.5305 27.1945 10.5791 27.2105C10.6276 27.2427 10.6438 27.2909 10.6276 27.3391C10.401 27.8212 10.2554 28.3516 10.1745 28.8819C10.0935 29.4123 10.0611 29.9586 10.1582 30.4728C10.2067 30.7299 10.2877 30.971 10.4172 31.196C10.5467 31.4049 10.7247 31.5818 10.9351 31.6943C11.1455 31.8068 11.3882 31.8711 11.6471 31.8871C11.8899 31.9032 12.1327 31.855 12.3754 31.7746C12.6182 31.6943 12.861 31.5817 13.0876 31.437C13.3142 31.3085 13.5407 31.1478 13.7511 30.9871C14.1719 30.6657 14.5441 30.2801 14.8354 29.8462C15.1267 29.4123 15.3695 28.9302 15.5152 28.432C15.6609 27.9338 15.7579 27.4195 15.855 26.8731C15.8712 26.8249 15.9198 26.7767 15.9683 26.7928C15.9845 26.7767 16.0169 26.8087 16.0331 26.857Z" fill="#07453A"/>
<path d="M17.9588 27.5809C17.7322 28.1112 17.4409 28.5773 17.182 29.0434C16.923 29.5255 16.6803 30.0077 16.5994 30.5219C16.5023 31.0362 16.5346 31.5664 16.7288 32.0325C16.7612 32.0967 16.7774 32.145 16.8098 32.2093L16.9068 32.37C16.9877 32.4665 17.0525 32.5628 17.1496 32.6431C17.3276 32.8038 17.5381 32.9486 17.7808 33.0129C18.0236 33.0771 18.2825 33.1253 18.5252 33.1092C18.7842 33.0931 19.0431 33.0449 19.302 32.9645C19.8199 32.8199 20.2893 32.5468 20.7101 32.2093C21.5678 31.5344 22.2315 30.6182 22.6684 29.6219C22.6846 29.5736 22.7493 29.5415 22.7979 29.5737C22.8464 29.5898 22.8626 29.654 22.8464 29.7022C22.6522 30.2325 22.3933 30.7469 22.0696 31.2129C21.7459 31.679 21.3736 32.1288 20.9204 32.4824C20.4835 32.852 19.9657 33.1575 19.3992 33.3343C19.1241 33.4307 18.8327 33.4949 18.5252 33.511C18.2177 33.5431 17.9103 33.495 17.619 33.4146C17.0202 33.2539 16.5022 32.7556 16.2918 32.1932C16.0491 31.6307 16.0329 31.0039 16.13 30.4254C16.1786 30.1361 16.2595 29.8469 16.3728 29.5737C16.4861 29.3005 16.6155 29.0434 16.745 28.8023C17.0201 28.3041 17.36 27.8541 17.7808 27.4523C17.8294 27.4202 17.894 27.4202 17.9264 27.4523C17.9587 27.5005 17.975 27.5327 17.9588 27.5809Z" fill="#07453A"/>
<path d="M23.5423 30.6981C23.3966 31.3731 23.1862 32.0158 23.0082 32.6426C22.8302 33.2854 22.7492 33.9283 22.7816 34.5872C22.8139 35.23 22.9435 35.8889 23.251 36.4353C23.3966 36.7246 23.5909 36.9496 23.8498 37.1264C24.0926 37.3031 24.4001 37.4156 24.6914 37.4478C25.3064 37.5281 25.9537 37.3031 26.3745 36.8531C26.5849 36.6121 26.7791 36.355 26.8924 36.0658C26.9733 35.9211 27.0057 35.7603 27.0542 35.6157L27.1027 35.3746L27.1351 35.2622L27.1513 35.1335L27.1837 34.8925L27.1999 34.6514C27.2161 34.4907 27.1999 34.314 27.1999 34.1533C27.1838 33.8158 27.1514 33.4944 27.0866 33.1569C26.9733 32.498 26.7791 31.8552 26.5687 31.2124C26.5525 31.1642 26.5849 31.0999 26.6335 31.0838C26.6821 31.0678 26.7468 31.0838 26.7629 31.148C27.0219 31.7748 27.2484 32.4337 27.3779 33.1087C27.5236 33.7837 27.5883 34.4908 27.5073 35.1819L27.4912 35.3104L27.4588 35.4389L27.4103 35.696C27.3618 35.8728 27.3131 36.0335 27.2322 36.2103C27.1027 36.5478 26.8924 36.8532 26.6496 37.1264C26.1479 37.6728 25.3711 37.9781 24.6266 37.8817C24.2544 37.8335 23.8821 37.7049 23.5747 37.496C23.2672 37.287 23.0083 36.9817 22.8303 36.6602C22.4742 36.0335 22.3123 35.3103 22.2799 34.6032C22.2476 33.8961 22.3285 33.189 22.5066 32.514C22.6846 31.8391 22.9597 31.1963 23.3158 30.6177C23.3481 30.5695 23.4128 30.5534 23.4613 30.5856C23.5261 30.6177 23.5423 30.6659 23.5423 30.6981Z" fill="#07453A"/>
<path d="M27.6206 26.8887C28.2032 26.8887 28.7696 27.0654 29.2875 27.3386C29.8054 27.6118 30.2748 27.9654 30.6794 28.3672C31.5048 29.1868 32.0388 30.3117 32.1197 31.4688C32.1197 31.6134 32.136 31.7581 32.136 31.9027L32.1036 32.3366C32.0874 32.4813 32.055 32.6259 32.0388 32.7706C31.9902 32.9152 31.9579 33.0598 31.9093 33.1883C31.6828 33.7347 31.3106 34.2168 30.8413 34.5704C30.3719 34.9239 29.7731 35.1329 29.1905 35.1168C29.1095 35.1168 29.0447 35.1169 28.9638 35.1008L28.7373 35.0686L28.624 35.0525L28.5107 35.0205L28.3003 34.9561C28.1709 34.9079 28.0413 34.8275 27.9119 34.7632C27.7986 34.6829 27.6691 34.6026 27.5558 34.5062C27.5072 34.474 27.5073 34.4097 27.5397 34.3615C27.572 34.3133 27.6368 34.3133 27.6854 34.3455C28.1223 34.6669 28.6401 34.8436 29.1742 34.8276C29.4331 34.8276 29.6921 34.7633 29.9349 34.6669C30.0481 34.6187 30.1777 34.5543 30.2909 34.49C30.4042 34.4096 30.5175 34.3615 30.6146 34.2651C31.0192 33.9437 31.3428 33.5098 31.5209 33.0116C31.5532 32.8831 31.6018 32.7705 31.6342 32.6419C31.6504 32.5133 31.6827 32.3849 31.6827 32.2563L31.699 31.8545C31.699 31.726 31.6827 31.5974 31.6827 31.4528C31.5856 30.3921 31.1001 29.3957 30.3395 28.6404C29.9672 28.2708 29.5303 27.9494 29.0447 27.7084C28.5754 27.4512 28.0738 27.2584 27.5721 27.0334C27.5235 27.0173 27.4912 26.953 27.5235 26.9048C27.5397 26.9209 27.5882 26.8887 27.6206 26.8887Z" fill="#07453A"/>
<path d="M31.7957 29.7825C32.4755 29.3807 33.3655 29.3486 34.11 29.6218C34.8707 29.895 35.518 30.4576 35.8902 31.1647C36.0683 31.5021 36.2302 31.8557 36.3596 32.2092C36.4891 32.5628 36.5863 32.9323 36.6672 33.318C36.7481 33.6876 36.7805 34.0734 36.7966 34.4591C36.8128 34.8448 36.7804 35.2304 36.7318 35.6161C36.6671 36.0018 36.5538 36.3715 36.4082 36.725C36.3272 36.9018 36.2463 37.0785 36.133 37.2553C36.0197 37.4321 35.8903 37.5928 35.7447 37.7214C35.4372 37.9946 35.0326 38.1714 34.6118 38.2035C34.2072 38.2357 33.8026 38.1553 33.4304 37.9946C32.7021 37.6893 32.087 37.1429 31.7148 36.4679C31.3426 35.793 31.1485 35.0377 31.0837 34.2984C31.0837 34.2502 31.116 34.202 31.1808 34.1859C31.2293 34.1859 31.2779 34.218 31.2941 34.2662C31.3912 34.9894 31.6015 35.6965 31.9576 36.3232C32.3136 36.9339 32.9125 37.416 33.5599 37.6571C33.8835 37.7856 34.2395 37.8499 34.5794 37.8178C34.9193 37.7856 35.2268 37.641 35.4695 37.416C35.5828 37.3035 35.6962 37.175 35.7771 37.0304C35.858 36.8858 35.9388 36.725 36.0036 36.5643C36.133 36.2268 36.2302 35.8893 36.2787 35.5357C36.3273 35.1822 36.3435 34.8287 36.3435 34.4751C36.3273 34.1216 36.2787 33.752 36.2139 33.4145C36.133 33.061 36.036 32.7074 35.9065 32.37C35.777 32.0325 35.6314 31.711 35.4534 31.3896C35.1297 30.7789 34.5633 30.3128 33.9159 30.0717C33.2686 29.8307 32.5564 29.8147 31.8443 29.9594C31.7957 29.9754 31.731 29.9433 31.7148 29.879C31.731 29.8469 31.7634 29.7986 31.7957 29.7825Z" fill="#07453A"/>
<path d="M36.47 33.0285C37.05 32.9321 37.6867 32.9161 38.295 33.0607C38.8892 33.2053 39.4833 33.4143 40.0209 33.7357C40.5584 34.0571 41.0394 34.4909 41.3789 35.0373C41.7043 35.5837 41.8741 36.2265 41.86 36.8533C41.8458 37.014 41.846 37.1748 41.8177 37.3194L41.7752 37.5443C41.7469 37.6246 41.7469 37.705 41.7044 37.7853C41.6478 37.946 41.5772 38.0908 41.4781 38.2354C41.3791 38.364 41.2659 38.4925 41.1385 38.605C40.8839 38.8139 40.5728 38.9585 40.2615 39.0228C40.1059 39.0549 39.9361 39.071 39.7664 39.071C39.6108 39.071 39.455 39.0389 39.2994 39.0068C38.6769 38.8782 38.1251 38.589 37.6299 38.2354C37.1348 37.8819 36.6964 37.464 36.3003 36.998C36.2579 36.9498 36.272 36.8854 36.3144 36.8533C36.3568 36.8211 36.4134 36.8212 36.4559 36.8694C36.852 37.3033 37.3048 37.689 37.7858 38.0104C38.2668 38.3318 38.8043 38.5728 39.356 38.6692C39.639 38.7174 39.9076 38.7335 40.1764 38.6692C40.4452 38.6049 40.6857 38.4926 40.8838 38.3158C40.9828 38.2354 41.0678 38.1228 41.1385 38.0264C41.2093 37.9139 41.2658 37.8015 41.3082 37.673C41.3365 37.6087 41.3366 37.5444 41.3507 37.4801L41.3789 37.2712C41.4072 37.1266 41.4074 36.9979 41.4074 36.8533C41.4215 36.2908 41.2659 35.7444 40.983 35.2784C40.6859 34.8123 40.2615 34.4267 39.7805 34.1374C39.2853 33.8482 38.7476 33.6552 38.1817 33.5266C37.8988 33.4624 37.6158 33.4141 37.3329 33.3659C37.0499 33.3177 36.753 33.2857 36.4559 33.2214C36.3993 33.2053 36.371 33.1571 36.3851 33.0929C36.3851 33.0607 36.4275 33.0285 36.47 33.0285Z" fill="#07453A"/>
<path d="M17.4732 33.2533C17.4732 33.7193 17.3761 34.1532 17.279 34.5871C17.1819 35.021 17.1172 35.4549 17.1334 35.8727C17.1334 36.2905 17.2305 36.7083 17.4247 37.0618C17.6027 37.3993 17.9588 37.6084 18.3472 37.6726C18.7518 37.7369 19.1725 37.6886 19.5771 37.544C19.9655 37.3832 20.3539 37.1584 20.6776 36.8691C21.0174 36.5798 21.3249 36.2744 21.6001 35.9209C21.8752 35.5673 22.1181 35.1977 22.3446 34.812C22.377 34.7638 22.4255 34.7478 22.4741 34.78C22.5226 34.8121 22.5388 34.8603 22.5226 34.9085C22.1342 35.7442 21.6001 36.4994 20.9042 37.1262C20.5643 37.4315 20.1598 37.7047 19.7228 37.8975C19.2859 38.0904 18.7679 38.1708 18.2824 38.0904C18.0396 38.0583 17.7808 37.9619 17.5704 37.8333C17.3438 37.7048 17.1495 37.4959 17.0362 37.2709C16.9067 37.062 16.8259 36.8208 16.7612 36.5797C16.7127 36.3387 16.6803 36.0976 16.6803 35.8566C16.6641 35.3744 16.745 34.9085 16.8421 34.4585C16.8907 34.2336 16.9553 34.0085 17.0362 33.7996C17.1171 33.5906 17.1982 33.3818 17.3276 33.1729C17.36 33.1247 17.4247 33.1086 17.4732 33.1407C17.4408 33.1729 17.4732 33.205 17.4732 33.2533Z" fill="#07453A"/>
<path d="M12.4235 32.0634C11.9542 32.6741 11.5335 33.3009 11.226 33.9758C10.9185 34.6508 10.7567 35.39 10.8214 36.1132C10.8538 36.4828 10.9185 36.8364 11.0641 37.1578C11.1289 37.3185 11.2259 37.4791 11.323 37.6237C11.4201 37.7683 11.5496 37.897 11.6791 38.0095C11.8086 38.122 11.9543 38.2022 12.1161 38.2665C12.2779 38.3147 12.4398 38.363 12.6016 38.363C12.7635 38.363 12.9415 38.347 13.1195 38.2827C13.2976 38.2345 13.4593 38.1702 13.6212 38.0898C14.2685 37.7684 14.7864 37.2059 15.1748 36.5631C15.369 36.2417 15.5309 35.9043 15.6766 35.5507C15.806 35.1972 15.9354 34.8436 16.0164 34.474C16.0973 34.1043 16.1458 33.7347 16.1782 33.349C16.1782 33.1562 16.1944 32.9794 16.1782 32.7866L16.1621 32.4973L16.1136 32.2241L16.0973 32.0794L16.0649 31.9509L16.0002 31.6776L15.903 31.4206L15.8545 31.292L15.7899 31.1635L15.6603 30.9225L15.4984 30.6974C15.4661 30.6653 15.4499 30.617 15.4175 30.5849L15.3205 30.4885L15.1262 30.2796C15.0939 30.2314 15.0939 30.1832 15.1262 30.1349C15.1586 30.1028 15.2233 30.1028 15.2557 30.1349C15.8545 30.6653 16.2754 31.4045 16.4048 32.1919C16.5667 32.9794 16.5343 33.7829 16.3724 34.5543C16.2915 34.94 16.1782 35.3256 16.0488 35.6953C15.9031 36.0649 15.7412 36.4345 15.5308 36.772C15.1262 37.463 14.576 38.0898 13.8315 38.4916C13.6535 38.588 13.4432 38.6684 13.249 38.7166C13.0386 38.7809 12.8281 38.7969 12.6177 38.813C12.3912 38.813 12.1808 38.7647 11.9704 38.7005C11.76 38.6201 11.5658 38.5077 11.4039 38.363C10.7404 37.8006 10.433 36.9489 10.3683 36.1454C10.3035 35.3258 10.4652 34.506 10.8051 33.7668C11.145 33.0276 11.663 32.3847 12.3103 31.9187C12.3589 31.8866 12.4235 31.9027 12.4559 31.9349C12.4559 31.9831 12.4559 32.0313 12.4235 32.0634Z" fill="#07453A"/>
<path d="M9.86669 29.6053C9.20315 29.7821 8.57201 29.9428 7.95702 30.1999C7.35822 30.4571 6.7756 30.8106 6.25771 31.2124C5.73983 31.6141 5.23816 32.0801 4.91448 32.6265C4.75264 32.8997 4.63939 33.1891 4.6232 33.4944C4.60702 33.7837 4.68784 34.0728 4.84968 34.33C4.89823 34.3943 4.93057 34.4586 4.97912 34.5229C5.02767 34.5871 5.07629 34.6515 5.12484 34.6997C5.23813 34.8122 5.35138 34.8925 5.49704 34.989C5.77216 35.1657 6.06354 35.2622 6.37103 35.3104C6.45195 35.3265 6.53287 35.3264 6.61379 35.3264C6.69471 35.3264 6.77563 35.3264 6.85655 35.3264C7.01839 35.3264 7.18023 35.2943 7.34206 35.2782C7.64956 35.2139 7.97327 35.1014 8.26458 34.9568C8.55589 34.7961 8.83095 34.6192 9.08989 34.4103C9.21936 34.3139 9.33262 34.1854 9.46209 34.0729C9.57538 33.9443 9.68876 33.8319 9.80205 33.7033C10.239 33.189 10.5949 32.6105 10.8862 32.0159C10.9186 31.9677 10.9673 31.9516 11.0158 31.9677C11.0644 31.9838 11.0805 32.048 11.0644 32.0962C10.9349 32.4177 10.773 32.723 10.595 33.0283C10.4169 33.3176 10.2228 33.623 10.0124 33.8962C9.9153 34.0408 9.78574 34.1694 9.67245 34.298C9.54298 34.4265 9.42972 34.5551 9.30025 34.6676C9.04131 34.9086 8.75003 35.1174 8.44254 35.2942C8.13504 35.471 7.77897 35.5836 7.4391 35.68C7.26108 35.7121 7.08309 35.7443 6.90507 35.7443C6.80796 35.7443 6.72701 35.7604 6.62991 35.7443C6.53281 35.7443 6.45186 35.7282 6.35475 35.7282C5.99871 35.6799 5.62657 35.5674 5.31908 35.3746C5.15724 35.2781 5.01161 35.1817 4.86596 35.0532C4.80122 34.9889 4.73646 34.9246 4.67172 34.8443C4.60699 34.78 4.55843 34.6997 4.50988 34.6194C4.29949 34.314 4.16996 33.9121 4.20233 33.5264C4.21851 33.1407 4.36426 32.7712 4.54228 32.4658C4.91451 31.8391 5.4323 31.3409 5.98255 30.9069C6.25768 30.698 6.54896 30.4891 6.84027 30.3123C7.13158 30.1355 7.45538 29.9587 7.77906 29.8302C8.4426 29.557 9.15466 29.4285 9.85057 29.4767C9.89912 29.4767 9.94761 29.5248 9.94761 29.5891C9.93142 29.557 9.89906 29.6053 9.86669 29.6053Z" fill="#07453A"/>
<path d="M5.93763 26.5375C5.42962 26.5813 4.95859 26.6397 4.50015 26.7565C4.02931 26.8733 3.5957 27.0776 3.18681 27.3404C2.77793 27.6032 2.41876 27.9389 2.0966 28.3039C2.02226 28.3915 1.94787 28.4937 1.86114 28.5813C1.7868 28.6835 1.71231 28.7857 1.65036 28.8733C1.5884 28.9755 1.52665 29.063 1.47708 29.1798L1.40255 29.3403L1.35318 29.5009C1.2045 29.9388 1.21689 30.4207 1.35318 30.8587C1.42752 31.0777 1.53904 31.2819 1.66294 31.4863C1.79924 31.676 1.96031 31.8513 2.15856 31.9827C2.34441 32.1141 2.55505 32.2456 2.77808 32.3186C3.0011 32.3916 3.23647 32.4206 3.47189 32.4206C3.95512 32.406 4.4382 32.2602 4.87186 32.0266C4.92142 31.9974 4.98357 32.0118 5.00835 32.0702C5.03313 32.114 5.02064 32.1725 4.97108 32.2017C4.52503 32.479 4.01702 32.6688 3.48423 32.7126C3.21164 32.7272 2.93906 32.7126 2.67886 32.6396C2.41866 32.552 2.1708 32.4352 1.94777 32.2892C1.72475 32.1286 1.5266 31.9391 1.36552 31.7201C1.20445 31.5011 1.0682 31.2529 0.981469 31.0047C0.808003 30.4937 0.783126 29.9098 0.944201 29.3843L1.00615 29.1944L1.09279 29.0045C1.14235 28.8731 1.22928 28.7709 1.29123 28.6395C1.36557 28.5227 1.43977 28.4206 1.51411 28.3184C1.60084 28.2162 1.67519 28.1141 1.76192 28.0119C2.10885 27.6177 2.49295 27.2526 2.93901 26.9606C3.37267 26.6686 3.86843 26.4205 4.38883 26.2891C4.90922 26.1577 5.47904 26.1432 5.97465 26.3476C6.02422 26.3622 6.049 26.4206 6.03661 26.479C6.01183 26.5082 5.9748 26.5375 5.93763 26.5375Z" fill="#07453A"/>
<path d="M7.5687 29.9264C7.55251 29.8461 7.56879 29.7818 7.58498 29.7336C7.60116 29.6854 7.61725 29.6372 7.64962 29.605C7.69817 29.5247 7.76298 29.4442 7.79535 29.3478C7.87627 29.171 7.94095 28.9782 7.97332 28.7854C8.03806 28.3997 7.95716 27.9979 7.76295 27.6123C7.74676 27.564 7.76291 27.4998 7.81147 27.4837C7.86002 27.4677 7.90861 27.4676 7.92479 27.4997C8.08664 27.6765 8.21609 27.8855 8.29701 28.1105C8.37794 28.3355 8.41034 28.5926 8.41034 28.8337C8.39415 29.0747 8.34566 29.3319 8.23237 29.5569C8.18381 29.6694 8.11898 29.7818 8.05424 29.8783C7.9895 29.9747 7.87627 30.071 7.71442 30.071C7.6335 30.071 7.58488 30.0228 7.5687 29.9425L7.5687 29.9264Z" fill="#07453A"/>
<path d="M14.3172 21.9389C14.4467 21.7782 14.6085 21.7139 14.7704 21.6657C14.9322 21.6175 15.1103 21.5853 15.2722 21.5531C15.612 21.4728 15.9518 21.4246 16.2917 21.3764C16.6316 21.3282 16.9714 21.28 17.3113 21.2479C17.6511 21.2157 17.991 21.1674 18.3308 21.1514C18.3794 21.1514 18.4442 21.1836 18.4442 21.2479C18.4442 21.2961 18.4119 21.3443 18.3795 21.3604C18.0558 21.4568 17.7159 21.5371 17.3922 21.6175L16.405 21.8264C16.0814 21.8907 15.7414 21.971 15.4177 22.0353C15.2559 22.0674 15.094 22.1157 14.9322 22.1478C14.8513 22.1639 14.7704 22.18 14.6894 22.18C14.6085 22.18 14.5115 22.18 14.4144 22.1478C14.3497 22.1317 14.3173 22.0514 14.3335 21.9871C14.3011 21.955 14.3172 21.955 14.3172 21.9389Z" fill="#07453A"/>
<path d="M23.7689 19.9626C23.7527 20.1073 23.7042 20.1555 23.6394 20.2037L23.4289 20.3162C23.2995 20.3966 23.1538 20.4608 23.0243 20.5411C22.7492 20.6857 22.4742 20.8305 22.1829 20.959C22.1344 20.9751 22.0695 20.9589 22.0533 20.9107C22.0371 20.8785 22.0372 20.8305 22.0696 20.7983C22.28 20.5573 22.5389 20.3483 22.7979 20.1715C22.9273 20.0751 23.0568 19.9948 23.2025 19.9145L23.4128 19.7858C23.4775 19.7536 23.5585 19.7216 23.688 19.8019C23.7527 19.818 23.7851 19.8984 23.7689 19.9626Z" fill="#07453A"/>
<path d="M24.9986 20.3647C25.1443 20.4289 25.1929 20.5253 25.2253 20.6217L25.3062 20.9271C25.3547 21.136 25.3872 21.3449 25.4195 21.5538C25.4681 21.9716 25.4842 22.3896 25.468 22.8074C25.468 22.8556 25.4195 22.9038 25.3547 22.9038C25.3062 22.9038 25.2739 22.8716 25.2577 22.8234C25.1444 22.4217 25.0796 22.0198 24.9825 21.6341C24.9339 21.4413 24.8853 21.2485 24.8368 21.0557L24.7558 20.7664C24.7235 20.67 24.7234 20.5735 24.8044 20.4289C24.8367 20.3485 24.9177 20.3325 24.9986 20.3647Z" fill="#07453A"/>
<path d="M6.72716 35.7768C6.51677 36.4196 6.193 36.9982 5.90169 37.5768C5.75603 37.866 5.61038 38.1553 5.49709 38.4606C5.43236 38.6053 5.36768 38.7659 5.31913 38.9106C5.27058 39.0552 5.22206 39.2 5.18969 39.3607C5.04404 39.9714 5.02773 40.6302 5.14101 41.2248C5.20575 41.5301 5.30295 41.8194 5.48097 42.0605C5.64281 42.3016 5.86932 42.4784 6.14445 42.5748C6.41957 42.6712 6.72707 42.6712 7.03456 42.623C7.34206 42.5748 7.63337 42.4784 7.92468 42.3337C8.5073 42.0605 9.04146 41.7069 9.47843 41.2248C9.68882 40.9837 9.88303 40.7266 10.0449 40.4534C10.2067 40.1802 10.3524 39.8909 10.4495 39.5856C10.5142 39.4409 10.5465 39.2803 10.595 39.1196C10.6274 38.9589 10.676 38.7982 10.6922 38.6375C10.757 38.3161 10.7892 37.9947 10.8054 37.6733C10.8054 37.6251 10.854 37.5768 10.9187 37.5768C10.9673 37.5768 11.0159 37.6251 11.0159 37.6733C11.0159 38.3482 10.9349 39.0231 10.7245 39.6659C10.6274 39.9873 10.4817 40.3087 10.3199 40.598C10.158 40.9033 9.96388 41.1766 9.73731 41.4337C9.28416 41.9479 8.70151 42.3659 8.08652 42.6551C7.77902 42.8159 7.43913 42.9283 7.08308 42.9926C6.72704 43.0568 6.35484 43.0569 5.98261 42.9444C5.80459 42.8801 5.62663 42.7997 5.48097 42.6712C5.33531 42.5587 5.20578 42.414 5.09249 42.2694C4.97921 42.1248 4.89835 41.948 4.83361 41.7873C4.76888 41.6266 4.72033 41.4498 4.67177 41.273C4.52612 40.5819 4.55852 39.8749 4.70417 39.2C4.73654 39.0393 4.80118 38.8624 4.84973 38.7017C4.91447 38.541 4.96312 38.3804 5.02785 38.2357C5.15732 37.9304 5.30292 37.609 5.44857 37.3197C5.75607 36.7251 6.09596 36.1465 6.53292 35.6323C6.56529 35.5841 6.62993 35.584 6.67848 35.6161C6.74322 35.6965 6.74335 35.7447 6.72716 35.7768Z" fill="#07453A"/>
<path d="M10.8217 39.4086C10.935 39.8747 11.0322 40.3085 11.1778 40.7424C11.3235 41.1603 11.55 41.5621 11.8737 41.8514C12.1974 42.1406 12.5857 42.3334 13.0227 42.3495C13.136 42.3495 13.2331 42.3495 13.3464 42.3495C13.4597 42.3334 13.5729 42.3335 13.6701 42.3013C13.8966 42.2531 14.107 42.1889 14.3174 42.0924C14.7382 41.9157 15.1266 41.6585 15.4827 41.3693C15.8387 41.08 16.1625 40.7263 16.4376 40.3567C16.9879 39.6014 17.36 38.7336 17.5866 37.8015C17.6028 37.7533 17.6514 37.7212 17.6999 37.7212C17.7485 37.7373 17.7809 37.7855 17.7809 37.8337C17.6352 38.798 17.2791 39.73 16.7289 40.5496C16.4538 40.9513 16.1301 41.3371 15.7579 41.6585C15.6607 41.7388 15.5637 41.8192 15.4666 41.8996C15.3695 41.9799 15.2723 42.0441 15.159 42.1244C15.0619 42.1887 14.9486 42.253 14.8353 42.3173C14.722 42.3816 14.6088 42.4299 14.4955 42.4942C14.269 42.5906 14.0262 42.687 13.7673 42.7353C13.6378 42.7674 13.5082 42.7673 13.3788 42.7994C13.2493 42.8155 13.1198 42.7995 12.9903 42.8156C12.4562 42.7995 11.9384 42.5584 11.55 42.2048C11.1616 41.8512 10.9026 41.3853 10.7245 40.9031C10.5627 40.421 10.498 39.9068 10.6275 39.4086C10.6437 39.3604 10.6922 39.3283 10.7569 39.3283C10.7731 39.3443 10.8055 39.3604 10.8217 39.4086Z" fill="#07453A"/>
<path d="M16.2757 34.4419C16.3728 34.3776 16.4214 34.3776 16.4375 34.3937L16.5185 34.458C16.567 34.5063 16.6156 34.5544 16.6803 34.6026C16.7774 34.7151 16.8745 34.8437 16.923 34.9883C16.9392 35.0526 16.9068 35.1168 16.8582 35.1329C16.8259 35.1329 16.8097 35.1329 16.7773 35.1329C16.6317 35.0847 16.5184 35.0204 16.4051 34.9562C16.3566 34.924 16.2918 34.8919 16.227 34.8436L16.1461 34.7795C16.1138 34.7634 16.0976 34.7151 16.1461 34.6026C16.1623 34.5383 16.211 34.474 16.2757 34.4419Z" fill="#07453A"/>
<path d="M16.7615 40.4207C16.7615 40.7421 16.7615 41.0636 16.7615 41.385C16.7453 41.7224 16.7128 42.0279 16.7128 42.3332C16.6966 42.9599 16.7614 43.6027 16.988 44.1491C17.1013 44.4223 17.2793 44.6472 17.5059 44.7758C17.7325 44.9044 18.0076 44.9205 18.3151 44.8883C18.4608 44.8722 18.6064 44.8402 18.7521 44.792C18.8816 44.7437 19.0434 44.6794 19.1891 44.6151C19.4642 44.4865 19.7393 44.3259 19.9659 44.117C20.4352 43.7313 20.8236 43.2171 21.0988 42.6546C21.3739 42.0921 21.5681 41.4814 21.6652 40.8547C21.7623 40.2279 21.7785 39.5851 21.6652 38.9584C21.5519 38.3316 21.3415 37.7209 20.9855 37.2066C20.9531 37.1584 20.9693 37.0941 21.0179 37.0619C21.0664 37.0298 21.1149 37.0459 21.1473 37.0781C21.5519 37.6084 21.8109 38.2512 21.9404 38.894C22.0698 39.5529 22.0859 40.2279 22.005 40.8868C21.9241 41.5457 21.73 42.2046 21.4548 42.8153C21.1635 43.426 20.7751 43.9884 20.2411 44.4384C19.9821 44.6634 19.6907 44.8401 19.3671 45.0008C19.2052 45.0812 19.0596 45.1294 18.8815 45.1937C18.7197 45.2419 18.5416 45.2902 18.3636 45.3062C18.0238 45.3545 17.603 45.3545 17.2631 45.1455C16.9233 44.9527 16.6805 44.6313 16.551 44.3098C16.4053 43.9884 16.3245 43.6509 16.276 43.3134C16.2274 42.976 16.2112 42.6385 16.2112 42.301C16.2112 42.1403 16.2274 41.9634 16.2436 41.8027C16.2598 41.626 16.292 41.4813 16.3082 41.3206C16.3568 40.9992 16.4215 40.6778 16.551 40.3564C16.5672 40.3082 16.632 40.2761 16.6806 40.2922C16.7291 40.3404 16.7615 40.3725 16.7615 40.4207Z" fill="#07453A"/>
<path d="M25.5005 37.6077C25.7109 38.0255 25.8241 38.4594 25.8727 38.9093C25.9212 39.3593 25.9535 39.8254 25.9373 40.2753C25.9211 41.1913 25.7269 42.1235 25.2899 42.9431C24.8692 43.7627 24.1733 44.502 23.2669 44.8234C22.8138 44.9841 22.2798 44.984 21.8428 44.775C21.7781 44.759 21.7295 44.7268 21.6809 44.6947L21.5354 44.5983C21.4383 44.518 21.3573 44.4376 21.2763 44.3573C21.2116 44.2609 21.1307 44.1645 21.066 44.068L20.9041 43.7626C20.8718 43.7144 20.9041 43.6502 20.9527 43.6341C21.0012 43.602 21.0659 43.6181 21.0821 43.6663C21.2925 44.0359 21.5838 44.3733 21.9722 44.518C22.3445 44.6626 22.7815 44.6465 23.1699 44.4858C23.5583 44.3412 23.9144 44.0841 24.2057 43.7788C24.4971 43.4735 24.7235 43.1199 24.9177 42.7342C25.29 41.9628 25.4519 41.1111 25.4681 40.2433C25.4843 39.8094 25.4518 39.3754 25.4033 38.9415C25.3547 38.5076 25.3062 38.0737 25.3223 37.6237C25.3223 37.5594 25.3709 37.5273 25.4357 37.5273C25.4519 37.5595 25.4843 37.5756 25.5005 37.6077Z" fill="#07453A"/>
<path d="M31.2944 36.917C31.1811 36.7241 31.0353 36.5474 30.8735 36.3867C30.7116 36.2421 30.5175 36.1134 30.3233 36.0813C29.8864 36.0009 29.4493 35.9689 29.0447 36.0653C28.6239 36.1456 28.2518 36.3705 27.9281 36.6598C27.6044 36.949 27.3292 37.3187 27.1026 37.7044C26.6495 38.4757 26.3582 39.3597 26.1964 40.2596C26.1155 40.7096 26.0669 41.1757 26.0345 41.6256C26.0184 42.0756 26.0345 42.5255 26.1964 42.9273C26.2773 43.1201 26.3743 43.3291 26.5038 43.4737C26.5685 43.5541 26.6495 43.6184 26.7304 43.6988C26.7628 43.7309 26.8113 43.747 26.8599 43.7791L26.9247 43.8273C26.9409 43.8434 26.9731 43.8434 26.9893 43.8595C27.3777 44.0363 27.831 44.0041 28.2518 43.8755C28.6726 43.7309 29.0771 43.522 29.4169 43.2167C29.773 42.9435 30.032 42.5578 30.2748 42.1721C30.7441 41.3846 31.0677 40.5008 31.2781 39.6008C31.3752 39.1508 31.4561 38.7009 31.4723 38.2348C31.4885 38.0098 31.4886 37.7687 31.4562 37.5598C31.4562 37.3188 31.4077 37.0938 31.2944 36.917ZM31.4723 36.8045C31.6018 37.0295 31.6503 37.2706 31.6827 37.5116C31.7151 37.7527 31.7152 37.9937 31.699 38.2348C31.6828 38.7169 31.6018 39.1828 31.5047 39.6328C31.2943 40.5488 30.9869 41.4488 30.5176 42.2845C30.2748 42.6862 29.9997 43.1041 29.6274 43.4256C29.2552 43.747 28.8343 44.004 28.365 44.1647C27.8956 44.3094 27.3617 44.3738 26.8761 44.1809C26.8438 44.1648 26.8113 44.1648 26.7789 44.1487L26.698 44.1006C26.6495 44.0684 26.5847 44.0362 26.5362 43.988C26.4391 43.9077 26.3258 43.8273 26.261 43.7148C26.083 43.522 25.9698 43.297 25.8727 43.056C25.6947 42.5899 25.6462 42.0757 25.6623 41.6096C25.6623 41.3686 25.6785 41.1274 25.7109 40.9025C25.727 40.6775 25.7594 40.4363 25.7918 40.1953C25.9536 39.2471 26.245 38.3312 26.7143 37.4795C26.9571 37.0616 27.2483 36.6598 27.6206 36.3223C27.8148 36.1616 28.0089 36.001 28.2355 35.8724C28.4621 35.7438 28.7049 35.6635 28.9638 35.5992C29.2227 35.5349 29.4817 35.5349 29.7245 35.567C29.9834 35.5831 30.21 35.6635 30.4528 35.7599C30.7117 35.8724 30.8898 36.0491 31.0516 36.242C31.2134 36.4027 31.3429 36.6116 31.4723 36.8045Z" fill="#07453A"/>
<path d="M30.8736 41.706C31.1649 41.9632 31.3591 42.2363 31.6018 42.4774C31.8284 42.7185 32.0874 42.8953 32.3949 42.9757C32.5406 43.0078 32.7024 43.0077 32.848 42.9917C32.9937 42.9595 33.1556 42.9273 33.285 42.847C33.5763 42.7023 33.819 42.4613 34.0294 42.2042C34.4502 41.6738 34.7416 41.0151 34.871 40.3241C35.0167 39.633 35.0005 38.9259 34.8225 38.2349C34.8063 38.1867 34.8388 38.1223 34.8873 38.1062C34.9359 38.0902 34.9844 38.1224 35.0167 38.1706C35.2757 38.8777 35.3242 39.6329 35.2271 40.3882C35.1138 41.1275 34.8387 41.8507 34.3855 42.4774C34.1589 42.7827 33.8677 43.0721 33.5117 43.2649C33.3336 43.3613 33.1393 43.4256 32.929 43.4738C32.7186 43.5059 32.5083 43.506 32.2979 43.4578C31.8771 43.3614 31.521 43.1202 31.262 42.831C31.0031 42.5417 30.8089 42.2042 30.728 41.8346C30.7118 41.7703 30.7442 41.7221 30.8089 41.706C30.8089 41.6739 30.8412 41.69 30.8736 41.706Z" fill="#07453A"/>
<path d="M38.0433 38.2511C38.367 38.6047 38.5611 39.0546 38.6744 39.5046C38.7876 39.9706 38.8525 40.4366 38.8525 40.9188C38.8687 41.8669 38.5935 42.8151 38.1242 43.6347C37.9947 43.8276 37.8814 44.0365 37.7357 44.2294C37.5901 44.4222 37.412 44.5989 37.2178 44.7597C37.0236 44.9043 36.7809 45.0328 36.5219 45.0811C36.263 45.1293 35.9879 45.0971 35.7451 45.0007C35.2596 44.8079 34.9197 44.4382 34.6608 44.0525C34.4018 43.6507 34.2076 43.2169 34.1267 42.7508C34.1105 42.7026 34.1591 42.6383 34.2076 42.6383C34.2562 42.6223 34.3048 42.6544 34.3209 42.7187C34.4342 43.1365 34.6446 43.5382 34.9035 43.8918C35.1625 44.2453 35.5023 44.5347 35.8746 44.6793C36.0688 44.7436 36.2629 44.7596 36.4571 44.7275C36.6513 44.6793 36.8295 44.599 36.9913 44.4704C37.315 44.2133 37.5415 43.8437 37.7681 43.458C38.1889 42.6866 38.4154 41.8187 38.3992 40.9509C38.3992 40.517 38.3345 40.0831 38.2212 39.6653C38.1079 39.2475 37.9785 38.8296 37.8814 38.3797C37.8652 38.3315 37.8976 38.2672 37.9624 38.2511C37.9785 38.2029 38.0109 38.219 38.0433 38.2511Z" fill="#07453A"/>
<path d="M24.4322 44.0689C24.416 44.6474 24.3513 45.2098 24.3351 45.7723C24.3189 46.0455 24.3351 46.3348 24.3512 46.608C24.3836 46.8812 24.4484 47.1544 24.5294 47.4115C24.6912 47.9419 24.9177 48.4561 25.2414 48.9061C25.5489 49.34 25.9859 49.7257 26.4715 49.7418C26.7142 49.7578 26.9569 49.6936 27.1835 49.5651C27.4262 49.4365 27.6043 49.2757 27.7823 49.0508C27.8632 48.9543 27.9442 48.8257 28.0089 48.7132C28.0737 48.5846 28.1383 48.4722 28.203 48.3436C28.3163 48.1025 28.3973 47.8294 28.4621 47.5562C28.6886 46.4634 28.5753 45.2903 28.3487 44.1814C28.3326 44.1332 28.3811 44.0689 28.4297 44.0689C28.4782 44.0528 28.5268 44.085 28.543 44.1492C28.6886 44.7117 28.8018 45.2903 28.8504 45.8688C28.8989 46.4474 28.899 47.042 28.8019 47.6366C28.7371 47.9259 28.6725 48.2311 28.543 48.5043C28.4944 48.6489 28.4135 48.7776 28.3487 48.9222C28.2678 49.0508 28.187 49.1793 28.0899 49.3078C27.9118 49.5489 27.669 49.7739 27.3777 49.9346C27.1026 50.0953 26.7789 50.2078 26.4391 50.1917C26.0992 50.1756 25.7755 50.0471 25.5165 49.8543C25.2576 49.6614 25.0472 49.4364 24.8692 49.1793C24.5131 48.6811 24.2541 48.1348 24.0761 47.5562C23.979 47.267 23.9144 46.9777 23.882 46.6723C23.8496 46.367 23.8334 46.0776 23.8496 45.7723C23.8658 45.1777 23.979 44.5831 24.2218 44.0367C24.238 43.9885 24.3027 43.9564 24.3512 43.9885C24.416 43.9885 24.4322 44.0367 24.4322 44.0689Z" fill="#07453A"/>
<path d="M13.8156 42.6063C13.7024 43.2652 13.4595 43.876 13.2329 44.4706C13.0064 45.0652 12.7798 45.6758 12.6665 46.2865C12.537 46.8972 12.5208 47.5239 12.6665 48.1024C12.6989 48.2471 12.7637 48.3917 12.8122 48.5364L12.9092 48.7452C12.9416 48.8095 12.974 48.8899 13.0226 48.9381C13.1844 49.1792 13.3948 49.388 13.6375 49.5166C13.8803 49.6452 14.1878 49.6934 14.4791 49.6773C14.7704 49.6612 15.0779 49.597 15.3692 49.5006C15.9519 49.2917 16.5021 48.9543 16.9552 48.5203C17.1818 48.2954 17.3761 48.0703 17.5541 47.8132C17.7321 47.5561 17.8777 47.2829 18.0072 46.9937C18.25 46.4151 18.4119 45.7883 18.509 45.1616C18.5252 45.1133 18.5738 45.0651 18.6223 45.0812C18.6709 45.0812 18.7194 45.1455 18.7032 45.1937C18.6709 45.5151 18.6223 45.8365 18.5575 46.158C18.4766 46.4794 18.3957 46.8007 18.2662 47.106C18.1368 47.4114 17.9911 47.7168 17.8131 48.0061C17.6351 48.2953 17.4246 48.5524 17.1819 48.7934C16.6964 49.2595 16.1299 49.6453 15.4987 49.8863C15.175 50.0149 14.8353 50.0952 14.4954 50.1112C14.1394 50.1434 13.7671 50.0791 13.4434 49.9184C13.1036 49.7576 12.8284 49.5005 12.6504 49.1952C12.6018 49.1148 12.5695 49.0506 12.5209 48.9703L12.4076 48.7452C12.3429 48.5845 12.2781 48.4239 12.2458 48.2471C12.0677 47.5722 12.1002 46.881 12.2296 46.2221C12.3591 45.5633 12.5694 44.9365 12.8122 44.3259C13.055 43.7152 13.3301 43.1367 13.6538 42.5743C13.6862 42.5261 13.7508 42.51 13.7994 42.5421C13.7994 42.51 13.8156 42.5581 13.8156 42.6063Z" fill="#07453A"/>
<path d="M17.8617 48.0055C18.0074 48.5037 18.1207 48.9857 18.2663 49.4357C18.3149 49.5482 18.3472 49.6608 18.3958 49.7733C18.4443 49.8858 18.4929 49.9983 18.5576 50.0947C18.6061 50.2072 18.6871 50.2874 18.7518 50.3999C18.8328 50.4803 18.8974 50.5929 18.9783 50.6572C19.1402 50.8179 19.3344 50.9304 19.5448 51.0107C19.658 51.0429 19.7552 51.0749 19.8684 51.0749C19.917 51.0749 19.9817 51.0911 20.0303 51.0911L20.2084 51.0749C20.3217 51.0749 20.4349 51.0429 20.5482 51.0107C20.6615 50.9786 20.7748 50.9463 20.8719 50.8821C21.0823 50.7856 21.2766 50.641 21.4546 50.4803C21.5517 50.3999 21.6326 50.3197 21.7135 50.2232C21.7944 50.1429 21.8592 50.0304 21.9401 49.934C22.0049 49.8376 22.0695 49.725 22.1342 49.6286C22.199 49.5161 22.2476 49.4197 22.3123 49.3072C22.5227 48.8572 22.6683 48.3912 22.7331 47.893C22.8949 46.9127 22.7978 45.8842 22.6521 44.8718C22.6521 44.8236 22.6845 44.7593 22.7331 44.7593C22.7816 44.7593 22.8302 44.7914 22.8464 44.8396C22.9597 45.3378 23.0406 45.8521 23.0891 46.3663C23.1377 46.8806 23.1378 47.4109 23.073 47.9252C22.9435 48.9698 22.5389 50.0143 21.7459 50.7857C21.5355 50.9785 21.3251 51.1232 21.0661 51.2518C20.9367 51.3161 20.8071 51.3642 20.6776 51.3963C20.5482 51.4285 20.4026 51.4606 20.2569 51.4767L20.0466 51.4929C19.9818 51.4929 19.9009 51.4928 19.8362 51.4767C19.6905 51.4767 19.5449 51.4285 19.3992 51.3963C19.1241 51.2999 18.865 51.1553 18.6546 50.9464C18.5413 50.85 18.4605 50.7374 18.3634 50.641C18.2824 50.5285 18.2016 50.4161 18.1369 50.2876L18.0397 50.1107C18.0073 50.0464 17.9911 49.9821 17.9587 49.9178C17.894 49.7893 17.8617 49.6607 17.8132 49.5482C17.7646 49.4197 17.7322 49.2912 17.6999 49.1626C17.6837 49.0341 17.6513 48.9055 17.6351 48.7609C17.6027 48.5038 17.6028 48.2305 17.6513 47.9734C17.6675 47.9252 17.716 47.8769 17.7645 47.893C17.8131 47.9412 17.8455 47.9734 17.8617 48.0055Z" fill="#07453A"/>
<path d="M7.60094 42.8316C7.71423 43.2012 7.73048 43.5548 7.74666 43.9084C7.76284 44.2619 7.79524 44.6155 7.85998 44.953C7.92471 45.2904 8.02179 45.6279 8.15126 45.9332C8.29691 46.2385 8.47497 46.5439 8.66917 46.8171C8.87956 47.0903 9.12223 47.3475 9.38117 47.5564C9.65629 47.7653 9.96388 47.926 10.2876 48.0064C10.6112 48.0867 10.951 48.1027 11.2908 48.0224C11.6145 47.942 11.922 47.7653 12.2133 47.5564C12.2619 47.5243 12.3267 47.5403 12.3591 47.5724C12.3914 47.6206 12.3752 47.6688 12.3428 47.701C12.0677 47.942 11.744 48.1671 11.3718 48.2796C10.9995 48.3921 10.5951 48.4242 10.2066 48.3278C9.81823 48.2474 9.46218 48.0867 9.15469 47.8617C8.8472 47.6367 8.55585 47.3796 8.3131 47.0743C8.08652 46.769 7.8761 46.4476 7.71426 46.1101C7.55242 45.7565 7.45538 45.3868 7.37446 45.0171C7.30973 44.6475 7.26105 44.278 7.24487 43.9084C7.22868 43.5387 7.26118 43.1691 7.37446 42.8156C7.39065 42.7674 7.45535 42.7352 7.5039 42.7512C7.56864 42.7673 7.60094 42.7995 7.60094 42.8316Z" fill="#07453A"/>
<path d="M28.899 46.4468C29.1741 46.8807 29.4006 47.2985 29.6595 47.7324C29.9023 48.1503 30.1936 48.552 30.5496 48.8574C30.7277 49.002 30.9219 49.1305 31.1161 49.2269C31.3265 49.3073 31.5369 49.3395 31.7473 49.3235C31.9577 49.3074 32.1844 49.2269 32.3786 49.1144C32.589 49.0019 32.767 48.8574 32.945 48.6967C33.3011 48.3752 33.5437 47.9735 33.7055 47.5235C33.8674 47.0736 33.9483 46.5914 33.9483 46.0932C33.9645 45.6111 33.9161 45.1129 33.8351 44.6308C33.7542 44.1487 33.6085 43.6665 33.4467 43.2005C33.4305 43.1523 33.4629 43.088 33.5115 43.0719C33.56 43.0559 33.6247 43.0719 33.6409 43.1201C34.0455 44.0522 34.2882 45.0648 34.3044 46.1094C34.3044 46.6236 34.2397 47.1539 34.0779 47.6521C33.997 47.9092 33.8999 48.1503 33.7542 48.3752C33.6086 48.6002 33.4466 48.8253 33.2524 49.0021C33.0582 49.1949 32.8316 49.3555 32.6051 49.5002C32.3623 49.6287 32.0872 49.7413 31.7959 49.7734C31.5045 49.8056 31.2133 49.7573 30.9381 49.6609C30.6792 49.5484 30.4364 49.4037 30.226 49.2269C29.8052 48.8734 29.4978 48.4395 29.2227 47.9895C28.9637 47.5395 28.7532 47.0575 28.6885 46.5271C28.6885 46.4628 28.7209 46.4146 28.7857 46.4146C28.8342 46.3985 28.8666 46.4146 28.899 46.4468Z" fill="#07453A"/>
<path d="M34.2559 47.0418C34.4501 47.2828 34.6282 47.5399 34.8062 47.781C34.9842 48.022 35.1622 48.2792 35.3403 48.5203C35.6963 49.0185 36.0846 49.4845 36.5378 49.8541C36.9909 50.2237 37.5251 50.5291 38.0915 50.6095C38.3667 50.6416 38.6418 50.6094 38.9007 50.5129C39.1597 50.4165 39.3701 50.2237 39.5805 50.0308C39.7747 49.8219 39.9203 49.5809 40.0336 49.3077C40.1307 49.0345 40.2116 48.7452 40.244 48.456C40.3087 47.8774 40.2115 47.2667 40.0173 46.7042C39.8069 46.1418 39.5157 45.6114 39.1596 45.0972C38.8036 44.599 38.4152 44.1169 38.0267 43.6348C37.9944 43.5866 37.9945 43.5223 38.043 43.4901C38.0916 43.458 38.14 43.4581 38.1886 43.5063C38.6094 43.9723 39.0301 44.4222 39.4024 44.9365C39.7746 45.4347 40.1145 45.9811 40.3573 46.5757C40.5839 47.1703 40.6972 47.8292 40.6325 48.4881C40.6001 48.8095 40.5352 49.1309 40.4219 49.4524C40.3086 49.7577 40.1307 50.0629 39.9042 50.3201C39.8394 50.3843 39.7746 50.4326 39.7261 50.4969L39.629 50.5773C39.5966 50.6094 39.5642 50.6255 39.5318 50.6576C39.4671 50.7058 39.3862 50.754 39.3215 50.8022L39.0787 50.9147C38.755 51.0433 38.3991 51.0915 38.043 51.0594C37.3471 50.963 36.7644 50.6255 36.2465 50.2237C35.9876 50.0309 35.761 49.7898 35.5506 49.5487C35.3402 49.3077 35.146 49.0667 34.9518 48.8095C34.5796 48.2953 34.2722 47.7328 34.0779 47.1381C34.0618 47.0899 34.094 47.0257 34.1426 47.0096C34.1911 46.9935 34.2235 47.0096 34.2559 47.0418Z" fill="#07453A"/>
<path d="M22.021 50.4652C22.2637 50.642 22.4256 50.8347 22.5874 51.0436C22.7493 51.2526 22.9272 51.4294 23.1215 51.5901C23.5099 51.8954 23.9954 52.0883 24.4647 52.0722C24.934 52.0401 25.3709 51.7668 25.6946 51.365C25.8565 51.1722 25.9859 50.9473 26.0992 50.7062C26.2125 50.4652 26.2772 50.2242 26.342 49.9671C26.3582 49.9189 26.4068 49.8867 26.4716 49.8867C26.5201 49.9028 26.5525 49.9509 26.5525 49.9991C26.5039 50.5455 26.3259 51.1081 25.9861 51.5741C25.8242 51.7991 25.6137 52.024 25.3709 52.1847C25.1282 52.3454 24.8369 52.474 24.5132 52.5061C24.2057 52.5222 23.8983 52.49 23.607 52.3936C23.5261 52.3775 23.4613 52.3454 23.3966 52.3133C23.3319 52.2811 23.2671 52.249 23.2024 52.2169C23.0729 52.1365 22.9435 52.0562 22.8302 51.9758C22.6036 51.7991 22.3931 51.59 22.2151 51.365C22.037 51.1401 21.9077 50.883 21.8591 50.5937C21.8591 50.5294 21.8914 50.4813 21.9562 50.4652C21.9562 50.4491 21.9886 50.4491 22.021 50.4652Z" fill="#07453A"/>
<path d="M27.3296 49.9823C27.3619 50.3037 27.3619 50.609 27.3781 50.9143C27.3943 51.2197 27.4105 51.5251 27.4429 51.8144C27.4753 52.1036 27.5237 52.425 27.5884 52.7143C27.6532 53.0035 27.7503 53.2928 27.8636 53.566C28.0902 54.1284 28.3977 54.6589 28.7861 55.1088C28.9803 55.3338 29.1907 55.5266 29.4335 55.6873C29.6762 55.8319 29.9352 55.9124 30.1942 55.9124C30.4531 55.9124 30.7119 55.7998 30.9547 55.6391C31.0194 55.607 31.0681 55.5588 31.1328 55.5106C31.1814 55.4624 31.2461 55.4141 31.2946 55.3659C31.3917 55.2695 31.4889 55.157 31.5698 55.0285C31.8935 54.5303 32.1038 53.9516 32.2009 53.3731C32.298 52.7785 32.2818 52.1678 32.2009 51.5572C32.12 50.9465 31.9582 50.3518 31.7802 49.7572C31.764 49.709 31.7962 49.6448 31.8448 49.6287C31.8934 49.6126 31.9582 49.6448 31.9744 49.693C32.1848 50.2876 32.3789 50.8822 32.476 51.509C32.5246 51.8143 32.5732 52.1358 32.5894 52.4572C32.6055 52.7786 32.5893 53.1 32.557 53.4214C32.476 54.0643 32.2656 54.6909 31.9096 55.2534C31.8125 55.398 31.7153 55.5266 31.602 55.6551C31.5373 55.7194 31.4726 55.7677 31.4241 55.832C31.3593 55.8963 31.2946 55.9445 31.2298 55.9927C30.9547 56.1856 30.6149 56.3462 30.2427 56.3623C29.8705 56.3784 29.5144 56.2659 29.2231 56.0891C28.9318 55.9123 28.6728 55.6874 28.4624 55.4302C28.0255 54.9321 27.7018 54.3695 27.459 53.7749C27.3295 53.4695 27.2324 53.1643 27.1514 52.859C27.0867 52.5375 27.022 52.2321 26.9896 51.9107C26.9249 51.2679 26.9897 50.6251 27.1677 50.0144C27.1839 49.9662 27.2486 49.934 27.2972 49.9501C27.2972 49.9019 27.3296 49.9341 27.3296 49.9823Z" fill="#07453A"/>
<path d="M19.2534 51.0923C19.4962 51.8476 19.6419 52.635 19.7228 53.4385C19.7552 53.8403 19.7713 54.226 19.7713 54.6438C19.7551 55.0617 19.6904 55.4634 19.5771 55.8651C19.3343 56.6526 18.8488 57.4079 18.1205 57.8739C17.7645 58.115 17.36 58.2597 16.923 58.324C16.5023 58.3883 16.0491 58.356 15.6283 58.1953C15.2075 58.0346 14.8838 57.6973 14.641 57.3598C14.3983 57.0062 14.2365 56.6205 14.1394 56.2187C14.0423 55.8169 13.9937 55.4152 13.9775 55.0134C13.9614 54.6116 13.9776 54.2099 14.0099 53.8081C14.1556 52.2011 14.8191 50.6423 15.8872 49.4531C15.9196 49.4049 15.9844 49.4048 16.0329 49.4369C16.0653 49.4691 16.0814 49.5334 16.049 49.5816C15.5635 50.1923 15.159 50.8672 14.8676 51.5904C14.722 51.944 14.6086 52.3137 14.5277 52.6994C14.4468 53.085 14.3982 53.4546 14.3659 53.8403C14.3173 54.6117 14.3335 55.3992 14.5277 56.1223C14.6248 56.492 14.7867 56.8295 14.9971 57.1187C15.2075 57.4241 15.4826 57.665 15.8063 57.7936C16.4698 58.0507 17.2628 57.8902 17.8778 57.5045C18.1853 57.3117 18.4442 57.0383 18.6546 56.733C18.865 56.4276 19.0269 56.0901 19.124 55.7366C19.2211 55.383 19.2858 55.0135 19.2858 54.6278C19.2858 54.2582 19.2697 53.8564 19.2373 53.4707C19.1726 52.6993 19.0754 51.9278 19.0592 51.1243C19.0592 51.0761 19.1078 51.028 19.1564 51.028C19.1887 51.028 19.2372 51.0602 19.2534 51.0923Z" fill="#07453A"/>
<path d="M10.8378 48.3916C10.7407 48.8737 10.5626 49.3238 10.4008 49.7738C10.2389 50.2237 10.1095 50.6737 10.0286 51.1398C9.86675 52.0558 9.8829 53.02 10.158 53.9199C10.2875 54.3699 10.4656 54.8198 10.676 55.2216C10.9025 55.6233 11.1939 55.993 11.5824 56.218C11.7766 56.3305 11.9869 56.4109 12.2134 56.443C12.44 56.4752 12.6666 56.4752 12.8932 56.443C13.3464 56.3627 13.7833 56.1538 14.107 55.8324C14.1394 55.8002 14.2042 55.8002 14.2527 55.8324C14.2851 55.8645 14.2851 55.9288 14.2527 55.9609C13.9129 56.3466 13.4434 56.6038 12.9417 56.7163C12.44 56.8287 11.8736 56.7643 11.4042 56.5072C10.9349 56.2501 10.5951 55.8323 10.3361 55.3984C10.0772 54.9645 9.88296 54.4984 9.7373 54.0163C9.42981 53.0521 9.38132 52.0236 9.55934 51.0272C9.64026 50.5291 9.78583 50.0469 9.94767 49.5809C10.1095 49.1149 10.3361 48.6649 10.6598 48.2792C10.6922 48.231 10.7568 48.2309 10.8054 48.2631C10.8378 48.3113 10.8378 48.3595 10.8378 48.3916Z" fill="#07453A"/>
<path d="M21.4542 50.9148C21.4056 51.5094 21.3247 52.088 21.2923 52.6666C21.26 53.2451 21.2761 53.8237 21.3894 54.3861C21.5027 54.9486 21.6969 55.495 21.9882 55.9932C22.0691 56.1057 22.15 56.2341 22.2147 56.3466C22.3118 56.4591 22.3927 56.5717 22.4899 56.6842C22.6841 56.8931 22.8783 57.1019 23.1211 57.2305C23.3477 57.3751 23.6066 57.4717 23.8818 57.5199C24.1569 57.552 24.432 57.5358 24.7071 57.4715C25.2573 57.343 25.7428 57.0217 26.1312 56.6038C26.5197 56.186 26.811 55.6717 27.0052 55.1253C27.1994 54.5789 27.2965 53.9844 27.3936 53.3897C27.4097 53.3415 27.4583 53.2933 27.5069 53.3094C27.5554 53.3255 27.604 53.3737 27.5878 53.4219C27.5231 54.0165 27.4421 54.6271 27.2641 55.2057C27.0861 55.8003 26.8111 56.3627 26.3903 56.8287C25.9695 57.2948 25.4353 57.6806 24.8041 57.8413C24.4966 57.9216 24.1568 57.9538 23.8331 57.9216C23.5094 57.8734 23.1858 57.7609 22.8945 57.6002C21.7939 56.8771 21.1952 55.6879 20.9363 54.4665C20.8068 53.8558 20.7744 53.2291 20.8229 52.6184C20.8553 52.0077 21.0009 51.397 21.2761 50.8345C21.3084 50.7863 21.357 50.7702 21.4218 50.7863C21.438 50.8345 21.4542 50.8827 21.4542 50.9148Z" fill="#07453A"/>
<path d="M32.3947 53.8882C32.6536 54.3221 32.864 54.756 33.123 55.1738C33.3657 55.5917 33.6732 55.9613 34.0292 56.2506C34.3853 56.5399 34.8223 56.7006 35.2593 56.6364C35.6801 56.5882 36.1009 56.3149 36.4246 55.9774C36.5864 55.8167 36.7159 55.6238 36.8292 55.4149C36.9425 55.206 37.0232 54.9811 37.1042 54.7561C37.2498 54.3061 37.2985 53.8239 37.2823 53.3257C37.2661 52.3454 36.9585 51.3972 36.651 50.433C36.6349 50.3848 36.6673 50.3205 36.7158 50.3045C36.7644 50.2884 36.8129 50.3206 36.8453 50.3688C37.0233 50.8349 37.2013 51.3169 37.3469 51.799C37.4926 52.2811 37.606 52.7954 37.6384 53.3097C37.6707 53.824 37.6222 54.3543 37.4765 54.8686C37.3956 55.1257 37.3146 55.3667 37.1851 55.6078C37.0718 55.8488 36.91 56.0739 36.732 56.2828C36.5539 56.4917 36.3275 56.6524 36.1009 56.7971C35.8743 56.9417 35.5991 57.0542 35.3078 57.0863C35.0165 57.1345 34.7252 57.1024 34.4501 57.006C34.175 56.9095 33.9322 56.7649 33.7218 56.6042C33.2848 56.2667 32.9611 55.8489 32.686 55.3989C32.5565 55.1739 32.4433 54.9328 32.3462 54.6917C32.2652 54.4507 32.2005 54.1935 32.1843 53.9364C32.1843 53.8721 32.2328 53.824 32.2814 53.824C32.3299 53.8401 32.3623 53.856 32.3947 53.8882Z" fill="#07453A"/>
<path d="M26.5523 56.6041C26.4552 57.2629 26.2933 57.8896 26.1962 58.5164C26.0991 59.1431 26.0505 59.7861 26.1638 60.4128C26.2124 60.7182 26.2932 61.0235 26.4227 61.2967C26.4713 61.4413 26.5684 61.5538 26.6494 61.6985C26.6979 61.7627 26.7465 61.8109 26.7951 61.8752L26.8597 61.9555C26.8921 61.9877 26.9083 62.0037 26.9406 62.0359C27.3776 62.4537 27.9926 62.6464 28.5914 62.55C28.6724 62.5339 28.7372 62.5341 28.8181 62.518L29.0446 62.4536C29.1093 62.4376 29.1902 62.4054 29.2549 62.3733C29.2873 62.3572 29.3197 62.3413 29.3682 62.3253L29.4654 62.2609C29.7406 62.1163 29.967 61.9074 30.1774 61.6825C30.5659 61.2164 30.7763 60.5895 30.8896 59.9627C31.1162 58.6931 30.9866 57.3593 30.7115 56.0898C30.6953 56.0416 30.7277 55.9772 30.7924 55.9772C30.8409 55.9612 30.8895 55.9933 30.9057 56.0576C30.9866 56.379 31.0676 56.7005 31.1324 57.038C31.1971 57.3594 31.2294 57.6968 31.2779 58.0342C31.3427 58.6931 31.3428 59.3681 31.2457 60.0431C31.1324 60.702 30.9381 61.3931 30.485 61.9555C30.2584 62.2287 29.9995 62.4699 29.6758 62.6467L29.5625 62.7107C29.5301 62.7268 29.4816 62.743 29.433 62.7591C29.3521 62.7912 29.2712 62.8393 29.1903 62.8554L28.9312 62.9358C28.8503 62.9679 28.7533 62.968 28.6724 62.9841C27.9603 63.0966 27.1834 62.8715 26.6494 62.3573C26.617 62.3251 26.5847 62.2931 26.5523 62.2609L26.4714 62.1646C26.4067 62.1003 26.358 62.0198 26.2933 61.9555C26.1962 61.7948 26.0991 61.6501 26.0344 61.4894C25.8887 61.168 25.7754 60.8306 25.7268 60.4932C25.6135 59.8021 25.646 59.1109 25.7431 58.452C25.8564 57.7771 26.0668 57.1343 26.3905 56.5397C26.4228 56.4915 26.4875 56.4754 26.536 56.5075C26.536 56.5236 26.5523 56.5719 26.5523 56.6041Z" fill="#07453A"/>
<path d="M21.1311 53.9519C20.678 54.4983 20.241 55.0287 19.8849 55.5912C19.5127 56.1536 19.2536 56.7964 19.1404 57.4553C19.0271 58.1142 19.0757 58.8053 19.2376 59.4481C19.3185 59.7695 19.4317 60.0909 19.5774 60.4123C19.7068 60.7337 19.8525 61.0552 20.0144 61.3606C20.1762 61.6659 20.3542 61.9391 20.5808 62.1641C20.6941 62.2766 20.8236 62.3569 20.9693 62.4212C21.0987 62.4854 21.2443 62.5175 21.4061 62.5175C21.7136 62.5175 22.0374 62.4052 22.3125 62.2444C22.4582 62.1641 22.5876 62.0675 22.7171 61.955C22.7818 61.9068 22.8465 61.8426 22.8951 61.7943C22.9598 61.7301 23.0246 61.6819 23.0732 61.6176C23.5425 61.1194 23.8661 60.5088 24.0279 59.8499C24.1898 59.191 24.2222 58.4837 24.1413 57.7927C24.1413 57.7445 24.1736 57.6964 24.2383 57.6803C24.2868 57.6803 24.3354 57.7125 24.3516 57.7607C24.4649 58.4678 24.4649 59.1908 24.3031 59.8979C24.1413 60.605 23.8176 61.2963 23.3321 61.8427C23.2673 61.907 23.2026 61.9711 23.1378 62.0354C23.0731 62.0997 23.0084 62.1638 22.9275 62.2281C22.7818 62.3567 22.6362 62.4531 22.4743 62.5495C22.1507 62.7424 21.7785 62.8873 21.3739 62.8873C21.1797 62.8873 20.9692 62.8549 20.775 62.7746C20.5808 62.6942 20.4189 62.5817 20.2732 62.4532C19.9819 62.196 19.7717 61.8747 19.5936 61.5533C19.4156 61.2319 19.2698 60.9105 19.1404 60.5891C18.9947 60.2516 18.8654 59.914 18.7844 59.5605C18.6064 58.8534 18.5416 58.0981 18.6711 57.3749C18.8006 56.6518 19.0757 55.9446 19.4803 55.3339C19.8687 54.7233 20.4027 54.1929 21.0015 53.8072C21.0501 53.7751 21.1149 53.7912 21.1472 53.8394C21.1634 53.8716 21.1635 53.9198 21.1311 53.9519Z" fill="#07453A"/>
<path d="M15.3534 57.937C14.5927 58.178 13.9939 58.7245 13.5246 59.3673C13.4113 59.528 13.298 59.6887 13.217 59.8654C13.1361 60.0422 13.0552 60.219 12.9743 60.4119C12.8286 60.7815 12.7314 61.1832 12.6667 61.5689C12.602 61.9706 12.5696 62.3564 12.5858 62.7581C12.602 62.951 12.6182 63.1598 12.6506 63.3526C12.683 63.5455 12.7315 63.7383 12.8124 63.9151C12.9581 64.2686 13.1523 64.6061 13.4274 64.8793C13.7025 65.1365 14.0262 65.3454 14.3984 65.4418C14.7707 65.5382 15.1591 65.5545 15.5313 65.4581C15.9035 65.3778 16.2758 65.2171 16.5672 64.976C17.1822 64.4939 17.5706 63.7385 17.781 62.9832C18.0075 62.2118 18.0723 61.3761 18.0237 60.5726C17.9914 60.1708 17.9266 59.769 17.8134 59.3833C17.7648 59.1905 17.6838 58.9976 17.6028 58.8208C17.5057 58.6441 17.4086 58.4674 17.2792 58.3227C17.2468 58.2745 17.2468 58.2262 17.2792 58.178C17.3115 58.1459 17.3763 58.1459 17.4249 58.178C17.5867 58.3387 17.7001 58.5156 17.8134 58.7085C17.9105 58.9013 18.0075 59.094 18.0722 59.303C18.2017 59.7047 18.2826 60.1227 18.3311 60.5566C18.412 61.3923 18.3636 62.2599 18.1532 63.0795C18.0399 63.4974 17.8942 63.8992 17.6676 64.2688C17.4572 64.6545 17.1822 65.0079 16.8423 65.2811C16.5025 65.5704 16.0816 65.7634 15.6446 65.8759C15.2077 65.9723 14.7384 65.9884 14.3014 65.8759C13.8644 65.7634 13.4598 65.5221 13.1361 65.2007C12.8124 64.8954 12.5697 64.4939 12.4078 64.0921C12.3269 63.8832 12.2622 63.6743 12.2299 63.4493C12.1975 63.2404 12.1651 63.0154 12.149 62.8065C12.1328 62.3726 12.149 61.9387 12.2299 61.5208C12.2946 61.103 12.4079 60.685 12.5536 60.2672C12.6345 60.0583 12.6991 59.8656 12.8124 59.6727C12.9095 59.4799 13.0228 59.287 13.1522 59.1102C13.4112 58.7567 13.7188 58.4351 14.091 58.194C14.2691 58.0655 14.4793 57.969 14.6897 57.8886C14.9001 57.8243 15.1267 57.7763 15.3371 57.7603C15.3856 57.7603 15.4343 57.8084 15.4343 57.8566C15.4181 57.8888 15.3857 57.9209 15.3534 57.937Z" fill="#07453A"/>
<path d="M21.7946 62.7753C22.0212 63.2253 22.1183 63.7234 22.1507 64.2216C22.1831 64.7198 22.1345 65.2181 22.0374 65.7163C21.9403 66.2145 21.746 66.6964 21.487 67.1303L21.39 67.291L21.2767 67.4517C21.212 67.5642 21.1311 67.6607 21.0502 67.7571C20.8884 67.9499 20.7265 68.1428 20.5323 68.3196C20.4352 68.3999 20.3219 68.4803 20.2086 68.5446C20.0953 68.625 19.9659 68.6571 19.8364 68.7053C19.5775 68.7696 19.3023 68.8178 19.0433 68.7857C18.5092 68.7535 18.0076 68.5287 17.6191 68.1912C17.2145 67.8698 16.9394 67.4196 16.7614 66.9536C16.5834 66.4875 16.5024 65.9894 16.4539 65.5072C16.4539 65.459 16.4862 65.4109 16.5509 65.3949C16.5995 65.3949 16.648 65.427 16.6642 65.4752C16.729 65.9413 16.8423 66.4074 17.0203 66.8252C17.2145 67.243 17.4896 67.6286 17.8456 67.9018C18.2017 68.175 18.6387 68.3518 19.0757 68.3679C19.3023 68.384 19.5127 68.3358 19.7231 68.2875C19.8202 68.2393 19.9173 68.2071 20.0144 68.1589C20.1115 68.1106 20.1923 68.0304 20.2732 67.9661C20.5969 67.6769 20.8883 67.2749 21.1148 66.8892C21.3414 66.4875 21.5033 66.0536 21.6004 65.6036C21.6975 65.1536 21.7299 64.6877 21.6976 64.2216C21.6814 63.7556 21.6328 63.2897 21.6328 62.8076C21.6328 62.7433 21.6814 62.7109 21.7461 62.7109C21.7299 62.727 21.7784 62.7431 21.7946 62.7753Z" fill="#07453A"/>
<path d="M18.2341 60.2521C18.2179 60.1235 18.2341 60.0914 18.2826 60.0753L18.3798 60.027C18.4445 59.9949 18.5254 59.9628 18.6063 59.9306C18.7681 59.8824 18.9623 59.8501 19.1403 59.8983C19.205 59.9144 19.2374 59.9788 19.2212 60.027C19.2212 60.0591 19.1889 60.0753 19.1727 60.0914C19.0271 60.1717 18.9138 60.2361 18.8005 60.3164C18.7358 60.3486 18.671 60.3966 18.6063 60.4288L18.493 60.4931C18.4606 60.5092 18.4121 60.5092 18.315 60.4128C18.2665 60.3806 18.2503 60.3163 18.2341 60.2521Z" fill="#07453A"/>
<path d="M26.358 62.0035C25.9048 62.0196 25.4841 62.0999 25.0957 62.2606C24.7072 62.4213 24.3512 62.6622 24.0437 62.9515C23.4125 63.5461 22.9755 64.3177 22.668 65.1373C22.3606 65.9569 22.1662 66.8408 22.1662 67.7086C22.1662 68.1425 22.2149 68.5762 22.3444 68.9779C22.4091 69.1708 22.49 69.3636 22.6032 69.5404C22.7165 69.7172 22.846 69.862 23.0078 69.9745C23.3153 70.1995 23.7523 70.2638 24.1731 70.2156C24.5939 70.1673 25.0147 70.0388 25.3869 69.8138C26.1476 69.396 26.6816 68.6565 27.0215 67.853C27.3613 67.0495 27.5718 66.1656 27.6527 65.2817C27.7336 64.3978 27.5879 63.498 27.2642 62.6784C27.248 62.6302 27.2643 62.5658 27.329 62.5497C27.3776 62.5336 27.4423 62.5498 27.4585 62.598C27.6365 63.0159 27.7821 63.4657 27.8631 63.9157C27.944 64.3657 27.9602 64.832 27.944 65.298C27.9278 65.7641 27.8469 66.214 27.766 66.664C27.6689 67.114 27.5394 67.5638 27.3614 67.9977C27.1834 68.4316 26.9567 68.8494 26.6654 69.219C26.3741 69.5886 26.0181 69.9262 25.5973 70.1672C25.1765 70.4083 24.7233 70.5691 24.2378 70.6333C23.995 70.6655 23.7523 70.6655 23.4934 70.6173C23.2506 70.5691 22.9916 70.4886 22.7812 70.3279C22.3604 70.0226 22.1016 69.5727 21.9398 69.1066C21.7941 68.6406 21.7292 68.1744 21.7292 67.6923C21.7292 66.7441 21.9235 65.8281 22.2472 64.9603C22.5708 64.0925 23.0402 63.2409 23.7361 62.582C24.0922 62.2445 24.513 61.9872 24.9823 61.8265C25.4517 61.6819 25.9533 61.666 26.4065 61.7785C26.455 61.7946 26.4874 61.8426 26.4874 61.9069C26.4389 61.9711 26.4065 62.0035 26.358 62.0035Z" fill="#07453A"/>
<path d="M30.1616 62.2929C30.1293 62.6625 30.0968 63.0323 30.0968 63.3859C30.0968 63.7394 30.1455 64.0928 30.194 64.4625C30.2426 64.8321 30.3235 65.1695 30.4368 65.5231C30.5501 65.8605 30.6795 66.2143 30.8575 66.5196C31.0355 66.825 31.2459 67.1141 31.5049 67.3552C31.7638 67.5802 32.0552 67.757 32.3789 67.8213C33.01 67.9499 33.6574 67.4839 34.0458 66.9214C34.1429 66.7768 34.2237 66.616 34.3046 66.4553C34.3694 66.2946 34.4341 66.1339 34.4665 65.9572C34.5474 65.6197 34.5636 65.2501 34.5474 64.8966C34.5312 64.5269 34.4826 64.1732 34.4341 63.8036C34.3693 63.4501 34.2885 63.0805 34.1752 62.743C33.9486 62.052 33.6412 61.3608 33.1881 60.7822C32.9615 60.4929 32.7025 60.2358 32.395 60.059C32.0875 59.8662 31.7315 59.77 31.3754 59.77C31.3269 59.77 31.2782 59.7218 31.2782 59.6736C31.2782 59.6254 31.3269 59.5769 31.3754 59.5769C31.78 59.5608 32.1846 59.6575 32.5244 59.8503C32.8643 60.0432 33.1556 60.3162 33.4145 60.6215C33.9 61.2161 34.2561 61.9235 34.515 62.6467C34.6445 63.0163 34.7417 63.3857 34.8064 63.7553C34.8712 64.1249 34.9196 64.5109 34.952 64.8966C34.9682 65.2822 34.9683 65.6838 34.8874 66.0695C34.8388 66.2624 34.7902 66.4552 34.7092 66.648C34.6283 66.8248 34.5313 67.0017 34.418 67.1785C34.3047 67.3392 34.1751 67.4999 34.0295 67.6446L33.803 67.8533C33.7221 67.9176 33.6411 67.966 33.544 68.0303C33.1879 68.2553 32.7349 68.3678 32.2979 68.2874C31.861 68.207 31.4886 67.9821 31.1973 67.7089C30.8898 67.4357 30.6471 67.1142 30.4529 66.7607C30.0807 66.0696 29.8379 65.3142 29.7246 64.5428C29.6761 64.1732 29.6276 63.7715 29.6761 63.3859C29.7085 62.9841 29.8217 62.6145 29.9674 62.2609C29.9836 62.2127 30.0483 62.1804 30.0968 62.2126C30.1454 62.2126 30.1616 62.2447 30.1616 62.2929Z" fill="#07453A"/>
<path d="M34.0618 56.8127C33.8514 57.5037 33.6249 58.1625 33.5925 58.8375C33.5764 59.0143 33.5925 59.1752 33.5925 59.3519C33.6087 59.5126 33.6249 59.6894 33.6735 59.8501C33.7382 60.1875 33.8515 60.5089 33.9971 60.8303C34.1266 61.1517 34.3046 61.4572 34.4827 61.7625C34.5798 61.9071 34.6606 62.0677 34.7577 62.2123L34.9034 62.4373C34.9519 62.5016 35.0005 62.5658 35.0491 62.6301C35.4699 63.1122 36.1496 63.4337 36.7969 63.4176C37.1044 63.4176 37.3633 63.2569 37.5898 63.0158C37.8164 62.7748 37.9784 62.4696 38.124 62.1643C38.2535 61.8429 38.3506 61.5052 38.4153 61.1677C38.48 60.8302 38.48 60.4766 38.4638 60.1391C38.4315 59.7856 38.3829 59.4484 38.2696 59.1109C38.1725 58.7734 38.043 58.452 37.865 58.1467C37.5251 57.536 37.0558 56.9895 36.4408 56.636C36.3923 56.6038 36.3761 56.5395 36.4084 56.4913C36.4408 56.4431 36.4893 56.427 36.5379 56.4591C37.2176 56.7966 37.7355 57.3752 38.1077 58.002C38.3019 58.3234 38.4477 58.6607 38.5771 59.0142C38.6419 59.191 38.6903 59.3679 38.7227 59.5447C38.7551 59.7214 38.7874 59.9143 38.8036 60.0911C38.836 60.4607 38.836 60.8464 38.7875 61.2161C38.7228 61.5857 38.6257 61.9552 38.4962 62.2927C38.3506 62.6462 38.1724 62.9836 37.9135 63.2729C37.7679 63.4175 37.6223 63.5622 37.4443 63.6586C37.3633 63.7229 37.2501 63.7391 37.153 63.7873C37.1044 63.8034 37.0397 63.8033 36.9912 63.8193C36.9426 63.8354 36.8779 63.8354 36.8293 63.8354C36.4247 63.8514 36.0201 63.755 35.664 63.5943C35.308 63.4336 34.9843 63.2088 34.7091 62.9035C34.6444 62.8231 34.5797 62.7428 34.5312 62.6624L34.3855 62.4373C34.2884 62.2927 34.1913 62.1319 34.0942 61.9712C33.9 61.6498 33.7219 61.3285 33.5763 60.991C33.4144 60.6535 33.3011 60.3001 33.2202 59.9144C33.1716 59.7376 33.1555 59.5448 33.1393 59.3519C33.1393 59.1591 33.1231 58.966 33.1393 58.7732C33.1393 58.5803 33.1878 58.3875 33.2202 58.2107C33.2687 58.0339 33.3173 57.8413 33.382 57.6645C33.5115 57.311 33.7058 56.9895 33.9162 56.6841C33.9486 56.6359 34.0132 56.6358 34.0618 56.668C34.0618 56.7162 34.078 56.7645 34.0618 56.8127Z" fill="#07453A"/>
<path d="M27.2643 68.5286C27.4746 68.7857 27.5718 69.0589 27.6851 69.3161C27.7337 69.4446 27.7983 69.557 27.8792 69.6695C27.9601 69.7659 28.0411 69.8625 28.1544 69.9589C28.5428 70.2964 29.1255 70.4087 29.6433 70.248C30.1612 70.1033 30.5981 69.7176 30.8733 69.2194C31.1484 68.7212 31.2617 68.1429 31.2779 67.5483C31.2779 67.5001 31.3265 67.4517 31.3751 67.4517C31.4236 67.4517 31.4721 67.5001 31.4721 67.5483C31.4883 67.8537 31.4883 68.1589 31.4397 68.4642C31.3912 68.7696 31.3103 69.0748 31.1808 69.3641C31.0514 69.6534 30.8571 69.9266 30.6144 70.1516C30.3716 70.3766 30.0803 70.5533 29.7567 70.6497C29.433 70.7462 29.0931 70.7784 28.7532 70.7141C28.4134 70.6659 28.0896 70.5052 27.8307 70.2963C27.7012 70.1838 27.5879 70.0712 27.4746 69.9266C27.3775 69.7819 27.2966 69.6374 27.2319 69.4928C27.1024 69.2035 27.0376 68.898 27.07 68.5766C27.07 68.5123 27.1186 68.4802 27.1833 68.4802C27.2157 68.4963 27.2481 68.5125 27.2643 68.5286Z" fill="#07453A"/>
<path d="M32.735 68.0294C32.8644 68.7847 32.8969 69.5398 32.994 70.263C33.1073 70.9861 33.3176 71.7095 33.706 72.3041C33.9002 72.5934 34.143 72.8503 34.4343 72.9949C34.7256 73.1396 35.0655 73.1879 35.4053 73.1236C35.5833 73.1075 35.7291 73.0593 35.8747 72.9789C36.0204 72.8986 36.1821 72.7863 36.2954 72.6898C36.4249 72.5773 36.5382 72.4487 36.6515 72.3041C36.7648 72.1595 36.8457 71.9986 36.9428 71.854C37.2988 71.2272 37.5092 70.504 37.5901 69.7808C37.6711 69.0416 37.6388 68.3025 37.477 67.5793C37.4446 67.4025 37.3798 67.2256 37.3313 67.0489C37.2665 66.8721 37.2179 66.6954 37.137 66.5347C36.9914 66.1973 36.7972 65.8757 36.5706 65.6025C36.1013 65.0401 35.4702 64.6064 34.8066 64.2529C34.7581 64.2207 34.7418 64.1724 34.758 64.1242C34.7903 64.076 34.839 64.0598 34.8876 64.0758C35.5835 64.3972 36.2469 64.8312 36.7809 65.4258C37.0399 65.7151 37.2503 66.0525 37.4283 66.406C37.5254 66.5828 37.5902 66.7597 37.6549 66.9525C37.6873 67.0489 37.7196 67.1455 37.752 67.2259C37.7844 67.3223 37.8167 67.4185 37.8329 67.515C38.0271 68.2703 38.0757 69.0578 37.9947 69.8292C37.93 70.6006 37.7035 71.3719 37.3313 72.079C37.218 72.2558 37.1209 72.4165 37.0076 72.5772C36.8781 72.7379 36.7487 72.8987 36.5869 73.0273C36.425 73.1719 36.2631 73.2843 36.0851 73.3807C35.988 73.4289 35.8909 73.4772 35.7938 73.5094C35.6805 73.5415 35.5833 73.5737 35.4862 73.5737C35.0816 73.6541 34.6123 73.6059 34.2239 73.413C33.8355 73.2202 33.528 72.8986 33.3014 72.5611C32.8483 71.8862 32.638 71.1147 32.5085 70.3433C32.3952 69.5719 32.4113 68.8007 32.5246 68.0454C32.5246 67.9972 32.5894 67.949 32.6379 67.9651C32.6865 67.949 32.7188 67.9973 32.735 68.0294Z" fill="#07453A"/>
<path d="M19.9007 68.6404C19.8197 69.1225 19.6904 69.5725 19.5933 70.0064C19.4962 70.4563 19.4637 70.9065 19.5446 71.3404C19.6255 71.7743 19.7712 72.2243 19.9816 72.626C20.192 73.0278 20.4833 73.3812 20.8393 73.6383C21.1954 73.8794 21.6323 73.976 22.0531 73.8957C22.1502 73.8635 22.2636 73.8311 22.3607 73.799C22.4578 73.7669 22.5549 73.7028 22.652 73.6546C22.83 73.5421 23.0081 73.3812 23.1538 73.2205C23.4613 72.883 23.6717 72.4812 23.8011 72.0312C23.9306 71.5812 24.0115 71.1153 24.0439 70.6492C24.0439 70.601 24.0923 70.5528 24.1571 70.5528C24.2056 70.5528 24.2543 70.601 24.2543 70.6492C24.2381 71.1313 24.2056 71.6134 24.0762 72.0956C23.9629 72.5777 23.7525 73.0438 23.4288 73.4456C23.2669 73.6384 23.0727 73.8151 22.8623 73.9597C22.749 74.0401 22.6358 74.1045 22.5225 74.1528C22.3931 74.201 22.2798 74.2329 22.1503 74.2811C22.0209 74.2972 21.8914 74.3295 21.7457 74.3295C21.6162 74.3295 21.4706 74.3296 21.3411 74.2975C21.066 74.2653 20.8231 74.1366 20.5966 74.0081C20.1596 73.7027 19.8359 73.301 19.577 72.8671C19.3342 72.4171 19.1563 71.9509 19.0753 71.4527C18.9782 70.9545 19.0106 70.4241 19.1239 69.942C19.221 69.4438 19.4151 68.9941 19.7064 68.5923C19.7388 68.5441 19.8036 68.5439 19.8521 68.576C19.8845 68.576 19.9007 68.6082 19.9007 68.6404Z" fill="#07453A"/>
<path d="M27.6852 69.7821C27.5719 70.1196 27.4424 70.4413 27.3453 70.7627C27.2482 71.0841 27.1511 71.4054 27.0864 71.7429C27.0217 72.0804 26.9731 72.4017 26.957 72.7392C26.9408 73.0766 26.9569 73.4142 27.0055 73.7517C27.054 74.0892 27.1348 74.4105 27.232 74.732L27.3129 74.973L27.4101 75.2141C27.4748 75.3748 27.5395 75.5195 27.6204 75.6642C27.7823 75.9534 27.9765 76.2264 28.2193 76.4514C28.4459 76.6603 28.7371 76.8211 29.0122 76.8211C29.1579 76.8211 29.3198 76.805 29.4655 76.7568C29.6111 76.7086 29.7567 76.6445 29.8862 76.548C30.1452 76.3713 30.3717 76.1141 30.5497 75.8409C30.9219 75.2784 31.1323 74.6194 31.278 73.9444C31.5531 72.5945 31.3914 71.1805 30.8411 69.8948C30.825 69.8466 30.8411 69.7822 30.8897 69.7661C30.9382 69.7501 31.0029 69.7663 31.0191 69.8145C31.6503 71.1001 31.8768 72.5785 31.6341 74.0088C31.5046 74.7159 31.2943 75.4229 30.8897 76.0496C30.6955 76.3549 30.4527 76.6605 30.129 76.8855C29.9671 76.9979 29.7891 77.0942 29.6111 77.1585C29.4168 77.2228 29.2226 77.2549 29.0122 77.2549C28.5752 77.2388 28.2031 77.0299 27.928 76.7728C27.6367 76.5156 27.4262 76.2103 27.232 75.8889C27.1348 75.7282 27.0539 75.5676 26.9892 75.3908L26.8922 75.1337L26.7951 74.8767C26.6818 74.5392 26.5846 74.1696 26.5361 73.8161C26.4713 73.4625 26.4552 73.0928 26.4714 72.7232C26.4714 72.3535 26.5199 71.9999 26.6009 71.6302C26.7465 70.9231 27.054 70.2322 27.5071 69.6698C27.5395 69.6216 27.6043 69.6216 27.6528 69.6538C27.6852 69.6859 27.7014 69.7339 27.6852 69.7821Z" fill="#07453A"/>
<path d="M23.3157 73.4296C23.3642 73.751 23.3642 74.0242 23.3642 74.3295C23.3642 74.6188 23.3804 74.9081 23.4451 75.1974C23.5098 75.4867 23.5908 75.7599 23.7203 76.0009C23.8497 76.242 24.0277 76.4669 24.2543 76.5954C24.4809 76.7401 24.7398 76.8044 25.015 76.8205C25.2901 76.8205 25.549 76.7401 25.8242 76.5954C26.0831 76.4669 26.342 76.2902 26.5524 76.0973C26.7628 75.9045 26.9408 75.6633 27.1026 75.3901C27.135 75.3419 27.1998 75.326 27.2483 75.3581C27.2969 75.3903 27.3131 75.4383 27.2807 75.4865C27.216 75.6311 27.135 75.76 27.0541 75.9046C26.9732 76.0492 26.8599 76.1775 26.7628 76.29C26.5362 76.5311 26.2934 76.7401 26.0021 76.9008C25.727 77.0616 25.3871 77.1902 25.0311 77.2063C24.6912 77.2223 24.3351 77.158 24.0277 76.9652C23.7202 76.7884 23.4936 76.499 23.3318 76.2097C23.1699 75.9204 23.0567 75.5992 22.992 75.2778C22.9272 74.9564 22.8948 74.6349 22.8948 74.3135C22.8948 74.1528 22.9109 73.9921 22.9433 73.8314C22.9757 73.6707 23.0404 73.5099 23.1375 73.3813C23.1699 73.3331 23.2347 73.3171 23.2833 73.3493C23.2994 73.3653 23.3157 73.3975 23.3157 73.4296Z" fill="#07453A"/>
<path d="M31.5049 74.5063C31.602 74.4902 31.6668 74.4742 31.7316 74.4903C31.7963 74.4903 31.861 74.5062 31.9095 74.5223C31.9581 74.5383 32.0227 74.5385 32.0875 74.5546C32.1522 74.5546 32.2009 74.5546 32.2656 74.5546C32.4922 74.5385 32.7349 74.4259 32.9291 74.2652C33.1395 74.1206 33.3176 73.9117 33.4794 73.6867C33.6412 73.4617 33.7707 73.2207 33.8516 72.9635C33.8678 72.9153 33.9325 72.8831 33.981 72.8992C34.0296 72.9153 34.0458 72.9637 34.0458 73.0119C34.0135 73.3172 33.9163 73.6062 33.7707 73.8794C33.625 74.1526 33.4309 74.394 33.1881 74.619C32.9454 74.8279 32.6379 74.9885 32.298 75.0367C32.2171 75.0367 32.1199 75.0527 32.039 75.0527C31.958 75.0367 31.861 75.0368 31.7801 75.0207C31.6992 74.9886 31.6182 74.9723 31.5534 74.924C31.4887 74.8758 31.424 74.8117 31.3916 74.7153C31.3592 74.651 31.3917 74.5867 31.4564 74.5546L31.4725 74.5546L31.5049 74.5063Z" fill="#07453A"/>
<path d="M34.9842 73.4622C35.2755 73.9282 35.4373 74.4426 35.5506 74.9569C35.6639 75.4872 35.7286 76.0013 35.7934 76.5316C35.8419 77.0619 35.9066 77.6085 35.761 78.171C35.6315 78.7334 35.2916 79.2317 34.8385 79.6013C34.6119 79.7781 34.3531 79.9227 34.0779 80.0031C33.8028 80.0834 33.5114 80.1155 33.22 80.0994C32.9287 80.0673 32.6537 80.0029 32.3947 79.8744C32.1358 79.7458 31.893 79.6011 31.6988 79.4083C31.2781 79.0226 31.019 78.5405 30.8248 78.0423C30.6306 77.5441 30.5174 77.0139 30.4526 76.4836C30.4526 76.4353 30.485 76.3709 30.5336 76.3709C30.5821 76.3709 30.6307 76.403 30.6469 76.4512C30.744 76.9655 30.8735 77.4639 31.0839 77.9299C31.2943 78.396 31.5694 78.8298 31.9416 79.1512C32.1196 79.328 32.33 79.4405 32.5566 79.537C32.7831 79.6334 33.0097 79.6816 33.2524 79.6977C33.738 79.7298 34.2073 79.5689 34.5796 79.2636C34.9356 78.9582 35.2269 78.5407 35.324 78.0746C35.4373 77.6086 35.3887 77.0941 35.324 76.5959C35.2592 76.0817 35.1783 75.5674 35.0812 75.0692C34.9679 74.571 34.8547 74.0729 34.7899 73.5425C34.7899 73.4782 34.8224 73.4302 34.8871 73.4302C34.9195 73.4141 34.9518 73.43 34.9842 73.4622Z" fill="#07453A"/>
<path d="M26.2772 76.7087C26.3582 77.2068 26.3904 77.6889 26.4228 78.171C26.4552 78.6531 26.5361 79.1351 26.6656 79.585C26.795 80.035 27.0055 80.485 27.2644 80.8707L27.3616 81.0154L27.4748 81.1601C27.5395 81.2565 27.6205 81.3528 27.7014 81.4332C27.8632 81.6099 28.0251 81.7707 28.2193 81.8993C28.3164 81.9635 28.4135 82.0278 28.5106 82.076C28.6077 82.1242 28.721 82.1885 28.8343 82.2207C28.9476 82.2689 29.0447 82.301 29.158 82.317L29.3198 82.3494C29.3684 82.3494 29.4331 82.3654 29.4816 82.3654C29.7082 82.3654 29.9186 82.3331 30.129 82.2367C30.3232 82.1403 30.5174 82.0117 30.663 81.8349C30.9705 81.4974 31.1809 81.0476 31.3104 80.5816C31.4399 80.1156 31.5047 79.6334 31.5047 79.1513C31.5047 79.103 31.5531 79.0549 31.6017 79.0549C31.6502 79.0549 31.6989 79.103 31.6989 79.1513C31.7313 79.6655 31.6989 80.1638 31.5856 80.662C31.537 80.9191 31.4561 81.1601 31.3428 81.4011C31.2457 81.6422 31.1001 81.8671 30.9382 82.076C30.7602 82.2849 30.5497 82.4619 30.307 82.5904C30.0642 82.719 29.7729 82.7671 29.4978 82.7831C29.433 82.7831 29.3683 82.7831 29.2874 82.7831L29.077 82.7511C28.9314 82.719 28.8019 82.6867 28.6886 82.6384C28.5591 82.5902 28.4458 82.542 28.3164 82.4777C28.1869 82.4135 28.0736 82.3494 27.9603 82.269C27.7337 82.1083 27.5396 81.9314 27.3616 81.7386C27.2807 81.6421 27.1835 81.5459 27.1026 81.4495L26.9892 81.2888L26.8761 81.1281C26.5848 80.6942 26.3581 80.2119 26.2124 79.7297C26.0668 79.2315 25.9696 78.7333 25.9373 78.219C25.9049 77.7048 25.9211 77.1908 26.083 76.7087C26.0992 76.6604 26.1639 76.6282 26.2124 76.6443C26.2448 76.6282 26.2772 76.6604 26.2772 76.7087Z" fill="#07453A"/>
<path d="M20.2731 73.446C20.2245 73.671 20.1599 73.896 20.079 74.1049C19.9981 74.3138 19.917 74.5228 19.8199 74.7317C19.6419 75.1335 19.48 75.5514 19.3829 75.9853C19.2858 76.4032 19.2373 76.8368 19.302 77.2547C19.3344 77.4636 19.3829 77.6726 19.4639 77.8655C19.5286 78.0583 19.6419 78.2512 19.7714 78.4119C20.0142 78.7334 20.3864 78.9582 20.7749 78.9421C20.9691 78.9582 21.1795 78.894 21.3737 78.8297C21.4708 78.7815 21.5679 78.7332 21.665 78.685L21.7944 78.6047L21.9239 78.5083C22.2637 78.2512 22.5713 77.9136 22.8303 77.5601C23.0892 77.1904 23.3157 76.8049 23.5261 76.4031C23.5585 76.3549 23.607 76.3386 23.6556 76.3708C23.7041 76.4029 23.7203 76.4513 23.7041 76.4995C23.5099 76.9173 23.3157 77.3351 23.0567 77.7208C22.814 78.1065 22.5065 78.4924 22.1342 78.7977L21.9887 78.9101L21.8429 79.0064C21.7297 79.0707 21.6325 79.1189 21.5193 79.1831C21.2927 79.2796 21.05 79.3602 20.7749 79.3602C20.5159 79.3602 20.2408 79.3117 20.0142 79.1831C19.7876 79.0546 19.5772 78.8939 19.4153 78.701C18.7842 77.8975 18.6871 76.821 18.9137 75.905C19.027 75.4389 19.1888 75.0049 19.3668 74.571C19.561 74.1371 19.7877 73.7513 20.079 73.3817C20.1113 73.3335 20.176 73.3335 20.2245 73.3657C20.2731 73.3818 20.2731 73.4139 20.2731 73.446Z" fill="#07453A"/>
<path d="M23.0728 77.7359C23.1861 78.0895 23.2184 78.4269 23.2507 78.7805C23.2831 79.118 23.3317 79.4716 23.3965 79.793C23.5421 80.4519 23.801 81.0947 24.1894 81.6572C24.3674 81.9303 24.594 82.1876 24.8692 82.3483C25.1443 82.509 25.4518 82.5732 25.7593 82.525C25.9211 82.5089 26.0667 82.4447 26.2124 82.3643C26.3581 82.284 26.4875 82.1874 26.617 82.0749C26.7465 81.9624 26.8598 81.8341 26.9407 81.7055C27.0378 81.5609 27.1187 81.4161 27.2158 81.2554C27.2482 81.2072 27.313 81.1912 27.3616 81.2234C27.4101 81.2555 27.4262 81.3035 27.3938 81.3518C27.3129 81.5125 27.2482 81.6732 27.1673 81.8339C27.0702 81.9946 26.9568 82.1554 26.8274 82.284C26.6979 82.4286 26.5524 82.5412 26.3905 82.6537C26.2287 82.7501 26.0506 82.8463 25.8402 82.8784C25.4518 82.9749 25.0148 82.8946 24.6749 82.7017C24.3189 82.5089 24.0437 82.2196 23.8333 81.9142C23.3963 81.3035 23.105 80.6125 22.9432 79.9054C22.8623 79.5519 22.7976 79.1824 22.7652 78.8288C22.7329 78.4592 22.749 78.1058 22.8623 77.7522C22.8785 77.704 22.9433 77.6718 22.9919 77.6879C23.0404 77.6718 23.0566 77.7038 23.0728 77.7359Z" fill="#07453A"/>
<path d="M29.8865 82.6537C30.0321 83.0716 30.1292 83.4733 30.2587 83.875C30.3881 84.2768 30.5824 84.6463 30.8414 84.9356C31.1003 85.2249 31.4563 85.3696 31.8286 85.3053C32.0066 85.2732 32.2009 85.2087 32.3789 85.1123C32.5569 85.0159 32.7187 84.9035 32.8805 84.7589C33.0424 84.6303 33.1718 84.4696 33.2851 84.2928C33.3499 84.2124 33.3984 84.1161 33.4631 84.0357C33.5116 83.9393 33.5603 83.8588 33.6088 83.7623C33.803 83.3927 33.9164 82.9749 33.9973 82.5571C34.1591 81.7214 34.1428 80.8376 34.0295 79.9698C34.0295 79.9216 34.0619 79.8574 34.1105 79.8574C34.159 79.8574 34.2076 79.8896 34.2238 79.9378C34.3209 80.3717 34.3695 80.8215 34.4019 81.2714C34.4181 81.7214 34.418 82.1714 34.3532 82.6214C34.2237 83.5213 33.8515 84.4053 33.1718 85.0803C32.9938 85.241 32.7996 85.3856 32.5892 85.4981C32.3789 85.6106 32.1523 85.7069 31.8934 85.7551C31.6344 85.8033 31.3592 85.7872 31.1164 85.6908C30.8736 85.5944 30.6633 85.4338 30.4853 85.257C30.1454 84.8874 29.9351 84.4697 29.7894 84.0197C29.7085 83.7947 29.6599 83.5696 29.6437 83.3446C29.6275 83.1196 29.6276 82.8787 29.6761 82.6537C29.6923 82.6055 29.7408 82.5573 29.8055 82.5734C29.8541 82.5894 29.8865 82.6055 29.8865 82.6537Z" fill="#07453A"/>
<path d="M22.7979 21.8749C22.9759 21.3124 23.1862 20.7822 23.4289 20.2518C23.6717 19.7215 23.9469 19.2073 24.2059 18.7091C24.7399 17.6967 25.1283 16.636 25.4843 15.5432C25.8404 14.4504 26.164 13.3415 26.5039 12.2487C26.6819 11.7023 26.86 11.1399 27.0866 10.5935C27.1513 10.4489 27.1998 10.3202 27.2969 10.1756C27.3131 10.1434 27.3455 10.0952 27.3778 10.063C27.4102 10.0309 27.4426 9.98273 27.5397 9.93452C27.572 9.91845 27.5882 9.91841 27.6206 9.90234C27.653 9.90234 27.7015 9.90234 27.7339 9.90234C27.7825 9.91841 27.7824 9.91851 27.7824 9.91851L27.8148 9.93452C27.8472 9.95059 27.8958 9.96663 27.9282 9.9827C28.0738 10.047 28.2032 10.1274 28.3489 10.2399C28.3812 10.2721 28.4136 10.3041 28.4622 10.3363C28.4784 10.3684 28.5106 10.3845 28.5268 10.4488L28.5268 10.4648C28.5268 10.4809 28.5268 10.4809 28.5268 10.497C28.5268 10.5131 28.5268 10.5453 28.5268 10.5613L28.5268 10.5935L28.4946 10.8184C28.3975 11.413 28.2518 11.9756 28.09 12.522C27.9282 13.0844 27.7339 13.6308 27.5397 14.1772C27.3455 14.7236 27.135 15.2699 26.9084 15.8003C26.7952 16.0735 26.6657 16.3306 26.5363 16.6038C26.4068 16.8609 26.2774 17.118 26.1479 17.3752C25.1284 19.4322 24.4001 21.6338 23.4452 23.723C23.429 23.7712 23.3643 23.8035 23.3158 23.7714C23.2672 23.7553 23.2509 23.6909 23.2671 23.6427C24.1734 21.5374 24.837 19.3197 25.8404 17.2144C25.9699 16.9573 26.0994 16.7003 26.2289 16.4271C26.3583 16.17 26.4715 15.9129 26.5848 15.6557C26.7952 15.1254 27.0056 14.5951 27.1836 14.0487C27.3616 13.5023 27.5397 12.9558 27.7015 12.4094C27.8472 11.863 27.9928 11.3006 28.0737 10.7542L28.09 10.5452L28.09 10.5132C28.09 10.5292 28.09 10.5453 28.09 10.5613L28.09 10.5773C28.1062 10.5934 28.1062 10.5935 28.09 10.5935C28.0738 10.5774 28.0575 10.5612 28.0413 10.5452C27.9442 10.4809 27.8309 10.4007 27.7176 10.3524C27.6853 10.3364 27.6529 10.3203 27.6367 10.3203L27.6206 10.3203C27.6206 10.3203 27.5882 10.3042 27.6206 10.3203C27.6368 10.3203 27.653 10.3203 27.6854 10.3203C27.7016 10.3203 27.7176 10.3202 27.7176 10.3041C27.7338 10.288 27.7176 10.3042 27.7176 10.3203C27.7015 10.3363 27.6853 10.3523 27.6691 10.3845C27.6044 10.4809 27.5559 10.6095 27.4912 10.738C27.2808 11.2523 27.1027 11.7987 26.9247 12.3451C26.5849 13.4379 26.2612 14.5469 25.9213 15.6557C25.5653 16.7646 25.1607 17.8573 24.6266 18.9019C24.3515 19.4161 24.0764 19.9144 23.8013 20.4125C23.5262 20.9107 23.2509 21.4251 22.9758 21.9232C22.9435 21.9715 22.895 21.9874 22.8303 21.9553C22.8141 21.9713 22.7817 21.9231 22.7979 21.8749Z" fill="#07453A"/>
<path d="M26.4826 16.419C26.6108 16.3948 26.7543 16.3758 26.8925 16.372C27.0512 16.3583 27.1687 16.3644 27.2916 16.3553L28.0182 16.3317L29.4658 16.2994C30.4328 16.2728 31.3997 16.2462 32.3621 16.1839C33.3244 16.1217 34.292 16.0442 35.2253 15.8697C36.1738 15.7004 37.1132 15.4598 38.0922 15.301C38.5844 15.2139 39.0714 15.1419 39.5629 15.1058C40.0543 15.0696 40.5503 15.0692 41.0411 15.084C41.5318 15.0987 42.0271 15.1492 42.5271 15.2354C42.7668 15.2834 43.0064 15.3315 43.256 15.4C43.4904 15.4632 43.7195 15.5418 43.9584 15.6407C44.0195 15.6616 44.0752 15.6977 44.1516 15.7239C44.1668 15.7291 44.1921 15.7548 44.2226 15.7652C44.2379 15.7705 44.2478 15.7911 44.273 15.8168C44.283 15.8373 44.2982 15.8424 44.3082 15.8628C44.3334 15.8885 44.3379 15.9241 44.3425 15.9598C44.3524 15.9803 44.3418 16.0107 44.3464 16.0464C44.3358 16.0769 44.325 16.1074 44.3304 16.0922L44.3251 16.1074L44.3145 16.1377L44.2984 16.1835C44.2771 16.2443 44.2352 16.3154 44.2139 16.3762L44.1042 16.5431C43.9425 16.7605 43.7709 16.9574 43.5741 17.1286C43.1806 17.4711 42.7374 17.7114 42.2995 17.9364C41.8463 18.1562 41.3885 18.3401 40.9208 18.5038C40.4584 18.6522 39.9808 18.7951 39.5238 18.9283L39.3856 18.9322C39.4162 18.9427 39.4826 18.9486 39.5032 18.9386L39.4878 18.9333L39.4673 18.9433L39.4466 18.9532L39.4673 18.9433C39.4673 18.9433 39.4879 18.9331 39.4932 18.9178C39.4932 18.9178 39.5192 18.8928 39.5245 18.8776C39.5504 18.8524 39.5665 18.8066 39.5619 18.7709L39.5725 18.7406C39.5667 19.1478 39.8318 19.5627 40.1488 19.927C40.4658 20.2914 40.8706 20.6006 41.2547 20.9198C42.0588 21.5534 42.7889 22.3493 43.3338 23.235C43.8786 24.1208 44.2687 25.1068 44.4946 26.122C44.5896 26.6319 44.69 27.1264 44.6821 27.6863C44.6731 27.956 44.6229 28.2459 44.5117 28.5146C44.4485 28.6464 44.3701 28.7728 44.2763 28.8941C44.2244 28.9445 44.1671 29.0103 44.1152 29.0607C44.0481 29.1059 43.9963 29.1562 43.9345 29.1862C43.6767 29.3365 43.3791 29.405 43.0875 29.4074C42.8113 29.415 42.5357 29.3717 42.2708 29.2979C41.751 29.1709 41.2784 28.9576 40.8059 28.7445C39.8713 28.2878 39.0154 27.7047 38.2113 27.071C37.4125 26.4222 36.6655 25.723 35.9498 24.9833C35.7733 24.8035 35.5969 24.6235 35.4258 24.4285C35.2547 24.2334 35.0836 24.0386 34.9278 23.8488C34.7719 23.659 34.6008 23.4638 34.4243 23.284C34.3487 23.207 34.2327 23.0991 34.1624 23.0068C34.1272 22.9606 34.0715 22.9245 34.0363 22.8783C34.0111 22.8526 33.9959 22.8472 33.9859 22.8268C33.9707 22.8215 33.9708 22.8216 33.9555 22.8163C33.9555 22.8163 33.9707 22.8215 33.9859 22.8268L34.0013 22.832C33.986 22.8268 33.9036 22.8669 33.8517 22.9173C33.7998 22.9677 33.7374 23.0486 33.6802 23.1142C33.5758 23.266 33.4812 23.4381 33.3867 23.6103C33.3395 23.6964 33.2921 23.7826 33.2602 23.874C33.2182 23.9448 33.1864 24.0361 33.1544 24.1274C33.0904 24.3101 33.0417 24.4979 33.0083 24.691L32.7511 25.8645C32.6484 26.2555 32.5457 26.6465 32.3766 27.0318C32.292 27.2244 32.1922 27.4119 32.016 27.5732C31.9847 27.6136 31.923 27.6436 31.8711 27.694C31.8246 27.7292 31.7628 27.7593 31.7063 27.774L31.5468 27.8386C31.4903 27.8533 31.4393 27.8529 31.3828 27.8676L31.2959 27.8718L31.2088 27.8762L31.0402 27.8694C30.928 27.848 30.8256 27.8472 30.7241 27.7953L30.5714 27.743L30.424 27.6755C30.3172 27.6389 30.2362 27.5769 30.1499 27.5303C29.7949 27.3233 29.4817 27.0456 29.1892 26.7578C28.9119 26.4752 28.6301 26.1571 28.4307 25.7989C28.0264 25.0977 27.7663 24.3266 27.5627 23.5408C27.3743 22.7602 27.2218 21.9747 27.1204 21.1898C27.0191 20.405 26.959 19.6001 26.8729 18.8204C26.8375 18.4332 26.7868 18.0408 26.7209 17.6432C26.6879 17.4443 26.6497 17.2605 26.6167 17.0617C26.5976 16.9699 26.5632 16.8729 26.544 16.781C26.5394 16.7454 26.5148 16.6688 26.5056 16.5974C26.4911 16.5413 26.4971 16.4752 26.4826 16.419ZM26.6445 16.5428C26.6644 16.5837 26.6895 16.6094 26.6995 16.6299C26.7194 16.6708 26.7194 16.6708 26.734 16.7269C26.7531 16.8188 26.7876 16.9157 26.8014 17.0228C26.8496 17.2268 26.8878 17.4106 26.9207 17.6094C26.9867 18.0071 27.0374 18.3995 27.0881 18.7919C27.1689 19.5868 27.2497 20.3815 27.3564 21.1512C27.4578 21.9361 27.6154 22.7063 27.8091 23.4717C28.0234 24.2271 28.2736 24.9778 28.658 25.638C28.8529 25.9606 29.1042 26.2682 29.3716 26.5303C29.6542 26.7976 29.9421 27.0498 30.2666 27.2463C30.3529 27.2929 30.439 27.3397 30.5153 27.3658L30.6475 27.4281L30.7696 27.47C30.8612 27.5013 30.9483 27.4969 31.0399 27.5283L31.1779 27.5247L31.2444 27.5305L31.3009 27.5155C31.3367 27.5108 31.3879 27.5112 31.4291 27.4912L31.5473 27.4465C31.6244 27.4218 31.6763 27.3715 31.7487 27.3111C31.8578 27.195 31.9523 27.0229 32.0262 26.8607C32.1793 26.5211 32.282 26.1299 32.3641 25.7489L32.6158 24.5908C32.6645 24.4029 32.7034 24.1945 32.7727 23.9966C32.8047 23.9052 32.8419 23.7987 32.8945 23.6974C32.9471 23.596 32.9738 23.5199 33.0264 23.4186C33.1262 23.2311 33.2206 23.0591 33.351 22.8822C33.4135 22.8013 33.4813 22.7052 33.5744 22.6348C33.6522 22.5591 33.7712 22.4634 33.9452 22.4548L33.9605 22.4601C33.9911 22.4706 34.0269 22.4658 34.0369 22.4863C34.0521 22.4915 34.0674 22.4967 34.0827 22.502C34.0979 22.5072 34.1232 22.5328 34.1385 22.5381C34.1637 22.5638 34.204 22.5948 34.2292 22.6204C34.2796 22.6718 34.3301 22.7232 34.3653 22.7693C34.4508 22.8668 34.5264 22.9438 34.6272 23.0466C34.8037 23.2264 34.9748 23.4215 35.1459 23.6166C35.317 23.8116 35.4727 24.0015 35.6491 24.1813C35.8256 24.3611 36.0021 24.5409 36.1732 24.7359C36.8789 25.4552 37.6259 26.1544 38.3995 26.7776C39.1884 27.406 40.0344 27.9688 40.9284 28.3946C41.3804 28.6177 41.8431 28.8102 42.3171 28.9215C42.7912 29.0329 43.2919 29.0682 43.6428 28.8475C43.8183 28.7371 43.9638 28.5654 44.0484 28.3728C44.1329 28.1802 44.1771 27.9567 44.1754 27.7174C44.1872 27.2441 44.0868 26.7492 43.9864 26.2545C43.7804 25.2803 43.4049 24.3505 42.88 23.5057C42.355 22.6609 41.6699 21.9316 40.8963 21.3084C40.4969 20.984 40.0975 20.6594 39.74 20.2641C39.5689 20.0691 39.3879 19.8535 39.2533 19.6028C39.1188 19.3521 39.0308 19.0662 39.0352 18.7608L39.0405 18.7457C39.0511 18.7152 39.0671 18.6697 39.0778 18.6393C39.0831 18.624 39.0832 18.6239 39.1038 18.6139L39.1244 18.6039L39.1297 18.5888C39.135 18.5736 39.1556 18.5637 39.1708 18.5689L39.1915 18.5587L39.2273 18.554L39.2685 18.5342L39.3098 18.514L39.3303 18.5041L39.3455 18.5093L39.3609 18.5145C39.3815 18.5046 39.4479 18.5104 39.4784 18.5209L39.3402 18.5244C39.8026 18.376 40.2596 18.2431 40.722 18.0947C41.1691 17.941 41.6117 17.7517 42.0443 17.5419C42.4616 17.327 42.8841 17.0968 43.2258 16.8048C43.3966 16.6588 43.5577 16.4922 43.6728 16.31L43.7565 16.1682C43.7878 16.1278 43.8038 16.0821 43.8252 16.0213L43.8358 15.9909L43.8412 15.9755L43.8465 15.9603C43.8518 15.9451 43.8411 15.9757 43.8358 15.9909C43.8305 16.0062 43.8351 16.0416 43.8298 16.0568C43.8344 16.0925 43.8443 16.113 43.8542 16.1334C43.8542 16.1334 43.8642 16.1538 43.8794 16.1591C43.8947 16.1643 43.8948 16.1643 43.8948 16.1643L43.8794 16.1591C43.8489 16.1486 43.7932 16.1125 43.7474 16.0968C43.539 16.0084 43.3046 15.9451 43.0756 15.8666C42.8565 15.8085 42.6169 15.7605 42.3924 15.7177C41.923 15.642 41.4482 15.5815 40.9727 15.572C40.4972 15.5625 40.0218 15.5529 39.5456 15.5943C39.0747 15.6205 38.6032 15.6976 38.1316 15.7746C37.1831 15.9439 36.2438 16.1845 35.28 16.3486C35.0442 16.3871 34.7878 16.4356 34.5573 16.4589C34.3063 16.4922 34.0757 16.5155 33.83 16.5336C33.3332 16.5849 32.8624 16.6111 32.361 16.6268C31.8596 16.6424 31.3886 16.6688 30.8926 16.6692C30.4117 16.6749 29.921 16.6599 29.4249 16.6603C28.9342 16.6456 28.4587 16.6362 27.9679 16.6215L27.2422 16.5941C27.1247 16.588 26.9865 16.592 26.9048 16.581C26.8689 16.5858 26.7567 16.5642 26.6445 16.5428Z" fill="#07453A"/>
<path d="M25.5166 15.9129L25.4033 15.479C25.3709 15.3343 25.3547 15.2219 25.3224 15.0612C25.2576 14.7559 25.1929 14.4345 25.1281 14.1291C24.9987 13.5024 24.8692 12.8916 24.7074 12.2649C24.4161 11.0274 24.0925 9.80616 23.7202 8.58481C23.3642 7.36345 22.9434 6.17423 22.5064 4.96894C22.2799 4.37433 22.0532 3.77972 21.8104 3.20118C21.5515 2.63872 21.2441 2.09219 20.8556 1.62615C20.4672 1.1601 19.9817 0.774474 19.4315 0.64591C19.1564 0.581628 18.865 0.59773 18.5899 0.678082C18.2986 0.758435 18.0558 0.886936 17.8777 1.09585C17.6835 1.2887 17.554 1.56199 17.4407 1.83519C17.3436 2.10839 17.2628 2.41373 17.2142 2.71907C17.1819 2.87977 17.1656 3.02431 17.1494 3.18502C17.1333 3.34572 17.1172 3.50643 17.0848 3.66713C17.0524 3.82784 17.02 4.00465 16.9391 4.18142C16.8905 4.26178 16.842 4.3582 16.7772 4.42248C16.7125 4.48676 16.6477 4.55108 16.583 4.61536C16.3079 4.85642 16.0004 5.01709 15.6929 5.14565C15.3854 5.27422 15.0617 5.3707 14.7542 5.45106L13.8156 5.69211C13.5081 5.77247 13.1845 5.83665 12.877 5.91701C12.2458 6.04557 11.6146 6.15806 11.0158 6.31877C10.4008 6.47947 9.80191 6.65634 9.21929 6.8974C8.07022 7.36345 6.98593 8.07055 6.25765 9.06692C5.9016 9.56511 5.5941 10.1114 5.52937 10.69C5.51318 10.8346 5.51318 10.9793 5.52937 11.1239C5.54555 11.2685 5.57795 11.3971 5.64269 11.5257C5.75597 11.7828 5.95009 11.9917 6.19285 12.1685C6.67837 12.522 7.27718 12.7148 7.89217 12.8273C8.50716 12.9398 9.13843 12.972 9.76961 12.988C10.0933 12.988 10.4007 12.988 10.7244 12.988C11.0319 12.988 11.3556 12.9559 11.6793 12.9559C12.003 12.9559 12.3429 12.956 12.6827 13.0524C12.7636 13.0845 12.8446 13.1005 12.9255 13.1487C13.0064 13.1809 13.0873 13.2292 13.1682 13.2934C13.3139 13.4059 13.4271 13.5827 13.508 13.7434C13.6375 14.0809 13.6375 14.4505 13.589 14.772C13.5728 14.8523 13.5566 14.9327 13.5404 15.013C13.5243 15.0934 13.5081 15.1576 13.4919 15.2379C13.4596 15.3825 13.4434 15.5432 13.4434 15.6878C13.4434 15.9771 13.4919 16.2665 13.6538 16.5075C13.7347 16.6361 13.8155 16.7486 13.9126 16.8611C13.9612 16.9093 14.0098 16.9736 14.0745 17.0218L14.123 17.0538L14.1393 17.07L14.123 17.0538C14.1068 17.0538 14.1069 17.0538 14.1069 17.0538C14.1231 17.0538 14.1716 17.07 14.2039 17.07C14.5114 17.1021 14.8352 17.086 15.1427 17.086C15.4664 17.0699 15.7738 17.0539 16.0975 17.0378C16.7287 16.9896 17.3599 16.9254 17.9749 16.7808C19.2211 16.4754 20.4834 16.186 21.7458 16.0093C22.3769 15.9128 23.0242 15.8487 23.6716 15.8165C23.9952 15.8005 24.3189 15.8004 24.6426 15.8004L25.1281 15.8165C25.2576 15.8487 25.371 15.8808 25.5166 15.9129ZM25.6623 16.0414C25.4843 16.0575 25.29 16.0575 25.112 16.0414L24.6426 16.0254C24.3189 16.0254 24.0115 16.0415 23.6878 16.0576C23.0567 16.0897 22.4255 16.1701 21.7943 16.2665C20.5319 16.4593 19.2858 16.7486 18.0558 17.07C17.4247 17.2146 16.7772 17.295 16.1299 17.3592C15.8062 17.3914 15.4825 17.4075 15.1588 17.4236C14.8352 17.4397 14.5115 17.4397 14.1717 17.4236C14.1231 17.4236 14.0907 17.4074 14.026 17.4074L14.0098 17.4074C14.0098 17.4074 13.9936 17.4075 13.9774 17.3914C13.9613 17.3914 13.9451 17.3753 13.9289 17.3592L13.9126 17.3432L13.8641 17.2949C13.7994 17.2467 13.7347 17.1825 13.6862 17.1182C13.5729 16.9896 13.4595 16.8611 13.3786 16.7164C13.2006 16.4272 13.1035 16.0575 13.1197 15.72C13.1197 15.5432 13.1521 15.3826 13.1682 15.2219C13.1844 15.1415 13.2006 15.0612 13.2168 14.9808C13.233 14.9005 13.2491 14.8361 13.2653 14.7558C13.3138 14.4665 13.2977 14.1612 13.2006 13.9041C13.1521 13.7755 13.0711 13.679 12.974 13.5987C12.8769 13.5183 12.7475 13.4702 12.6018 13.422C12.3267 13.3416 12.0191 13.3416 11.6954 13.3416C11.3879 13.3577 11.0642 13.3898 10.7244 13.3898C10.4007 13.3898 10.077 13.3898 9.75333 13.3898C9.10597 13.3737 8.45861 13.3577 7.81125 13.2291C7.16389 13.1166 6.51653 12.9077 5.95009 12.5059C5.67496 12.3131 5.41614 12.0399 5.27049 11.7024C5.20575 11.5417 5.15713 11.3649 5.12477 11.1881C5.10858 11.0113 5.0924 10.8346 5.12477 10.6578C5.15713 10.3043 5.27039 9.98291 5.41605 9.67757C5.5617 9.37223 5.73976 9.09906 5.93397 8.82586C6.32238 8.27947 6.80793 7.8294 7.34201 7.4437C7.87608 7.05801 8.45873 6.75277 9.07373 6.49564C9.67253 6.23851 10.3037 6.04554 10.9349 5.88483C11.5661 5.72413 12.1971 5.59563 12.8283 5.46706C13.1358 5.40278 13.4433 5.32246 13.7508 5.25818L14.6733 5.01712C14.9808 4.93677 15.2721 4.84038 15.5634 4.72788C15.8386 4.61539 16.1137 4.47063 16.3241 4.27778C16.7611 3.95637 16.6801 3.29761 16.7934 2.63872C16.8419 2.31731 16.9228 1.9959 17.0361 1.67449C17.1494 1.35307 17.3114 1.04764 17.5703 0.774442C17.6836 0.645878 17.8453 0.533447 18.0072 0.437024C18.169 0.340601 18.3309 0.292421 18.509 0.228139C18.8488 0.131716 19.221 0.115614 19.577 0.195967C19.9331 0.276319 20.2568 0.437056 20.532 0.629902C20.8071 0.822748 21.0498 1.06377 21.2764 1.3209C21.7133 1.83516 22.0371 2.39763 22.3122 3.00831C22.5711 3.60292 22.7976 4.19746 23.0242 4.79207C23.4774 5.99736 23.8821 7.20274 24.2543 8.4241C24.6265 9.64546 24.9502 10.8828 25.1929 12.1363C25.3224 12.7631 25.4356 13.3898 25.5327 14.0326C25.5813 14.354 25.6138 14.6594 25.6623 14.9808C25.6785 15.1255 25.7108 15.3183 25.7108 15.4951C25.6623 15.704 25.6623 15.8807 25.6623 16.0414Z" fill="#07453A"/>
</svg>
