<svg width="48" height="114" viewBox="0 0 48 114" fill="none" xmlns="http://www.w3.org/2000/svg">
<path d="M14.2253 14.1106C14.2139 14.1303 14.187 14.1541 14.1715 14.1582L14.1559 14.1623L14.1248 14.1706L14.0824 14.1984L13.9975 14.2543L13.8235 14.3504C13.7075 14.4144 13.5759 14.4826 13.4402 14.5353C13.2889 14.5921 13.1447 14.6138 13.0005 14.6354C12.8564 14.657 12.7278 14.6744 12.5795 14.6805C12.482 14.6897 12.3988 14.6287 12.3778 14.551L12.3736 14.5354C12.1925 14.0509 12.058 13.554 11.9392 13.053C11.8203 12.552 11.7481 12.0386 11.6603 11.5294C11.4889 10.5263 11.3331 9.51909 11.1929 8.50779C10.8968 6.48933 10.6164 4.46676 10.4136 2.42354L10.4052 2.39245L10.3968 2.36136C10.0409 2.33933 10.8944 2.22927 10.8137 2.30061L10.8179 2.31623L10.8347 2.37826L10.8444 2.47565L10.8792 2.66615L10.8889 2.76339C10.8973 2.79444 10.9015 2.80997 10.9099 2.84103C10.9267 2.90314 10.9393 2.94967 10.9561 3.01178C11.0191 3.2447 11.1174 3.48492 11.2002 3.72924L11.3279 4.07812C11.377 4.19822 11.4107 4.3225 11.4598 4.4426C11.5426 4.68692 11.6253 4.93123 11.6925 5.17968C11.9925 6.16523 12.2572 7.14359 12.5416 8.13327C12.8062 9.11155 13.0751 10.1054 13.3553 11.0795L13.7854 12.5464L14.0026 13.2876L14.119 13.6561L14.1694 13.8425L14.1946 13.9357L14.2072 13.9823C14.2114 13.9978 14.2072 13.9823 14.2198 14.0288C14.2282 14.0599 14.2366 14.091 14.2253 14.1106ZM14.0362 14.0277C14.0051 14.0359 14.0332 14.0783 14.0248 14.0473L14.0122 14.0007L13.987 13.9076L13.921 13.7254L13.8047 13.3568L13.5719 12.6197L13.1107 11.161C12.8149 10.191 12.515 9.20543 12.2348 8.23128C11.9546 7.25713 11.6702 6.26745 11.3589 5.30155C11.2761 5.05722 11.1933 4.81288 11.1147 4.58408C11.0656 4.46398 11.032 4.33978 10.9871 4.23521L10.8395 3.87486C10.7412 3.63466 10.6585 3.39036 10.5757 3.14604C10.5589 3.08393 10.5421 3.02184 10.5211 2.9442C10.5127 2.91315 10.5043 2.88206 10.4917 2.83547L10.4821 2.73823L10.4472 2.54773L10.4376 2.45049L10.4292 2.41941L10.4334 2.43488C10.3527 2.50622 11.2062 2.39618 10.8502 2.37414L10.8544 2.38976C11.0841 4.40921 11.3646 6.43182 11.6762 8.44616C11.832 9.45333 11.9878 10.4604 12.1591 11.4634C12.2469 11.9727 12.3305 12.4665 12.4452 12.952C12.4969 13.2046 12.5599 13.4376 12.6271 13.686C12.6943 13.9345 12.7573 14.1673 12.8245 14.4157L12.6186 14.2708C12.7514 14.2688 12.8842 14.2668 13.017 14.2648C13.1498 14.2629 13.2784 14.2455 13.3914 14.2321C13.5003 14.2032 13.6361 14.1504 13.7605 14.1174L13.9584 14.0483L14.0517 14.0236L14.0984 14.0112L14.1295 14.0029L14.145 13.9988C14.0744 13.9842 14.0475 14.008 14.0362 14.0277Z" fill="#07453A"/>
<path d="M11.9931 12.688C11.285 13.1588 10.7848 13.8415 10.3881 14.5969C10.1876 14.9669 10.0112 15.3638 9.83056 15.7452L9.28136 16.9244C8.90867 17.7068 8.55161 18.4851 8.21857 19.2904C8.14026 19.4946 8.05768 19.6832 7.97938 19.8874L7.91964 20.0366L7.85988 20.186C7.81861 20.2803 7.78152 20.3901 7.74026 20.4844C7.67333 20.6689 7.62619 20.8648 7.62165 21.0328C7.62719 21.1148 7.6328 21.1967 7.6653 21.2549C7.67375 21.286 7.70198 21.3285 7.73025 21.3711C7.75853 21.4137 7.77125 21.4603 7.8109 21.4832C7.91979 21.6379 8.07121 21.7647 8.21844 21.8759C8.38127 21.9829 8.55546 22.0704 8.75664 22.1339C9.14339 22.2652 9.56431 22.3374 9.9725 22.3629C10.1766 22.3757 10.392 22.3687 10.6075 22.3618L11.2539 22.3411C11.6849 22.3273 12.1115 22.2978 12.5538 22.2642C12.9806 22.2348 13.4145 22.1702 13.8328 22.1097C14.0398 22.0717 14.2468 22.0336 14.4694 21.9914C14.6764 21.9533 14.875 21.8842 15.0778 21.8306C15.4791 21.7078 15.9032 21.5456 16.3442 21.4457C16.5668 21.4035 16.7936 21.3769 17.0247 21.3658C17.2558 21.3548 17.4797 21.3789 17.7036 21.4031C18.1515 21.4515 18.5879 21.5197 19.0088 21.5919C19.2171 21.6202 19.4297 21.664 19.6536 21.6882C19.8775 21.7124 20.0901 21.7564 20.2701 21.7422C20.3679 21.733 20.4501 21.7278 20.5281 21.7072C20.5749 21.6948 20.5906 21.6908 20.6331 21.6628L20.7452 21.5832C20.8999 21.4756 21.0107 21.3294 21.0705 21.1802C21.1972 20.8464 21.103 20.4377 20.9619 20.0413C20.8208 19.6449 20.6557 19.2216 20.5416 18.8014C20.4275 18.3812 20.3247 17.9413 20.273 17.5046C20.2057 17.072 20.1696 16.6313 20.1647 16.1822C20.164 15.7487 20.1945 15.3069 20.1512 14.9014C20.1275 14.6908 20.0923 14.5 20.0218 14.3018C19.9555 14.1191 19.8538 13.9291 19.7563 13.7548C19.5414 13.3946 19.2641 13.0508 19.0636 12.6201C18.9576 12.4146 18.8942 12.1811 18.8393 11.9788C18.7801 11.7609 18.7252 11.5586 18.6702 11.3563C18.5447 10.9558 18.3725 10.5677 18.0582 10.3339C17.911 10.2227 17.7211 10.1394 17.5284 10.107C17.3357 10.0745 17.116 10.0659 16.9204 10.0843C16.7092 10.1068 16.5105 10.176 16.3276 10.241C16.1332 10.3258 15.9389 10.4105 15.7686 10.5222C15.0323 10.9504 14.3933 11.553 13.6059 11.978C13.5633 12.0059 13.4925 11.9913 13.46 11.9332C13.4317 11.8906 13.446 11.8202 13.4886 11.7922C14.2292 11.3796 14.8639 10.7614 15.6273 10.3094C15.8131 10.1935 16.0189 10.089 16.2288 10.0002C16.4429 9.92685 16.6571 9.85357 16.8839 9.82695C17.1065 9.78478 17.3461 9.80494 17.57 9.82914C17.7982 9.8689 18.0234 9.95951 18.2301 10.105C18.4368 10.2505 18.574 10.4478 18.6955 10.6492C18.8171 10.8506 18.8918 11.0642 18.9666 11.2779C19.0414 11.4917 19.0963 11.6941 19.1555 11.912C19.2147 12.1299 19.2809 12.3124 19.3671 12.5065C19.5507 12.8749 19.8238 13.2032 20.0627 13.5904C20.18 13.7762 20.286 13.9817 20.3806 14.2069C20.4554 14.4206 20.5188 14.6541 20.5467 14.8802C20.6027 15.3324 20.5722 15.7742 20.5729 16.2077C20.5693 16.6256 20.6168 17.0467 20.6841 17.4793C20.7472 17.8963 20.8457 18.3207 20.9556 18.7253C21.0697 19.1455 21.2221 19.5222 21.3717 19.9497C21.4464 20.1635 21.5056 20.3813 21.5534 20.6189C21.5856 20.8606 21.5866 21.1105 21.4856 21.354C21.4001 21.5935 21.224 21.8068 21.0267 21.9424L20.872 22.0501C20.8294 22.078 20.7557 22.1142 20.6933 22.1307C20.5728 22.1793 20.4437 22.1967 20.3104 22.1985C20.0638 22.2137 19.8356 22.1739 19.6273 22.1456C19.4034 22.1214 19.1951 22.0931 18.9669 22.0533C18.5305 21.9852 18.1096 21.9129 17.6816 21.876C17.4775 21.8632 17.2535 21.8391 17.0537 21.8419C16.8538 21.8448 16.6468 21.8828 16.4398 21.9208C16.03 22.0125 15.6371 22.1664 15.2202 22.2933C15.006 22.3666 14.7876 22.4244 14.565 22.4665C14.3423 22.5087 14.1395 22.5624 13.9127 22.589C13.4788 22.6536 13.0449 22.7182 12.6026 22.7518C12.1603 22.7853 11.7336 22.8148 11.2871 22.8327L10.6251 22.8576C10.4096 22.8645 10.1743 22.8601 9.95463 22.8514C9.49541 22.8227 9.04338 22.7586 8.61698 22.6045C8.39598 22.5295 8.18633 22.4349 7.97962 22.2894C7.77714 22.1594 7.58183 21.9943 7.44466 21.797C7.40079 21.7586 7.36827 21.7003 7.33577 21.6422C7.30326 21.5841 7.27493 21.5415 7.2382 21.4678C7.18457 21.3319 7.16218 21.1877 7.15956 21.055C7.16994 20.7853 7.22421 20.5542 7.31811 20.3459C7.35515 20.236 7.39636 20.1416 7.4334 20.0318L7.49321 19.8826L7.55302 19.7333C7.63132 19.5291 7.70962 19.325 7.78793 19.1208C8.12097 18.3155 8.48945 17.5174 8.84654 16.7391C9.21924 15.9567 9.55647 15.167 10.0156 14.395C10.1293 14.1982 10.2473 14.0169 10.3809 13.8315C10.5187 13.6616 10.6522 13.4763 10.8098 13.3178C11.125 13.001 11.4842 12.7224 11.8956 12.5136C11.9382 12.4857 12.0132 12.5159 12.0259 12.5625C12.0541 12.6051 12.0356 12.6601 11.9931 12.688Z" fill="#07453A"/>
<path d="M7.56636 21.8422C7.53907 22.0496 7.4679 22.2185 7.40095 22.4031C7.33401 22.5876 7.26289 22.7566 7.17189 22.9141C7.00971 23.2406 6.8361 23.5868 6.70935 23.9206C6.70221 23.9558 6.68368 24.0107 6.67231 24.0304L6.6694 24.0814C6.67363 24.0969 6.6694 24.0814 6.6694 24.0814C6.6694 24.0814 6.66938 24.0813 6.66515 24.0657C6.67783 24.1124 6.7104 24.1706 6.7429 24.2288C6.82352 24.3409 6.95517 24.4561 7.09397 24.5362C7.3914 24.7078 7.74278 24.8319 8.10131 24.9206C8.8226 25.1136 9.5611 25.1853 10.3253 25.1667C11.0739 25.1523 11.841 25.0829 12.6094 25.0799C12.6604 25.0831 12.7043 25.1215 12.7212 25.1838C12.7183 25.2346 12.6799 25.2781 12.6331 25.2905C12.2573 25.3231 11.8702 25.3754 11.4987 25.4236C11.1272 25.4718 10.7358 25.5087 10.3403 25.5298C9.56894 25.5836 8.77228 25.544 8.00419 25.3634C7.62583 25.2632 7.24323 25.1475 6.87072 24.9457C6.69226 24.8427 6.50529 24.7086 6.3681 24.5113C6.29171 24.4147 6.24654 24.3099 6.2085 24.1698C6.19582 24.1231 6.19453 24.0567 6.20168 24.0214L6.22732 23.9312C6.24584 23.8763 6.26439 23.8214 6.26731 23.7706C6.41258 23.3818 6.57053 23.0397 6.74408 22.6935C6.91763 22.3474 7.11521 22.0282 7.3879 21.7392C7.42625 21.6957 7.49288 21.6948 7.53676 21.7332C7.54944 21.7799 7.56213 21.8266 7.56636 21.8422Z" fill="#07453A"/>
<path d="M13.2236 22.5911C13.2501 22.7506 13.2525 22.8829 13.2437 23.0351C13.2349 23.1873 13.2218 23.3239 13.1932 23.4647L13.1231 23.8828L13.0726 24.3124C13.0247 24.8744 13.012 25.4438 13.0502 26.0163C13.104 26.5846 13.2046 27.1406 13.3828 27.6759C13.5611 28.2113 13.8171 28.7259 14.1312 29.2086C14.1594 29.251 14.1452 29.3215 14.1027 29.3494C14.0602 29.3773 14.0093 29.3741 13.9655 29.3357C13.5779 28.8892 13.2667 28.3559 13.0376 27.8174C12.8198 27.2593 12.6756 26.665 12.602 26.0852C12.5398 25.4858 12.5284 24.8895 12.5835 24.2922L12.6298 23.8472L12.6958 23.4135C12.7488 23.1165 12.8372 22.8267 13.0201 22.5784C13.0584 22.535 13.1206 22.5184 13.1643 22.5568C13.211 22.5444 13.2152 22.5601 13.2236 22.5911Z" fill="#07453A"/>
<path d="M21.1888 21.4162C21.5074 21.2986 21.823 21.2316 22.1753 21.2383C22.3592 21.2396 22.5318 21.2606 22.7326 21.324C22.7877 21.3427 22.8668 21.3884 22.9106 21.4268C22.9544 21.4652 22.9982 21.5036 23.0306 21.5616C23.087 21.6466 23.1435 21.7316 23.1843 21.8207C23.3435 22.1616 23.4164 22.4921 23.4738 22.8266C23.5353 23.1768 23.5459 23.5237 23.5212 23.8633C23.4718 24.5427 23.3163 25.2 23.1015 25.8232C23.0018 26.1327 22.871 26.4505 22.7162 26.7414C22.5657 27.0477 22.4067 27.323 22.201 27.6107C22.1627 27.6541 22.1004 27.6705 22.0567 27.6322C22.0171 27.6093 22.0002 27.5472 22.023 27.5079C22.3409 26.9573 22.5756 26.3456 22.7593 25.7306C22.943 25.1157 23.0518 24.4707 23.0672 23.8504C23.0805 23.5304 23.0627 23.2186 23.0138 22.9151C22.9493 22.6157 22.8806 22.3008 22.7581 22.0334C22.7046 21.8977 22.6085 21.7898 22.5774 21.7981C22.4671 21.7606 22.3144 21.7511 22.1616 21.7416C22.0088 21.7321 21.8447 21.7423 21.6877 21.7173C21.5193 21.7119 21.3624 21.6869 21.1814 21.6348C21.1262 21.6161 21.0939 21.558 21.1124 21.5032C21.1464 21.4442 21.1577 21.4245 21.1888 21.4162Z" fill="#07453A"/>
<path d="M10.916 29.1318C11.0182 29.1381 11.1203 29.1445 11.2267 29.1665C11.2778 29.1697 11.3332 29.1885 11.3843 29.1917C11.4354 29.1949 11.4708 29.2022 11.5219 29.2053L11.7815 29.2368L12.0369 29.2527C12.21 29.2737 12.3903 29.2594 12.5592 29.2649C12.7394 29.2505 12.9082 29.2559 13.0843 29.226C13.7656 29.1458 14.4402 28.9172 15.0383 28.5918C15.6322 28.2507 16.1809 27.8046 16.6261 27.2857C17.0628 26.7356 17.4911 26.1544 17.9038 25.5773C17.965 25.4943 18.0587 25.4694 18.1453 25.4799C18.4645 25.5458 18.7722 25.6313 19.0956 25.7128C19.1708 25.743 19.2573 25.7536 19.3523 25.7952C19.4473 25.8369 19.5069 25.8712 19.5863 25.917C19.7408 25.9931 19.884 26.0889 20.0229 26.169C20.5757 26.5407 21.0545 26.9485 21.5975 27.2225C21.7322 27.2871 21.8669 27.3517 22.0088 27.381C22.0797 27.3956 22.1506 27.4102 22.2215 27.4249C22.2925 27.4395 22.3592 27.4386 22.4259 27.4376C22.6771 27.438 22.9257 27.3053 23.146 27.13C23.5782 26.7482 23.9128 26.1918 24.1338 25.6487C24.1866 25.5345 24.3073 25.4858 24.4221 25.5389C24.4576 25.5462 24.4816 25.5733 24.5057 25.6003L24.8879 26.0839C25.0125 26.2347 25.157 26.397 25.2786 26.5987C25.3395 26.6996 25.3931 26.8357 25.4113 26.9645C25.4295 27.0934 25.4164 27.2305 25.3793 27.3406C25.3136 27.592 25.1798 27.7778 25.0617 27.9595C24.9237 28.1297 24.7815 28.2842 24.635 28.4232L24.4118 28.6495C24.3307 28.721 24.2654 28.7885 24.1843 28.8601C23.8602 29.1464 23.4879 29.3787 23.0789 29.5371C22.6699 29.6955 22.2114 29.7333 21.7786 29.6808C21.3459 29.6283 20.9346 29.47 20.5462 29.2721C20.1733 29.07 19.819 28.813 19.5116 28.5435C19.3558 28.401 19.2 28.2584 19.0442 28.1159L18.6349 27.6561L18.8477 27.6999C18.4982 27.8927 18.1487 28.0856 17.8191 28.2898C17.6443 28.3862 17.4738 28.4982 17.3345 28.6019L16.8668 28.9763C16.2485 29.4742 15.6189 29.992 14.9043 30.3817C14.5392 30.5786 14.1656 30.7444 13.7751 30.8478C13.6814 30.8726 13.5678 30.8859 13.4741 30.9107L13.1647 30.9425C12.949 30.9495 12.7446 30.9367 12.5361 30.9084C12.3233 30.8645 12.1219 30.8009 11.9475 30.7134C11.7575 30.6301 11.5747 30.5113 11.4188 30.3688C11.263 30.2263 11.1342 30.0598 11.0281 29.854C10.9829 29.749 10.9419 29.6596 10.928 29.5463C10.9111 29.484 10.9026 29.4529 10.8971 29.3708C10.8874 29.2731 10.9017 29.2024 10.916 29.1318ZM11.0448 29.2982C11.0731 29.3408 11.093 29.3523 11.0972 29.3679C11.1015 29.3835 11.1184 29.4458 11.1268 29.477C11.1522 29.5706 11.1889 29.6444 11.2143 29.738C11.292 29.9012 11.4167 30.052 11.5526 30.1831C11.6886 30.3142 11.8473 30.4057 12.0217 30.4932C12.1919 30.5652 12.3777 30.633 12.5706 30.6654C12.7636 30.6979 12.9523 30.7147 13.1326 30.7004L13.4221 30.6572L13.7075 30.5982C14.0823 30.499 14.4403 30.3374 14.7699 30.1332C15.4491 29.7361 16.0475 29.2268 16.6616 28.7133L17.125 28.3232C17.2913 28.1956 17.4618 28.0836 17.6323 27.9717C17.9776 27.7633 18.3229 27.5549 18.6724 27.3621C18.7462 27.3258 18.8328 27.3364 18.8852 27.4061L19.2902 27.8502C19.4262 27.9813 19.582 28.1238 19.7336 28.2507C20.0368 28.5046 20.367 28.7347 20.72 28.9253C21.0688 29.1003 21.4445 29.2514 21.822 29.2851C22.2036 29.3344 22.5755 29.2861 22.9419 29.1556C23.2885 29.0137 23.6182 28.8095 23.9153 28.5471C23.9807 28.4796 24.066 28.4236 24.1272 28.3405L24.3347 28.1185C24.4812 27.9795 24.6078 27.829 24.7188 27.6826C24.8297 27.5363 24.9209 27.3786 24.961 27.2176C24.9753 27.1469 24.9854 27.0606 24.9841 26.9941C24.9828 26.9276 24.9503 26.8694 24.9135 26.7956C24.8244 26.6521 24.6998 26.5013 24.5554 26.3391L24.1731 25.8555L24.5606 25.803C24.4295 26.1217 24.2899 26.4094 24.0992 26.6939C23.9241 26.9742 23.7135 27.2471 23.4391 27.4701C23.1804 27.689 22.8309 27.8818 22.4307 27.8876C22.3327 27.8968 22.2306 27.8903 22.1555 27.8601C22.0689 27.8496 21.9781 27.8235 21.8874 27.7974C21.71 27.7608 21.5555 27.6847 21.4009 27.6087C20.7828 27.3045 20.2997 26.881 19.771 26.5365C19.6477 26.4522 19.5088 26.372 19.3741 26.3074C19.3145 26.273 19.2394 26.2429 19.1799 26.2085C19.1245 26.1898 19.0494 26.1595 18.9784 26.1449C18.6863 26.0551 18.3671 25.9893 18.0635 25.9193L18.305 25.8219C17.8767 26.4032 17.4682 26.996 17.0044 27.5699C16.5251 28.148 15.9337 28.622 15.2816 28.9952C14.9435 29.1682 14.6012 29.3257 14.2462 29.4364C13.887 29.5315 13.5079 29.6151 13.1275 29.6323C12.9472 29.6466 12.7472 29.6495 12.5627 29.6482C12.3739 29.6313 12.1894 29.6301 12.0079 29.5779L11.7284 29.5349L11.4604 29.4723C11.4249 29.4649 11.3695 29.4461 11.3341 29.4388C11.2986 29.4315 11.2746 29.4045 11.2391 29.3972L11.0448 29.2982Z" fill="#07453A"/>
<path d="M11.5628 30.2457C11.8803 30.429 12.097 30.6725 12.325 30.8961C12.5531 31.1198 12.7925 31.3237 13.0492 31.4061C13.6023 31.5938 14.227 31.4283 14.7868 31.1463C15.3621 30.8602 15.8965 30.4848 16.4026 30.0667C16.6656 29.8633 16.9087 29.6484 17.1674 29.4295C17.4106 29.2147 17.6693 28.9957 17.9281 28.7768C17.9707 28.7488 18.0374 28.7479 18.0657 28.7906C18.094 28.8332 18.0911 28.8841 18.0683 28.9236C17.6104 29.3958 17.141 29.8878 16.6433 30.3371C16.1457 30.7865 15.6084 31.2128 15.0103 31.5384C14.7034 31.7032 14.3724 31.841 14.0203 31.9008C13.8443 31.9307 13.6484 31.9493 13.4639 31.948C13.2794 31.9467 13.0822 31.8987 12.9007 31.8465C12.5135 31.7151 12.2302 31.4726 11.9937 31.2178C11.7416 30.9671 11.5477 30.6842 11.4277 30.365C11.4108 30.3027 11.4294 30.2476 11.4919 30.231C11.5075 30.2269 11.5387 30.2187 11.5628 30.2457Z" fill="#07453A"/>
<path d="M18.1086 28.7342C18.4957 28.8656 18.8216 29.0799 19.1277 29.2829C19.438 29.5014 19.7598 29.7002 20.0887 29.8637C20.4176 30.0272 20.7735 30.167 21.1239 30.2246C21.2147 30.2507 21.297 30.2456 21.3835 30.2561C21.47 30.2666 21.5523 30.2615 21.6544 30.2679C21.8389 30.2692 22.015 30.2392 22.2108 30.2208C22.5827 30.1725 22.9503 30.1086 23.3251 30.0094C23.6843 29.9143 24.0506 29.784 24.373 29.6152C24.6955 29.4463 25.0051 29.2307 25.0498 28.9015C25.11 28.5682 25.0085 28.194 24.8801 27.8438C24.8674 27.797 24.886 27.7421 24.9442 27.71C24.9911 27.6976 25.0463 27.7164 25.0746 27.759C25.2385 28.1165 25.3953 28.5094 25.3449 28.9403C25.3419 28.9912 25.3234 29.0462 25.3048 29.1012C25.2863 29.1562 25.2677 29.2113 25.2335 29.2705C25.1766 29.369 25.1155 29.452 25.0387 29.5392C24.8965 29.6937 24.7146 29.8254 24.5399 29.9217C24.1947 30.1301 23.8127 30.2646 23.4421 30.3794C23.0716 30.4941 22.6769 30.5819 22.2937 30.6499C22.1021 30.6839 21.9062 30.7024 21.6905 30.7094C21.5926 30.7186 21.4748 30.7164 21.3727 30.71C21.2705 30.7036 21.1684 30.6972 21.062 30.6753C20.6563 30.5989 20.2691 30.4675 19.9006 30.2811C19.5362 30.1102 19.1947 29.8999 18.8687 29.6855C18.5428 29.4711 18.2396 29.2173 18.0018 28.8961C17.9735 28.8534 17.9722 28.7869 18.0106 28.7433C18.0376 28.7195 18.0689 28.7113 18.1086 28.7342Z" fill="#07453A"/>
<path d="M10.8781 31.5393C11.3289 31.5369 11.7768 31.5854 12.2175 31.669C12.654 31.7371 13.0791 31.8249 13.4958 31.8815C13.7041 31.9098 13.9082 31.9226 14.1237 31.9157C14.3236 31.9129 14.5348 31.8903 14.7418 31.8523C15.1559 31.7762 15.5813 31.6804 15.9983 31.5535C16.4195 31.4421 16.8365 31.3152 17.2691 31.1841C17.7059 31.0687 18.1313 30.9729 18.5567 30.8771C18.9821 30.7813 19.4274 30.6969 19.857 30.6167C20.0641 30.5787 20.3065 30.548 20.498 30.5141C20.705 30.476 20.9233 30.4182 21.1856 30.3989C21.3189 30.397 21.4366 30.3993 21.5825 30.4441C21.6179 30.4515 21.6534 30.4588 21.6774 30.4858C21.7129 30.4931 21.7327 30.5045 21.7567 30.5315L21.9111 30.6075C22.1249 30.7178 22.3161 30.8674 22.4802 31.0408C22.8241 31.3836 23.0246 31.8143 23.1898 32.2377C23.5045 33.0887 23.6278 33.9735 23.9255 34.7622C24.2389 35.5468 24.7509 36.2622 25.2628 36.9776C25.7748 37.693 26.3137 38.3846 26.7447 39.1714C26.773 39.2139 26.7587 39.2844 26.7005 39.3165C26.6579 39.3444 26.5872 39.3299 26.5745 39.2832C26.1207 38.5357 25.5703 37.8638 25.0272 37.1567C24.5039 36.461 23.9409 35.7425 23.595 34.8998C23.2491 34.0571 23.1258 33.1721 22.8125 32.3875C22.6558 31.9952 22.4565 31.6309 22.1763 31.338C22.0362 31.1916 21.8734 31.0846 21.695 30.9816L21.5604 30.917C21.5406 30.9056 21.5208 30.8942 21.501 30.8827C21.4811 30.8713 21.4655 30.8754 21.4457 30.8639C21.3749 30.8493 21.2884 30.8388 21.1906 30.848C21.0063 30.8467 20.8035 30.9004 20.5809 30.9426C20.3426 30.9889 20.1469 31.0072 19.9243 31.0493C19.4947 31.1296 19.0651 31.2098 18.6396 31.3056C18.2142 31.4014 17.793 31.5128 17.3718 31.6242C16.9506 31.7355 16.5336 31.8623 16.1166 31.9893C15.6997 32.1162 15.2587 32.2162 14.8134 32.3006C14.5908 32.3427 14.3639 32.3693 14.1328 32.3803C13.9017 32.3914 13.6622 32.3713 13.4383 32.3471C12.5227 32.2389 11.7053 31.9379 10.8622 31.7271C10.807 31.7084 10.7786 31.6657 10.7929 31.5952C10.8043 31.5755 10.8469 31.5476 10.8781 31.5393Z" fill="#07453A"/>
<path d="M10.9973 31.7825C10.9905 32.2503 10.9401 32.68 10.983 33.0847C11.0023 33.2794 11.0569 33.4811 11.1385 33.6593C11.2242 33.8529 11.3411 34.0383 11.4622 34.2392C11.5832 34.4401 11.6972 34.6763 11.7489 34.9289C11.8006 35.1815 11.8056 35.4465 11.7711 35.6887C11.7021 36.173 11.5499 36.5964 11.4994 37.0259C11.478 37.1315 11.4877 37.2287 11.4818 37.3302C11.4831 37.3964 11.5041 37.4741 11.5448 37.5631C11.6264 37.7412 11.7899 37.9143 11.8924 38.1701C11.9908 38.4103 12.0072 38.6556 12.0505 38.8772C12.0938 39.0987 12.1442 39.285 12.2526 39.4393C12.5133 39.7863 12.8433 40.0817 13.1889 40.3729C13.5345 40.664 13.907 40.9314 14.2794 41.1988C14.3232 41.2372 14.3399 41.2992 14.3017 41.3427C14.2634 41.3861 14.2167 41.3985 14.173 41.3602C13.7892 41.1125 13.4054 40.8647 13.0287 40.5818C12.6563 40.3144 12.2753 40.016 11.9752 39.6462C11.799 39.4266 11.7318 39.1781 11.6843 38.941C11.6368 38.7039 11.5977 38.4979 11.5317 38.3156C11.4699 38.1489 11.3064 37.9759 11.1812 37.7594C11.1164 37.6434 11.063 37.5077 11.0521 37.3442C11.0496 37.2117 11.0512 37.0949 11.0685 36.9738C11.1177 36.478 11.2699 36.0547 11.3204 35.6252C11.3478 35.4182 11.3439 35.2194 11.2935 35.033C11.2431 34.8466 11.1616 34.6685 11.0405 34.4676C10.9392 34.2781 10.8026 34.0813 10.6928 33.8607C10.5831 33.6401 10.5117 33.3762 10.4797 33.135C10.4436 32.8783 10.4781 32.636 10.5281 32.3897C10.5824 32.1589 10.672 31.9355 10.7813 31.7234C10.7998 31.6685 10.8775 31.6479 10.9213 31.6863C10.9763 31.7049 10.9889 31.7514 10.9973 31.7825Z" fill="#07453A"/>
<path d="M12.1292 43.874C12.1207 43.8428 12.1038 43.7805 12.0912 43.7337C12.0827 43.7025 12.0941 43.6827 12.0899 43.6671L12.0971 43.6317L12.1017 43.4633L12.1308 43.138L12.1932 42.5028C12.2206 42.295 12.2324 42.0913 12.2442 41.8875C12.2387 41.8054 12.2403 41.6878 12.242 41.5704C12.2449 41.5194 12.2437 41.453 12.258 41.3823C12.2652 41.3469 12.2724 41.3116 12.2753 41.2606C12.2867 41.2409 12.2981 41.2212 12.3095 41.2014L12.3209 41.1816C12.3323 41.1619 12.348 41.1578 12.348 41.1578C12.3636 41.1536 12.3749 41.1338 12.3906 41.1297C12.4062 41.1255 12.4218 41.1214 12.4218 41.1214L12.4687 41.109C12.6946 41.0156 12.9374 40.9848 13.1646 40.958C13.396 40.9468 13.6202 40.9709 13.8444 40.9951C14.2773 41.0475 14.703 41.1354 15.1046 41.1961C15.3132 41.2244 15.502 41.2413 15.6979 41.2228C15.8939 41.2043 16.0543 41.1785 16.2177 41.1017C16.3811 41.025 16.5517 40.9129 16.7379 40.7966C16.9241 40.6804 17.1103 40.5642 17.3519 40.4667C17.4144 40.4501 17.4768 40.4336 17.5393 40.417L17.6373 40.4077L17.7196 40.4027C17.8332 40.3893 17.9511 40.3914 18.0731 40.4092C18.2931 40.4178 18.5216 40.4577 18.7344 40.5016C19.1601 40.5894 19.5545 40.6854 19.9434 40.6993C20.3281 40.6977 20.7031 40.5983 21.0527 40.4053C21.4023 40.2123 21.7351 39.957 22.0834 39.6974C22.2654 39.5656 22.4516 39.4493 22.6577 39.3446C22.8637 39.2398 23.0938 39.162 23.2969 39.1082C23.7386 39.0078 24.1815 38.974 24.6173 38.9755C25.0531 38.977 25.4818 39.014 25.902 39.0196C26.1064 39.0323 26.3221 39.0253 26.5265 39.038C26.711 39.0392 26.9184 39.0009 27.1455 38.9741C27.2591 38.9607 27.3727 38.9473 27.4948 38.9651C27.5615 38.9642 27.6324 38.9788 27.7033 38.9934L27.7587 39.0122L27.7984 39.0352C27.8339 39.0425 27.8579 39.0696 27.8778 39.0811C28.0961 39.2071 28.2718 39.3612 28.4163 39.5235C28.725 39.8597 28.9713 40.2123 29.2175 40.565C29.2783 40.666 29.261 40.7874 29.1643 40.8632C29.1487 40.8674 29.1373 40.8872 29.1061 40.8955C28.7552 41.0219 28.4 41.1328 28.0407 41.228C27.9469 41.2529 27.8532 41.2778 27.7553 41.287C27.6573 41.2963 27.5593 41.3054 27.4614 41.3146C27.2654 41.3331 27.0808 41.3319 26.8963 41.3307C26.1383 41.3143 25.4048 41.1409 24.6967 41.0611C24.3348 41.0233 23.977 41.001 23.632 41.0256C23.287 41.0502 22.9391 41.1257 22.6195 41.2439C21.9489 41.4885 21.3321 41.8694 20.6628 42.1805C20.3204 42.3382 19.9737 42.4802 19.5987 42.5796C19.4112 42.6293 19.1997 42.652 19.0151 42.6507C18.815 42.6536 18.622 42.6212 18.4446 42.5846C18.0742 42.5156 17.7267 42.4071 17.3804 42.3652C17.2073 42.3442 17.0426 42.3543 16.8666 42.3843C16.6862 42.3986 16.5143 42.4442 16.3383 42.4742C15.6225 42.6138 14.9364 42.8625 14.2658 43.1071C13.9306 43.2294 13.5838 43.3715 13.2528 43.5094L12.7385 43.7125L12.4814 43.8141C12.3522 43.8316 12.2271 43.8647 12.1292 43.874ZM12.2516 43.7078C12.3213 43.6559 12.3597 43.6123 12.418 43.5801L12.6595 43.4826L13.1696 43.2638C13.5007 43.1259 13.8473 42.984 14.194 42.8419C14.8759 42.5776 15.5777 42.3246 16.3049 42.1653C16.4966 42.1312 16.6684 42.0856 16.8644 42.0671C17.0405 42.0372 17.2562 42.0301 17.445 42.047C17.8381 42.0765 18.1857 42.1851 18.5362 42.2426C18.8867 42.3002 19.2287 42.3266 19.5526 42.224C19.8963 42.1329 20.2274 41.995 20.5344 41.8301C21.1838 41.5074 21.8163 41.1224 22.5138 40.8539C22.8647 40.7275 23.2553 40.624 23.6316 40.5911C24.0078 40.5583 24.401 40.5878 24.7629 40.6256C25.5066 40.7127 26.2159 40.859 26.9384 40.8681C27.123 40.8693 27.2877 40.8591 27.468 40.8448C27.5504 40.8397 27.6441 40.8148 27.7265 40.8097C27.8088 40.8046 27.8869 40.7839 27.9807 40.759C28.3244 40.6679 28.6639 40.5612 29.0148 40.4348L28.9189 40.7611C28.6769 40.424 28.4307 40.0713 28.1502 39.7779C28.01 39.6311 27.8584 39.5041 27.7152 39.4083C27.6202 39.3666 27.6161 39.3511 27.5139 39.3447C27.4273 39.3342 27.3293 39.3434 27.2313 39.3527C27.0198 39.3753 26.8281 39.4095 26.581 39.4248C26.3653 39.4318 26.1452 39.4232 25.9252 39.4146C25.5008 39.3934 25.0765 39.3721 24.6563 39.3665C24.2361 39.3608 23.8244 39.3863 23.4494 39.4857C23.2619 39.5354 23.0787 39.6007 22.8996 39.6816C22.7248 39.7781 22.5542 39.8903 22.3837 40.0024C22.0467 40.2421 21.7026 40.5173 21.3103 40.7383C20.9181 40.9593 20.4536 41.0991 19.9823 41.0903C19.5153 41.0971 19.0812 40.9781 18.6753 40.9017C18.4625 40.8578 18.2695 40.8253 18.085 40.8241C17.9828 40.8177 17.8848 40.827 17.7826 40.8206L17.7159 40.8217L17.6534 40.8382C17.6222 40.8465 17.5753 40.8589 17.5284 40.8713C17.3608 40.9325 17.2016 41.0248 17.0154 41.141C16.8448 41.2531 16.6628 41.3849 16.4369 41.4782C16.3318 41.5228 16.211 41.5716 16.086 41.6047C15.961 41.6378 15.8432 41.6357 15.7296 41.649C15.4982 41.6602 15.274 41.6361 15.0498 41.6119C14.6169 41.5595 14.187 41.4561 13.7896 41.4109C13.388 41.3502 12.9793 41.3248 12.6482 41.4627L12.6169 41.471C12.6169 41.471 12.617 41.471 12.6326 41.4668C12.6482 41.4627 12.6483 41.4628 12.6597 41.443C12.6753 41.4389 12.671 41.4232 12.6866 41.419L12.698 41.3994L12.7094 41.3795C12.7094 41.3795 12.698 41.3993 12.7022 41.4149C12.6951 41.4502 12.6921 41.5011 12.6892 41.5521C12.6833 41.654 12.6732 41.7403 12.6757 41.8734C12.6525 42.0969 12.6095 42.3089 12.5664 42.521C12.5234 42.733 12.4804 42.945 12.4331 43.1415L12.3644 43.444L12.3399 43.6008L12.3327 43.6362C12.3327 43.6362 12.3327 43.6362 12.3171 43.6403C12.2829 43.6996 12.263 43.6881 12.2516 43.7078Z" fill="#07453A"/>
<path d="M19.8877 44.557C20.03 44.7527 20.1161 44.9466 20.171 45.1487C20.2258 45.3509 20.2702 45.5558 20.3189 45.7762C20.3485 45.8851 20.3738 45.9785 20.3971 46.1056C20.4163 46.2173 20.4312 46.3132 20.4565 46.4065C20.4692 46.4532 20.4818 46.4998 20.486 46.5154C20.4903 46.5309 20.486 46.5154 20.486 46.5154C20.486 46.5154 20.4861 46.5155 20.5007 46.5283C20.5404 46.5511 20.6362 46.5757 20.6925 46.5775L20.7029 46.5747C20.7133 46.572 20.7133 46.572 20.7237 46.5692C20.78 46.571 20.8258 46.5755 20.8716 46.58C20.9175 46.5846 20.9383 46.5791 21.005 46.5781C21.1029 46.5689 21.1965 46.5441 21.2944 46.5349C21.3881 46.5101 21.4817 46.4853 21.5565 46.4322L21.5878 46.4239C21.5878 46.4239 21.5982 46.4212 21.6086 46.4184C21.6294 46.4129 21.6356 46.3947 21.6564 46.3892C21.6834 46.3653 21.7 46.3443 21.6896 46.347L21.6834 46.3652C21.6876 46.3808 21.6772 46.3836 21.6815 46.3991L21.6857 46.4146L21.6899 46.4303L21.6815 46.3991L21.6541 46.3396C21.6269 46.2802 21.6142 46.2335 21.6015 46.1869L21.511 45.8943L21.3298 45.3089C21.2139 44.9229 21.098 44.5368 20.9883 44.1325C20.9756 44.0858 21.0046 44.0282 21.0567 44.0145C21.1087 44.0007 21.1588 44.0208 21.1715 44.0674C21.329 44.4424 21.4761 44.8202 21.6232 45.1979L21.846 45.7723L21.9574 46.0595L22.0057 46.1966L22.0372 46.2716L22.0499 46.3182L22.0583 46.3494C22.0583 46.3494 22.0626 46.365 22.0668 46.3805C22.071 46.3961 22.0668 46.3804 22.071 46.396C22.0752 46.4115 22.069 46.43 22.0733 46.4455C22.0733 46.4455 22.0775 46.461 22.0671 46.4638C22.0341 46.5891 21.9802 46.6368 21.9304 46.7C21.9034 46.7238 21.8764 46.7476 21.8494 46.7714C21.839 46.7741 21.8224 46.7951 21.8016 46.8006L21.7538 46.83C21.6373 46.8942 21.527 46.94 21.4125 46.9703C21.2981 47.0006 21.1836 47.0309 21.0649 47.0457C21.0233 47.0567 20.9254 47.0659 20.8692 47.0641C20.8025 47.0651 20.7462 47.0632 20.6858 47.0459L20.7108 47.056C20.5524 47.0479 20.44 47.0443 20.2855 46.9685C20.2459 46.9457 20.2062 46.9228 20.1727 46.8817C20.1288 46.8433 20.0911 46.7865 20.0723 46.7582C20.0303 46.6859 20.0239 46.621 19.9966 46.5616C19.9629 46.4372 19.948 46.3412 19.9288 46.2296C19.9181 46.1491 19.8844 46.0246 19.8591 45.9313C19.8146 45.7264 19.7555 45.5087 19.7111 45.3038C19.6771 45.0961 19.6492 44.8701 19.6984 44.6404C19.7066 44.5883 19.771 44.5379 19.8315 44.5553C19.8438 44.5187 19.8584 44.5314 19.8877 44.557Z" fill="#07453A"/>
<path d="M12.2337 43.6543C12.966 43.7611 13.6726 43.9583 14.3749 44.1399C15.0772 44.3215 15.7982 44.4481 16.5064 44.5278C17.2261 44.5878 17.9529 44.6125 18.6658 44.5237C19.3673 44.4547 20.0578 44.2212 20.7243 43.9608L21.753 43.5541C22.0998 43.412 22.4549 43.3011 22.7903 43.1787C23.4766 42.9297 24.1628 42.6807 24.8407 42.4006C25.5227 42.136 26.2007 41.8558 26.8586 41.5642C27.528 41.2529 28.1776 40.9301 28.8187 40.576C28.8613 40.548 28.9322 40.5626 28.9648 40.6209C28.9931 40.6636 28.9787 40.7342 28.936 40.7623C27.6864 41.5286 26.3362 42.1711 24.9847 42.747C24.3069 43.0272 23.6248 43.2918 22.9271 43.5605C22.5804 43.7027 22.245 43.8251 21.9139 43.9631L20.8894 44.3853C20.2115 44.6654 19.4741 44.9113 18.7101 44.9969C17.9618 45.0783 17.2079 45.0776 16.4684 45.0062C15.7289 44.9347 14.9881 44.7968 14.2545 44.6234C14.0772 44.5869 13.8913 44.5191 13.714 44.4825C13.5323 44.4303 13.3664 44.3741 13.1806 44.3063C12.8288 44.1822 12.4884 44.0383 12.1594 43.8747C12.1041 43.856 12.0872 43.7935 12.1214 43.7342C12.1556 43.675 12.1982 43.647 12.2337 43.6543Z" fill="#07453A"/>
<path d="M18.6347 44.9273C18.4268 45.333 18.1197 45.6814 17.7644 45.9758C17.4092 46.2702 16.9974 46.4795 16.5573 46.6461C16.3429 46.7195 16.1243 46.7773 15.8901 46.8392C15.7808 46.8682 15.6673 46.8815 15.5538 46.8948L15.4715 46.8999C15.4403 46.9082 15.4048 46.9008 15.3735 46.9091C15.3068 46.91 15.2402 46.911 15.1891 46.9078C14.9536 46.9033 14.7451 46.875 14.5294 46.8819C14.4273 46.8756 14.3293 46.8848 14.2513 46.9055C14.2356 46.9096 14.2201 46.9137 14.2045 46.9178C14.1888 46.922 14.1889 46.922 14.1576 46.9302C14.115 46.9582 14.0681 46.9707 14.0255 46.9986C13.6804 47.2069 13.3324 47.466 13.0438 47.7594C12.9628 47.8309 12.9016 47.9139 12.8405 47.9969L12.7907 48.0603C12.7751 48.0644 12.7907 48.0603 12.7907 48.0603L12.802 48.0405C12.802 48.0405 12.7978 48.0249 12.802 48.0405C12.802 48.0405 12.7992 48.0913 12.8076 48.1225C12.8131 48.2045 12.8427 48.3136 12.8681 48.4071C12.8935 48.5006 12.9344 48.5901 12.9754 48.6794C13.1393 49.0368 13.4281 49.3611 13.7355 49.6305C13.8191 49.6919 13.9027 49.7534 13.975 49.8345C14.0586 49.8958 14.1308 49.9769 14.2258 50.0186C14.4043 50.1217 14.5715 50.2443 14.7771 50.3235C15.5297 50.6922 16.3879 50.8326 17.2476 50.8556C18.1073 50.8786 18.9687 50.7842 19.8372 50.6546C20.71 50.5405 21.5743 50.3954 22.4555 50.3126C23.3367 50.2297 24.2107 50.182 25.0919 50.0992C25.5346 50.0655 25.9618 50.0361 26.396 49.9713C26.8147 49.9106 27.2447 49.8301 27.6224 49.6801C27.8212 49.6108 27.9917 49.499 28.1309 49.3953C28.2815 49.272 28.3923 49.1256 28.448 48.9606C28.5192 48.7914 28.5154 48.5922 28.5157 48.4084L28.4666 48.104C28.437 47.9949 28.423 47.8817 28.3977 47.7882C28.3723 47.6947 28.347 47.6013 28.2988 47.5472C28.2946 47.5317 28.2748 47.5202 28.2748 47.5202C28.2549 47.5087 28.2507 47.4932 28.2308 47.4817C28.1911 47.4588 28.167 47.4317 28.1274 47.4088C27.9729 47.3328 27.7644 47.3044 27.5559 47.2761C27.3516 47.2633 27.1359 47.2703 26.9202 47.2773C26.7046 47.2843 26.4932 47.3069 26.2817 47.3295C25.4246 47.4394 24.5898 47.6935 23.7551 47.9478C22.9162 48.1865 22.0942 48.4876 21.2481 48.7616C20.8308 48.8887 20.3978 49.0199 19.972 49.1159C19.5305 49.216 19.0964 49.2809 18.6536 49.3145C18.2067 49.3326 17.747 49.3039 17.3059 49.2202L16.9826 49.1387C16.8762 49.1168 16.7614 49.0636 16.6664 49.022C16.4452 48.9469 16.2468 48.8324 16.0484 48.7179C15.2704 48.2558 14.653 47.584 14.0711 46.9197C14.0272 46.8812 14.0415 46.8107 14.0841 46.7827C14.1225 46.7391 14.1934 46.7537 14.2217 46.7964C14.8149 47.441 15.4239 48.0815 16.1623 48.5208C16.3409 48.6238 16.535 48.7228 16.7364 48.7864C16.8314 48.828 16.942 48.8655 17.0327 48.8916L17.3362 48.9617C17.7574 49.0339 18.1816 49.0553 18.6129 49.0413C19.04 49.0118 19.4701 48.9314 19.8959 48.8354C20.3175 48.7239 20.739 48.6123 21.1522 48.4696C21.9826 48.1997 22.8004 47.8832 23.6507 47.6248C24.4854 47.3705 25.3315 47.0966 26.2355 46.9743C26.4626 46.9476 26.6896 46.9209 26.9053 46.914C27.121 46.907 27.3523 46.8959 27.5878 46.9004C27.8275 46.9204 28.0672 46.9404 28.3011 47.0623C28.3606 47.0966 28.4202 47.131 28.4797 47.1654C28.5038 47.1924 28.5392 47.1997 28.5633 47.2268C28.5873 47.2538 28.6156 47.2963 28.6397 47.3233C28.7246 47.4511 28.7584 47.5759 28.788 47.6849C28.8176 47.794 28.8358 47.9227 28.8611 48.0162C28.8907 48.1253 28.909 48.2541 28.923 48.3673C28.9396 48.6134 28.9405 48.8637 28.8393 49.1076C28.7537 49.3473 28.5972 49.5724 28.404 49.7238C28.215 49.8907 27.9935 49.9994 27.7834 50.0884C27.3475 50.2706 26.9019 50.3551 26.452 50.4241C26.0021 50.493 25.575 50.5225 25.1365 50.5717C24.2553 50.6546 23.3812 50.7021 22.5 50.785C21.6344 50.8638 20.7702 51.0089 19.9016 51.1386C19.0331 51.2682 18.1362 51.3552 17.2297 51.3446C17.014 51.3515 16.77 51.3159 16.5501 51.3073C16.4324 51.3051 16.326 51.2831 16.2197 51.2612C16.1133 51.2392 15.9956 51.2369 15.885 51.1994C15.668 51.1399 15.4396 51.1002 15.2184 51.0251L14.8867 50.9125L14.5777 50.7605C14.3679 50.6657 14.1652 50.5356 13.9668 50.4211C13.8676 50.3639 13.7798 50.2869 13.692 50.2099C13.6041 50.133 13.5049 50.0757 13.417 49.9987C13.0658 49.6909 12.7529 49.3395 12.548 48.8927C12.5028 48.7877 12.4534 48.6672 12.4195 48.5426C12.39 48.4335 12.3561 48.3089 12.3379 48.1801C12.3366 48.1136 12.3197 48.0512 12.3412 47.9453C12.3526 47.9256 12.3597 47.8903 12.3669 47.855C12.3782 47.8353 12.3741 47.8198 12.3854 47.8001C12.3968 47.7803 12.4082 47.7606 12.4082 47.7606L12.4579 47.6974C12.5347 47.6103 12.6073 47.5075 12.6883 47.436C13.0152 47.099 13.3746 46.8201 13.778 46.5797C13.8362 46.5476 13.8789 46.5197 13.9371 46.4876C13.9683 46.4793 14.0109 46.4514 14.0421 46.4431C14.0734 46.4349 14.1202 46.4225 14.1515 46.4142C14.292 46.377 14.4097 46.3792 14.5275 46.3814C14.763 46.3859 14.9872 46.4102 15.1915 46.423C15.2425 46.4261 15.2935 46.4292 15.3404 46.4168C15.356 46.4127 15.3915 46.4201 15.4071 46.416L15.4894 46.4108C15.6029 46.3975 15.7008 46.3883 15.7945 46.3635C16.0017 46.3254 16.2089 46.2872 16.4076 46.2179C17.2111 45.9719 17.9399 45.512 18.4363 44.8128C18.4747 44.7693 18.5371 44.7527 18.581 44.7912C18.6562 44.8214 18.6689 44.8682 18.6347 44.9273Z" fill="#07453A"/>
<path d="M28.1229 47.236C27.8326 47.2127 27.5919 47.1264 27.347 47.0244L26.6238 46.699C26.1298 46.4795 25.6472 46.2404 25.1789 45.9308C24.9525 45.7739 24.7375 45.5974 24.5339 45.4012C24.3302 45.205 24.1577 45.0007 23.9966 44.7766C23.6744 44.3284 23.3991 43.8678 23.1548 43.399C23.1265 43.3565 23.1408 43.2859 23.1989 43.2539C23.2415 43.226 23.2966 43.2448 23.3249 43.2873C23.6429 43.72 23.9297 44.1608 24.2704 44.5541C24.6111 44.9474 24.9901 45.2973 25.4146 45.5685C25.8391 45.8396 26.3331 46.0591 26.8072 46.2671L27.5461 46.5884C27.791 46.6904 28.0329 46.8432 28.2096 47.0631C28.2379 47.1057 28.2392 47.1719 28.1853 47.2195C28.1853 47.2195 28.1541 47.2277 28.1229 47.236Z" fill="#07453A"/>
<path d="M17.8024 51.2548L17.6547 51.3274L17.5111 51.4155L17.2042 51.5804L16.5862 51.8946L16.4384 51.9673C16.4072 51.9755 16.3957 51.9952 16.3645 52.0035C16.3645 52.0035 16.3801 51.9994 16.3915 51.9797C16.4029 51.9599 16.4299 51.9361 16.4413 51.9164C16.4527 51.8966 16.4527 51.8966 16.4485 51.881L16.4413 51.9164C16.4156 52.0068 16.4097 52.1085 16.4194 52.2062C16.4233 52.4057 16.4512 52.6324 16.5062 52.8351C16.5497 53.0576 16.6089 53.276 16.6837 53.4902L16.7922 53.8292L16.8387 54.0007L16.8514 54.0474L16.8598 54.0786L16.881 54.1566C16.9262 54.2616 16.9714 54.3667 17.0124 54.4561C17.0166 54.4717 17.0407 54.4988 17.045 54.5144C17.045 54.5144 17.0449 54.5143 17.0407 54.4987C17.0365 54.4831 16.9811 54.4644 16.9811 54.4644L17.001 54.4758C17.0761 54.506 17.1357 54.5404 17.1796 54.5789C17.2831 54.6518 17.3583 54.682 17.3937 54.6894L17.4094 54.6852C17.4094 54.6852 17.4405 54.6769 17.4448 54.6925L17.5271 54.6875L17.696 54.6928C18.5945 54.6721 19.485 54.4362 20.3628 54.1535C21.2406 53.8708 22.1057 53.5414 23.0189 53.266C24.8298 52.7194 26.7121 52.6218 28.5057 52.1968C28.7442 52.1503 28.9317 52.1006 29.1221 52C29.3125 51.8994 29.459 51.7604 29.6012 51.6057C29.8659 51.2848 30.0343 50.8558 30.1359 50.4277C30.2376 49.9996 30.2953 49.533 30.3062 49.0788C30.3171 48.6247 30.2924 48.1631 30.2366 47.7098L30.4579 47.785L30.2147 47.9998L29.9758 48.2303C29.8137 48.3735 29.6558 48.5323 29.5135 48.687C29.3557 48.8459 29.2134 49.0006 29.0399 49.1636C28.8622 49.311 28.6802 49.4427 28.4742 49.5474C28.4315 49.5754 28.3606 49.5608 28.3437 49.4984C28.3154 49.4558 28.3297 49.3851 28.3922 49.3685C28.5826 49.2679 28.7532 49.156 28.9111 48.9971C29.0732 48.8539 29.2112 48.6835 29.3534 48.5288C29.5113 48.37 29.6692 48.2112 29.8271 48.0524L30.066 47.822L30.3092 47.607C30.3632 47.5593 30.4498 47.5698 30.498 47.6239C30.5178 47.6354 30.5262 47.6666 30.5347 47.6978C30.6103 48.1625 30.6392 48.6395 30.6326 49.1093C30.6259 49.579 30.5881 50.0572 30.4991 50.5321C30.3903 50.9955 30.2189 51.4755 29.9044 51.8596C29.7394 52.0538 29.5545 52.2365 29.3173 52.3495C29.0998 52.474 28.8342 52.5442 28.6155 52.6022C26.7907 53.0355 24.9253 53.1955 23.1613 53.7297C22.2793 53.9968 21.4184 54.3418 20.525 54.6286C19.6316 54.9154 18.71 55.1596 17.7333 55.201L17.5488 55.1998L17.4665 55.205C17.4509 55.2091 17.4352 55.2132 17.4153 55.2017C17.3997 55.2059 17.3643 55.1986 17.3487 55.2027C17.1557 55.1703 17.0281 55.0703 16.9487 55.0245C16.9048 54.986 16.8652 54.9631 16.8297 54.9558L16.8098 54.9443C16.7942 54.9484 16.7304 54.8984 16.7106 54.887C16.6907 54.8755 16.6865 54.86 16.6666 54.8485L16.6425 54.8214C16.6142 54.7788 16.6059 54.7477 16.5818 54.7207C16.5167 54.6042 16.4715 54.499 16.4221 54.3784L16.3811 54.289L16.3642 54.2266L16.3515 54.1798L16.305 54.0084L16.1964 53.6694C16.133 53.4355 16.0582 53.2212 16.0104 52.9831C15.9627 52.7451 15.9305 52.5029 15.941 52.2327C15.9541 52.0955 15.9557 51.9781 16 51.8327L16.0186 51.7776L16.0144 51.7619C16.0144 51.7619 16.0144 51.762 16.0102 51.7464C16.0216 51.7267 16.0216 51.7266 16.033 51.7069C16.0444 51.6872 16.0672 51.6477 16.0984 51.6395C16.114 51.6353 16.1254 51.6155 16.1254 51.6155C16.1566 51.6072 16.1837 51.5834 16.2149 51.5751L16.3825 51.5141C16.5928 51.4249 16.8229 51.3472 17.0373 51.2737C17.1467 51.2447 17.2519 51.2002 17.3768 51.1671L17.5487 51.1215L17.7361 51.0719C17.783 51.0595 17.8425 51.0938 17.8552 51.1406C17.8679 51.1873 17.8451 51.2268 17.8024 51.2548Z" fill="#07453A"/>
<path d="M16.9299 54.7203C16.7309 54.9732 16.5078 55.1993 16.3087 55.4523C16.1055 55.6897 15.9576 55.9459 15.8961 56.2126C15.8346 56.4793 15.8753 56.7523 15.9712 57.0441C16.0473 57.3245 16.1943 57.6194 16.3328 57.8833C16.4756 58.1627 16.6496 58.434 16.7966 58.729C16.8333 58.8028 16.8743 58.892 16.9153 58.9813C16.9563 59.0707 16.9774 59.1486 16.9985 59.2265C17.0408 59.3823 17.083 59.538 17.1211 59.6782C17.1591 59.8183 17.2242 59.9348 17.3006 60.0314C17.3445 60.0699 17.3728 60.1124 17.4281 60.1312L17.4678 60.1541L17.5075 60.1771C17.5429 60.1844 17.567 60.2113 17.6024 60.2186C17.8632 60.3166 18.1738 60.3513 18.5043 60.3975C18.8347 60.4436 19.185 60.5013 19.518 60.6804C19.8354 60.8635 20.0718 61.1181 20.3056 61.2399C20.4247 61.3086 20.5551 61.3576 20.677 61.3755C20.8188 61.4047 20.9522 61.4028 21.1011 61.3968C21.399 61.3848 21.6998 61.3219 21.9964 61.2434C22.6053 61.0824 23.2001 60.8082 23.8726 60.6971C24.033 60.6714 24.2132 60.6571 24.3777 60.647C24.5465 60.6524 24.7111 60.6422 24.8798 60.6477C25.2018 60.6627 25.5436 60.6891 25.8541 60.7238C26.5065 60.785 27.1433 60.8503 27.759 60.8377C28.0767 60.8371 28.386 60.8053 28.6868 60.7424C28.9876 60.6796 29.2842 60.6011 29.5681 60.4759C29.8562 60.3663 30.1119 60.1985 30.403 60.0381L31.2407 59.5494C31.5162 59.3931 31.8073 59.2325 32.087 59.0918C32.2616 58.9955 32.402 58.9583 32.5497 58.8859C32.6235 58.8497 32.6818 58.8176 32.74 58.7855C32.767 58.7617 32.7826 58.7576 32.7826 58.7576C32.7868 58.7732 32.7826 58.7575 32.794 58.7378L32.8167 58.6983C32.8538 58.5884 32.847 58.44 32.8245 58.2957C32.8021 58.1514 32.7484 58.0154 32.6905 57.8637C32.579 57.576 32.4363 57.2965 32.2779 57.0212C31.9767 56.4665 31.5591 55.9759 31.1457 55.5009C30.7126 55.0145 30.2794 54.5281 29.9272 53.9702C29.5594 53.4164 29.2966 52.818 29.0806 52.2073C29.0679 52.1606 29.0865 52.1056 29.1447 52.0735C29.1915 52.0611 29.2469 52.08 29.2794 52.1381C29.5109 52.7447 29.7808 53.3076 30.1444 53.8459C30.5038 54.3685 30.9327 54.8393 31.3659 55.3258C31.7949 55.7966 32.2366 56.3142 32.5732 56.8763C32.7514 57.163 32.8941 57.4425 33.0297 57.7572C33.0876 57.9088 33.1498 58.0761 33.1807 58.2516C33.2116 58.427 33.2268 58.6066 33.1641 58.8068L33.1341 58.8816C33.1227 58.9013 33.1113 58.9209 33.0886 58.9603C33.0388 59.0236 32.9962 59.0515 32.9536 59.0795C32.8684 59.1354 32.7946 59.1717 32.7208 59.208C32.5731 59.2804 32.4056 59.3414 32.2892 59.4056C31.9981 59.566 31.7227 59.7224 31.4473 59.8787L30.6293 60.3789C30.3539 60.5353 30.067 60.7112 29.7519 60.8447C29.4409 60.9937 29.1132 61.0805 28.7968 61.1475C28.4647 61.2187 28.1356 61.2389 27.8065 61.2592C27.144 61.2841 26.4874 61.2074 25.8548 61.1577C25.5286 61.1271 25.2223 61.1081 24.9003 61.0931C24.7471 61.0835 24.5784 61.0779 24.4294 61.0839C24.2805 61.0899 24.1315 61.0961 23.9754 61.1373C23.3653 61.232 22.7819 61.4864 22.1461 61.6713C21.8182 61.758 21.4862 61.8292 21.1414 61.8536C20.9613 61.8678 20.7925 61.8624 20.5997 61.8299C20.4224 61.7933 20.2367 61.7256 20.078 61.634C19.7563 61.4353 19.544 61.2077 19.2903 61.0745C19.0523 60.9371 18.7687 60.8785 18.4425 60.848C18.1319 60.8133 17.7901 60.7868 17.4344 60.6472C17.3947 60.6243 17.3436 60.6211 17.3039 60.5982L17.2444 60.5638L17.1651 60.5181C17.0659 60.4608 16.9937 60.3797 16.9257 60.3142C16.7969 60.1479 16.7149 59.9693 16.6727 59.8136C16.564 59.475 16.515 59.1708 16.3849 58.9381C16.2421 58.6586 16.0681 58.3875 15.9055 58.0966C15.7585 57.8016 15.6072 57.491 15.5184 57.1639C15.4297 56.8367 15.375 56.4505 15.4934 56.0853C15.5448 55.9048 15.6359 55.7471 15.7312 55.605C15.8265 55.463 15.9416 55.3324 16.061 55.2173C16.2997 54.9872 16.5426 54.7727 16.7898 54.5738C16.8324 54.5458 16.899 54.5448 16.9273 54.5874C16.9712 54.6259 16.9683 54.6767 16.9299 54.7203Z" fill="#07453A"/>
<path d="M22.2408 61.5158C22.3813 61.9115 22.4243 62.3164 22.4517 62.7253C22.4749 63.1188 22.5023 63.5277 22.5566 63.9128C22.6695 64.6987 22.8601 65.4639 23.2177 66.1683C23.5597 66.8768 24.0333 67.5171 24.5764 68.1057C25.1194 68.6944 25.7205 69.251 26.2791 69.8356C26.3228 69.8739 26.3241 69.9401 26.2816 69.968C26.2433 70.0115 26.1925 70.0083 26.1487 69.9699L25.2301 69.1645C24.9239 68.8961 24.6177 68.6275 24.3228 68.3394C23.7331 67.7631 23.2044 67.1041 22.8187 66.3573C22.4329 65.6104 22.1943 64.7913 22.0886 63.9702C22.0258 63.554 21.9984 63.1451 21.971 62.7361C21.9436 62.3272 21.9515 61.9255 22.057 61.5146C22.0755 61.4598 22.1335 61.4278 22.1844 61.4309C22.2084 61.4579 22.2323 61.4848 22.2408 61.5158Z" fill="#07453A"/>
<path d="M31.4448 59.8174C31.6068 60.1074 31.671 60.4067 31.7198 60.71C31.7686 61.0134 31.8019 61.3209 31.8351 61.6284C31.9016 62.2435 31.9524 62.8626 31.9835 63.4703C32.0033 64.0977 32.0033 64.7137 31.968 65.3224C31.9171 65.9353 31.8351 66.5563 31.6824 67.1628C31.6639 67.2176 31.6058 67.2497 31.5507 67.231C31.4956 67.2123 31.4675 67.1699 31.4704 67.1192C31.5566 66.5136 31.5962 65.9204 31.5962 65.3044C31.6004 64.704 31.5849 64.0921 31.5226 63.4927C31.4759 62.8891 31.4095 62.2741 31.3317 61.6787C31.2984 61.3712 31.2497 61.0679 31.2051 60.78C31.1828 60.6361 31.1719 60.4726 31.1652 60.3245C31.1584 60.1765 31.163 60.0086 31.203 59.8482C31.2215 59.7934 31.2795 59.7614 31.3304 59.7645C31.3969 59.7635 31.4209 59.7905 31.4448 59.8174Z" fill="#07453A"/>
<path d="M20.963 61.7733C20.5459 62.0837 20.0991 62.2852 19.6127 62.4638C19.488 62.4968 19.3675 62.5454 19.2427 62.5784C19.118 62.6114 19.0088 62.6403 18.8529 62.6815C18.5949 62.7163 18.3525 62.747 18.1342 62.8047C18.0874 62.8171 18.0406 62.8294 18.0136 62.8532C17.998 62.8573 17.998 62.8574 17.9867 62.8771C17.9711 62.8812 17.9597 62.9009 17.9484 62.9206C17.8987 62.9838 17.873 63.0738 17.8516 63.1796C17.8087 63.391 17.7899 63.6294 17.7866 63.8638C17.7834 64.0981 17.8 64.3438 17.8052 64.6092C17.8062 64.8591 17.8072 65.109 17.8352 65.3351C17.8475 65.5653 17.8953 65.8028 17.9814 65.9968C18.0477 66.1794 18.2105 66.2865 18.4201 66.3811C18.6254 66.4603 18.8578 66.5156 19.0972 66.5356C19.3409 66.5713 19.5803 66.5913 19.8312 66.5917C20.3172 66.5966 20.8062 66.5507 21.2867 66.4736C21.7828 66.3925 22.2747 66.2958 22.7552 66.2188C22.802 66.2064 22.8615 66.2407 22.8784 66.303C22.8911 66.3496 22.8569 66.4086 22.8101 66.421C22.3225 66.5332 21.8391 66.6611 21.3472 66.7578C20.8553 66.8545 20.3435 66.9398 19.8263 66.9431C19.5755 66.9427 19.3048 66.9309 19.0653 66.9108C18.8061 66.8793 18.5468 66.8479 18.2863 66.75C18.156 66.7011 18.0214 66.6365 17.8941 66.5368C17.7709 66.4526 17.6664 66.3136 17.5971 66.1818C17.4743 65.9141 17.4336 65.6413 17.3972 65.3841C17.3608 65.127 17.3598 64.8772 17.3588 64.6273C17.3422 64.3815 17.3256 64.1357 17.336 63.8661C17.335 63.6163 17.3454 63.3468 17.4026 63.0649C17.4311 62.924 17.4752 62.7788 17.586 62.6327C17.6088 62.5934 17.6358 62.5696 17.6741 62.5261C17.7011 62.5023 17.7394 62.4589 17.7819 62.431C17.8671 62.3751 17.9294 62.3586 18.0074 62.338C18.2881 62.2638 18.5348 62.2486 18.7729 62.2023C18.8665 62.1776 18.9912 62.1446 19.116 62.1117C19.2407 62.0787 19.3457 62.0341 19.4705 62.0012C19.9298 61.8464 20.4006 61.6718 20.8967 61.5907C20.9591 61.5742 21.0029 61.6127 21.0198 61.6749C21.0127 61.7101 20.99 61.7495 20.963 61.7733Z" fill="#07453A"/>
<path d="M23.7337 68.83C23.7578 68.8571 23.786 68.8996 23.8029 68.962C23.8071 68.9776 23.8114 68.9932 23.8114 68.9932L23.8156 69.0089L23.8198 69.0244C23.8283 69.0556 23.8367 69.0868 23.8452 69.1179C23.8621 69.1803 23.879 69.2427 23.8959 69.3051C23.9297 69.4299 23.9792 69.5505 24.0286 69.6711C24.0781 69.7917 24.1275 69.9123 24.1883 70.0132C24.2533 70.1297 24.2973 70.1682 24.3767 70.214C24.4519 70.2442 24.5582 70.2662 24.6604 70.2725C24.7782 70.2748 24.8918 70.2613 25.0168 70.2282C25.2553 70.1818 25.501 70.1 25.7028 69.9797C26.632 69.5163 27.4425 68.8002 28.3493 68.1923C28.8027 67.8883 29.2759 67.5957 29.8015 67.3729C29.9379 67.3201 30.0586 67.2715 30.1992 67.2343C30.3398 67.197 30.4762 67.1442 30.6054 67.1267L30.8127 67.0884L31.0242 67.0659C31.1534 67.0483 31.3138 67.0225 31.4316 67.0247C31.69 66.9897 31.964 66.9505 32.2423 66.927C32.3757 66.925 32.5205 66.9035 32.6738 66.913C32.8271 66.9226 32.9604 66.9206 33.142 66.9728C33.2328 66.9989 33.3279 67.0406 33.4043 67.1373C33.4525 67.1914 33.4849 67.2496 33.5018 67.3119L33.5146 67.3588L33.523 67.3899L33.5357 67.4368C33.5539 67.5657 33.5919 67.7059 33.5873 67.8743C33.5928 67.9564 33.5827 68.0427 33.5612 68.1487C33.5355 68.2391 33.4785 68.3377 33.3975 68.4093C33.251 68.5484 33.099 68.6054 32.9626 68.6582C32.4045 68.8228 31.8438 68.8543 31.3029 68.8973C30.7579 68.9247 30.2326 68.9636 29.7568 69.1231C29.281 69.2825 28.839 69.5668 28.4211 69.8781C28.0074 70.205 27.6021 70.563 27.1728 70.894C26.7435 71.225 26.2348 71.5102 25.7121 71.6821C25.4466 71.7524 25.181 71.8226 24.8872 71.8504C24.6131 71.8895 24.3108 71.886 24.0271 71.8275C23.7433 71.769 23.457 71.5774 23.2986 71.3018C23.1444 71.0418 23.111 70.7332 23.1172 70.4474C23.1235 70.1616 23.1851 69.8946 23.2623 69.6234C23.3108 69.4936 23.3593 69.3636 23.4234 69.2297C23.4576 69.1705 23.4918 69.1113 23.5218 69.0365L23.5446 68.9971C23.556 68.9774 23.583 68.9534 23.61 68.9295C23.6286 68.8745 23.7067 68.8539 23.7337 68.83ZM23.6666 69.0149C23.6594 69.0503 23.7034 69.0888 23.7034 69.0888C23.7034 69.0888 23.7033 69.0887 23.7076 69.1043L23.6848 69.1438C23.6506 69.203 23.6321 69.2581 23.5979 69.3173C23.5451 69.4315 23.4966 69.5614 23.4637 69.6871C23.3979 69.9385 23.3477 70.1857 23.3372 70.4559C23.3381 70.7064 23.3745 70.9642 23.4961 71.1659C23.6178 71.3677 23.8205 71.4979 24.0532 71.5532C24.5341 71.6598 25.0695 71.5348 25.5651 71.3868C26.0566 71.2231 26.5028 70.9544 26.9165 70.6276C27.3302 70.3007 27.7155 69.9312 28.1605 69.596C28.5898 69.265 29.0546 68.9414 29.6042 68.7456C30.6964 68.3894 31.8302 68.557 32.786 68.2537C32.8954 68.2247 32.9963 68.1647 33.0503 68.1169C33.0773 68.093 33.0887 68.0733 33.0958 68.0379C33.103 68.0026 33.1102 67.9673 33.109 67.9008C33.1148 67.7989 33.081 67.6742 33.0586 67.5297L33.0459 67.483L33.0375 67.4518C33.0375 67.4518 32.9978 67.4289 32.9623 67.4216C32.8715 67.3955 32.7495 67.3775 32.6317 67.3753C32.5139 67.3731 32.3804 67.375 32.2512 67.3925C31.9886 67.412 31.7303 67.4471 31.4562 67.4863C31.3072 67.4923 31.1978 67.5212 31.0686 67.5387L30.8727 67.5573L30.6811 67.5912C30.5519 67.6087 30.4311 67.6574 30.3062 67.6905C30.1812 67.7237 30.0604 67.7724 29.9397 67.8211C29.4567 68.0159 29.0105 68.2845 28.5769 68.5999C27.7014 69.1996 26.8753 69.9198 25.8921 70.431C25.6278 70.5679 25.3508 70.6579 25.0654 70.7167C24.9206 70.7384 24.7716 70.7444 24.6069 70.7546C24.4537 70.7451 24.2763 70.7086 24.1175 70.6169C24.0778 70.594 24.0381 70.5711 24.0098 70.5284C23.9701 70.5055 23.9419 70.4629 23.9136 70.4203C23.857 70.335 23.8202 70.2611 23.7877 70.2029C23.734 70.0667 23.696 69.9263 23.6579 69.786C23.6199 69.6456 23.6017 69.5168 23.5793 69.3723C23.578 69.3058 23.5569 69.2279 23.5556 69.1614C23.5628 69.126 23.5543 69.0948 23.5573 69.0439L23.5644 69.0085L23.5602 68.993C23.5999 69.0159 23.6396 69.0388 23.6666 69.0149Z" fill="#07453A"/>
<path d="M23.2871 70.2841C23.2439 70.6796 23.1525 71.0211 23.0809 71.374C23.0094 71.7268 22.9732 72.0869 23.0805 72.3591C23.2484 72.9158 24.189 72.8673 24.7641 72.5816C25.4172 72.2753 25.9883 71.7903 26.5155 71.2668C26.7812 71.0128 27.0584 70.7391 27.3199 70.4696C27.5814 70.2 27.8585 69.9263 28.1441 69.6837C28.1867 69.6558 28.2533 69.6548 28.2816 69.6974C28.3099 69.74 28.3071 69.791 28.2843 69.8304C27.7613 70.3695 27.2864 70.9626 26.7676 71.5172C26.2488 72.0719 25.6592 72.6121 24.9521 72.9661C24.8626 73.0065 24.7617 73.0665 24.6681 73.0913C24.5588 73.1202 24.4651 73.145 24.3714 73.1698C24.1643 73.2079 23.9685 73.2262 23.7528 73.2332C23.533 73.2245 23.3046 73.1848 23.0864 73.0589C22.8681 72.9329 22.7111 72.724 22.6363 72.5101C22.4824 72.0665 22.5371 71.6514 22.6116 71.2477C22.6431 71.0556 22.7059 70.8553 22.7927 70.682C22.8796 70.5088 22.9821 70.3314 23.1086 70.181C23.147 70.1375 23.2136 70.1366 23.2575 70.175C23.2702 70.2218 23.2943 70.2488 23.2871 70.2841Z" fill="#07453A"/>
<path d="M33.5041 67.9389C33.6439 68.0852 33.686 68.2405 33.697 68.4042C33.708 68.5678 33.7191 68.7315 33.7301 68.8951C33.7521 69.2224 33.7429 69.5581 33.6984 69.8863C33.6539 70.2146 33.5939 70.547 33.4786 70.8607C33.379 71.1702 33.2284 71.4765 33.0538 71.7559C33.0156 71.7993 32.9689 71.8117 32.9137 71.793C32.8741 71.7701 32.8615 71.7235 32.8644 71.6728C33.0679 71.0692 33.205 70.4667 33.2359 69.8422C33.2534 69.5377 33.2512 69.2218 33.2334 68.91C33.2224 68.7463 33.2156 68.5983 33.1891 68.4388C33.1781 68.2751 33.1712 68.1269 33.2734 67.9499C33.3075 67.8909 33.3854 67.8703 33.4447 67.9046C33.4801 67.9119 33.4843 67.9275 33.5041 67.9389Z" fill="#07453A"/>
<path d="M23.0596 72.6119C23.2282 72.6173 23.3314 72.69 23.4035 72.771C23.4756 72.8519 23.5675 72.9443 23.6396 73.0253C23.7994 73.1831 23.9634 73.3564 24.1387 73.5101C24.4894 73.8174 24.8472 74.0893 25.2476 74.3335C25.2872 74.3563 25.3041 74.4186 25.2856 74.4735C25.2629 74.5129 25.2161 74.5252 25.1652 74.522C24.681 74.4001 24.2452 74.1487 23.8478 73.8537C23.6568 73.7042 23.4617 73.5392 23.2821 73.3699C23.1944 73.2931 23.1025 73.2007 23.0262 73.1042C22.9343 73.0119 22.8736 72.9112 22.8781 72.7433C22.908 72.6687 22.9775 72.6169 23.0596 72.6119Z" fill="#07453A"/>
<path d="M22.4917 75.621C22.5343 75.593 22.557 75.5538 22.5996 75.5258L22.6962 75.4503L22.8778 75.3188C23.0056 75.235 23.1177 75.1552 23.2454 75.0714C23.4853 74.9079 23.745 74.7558 24.0287 74.6307C24.2969 74.5097 24.6005 74.3962 24.8855 74.3375C25.1862 74.2747 25.4599 74.2357 25.7251 74.1655C25.8499 74.1325 25.9861 74.0798 26.091 74.0354C26.2116 73.9868 26.3082 73.9112 26.4203 73.8315C26.6446 73.6721 26.8448 73.4857 27.0564 73.2797C27.268 73.0736 27.4838 72.883 27.7152 72.6884C27.9665 72.5052 28.2376 72.3335 28.561 72.2313C28.9156 72.1209 29.25 72.1825 29.5335 72.241C29.6752 72.2703 29.8127 72.284 29.9346 72.3018C30.0012 72.3009 30.0523 72.304 30.1189 72.3031C30.1855 72.3022 30.2479 72.2857 30.3146 72.2848C30.8619 72.2068 31.4236 72.0583 31.9853 71.9098L32.4066 71.7984C32.547 71.7613 32.6873 71.7242 32.8121 71.6912C33.0731 71.6055 33.3497 71.5156 33.5825 71.3873C33.6988 71.3232 33.8152 71.259 33.9273 71.1793C34.0238 71.1038 34.1474 71.0044 34.2553 70.9092L34.907 70.3532L34.9226 70.3491C35.0191 70.2735 35.1566 70.2871 35.2443 70.364C35.2486 70.3796 35.2684 70.391 35.2726 70.4066C35.4436 70.7284 35.5282 71.0398 35.6326 71.3626C35.7213 71.6894 35.7902 72.0048 35.8321 72.344C35.8897 72.6791 35.9119 73.007 35.9184 73.339L35.935 73.5848C35.9321 73.6357 35.9447 73.6824 35.9773 73.7405C36.0224 73.8453 36.1186 73.9533 36.2191 74.0769C36.3351 74.1963 36.447 74.3003 36.5559 74.455C36.6083 74.5246 36.6647 74.6097 36.7213 74.6948C36.7496 74.7374 36.7623 74.7841 36.775 74.8308C36.7877 74.8775 36.816 74.9201 36.8287 74.9668C36.9415 75.3207 36.9366 75.6723 36.9389 75.9887C36.9412 76.3051 36.9705 76.5976 37.0778 76.8696C37.1851 77.1415 37.3434 77.4166 37.506 77.7073C37.6685 77.998 37.8082 78.328 37.8856 78.6746C37.9474 79.0253 37.9426 79.3768 37.8711 79.7294C37.7996 80.082 37.6531 80.4044 37.4782 80.6842C37.383 80.8262 37.2878 80.9681 37.1727 81.0987C37.1074 81.166 37.0306 81.2529 36.9455 81.3088C36.8603 81.3647 36.771 81.4051 36.6774 81.4299C36.3072 81.5444 35.9811 81.5138 35.6564 81.5496C35.343 81.5657 35.0183 81.6015 34.7177 81.6644C34.417 81.7272 34.105 81.8096 33.817 81.9191C33.5177 82.0483 33.1985 82.1662 32.8907 82.2642C32.2793 82.4759 31.6552 82.6409 31.1202 82.9492C30.8605 83.1013 30.5979 83.3041 30.307 83.4645C30.0203 83.6404 29.6742 83.782 29.3098 83.7949C28.961 83.8037 28.618 83.7108 28.2865 83.5982C27.9705 83.4816 27.666 83.3453 27.3728 83.1893C27.0796 83.0332 26.7864 82.8772 26.5017 82.7523C26.2169 82.6274 25.9094 82.5419 25.5977 82.4408C25.286 82.3397 24.97 82.223 24.6683 82.0358C24.3667 81.8486 24.1346 81.6097 23.9139 81.3511C23.6931 81.0925 23.5419 80.782 23.4376 80.4592C23.3176 80.1406 23.2643 79.8211 23.1954 79.5057C23.1265 79.1902 23.0575 78.8748 22.9574 78.5676C22.8729 78.2563 22.7883 77.9451 22.7151 77.6141C22.6462 77.2986 22.573 76.9675 22.5353 76.6438C22.5086 76.4841 22.4975 76.3202 22.4865 76.1563C22.4809 76.0743 22.4755 75.9923 22.4699 75.9104C22.4842 75.8399 22.4858 75.7226 22.4917 75.621ZM22.6701 75.724C22.6871 75.7863 22.6841 75.8371 22.6896 75.9191C22.6952 76.001 22.7007 76.083 22.7063 76.1649C22.7173 76.3288 22.744 76.4885 22.7508 76.6369C22.7885 76.9606 22.8575 77.2761 22.9378 77.5718C23.0068 77.8872 23.1069 78.1944 23.1914 78.5057C23.2916 78.8129 23.3647 79.1439 23.4336 79.4593C23.5026 79.7747 23.5715 80.0902 23.683 80.3777C23.7945 80.6652 23.9372 80.9445 24.1339 81.1761C24.3306 81.4077 24.5741 81.6269 24.8204 81.7953C25.0824 81.9596 25.3786 82.0648 25.6861 82.1504C25.9936 82.2359 26.3208 82.3329 26.6212 82.4536C26.9414 82.5859 27.219 82.746 27.508 82.8865C27.7969 83.027 28.0859 83.1675 28.382 83.2727C28.6782 83.3779 28.9815 83.4479 29.2792 83.4359C29.5613 83.4281 29.8295 83.3071 30.1048 83.1509C30.3645 82.9988 30.6271 82.796 30.9138 82.6201C31.507 82.2797 32.1466 82.1105 32.758 81.8988C33.0658 81.8008 33.3538 81.6913 33.6531 81.5621C33.9681 81.4288 34.2958 81.3421 34.6276 81.2711C34.9595 81.2 35.2842 81.1642 35.6132 81.1439C35.9379 81.1081 36.2752 81.119 36.5362 81.0333C36.5986 81.0168 36.6568 80.9847 36.715 80.9526C36.7732 80.9206 36.7959 80.8812 36.8499 80.8336C36.9494 80.7072 37.0332 80.5849 37.117 80.4627C37.2805 80.2026 37.3888 79.9238 37.446 79.6417C37.5032 79.3597 37.505 79.0588 37.4403 78.7589C37.3798 78.4746 37.2683 78.1872 37.11 77.912C36.9673 77.6328 36.7892 77.3463 36.6494 77.0162C36.5873 76.8491 36.5408 76.6778 36.5099 76.5024C36.479 76.3271 36.4836 76.1591 36.4725 75.9952C36.466 75.6633 36.4679 75.3625 36.3762 75.0865C36.3382 74.9464 36.293 74.8415 36.1968 74.7335C36.1005 74.6254 36.0001 74.5019 35.884 74.3825C35.768 74.263 35.6435 74.1124 35.5616 73.9338C35.5206 73.8445 35.4868 73.72 35.4927 73.6184L35.476 73.3725C35.4581 73.0603 35.4402 72.7481 35.3869 72.4285C35.3378 72.1245 35.2844 71.8048 35.2041 71.5091C35.1238 71.2133 35.0237 70.9063 34.8852 70.6426L35.2353 70.7001L34.5722 71.2758C34.4643 71.3711 34.3564 71.4664 34.2329 71.5658C34.1094 71.6652 33.9619 71.7375 33.8341 71.8213C33.2907 72.0984 32.6936 72.2397 32.1319 72.3882C31.5702 72.5367 31.0086 72.6851 30.4144 72.7755C30.3322 72.7805 30.2697 72.7972 30.1875 72.8022C30.1053 72.8073 30.023 72.8123 29.9365 72.8018C29.7679 72.7963 29.6262 72.7671 29.4845 72.7379C29.2053 72.6949 28.9459 72.6633 28.7274 72.721C28.248 72.8645 27.8361 73.257 27.4087 73.6536C27.1929 73.8441 26.9814 74.0503 26.7146 74.2376C26.5868 74.3214 26.4434 74.4093 26.2959 74.4817C26.1483 74.5541 25.9923 74.5954 25.8519 74.6325C25.5555 74.7109 25.2619 74.7384 24.9727 74.7816C24.699 74.8206 24.4337 74.8907 24.1769 74.9919C23.9202 75.0932 23.6521 75.2142 23.4038 75.3466C23.2718 75.4149 23.1554 75.4789 23.0234 75.5472L22.8333 75.6475C22.8021 75.6557 22.7595 75.6838 22.7439 75.6879C22.717 75.7117 22.6858 75.7199 22.6701 75.724Z" fill="#07453A"/>
<path d="M24.0022 81.675C23.7988 81.9125 23.5755 82.1386 23.419 82.3637C23.3849 82.4229 23.3508 82.4822 23.3436 82.5175C23.3322 82.5372 23.3436 82.5175 23.3436 82.5175L23.3478 82.533C23.3521 82.5486 23.3562 82.5643 23.3803 82.5913C23.4369 82.6765 23.5332 82.7846 23.6409 82.8731C23.7485 82.9615 23.8761 83.0613 23.988 83.1654C24.1155 83.2653 24.2232 83.3536 24.3507 83.4535C24.5859 83.6419 24.8325 83.8106 25.0947 83.9751C25.5992 84.2925 26.1422 84.5664 26.7067 84.7344C27.2711 84.9024 27.857 84.9644 28.4572 84.9558C29.6535 84.9232 30.8518 84.5894 32.1092 84.4737C33.378 84.3383 34.6306 84.5746 35.8184 84.5108C36.4144 84.4867 37.0007 84.365 37.5375 84.1226C37.6696 84.0543 37.8017 83.9859 37.9182 83.9217C38.0461 83.8377 38.1583 83.7578 38.2862 83.6739C38.5377 83.4904 38.7778 83.3266 38.974 83.1243C39.0124 83.0807 39.0622 83.0174 39.0849 82.9779C39.0735 82.9977 39.0921 82.9427 39.0752 82.8803C39.057 82.7515 39.0034 82.6154 38.9653 82.4752C38.9117 82.339 38.858 82.2029 38.7887 82.0708C38.7562 82.0126 38.7194 81.9389 38.6869 81.8807C38.6628 81.8536 38.6544 81.8224 38.6303 81.7953L38.602 81.7527C38.602 81.7527 38.5978 81.7372 38.5821 81.7413C38.5864 81.7569 38.6062 81.7683 38.6218 81.7641C38.6374 81.76 38.6218 81.7641 38.6374 81.76L38.6218 81.7641C38.6062 81.7683 38.575 81.7765 38.5437 81.7848C38.4813 81.8013 38.4074 81.8377 38.3449 81.8542C38.2086 81.907 38.0766 81.9754 37.9445 82.0437C37.6647 82.1846 37.4005 82.3213 37.1405 82.4737C36.6206 82.7784 36.0935 83.1183 35.5381 83.4156C34.9983 83.7089 34.3749 83.9408 33.7447 84.0241C33.1146 84.1074 32.486 84.0732 31.8562 83.9726C31.242 83.8679 30.6349 83.7279 30.0392 83.5682C29.9839 83.5495 29.9514 83.4913 29.9699 83.4363C29.9885 83.3813 30.0311 83.3533 30.0864 83.372C30.6935 83.512 31.2849 83.6562 31.8907 83.7297C32.4964 83.8032 33.1052 83.8258 33.6999 83.7352C34.2946 83.6446 34.8555 83.4293 35.3754 83.1246C35.8996 82.8355 36.4068 82.4841 36.9381 82.1597C37.2095 81.9876 37.4893 81.8469 37.7535 81.7101C37.9012 81.6376 38.0333 81.5691 38.181 81.4966C38.2549 81.4604 38.3329 81.4397 38.4068 81.4034C38.4536 81.391 38.5005 81.3786 38.5473 81.3662C38.5786 81.3579 38.5942 81.3539 38.6453 81.3571C38.6651 81.3685 38.6807 81.3644 38.7162 81.3718C38.7517 81.3791 38.7913 81.4019 38.8112 81.4133C38.8352 81.4404 38.8551 81.4518 38.8792 81.4789L38.9273 81.533C38.9556 81.5756 38.9797 81.6026 38.9924 81.6494C39.0292 81.7232 39.0659 81.797 39.1026 81.8708C39.1761 82.0184 39.234 82.1701 39.2919 82.3218C39.3498 82.4736 39.3921 82.6294 39.4386 82.8008C39.4513 82.8476 39.4484 82.8985 39.4455 82.9494C39.4383 82.9847 39.4425 83.0002 39.4395 83.0511C39.4282 83.0708 39.4324 83.0865 39.4252 83.1218L39.4181 83.1571L39.4067 83.1768C39.3611 83.2557 39.2999 83.3388 39.2502 83.4021C39.0198 83.6635 38.7641 83.8314 38.5168 84.0305C38.3889 84.1144 38.2497 84.2181 38.1218 84.3021C37.9783 84.3902 37.8463 84.4586 37.6985 84.5311C37.1035 84.8055 36.4703 84.9398 35.8274 84.9763C34.5573 85.0452 33.3246 84.8202 32.1381 84.9505C30.9317 85.0694 29.7377 85.4187 28.4591 85.4565C27.8276 85.4733 27.1751 85.4123 26.5553 85.2255C25.9356 85.0387 25.3571 84.7574 24.8285 84.4129C24.5663 84.2484 24.2956 84.0528 24.0604 83.8645C23.9329 83.7646 23.8211 83.6607 23.7092 83.5566C23.5973 83.4526 23.4697 83.3527 23.3536 83.2331C23.2375 83.1135 23.1213 82.9939 23.0237 82.8193C22.9954 82.7767 22.9785 82.7142 22.9772 82.6478C22.9687 82.6166 22.9759 82.5813 22.9675 82.5502C22.9746 82.5149 22.9776 82.464 22.989 82.4443C23.0417 82.3301 23.0915 82.2668 23.1413 82.2035C23.3602 81.9618 23.6075 81.7626 23.859 81.5791C23.9016 81.5511 23.9684 81.5503 23.9967 81.5929C24.0435 81.5805 24.0406 81.6314 24.0022 81.675Z" fill="#07453A"/>
<path d="M37.4895 80.3876C37.61 80.339 37.6808 80.3536 37.7288 80.4075C37.7726 80.4459 37.8207 80.4998 37.8801 80.5341C37.972 80.6264 38.0638 80.7189 38.1401 80.8153C38.3082 81.0041 38.4565 81.1814 38.6246 81.3702C38.6684 81.4086 38.6542 81.4791 38.6158 81.5226C38.5889 81.5464 38.5421 81.5588 38.5223 81.5474C38.2661 81.4653 38.0356 81.2929 37.8405 81.1279C37.7486 81.0356 37.6455 80.963 37.5578 80.8862C37.514 80.8478 37.4701 80.8094 37.4263 80.771C37.3825 80.7326 37.3501 80.6746 37.3829 80.5493C37.3775 80.4674 37.4313 80.4196 37.4895 80.3876Z" fill="#07453A"/>
<path d="M24.5636 84.2485C24.4144 84.4382 24.3048 84.6509 24.2264 84.8553C24.1523 85.0752 24.1093 85.2869 24.1217 85.5173C24.1422 85.9626 24.3542 86.3739 24.6515 86.7293C24.9331 87.0889 25.3041 87.4081 25.6866 87.7076C26.0648 87.9915 26.4856 88.2475 26.9292 88.464C27.1432 88.5744 27.3686 88.6651 27.5982 88.7713L28.2827 89.0742C28.7419 89.2867 29.1855 89.5032 29.6376 89.7509C29.8558 89.8769 30.074 90.0028 30.2922 90.1287L30.6138 90.3274C30.7329 90.3961 30.8405 90.4845 30.9283 90.5615C31.1196 90.7112 31.315 90.8766 31.5134 90.991C31.7003 91.1252 31.9101 91.2199 32.0789 91.2254C32.5186 91.2426 32.9784 91.0876 33.4142 90.9056C33.8656 90.7194 34.3043 90.4865 34.8152 90.3347C35.0607 90.253 35.3303 90.1984 35.5928 90.1791C35.8552 90.1597 36.1105 90.1756 36.3658 90.1916C36.8565 90.212 37.3473 90.2325 37.7362 90.0629C37.7788 90.0349 37.8256 90.0225 37.8838 89.9904L38.0273 89.9024C38.0699 89.8745 38.1238 89.8267 38.1664 89.7988C38.209 89.7708 38.263 89.7232 38.3056 89.6953C38.4832 89.5481 38.6325 89.3583 38.7661 89.1727C39.0448 88.7818 39.264 88.3566 39.4435 87.9085C39.6231 87.4603 39.7983 86.9967 39.9736 86.533L40.2032 85.8378L40.3101 85.4924L40.3615 85.3118L40.3873 85.2216L40.3944 85.1863L40.3902 85.1708L40.3944 85.1863C40.3618 85.1281 40.4295 85.3773 40.5586 85.3598L40.543 85.364C40.4721 85.3493 40.3742 85.3585 40.2805 85.3833C40.1869 85.4081 40.0776 85.4369 39.9726 85.4814C39.8675 85.5259 39.7583 85.5548 39.6688 85.5952C39.5638 85.6397 39.4588 85.6841 39.3538 85.7286C38.9648 85.8982 38.6012 86.1614 38.2376 86.4245C37.874 86.6876 37.4991 86.9704 37.0916 87.195C36.6841 87.4197 36.2087 87.5788 35.7264 87.5896C35.2441 87.6003 34.7749 87.474 34.3397 87.2886C33.9046 87.1032 33.5036 86.8587 33.1338 86.6059C32.7485 86.3573 32.3901 86.0848 32.0161 85.8164C31.6464 85.5637 31.2765 85.3109 30.857 85.1214C30.8017 85.1026 30.7848 85.0402 30.8033 84.9853C30.8219 84.9303 30.8844 84.9138 30.9397 84.9326C31.3592 85.1221 31.7602 85.3665 32.1342 85.6349C32.5195 85.8835 32.8779 86.1561 33.2633 86.4047C33.6487 86.6534 34.0256 86.8709 34.4409 87.0448C34.8562 87.2188 35.2815 87.3066 35.7127 87.2927C36.144 87.2788 36.5569 87.1361 36.929 86.9042C37.3052 86.6878 37.6646 86.4091 38.0282 86.146C38.3918 85.8829 38.7667 85.6002 39.1983 85.4025C39.3147 85.3384 39.4083 85.3135 39.5134 85.269C39.6184 85.2245 39.7235 85.1801 39.8285 85.1356C39.9336 85.0911 40.0584 85.0581 40.1833 85.0251C40.3082 84.9921 40.4373 84.9746 40.5947 84.9998L40.5792 85.0039C40.7083 84.9864 40.7801 85.2511 40.7475 85.193L40.7518 85.2086C40.756 85.2242 40.756 85.2242 40.7446 85.2439L40.7375 85.2791L40.719 85.3342L40.6933 85.4245L40.6419 85.605L40.5391 85.9661L40.3137 86.6766C40.1385 87.1404 39.9831 87.6156 39.7922 88.0834C39.6013 88.5513 39.3749 89.0118 39.0891 89.438C38.7834 89.8527 38.4025 90.2372 37.9014 90.4866C37.6487 90.6035 37.3593 90.6466 37.0969 90.666C36.8344 90.6853 36.5791 90.6694 36.3238 90.6534C36.0686 90.6375 35.833 90.633 35.6018 90.6441C35.3706 90.6551 35.1521 90.713 34.9222 90.7906C34.4737 90.9259 34.035 91.1586 33.568 91.3489C33.101 91.5392 32.5986 91.7222 32.0256 91.7069C31.6994 91.6763 31.4457 91.5431 31.2233 91.4016C31.0008 91.2601 30.8054 91.0948 30.6142 90.945C30.5108 90.8722 30.423 90.7953 30.3238 90.738L30.0064 90.5549C29.7882 90.429 29.5898 90.3145 29.356 90.1927C28.9238 89.9565 28.4801 89.7399 28.0252 89.5431L27.3406 89.24C27.1153 89.1493 26.8857 89.0431 26.6518 88.9213C26.1884 88.6933 25.7478 88.426 25.3497 88.1306C24.9318 87.8238 24.5523 87.4734 24.2381 87.0557C24.0811 86.8468 23.9353 86.6183 23.8479 86.3576C23.7448 86.1011 23.6885 85.8322 23.6989 85.5623C23.7093 85.2925 23.7864 85.0218 23.9031 84.7739C24.0241 84.5415 24.1848 84.3321 24.3695 84.1497C24.4079 84.1061 24.4745 84.1051 24.5184 84.1435C24.5893 84.1582 24.602 84.2049 24.5636 84.2485Z" fill="#07453A"/>
<path d="M38.7619 83.6753C38.898 83.6225 38.9886 83.6485 39.0678 83.6942C39.1471 83.7398 39.2305 83.8012 39.2983 83.8665C39.4496 83.9931 39.5853 84.1238 39.7054 84.2587C39.8255 84.3935 39.93 84.5324 40.0459 84.6517C40.1618 84.771 40.2819 84.9059 40.4133 85.021C40.4572 85.0594 40.4584 85.1258 40.4201 85.1693C40.3931 85.1931 40.3464 85.2056 40.3068 85.1827C40.137 85.111 39.9785 85.0197 39.8117 84.8972C39.6646 84.7862 39.5133 84.6594 39.3818 84.5443C39.2503 84.4291 39.1344 84.3099 38.9916 84.2144C38.9279 84.1646 38.8643 84.1147 38.7851 84.069C38.7214 84.0192 38.6578 83.9694 38.6313 83.8098C38.654 83.7704 38.7037 83.7073 38.7619 83.6753Z" fill="#07453A"/>
<path d="M32.4973 91.4493C32.6679 91.5871 32.741 91.7341 32.7872 91.9049L32.9413 92.4131C33.0492 92.7506 33.126 93.0963 33.2142 93.4223C33.291 93.768 33.3833 94.1096 33.4404 94.444C33.5017 94.7938 33.563 95.1436 33.6046 95.4821C33.6016 95.5328 33.5675 95.5917 33.5167 95.5886C33.4701 95.601 33.4264 95.5627 33.4138 95.5161L32.7902 93.5183L32.4863 92.5173L32.3363 92.0246C32.2902 91.8538 32.2595 91.6789 32.3221 91.4792C32.3364 91.4089 32.41 91.3727 32.4692 91.4069C32.462 91.4421 32.4776 91.4379 32.4973 91.4493Z" fill="#07453A"/>
<path d="M33.7769 91.2253C33.9277 91.3517 33.9853 91.5028 34.0117 91.6622L34.1066 92.1363C34.175 92.451 34.2435 92.7657 34.2964 93.0845C34.4177 93.7179 34.5236 94.3555 34.5827 95.0055C34.5798 95.0562 34.5457 95.1152 34.4949 95.1121C34.444 95.1089 34.4045 95.0862 34.3919 95.0396C34.2084 94.4226 34.0404 93.8015 33.8724 93.1804C33.7884 92.8699 33.72 92.5552 33.636 92.2447L33.5256 91.7747C33.4836 91.6194 33.4727 91.4559 33.555 91.2676C33.5891 91.2087 33.6626 91.1724 33.7218 91.2066C33.7571 91.2139 33.7571 91.2139 33.7769 91.2253Z" fill="#07453A"/>
<path d="M32.4412 92.2626C32.2751 92.39 32.0963 92.4706 31.9133 92.5357C31.7303 92.6007 31.543 92.6502 31.3714 92.6956C31.1842 92.7451 31.0126 92.7904 30.8409 92.8358C30.7629 92.8564 30.6735 92.8968 30.5955 92.9175L30.5373 92.9495L30.4635 92.9856C30.421 93.0136 30.3742 93.026 30.3274 93.0384C29.9656 93.1841 29.611 93.2945 29.2606 93.4205C29.0776 93.4856 28.9102 93.5465 28.7428 93.6074C28.5754 93.6684 28.3966 93.7491 28.2688 93.8329C28.2532 93.8371 28.2419 93.8567 28.2263 93.8608L28.2107 93.8649C28.2107 93.8649 28.1993 93.8846 28.2107 93.8649C28.2376 93.8411 28.222 93.8452 28.2263 93.8608C28.2305 93.8764 28.2191 93.896 28.2233 93.9116C28.209 93.9821 28.2032 94.0838 28.2087 94.1657C28.2084 94.3493 28.2081 94.5331 28.239 94.7084C28.2445 94.7904 28.2699 94.8837 28.2755 94.9657C28.2839 94.9968 28.2966 95.0436 28.2924 95.028C28.2924 95.028 28.2881 95.0124 28.2725 95.0165C28.2725 95.0165 28.2484 94.9894 28.2328 94.9936C28.2172 94.9977 28.2328 94.9936 28.2328 94.9936C28.2484 94.9894 28.2683 95.001 28.2683 95.001C28.4058 95.0147 28.5931 94.9652 28.7887 94.9468C28.8866 94.9376 29 94.9242 29.1261 94.9576C29.1616 94.9649 29.197 94.9723 29.2211 94.9993C29.2607 95.0222 29.2607 95.0221 29.3004 95.045C29.34 95.0679 29.3839 95.1064 29.4236 95.1292C29.5907 95.2519 29.7266 95.3829 29.8667 95.5294C30.1313 95.8265 30.3377 96.1556 30.513 96.493C30.5412 96.5356 30.5269 96.6061 30.4687 96.6381C30.4262 96.6661 30.3709 96.6473 30.3426 96.6047C30.1248 96.2952 29.907 95.9858 29.6551 95.7354C29.5192 95.6045 29.3875 95.4891 29.2445 95.3935C29.1808 95.3436 29.0816 95.2864 29.0504 95.2947C28.9994 95.2915 28.9171 95.2966 28.8349 95.3017C28.659 95.3315 28.4761 95.3965 28.2365 95.3765C28.2011 95.3691 28.1698 95.3774 28.1344 95.3701L28.1145 95.3585L28.0989 95.3627C28.0989 95.3627 28.0989 95.3627 28.0791 95.3513C28.0593 95.3398 28.0196 95.3169 27.9998 95.3054C27.98 95.294 27.9758 95.2785 27.9559 95.267C27.8994 95.1819 27.8867 95.1352 27.8698 95.0729C27.8402 94.964 27.8148 94.8705 27.8051 94.773C27.7699 94.5821 27.766 94.383 27.7621 94.1838C27.7679 94.0821 27.7582 93.9845 27.7754 93.8632C27.7825 93.8279 27.7783 93.8124 27.7855 93.7771C27.7926 93.7419 27.7998 93.7067 27.8496 93.6435C27.8879 93.6 27.8879 93.5999 27.8992 93.5802L27.9418 93.5523C27.9688 93.5285 27.9957 93.5047 28.0113 93.5005C28.1973 93.3846 28.3761 93.304 28.5591 93.2389C28.7379 93.1583 28.9209 93.0933 29.0883 93.0323C29.4387 92.9063 29.8047 92.7761 30.1509 92.6346C30.1977 92.6222 30.2402 92.5943 30.2714 92.5861L30.4076 92.5333C30.5126 92.4888 30.6063 92.464 30.6956 92.4237C30.8786 92.3586 31.0658 92.3092 31.2573 92.2752C31.6317 92.1762 31.9877 92.1322 32.372 92.1307C32.4386 92.1298 32.4825 92.1682 32.4838 92.2346C32.4753 92.2035 32.4682 92.2388 32.4412 92.2626Z" fill="#07453A"/>
<path d="M28.6398 97.2871C29.1555 96.9669 29.7206 96.7673 30.2742 96.5874C30.8322 96.4231 31.4015 96.239 31.9551 96.0591C33.0583 95.6836 34.1488 95.2613 35.0977 94.626L35.2683 94.5142C35.3265 94.4821 35.3649 94.4385 35.4189 94.3908C35.5113 94.2996 35.5994 94.1927 35.6876 94.0858C35.8639 93.8722 36.0276 93.6117 36.2664 93.3815C36.4896 93.1554 36.7609 92.9834 37.0406 92.8426C37.1727 92.7742 37.3247 92.7172 37.461 92.6645C37.5973 92.6117 37.7534 92.5703 37.8897 92.5176L37.9991 92.4886L38.0615 92.4721C38.0927 92.4638 38.124 92.4557 38.1438 92.4671L38.2573 92.4537L38.2886 92.4455L38.2729 92.4496C38.2573 92.4537 38.246 92.4735 38.2304 92.4777C38.219 92.4974 38.2075 92.517 38.2004 92.5523C38.189 92.572 38.1975 92.6031 38.1975 92.6031C38.1975 92.6031 38.206 92.6344 38.2017 92.6188L38.1975 92.6031L38.1692 92.5606C38.1607 92.5294 38.1409 92.518 38.1168 92.4909C38.0927 92.4639 38.0729 92.4524 38.0488 92.4254C38.0248 92.3984 38.0049 92.3869 37.9808 92.3599C37.7853 92.1945 37.5004 92.0694 37.2466 91.9362C37.112 91.8716 36.9731 91.7915 36.8456 91.6916C36.7818 91.6417 36.7138 91.5762 36.6657 91.5221L36.6332 91.4639L36.6091 91.4368L36.6049 91.4213L36.6007 91.4057C36.5964 91.3902 36.5837 91.3434 36.5837 91.3434L36.5867 91.2925C36.5938 91.2572 36.5896 91.2416 36.6009 91.2219C36.641 91.0609 36.6895 90.9313 36.7494 90.7818C36.7978 90.6521 36.8733 90.4984 36.9104 90.3884L36.9062 90.3728C36.9247 90.3178 36.9872 90.3012 37.0425 90.32C37.0978 90.3387 37.1147 90.4012 37.1076 90.4365C37.0676 90.5974 37.0148 90.7115 36.955 90.861C36.9065 90.9907 36.8622 91.1361 36.8449 91.2576C36.8492 91.2732 36.8378 91.2928 36.8378 91.2928C36.8378 91.2928 36.8378 91.2928 36.8421 91.3084L36.8378 91.2928L36.8901 91.3624C36.934 91.4009 36.9822 91.455 37.0261 91.4935C37.1296 91.5663 37.2486 91.6351 37.3833 91.6997C37.637 91.833 37.9291 91.9226 38.1884 92.1379C38.2281 92.1608 38.2521 92.188 38.2762 92.215C38.3003 92.242 38.34 92.2648 38.3683 92.3074C38.3924 92.3344 38.4207 92.3771 38.4447 92.4041L38.4773 92.4624L38.5014 92.4895C38.5014 92.4895 38.5098 92.5206 38.514 92.5362C38.5183 92.5518 38.5267 92.5829 38.5196 92.6182C38.5124 92.6535 38.5053 92.6888 38.4783 92.7127C38.4669 92.7324 38.4398 92.7563 38.4242 92.7604C38.4086 92.7645 38.393 92.7686 38.3816 92.7883L38.3503 92.7966C38.3191 92.8049 38.2879 92.8131 38.2723 92.8173L38.1588 92.8307C38.1432 92.8348 38.1431 92.8348 38.1275 92.8389L38.0807 92.8513L37.9714 92.8802C37.8351 92.933 37.6945 92.9701 37.5738 93.0187C37.4375 93.0715 37.3211 93.1357 37.189 93.2041C36.9404 93.3367 36.716 93.4964 36.5312 93.6789C36.3506 93.877 36.1784 94.1062 36.0106 94.351C35.9266 94.4735 35.8271 94.6001 35.7077 94.7152C35.6579 94.7784 35.5883 94.8303 35.5187 94.8821L35.3369 95.0138C34.3339 95.6967 33.2164 96.1429 32.0976 96.5224C31.5325 96.7221 30.9746 96.8864 30.4209 97.0663C29.8672 97.2462 29.3051 97.395 28.7104 97.4855C28.6636 97.4979 28.604 97.4635 28.5871 97.4012C28.59 97.3503 28.6128 97.311 28.6398 97.2871Z" fill="#07453A"/>
<path d="M37.5283 90.3388C37.7335 90.6016 37.95 90.8448 38.1637 91.1388C38.2684 91.278 38.3617 91.4369 38.4551 91.5959C38.5526 91.7704 38.5878 91.9614 38.6343 92.1327C38.6808 92.304 38.7032 92.4482 38.7526 92.5687C38.8021 92.6891 38.8983 92.7973 39.003 92.9365C39.1035 93.0602 39.2394 93.1911 39.3327 93.3501C39.3893 93.4352 39.4459 93.5203 39.4755 93.6293C39.4925 93.6916 39.5051 93.7384 39.5136 93.7696C39.5263 93.8163 39.5389 93.8629 39.536 93.9138C39.602 94.2802 39.5972 94.632 39.5767 94.9879C39.5406 95.348 39.4847 95.6966 39.3621 96.0461C39.3364 96.1364 39.2909 96.2153 39.2496 96.3096C39.2083 96.404 39.1472 96.4869 39.1017 96.5657C38.9752 96.716 38.8445 96.8508 38.6897 96.9585C38.4 97.1853 38.0735 97.3383 37.7428 97.4759C36.4627 97.998 35.136 98.3489 33.8292 98.7113C33.1779 98.9002 32.5223 99.0736 31.8795 99.2937C31.2324 99.4982 30.5739 99.7225 29.8816 99.8221L29.8661 99.8262L29.7057 99.8518L29.5142 99.8859L29.4163 99.8951L29.3653 99.8918L29.3298 99.8846L29.2944 99.8772L29.2788 99.8813C29.2788 99.8813 29.2433 99.8741 29.2391 99.8585C29.2193 99.8471 29.1995 99.8355 29.1952 99.8199C29.191 99.8044 29.191 99.8044 29.191 99.8044L29.1868 99.7889L29.1783 99.7577L29.15 99.7152C29.1416 99.684 29.1175 99.6569 29.109 99.6258C28.9946 99.389 28.9383 99.1201 28.9061 98.8783C28.8739 98.6364 28.8573 98.3904 28.8251 98.1486C28.7929 97.9067 28.7181 97.6929 28.6121 97.4872C28.5838 97.4447 28.5981 97.3741 28.6606 97.3576C28.7032 97.3296 28.7741 97.3442 28.791 97.4065C28.9168 97.6236 29.0043 97.8843 29.0521 98.122C29.1041 98.3753 29.1207 98.6212 29.1685 98.8589C29.2007 99.1008 29.2599 99.3188 29.3659 99.5244C29.3744 99.5556 29.3942 99.567 29.4026 99.5982L29.4267 99.6252L29.431 99.6409L29.4352 99.6564L29.431 99.6409C29.4267 99.6253 29.4069 99.6138 29.4069 99.6138C29.4026 99.5983 29.3714 99.6064 29.3714 99.6064L29.3871 99.6023L29.4182 99.594L29.5005 99.5891L29.6764 99.5592L29.7701 99.5344C29.8013 99.5261 29.8169 99.5221 29.8836 99.5212L29.868 99.5253C30.5206 99.4028 31.1592 99.167 31.8021 98.9469C32.4449 98.7269 33.092 98.5224 33.7589 98.3293C35.0573 97.9359 36.3599 97.558 37.6131 97.0597C38.212 96.8011 38.8096 96.476 38.9709 95.8992C39.075 95.6047 39.1237 95.2914 39.1527 94.9666C39.1816 94.6418 39.1751 94.3097 39.1104 94.0097C39.1019 93.9786 39.0892 93.9318 39.0807 93.9007C39.0723 93.8695 39.0596 93.8229 39.0554 93.8073C39.0385 93.745 39.006 93.6868 38.9579 93.6327C38.8772 93.5205 38.7611 93.401 38.6564 93.2618C38.5361 93.1267 38.4116 92.9761 38.3254 92.7819C38.2392 92.5877 38.2083 92.4123 38.1775 92.2369C38.1104 91.6203 37.622 91.1152 37.3735 90.4465C37.3608 90.3998 37.3751 90.3292 37.4376 90.3127C37.4646 90.2889 37.5 90.2962 37.5283 90.3388Z" fill="#07453A"/>
<path d="M34.1173 98.5691C34.5244 99.6427 34.8226 100.745 35.1166 101.832L35.5464 103.482C35.6976 104.041 35.8094 104.578 35.9719 105.117C36.1345 105.656 36.2971 106.196 36.4639 106.751C36.5508 107.01 36.6462 107.301 36.7063 107.585C36.7663 107.869 36.8264 108.152 36.8709 108.44C36.9155 108.728 36.9713 108.996 37.0271 109.264C37.0649 109.404 37.083 109.532 37.1208 109.672C37.1377 109.734 37.1586 109.811 37.1754 109.874C37.1839 109.905 37.1965 109.951 37.2049 109.982L37.2343 110.091C37.2721 110.231 37.2901 110.359 37.3279 110.499C37.3447 110.561 37.3616 110.623 37.3897 110.666C37.3939 110.681 37.3939 110.681 37.3939 110.681C37.3939 110.681 37.3939 110.681 37.3742 110.67C37.37 110.654 37.3346 110.647 37.3544 110.658L37.4489 110.7C37.6931 110.801 37.9486 110.883 38.2071 110.915C38.2735 110.914 38.3243 110.917 38.3907 110.916C38.4218 110.908 38.4415 110.919 38.4726 110.911L38.4882 110.907C38.4726 110.911 38.4571 110.915 38.4416 110.919C38.4105 110.927 38.3991 110.947 38.3878 110.967C38.3722 110.971 38.3764 110.986 38.3764 110.986C38.3651 111.006 38.3651 111.006 38.3764 110.986C38.3836 110.951 38.3979 110.881 38.3966 110.814C38.3954 110.748 38.4096 110.678 38.4084 110.612L38.4047 110.413C38.4034 110.347 38.4021 110.28 38.3853 110.218C38.3672 110.09 38.345 109.946 38.327 109.818C38.2266 109.262 38.0951 108.714 37.9636 108.167C37.6809 107.06 37.4179 105.965 37.1197 104.862C36.5274 102.673 35.7951 100.52 35.2297 98.3072C35.2171 98.2606 35.2511 98.2016 35.2977 98.1892C35.3444 98.1768 35.4037 98.2111 35.4163 98.2577C35.7301 99.3561 36.0553 100.435 36.4158 101.521C36.772 102.591 37.1324 103.677 37.4462 104.775C37.76 105.874 38.0428 106.981 38.3368 108.068C38.4839 108.611 38.6196 109.174 38.7241 109.746C38.7464 109.889 38.7686 110.033 38.7909 110.177C38.7963 110.259 38.8131 110.321 38.803 110.407L38.811 110.621C38.8122 110.688 38.8177 110.769 38.8034 110.84C38.7933 110.926 38.7945 110.992 38.7731 111.097C38.7659 111.133 38.7546 111.152 38.7361 111.207C38.7248 111.227 38.7092 111.231 38.6979 111.25C38.671 111.274 38.6596 111.294 38.613 111.306C38.5974 111.31 38.5663 111.319 38.5508 111.323L38.5352 111.327L38.5197 111.331C38.473 111.343 38.4377 111.336 38.3911 111.348C38.3091 111.354 38.2272 111.359 38.141 111.348C37.8162 111.318 37.5409 111.225 37.2573 111.1L37.1429 111.047C37.1429 111.047 37.1034 111.025 37.0795 110.998C37.0555 110.971 37.0358 110.959 37.0316 110.944C37.0076 110.917 36.9992 110.886 36.9753 110.859C36.9345 110.77 36.9135 110.692 36.8925 110.614C36.8505 110.459 36.8127 110.319 36.7946 110.191L36.7694 110.098C36.761 110.067 36.7568 110.051 36.7442 110.005C36.7232 109.927 36.7064 109.865 36.6854 109.787C36.6476 109.648 36.6098 109.508 36.5875 109.364C36.5275 109.08 36.4829 108.793 36.4271 108.524C36.367 108.241 36.3267 107.969 36.2553 107.705C36.1995 107.436 36.1125 107.177 36.0213 106.901C35.8432 106.366 35.6764 105.811 35.5139 105.272C35.3513 104.732 35.2114 104.154 35.0644 103.61L34.6346 101.96C34.3519 100.854 34.0889 99.7583 33.9151 98.6228C33.9025 98.5762 33.9366 98.5173 33.9988 98.5008C34.0652 98.4998 34.1047 98.5225 34.1173 98.5691Z" fill="#07453A"/>
</svg>
