<svg width="53" height="148" viewBox="0 0 53 148" fill="none" xmlns="http://www.w3.org/2000/svg">
<path d="M12.5309 85.4593C12.628 92.5143 12.7412 99.5852 12.547 106.656C12.4013 110.208 11.932 113.711 11.6569 117.215C11.5112 118.966 11.4304 120.734 11.4304 122.486C11.4466 124.237 11.5275 126.005 11.835 127.725L11.8835 128.046C11.8997 128.159 11.9321 128.255 11.9483 128.368L12.0939 129.01C12.1424 129.219 12.1749 129.444 12.2396 129.653L12.4176 130.28C12.547 130.698 12.6442 131.132 12.8384 131.485C13.0327 131.839 13.3239 132.144 13.6638 132.353C14.3597 132.787 15.2498 132.916 16.0914 132.835C16.5121 132.803 16.9491 132.723 17.3537 132.61C17.7745 132.498 18.1791 132.353 18.5675 132.16C18.9559 131.983 19.3443 131.775 19.7004 131.534C19.8784 131.421 20.0564 131.276 20.2183 131.148C20.3801 131.003 20.5582 130.875 20.7038 130.714C20.8656 130.569 21.0113 130.409 21.1408 130.248C21.2055 130.168 21.2703 130.087 21.335 129.991L21.4321 129.862L21.5291 129.734C21.7881 129.38 21.9824 129.01 22.1442 128.609L22.2574 128.303C22.2898 128.207 22.3222 128.095 22.3546 127.998L22.4031 127.837L22.4355 127.677L22.5002 127.355C22.5487 127.146 22.5649 126.921 22.6135 126.712C22.6459 126.504 22.6621 126.279 22.6783 126.07C22.743 125.202 22.743 124.334 22.6944 123.45C22.6135 121.698 22.387 119.931 22.387 118.147C22.387 116.379 22.4516 114.611 22.5326 112.843C22.6135 111.076 22.6944 109.324 22.7429 107.556C22.7915 105.789 22.7754 104.037 22.7107 102.269C22.5974 98.7496 22.4032 95.2141 22.5164 91.6625C22.565 89.8947 22.7106 88.127 22.9857 86.3592L23.0829 85.7004C23.1153 85.4754 23.1638 85.2664 23.2123 85.0414L23.3418 84.3826C23.3903 84.1576 23.4551 83.9487 23.5036 83.7397L23.6655 83.0969C23.714 82.888 23.795 82.663 23.8597 82.4541L24.0539 81.8113C24.1187 81.6024 24.1834 81.3773 24.2643 81.1845L24.7174 79.931L25.2192 78.6935C25.3001 78.4846 25.3972 78.2918 25.4781 78.0829L25.7533 77.4722C25.8504 77.2633 25.9313 77.0705 26.0284 76.8616L26.3197 76.2669C27.1127 74.676 27.9704 73.1332 28.8929 71.6065C30.7055 68.5692 32.6799 65.6122 34.5087 62.607L35.1885 61.466L35.852 60.3249L37.1467 58.0109L38.4092 55.6807C38.83 54.8932 39.2344 54.1217 39.6552 53.3343C41.2898 50.2005 42.8597 47.0346 44.3486 43.8205C47.3264 37.4083 50.013 30.8677 52.3435 24.1984C52.3597 24.1502 52.4244 24.118 52.473 24.1341C52.5215 24.1501 52.554 24.2145 52.5378 24.2627C50.2235 30.9481 47.5693 37.5048 44.6076 43.933C43.1349 47.1471 41.5651 50.329 39.9467 53.4628C39.5421 54.2502 39.1212 55.0217 38.7166 55.8092L37.4543 58.1394L36.1595 60.4535L35.4961 61.6106L34.8163 62.7517C32.9713 65.7729 31.013 68.7299 29.2004 71.7672C28.2941 73.2778 27.4364 74.8206 26.6434 76.3955L26.3521 76.9901C26.255 77.183 26.174 77.3919 26.0769 77.5848L25.8018 78.1794C25.7047 78.3722 25.6238 78.5811 25.5429 78.7901L25.0411 80.0114L24.588 81.2488C24.507 81.4577 24.4423 81.6667 24.3776 81.8756L24.1834 82.5023C24.1186 82.7112 24.054 82.9202 24.0054 83.1291L23.8436 83.7719C23.795 83.9808 23.7303 84.1898 23.6817 84.4147L23.5521 85.0576C23.5036 85.2665 23.4712 85.4915 23.4227 85.7004L23.3256 86.3432C23.0505 88.0788 22.9211 89.8305 22.8725 91.5983C22.7592 95.1178 22.9696 98.6372 23.0829 102.173C23.1476 103.94 23.1638 105.708 23.1153 107.476C23.0667 109.244 22.9857 111.011 22.9048 112.779C22.8238 114.547 22.7753 116.299 22.7753 118.066C22.7753 119.818 23.002 121.57 23.0829 123.338C23.1314 124.222 23.1475 125.121 23.0666 126.005C23.0504 126.23 23.0182 126.455 23.002 126.68C22.9696 126.905 22.9372 127.13 22.8886 127.339L22.8238 127.677L22.7916 127.837L22.7429 127.998C22.7106 128.111 22.6783 128.223 22.6459 128.335L22.5164 128.657C22.3384 129.075 22.1279 129.493 21.8528 129.862L21.7558 130.007L21.6424 130.135C21.5777 130.232 21.4968 130.312 21.4321 130.409C21.2702 130.569 21.1245 130.746 20.9627 130.907C20.8008 131.067 20.623 131.212 20.4449 131.357C20.2669 131.485 20.0888 131.646 19.8946 131.758C19.5224 132.016 19.1177 132.241 18.6969 132.433C18.2923 132.626 17.8555 132.787 17.4185 132.9C16.9815 133.028 16.5283 133.109 16.059 133.141C15.6058 133.173 15.1365 133.173 14.6672 133.076C14.2141 132.996 13.7447 132.835 13.3401 132.578C12.9355 132.321 12.5956 131.967 12.369 131.55C12.3043 131.453 12.2557 131.341 12.2233 131.228L12.1587 131.067L12.1102 130.907L11.9159 130.264L11.7217 129.621C11.6731 129.412 11.6245 129.187 11.576 128.962L11.4304 128.303C11.4142 128.191 11.3818 128.078 11.3656 127.982L11.3171 127.644C11.0096 125.893 10.9125 124.109 10.8964 122.325C10.8964 120.557 10.9772 118.773 11.1228 117.022C11.398 113.486 11.8512 109.983 11.9968 106.48C12.1101 102.96 12.1263 99.4245 12.1587 95.889L12.1911 90.5857C12.2073 88.818 12.2235 87.0502 12.272 85.2825C12.272 85.2342 12.3205 85.1861 12.369 85.1861C12.4823 85.3629 12.5309 85.4111 12.5309 85.4593Z" fill="#07453A"/>
<path d="M52.3432 24.407C52.1004 24.1017 51.7929 23.8446 51.4531 23.6197C51.1132 23.3947 50.7571 23.1856 50.4011 23.0088C49.6728 22.6392 48.9284 22.3018 48.1677 21.9964C47.4071 21.6911 46.6303 21.4019 45.8535 21.1447C45.0766 20.8715 44.2998 20.6144 43.5068 20.3894L43.7818 20.2769C42.2767 22.9124 40.804 25.5642 39.396 28.2479C38.6839 29.5818 38.0042 30.9317 37.3245 32.2977C36.6609 33.6637 36.0135 35.0296 35.4309 36.4277C33.1651 42.0524 31.1745 47.7897 28.8279 53.3983C27.6464 56.1946 26.4003 58.9747 24.9761 61.6585L24.4419 62.671C24.2639 63.0085 24.0698 63.3298 23.8917 63.6673C23.5195 64.3262 23.1472 65.0012 22.7265 65.6279C21.9011 66.9136 21.011 68.151 20.0885 69.3563C18.2597 71.783 16.3661 74.1775 14.8933 76.8131C14.5211 77.472 14.1813 78.1469 13.8738 78.8379C13.5825 79.529 13.3074 80.2361 13.097 80.9593C12.8866 81.6824 12.7247 82.4217 12.6276 83.161C12.5305 83.9002 12.482 84.6555 12.4981 85.4108C12.4981 85.4591 12.4496 85.5072 12.4011 85.5072C12.3525 85.5072 12.3039 85.4591 12.3039 85.4108C12.2877 84.6555 12.3201 83.8841 12.4172 83.1288C12.5143 82.3735 12.6762 81.6181 12.8866 80.8949C13.097 80.1557 13.3559 79.4487 13.6634 78.7416C13.9709 78.0345 14.3108 77.3594 14.6669 76.6844C16.1396 74.0006 18.033 71.5901 19.8295 69.1634C20.7358 67.9421 21.626 66.7207 22.4352 65.435C22.8398 64.7922 23.2119 64.1495 23.5842 63.4746C23.7622 63.1371 23.9565 62.8156 24.1345 62.4782L24.6685 61.4658C26.0765 58.782 27.3065 56.0177 28.4879 53.2214C30.8184 47.6289 32.7928 41.8918 35.0424 36.235C35.625 34.8208 36.2563 33.4387 36.936 32.0727C37.5995 30.7067 38.2955 29.3568 38.9914 28.0069C40.3994 25.307 41.8559 22.6554 43.3611 20.0038C43.4096 19.9074 43.5391 19.8591 43.6362 19.8913C44.4292 20.1323 45.2222 20.3894 45.999 20.6786C46.7759 20.9679 47.5527 21.2572 48.3133 21.5947C49.074 21.9322 49.8185 22.2857 50.5468 22.6874C50.9029 22.8964 51.2589 23.1215 51.5988 23.3786C51.9386 23.6357 52.2623 23.9089 52.4889 24.2785C52.5213 24.3267 52.5051 24.391 52.4565 24.4232C52.4403 24.4714 52.3917 24.4552 52.3432 24.407Z" fill="#07453A"/>
<path d="M12.547 82.5341L12.2234 80.3968L12.013 79.336L11.8997 78.8057C11.8673 78.6289 11.8351 78.4522 11.7865 78.2754C11.4467 76.8773 11.0744 75.4792 10.5889 74.1293C9.6664 71.3973 8.50118 68.7617 7.27122 66.1422C6.05744 63.5227 4.82742 60.8872 3.80784 58.1712C3.56509 57.4802 3.30615 56.8051 3.07958 56.1141L2.75591 55.0695C2.64262 54.716 2.52943 54.3785 2.44851 54.0249L2.17336 52.9643C2.09244 52.6108 2.01152 52.2573 1.9306 51.9037L1.81728 51.3733L1.72024 50.843C1.65551 50.4894 1.59074 50.1358 1.52601 49.7662C1.31562 48.3359 1.15372 46.8897 1.05662 45.4433C0.9757 43.997 0.910996 42.5506 0.92718 41.0881C0.92718 40.365 0.943395 39.6418 0.959579 38.9186C0.991946 38.1954 1.00813 37.4723 1.0405 36.7491C1.10523 35.3027 1.20233 33.8564 1.28325 32.41C1.49364 29.5334 1.63929 26.6408 1.9306 23.7481C2.07625 22.3018 2.23809 20.8715 2.49703 19.4413C2.6265 18.7181 2.77222 18.0108 2.96642 17.3037C3.06352 16.9502 3.17668 16.5966 3.32233 16.2592C3.3547 16.1788 3.3871 16.0824 3.43565 16.0021L3.50045 15.8736L3.51657 15.8414C3.51657 15.8414 3.54897 15.8093 3.54897 15.7932C3.58134 15.745 3.6137 15.7289 3.62989 15.7129C3.72699 15.6486 3.80794 15.6003 3.90504 15.5682C3.98596 15.5199 4.083 15.4878 4.16392 15.4556C4.85982 15.1824 5.53959 14.9575 6.25168 14.7486C6.94757 14.5397 7.64338 14.3307 8.33928 14.1218C8.67913 14.0254 9.0029 13.8808 9.32658 13.7362L10.3137 13.2861C10.6536 13.1415 10.9934 12.9969 11.3333 12.8683C11.6893 12.7398 12.0455 12.6433 12.4339 12.5951C12.531 12.5951 12.628 12.5791 12.7252 12.5791L12.8707 12.5791L12.9031 12.5791C12.9193 12.5791 12.9354 12.579 12.9516 12.5951C12.984 12.6112 13.0165 12.6112 13.0488 12.6273C13.2916 12.7398 13.4048 12.9327 13.5019 13.0934C13.6961 13.4469 13.8094 13.8004 13.9065 14.154C14.1007 14.8611 14.214 15.5843 14.3111 16.3075C14.3597 16.6771 14.3921 17.0306 14.4244 17.4003C14.4406 17.577 14.4406 17.786 14.4406 17.9627L14.4244 18.509C14.4083 19.2322 14.3759 19.9554 14.3435 20.6786C14.1979 23.5713 13.9066 26.448 13.6477 29.3246C13.5182 30.771 13.3886 32.2012 13.2753 33.6475C13.1782 35.0939 13.065 36.5403 12.9355 37.9705C12.6928 40.8472 12.4177 43.7238 12.3206 46.6165C12.2396 49.4931 12.3205 52.3857 12.8546 55.2302C13.3725 58.0586 14.2464 60.8228 15.2336 63.5387C16.2208 66.2546 17.3051 68.9384 18.2276 71.6865C18.2438 71.7347 18.2114 71.799 18.1628 71.815C18.1143 71.8311 18.0496 71.7991 18.0334 71.7508C17.1109 69.0189 16.0104 66.335 15.007 63.6191C14.0036 60.9031 13.0973 58.1391 12.5794 55.2785C12.0454 52.418 11.9321 49.5092 12.013 46.6165C12.0939 43.7238 12.353 40.831 12.5957 37.9544C12.7252 36.508 12.8384 35.0779 12.9355 33.6315C13.0326 32.1852 13.1621 30.7387 13.2916 29.3085C13.5505 26.4318 13.8418 23.5552 13.9874 20.6786C14.0198 19.9554 14.0522 19.2323 14.0684 18.5252L14.0845 17.9787C14.0845 17.802 14.0845 17.6252 14.0684 17.4484C14.0522 17.0949 14.0037 16.7414 13.9713 16.3879C13.8742 15.6807 13.7609 14.9735 13.5829 14.2825C13.4858 13.945 13.3725 13.6076 13.2107 13.3183C13.1297 13.1736 13.0326 13.0452 12.9355 13.013C12.9193 13.013 12.9193 13.013 12.9031 13.013L12.887 13.013L12.8546 13.013L12.7413 13.013C12.6604 13.013 12.5794 13.029 12.4985 13.029C12.1587 13.0612 11.8188 13.1736 11.4951 13.2861C11.1552 13.3986 10.8316 13.5432 10.508 13.6879L9.52081 14.138C9.19714 14.2826 8.84103 14.4433 8.48499 14.5397C7.78909 14.7487 7.09313 14.9575 6.39723 15.1664C5.70134 15.3914 5.0055 15.6004 4.35815 15.8736C4.27723 15.9057 4.19632 15.9379 4.1154 15.9861C4.03448 16.0182 3.95359 16.0663 3.90504 16.0985C3.90504 16.0985 3.87258 16.1146 3.88876 16.1146C3.88876 16.1146 3.88876 16.0985 3.88876 16.1146L3.87264 16.1468L3.80784 16.2592C3.75929 16.3395 3.72705 16.4199 3.69469 16.5002C3.56522 16.8216 3.45184 17.1591 3.35473 17.4966C3.16053 18.1877 3.03109 18.8949 2.90162 19.602C2.65887 21.0162 2.49697 22.4463 2.35131 23.8927C2.07619 26.7693 1.91445 29.646 1.72024 32.5387C1.62314 33.9851 1.54222 35.4153 1.47749 36.8616C1.44512 37.5848 1.42894 38.308 1.39657 39.0311C1.38039 39.7543 1.36417 40.4775 1.36417 41.2007C1.34799 42.647 1.41269 44.0774 1.49361 45.5237C1.59071 46.954 1.75261 48.3843 1.963 49.8146C2.02773 50.1681 2.0925 50.5216 2.15724 50.8752L2.25427 51.4055L2.36759 51.9357C2.44851 52.2893 2.51324 52.6429 2.61035 52.9803L2.8855 54.0249C2.96642 54.3785 3.07961 54.716 3.1929 55.0535L3.51657 56.0821C3.74314 56.757 4.00208 57.4319 4.24484 58.1229C5.26441 60.8228 6.49443 63.4423 7.70821 66.0618C8.92198 68.6813 10.0872 71.349 10.9935 74.1131C11.4466 75.4952 11.8027 76.9094 12.1102 78.3236C12.1588 78.5004 12.1911 78.6771 12.2072 78.8539L12.3043 79.3844L12.4824 80.461C12.5795 81.1841 12.6442 81.9074 12.7252 82.6145C12.7252 82.6627 12.6927 82.727 12.628 82.727C12.5956 82.6306 12.547 82.5984 12.547 82.5341Z" fill="#07453A"/>
<path d="M15.9945 65.7566C17.3377 61.8354 18.8751 57.9946 20.186 54.0895C21.5131 50.1844 22.5003 46.1667 23.3419 42.133C24.1834 38.0993 24.8955 34.0174 25.6885 29.9515C25.8827 28.9391 26.0932 27.9267 26.2874 26.9143C26.3359 26.6572 26.3845 26.4161 26.4331 26.1589L26.5462 25.4036L26.7729 23.8769L27.6469 17.7379C27.9544 15.697 28.2456 13.6399 28.634 11.599C28.7311 11.0847 28.8283 10.5865 28.9901 10.0723C29.0063 10.008 29.0386 9.94382 29.0547 9.87953C29.0709 9.84739 29.071 9.81516 29.0871 9.78302L29.1357 9.67049C29.1519 9.63835 29.1843 9.60627 29.2005 9.57413C29.2328 9.54199 29.249 9.50991 29.2814 9.47777C29.3299 9.42956 29.3946 9.36521 29.4593 9.33307C29.6859 9.17237 29.9287 9.04374 30.1715 8.94732C31.1587 8.52948 32.1783 8.27236 33.1979 8.06344C33.7158 7.95094 34.2336 7.87065 34.7515 7.80637C35.2694 7.74209 35.8034 7.69385 36.3375 7.69385C36.5965 7.69385 36.8716 7.70998 37.1467 7.75819C37.2762 7.77426 37.4219 7.82251 37.5676 7.87072C37.6 7.88679 37.6323 7.90283 37.6809 7.9189C37.7133 7.93497 37.7456 7.95094 37.7779 7.98309C37.8103 8.01523 37.8426 8.04746 37.875 8.0796L37.9398 8.15996C38.2635 8.626 38.4091 9.15623 38.5062 9.67049C38.6842 10.7151 38.7328 11.7597 38.6681 12.8042C38.5871 13.8488 38.4252 14.8774 38.1987 15.8898C37.7455 17.9147 37.0982 19.8914 36.4832 21.8681C36.1757 22.8484 35.8845 23.8448 35.6255 24.8411L35.4474 25.5965L35.3018 26.3518C35.2533 26.609 35.2048 26.8499 35.1724 27.107C35.1238 27.3641 35.0914 27.6214 35.0591 27.8785C34.4279 31.9604 34.2175 36.0904 33.6834 40.2045C33.6834 40.2527 33.6187 40.3009 33.5701 40.2848C33.5216 40.2848 33.473 40.2207 33.4892 40.1725C33.9909 36.0745 34.1851 31.9442 34.7839 27.8302C34.8163 27.5731 34.8649 27.316 34.8972 27.0588C34.9458 26.8017 34.9781 26.5446 35.0267 26.2875L35.1724 25.5161L35.3504 24.7608C35.5931 23.7483 35.8845 22.752 36.1919 21.7717C36.7908 19.795 37.4219 17.8183 37.8589 15.8095C38.0854 14.8131 38.2311 13.7847 38.312 12.7722C38.3767 11.7598 38.3282 10.7312 38.1501 9.73484C38.053 9.23665 37.9074 8.75453 37.6485 8.36884L37.6 8.3045C37.5838 8.28843 37.5675 8.27239 37.5513 8.25632C37.5351 8.24025 37.519 8.22414 37.5028 8.22414C37.4866 8.20807 37.4543 8.19213 37.4381 8.19213C37.341 8.15999 37.2277 8.12775 37.0982 8.09561C36.8554 8.0474 36.6127 8.04743 36.3538 8.04743C35.8521 8.04743 35.3342 8.09567 34.8163 8.15996C34.2984 8.22424 33.7967 8.3206 33.295 8.41702C32.2916 8.62594 31.2719 8.88313 30.3495 9.28489C30.1229 9.38132 29.8963 9.49384 29.7021 9.63848C29.6536 9.67062 29.6212 9.70263 29.5727 9.75084C29.5565 9.76691 29.5403 9.78311 29.5241 9.79918C29.508 9.81525 29.4917 9.83123 29.4917 9.86337L29.4593 9.92771C29.4432 9.94378 29.4433 9.97593 29.4271 10.0081C29.4109 10.0723 29.3785 10.1205 29.3623 10.1848C29.2166 10.6669 29.1196 11.1811 29.0225 11.6793C28.6503 13.7042 28.359 15.7452 28.0515 17.8023L27.1936 23.9412L26.9671 25.484L26.8538 26.2553C26.8052 26.5124 26.7566 26.7695 26.7081 27.0267C26.4977 28.0391 26.3036 29.0516 26.1094 30.0641C25.3326 34.1299 24.6365 38.1957 23.795 42.2455C22.9534 46.2953 21.9824 50.3289 20.6391 54.2662C19.312 58.1874 17.7584 62.0284 16.1885 65.8532C16.1723 65.9014 16.1076 65.9335 16.0591 65.9013C16.0105 65.8531 15.9783 65.8048 15.9945 65.7566Z" fill="#07453A"/>
<path d="M20.8819 52.4175C20.7039 51.3086 20.5421 50.1837 20.4126 49.0748L20.3154 48.2391L20.2345 47.4036C20.1698 46.8411 20.1374 46.2787 20.0727 45.7162C19.8947 43.4663 19.7977 41.2163 19.7977 38.9504C19.7977 36.6845 19.9109 34.4346 20.1375 32.1848C20.3641 29.9349 20.7363 27.7011 21.1409 25.4833C21.5455 23.2656 21.9986 21.064 22.4032 18.8462C22.8078 16.6285 23.18 14.4108 23.4228 12.1769C23.4875 11.6145 23.5361 11.068 23.5685 10.5055C23.6009 10.2323 23.6008 9.94305 23.617 9.66985L23.6331 9.25208L23.6494 9.04319C23.6494 9.02712 23.6494 9.01108 23.6494 8.99501L23.6494 8.97885C23.6494 8.96278 23.6493 8.9468 23.6331 8.91466C23.6008 8.83431 23.5199 8.73785 23.4228 8.64143C23.3257 8.56108 23.2287 8.48072 23.1154 8.40037C22.8888 8.23967 22.646 8.11101 22.4032 7.98244C21.9177 7.72531 21.3998 7.48435 20.8819 7.27543C19.8461 6.84153 18.7781 6.45577 17.7099 6.08615C16.6418 5.71653 15.5574 5.36298 14.4893 5.04157L14.6511 4.97738C14.2951 5.55592 13.9714 6.16657 13.6801 6.79332C13.3888 7.42007 13.1461 8.06289 12.9357 8.72178C12.7253 9.38067 12.5635 10.0395 12.4502 10.7144L12.3693 11.2287L12.3208 11.743L12.3045 12.0001L12.3045 12.2573L12.2884 12.7716C12.2884 12.8198 12.2399 12.8679 12.1913 12.8679C12.1428 12.8679 12.0941 12.8198 12.0941 12.7716L12.0941 12.2411L12.0941 11.9841L12.1104 11.727L12.1589 11.2127L12.2398 10.6984C12.3531 10.0074 12.4987 9.3324 12.7091 8.65744C12.9195 7.99854 13.1622 7.33962 13.4373 6.6968C13.7286 6.05398 14.0361 5.44336 14.4084 4.83268C14.4407 4.78447 14.5055 4.75226 14.5702 4.76834C15.6545 5.08975 16.7389 5.42735 17.8232 5.7809C18.9076 6.13446 19.9757 6.52012 21.0276 6.95402C21.5617 7.17901 22.0795 7.4039 22.5812 7.66103C22.8401 7.7896 23.083 7.93426 23.3257 8.09497C23.4552 8.17532 23.5685 8.27177 23.6818 8.3682C23.7951 8.48069 23.9083 8.59325 23.9892 8.75395C24.0054 8.80217 24.0215 8.85028 24.0377 8.89849C24.0377 8.93064 24.0377 8.94671 24.0377 8.97885C24.0377 9.01099 24.0377 9.01105 24.0377 9.04319L24.0216 9.25208L24.0055 9.66985C23.9893 9.95912 23.9892 10.2324 23.9568 10.5217C23.9082 11.0842 23.876 11.6467 23.8112 12.2091C23.5847 14.459 23.2285 16.6927 22.8239 18.9104C22.4355 21.1281 21.9825 23.346 21.5779 25.5477C21.1733 27.7654 20.8172 29.9831 20.5906 32.2169C20.364 34.4507 20.2669 36.7006 20.2669 38.9344C20.2669 43.4341 20.7525 47.9018 21.0924 52.3855C21.0924 52.4337 21.0599 52.4818 20.9952 52.4978C20.9305 52.5139 20.8819 52.4657 20.8819 52.4175Z" fill="#07453A"/>
<path d="M30.042 9.09204C30.042 8.44922 30.0744 7.83851 30.0744 7.21176C30.0744 6.58501 30.0582 5.95823 30.0096 5.33148C29.9611 4.70473 29.8801 4.07804 29.7669 3.46736C29.6536 2.85668 29.5241 2.22996 29.3299 1.65142L29.4917 1.79596C28.2455 1.5067 26.9671 1.24969 25.7047 1.04078C24.4424 0.815789 23.1638 0.62288 21.8852 0.574668C21.5616 0.558598 21.2542 0.558535 20.9305 0.590676C20.623 0.622817 20.2992 0.655052 20.0565 0.767546C19.8137 0.88004 19.6033 1.10506 19.4576 1.36219C19.2958 1.61931 19.1826 1.90855 19.0855 2.21389C18.8912 2.8085 18.778 3.43519 18.6809 4.07801C18.5837 4.70476 18.5351 5.34764 18.4542 5.99046C18.4542 6.03867 18.4058 6.08688 18.3411 6.07081C18.2925 6.07081 18.2439 6.02257 18.2601 5.95829C18.3572 4.68872 18.4219 3.38695 18.7942 2.11737C18.8913 1.79596 19.0045 1.49075 19.1825 1.20148C19.3443 0.912212 19.5872 0.622849 19.927 0.462144C20.2669 0.301438 20.6068 0.269392 20.9305 0.237251C21.2703 0.20511 21.594 0.205078 21.9176 0.205078C23.2285 0.237219 24.5233 0.413932 25.8018 0.622849C27.0803 0.831765 28.3588 1.08892 29.6211 1.37819C29.7021 1.39426 29.7668 1.45861 29.783 1.52289C29.9772 2.14964 30.123 2.77627 30.2363 3.40302C30.3495 4.02977 30.4304 4.67265 30.4951 5.31547C30.5275 5.63688 30.5275 5.95829 30.5437 6.2797C30.5437 6.60111 30.5599 6.92252 30.5275 7.24393C30.4952 7.88675 30.3981 8.52954 30.2363 9.14022C30.2201 9.18843 30.1714 9.22063 30.1067 9.20456C30.0743 9.18849 30.042 9.14025 30.042 9.09204Z" fill="#07453A"/>
<path d="M13.8578 132.867C13.8739 133.381 13.8253 133.88 13.793 134.378C13.7444 134.876 13.7444 135.374 13.7606 135.888C13.7929 136.901 13.8739 137.929 13.8578 138.958L13.8415 139.344L13.8092 139.729C13.7931 139.986 13.7606 140.244 13.712 140.501C13.6149 141.015 13.5016 141.513 13.356 142.011C13.0647 142.992 12.7411 143.956 12.5631 144.952C12.5469 145.001 12.4984 145.049 12.4498 145.033C12.4013 145.017 12.3689 144.968 12.3689 144.92C12.4984 143.892 12.7896 142.895 13.0323 141.915C13.1618 141.417 13.259 140.935 13.3399 140.436C13.3722 140.195 13.4047 139.938 13.4047 139.697L13.4208 139.328L13.4208 138.942C13.437 137.929 13.3398 136.917 13.3075 135.888C13.2913 135.374 13.2914 134.86 13.3237 134.33C13.3561 133.815 13.4531 133.285 13.6796 132.803C13.6958 132.755 13.7607 132.723 13.8092 132.755C13.8416 132.803 13.8578 132.835 13.8578 132.867Z" fill="#07453A"/>
<path d="M15.4926 133.43C15.5897 133.783 15.5898 134.121 15.5898 134.474C15.5898 134.812 15.5898 135.165 15.6059 135.519C15.6221 136.21 15.6383 136.917 15.6221 137.624C15.6059 137.978 15.5736 138.331 15.525 138.685C15.4765 139.038 15.3955 139.376 15.3308 139.73C15.1851 140.404 15.0232 141.079 14.9747 141.77C14.9747 141.819 14.9263 141.867 14.8615 141.867C14.813 141.867 14.7643 141.819 14.7643 141.77C14.7481 141.063 14.8777 140.356 14.991 139.665C15.0557 139.328 15.1042 138.974 15.1365 138.637C15.1689 138.299 15.1852 137.962 15.1852 137.608C15.2014 136.917 15.1527 136.226 15.1365 135.535C15.1203 135.181 15.1204 134.828 15.1204 134.474C15.1204 134.121 15.1527 133.767 15.2984 133.43C15.3146 133.382 15.3794 133.349 15.4441 133.366C15.4603 133.366 15.4764 133.398 15.4926 133.43Z" fill="#07453A"/>
<path d="M16.6091 133.237C16.6739 133.526 16.7224 133.816 16.771 134.121C16.8195 134.41 16.8519 134.699 16.8843 135.005C16.949 135.599 17.0461 136.194 17.0947 136.789C17.1432 137.383 17.1593 138.01 17.1108 138.621C17.0622 139.231 16.9813 139.826 16.868 140.421C16.6576 141.61 16.3825 142.767 16.3016 143.94C16.2206 145.113 16.3501 146.318 16.3501 147.508C16.3501 147.556 16.3016 147.604 16.253 147.604C16.2045 147.604 16.156 147.556 16.156 147.508C16.0913 146.318 15.9294 145.129 15.9618 143.908C16.0103 142.687 16.2693 141.513 16.4473 140.34C16.5444 139.762 16.6252 139.167 16.6738 138.588C16.7223 138.01 16.6901 137.415 16.6415 136.837C16.593 136.242 16.4958 135.664 16.4149 135.069C16.334 134.474 16.3016 133.864 16.4149 133.253C16.4311 133.205 16.4797 133.157 16.5282 133.173C16.5768 133.157 16.6091 133.189 16.6091 133.237Z" fill="#07453A"/>
<path d="M18.9395 132.562C18.9719 132.819 18.9882 133.092 18.9882 133.35C18.9882 133.607 18.9881 133.864 18.9719 134.121L18.9558 134.892L18.9558 135.664C18.9882 136.692 19.069 137.737 19.1662 138.765C19.2633 139.794 19.3927 140.838 19.506 141.867C19.6193 142.912 19.7326 143.94 19.7811 144.985C19.7811 145.033 19.7488 145.081 19.6841 145.097C19.6355 145.097 19.5869 145.065 19.5708 145.017C19.4413 143.988 19.2957 142.96 19.15 141.915C19.0044 140.887 18.8425 139.858 18.713 138.814C18.5997 137.769 18.5026 136.724 18.4703 135.68L18.454 134.892L18.4703 134.105C18.4864 133.848 18.5025 133.575 18.5349 133.317C18.5835 133.06 18.6321 132.803 18.713 132.546C18.7292 132.498 18.7939 132.466 18.8425 132.482C18.9072 132.482 18.9233 132.514 18.9395 132.562Z" fill="#07453A"/>
<path d="M20.4126 131.646C20.4935 131.807 20.5258 131.967 20.5581 132.112C20.5905 132.273 20.6068 132.433 20.6229 132.594L20.7039 133.558C20.7524 134.201 20.801 134.844 20.8496 135.487C20.882 136.13 20.9305 136.773 20.9466 137.415C20.9628 138.058 20.979 138.701 20.9628 139.344C20.9628 139.392 20.9143 139.44 20.8657 139.44C20.8172 139.44 20.7687 139.392 20.7687 139.344C20.7201 138.701 20.6716 138.058 20.6068 137.431C20.5583 136.789 20.4773 136.162 20.4126 135.519C20.3478 134.876 20.283 134.233 20.2183 133.607L20.1374 132.642C20.105 132.321 20.1051 132 20.2022 131.662C20.2184 131.598 20.2831 131.566 20.3316 131.582C20.3802 131.598 20.3964 131.614 20.4126 131.646Z" fill="#07453A"/>
<path d="M21.3186 130.537C21.5614 131.148 21.6748 131.79 21.7396 132.449C21.7881 133.092 21.8204 133.751 21.8366 134.394C21.869 135.68 21.8528 136.965 21.9499 138.235C22.0309 139.504 22.2412 140.774 22.4516 142.043C22.6621 143.313 22.8564 144.599 22.8726 145.9C22.8726 145.949 22.8239 145.997 22.7753 145.997C22.7268 145.997 22.6783 145.949 22.6783 145.9C22.5812 144.631 22.3546 143.361 22.1118 142.108C21.869 140.838 21.6262 139.569 21.5129 138.283C21.3996 136.981 21.4157 135.696 21.3672 134.41C21.351 133.767 21.3187 133.124 21.254 132.498C21.1893 131.871 21.1406 131.228 21.1244 130.585C21.1244 130.537 21.173 130.489 21.2216 130.473C21.2702 130.473 21.3025 130.489 21.3186 130.537Z" fill="#07453A"/>
<path d="M18.9881 138.058C19.0204 138.428 18.9556 138.782 18.8585 139.119L18.551 140.115C18.3568 140.774 18.1788 141.449 18.0979 142.108C18.017 142.783 18.0816 143.458 18.1626 144.149C18.2273 144.84 18.3245 145.547 18.2598 146.254C18.2598 146.303 18.2112 146.351 18.1464 146.351C18.0979 146.351 18.0493 146.303 18.0493 146.254C18.0331 145.563 17.9036 144.889 17.8065 144.197C17.6932 143.506 17.5962 142.799 17.6609 142.076C17.7257 141.353 17.8874 140.662 18.0816 139.987L18.3729 138.975C18.47 138.637 18.5833 138.316 18.7775 138.01C18.8099 137.962 18.8747 137.946 18.9233 137.978C18.9718 137.994 18.9881 138.026 18.9881 138.058Z" fill="#07453A"/>
<path d="M20.6066 134.667C20.6389 134.972 20.5903 135.245 20.5094 135.519C20.4285 135.792 20.3638 136.065 20.299 136.338C20.1858 136.884 20.1048 137.431 20.1048 137.977C20.1048 138.524 20.1534 139.086 20.1857 139.665C20.2181 140.227 20.2666 140.806 20.2343 141.384C20.2343 141.433 20.1858 141.481 20.1211 141.481C20.0726 141.481 20.0239 141.433 20.0239 141.384C19.9916 140.822 19.9107 140.259 19.8136 139.697C19.7327 139.134 19.6518 138.572 19.6356 137.977C19.6195 137.399 19.6842 136.804 19.7975 136.242C19.8622 135.952 19.9268 135.679 19.9915 135.406C20.0724 135.133 20.1697 134.86 20.3638 134.619C20.3962 134.57 20.477 134.57 20.5094 134.603C20.5741 134.619 20.5904 134.651 20.6066 134.667Z" fill="#07453A"/>
<path d="M21.7234 136.419C21.9176 136.644 22.0147 136.901 22.0956 137.158C22.1765 137.415 22.2575 137.672 22.3546 137.929C22.5326 138.444 22.6944 138.974 22.8562 139.504C22.9372 139.777 23.002 140.035 23.0829 140.308C23.1476 140.581 23.1961 140.854 23.2284 141.127C23.2932 141.674 23.3418 142.22 23.3741 142.767C23.3741 142.815 23.3418 142.863 23.2771 142.879C23.2286 142.879 23.18 142.847 23.1638 142.799C23.0505 142.252 22.9858 141.722 22.8725 141.192C22.824 140.935 22.7592 140.661 22.6783 140.404C22.5974 140.147 22.5164 139.89 22.4355 139.633C22.2575 139.119 22.0795 138.604 21.9015 138.074C21.8206 137.817 21.7234 137.56 21.6425 137.287C21.5615 137.029 21.4969 136.756 21.5454 136.451C21.5454 136.387 21.6101 136.354 21.6749 136.354C21.691 136.387 21.7072 136.403 21.7234 136.419Z" fill="#07453A"/>
<path d="M16.6419 134.008C16.8199 134.121 16.9168 134.266 16.9978 134.426L17.2244 134.908C17.3701 135.23 17.5157 135.567 17.629 135.905C17.7423 136.242 17.8394 136.596 17.9041 136.965C17.9527 137.335 17.9689 137.689 17.9365 138.058C17.9365 138.106 17.888 138.155 17.8232 138.155C17.7747 138.155 17.7422 138.106 17.726 138.058C17.6937 137.705 17.629 137.367 17.5481 137.046C17.4672 136.708 17.3539 136.387 17.2083 136.065C17.0788 135.744 16.9331 135.423 16.7874 135.101L16.5609 134.619C16.48 134.458 16.4314 134.282 16.4637 134.073C16.4799 134.008 16.5447 133.96 16.6095 133.976C16.6095 133.992 16.6257 133.992 16.6419 134.008Z" fill="#07453A"/>
<path d="M15.6543 136.981C15.8 137.11 15.8486 137.287 15.8809 137.447C15.8971 137.608 15.9133 137.785 15.9295 137.946C15.9456 138.283 15.9295 138.605 15.9295 138.926C15.8971 139.569 15.8485 140.195 15.8647 140.838C15.8647 140.886 15.8162 140.935 15.7676 140.935C15.7191 140.935 15.6706 140.903 15.6706 140.854C15.5087 140.212 15.5087 139.553 15.4925 138.91C15.4925 138.588 15.4763 138.267 15.4601 137.962C15.4439 137.801 15.4277 137.656 15.4116 137.496C15.3954 137.415 15.3954 137.335 15.4116 137.271C15.4116 137.19 15.4278 137.11 15.4763 137.013C15.5087 136.949 15.5734 136.933 15.6382 136.965C15.6382 136.965 15.6381 136.981 15.6543 136.981Z" fill="#07453A"/>
<path d="M16.2369 143.249C16.2692 143.474 16.2045 143.651 16.1235 143.812L15.8808 144.31C15.719 144.648 15.5571 144.985 15.4114 145.323C15.2658 145.66 15.1202 145.997 15.0069 146.351C14.8774 146.705 14.7804 147.058 14.6995 147.412C14.6833 147.46 14.6347 147.492 14.5699 147.492C14.5214 147.476 14.489 147.444 14.489 147.396C14.5052 147.01 14.5699 146.64 14.6508 146.271C14.7318 145.901 14.8613 145.531 14.9908 145.178C15.1202 144.824 15.2659 144.471 15.4277 144.133L15.6705 143.619C15.7514 143.458 15.8484 143.298 16.0426 143.169C16.0912 143.137 16.1721 143.153 16.2045 143.201C16.2206 143.217 16.2369 143.233 16.2369 143.249Z" fill="#07453A"/>
<path d="M13.7447 139.923C13.858 140.132 13.8904 140.325 13.8904 140.534C13.8904 140.743 13.9065 140.935 13.9065 141.144C13.9227 141.546 13.9389 141.948 13.955 142.35L14.0198 143.571C14.036 143.973 14.0522 144.391 14.0684 144.792C14.0684 144.841 14.0199 144.889 13.9713 144.889C13.9228 144.889 13.8741 144.857 13.8741 144.808C13.7932 144.407 13.7446 144.005 13.6799 143.603C13.6152 143.201 13.5667 142.8 13.5343 142.382C13.502 141.98 13.4533 141.562 13.4371 141.16C13.421 140.951 13.421 140.743 13.421 140.55C13.421 140.341 13.4372 140.132 13.5505 139.939C13.5828 139.891 13.6476 139.859 13.7123 139.891C13.7123 139.891 13.7285 139.907 13.7447 139.923Z" fill="#07453A"/>
<path d="M13.6314 134.844C13.6637 135.101 13.6152 135.342 13.5181 135.567L13.2592 136.242C13.0973 136.692 12.9031 137.126 12.7412 137.56C12.5794 137.994 12.4177 138.444 12.272 138.894C12.1263 139.344 12.013 139.794 11.932 140.26C11.9159 140.308 11.8673 140.356 11.8187 140.34C11.7702 140.324 11.7378 140.292 11.7378 140.244C11.754 139.762 11.8349 139.28 11.932 138.814C12.0291 138.348 12.1749 137.882 12.3205 137.432C12.4662 136.982 12.628 136.532 12.806 136.082L13.0488 135.423C13.0812 135.31 13.1296 135.198 13.1944 135.101C13.2591 135.005 13.3239 134.892 13.421 134.812C13.4696 134.764 13.5343 134.764 13.5829 134.812C13.6152 134.796 13.6314 134.812 13.6314 134.844Z" fill="#07453A"/>
<path d="M45.0931 20.7115C44.7532 21.4186 44.3809 22.1258 44.0249 22.8168L42.9407 24.922L40.7719 29.1164C39.3316 31.9126 37.9398 34.7411 36.6774 37.6177C34.1689 43.371 32.0811 49.3331 29.6211 55.1346C28.3911 58.0434 27.064 60.904 25.5751 63.6842C24.8145 65.0662 23.973 66.4161 23.0829 67.7178C22.1928 69.0195 21.254 70.2892 20.3153 71.5587C19.3766 72.8283 18.438 74.0818 17.564 75.3835C16.6901 76.6852 15.8809 78.0351 15.2174 79.4493C15.1364 79.6261 15.0555 79.8028 14.9746 79.9796C14.8937 80.1564 14.8129 80.3333 14.7481 80.5101C14.6025 80.8797 14.4567 81.2332 14.3272 81.6028C14.0521 82.3421 13.858 83.0974 13.6638 83.8527C13.3077 85.3794 13.1297 86.9381 13.0973 88.497C13.0973 88.5452 13.0488 88.5935 13.0003 88.5935C12.9517 88.5935 12.9031 88.5452 12.9031 88.497C12.9354 86.9221 13.0973 85.3472 13.4371 83.7884C13.6151 83.017 13.8255 82.2455 14.0845 81.5063C14.2139 81.1367 14.3597 80.7672 14.5054 80.3975C14.5863 80.2208 14.6671 80.0278 14.7318 79.8511C14.8128 79.6743 14.8937 79.4815 14.9746 79.3048C16.3017 76.4281 18.1953 73.8568 20.0564 71.3177C20.9951 70.0481 21.9176 68.7785 22.8077 67.4768C23.6978 66.175 24.5232 64.8412 25.2677 63.4591C26.7566 60.695 28.0675 57.8345 29.2813 54.9257C31.7089 49.1243 33.7804 43.1781 36.2889 37.3767C37.5513 34.484 38.927 31.6396 40.3673 28.8433C41.0956 27.4451 41.8239 26.047 42.6007 24.6649L43.7499 22.6078C44.1383 21.9328 44.5267 21.2419 44.9313 20.567C44.9636 20.5187 45.0283 20.5026 45.0768 20.5348C45.1092 20.6151 45.1255 20.6794 45.0931 20.7115Z" fill="#07453A"/>
<path d="M46.9056 21.466C46.2097 22.9927 45.5786 24.5356 44.9636 26.0783C44.3486 27.6372 43.7335 29.1959 43.0376 30.7226C42.6978 31.494 42.3256 32.2493 41.9371 33.0047C41.5487 33.76 41.1441 34.4831 40.7234 35.2224C39.8818 36.6848 39.0241 38.1151 38.1663 39.5454C36.4508 42.422 34.8162 45.3309 33.6185 48.4485C32.4047 51.5501 31.4985 54.7803 30.3332 57.9302C29.7506 59.5051 29.1032 61.0639 28.3264 62.5584C27.5495 64.053 26.6594 65.4832 25.7369 66.8813C23.892 69.6937 21.9014 72.3936 20.0888 75.206C18.2762 78.0183 16.6254 80.9431 15.5411 84.093C15.007 85.6679 14.6025 87.291 14.3759 88.9463C14.1494 90.6016 14.1008 92.2729 14.2302 93.9282C14.2302 93.9764 14.1979 94.0245 14.1332 94.0405C14.0846 94.0405 14.0361 94.0084 14.0199 93.9442C13.8742 92.2728 13.9228 90.5855 14.1332 88.9141C14.3436 87.2428 14.732 85.6036 15.2661 84.0126C15.8001 82.4216 16.4798 80.8789 17.2567 79.3843C18.0173 77.8898 18.8913 76.4433 19.7976 75.0291C21.6102 72.2007 23.5846 69.4849 25.4295 66.6886C26.3358 65.2905 27.2259 63.8601 27.9866 62.3816C28.7472 60.9031 29.3946 59.3603 29.961 57.8015C31.1101 54.6677 32.0002 51.4376 33.2139 48.3038C34.4116 45.154 36.0623 42.197 37.7778 39.3203C38.6356 37.874 39.4934 36.4437 40.3188 34.9813C40.7234 34.2581 41.144 33.519 41.5163 32.7798C41.8885 32.0405 42.2608 31.2852 42.6006 30.5299C43.2803 29.0032 43.9116 27.4604 44.559 25.9176C44.8988 25.1462 45.2225 24.3749 45.5785 23.6196C45.9346 22.8642 46.3068 22.1089 46.7114 21.3697C46.7438 21.3215 46.7923 21.3054 46.8408 21.3375C46.9056 21.3536 46.938 21.4178 46.9056 21.466Z" fill="#07453A"/>
<path d="M11.8047 13.1413C11.8676 13.4466 11.9306 13.7679 11.9935 14.0893L12.0878 14.5555C12.1192 14.7162 12.1507 14.8769 12.1664 15.0376L12.2923 15.9858L12.3551 16.4679C12.3709 16.6286 12.3866 16.7893 12.3866 16.95C12.4338 17.5928 12.481 18.2357 12.4652 18.8785L12.4652 19.8427C12.4652 20.1641 12.4495 20.4855 12.4338 20.807C12.3237 23.3782 12.0092 25.9174 11.6475 28.4405C11.2858 30.9635 10.8769 33.4865 10.5938 36.0256L10.4839 36.9739L10.4052 37.9221C10.3423 38.5488 10.3107 39.1916 10.2793 39.8184L10.248 40.3005L10.2321 40.7826L10.2165 41.7307C10.2165 42.0521 10.2007 42.3736 10.2007 42.6789L10.2165 43.6271C10.2794 48.7215 10.9871 53.7837 12.2137 58.7335C13.4246 63.6832 15.0914 68.5204 16.9471 73.2773C16.9628 73.3255 16.947 73.3898 16.8841 73.4058C16.837 73.4219 16.7741 73.4058 16.7584 73.3415C14.8555 68.6007 13.1258 63.7796 11.8677 58.8138C10.6096 53.848 9.85482 48.7536 9.77619 43.6271L9.76038 42.6629C9.74465 42.3415 9.77619 42.0201 9.77619 41.6987L9.79186 40.7344L9.80752 40.2523L9.839 39.7702C9.87046 39.1274 9.90188 38.4845 9.96478 37.8577L10.0434 36.8935L10.1535 35.9453C10.4366 33.4061 10.8455 30.8832 11.2072 28.3601C11.5689 25.837 11.8834 23.3139 11.9778 20.7748C11.9935 20.4534 12.0091 20.148 12.0091 19.8266L12.0091 18.8785C12.0249 18.2357 11.9935 17.6088 11.9778 16.982C11.9778 16.8213 11.9777 16.6606 11.962 16.4999L11.9305 16.034L11.8519 15.0857C11.8047 14.459 11.6947 13.8323 11.6318 13.1895C11.6318 13.1412 11.6632 13.093 11.7261 13.0769C11.7576 13.0609 11.8047 13.0931 11.8047 13.1413Z" fill="#07453A"/>
<path d="M5.26395 15.4554L5.06987 16.4518C5.00513 16.7893 4.94036 17.1268 4.87563 17.4482C4.74616 18.1232 4.63284 18.7821 4.51955 19.457C4.29297 20.7909 4.09883 22.1407 3.93699 23.4907C3.75897 24.8406 3.6294 26.1906 3.51612 27.5405C3.40283 28.8904 3.32188 30.2564 3.24096 31.6063C3.07912 34.3222 2.91731 37.0382 2.86876 39.7541C2.86876 40.429 2.85264 41.1201 2.85264 41.7951L2.86876 42.8075L2.90116 43.8199C2.90116 44.1574 2.91731 44.495 2.94968 44.8325L2.9982 45.8449L3.07912 46.8573L3.1278 47.3716C3.14398 47.5484 3.16013 47.709 3.17632 47.8697C3.46763 50.5695 3.95318 53.2534 4.74619 55.8408L5.05359 56.821L5.37727 57.7852L5.53911 58.2674L5.71722 58.7495L6.07314 59.6977C6.57484 60.9673 7.09276 62.2208 7.64302 63.4743C8.72734 65.9652 9.87646 68.4561 10.9446 70.9631C12.0127 73.4701 12.9838 76.0414 13.6959 78.6769C13.712 78.7252 13.6796 78.7894 13.6311 78.8055C13.5825 78.8215 13.5178 78.7895 13.5016 78.7413C12.7572 76.1218 11.7699 73.5826 10.6856 71.0916C9.60124 68.5846 8.41984 66.1259 7.31934 63.635C6.76908 62.3815 6.23505 61.128 5.73334 59.8584L5.37727 58.8942L5.19931 58.4121L5.03747 57.9299L4.69751 56.9657L4.39011 55.9853C3.56473 53.3658 3.06293 50.666 2.75544 47.9501C2.70689 47.6126 2.67458 47.2752 2.6584 46.9216L2.57748 45.8931L2.51268 44.8645C2.4965 44.527 2.48034 44.1896 2.46416 43.8361L2.43176 42.8075L2.41564 41.7791C2.39946 41.088 2.41564 40.413 2.41564 39.7381C2.46419 37.0061 2.60988 34.2901 2.77172 31.5581C2.85264 30.1921 2.93349 28.8423 3.0306 27.4763C3.14389 26.1103 3.27345 24.7603 3.45147 23.3943C3.6295 22.0444 3.8237 20.6944 4.09883 19.3445C4.2283 18.6695 4.37383 18.0107 4.53567 17.3357C4.69751 16.6768 4.87566 16.0179 5.06987 15.359C5.08605 15.3108 5.13457 15.2786 5.19931 15.2947C5.24786 15.359 5.28013 15.4072 5.26395 15.4554Z" fill="#07453A"/>
<path d="M7.33598 14.8132C7.27124 15.4721 7.20638 16.1311 7.12546 16.79L6.89899 18.7667L6.41347 22.7039C6.08979 25.3395 5.81467 27.959 5.60428 30.5945C5.39389 33.2301 5.28057 35.8817 5.2482 38.5173L5.2482 40.4941L5.313 42.4707C5.32919 43.1296 5.37767 43.7885 5.41004 44.4474C5.45859 45.1063 5.49102 45.7651 5.55576 46.424C5.76615 49.0596 6.17068 51.679 6.70475 54.2664C6.8504 54.9092 6.97981 55.5681 7.12546 56.1949L7.36822 57.1591C7.44914 57.4805 7.54634 57.802 7.62726 58.1073C7.80528 58.7501 8.01567 59.3769 8.19369 60.0036C8.40408 60.6304 8.61447 61.2571 8.84104 61.8839C10.6213 66.8658 12.9355 71.6709 14.7319 76.6688C14.748 76.717 14.7158 76.7813 14.6672 76.7973C14.6187 76.8134 14.554 76.7813 14.5378 76.7331C12.6928 71.7673 10.3299 66.9944 8.50109 61.9964C8.27452 61.3697 8.06419 60.7429 7.83762 60.1161C7.64341 59.4733 7.43308 58.8465 7.25506 58.2037C7.15796 57.8823 7.06082 57.5609 6.9799 57.2394L6.73715 56.2752C6.57531 55.6324 6.44581 54.9736 6.30015 54.3307C5.7499 51.7273 5.32906 49.0917 5.10249 46.4562C5.02157 45.7973 4.98929 45.1383 4.95693 44.4634C4.92456 43.8045 4.85979 43.1457 4.84361 42.4707L4.77881 40.4779L4.77881 38.4853C4.79499 35.8336 4.90837 33.182 5.11876 30.5303C5.55573 25.2431 6.1545 19.9559 7.10934 14.749C7.12553 14.7008 7.17411 14.6526 7.22266 14.6687C7.30358 14.7169 7.33598 14.765 7.33598 14.8132Z" fill="#07453A"/>
<path d="M9.7634 13.881C9.81195 14.5238 9.84429 15.1827 9.89284 15.8416C9.90903 16.5005 9.90906 17.1434 9.92524 17.8022C9.92524 17.963 9.92524 18.1236 9.92524 18.3004L9.90896 18.7825L9.87656 19.7629C9.86038 20.4218 9.79567 21.0645 9.74712 21.7234C9.55291 24.3268 9.24548 26.9142 8.92179 29.5016C8.27443 34.6763 7.59472 39.835 7.65946 45.0418L7.67558 46.0061C7.69176 46.3275 7.67561 46.6489 7.70798 46.9703L7.83742 48.9148L7.95074 49.879C7.99929 50.2004 8.01545 50.5218 8.08018 50.8432L8.24203 51.8075C8.27439 51.9682 8.29058 52.1289 8.32295 52.2896L8.41999 52.7717C8.95407 55.3108 9.73091 57.8018 10.6049 60.2445C12.3527 65.146 14.473 69.9351 15.8325 74.9812C15.8486 75.0294 15.8162 75.0937 15.7677 75.1098C15.7191 75.1258 15.6544 75.0938 15.6382 75.0456C14.2302 70.0316 12.0614 65.2746 10.2812 60.373C9.39104 57.9142 8.59805 55.4234 8.04778 52.8682L7.93446 52.3861C7.90209 52.2254 7.86973 52.0647 7.85354 51.904L7.67558 50.9398C7.61084 50.6183 7.57841 50.2968 7.52986 49.9594L7.40042 48.9791L7.25485 47.0185C7.22249 46.6971 7.22245 46.3596 7.22245 46.0382L7.19005 45.0578C7.12532 39.8188 7.78881 34.6281 8.41999 29.4534C8.72749 26.866 9.03499 24.2787 9.2292 21.6914C9.27775 21.0485 9.34261 20.3895 9.3588 19.7467L9.40732 18.7825L9.43972 18.3004L9.45584 17.8183C9.47202 17.1754 9.50445 16.5166 9.52064 15.8738C9.52064 15.231 9.52057 14.572 9.53676 13.9292C9.53676 13.8809 9.58525 13.8328 9.6338 13.8328C9.71472 13.7846 9.74722 13.8167 9.7634 13.881Z" fill="#07453A"/>
<path d="M37.0336 8.01531C37.244 9.4938 37.2115 11.0044 37.0173 12.4829C36.8393 13.9614 36.5318 15.4239 36.1757 16.8703C35.4636 19.763 34.525 22.5753 33.8129 25.4358C33.6348 26.143 33.473 26.866 33.3273 27.5892C33.2626 27.9428 33.1817 28.3125 33.1331 28.6821L33.0522 29.2284L32.9875 29.7749C32.8095 31.2373 32.7124 32.7157 32.6639 34.1781C32.5667 37.1351 32.6315 40.0921 32.6315 43.0491C32.6315 43.0973 32.5828 43.1456 32.5343 43.1456C32.4857 43.1456 32.4372 43.0973 32.4372 43.0491C32.4048 40.0921 32.2592 37.1352 32.3239 34.1621C32.3563 32.6836 32.4372 31.189 32.5991 29.7106L32.6639 29.1481L32.7448 28.6018C32.7933 28.2322 32.858 27.8625 32.9227 27.4928C33.0684 26.7697 33.2141 26.0305 33.3921 25.3073C34.0881 22.4146 35.0267 19.6021 35.7226 16.7416C36.0786 15.3113 36.37 13.865 36.5481 12.4025C36.7261 10.9401 36.8232 9.47773 36.8394 8.01531C36.8394 7.96709 36.8878 7.91895 36.9364 7.91895C36.9849 7.93502 37.0336 7.96709 37.0336 8.01531Z" fill="#07453A"/>
<path d="M35.7062 8.06284C35.6091 9.86274 35.3015 11.6628 34.9131 13.4144C34.5247 15.1822 34.0878 16.9338 33.6508 18.6694C32.7769 22.1567 31.8707 25.644 31.369 29.1956C30.8349 32.7472 30.932 36.347 30.932 39.9468C30.932 41.7467 30.8834 43.5465 30.7378 45.3464C30.5759 47.1463 30.3008 48.9463 29.7991 50.6819C29.783 50.7301 29.7344 50.7623 29.6697 50.7462C29.6212 50.7302 29.5887 50.682 29.6049 50.6177C30.0581 48.8821 30.317 47.0982 30.4465 45.3144C30.576 43.5306 30.5921 41.7307 30.5759 39.9308C30.5597 38.1309 30.5274 36.3309 30.5598 34.531C30.5922 32.7311 30.6892 30.9152 30.932 29.1314C31.4337 25.5477 32.3238 22.0443 33.1977 18.557C33.6347 16.8053 34.0717 15.0697 34.4439 13.3019C34.8323 11.5502 35.1721 9.78241 35.5119 8.01466C35.5281 7.96645 35.5767 7.91823 35.6253 7.9343C35.6738 7.96645 35.7062 8.01463 35.7062 8.06284Z" fill="#07453A"/>
<path d="M34.088 8.28858C33.732 10.4099 33.2788 12.5152 32.8418 14.6204C32.3887 16.7257 31.9516 18.8308 31.5632 20.9521C30.7702 25.1787 30.0905 29.4213 29.6535 33.696C29.4432 35.8334 29.2813 37.9708 29.1356 40.1243C28.99 42.2777 28.8605 44.4152 28.6501 46.5687C28.4397 48.7221 28.1484 50.8595 27.7115 52.9647C27.2745 55.086 26.7081 57.1592 26.0122 59.2162C25.996 59.2644 25.9313 59.2965 25.8827 59.2804C25.8342 59.2643 25.8017 59.2001 25.8179 59.1519C26.4977 57.1109 27.0317 55.0218 27.4363 52.9165C27.8409 50.8113 28.1 48.6739 28.2942 46.5365C28.4884 44.3991 28.6016 42.2457 28.731 40.0923C28.8605 37.9388 28.99 35.7853 29.2004 33.6479C29.6212 29.357 30.2847 25.0823 31.0777 20.8558C31.4823 18.7345 31.9031 16.6292 32.3563 14.5239C32.8094 12.4187 33.295 10.3135 33.8777 8.2404C33.8938 8.19218 33.9424 8.15998 34.0071 8.17605C34.0718 8.19212 34.088 8.24036 34.088 8.28858Z" fill="#07453A"/>
<path d="M32.5183 8.57802C32.3888 9.23691 32.2271 9.89578 32.0976 10.5547C31.9519 11.2136 31.8062 11.8726 31.6767 12.5315C31.4016 13.8493 31.1265 15.167 30.8675 16.4848C30.3334 19.1203 29.8966 21.772 29.5082 24.4237C29.1197 27.0753 28.7798 29.7591 28.5047 32.4268C28.2296 35.0945 28.0516 37.7783 27.8574 40.4621C27.6631 43.1459 27.4203 45.8296 27.0643 48.5134C26.8701 49.8472 26.6597 51.181 26.3684 52.4988C26.0609 53.8166 25.6887 55.1185 25.2679 56.4041C24.8309 57.6897 24.3292 58.9433 23.8114 60.1807C23.2773 61.4181 22.6946 62.6395 22.0796 63.8447C21.4646 65.05 20.8172 66.2392 20.1537 67.3963C19.474 68.5694 18.7781 69.7266 18.066 70.8676C18.0337 70.9158 17.9689 70.9318 17.9203 70.8996C17.8718 70.8675 17.8556 70.8033 17.8879 70.7551C18.5838 69.598 19.2798 68.4409 19.9272 67.2677C20.5907 66.0946 21.2058 64.9053 21.8208 63.7C22.4196 62.4948 22.9859 61.2734 23.5038 60.036C24.0217 58.7986 24.5072 57.545 24.928 56.2754C25.3487 55.0058 25.721 53.7042 26.0123 52.4025C26.2874 51.1008 26.4979 49.7669 26.6921 48.433C27.0481 45.7653 27.2585 43.0977 27.4528 40.4139C27.647 37.7301 27.8087 35.0462 28.0838 32.3625C28.359 29.6787 28.6989 27.011 29.0712 24.3433C29.4596 21.6756 29.8964 19.0239 30.4305 16.3722C30.6895 15.0545 30.9808 13.7367 31.3045 12.4189C31.4663 11.7601 31.6281 11.1172 31.8061 10.4583C31.8871 10.1369 31.9842 9.81555 32.0813 9.47807C32.1784 9.15666 32.2755 8.83524 32.3726 8.51383C32.3888 8.46562 32.4375 8.43342 32.5022 8.44949C32.486 8.46556 32.5183 8.51374 32.5183 8.57802Z" fill="#07453A"/>
<path d="M31.0131 8.69054C30.9321 9.33337 30.8189 9.97619 30.7218 10.619L30.4142 12.5315L30.0905 14.4438L29.7508 16.3562C29.2976 18.9114 28.8768 21.4667 28.4722 24.0219C27.663 29.1323 26.9185 34.2587 26.3197 39.4013C26.1579 40.6869 26.0284 41.9726 25.8827 43.2582C25.7533 44.5439 25.6239 45.8457 25.462 47.1313L25.3324 48.0956C25.2839 48.417 25.2353 48.7384 25.1706 49.0598C25.122 49.3812 25.0735 49.7026 25.0088 50.024L24.8147 50.9883C24.7499 51.3097 24.6851 51.631 24.6042 51.9363L24.3777 52.8845L24.1349 53.8328C24.054 54.1542 23.973 54.4595 23.8759 54.7648C23.1476 57.2558 22.2253 59.6985 21.0924 62.0448C19.9757 64.3911 18.6809 66.6571 17.3053 68.8587C17.2729 68.9069 17.2081 68.9229 17.1596 68.8907C17.111 68.8586 17.095 68.7944 17.1273 68.7462C18.4868 66.5445 19.749 64.2785 20.8334 61.9322C21.9339 59.5859 22.824 57.1592 23.5361 54.6683C23.6332 54.363 23.714 54.0416 23.795 53.7363L24.0377 52.8042L24.2482 51.856C24.313 51.5346 24.3938 51.2293 24.4423 50.9079L24.6204 49.9597C24.6852 49.6383 24.7337 49.3169 24.7823 49.0116C24.8308 48.6902 24.8955 48.3688 24.9278 48.0474L25.0574 47.0831C25.2193 45.7975 25.3326 44.5119 25.462 43.2262C25.5915 41.9406 25.721 40.6388 25.8666 39.3531C26.4654 34.1945 27.1936 29.0681 27.9866 23.9416C28.3912 21.3863 28.812 18.815 29.249 16.2759C29.4755 15.0063 29.7022 13.7207 29.9611 12.4511L30.3494 10.5387C30.4951 9.91191 30.6246 9.26912 30.7864 8.64236C30.8026 8.59415 30.8511 8.56201 30.9159 8.56201C30.9806 8.59415 31.0131 8.64233 31.0131 8.69054Z" fill="#07453A"/>
<path d="M25.5268 33.761C25.5916 34.1306 25.6725 34.5003 25.6887 34.8699L25.7211 35.4162L25.7211 35.9627C25.7211 36.3323 25.7049 36.7019 25.6725 37.0715C25.6564 37.4411 25.6239 37.8109 25.5753 38.1644C25.4135 39.6268 25.2031 41.0731 24.9604 42.5195C24.4749 45.3961 23.8922 48.2727 23.2287 51.1172C23.0506 51.8243 22.8888 52.5314 22.6946 53.2545C22.4842 53.9616 22.2577 54.6527 21.9987 55.3437C21.4808 56.7258 20.8982 58.0597 20.4288 59.4257C19.9595 60.8078 19.377 62.1576 18.7458 63.4915C18.1146 64.8093 17.451 66.1111 16.7874 67.4128C16.7551 67.461 16.7065 67.477 16.658 67.4609C16.6094 67.4288 16.5933 67.3806 16.6095 67.3324C17.9042 64.7129 19.1989 62.0933 20.1052 59.3292C20.5745 57.9471 21.1409 56.5972 21.6427 55.2312C21.8854 54.5562 22.1121 53.8653 22.3063 53.1582C22.5005 52.4671 22.6622 51.7439 22.8241 51.0368C23.4714 48.1924 24.054 45.3318 24.5234 42.4713C24.7661 41.041 24.9604 39.5946 25.1222 38.1482L25.187 37.6019C25.2032 37.4252 25.2194 37.2483 25.2355 37.0555L25.2841 36.509C25.3003 36.3322 25.3003 36.1556 25.3165 35.9627L25.3489 35.4162L25.365 34.8699C25.3974 34.5003 25.3489 34.1467 25.3489 33.7932L25.3489 33.777C25.3489 33.7288 25.3974 33.6807 25.4459 33.6807C25.4783 33.6807 25.5106 33.7128 25.5268 33.761Z" fill="#07453A"/>
<path d="M23.0829 8.16022C22.9858 10.1047 22.7106 12.0492 22.3707 13.9616C22.0308 15.874 21.6262 17.7864 21.2378 19.6988C20.461 23.5075 19.668 27.3163 19.2472 31.1732C18.8102 35.0301 18.7455 38.9192 18.9559 42.7922C19.1663 46.6652 19.6356 50.5381 20.3477 54.3468C20.3639 54.395 20.3153 54.4593 20.2668 54.4593C20.2182 54.4754 20.1534 54.4272 20.1534 54.379C19.3928 50.5542 18.8587 46.6973 18.6159 42.8082C18.3732 38.9191 18.4218 35.014 18.8264 31.1249C19.2472 27.2358 20.024 23.4112 20.8008 19.6025C21.1892 17.6901 21.5777 15.7936 21.9176 13.8813C22.2575 11.9689 22.5811 10.0564 22.9048 8.14405C22.9209 8.09584 22.9695 8.04763 23.0181 8.0637C23.0505 8.0637 23.0829 8.112 23.0829 8.16022Z" fill="#07453A"/>
<path d="M21.5939 7.54883C21.4644 9.67015 21.1408 11.7754 20.7686 13.8645C20.3801 15.9537 19.9594 18.0428 19.5548 20.1159C18.7294 24.2781 17.9363 28.4405 17.5479 32.6671C17.1433 36.8775 17.1757 41.1201 17.467 45.3466C17.7583 49.5732 18.3086 53.7836 19.0368 57.962C19.053 58.0102 19.0045 58.0745 18.9559 58.0745C18.9074 58.0906 18.8426 58.0424 18.8426 57.9942C18.0658 53.8158 17.4508 49.6054 17.1272 45.3628C16.8035 41.1202 16.7387 36.8615 17.1109 32.6189C17.4831 28.3763 18.2761 24.1818 19.1015 20.0195C19.5061 17.9303 19.9269 15.8572 20.2992 13.768C20.6714 11.6788 21.0274 9.58967 21.3996 7.5005C21.4158 7.45229 21.4644 7.40407 21.5129 7.42014C21.5615 7.45229 21.6101 7.50062 21.5939 7.54883Z" fill="#07453A"/>
<path d="M20.4935 6.98682C20.2993 9.26884 19.8623 11.5347 19.3444 13.7685C18.8265 16.0023 18.2602 18.22 17.6938 20.4378C16.5933 24.8732 15.5413 29.3249 15.25 33.8728C14.9263 38.4208 15.2177 42.9848 15.8003 47.5167C16.3667 52.0485 17.192 56.5484 17.8879 61.0643C17.9041 61.1125 17.8555 61.1766 17.807 61.1766C17.7584 61.1927 17.6938 61.1445 17.6938 61.0963C16.9493 56.5804 16.0753 52.0968 15.4603 47.5488C14.8615 43.0169 14.5217 38.4208 14.813 33.8247C15.1043 29.2285 16.14 24.7448 17.2405 20.2932C17.7908 18.0755 18.3573 15.8577 18.8752 13.6399C19.393 11.4222 19.8623 9.18836 20.2993 6.93849C20.3155 6.89027 20.3641 6.84206 20.4126 6.85813C20.4612 6.89027 20.5097 6.93861 20.4935 6.98682Z" fill="#07453A"/>
<path d="M19.5224 6.60101C19.4091 7.21169 19.2797 7.80627 19.1502 8.41695L18.7456 10.2169C18.4705 11.4222 18.1953 12.6114 17.904 13.8167C17.3214 16.2112 16.7711 18.6056 16.2532 21.0001C15.2175 25.8052 14.3598 30.6425 13.8905 35.544C13.4049 40.4294 13.3401 45.3631 13.7933 50.2485C14.2302 55.1339 15.169 59.9873 16.5284 64.712C16.5446 64.7602 16.5122 64.8246 16.4636 64.8407C16.415 64.8567 16.3503 64.8245 16.3342 64.7763C14.9262 60.0516 13.9227 55.1984 13.4372 50.2968C12.9517 45.3793 13.0003 40.4295 13.4535 35.528C13.9228 30.6104 14.7644 25.7571 15.8001 20.936C16.318 18.5254 16.8682 16.1309 17.4346 13.7364C17.7259 12.5472 18.0174 11.3418 18.341 10.1525L18.8265 8.36877C19.0046 7.77416 19.1663 7.17955 19.3443 6.60101C19.3605 6.5528 19.4092 6.52059 19.4739 6.53666C19.5063 6.48845 19.5386 6.53673 19.5224 6.60101Z" fill="#07453A"/>
<path d="M18.1465 6.32757C18.1303 6.95432 18.0008 7.56506 17.8714 8.15967L17.4507 9.9596C17.1594 11.1649 16.8681 12.3701 16.5606 13.5593C16.2369 14.7485 15.9132 15.9538 15.5572 17.127C15.2011 18.3162 14.8128 19.4894 14.3758 20.6465C14.3596 20.6947 14.2948 20.7268 14.2462 20.7107C14.1977 20.6946 14.1654 20.6304 14.1816 20.5822C14.5376 19.409 14.8936 18.2198 15.2011 17.0306C15.5248 15.8414 15.8323 14.6521 16.1236 13.4468C16.4149 12.2415 16.7062 11.0524 16.9813 9.84707L17.3859 8.04714C17.5315 7.45253 17.6934 6.84185 17.9362 6.27939C17.9523 6.23117 18.017 6.19906 18.0656 6.23121C18.1303 6.24728 18.1627 6.27935 18.1465 6.32757Z" fill="#07453A"/>
<path d="M16.868 5.92655C16.868 6.13547 16.8357 6.34445 16.7871 6.55336C16.7386 6.76228 16.69 6.95516 16.6253 7.148C16.4958 7.53369 16.3825 7.93542 16.2692 8.32112C16.0426 9.10857 15.8 9.89599 15.5896 10.6995L14.9259 13.0779C14.6994 13.8654 14.4728 14.6689 14.2301 15.4563C14.2139 15.5045 14.1654 15.5367 14.1006 15.5207C14.0521 15.5046 14.0196 15.4564 14.0358 15.4081L14.5861 12.9976L15.1687 10.587C15.3791 9.78347 15.5895 8.98004 15.8161 8.19258C15.9294 7.79082 16.0589 7.40507 16.1722 7.0033C16.3016 6.60154 16.4473 6.21591 16.6901 5.86236C16.7224 5.81415 16.7871 5.79805 16.8356 5.83019C16.8518 5.86233 16.868 5.89441 16.868 5.92655Z" fill="#07453A"/>
<path d="M15.8809 5.39567C15.897 5.74922 15.8161 6.08667 15.719 6.40808L15.4115 7.37231C15.2011 8.01513 14.9745 8.65802 14.7641 9.28477L14.0844 11.1811L13.4048 13.0774C13.3886 13.1256 13.3237 13.1578 13.2752 13.1417C13.2266 13.1256 13.1943 13.0774 13.2105 13.0292C13.3724 12.3703 13.5665 11.7275 13.7607 11.0847L14.3595 9.15623L14.9745 7.22777L15.282 6.26354C15.3306 6.10283 15.3791 5.94206 15.46 5.79743C15.5247 5.63672 15.6057 5.49212 15.719 5.34749C15.7514 5.29927 15.816 5.28311 15.8646 5.33132C15.8646 5.34739 15.8647 5.36352 15.8809 5.39567Z" fill="#07453A"/>
<path d="M27.9701 1.41073C28.0511 1.60357 28.0996 1.81246 28.132 2.02137C28.1805 2.23029 28.1967 2.42311 28.229 2.63202C28.2776 3.03379 28.3262 3.45171 28.3747 3.85348L28.666 6.31224C28.7469 7.13183 28.8278 7.96741 28.8764 8.787C28.9249 9.62267 28.925 10.4423 28.8603 11.2779C28.8603 11.3261 28.8117 11.3745 28.7469 11.3745C28.6984 11.3745 28.6497 11.3261 28.6497 11.2779C28.6497 10.4583 28.5851 9.63877 28.5042 8.81917C28.4233 7.99958 28.3262 7.17995 28.2129 6.37642C28.0996 5.55683 27.9862 4.73726 27.8729 3.91766C27.8244 3.49983 27.7759 3.09804 27.7274 2.6802C27.6788 2.26237 27.6625 1.84457 27.7596 1.42673C27.7758 1.36245 27.8245 1.33031 27.8892 1.34638C27.9378 1.34638 27.954 1.37858 27.9701 1.41073Z" fill="#07453A"/>
<path d="M26.1414 0.992357C26.3517 2.85654 26.5298 4.70468 26.724 6.56886C26.9021 8.43305 27.0963 10.2973 27.0801 12.1775C27.0801 13.1257 27.0153 14.0578 26.902 14.9899L26.7402 16.3881L26.5459 17.7861C26.2708 19.6342 25.9473 21.4824 25.5912 23.3144C24.8792 26.9785 24.0862 30.6426 23.5198 34.3227C23.2285 36.1708 23.0181 38.0189 22.8886 39.883C22.7753 41.7472 22.7753 43.6114 22.9047 45.4596C22.9047 45.5078 22.8724 45.556 22.8077 45.5721C22.7591 45.5721 22.7106 45.54 22.6944 45.4757C22.5325 43.6115 22.5164 41.7313 22.5973 39.851C22.6297 39.385 22.662 38.9189 22.6944 38.4529C22.7106 38.2118 22.7267 37.9868 22.7429 37.7457L22.8238 37.0547C22.8724 36.5887 22.9209 36.1226 22.9856 35.6565L23.1799 34.2584C23.7139 30.5461 24.4745 26.8821 25.1704 23.218C25.5264 21.386 25.8502 19.5538 26.1091 17.7057L26.3032 16.3237L26.465 14.9417C26.5783 14.0096 26.6269 13.0935 26.6431 12.1614C26.6593 10.3133 26.4651 8.44915 26.2709 6.60104C26.0929 4.73685 25.9472 2.87261 25.9795 0.992357C25.9795 0.944145 26.0282 0.895996 26.0767 0.895996C26.0929 0.912067 26.1414 0.944145 26.1414 0.992357Z" fill="#07453A"/>
<path d="M24.6362 0.800459C24.6686 1.8129 24.7009 2.82532 24.7656 3.82169L24.9438 6.84292C25.0571 8.86781 25.1865 10.8928 25.1541 12.9337C25.1541 13.9462 25.0893 14.9747 25.0084 15.9871C24.9113 16.9996 24.7819 18.012 24.6362 19.0084C24.3287 21.0172 24.005 23.0099 23.6651 25.0026C22.9854 28.9881 22.2895 32.9896 21.8039 36.9912C21.5612 39 21.3346 41.0088 21.3993 43.0176C21.4479 45.0265 21.7393 47.0353 22.063 49.0281C22.0792 49.0763 22.0306 49.1406 21.982 49.1406C21.9335 49.1567 21.8687 49.1085 21.8687 49.0603C21.5127 47.0675 21.1889 45.0586 21.1241 43.0176C21.0432 40.9767 21.2213 38.9518 21.4641 36.943C21.9335 32.9093 22.597 28.9078 23.2444 24.9223C23.5681 22.9295 23.9079 20.9207 24.1992 18.928C24.361 17.9316 24.4744 16.9352 24.5716 15.9228C24.6525 14.9264 24.701 13.914 24.701 12.9015C24.7334 10.8927 24.6038 8.86781 24.4743 6.84292C24.3611 4.81803 24.2802 2.77701 24.4582 0.752122C24.4582 0.703911 24.5068 0.655762 24.5716 0.655762C24.5877 0.703973 24.62 0.752248 24.6362 0.800459Z" fill="#07453A"/>
<path d="M23.277 0.559298C23.3256 0.720003 23.3417 0.864544 23.3579 1.02525C23.3741 1.16988 23.3579 1.33056 23.3579 1.47519L23.2931 2.37524C23.2446 2.98592 23.1961 3.5805 23.1313 4.19118C23.0666 4.78579 23.0019 5.3965 22.921 5.99111C22.8402 6.58572 22.7431 7.19643 22.6299 7.79104C22.6137 7.83925 22.5651 7.88746 22.5166 7.87139C22.468 7.85532 22.4357 7.80708 22.4357 7.75886C22.4842 7.16426 22.5327 6.55354 22.5812 5.95893C22.6297 5.36432 22.6622 4.75361 22.7107 4.159L22.8239 2.35907L22.8887 1.45918C22.9048 1.15384 22.9533 0.864638 23.099 0.559298C23.1313 0.511086 23.1961 0.47882 23.2446 0.510961C23.2446 0.49489 23.277 0.527157 23.277 0.559298Z" fill="#07453A"/>
<path d="M21.9823 0.639712C22.0794 0.912913 22.0793 1.18605 22.0469 1.45925C22.0145 1.73245 21.9822 1.98958 21.9499 2.26278C21.869 2.79311 21.7719 3.3235 21.6748 3.85383L21.3673 5.44473C21.254 5.97506 21.1731 6.50535 21.076 7.01961C21.0599 7.06783 21.0113 7.11604 20.9627 7.09997C20.9142 7.0839 20.8818 7.05182 20.8818 7.00361C20.9142 6.45721 20.9628 5.92688 21.0275 5.39655C21.0923 4.86622 21.1732 4.31982 21.2541 3.78949C21.335 3.25916 21.4158 2.72876 21.4806 2.19843C21.5129 1.94131 21.5454 1.6682 21.5777 1.41107C21.5939 1.2825 21.61 1.15394 21.6424 1.0093C21.6747 0.88074 21.7233 0.752112 21.7881 0.623548C21.8204 0.575336 21.8851 0.559297 21.9336 0.575367C21.9498 0.591438 21.9661 0.607571 21.9823 0.639712Z" fill="#07453A"/>
<path d="M20.736 0.59126C20.8169 0.848386 20.8008 1.10554 20.7684 1.3466L20.6388 2.08593C20.5579 2.58412 20.4609 3.06617 20.3638 3.54828L19.765 6.45696C19.7488 6.50517 19.7003 6.55338 19.6517 6.53731C19.6032 6.52124 19.5708 6.48923 19.5708 6.42495C19.6032 5.92676 19.668 5.42855 19.7165 4.94644C19.7812 4.44825 19.8621 3.96611 19.9269 3.46793L20.1696 2.00558L20.2829 1.28241C20.3153 1.04136 20.38 0.800238 20.5257 0.575252C20.558 0.527041 20.6228 0.510939 20.6875 0.54308C20.7037 0.54308 20.7198 0.559119 20.736 0.59126Z" fill="#07453A"/>
<path d="M48.718 22.2385L48.2649 23.3474L47.8279 24.4562C47.5204 25.1954 47.2291 25.9348 46.9378 26.674C46.3552 28.1525 45.7564 29.6309 45.1415 31.1094C44.5265 32.5719 43.8952 34.0504 43.2155 35.4807C42.5358 36.927 41.8076 38.3572 40.966 39.7232C39.2829 42.4552 37.2599 44.9301 35.7224 47.6943C35.3501 48.3853 34.9941 49.0924 34.6704 49.8156C34.5086 50.1692 34.363 50.5387 34.2012 50.9084C34.0555 51.278 33.9098 51.6475 33.7642 52.0171C33.2139 53.4956 32.696 55.0063 32.1943 56.5169C31.6764 58.0275 31.1586 59.5382 30.5274 61.0006C30.3656 61.3703 30.2199 61.7399 30.0419 62.0934L29.7829 62.6399L29.524 63.1862C29.3459 63.5558 29.1517 63.8934 28.9575 64.2469C28.7633 64.6005 28.5853 64.954 28.3911 65.3075C26.8213 68.0877 25.0572 70.7554 23.3256 73.4231C22.9048 74.0981 22.4678 74.7571 22.047 75.4481L21.4159 76.4605L20.8171 77.489L20.5095 78.0032L20.2182 78.5335L19.6518 79.5781C19.4738 79.9317 19.2957 80.2853 19.1339 80.6389C18.9558 80.9924 18.7779 81.346 18.6322 81.7156C17.3375 84.6083 16.4312 87.6777 16.0104 90.8275C16.0104 90.8757 15.9456 90.9239 15.8971 90.9079C15.8485 90.9079 15.8 90.8437 15.8162 90.7955C16.2208 87.6296 17.1109 84.5279 18.3895 81.6031C18.5351 81.2335 18.7131 80.88 18.8911 80.5103C19.0691 80.1568 19.231 79.7871 19.409 79.4336L19.9755 78.3728L20.2506 77.8425L20.5419 77.3283L21.1407 76.2837L21.7557 75.2552C22.1603 74.5642 22.5972 73.9052 23.018 73.2303C24.7335 70.5465 26.4976 67.8948 28.0513 65.1146C28.2455 64.7611 28.4235 64.4075 28.6177 64.0701C28.7958 63.7165 29.0061 63.3791 29.1679 63.0095L29.4269 62.4792L29.6697 61.9327C29.8315 61.5792 29.9933 61.2096 30.1389 60.8399C30.7539 59.3775 31.2719 57.883 31.7736 56.3724C32.2753 54.8617 32.7769 53.351 33.3433 51.8564C33.489 51.4868 33.6347 51.1172 33.7803 50.7315C33.9421 50.3619 34.0717 49.9924 34.2497 49.6227C34.5572 48.8835 34.9294 48.1603 35.3017 47.4532C36.8553 44.6409 38.8783 42.15 40.529 39.4501C41.3544 38.1002 42.0665 36.6859 42.7463 35.2556C43.426 33.8253 44.0409 32.3629 44.6559 30.8844C45.2709 29.422 45.8698 27.9436 46.501 26.4811C46.8246 25.758 47.132 25.0186 47.4557 24.2955C47.7956 23.5723 48.1193 22.8492 48.4916 22.1421C48.5239 22.0939 48.5724 22.0779 48.621 22.0939C48.7181 22.1421 48.7342 22.1903 48.718 22.2385Z" fill="#07453A"/>
<path d="M50.4176 22.9927L48.6861 27.621C48.1034 29.1638 47.5208 30.7065 46.9058 32.2493C46.2908 33.776 45.6597 35.3027 44.9638 36.8134C44.7857 37.183 44.6238 37.5687 44.4296 37.9383C44.3325 38.1311 44.2517 38.3079 44.1546 38.5008L43.8631 39.0632C43.4585 39.8025 43.0378 40.5095 42.5847 41.2006C41.6784 42.5987 40.6911 43.9165 39.7362 45.2664C39.2669 45.9414 38.7975 46.6163 38.3606 47.3074C37.9236 47.9984 37.5028 48.7055 37.1468 49.4447C36.7745 50.1679 36.4348 50.9233 36.1111 51.6786C35.7874 52.4339 35.4799 53.1893 35.1562 53.9606C34.5412 55.4873 33.9425 57.03 33.3113 58.5567C32.6801 60.0834 32.0165 61.5942 31.2396 63.0727C30.4628 64.5351 29.605 65.9492 28.7311 67.3634C26.9671 70.1596 25.1545 72.9238 23.5361 75.8004C21.9177 78.677 20.5097 81.6661 19.5225 84.7999C18.5191 87.9336 17.9688 91.1961 17.8717 94.4905C17.8717 94.5387 17.8232 94.5869 17.7747 94.5869C17.7261 94.5869 17.6775 94.5387 17.6775 94.4905C17.7422 91.18 18.2763 87.8854 19.2635 84.7195C20.2345 81.5536 21.6264 78.5163 23.2448 75.6397C24.8632 72.747 26.6758 69.9829 28.4237 67.1866C29.2976 65.7885 30.1391 64.3744 30.9159 62.9119C31.6766 61.4656 32.3402 59.9549 32.9713 58.4282C34.2337 55.3909 35.3181 52.2571 36.7909 49.284C37.1631 48.5287 37.5838 47.8216 38.0208 47.1145C38.4577 46.4074 38.9271 45.7325 39.3964 45.0415C40.3513 43.6916 41.3224 42.3578 42.2125 40.9757C42.6656 40.2847 43.0864 39.5775 43.4748 38.8704L43.75 38.3241C43.8471 38.1473 43.9279 37.9544 44.025 37.7776C44.203 37.408 44.381 37.0383 44.5429 36.6687C45.2226 35.1741 45.8538 33.6474 46.4688 32.1207L48.2976 27.5246C48.6051 26.7532 48.9287 25.9979 49.2362 25.2426C49.5599 24.4873 49.8836 23.732 50.2397 22.9767C50.2559 22.9285 50.3206 22.9123 50.3691 22.9284C50.4177 22.8962 50.4338 22.9445 50.4176 22.9927Z" fill="#07453A"/>
<path d="M51.7449 23.6678C51.4698 24.4874 51.1624 25.291 50.8711 26.1106L49.9809 28.5372C49.3821 30.1603 48.7671 31.7674 48.1198 33.3583C47.4724 34.9654 46.8087 36.5564 46.129 38.1313C45.7891 38.9188 45.4332 39.7063 45.0609 40.4937C44.6887 41.2812 44.3002 42.0526 43.8956 42.824C42.2772 45.8934 40.4485 48.8182 38.911 51.8876C37.3735 54.9732 35.7551 58.0267 34.1043 61.064C33.2789 62.5746 32.4697 64.1012 31.5958 65.5958C30.7218 67.0903 29.8155 68.5528 28.893 70.0152C27.0642 72.94 25.2193 75.8489 23.698 78.9505L23.1477 80.1076C22.9696 80.4933 22.7917 80.895 22.6299 81.2807L22.4033 81.8754L22.209 82.486C22.1443 82.6949 22.0958 82.9038 22.0311 83.0967C21.9825 83.3056 21.9178 83.5145 21.8692 83.7235C21.4808 85.3948 21.1733 87.0822 20.9306 88.7857C20.6878 90.4892 20.4774 92.1925 20.3317 93.9121C20.1861 95.6316 20.0728 97.3512 20.089 99.0547C20.089 99.1029 20.0403 99.1512 19.9918 99.1512C19.9432 99.1512 19.8947 99.1029 19.8947 99.0547C19.8786 97.319 19.9594 95.5995 20.1051 93.8799C20.2508 92.1604 20.4288 90.4408 20.6715 88.7374C20.9143 87.0339 21.1895 85.3305 21.5779 83.6431C21.6265 83.4342 21.6751 83.2252 21.7398 83.0163C21.7883 82.8074 21.8369 82.5984 21.9016 82.3895L22.0957 81.7628L22.3223 81.1522C22.4842 80.7504 22.6622 80.3647 22.8403 79.9629L23.3904 78.7898C24.9117 75.6721 26.7567 72.7473 28.5693 69.8225C29.4756 68.36 30.382 66.8976 31.256 65.4031C32.1137 63.9085 32.9229 62.3818 33.7321 60.8711C35.3667 57.8338 36.9851 54.7964 38.5064 51.6948C40.0601 48.5931 41.8889 45.6683 43.4749 42.6149C43.8795 41.8596 44.2517 41.0883 44.6239 40.3008C44.98 39.5134 45.336 38.742 45.6759 37.9384C46.3556 36.3635 47.0192 34.7725 47.6504 33.1655L49.56 28.3605L50.5311 25.9659C50.871 25.1624 51.1947 24.3749 51.5345 23.5875C51.5507 23.5393 51.6154 23.5072 51.664 23.5393C51.7287 23.5554 51.7611 23.6196 51.7449 23.6678Z" fill="#07453A"/>
</svg>
