<svg width="83" height="93" viewBox="0 0 83 93" fill="none" xmlns="http://www.w3.org/2000/svg">
<path d="M60.1877 25.1968C60.0744 25.4057 59.9935 25.5985 59.8964 25.7753C59.8479 25.8717 59.7994 25.9521 59.7508 26.0485L59.5728 26.3217L58.8283 27.4788C58.3428 28.2502 57.841 29.0215 57.3393 29.7929C56.3359 31.3196 55.3002 32.8463 54.232 34.3409C53.1639 35.8354 52.0472 37.2979 50.8819 38.7281C50.2993 39.4352 49.7005 40.1423 49.0855 40.8334L47.2405 42.8904C42.3044 48.3383 37.2064 53.6416 32.0923 58.8966C26.9619 64.1678 21.7992 69.3907 16.7175 74.6779C14.2089 77.3617 11.3768 79.7562 9.01394 82.5364C7.8325 83.9185 6.78054 85.413 6.01989 87.0683C5.64766 87.8879 5.3563 88.7557 5.16209 89.6235C5.06499 90.0574 5.00029 90.5074 4.95173 90.9573C4.91937 91.1984 4.887 91.4073 4.87081 91.6323C4.87081 91.7448 4.85463 91.8573 4.87081 91.9377C4.87081 91.9537 4.87081 91.9859 4.87081 91.9859C4.87081 91.9698 4.85458 91.9537 4.82221 91.9377C4.77366 91.9216 4.82221 91.9377 4.82221 91.9377L4.85461 91.9537L4.91933 91.9698C5.30775 92.0341 5.74473 91.9055 6.14933 91.7448C6.55393 91.568 6.94232 91.343 7.33074 91.102C8.09138 90.6038 8.80354 90.0413 9.49946 89.4467C10.8751 88.2414 12.1698 86.9558 13.4321 85.6059C14.6783 84.272 15.8921 82.8899 17.0573 81.4757C18.2226 80.0615 19.3717 78.6313 20.4075 77.1206C22.5114 74.1154 24.8095 71.2388 27.1885 68.4265C28.37 67.0283 29.5838 65.6302 30.7814 64.2481C31.9952 62.8661 33.1928 61.484 34.4389 60.1341C36.9313 57.4342 39.5046 54.7987 42.0131 52.131C44.5216 49.4632 47.014 46.7473 49.3606 43.935C51.7235 41.1226 53.9731 38.2139 55.9152 35.1123C56.8862 33.5534 57.7763 31.9624 58.5208 30.2911L58.7959 29.6644L59.0386 29.0215C59.1196 28.8126 59.2005 28.6037 59.2814 28.3787L59.4918 27.7359C59.6375 27.302 59.7346 26.852 59.8478 26.4181C59.9126 26.1931 59.9288 26.0003 59.9936 25.8074C60.0583 25.6146 60.123 25.4057 60.1877 25.1968ZM60.2524 25.0039C60.2363 25.2289 60.2201 25.486 60.1877 25.7432C60.1553 26.0003 60.123 26.2574 60.0583 26.4663C59.945 26.9163 59.8479 27.3663 59.7022 27.8002L59.4918 28.4591C59.4271 28.6841 59.33 28.893 59.2491 29.1019L59.0063 29.7447L58.7312 30.3715C57.9867 32.0589 57.0966 33.6659 56.1255 35.2248C54.1834 38.3424 51.9339 41.2673 49.5872 44.0957C47.2405 46.9241 44.7644 49.64 42.2559 52.3238C39.7474 55.0076 37.1903 57.6431 34.7141 60.343C33.4679 61.6929 32.2703 63.075 31.0565 64.4571C29.8427 65.8391 28.6451 67.2212 27.4637 68.6354C25.1008 71.4477 22.8189 74.3083 20.7149 77.3135C20.456 77.6831 20.1971 78.0688 19.9219 78.4384C19.6468 78.808 19.3717 79.1777 19.0965 79.5473C18.5301 80.2704 17.9474 80.9936 17.3648 81.7007C16.1834 83.1149 14.9858 84.497 13.7234 85.8469C12.4611 87.1968 11.1664 88.4986 9.77454 89.7199C9.07862 90.3306 8.35033 90.9091 7.5735 91.4073C7.18508 91.6645 6.76434 91.8894 6.32737 92.0823C6.1008 92.1787 5.87417 92.2591 5.63141 92.3073C5.38865 92.3555 5.12976 92.3876 4.87081 92.3394L4.77369 92.3233L4.72517 92.3073C4.6928 92.2912 4.72517 92.3073 4.64425 92.2751C4.57952 92.243 4.54712 92.1948 4.53093 92.1626C4.51475 92.1305 4.49853 92.0984 4.49853 92.0823C4.48235 92.0341 4.48241 92.0019 4.48241 91.9698C4.46623 91.8252 4.48241 91.7127 4.48241 91.6002C4.4986 91.3591 4.53096 91.1181 4.56333 90.9091C4.61188 90.4431 4.67659 89.977 4.77369 89.5271C4.9679 88.611 5.27538 87.7272 5.64761 86.8915C6.42445 85.2041 7.50882 83.6774 8.69025 82.2632C11.0855 79.4348 13.9015 77.0563 16.41 74.3886C21.4918 69.0854 26.6544 63.8464 31.7686 58.5752C36.8827 53.3041 41.9646 48.0008 46.8845 42.5529L48.7295 40.512C49.3283 39.8209 49.9433 39.1299 50.5097 38.4228C51.675 37.0086 52.7916 35.5622 53.876 34.0838C54.9603 32.6053 56.0123 31.1107 57.048 29.584C57.5659 28.8287 58.0838 28.0734 58.5855 27.302L59.3462 26.161L59.5566 25.8556C59.6213 25.7432 59.7022 25.6467 59.7831 25.5503L60.2524 25.0039Z" fill="#07453A"/>
<path d="M7.68696 83.4851C8.20485 79.1461 8.99787 74.8553 9.95272 70.5966C10.1955 69.5359 10.4544 68.4753 10.7295 67.4146C11.0046 66.354 11.296 65.3094 11.6035 64.2487C11.911 63.2041 12.2346 62.1595 12.5907 61.115C12.9467 60.0864 13.3352 59.0579 13.756 58.0455C14.1929 57.033 14.6623 56.0367 15.2125 55.0885C15.342 54.8475 15.5039 54.6225 15.6495 54.3814C15.8114 54.1564 15.957 53.9154 16.135 53.6904L16.4101 53.369C16.5072 53.2565 16.5882 53.144 16.6853 53.0476L16.9928 52.7422C17.0413 52.694 17.0898 52.6458 17.1384 52.5976L17.3002 52.469C18.158 51.7298 19.1452 51.1834 20.1162 50.6852C21.1034 50.187 22.0907 49.737 22.997 49.1585L23.1751 49.046L23.3369 48.9335L23.6606 48.7085C23.7739 48.6282 23.871 48.5478 23.9681 48.4674C24.0652 48.3871 24.1784 48.3067 24.2755 48.2103C24.664 47.8407 25.02 47.455 25.3113 47.0211C25.9101 46.1533 26.3309 45.1569 26.6707 44.1284C27.0106 43.0999 27.3019 42.0553 27.658 41.0107C28.014 39.9661 28.451 38.9376 29.0983 38.0216C29.4382 37.5716 29.7943 37.1377 30.2636 36.7842C30.7329 36.4306 31.267 36.2056 31.8011 36.0289C32.8692 35.6914 33.9697 35.5307 35.0055 35.2575C36.0413 34.9682 37.0609 34.5825 37.8701 33.9075C38.7116 33.2647 39.3266 32.3648 39.8122 31.4166C40.7832 29.5042 41.2201 27.3347 42.2074 25.3419C42.6929 24.3456 43.3565 23.4135 44.2142 22.6742C44.6512 22.3207 45.1367 21.9832 45.6708 21.7904C46.2049 21.5814 46.7551 21.4368 47.3053 21.3565C48.422 21.1958 49.5226 21.1958 50.5907 21.0511C51.1248 20.9708 51.6427 20.8743 52.1444 20.6976C52.6299 20.5369 53.083 20.2476 53.4876 19.9101C54.2968 19.2191 54.9604 18.3673 55.5915 17.4835C56.2227 16.5996 56.7892 15.6675 57.4042 14.7515C57.7117 14.3015 58.0191 13.8354 58.359 13.4015C58.6989 12.9676 59.0549 12.5337 59.4757 12.148C59.8965 11.7623 60.3982 11.4409 60.997 11.3124C61.1426 11.2642 61.3045 11.2802 61.4502 11.2642C61.5311 11.2642 61.5958 11.2802 61.6767 11.2802C61.7576 11.2963 61.8224 11.2963 61.9033 11.3124C62.1946 11.3927 62.4535 11.5052 62.7125 11.6338C63.2142 11.8909 63.6836 12.2605 64.0396 12.7105C64.3956 13.1605 64.6384 13.6908 64.8164 14.2211C65.1401 15.2979 65.2048 16.4067 65.3343 17.4835C65.4638 18.5602 65.6256 19.6369 66.1596 20.5369C66.2244 20.6494 66.2892 20.7618 66.3701 20.8583L66.4833 21.019L66.6128 21.1636C66.7909 21.3565 66.985 21.5172 67.2116 21.6618C67.6486 21.9511 68.1503 22.1439 68.652 22.3207C69.1699 22.4975 69.6877 22.6742 70.2056 22.8832C70.7235 23.0921 71.2414 23.3653 71.6622 23.7831C71.8726 23.992 72.0506 24.2331 72.1801 24.4902C72.3096 24.7473 72.4067 25.0205 72.4714 25.2937C72.617 25.8562 72.6171 26.4347 72.52 26.9972C72.4229 27.5597 72.2286 28.09 72.0021 28.6043C71.7755 29.1185 71.5004 29.5846 71.2091 30.0667C70.6264 30.9988 69.9791 31.8827 69.4126 32.7987C69.1375 33.2647 68.8624 33.7308 68.6682 34.2129C68.5711 34.4539 68.4902 34.7111 68.4093 34.9682L68.3284 35.3539L68.296 35.5467C68.2798 35.611 68.2798 35.6753 68.2798 35.7396C68.1503 36.8002 68.2312 37.877 68.3445 38.9537C68.4578 40.0304 68.6196 41.1232 68.6034 42.2321L68.5872 42.6499C68.5711 42.7945 68.5549 42.9231 68.5549 43.0677C68.5387 43.3409 68.4739 43.6141 68.4254 43.8873C68.393 44.032 68.3445 44.1605 68.3122 44.2891C68.2636 44.4177 68.2474 44.5623 68.1826 44.6909C68.0693 44.948 67.9723 45.2212 67.8428 45.4623C67.3249 46.4426 66.629 47.3586 65.7065 48.0175C64.8002 48.6924 63.732 49.0942 62.6801 49.3995C61.6281 49.7209 60.56 49.9781 59.589 50.4441C59.1035 50.6691 58.6341 50.9423 58.2295 51.2798C58.0191 51.4566 57.8249 51.6173 57.6631 51.8262C57.5012 52.0351 57.3556 52.244 57.2423 52.4851C57.0158 52.9511 56.8863 53.4654 56.8053 53.9957C56.7244 54.526 56.6921 55.0564 56.6597 55.6028C56.595 56.6795 56.5787 57.8044 56.2227 58.8812C56.1418 59.1544 56.0285 59.4115 55.8828 59.6686C55.7372 59.9097 55.5753 60.1507 55.3973 60.3596C55.0412 60.7935 54.6043 61.1632 54.1188 61.4685C53.1639 62.0792 52.0958 62.4327 51.0438 62.7542C49.9919 63.0756 48.94 63.3809 48.0175 63.9273C47.5643 64.2005 47.1273 64.5219 46.7875 64.9076C46.4476 65.3094 46.2048 65.7754 46.0268 66.2736C45.6546 67.27 45.4766 68.3628 45.0882 69.4074C44.7159 70.4519 44.2466 71.4483 43.6801 72.3965C42.531 74.2767 41.0098 75.9481 39.1648 77.1694L38.8087 77.3944L38.4365 77.5873C38.3232 77.6515 38.1938 77.7158 38.0643 77.7801L37.692 77.9569C37.1742 78.1658 36.6563 78.3747 36.1384 78.5193C35.0864 78.8408 34.0021 79.0657 32.9178 79.2747C31.8334 79.4836 30.7653 79.6764 29.7134 79.9496C28.6452 80.2228 27.5933 80.5282 26.5575 80.8335C24.4536 81.4603 22.382 82.1674 20.3267 82.9066C18.2713 83.6459 16.2159 84.4494 14.2253 85.3333C14.1767 85.3493 14.112 85.3333 14.0958 85.285C14.0796 85.2368 14.0958 85.1726 14.1444 85.1565C16.1512 84.2565 18.1904 83.453 20.2619 82.7138C22.3173 81.9584 24.405 81.2674 26.5089 80.6246C27.5609 80.3032 28.6128 79.9978 29.681 79.7246C30.7491 79.4514 31.8334 79.2425 32.9016 79.0336C33.9697 78.8247 35.0541 78.5997 36.0898 78.2783C36.6077 78.1176 37.1256 77.9247 37.6111 77.7158L37.9834 77.539C38.1129 77.4748 38.2261 77.4266 38.3394 77.3623L38.6955 77.1694L39.0354 76.9444C40.848 75.7391 42.3369 74.0999 43.4536 72.2518C44.0038 71.3197 44.4731 70.3394 44.8292 69.327C45.2014 68.3146 45.3633 67.2378 45.7517 66.1932C45.9459 65.679 46.2048 65.1647 46.577 64.7148C46.9654 64.2809 47.4024 63.9434 47.8879 63.6541C48.859 63.0916 49.9433 62.7702 50.9791 62.4488C52.0149 62.1274 53.0668 61.7738 53.9569 61.1953C54.8471 60.6168 55.6077 59.7972 55.9152 58.7847C56.2389 57.7723 56.2713 56.6795 56.3198 55.6028C56.3522 55.0564 56.3845 54.51 56.4655 53.9636C56.5464 53.4172 56.6758 52.8547 56.9348 52.3404C57.0642 52.0833 57.21 51.8423 57.4042 51.6173C57.5822 51.3923 57.8087 51.1994 58.0191 51.0227C58.4561 50.6691 58.9416 50.3798 59.4433 50.1388C60.4629 49.6567 61.5473 49.3995 62.583 49.0781C63.6188 48.7728 64.6384 48.371 65.4962 47.7443C66.3539 47.1175 67.0336 46.2658 67.5192 45.3176C67.6486 45.0766 67.7457 44.8355 67.8428 44.5944C67.9076 44.482 67.9237 44.3373 67.9723 44.2248C68.0046 44.0963 68.0532 43.9677 68.0694 43.8391C68.1179 43.582 68.1827 43.3249 68.1988 43.0517L68.2312 42.6499L68.2474 42.2481C68.2636 41.1714 68.1018 40.0947 67.9885 39.018C67.859 37.9412 67.7781 36.8324 67.9076 35.7074C67.9237 35.6432 67.9237 35.5628 67.9399 35.4985L67.9885 35.2896L68.0694 34.8718C68.1341 34.5986 68.2312 34.3254 68.3445 34.0682C68.5549 33.554 68.83 33.0558 69.1214 32.5898C69.704 31.6416 70.3352 30.7738 70.9178 29.8417C71.2091 29.3757 71.468 28.9096 71.6946 28.4275C71.9212 27.9454 72.0992 27.4472 72.1801 26.9169C72.261 26.4026 72.2611 25.8723 72.1316 25.3741C72.0669 25.133 71.9859 24.8759 71.8726 24.6509C71.7593 24.4259 71.6137 24.217 71.4356 24.0402C71.0796 23.6867 70.6103 23.4296 70.1086 23.2206C69.6069 23.0117 69.089 22.851 68.5711 22.6742C68.0532 22.4814 67.5192 22.2885 67.0336 21.9671C66.7909 21.8064 66.5643 21.6297 66.3701 21.4207L66.2244 21.26L66.0949 21.0833C65.9978 20.9708 65.9331 20.8422 65.8684 20.7297C65.577 20.2315 65.399 19.7012 65.2695 19.1548C65.14 18.6084 65.0592 18.062 64.9944 17.5156C64.865 16.4228 64.8002 15.3461 64.4927 14.3336C64.3309 13.8354 64.1043 13.3533 63.7806 12.9516C63.457 12.5498 63.0362 12.2284 62.583 11.9873C62.3565 11.8748 62.0975 11.7623 61.8709 11.6981C61.8061 11.682 61.7577 11.682 61.6929 11.6659C61.6282 11.6659 61.5796 11.6499 61.5149 11.6499C61.3854 11.6659 61.2721 11.6499 61.1426 11.682C60.6571 11.7784 60.204 12.0677 59.8156 12.4212C59.4272 12.7748 59.0711 13.1926 58.7474 13.6105C58.4237 14.0444 58.1163 14.4783 57.8088 14.9443C57.21 15.8443 56.6273 16.7764 55.9961 17.6763C55.365 18.5763 54.6852 19.4601 53.8275 20.1833C53.3905 20.5369 52.905 20.8583 52.3547 21.0511C51.8207 21.244 51.2704 21.3404 50.7039 21.4207C49.6034 21.5654 48.4868 21.5654 47.4348 21.7261C46.9008 21.8064 46.3829 21.935 45.8973 22.1278C45.4118 22.3207 44.9748 22.61 44.5702 22.9474C43.761 23.6385 43.1461 24.5224 42.6606 25.4705C41.7057 27.399 41.2687 29.5685 40.2653 31.5612C39.7636 32.5415 39.1001 33.4897 38.21 34.1968C37.3198 34.92 36.2517 35.3378 35.1835 35.6271C34.1154 35.9164 33.0149 36.0771 31.9953 36.3985C31.4936 36.5592 31.0081 36.7842 30.6035 37.0895C30.3931 37.2341 30.2151 37.4431 30.0371 37.6198C29.9399 37.7163 29.859 37.8127 29.7781 37.9252L29.5353 38.2305C28.9203 39.0983 28.4996 40.0947 28.1597 41.1071C27.8036 42.1357 27.5285 43.1802 27.1725 44.2248C26.8164 45.2694 26.3957 46.2979 25.7483 47.23C25.4408 47.6961 25.0524 48.1139 24.6316 48.4996C24.5345 48.596 24.4212 48.6764 24.3079 48.7728C24.1947 48.8531 24.0975 48.9496 23.9843 49.0299L23.6444 49.271L23.4663 49.3835L23.2883 49.496C22.3496 50.0906 21.3462 50.5566 20.3752 51.0548C19.4041 51.553 18.4655 52.0833 17.6563 52.7743L17.5107 52.9029C17.4621 52.9511 17.4135 52.9993 17.365 53.0476L17.0899 53.3208C16.9928 53.4172 16.9118 53.5136 16.8309 53.6261L16.572 53.9314C16.4101 54.1403 16.2645 54.3653 16.1188 54.5903C15.9732 54.8153 15.8275 55.0403 15.698 55.2814C15.164 56.2134 14.6947 57.1937 14.2739 58.1901C13.4323 60.1829 12.7363 62.256 12.1052 64.3291C11.474 66.4182 10.9399 68.5235 10.4382 70.6287C9.93654 72.75 9.48339 74.8713 9.0626 77.0087C8.64182 79.1461 8.26962 81.2835 7.96212 83.453C7.96212 83.5012 7.89736 83.5494 7.8488 83.5334C7.71933 83.5976 7.67078 83.5494 7.68696 83.4851Z" fill="#07453A"/>
<path d="M4.57947 90.7648C4.49855 87.3899 4.5148 83.9991 4.64427 80.6243C4.66045 80.2064 4.67662 79.7725 4.70899 79.3547L4.78991 78.0851L4.87083 76.8155C4.9032 76.3977 4.93558 75.9799 4.96795 75.546L5.19451 73.0229L5.48579 70.4998C5.53434 70.082 5.58289 69.6641 5.64763 69.2463L5.82567 67.9928L6.00371 66.7393C6.06844 66.3215 6.11695 65.9036 6.19787 65.4858L6.63487 62.9788C6.66723 62.7699 6.69963 62.561 6.74818 62.3521L6.87763 61.7253L7.13658 60.4879L7.39554 59.2504L7.46026 58.9451L7.54118 58.6398L7.68682 58.0291L8.28566 55.5703L8.98154 53.1276C9.09483 52.7258 9.20815 52.308 9.33762 51.9062L9.72602 50.7009C11.7814 44.2406 14.6621 38.0373 18.3683 32.3484C20.2294 29.5039 22.3171 26.8201 24.5829 24.281C25.7158 23.0114 26.8972 21.79 28.1272 20.6169C28.4347 20.3276 28.7422 20.0223 29.0497 19.7491C29.3572 19.4598 29.6646 19.1705 29.9883 18.8973C30.6357 18.3349 31.2831 17.7885 31.9628 17.2742C32.6425 16.7599 33.3223 16.2457 34.0182 15.7636C34.1962 15.6511 34.3742 15.5225 34.5522 15.41C34.6008 15.3779 34.6493 15.3457 34.6817 15.3297C34.714 15.2975 34.7626 15.2654 34.795 15.2332C34.8759 15.169 34.9568 15.0886 35.054 15.0243C35.1025 14.9922 35.151 14.944 35.2481 14.9118C35.2967 14.8958 35.3938 14.8797 35.4909 14.944C35.588 15.0083 35.6042 15.1047 35.6042 15.1368C35.6204 15.2493 35.6366 15.3618 35.6366 15.4743C35.6366 15.6993 35.6203 15.9403 35.5718 16.1493C35.4747 16.5832 35.2967 17.001 35.0863 17.3706C34.8759 17.7563 34.6169 18.1099 34.358 18.4474C33.8239 19.1223 33.2252 19.733 32.6264 20.3276C31.4126 21.5008 30.2311 22.7221 29.0659 23.9435C27.9006 25.1809 26.7839 26.4344 25.6996 27.7361C23.5471 30.3395 21.5565 33.0715 19.8895 36.0124C18.1902 38.9212 16.6528 41.9425 15.3257 45.0441L15.0667 45.6226C14.9858 45.8155 14.8887 46.0083 14.824 46.2012L14.3547 47.3743C14.0472 48.1618 13.7072 48.9332 13.4159 49.7206L12.542 52.0991L11.7328 54.4936C11.4577 55.2971 11.2311 56.1006 10.9883 56.9041C10.7456 57.7077 10.4867 58.5112 10.2925 59.3308L9.6451 61.7735L9.09486 64.2484C8.90065 65.068 8.75498 65.9036 8.59314 66.7232C8.44749 67.5589 8.26943 68.3785 8.15614 69.2142L7.78394 71.7212L7.50878 74.2282C7.20129 77.5869 7.08802 80.9617 7.28222 84.3365C7.28222 84.3848 7.24984 84.433 7.1851 84.449C7.13655 84.449 7.08805 84.4169 7.07186 84.3526C6.86147 80.9778 6.95851 77.5869 7.24983 74.2121L7.50878 71.689L7.86486 69.182C7.97815 68.3464 8.14001 67.5107 8.28566 66.675C8.43132 65.8394 8.57697 65.0037 8.77118 64.1841L9.32142 61.7092L9.95258 59.2504C10.1468 58.4308 10.4057 57.6273 10.6485 56.8077C10.8912 56.0042 11.1178 55.1846 11.3929 54.3811L12.1859 51.9705L13.0599 49.592C13.3351 48.7885 13.6749 48.0171 13.9824 47.2297L14.4517 46.0565C14.5326 45.8637 14.6135 45.6708 14.6945 45.478L14.9534 44.8995C16.2967 41.7818 17.8342 38.7605 19.5335 35.8357C21.2005 32.8787 23.1911 30.1146 25.3598 27.4951C26.4441 26.1933 27.577 24.9238 28.7422 23.6863C29.9074 22.4489 31.0889 21.2276 32.3027 20.0544C32.9015 19.4598 33.4841 18.8652 34.002 18.2063C34.2609 17.8849 34.5037 17.5474 34.6979 17.1778C34.8921 16.8242 35.0702 16.4385 35.1511 16.0528C35.1996 15.86 35.2158 15.6672 35.1996 15.4743C35.1996 15.3779 35.1834 15.2815 35.1672 15.185C35.1672 15.169 35.1672 15.2011 35.2158 15.2493C35.2805 15.2975 35.3129 15.2654 35.3129 15.2654C35.3129 15.2654 35.2644 15.2815 35.232 15.3136C35.1511 15.3618 35.0863 15.4422 34.9892 15.5064C34.9407 15.5386 34.9083 15.5707 34.8597 15.6189C34.795 15.6672 34.7626 15.6832 34.7141 15.7154C34.536 15.8279 34.358 15.9403 34.1962 16.0528C33.5002 16.535 32.8206 17.0331 32.157 17.5474C31.4935 18.0617 30.8299 18.6081 30.1988 19.1545C29.8751 19.4277 29.5675 19.7169 29.26 20.0062C28.9525 20.2955 28.6451 20.5847 28.3376 20.874C27.1238 22.0472 25.9585 23.2685 24.8256 24.522C22.5761 27.0451 20.5207 29.7289 18.6595 32.5412C14.9858 38.198 12.1374 44.3691 10.0982 50.7973L9.70982 52.0026C9.58035 52.4044 9.48321 52.8062 9.35374 53.224L8.67406 55.6506L8.07522 58.1094L7.92958 58.7201L7.84866 59.0255L7.78394 59.3308L7.52498 60.5682L7.26602 61.8057L7.13658 62.4324C7.08803 62.6413 7.05563 62.8502 7.02327 63.0592L6.58634 65.5501C6.50543 65.9679 6.45684 66.3858 6.39211 66.8036L6.21407 68.0571L6.03603 69.3106C5.97129 69.7284 5.93894 70.1463 5.89039 70.5641L5.59911 73.0711L5.37255 75.5942C5.34018 76.012 5.29159 76.4298 5.25923 76.8477L5.17831 78.1172C5.12976 78.9529 5.06502 79.8046 5.01647 80.6403L4.88703 83.1634L4.85463 83.7901L4.83843 84.4169L4.80611 85.6865C4.74137 87.3739 4.74136 89.0613 4.70899 90.7487C4.70899 90.7969 4.66042 90.8451 4.61187 90.8451C4.62805 90.8612 4.59565 90.813 4.57947 90.7648Z" fill="#07453A"/>
<path d="M4.59566 82.3287C4.20725 80.9948 3.80263 79.677 3.36566 78.3432C2.94488 77.0254 2.50795 75.6915 2.10335 74.3577C1.69875 73.0238 1.32655 71.6739 1.00287 70.324C0.695378 68.958 0.436435 67.592 0.274595 66.1938C0.12894 64.7957 0.112724 63.3815 0.242196 61.9834L0.371636 60.9388L0.484955 60.4245L0.549675 60.1674L0.630595 59.9103L0.792434 59.396L0.986673 58.8978C1.05141 58.7371 1.1161 58.5764 1.18083 58.3996C1.24557 58.2389 1.32654 58.0782 1.39127 57.9175C2.00626 56.6479 2.75074 55.4587 3.43046 54.2534C4.11019 53.0481 4.72516 51.8107 5.03266 50.4929C5.09739 50.1555 5.17833 49.834 5.2107 49.4966C5.22688 49.3198 5.25923 49.1591 5.27542 48.9823L5.30774 48.468C5.32392 48.2913 5.32394 48.1306 5.32394 47.9538L5.32394 47.4395C5.30775 47.1021 5.3078 46.7485 5.29162 46.411C5.22688 45.029 5.08123 43.6469 5.04886 42.2488C5.01649 41.5416 5.04884 40.8506 5.11358 40.1435L5.1783 39.6132L5.2107 39.3561L5.25922 39.0989L5.37254 38.5847C5.42109 38.4079 5.46962 38.2472 5.51818 38.0704C5.5991 37.7169 5.7447 37.3955 5.87418 37.058L5.92277 36.9294L5.98749 36.8169L6.10081 36.5759C6.18173 36.4151 6.26259 36.2544 6.35969 36.1098C6.4568 35.9652 6.55395 35.8045 6.65105 35.6598L6.97473 35.242C7.07183 35.0974 7.20132 34.9688 7.31461 34.8402C7.4279 34.7117 7.55732 34.567 7.67061 34.4545C8.67401 33.4421 9.80689 32.6225 10.9074 31.7547C11.4577 31.3208 11.9756 30.8869 12.4773 30.4048C12.979 29.9227 13.4159 29.4084 13.8205 28.862C14.5812 27.721 15.1638 26.4675 15.6169 25.1658C16.0863 23.8641 16.4585 22.5302 16.8631 21.1964C17.2677 19.8625 17.7208 18.5286 18.352 17.2751C18.4329 17.1144 18.4977 16.9537 18.5948 16.8091L18.8537 16.3431C19.0156 16.0377 19.226 15.7484 19.4202 15.4431C19.4687 15.3628 19.5173 15.2985 19.5658 15.2181L19.7276 15.0092L20.0513 14.5914C20.1646 14.4628 20.2941 14.3342 20.4236 14.2057L20.6016 14.0128L20.7958 13.8361C21.3137 13.3379 21.9287 12.9522 22.5598 12.6308C23.191 12.2933 23.8546 12.0522 24.5181 11.8272C25.1817 11.6022 25.8614 11.4094 26.5249 11.1844C27.1884 10.9755 27.852 10.7666 28.4994 10.5095C31.1212 9.56129 33.5487 8.17922 35.9763 6.81323L37.8051 5.78472C38.4201 5.44724 39.0513 5.10975 39.6986 4.83656C40.346 4.56336 41.0257 4.3223 41.7378 4.2098C42.4499 4.09731 43.2106 4.12945 43.8903 4.45086C44.2302 4.61157 44.5215 4.83655 44.7804 5.10975C45.0394 5.38295 45.2174 5.68829 45.4116 5.99363C45.4925 6.15434 45.5896 6.31504 45.6543 6.47575L45.7515 6.73288L45.8162 7.00608C45.8971 7.35963 45.9132 7.74532 45.8485 8.09887C45.7838 8.45242 45.6705 8.80598 45.541 9.12739L45.1364 10.0916C44.8775 10.7184 44.6509 11.3773 44.5862 12.0522C44.5215 12.7272 44.6347 13.3861 44.9099 14.0128C45.1688 14.6396 45.541 15.2342 45.8 15.9092C45.9295 16.2466 46.0103 16.6002 46.0103 16.9698C46.0265 17.3394 45.9618 17.693 45.8485 18.0465C45.7352 18.384 45.5896 18.7215 45.4116 19.0268C45.3145 19.1715 45.2335 19.3322 45.1364 19.4768L44.829 19.9107C44.392 20.4732 43.8579 20.9553 43.2915 21.3731C42.725 21.791 42.1263 22.1606 41.5436 22.5463C40.961 22.932 40.3945 23.3177 39.8767 23.7676L39.5045 24.1212C39.3912 24.2498 39.2617 24.3622 39.1484 24.4908C38.9218 24.7319 38.7762 25.0211 38.6791 25.3426C38.501 25.9854 38.4848 26.6925 38.501 27.3674C38.5172 28.0585 38.5819 28.7495 38.6467 29.4405C38.7114 30.1316 38.7761 30.8226 38.8085 31.5297C38.8247 31.8833 38.8247 32.2368 38.8085 32.5743C38.7923 32.9278 38.7438 33.2814 38.6305 33.6189C38.6144 33.6671 38.5496 33.6992 38.501 33.6832C38.4525 33.6671 38.4201 33.6028 38.4363 33.5546C38.5334 33.2332 38.582 32.8957 38.5981 32.5582C38.6143 32.2207 38.6143 31.8672 38.5981 31.5297C38.5658 30.8387 38.501 30.1476 38.4363 29.4566C38.3716 28.7656 38.3068 28.0745 38.2907 27.3674C38.2745 26.6764 38.2907 25.9532 38.4687 25.2622C38.5173 25.0854 38.5819 24.9247 38.6629 24.7479C38.7114 24.6676 38.7599 24.5872 38.8085 24.5069C38.8732 24.4265 38.9218 24.3623 38.9865 24.298C39.116 24.1694 39.2293 24.0408 39.3588 23.9123L39.7472 23.5587C40.2813 23.0927 40.8639 22.6909 41.4465 22.3052C42.0291 21.9195 42.6279 21.5499 43.1782 21.1321C43.7284 20.7142 44.2301 20.2482 44.6509 19.7018L44.9423 19.284C45.0394 19.1393 45.1202 18.9947 45.2011 18.8501C45.363 18.5608 45.5086 18.2394 45.6057 17.934C45.7029 17.6126 45.7515 17.2912 45.7353 16.9537C45.7191 16.6163 45.6543 16.2948 45.5248 15.9895C45.2821 15.3628 44.9098 14.7681 44.6347 14.1093C44.4891 13.7878 44.3758 13.4343 44.3272 13.0807C44.2625 12.7272 44.2464 12.3576 44.2949 12.004C44.3758 11.2808 44.6024 10.6059 44.8614 9.96305C45.1203 9.30416 45.4439 8.69348 45.541 8.03459C45.6705 7.39177 45.4763 6.73288 45.1364 6.15434C44.9584 5.86507 44.7804 5.5758 44.5538 5.33474C44.3272 5.09368 44.0683 4.90084 43.777 4.7562C43.1782 4.46693 42.4984 4.45086 41.8187 4.54729C41.1552 4.65978 40.4916 4.88477 39.8605 5.1419C38.5981 5.68829 37.4005 6.42754 36.1867 7.1025C33.7592 8.48457 31.2992 9.86663 28.6612 10.8309C27.9977 11.088 27.3341 11.2969 26.6705 11.5058C26.007 11.7147 25.3273 11.9237 24.6799 12.1486C23.369 12.5826 22.0905 13.1611 21.0871 14.0932L20.8929 14.27L20.7149 14.4628C20.6016 14.5914 20.4721 14.7039 20.3588 14.8324L20.0351 15.2342L19.8733 15.427C19.8247 15.4913 19.7762 15.5717 19.7276 15.636C19.5334 15.9252 19.3392 16.1984 19.1774 16.5038L18.9184 16.9537C18.8375 17.0984 18.7566 17.2591 18.6919 17.4198C18.0769 18.6572 17.6399 19.9589 17.2353 21.2928C16.8307 22.6106 16.4585 23.9605 15.9891 25.2783C15.5198 26.5961 14.9372 27.8978 14.1442 29.0709C13.7396 29.6495 13.2702 30.1959 12.7524 30.678C12.2345 31.1601 11.7004 31.6261 11.1502 32.06C10.0496 32.9278 8.91682 33.7474 7.96197 34.7277C7.8325 34.8402 7.71918 34.9688 7.60589 35.0974C7.4926 35.2259 7.37931 35.3545 7.28221 35.4831L6.97473 35.8848C6.87763 36.0295 6.79668 36.1741 6.69957 36.3187C6.60247 36.4634 6.53773 36.608 6.45681 36.7687L6.34357 36.9937L6.27877 37.1062L6.23025 37.2187C6.11697 37.5401 5.97129 37.8454 5.89038 38.1829C5.84182 38.3436 5.79329 38.5043 5.74474 38.6811L5.64762 39.1793L5.5991 39.4364L5.5667 39.6935L5.50198 40.2078C5.45342 40.8828 5.42109 41.5738 5.45346 42.2648C5.48582 43.6469 5.63148 45.0289 5.69622 46.4271C5.7124 46.7806 5.71235 47.1342 5.72854 47.4717L5.72854 48.002C5.72854 48.1788 5.72852 48.3556 5.71234 48.5323L5.68002 49.0627C5.66383 49.2394 5.64766 49.4162 5.6153 49.593C5.58293 49.9465 5.50199 50.3001 5.43726 50.6376C5.09739 52.0196 4.48237 53.3053 3.78646 54.5266C3.09055 55.748 2.36228 56.9211 1.76347 58.1586C1.18085 59.396 0.776297 60.6977 0.679194 62.0798C0.549722 63.4458 0.565859 64.8279 0.711514 66.1938C0.873354 67.5598 1.09998 68.9258 1.40747 70.2758C1.71497 71.6257 2.0872 72.9595 2.45943 74.2934C2.84784 75.6272 3.25241 76.9611 3.64082 78.295C4.02924 79.6288 4.41762 80.9627 4.7413 82.3287C4.75748 82.3769 4.72512 82.4411 4.66038 82.4411C4.66038 82.409 4.61184 82.3769 4.59566 82.3287Z" fill="#07453A"/>
<path d="M11.2634 88.0329C13.1245 87.5347 14.9857 87.0847 16.8631 86.6187C18.7404 86.1687 20.6015 85.7187 22.4627 85.2366C24.3238 84.7545 26.1689 84.2563 27.9976 83.6778L29.3571 83.2278C29.8102 83.0671 30.2634 82.9224 30.7165 82.7617C31.6228 82.4403 32.513 82.0868 33.4031 81.7493C36.9798 80.3672 40.5565 78.953 43.9713 77.2174C45.6868 76.3657 47.3376 75.4014 48.9398 74.3729L50.1213 73.5694L50.4125 73.3605L50.7038 73.1516L51.2703 72.7176L51.8367 72.2837L52.1281 72.0748L52.4031 71.8498L53.5037 70.9338L53.7788 70.7088L54.0377 70.4678L54.5557 69.9857L55.0735 69.5035C55.2515 69.3428 55.4296 69.1821 55.5914 69.0054L56.5949 67.9768C56.7567 67.8001 56.9347 67.6394 57.0965 67.4626L57.582 66.9323L58.5369 65.8716C58.8444 65.5181 59.1519 65.1324 59.4594 64.7788C59.7669 64.4092 60.0744 64.0396 60.3657 63.6699L61.2396 62.5289C63.5701 59.5077 65.5446 56.2293 67.2439 52.8063C68.9433 49.3832 70.3674 45.8477 71.6945 42.264L73.7175 36.8964L74.7048 34.1966L74.818 33.8591L74.8504 33.7787C74.5106 33.7466 75.3359 33.7145 75.255 33.843L75.255 33.8912L75.2388 34.068L75.1903 34.7912C75.1741 35.0322 75.1418 35.2733 75.1094 35.5144L75.0285 36.2375C74.7533 38.1499 74.284 40.0141 73.7013 41.8462C73.1187 43.6782 72.439 45.462 71.6945 47.2298C70.9501 48.9975 70.1732 50.7492 69.3964 52.4848L68.1988 55.0883C67.7618 55.94 67.341 56.8078 66.904 57.6596C65.1076 61.0504 63.0199 64.2967 60.6247 67.3019C60.479 67.4947 60.3333 67.6876 60.1715 67.8643L59.7022 68.4107L58.7635 69.5035L57.7763 70.5642L57.2907 71.0945L56.7728 71.5927L55.7371 72.6052C55.381 72.9266 55.025 73.248 54.6689 73.5694L54.1349 74.0515C53.9568 74.2122 53.7626 74.3568 53.5846 74.5176L52.4679 75.4336C52.0795 75.7228 51.6911 76.0121 51.3189 76.3014L50.7362 76.7353L50.1374 77.1371L48.9398 77.9566L47.7098 78.712L47.0948 79.0977L46.4636 79.4512C46.0429 79.6923 45.622 79.9333 45.2012 80.1583L43.9227 80.8172C43.7123 80.9297 43.5019 81.0422 43.2754 81.1386L42.628 81.444C42.191 81.6529 41.754 81.8618 41.3171 82.0546L39.99 82.6171C39.7635 82.7135 39.553 82.81 39.3265 82.8903L38.6467 83.1474C38.1936 83.3242 37.7566 83.501 37.3035 83.6617L35.944 84.1438L35.2643 84.3849L34.5846 84.6098L33.2089 85.0598L31.8171 85.4777C28.1271 86.5705 24.3725 87.4061 20.5854 88.1454C16.8145 88.8846 13.0112 89.4953 9.20797 90.0738C9.15942 90.0899 9.09473 90.0417 9.09473 89.9935C9.07854 89.9453 9.1271 89.881 9.17565 89.881C12.9789 89.3024 16.7659 88.6596 20.5368 87.9204C24.3077 87.1651 28.0462 86.3133 31.7362 85.2205L33.1118 84.8027L34.4713 84.3527L35.151 84.1277L35.8307 83.8867L37.1901 83.4046C37.6433 83.2278 38.0803 83.051 38.5335 82.8742L39.197 82.6171C39.4236 82.5368 39.6339 82.4243 39.8605 82.3439L41.1876 81.7814C41.6246 81.5886 42.0616 81.3797 42.4824 81.1708L43.1297 80.8654C43.3401 80.769 43.5505 80.6404 43.7609 80.544L45.0394 79.8851C45.4602 79.6601 45.8648 79.4191 46.2856 79.178L46.9168 78.8245L47.5318 78.4388L48.7456 77.6835L49.927 76.8799L50.5259 76.4782L51.0923 76.0443C51.4807 75.755 51.8529 75.4818 52.2413 75.1764L53.3419 74.2604C53.5199 74.0997 53.7141 73.9551 53.8921 73.8104L54.4261 73.3283C54.7822 73.0069 55.1383 72.6855 55.4943 72.3641L56.5139 71.3677L57.0156 70.8695L57.5011 70.3392L58.4722 69.2946L59.3947 68.2018L59.864 67.6554C60.0258 67.4787 60.1554 67.2858 60.3172 67.093C62.6962 64.1038 64.7516 60.8737 66.548 57.4989C66.985 56.6471 67.4058 55.7954 67.8428 54.9436L69.0404 52.3402C69.8172 50.5885 70.5941 48.8529 71.3223 47.0852C72.0506 45.3174 72.7303 43.5496 73.3129 41.7337C73.8794 39.9177 74.3487 38.0696 74.6239 36.1893L74.7048 35.4822C74.7372 35.2412 74.7695 35.0162 74.7695 34.7751L74.818 34.068L74.8342 33.8912L74.8342 33.843C74.7533 33.9073 75.5464 33.9555 75.2065 33.9234L75.1741 34.0037L75.0447 34.3412L74.0736 37.0411L72.0667 42.4086C70.7396 45.9924 69.3155 49.56 67.6161 52.9991C65.9006 56.4382 63.9262 59.7487 61.5795 62.7861L60.7056 63.9271C60.4143 64.3128 60.0906 64.6663 59.7993 65.0359C59.4918 65.4056 59.2004 65.7752 58.8768 66.1448L57.9219 67.2215L57.4364 67.7519C57.2745 67.9286 57.0965 68.1054 56.9347 68.2661L55.9313 69.2946C55.7695 69.4714 55.5914 69.6321 55.4134 69.7928L54.8793 70.291L54.3452 70.7892L54.0863 71.0302L53.8112 71.2552L52.7107 72.1873L52.4355 72.4123L52.1443 72.6373L51.5616 73.0712L50.979 73.5051L50.6877 73.7301L50.3963 73.939L49.1987 74.7586C47.5803 75.8032 45.9134 76.7835 44.1817 77.6352C40.7507 79.3869 37.1578 80.8011 33.5811 82.1993C32.691 82.5367 31.7847 82.8903 30.8784 83.2117C30.4252 83.3724 29.9721 83.5171 29.5027 83.6778L28.1271 84.1117C26.2821 84.6741 24.421 85.1884 22.5598 85.6384C20.6824 86.0883 18.8051 86.5222 16.944 86.9401C15.0666 87.3579 13.1893 87.7757 11.3281 88.2097C11.2795 88.2257 11.2148 88.1936 11.1987 88.1293C11.1825 88.0972 11.2148 88.0489 11.2634 88.0329Z" fill="#07453A"/>
<path d="M17.8667 88.4991C18.5465 88.5634 19.21 88.5955 19.8897 88.6277C20.5695 88.6437 21.2492 88.6598 21.9289 88.6598C23.2884 88.6759 24.6479 88.6437 25.9911 88.5955C28.71 88.4991 31.4127 88.3223 34.1155 88.0491C36.8182 87.7759 39.5047 87.4224 42.1427 86.8117C42.7901 86.651 43.4536 86.4742 44.0848 86.2653L44.5541 86.0885C44.716 86.0242 44.8617 85.96 45.0073 85.8957C45.3148 85.7671 45.6061 85.5903 45.8975 85.4457C47.0627 84.8029 48.1308 83.9672 49.1181 83.0673C51.1087 81.2674 52.8565 79.1621 54.9928 77.4265C55.1223 77.314 55.2518 77.2015 55.3974 77.1051L55.8182 76.7998C55.9639 76.7033 56.0934 76.5908 56.239 76.4944L56.676 76.2212C57.2425 75.8355 57.8736 75.5302 58.521 75.2731C59.7995 74.7588 61.1428 74.4535 62.4537 74.116C63.7646 73.7785 65.0755 73.4089 66.2569 72.8143C66.8395 72.5089 67.406 72.1393 67.8753 71.6893C68.1181 71.4643 68.3447 71.2233 68.5389 70.9662L68.8625 70.5805C68.9758 70.4519 69.0567 70.3073 69.1538 70.1787C69.9145 69.0859 70.4971 67.8806 70.9827 66.6271C71.4682 65.3736 71.8566 64.088 72.2288 62.7863C72.601 61.4845 72.9571 60.1828 73.3617 58.8972C73.7663 57.6115 74.2195 56.3259 74.8506 55.1045C75.498 53.8832 76.3719 52.8225 77.2782 51.8101C78.1845 50.7976 79.1556 49.8495 79.981 48.8049C80.8226 47.7603 81.5508 46.6193 81.9878 45.3658C82.4409 44.1123 82.5704 42.7784 82.4733 41.4446C82.36 40.1107 82.0525 38.809 81.6641 37.5234C81.2757 36.2377 80.8225 34.9521 80.4503 33.6504C80.0619 32.3487 79.7544 31.0148 79.6411 29.6488C79.5926 28.9738 79.5926 28.2828 79.6573 27.5918C79.722 26.9007 79.8676 26.2419 79.9971 25.583C80.2561 24.2652 80.5312 22.9313 80.5798 21.5975C80.5959 20.9386 80.5636 20.2636 80.3694 19.6369C80.2723 19.3315 80.1428 19.0262 79.981 18.753C79.9324 18.6887 79.9 18.6083 79.8515 18.5601L79.7868 18.4798L79.6896 18.4155C79.5763 18.3191 79.4307 18.2548 79.285 18.1744C78.6862 17.9173 78.0065 17.8048 77.3429 17.6602C77.0031 17.5798 76.6795 17.5156 76.3396 17.3709C75.9997 17.2263 75.7246 17.0174 75.4495 16.8084C74.9154 16.3745 74.446 15.8764 73.8796 15.571C73.7339 15.4907 73.5883 15.4264 73.4265 15.3942C73.3455 15.3782 73.2646 15.346 73.1837 15.33L72.9409 15.2978C72.6173 15.2817 72.2935 15.346 72.0022 15.4746C71.4196 15.7478 70.9503 16.246 70.5619 16.7763C70.3677 17.0495 70.1897 17.3388 70.0278 17.628C69.866 17.9173 69.7203 18.2227 69.5746 18.528C69.2995 19.1387 69.0567 19.7654 68.8301 20.4082C68.6036 21.0511 68.4094 21.6939 68.1667 22.3206C68.1505 22.3689 68.0857 22.401 68.0371 22.3849C67.9886 22.3689 67.9562 22.3046 67.9724 22.2564C68.199 21.6296 68.3932 20.9707 68.6198 20.344C68.8464 19.7011 69.073 19.0744 69.3643 18.4476C69.5099 18.1423 69.6555 17.837 69.8174 17.5316C69.9792 17.2263 70.1573 16.937 70.3515 16.6638C70.5457 16.3906 70.7722 16.1174 71.015 15.8764C71.2739 15.6353 71.5491 15.4264 71.8728 15.2817C72.1965 15.1371 72.5525 15.0568 72.9247 15.0728L73.1998 15.105C73.2807 15.121 73.3779 15.1532 73.4588 15.1693C73.6368 15.2175 73.7987 15.2817 73.9605 15.3621C74.5917 15.6996 75.061 16.1978 75.5789 16.6156C75.8379 16.8245 76.113 17.0174 76.4043 17.1459C76.6956 17.2745 77.0355 17.3388 77.3591 17.4191C78.0227 17.5638 78.7024 17.6763 79.3498 17.9495C79.5116 18.0137 79.6735 18.0941 79.8191 18.2227L79.9324 18.303L80.0295 18.4155C80.0942 18.4798 80.1428 18.5601 80.1913 18.6405C80.3856 18.9458 80.5151 19.2672 80.6283 19.6047C80.8226 20.2797 80.8711 20.9707 80.8549 21.6617C80.8225 23.0277 80.5474 24.3616 80.2885 25.6955C80.159 26.3543 80.0295 27.0132 79.9648 27.6721C79.9162 28.331 79.9162 29.006 79.9648 29.6649C80.0781 30.9987 80.3856 32.3004 80.7578 33.5861C81.13 34.8717 81.5832 36.1413 81.9878 37.443C82.3762 38.7447 82.716 40.0625 82.8293 41.4446C82.9264 42.8106 82.797 44.2087 82.3277 45.5104C81.8745 46.8121 81.13 48.0014 80.2723 49.0459C79.4145 50.1227 78.4597 51.0708 77.5534 52.0833C76.6471 53.0796 75.8055 54.1242 75.1743 55.2974C74.5593 56.4866 74.1223 57.7562 73.7177 59.0257C73.3131 60.3114 72.9733 61.6131 72.6011 62.9148C72.2288 64.2165 71.8404 65.5182 71.3549 66.7878C70.8693 68.0574 70.2705 69.2948 69.4775 70.4358C69.3804 70.5805 69.2995 70.7251 69.1862 70.8537L68.8625 71.2554C68.6522 71.5286 68.4256 71.7858 68.1505 72.0268C67.6326 72.5089 67.0499 72.8946 66.4349 73.216C65.205 73.8588 63.8617 74.2285 62.5508 74.566C61.2399 74.9034 59.9128 75.2248 58.6666 75.707C58.0516 75.948 57.4528 76.2534 56.9026 76.623L56.4818 76.8962C56.3361 76.9926 56.2067 77.089 56.0772 77.1855L55.6726 77.4908C55.5431 77.5872 55.4137 77.6997 55.2842 77.8122C53.1964 79.5157 51.4647 81.6049 49.4417 83.4369C48.4383 84.3529 47.354 85.2207 46.1402 85.8796C45.8327 86.0403 45.5252 86.201 45.2177 86.3457C45.0559 86.4099 44.894 86.4903 44.7322 86.5546L44.2467 86.7313C43.5993 86.9563 42.9358 87.1331 42.2723 87.2938C40.9452 87.6152 39.6018 87.8563 38.2424 88.0491C36.8991 88.258 35.5397 88.4188 34.1803 88.5634C32.8208 88.708 31.4613 88.8045 30.1019 88.8848C28.7424 88.9651 27.3829 89.0294 26.0235 89.0616C23.3045 89.0937 20.5695 89.0937 17.8667 88.7402C17.8182 88.7402 17.7696 88.6759 17.7858 88.6277C17.7534 88.5312 17.802 88.483 17.8667 88.4991Z" fill="#07453A"/>
<path d="M48.0174 21.2596C48.1468 20.8739 48.2277 20.4722 48.2924 20.0704C48.3572 19.6686 48.4057 19.2669 48.4705 18.849C48.5676 18.0294 48.6647 17.2098 48.8266 16.3902C48.9075 15.9724 49.0046 15.5706 49.134 15.1689C49.2635 14.7671 49.4253 14.3493 49.7005 13.9797C49.8299 13.8029 49.9918 13.6261 50.186 13.4815C50.3802 13.3368 50.5906 13.2404 50.8172 13.1761C51.2541 13.0476 51.6911 13.0154 52.1119 12.9833C52.5327 12.9511 52.9372 12.9351 53.3095 12.8387C53.6979 12.7422 54.0702 12.5976 54.41 12.4208C55.1221 12.0512 55.7371 11.5209 56.3197 10.9423C57.4688 9.78525 58.5046 8.43532 59.9126 7.45502C60.0906 7.34253 60.2686 7.21396 60.4628 7.11754C60.6409 7.00505 60.8513 6.92469 61.0455 6.84434C61.1426 6.79613 61.2558 6.78006 61.3529 6.74792L61.5148 6.69971C61.531 6.69971 61.531 6.69971 61.531 6.69971C61.5634 6.69971 61.5957 6.69971 61.628 6.69971C61.6604 6.69971 61.6766 6.71578 61.6928 6.71578C61.709 6.71578 61.7252 6.73185 61.7413 6.73185C61.7899 6.74792 61.8223 6.78006 61.8385 6.79613C62.0327 6.95684 62.1621 7.10147 62.3078 7.26218C62.5829 7.58359 62.8419 7.88893 63.117 8.21034C63.3921 8.51568 63.6511 8.83709 63.9424 9.09422C64.0071 9.1585 64.0718 9.19064 64.1689 9.25492C64.2499 9.30313 64.347 9.35135 64.4279 9.39956C64.6059 9.49598 64.8001 9.57633 64.9781 9.65669C65.3504 9.81739 65.7388 9.9781 66.1272 10.1549C66.5156 10.3316 66.8879 10.5245 67.2439 10.7816C67.5999 11.0388 67.9075 11.3602 68.1502 11.6976C68.4092 12.0512 68.6034 12.4369 68.7329 12.8547C68.8623 13.2726 68.927 13.6904 68.9432 14.1243C68.9756 14.976 68.7976 15.8117 68.5548 16.6152C68.0531 18.2223 67.2601 19.6847 66.5318 21.1632C66.5156 21.2114 66.4509 21.2275 66.4023 21.2114C66.3537 21.1953 66.3376 21.1311 66.3538 21.0828C67.0659 19.5883 67.8265 18.1098 68.2959 16.5349C68.5224 15.7474 68.6681 14.9439 68.6357 14.1404C68.6034 13.3368 68.3444 12.5494 67.8751 11.9226C67.6323 11.6012 67.3572 11.312 67.0335 11.087C66.7099 10.862 66.3538 10.6691 65.9816 10.5084C65.6093 10.3477 65.2209 10.187 64.8325 10.0263C64.6383 9.94596 64.4441 9.84953 64.2499 9.75311C64.1528 9.7049 64.0556 9.65669 63.9747 9.60847C63.8938 9.56026 63.7643 9.49598 63.6834 9.41563C63.3436 9.12636 63.0846 8.80495 62.8095 8.48354C62.5344 8.16213 62.2754 7.85679 62.0003 7.55145C61.8708 7.40681 61.7252 7.24611 61.5957 7.14968C61.5795 7.13361 61.5633 7.13361 61.5633 7.13361C61.5633 7.13361 61.5633 7.13361 61.5795 7.13361C61.5957 7.13361 61.6118 7.13361 61.628 7.13361L61.6119 7.13361L61.4662 7.18182C61.3691 7.21396 61.272 7.23003 61.1911 7.27825C61.0131 7.3586 60.8188 7.43895 60.657 7.53537C60.479 7.6318 60.3172 7.74429 60.1553 7.85679C59.4918 8.32283 58.9091 8.8853 58.3427 9.47991C57.7763 10.0745 57.226 10.7013 56.6434 11.2959C56.0446 11.8905 55.3972 12.453 54.6366 12.8547C54.2482 13.0636 53.8436 13.2243 53.4228 13.3208C53.2124 13.369 52.9858 13.4172 52.7754 13.4333C52.565 13.4493 52.3547 13.4654 52.1443 13.4815C51.7397 13.5136 51.335 13.5458 50.9628 13.6583C50.6067 13.7707 50.2993 13.9636 50.0889 14.285C49.8785 14.5903 49.7166 14.96 49.6034 15.3457C49.4901 15.7314 49.393 16.117 49.3121 16.5188C49.1502 17.3223 49.0531 18.1419 48.9075 18.9455C48.8427 19.3472 48.7618 19.7651 48.6485 20.1668C48.5352 20.5686 48.4219 20.9864 48.2277 21.356C48.1954 21.4043 48.1468 21.4203 48.0983 21.4043C48.0174 21.356 48.0012 21.3078 48.0174 21.2596Z" fill="#07453A"/>
<path d="M45.0716 9.91391C45.6542 9.25502 46.156 8.56399 46.6415 7.82474C47.127 7.10157 47.5639 6.33018 48.0333 5.57487C48.5188 4.81955 49.0367 4.08031 49.6841 3.43749C49.765 3.35713 49.846 3.27678 49.9431 3.2125L50.202 2.98751C50.3801 2.84288 50.5743 2.71431 50.7685 2.58575C50.9627 2.47325 51.1731 2.36076 51.3835 2.24827C51.5939 2.15184 51.8205 2.07149 52.0632 2.02328C52.306 1.97507 52.5973 1.97507 52.84 2.08756C52.9695 2.15184 53.0828 2.2322 53.1799 2.32862C53.2608 2.42504 53.3418 2.52146 53.4065 2.63396C53.6493 3.06786 53.7464 3.50177 53.892 3.9196C54.0215 4.33744 54.1671 4.7392 54.4261 5.06061C54.685 5.36595 55.0411 5.60701 55.4295 5.75164C55.8341 5.89628 56.2549 5.96056 56.7081 6.05698C56.9346 6.1052 57.1612 6.18555 57.3716 6.29804C57.582 6.41054 57.7762 6.58731 57.9219 6.78016C58.0514 6.98908 58.1323 7.21406 58.1971 7.43905C58.2456 7.66404 58.2618 7.88903 58.278 8.11401C58.2942 8.339 58.278 8.58006 58.2133 8.80505C58.1485 9.03003 58.0838 9.22288 58.0514 9.4318C58.0352 9.48001 57.9866 9.52822 57.9381 9.51215C57.8895 9.49608 57.841 9.44787 57.8572 9.39966C57.8895 9.17467 57.9543 8.94968 58.0028 8.74076C58.0514 8.53185 58.0514 8.339 58.0352 8.11401C58.0028 7.68011 57.9219 7.2462 57.6953 6.92479C57.582 6.76409 57.4364 6.63552 57.2422 6.5391C57.0642 6.44268 56.8537 6.39447 56.6433 6.34625C56.2226 6.24983 55.7694 6.20162 55.3162 6.05698C54.8792 5.91235 54.4585 5.65522 54.1348 5.26953C53.8273 4.88383 53.6655 4.44993 53.5198 4.0321C53.3742 3.61426 53.2608 3.18036 53.0504 2.84288C53.0019 2.76252 52.9372 2.68217 52.8724 2.61789C52.8077 2.55361 52.7429 2.50539 52.662 2.47325C52.5163 2.40897 52.3222 2.40897 52.1441 2.44111C51.9499 2.47325 51.7557 2.55361 51.5615 2.63396C51.3673 2.73038 51.1893 2.84288 50.995 2.9393C50.817 3.06786 50.639 3.18036 50.4771 3.30892L50.2344 3.51784C50.1534 3.58212 50.0725 3.66247 49.9916 3.74283C49.3766 4.35351 48.8749 5.06061 48.4218 5.81593C47.9524 6.55517 47.5154 7.32656 47.0299 8.08187C46.5444 8.82112 45.9618 9.56036 45.1849 10.0585C45.1364 10.0907 45.0716 10.0746 45.0392 10.0264C45.0392 9.99427 45.0392 9.94605 45.0716 9.91391Z" fill="#07453A"/>
<path d="M64.687 9.49648C65.0593 8.80545 65.5933 8.19477 66.2245 7.71265C66.532 7.47159 66.8718 7.2466 67.2279 7.05376C67.5839 6.86091 67.9562 6.7002 68.3932 6.63592C68.6036 6.60378 68.8302 6.60378 69.0567 6.63592C69.2833 6.68413 69.4937 6.76449 69.6717 6.87698C70.0439 7.10197 70.3191 7.40731 70.5942 7.68051C70.8532 7.96978 71.1121 8.24298 71.4034 8.48404C71.6786 8.72509 71.986 8.93401 72.3097 9.09472C72.6334 9.25542 73.0056 9.38399 73.3616 9.51255C73.7339 9.64112 74.1062 9.78575 74.4622 10.0107C74.8021 10.2357 75.1095 10.5571 75.3199 10.9107C75.5303 11.2642 75.676 11.6339 75.7893 12.0196C75.9025 12.4052 75.9673 12.7909 75.9997 13.1766C76.0483 13.5623 76.0482 13.9641 76.0482 14.3498C76.0482 15.1372 75.9511 15.9086 75.8379 16.6639C75.8217 16.7122 75.7731 16.7604 75.7245 16.7443C75.676 16.7282 75.6274 16.68 75.6436 16.6318C75.7245 15.8765 75.7893 15.1051 75.7731 14.3498C75.757 13.5945 75.676 12.8231 75.4495 12.116C75.3362 11.7624 75.1905 11.4089 74.9963 11.1035C74.802 10.7982 74.5593 10.5411 74.2518 10.3482C73.6368 9.96253 72.86 9.83396 72.1155 9.48041C71.7433 9.30363 71.4034 9.07865 71.0959 8.80545C70.7884 8.54832 70.5133 8.25905 70.2543 7.96978C69.9954 7.69658 69.7202 7.42338 69.4289 7.2466C69.1376 7.06983 68.8139 7.02162 68.4579 7.06983C68.118 7.13411 67.7781 7.27874 67.4544 7.45552C67.1308 7.6323 66.8233 7.84121 66.5158 8.08227C66.2083 8.32333 65.9332 8.54832 65.6581 8.82152C65.3829 9.07865 65.124 9.35185 64.8327 9.62504C64.7841 9.65719 64.7194 9.65719 64.687 9.62504C64.6708 9.57683 64.6547 9.52862 64.687 9.49648Z" fill="#07453A"/>
<path d="M55.3325 5.46247C55.8827 4.78751 56.5139 4.17683 57.1937 3.61436C57.8734 3.05189 58.5693 2.52156 59.33 2.05551C59.7022 1.83053 60.0906 1.60554 60.4952 1.41269C60.8836 1.21985 61.2882 1.027 61.7252 0.882364C62.1622 0.7538 62.6477 0.657376 63.1332 0.76987C63.6188 0.914505 64.0072 1.17163 64.347 1.47697C65.0268 2.08766 65.5285 2.79476 66.192 3.29295C66.2729 3.35723 66.37 3.40544 66.451 3.46972C66.5319 3.51794 66.6289 3.56615 66.726 3.61436C66.9203 3.69471 67.1145 3.79113 67.3249 3.87149C67.7295 4.03219 68.1341 4.17683 68.5387 4.33753C68.9433 4.49824 69.3641 4.65894 69.7525 4.86786C70.1409 5.07678 70.5293 5.38212 70.7721 5.76781C70.8044 5.81602 70.8368 5.86424 70.8692 5.91245L70.9501 6.07315L71.031 6.23386C71.0634 6.28207 71.0634 6.34635 71.0957 6.39456C71.1281 6.50706 71.1767 6.60348 71.1929 6.71598L71.2576 7.03739C71.2899 7.14988 71.29 7.26237 71.3062 7.37487L71.3385 7.71235C71.3385 7.93734 71.3385 8.14626 71.3385 8.37124C71.3385 8.41946 71.29 8.46767 71.2415 8.46767C71.1929 8.46767 71.1443 8.41946 71.1443 8.37124L71.1443 8.35517C71.1282 8.14626 71.1281 7.92127 71.1119 7.71235L71.0796 7.39094C71.0634 7.27845 71.0634 7.18202 71.031 7.0856L70.9663 6.78026C70.9339 6.68383 70.9015 6.58741 70.8692 6.49099C70.853 6.44278 70.8368 6.39457 70.8045 6.34635L70.7235 6.21779L70.6426 6.08922C70.6264 6.04101 70.5779 6.00887 70.5455 5.96066C70.3027 5.62318 69.9791 5.38212 69.6069 5.18927C69.2346 4.99643 68.83 4.85179 68.4254 4.70716C68.0208 4.56252 67.6 4.41789 67.1954 4.25718C66.9851 4.17683 66.7908 4.09647 66.5804 4.00005C66.4833 3.95184 66.37 3.90363 66.2729 3.83935C66.1758 3.77506 66.0787 3.72685 65.9816 3.6465C65.2372 3.11617 64.7031 2.393 64.0719 1.8466C63.991 1.78232 63.91 1.71803 63.8291 1.65375C63.7482 1.58947 63.6673 1.54126 63.5702 1.49304C63.4892 1.44483 63.3922 1.39662 63.3113 1.36448L63.1818 1.3002L63.0523 1.26806C62.6963 1.1877 62.2754 1.25199 61.887 1.38055C61.4986 1.50912 61.1102 1.68589 60.7218 1.87874C60.3334 2.07158 59.9773 2.2805 59.6051 2.50549C58.8768 2.95547 58.1971 3.48579 57.5335 4.03219C56.87 4.57859 56.2226 5.14106 55.4943 5.65532C55.4458 5.68746 55.3811 5.67139 55.3487 5.63925C55.3001 5.5589 55.3001 5.51068 55.3325 5.46247Z" fill="#07453A"/>
<path d="M22.7705 68.0252C23.0618 67.286 23.4178 66.595 23.7576 65.8878C24.0975 65.1968 24.4051 64.4736 24.6155 63.7344C24.8258 62.9952 24.9391 62.2398 24.8905 61.4845C24.842 60.7453 24.5669 60.0221 24.1946 59.3471C23.8386 58.6561 23.4016 57.9972 23.078 57.258C22.9161 56.8884 22.7705 56.5027 22.6895 56.1009C22.6086 55.6991 22.5762 55.2974 22.5924 54.8795C22.6086 54.4778 22.6571 54.076 22.7381 53.6743C22.819 53.2886 22.9323 52.9029 23.0456 52.5172C23.175 52.1315 23.3045 51.7619 23.4664 51.4083C23.6282 51.0387 23.7901 50.6851 23.9681 50.3316C24.0005 50.2834 24.049 50.2673 24.0975 50.2834C24.1461 50.3155 24.1623 50.3637 24.1461 50.4119C23.8224 51.119 23.5311 51.8583 23.3045 52.5975C23.1912 52.9671 23.1103 53.3528 23.0456 53.7225C22.9808 54.1082 22.9484 54.4938 22.9484 54.8635C22.9484 55.2492 22.9808 55.6188 23.0618 55.9884C23.1427 56.358 23.2883 56.7116 23.4502 57.0651C23.7738 57.7562 24.2108 58.4151 24.5993 59.1222C24.9877 59.8293 25.2952 60.6006 25.3599 61.4363C25.4085 62.2559 25.2952 63.0755 25.0848 63.8469C24.8744 64.6183 24.5669 65.3736 24.2108 66.0807C23.8548 66.8039 23.4501 67.4788 22.9484 68.1056C22.9161 68.1538 22.8513 68.1538 22.8028 68.1217C22.7704 68.1217 22.7543 68.0734 22.7705 68.0252Z" fill="#07453A"/>
<path d="M37.1093 53.048C37.3035 52.4052 37.5948 51.8105 37.8699 51.232C38.145 50.6374 38.3878 50.0428 38.5658 49.4321C38.7276 48.8214 38.8086 48.1786 38.7438 47.5519C38.7115 47.2465 38.6467 46.9251 38.582 46.6037C38.5011 46.2984 38.4201 45.9769 38.323 45.6716C38.1288 45.0609 37.8699 44.4663 37.5948 43.8556C37.3196 43.261 37.0446 42.6503 36.8342 42.0075C36.6238 41.3647 36.5105 40.7058 36.4619 40.0308C36.4134 39.3559 36.4781 38.697 36.559 38.0381C36.559 37.9899 36.6238 37.9417 36.6723 37.9577C36.7209 37.9577 36.7694 38.006 36.7533 38.0702L36.7209 38.5524L36.7047 38.7934C36.7047 38.8738 36.7047 38.9541 36.7047 39.0345L36.7047 39.5166L36.7371 39.9987C36.8018 40.6415 36.9475 41.2683 37.1579 41.879C37.3682 42.4896 37.6595 43.0842 37.9346 43.6789C38.2259 44.2735 38.5011 44.8841 38.7276 45.5109C38.8409 45.8323 38.9219 46.1537 39.019 46.4751C39.0837 46.8126 39.1646 47.134 39.197 47.4715C39.2617 48.1625 39.1808 48.8536 39.019 49.5125C38.841 50.1713 38.5982 50.7981 38.3069 51.4088C38.0156 52.0195 37.6919 52.5819 37.2873 53.1123C37.2549 53.1605 37.1902 53.1605 37.1417 53.1283C37.1093 53.1283 37.0931 53.0962 37.1093 53.048Z" fill="#07453A"/>
<path d="M48.5188 40.8822C48.7616 40.1269 49.0853 39.4359 49.3929 38.7287C49.7004 38.0216 49.9755 37.3145 50.1859 36.5753C50.3963 35.8361 50.5258 35.0968 50.5258 34.3415C50.5258 34.1487 50.5096 33.9719 50.4934 33.779C50.4773 33.5862 50.4611 33.3933 50.4287 33.2166C50.3802 32.8309 50.2992 32.4612 50.2183 32.0916C50.0402 31.3524 49.7813 30.6292 49.5223 29.89C49.2634 29.1507 49.0044 28.3793 48.9882 27.5758C48.9559 26.7562 49.1824 25.9688 49.5061 25.2456C49.8298 24.5224 50.2345 23.8474 50.6715 23.2046C50.7039 23.1564 50.7686 23.1403 50.8171 23.1725C50.8657 23.2046 50.8819 23.2689 50.8496 23.301C50.4449 23.9599 50.0564 24.6349 49.7651 25.342C49.49 26.0491 49.2957 26.8044 49.3443 27.5437C49.3766 28.299 49.6194 29.0222 49.8946 29.7453C50.1697 30.4685 50.4449 31.2077 50.6391 31.9791C50.7362 32.3648 50.8171 32.7505 50.8657 33.1362C50.898 33.3291 50.9142 33.5219 50.9466 33.7308C50.9628 33.9237 50.979 34.1326 50.979 34.3254C50.979 35.129 50.8495 35.9164 50.6391 36.6878C50.4287 37.4431 50.1373 38.1824 49.8298 38.9055C49.5223 39.6287 49.15 40.3197 48.6969 40.9626C48.6645 41.0108 48.5998 41.0268 48.5512 40.9947C48.5188 40.9626 48.5188 40.9143 48.5188 40.8822Z" fill="#07453A"/>
<path d="M55.9314 35.4818C56.4817 35.08 57.0643 34.7908 57.6469 34.4693C58.2133 34.1479 58.7797 33.8105 59.2814 33.4087C59.7831 33.0069 60.2363 32.5409 60.5599 32.0106L60.6732 31.8016C60.7056 31.7374 60.738 31.657 60.7865 31.5927L60.9969 31.1588C61.1101 30.8535 61.2396 30.5642 61.3205 30.2428C61.4985 29.6321 61.6119 28.9893 61.6928 28.3304C61.7737 27.6715 61.8708 27.0126 62.0488 26.3537C62.243 25.6948 62.5667 25.0842 62.9551 24.5378C63.0522 24.4092 63.1493 24.2646 63.2626 24.136L63.6024 23.7503C63.7157 23.6217 63.8452 23.5092 63.9585 23.3967L64.3307 23.0593C64.3631 23.0271 64.4278 23.0271 64.4763 23.0593C64.5087 23.0914 64.5087 23.1557 64.4763 23.2039C64.0232 23.6699 63.5701 24.1521 63.214 24.6985C62.858 25.2449 62.5829 25.8234 62.4049 26.4501C62.243 27.0769 62.1621 27.7197 62.0974 28.3786C62.0327 29.0375 61.9355 29.7125 61.7575 30.3553C61.6766 30.6928 61.5471 30.9981 61.4338 31.3195L61.2234 31.7856C61.191 31.8659 61.1587 31.9463 61.1102 32.0106L60.9807 32.2355C60.6246 32.8302 60.1391 33.3283 59.6051 33.7622C59.071 34.1962 58.5046 34.5497 57.9058 34.8872C57.307 35.2086 56.7082 35.4818 56.0447 35.6586C55.9961 35.6746 55.9314 35.6425 55.9152 35.5943C55.8829 35.5621 55.8991 35.5139 55.9314 35.4818Z" fill="#07453A"/>
<path d="M49.5709 43.8876C50.1212 43.4537 50.7362 43.1001 51.3674 42.8109C51.9985 42.5216 52.6459 42.2484 53.3094 42.0234C53.973 41.7984 54.6527 41.6056 55.3486 41.477C56.0445 41.3484 56.7243 41.252 57.404 41.1556C58.0838 41.0592 58.7635 40.9628 59.427 40.786C60.0906 40.6092 60.7217 40.3842 61.2882 40.0307C62.4534 39.3396 63.3921 38.295 64.4926 37.4433C64.5411 37.4112 64.6058 37.4112 64.6382 37.4594C64.6706 37.5076 64.6706 37.5558 64.622 37.604C64.1041 38.054 63.6186 38.5361 63.1169 39.0021C62.6152 39.4682 62.0811 39.9342 61.4823 40.3199C60.8835 40.7056 60.22 40.9788 59.5403 41.1556C58.8605 41.3484 58.1647 41.4609 57.4849 41.5734C56.8052 41.6699 56.1093 41.7663 55.4458 41.8948C54.7822 42.0395 54.1187 42.2163 53.4875 42.4412C52.8401 42.6662 52.2089 42.9234 51.5939 43.2287C50.9789 43.518 50.3478 43.8072 49.7004 44.0483C49.6519 44.0644 49.5871 44.0322 49.5709 43.984C49.5224 43.9519 49.5386 43.9197 49.5709 43.8876Z" fill="#07453A"/>
<path d="M36.6883 57.917C37.2871 57.5474 37.9021 57.2099 38.5333 56.8885C39.1645 56.5671 39.7956 56.2457 40.4268 55.9404C41.0741 55.635 41.7215 55.3457 42.4012 55.1047C43.081 54.8797 43.7931 54.7029 44.5214 54.6386L44.7964 54.6226C44.8935 54.6226 44.9745 54.6226 45.0716 54.6226L45.3468 54.6226C45.4439 54.6226 45.5247 54.6386 45.6218 54.6547L45.897 54.6868L46.1721 54.7511C46.3501 54.7833 46.5282 54.8475 46.7062 54.8958C47.4021 55.1368 48.0171 55.5225 48.6321 55.8439C49.2471 56.1653 49.8782 56.4385 50.558 56.5671C51.2377 56.6957 51.9336 56.6957 52.6296 56.6314C52.6781 56.6314 52.7266 56.6635 52.7428 56.7278C52.7428 56.776 52.7104 56.8242 52.6619 56.8403C51.9498 56.9367 51.2215 56.9689 50.5094 56.8564C49.7973 56.7439 49.1014 56.4868 48.4702 56.1653C47.8391 55.8439 47.224 55.4904 46.5767 55.2815C46.4148 55.2332 46.253 55.185 46.0912 55.1529L45.8484 55.1047L45.5895 55.0725C45.5086 55.0725 45.4277 55.0565 45.3306 55.0565L45.0716 55.0565C44.9907 55.0565 44.8936 55.0565 44.8126 55.0565L44.5537 55.0886C43.874 55.1529 43.1942 55.3136 42.5469 55.5386C41.8995 55.7636 41.2522 56.0528 40.621 56.3582C39.9898 56.6635 39.3748 57.001 38.7437 57.3224C38.1125 57.6438 37.4651 57.9492 36.7531 58.0938C36.7045 58.1099 36.6397 58.0777 36.6235 58.0135C36.6397 57.9813 36.656 57.9331 36.6883 57.917Z" fill="#07453A"/>
<path d="M21.9936 75.1123C22.4953 74.3731 23.0456 73.666 23.6444 72.991C24.2432 72.316 24.8582 71.6572 25.5217 71.0304C26.1853 70.4037 26.8974 69.8251 27.6904 69.3591C28.4834 68.893 29.3573 68.5395 30.2798 68.4109C31.2023 68.2824 32.141 68.3466 33.0311 68.5555C33.9212 68.7645 34.7628 69.1019 35.6206 69.3591C35.831 69.4073 36.0413 69.4876 36.2679 69.5198L36.5916 69.5841C36.7049 69.6001 36.802 69.6162 36.9153 69.6323C37.0286 69.6483 37.1257 69.6644 37.239 69.6644L37.5626 69.6644C37.7892 69.6805 37.9996 69.6483 38.21 69.6323C39.0839 69.5359 39.9255 69.2144 40.7347 68.8448C40.7833 68.8288 40.848 68.8448 40.8642 68.893C40.8803 68.9412 40.8642 69.0055 40.8156 69.0216C40.0064 69.4394 39.1648 69.7769 38.2423 69.9055C37.336 70.0501 36.3812 69.9376 35.5072 69.6805C34.6333 69.4394 33.7917 69.118 32.934 68.9252C32.0762 68.7323 31.1861 68.7002 30.3284 68.8288C29.4706 68.9573 28.6614 69.2948 27.9008 69.7448C27.1563 70.1947 26.4604 70.7572 25.8292 71.3679C25.1819 71.9786 24.583 72.6375 24.0004 73.2963C23.4178 73.9713 22.819 74.6463 22.1392 75.2409C22.0907 75.273 22.026 75.273 21.9936 75.2248C21.9774 75.1927 21.9774 75.1445 21.9936 75.1123Z" fill="#07453A"/>
<path d="M5.3887 71.3679C5.24304 70.8055 5.11362 70.2591 4.96795 69.7127C4.83847 69.1663 4.66037 68.6038 4.49852 68.0574C4.33667 67.4949 4.17488 66.9325 4.07777 66.3539C4.02922 66.0647 3.99683 65.7593 3.98064 65.4701C3.96446 65.1808 3.96446 64.8755 3.98064 64.5862C4.0292 63.413 4.27196 62.272 4.36907 61.131C4.41763 60.5686 4.45001 59.99 4.38527 59.4275C4.33672 58.8651 4.2072 58.3026 4.02917 57.7723C4.01298 57.7241 4.04534 57.6598 4.09389 57.6437C4.14245 57.6277 4.20724 57.6437 4.22342 57.6919C4.45001 58.2383 4.61183 58.8008 4.67657 59.3954C4.7575 59.9739 4.75755 60.5686 4.72518 61.1632C4.64425 62.3363 4.43378 63.4773 4.4176 64.6023C4.40141 64.8915 4.41761 65.1647 4.4338 65.454C4.44998 65.7272 4.48238 66.0165 4.54712 66.2897C4.64423 66.8521 4.8061 67.3985 4.96795 67.9449C5.1298 68.4913 5.30784 69.0538 5.45351 69.6163C5.59917 70.1787 5.68008 70.7894 5.59916 71.384C5.59916 71.4322 5.53438 71.4804 5.48583 71.4644C5.42109 71.4322 5.3887 71.4001 5.3887 71.3679Z" fill="#07453A"/>
<path d="M10.1794 49.2713C10.0014 48.6928 9.83953 48.1464 9.61295 47.6C9.40255 47.0536 9.12745 46.5393 8.83613 46.009C8.54482 45.4787 8.23727 44.9644 7.97832 44.4019C7.71937 43.8395 7.49284 43.2609 7.37955 42.6502C7.13678 41.4128 7.3148 40.1754 7.60611 39.0022C7.91361 37.8291 8.35062 36.7041 8.77141 35.5792C8.7876 35.531 8.8523 35.4989 8.90086 35.5149C8.94941 35.531 8.98176 35.5953 8.96558 35.6435C8.60952 36.8006 8.20495 37.9255 7.946 39.0826C7.68705 40.2397 7.55759 41.4289 7.80036 42.5538C7.91365 43.1163 8.14016 43.6627 8.38293 44.193C8.64188 44.7233 8.93324 45.2376 9.24074 45.7679C9.53206 46.2982 9.82339 46.8286 10.0662 47.4071C10.2927 47.9857 10.4222 48.6124 10.3736 49.2231C10.3736 49.2713 10.3251 49.3195 10.2603 49.3195C10.228 49.3516 10.1956 49.3195 10.1794 49.2713Z" fill="#07453A"/>
<path d="M19.5821 30.5486C19.4041 29.938 19.3878 29.2951 19.4688 28.6684C19.5497 28.0416 19.7116 27.431 19.922 26.8364C20.1162 26.2417 20.3589 25.6793 20.6179 25.1168C20.8607 24.5543 21.1196 23.9919 21.3462 23.4294C21.5728 22.8669 21.767 22.2884 21.9289 21.7099C22.0745 21.1313 22.1716 20.5367 22.2202 19.926C22.3334 18.7207 22.2688 17.4994 22.2688 16.262C22.2688 16.2137 22.3173 16.1655 22.3659 16.1655C22.4144 16.1655 22.4629 16.2137 22.4629 16.262C22.4953 16.8726 22.5439 17.4833 22.56 18.094C22.5762 18.7047 22.5924 19.3314 22.56 19.9421C22.5277 20.5689 22.4467 21.1795 22.3011 21.7902C22.1554 22.4009 21.9612 22.9955 21.7508 23.574C21.2976 24.7311 20.7474 25.8239 20.3751 26.9649C20.1809 27.5435 20.0352 28.122 19.9543 28.7005C19.8734 29.2951 19.8572 29.8737 19.7925 30.4844C19.7925 30.5326 19.744 30.5808 19.6792 30.5808C19.6307 30.6129 19.5821 30.5808 19.5821 30.5486Z" fill="#07453A"/>
<path d="M29.519 19.2997C29.7456 18.7533 30.0208 18.2551 30.2959 17.7569C30.5711 17.2587 30.8138 16.7444 31.0242 16.198C31.4612 15.1374 31.7524 14.0124 32.1732 12.9196C32.3998 12.3732 32.6587 11.8268 32.9986 11.3287C33.3385 10.8305 33.7431 10.3966 34.1962 9.99481C35.1025 9.22342 36.1545 8.64488 37.2226 8.16276C37.2712 8.14669 37.3359 8.16277 37.3521 8.21098C37.3683 8.25919 37.3521 8.32347 37.3036 8.33954C36.7857 8.61274 36.284 8.88594 35.7985 9.20735C35.313 9.52876 34.8597 9.86624 34.439 10.2519C34.0182 10.6376 33.646 11.0715 33.3385 11.5376C33.031 12.0197 32.7882 12.534 32.594 13.0643C32.1894 14.141 31.8981 15.2659 31.4611 16.3587C31.2507 16.9051 30.9918 17.4515 30.7166 17.9658C30.4415 18.4801 30.1017 18.9782 29.6809 19.3961C29.6485 19.4282 29.5676 19.4282 29.5352 19.3961C29.5029 19.38 29.5029 19.3318 29.519 19.2997Z" fill="#07453A"/>
<path d="M28.2566 24.5702C28.5318 24.3774 28.8068 24.2167 29.0982 24.056C29.3733 23.8953 29.6646 23.7346 29.9398 23.5738C30.2311 23.4131 30.49 23.2364 30.7652 23.0596C31.0241 22.8667 31.283 22.69 31.5258 22.481C32.5292 21.6775 33.3869 20.6811 34.2932 19.733C34.7464 19.2669 35.232 18.8009 35.7175 18.367C35.9764 18.1581 36.2191 17.9331 36.4781 17.7242C36.737 17.5152 37.0122 17.3224 37.2873 17.1296C38.3878 16.3903 39.5369 15.7636 40.605 15.0082C40.6536 14.9761 40.7183 14.9922 40.7506 15.0243C40.783 15.0725 40.7669 15.1207 40.7345 15.1689C39.6987 15.9885 38.5497 16.6474 37.4977 17.4188C37.2388 17.6117 36.9798 17.8045 36.7208 18.0134C36.4781 18.2224 36.2353 18.4473 35.9926 18.6563C35.5232 19.1062 35.0539 19.5562 34.6169 20.0383C33.7268 20.9865 32.8691 21.9989 31.8333 22.8507C31.5744 23.0757 31.3154 23.2685 31.0402 23.4614C30.7651 23.6381 30.49 23.831 30.1987 24.0078C29.6323 24.3613 29.0011 24.6184 28.3538 24.7791C28.3052 24.7952 28.2404 24.7631 28.2242 24.6988C28.2081 24.6506 28.2243 24.6024 28.2566 24.5702Z" fill="#07453A"/>
<path d="M16.8631 41.1066C17.4134 40.2871 18.0607 39.5639 18.7566 38.8728C19.4525 38.1818 20.1808 37.539 20.9577 36.9283C21.7345 36.3176 22.5437 35.7552 23.4015 35.273C23.6119 35.1445 23.8384 35.032 24.0488 34.9195L24.3725 34.7588L24.7124 34.5981C24.939 34.4856 25.1655 34.4052 25.3921 34.3088C25.6187 34.2124 25.8453 34.116 26.088 34.0517C27.0105 33.7142 27.9654 33.4571 28.904 33.2C29.8427 32.9428 30.7814 32.7018 31.6715 32.3482C32.5617 31.9947 33.4194 31.5447 34.1639 30.9501C34.9245 30.3555 35.5881 29.6644 36.2031 28.9252C36.2354 28.877 36.3001 28.877 36.3487 28.9091C36.3973 28.9413 36.3973 29.0055 36.3649 29.0538C35.7661 29.8251 35.1025 30.5483 34.3419 31.1751C33.5812 31.8018 32.7235 32.3 31.801 32.6857C30.8947 33.0553 29.9398 33.3285 29.0012 33.6017C28.0625 33.8749 27.14 34.1481 26.2337 34.4856C26.0071 34.5659 25.7805 34.6624 25.5539 34.7427C25.3273 34.8391 25.1008 34.9195 24.8904 35.032L24.5667 35.1766L24.243 35.3373C24.0326 35.4498 23.8222 35.5623 23.6118 35.6748C22.7865 36.1569 21.9935 36.7033 21.2328 37.2979C20.4884 37.8925 19.76 38.5514 19.0803 39.2264C18.4006 39.9014 17.7209 40.5924 17.0088 41.2513C16.9602 41.2834 16.8955 41.2834 16.8631 41.2513C16.8308 41.2031 16.8308 41.1388 16.8631 41.1066Z" fill="#07453A"/>
<path d="M12.4773 51.6493C12.6715 51.4243 12.8818 51.1993 13.0922 51.0065C13.3188 50.8136 13.5777 50.6529 13.8205 50.4761C14.0794 50.3154 14.3384 50.1869 14.5974 50.0262C14.8563 49.8976 15.1314 49.769 15.4065 49.6405C16.507 49.1584 17.6399 48.8209 18.7889 48.5477C19.938 48.2745 21.087 48.0495 22.2361 47.7924C23.3851 47.5352 24.518 47.2621 25.6184 46.8603C25.667 46.8442 25.7318 46.8603 25.748 46.9246C25.7642 46.9728 25.7479 47.0371 25.6994 47.0531C24.6151 47.5192 23.466 47.8406 22.3332 48.1459C21.1841 48.4352 20.0351 48.6763 18.9184 48.9816C17.7855 49.2709 16.6688 49.6083 15.6169 50.0905C15.358 50.219 15.0991 50.3315 14.8401 50.4761C14.5974 50.6208 14.3384 50.7654 14.0956 50.91C13.8529 51.0708 13.6101 51.2315 13.3674 51.3761C13.1408 51.5368 12.898 51.6975 12.6229 51.8421L12.6067 51.8421C12.5582 51.8743 12.4934 51.8421 12.4611 51.7939C12.4449 51.7296 12.4449 51.6814 12.4773 51.6493Z" fill="#07453A"/>
<path d="M46.3343 76.0608C46.4638 75.8198 46.6094 75.5948 46.7713 75.3859C46.8522 75.2734 46.9331 75.177 47.014 75.0805C47.0949 74.968 47.1759 74.8716 47.2568 74.7591L47.4995 74.4538L47.6128 74.2931L47.7261 74.1324C47.8717 73.9074 48.0174 73.6985 48.1469 73.4735C48.6809 72.5735 49.0369 71.5932 49.2473 70.5647C49.4739 69.5362 49.5711 68.4756 49.7976 67.431C50.0242 66.3864 50.4126 65.3579 50.9143 64.4097C50.9467 64.3615 50.9952 64.3454 51.0437 64.3615C51.0923 64.3936 51.1085 64.4419 51.0923 64.4901L50.7848 65.2132C50.6877 65.4543 50.6068 65.7114 50.5259 65.9525C50.4773 66.081 50.445 66.2096 50.4126 66.3221L50.3155 66.7078C50.2507 66.9649 50.2022 67.2221 50.1536 67.4792C49.9594 68.5077 49.8947 69.5683 49.7005 70.6451C49.652 70.9183 49.5872 71.1754 49.5225 71.4325C49.4578 71.6897 49.3606 71.9468 49.2797 72.2039C49.1826 72.461 49.0693 72.7021 48.9561 72.9592L48.5677 73.6824C48.422 73.9235 48.2763 74.1485 48.1307 74.3734L48.0174 74.5502L47.8879 74.7109L47.6452 75.0323C47.5643 75.1448 47.4833 75.2413 47.3862 75.3537C47.2891 75.4502 47.192 75.5466 47.0949 75.643C46.9007 75.8359 46.6904 76.0126 46.48 76.1733C46.4314 76.2055 46.3666 76.1894 46.3343 76.1573C46.3181 76.1412 46.3181 76.093 46.3343 76.0608Z" fill="#07453A"/>
<path d="M57.9867 66.5634C58.2294 65.9527 58.4884 65.3902 58.715 64.7956C58.9415 64.2171 59.1196 63.6064 59.2491 62.9796C59.508 61.7422 59.5728 60.4566 59.6699 59.1709C59.767 57.8853 59.9126 56.5836 60.2686 55.3301C60.6408 54.0766 61.2396 52.8873 62.065 51.8749C62.0974 51.8267 62.1621 51.8267 62.2106 51.8588C62.2592 51.891 62.2592 51.9552 62.2268 52.0035C61.8546 52.5338 61.5309 53.0802 61.2558 53.6427C60.9807 54.2212 60.7703 54.8158 60.6085 55.4265C60.2848 56.6478 60.1715 57.9335 60.1068 59.2031C60.0258 60.4887 59.9611 61.7904 59.7022 63.0761C59.5727 63.7189 59.3947 64.3617 59.1681 64.9724C58.9254 65.5831 58.6179 66.1777 58.1647 66.6598C58.1324 66.708 58.0676 66.708 58.0191 66.6598C57.9867 66.6437 57.9705 66.5955 57.9867 66.5634Z" fill="#07453A"/>
<path d="M71.8401 42.2964C71.7753 42.0875 71.743 41.8947 71.7106 41.6858C71.6783 41.4929 71.662 41.284 71.662 41.0911L71.6135 40.4965L71.5488 39.9019C71.4517 39.0984 71.3384 38.3109 71.1442 37.5235C70.9661 36.736 70.7396 35.9647 70.4321 35.2254C70.1408 34.4701 69.7847 33.7469 69.3639 33.0559C69.3315 33.0077 69.3477 32.9434 69.3962 32.9113C69.4448 32.8791 69.4934 32.8952 69.5257 32.9434C70.0113 33.6023 70.4159 34.3255 70.7396 35.0808C71.0794 35.8361 71.3384 36.6235 71.5488 37.411C71.743 38.2145 71.9048 39.018 71.9857 39.8376L72.0505 40.4483L72.099 41.059C72.1152 41.4608 72.1152 41.8786 72.0019 42.2964C71.9857 42.3446 71.9372 42.3768 71.8725 42.3768C71.8725 42.3607 71.8401 42.3286 71.8401 42.2964Z" fill="#07453A"/>
<path d="M70.6265 49.3506C70.9664 48.8203 71.4033 48.3542 71.8565 47.9364C72.3258 47.5186 72.7951 47.1168 73.2807 46.7311C74.2355 45.9437 75.2389 45.2044 76.1129 44.3687C76.9868 43.5331 77.7313 42.5528 78.1845 41.4278C78.6538 40.319 78.8804 39.0976 79.0099 37.8923C79.0099 37.8441 79.0584 37.7959 79.1231 37.7959C79.1716 37.7959 79.2202 37.8441 79.2202 37.8923C79.1555 39.1298 78.9775 40.3672 78.5243 41.5564C78.2978 42.1349 78.0064 42.6974 77.6503 43.2277C77.2943 43.742 76.8897 44.2241 76.4365 44.6741C75.5464 45.558 74.543 46.2972 73.6043 47.0847C73.135 47.4704 72.6657 47.8721 72.2126 48.29C71.7594 48.7078 71.3062 49.1095 70.8045 49.4792C70.756 49.5113 70.6913 49.5113 70.6589 49.4631C70.6103 49.431 70.6103 49.3827 70.6265 49.3506Z" fill="#07453A"/>
<path d="M63.2141 63.3643C63.4407 62.8661 63.7644 62.4322 64.1204 62.0304C64.4764 61.6287 64.8487 61.243 65.2371 60.8734C65.9977 60.118 66.8231 59.427 67.697 58.8003C68.5871 58.1735 69.542 57.6914 70.4321 57.145C70.8853 56.8718 71.3223 56.5825 71.7269 56.2611C72.1314 55.9397 72.5036 55.5701 72.8273 55.1522C72.8597 55.104 72.9244 55.104 72.973 55.1362C73.0215 55.1683 73.0215 55.2326 72.9892 55.2647C72.3742 56.1486 71.5164 56.8557 70.6263 57.4343C69.72 58.0128 68.7975 58.5271 67.9559 59.1377C67.1144 59.7484 66.3214 60.4555 65.577 61.1948C65.2047 61.5644 64.8487 61.9501 64.5088 62.3358C64.1689 62.7215 63.8128 63.1232 63.4082 63.4607C63.3597 63.4928 63.295 63.4928 63.2626 63.4446C63.2141 63.4446 63.1979 63.3964 63.2141 63.3643Z" fill="#07453A"/>
<path d="M43.405 80.8013C43.6154 80.6085 43.8419 80.4317 44.0684 80.271C44.3112 80.1103 44.554 79.9817 44.7967 79.8371L45.5574 79.4514L46.3342 79.0979C47.37 78.6318 48.4059 78.214 49.4578 77.7961C50.5098 77.3783 51.5456 76.9765 52.549 76.4944C53.5686 76.0284 54.5558 75.5141 55.4945 74.9034C55.543 74.8713 55.6078 74.8874 55.6401 74.9356C55.6725 74.9838 55.6564 75.032 55.6078 75.0641C54.7015 75.723 53.7143 76.2855 52.6947 76.7998C51.6751 77.298 50.6393 77.7479 49.6197 78.1818C48.5839 78.6157 47.5481 79.0336 46.5285 79.4996L45.7678 79.8532L45.0234 80.2389C44.7806 80.3674 44.5378 80.496 44.2789 80.6085C44.0361 80.7371 43.7771 80.8495 43.502 80.946C43.4534 80.962 43.3887 80.9299 43.3726 80.8817C43.3726 80.8656 43.3888 80.8335 43.405 80.8013Z" fill="#07453A"/>
</svg>
