<svg width="195" height="213" viewBox="0 0 195 213" fill="none" xmlns="http://www.w3.org/2000/svg">
<path d="M117.163 47.4025C116.253 47.3577 115.459 47.0188 114.762 46.7846C114.069 46.4507 113.482 46.022 112.89 45.693C111.711 44.9353 110.628 44.2823 109.632 43.9334C109.131 43.8089 108.631 43.6843 108.222 43.7641C108.02 43.7542 107.813 43.844 107.506 43.9288C107.299 44.0186 106.986 44.203 106.678 44.2878C105.64 44.8364 104.995 45.6043 104.751 46.4918C104.506 47.3793 104.752 48.5907 105.205 49.7124C105.658 50.8341 106.414 51.9708 107.174 53.0078C108.797 55.0866 110.727 57.0805 112.874 58.7853C113.947 59.6377 115.025 60.3904 116.113 60.9437C117.205 61.3972 118.504 61.761 119.519 61.711C120.635 61.6659 121.371 61.1025 121.923 60.1302C122.375 59.153 122.538 57.8616 122.397 56.5553C122.112 54.0426 121.124 51.3954 119.396 49.4113C117.668 47.4272 115.305 46.0117 112.582 45.7778C112.279 45.7629 111.99 45.4488 112.004 45.1497C112.018 44.8506 112.336 44.5662 112.639 44.5811C114.154 44.6557 115.66 44.9298 117.046 45.5976C118.432 46.2655 119.707 47.1279 120.665 48.2744C122.687 50.4728 124.17 53.3444 124.533 56.3607C124.765 57.8713 124.684 59.5664 124.002 61.132C123.661 61.9147 123.118 62.6877 122.382 63.2512C121.647 63.8146 120.723 64.069 119.905 64.2287C119.497 64.3085 118.991 64.2836 118.587 64.2637L117.981 64.2339L117.38 64.1044C116.976 64.0845 116.576 63.965 116.177 63.8454C115.778 63.7258 115.378 63.6061 115.085 63.3918C113.598 62.7189 112.423 61.8615 111.249 61.0041C108.905 59.1897 106.773 57.1858 104.958 54.8976C104 53.7511 103.152 52.41 102.613 50.9842C101.972 49.5534 101.548 47.8334 102.042 45.9587C102.435 44.0791 104.022 42.658 105.373 41.9249C105.787 41.7453 106.099 41.5608 106.513 41.3813C106.927 41.2018 107.441 41.0272 107.845 41.0471C108.764 40.8924 109.77 41.0418 110.568 41.281C112.262 41.8641 113.432 42.8212 114.5 43.7733C115.569 44.7254 116.43 45.7673 117.412 46.4153L117.508 46.52C117.802 46.7343 117.884 47.1381 117.668 47.4273C117.571 47.3227 117.365 47.4124 117.163 47.4025Z" fill="black"/>
<path d="M105.404 60.4166C105.399 60.5163 105.394 60.616 105.293 60.611C105.293 60.611 105.087 60.7009 104.981 60.7956C104.774 60.8854 104.563 61.0748 104.356 61.1646C103.937 61.4438 103.418 61.7181 102.995 62.0971L100.273 63.9621C98.3931 65.1689 96.6092 66.4804 94.4306 67.5726C93.6034 67.9316 92.5599 68.58 91.6222 69.1335L88.8042 70.8938C86.924 72.1006 85.0438 73.3074 83.2647 74.5192C81.3845 75.726 79.6005 77.0374 77.8166 78.3489C77.3982 78.6282 76.9751 79.0071 76.5568 79.2864C76.3452 79.4759 76.1337 79.6654 76.0279 79.7601L76.0232 79.8599C76.0232 79.8599 76.0279 79.7601 76.129 79.7651C76.1337 79.6654 76.2395 79.5707 76.2442 79.471C76.2775 78.773 76.0754 78.763 76.1765 78.7679C76.268 78.9723 76.6531 79.3911 77.0429 79.7101C77.4328 80.0291 77.8179 80.4479 78.3087 80.7719C79.9645 82.1527 81.827 83.4438 83.5837 84.8295C83.9736 85.1485 84.5608 85.5772 84.9506 85.8963L86.2164 86.958C87.0972 87.6011 87.9732 88.3438 88.8539 88.9869C90.6154 90.2729 92.4826 91.4641 94.3547 92.5557C96.2314 93.5476 98.2092 94.5445 100.22 94.8433C101.226 94.9928 102.14 94.9379 102.861 94.6735C102.861 94.6735 103.178 94.3892 103.4 94.0003C103.621 93.6114 103.846 93.1227 103.971 92.6292C104.672 90.6647 105.08 88.486 105.386 86.3022C106.1 81.9397 106.516 77.4624 106.826 73.08L107.089 69.6947C107.103 69.3955 107.117 69.0965 107.127 68.897C107.136 68.6976 107.15 68.3984 107.064 68.0943C106.986 67.5908 106.914 66.9875 106.836 66.484C106.687 65.3772 106.431 64.3651 106.18 63.2533C106.002 62.7448 105.929 62.1415 105.751 61.633C105.664 61.3289 105.573 61.1246 105.481 60.9202C105.486 60.8205 105.39 60.7157 105.293 60.611L105.197 60.5064C105.202 60.4067 105.298 60.5114 105.404 60.4166ZM105.764 59.2349C105.961 59.3446 106.058 59.4493 106.25 59.6586C106.346 59.7633 106.342 59.8631 106.443 59.8681C106.539 59.9728 106.631 60.1771 106.626 60.2768C106.713 60.5809 106.804 60.7853 106.891 61.0895C107.069 61.598 107.243 62.2062 107.421 62.7147C107.773 63.8314 108.024 64.9432 108.275 66.055C108.347 66.6583 108.525 67.1667 108.598 67.77C108.685 68.0741 108.671 68.3733 108.656 68.6724C108.637 69.0713 108.628 69.2707 108.614 69.5699L108.452 72.9602C108.238 77.4473 108.025 81.9344 107.407 86.4017C107.096 88.6851 106.688 90.8639 105.973 93.1275C105.742 93.7158 105.613 94.3092 105.281 94.8925C104.949 95.4759 104.613 96.1589 103.579 96.6078C102.237 97.1414 100.818 97.1716 99.6106 97.0123C97.0992 96.5888 95.0157 95.6866 92.9416 94.5851C90.8675 93.4835 89.0003 92.2923 87.1377 91.0013C86.156 90.3533 85.28 89.6105 84.3993 88.9675L83.0324 87.9007C82.5462 87.477 82.2527 87.2627 81.7618 86.9387C80.0003 85.6526 78.1378 84.3617 76.2848 82.8712C75.7939 82.5472 75.4088 82.1284 74.9227 81.7047C74.4365 81.2809 74.0467 80.9619 73.4785 80.1344L73.387 79.93C73.3918 79.8303 73.2954 79.7256 73.3002 79.6259L73.2039 79.5212C73.2087 79.4215 73.2135 79.3218 73.1172 79.2172C73.1267 79.0177 73.0304 78.913 73.1457 78.6188C73.1504 78.5191 73.2562 78.4244 73.2657 78.225C73.2704 78.1253 73.3762 78.0305 73.3762 78.0305L73.5972 77.6415L73.703 77.5468C74.0204 77.2626 74.2319 77.0731 74.4434 76.8837C74.8665 76.5047 75.3907 76.1306 75.8138 75.7516C77.6025 74.3405 79.4827 73.1337 81.3676 71.8272C83.2526 70.5207 85.1327 69.3139 87.0129 68.1071L89.8356 66.247C90.7734 65.6935 91.7158 65.0402 92.9566 64.5016C93.7886 64.0428 94.8274 63.4943 95.7651 62.9407C96.7028 62.3872 97.7416 61.8386 98.6793 61.285C99.718 60.7365 100.651 60.2827 101.786 59.8388C102.301 59.6642 102.82 59.39 103.436 59.2204C103.744 59.1356 103.95 59.0458 104.359 58.9659C104.561 58.9759 104.667 58.8811 104.869 58.8911C105.36 59.2151 105.562 59.225 105.764 59.2349Z" fill="black"/>
<path d="M121.433 68.3017C121.644 68.1122 121.539 68.2069 121.534 68.3067L121.515 68.7055C121.501 69.0047 121.486 69.3038 121.472 69.603L121.488 71.4027C121.532 72.6043 121.475 73.8008 121.418 74.9974C121.405 77.3955 121.291 79.7887 121.177 82.1818L120.835 89.3612C120.721 91.7543 120.607 94.1475 120.805 96.3561C120.898 98.6595 121.405 100.783 122.541 102.438C123.677 104.093 125.65 105.19 127.739 105.992C129.827 106.795 132.122 107.507 134.422 108.12C136.722 108.733 139.022 109.346 141.336 109.66C143.549 109.969 146.272 110.203 146.228 109.001C146.468 108.213 146.318 107.107 146.163 106.1C145.913 104.988 145.561 103.871 145.204 102.854C143.59 98.4768 141.259 94.2642 138.817 90.2461C137.599 88.1872 136.275 86.2231 134.951 84.259C134.291 83.227 133.627 82.2947 132.861 81.3575C132.476 80.9388 132.197 80.4253 131.812 80.0065L130.661 78.6507C129.024 76.871 127.388 75.0914 125.746 73.4114L123.238 70.7893L121.982 69.528L121.303 68.895L120.918 68.4762C120.918 68.4762 120.918 68.4762 121.019 68.4812C121.019 68.4812 121.019 68.4812 121.322 68.4961C121.539 68.2069 121.433 68.3017 121.433 68.3017ZM120.672 67.2648C120.672 67.2648 120.571 67.2598 120.879 67.175C121.187 67.0902 121.182 67.1899 121.283 67.1949C121.384 67.1999 121.384 67.1999 121.48 67.3046C121.581 67.3095 121.577 67.4092 121.678 67.4142L121.875 67.5238L122.265 67.8429L124.301 69.7422L126.915 72.2695C128.657 73.9544 130.298 75.6343 132.036 77.419L133.288 78.7799C133.769 79.3033 134.154 79.7221 134.535 80.2406C135.3 81.1778 136.061 82.2146 136.725 83.1468C138.15 85.116 139.475 87.0802 140.794 89.1441C143.332 93.2668 145.764 97.4844 147.57 102.071C148.023 103.193 148.471 104.414 148.718 105.626C148.964 106.837 149.2 108.248 148.821 109.828C148.581 110.616 148.134 111.494 147.197 112.047C146.365 112.506 145.547 112.666 144.936 112.736C143.512 112.865 142.305 112.706 140.996 112.542C138.48 112.218 136.18 111.605 133.779 110.987C131.378 110.369 129.083 109.657 126.692 108.839L124.907 108.052C124.31 107.823 123.723 107.394 123.232 107.07C122.64 106.741 122.159 106.218 121.567 105.889C121.085 105.365 120.599 104.941 120.122 104.318C119.747 103.7 119.266 103.177 119.092 102.569L118.731 101.651C118.644 101.347 118.557 101.043 118.475 100.639C118.388 100.335 118.301 100.031 118.219 99.6271L118.065 98.62C117.992 98.0167 117.925 97.3138 117.852 96.7105C117.668 94.2027 117.782 91.8096 117.9 89.3167L118.242 82.1374C118.356 79.7442 118.571 77.3561 118.786 74.9679C118.944 73.7764 119.102 72.5847 119.361 71.398C119.491 70.8047 119.62 70.2115 119.75 69.6182C119.865 69.324 119.879 69.0248 119.995 68.7307C120.004 68.5312 120.11 68.4365 120.119 68.2371C120.124 68.1373 120.23 68.0426 120.235 67.9428C120.235 67.9428 120.34 67.8481 120.345 67.7484C120.46 67.4543 120.566 67.3595 120.672 67.2648Z" fill="black"/>
<path d="M131.334 62.3924L131.137 62.2828C131.137 62.2828 131.233 62.3875 131.334 62.3924C131.435 62.3974 131.743 62.3126 131.858 62.0184C131.964 61.9237 131.978 61.6246 131.978 61.6246C131.988 61.4252 131.983 61.5248 131.983 61.5248L133.235 62.8858L134.78 64.461C135.844 65.5128 136.903 66.6644 137.967 67.7162C139.026 68.8677 139.984 70.0143 141.038 71.2656C141.986 72.6116 142.844 73.7531 143.696 74.9945C147.105 79.9597 150.615 84.93 153.807 90.1844C154.655 91.5255 155.406 92.7617 156.153 94.0978L158.397 98.0063C159.904 100.379 161.709 102.867 163.746 104.766C164.232 105.19 164.819 105.618 165.314 105.843C165.512 105.952 165.714 105.962 165.911 106.072C166.012 106.077 166.012 106.077 166.012 106.077L167.599 104.656C168.128 104.182 168.661 103.609 169.19 103.135C171.315 101.041 173.243 98.8368 174.877 96.4185C175.742 95.2617 176.511 94.0002 177.28 92.7387C177.616 92.0556 177.948 91.4722 178.284 90.7891C178.399 90.495 178.621 90.1061 178.736 89.8119L178.962 89.3233C179.072 89.1288 179.077 89.0291 179.192 88.7349C179.634 87.9571 180.067 87.3787 180.403 86.6957C180.841 86.0175 181.172 85.4342 181.504 84.8508C181.72 84.5616 181.835 84.2674 181.95 83.9732C182.066 83.6791 182.181 83.3849 182.176 83.4846C182.172 83.5843 182.167 83.684 182.359 83.8934L181.878 83.37L181.103 82.6323C176.838 78.6244 171.391 76.0575 165.819 73.9843C160.242 72.0107 154.339 70.5209 148.536 69.036C147.136 68.6672 145.534 68.2885 144.148 67.6206C142.758 67.0524 141.372 66.3846 139.986 65.7167C138.6 65.0488 137.209 64.4806 135.92 63.9174C135.222 63.6832 134.529 63.3493 133.827 63.2148C132.845 62.5668 132.244 62.4372 131.334 62.3924ZM131.694 61.2108C132.301 61.2407 133.205 61.385 133.903 61.6193C134.701 61.8585 135.399 62.0928 136.097 62.327C137.588 62.9002 138.979 63.4683 140.37 64.0365C141.76 64.6047 143.146 65.2725 144.537 65.8407C145.927 66.4089 147.226 66.7726 148.732 67.0466C154.641 68.4368 160.554 69.7272 166.332 71.7107C172.111 73.6942 177.862 76.276 182.516 80.6029L183.387 81.4453L183.869 81.9687C183.965 82.0734 183.869 81.9688 184.061 82.1782C184.345 82.5919 184.331 82.891 184.423 83.0954C184.38 83.9928 184.164 84.2821 184.039 84.7757C183.919 85.1696 183.698 85.5584 183.477 85.9473C183.14 86.6304 182.703 87.3085 182.266 87.9866C181.929 88.6697 181.391 89.3429 181.165 89.8315L180.714 90.8088C180.594 91.2027 180.377 91.4918 180.257 91.8857C179.921 92.5688 179.585 93.252 179.142 94.0298C178.369 95.391 177.595 96.7521 176.624 98.0037C174.783 100.512 172.846 102.915 170.615 105.104C170.082 105.678 169.548 106.251 169.019 106.725L167.221 108.335C166.692 108.809 165.874 108.969 165.268 108.939C164.662 108.909 164.167 108.685 163.671 108.46C162.781 108.017 162.097 107.483 161.515 106.955C160.249 105.893 159.296 104.647 158.241 103.396C157.288 102.15 156.335 100.903 155.487 99.5622L154.37 97.5082L153.248 95.554C152.501 94.2179 151.75 92.9816 150.898 91.7403C147.696 86.6853 144.287 81.7201 140.777 76.7498L138.22 73.0259C137.363 71.8843 136.41 70.638 135.553 69.4964C134.595 68.3499 133.743 67.1086 132.789 65.8623C132.313 65.2391 131.937 64.6209 131.46 63.9978L130.801 62.9658C130.709 62.7614 130.613 62.6568 130.521 62.4524L130.43 62.248C130.435 62.1483 130.334 62.1433 130.348 61.8441C130.348 61.8441 130.362 61.545 130.468 61.4502C130.578 61.2558 130.992 61.0763 130.992 61.0763C131.093 61.0813 131.194 61.0863 131.194 61.0863C131.497 61.1012 131.598 61.1061 131.694 61.2108Z" fill="black"/>
<path d="M129.838 53.4233C129.924 53.7275 130.411 54.1512 131.007 54.3805C131.604 54.6097 132.201 54.839 132.802 54.9685C133.403 55.0981 134.106 55.2326 134.803 55.4668C135.405 55.5964 136.107 55.7309 136.709 55.8605C139.321 56.2889 141.943 56.5178 144.652 57.0508C150.069 58.117 155.27 59.4724 160.568 60.9324C163.166 61.66 165.759 62.4872 168.358 63.2148L172.25 64.4058L172.75 64.5304L172.948 64.6401L173.049 64.6451L174.054 64.7945L176.061 65.193L179.077 65.6413L179.683 65.6711C179.582 65.6662 179.476 65.7609 179.375 65.7559C179.274 65.7509 178.851 66.13 178.832 66.5288C178.708 67.0224 178.823 66.7282 178.818 66.8279L178.731 66.5238C178.64 66.3195 178.452 66.0103 178.365 65.7062C178.086 65.1927 177.71 64.5746 177.33 64.0561C175.914 61.8876 174.296 59.709 172.679 57.5305L170.199 54.3101C169.819 53.7917 169.342 53.1685 168.962 52.6501L167.826 50.995C166.314 48.7218 164.797 46.5482 163.285 44.275C161.768 42.1015 160.151 39.9229 158.427 37.8391C157.565 36.7972 156.699 35.8551 155.727 35.0077C155.241 34.584 154.754 34.1603 154.259 33.936C153.662 33.7067 153.763 33.7116 153.037 34.0757C148.175 36.2352 143.582 39.1076 139.183 42.1894C136.985 43.6804 134.778 45.3708 132.773 47.0712C132.249 47.4452 131.72 47.9189 131.292 48.3976C130.869 48.7766 130.639 49.3649 130.408 49.9532C129.649 51.0153 129.587 52.3116 129.838 53.4233ZM128.707 53.7675C128.269 52.3467 128.446 50.7562 129.017 49.3851C129.253 48.697 129.69 48.0189 130.224 47.4455C130.541 47.1613 130.752 46.9718 131.07 46.6876L131.81 46.0243C133.921 44.2292 136.123 42.6385 138.326 41.0478C142.725 37.966 147.323 34.994 152.295 32.64L152.81 32.4654C152.911 32.4704 152.916 32.3707 153.118 32.3806C153.223 32.2859 153.425 32.2958 153.526 32.3008C154.137 32.2309 154.532 32.4502 154.931 32.5698C155.725 32.9087 156.212 33.3325 156.794 33.8609C157.862 34.813 158.83 35.7601 159.692 36.8019C161.516 38.8907 163.134 41.0693 164.752 43.2478C166.369 45.4263 167.881 47.6994 169.499 49.8779L170.635 51.5331C171.016 52.0516 171.396 52.57 171.877 53.0935L174.357 56.3138C176.076 58.4973 177.698 60.576 179.21 62.8493C179.59 63.3677 179.966 63.986 180.342 64.6041C180.529 64.9132 180.717 65.2223 180.9 65.6311C180.992 65.8355 181.083 66.0399 181.175 66.2443C181.266 66.4487 181.262 66.5484 181.252 66.7478L181.238 67.047C181.233 67.1467 181.247 66.8475 181.219 67.4458C181.2 67.8446 180.676 68.2187 180.575 68.2137C180.469 68.3084 180.262 68.3982 180.161 68.3932C179.853 68.478 179.752 68.4731 179.651 68.4682L178.742 68.4234L172.709 67.5267L172.608 67.5218C172.406 67.5118 172.406 67.5118 172.406 67.5118L172.209 67.4022L171.708 67.2777L167.811 66.1863C165.213 65.4588 162.615 64.7313 160.016 64.0038C154.82 62.5487 149.619 61.1933 144.399 60.2368C141.786 59.8084 139.078 59.2752 136.393 58.2436C135.695 58.0093 135.098 57.7801 134.405 57.4462C133.91 57.2219 133.212 56.9877 132.519 56.6538C131.821 56.4196 131.23 56.0905 130.537 55.7566C130.243 55.5422 129.844 55.4227 129.555 55.1086C129.175 54.5902 128.785 54.2711 128.707 53.7675Z" fill="black"/>
<path d="M97.7686 50.6458C97.6628 50.7405 97.5522 50.9351 97.6532 50.94C97.6532 50.94 97.5522 50.935 97.4512 50.9301L97.1481 50.9152C96.845 50.9002 96.4457 50.7806 96.1474 50.6659C95.4449 50.5314 94.8483 50.3022 94.1506 50.0679C92.8562 49.6045 91.6629 49.146 90.4648 48.7872C89.8634 48.6576 89.2668 48.4284 88.6654 48.2988C88.3623 48.2839 88.165 48.1743 87.7609 48.1544L86.7554 48.005L82.8296 47.5119C77.5953 46.8545 72.3562 46.2968 67.1123 45.8389C61.8685 45.381 56.6103 45.2222 51.3617 44.864L49.3412 44.7645C48.8361 44.7397 48.5378 44.6251 48.2347 44.6102C47.9316 44.5953 47.6333 44.4807 47.3302 44.4657C47.0271 44.4508 46.7241 44.4359 46.7241 44.4359L46.8251 44.4409C46.8251 44.4409 46.9261 44.4458 47.0319 44.351C47.1329 44.356 47.1377 44.2563 47.2434 44.1616C47.556 43.9771 47.7865 43.3887 47.6997 43.0846L47.7045 42.9849C47.7092 42.8852 47.7093 42.8851 47.7093 42.8851L47.8923 43.294C48.1717 43.8074 48.4462 44.4207 48.8218 45.0389C50.0307 47.2972 51.4417 49.5654 52.6458 51.9235L60.082 65.8823C60.3566 66.4955 60.6359 67.009 61.021 67.4277C61.4014 67.9462 61.7864 68.365 62.1715 68.7837C62.5566 69.2024 63.0476 69.5265 63.4422 69.7458C63.6395 69.8554 63.8415 69.8654 64.0436 69.8753C64.1446 69.8803 64.2456 69.8852 64.3466 69.8902L64.4477 69.8952L64.6544 69.8054C67.0065 69.3215 69.1946 68.0299 71.4884 66.6436C72.6329 66.0003 73.6812 65.2522 74.8305 64.5092C75.9798 63.7662 77.2205 63.2276 78.3651 62.5842C80.7504 61.4023 83.131 60.3201 85.42 59.0334C86.5646 58.3901 87.7091 57.7469 88.7573 56.9989C89.8056 56.2509 90.8539 55.5029 91.9069 54.6552C92.9599 53.8074 94.0081 53.0593 94.9601 52.2067L96.4362 50.9801L97.4939 50.0326C97.5807 50.3367 97.5665 50.6359 97.7686 50.6458ZM98.9998 50.3066C98.9856 50.6057 98.7598 51.0943 98.5483 51.2838L98.2262 51.6678L96.0049 53.6574C95.0529 54.5101 93.9952 55.4575 93.0432 56.3102C91.9902 57.1579 91.0382 58.0106 89.8842 58.8533C88.7349 59.5963 87.6867 60.3444 86.4411 60.9827C84.1473 62.369 81.762 63.551 79.4777 64.7379C78.3331 65.3812 77.1886 66.0245 76.0441 66.6678C75.0006 67.3161 73.8513 68.0591 72.702 68.8022C70.5045 70.2932 68.1049 71.7743 65.2382 72.4328L64.6225 72.6023C64.4157 72.6921 64.1174 72.5775 63.9153 72.5675C63.4102 72.5427 63.0109 72.4231 62.6163 72.2038C61.8223 71.8649 61.2399 71.3365 60.6575 70.8081C59.5937 69.7562 58.7414 68.5149 58.0912 67.2835L50.4482 53.4145C49.2441 51.0564 47.8284 48.8879 46.5233 46.5249C46.2487 45.9117 45.8683 45.3932 45.5938 44.78C45.5022 44.5756 45.406 44.4709 45.3144 44.2665L45.2229 44.0621C45.2229 44.0621 45.2276 43.9625 45.1314 43.8578C45.1361 43.7581 45.1314 43.8577 45.1409 43.6583C45.0588 43.2545 45.2894 42.6662 45.602 42.4817C45.7077 42.3869 45.8135 42.2921 45.9145 42.2971C46.0203 42.2023 46.1213 42.2073 46.2224 42.2123C46.3234 42.2173 46.5302 42.1275 46.5302 42.1275C47.1411 42.0576 47.4442 42.0726 47.8483 42.0925C48.2524 42.1124 48.5555 42.1272 48.8538 42.2419C49.1569 42.2568 49.5562 42.3764 49.7583 42.3863L51.7788 42.4857C57.0321 42.7442 62.3913 42.908 67.6351 43.3659C72.8837 43.7242 78.2239 44.2868 83.4582 44.9442C84.7668 45.1086 86.0754 45.2729 87.3793 45.537L88.3848 45.6864C88.6879 45.7013 89.0872 45.8208 89.4865 45.9404C90.189 46.075 90.8819 46.409 91.4786 46.6383C92.7682 47.2015 93.9567 47.7597 95.1406 48.4176C95.7325 48.7466 96.3244 49.0755 96.82 49.2998C97.1184 49.4144 97.4119 49.6287 97.7102 49.7434L97.9075 49.853C98.0086 49.858 98.0086 49.8581 98.2059 49.9677C98.5184 49.7832 98.8073 50.0972 98.9998 50.3066Z" fill="black"/>
<path d="M99.4541 38.6351C99.3484 38.7298 99.2426 38.8246 99.3341 39.029C99.3294 39.1287 99.3294 39.1287 99.4256 39.2333L99.2283 39.1237L98.8385 38.8046C98.646 38.5953 98.3523 38.381 98.0587 38.1666C97.8662 37.9572 97.4716 37.738 97.279 37.5286C97.0865 37.3192 96.7929 37.1049 96.6003 36.8955C95.6233 36.1478 94.5453 35.395 93.4673 34.6423C91.3064 33.2367 89.0493 31.7263 86.8885 30.3207C84.7324 28.8153 82.4705 27.4047 80.3097 25.9991L78.635 25.0172C78.1441 24.6932 77.5522 24.3642 76.9603 24.0352L73.3993 22.2609C72.2155 21.6029 71.0317 20.945 69.8527 20.1873L66.6185 17.9293C65.5404 17.1766 64.4624 16.4239 63.3749 15.8706C62.2873 15.3174 61.195 14.8638 60.1895 14.7144C59.184 14.565 58.1595 14.8143 57.2218 15.3679C56.2841 15.9214 55.2358 16.6695 54.3849 17.5271C53.9618 17.9061 53.5292 18.4845 53.0003 18.9582C52.5725 19.4369 52.1446 19.9156 51.7167 20.3942C51.2889 20.8729 50.9621 21.3566 50.6353 21.8402C50.3084 22.3239 50.0779 22.9122 49.7463 23.4956C49.1842 24.6673 48.7231 25.8441 48.262 27.0207L47.5656 28.8854L47.2151 29.8676C47.1045 30.0621 47.1093 29.9624 47.2056 30.0671C47.2008 30.1668 47.4897 30.4808 47.8795 30.7999C48.2694 31.1189 48.866 31.3482 49.3617 31.5725C50.4539 32.026 51.753 32.3898 52.9511 32.7486C55.453 33.3715 58.0654 33.7998 60.6778 34.2282C63.2903 34.6566 65.9027 35.085 68.5199 35.4136C73.7542 36.071 78.9886 36.7284 84.2325 37.1863C86.8544 37.4153 89.4763 37.6443 92.0982 37.8733L96.0335 38.1669L97.5489 38.2414C97.6499 38.2464 97.7509 38.2514 97.953 38.2613C98.3571 38.2812 98.8527 38.5055 99.4541 38.6351ZM100.537 39.288C99.825 39.353 99.0073 39.5126 98.0933 39.5676L92.0318 39.2693C89.4051 39.1401 86.7784 39.0108 84.0554 38.7769C78.8068 38.4187 73.4619 37.9556 68.2228 37.398C65.6057 37.0693 62.9885 36.7406 60.2703 36.407C57.6531 36.0783 54.9397 35.6449 52.3367 35.0171C51.0376 34.6533 49.7385 34.2896 48.3432 33.8211C47.6455 33.5869 47.0536 33.2579 46.3654 32.8242C46.0718 32.6099 45.6772 32.3906 45.3931 31.9769C45.1043 31.6628 44.724 31.1443 44.5504 30.5361C44.3769 29.9279 44.5158 29.1351 44.7369 28.7462L45.0827 27.8638L45.7791 25.999C46.245 24.7226 46.7108 23.4462 47.3787 22.1797C47.7102 21.5964 47.9456 20.9083 48.3782 20.3299C48.8155 19.6518 49.1471 19.0685 49.676 18.5948C50.1086 18.0164 50.5364 17.5376 51.0653 17.0639C51.4931 16.5852 51.921 16.1065 52.4498 15.6328L53.195 14.8699L54.0364 14.2116C54.3538 13.9274 54.5653 13.738 54.8779 13.5535C55.1905 13.369 55.5078 13.0848 55.8156 13C57.167 12.2669 58.8071 11.8478 60.4188 12.027C62.0305 12.2063 63.4163 12.8742 64.7012 13.5371C65.986 14.2 67.0641 14.9527 68.1421 15.7054L71.3762 17.9634C72.459 18.6164 73.5418 19.2694 74.7304 19.8277L78.2913 21.602C78.8832 21.931 79.4751 22.26 80.067 22.589L81.8381 23.6756C84.0999 25.0862 86.3617 26.4969 88.6189 28.0072C90.876 29.5175 92.9311 31.0178 95.0777 32.7226C96.151 33.575 97.1184 34.5222 98.0812 35.5691C98.2738 35.7785 98.5626 36.0925 98.7504 36.4015C98.943 36.6109 99.1355 36.8204 99.3233 37.1294C99.5111 37.4385 99.8047 37.6528 99.9925 37.9619C100.089 38.0666 100.18 38.271 100.277 38.3757L100.469 38.5851L100.464 38.6848C100.46 38.7845 100.556 38.8891 100.551 38.9888C100.556 38.8891 100.542 39.1883 100.537 39.288Z" fill="black"/>
<path d="M107.551 38.7337C107.243 38.8185 106.738 38.7936 106.334 38.7737C106.035 38.6591 105.833 38.6492 105.535 38.5346C105.039 38.3103 104.544 38.086 104.149 37.8667C103.263 37.3234 102.484 36.6853 101.805 36.0522C100.452 34.6863 99.3066 33.2307 98.2665 31.6803C97.2265 30.1299 96.2827 28.6843 95.1321 27.3283C94.0873 25.8776 92.9368 24.5216 91.791 23.066C90.6451 21.6103 89.4945 20.2544 88.3534 18.699L87.5927 17.6621C87.3086 17.2484 87.0199 16.9343 86.7358 16.5206C86.4517 16.1068 86.1676 15.693 85.994 15.0848C85.8977 14.9801 85.9073 14.7806 85.811 14.6759C85.7147 14.5713 85.7242 14.3718 85.6327 14.1674C85.5411 13.963 85.5554 13.6639 85.5648 13.4645C85.6801 13.1703 85.6991 12.7715 86.0165 12.4873C86.1222 12.3925 86.127 12.2927 86.228 12.2977L86.5453 12.0135C86.6511 11.9188 86.8579 11.829 86.9637 11.7342C87.2763 11.5497 87.4831 11.4599 87.7909 11.3751C88.3055 11.2006 88.8202 11.026 89.33 10.9511C90.3546 10.7017 91.2685 10.6468 92.1873 10.4921C94.121 10.2874 95.9395 10.3769 97.6664 10.262C101.217 10.1368 104.896 9.41844 108.817 10.0112C110.727 10.3051 112.912 11.2121 114.25 12.8772C115.589 14.5422 116.1 16.5663 116.308 18.5755C116.521 20.4849 116.325 22.4743 115.729 24.344C115.134 26.2137 114.245 27.869 113.255 29.5194C112.27 31.0701 111.184 32.6159 110.203 34.0668C109.761 34.8447 109.218 35.6174 108.781 36.2955L108.218 37.4673C108.103 37.7615 107.873 38.3498 107.551 38.7337ZM106.891 37.7018C106.91 37.3029 106.924 37.0038 107.039 36.7096L107.606 35.4383C108.053 34.5607 108.495 33.7829 108.937 33.0051C109.922 31.4544 110.908 29.9037 111.792 28.348C112.676 26.7923 113.459 25.2317 113.843 23.5515C114.227 21.8712 114.409 20.1811 114.182 18.5707C113.959 16.8607 113.429 15.2355 112.466 14.1887C111.508 13.0421 110.122 12.3742 108.41 12.1899C105.09 11.7267 101.511 12.4501 97.7497 12.7648C95.8207 12.8697 94.0985 12.8849 92.3669 13.0995C91.4529 13.1545 90.6352 13.3142 89.8175 13.4738C89.4086 13.5536 88.9998 13.6335 88.6872 13.818C88.4804 13.9078 88.3746 14.0026 88.2736 13.9976C88.1725 13.9927 88.1678 14.0923 88.1678 14.0923C88.2783 13.8979 88.2831 13.7981 88.2878 13.6984L88.2926 13.5987C88.2926 13.5987 88.2926 13.5987 88.2878 13.6984C88.2878 13.6984 88.2831 13.7981 88.3794 13.9028C88.4662 14.2069 88.755 14.521 88.9428 14.8301C89.1306 15.1391 89.4146 15.5529 89.7035 15.867L90.5605 17.0085C91.6053 18.4592 92.7559 19.8153 93.9017 21.2709C95.0523 22.6269 96.1981 24.0825 97.3439 25.5381C98.4897 26.9938 99.5298 28.5441 100.575 29.9948C101.619 31.4455 102.563 32.8913 103.613 34.2423C104.186 34.9701 104.662 35.5931 105.245 36.1215C105.533 36.4356 105.827 36.65 106.116 36.9641L106.607 37.288C106.809 37.2979 106.799 37.4974 106.891 37.7018Z" fill="black"/>
<path d="M119.643 44.2261C119.542 44.2212 119.34 44.2112 119.239 44.2063C119.138 44.2013 118.945 43.992 118.945 43.992C118.945 43.992 118.849 43.8872 118.854 43.7875C118.757 43.6828 118.762 43.5831 118.762 43.5831L118.67 43.3787L118.584 43.0746L118.511 42.4714C118.53 42.0725 118.448 41.6686 118.467 41.2698C118.505 40.4721 118.543 39.6744 118.576 38.9764C118.749 37.4857 118.926 35.8951 119.199 34.4094C119.741 31.5376 120.191 28.4614 120.944 25.4001C121.323 23.8195 121.799 22.3438 122.582 20.7831C122.803 20.3942 123.024 20.0052 123.346 19.6213C123.457 19.4269 123.668 19.2374 123.779 19.0429L123.995 18.7538L124.101 18.659C124.101 18.659 124.308 18.5692 124.312 18.4695C124.731 18.1903 125.14 18.1104 125.548 18.0306C125.952 18.0505 126.256 18.0654 126.559 18.0803C127.16 18.2099 127.555 18.4292 127.954 18.5488C128.353 18.6684 128.647 18.8828 128.945 18.9974C129.042 19.1021 129.143 19.107 129.244 19.112L129.845 19.2415C130.644 19.4807 131.442 19.7199 132.135 20.0538C133.627 20.627 135.008 21.3946 136.389 22.1622C137.77 22.9298 139.046 23.7921 140.316 24.7542C140.899 25.2826 141.587 25.7163 142.169 26.2447C142.458 26.5587 142.752 26.7731 143.137 27.1918C143.522 27.6106 143.594 28.2137 143.575 28.6126C143.556 29.0115 143.441 29.3056 143.326 29.5998C142.773 30.5721 142.24 31.1456 141.605 31.714C140.97 32.2825 140.442 32.7562 139.807 33.3246L138.86 34.0776L138.441 34.3568L138.018 34.7358C137.388 35.2046 136.859 35.6782 136.225 36.2467C133.806 38.1266 131.094 39.7923 128.295 41.1538C127.569 41.5178 126.848 41.7822 126.126 42.0465C125.712 42.226 125.405 42.3109 124.996 42.3907L124.481 42.5652C124.375 42.66 124.173 42.6501 124.068 42.7448C123.447 43.0141 122.822 43.3831 122.096 43.7472C121.783 43.9317 121.37 44.1112 121.057 44.2957C120.643 44.4753 120.23 44.6549 119.624 44.625C119.321 44.6101 119.032 44.2961 119.046 43.9969C119.06 43.6978 119.277 43.4085 119.681 43.4284L119.782 43.4334C120.186 43.4532 120.917 42.9896 121.441 42.6156C122.066 42.2465 122.696 41.7777 123.422 41.4137C123.629 41.3239 123.836 41.2341 124.043 41.1443L124.557 40.9698C124.865 40.885 125.279 40.7055 125.591 40.521C126.313 40.2566 126.938 39.8876 127.563 39.5186C130.16 38.1472 132.675 36.3719 134.987 34.5867C135.516 34.113 136.146 33.6442 136.675 33.1705L138.367 31.6546C138.896 31.1809 139.425 30.7072 139.959 30.1338C140.488 29.6601 140.92 29.0817 141.141 28.6928C141.146 28.5931 141.151 28.4934 141.146 28.5931C141.146 28.5931 141.132 28.8921 141.228 28.9968C141.036 28.7875 140.742 28.5731 140.549 28.3638C140.063 27.9401 139.476 27.5114 138.889 27.0827C137.715 26.2254 136.435 25.4628 135.15 24.7998C133.865 24.1369 132.479 23.469 131.189 22.9058C130.492 22.6716 129.794 22.4373 129.197 22.2081L128.697 22.0835C128.394 22.0686 128.096 21.9539 127.898 21.8443C127.499 21.7247 127.104 21.5055 126.806 21.3908C126.508 21.2762 126.209 21.1615 126.007 21.1516C125.906 21.1466 125.906 21.1466 125.906 21.1466C125.906 21.1466 126.007 21.1516 126.113 21.0568L126.007 21.1516L125.897 21.3461C125.791 21.4408 125.685 21.5355 125.68 21.6352C125.464 21.9244 125.354 22.1189 125.238 22.4131C124.676 23.5848 124.206 24.9609 123.836 26.342C123.092 29.2039 122.748 32.1853 122.196 35.2566C121.923 36.7424 121.549 38.2232 121.175 39.7039C120.939 40.392 120.8 41.1847 120.565 41.8728L120.21 42.9547L120.085 43.4483L119.974 43.6428L119.97 43.7425C119.97 43.7425 119.97 43.7425 119.974 43.6428C119.974 43.6428 119.979 43.5431 119.878 43.5381C119.878 43.5381 119.786 43.3337 119.584 43.3237C119.488 43.219 119.281 43.3088 119.18 43.3038C119.488 43.219 119.883 43.4383 119.864 43.8372C120.273 43.7574 120.052 44.1463 119.643 44.2261Z" fill="black"/>
<path d="M120.325 42.6607L120.321 42.7604C120.224 42.6557 120.229 42.556 120.128 42.5511C120.036 42.3467 120.036 42.3466 120.041 42.2469L119.954 41.9427C119.863 41.7383 119.868 41.6386 119.776 41.4342C119.689 41.1301 119.704 40.8311 119.718 40.5319C119.732 40.2328 119.742 40.0333 119.761 39.6345C119.881 39.2406 119.881 39.2406 119.991 39.0462L120.106 38.7519C120.553 37.8744 120.904 36.8921 121.355 35.9149C121.807 34.9376 122.36 33.9653 123.215 33.008C123.643 32.5293 124.167 32.1554 124.59 31.7764C124.802 31.5869 125.115 31.4024 125.422 31.3176C125.629 31.2278 125.735 31.133 126.043 31.0482C126.25 30.9585 126.557 30.8737 127.058 30.9983C127.159 31.0032 127.356 31.1129 127.457 31.1178C127.553 31.2225 127.751 31.3322 127.847 31.4369C127.943 31.5416 128.04 31.6462 128.131 31.8506C128.227 31.9553 128.319 32.1597 128.314 32.2594C128.309 32.3591 128.406 32.4639 128.401 32.5636C128.396 32.6633 128.391 32.763 128.391 32.763C128.382 32.9624 128.377 33.0621 128.372 33.1618C128.353 33.5607 128.238 33.8549 128.123 34.149C127.892 34.7374 127.667 35.226 127.441 35.7146L127.22 36.1035C127.109 36.298 127.104 36.3977 126.999 36.4925C126.883 36.7866 126.672 36.9761 126.46 37.1656C126.138 37.5495 125.811 38.0332 125.489 38.4172C124.845 39.185 124.1 39.948 123.355 40.7109L122.292 41.758L121.759 42.3314L121.441 42.6156L121.336 42.7104C121.336 42.7104 121.336 42.7104 121.34 42.6107L121.35 42.4112C121.35 42.4112 121.35 42.4112 121.355 42.3115C121.359 42.2118 121.277 41.808 120.878 41.6884C120.474 41.6685 120.469 41.7682 120.368 41.7632L120.262 41.858C120.248 42.1571 120.229 42.556 120.325 42.6607ZM121.47 42.0173C121.566 42.122 121.542 42.6206 121.336 42.7104C121.331 42.8101 121.23 42.8051 121.23 42.8051C121.129 42.8001 121.119 42.9996 120.72 42.88C120.321 42.7604 120.239 42.3565 120.243 42.2568C120.248 42.1571 120.248 42.1571 120.248 42.1571L120.258 41.9576L120.363 41.8629L120.368 41.7632L120.479 41.5688L121.127 40.7012L121.997 39.4446C122.642 38.6768 123.189 37.8042 123.733 37.0313C124.28 36.1588 124.824 35.3859 125.165 34.6031C125.386 34.2142 125.51 33.7207 125.63 33.3268C125.64 33.1274 125.75 32.9329 125.755 32.8332L125.75 32.9329C125.75 32.9329 125.746 33.0326 125.842 33.1372C125.837 33.237 125.938 33.242 126.035 33.3467C126.131 33.4514 126.232 33.4563 126.328 33.561C126.429 33.5659 126.525 33.6706 126.525 33.6706C126.829 33.6855 126.829 33.6855 126.829 33.6855L126.723 33.7802C126.617 33.875 126.41 33.9648 126.304 34.0595C125.987 34.3438 125.776 34.5333 125.453 34.9172C124.915 35.5904 124.473 36.3681 124.132 37.1509C123.685 38.0285 123.339 38.911 122.888 39.8883C122.883 39.988 122.777 40.0827 122.667 40.2772C122.662 40.3769 122.446 40.6661 122.556 40.4716C122.45 40.5664 122.335 40.8605 122.224 41.055C122.114 41.2494 122.003 41.444 121.792 41.6335C121.686 41.7282 121.681 41.8278 121.576 41.9226L121.47 42.0173C121.561 42.2217 121.566 42.122 121.47 42.0173C121.475 41.9176 121.374 41.9127 121.378 41.813C121.374 41.9127 121.47 42.0173 121.47 42.0173Z" fill="black"/>
<path d="M106.616 37.0887C106.515 37.0837 106.414 37.0787 106.308 37.1734L106.202 37.2681C106.202 37.2681 106.202 37.2682 106.106 37.1635L105.817 36.8495C105.625 36.6401 105.538 36.3359 105.345 36.1266C105.066 35.6131 104.888 35.1046 104.714 34.4964C104.541 33.8881 104.468 33.2848 104.295 32.6766L104.072 30.9666L103.845 29.3563C103.768 28.8528 103.59 28.3442 103.411 27.8357C103.233 27.3272 103.055 26.8187 102.872 26.4099C102.78 26.2055 102.689 26.0011 102.592 25.8964C102.693 25.9014 102.689 26.0011 102.992 26.016C103.194 26.0259 103.497 26.0409 103.704 25.9511C103.809 25.8563 103.809 25.8564 103.915 25.7617C104.021 25.6669 104.021 25.6668 104.026 25.5671C104.03 25.4674 104.03 25.4674 104.131 25.4724C104.136 25.3727 104.136 25.3727 104.136 25.3727C104.136 25.3727 104.131 25.4724 104.127 25.5721C104.117 25.7715 104.204 26.0757 104.194 26.2751C104.185 26.4746 104.185 26.4746 104.272 26.7787L104.253 27.1774C104.239 27.4766 104.33 27.681 104.316 27.9802C104.466 29.087 104.62 30.094 104.977 31.111C105.155 31.6196 105.333 32.1281 105.512 32.6366C105.598 32.9407 105.69 33.1451 105.777 33.4493L106.143 34.2668C106.413 34.9797 106.49 35.4833 106.668 35.9918C106.755 36.2959 106.847 36.5003 106.938 36.7047C106.933 36.8044 107.03 36.9092 107.03 36.9092C107.03 36.9092 107.131 36.9141 106.929 36.9042C106.933 36.8045 106.621 36.9889 106.616 37.0887ZM107.487 37.9312C107.382 38.0259 107.074 38.1107 106.872 38.1007C106.569 38.0858 106.573 37.9861 106.573 37.9861C106.376 37.8764 106.376 37.8764 106.28 37.7717C106.087 37.5623 105.991 37.4576 105.899 37.2532C105.712 36.9441 105.625 36.6401 105.432 36.4307C105.153 35.9173 104.979 35.309 104.796 34.9002L104.324 34.1773C104.137 33.8682 104.045 33.6639 103.857 33.3548C103.578 32.8413 103.303 32.2281 103.125 31.7196C102.672 30.5979 102.32 29.4812 102.074 28.2697C101.987 27.9656 102.002 27.6664 101.915 27.3623L101.838 26.8587C101.838 26.8587 101.847 26.6593 101.751 26.5546C101.664 26.2505 101.678 25.9513 101.596 25.5475C101.606 25.3481 101.514 25.1437 101.63 24.8495C101.634 24.7498 101.634 24.7499 101.639 24.6502C101.644 24.5505 101.648 24.4507 101.754 24.3559C101.759 24.2562 101.759 24.2563 101.865 24.1615C101.971 24.0668 101.975 23.967 102.081 23.8723C102.293 23.6828 102.293 23.6828 102.499 23.593C102.812 23.4085 103.322 23.3337 103.62 23.4483C104.02 23.5679 104.217 23.6776 104.313 23.7823C104.607 23.9966 104.799 24.206 104.891 24.4104C105.18 24.7244 105.266 25.0286 105.454 25.3377C105.729 25.9509 106.008 26.4643 106.182 27.0725C106.355 27.6807 106.534 28.1892 106.707 28.7974L106.683 29.296L106.93 30.5076L107.253 32.2225C107.33 32.7261 107.407 33.2296 107.586 33.7381C107.764 34.2466 107.837 34.85 107.909 35.4532C107.895 35.7524 107.881 36.0515 107.862 36.4504C107.852 36.6498 107.847 36.7495 107.737 36.944C107.732 37.0437 107.732 37.0436 107.727 37.1433C107.723 37.2431 107.718 37.3428 107.713 37.4425C107.704 37.642 107.593 37.8364 107.487 37.9312Z" fill="black"/>
<path d="M97.6638 37.5477C97.5672 37.543 97.4707 37.5382 97.2729 37.6284C97.0751 37.7186 96.9643 38.013 97.0561 38.1175C97.0513 38.2172 97.0513 38.2172 97.0466 38.3169C97.1336 38.5211 97.1383 38.4214 97.1336 38.5211C97.1336 38.5211 97.0418 38.4167 96.9453 38.4119C96.8535 38.3075 96.6604 38.2979 96.4721 38.1887C96.1872 38.0747 95.8011 38.0558 95.5162 37.9418C94.8453 37.8088 94.179 37.5762 93.7106 37.2533L92.0205 36.1706L90.4269 35.0927C89.3983 34.3425 88.3601 33.7916 87.3173 33.3405C87.0324 33.2265 86.7475 33.1126 86.5544 33.1031L86.1683 33.0841L85.6904 32.9606L84.7298 32.8134L84.0541 32.7802L84.1506 32.7849C84.1506 32.7849 84.0541 32.7801 84.3484 32.6946C84.5462 32.6044 84.7488 32.4145 84.9514 32.2246C85.0574 32.0299 85.0717 31.7308 85.0764 31.631C85.0859 31.4316 84.9894 31.4269 84.9846 31.5266C84.9846 31.5266 85.0764 31.631 85.0717 31.7307C85.2552 31.9397 85.4435 32.0489 85.6271 32.2578L87.1194 33.4308C88.1481 34.181 89.2827 34.7365 90.4127 35.3918C91.5473 35.9474 92.7785 36.5077 93.918 36.9636C95.2647 37.1298 96.5053 37.4907 97.6638 37.5477ZM97.602 38.8439C96.154 38.7727 94.9133 38.4118 93.5808 37.9465C92.3401 37.5856 91.1042 37.125 89.873 36.5647C88.637 36.1041 87.4058 35.5438 86.1794 34.8837L84.4893 33.8011C84.2091 33.5874 83.8325 33.3689 83.5572 33.0555C83.3688 32.9463 83.1853 32.7374 83.0982 32.5332C82.9194 32.2245 82.7406 31.9159 82.7643 31.4173C82.7691 31.3176 82.7833 31.0185 82.9859 30.8286C83.0919 30.6339 83.391 30.4487 83.5889 30.3585C83.8832 30.2731 83.7866 30.2683 83.7866 30.2683L86.9723 30.4251C87.3537 30.5438 87.7398 30.5628 88.0247 30.6767C89.4537 31.1468 90.6801 31.8068 91.8053 32.5618L93.3989 33.6397L95.0938 34.6227C95.6587 34.9503 96.1176 35.4727 96.5766 35.995C96.7554 36.3037 97.0308 36.617 97.2143 36.8259C97.3061 36.9304 97.4945 37.0396 97.5815 37.2438L97.7651 37.4528C97.7651 37.4528 97.8568 37.5572 97.9533 37.562C98.0451 37.6665 97.9534 37.5619 98.1369 37.7709C98.1322 37.8706 98.1322 37.8707 98.224 37.9751C98.2145 38.1745 98.1037 38.4689 98.0024 38.5639C97.8964 38.7586 97.6986 38.8487 97.602 38.8439Z" fill="black"/>
<path d="M96.96 50.6061C96.8542 50.7008 96.7485 50.7956 96.7437 50.8953C96.739 50.995 96.7295 51.1944 96.8257 51.299C96.922 51.4037 96.922 51.4038 96.821 51.3989L96.6142 51.4886C96.4074 51.5784 96.0995 51.6631 95.8975 51.6532C95.3876 51.728 94.9788 51.8079 94.4736 51.7831C93.5597 51.8381 92.5352 52.0874 91.6117 52.3418C90.5872 52.5913 89.6589 52.9454 88.6297 53.2945L87.0858 53.8182L86.3643 54.0826L86.0565 54.1674L85.9508 54.2621C85.9508 54.2621 85.845 54.3569 86.1623 54.0726C86.2681 53.9779 86.2681 53.9779 86.2728 53.8782C86.2776 53.7785 86.2728 53.8781 86.3833 53.6837C86.4939 53.4892 86.6139 53.0953 86.5271 52.7912C86.4404 52.4871 86.2525 52.178 86.1515 52.1731C86.1515 52.1731 86.1515 52.1731 86.0505 52.1681L85.9494 52.1631C86.0505 52.1681 86.1515 52.1731 86.3536 52.183C86.7624 52.1032 87.1713 52.0233 87.888 51.8587C88.9077 51.709 89.9322 51.4596 91.053 51.3149L94.2181 50.771L96.6712 50.292L96.8732 50.3019C96.9742 50.3069 97.0752 50.3119 96.9742 50.3069C96.7817 50.0975 96.7674 50.3967 96.96 50.6061ZM98.177 50.566C98.0665 50.7605 97.7444 51.1444 97.4366 51.2292L96.922 51.4038L96.2006 51.6681L94.6567 52.1918C93.6275 52.5409 92.5982 52.8901 91.5689 53.2393C90.5397 53.5884 89.5151 53.8379 88.3896 54.0823C88.0818 54.1671 87.4614 54.4364 86.8457 54.606C86.5379 54.6908 86.1291 54.7706 85.725 54.7507C85.5229 54.7408 85.2199 54.7259 84.9215 54.6112C84.8252 54.5066 84.6232 54.4967 84.5269 54.392C84.4306 54.2873 84.4306 54.2872 84.3343 54.1825L84.2381 54.0779C84.2381 54.0779 83.9492 53.7638 83.8624 53.4597C83.7757 53.1556 83.8957 52.7617 84.0062 52.5672C84.1168 52.3728 84.112 52.4725 84.1167 52.3728C84.1215 52.2731 84.2225 52.278 84.3283 52.1833C84.6456 51.899 84.6408 51.9988 84.7466 51.9041L84.8524 51.8094L86.3 51.1809L87.8486 50.5575C88.8779 50.2084 89.9072 49.8592 91.0375 49.515C92.1677 49.1708 93.2932 48.9264 94.5103 48.8864C95.1212 48.8165 95.7274 48.8463 96.3241 49.0756C96.6224 49.1902 96.9207 49.3049 97.219 49.4195L97.4163 49.5291C97.4163 49.5291 97.6137 49.6387 97.811 49.7484C98.0083 49.8581 98.2008 50.0674 98.2971 50.1721C98.0856 50.3616 98.1818 50.4663 98.177 50.566Z" fill="black"/>
<path d="M104.654 61.2792C104.553 61.2742 104.443 61.4686 104.337 61.5633C104.337 61.5633 104.236 61.5583 104.231 61.658C104.236 61.5583 104.207 62.1567 104.91 62.2912C105.314 62.3111 105.319 62.2113 105.319 62.2113C105.42 62.2163 105.309 62.4108 105.304 62.5105C105.189 62.8047 105.175 63.1038 105.055 63.4977C104.82 64.1857 104.488 64.7691 104.156 65.3525L103.94 65.6416C103.935 65.7414 103.834 65.7365 103.83 65.8362L103.724 65.9309L103.402 66.3148C103.185 66.604 102.974 66.7935 102.859 67.0876C102.532 67.5713 102.099 68.1498 101.768 68.7331C101.105 69.8999 100.542 71.0716 100.081 72.2482C99.7308 73.2305 98.9238 75.2897 98.9096 75.5888L98.9143 75.4891C98.9143 75.4891 98.8228 75.2847 98.7265 75.18C98.6302 75.0753 98.4377 74.8659 98.1346 74.851C98.0336 74.846 97.9325 74.841 97.8315 74.8361C97.7305 74.8311 97.6295 74.8261 97.6295 74.8261C97.4227 74.9159 97.4227 74.916 97.4227 74.916C97.4227 74.916 97.4227 74.916 97.5237 74.921C97.6295 74.8262 97.8458 74.5369 98.0573 74.3474C98.4852 73.8688 98.8167 73.2854 99.1483 72.7021C99.9125 71.5403 100.571 70.4733 101.239 69.2068C101.902 68.0401 102.565 66.8733 103.031 65.5969C103.261 65.0086 103.492 64.4203 103.727 63.7323C103.843 63.4381 103.963 63.0442 104.078 62.75L104.304 62.2614L104.419 61.9672L104.529 61.7728C104.443 61.4687 104.548 61.3739 104.654 61.2792ZM105.42 62.2163C105.525 62.1215 105.525 62.1216 105.525 62.1216L105.42 62.2163L105.41 62.4158L105.285 62.9094L105.137 63.9015C105.003 64.5946 104.868 65.2876 104.633 65.9756C104.264 67.3567 103.692 68.7278 103.125 69.9992C102.558 71.2707 101.89 72.5372 101.227 73.7039C100.896 74.2873 100.559 74.9704 100.127 75.5488C99.9104 75.838 99.6941 76.1272 99.372 76.5111C99.2662 76.6059 99.1604 76.7005 99.0547 76.7953C98.8479 76.8851 98.7421 76.9798 98.3285 77.1594C98.2275 77.1544 98.1217 77.2491 97.9196 77.2392C97.8186 77.2342 97.6165 77.2243 97.4145 77.2143C97.1161 77.0997 96.8226 76.8853 96.63 76.676C96.3459 76.2622 96.2591 75.9581 96.2686 75.7586C96.2056 74.9559 96.3209 74.6618 96.4409 74.2679C96.561 73.874 96.681 73.4802 96.7962 73.186L96.921 72.6924L97.041 72.2985C97.1611 71.9046 97.2763 71.6104 97.3963 71.2166C97.8669 69.8404 98.5396 68.4743 99.2075 67.2078C99.5438 66.5248 99.9764 65.9463 100.409 65.3679C100.625 65.0787 100.842 64.7895 101.058 64.5003L101.385 64.0167L101.49 63.922L101.601 63.7275C101.933 63.1442 102.264 62.5607 102.793 62.087C103.009 61.7978 103.327 61.5137 103.639 61.3292C103.846 61.2394 103.957 61.0449 104.269 60.8604C104.37 60.8654 104.481 60.6709 104.885 60.6907C105.693 60.7305 105.761 61.4335 105.761 61.4335C105.751 61.633 105.751 61.6329 105.747 61.7326C105.742 61.8323 105.627 62.1265 105.42 62.2163Z" fill="black"/>
<path d="M122.059 70.0318C121.958 70.0268 121.963 69.9271 121.857 70.0218L121.954 70.1266C121.954 70.1266 122.05 70.2313 122.151 70.2363C122.247 70.3409 122.545 70.4556 122.858 70.2711C123.065 70.1813 123.276 69.9918 123.276 69.9918C123.382 69.897 123.392 69.6977 123.392 69.6977C123.392 69.6977 123.392 69.6977 123.493 69.7026C123.589 69.8073 123.685 69.9119 123.676 70.1113C123.763 70.4154 123.95 70.7246 124.037 71.0287C124.211 71.6369 124.384 72.2452 124.457 72.8484C124.597 74.1547 124.636 75.4558 124.781 76.6623C124.926 77.8688 125.076 78.9757 125.332 79.9878L125.414 80.3916L125.602 80.7006L125.968 81.5183C126.055 81.8224 126.247 82.0317 126.339 82.2361C126.435 82.3408 126.43 82.4405 126.526 82.5452C126.719 82.7546 126.522 82.6449 126.526 82.5452C126.526 82.5452 126.425 82.5403 126.43 82.4406C126.329 82.4356 126.233 82.3309 126.031 82.321C125.829 82.311 125.627 82.3011 125.319 82.3859C125.213 82.4806 125.107 82.5753 125.006 82.5704C124.901 82.6651 124.901 82.6652 124.795 82.7599C124.684 82.9544 124.689 82.8546 124.684 82.9543C124.684 82.9543 124.684 82.9543 124.68 83.054L124.675 83.1537C124.67 83.2534 124.675 83.1537 124.68 83.054C124.689 82.8546 124.598 82.6502 124.612 82.3511L124.265 81.1346L124.274 80.9352L124.192 80.5313C123.946 79.3198 123.801 78.1134 123.454 76.8969C123.208 75.6854 122.861 74.469 122.514 73.2525L122.094 71.4328L121.935 70.5254L121.857 70.0218L121.766 69.8175L121.775 69.6181C121.775 69.6181 121.78 69.5183 121.785 69.4186C121.789 69.3189 121.905 69.0247 122.011 68.93C122.217 68.8402 122.318 68.8452 122.419 68.8502C122.722 68.8651 123.011 69.1791 122.997 69.4783C122.983 69.7774 122.665 70.0616 122.362 70.0467C122.463 70.0517 122.564 70.0567 122.771 69.9669C122.978 69.8771 123.089 69.6827 122.997 69.4783C123.002 69.3786 123.002 69.3786 123.007 69.2789L123.002 69.3786L123.276 69.9918L123.638 70.9091L124.264 72.639C124.717 73.7607 125.165 74.9821 125.613 76.2035C125.96 77.42 126.409 78.6415 126.65 79.9527L126.727 80.4562L126.819 80.6606L126.814 80.7603L127.074 81.6726C127.161 81.9768 127.243 82.3806 127.325 82.7844C127.316 82.9838 127.402 83.2879 127.282 83.6818C127.278 83.7815 127.273 83.8813 127.167 83.9761L127.057 84.1705C127.052 84.2702 127.052 84.2702 126.941 84.4647C126.836 84.5594 126.831 84.6591 126.73 84.6541C126.624 84.7489 126.518 84.8437 126.417 84.8387C126.109 84.9235 125.903 85.0132 125.6 84.9983C125.397 84.9884 125.301 84.8837 125.099 84.8738C124.998 84.8688 124.902 84.7641 124.902 84.7641C124.512 84.4451 124.416 84.3403 124.223 84.1309C124.132 83.9265 124.035 83.8219 123.944 83.6175C123.756 83.3084 123.568 82.9994 123.38 82.6903L122.913 81.8677L122.822 81.6633C122.725 81.5587 122.726 81.5586 122.634 81.3542L122.456 80.8457C122.012 79.5245 121.776 78.1136 121.635 76.8074C121.495 75.5012 121.451 74.2997 121.306 73.0932C121.233 72.4899 121.161 71.8867 121.194 71.1887C121.208 70.8895 121.328 70.4956 121.343 70.1965L121.472 69.603C121.477 69.5033 121.477 69.5034 121.583 69.4087L121.587 69.309C121.592 69.2093 121.703 69.0148 121.703 69.0148C121.703 69.0148 121.813 68.8204 122.121 68.7356C122.429 68.6508 122.727 68.7654 122.828 68.7704C122.925 68.8751 122.925 68.875 123.026 68.88C123.021 68.9797 123.122 68.9846 123.117 69.0844C123.209 69.2888 123.103 69.3835 123.098 69.4832C123.079 69.8821 122.766 70.0666 122.362 70.0467C122.261 70.0417 122.16 70.0368 122.064 69.9321L122.059 70.0318Z" fill="black"/>
<path d="M133.701 62.8097C133.802 62.8147 134.009 62.7248 134.115 62.6301C134.221 62.5353 134.225 62.4357 134.23 62.336C134.143 62.0319 134.437 62.2462 134.533 62.3509C134.831 62.4655 135.13 62.5802 135.424 62.7945C136.016 63.1235 136.507 63.4475 136.892 63.8662L139.611 66.2988C140.487 67.0415 141.459 67.889 142.335 68.6318C142.826 68.9558 143.216 69.2747 143.707 69.5987L144.4 69.9327C144.496 70.0374 144.597 70.0423 144.694 70.147L144.895 70.1569C145.093 70.2666 145.093 70.2667 144.992 70.2617C144.992 70.2617 144.992 70.2617 144.891 70.2567C144.891 70.2567 144.689 70.2468 144.588 70.2418C144.487 70.2368 144.285 70.2269 144.078 70.3167C143.77 70.4015 143.448 70.7853 143.337 70.9798C143.222 71.274 143.203 71.6729 143.203 71.6729C143.198 71.7726 143.29 71.9769 143.29 71.9769C143.29 71.9769 143.198 71.7726 143.102 71.6679L142.524 71.0397C142.139 70.621 141.754 70.2023 141.364 69.8832C140.488 69.1405 139.521 68.1933 138.65 67.3509C137.778 66.5084 136.907 65.666 135.925 65.018C135.434 64.694 134.943 64.37 134.452 64.046C134.154 63.9314 133.962 63.722 133.663 63.6073C133.567 63.5027 133.365 63.4927 133.466 63.4977C133.677 63.3082 133.793 63.0141 133.701 62.8097ZM132.513 62.2515C132.719 62.1617 133.133 61.9821 133.537 62.002C133.941 62.0219 134.038 62.1265 134.24 62.1365C134.538 62.2511 134.836 62.3658 135.135 62.4804C135.731 62.7097 136.323 63.0387 136.814 63.3627C137.897 64.0157 138.975 64.7683 139.952 65.5161L142.883 67.7592C143.369 68.1829 143.855 68.6065 144.341 69.0303L145.015 69.7631C145.304 70.0772 145.593 70.3912 145.766 70.9994L145.762 71.0991C145.762 71.0991 145.853 71.3036 145.849 71.4033C145.849 71.4033 145.829 71.8021 145.714 72.0962C145.599 72.3904 145.282 72.6747 144.974 72.7595C144.868 72.8543 144.666 72.8443 144.464 72.8344C144.363 72.8294 144.161 72.8194 144.161 72.8194C144.06 72.8145 143.959 72.8095 143.964 72.7098C143.863 72.7048 143.766 72.6002 143.863 72.7048C143.964 72.7098 143.964 72.7098 143.863 72.7048L143.66 72.6949C143.463 72.5852 143.362 72.5802 143.165 72.4705C142.866 72.3559 142.472 72.1366 142.174 72.0219C141.582 71.693 141.091 71.369 140.504 70.9403C139.426 70.1876 138.555 69.3452 137.578 68.5975L134.858 66.1648C134.372 65.7411 133.987 65.3224 133.606 64.804C133.414 64.5946 133.226 64.2855 133.139 63.9814C133.048 63.777 133.048 63.777 132.764 63.3632C132.672 63.1588 132.58 62.9544 132.59 62.755C132.503 62.4509 132.508 62.3512 132.513 62.2515Z" fill="black"/>
<path d="M141.284 49.0893C141.274 49.2887 141.371 49.3933 141.371 49.3933C141.265 49.4881 141.159 49.5828 141.053 49.6776C140.842 49.8671 140.635 49.9568 140.424 50.1463C140.005 50.4256 139.592 50.6051 139.082 50.68C138.158 50.9344 137.23 51.2885 136.307 51.5429C135.378 51.897 134.556 52.1563 133.628 52.5104C133.214 52.69 132.8 52.8695 132.387 53.049C132.18 53.1388 132.074 53.2336 131.968 53.3284C131.968 53.3284 131.968 53.3284 131.973 53.2287C131.978 53.129 132.084 53.0341 132.084 53.0341C132.089 52.9344 132.204 52.6403 132.107 52.5356C132.117 52.3361 132.025 52.1317 131.828 52.0221C131.732 51.9174 131.732 51.9174 131.732 51.9174C131.631 51.9124 131.828 52.0221 132.131 52.037C132.434 52.0519 132.843 51.9721 133.252 51.8923C134.074 51.6329 134.998 51.3786 135.83 50.9198C136.657 50.5607 137.59 50.1068 138.422 49.648C138.836 49.4685 139.254 49.1892 139.672 48.9099L140.61 48.3564L140.716 48.2617C140.716 48.2617 140.61 48.3565 140.697 48.6606C140.885 48.9697 141.183 49.0843 141.284 49.0893ZM141.644 47.9075C141.745 47.9125 142.039 48.1269 142.125 48.431C142.212 48.7351 142.001 48.9246 142.005 48.8249L141.9 48.9196C141.794 49.0143 141.794 49.0143 141.794 49.0143L141.683 49.2089L141.366 49.493C141.155 49.6825 140.943 49.8721 140.832 50.0665C140.409 50.4455 140.092 50.7297 139.674 51.009C138.837 51.5675 137.996 52.2256 137.164 52.6844C136.327 53.243 135.394 53.6968 134.365 54.0459C133.85 54.2205 133.335 54.3951 132.623 54.46C132.013 54.5299 131.099 54.5848 130.324 53.8471L130.126 53.7374L130.03 53.6328C130.03 53.6328 130.03 53.6328 129.934 53.5281C129.741 53.3187 129.654 53.0146 129.664 52.8151C129.572 52.6107 129.692 52.2169 129.697 52.1172C129.702 52.0175 129.812 51.823 129.918 51.7282C130.024 51.6335 130.024 51.6336 130.029 51.5338C130.139 51.3394 130.24 51.3443 130.346 51.2496C130.663 50.9653 130.875 50.7759 131.183 50.6911C131.702 50.4168 132.12 50.1375 132.635 49.9629C133.568 49.5091 134.496 49.155 135.424 48.8009C136.353 48.4468 137.281 48.0926 138.305 47.8432C138.82 47.6686 139.229 47.5889 139.835 47.6187C140.138 47.6336 140.34 47.6435 140.643 47.6585C140.744 47.6634 140.946 47.6733 141.043 47.778C141.043 47.778 141.447 47.7979 141.644 47.9075Z" fill="black"/>
<path d="M39.4815 16.6022C37.6414 20.7885 35.6264 24.8856 33.6987 28.9828L27.6522 41.1853C23.6215 49.3797 19.766 57.4849 16.261 65.8574C12.7561 74.2299 9.77692 82.6916 7.58631 91.5094L6.09695 98.1005C5.74645 100.327 5.30807 102.554 4.95757 104.781C4.6947 107.007 4.43191 109.234 4.16904 111.461L3.99362 114.756C3.90599 115.825 3.99362 116.983 3.99362 118.141C3.99362 122.595 4.3442 127.137 4.95757 131.591C5.57094 136.044 6.27202 140.497 7.23589 144.951C9.07601 153.769 11.5293 162.498 14.0704 171.226C15.3848 175.591 16.6992 179.955 18.0135 184.23L18.5394 185.834C18.7146 186.457 18.8899 187.081 18.9775 187.704C19.1527 188.951 19.1527 190.287 18.8898 191.534C18.4517 194.028 17.4005 196.255 16.1738 198.303C14.947 200.352 13.5447 202.133 12.3179 204.004C11.7046 204.894 11.1791 205.874 10.8286 206.676C10.6533 207.121 10.6532 207.477 10.6532 207.745C10.6532 207.923 10.7409 208.012 10.7409 208.101C10.7409 208.19 10.916 208.457 11.0036 208.635C11.4417 209.348 12.0552 209.704 12.8438 209.882C13.6324 209.971 14.6841 209.882 15.6479 209.615C17.6633 209.081 19.6786 208.101 21.6939 207.121C25.7247 205.162 29.8428 202.935 34.6622 202.044C35.8889 201.777 37.2034 201.777 38.2549 201.688L41.6721 201.51C43.9504 201.421 46.2288 201.332 48.4194 201.154C57.4447 200.53 66.4702 199.55 75.3203 197.947C93.1081 194.83 110.545 189.396 126.405 180.668C134.291 176.303 141.739 171.137 148.574 165.17C155.409 159.291 161.455 152.522 166.888 145.307C177.666 130.789 185.376 114.133 190.721 96.7645C190.809 96.4082 191.16 96.2301 191.51 96.3192C191.861 96.4082 192.036 96.7644 191.948 97.1207C186.691 114.578 179.067 131.412 168.29 146.287C157.599 161.162 143.579 173.631 127.544 182.538C111.509 191.445 93.8087 197.056 75.8457 200.352C66.8204 201.955 57.7951 203.113 48.6821 203.737C46.4039 203.915 44.1258 204.093 41.8476 204.182L38.4303 204.36C37.2036 204.449 36.2395 204.449 35.188 204.627C30.982 205.429 27.0389 207.567 22.9206 209.615C20.8176 210.595 18.8022 211.664 16.3488 212.287C15.122 212.643 13.8076 212.822 12.4057 212.644C10.916 212.465 9.5143 211.486 8.72568 210.239C8.55043 209.882 8.3751 209.704 8.19985 209.259C8.0246 208.903 7.93706 208.457 7.84944 208.012C7.76181 207.121 7.93689 206.409 8.11214 205.785C8.55026 204.449 9.25126 203.469 9.86463 202.49C11.179 200.53 12.5809 198.749 13.72 196.878C14.8591 195.008 15.7356 193.048 16.0861 191.089C16.2613 190.109 16.2613 189.129 16.0861 188.149C15.9984 187.615 15.9109 187.17 15.7356 186.724L15.2098 185.121C13.8954 180.757 12.4934 176.392 11.179 172.028C8.63788 163.299 6.09686 154.481 4.25675 145.574C3.29288 141.121 2.50408 136.578 1.89071 132.036C1.27734 127.493 0.926758 122.862 0.926758 118.23C0.926758 117.072 0.926758 115.914 0.926758 114.756L1.10218 111.283C1.36505 108.967 1.62784 106.74 1.89071 104.424C2.24121 102.198 2.67959 99.8819 3.03009 97.6552L4.51945 90.8859C6.71006 81.9789 9.77692 73.2502 13.2819 64.8777C16.7869 56.4161 20.8176 48.2218 25.1112 40.2056L31.5953 28.1812L38.1672 16.2459C38.3424 15.9787 38.6929 15.8005 39.0434 15.9787C39.4815 15.9787 39.6568 16.335 39.4815 16.6022Z" fill="black"/>
<path d="M40.709 15.177C39.5699 16.9584 38.7811 19.0071 38.3429 21.0557C37.9048 23.1933 37.9049 25.331 37.9925 27.4686C38.343 31.833 39.307 36.1084 40.709 40.2056C42.111 44.3918 43.8633 48.3109 45.791 52.2299C47.7188 56.1489 49.9092 59.9788 52.1875 63.7197C56.8315 71.1125 62.2644 78.0599 68.4857 84.2057C71.5526 87.234 74.8822 90.0842 78.4748 92.5782C79.351 93.2017 80.315 93.7361 81.1912 94.3596L86.9745 97.7442L89.866 99.2584C97.5769 103.356 105.638 106.918 114.05 109.59C116.153 110.214 118.257 110.837 120.36 111.372C122.463 111.906 124.565 112.441 126.756 112.797C131.05 113.688 135.431 114.133 139.725 114.4C148.399 114.845 157.25 113.955 165.574 111.372C173.811 108.789 181.784 104.692 187.918 98.6349C189.408 97.1208 190.809 95.5175 191.51 93.6471C192.211 91.7766 192.474 89.6389 192.562 87.5013C192.65 83.226 191.949 78.8615 190.897 74.6753C188.707 66.2137 184.939 58.1975 180.119 50.8939C175.3 43.5902 169.429 36.91 162.682 31.2986C159.265 28.5375 155.672 25.9545 151.904 23.7278C148.137 21.501 144.193 19.5415 140.25 17.582C124.302 10.0111 107.304 4.66695 89.691 2.79649C80.9285 1.9058 72.0785 1.90576 63.4036 3.41993C59.11 4.22156 54.8162 5.3795 50.8731 7.24995C46.8424 9.20947 43.1625 11.7033 40.709 15.177ZM39.6573 14.5536C42.2861 10.7236 46.1416 8.14058 50.26 6.18106C54.3783 4.3106 58.672 3.06361 63.0532 2.26199C71.9033 0.658744 80.8409 0.658809 89.691 1.5495C107.479 3.33089 124.653 8.76409 140.776 16.335C144.807 18.2945 148.75 20.254 152.605 22.4808C156.461 24.7075 160.141 27.2905 163.646 30.1407C170.568 35.7521 176.614 42.5214 181.609 50.0032C186.516 57.485 190.459 65.6793 192.825 74.319C193.964 78.6834 194.753 83.1368 194.665 87.7684C194.577 90.0842 194.315 92.4001 193.526 94.6268C193.351 95.1612 193.088 95.7847 192.737 96.3192C192.475 96.8536 192.124 97.2989 191.774 97.8333C191.423 98.2786 191.072 98.724 190.634 99.1693L189.495 100.416C183.011 106.918 174.774 111.194 166.187 113.955C157.6 116.627 148.487 117.696 139.462 117.25C134.993 117.072 130.524 116.538 126.055 115.647C123.865 115.291 121.674 114.667 119.483 114.222C117.293 113.688 115.19 113.064 112.999 112.352C104.5 109.59 96.2628 106.028 88.3766 101.841L85.3975 100.238L79.6142 96.8535C78.6503 96.2301 77.6862 95.6066 76.7223 94.9831C72.9545 92.4001 69.5372 89.4608 66.2951 86.3433C59.8985 80.0194 54.2904 72.8939 49.5587 65.323C44.827 57.7521 40.8842 49.5578 38.5184 40.829C37.2916 36.4646 36.5027 32.0111 36.415 27.4686C36.415 23.1042 37.0286 18.3836 39.6573 14.5536Z" fill="black"/>
<path d="M170.445 101.399C169.329 101.444 168.641 101.01 168.058 100.482L166.311 98.8964C165.146 97.8396 163.986 96.6831 162.821 95.6263C160.496 93.413 158.277 91.1049 156.275 88.5077C156.087 88.1986 156.106 87.7997 156.418 87.6152C156.63 87.4257 156.933 87.4406 157.226 87.655C159.768 89.5791 162.203 91.5979 164.639 93.6168C165.803 94.6736 167.074 95.6357 168.239 96.6925L170.087 98.2826C170.67 98.811 171.146 99.4342 171.296 100.541C171.277 100.94 170.955 101.324 170.445 101.399Z" fill="black"/>
<path d="M176.343 94.4929C175.42 94.7473 174.722 94.5131 174.236 94.0893L172.571 92.908C171.493 92.1553 170.42 91.303 169.447 90.4556C167.402 88.7557 165.361 86.9561 163.633 84.9721C163.44 84.7627 163.459 84.3638 163.675 84.0746C163.887 83.8851 164.19 83.9001 164.387 84.0097C166.654 85.3206 168.911 86.831 171.072 88.2367L174.306 90.4947L175.976 91.5763C176.568 91.9053 176.948 92.4238 177.103 93.4309C177.18 93.9344 176.853 94.4181 176.343 94.4929Z" fill="black"/>
<path d="M180.707 87.911C179.779 88.2651 179.081 88.0309 178.489 87.7019L176.714 86.715C175.53 86.0571 174.351 85.2994 173.172 84.5418C170.915 83.0314 168.557 81.5162 166.41 79.8114C166.116 79.5971 166.135 79.1982 166.352 78.909C166.563 78.7195 166.871 78.6346 167.068 78.7443C169.652 79.771 172.126 80.9922 174.498 82.2084C175.682 82.8663 176.971 83.4295 178.155 84.0874L179.931 85.0744C180.523 85.4033 181.009 85.827 181.366 86.844C181.443 87.3476 181.116 87.8312 180.707 87.911Z" fill="black"/>
<path d="M170.661 54.3339C170.022 55.0021 169.411 55.072 168.906 55.0472L167.294 54.8679C166.183 54.8132 165.081 54.5591 163.97 54.5044C161.757 54.1956 159.544 53.8867 157.244 53.2738C156.945 53.1592 156.656 52.8452 156.777 52.4513C156.892 52.1572 157.103 51.9677 157.305 51.9776C159.542 51.7878 161.875 51.7028 164.103 51.7124C165.214 51.7671 166.33 51.7221 167.538 51.8815L169.25 52.0657C169.857 52.0955 170.352 52.3198 170.82 53.1424C171.108 53.4564 170.979 54.0497 170.661 54.3339Z" fill="black"/>
<path d="M162.587 43.1424C162.246 43.9252 161.832 44.1047 161.423 44.1845L160.201 44.3242C159.383 44.4839 158.47 44.5389 157.657 44.5988C155.93 44.7137 154.299 44.9333 152.577 44.9485C152.274 44.9336 151.98 44.7193 151.898 44.3155C151.908 44.116 152.023 43.8219 152.23 43.7321C153.788 42.9093 155.433 42.3906 157.179 41.8768C157.997 41.7171 158.92 41.4627 159.738 41.303L161.065 41.0686C161.474 40.9887 161.974 41.1133 162.451 41.7364C162.629 42.2449 162.707 42.7485 162.587 43.1424Z" fill="black"/>
<path d="M156.93 36.4673C156.791 37.2601 156.469 37.644 156.055 37.8236L154.915 38.3671C154.189 38.7312 153.362 39.0903 152.535 39.4493C150.981 40.1725 149.433 40.796 147.682 41.4095C147.374 41.4943 146.975 41.3746 146.888 41.0705C146.797 40.8661 146.912 40.572 147.023 40.3775C148.301 39.0412 149.768 38.0138 151.235 36.9866C151.965 36.5228 152.797 36.0641 153.624 35.705L154.865 35.1663C155.279 34.9868 155.789 34.912 156.472 35.4454C156.872 35.565 157.05 36.0735 156.93 36.4673Z" fill="black"/>
<path d="M127.822 107.597C126.931 107.153 126.657 106.54 126.483 105.932L126.064 104.112C125.818 102.901 125.576 101.589 125.33 100.378C124.944 97.8603 124.553 95.4422 124.267 92.9295C124.181 92.6254 124.503 92.2415 124.806 92.2564C125.109 92.2713 125.306 92.3809 125.498 92.5903C126.601 94.9434 127.296 97.3763 127.99 99.8092C128.337 101.026 128.584 102.237 128.931 103.454L129.35 105.273C129.524 105.882 129.495 106.48 128.952 107.253C128.731 107.642 128.221 107.716 127.822 107.597Z" fill="black"/>
<path d="M135.303 109.964C134.413 109.52 134.139 108.907 133.965 108.299L133.449 106.375C133.107 105.058 132.765 103.742 132.523 102.431C131.94 99.8038 131.356 97.1763 131.08 94.4642C130.993 94.1601 131.315 93.7762 131.618 93.7911C131.921 93.806 132.119 93.9157 132.311 94.1251C133.41 96.5779 134.301 99.1203 135.192 101.663C135.636 102.984 135.983 104.201 136.427 105.522L136.942 107.446C137.116 108.054 137.184 108.757 136.636 109.63C136.314 110.014 135.698 110.183 135.303 109.964Z" fill="black"/>
<path d="M141.765 110.382C140.87 110.038 140.49 109.52 140.316 108.911L139.694 107.082C139.246 105.86 138.899 104.644 138.446 103.522C137.651 101.084 136.956 98.6513 136.469 96.1287C136.382 95.8246 136.603 95.4357 137.012 95.3559C137.32 95.2711 137.517 95.3807 137.705 95.6898C139.015 97.9531 140.022 100.202 141.024 102.55C141.477 103.671 142.026 104.898 142.479 106.019L143.206 107.754C143.38 108.363 143.553 108.971 143.107 109.848C142.679 110.327 142.16 110.601 141.765 110.382Z" fill="black"/>
<path d="M94.6726 93.4721C94.095 92.844 94.0176 92.3405 94.1424 91.8469L94.517 90.3661C94.7665 89.3789 95.112 88.4964 95.3616 87.5092C95.9569 85.6394 96.6537 83.7748 97.5522 81.92C97.6674 81.6258 98.0808 81.4462 98.3744 81.6606C98.5717 81.7702 98.7642 81.9796 98.7499 82.2787C98.6549 84.273 98.3579 86.2573 97.9646 88.137C97.7151 89.1242 97.5713 90.0167 97.3218 91.0039L96.9524 92.385C96.8276 92.8786 96.6065 93.2674 95.7793 93.6265C95.3609 93.9058 94.9615 93.7862 94.6726 93.4721Z" fill="black"/>
<path d="M85.9379 87.6451C85.6728 86.8325 85.7976 86.3389 86.115 86.0547L86.9752 84.9976C87.5136 84.3245 88.1532 83.6564 88.7926 82.9882C90.0714 81.6519 91.4463 80.4202 92.9129 79.3929C93.2255 79.2084 93.6295 79.2282 93.8173 79.5373C94.0099 79.7467 93.9957 80.0459 93.8852 80.2404C92.9963 81.8957 91.915 83.3417 90.8335 84.7877C90.2951 85.4608 89.752 86.2336 89.2136 86.9068L88.454 87.9689C88.233 88.3578 87.8194 88.5374 86.9101 88.4926C86.5108 88.373 86.1209 88.0539 85.9379 87.6451Z" fill="black"/>
<path d="M78.5018 82.182C78.4435 81.2796 78.7657 80.8956 79.184 80.6164L80.3381 79.7736C81.1748 79.2151 81.9103 78.6516 82.7518 77.9934C84.4252 76.8763 85.9974 75.7543 87.8682 74.747C88.1807 74.5625 88.5805 74.6822 88.7683 74.9912C88.8598 75.1956 88.8456 75.4947 88.735 75.6892C87.442 77.3247 86.057 78.7557 84.5714 80.1818C83.831 80.845 83.0909 81.5083 82.2494 82.1665L81.0906 83.109C80.6722 83.3882 80.1574 83.5627 79.3587 83.3235C78.7668 82.9946 78.4828 82.5808 78.5018 82.182Z" fill="black"/>
<path d="M58.5166 63.8074C58.6604 62.9149 58.9829 62.531 59.5023 62.2567L60.8534 61.5236C61.7911 60.97 62.7239 60.5162 63.7579 60.0674C65.7249 59.1647 67.8845 58.4714 70.0251 58.177C70.3329 58.0922 70.7229 58.4112 70.7087 58.7104C70.6945 59.0095 70.5836 59.2039 70.3768 59.2937C68.5061 60.3011 66.7367 61.3134 64.9623 62.4255L62.2548 63.9913L60.8989 64.8242C60.4806 65.1034 59.8646 65.273 59.0754 64.8343C58.7771 64.7197 58.4929 64.3059 58.5166 63.8074Z" fill="black"/>
<path d="M54.1768 54.9984C54.5179 54.2156 54.9312 54.0361 55.441 53.9612L56.7689 53.7267C57.6877 53.572 58.6061 53.4173 59.5248 53.2626C61.3575 53.053 63.195 52.7437 65.1145 52.8381C65.4176 52.853 65.7066 53.1671 65.7934 53.4712C65.7791 53.7703 65.6688 53.9648 65.462 54.0545C63.7018 54.8675 61.9557 55.3812 60.104 55.9897C59.1805 56.2441 58.2568 56.4985 57.3381 56.6532L55.9096 56.8828C55.3997 56.9577 54.8946 56.9327 54.4227 56.2098C54.1338 55.8958 54.0568 55.3923 54.1768 54.9984Z" fill="black"/>
<path d="M49.9539 47.9943C50.497 47.2214 51.0117 47.0468 51.6179 47.0767L53.2386 47.0565C54.3547 47.0115 55.4662 47.0662 56.5823 47.0212C58.8096 47.0308 61.0323 47.1402 63.2453 47.449C63.5484 47.4639 63.8369 47.7779 63.8179 48.1768C63.8036 48.4759 63.5921 48.6654 63.289 48.6505C61.0379 49.1394 58.8974 49.4339 56.6606 49.6237C55.5445 49.6687 54.4239 49.8135 53.3079 49.8585L51.6819 49.9783C51.172 50.0532 50.5709 49.9237 49.998 49.1959C49.7092 48.8818 49.7328 48.3832 49.9539 47.9943Z" fill="black"/>
<path d="M48.3423 24.4272C49.179 23.8686 49.7804 23.9983 50.3818 24.1278L52.1768 24.7159C53.3749 25.0747 54.5678 25.5332 55.7611 25.9917C58.1478 26.9087 60.5249 28.0252 62.6952 29.2314C62.9888 29.4457 63.0759 29.7498 62.9559 30.1437C62.8454 30.3381 62.5327 30.5227 62.3354 30.413C59.8287 29.8899 57.3269 29.267 54.9308 28.5494C53.7327 28.1906 52.5346 27.8318 51.3365 27.473L49.542 26.885C48.9453 26.6557 48.3486 26.4265 47.9872 25.5092C47.7994 25.2001 47.924 24.7064 48.3423 24.4272Z" fill="black"/>
<path d="M52.7295 17.3471C53.5567 16.988 54.0574 17.1126 54.5483 17.4366L55.9246 18.3038C56.81 18.8471 57.6905 19.4902 58.576 20.0336C60.3422 21.2199 62.1039 22.5059 63.6538 23.9815C63.9474 24.1958 63.9285 24.5947 63.7122 24.8839C63.5006 25.0734 63.2936 25.1631 62.9953 25.0485C61.0033 24.3507 59.0256 23.3539 57.1489 22.362C56.2634 21.8187 55.2723 21.3702 54.3868 20.8269L53.0053 20.0592C52.5097 19.8349 52.1246 19.4162 52.0663 18.5138C51.9937 17.9105 52.3159 17.5266 52.7295 17.3471Z" fill="black"/>
<path d="M56.3501 13.6272C57.1725 13.3678 57.7742 13.4973 58.1641 13.8164L59.5356 14.7834C60.4164 15.4265 61.2973 16.0695 62.178 16.7126C63.8337 18.0934 65.4846 19.5738 66.9193 21.3435C67.1071 21.6526 67.0881 22.0514 66.8765 22.2409C66.665 22.4304 66.3617 22.4155 66.1644 22.3058C64.2924 21.2142 62.4203 20.1226 60.6541 18.9363C59.7686 18.393 58.787 17.745 57.9015 17.2017L56.5252 16.3343C56.0344 16.0103 55.7504 15.5966 55.6921 14.6942C55.7158 14.1956 55.9365 13.8067 56.3501 13.6272Z" fill="black"/>
<path d="M94.0064 11.7823C94.9061 12.0264 95.1901 12.4402 95.3732 12.849L96.0141 14.2797C96.4765 15.202 96.7318 16.2141 97.1895 17.2361C97.9027 19.2701 98.5152 21.2992 98.7186 23.4081C98.8053 23.7122 98.4833 24.0962 98.1802 24.0813C97.8771 24.0664 97.6797 23.9567 97.5882 23.7523C96.5624 21.9027 95.7385 20.0631 94.7127 18.2136C94.2503 17.2913 93.788 16.3691 93.4314 15.3521L92.7905 13.9212C92.6122 13.4127 92.535 12.9091 92.9771 12.1313C93.0877 11.9368 93.5013 11.7574 94.0064 11.7823Z" fill="black"/>
<path d="M101.183 12.0353C101.982 12.2745 102.17 12.5836 102.252 12.9874L102.503 14.0991C102.672 14.8071 102.735 15.6098 102.903 16.3178C103.135 17.8284 103.262 19.4337 102.984 21.0192C102.965 21.4181 102.652 21.6026 102.248 21.5827C102.046 21.5727 101.853 21.3634 101.762 21.159C101.121 19.7283 100.682 18.3073 100.243 16.8865C100.075 16.1785 99.805 15.4657 99.6409 14.658L99.3898 13.5463C99.3078 13.1424 99.3268 12.7435 99.9567 12.2748C100.274 11.9906 100.683 11.9107 101.183 12.0353Z" fill="black"/>
<path d="M108.611 11.3014C109.294 11.8348 109.473 12.3434 109.454 12.7422L109.383 14.2379C109.335 15.2351 109.288 16.2322 109.245 17.1297C109.049 19.119 108.858 21.0086 108.359 22.983C108.243 23.2771 107.926 23.5614 107.627 23.4467C107.324 23.4318 107.233 23.2274 107.146 22.9233C106.736 20.9042 106.624 18.9996 106.517 16.9954C106.464 15.9933 106.41 14.9912 106.453 14.0937L106.423 12.5931C106.447 12.0945 106.572 11.6009 107.302 11.1371C107.812 11.0623 108.317 11.0871 108.611 11.3014Z" fill="black"/>
<path d="M129.684 21.7335C130.156 22.4564 130.035 22.8503 129.92 23.1444L129.367 24.1167C129.031 24.7998 128.598 25.3782 128.161 26.0563C127.392 27.3178 126.518 28.674 125.551 29.8259C125.335 30.1151 124.931 30.0951 124.637 29.8808C124.44 29.7711 124.354 29.4671 124.363 29.2676C124.641 27.6822 125.116 26.2062 125.692 24.7354C126.029 24.0523 126.269 23.2646 126.707 22.5865L127.264 21.5145C127.485 21.1256 127.797 20.941 128.61 20.881C129.005 21.1004 129.4 21.3197 129.684 21.7335Z" fill="black"/>
<path d="M136.251 24.1555C136.622 24.8734 136.502 25.2673 136.29 25.4568L135.651 26.1249C135.223 26.6036 134.8 26.9826 134.372 27.4613C133.42 28.314 132.468 29.1667 131.324 29.81C131.011 29.9945 130.612 29.875 130.424 29.5659C130.332 29.3615 130.342 29.1619 130.351 28.9625C130.918 27.6911 131.576 26.624 132.336 25.562C132.764 25.0833 133.095 24.5 133.523 24.0213L134.167 23.2535C134.384 22.9643 134.691 22.8794 135.389 23.1136C135.779 23.4326 136.068 23.7467 136.251 24.1555Z" fill="black"/>
<path d="M139.86 27.0319C140.025 27.8396 139.905 28.2335 139.587 28.5177L138.741 29.2755C138.207 29.849 137.578 30.3177 136.948 30.7864C135.688 31.7239 134.529 32.6664 133.173 33.4992C132.861 33.6837 132.461 33.5642 132.273 33.2551C132.182 33.0507 132.191 32.8513 132.302 32.6568C133.08 31.1959 134.152 29.9493 135.118 28.7975C135.652 28.2241 136.186 27.6506 136.82 27.0821L137.667 26.3242C137.984 26.0399 138.296 25.8555 139.09 26.1944C139.394 26.2093 139.677 26.6231 139.86 27.0319Z" fill="black"/>
<path d="M11.8804 203.202C12.4937 202.668 13.0197 202.757 13.3702 203.024C13.7207 203.202 14.0713 203.469 14.4218 203.737C15.1228 204.271 15.6486 204.895 16.1743 205.607C17.0506 207.032 17.4885 208.725 17.3133 210.239C17.3133 210.595 16.9629 210.862 16.6124 210.862C16.3496 210.862 16.1742 210.684 16.0866 210.506C15.4732 209.259 14.7723 208.101 13.9837 207.299C13.6332 206.854 13.1075 206.498 12.6693 206.142C12.4065 205.963 12.1432 205.785 11.8804 205.696C11.6175 205.518 11.4423 205.251 11.4423 204.449V204.36C11.3546 203.826 11.5299 203.47 11.8804 203.202Z" fill="black"/>
<path d="M34.3119 51.9627C34.6624 52.9425 34.4874 53.566 34.1369 54.1894L33.1729 55.9708C32.5596 57.2178 31.8583 58.3757 31.1573 59.5336C29.7553 61.9385 28.3537 64.2543 26.6888 66.481C26.5135 66.7482 26.0754 66.8373 25.8126 66.6591C25.5497 66.481 25.4618 66.2137 25.5494 65.9465C26.4257 63.2745 27.5649 60.7805 28.704 58.2866C29.3174 57.0396 29.9308 55.7927 30.5442 54.5457L31.5081 52.6753C31.8586 52.0518 32.2968 51.5173 33.2606 51.2501C33.6988 51.2501 34.1366 51.5174 34.3119 51.9627Z" fill="black"/>
<path d="M37.6418 69.9546C37.9923 70.8453 37.8168 71.4688 37.4664 72.0923L36.5024 73.7846C35.889 74.8534 35.1883 76.0113 34.5749 77.0801C33.2605 79.2178 31.8582 81.3555 30.281 83.4041C30.1057 83.6713 29.6676 83.7604 29.4047 83.4932C29.2295 83.315 29.1421 83.0478 29.2297 82.7806C30.106 80.3757 31.1575 78.0599 32.2966 75.7441C32.91 74.5862 33.4357 73.4283 34.0491 72.3595L34.9253 70.6672C35.2758 70.1328 35.6262 69.5983 36.5901 69.4202C37.0282 69.242 37.4665 69.5092 37.6418 69.9546Z" fill="black"/>
<path d="M17.1374 81.5335C17.6631 82.3351 17.5757 82.9587 17.4005 83.4931L16.787 85.0963C16.4365 86.1651 15.9108 87.3231 15.5603 88.3919C14.6841 90.5296 13.7203 92.6672 12.5811 94.8048C12.4059 95.072 12.0554 95.2502 11.7049 95.0721C11.442 94.983 11.3545 94.7157 11.3545 94.4485C11.705 92.1327 12.3183 89.817 13.0193 87.5012C13.3698 86.3433 13.72 85.2744 14.0705 84.1165L14.5963 82.4242C14.7716 81.8898 15.1222 81.3554 15.9984 81.0882C16.3489 80.91 16.8745 81.0882 17.1374 81.5335Z" fill="black"/>
<path d="M23.1836 103.355C23.7093 104.068 23.7093 104.602 23.6217 105.137L23.1836 106.651C22.9207 107.631 22.5701 108.611 22.2196 109.679C21.5186 111.639 20.8175 113.598 19.8536 115.558C19.6784 115.914 19.3279 116.003 18.9774 115.825C18.7145 115.736 18.627 115.469 18.627 115.202C18.8022 113.064 19.1528 111.015 19.5909 108.967C19.8538 107.987 20.0289 106.918 20.2917 105.938L20.6421 104.424C20.8174 103.89 21.0806 103.444 21.8692 103.177C22.4826 102.821 22.9207 102.999 23.1836 103.355Z" fill="black"/>
<path d="M47.1926 75.388C47.6307 76.1006 47.5431 76.6349 47.2803 76.9912L46.6667 78.1491C46.2286 78.9508 45.7904 79.6633 45.2646 80.3759C44.3008 81.801 43.3368 83.226 42.1101 84.5621C41.8472 84.8293 41.4967 84.8293 41.2338 84.5621C41.0586 84.3839 40.9712 84.1168 41.0588 83.9386C41.5846 82.2463 42.1977 80.554 42.9863 78.9508C43.3368 78.1492 43.7752 77.3475 44.1257 76.5458L44.7388 75.388C44.9141 75.0317 45.2646 74.6754 46.1409 74.6754C46.579 74.6754 47.0173 74.9427 47.1926 75.388Z" fill="black"/>
<path d="M34.5749 98.0114C35.1883 98.6349 35.188 99.1693 35.1003 99.6147L34.7499 101.04C34.4871 102.02 34.2243 102.91 33.9614 103.89C33.348 105.76 32.7347 107.631 31.8585 109.501C31.6832 109.858 31.3327 109.947 30.9822 109.769C30.7194 109.68 30.6318 109.412 30.6318 109.145C30.7195 107.096 30.9821 105.137 31.245 103.177C31.4202 102.198 31.5956 101.218 31.8585 100.238L32.2089 98.813C32.2965 98.3677 32.5593 97.9223 33.4356 97.566C33.7861 97.566 34.3121 97.6551 34.5749 98.0114Z" fill="black"/>
<path d="M12.3181 119.032C13.1067 119.744 13.2821 120.546 13.2821 121.258L13.3698 123.485C13.4574 124.999 13.4575 126.513 13.4575 127.939C13.4575 130.967 13.3699 133.906 13.1071 136.935C13.1071 137.291 12.7563 137.558 12.4058 137.469C12.1429 137.469 11.88 137.202 11.88 136.935C11.3542 133.906 11.0039 130.967 10.741 127.939C10.6534 126.424 10.4783 124.91 10.4783 123.396L10.3906 121.169C10.3906 120.457 10.4782 119.655 11.1792 118.943C11.442 118.675 11.9676 118.675 12.3181 119.032Z" fill="black"/>
<path d="M27.6519 131.858C28.3529 132.659 28.4409 133.461 28.4409 134.262L28.3532 136.578C28.2655 138.182 28.1777 139.696 28.09 141.299C27.8272 144.416 27.5646 147.534 27.0388 150.651C26.9512 151.008 26.688 151.186 26.3376 151.186C26.0747 151.097 25.8121 150.918 25.8121 150.651C25.5493 147.534 25.4616 144.416 25.374 141.21C25.374 139.607 25.3737 138.092 25.4613 136.489L25.549 134.173C25.549 133.372 25.7243 132.659 26.513 131.858C26.6882 131.412 27.2138 131.412 27.6519 131.858C27.5643 131.769 27.5643 131.769 27.6519 131.858Z" fill="black"/>
<path d="M46.404 110.837C47.0174 111.639 47.0171 112.352 46.9294 112.975L46.579 114.934C46.3162 116.271 46.0534 117.607 45.7905 118.943C45.1771 121.615 44.5638 124.198 43.6876 126.781C43.6 127.137 43.2496 127.315 42.8991 127.137C42.6362 127.048 42.4609 126.781 42.4609 126.513C42.5486 123.752 42.8112 121.08 43.0741 118.408C43.2493 117.072 43.4247 115.736 43.6876 114.4L44.038 112.441C44.1256 111.817 44.3884 111.105 45.2647 110.57C45.6152 110.392 46.1412 110.481 46.404 110.837Z" fill="black"/>
<path d="M47.0177 98.1896C46.5795 97.388 46.6671 96.8536 46.93 96.3192L47.7189 94.8049C48.2447 93.8252 48.7702 92.8455 49.296 91.8657C50.4351 89.9062 51.4867 87.9467 52.8887 86.1653C53.0639 85.8981 53.502 85.8089 53.7649 85.9871C53.9402 86.1652 54.0276 86.4325 54.0276 86.6997C53.4143 88.9264 52.6256 90.975 51.837 93.0236C51.3989 94.0033 50.9608 95.0722 50.5226 96.0519L49.8218 97.5661C49.5589 98.1005 49.2083 98.4568 48.332 98.724C47.631 98.8131 47.1929 98.5459 47.0177 98.1896Z" fill="black"/>
<path d="M59.2847 117.874C59.0218 116.805 59.197 115.914 59.6351 115.024L60.7745 112.53C61.4754 110.926 62.3514 109.323 63.1401 107.631C64.7173 104.424 66.3824 101.218 68.2225 98.1006C68.3978 97.8334 68.7483 97.7442 69.0988 97.9224C69.3617 98.1005 69.4491 98.3678 69.3615 98.635C68.2224 102.109 66.9082 105.404 65.5938 108.789C64.8928 110.481 64.1919 112.084 63.4909 113.777L62.4392 116.271C62.0887 117.072 61.5628 117.874 60.5113 118.408C60.1608 118.586 59.6353 118.408 59.4601 118.052C59.2848 117.963 59.2847 117.874 59.2847 117.874Z" fill="black"/>
<path d="M49.9095 155.461C49.3837 154.659 49.4711 154.036 49.6463 153.501L50.2599 151.809C50.698 150.651 51.1361 149.583 51.5742 148.425C52.5381 146.198 53.4143 143.971 54.6411 141.833C54.8163 141.566 55.1668 141.388 55.5173 141.566C55.7802 141.655 55.8677 141.923 55.8677 142.19C55.5172 144.595 54.904 146.91 54.203 149.226C53.8525 150.384 53.5018 151.542 53.1513 152.7L52.6255 154.392C52.4502 154.927 52.1001 155.461 51.2238 155.817C50.6104 156.084 50.1723 155.906 49.9095 155.461Z" fill="black"/>
<path d="M34.0494 166.506C33.6113 165.704 33.7865 165.17 33.9617 164.724L34.6625 163.388C35.1007 162.498 35.7143 161.607 36.24 160.805C37.2915 159.113 38.4307 157.421 39.745 155.817C40.0079 155.55 40.3584 155.55 40.6213 155.728C40.7965 155.906 40.8839 156.174 40.7963 156.441C40.1829 158.4 39.3943 160.271 38.6056 162.141C38.1675 163.032 37.7294 163.923 37.2913 164.813L36.5905 166.149C36.3276 166.595 35.9769 166.951 35.1007 167.04C34.6625 167.129 34.2247 166.951 34.0494 166.506Z" fill="black"/>
<path d="M21.6068 176.392C20.8181 176.036 20.5554 175.591 20.4678 175.145L20.2047 173.72C20.0294 172.74 19.8545 171.85 19.6793 170.87C19.4164 168.91 19.2408 167.04 19.3284 164.991C19.3284 164.635 19.6792 164.368 20.0297 164.368C20.2926 164.368 20.4679 164.546 20.5555 164.813C21.2565 166.595 21.7819 168.465 22.3953 170.335C22.6582 171.226 22.9213 172.206 23.0965 173.097L23.447 174.522C23.5346 174.967 23.5345 175.502 22.9211 176.125C22.483 176.481 21.9573 176.57 21.6068 176.392Z" fill="black"/>
<path d="M24.673 194.117C24.4101 193.315 24.5855 192.87 24.8484 192.514L25.7246 191.534C26.338 190.821 26.9515 190.198 27.5648 189.574C28.7916 188.327 30.1056 187.081 31.5952 186.012C31.8581 185.834 32.2962 185.833 32.4715 186.19C32.6467 186.368 32.6468 186.635 32.5592 186.902C31.6829 188.506 30.7191 190.02 29.58 191.445C29.0543 192.157 28.5286 192.87 27.9152 193.583L27.039 194.651C26.7761 195.008 26.3377 195.275 25.4615 195.097C25.1986 194.829 24.8482 194.562 24.673 194.117Z" fill="black"/>
<path d="M43.7752 193.85C44.2133 192.959 44.8267 192.603 45.5277 192.336L47.5428 191.712C48.8572 191.267 50.2593 190.911 51.5737 190.465C54.29 189.753 57.0941 189.129 59.9857 188.862C60.3362 188.862 60.5989 189.04 60.6865 189.396C60.6865 189.664 60.5114 189.931 60.3361 190.02C57.7074 191.089 55.0786 192.069 52.4499 193.048C51.1355 193.494 49.8212 194.028 48.5068 194.473L46.4912 195.186C45.7902 195.453 45.0895 195.542 44.2133 195.008C43.7752 194.83 43.5999 194.295 43.7752 193.85Z" fill="black"/>
<path d="M47.368 179.064C47.4557 178.263 47.8062 177.906 48.2443 177.728L49.4714 177.194C50.26 176.838 51.0483 176.57 51.837 176.214C53.4142 175.591 55.0792 174.967 56.744 174.522C57.0945 174.433 57.4449 174.611 57.5326 174.967C57.6202 175.234 57.5328 175.413 57.3576 175.591C56.0432 176.838 54.5536 177.817 52.9763 178.708C52.1877 179.154 51.3989 179.599 50.6103 179.955L49.3837 180.49C48.9455 180.668 48.5072 180.668 47.8062 180.222C47.4557 179.955 47.2804 179.51 47.368 179.064Z" fill="black"/>
<path d="M58.9486 164.756C58.8071 163.77 59.1759 163.249 59.629 162.819L60.9039 161.438C61.7257 160.487 62.6288 159.717 63.5382 158.769C65.3508 157.051 67.1634 155.333 69.0605 153.707C69.3324 153.449 69.7672 153.554 69.9362 153.738C70.1053 153.922 70.0931 154.278 69.9994 154.453C68.697 156.635 67.1377 158.629 65.5817 160.535C64.7599 161.486 63.9384 162.437 63.1166 163.389L61.8418 164.769C61.3886 165.199 60.8508 165.536 59.8875 165.502C59.359 165.572 59.0209 165.204 58.9486 164.756Z" fill="black"/>
<path d="M69.5372 130.7C69.362 129.72 69.6249 129.097 69.9753 128.473L71.202 126.781C71.9906 125.623 72.8667 124.554 73.6553 123.485C75.3202 121.348 76.9853 119.21 78.7378 117.072C79.0007 116.805 79.3512 116.805 79.614 116.983C79.7893 117.161 79.8767 117.429 79.789 117.696C78.6499 120.279 77.3355 122.684 75.8459 124.999C75.1449 126.157 74.3567 127.315 73.568 128.473L72.4287 130.165C72.0782 130.7 71.5527 131.234 70.5012 131.323C70.0631 131.501 69.6248 131.145 69.5372 130.7Z" fill="black"/>
<path d="M89.7789 121.526C89.3408 120.813 89.4282 120.457 89.6035 120.19L90.1293 119.299C90.4798 118.676 90.9178 118.052 91.356 117.518C92.2322 116.36 93.1086 115.202 94.1601 114.133C94.423 113.866 94.8611 113.866 95.0364 114.133C95.2116 114.311 95.2113 114.489 95.2113 114.757C94.8609 116.182 94.2477 117.518 93.6343 118.854C93.2838 119.477 93.0208 120.19 92.6703 120.813L92.1445 121.793C91.9692 122.06 91.6187 122.327 90.8301 122.238C90.392 122.149 90.0418 121.882 89.7789 121.526Z" fill="black"/>
<path d="M79.5262 154.125C79.7014 152.967 80.2273 152.165 80.9283 151.542L82.9435 149.582L86.8866 145.663C89.6029 143.08 92.2318 140.408 94.9482 137.914C95.2111 137.647 95.5616 137.736 95.8244 137.914C95.9997 138.093 95.9998 138.449 95.9121 138.716C93.7215 141.833 91.3556 144.773 88.8145 147.534C87.5001 148.959 86.2734 150.295 84.9591 151.631L82.9435 153.68C82.2425 154.303 81.5415 154.927 80.3147 155.016C79.8766 155.105 79.5261 154.748 79.4385 154.303C79.5261 154.303 79.5262 154.214 79.5262 154.125Z" fill="black"/>
<path d="M69.6244 179.153C69.9749 178.263 70.5004 177.817 71.1138 177.639L72.8663 176.927L76.459 175.413C78.8248 174.433 81.2782 173.453 83.7316 172.562C84.0821 172.473 84.433 172.651 84.5206 172.919C84.6082 173.186 84.5204 173.453 84.3452 173.631C82.2422 175.234 79.9638 176.57 77.5979 177.817C76.4588 178.441 75.2324 179.064 74.0057 179.51L72.1655 180.311C71.5521 180.579 70.8511 180.668 69.9748 180.222C69.6243 180.133 69.4492 179.688 69.6244 179.153Z" fill="black"/>
<path d="M81.3662 190.911C81.7167 189.842 82.4177 189.396 83.1187 189.04L85.3093 187.971C86.7989 187.259 88.2886 186.635 89.7783 185.923C92.8451 184.676 95.9116 183.518 99.0661 182.716C99.4166 182.627 99.7674 182.805 99.8551 183.162C99.9427 183.429 99.7671 183.696 99.5042 183.874C96.6126 185.477 93.7212 186.902 90.9172 188.417L86.6237 190.643L84.4331 191.712C83.7321 192.068 82.9435 192.336 81.892 192.068C81.4539 191.979 81.1909 191.534 81.2785 191.089C81.3661 191 81.3662 190.911 81.3662 190.911Z" fill="black"/>
<path d="M93.196 164.279C93.5465 163.21 94.2475 162.587 95.0362 162.141L101.871 157.866C104.938 155.996 108.004 154.125 111.071 152.166C111.334 151.987 111.772 152.076 111.948 152.344C112.123 152.611 112.035 152.878 111.86 153.145C109.231 155.728 106.339 158.044 103.448 160.093C101.958 161.162 100.469 162.141 98.8915 163.121L96.6132 164.546C95.8246 164.992 95.0358 165.348 93.8091 165.259C93.371 165.17 93.0206 164.813 93.1082 164.368C93.1959 164.368 93.196 164.368 93.196 164.279Z" fill="black"/>
<path d="M127.983 170.692C128.158 169.623 128.684 169 129.297 168.554L131.225 167.129C132.452 166.239 133.766 165.348 135.08 164.457C137.709 162.765 140.426 161.162 143.23 159.825C143.58 159.647 143.931 159.826 144.106 160.093C144.194 160.36 144.193 160.627 143.93 160.805C141.565 162.854 139.111 164.724 136.658 166.595L131.137 170.87C130.524 171.315 129.823 171.672 128.772 171.583C128.246 171.583 127.895 171.137 127.983 170.692Z" fill="black"/>
<path d="M157.249 149.137C157.074 148.247 157.424 147.801 157.774 147.356L158.914 146.287C159.702 145.574 160.491 144.862 161.192 144.149C162.769 142.724 164.346 141.299 166.011 139.963C166.274 139.785 166.712 139.785 166.887 140.052C167.063 140.23 167.062 140.587 166.975 140.765C165.923 142.635 164.609 144.417 163.207 146.02C162.506 146.821 161.805 147.623 161.016 148.425L159.878 149.583C159.527 149.939 159.001 150.206 158.125 150.117C157.599 149.939 157.249 149.583 157.249 149.137Z" fill="black"/>
<path d="M160.228 130.076C159.965 129.186 160.228 128.651 160.578 128.117L163.733 123.842C165.135 121.971 166.537 120.012 168.202 118.23C168.465 117.963 168.815 117.963 169.078 118.23C169.253 118.408 169.341 118.676 169.253 118.943C168.289 121.17 167.15 123.218 166.011 125.356C165.398 126.425 164.784 127.404 164.083 128.384L163.032 129.898C162.681 130.433 162.155 130.789 161.279 130.878C160.753 130.878 160.316 130.522 160.228 130.076Z" fill="black"/>
<path d="M134.116 149.671C134.204 148.692 134.642 148.068 135.168 147.623L136.833 146.287C137.884 145.396 139.024 144.505 140.163 143.704C142.353 142.012 144.544 140.23 146.822 138.538C147.085 138.36 147.523 138.36 147.698 138.627C147.873 138.894 147.873 139.161 147.698 139.339C146.033 141.655 144.018 143.704 141.915 145.663C140.864 146.643 139.812 147.623 138.761 148.514L137.096 149.85C136.57 150.295 135.869 150.651 134.905 150.473C134.467 150.562 134.116 150.117 134.116 149.671Z" fill="black"/>
<path d="M105.902 142.368C105.814 141.388 106.077 140.765 106.515 140.23L107.829 138.627C108.705 137.558 109.669 136.489 110.545 135.51C112.386 133.461 114.314 131.412 116.417 129.542C116.679 129.275 117.03 129.364 117.293 129.542C117.468 129.72 117.468 130.076 117.38 130.254C115.978 132.659 114.313 134.975 112.648 137.202C111.772 138.271 110.984 139.429 110.107 140.497L108.793 142.101C108.355 142.635 107.829 143.08 106.778 143.169C106.427 143.259 105.989 142.902 105.902 142.368Z" fill="black"/>
<path d="M126.756 137.024C126.843 135.866 127.282 135.153 127.895 134.619L129.648 132.748L133.153 129.096C135.519 126.692 137.709 124.198 140.075 121.793C140.338 121.526 140.688 121.526 140.951 121.793C141.126 121.971 141.214 122.327 141.039 122.594C139.374 125.623 137.271 128.295 135.168 130.967C134.029 132.303 132.977 133.55 131.838 134.797L130.086 136.667C129.472 137.291 128.771 137.825 127.72 137.914C127.282 138.003 126.844 137.647 126.844 137.202C126.756 137.113 126.756 137.113 126.756 137.024Z" fill="black"/>
<path d="M105.025 172.384C105.2 171.404 105.726 170.959 106.252 170.692L107.917 169.801C109.056 169.178 110.195 168.732 111.334 168.198C113.612 167.218 115.978 166.238 118.344 165.437C118.694 165.348 119.045 165.526 119.133 165.793C119.22 166.06 119.133 166.328 118.957 166.506C116.942 168.02 114.752 169.356 112.561 170.603C111.422 171.226 110.37 171.85 109.319 172.384L107.654 173.275C107.128 173.542 106.514 173.72 105.638 173.453C105.2 173.275 104.937 172.83 105.025 172.384Z" fill="black"/>
</svg>
