<svg width="191" height="392" viewBox="0 0 191 392" fill="none" xmlns="http://www.w3.org/2000/svg">
<path d="M72.3263 170.55C70.4263 172.65 68.9263 175.15 67.6263 177.75C66.3263 180.35 65.3263 183.05 64.3263 185.85C63.3263 188.55 62.4263 191.35 61.6263 194.25C60.8263 197.05 60.0263 199.95 59.3263 202.75C57.9263 208.45 56.7262 214.25 55.5262 220.05C54.3262 225.85 53.4263 231.65 52.1263 237.55L49.9263 246.15C49.2263 249.05 48.6262 251.85 48.0262 254.75C47.5262 257.65 47.0262 260.55 46.5262 263.45L45.9263 267.85C45.7263 269.35 45.5263 270.75 45.4263 272.25C45.2263 275.15 44.9263 278.05 44.8263 281.05C44.8263 282.55 44.7263 283.95 44.7263 285.45L44.8263 289.85C44.8263 290.55 44.8263 291.35 44.9263 292.05L45.1263 294.25C45.2263 295.75 45.3263 297.15 45.4263 298.65C45.8263 301.55 46.1263 304.45 46.7263 307.35L47.1263 309.45L47.3263 310.55L47.6263 311.65L48.7263 315.85C49.1263 317.25 49.6263 318.65 50.1263 319.95C50.3263 320.65 50.5263 321.35 50.8263 322.05L51.6263 324.05C52.6263 326.75 54.0263 329.35 55.3263 331.95L57.6263 335.65L58.8263 337.45L61.4263 341.05L64.2263 344.45L64.9263 345.25L65.7263 346.05L68.7263 349.15L72.0262 352.05C76.5262 355.75 81.3262 359.15 86.5262 361.85C87.8262 362.55 89.1263 363.15 90.4263 363.85L92.4263 364.85C93.1263 365.15 93.7263 365.45 94.4263 365.75L98.5262 367.45L102.726 368.95C103.426 369.15 104.126 369.45 104.826 369.65L106.926 370.25C108.326 370.65 109.726 371.05 111.126 371.45L115.426 372.45L117.526 372.95L119.726 373.35C131.326 375.55 143.126 376.55 154.926 376.65C155.226 376.65 155.526 376.95 155.526 377.25C155.526 377.55 155.226 377.85 154.926 377.85C143.026 377.95 131.126 377.05 119.426 374.95L117.226 374.55L110.626 373.05C109.226 372.65 107.726 372.25 106.326 371.85L104.126 371.25C103.426 371.05 102.726 370.75 102.026 370.55L97.8263 369.15L93.6263 367.45C92.9263 367.15 92.2262 366.95 91.5262 366.55L89.5262 365.55C88.2262 364.85 86.8262 364.35 85.5262 363.55C80.2262 360.75 75.2263 357.35 70.6263 353.55L67.2263 350.55L63.2263 346.55L62.5262 345.65L59.5262 342.25L56.9263 338.65L56.2263 337.75L55.6263 336.75L53.2263 332.95C51.8263 330.25 50.4263 327.65 49.3263 324.85L48.4263 322.75C48.1263 322.05 47.9263 321.35 47.6263 320.65C47.1263 319.25 46.6263 317.85 46.2263 316.35L45.0262 312.05L44.7263 310.95L44.1263 307.65C43.4263 304.75 43.1263 301.75 42.7263 298.75C42.5263 297.25 42.5263 295.75 42.3263 294.25L42.1263 292.05C42.0263 291.35 42.1262 290.55 42.0262 289.85L41.9263 285.35C41.9263 283.85 42.0262 282.35 42.0262 280.85C42.0262 277.85 42.3263 274.85 42.6263 271.95C42.7263 270.45 42.9263 268.95 43.1263 267.55L43.7263 263.15C44.2263 260.25 44.7263 257.25 45.2263 254.35C45.8263 251.45 46.4263 248.55 47.1263 245.65L49.3263 237.05C50.5263 231.35 51.5263 225.45 52.6263 219.65C53.7263 213.85 54.9263 208.05 56.4263 202.25C57.8263 196.45 59.5263 190.75 61.8263 185.15C62.9263 182.35 64.2263 179.65 65.7263 177.05C67.3263 174.45 69.0263 171.95 71.4263 169.95C71.7263 169.75 72.1263 169.75 72.3263 170.05C72.6263 169.95 72.6263 170.35 72.3263 170.55Z" fill="black"/>
<path d="M93.9263 167.15C94.0263 168.25 94.6263 169.25 95.3263 170.15C96.1263 171.05 97.0262 171.85 98.0262 172.55C100.026 173.95 102.326 175.15 104.526 176.35C106.826 177.45 109.126 178.55 111.526 179.75C112.726 180.35 113.826 180.95 115.026 181.55C115.326 181.75 115.626 181.95 115.926 182.05L116.726 182.65L118.326 183.75C126.726 189.75 135.526 195.25 143.926 201.35C148.126 204.45 152.326 207.55 156.226 211.05C160.126 214.55 163.926 218.25 167.326 222.15C170.726 226.15 173.826 230.45 176.526 234.95C179.126 239.55 181.426 244.25 183.226 249.25C186.826 259.15 188.726 269.55 189.326 279.95C189.926 290.35 189.426 300.85 188.226 311.15C188.126 312.45 187.926 313.75 187.726 315.05L187.126 318.95C186.726 321.55 186.226 324.05 185.726 326.65C185.126 329.15 184.626 331.75 184.026 334.25L183.126 338.05C182.826 339.35 182.326 340.55 181.926 341.85C180.226 346.75 178.426 351.65 176.526 356.45C175.626 358.85 174.626 361.25 173.726 363.75C173.226 364.95 172.726 366.15 172.226 367.35C171.926 367.95 171.726 368.55 171.426 369.15C171.326 369.45 171.126 369.75 170.926 370.05C170.826 370.25 170.726 370.35 170.626 370.55C170.526 370.65 170.526 370.75 170.426 370.85C170.426 370.95 170.326 370.95 170.226 371.05L170.126 371.15C170.026 371.25 169.826 371.25 169.726 371.25C169.426 371.25 169.126 370.95 169.126 370.65C169.126 370.35 169.426 370.05 169.726 370.05C169.626 370.05 169.526 370.05 169.426 370.15L169.526 370.05C169.626 369.95 169.626 369.85 169.726 369.65C169.826 369.35 170.026 369.05 170.126 368.85C170.426 368.25 170.626 367.65 170.926 367.05C171.426 365.85 171.926 364.65 172.326 363.45C173.226 361.05 174.126 358.65 175.026 356.15C176.826 351.25 178.526 346.35 180.126 341.45C180.526 340.25 181.026 339.05 181.226 337.85L182.126 334.05C182.726 331.55 183.126 328.95 183.726 326.45C184.226 323.95 184.626 321.35 185.026 318.85C185.326 316.25 185.826 313.75 186.026 311.15C187.226 300.95 187.626 290.55 186.926 280.35C186.226 270.15 184.226 259.95 180.626 250.35C178.926 245.55 176.626 240.95 174.126 236.55C171.526 232.15 168.526 228.05 165.226 224.15C161.826 220.35 158.226 216.75 154.326 213.35C150.426 209.95 146.326 206.85 142.226 203.85C133.826 197.85 125.126 192.35 116.526 186.35L114.926 185.25L114.126 184.75C113.926 184.55 113.626 184.45 113.326 184.25C112.226 183.65 111.126 183.05 110.026 182.45C107.726 181.25 105.426 180.15 103.126 178.85C100.826 177.55 98.6262 176.15 96.5262 174.35C95.5262 173.45 94.5263 172.45 93.7263 171.35C93.3263 170.75 93.0263 170.15 92.7263 169.45C92.5263 168.75 92.4263 168.05 92.4263 167.25C92.4263 166.95 92.7262 166.65 93.0262 166.65C93.6262 166.55 93.8263 166.75 93.9263 167.15Z" fill="black"/>
<path d="M92.6261 166.95C92.3261 165.65 91.6261 164.45 91.1261 163.15C90.5261 161.85 89.726 160.65 88.926 159.45C88.026 158.35 87.026 157.25 85.926 156.55C85.326 156.15 84.826 155.95 84.326 155.95C84.126 155.95 83.8261 155.95 83.6261 156.05C83.3261 156.15 83.026 156.35 82.726 156.55C80.126 157.85 77.726 159.65 75.926 161.85C75.026 162.95 74.2261 164.15 73.6261 165.55C73.0261 166.85 72.726 168.35 72.726 169.75C72.726 169.95 72.526 170.15 72.326 170.15C72.126 170.15 71.926 169.95 71.926 169.75C71.726 166.65 72.926 163.45 74.826 160.95C76.726 158.45 79.226 156.45 81.926 154.95C82.326 154.75 82.526 154.55 83.026 154.35C83.526 154.15 84.026 154.05 84.526 154.05C85.526 154.15 86.3261 154.45 87.1261 154.95C88.5261 155.85 89.6261 157.05 90.6261 158.25C91.6261 159.45 92.4261 160.85 93.1261 162.25C93.4261 162.95 93.726 163.75 93.926 164.55C94.026 165.35 94.126 166.25 93.726 167.15C93.626 167.35 93.3261 167.45 93.1261 167.35C92.8261 167.35 92.7261 167.25 92.6261 166.95Z" fill="black"/>
<path d="M155.526 376.95C155.826 377.15 155.926 377.25 156.126 377.45L156.626 377.85L159.326 380.55C160.526 381.75 161.726 382.95 163.026 384.05C164.226 385.25 165.526 386.35 166.826 387.35C167.526 387.85 168.126 388.35 168.826 388.75C169.126 388.95 169.526 389.05 169.826 389.25C170.026 389.35 170.126 389.35 170.326 389.35C170.426 389.35 170.626 389.35 170.626 389.35C170.826 389.35 170.826 389.35 170.926 389.05C170.926 388.95 170.926 388.95 171.026 388.85V388.65C171.026 388.55 171.126 388.35 171.126 388.15C171.126 387.85 171.126 387.35 171.126 386.95V385.65C171.126 383.95 171.026 382.35 170.826 380.65C170.626 378.95 170.326 377.35 170.026 375.75C169.726 374.15 169.426 372.45 169.426 370.75C169.426 370.55 169.626 370.35 169.826 370.35C170.026 370.35 170.126 370.45 170.226 370.55C171.126 372.05 171.626 373.75 172.026 375.45C172.326 377.15 172.626 378.85 172.826 380.55C173.026 382.25 173.126 384.05 173.126 385.75V387.05C173.126 387.45 173.126 387.85 173.126 388.35C173.126 388.55 173.126 388.85 173.026 389.15C173.026 389.25 172.926 389.45 172.926 389.55L172.726 389.95C172.626 390.25 172.326 390.55 172.126 390.75C171.826 390.95 171.426 391.15 171.126 391.15C170.726 391.25 170.526 391.15 170.226 391.15C169.926 391.05 169.726 391.05 169.426 390.95C168.926 390.75 168.526 390.55 168.126 390.35C167.326 389.85 166.626 389.35 165.926 388.75C164.626 387.65 163.326 386.45 162.126 385.25C160.926 384.05 159.726 382.75 158.626 381.45L156.926 379.55L156.126 378.65L155.726 378.15C155.626 378.05 155.426 377.85 155.326 377.75L155.226 377.65C155.026 377.45 155.026 377.25 155.226 377.05C155.126 376.95 155.326 376.85 155.526 376.95Z" fill="black"/>
<path d="M164.726 386.95C164.526 386.95 164.226 386.85 164.126 386.65C164.026 386.55 163.926 386.35 163.926 386.15C163.926 386.05 163.926 386.05 163.926 386.05V385.95C163.926 385.95 163.926 385.85 163.926 385.75C163.926 385.65 163.926 385.45 163.926 385.45C163.926 385.25 163.926 385.15 163.926 385.05C164.026 384.85 164.126 384.65 164.226 384.55C164.526 384.25 164.826 384.05 165.126 383.85C165.726 383.35 166.326 383.05 166.926 382.65C167.526 382.35 168.226 382.05 169.026 381.75C169.726 381.55 170.526 381.35 171.426 381.55C171.726 381.65 172.026 381.95 171.926 382.35C171.926 382.55 171.726 382.75 171.626 382.75L171.526 382.85C171.026 383.05 170.526 383.45 170.026 383.75C169.526 384.15 169.026 384.45 168.526 384.95C168.026 385.35 167.526 385.75 167.026 386.15C166.826 386.35 166.526 386.55 166.326 386.75C166.226 386.85 166.126 386.95 165.926 386.95C165.826 386.95 165.726 386.95 165.626 386.85C165.526 386.85 165.526 386.75 165.426 386.75V386.65C165.426 386.65 165.426 386.65 165.426 386.55C165.426 386.35 165.326 386.15 165.226 386.05C165.126 385.85 164.826 385.75 164.726 385.85C165.026 385.85 165.326 386.15 165.326 386.45C165.326 386.75 165.026 386.95 164.726 386.95Z" fill="black"/>
<path d="M74.426 162.95L74.226 163.05H74.126C74.226 163.05 73.926 163.05 74.426 163.05C74.826 159.75 74.526 162.15 74.626 161.35C74.726 161.35 74.826 161.25 74.926 161.25C75.126 161.15 75.3259 161.15 75.5259 161.15C75.9259 161.15 76.226 161.15 76.626 161.25L78.726 161.85C79.426 162.05 80.126 162.25 80.826 162.45L81.326 162.65L81.626 162.75C81.726 162.75 81.726 162.75 81.826 162.75C82.026 162.85 82.3259 162.85 82.5259 162.85C83.6259 162.85 85.026 162.55 86.326 162.15C87.626 161.75 89.026 161.25 90.326 160.85C90.626 160.75 91.026 160.95 91.126 161.25C91.226 161.55 91.126 161.85 90.926 161.95C89.726 162.85 88.426 163.55 87.126 164.25C85.726 164.85 84.326 165.45 82.626 165.65C82.226 165.65 81.726 165.65 81.226 165.55L80.826 165.45L80.5259 165.35L80.0259 165.25C79.3259 165.05 78.626 164.95 77.926 164.75L75.826 164.25C75.426 164.15 75.126 164.05 74.826 163.85C74.626 163.75 74.526 163.65 74.326 163.45L74.126 163.15C74.226 162.45 73.826 164.75 74.326 161.45C74.826 161.45 74.426 161.45 74.626 161.45L74.726 161.55L74.826 161.75C74.926 162.15 74.826 162.65 74.426 162.95Z" fill="black"/>
<path d="M85.7264 176.15C85.8264 176.25 86.0264 176.25 86.2264 176.15C86.3264 176.05 86.4264 176.05 86.5264 175.95L86.6265 175.85C86.6265 175.85 86.6264 175.85 86.7264 175.75C86.8264 175.65 86.8264 175.75 86.9264 175.65C87.0264 175.65 87.1264 175.75 87.2264 175.75C87.4264 175.85 87.4264 175.95 87.5264 176.15L87.7264 177.15C87.9264 177.85 88.0264 178.55 88.2264 179.25C88.4264 180.65 88.7265 182.05 88.6265 183.65C88.6265 184.05 88.3264 184.25 87.9264 184.25C87.7264 184.25 87.5264 184.15 87.4264 183.95C86.7264 182.75 86.1265 181.45 85.6265 180.05C85.4265 179.35 85.1264 178.75 84.9264 178.05L84.6265 176.95C84.6265 176.75 84.5265 176.55 84.6265 176.35C84.6265 176.25 84.7264 176.05 84.8264 175.95C84.9264 175.85 84.9264 175.75 85.0264 175.65C85.0264 175.65 85.0265 175.55 85.1265 175.55V175.45C85.1265 175.35 85.2264 175.35 85.2264 175.25C85.3264 175.15 85.4264 175.05 85.5264 175.05C85.7264 174.95 85.9264 174.95 86.0264 175.05C86.3264 175.15 86.5264 175.45 86.5264 175.85C86.4264 176.05 86.1264 176.25 85.7264 176.15Z" fill="black"/>
<path d="M73.9865 184.034C74.6865 184.634 74.6867 185.234 74.6867 185.734L74.4865 187.334C74.3865 188.334 74.1865 189.434 73.9865 190.434C73.5865 192.534 73.1865 194.534 72.4865 196.634C72.3865 196.934 71.9867 197.134 71.6867 197.034C71.3867 196.934 71.2864 196.734 71.2864 196.434C71.1864 194.334 71.1865 192.134 71.3865 190.034C71.4865 188.934 71.5867 187.934 71.6867 186.834L71.8865 185.234C71.9865 184.734 72.1865 184.234 72.9865 183.834C73.1865 183.634 73.6865 183.734 73.9865 184.034Z" fill="black"/>
<path d="M82.3863 193.635C83.1863 194.135 83.3864 194.635 83.4864 195.235L83.6866 196.934C83.8866 198.034 83.9865 199.134 84.0865 200.334C84.2865 202.634 84.4863 204.835 84.3863 207.135C84.3863 207.435 84.0866 207.735 83.6866 207.735C83.3866 207.735 83.1865 207.534 83.0865 207.334C82.3865 205.134 81.7863 202.935 81.3863 200.735C81.1863 199.635 80.9862 198.534 80.7862 197.334L80.4864 195.635C80.3864 195.035 80.4865 194.534 81.0865 193.834C81.4865 193.434 81.9863 193.335 82.3863 193.635Z" fill="black"/>
<path d="M98.8864 183.234C99.6864 183.034 100.086 183.234 100.386 183.534L101.187 184.434C101.787 185.034 102.286 185.634 102.786 186.234C103.786 187.534 104.787 188.834 105.587 190.234C105.787 190.534 105.686 190.934 105.286 191.134C105.086 191.234 104.787 191.234 104.587 191.134C103.187 190.234 101.986 189.234 100.786 188.134C100.186 187.534 99.5866 187.034 99.0866 186.434L98.2863 185.534C97.9863 185.234 97.8866 184.834 98.0866 184.034C98.1866 183.634 98.4864 183.334 98.8864 183.234Z" fill="black"/>
<path d="M95.5863 196.434C96.5863 196.534 96.9861 197.034 97.3861 197.534L98.4862 199.234C99.1862 200.334 99.8863 201.434 100.586 202.534C101.886 204.834 103.186 207.034 104.286 209.434C104.386 209.734 104.286 210.134 103.986 210.234C103.686 210.334 103.486 210.235 103.286 210.135C101.486 208.235 99.9861 206.134 98.3861 204.034C97.6861 202.934 96.8864 201.934 96.1864 200.834L95.0863 199.234C94.6863 198.734 94.486 198.035 94.786 197.135C94.686 196.635 95.1863 196.334 95.5863 196.434Z" fill="black"/>
<path d="M71.9863 208.934C72.6863 209.534 72.7861 210.135 72.7861 210.735L72.6865 212.434C72.5865 213.534 72.4862 214.634 72.3862 215.834C72.0862 218.034 71.7865 220.334 71.1865 222.534C71.0865 222.834 70.7862 223.034 70.3862 223.034C70.0862 222.934 69.9862 222.734 69.8862 222.534C69.5862 220.234 69.5864 217.935 69.5864 215.735C69.5864 214.635 69.5865 213.434 69.6865 212.334L69.7861 210.635C69.7861 210.035 69.9861 209.534 70.7861 209.034C71.0861 208.534 71.5863 208.634 71.9863 208.934Z" fill="black"/>
<path d="M60.7859 223.334C61.3859 224.034 61.486 224.734 61.386 225.334L61.0862 227.234C60.8862 228.534 60.6861 229.734 60.4861 231.034C59.9861 233.534 59.4863 236.034 58.6863 238.534C58.5863 238.834 58.186 239.034 57.886 238.934C57.586 238.834 57.4861 238.634 57.4861 238.334C57.3861 235.734 57.5859 233.134 57.7859 230.634C57.8859 229.334 57.9863 228.034 58.1863 226.834L58.386 224.934C58.486 224.334 58.6861 223.634 59.4861 223.134C59.8861 222.934 60.4859 223.034 60.7859 223.334Z" fill="black"/>
<path d="M71.8862 236.234C72.5862 237.034 72.6865 237.734 72.6865 238.434L72.5864 240.635C72.5864 242.035 72.3861 243.534 72.2861 244.934C72.0861 247.834 71.7861 250.735 71.2861 253.635C71.1861 253.935 70.8864 254.235 70.5864 254.135C70.2864 254.135 70.0864 253.834 70.0864 253.534C69.7864 250.634 69.6865 247.734 69.6865 244.834C69.6865 243.334 69.6865 241.934 69.6865 240.434V238.234C69.6865 237.534 69.8864 236.835 70.5864 236.135C70.9864 235.835 71.4862 235.834 71.8862 236.234Z" fill="black"/>
<path d="M84.8863 220.635C85.6863 221.135 85.8864 221.734 85.9864 222.234L86.1866 224.034C86.3866 225.234 86.4865 226.434 86.5865 227.534C86.7865 229.934 86.9863 232.235 86.8863 234.635C86.8863 234.935 86.5862 235.234 86.2862 235.234C85.9862 235.234 85.7866 235.034 85.6866 234.834C84.8866 232.534 84.3863 230.234 83.8863 227.934C83.6863 226.734 83.3862 225.634 83.2862 224.434L82.9864 222.635C82.8864 222.035 82.9865 221.434 83.5865 220.734C83.9865 220.434 84.4863 220.335 84.8863 220.635Z" fill="black"/>
<path d="M98.6867 225.635C99.5867 225.835 99.8866 226.334 100.087 226.834L100.687 228.434C101.087 229.434 101.386 230.534 101.786 231.534C102.486 233.634 103.087 235.834 103.487 238.034C103.587 238.334 103.287 238.734 102.987 238.734C102.687 238.734 102.486 238.634 102.286 238.434C101.086 236.534 100.186 234.534 99.2863 232.534C98.8863 231.534 98.3865 230.534 97.9865 229.434L97.3864 227.934C97.1864 227.434 97.0866 226.834 97.5866 226.034C97.7866 225.634 98.2867 225.435 98.6867 225.635Z" fill="black"/>
<path d="M115.686 225.034C116.686 225.134 117.186 225.635 117.486 226.135L118.586 227.734C119.286 228.834 119.986 229.934 120.786 231.034C122.186 233.334 123.486 235.634 124.586 238.034C124.686 238.334 124.586 238.734 124.286 238.834C123.986 238.934 123.786 238.835 123.586 238.635C121.886 236.635 120.286 234.534 118.586 232.534C117.786 231.434 116.986 230.434 116.286 229.334L115.186 227.734C114.786 227.234 114.586 226.535 114.786 225.635C114.686 225.335 115.186 225.034 115.686 225.034Z" fill="black"/>
<path d="M113.186 202.534C114.086 202.534 114.586 202.834 114.986 203.234L116.086 204.534C116.786 205.434 117.486 206.334 118.186 207.234C119.486 209.034 120.886 210.934 121.986 212.934C122.186 213.234 122.086 213.634 121.786 213.834C121.586 213.934 121.286 213.934 121.086 213.734C119.286 212.234 117.686 210.634 116.186 209.034C115.386 208.234 114.686 207.334 113.886 206.534L112.786 205.234C112.386 204.834 112.186 204.234 112.386 203.334C112.386 202.934 112.786 202.634 113.186 202.534Z" fill="black"/>
<path d="M124.187 196.934C125.087 196.734 125.686 197.034 126.086 197.434L127.386 198.634C128.286 199.434 129.186 200.234 129.986 201.034C131.686 202.734 133.386 204.434 134.786 206.334C134.986 206.634 134.887 207.034 134.687 207.234C134.487 207.434 134.186 207.434 133.986 207.234C131.986 205.934 130.186 204.534 128.286 203.034C127.386 202.334 126.386 201.634 125.486 200.834L124.086 199.734C123.586 199.334 123.286 198.834 123.286 197.934C123.386 197.434 123.687 197.034 124.187 196.934Z" fill="black"/>
<path d="M135.386 218.534C136.486 218.534 137.286 218.934 137.886 219.534L139.786 221.234C141.086 222.334 142.186 223.634 143.386 224.834C145.686 227.334 147.886 229.934 149.786 232.734C149.986 233.034 149.887 233.435 149.587 233.635C149.387 233.835 148.986 233.734 148.786 233.534C146.286 231.234 143.886 228.934 141.486 226.734C140.286 225.634 138.986 224.534 137.786 223.434L135.886 221.834C135.286 221.334 134.687 220.634 134.587 219.534C134.487 219.134 134.786 218.635 135.286 218.635C135.386 218.535 135.386 218.534 135.386 218.534Z" fill="black"/>
<path d="M154.486 221.534C155.386 221.634 155.886 222.034 156.186 222.434L157.186 223.934C157.886 224.934 158.486 225.934 159.086 226.934C160.286 229.034 161.386 231.134 162.286 233.334C162.386 233.634 162.286 234.035 161.886 234.135C161.586 234.235 161.387 234.134 161.187 233.934C159.587 232.134 158.186 230.234 156.786 228.434C156.086 227.434 155.386 226.535 154.786 225.635L153.786 224.234C153.486 223.734 153.286 223.234 153.486 222.334C153.586 221.834 154.086 221.534 154.486 221.534Z" fill="black"/>
<path d="M139.486 242.834C140.386 243.134 140.887 243.734 141.087 244.334L141.886 246.234C142.486 247.534 142.986 248.734 143.486 250.034C144.486 252.634 145.487 255.234 146.187 257.834C146.287 258.134 146.086 258.534 145.786 258.634C145.486 258.734 145.187 258.634 145.087 258.334C143.587 256.034 142.286 253.534 140.986 251.134C140.386 249.934 139.787 248.734 139.187 247.434L138.286 245.534C137.986 244.934 137.887 244.234 138.187 243.334C138.587 242.934 139.086 242.734 139.486 242.834Z" fill="black"/>
<path d="M114.886 247.534C115.786 247.734 116.086 248.235 116.286 248.735L116.886 250.235C117.286 251.235 117.586 252.235 117.886 253.235C118.486 255.235 119.086 257.334 119.486 259.434C119.586 259.734 119.286 260.135 118.986 260.135C118.686 260.135 118.486 260.034 118.386 259.834C117.286 258.034 116.286 256.135 115.386 254.135C114.986 253.135 114.487 252.235 114.187 251.235L113.587 249.735C113.387 249.235 113.386 248.734 113.786 247.934C113.986 247.634 114.386 247.434 114.886 247.534Z" fill="black"/>
<path d="M94.5862 249.135C95.3862 249.435 95.6859 249.935 95.7859 250.435L96.1863 251.935C96.4863 252.935 96.586 253.935 96.886 254.935C97.286 256.935 97.5863 258.934 97.6863 261.034C97.6863 261.334 97.4862 261.635 97.0862 261.735C96.7862 261.735 96.5861 261.635 96.4861 261.335C95.5861 259.435 94.8863 257.534 94.1863 255.534C93.8863 254.534 93.5859 253.534 93.2859 252.534L92.886 251.034C92.786 250.534 92.786 250.035 93.386 249.335C93.686 249.135 94.1862 249.035 94.5862 249.135Z" fill="black"/>
<path d="M80.2859 264.834C81.0859 265.534 81.3861 266.234 81.4861 267.034L81.886 269.434L82.6863 274.135C83.2863 277.235 83.886 280.434 84.386 283.534C84.486 283.834 84.186 284.234 83.886 284.234C83.586 284.234 83.2863 284.134 83.1863 283.834C81.8863 280.834 80.8862 277.735 80.0862 274.635C79.6862 273.035 79.2861 271.434 78.9861 269.834L78.5862 267.434C78.4862 266.634 78.4862 265.834 79.0862 264.934C79.2862 264.634 79.7859 264.534 80.2859 264.834Z" fill="black"/>
<path d="M58.1867 253.635C58.8867 254.235 58.9865 254.635 58.8865 255.135L58.6867 256.534C58.5867 257.434 58.3864 258.335 58.2864 259.235C57.9864 261.035 57.5865 262.835 56.8865 264.635C56.7865 264.935 56.3866 265.134 56.0866 265.034C55.8866 264.934 55.6867 264.734 55.6867 264.534C55.4867 262.634 55.4866 260.834 55.5866 258.934C55.6866 258.034 55.6864 257.035 55.7864 256.135L55.8865 254.735C55.8865 254.235 56.0865 253.834 56.8865 253.434C57.3865 253.334 57.7867 253.435 58.1867 253.635Z" fill="black"/>
<path d="M66.5864 274.934C67.2864 275.834 67.4863 276.734 67.4863 277.534V285.434C67.4863 288.934 67.4863 292.434 67.4863 296.034C67.4863 296.334 67.1862 296.634 66.8862 296.634C66.5862 296.634 66.3861 296.434 66.2861 296.134C65.4861 292.634 65.0861 289.134 64.7861 285.534C64.6861 283.734 64.5863 282.034 64.4863 280.234V277.534C64.4863 276.634 64.5862 275.734 65.3862 274.834C65.6862 274.534 66.1863 274.434 66.4863 274.734C66.4863 274.834 66.5864 274.934 66.5864 274.934Z" fill="black"/>
<path d="M53.9865 290.734C54.7865 291.134 54.9866 291.634 55.0866 292.234L55.2863 293.834C55.4863 294.934 55.5867 295.934 55.6867 297.034C55.8867 299.134 56.0867 301.234 56.1867 303.434C56.1867 303.834 55.8866 304.034 55.5866 304.134C55.2866 304.134 55.0865 303.934 54.9865 303.734C54.0865 301.734 53.5866 299.634 53.0866 297.534C52.8866 296.434 52.5865 295.434 52.4865 294.334L52.1867 292.734C52.0867 292.234 52.1863 291.634 52.7863 291.034C53.0863 290.534 53.5865 290.434 53.9865 290.734Z" fill="black"/>
<path d="M65.1865 318.834C66.1865 319.334 66.6864 320.034 67.0864 320.834L68.1865 323.134L70.2861 327.734L74.4863 337.034C74.5863 337.334 74.4865 337.734 74.1865 337.834C73.8865 337.934 73.5862 337.834 73.3862 337.634C71.2862 334.934 69.4861 331.934 67.7861 328.934C66.9861 327.434 66.1862 325.934 65.3862 324.334L64.2861 322.034C63.8861 321.234 63.6863 320.434 63.9863 319.334C64.0863 318.934 64.5863 318.634 64.9863 318.734C65.0863 318.834 65.0865 318.834 65.1865 318.834Z" fill="black"/>
<path d="M77.5864 293.734C78.4864 294.234 78.7862 294.934 78.8862 295.534L79.2861 297.534C79.5861 298.834 79.7864 300.234 80.0864 301.534C80.5864 304.234 80.9865 306.934 81.1865 309.734C81.1865 310.034 80.9864 310.334 80.5864 310.434C80.2864 310.434 80.0863 310.334 79.9863 310.034C78.9863 307.434 78.1863 304.834 77.4863 302.134C77.1863 300.834 76.7863 299.434 76.4863 298.134L75.9863 296.134C75.7863 295.434 75.7862 294.734 76.3862 293.934C76.6862 293.634 77.1864 293.534 77.5864 293.734Z" fill="black"/>
<path d="M93.8864 275.034C94.7864 275.534 95.1864 276.234 95.3864 276.934L95.9865 279.034C96.3865 280.434 96.7866 281.834 97.0866 283.234C97.7866 286.034 98.3864 288.934 98.8864 291.834C98.9864 292.134 98.6864 292.534 98.3864 292.534C98.0864 292.534 97.7867 292.434 97.6867 292.134C96.4867 289.434 95.4865 286.734 94.4865 283.934C93.9865 282.534 93.5866 281.134 93.0866 279.734L92.4865 277.634C92.2865 276.934 92.1867 276.234 92.6867 275.234C92.9867 274.934 93.4864 274.734 93.8864 275.034Z" fill="black"/>
<path d="M112.687 273.635C113.687 274.135 114.086 274.835 114.386 275.635L115.187 277.935C115.787 279.435 116.286 281.035 116.786 282.635C117.786 285.735 118.787 288.935 119.587 292.135C119.687 292.435 119.487 292.835 119.087 292.935C118.787 293.035 118.486 292.835 118.386 292.635C116.886 289.735 115.487 286.735 114.187 283.735C113.587 282.235 112.886 280.735 112.386 279.135L111.486 276.835C111.186 276.035 111.086 275.235 111.486 274.235C111.686 273.635 112.087 273.435 112.687 273.635C112.587 273.635 112.587 273.535 112.687 273.635Z" fill="black"/>
<path d="M137.087 269.935C137.987 270.235 138.387 270.735 138.587 271.235L139.286 272.935C139.686 274.035 140.086 275.135 140.486 276.335C141.286 278.635 141.986 280.935 142.486 283.235C142.586 283.535 142.386 283.935 141.986 283.935C141.686 284.035 141.486 283.835 141.286 283.635C139.986 281.535 138.986 279.435 137.886 277.235C137.386 276.135 136.886 275.035 136.486 273.935L135.786 272.335C135.586 271.735 135.486 271.135 135.886 270.335C136.186 269.935 136.687 269.835 137.087 269.935Z" fill="black"/>
<path d="M154.786 250.834C155.786 251.334 156.186 251.935 156.386 252.635L157.187 254.834C157.787 256.334 158.186 257.734 158.786 259.234C159.786 262.234 160.686 265.134 161.386 268.234C161.486 268.534 161.286 268.934 160.886 269.034C160.586 269.134 160.287 268.934 160.187 268.734C158.687 266.034 157.387 263.134 156.187 260.334C155.587 258.934 154.986 257.534 154.386 256.034L153.587 253.834C153.287 253.134 153.187 252.334 153.587 251.334C153.787 250.834 154.286 250.634 154.786 250.834Z" fill="black"/>
<path d="M173.986 258.034C174.886 258.834 175.286 259.734 175.486 260.734L176.086 263.634C176.486 265.634 176.786 267.534 177.186 269.534C177.786 273.434 178.286 277.434 178.586 281.434C178.586 281.734 178.386 282.034 177.986 282.134C177.686 282.134 177.386 281.934 177.386 281.634C176.286 277.834 175.486 273.934 174.586 270.034L173.286 264.234L172.586 261.334C172.386 260.334 172.286 259.334 172.786 258.234C172.986 257.834 173.386 257.634 173.786 257.834C173.886 257.934 173.986 257.934 173.986 258.034Z" fill="black"/>
<path d="M165.886 282.935C166.686 283.435 166.886 284.035 166.986 284.735L167.187 286.635C167.287 287.935 167.386 289.135 167.486 290.435C167.686 292.935 167.787 295.535 167.687 298.135C167.687 298.435 167.386 298.735 166.986 298.735C166.686 298.735 166.486 298.535 166.386 298.235C165.686 295.735 165.186 293.235 164.786 290.735C164.586 289.435 164.387 288.235 164.187 286.935L163.986 285.035C163.886 284.435 163.987 283.735 164.587 283.035C164.987 282.735 165.486 282.635 165.886 282.935Z" fill="black"/>
<path d="M150.586 296.734C151.386 297.434 151.686 298.335 151.786 299.135L152.086 301.635C152.286 303.335 152.386 305.034 152.486 306.734C152.686 310.134 152.786 313.534 152.586 316.934C152.586 317.234 152.286 317.534 151.886 317.534C151.586 317.534 151.386 317.334 151.286 317.034C150.686 313.734 150.186 310.334 149.686 307.034L148.986 302.034L148.686 299.534C148.586 298.734 148.586 297.834 149.186 296.934C149.586 296.534 150.086 296.434 150.586 296.734Z" fill="black"/>
<path d="M129.186 285.835C130.086 286.035 130.386 286.535 130.486 287.035L130.986 288.535C131.286 289.535 131.586 290.535 131.886 291.435C132.386 293.435 132.886 295.435 133.186 297.435C133.186 297.735 132.986 298.135 132.586 298.135C132.286 298.135 132.086 298.035 131.986 297.835C130.986 296.035 130.086 294.135 129.386 292.335C128.986 291.435 128.586 290.435 128.286 289.535L127.786 288.135C127.586 287.635 127.586 287.135 128.086 286.435C128.286 285.835 128.786 285.735 129.186 285.835Z" fill="black"/>
<path d="M103.886 305.334C104.786 305.834 105.186 306.534 105.386 307.234L106.086 309.434L107.486 313.734C108.386 316.634 109.286 319.534 110.086 322.534C110.186 322.834 109.986 323.234 109.586 323.334C109.286 323.434 108.986 323.234 108.886 323.034C107.386 320.334 106.086 317.534 104.886 314.734C104.286 313.334 103.786 311.834 103.286 310.434L102.586 308.234C102.386 307.534 102.286 306.734 102.786 305.734C102.986 305.334 103.486 305.134 103.886 305.334Z" fill="black"/>
<path d="M89.786 322.635C90.586 322.635 90.8863 322.934 91.0863 323.234L91.4862 324.234C91.7862 324.934 92.086 325.634 92.286 326.334C92.786 327.734 93.2862 329.135 93.4862 330.635C93.5862 331.035 93.2862 331.334 92.9862 331.334C92.7862 331.334 92.4861 331.235 92.3861 331.135C91.3861 329.935 90.5861 328.734 89.8861 327.434C89.5861 326.734 89.1861 326.134 88.8861 325.434L88.3861 324.434C88.1861 324.134 88.1864 323.734 88.6864 323.034C88.9864 322.734 89.386 322.635 89.786 322.635Z" fill="black"/>
<path d="M83.386 345.635C84.286 345.535 84.6862 345.835 85.0862 346.235L86.0862 347.435C86.7862 348.235 87.3862 349.035 88.0862 349.835C89.3862 351.535 90.5859 353.135 91.7859 354.935C91.9859 355.235 91.8862 355.635 91.5862 355.835C91.3862 355.935 91.086 355.935 90.886 355.835C89.086 354.635 87.5862 353.135 86.0862 351.635C85.3862 350.835 84.586 350.135 83.886 349.335L82.886 348.135C82.586 347.735 82.2862 347.235 82.5862 346.335C82.4862 345.935 82.886 345.635 83.386 345.635Z" fill="black"/>
<path d="M104.386 341.834C105.386 342.034 105.986 342.634 106.486 343.234L110.687 348.934C112.587 351.434 114.486 353.935 116.286 356.635C116.486 356.935 116.387 357.334 116.087 357.534C115.887 357.734 115.486 357.634 115.286 357.534C112.886 355.434 110.586 353.134 108.486 350.734C107.486 349.534 106.386 348.334 105.386 347.034L103.886 345.135C103.386 344.435 103.087 343.735 103.187 342.635C103.487 342.135 103.886 341.834 104.386 341.834Z" fill="black"/>
<path d="M116.587 313.834C117.487 314.134 117.887 314.634 118.087 315.234L118.786 316.934C119.286 318.034 119.687 319.234 120.087 320.434C120.887 322.734 121.687 325.134 122.187 327.634C122.287 327.934 121.987 328.334 121.687 328.334C121.387 328.434 121.186 328.234 120.986 328.034C119.686 325.834 118.587 323.734 117.587 321.434C117.087 320.334 116.487 319.234 116.087 318.034L115.386 316.334C115.186 315.734 115.086 315.134 115.486 314.234C115.686 313.834 116.087 313.734 116.587 313.834Z" fill="black"/>
<path d="M134.587 313.334C135.587 314.034 135.986 314.834 136.286 315.734L137.087 318.434C137.587 320.234 138.087 322.034 138.587 323.834C139.487 327.534 140.286 331.134 140.786 334.934C140.786 335.234 140.586 335.634 140.286 335.634C139.986 335.634 139.687 335.534 139.587 335.234C138.287 331.734 137.186 328.134 135.986 324.634C135.386 322.834 134.786 321.034 134.286 319.334L133.486 316.634C133.186 315.734 133.086 314.834 133.486 313.734C133.686 313.334 134.086 313.134 134.486 313.234L134.587 313.334Z" fill="black"/>
<path d="M163.386 312.134C164.086 312.534 164.286 313.034 164.286 313.534V314.934C164.286 315.934 164.286 316.834 164.286 317.834C164.186 319.734 164.086 321.734 163.786 323.634C163.686 323.934 163.386 324.234 163.086 324.134C162.786 324.134 162.686 323.934 162.586 323.634C162.086 321.734 161.887 319.834 161.687 317.934C161.587 316.934 161.486 316.034 161.486 315.034L161.386 313.634C161.386 313.134 161.487 312.634 162.187 312.134C162.587 311.934 163.086 311.934 163.386 312.134Z" fill="black"/>
<path d="M178.486 297.934C179.186 298.634 179.286 299.434 179.286 300.134L179.186 302.334C179.086 303.734 178.886 305.234 178.786 306.634C178.386 309.534 177.986 312.334 177.186 315.234C177.086 315.534 176.786 315.734 176.386 315.634C176.086 315.534 175.886 315.334 175.886 315.034C175.786 312.134 175.886 309.234 175.986 306.434L176.286 300.034C176.286 299.334 176.486 298.634 177.286 297.934C177.586 297.534 178.186 297.534 178.486 297.934Z" fill="black"/>
<path d="M173.386 338.634C173.986 339.234 173.986 339.634 173.886 340.034L173.586 341.134C173.386 341.934 173.086 342.634 172.886 343.434C172.286 344.934 171.686 346.434 170.886 347.834C170.686 348.134 170.286 348.234 169.986 348.034C169.786 347.934 169.687 347.734 169.687 347.434C169.687 345.834 169.986 344.234 170.286 342.634C170.486 341.834 170.586 341.134 170.786 340.334L171.086 339.234C171.186 338.834 171.486 338.534 172.286 338.334C172.586 338.234 173.086 338.334 173.386 338.634Z" fill="black"/>
<path d="M153.386 328.134C154.186 328.634 154.386 329.234 154.486 329.834L154.687 331.634C154.887 332.834 154.987 334.034 155.087 335.234C155.287 337.634 155.386 340.034 155.386 342.534C155.386 342.834 155.087 343.134 154.687 343.134C154.387 343.134 154.187 342.934 154.087 342.734C153.387 340.434 152.786 338.034 152.386 335.634C152.186 334.434 151.986 333.234 151.786 332.034L151.486 330.234C151.386 329.634 151.487 329.034 152.087 328.334C152.487 327.934 152.986 327.834 153.386 328.134Z" fill="black"/>
<path d="M126.087 341.135C126.987 341.035 127.287 341.335 127.587 341.735L128.386 342.835C128.886 343.535 129.386 344.335 129.886 345.035C130.886 346.535 131.787 348.135 132.587 349.835C132.687 350.135 132.586 350.535 132.286 350.635C132.086 350.735 131.787 350.735 131.587 350.535C130.187 349.335 128.986 348.035 127.786 346.635C127.186 345.935 126.587 345.235 126.087 344.535L125.286 343.435C124.986 343.035 124.887 342.635 125.187 341.835C125.287 341.435 125.687 341.235 126.087 341.135Z" fill="black"/>
<path d="M127.386 363.034C128.186 362.534 128.686 362.634 129.086 362.834L130.486 363.434C131.386 363.834 132.286 364.234 133.186 364.734C134.986 365.634 136.786 366.534 138.486 367.734C138.786 367.934 138.886 368.334 138.686 368.634C138.586 368.834 138.286 368.934 138.086 368.934C136.086 368.534 134.086 367.934 132.186 367.334C131.286 366.934 130.286 366.634 129.386 366.234L127.986 365.634C127.486 365.434 127.086 365.134 126.986 364.234C126.786 363.734 126.986 363.334 127.386 363.034Z" fill="black"/>
<path d="M148.886 349.935C149.786 350.035 150.286 350.435 150.586 350.935L151.586 352.435C152.286 353.435 152.886 354.435 153.486 355.535C154.686 357.635 155.786 359.835 156.586 362.135C156.686 362.435 156.486 362.835 156.186 362.935C155.886 363.035 155.686 362.935 155.486 362.735C153.986 360.835 152.586 358.935 151.186 357.035C150.486 356.035 149.786 355.135 149.186 354.135L148.186 352.635C147.886 352.135 147.686 351.535 147.886 350.635C147.986 350.235 148.486 349.935 148.886 349.935Z" fill="black"/>
<path d="M163.087 351.935C163.887 352.435 164.087 352.935 164.187 353.535L164.386 355.235C164.486 356.335 164.587 357.535 164.687 358.635C164.787 360.935 164.786 363.235 164.386 365.435C164.286 365.735 163.987 366.035 163.687 365.935C163.387 365.935 163.187 365.735 163.187 365.435C162.687 363.235 162.386 361.035 161.986 358.835C161.886 357.735 161.686 356.635 161.486 355.535L161.286 353.835C161.186 353.235 161.286 352.735 161.986 352.035C162.186 351.735 162.687 351.635 163.087 351.935Z" fill="black"/>
<path d="M169.386 234.834C170.286 234.934 170.586 235.335 170.786 235.735L171.386 237.135C171.786 238.035 172.187 238.934 172.587 239.834C173.387 241.734 174.087 243.534 174.587 245.534C174.687 245.834 174.487 246.234 174.087 246.334C173.787 246.434 173.586 246.335 173.386 246.135C172.086 244.535 171.087 242.835 170.087 241.135C169.587 240.235 169.087 239.434 168.687 238.534L167.986 237.235C167.786 236.835 167.687 236.234 168.087 235.534C168.587 234.934 168.986 234.734 169.386 234.834Z" fill="black"/>
<path d="M83.4264 154.45C83.5264 152.45 83.8264 150.55 84.0264 148.55L84.4264 145.65C84.5264 144.65 84.8264 143.75 84.9264 142.75C85.3264 140.85 85.7265 138.85 86.1265 136.95C86.3265 135.95 86.6264 135.05 86.9264 134.05L87.7264 131.25C89.8264 123.65 92.7264 116.35 95.7264 109.05C101.926 94.65 109.626 80.85 118.226 67.75C126.926 54.75 136.826 42.4499 147.526 30.9499C148.826 29.4499 150.226 28.05 151.626 26.75L155.726 22.55C158.526 19.75 161.626 17.25 164.726 14.85C170.926 10.05 177.326 5.55 182.826 0.15C183.026 -0.05 183.426 -0.05 183.726 0.15C183.926 0.35 183.926 0.750024 183.726 1.05002C178.226 6.65002 171.826 11.35 165.826 16.25C162.826 18.75 159.926 21.2499 157.126 23.9499L153.126 28.15C151.826 29.55 150.426 30.9499 149.126 32.4499C138.726 43.9499 129.026 56.25 120.526 69.25C112.026 82.25 104.426 95.85 98.4264 110.15C95.5264 117.35 92.7265 124.55 90.6265 132.05C88.3265 139.45 86.7265 147.05 84.6265 154.55C84.5265 154.85 84.2264 155.05 83.8264 154.95C83.5264 154.95 83.3264 154.75 83.4264 154.45Z" fill="black"/>
<path d="M157.926 23.75C157.126 23.75 156.526 24.95 156.026 26.25C155.526 27.55 155.226 28.85 154.826 30.35L153.526 34.45C153.126 35.85 152.726 37.15 152.326 38.55C150.726 44.05 149.626 49.55 149.226 55.25C148.226 66.65 148.526 78.15 150.726 89.35C152.826 100.55 156.826 111.35 162.326 121.45C163.026 122.75 163.726 123.95 164.426 125.15L165.526 126.95L166.026 127.85C166.226 128.15 166.426 128.35 166.626 128.65C168.326 130.85 170.226 133.05 172.126 135.25C174.026 137.35 176.026 139.45 178.126 141.45C179.126 142.45 180.226 143.35 181.326 144.25C181.826 144.65 182.426 145.15 183.026 145.45C183.626 145.85 184.226 146.15 184.626 146.15H184.726C185.026 146.15 185.326 146.45 185.326 146.85C185.326 147.15 185.026 147.45 184.626 147.45C183.626 147.35 182.926 146.95 182.326 146.55C181.626 146.15 181.026 145.75 180.426 145.25C179.226 144.35 178.126 143.45 177.026 142.45C174.826 140.45 172.826 138.45 170.826 136.35C168.826 134.25 166.826 132.15 165.026 129.75C164.826 129.45 164.526 129.15 164.326 128.85L162.526 126.15C161.726 124.95 161.026 123.65 160.326 122.35C154.626 112.25 150.226 101.25 147.926 89.75C145.626 78.25 145.226 66.55 146.226 54.95C146.726 49.15 147.726 43.35 149.326 37.65C150.126 34.85 151.126 32.05 152.226 29.45C152.726 28.15 153.226 26.75 154.026 25.35C154.426 24.65 154.826 23.95 155.426 23.35C155.626 23.15 155.726 23.05 155.926 22.95L156.226 22.75L156.626 22.55C156.826 22.45 157.126 22.45 157.426 22.45C157.726 22.45 157.926 22.55 158.226 22.55C158.526 22.65 158.726 22.95 158.726 23.25C158.626 23.55 158.426 23.75 158.126 23.75H157.926Z" fill="black"/>
<path d="M158.326 22.35C161.126 27.05 163.626 31.95 166.026 36.85C167.226 39.35 168.426 41.7501 169.726 44.1501C171.026 46.4501 172.426 48.95 173.626 51.35C178.826 61.15 183.126 71.4501 185.926 82.1501C187.326 87.5501 188.326 92.9501 188.926 98.5501C189.526 104.05 189.826 109.55 190.026 115.05C190.226 120.55 190.226 126.05 190.226 131.55V132.55C190.226 132.85 190.226 133.35 190.126 133.65C190.026 134.35 189.826 135.05 189.626 135.75C189.226 137.15 188.726 138.45 188.226 139.75C187.726 141.05 187.226 142.35 186.626 143.55L185.726 145.45L185.226 146.35L185.026 146.85L184.926 147.05L184.826 147.15C184.826 147.15 184.826 147.25 184.726 147.25C184.726 147.25 184.626 147.45 184.326 147.45C183.326 147.15 183.826 146.95 183.626 146.85C183.626 146.55 183.926 146.25 184.226 146.25C184.526 146.25 184.826 146.55 184.826 146.85C184.626 146.75 185.126 146.55 184.126 146.25C183.826 146.25 183.726 146.45 183.726 146.45V146.35L184.026 145.75L184.426 144.85L185.226 142.95C185.726 141.65 186.226 140.45 186.626 139.15C187.126 137.85 187.526 136.55 187.826 135.25C188.026 134.65 188.126 133.95 188.226 133.35C188.226 133.05 188.326 132.75 188.226 132.45V131.45C188.126 125.95 187.926 120.55 187.626 115.05C187.326 109.55 186.926 104.15 186.226 98.75C185.626 93.35 184.526 88.05 183.026 82.85C180.126 72.35 175.926 62.35 170.726 52.75C169.426 50.35 168.126 48.0501 166.726 45.5501C165.426 43.1501 164.226 40.6501 162.926 38.1501C161.726 35.6501 160.526 33.1501 159.526 30.6501C158.426 28.1501 157.526 25.55 156.726 22.85C156.626 22.55 156.826 22.1501 157.126 22.0501C157.826 21.9501 158.126 22.05 158.326 22.35Z" fill="black"/>
<path d="M121.526 63.65C111.726 60.55 102.326 56.25 92.5259 53.25C90.1259 52.45 87.626 51.85 85.126 51.25C82.626 50.65 80.126 50.25 77.626 49.75C72.526 48.95 67.4259 48.3499 62.3259 47.9499C52.1259 47.0499 41.7259 46.95 31.4259 46.85C26.2259 46.85 21.1259 46.75 15.9259 46.85C13.3259 46.95 10.726 47.05 8.22595 47.25C7.02595 47.45 5.72588 47.6499 4.52588 47.9499C3.92588 48.0499 3.32598 48.25 2.62598 48.35C2.32598 48.45 2.02595 48.55 1.72595 48.65C1.62595 48.65 1.42593 48.75 1.32593 48.75C1.22593 48.75 1.22595 48.85 1.22595 48.85C1.22595 48.85 1.22595 48.85 1.22595 48.75C1.32595 48.65 1.32593 48.5499 1.32593 48.4499C1.32593 48.7499 1.02595 49.05 0.725952 49.05C0.425952 49.05 0.125977 48.7499 0.125977 48.4499C0.125977 48.3499 0.225952 48.15 0.225952 48.05C0.225952 47.95 0.325928 47.9499 0.325928 47.9499C0.425928 47.8499 0.425879 47.85 0.525879 47.75C0.625879 47.65 0.725928 47.65 0.825928 47.55C1.02593 47.45 1.12593 47.45 1.32593 47.35C1.62593 47.25 1.92593 47.15 2.32593 47.05C2.92593 46.85 3.62595 46.65 4.22595 46.55C5.52595 46.25 6.72598 45.95 8.12598 45.65C10.726 45.35 13.3259 45.15 15.9259 45.05C21.1259 44.75 26.3259 44.65 31.4259 44.65C41.7259 44.55 52.1259 44.55 62.5259 45.25C67.7259 45.65 72.9259 46.15 78.0259 47.05C80.6259 47.45 83.126 47.9499 85.726 48.4499C88.226 48.9499 90.8259 49.6499 93.3259 50.4499C98.3259 51.9499 103.226 53.75 108.026 55.65C110.426 56.55 112.826 57.55 115.226 58.75C117.526 59.85 119.926 61.05 122.026 62.65C122.326 62.85 122.426 63.25 122.226 63.55C122.126 63.65 121.826 63.75 121.526 63.65Z" fill="black"/>
<path d="M1.22608 48.05C2.62608 50.45 4.52604 52.55 6.42604 54.55C8.32604 56.65 10.326 58.55 12.426 60.55C13.426 61.55 14.426 62.55 15.526 63.45C16.526 64.35 17.6261 65.25 18.8261 66.05C21.1261 67.65 23.526 69.15 25.926 70.45C30.926 73.05 36.3261 74.95 41.7261 76.55C47.2261 78.15 52.7261 79.65 58.3261 80.55C63.9261 81.55 69.6261 81.95 75.2261 81.65C80.8261 81.35 86.526 80.45 91.926 78.75C94.626 77.85 97.326 76.95 100.026 75.95C102.726 74.95 105.326 73.95 107.926 72.75C110.526 71.55 112.926 70.15 115.026 68.25L121.526 62.65C121.826 62.45 122.226 62.45 122.426 62.75C122.626 63.05 122.626 63.35 122.326 63.65L115.926 69.45C114.926 70.45 113.626 71.35 112.426 72.15C111.226 72.95 109.926 73.65 108.626 74.35C106.026 75.65 103.326 76.85 100.626 77.85C97.9261 78.85 95.326 79.95 92.526 80.85C87.026 82.65 81.1261 83.75 75.3261 84.15C69.5261 84.45 63.6261 84.15 57.8261 83.25C52.0261 82.35 46.4261 80.95 40.8261 79.25C35.3261 77.55 29.726 75.65 24.526 72.95C21.926 71.65 19.326 70.05 16.926 68.35C15.726 67.45 14.526 66.55 13.426 65.55C12.326 64.55 11.2261 63.55 10.2261 62.55C8.12608 60.55 6.12606 58.45 4.32606 56.15C2.52606 53.85 0.826011 51.25 0.0260109 48.35C-0.0739891 48.05 0.126035 47.65 0.426035 47.55C0.726035 47.65 1.02608 47.85 1.22608 48.05Z" fill="black"/>
<path d="M156.926 25.05C157.026 25.05 157.126 25.05 157.126 25.05C157.226 25.05 157.226 25.05 157.326 24.95C157.426 24.95 157.426 24.85 157.426 24.85C157.426 24.85 157.426 24.85 157.426 24.95C157.426 25.05 157.426 25.25 157.426 25.35C157.426 25.65 157.426 25.95 157.526 26.25C157.626 26.85 157.726 27.55 157.826 28.15L158.426 31.95C158.826 34.55 159.226 37.05 159.626 39.65C160.426 44.75 161.426 49.95 162.226 55.15C163.826 65.45 165.726 75.75 167.826 85.95C169.926 96.15 172.326 106.35 175.026 116.45C175.726 118.95 176.426 121.55 177.126 123.95C177.926 126.35 178.926 128.85 179.826 131.25L182.626 138.65C183.026 139.85 183.526 141.15 183.926 142.35C184.126 142.95 184.326 143.65 184.526 144.25C184.726 144.95 184.926 145.55 184.926 146.35C184.926 146.65 184.726 146.95 184.326 147.05C184.026 147.05 183.726 146.85 183.626 146.55V146.45C183.526 145.95 183.426 145.35 183.226 144.75C183.026 144.15 182.826 143.55 182.626 142.95C182.226 141.75 181.726 140.55 181.226 139.35L178.226 132.05C177.226 129.65 176.226 127.25 175.326 124.75C174.426 122.15 173.726 119.75 173.026 117.15C170.126 107.05 167.526 96.95 165.226 86.65C163.026 76.35 161.126 66.05 159.426 55.75C158.626 50.65 157.526 45.45 156.726 40.25C156.326 37.65 156.026 35.05 155.826 32.35C155.726 31.05 155.726 29.75 155.726 28.35C155.726 27.65 155.826 27.05 155.826 26.35C155.826 26.05 155.926 25.65 156.026 25.35C156.026 25.15 156.126 24.95 156.226 24.75C156.226 24.65 156.326 24.55 156.426 24.35C156.426 24.25 156.526 24.15 156.626 24.05C156.726 23.95 156.826 23.95 156.926 23.95C157.026 23.95 157.126 23.95 157.326 23.95C157.626 24.05 157.926 24.35 157.826 24.65C157.626 24.85 157.226 25.05 156.926 25.05Z" fill="black"/>
<path d="M121.526 63.5501C116.426 64.4501 111.326 64.8501 106.226 65.0501C101.126 65.2501 96.0263 65.4501 90.8263 65.5501C85.7263 65.6501 80.5263 65.6501 75.4263 65.5501C70.3263 65.4501 65.1263 65.15 60.0263 64.75C54.9263 64.25 49.8263 63.55 44.7263 62.65C43.4263 62.45 42.2263 62.15 40.9263 61.85C39.6263 61.55 38.4264 61.35 37.1264 60.95C34.6264 60.35 32.1263 59.55 29.7263 58.85C24.8263 57.35 19.9264 55.85 15.1264 54.15C10.3264 52.45 5.52633 50.65 0.726328 48.85C0.426328 48.75 0.226304 48.3501 0.326304 48.0501C0.426304 47.7501 0.826353 47.55 1.12635 47.65C6.02635 49.25 10.8263 50.95 15.7263 52.45C20.6263 54.05 25.5263 55.35 30.4263 56.75C40.2263 59.65 50.2263 61.15 60.3263 61.95C65.4263 62.35 70.4263 62.55 75.5263 62.65C80.6263 62.75 85.7263 62.6501 90.8263 62.5501C95.9263 62.4501 101.026 62.15 106.126 61.95C111.226 61.75 116.326 61.65 121.526 62.15C121.826 62.15 122.126 62.45 122.126 62.85C122.026 63.35 121.826 63.5501 121.526 63.5501Z" fill="black"/>
</svg>
