<svg width="70" height="58" viewBox="0 0 70 58" fill="none" xmlns="http://www.w3.org/2000/svg">
<path d="M44.6118 21.0653C44.5187 21.8009 44.3192 22.5232 44.1064 23.2321C43.8936 23.941 43.6409 24.623 43.4015 25.3185C42.9094 26.6961 42.4172 28.0738 42.098 29.4915C41.9384 30.2004 41.8187 30.9092 41.832 31.6181C41.832 31.9658 41.8719 32.327 41.9916 32.6212C42.1113 32.9288 42.2975 33.2231 42.5236 33.4906C42.9758 34.0256 43.561 34.4536 44.1729 34.8281C44.798 35.1892 45.4497 35.4969 46.1281 35.7377C46.4739 35.858 46.8197 35.965 47.1655 36.0453C47.5113 36.1255 47.8704 36.1924 48.2295 36.2191C48.5886 36.2459 48.9477 36.2592 49.2935 36.2191C49.6394 36.179 49.9851 36.0987 50.2778 35.9516C50.3576 35.9249 50.4241 35.8714 50.4906 35.8179C50.5571 35.7777 50.6236 35.7108 50.6768 35.6573C50.7433 35.6038 50.7965 35.5237 50.8497 35.4702L51.0226 35.2695C51.0758 35.2027 51.1423 35.1358 51.1955 35.0689L51.3551 34.8548C51.4615 34.7077 51.568 34.574 51.6611 34.4135C52.0468 33.8116 52.3526 33.1429 52.6187 32.4741C52.8714 31.792 53.0842 31.0966 53.2704 30.3877C53.4433 29.6788 53.6029 28.9699 53.7492 28.2477C54.0285 26.8166 54.2812 25.3587 54.627 23.9409C54.6403 23.8874 54.6935 23.8606 54.7467 23.8606C54.7999 23.874 54.8265 23.9275 54.8265 23.981C54.5073 25.4122 54.2812 26.8566 54.0285 28.3011C53.7758 29.7456 53.4699 31.1902 52.9645 32.5946C52.6985 33.2901 52.3926 33.9722 51.9936 34.6008C51.9005 34.7613 51.7807 34.9084 51.6743 35.0689L51.5147 35.2962C51.4615 35.3631 51.395 35.4434 51.3285 35.5103L51.1423 35.7242C51.0758 35.7911 51.0226 35.8714 50.9428 35.9383C50.863 36.0052 50.7965 36.0853 50.7034 36.1255C50.6236 36.179 50.5305 36.2459 50.4507 36.286C50.0916 36.4732 49.7059 36.5669 49.3202 36.607C48.9345 36.6605 48.5487 36.6471 48.1763 36.6204C47.7906 36.5936 47.4182 36.5268 47.0591 36.4465C46.6867 36.3663 46.3275 36.2593 45.9684 36.1389C45.2502 35.8982 44.5719 35.5772 43.9202 35.2027C43.2685 34.8148 42.6567 34.36 42.1512 33.7715C41.8985 33.4773 41.6857 33.1429 41.5394 32.7684C41.3931 32.3805 41.3665 31.9926 41.3532 31.6181C41.3399 30.8557 41.4729 30.1068 41.6325 29.3846C41.965 27.9401 42.4572 26.5356 42.9493 25.158C43.202 24.4625 43.4546 23.7805 43.7074 23.0983C43.9601 22.4162 44.2128 21.734 44.4256 21.0385C44.4389 20.985 44.4921 20.9583 44.5453 20.9717C44.5852 20.9583 44.6118 21.0118 44.6118 21.0653Z" fill="#07453A"/>
<path d="M54.7869 23.8607C55.6514 24.0881 56.5026 24.3423 57.3671 24.5697C58.2184 24.7971 59.0829 25.0111 59.9474 25.1716C60.8119 25.3321 61.6897 25.4792 62.5543 25.5193C63.4188 25.5728 64.3099 25.5326 65.1212 25.2919C65.5202 25.1715 65.9059 24.9977 66.2251 24.7436C66.5311 24.5028 66.7704 24.155 66.9699 23.7805C67.3689 23.0182 67.6216 22.1756 67.8611 21.333C68.3133 19.6343 68.5926 17.8956 68.9118 16.1435C69.2177 14.4449 68.8985 12.6793 68.1936 11.0877C67.4886 9.49607 66.4645 8.05168 65.2542 6.78106C64.6424 6.15244 63.9907 5.56387 63.2991 5.02887C62.6075 4.49387 61.8626 4.02583 61.0779 3.63796C60.8784 3.54433 60.6789 3.46408 60.4794 3.37046C60.2799 3.30358 60.0804 3.22326 59.8676 3.15638C59.6548 3.08951 59.4553 3.04943 59.2425 3.00931L58.5907 2.88888C57.7129 2.72838 56.8351 2.55454 55.9706 2.38066C54.2283 2.03291 52.4859 1.67184 50.7303 1.4311C49.8525 1.31072 48.9746 1.21699 48.0968 1.19024C47.219 1.16349 46.3412 1.20364 45.4767 1.35077C45.0511 1.43102 44.6255 1.52462 44.1999 1.65836C43.7875 1.79211 43.3752 1.93924 42.9762 2.12649C42.5772 2.31374 42.2048 2.52784 41.8324 2.76859C41.46 2.99596 41.1009 3.26341 40.7418 3.51753C39.3453 4.57415 38.0684 5.81802 36.9778 7.19563C36.4325 7.89113 35.9404 8.61335 35.5015 9.37572C35.0759 10.1381 34.7034 10.9406 34.464 11.7699C34.2246 12.5991 34.1049 13.4819 34.198 14.3379C34.2379 14.7659 34.3577 15.1805 34.504 15.5817L34.637 15.876L34.7965 16.1568C34.8896 16.3575 35.0226 16.5313 35.1423 16.7052C35.6345 17.4274 36.2729 18.0293 37.0044 18.5108C37.7359 18.9923 38.5339 19.3668 39.3586 19.6744C41.0211 20.2763 42.7767 20.6241 44.5324 20.8916C44.5856 20.905 44.6255 20.945 44.6122 21.0119C44.5989 21.0654 44.5589 21.1056 44.4924 21.0922C42.7235 20.8247 40.9679 20.5037 39.2654 19.9018C38.4275 19.5942 37.6029 19.2197 36.8448 18.7248C36.0866 18.23 35.4084 17.6147 34.8897 16.8657C34.77 16.6784 34.6369 16.4912 34.5305 16.2906L34.371 15.9963L34.238 15.6887C34.0651 15.2607 33.9453 14.8193 33.8921 14.3645C33.7857 13.455 33.9054 12.5456 34.1581 11.6762C34.3975 10.8069 34.7699 9.99099 35.2089 9.20187C35.6345 8.41275 36.1532 7.67711 36.6985 6.96824C37.8024 5.56387 39.0925 4.30668 40.5157 3.20993C40.8748 2.94244 41.2339 2.67496 41.6196 2.43421C41.992 2.19347 42.391 1.96609 42.8033 1.76547C43.2156 1.56484 43.6412 1.40432 44.0669 1.27057C44.5058 1.13682 44.9447 1.02977 45.3836 0.94952C46.2747 0.802395 47.1791 0.748922 48.0835 0.775672C48.9879 0.802422 49.8791 0.89602 50.7702 1.01639C52.5391 1.25714 54.2948 1.61834 56.0371 1.96609C56.9149 2.13997 57.7794 2.31381 58.6572 2.47431L59.309 2.59461C59.5351 2.63473 59.7612 2.68826 59.974 2.75513C60.2001 2.80863 60.4129 2.90234 60.6257 2.96921C60.8385 3.06284 61.0513 3.14303 61.2508 3.25003C62.0754 3.63791 62.8336 4.1328 63.5518 4.68118C64.27 5.22955 64.935 5.83134 65.5601 6.47334C66.7971 7.7707 67.8611 9.2554 68.5926 10.9005C68.9517 11.7298 69.231 12.5991 69.364 13.4952C69.5103 14.3913 69.5103 15.3143 69.3507 16.2104C69.0448 17.9491 68.7655 19.7012 68.3133 21.4266C68.0738 22.2826 67.8212 23.152 67.3955 23.9678C67.1827 24.3691 66.93 24.7836 66.531 25.0913C66.1453 25.3855 65.7064 25.5862 65.2675 25.7199C64.3631 25.9874 63.4321 26.0008 62.5409 25.9473C61.6365 25.8938 60.7454 25.7333 59.8676 25.5461C58.9897 25.3454 58.1252 25.118 57.274 24.8505C56.4228 24.583 55.5716 24.3022 54.7336 24.0079C54.6804 23.9946 54.6538 23.9277 54.6671 23.8742C54.6804 23.8742 54.7337 23.8474 54.7869 23.8607Z" fill="#07453A"/>
<path d="M17.4704 40.0137C17.7243 40.6866 17.8596 41.3913 17.9654 42.0966C18.083 42.7958 18.1591 43.5017 18.2412 44.19C18.3292 44.8898 18.4113 45.5781 18.5349 46.2596C18.6584 46.9411 18.8116 47.622 19.036 48.2663C19.154 48.5853 19.284 48.8983 19.4614 49.1868C19.6269 49.4815 19.8279 49.7577 20.0646 49.9573C20.5617 50.3734 21.2309 50.5987 21.8942 50.7538C23.2445 51.052 24.6604 51.068 26.041 50.8685C26.7224 50.7659 27.4097 50.6164 28.0498 50.3744C28.3639 50.2565 28.6781 50.1094 28.9568 49.922C29.2355 49.7347 29.4845 49.5187 29.6507 49.2578L29.716 49.1511C29.7397 49.1096 29.7398 49.0804 29.7636 49.039L29.8111 48.9269C29.823 48.8915 29.829 48.8446 29.8409 48.8093L29.9777 48.315C30.0253 48.1444 30.0433 47.9744 30.0672 47.816L30.1149 47.5576C30.1268 47.4638 30.1329 47.3877 30.133 47.3C30.2168 46.614 30.1761 45.9189 30.1059 45.2245L30.0474 44.6995C30.018 44.5247 29.9885 44.3499 29.965 44.1867C29.9121 43.8486 29.8356 43.4935 29.7708 43.1616C29.6176 42.4807 29.4467 41.7944 29.252 41.1203C28.8746 39.7659 28.4675 38.4121 28.1493 37.0272C28.1375 36.9749 28.1672 36.9158 28.2205 36.9029C28.2739 36.8901 28.3212 36.9242 28.333 36.9765C28.669 38.3377 29.0998 39.6791 29.5069 41.0328C29.7134 41.7009 29.9021 42.3927 30.073 43.079C30.2321 43.7715 30.3794 44.4701 30.4555 45.176C30.5317 45.882 30.5722 46.6062 30.5003 47.3154C30.4883 47.4092 30.4882 47.4969 30.4763 47.5907L30.4344 47.8606C30.4046 48.0367 30.3925 48.2183 30.3449 48.3889L30.208 48.9124C30.202 48.9593 30.1902 48.9946 30.1723 49.0476L30.1188 49.1775C30.0951 49.2189 30.0891 49.2659 30.0535 49.3134L29.9823 49.4377C29.7745 49.7639 29.4898 50.0273 29.1756 50.233C28.8673 50.4502 28.5413 50.6035 28.1916 50.7398C27.5218 51.0116 26.8107 51.1734 26.0997 51.2765C24.6717 51.4713 23.2203 51.4736 21.793 51.1712C21.0941 51.0051 20.3657 50.7812 19.768 50.2854C19.4603 50.0348 19.2533 49.7177 19.0582 49.3944C18.8809 49.0767 18.7214 48.735 18.5974 48.4044C18.3553 47.7254 18.1903 47.0214 18.0549 46.3167C17.9254 45.6236 17.8315 44.9123 17.7554 44.2063C17.5794 42.8066 17.51 41.4105 17.2688 40.0298C17.2571 39.9774 17.2927 39.9298 17.346 39.917C17.4052 39.9449 17.4467 39.9675 17.4704 40.0137Z" fill="#07453A"/>
<path d="M28.2697 36.958C29.1946 36.7448 30.1135 36.5493 31.0207 36.3014C31.9337 36.0651 32.8349 35.8056 33.7125 35.4706C34.5842 35.1532 35.4441 34.7835 36.227 34.2925C36.9981 33.8077 37.7043 33.1956 38.1142 32.4144L38.1914 32.2723L38.2509 32.1247C38.2866 32.0186 38.3104 31.9185 38.3461 31.8124C38.3997 31.5948 38.4237 31.3779 38.4417 31.1493C38.4779 30.6921 38.4725 30.2416 38.4434 29.7742C38.3794 28.857 38.2205 27.9301 38.0141 27.0277C37.9021 26.5737 37.7782 26.1259 37.6424 25.6841C37.5066 25.2424 37.3412 24.8012 37.1461 24.39C37.0456 24.1933 36.9392 23.985 36.8208 23.8121L36.3888 23.2598C36.2468 23.0698 36.1107 22.8914 35.9569 22.7075L35.4833 22.1911C35.1815 21.8349 34.8203 21.5385 34.4769 21.2183C34.3052 21.0582 34.1157 20.9218 33.9381 20.7794L33.3814 20.3644L32.7892 19.997L32.499 19.8102C32.3924 19.7482 32.2917 19.6977 32.191 19.6472L31.5631 19.3273C31.3499 19.2324 31.1306 19.1554 30.9174 19.0605L30.5975 18.9329C30.485 18.8885 30.3783 18.8557 30.2598 18.829L29.5962 18.6153C29.14 18.514 28.6896 18.395 28.2274 18.3407C27.7652 18.2571 27.3088 18.2437 26.8406 18.207C26.3783 18.2112 25.9042 18.1922 25.4477 18.2373C24.523 18.3042 23.5982 18.4588 22.7029 18.7299L21.3333 19.1283L19.9637 19.4973C19.0447 19.7221 18.1198 19.9353 17.189 20.1369C16.2641 20.3501 15.3392 20.534 14.4439 20.805C13.5427 21.0645 12.6888 21.4166 11.894 21.8844C11.7042 22.0114 11.4906 22.1214 11.3067 22.2599L10.7491 22.6641C10.5652 22.8026 10.3931 22.9644 10.2151 23.1145L9.954 23.3366L9.7048 23.582L9.2063 24.0726L8.73746 24.5919C8.41698 24.9324 8.12013 25.2898 7.84702 25.6643C7.28304 26.408 6.80199 27.1966 6.37421 28.0309C5.9583 28.8591 5.60757 29.7268 5.33976 30.6103C5.07196 31.4938 4.89895 32.4162 4.84447 33.336C4.79 34.2558 4.85995 35.1847 5.14337 36.062C5.29101 36.4977 5.47425 36.9149 5.71678 37.3017C5.97118 37.6823 6.27896 38.0208 6.62237 38.3118C8.08496 39.4444 9.86212 40.225 11.717 40.4246C12.6415 40.5332 13.5899 40.5125 14.5028 40.3932C14.7399 40.3588 14.9652 40.3306 15.1964 40.2846L15.8901 40.1466C16.3407 40.0315 16.7912 39.9165 17.2419 39.7721C18.155 39.5065 19.0681 39.2702 19.987 39.0454C20.9119 38.8322 21.8367 38.6484 22.7557 38.4236C24.5877 37.9918 26.4198 37.5014 28.2282 36.9648C28.2815 36.9519 28.3407 36.9798 28.3525 37.0322C28.3643 37.0846 28.3347 37.1439 28.2813 37.1567C26.4669 37.711 24.6526 38.2068 22.8028 38.6624C21.8838 38.8872 20.9531 39.0888 20.046 39.3074C19.127 39.5322 18.2198 39.78 17.3186 40.0395C15.522 40.6286 13.5834 40.9399 11.6692 40.7416C10.7151 40.6336 9.77303 40.4024 8.8785 40.0298C7.98397 39.6572 7.15474 39.1779 6.38495 38.5802C6.00008 38.2668 5.68051 37.9052 5.39652 37.4959C5.1303 37.0921 4.92931 36.6401 4.78171 36.1752C4.47463 35.2515 4.41064 34.2758 4.45924 33.3151C4.51375 32.3661 4.68678 31.4144 4.9724 30.5071C5.24024 29.5944 5.597 28.709 6.03072 27.857C6.46445 27.0051 6.96331 26.1927 7.53325 25.4313C7.81821 25.0507 8.1268 24.687 8.44137 24.3349L8.92214 23.8097L9.42657 23.3013L9.68769 23.0499L9.96059 22.8216C10.1386 22.6714 10.3225 22.5037 10.5065 22.3651L11.0819 21.9372C11.2777 21.7925 11.4912 21.6825 11.6929 21.5494C12.5233 21.0633 13.4187 20.7044 14.3377 20.4212C15.2568 20.1379 16.1816 19.9541 17.1065 19.7409C18.0373 19.5393 18.9444 19.3206 19.8634 19.0958L21.2211 18.7328L22.573 18.329C23.492 18.0457 24.4406 17.8789 25.4068 17.8052C25.8928 17.7596 26.3611 17.7669 26.8412 17.7682C27.3212 17.7987 27.7954 17.8177 28.2754 17.9067C28.7495 17.9549 29.2235 18.0909 29.6916 18.1861C29.9227 18.2571 30.1537 18.3281 30.3848 18.3992C30.4973 18.4435 30.6158 18.4702 30.7284 18.5146L31.0661 18.6477C31.2912 18.7364 31.5163 18.8251 31.7296 18.9199L32.3752 19.2453C32.4818 19.3073 32.5944 19.3518 32.701 19.4138L33.009 19.606L33.6249 19.9905L34.2052 20.4225C34.4006 20.5704 34.5901 20.7068 34.7677 20.8785C35.117 21.2103 35.496 21.5121 35.8037 21.8799L36.295 22.4017C36.4489 22.5856 36.591 22.7756 36.7448 22.9595L37.1827 23.5233C37.3366 23.7365 37.4489 23.9564 37.5554 24.1647C37.7682 24.6106 37.9336 25.0517 38.0812 25.5166C38.2229 25.9699 38.3527 26.4294 38.4707 26.8949C38.6889 27.8205 38.8418 28.765 38.9236 29.7169C38.9585 30.196 38.9639 30.6757 38.9278 31.1621C38.9037 31.4084 38.8797 31.6546 38.8201 31.8899C38.7903 32.0076 38.7487 32.1314 38.719 32.2491L38.6476 32.4321L38.5645 32.5918C38.3327 33.0474 38.0181 33.4286 37.6502 33.7643C37.2942 34.0938 36.8908 34.3894 36.4815 34.644C35.657 35.1417 34.7734 35.5236 33.8662 35.83C32.959 36.1364 32.0341 36.3789 31.121 36.5859C30.1902 36.7875 29.2595 36.9599 28.3288 37.103C28.2754 37.1159 28.2221 37.0702 28.2103 37.0178C28.1807 37.0184 28.2163 36.9708 28.2697 36.958Z" fill="#07453A"/>
<path d="M45.109 19.6536L45.1245 19.4552L45.138 19.3612L45.161 19.255L45.2502 18.7953C45.3096 18.4889 45.3805 18.1931 45.4504 17.8859C45.5912 17.2829 45.7643 16.689 45.9478 16.0941C46.1314 15.4993 46.3263 14.9152 46.5308 14.3187C46.6244 14.0443 46.6953 13.7487 46.7252 13.4679C46.7552 13.187 46.7528 12.897 46.6409 12.6855C46.6286 12.6633 46.6154 12.6296 46.604 12.6189C46.5917 12.5967 46.5794 12.5745 46.5461 12.554L46.4778 12.4897C46.455 12.4684 46.4322 12.447 46.4103 12.4371C46.3648 12.3943 46.3002 12.3763 46.2546 12.3335C46.19 12.3155 46.1349 12.2851 46.0703 12.267C45.8222 12.194 45.5275 12.1945 45.2356 12.2294C44.9437 12.2644 44.6441 12.3347 44.3445 12.405C44.0344 12.4762 43.7453 12.5458 43.4466 12.6277C42.2624 12.9545 41.1435 13.4384 40.1242 14.1117C39.8748 14.2824 39.6254 14.4532 39.3884 14.6462C39.1399 14.8285 38.9247 15.0313 38.6781 15.2366C38.4411 15.4296 38.2145 15.6219 38.0325 15.8453C37.8496 16.0571 37.7018 16.3126 37.7699 16.5044C37.8011 16.6295 37.8646 16.7637 37.9262 16.8748C37.9499 16.9077 37.9508 16.9192 37.985 16.9513L38.0552 17.0385L38.2061 17.212C38.4034 17.4399 38.6103 17.6554 38.8449 17.8223C39.0803 18.0007 39.3444 18.1421 39.618 18.2711C39.7605 18.3409 39.8916 18.3999 40.0208 18.436C40.151 18.4836 40.2898 18.5074 40.4153 18.4974C40.5417 18.4989 40.6644 18.4542 40.7758 18.3989C40.8862 18.332 40.9842 18.243 41.0804 18.1309C41.2729 17.9067 41.4302 17.6388 41.6312 17.3907C41.8322 17.1426 42.0856 16.8903 42.4233 16.7705C42.5869 16.711 42.7638 16.6852 42.933 16.6948C43.0176 16.6997 43.1022 16.7046 43.1764 16.7103C43.2619 16.7266 43.336 16.7323 43.4216 16.7487C43.5822 16.7822 43.7456 16.8504 43.9004 16.9424C44.0448 17.0353 44.171 17.1644 44.2668 17.3076C44.4583 17.5939 44.5272 17.9249 44.5628 18.2353C44.5984 18.5458 44.6026 18.8588 44.6573 19.1444C44.6894 19.2811 44.7328 19.4285 44.8135 19.5148C44.8486 19.5584 44.9037 19.5888 44.9579 19.6076C44.9902 19.6167 45.0225 19.6257 45.0539 19.6232C45.0757 19.633 45.0871 19.6437 45.109 19.6536ZM45.238 19.8173C45.1866 19.833 45.1134 19.8389 45.0497 19.8323C45.0069 19.8242 44.9642 19.816 44.9109 19.8087C44.8245 19.7808 44.7361 19.7299 44.6678 19.6657C44.5302 19.5259 44.4848 19.3555 44.4509 19.1957C44.383 18.8763 44.3788 18.5633 44.3336 18.2652C44.2885 17.9672 44.2224 17.6709 44.0574 17.452C43.9748 17.3426 43.8828 17.2455 43.7612 17.174C43.6397 17.1025 43.5095 17.0549 43.3707 17.0311C43.3061 17.0131 43.232 17.0075 43.1578 17.0018C43.0837 16.9961 43.0095 16.9905 42.9363 16.9963C42.7994 16.9956 42.6539 17.0189 42.5312 17.0635C42.2753 17.1536 42.0705 17.3555 41.8895 17.5904C41.7084 17.8254 41.5616 18.0924 41.351 18.3529C41.2453 18.4774 41.1186 18.6035 40.9683 18.6968C40.8179 18.79 40.6229 18.852 40.4442 18.8547C40.0771 18.8725 39.7494 18.7246 39.4653 18.5965C39.1813 18.4683 38.8954 18.3172 38.6267 18.1183C38.3589 17.9308 38.1187 17.6948 37.91 17.4562L37.7582 17.2711L37.688 17.1839L37.6415 17.1296C37.6292 17.1074 37.6168 17.0851 37.6054 17.0744C37.5087 16.9197 37.4443 16.7741 37.3876 16.593C37.3734 16.5477 37.3697 16.5016 37.3555 16.4563C37.3518 16.4102 37.3462 16.341 37.3634 16.2932C37.3768 16.1993 37.4008 16.1046 37.4466 16.0197C37.5172 15.8516 37.622 15.7156 37.7268 15.5796C37.9374 15.3191 38.184 15.1137 38.4201 14.9092C38.8828 14.5125 39.375 14.0902 39.8947 13.747C40.9427 13.0367 42.1224 12.5247 43.3371 12.1839C43.6357 12.1021 43.9449 12.0193 44.2445 11.9489C44.5441 11.8785 44.8541 11.8074 45.1879 11.7691C45.5112 11.7317 45.8573 11.7156 46.2022 11.8156C46.2878 11.832 46.3752 11.8714 46.4626 11.9108C46.5404 11.9626 46.6269 11.9905 46.6953 12.0547C46.7294 12.0868 46.7731 12.1065 46.8073 12.1385L46.8994 12.2356C46.9336 12.2677 46.9582 12.3122 46.9924 12.3442C47.0275 12.3878 47.0521 12.4322 47.0663 12.4775C47.2321 12.8355 47.2182 13.1847 47.1919 13.5117C47.1552 13.8395 47.0863 14.1583 46.9745 14.4689C46.7691 15.0539 46.5846 15.6372 46.4001 16.2205L45.859 17.9925C45.7673 18.2899 45.6746 18.5758 45.5723 18.874L45.4185 19.3156L45.3746 19.4235L45.3221 19.5554C45.2982 19.6501 45.2628 19.7341 45.238 19.8173Z" fill="#07453A"/>
<path d="M46.3921 15.1868C46.2066 15.2365 46.0296 15.2624 45.8517 15.2766C45.6738 15.2909 45.495 15.2935 45.3266 15.2954C44.9785 15.2884 44.6209 15.2938 44.2755 15.3215C43.5735 15.3661 42.8847 15.4444 42.2139 15.6143C41.5421 15.7726 40.8891 16.0341 40.3073 16.3943C40.1682 16.4984 40.0169 16.5803 39.8778 16.6844C39.7502 16.7991 39.5997 16.8925 39.4835 17.018C39.3672 17.1434 39.2396 17.2583 39.1128 17.3846L38.7764 17.7832C38.7373 17.8212 38.6754 17.8378 38.6299 17.795C38.5957 17.7628 38.5806 17.706 38.6092 17.6689C38.9907 17.0458 39.5062 16.5166 40.1043 16.0969C40.7137 15.6879 41.3953 15.3894 42.0947 15.1823C42.7951 14.9869 43.5239 14.882 44.2469 14.8358C44.6141 14.818 44.9708 14.801 45.3294 14.8072C45.6879 14.8133 46.0484 14.8425 46.3972 14.9889C46.4514 15.0078 46.4779 15.0754 46.4607 15.1233C46.453 15.1587 46.434 15.1835 46.3921 15.1868Z" fill="#07453A"/>
<path d="M54.9789 22.3921C54.9855 22.3044 54.9816 22.2049 54.9994 22.1179C55.0027 22.0741 55.0067 22.0194 55.0213 21.9763L55.0416 21.8564C55.0651 21.6927 55.0999 21.53 55.1339 21.3781C55.2027 21.0634 55.2836 20.7385 55.375 20.4254C55.5577 19.7993 55.7847 19.1875 56.0221 18.5875L56.7562 16.7999C56.8797 16.5112 56.9936 16.1998 57.1639 15.8926C57.3333 15.5963 57.5375 15.2917 57.8816 15.0855C57.9291 15.0559 57.9646 15.0364 58.0113 15.0177L58.0814 14.99C58.1047 14.9807 58.1394 14.9721 58.174 14.9636C58.2892 14.939 58.4019 14.9475 58.4921 14.9541C58.683 14.9792 58.8593 15.0473 59.013 15.1138C59.331 15.2585 59.6239 15.4345 59.8927 15.6307C60.4181 16.0334 60.9097 16.4335 61.4109 16.8564C61.9122 17.2793 62.3884 17.7334 62.8163 18.2281C63.2442 18.7228 63.622 19.2801 63.9556 19.823C64.1276 20.1004 64.2997 20.3776 64.4596 20.6651C64.6196 20.9525 64.7674 21.2502 64.879 21.5782C64.9231 21.7468 64.9897 21.9172 64.9371 22.167C64.8748 22.394 64.7394 22.5383 64.6056 22.6608C64.3387 22.8947 64.0317 23.0595 63.7263 23.2024C63.421 23.3453 63.1068 23.4546 62.7934 23.5528C62.48 23.651 62.157 23.7263 61.8243 23.779C61.6528 23.7994 61.4812 23.8199 61.2904 23.7948C61.1108 23.7705 60.9442 23.7251 60.7687 23.646C60.6045 23.5678 60.4436 23.4456 60.3302 23.2939C60.216 23.1531 60.138 22.982 60.0706 22.8226C59.959 22.4946 59.9038 22.1707 59.8236 21.8781C59.7442 21.5745 59.6285 21.3013 59.4412 21.078C59.0664 20.6313 58.3957 20.5048 57.7861 20.4709C57.4921 20.4603 57.2013 20.56 57.0151 20.7779C56.8175 20.9949 56.7052 21.2843 56.5922 21.5847C56.5356 21.7349 56.4791 21.8852 56.3992 22.0447C56.3201 22.1933 56.2289 22.352 56.062 22.461C55.9065 22.5708 55.6995 22.6107 55.5312 22.5873C55.441 22.5806 55.3516 22.5629 55.2744 22.5352L55.2075 22.5193C55.1858 22.5066 55.152 22.5042 55.1303 22.4916C55.0764 22.4545 55.0224 22.4174 54.9789 22.3921ZM55.1562 22.2949C55.19 22.2974 55.2134 22.2881 55.2352 22.3007C55.2464 22.3016 55.2577 22.3024 55.2682 22.3142L55.3237 22.3295C55.4018 22.3462 55.4686 22.3621 55.5475 22.3679C55.6941 22.3787 55.8327 22.3449 55.9407 22.2647C56.0487 22.1844 56.1262 22.0577 56.1932 21.9193C56.2601 21.7809 56.3167 21.6307 56.3619 21.4796C56.475 21.1792 56.5784 20.856 56.8147 20.5757C56.9268 20.4406 57.0824 20.3306 57.258 20.2554C57.4337 20.1801 57.6053 20.1598 57.7865 20.1621C58.1263 20.1651 58.4524 20.2001 58.7849 20.3018C59.1069 20.3917 59.4337 20.5703 59.675 20.8307C59.79 20.9605 59.8921 21.1113 59.9709 21.2715C60.0496 21.4316 60.0945 21.5895 60.1507 21.748C60.2405 22.0634 60.2957 22.3872 60.3993 22.6705C60.5029 22.9538 60.6677 23.1756 60.9196 23.2934C61.0404 23.3464 61.1853 23.3791 61.3311 23.4008C61.4543 23.4209 61.6145 23.3997 61.7635 23.3776C62.3717 23.2791 62.988 23.0708 63.5625 22.8154C63.8445 22.6818 64.1169 22.5256 64.3353 22.3322C64.4441 22.241 64.5208 22.1252 64.5499 22.0392C64.5515 22.0172 64.5532 21.9953 64.5548 21.9734L64.5501 21.8847C64.5324 21.8173 64.526 21.7508 64.4971 21.6825C64.4048 21.4 64.2553 21.1242 64.1059 20.8485C63.9564 20.5729 63.7836 20.3065 63.6115 20.0292C63.2667 19.4855 62.9202 18.9636 62.5019 18.4916C62.0958 18.0096 61.6292 17.5782 61.1384 17.1671C60.6476 16.756 60.1335 16.3541 59.641 15.965C59.394 15.7813 59.1228 15.6181 58.8483 15.4986C58.7163 15.4447 58.573 15.39 58.449 15.3808C58.3145 15.3599 58.2678 15.3786 58.1381 15.4462C57.9245 15.5738 57.7366 15.8136 57.6034 16.0794C57.4589 16.3445 57.3467 16.6339 57.2215 16.9445L56.4987 18.7329C56.2613 19.3329 56.0359 19.9227 55.8097 20.5236C55.7079 20.8248 55.5949 21.1253 55.4931 21.4266C55.4365 21.5768 55.3913 21.7278 55.346 21.8788L55.3153 21.9868C55.3015 22.0189 55.2999 22.0409 55.2861 22.073L55.1562 22.2949Z" fill="#07453A"/>
<path d="M56.8259 17.3883C57.1818 17.4807 57.4868 17.6466 57.7782 17.8445C58.0695 18.0425 58.3608 18.2405 58.6408 18.4376C59.2114 18.8436 59.7682 19.2815 60.2887 19.75C60.8085 20.2294 61.3032 20.7401 61.7262 21.3006C62.1492 21.8611 62.523 22.4732 62.7921 23.1217C62.8106 23.1782 62.7839 23.2313 62.7372 23.2499C62.6904 23.2685 62.6349 23.2535 62.6043 23.2071C62.2869 22.5992 61.8985 22.0303 61.4497 21.512C61.0122 20.9945 60.515 20.5165 59.9928 20.07C59.4707 19.6234 58.9234 19.2083 58.3634 18.8141C58.0833 18.617 57.792 18.4189 57.5111 18.2328C57.3711 18.1342 57.2198 18.0348 57.0919 17.9262C56.9527 17.8166 56.8256 17.6971 56.7122 17.5454C56.6816 17.499 56.6866 17.4331 56.7349 17.3926C56.7583 17.3833 56.7929 17.3749 56.8259 17.3883Z" fill="#07453A"/>
<path d="M46.1101 12.0442C46.235 12.1617 46.2557 12.2875 46.2554 12.4151L46.2546 12.7976C46.2541 13.0527 46.2423 13.2971 46.2209 13.5538C46.1772 14.0558 46.1126 14.5594 45.9731 15.0459C45.9569 15.1052 45.9066 15.1324 45.8525 15.1136C45.8099 15.1054 45.7749 15.0618 45.7816 15.0149C45.7835 14.5163 45.7969 14.0284 45.7884 13.5306L45.7814 12.7894L45.7726 12.4191C45.7729 12.2916 45.7949 12.1738 45.9005 12.0494C45.9594 11.9983 46.0429 11.9917 46.1101 12.0442C46.0996 12.0451 46.1101 12.0442 46.1101 12.0442Z" fill="#07453A"/>
<path d="M45.2014 12.0129C45.3264 12.1304 45.3574 12.2555 45.3581 12.3945C45.3578 12.522 45.3576 12.6495 45.3573 12.7771C45.3568 13.0321 45.3354 13.2888 45.3244 13.5447C45.2808 14.0467 45.2162 14.5504 45.109 15.0459C45.1032 15.1043 45.0424 15.1323 44.9893 15.125C44.9466 15.1169 44.9117 15.0733 44.908 15.0272C44.8777 14.5196 44.8796 14.021 44.8816 13.5224C44.883 13.2788 44.8836 13.0238 44.885 12.7803C44.8853 12.6528 44.876 12.5376 44.8763 12.4101C44.8765 12.2825 44.8881 12.1656 45.0032 12.0289C45.0498 11.9556 45.1333 11.9489 45.2014 12.0129C45.1901 12.0023 45.2005 12.0014 45.2014 12.0129Z" fill="#07453A"/>
<path d="M44.2324 12.2769C44.3563 12.3828 44.3865 12.4963 44.3957 12.6115L44.413 12.9578C44.4211 13.189 44.4187 13.421 44.4164 13.653C44.4012 14.1179 44.3538 14.5738 44.2647 15.033C44.2589 15.0914 44.1982 15.1194 44.1451 15.1121C44.1024 15.104 44.0675 15.0604 44.0647 15.0259C44.0173 14.566 44.002 14.1152 43.9764 13.6652L43.9427 12.984L43.9264 12.6492C43.9171 12.5341 43.9401 12.4279 44.0456 12.3035C44.0827 12.2425 44.1765 12.235 44.2324 12.2769Z" fill="#07453A"/>
<path d="M43.3313 12.4658C43.4553 12.5717 43.4844 12.6737 43.4928 12.7773L43.5082 13.1006C43.5154 13.3203 43.5216 13.5284 43.5287 13.7481C43.5317 14.1767 43.5242 14.6063 43.4749 15.0391C43.4691 15.0975 43.4197 15.1363 43.3667 15.129C43.324 15.1208 43.29 15.0887 43.2758 15.0435C43.1895 14.6215 43.1335 14.1856 43.0888 13.7603C43.0713 13.5415 43.0442 13.335 43.037 13.1153L43.0111 12.7929C43.0028 12.6892 43.0249 12.5715 43.1313 12.4586C43.1911 12.4191 43.2755 12.4239 43.3313 12.4658Z" fill="#07453A"/>
<path d="M42.5093 12.7289C42.6419 12.8109 42.671 12.9129 42.6907 13.0273C42.699 13.1309 42.7074 13.2346 42.7157 13.3382C42.7323 13.5455 42.7281 13.7546 42.7239 13.9635C42.7155 14.3815 42.6739 14.7789 42.6124 15.1896C42.6066 15.248 42.5468 15.2875 42.4928 15.2687C42.4501 15.2605 42.416 15.2285 42.4123 15.1824C42.3478 14.7704 42.3258 14.3664 42.2934 13.9633C42.2777 13.7675 42.2611 13.5603 42.2454 13.3645C42.237 13.2609 42.2296 13.1687 42.2109 13.0659C42.2025 12.9622 42.216 12.8684 42.312 12.7564C42.37 12.6938 42.4534 12.687 42.5093 12.7289Z" fill="#07453A"/>
<path d="M41.6275 13.1596C41.7592 13.2301 41.7988 13.3312 41.8166 13.4225L41.8502 13.7096C41.8764 13.9045 41.8817 14.1012 41.8965 14.2855C41.9165 14.6664 41.9262 15.0481 41.9159 15.4431C41.9101 15.5015 41.8711 15.5395 41.8086 15.5445C41.7668 15.5479 41.7327 15.5158 41.7186 15.4706C41.5942 15.0981 41.5315 14.709 41.4696 14.3314C41.4435 14.1365 41.4078 13.9538 41.3826 13.7704L41.3395 13.4957C41.3217 13.4044 41.3352 13.3106 41.4312 13.1986C41.4778 13.1253 41.5612 13.1185 41.6275 13.1596Z" fill="#07453A"/>
<path d="M40.8539 13.5001C40.9856 13.5707 41.0234 13.6488 41.0412 13.7401L41.0834 14.0033C41.1191 14.1859 41.1329 14.3587 41.1582 14.5421C41.1973 14.8983 41.2364 15.2546 41.2347 15.6256C41.2394 15.6832 41.1899 15.7219 41.1273 15.727C41.0856 15.7303 41.0515 15.6983 41.0383 15.6646L41.0373 15.653C40.9052 15.3159 40.8139 14.9639 40.7331 14.611C40.6983 14.44 40.6522 14.2583 40.6175 14.0872L40.5649 13.8248C40.547 13.7335 40.5605 13.6397 40.6575 13.5391C40.705 13.4773 40.7876 13.4591 40.8539 13.5001Z" fill="#07453A"/>
<path d="M40.1298 13.9297C40.2615 14.0002 40.2993 14.0784 40.3171 14.1697L40.3592 14.4329C40.394 14.604 40.4079 14.7768 40.4331 14.9602C40.4722 15.3165 40.5104 15.6611 40.5078 16.0206C40.5124 16.0782 40.463 16.1171 40.4004 16.1221C40.3586 16.1255 40.3246 16.0933 40.3009 16.0605C40.1688 15.7233 40.0784 15.3829 39.9871 15.0309C39.9523 14.8598 39.9072 14.6895 39.8715 14.5068L39.8189 14.2445C39.8011 14.1532 39.8155 14.0709 39.9115 13.9589C39.9809 13.9069 40.0644 13.9002 40.1298 13.9297Z" fill="#07453A"/>
<path d="M38.182 15.5231C38.3128 15.5822 38.362 15.671 38.3798 15.7623L38.4429 16.0238C38.4881 16.1941 38.5238 16.3766 38.5585 16.5477C38.629 16.9014 38.7099 17.2543 38.7499 17.6221C38.7545 17.6796 38.7165 17.729 38.6643 17.7332C38.6225 17.7366 38.5789 17.7169 38.5657 17.6832C38.3918 17.3494 38.27 17.0114 38.1474 16.6619C38.0917 16.4925 38.0352 16.3116 37.9891 16.1298L37.9251 15.8568C37.9072 15.7655 37.9103 15.6725 38.0064 15.5604C38.0331 15.5003 38.1166 15.4936 38.182 15.5231Z" fill="#07453A"/>
<path d="M38.7743 15.024C38.9051 15.083 38.9533 15.1603 38.9703 15.2401L39.0219 15.491C39.0558 15.6506 39.0905 15.8216 39.1244 15.9812C39.1825 16.3127 39.2302 16.6451 39.2362 16.9808C39.2408 17.0384 39.1923 17.0886 39.1392 17.0813C39.0974 17.0846 39.0633 17.0527 39.0397 17.0198C38.8989 16.7065 38.7895 16.3907 38.6905 16.074C38.6462 15.9153 38.5915 15.7574 38.5568 15.5863L38.4956 15.3479C38.4787 15.2681 38.4817 15.175 38.5787 15.0745C38.6263 15.0127 38.7098 15.006 38.7743 15.024Z" fill="#07453A"/>
<path d="M39.395 14.4871C39.5354 14.5338 39.5827 14.5996 39.611 14.69L39.6731 14.9401C39.7174 15.0988 39.7417 15.2707 39.7755 15.4303C39.8233 15.7627 39.8596 16.0843 39.876 16.4192C39.8806 16.4768 39.8321 16.5271 39.7799 16.5313C39.7382 16.5346 39.7041 16.5026 39.6804 16.4698C39.5301 16.1688 39.4406 15.8398 39.3426 15.5346L39.2107 15.07L39.14 14.8438C39.1126 14.7649 39.1166 14.6834 39.2022 14.5722C39.2584 14.4865 39.3305 14.4691 39.395 14.4871Z" fill="#07453A"/>
<path d="M58.9316 15.3781C58.9759 15.5434 58.9337 15.6524 58.8803 15.7613L58.6991 16.0656C58.5817 16.2721 58.4539 16.4675 58.3253 16.6739C58.0801 17.0758 57.835 17.4777 57.6011 17.8798C57.5752 17.9233 57.517 17.9443 57.4621 17.9215C57.4185 17.8989 57.3991 17.8547 57.4137 17.811C57.528 17.3411 57.7312 16.8946 57.9449 16.4592C58.0517 16.2415 58.1691 16.035 58.2864 15.8285L58.4563 15.5241C58.5089 15.4262 58.5954 15.3288 58.7571 15.2876C58.8379 15.2669 58.9146 15.3011 58.9316 15.3781Z" fill="#07453A"/>
<path d="M59.8095 15.8625C59.8701 16.0251 59.8376 16.1357 59.7922 16.2566L59.6466 16.5848C59.5455 16.8033 59.4324 17.0209 59.3313 17.2394C59.1051 17.6746 58.8555 18.0968 58.5715 18.4938C58.5441 18.537 58.4701 18.5542 58.4244 18.517C58.3899 18.4918 58.3692 18.4451 58.3846 18.401C58.5514 17.9502 58.7424 17.5009 58.9213 17.0509C59.0224 16.8324 59.1123 16.6019 59.2013 16.3825L59.3469 16.0543C59.3914 15.9446 59.46 15.8367 59.6217 15.7809C59.6965 15.7525 59.7784 15.7924 59.8095 15.8625Z" fill="#07453A"/>
<path d="M64.6023 21.394C64.661 21.5195 64.644 21.5955 64.6053 21.6588L64.4891 21.8487C64.4117 21.9753 64.3231 22.1009 64.2457 22.2275C64.0683 22.479 63.9031 22.7203 63.6823 22.9465C63.6452 22.9879 63.5768 22.9938 63.535 22.9467C63.5029 22.9222 63.4948 22.8775 63.5085 22.8455C63.5982 22.5545 63.7321 22.2777 63.8652 22.0119C63.9322 21.8736 63.9983 21.7463 64.0765 21.6088L64.1935 21.4079C64.2322 21.3447 64.2926 21.2939 64.4294 21.282C64.5083 21.2878 64.5734 21.3257 64.6023 21.394Z" fill="#07453A"/>
<path d="M64.2334 20.7157C64.2783 20.8733 64.2355 20.9914 64.1831 21.0868L64.0017 21.3931C63.8848 21.5938 63.7566 21.7937 63.6293 21.9827C63.3738 22.3717 63.1183 22.7606 62.841 23.1369C62.804 23.1783 62.746 23.1961 62.7034 23.1599C62.6712 23.1355 62.652 23.09 62.6665 23.047C62.8247 22.5958 63.0368 22.1816 63.2489 21.7674C63.3658 21.5666 63.4723 21.354 63.5892 21.1532L63.7593 20.8461C63.8126 20.7398 63.8979 20.658 64.0597 20.6149C64.1402 20.5988 64.2166 20.6373 64.2334 20.7157Z" fill="#07453A"/>
<path d="M63.7828 20.0545C63.8277 20.2121 63.7971 20.3202 63.7334 20.4147L63.5648 20.6997C63.4487 20.8896 63.3327 21.0795 63.2166 21.2693C62.9731 21.6481 62.7184 22.0261 62.4427 22.3805C62.4057 22.4218 62.3485 22.4287 62.305 22.4035C62.2729 22.3791 62.2544 22.3226 62.2682 22.2906C62.4352 21.873 62.6361 21.4578 62.8361 21.0537C62.9418 20.8521 63.0474 20.6505 63.1635 20.4607L63.3328 20.1647C63.3853 20.0694 63.4715 19.9764 63.6212 19.9433C63.6792 19.9256 63.7548 19.9753 63.7828 20.0545Z" fill="#07453A"/>
<path d="M63.383 19.32C63.4167 19.4768 63.386 19.5848 63.3223 19.6793L63.1434 19.9527C63.0273 20.1425 62.9007 20.3206 62.7733 20.5096C62.5194 20.8767 62.2542 21.2428 61.9577 21.5736C61.9207 21.615 61.8523 21.6209 61.8097 21.5847C61.7783 21.5493 61.7703 21.5046 61.7849 21.4616C61.9736 21.0567 62.1841 20.6645 62.3937 20.2831C62.5098 20.0933 62.6155 19.8917 62.7316 19.7018L62.9113 19.4176C62.975 19.3231 63.0491 19.2402 63.2101 19.208C63.2898 19.2029 63.3654 19.2526 63.383 19.32Z" fill="#07453A"/>
<path d="M62.7964 18.6594C62.83 18.8162 62.7768 18.9225 62.7131 19.017L62.5108 19.2996C62.3834 19.4887 62.2448 19.6769 62.1061 19.8651C61.8288 20.2414 61.5524 20.6068 61.2429 20.9588C61.2059 21.0001 61.1374 21.006 61.0948 20.9698C61.0635 20.9344 61.0555 20.8898 61.07 20.8467C61.2717 20.4207 61.4943 20.0183 61.7281 19.6167C61.845 19.4159 61.9732 19.216 62.1006 19.027L62.2925 18.7324C62.3562 18.6379 62.4416 18.5561 62.6139 18.5247C62.7153 18.5322 62.7908 18.5818 62.7964 18.6594Z" fill="#07453A"/>
<path d="M62.1441 17.8172C62.189 17.9748 62.1567 18.1046 62.0922 18.21L61.9092 18.5382C61.7915 18.7499 61.6625 18.9608 61.5335 19.1717C61.2764 19.5826 61.008 19.9926 60.7179 20.39C60.6808 20.4313 60.6228 20.4492 60.5802 20.413C60.5368 20.3877 60.5288 20.3431 60.5434 20.3C60.7136 19.8387 60.9282 19.3917 61.1532 18.9564C61.2709 18.7446 61.3782 18.5209 61.4959 18.3092L61.6668 17.9912C61.72 17.8849 61.8062 17.7921 61.9575 17.7371C62.0397 17.6991 62.1273 17.7388 62.1441 17.8172Z" fill="#07453A"/>
<path d="M61.4196 17.1686C61.4757 17.3271 61.4329 17.4451 61.3789 17.5624L61.1967 17.8796C61.079 18.0913 60.9508 18.2913 60.8218 18.5022C60.5647 18.9131 60.2979 19.3012 60.0191 19.6995C59.982 19.7408 59.924 19.7585 59.8814 19.7223C59.838 19.697 59.83 19.6523 59.8446 19.6093C60.0036 19.1471 60.2285 18.7118 60.4414 18.2867L60.7833 17.6506L60.9543 17.3326C61.0075 17.2263 61.0824 17.1326 61.245 17.0785C61.3038 17.0497 61.3915 17.0894 61.4196 17.1686C61.4091 17.1568 61.4196 17.1686 61.4196 17.1686Z" fill="#07453A"/>
<path d="M60.6963 16.6633C60.7412 16.8209 60.7097 16.9396 60.646 17.0341L60.4654 17.3295L60.1051 17.9091C59.8625 18.277 59.6608 18.7029 59.3611 19.0776C59.324 19.1189 59.2669 19.1259 59.213 19.0888C59.1809 19.0644 59.1624 19.0079 59.1874 18.9767C59.3657 18.56 59.4997 18.129 59.7239 17.7047C59.8304 17.4921 59.9473 17.2912 60.0634 17.1014L60.2326 16.8054C60.285 16.71 60.3712 16.6171 60.521 16.584C60.5918 16.5452 60.6682 16.5841 60.6963 16.6633Z" fill="#07453A"/>
<path d="M36.5303 18.3643C36.1419 17.8339 35.7696 17.2876 35.4459 16.709C35.2841 16.4197 35.1385 16.1145 35.009 15.8091C34.8795 15.5038 34.7824 15.1663 34.7015 14.8449C34.6205 14.5074 34.5882 14.17 34.572 13.8325C34.572 13.6557 34.5558 13.495 34.572 13.3182C34.572 13.1575 34.5882 12.9646 34.6205 12.8039C34.6853 12.4664 34.7824 12.1451 34.8795 11.8237C34.9766 11.5023 35.1061 11.1968 35.2194 10.8914C35.4783 10.2808 35.7535 9.67021 36.061 9.09167C36.2228 8.8024 36.3846 8.497 36.5788 8.2238C36.7568 7.93453 36.9672 7.67746 37.1776 7.40426C37.5984 6.89001 38.0516 6.39179 38.5371 5.92574C39.0226 5.4597 39.5243 5.0257 40.0421 4.62393C40.5762 4.22217 41.1103 3.83654 41.6767 3.48299C42.2432 3.12943 42.8258 2.80802 43.4246 2.51875C43.7321 2.37412 44.0396 2.24555 44.3471 2.11699C44.428 2.08485 44.5089 2.05277 44.5898 2.02063L44.8488 1.94028C45.0106 1.89207 45.1887 1.85989 45.3505 1.82775C46.0302 1.71526 46.6938 1.69922 47.3735 1.69922C48.7168 1.73136 50.0277 1.89197 51.3386 2.08482C52.6495 2.27766 53.9442 2.53486 55.2389 2.79198C56.5336 3.04911 57.8282 3.33829 59.1068 3.74005C60.3853 4.12575 61.6153 4.65611 62.7482 5.37928C63.881 6.08638 64.9007 6.98643 65.7099 8.04709C66.5353 9.09167 67.1988 10.2647 67.6357 11.5343C68.0727 12.7878 68.2508 14.1217 68.267 15.4555C68.267 16.7733 68.105 18.0911 67.8461 19.3928C67.7166 20.0357 67.5711 20.6785 67.3769 21.3213C67.1826 21.9641 66.9399 22.5748 66.6486 23.1694C66.3411 23.764 65.985 24.3265 65.5157 24.8246C65.0625 25.3228 64.4799 25.7246 63.8325 25.9174C63.784 25.9335 63.7193 25.9014 63.7031 25.8532C63.6869 25.805 63.7193 25.7408 63.7679 25.7247C64.3829 25.5318 64.9168 25.1461 65.3376 24.6639C65.7745 24.1818 66.1145 23.6354 66.4058 23.0569C66.6971 22.4783 66.9237 21.8677 67.1017 21.2409C67.2635 20.6142 67.4092 19.9713 67.5387 19.3285C67.7814 18.0428 67.9433 16.7573 67.9109 15.4555C67.8947 15.1341 67.8947 14.8127 67.8624 14.4913L67.8138 14.0092L67.7329 13.5271L67.7005 13.286L67.652 13.045L67.5548 12.5789C67.5224 12.4181 67.4577 12.2736 67.4254 12.1129C67.3768 11.9522 67.3444 11.8075 67.2797 11.6468C66.8427 10.4254 66.2116 9.28442 65.4024 8.27198C64.5932 7.25953 63.606 6.39173 62.5217 5.70069C61.4212 5.00966 60.2074 4.5115 58.9612 4.12581C57.715 3.74012 56.4203 3.46688 55.1418 3.20976C53.8471 2.95263 52.5524 2.7116 51.2576 2.51875C49.9629 2.32591 48.652 2.1813 47.3411 2.14916C46.6938 2.14916 46.0464 2.16526 45.4152 2.26169C45.2534 2.29383 45.1078 2.30984 44.9621 2.35805L44.7355 2.42239C44.6546 2.43846 44.5898 2.48668 44.5089 2.50275C44.2014 2.61524 43.9101 2.75978 43.6188 2.88835C43.0362 3.17762 42.4697 3.48302 41.9195 3.83657C41.3692 4.19012 40.8352 4.55975 40.3173 4.96151C39.8156 5.36327 39.3139 5.79718 38.8446 6.24715C38.3752 6.69713 37.9382 7.17915 37.5336 7.67734C37.3394 7.93447 37.1452 8.19166 36.9672 8.46486C36.7892 8.72199 36.6273 9.01119 36.4817 9.28439C36.1742 9.86293 35.8991 10.4415 35.6564 11.0361C35.5269 11.3415 35.4136 11.6307 35.3165 11.936C35.2194 12.2414 35.1223 12.5467 35.0737 12.8521C35.0414 13.0128 35.0251 13.1413 35.0251 13.302C35.0089 13.4627 35.009 13.6235 35.009 13.7681C35.009 14.0895 35.0413 14.395 35.106 14.7164C35.1546 15.0217 35.2355 15.3269 35.3488 15.6323C35.4459 15.9376 35.5754 16.2269 35.7211 16.5161C35.9962 17.0947 36.3522 17.6572 36.6759 18.2197C36.7083 18.2679 36.6921 18.3321 36.6435 18.3643C36.6273 18.4125 36.5627 18.3964 36.5303 18.3643Z" fill="#07453A"/>
<path d="M13.2087 21.1603C12.6261 21.8192 11.9948 22.4299 11.396 23.0406C10.781 23.6513 10.1984 24.2941 9.64817 24.9691C8.56383 26.319 7.62511 27.7974 7.0263 29.4045C6.4113 31.0115 6.18474 32.7632 6.39513 34.4667C6.50842 35.3184 6.70265 36.1702 6.97778 36.9898C7.26909 37.8094 7.62516 38.5968 8.04595 39.3682C8.07832 39.4164 8.06209 39.4807 7.99735 39.4967C7.9488 39.5289 7.88409 39.5129 7.86791 39.4647C6.96159 37.9541 6.29807 36.2826 6.03913 34.5149C5.79636 32.7471 6.00676 30.9313 6.60557 29.2599C7.20439 27.5886 8.17544 26.0619 9.27597 24.6798C9.82623 23.9888 10.425 23.3298 11.0562 22.703C11.6874 22.0763 12.3509 21.4978 13.0954 20.9996C13.1439 20.9675 13.2087 20.9836 13.2411 21.0318C13.2573 21.08 13.2411 21.1282 13.2087 21.1603Z" fill="#07453A"/>
<path d="M16.1058 20.3241C15.2804 20.8383 14.4873 21.3847 13.7429 21.9793C12.9822 22.5739 12.2702 23.2328 11.6228 23.9399C10.9755 24.647 10.3766 25.4184 9.87493 26.238C9.74546 26.4309 9.63222 26.6559 9.51893 26.8648L9.35709 27.1862C9.30854 27.2987 9.24374 27.3951 9.21138 27.5076C9.03335 27.9415 8.88776 28.3916 8.79066 28.8576C8.58026 29.7897 8.48316 30.7539 8.46698 31.7182C8.45079 32.6824 8.49933 33.6466 8.61262 34.6109C8.7259 35.5751 8.8877 36.5233 9.13046 37.4554C9.37322 38.3875 9.66459 39.3196 10.0854 40.1874C10.1177 40.2356 10.0853 40.2999 10.0368 40.3159C9.98822 40.332 9.92352 40.316 9.90733 40.2677C9.45418 39.3999 9.11432 38.4677 8.85538 37.5196C8.59643 36.5714 8.40219 35.6073 8.25654 34.643C8.12707 33.6627 8.06238 32.6823 8.06238 31.702C8.06238 30.7217 8.14327 29.7254 8.35366 28.7611C8.46695 28.279 8.59645 27.797 8.79066 27.3309C8.83921 27.2184 8.88776 27.1058 8.9525 26.9934C9.00105 26.8809 9.06578 26.7684 9.11434 26.6559C9.24381 26.447 9.35706 26.222 9.48653 26.0131C10.0044 25.1614 10.6032 24.3739 11.2668 23.6507C11.9303 22.9115 12.6424 22.2366 13.4354 21.6259C14.2122 21.0152 15.07 20.4848 16.0248 20.1634C16.0734 20.1473 16.1382 20.1795 16.1544 20.2277C16.1544 20.2438 16.1381 20.2919 16.1058 20.3241Z" fill="#07453A"/>
<path d="M26.35 17.9618C27.2563 18.1386 28.1302 18.4118 28.9718 18.7653C29.3926 18.9421 29.8134 19.135 30.2342 19.3439C30.4446 19.4564 30.6387 19.5689 30.833 19.6814L31.1243 19.8582L31.4156 20.051C32.9531 21.0634 34.3611 22.3009 35.4778 23.7794C36.0281 24.5186 36.4974 25.3221 36.8696 26.1578C37.2257 27.0095 37.5008 27.8934 37.6302 28.8094C37.9054 30.6414 37.5979 32.5218 36.8858 34.2092C36.8696 34.2574 36.8049 34.2895 36.7563 34.2574C36.7078 34.2413 36.6754 34.1771 36.7078 34.1288C37.0315 33.2932 37.2419 32.4093 37.3552 31.5254C37.4685 30.6415 37.436 29.7416 37.2904 28.8577C37.1609 27.9739 36.8696 27.122 36.5136 26.3185C36.1413 25.5149 35.672 24.7437 35.1217 24.0366C34.0374 22.6224 32.6779 21.417 31.1566 20.4367L30.8654 20.26L30.574 20.0831C30.3798 19.9706 30.1856 19.8581 29.9914 19.7617C29.603 19.5528 29.1822 19.376 28.7614 19.1992C27.936 18.8618 27.0783 18.5404 26.2529 18.1387C26.2044 18.1065 26.1881 18.0583 26.2043 18.0101C26.269 17.978 26.3015 17.9457 26.35 17.9618Z" fill="#07453A"/>
<path d="M24.7482 18.0911C25.6545 18.2518 26.5446 18.5892 27.3538 19.007C28.1792 19.4409 28.956 19.9391 29.7005 20.4855C30.0727 20.7587 30.4288 21.0479 30.7848 21.3372C30.9629 21.4818 31.1408 21.6266 31.3027 21.7873C31.4807 21.948 31.6425 22.1087 31.8044 22.2694C32.4517 22.9283 33.0182 23.6835 33.4875 24.4709C33.9406 25.2745 34.3291 26.1102 34.6204 26.994C34.9117 27.8618 35.1382 28.7619 35.2677 29.6618C35.3001 29.8868 35.3163 30.1117 35.3486 30.3367L35.381 30.6742L35.3972 31.0117C35.3972 31.2366 35.4296 31.4616 35.4134 31.7027L35.3972 32.3938C35.3487 33.3098 35.2192 34.2258 34.9602 35.0936C34.9441 35.1418 34.8955 35.1739 34.8308 35.1578C34.7822 35.1417 34.7499 35.0936 34.7661 35.0454C34.9765 34.1776 35.0897 33.2776 35.1059 32.3776C35.1221 31.4777 35.0412 30.5777 34.8955 29.6938C34.7499 28.81 34.5071 27.9423 34.2158 27.0906C33.9083 26.2549 33.536 25.4352 33.0829 24.6638C32.6297 23.8924 32.0795 23.1854 31.4645 22.5587C31.3027 22.414 31.1408 22.2533 30.979 22.1087C30.801 21.9641 30.6392 21.8194 30.4611 21.6748C30.1213 21.3855 29.7652 21.1122 29.393 20.8551C28.6647 20.3248 27.9041 19.8427 27.1111 19.4409L26.8198 19.2802L26.5123 19.1357C26.3181 19.0393 26.1077 18.9427 25.8973 18.8463L24.6673 18.2838C24.6187 18.2678 24.5864 18.2035 24.6187 18.1553C24.6673 18.1071 24.7158 18.075 24.7482 18.0911Z" fill="#07453A"/>
<path d="M17.4492 20.1164C16.7695 20.8074 16.0574 21.4662 15.3776 22.1412C14.6979 22.8162 14.0506 23.5233 13.4842 24.2947C12.3513 25.8214 11.7201 27.6534 11.3803 29.5337C11.2022 30.4658 11.1375 31.43 11.1213 32.3782C11.1213 33.3263 11.1698 34.2905 11.3155 35.2387C11.4611 36.1869 11.6554 37.119 11.9305 38.035C12.0114 38.26 12.0761 38.5011 12.1571 38.71C12.238 38.935 12.3512 39.1439 12.4483 39.3529C12.6749 39.7707 12.9177 40.1885 13.1119 40.6385C13.1281 40.6867 13.1119 40.751 13.0634 40.767C13.0148 40.7831 12.95 40.7671 12.9339 40.7189C12.7235 40.285 12.4645 39.8832 12.2218 39.4654C12.1085 39.2565 11.9952 39.0314 11.8981 38.8064C11.801 38.5814 11.7363 38.3404 11.6553 38.1154C11.3479 37.1833 11.1213 36.2352 10.9595 35.287C10.7976 34.3228 10.7329 33.3585 10.7329 32.3782C10.7329 31.3979 10.7814 30.4336 10.9433 29.4533C11.1051 28.4891 11.3479 27.541 11.6877 26.6089C12.0276 25.6929 12.5131 24.809 13.0796 24.0055C13.6622 23.202 14.3095 22.4788 15.0054 21.7878C15.3453 21.4503 15.7175 21.1127 16.0897 20.8074C16.4619 20.502 16.8666 20.2128 17.2874 19.9557C17.3359 19.9235 17.4007 19.9396 17.433 19.9879C17.4978 20.0361 17.4816 20.0842 17.4492 20.1164Z" fill="#07453A"/>
<path d="M18.8407 19.7782C18.3228 20.5818 17.6593 21.2727 17.0281 21.9638C16.3807 22.6387 15.7495 23.3298 15.1993 24.0851C14.9241 24.4547 14.6653 24.8404 14.4549 25.2422C14.2283 25.644 14.0664 26.0618 13.9045 26.4957C13.6132 27.3635 13.4514 28.2794 13.3867 29.2115C13.241 31.0596 13.4352 32.94 13.7751 34.772L13.9045 35.463L14.0503 36.154C14.1474 36.604 14.2768 37.0701 14.3577 37.5362C14.552 38.4522 14.73 39.3842 15.1507 40.2038C15.1831 40.252 15.1508 40.3163 15.1022 40.3323C15.0537 40.3645 14.9889 40.3323 14.9727 40.3002C14.4872 39.4645 14.293 38.5164 14.0826 37.6003C13.9693 37.1504 13.856 36.7004 13.7427 36.2344L13.5809 35.5434L13.4352 34.8524C13.063 33.0042 12.8364 31.1079 12.9497 29.1955C13.0144 28.2473 13.1763 27.2992 13.4676 26.3671C13.6295 25.9172 13.8075 25.4671 14.0341 25.0332C14.2606 24.5993 14.5357 24.1976 14.8109 23.8119C15.3773 23.0405 16.0247 22.3334 16.672 21.6423C16.9957 21.3049 17.3356 20.9674 17.6593 20.6299C17.9991 20.3085 18.339 19.971 18.6788 19.6657C18.7274 19.6336 18.7922 19.6336 18.8245 19.6657C18.8569 19.6978 18.8568 19.7461 18.8407 19.7782Z" fill="#07453A"/>
<path d="M19.9736 19.4572C19.4881 20.1964 19.0026 20.8875 18.5494 21.6267C18.0963 22.366 17.7241 23.1373 17.4166 23.9408C16.8178 25.5478 16.575 27.2835 16.6074 29.003C16.6236 30.7225 16.9149 32.4422 17.3195 34.1296C17.7079 35.817 18.2257 37.4883 18.7598 39.1436C18.776 39.1918 18.7436 39.2561 18.6951 39.2721C18.6465 39.2882 18.5818 39.256 18.5656 39.2078C17.9668 37.5686 17.4165 35.8973 16.9796 34.2099C16.5426 32.5064 16.2351 30.7708 16.1704 29.003C16.1219 27.2352 16.3808 25.4514 16.9796 23.7801C17.2871 22.9444 17.6755 22.141 18.1286 21.3857C18.598 20.6304 19.1482 19.9231 19.8117 19.3285C19.8603 19.2964 19.9251 19.2965 19.9574 19.3447C20.006 19.3607 20.0059 19.409 19.9736 19.4572Z" fill="#07453A"/>
<path d="M20.7342 19.3441C20.54 20.1637 20.2649 20.9351 20.0059 21.7225C19.747 22.51 19.5042 23.2974 19.31 24.1009C18.9216 25.708 18.6788 27.3473 18.7111 28.9864C18.7273 30.6256 19.0672 32.2487 19.488 33.8558C19.6984 34.6593 19.9088 35.4628 20.1354 36.2664L20.2972 36.861C20.3458 37.0538 20.4267 37.2466 20.4915 37.4395C20.6371 37.8252 20.8151 38.2109 20.8799 38.6448C20.8961 38.693 20.8475 38.7573 20.799 38.7573C20.7504 38.7734 20.7019 38.7251 20.6857 38.6769C20.6048 38.2912 20.4267 37.9056 20.2649 37.536C20.184 37.3431 20.1031 37.1503 20.0383 36.9413L19.8603 36.3467C19.6175 35.5593 19.3586 34.7557 19.1481 33.9521C18.7112 32.3451 18.3227 30.7059 18.2741 29.0025C18.2255 27.315 18.4683 25.6438 18.8568 24.0046C19.051 23.185 19.2776 22.3815 19.5528 21.594C19.8117 20.8066 20.1354 20.0191 20.54 19.296C20.5724 19.2477 20.6372 19.2316 20.6857 19.2638C20.7181 19.2477 20.7342 19.2959 20.7342 19.3441Z" fill="#07453A"/>
<path d="M23.502 18.2994C23.9228 18.4279 24.3274 18.6046 24.7158 18.7975C25.1042 18.9903 25.4926 19.2314 25.8487 19.4725C26.2209 19.7296 26.5608 20.0028 26.9006 20.276C27.2405 20.5653 27.548 20.8707 27.8555 21.1921C28.4543 21.8349 28.9883 22.5581 29.4415 23.3134C29.8946 24.0687 30.2831 24.8561 30.6068 25.6596C30.9304 26.4632 31.2218 27.2989 31.4484 28.1346C31.6749 28.9702 31.8853 29.8219 32.0309 30.6737C32.3384 32.3771 32.5165 34.1128 32.5812 35.8484C32.5812 35.8966 32.5327 35.9448 32.4841 35.9448C32.4356 35.9448 32.387 35.9127 32.387 35.8484C32.2575 34.1289 32.031 32.4092 31.6911 30.7379C31.5293 29.9022 31.3188 29.0666 31.0761 28.2309C30.8333 27.4113 30.542 26.5918 30.2184 25.8043C29.8947 25.0169 29.5062 24.2455 29.0693 23.5223C28.6323 22.783 28.1144 22.108 27.5318 21.4813C27.2405 21.176 26.9329 20.8867 26.6093 20.5974C26.2856 20.3242 25.9458 20.0671 25.5897 19.8261C24.8938 19.344 24.1493 18.91 23.4211 18.4279C23.3725 18.3958 23.3563 18.3314 23.3887 18.2832C23.4048 18.2993 23.4534 18.2833 23.502 18.2994Z" fill="#07453A"/>
<path d="M22.5631 18.6689C23.3075 19.0546 24.0358 19.5368 24.667 20.1153C25.2982 20.6938 25.8808 21.3367 26.3663 22.0438C26.6253 22.3812 26.8357 22.7509 27.0623 23.1205C27.2565 23.4901 27.4669 23.8758 27.6449 24.2615C27.8391 24.6472 27.9847 25.0489 28.1466 25.4346C28.2275 25.6274 28.2923 25.8364 28.357 26.0292C28.4217 26.2381 28.4864 26.431 28.5512 26.6399C28.6645 27.0577 28.7777 27.4595 28.8749 27.8773C28.972 28.2952 29.0367 28.713 29.1176 29.1148C29.2633 29.9505 29.3928 30.7701 29.5061 31.6057C29.6194 32.4414 29.7165 33.277 29.8136 34.1127C29.8621 34.5305 29.8944 34.9485 29.9268 35.3663C29.943 35.7841 29.9754 36.2019 29.9592 36.6358C29.9592 36.684 29.9106 36.7323 29.8459 36.7323C29.7973 36.7323 29.7489 36.684 29.7489 36.6358C29.765 36.234 29.7164 35.8162 29.6841 35.3983C29.6355 34.9805 29.587 34.5627 29.5384 34.1448C29.4251 33.3092 29.2957 32.4896 29.1662 31.6539C29.0367 30.8343 28.8911 29.9987 28.7292 29.1791C28.6483 28.7774 28.5674 28.3595 28.4703 27.9577C28.3731 27.5559 28.2437 27.1542 28.1304 26.7524L27.9362 26.1578C27.8715 25.9649 27.8068 25.7561 27.7258 25.5793C27.564 25.1936 27.4184 24.808 27.2403 24.4383C27.0785 24.0526 26.8681 23.699 26.6739 23.3294C26.4635 22.9759 26.2369 22.6222 25.9941 22.3008C25.5086 21.6259 24.9583 21.0153 24.3433 20.4689C24.0358 20.1957 23.7122 19.9224 23.4047 19.6492C23.081 19.376 22.7573 19.119 22.4498 18.8136C22.4175 18.7815 22.4013 18.7172 22.4498 18.6689C22.4822 18.6529 22.5307 18.6368 22.5631 18.6689Z" fill="#07453A"/>
<path d="M21.2036 19.1029C21.3169 20.7099 21.2684 22.333 21.3332 23.94C21.3493 24.7436 21.3817 25.5633 21.4302 26.3668C21.4464 26.7686 21.4788 27.1703 21.5111 27.5721C21.5597 27.9739 21.6083 28.3756 21.6568 28.7774C21.851 30.3844 22.1424 31.9593 22.547 33.5342C22.9354 35.1091 23.3562 36.6841 23.6798 38.275C23.696 38.3233 23.6637 38.3876 23.5989 38.3876C23.5504 38.4036 23.5018 38.3715 23.4856 38.3072C23.2914 37.5198 23.081 36.7322 22.8544 35.9608C22.644 35.1734 22.4013 34.402 22.1909 33.6146C21.7539 32.0397 21.4302 30.4487 21.2036 28.8256C21.1389 28.4238 21.1065 28.022 21.0418 27.6203C20.9933 27.2024 20.9771 26.8006 20.9447 26.3988C20.8961 25.5792 20.8638 24.7758 20.8314 23.9722C20.7991 23.1526 20.7829 22.3491 20.7667 21.5295C20.7667 21.3205 20.7667 21.1277 20.7667 20.9188C20.7667 20.7099 20.7829 20.5171 20.799 20.3082C20.8314 19.9064 20.8638 19.4885 20.9609 19.0867C20.9771 19.0385 21.0257 19.0063 21.0904 19.0063C21.1713 19.0224 21.2036 19.0547 21.2036 19.1029Z" fill="#07453A"/>
<path d="M21.7701 18.9101C22.2718 19.5529 22.6926 20.26 23.0486 20.9832C23.4047 21.7064 23.7445 22.4456 24.052 23.2009C24.667 24.7115 25.104 26.2864 25.3468 27.9095C25.5733 29.5166 25.7675 31.1076 25.9132 32.7147C26.0589 34.3217 26.156 35.9287 26.1884 37.5518C26.1884 37.6 26.1398 37.6482 26.0912 37.6482C26.0427 37.6482 25.9941 37.6 25.9941 37.5518C25.897 35.9448 25.7513 34.3377 25.5733 32.7467C25.3953 31.1396 25.1849 29.5488 24.926 27.9739C24.6832 26.399 24.2301 24.8561 23.6312 23.3776C23.3238 22.6384 22.9839 21.9153 22.6279 21.1921C22.2718 20.4689 21.8996 19.7617 21.6083 19.0064C21.5921 18.9582 21.6082 18.894 21.673 18.8779C21.6892 18.8618 21.7377 18.8779 21.7701 18.9101Z" fill="#07453A"/>
</svg>
