<svg width="52" height="132" viewBox="0 0 52 132" fill="none" xmlns="http://www.w3.org/2000/svg">
<path d="M16.9222 10.4075C16.9478 10.6827 16.9861 10.98 17.0245 11.2772C17.0629 11.5745 17.0885 11.8607 17.1141 12.1579C17.1653 12.7414 17.2037 13.3359 17.2421 13.9194C17.2677 14.5139 17.2932 15.0973 17.3188 15.6918C17.3316 15.9891 17.3315 16.2863 17.3315 16.5836L17.3315 17.4643C17.3443 19.8202 17.4851 22.1652 17.6387 24.5211C17.7923 26.877 17.9714 29.2219 18.1122 31.5779C18.253 33.9338 18.3297 36.3007 18.3041 38.6567C18.3041 38.7117 18.253 38.7557 18.2018 38.7557C18.1506 38.7557 18.0993 38.7117 18.0993 38.6567C18.0737 36.3007 17.9331 33.9448 17.7539 31.5999C17.5876 29.2439 17.37 26.899 17.1908 24.5431C17.0245 22.1872 16.8838 19.8312 16.8582 17.4643L16.8453 16.5725C16.8453 16.2753 16.8326 15.9891 16.8326 15.6918C16.807 15.1083 16.7813 14.5139 16.7557 13.9304C16.7301 13.3469 16.6917 12.7524 16.6917 12.1579C16.6917 11.8607 16.6789 11.5634 16.6917 11.2662C16.7045 10.969 16.6918 10.6827 16.743 10.3635C16.7558 10.3084 16.807 10.2754 16.8582 10.2754C16.871 10.3084 16.9094 10.3524 16.9222 10.4075Z" fill="#07453A"/>
<path d="M30.5377 9.51664C30.4482 10.6946 30.6018 11.8615 30.7426 13.0505C30.8961 14.2285 31.1264 15.4175 31.2032 16.6285C31.3824 19.0504 31.2032 21.4504 31.216 23.8394C31.2287 25.0283 31.28 26.2283 31.4591 27.3953C31.5487 27.9788 31.6639 28.5733 31.7663 29.1678C31.8687 29.7623 31.9582 30.3567 32.0477 30.9512C32.2141 32.1402 32.3421 33.3402 32.4445 34.5402C32.5341 35.7402 32.5852 36.9401 32.5852 38.1511C32.5852 38.2062 32.5341 38.2502 32.4829 38.2502C32.4317 38.2502 32.3805 38.2062 32.3805 38.1511C32.3421 35.7622 32.0734 33.3732 31.7023 31.0063C31.6128 30.4118 31.5103 29.8283 31.4079 29.2338C31.3055 28.6393 31.1776 28.0669 31.0752 27.4614C30.8705 26.2614 30.8065 25.0504 30.7809 23.8504C30.7425 21.4394 30.9217 19.0395 30.7297 16.6725C30.6401 15.4945 30.4098 14.3166 30.2562 13.1166C30.1794 12.5221 30.1155 11.9166 30.1155 11.3001C30.1155 10.6946 30.1539 10.0671 30.333 9.4836C30.3458 9.42856 30.4098 9.39552 30.461 9.41754C30.5122 9.41754 30.5377 9.46159 30.5377 9.51664Z" fill="#07453A"/>
<path d="M19.6961 38.8519C17.5855 38.9397 15.4747 39.238 13.408 39.6592C12.3673 39.8697 11.3413 40.1154 10.3153 40.3962C9.28928 40.6769 8.27791 40.9928 7.31051 41.3788C7.06133 41.4666 6.82675 41.5894 6.59223 41.6947L6.25514 41.8702C6.19651 41.9053 6.15245 41.9228 6.09382 41.9579C6.04984 41.993 6.00587 42.0281 5.94724 42.0632C5.5808 42.3791 5.31699 42.8178 5.09713 43.274C4.87727 43.7303 4.70135 44.2216 4.55477 44.7305C4.4082 45.2219 4.27639 45.7308 4.15913 46.2397C3.70475 48.2928 3.44091 50.381 3.20639 52.4692C2.98653 54.5575 2.82527 56.6632 2.66403 58.769C2.51746 60.8748 2.38557 62.9805 2.25365 65.0863C2.12173 67.192 1.9897 69.2978 1.84312 71.4036C1.68189 73.5093 1.55 75.5976 1.50603 77.7209C1.38877 81.9324 1.35951 86.1615 1.34485 90.373C1.34485 94.5846 1.34488 98.8136 1.3742 103.025C1.43283 111.466 1.53543 119.906 1.66735 128.347L1.49143 128.136C5.59554 128.786 9.69966 129.4 13.8038 129.997C15.8558 130.295 17.9078 130.576 19.9746 130.839L21.5136 131.032C22.0266 131.085 22.5396 131.155 23.0526 131.207L23.8295 131.278C24.0933 131.295 24.3425 131.313 24.5917 131.313C25.1047 131.33 25.6325 131.295 26.1455 131.295L26.9223 131.278L27.6991 131.242L29.2528 131.172C30.2935 131.102 31.3195 131.049 32.3602 130.944C34.4269 130.769 36.479 130.523 38.5457 130.26C42.6498 129.698 46.7539 128.996 50.7994 128.154L50.6528 128.329C50.9313 124.083 51.1366 119.819 51.2832 115.572C51.3565 113.449 51.415 111.308 51.459 109.185C51.4736 108.114 51.4884 107.061 51.5031 105.991L51.5177 104.394L51.5031 103.604L51.4737 102.815C51.3858 100.691 51.1365 98.5855 50.946 96.4446C50.8434 95.3742 50.7555 94.3213 50.7115 93.2509C50.6529 92.1805 50.6675 91.11 50.6822 90.0396C50.7115 87.9163 50.7701 85.7754 50.8287 83.6521C50.8874 81.5288 50.946 79.3879 50.946 77.2646C50.946 76.1942 50.9167 75.1413 50.8874 74.0709C50.8434 73.0004 50.7848 71.9476 50.6969 70.8947L50.1691 64.5248C49.8027 60.2781 49.4216 56.0315 48.9526 51.8024C48.7181 49.6791 48.4542 47.5733 48.1171 45.4676C48.0291 44.9411 47.9413 44.4147 47.8387 43.9058C47.7361 43.3793 47.6188 42.8705 47.4429 42.3791C47.3989 42.2563 47.3549 42.1334 47.2963 42.0282C47.267 41.9755 47.2376 41.9228 47.2083 41.8702C47.1936 41.8527 47.1791 41.8351 47.1497 41.8175L47.0765 41.7474L46.7686 41.5017L46.4462 41.2736C46.0065 40.9753 45.552 40.712 45.0683 40.4839C44.1009 40.0452 43.075 39.7294 42.0489 39.4837C41.0083 39.238 39.9529 39.0625 38.8976 38.9046C38.3699 38.8344 37.8422 38.7467 37.2998 38.694C36.7722 38.6238 36.2444 38.5712 35.7021 38.5185L34.1045 38.3782C33.8407 38.3606 33.5622 38.3255 33.2983 38.2904C33.1664 38.2729 33.0345 38.2553 32.9026 38.2378C32.8293 38.2202 32.7706 38.2202 32.6973 38.2027C32.668 38.2027 32.6241 38.1851 32.5948 38.1851C32.5802 38.1851 32.5508 38.1676 32.5361 38.1676C32.5215 38.1676 32.5215 38.1676 32.4922 38.15C32.4775 38.1325 32.4481 38.1325 32.4335 38.0447C32.4335 37.9921 32.4775 37.9395 32.5361 37.9395C32.5947 37.9395 32.6388 37.9921 32.6388 38.0447C32.6241 37.9745 32.6094 37.9921 32.6094 37.9745C32.6241 37.9745 32.6388 37.9746 32.6388 37.9921C32.6681 37.9921 32.6973 38.0096 32.7266 38.0096C32.7853 38.0272 32.8585 38.0272 32.9172 38.0447C33.0491 38.0623 33.181 38.0798 33.3129 38.0974C33.5768 38.1325 33.8406 38.15 34.1191 38.1676L35.7168 38.3079C36.2445 38.343 36.7868 38.3957 37.3144 38.4659C37.8421 38.5361 38.3845 38.6063 38.9122 38.6765C39.9822 38.8344 41.0375 39.0099 42.0929 39.2556C43.1336 39.5012 44.1889 39.8171 45.171 40.2558C45.6693 40.4839 46.1383 40.7472 46.578 41.063L46.9151 41.3087L47.2376 41.5719C47.2963 41.607 47.3403 41.6596 47.3989 41.7298C47.4429 41.8 47.4869 41.8527 47.5162 41.9229C47.5895 42.0457 47.6334 42.1861 47.6774 42.3089C47.8532 42.8178 47.9705 43.3443 48.0877 43.8707C48.1903 44.3971 48.2929 44.9236 48.3809 45.45C48.7327 47.5558 48.982 49.6791 49.2311 51.7849C49.7148 56.0139 50.1106 60.2606 50.477 64.5072L51.0193 70.8771C51.1072 71.9476 51.1659 73.0004 51.2099 74.0709C51.2539 75.1413 51.2685 76.2117 51.2685 77.2646C51.2831 79.4055 51.2245 81.5288 51.1658 83.6697C51.1072 85.793 51.0632 87.9339 51.0193 90.0572C50.9899 91.1276 50.99 92.1805 51.0486 93.2333C51.0926 94.2862 51.1806 95.3567 51.2832 96.4096C51.4738 98.5329 51.7229 100.656 51.8108 102.797L51.8402 103.604L51.8548 104.411L51.8548 106.008C51.8548 107.079 51.8401 108.149 51.8254 109.202C51.7961 111.325 51.7375 113.466 51.6642 115.59C51.5177 119.854 51.3125 124.118 51.034 128.365C51.034 128.452 50.9607 128.523 50.8874 128.54C48.85 128.979 46.8126 129.365 44.7606 129.716C42.7085 130.067 40.6564 130.4 38.5897 130.663C36.5229 130.944 34.4563 131.19 32.3895 131.365C31.3489 131.471 30.3081 131.523 29.2821 131.593L27.7285 131.664L26.9516 131.699L26.1747 131.716C25.647 131.716 25.1341 131.751 24.6064 131.734C24.3426 131.716 24.0787 131.716 23.8149 131.699L23.038 131.628C22.525 131.576 21.9973 131.523 21.4843 131.453L19.9306 131.26C17.8639 130.997 15.8119 130.716 13.7598 130.418C9.64106 129.821 5.53686 129.207 1.43274 128.558C1.33014 128.54 1.25682 128.452 1.25682 128.347C1.11024 119.906 1.00776 111.466 0.934468 103.025C0.905153 98.7961 0.890381 94.5846 0.890381 90.3555C0.905038 86.1264 0.919696 81.9149 1.03696 77.6858C1.08093 75.58 1.21296 73.4567 1.3742 71.3509C1.52077 69.2452 1.65266 67.1394 1.78458 65.0336C2.04841 60.8221 2.29754 56.6106 2.75192 52.399C2.98644 50.2933 3.26496 48.1875 3.73401 46.1168C3.85127 45.5904 3.98316 45.0815 4.14439 44.5726C4.30562 44.0637 4.49617 43.5548 4.73069 43.0635C4.84795 42.8178 4.97984 42.5721 5.14107 42.344C5.30231 42.1159 5.47826 41.9053 5.71278 41.7123C5.77141 41.6596 5.83007 41.6246 5.8887 41.5895C5.94733 41.5544 6.02059 41.5017 6.07922 41.4842L6.44565 41.3087C6.69483 41.2034 6.94395 41.0805 7.19313 40.9928C8.18985 40.6067 9.21593 40.3084 10.2566 40.0277C11.2827 39.7644 12.3233 39.5188 13.3787 39.3257C15.4747 38.9397 17.6 38.6589 19.7254 38.6238C19.784 38.6238 19.828 38.6589 19.828 38.7291C19.784 38.8169 19.7401 38.8519 19.6961 38.8519Z" fill="#07453A"/>
<path d="M30.4483 9.59299C30.4611 9.59299 30.5124 9.57097 30.5252 9.52693C30.538 9.47189 30.5123 9.4609 30.5123 9.43888C30.4995 9.41687 30.4612 9.39485 30.4356 9.38384C30.3972 9.38384 30.41 9.38384 30.41 9.38384L30.4229 9.3618L30.4483 9.31778C30.4739 9.29576 30.4867 9.27373 30.5123 9.25171C30.5507 9.21869 30.602 9.19668 30.6532 9.17466C30.7427 9.14163 30.8323 9.0976 30.8962 9.04256C30.9218 9.02054 30.9474 8.99851 30.9602 8.9765C30.9602 8.96549 30.9731 8.96551 30.9731 8.94349L30.9987 8.86641C31.0243 8.76733 31.037 8.65727 31.0498 8.55819C31.0754 8.33801 31.0754 8.10681 31.0754 7.87563C31.0754 7.64444 31.0754 7.40225 31.1138 7.16006C31.1266 7.10502 31.1778 7.061 31.229 7.07201C31.2802 7.08302 31.3058 7.11602 31.3186 7.16006C31.3954 7.61142 31.4977 8.0738 31.4977 8.5802C31.4977 8.70129 31.4849 8.8334 31.4593 8.9655L31.4337 9.06457C31.4209 9.10861 31.4082 9.15264 31.3826 9.19667C31.3314 9.27373 31.2801 9.3508 31.2162 9.39483C31.101 9.49391 30.9731 9.55996 30.8451 9.61501C30.7811 9.63702 30.7172 9.65906 30.6532 9.65906C30.6148 9.65906 30.5892 9.64804 30.5508 9.64804C30.538 9.64804 30.5124 9.63703 30.4996 9.62603L30.474 9.61501C30.474 9.61501 30.4868 9.61501 30.4356 9.61501C30.3972 9.61501 30.3588 9.593 30.346 9.57098C30.3332 9.55997 30.3333 9.54896 30.3333 9.53795C30.3333 9.52694 30.3333 9.50493 30.3333 9.48291C30.346 9.42786 30.4101 9.40585 30.4229 9.40585C30.474 9.39484 30.5252 9.42786 30.538 9.48291C30.538 9.52694 30.5123 9.58199 30.4483 9.59299Z" fill="#07453A"/>
<path d="M16.7175 10.3641C16.6535 10.2871 16.628 10.221 16.6024 10.155C16.5896 10.122 16.5767 10.0999 16.5639 10.0669C16.5511 10.0339 16.5512 10.0118 16.5384 9.97882C16.5128 9.86873 16.436 9.80267 16.3464 9.72561C16.2569 9.65955 16.116 9.60451 15.9753 9.53846C15.8345 9.48341 15.6682 9.41736 15.5146 9.31828C15.4379 9.27424 15.3611 9.20817 15.2971 9.14212C15.2331 9.06506 15.1691 8.99902 15.1179 8.91094C15.0667 8.83388 15.0412 8.73478 15.0028 8.64671C14.9644 8.53662 14.9643 8.45957 14.9643 8.3825C14.9515 8.21736 14.9515 8.06325 14.9515 7.89811C14.9515 7.82105 14.9644 7.73297 14.9772 7.6449C14.9772 7.60086 14.99 7.55683 15.0028 7.51279C15.0156 7.49077 15.0155 7.46873 15.0411 7.43571C15.0539 7.4247 15.0667 7.40268 15.0795 7.38066C15.1051 7.35864 15.1435 7.34766 15.1691 7.34766C15.2203 7.34766 15.2715 7.39168 15.2715 7.44673C15.2715 7.50177 15.2203 7.5458 15.1691 7.5458C15.1819 7.5458 15.2075 7.54581 15.2075 7.53481C15.2075 7.53481 15.2202 7.5238 15.2202 7.53481L15.2202 7.56784C15.2202 7.60087 15.2202 7.63388 15.2202 7.66691C15.2202 7.73296 15.233 7.81003 15.2458 7.88709C15.2586 8.04122 15.2971 8.18435 15.3227 8.33848C15.3355 8.41554 15.3482 8.49258 15.3738 8.53662C15.3994 8.59166 15.425 8.65772 15.4634 8.70175C15.5274 8.80084 15.6298 8.87791 15.745 8.93296C15.8601 8.99901 16.0009 9.04305 16.1545 9.09809C16.308 9.15314 16.4743 9.2082 16.6279 9.3293C16.9606 9.54948 17.1782 10.0559 16.9223 10.3641C16.8839 10.4192 16.7943 10.4192 16.7431 10.3752C16.7303 10.3862 16.7303 10.3862 16.7175 10.3641Z" fill="#07453A"/>
<path d="M15.1177 7.35823C15.7704 7.35823 16.4359 7.34723 17.1141 7.36925C17.7795 7.39126 18.4577 7.40228 19.1231 7.40228C20.4668 7.41329 21.8104 7.38026 23.1541 7.40228C24.4977 7.41329 25.8414 7.44629 27.1723 7.38024C27.8377 7.34721 28.5032 7.3142 29.1814 7.25916C29.8468 7.20411 30.5123 7.13806 31.1905 7.07201C31.2417 7.061 31.2928 7.10502 31.3056 7.16006C31.3056 7.21511 31.2672 7.25914 31.216 7.27015C29.8851 7.46831 28.5544 7.64447 27.1979 7.73255C25.8542 7.82062 24.4977 7.82062 23.1541 7.84263C21.8104 7.84263 20.4668 7.87564 19.1231 7.87564C18.4449 7.87564 17.7795 7.87565 17.1012 7.85363C16.7685 7.84262 16.4231 7.82062 16.0904 7.78759C15.924 7.76557 15.7577 7.74355 15.5785 7.69951L15.3226 7.63345C15.233 7.61143 15.1562 7.5784 15.0666 7.54537C15.0154 7.52336 14.9899 7.46832 15.0027 7.41327C15.0282 7.38024 15.0666 7.35823 15.1177 7.35823Z" fill="#07453A"/>
<path d="M16.6022 7.71055C16.5894 7.69954 16.5765 7.68856 16.5637 7.67755C16.5509 7.66654 16.5509 7.66652 16.5509 7.65551C16.5381 7.6445 16.5381 7.63351 16.5253 7.6225C16.5125 7.60048 16.5125 7.57847 16.4997 7.56746C16.4869 7.53443 16.4741 7.50139 16.4613 7.46836C16.4357 7.40231 16.423 7.33625 16.4102 7.27019C16.3846 7.13808 16.3589 7.00597 16.3333 6.88488C16.295 6.63167 16.2566 6.36745 16.231 6.11424C16.1542 5.61883 16.0774 5.09042 16.0518 4.56198C16.0262 4.03355 16.0263 3.49409 16.1287 2.95465C16.1798 2.69043 16.2438 2.41521 16.359 2.162C16.4102 2.02989 16.4869 1.90881 16.5509 1.78771C16.5893 1.72165 16.6277 1.6666 16.6789 1.61155C16.7301 1.55651 16.7556 1.49045 16.8196 1.44641C17.2163 1.01706 17.7282 0.763859 18.2529 0.598723C18.7775 0.433588 19.3022 0.34551 19.8397 0.290464C20.3644 0.235419 20.9017 0.224405 21.4264 0.202387L23.0005 0.169354C24.0498 0.158345 25.0991 0.169376 26.1484 0.191394C26.6603 0.213412 27.2106 0.213407 27.748 0.323497C28.0168 0.378542 28.2854 0.477624 28.5286 0.598723C28.7845 0.730832 29.0021 0.906971 29.194 1.11614C29.5779 1.53449 29.7955 2.02989 29.9875 2.51429C30.0898 2.75649 30.1666 3.0207 30.2178 3.28492C30.269 3.53813 30.3202 3.80235 30.3586 4.05555C30.4354 4.57298 30.4994 5.09042 30.5506 5.60784C30.6017 6.12527 30.6657 6.64269 30.6657 7.17112C30.6657 7.22617 30.6273 7.27019 30.5633 7.27019C30.5121 7.27019 30.461 7.22617 30.461 7.17112C30.4482 6.6647 30.3714 6.14728 30.3074 5.62985C30.2434 5.11243 30.1666 4.60602 30.0771 4.09961C29.9875 3.59319 29.885 3.08677 29.6803 2.6354C29.4883 2.16201 29.2581 1.71063 28.9253 1.35834C28.6054 0.995038 28.1447 0.785883 27.6584 0.686801C27.1722 0.58772 26.6604 0.58772 26.1357 0.576711C25.0992 0.565702 24.0498 0.565696 23.0132 0.598723L21.452 0.642749C20.9274 0.653758 20.4155 0.675781 19.9037 0.730826C19.3918 0.785872 18.8927 0.873955 18.4192 1.01707C17.9457 1.16019 17.4979 1.40237 17.1908 1.74365C16.8836 2.08493 16.7172 2.55832 16.6276 3.03171C16.5509 3.51611 16.5381 4.02253 16.5765 4.52895C16.6021 5.03537 16.6661 5.54178 16.7045 6.07022C16.7173 6.33443 16.7173 6.58765 16.7301 6.85187L16.7429 7.23719C16.7429 7.30324 16.7428 7.36929 16.7556 7.42433C16.7556 7.45736 16.7557 7.49039 16.7685 7.51241L16.7685 7.54542L16.7685 7.55644C16.7685 7.54543 16.7557 7.54542 16.7429 7.54542C16.7941 7.56744 16.8068 7.63351 16.7812 7.67755C16.7173 7.71058 16.6533 7.73257 16.6022 7.71055Z" fill="#07453A"/>
<path d="M16.321 9.32925C16.321 9.31824 16.321 9.31822 16.321 9.30721C16.3082 9.30721 16.3338 9.30721 16.3338 9.30721L16.385 9.30721C16.4234 9.30721 16.449 9.30721 16.4874 9.30721L16.7049 9.30721C16.8585 9.30721 17.012 9.30722 17.1528 9.31823C17.4599 9.32923 17.7542 9.34023 18.0613 9.36225C18.6628 9.40628 19.277 9.43931 19.8785 9.47234C21.0942 9.52738 22.3099 9.58242 23.5128 9.58242C23.8071 9.58242 24.1142 9.56043 24.4213 9.54942L25.3298 9.50537L27.1469 9.41729C28.3626 9.36225 29.5783 9.30722 30.794 9.26318L30.8069 9.26318C30.858 9.26318 30.9092 9.30721 30.9092 9.36225C30.9092 9.41729 30.8708 9.46134 30.8196 9.46134C29.6039 9.57143 28.3882 9.67051 27.1726 9.76959L25.3427 9.90169L24.434 9.96772L23.9734 10.0008C23.8198 10.0118 23.6663 10.0228 23.5128 10.0228C22.2843 10.0338 21.0686 9.98974 19.8401 9.94571C19.2259 9.92369 18.6244 9.89068 18.0102 9.84664C17.7031 9.82463 17.3959 9.79158 17.1016 9.74755C16.948 9.72553 16.7945 9.69253 16.6409 9.6595C16.5642 9.63749 16.4874 9.61546 16.4106 9.59344C16.3722 9.58243 16.3338 9.57143 16.2954 9.54942C16.2826 9.53841 16.257 9.52739 16.2314 9.51639C16.2186 9.50538 16.2186 9.51639 16.1931 9.49437C16.1675 9.48337 16.1546 9.46133 16.1418 9.45032C16.1034 9.40629 16.1163 9.34023 16.1674 9.30721C16.2186 9.27418 16.2826 9.28521 16.321 9.32925Z" fill="#07453A"/>
<path d="M19.6349 38.6692C19.9479 38.537 20.2725 38.513 20.597 38.501L21.5589 38.501C22.1964 38.501 22.8453 38.513 23.4828 38.537L24.4447 38.5731C24.7692 38.5851 25.0706 38.5971 25.3836 38.5731C26.0094 38.537 26.6468 38.4168 27.3074 38.4048C27.3654 38.4048 27.4118 38.4529 27.4118 38.501C27.4118 38.549 27.377 38.5971 27.3191 38.5971C26.6932 38.6693 26.0789 38.8255 25.4183 38.9096C25.0938 38.9577 24.7577 38.9577 24.4332 38.9577L23.4712 38.9697L21.5473 38.9697L20.5853 38.9818C20.2608 38.9818 19.9479 38.9698 19.6234 38.8616C19.5654 38.8375 19.5307 38.7774 19.5539 38.7293C19.5887 38.7053 19.6118 38.6813 19.6349 38.6692Z" fill="#07453A"/>
<path d="M27.2262 38.4048C27.4348 38.2966 27.6434 38.2605 27.8636 38.2485C28.0838 38.2365 28.2925 38.2244 28.5127 38.2124L29.8224 38.1163C30.2628 38.0922 30.7033 38.0562 31.1437 38.0441C31.3639 38.0321 31.584 38.0321 31.8042 38.0201C32.0244 38.0201 32.2447 38.0081 32.4765 38.0321C32.5345 38.0321 32.5692 38.0802 32.5692 38.1403C32.5692 38.1884 32.5229 38.2245 32.4765 38.2365C32.0477 38.2846 31.6072 38.3447 31.1784 38.4048C30.738 38.4649 30.3092 38.513 29.8688 38.561C29.4284 38.6091 28.9994 38.6572 28.559 38.6933C28.3388 38.7053 28.1187 38.7293 27.8985 38.7414C27.7826 38.7414 27.6782 38.7534 27.5623 38.7293C27.4464 38.7173 27.3305 38.6812 27.2262 38.6091C27.1682 38.5731 27.1567 38.5129 27.1914 38.4528C27.1799 38.4288 27.203 38.4168 27.2262 38.4048Z" fill="#07453A"/>
<path d="M34.7843 84.128C34.7681 84.0959 34.7844 84.2566 34.93 84.2245C34.9786 84.1923 34.9623 84.1923 34.9623 84.1923L34.9461 84.2084L34.93 84.2405L34.8976 84.3048L34.8329 84.4173L34.7034 84.6423L34.4283 85.0922C34.2503 85.3976 34.0561 85.6869 33.8619 85.9922C33.4734 86.5868 33.1012 87.1653 32.729 87.776C31.9683 88.9813 31.1268 90.1223 30.3176 91.2633C29.913 91.8419 29.5245 92.4204 29.1523 93.015C28.78 93.6096 28.424 94.2203 28.0518 94.8149C27.3235 96.0202 26.579 97.2255 25.8183 98.4147C24.297 100.793 22.7434 103.155 21.0927 105.454C20.688 106.032 20.2511 106.595 19.8626 107.173C19.4742 107.752 19.102 108.346 18.7136 108.941C18.3413 109.535 17.9529 110.13 17.5645 110.725C17.1599 111.303 16.7553 111.898 16.2536 112.412C16.2212 112.444 16.1565 112.46 16.1079 112.412C16.0755 112.38 16.0594 112.316 16.1079 112.267C16.5773 111.769 16.9819 111.175 17.3703 110.596C17.7587 110.001 18.1148 109.407 18.487 108.796C18.8592 108.186 19.2153 107.591 19.6037 106.996C19.9921 106.402 20.4129 105.839 20.8175 105.261C22.4359 102.947 23.9572 100.584 25.4461 98.1897C26.1906 97.0005 26.935 95.7952 27.6633 94.5899C28.0355 93.9792 28.3916 93.3846 28.7639 92.7739C29.1361 92.1793 29.5407 91.5847 29.9453 91.0062C30.7545 89.8491 31.5799 88.7081 32.3406 87.5189C32.5186 87.2296 32.7127 86.9243 32.9231 86.6189C33.1173 86.3297 33.3278 86.0404 33.5382 85.7511C33.7486 85.4619 33.9589 85.1887 34.1693 84.8994L34.493 84.4816L34.6549 84.2727L34.7358 84.1762L34.7843 84.128L34.8005 84.0959L34.8167 84.0798C34.8167 84.0798 34.8005 84.0798 34.8652 84.0477C35.0109 84.0155 35.0271 84.1602 35.0109 84.128C35.0109 84.1762 34.9624 84.2245 34.9138 84.2245C34.8653 84.2245 34.7843 84.1762 34.7843 84.128Z" fill="#07453A"/>
<path d="M20.1375 74.9202C20.3479 75.9326 20.4774 76.9451 20.623 77.9576C20.7687 78.97 20.9305 79.9825 21.1247 80.9788C21.497 82.9877 21.9663 84.9965 22.4357 86.9892L23.1315 89.9944L23.4714 91.5051C23.5847 92.0033 23.6818 92.5175 23.8113 92.9996C24.0702 93.9799 24.3939 94.9602 24.6852 95.9405C24.8308 96.4387 24.9765 96.9369 25.0898 97.4351C25.2031 97.9333 25.3164 98.4476 25.3325 98.9779C25.3325 99.0261 25.284 99.0743 25.2354 99.0743C25.1869 99.0743 25.1384 99.0261 25.1384 98.9779C25.1222 98.4797 24.9927 97.9815 24.8632 97.4994C24.7338 97.0012 24.572 96.5191 24.4101 96.037C24.1026 95.0567 23.7465 94.0924 23.4552 93.096C23.3095 92.5818 23.2125 92.0997 23.083 91.5854L22.7269 90.0908L21.9825 87.1017C21.497 85.1089 21.0276 83.1001 20.6392 81.0752C20.445 80.0628 20.267 79.0503 20.1214 78.0218L20.0243 77.2504C19.9919 76.9933 19.9757 76.7362 19.9595 76.4791C19.911 75.9648 19.911 75.4505 19.9272 74.9363C19.9272 74.8881 19.9757 74.8398 20.0243 74.8398C20.089 74.8398 20.1213 74.872 20.1375 74.9202Z" fill="#07453A"/>
<path d="M20.3803 67.8167C20.2508 67.7042 20.0889 67.5917 19.9271 67.5596C19.7652 67.5275 19.5872 67.5435 19.4416 67.6239C19.2959 67.6881 19.1503 67.8006 19.0208 67.9131C18.8914 68.0256 18.7618 68.1542 18.6485 68.2988C18.5353 68.4435 18.4382 68.5881 18.3411 68.7488C18.2601 68.9095 18.1792 69.0702 18.1145 69.247C18.0498 69.4238 18.0012 69.6005 17.9526 69.7773C17.9041 69.9541 17.8555 70.147 17.8231 70.3237C17.6613 71.0469 17.6451 71.8183 17.8555 72.5093C17.9041 72.6861 17.985 72.8468 18.0659 73.0075C18.1468 73.1522 18.2602 73.3129 18.3735 73.4736C18.6 73.7789 18.8428 74.0682 19.1018 74.3735C19.1341 74.4057 19.1664 74.4539 19.1988 74.486L19.2959 74.5825C19.3121 74.5985 19.3283 74.6146 19.3445 74.6307L19.393 74.6628C19.4254 74.6789 19.4578 74.711 19.4902 74.7271C19.6358 74.7914 19.7814 74.8235 19.9433 74.7914C20.267 74.7271 20.5583 74.486 20.8011 74.1967C20.9144 74.0521 21.0277 73.9075 21.1086 73.7468C21.2057 73.5861 21.2704 73.4253 21.319 73.2325C21.4322 72.8789 21.5132 72.5093 21.5455 72.1236C21.6103 71.3683 21.5132 70.5969 21.3514 69.8577C21.2543 69.488 21.1571 69.1024 21.0277 68.7649C20.8658 68.3792 20.6554 68.0738 20.3803 67.8167ZM20.5259 67.6721C20.8173 67.9453 21.0601 68.2828 21.2057 68.6685C21.3514 69.0381 21.4484 69.4077 21.5455 69.7934C21.7397 70.5487 21.8368 71.3362 21.7883 72.1397C21.7721 72.5415 21.7074 72.9272 21.5779 73.3129C21.5294 73.5057 21.4485 73.6986 21.3514 73.8753C21.2543 74.0521 21.1409 74.2289 21.0115 74.3896C20.882 74.5503 20.7363 74.695 20.5745 74.8235C20.4126 74.9521 20.2185 75.0646 19.9919 75.1128C19.7653 75.161 19.5225 75.1289 19.3121 75.0324C19.2636 75.0003 19.215 74.9681 19.1665 74.936L19.1018 74.8878C19.0856 74.8717 19.0531 74.8556 19.037 74.8396L18.9237 74.7271C18.8913 74.6949 18.859 74.6467 18.8266 74.6146C18.5676 74.3253 18.3087 74.036 18.0659 73.7146C17.9364 73.5539 17.8232 73.4093 17.7099 73.2165C17.6128 73.0397 17.5157 72.8468 17.4509 72.654C17.192 71.8665 17.2243 71.0308 17.37 70.2434C17.4024 70.0505 17.4509 69.8577 17.5156 69.6648C17.5642 69.472 17.6289 69.2792 17.6937 69.0863C17.7584 68.8935 17.8555 68.7006 17.9526 68.5238C18.0498 68.3471 18.163 68.1702 18.3087 68.0095C18.4381 67.8488 18.5838 67.6881 18.7619 67.5756C18.9399 67.4471 19.1341 67.3507 19.3606 67.3024C19.571 67.2542 19.8138 67.2703 20.0242 67.3346C20.2022 67.3828 20.3641 67.5274 20.5259 67.6721Z" fill="#07453A"/>
<path d="M29.0066 82.0069C28.8447 81.9587 28.6667 81.9587 28.5211 82.0069C28.3592 82.0551 28.2135 82.1355 28.1003 82.248C27.8413 82.4569 27.6471 82.7462 27.4691 83.0194C27.372 83.164 27.3073 83.3087 27.2425 83.4694C27.2102 83.5497 27.1778 83.6301 27.1616 83.7104C27.1292 83.7908 27.1131 83.8711 27.0807 83.9675C26.9836 84.305 26.9188 84.6425 26.9027 84.9961C26.8541 85.6871 26.9512 86.3942 27.2263 87.037C27.3558 87.3584 27.5338 87.6638 27.7281 87.953C27.9223 88.2423 28.165 88.4994 28.4239 88.7083C28.5534 88.8048 28.6991 88.8691 28.8285 88.8851C28.958 88.9012 29.1037 88.853 29.217 88.7566C29.4598 88.5637 29.6216 88.2423 29.7511 87.9209C30.01 87.2459 30.2042 86.5549 30.2851 85.8478C30.366 85.1407 30.3337 84.4175 30.1233 83.7265C30.0262 83.389 29.8806 83.0515 29.7025 82.7462C29.6054 82.5855 29.5083 82.4408 29.395 82.3122C29.2817 82.1676 29.1522 82.0551 29.0066 82.0069ZM29.0552 81.8141C29.2656 81.8784 29.4112 82.023 29.5407 82.1676C29.6702 82.3123 29.7673 82.473 29.8644 82.6337C30.0586 82.9551 30.2042 83.3086 30.3013 83.6622C30.5117 84.3693 30.5603 85.1246 30.4955 85.8639C30.4308 86.6031 30.2528 87.3263 30.01 88.0173C29.8806 88.3708 29.7187 88.7244 29.395 89.0137C29.2331 89.1583 29.0066 89.2387 28.7638 89.2226C28.5211 89.2065 28.3269 89.1101 28.1651 88.9976C27.5177 88.5316 27.0969 87.8887 26.7732 87.1977C26.4657 86.5067 26.3363 85.7192 26.3848 84.9639C26.401 84.5782 26.4819 84.2086 26.579 83.8389C26.5952 83.7425 26.6275 83.6622 26.6599 83.5658C26.6923 83.4693 26.7246 83.389 26.757 83.2926C26.8379 83.1158 26.9189 82.939 27.016 82.7622C27.2102 82.4248 27.5014 82.1355 27.8575 81.9427C28.0355 81.8462 28.2297 81.7819 28.4401 81.7659C28.6667 81.7337 28.8772 81.7659 29.0552 81.8141Z" fill="#07453A"/>
<path d="M37.4225 76.4947C37.2283 76.4143 37.018 76.3822 36.8238 76.3983C36.6134 76.4143 36.4192 76.4626 36.2573 76.559C35.9013 76.7518 35.6262 77.0411 35.3672 77.3464C34.8493 77.9893 34.4933 78.7767 34.2019 79.5802C34.0563 79.982 33.9268 80.3838 33.8459 80.8016C33.8135 81.0105 33.7811 81.2194 33.7649 81.4284L33.7488 81.7498L33.7326 81.9105L33.7326 82.0551C33.7326 82.4569 33.8297 82.8587 34.0239 83.2122C34.2181 83.5497 34.5094 83.8229 34.8978 83.9033C35.3024 83.9997 35.7232 84.0158 36.1116 83.9033C36.5162 83.8068 36.8723 83.5979 37.1798 83.3247C37.811 82.7783 38.2155 81.9909 38.4583 81.1713C38.7011 80.3517 38.782 79.4838 38.6201 78.6482C38.5392 78.2303 38.3612 77.8446 38.167 77.4589C38.0699 77.2661 37.9728 77.0893 37.8433 76.9125C37.7139 76.7358 37.5844 76.575 37.4225 76.4947ZM37.4873 76.3179C37.6167 76.3661 37.6977 76.4465 37.7786 76.5268C37.8595 76.6072 37.9242 76.7036 37.989 76.784C38.1185 76.9607 38.2318 77.1697 38.3289 77.3625C38.5231 77.7482 38.7173 78.166 38.7982 78.5999C38.9762 79.4678 38.8953 80.3838 38.6687 81.2355C38.426 82.0873 38.0214 82.923 37.3578 83.5497C37.018 83.8551 36.6134 84.0961 36.1602 84.2247C35.7071 84.3533 35.2215 84.3372 34.7846 84.2568C34.5418 84.2086 34.3152 84.1122 34.121 83.9515C33.9268 83.8069 33.765 83.614 33.6517 83.4051C33.4089 82.9872 33.2956 82.5372 33.2794 82.0712L33.2794 81.8944L33.2794 81.7337C33.2794 81.6212 33.2956 81.5087 33.2956 81.3962C33.3118 81.1712 33.3442 80.9463 33.3765 80.7213C33.4575 80.2713 33.587 79.8374 33.7326 79.4356C34.0239 78.5999 34.3962 77.7803 34.9626 77.0571C35.2539 76.7036 35.6423 76.3822 36.0955 76.2376C36.581 76.0769 37.0665 76.1411 37.4873 76.3179Z" fill="#07453A"/>
<path d="M29.298 104.538C29.2009 104.393 29.0552 104.297 28.8934 104.216C28.7315 104.152 28.5535 104.104 28.3593 104.088C27.987 104.04 27.6148 104.04 27.2426 104.024C26.4981 104.008 25.7374 104.12 25.0253 104.329C24.6693 104.441 24.3132 104.57 23.9734 104.731C23.7953 104.811 23.6335 104.891 23.4717 104.988C23.3099 105.068 23.1642 105.165 23.0347 105.277C22.7596 105.502 22.5492 105.791 22.5492 106.097C22.5492 106.257 22.5815 106.386 22.6786 106.547C22.7595 106.707 22.8729 106.852 22.9862 106.98C23.2289 107.238 23.5364 107.43 23.8763 107.559C24.2162 107.688 24.5884 107.752 24.9606 107.784C25.7051 107.832 26.4819 107.736 27.2264 107.543C27.5986 107.447 27.9709 107.334 28.3107 107.173C28.6506 107.013 28.9743 106.82 29.2171 106.547C29.3303 106.418 29.4436 106.257 29.5083 106.097C29.5569 106.016 29.5569 105.92 29.5893 105.84C29.6054 105.743 29.6217 105.663 29.6217 105.566C29.5893 105.213 29.4922 104.827 29.298 104.538ZM29.4598 104.425C29.5731 104.602 29.654 104.779 29.7187 104.972C29.7349 105.068 29.7673 105.165 29.7835 105.261L29.7996 105.406C29.7996 105.454 29.7996 105.502 29.7996 105.566C29.7996 105.663 29.7835 105.775 29.7673 105.872C29.7349 105.968 29.7187 106.081 29.6702 106.161C29.5893 106.354 29.476 106.531 29.3465 106.675C29.0714 106.981 28.7315 107.205 28.3755 107.366C28.0194 107.543 27.631 107.655 27.2588 107.768C26.4981 107.977 25.7213 108.105 24.9121 108.073C24.5075 108.057 24.1028 107.993 23.7306 107.864C23.3422 107.736 22.9699 107.511 22.6786 107.205C22.533 107.061 22.4035 106.884 22.3064 106.707C22.1931 106.531 22.1122 106.289 22.1122 106.064C22.1122 105.823 22.1931 105.598 22.3064 105.422C22.4197 105.229 22.5654 105.068 22.7272 104.924C22.8891 104.779 23.067 104.666 23.2451 104.57C23.4231 104.474 23.6012 104.377 23.7792 104.297C24.1352 104.12 24.5075 103.975 24.8959 103.863C25.6565 103.622 26.4657 103.493 27.2588 103.525C27.6634 103.525 28.0518 103.59 28.4564 103.734C28.6506 103.799 28.8448 103.879 29.0228 103.991C29.1847 104.104 29.3465 104.249 29.4598 104.425Z" fill="#07453A"/>
<path d="M28.9739 89.1101C28.9739 89.094 28.9577 89.0779 28.9577 89.0297L28.9577 89.0137L28.9739 88.9976C28.9739 88.9976 29.0386 88.9012 29.1681 88.9655C29.1843 88.9815 29.1843 88.9815 29.1843 88.9815L29.2004 88.9976C29.2004 88.9976 29.2166 89.0137 29.2166 89.0297L29.2328 89.0458L29.249 89.0619C29.2652 89.0779 29.2652 89.094 29.2652 89.094C29.2814 89.1262 29.2976 89.1583 29.3138 89.1904C29.3461 89.2547 29.3461 89.319 29.3623 89.3672C29.3785 89.4958 29.3785 89.6244 29.3947 89.7368L29.4432 90.46C29.4594 90.7011 29.4756 90.9582 29.4918 91.1992L29.508 91.5689L29.508 91.7456L29.508 91.842L29.508 91.8903L29.508 91.9063L29.508 91.9224C29.4918 91.9224 29.5403 91.9224 29.4432 91.8581C29.2814 91.8742 29.3462 91.9385 29.33 91.9224C29.33 91.9385 29.33 91.9385 29.33 91.9545C29.33 91.9063 29.3785 91.8581 29.4271 91.8581C29.4756 91.8581 29.5241 91.9063 29.5241 91.9545C29.5241 91.9706 29.5241 91.9867 29.5241 91.9867C29.508 91.9706 29.5727 92.0349 29.4109 92.051C29.2976 91.9867 29.3462 91.9867 29.33 91.9867L29.33 91.9706L29.33 91.9545L29.33 91.9385L29.3138 91.8903L29.2814 91.7938L29.2328 91.6171C29.2005 91.4885 29.1843 91.376 29.1519 91.2474L29.0225 90.5243C28.9901 90.2832 28.9415 90.0421 28.9253 89.785C28.9092 89.6565 28.9091 89.544 28.8929 89.4154C28.8929 89.3512 28.893 89.2869 28.9091 89.2386C28.9091 89.2065 28.9254 89.1743 28.9415 89.1422C28.9415 89.1422 28.9577 89.1261 28.9577 89.1422C28.9577 89.1422 28.9577 89.1422 28.9739 89.1583L28.9901 89.1744C28.9901 89.1905 29.0063 89.1904 29.0063 89.1904L29.0225 89.2065C29.0225 89.2065 29.0224 89.2065 29.0386 89.2226C29.0548 89.2386 29.0871 89.2386 29.1195 89.2386C29.1357 89.2386 29.152 89.2386 29.1843 89.2226C29.2329 89.2065 29.2167 89.1904 29.2328 89.1904C29.2328 89.1904 29.2329 89.1744 29.249 89.1744L29.249 89.1583C29.249 89.1422 29.2166 89.1583 29.2004 89.1583L29.1681 89.1744C29.071 89.2065 28.9901 89.1744 28.9739 89.1101Z" fill="#07453A"/>
<path d="M20.0728 106.868C20.0728 106.868 20.089 106.868 20.089 106.852C20.089 106.852 20.089 106.852 20.1052 106.836C20.1214 106.82 20.1214 106.788 20.1052 106.756C20.089 106.723 20.0728 106.707 20.0566 106.707C20.0404 106.691 20.0242 106.691 20.0081 106.691C19.9919 106.691 20.008 106.691 19.9919 106.691C19.9757 106.691 19.9919 106.675 19.9919 106.675C19.9919 106.659 20.0081 106.643 20.0081 106.643C20.0242 106.627 20.0404 106.595 20.0566 106.579C20.089 106.547 20.1375 106.531 20.1699 106.515L20.4289 106.418C20.5098 106.386 20.6069 106.354 20.704 106.322C20.8011 106.29 20.8982 106.273 20.9953 106.241C21.1895 106.209 21.3838 106.177 21.578 106.161C21.7722 106.145 21.9663 106.145 22.1606 106.177C22.2091 106.193 22.2577 106.241 22.2415 106.29C22.2415 106.338 22.2091 106.37 22.1606 106.37C21.8045 106.434 21.4484 106.531 21.1086 106.643C21.0277 106.675 20.9305 106.707 20.8658 106.723C20.7849 106.756 20.6878 106.788 20.6069 106.82L20.348 106.916C20.2994 106.932 20.2509 106.948 20.2023 106.932C20.1699 106.932 20.1538 106.916 20.1214 106.916L20.0728 106.9C20.0566 106.9 20.0566 106.9 20.0405 106.884C20.0405 106.884 20.0404 106.884 20.0243 106.884C20.0081 106.884 19.9757 106.868 19.9595 106.868C19.9595 106.868 19.9271 106.852 19.9109 106.82C19.8948 106.788 19.8948 106.756 19.9109 106.723C19.9271 106.691 19.911 106.707 19.9271 106.707C19.9433 106.707 19.9434 106.691 19.9595 106.691C20.0081 106.659 20.0728 106.659 20.1052 106.707C20.1214 106.772 20.1213 106.836 20.0728 106.868Z" fill="#07453A"/>
<path d="M18.5847 108.588C18.6494 108.716 18.3581 108.668 18.3904 108.604L18.3904 108.588L18.3904 108.572L18.3742 108.54L18.358 108.475L18.3257 108.347L18.2771 108.106L18.1801 107.624C18.1477 107.463 18.1153 107.302 18.0829 107.141L17.9858 106.659C17.8402 106.017 17.7107 105.374 17.5327 104.747C17.1928 103.477 16.7073 102.256 16.1894 101.051C15.6553 99.8454 15.0727 98.6562 14.5062 97.4509L14.0854 96.5509C13.9398 96.2456 13.8103 95.9403 13.6808 95.6349L13.3086 94.7189L13.26 94.6064L13.2439 94.5421C13.2277 94.51 13.2277 94.4939 13.2277 94.4939L13.2115 94.4618C13.1953 94.4296 13.1953 94.3814 13.1791 94.3493C13.1629 94.3171 13.1468 94.285 13.1468 94.285C13.1468 94.285 13.1468 94.285 13.1468 94.3011L13.163 94.3172C13.163 94.3172 13.2277 94.3654 13.2762 94.3493C13.341 94.3814 13.5028 94.2368 13.4543 94.2528C13.4705 94.2368 13.4705 94.2207 13.4705 94.2207C13.4705 94.2046 13.4705 94.2207 13.4705 94.2368C13.4705 94.2689 13.4543 94.3011 13.4543 94.3493L13.4381 94.5903C13.4219 94.751 13.4058 94.9278 13.4058 95.0725L13.4058 95.5706L13.3896 96.567C13.3896 97.2259 13.4057 97.8848 13.4705 98.5276C13.6161 99.8294 13.9398 101.099 14.4091 102.336C14.8623 103.558 15.445 104.747 16.1571 105.872C16.3351 106.145 16.5131 106.418 16.7073 106.691C16.9015 106.965 17.0633 107.254 17.2575 107.527C17.4517 107.8 17.646 108.057 17.8564 108.299C18.0668 108.524 18.3419 108.749 18.617 108.765C18.6655 108.765 18.7141 108.813 18.7141 108.877C18.7141 108.925 18.6655 108.974 18.617 108.974C18.4228 108.974 18.2448 108.877 18.0991 108.797C17.9535 108.7 17.824 108.588 17.6945 108.459C17.4518 108.218 17.2576 107.945 17.0472 107.672C16.853 107.399 16.6749 107.125 16.4807 106.852C16.2865 106.579 16.0923 106.306 15.9143 106.033C15.186 104.908 14.5548 103.718 14.0854 102.481C13.5999 101.244 13.2439 99.9258 13.0821 98.5919C13.0011 97.9169 12.9688 97.258 12.9688 96.5831L12.9688 95.5867L12.9688 95.0885C12.9688 94.8957 12.985 94.751 13.0011 94.5743C13.0011 94.4939 13.0173 94.4136 13.0173 94.3172C13.0173 94.2689 13.0335 94.2368 13.0335 94.1886C13.0335 94.1564 13.0335 94.1404 13.0659 94.0761C13.0659 94.0761 13.082 94.0439 13.0982 94.0279C13.0658 94.0439 13.2277 93.8993 13.2924 93.9314C13.3572 93.9314 13.4219 93.9797 13.4381 93.9797C13.4543 93.9957 13.4543 93.9957 13.4705 94.0118C13.4867 94.0279 13.4867 94.0279 13.4867 94.0279C13.5029 94.0439 13.5028 94.06 13.5028 94.06C13.5513 94.1243 13.5514 94.1725 13.5676 94.2207C13.5838 94.2689 13.5999 94.3011 13.6161 94.3493L13.6323 94.3814C13.6323 94.3975 13.6323 94.3975 13.6323 94.3814L13.6646 94.4457L13.7132 94.5582L14.1016 95.4742C14.2311 95.7796 14.3606 96.0849 14.49 96.3742L14.9108 97.2741C15.4773 98.4633 16.0761 99.6526 16.6102 100.874C17.1443 102.095 17.646 103.333 18.002 104.634C18.1801 105.277 18.3095 105.936 18.4066 106.595C18.4552 106.916 18.5037 107.254 18.5361 107.591L18.5685 108.09L18.5847 108.331L18.5847 108.459L18.5847 108.524L18.5847 108.556L18.5847 108.572C18.617 108.524 18.3257 108.475 18.3904 108.588C18.3904 108.54 18.4552 108.491 18.5037 108.507C18.5523 108.475 18.6009 108.524 18.5847 108.588Z" fill="#07453A"/>
<path d="M22.3875 102.995C22.3875 103.011 22.3875 103.043 22.3875 103.06C22.3875 103.076 22.3712 103.108 22.3551 103.124C22.3389 103.14 22.3227 103.14 22.3065 103.156C22.2903 103.156 22.2741 103.156 22.2579 103.156L22.2417 103.156C22.2255 103.156 22.2094 103.156 22.2094 103.14C22.177 103.124 22.1447 103.108 22.1285 103.108C22.0799 103.076 22.0313 103.06 21.999 103.027C21.9181 102.963 21.8371 102.915 21.7562 102.851C21.5944 102.738 21.4487 102.61 21.3031 102.481L21.0765 102.288C20.9956 102.224 20.9309 102.16 20.85 102.079C20.7205 101.918 20.591 101.774 20.4777 101.613C19.9922 100.986 19.5552 100.328 19.183 99.6365C18.9888 99.2829 18.827 98.9294 18.6651 98.5598C18.5033 98.2062 18.3576 97.8366 18.2281 97.467C17.953 96.7277 17.7103 95.9885 17.5161 95.2171C17.1115 93.6904 16.8849 92.1316 16.804 90.5727C16.7716 89.7853 16.7392 89.0139 16.7716 88.2264C16.7878 87.8407 16.8039 87.439 16.8525 87.0533C16.9011 86.6515 16.9334 86.2658 17.0629 85.8641C17.0952 85.7676 17.1438 85.6551 17.2409 85.5266C17.2409 85.5266 17.2571 85.5105 17.2733 85.4944C17.2895 85.4784 17.3056 85.4784 17.3218 85.4623C17.3704 85.4462 17.4189 85.4302 17.4675 85.4302C17.516 85.4302 17.5484 85.4462 17.5808 85.4623C17.597 85.4784 17.6293 85.4945 17.6455 85.5105C17.7264 85.5587 17.7588 85.623 17.7911 85.6551C17.9206 85.848 18.0016 86.0248 18.0987 86.2016C18.1472 86.298 18.1796 86.3783 18.2119 86.4748L18.3091 86.7479C18.39 86.9247 18.4709 87.1176 18.5356 87.2943C18.8107 88.0336 19.0374 88.7889 19.2316 89.5442C19.4258 90.2995 19.6362 91.0388 19.8627 91.778C20.0893 92.5173 20.2997 93.2726 20.4939 94.0279C20.8823 95.5385 21.2222 97.0652 21.4811 98.5919C21.5459 98.9776 21.6106 99.3633 21.6592 99.749C21.7077 100.135 21.8048 100.504 21.9019 100.874C21.999 101.244 22.1123 101.613 22.2094 101.999C22.3065 102.385 22.3713 102.77 22.3713 103.172C22.3713 103.22 22.3227 103.268 22.2741 103.268C22.2256 103.268 22.177 103.22 22.177 103.172C22.177 102.802 22.0961 102.417 21.999 102.047C21.9019 101.677 21.7886 101.308 21.6753 100.922C21.562 100.553 21.465 100.167 21.4164 99.7651C21.3517 99.3794 21.2869 98.9937 21.2222 98.624C20.947 97.0973 20.5748 95.5867 20.1702 94.0922C19.9598 93.3368 19.7494 92.5976 19.5229 91.8584C19.2801 91.1191 19.0697 90.3638 18.8755 89.6085C18.6651 88.8693 18.4547 88.114 18.1634 87.4069C18.0987 87.2301 18.0178 87.0533 17.9369 86.8765L17.8235 86.6033C17.7912 86.523 17.7426 86.4265 17.7102 86.3462C17.6293 86.1855 17.5484 86.0087 17.4513 85.8802C17.4352 85.848 17.4027 85.8319 17.4027 85.8159C17.4189 85.8159 17.419 85.8159 17.4513 85.8319C17.4675 85.8319 17.4999 85.8319 17.5161 85.8159C17.5322 85.8159 17.5323 85.8159 17.5323 85.7998C17.5323 85.7998 17.5484 85.7837 17.5484 85.7998C17.5322 85.8319 17.4998 85.8962 17.4675 85.9766C17.3704 86.314 17.3219 86.6997 17.2733 87.0694C17.2409 87.4551 17.2086 87.8407 17.2086 88.2264C17.1762 88.9978 17.1923 89.7692 17.2409 90.5406C17.338 92.0834 17.5646 93.61 17.953 95.0885C18.1472 95.8278 18.39 96.567 18.6651 97.2902C18.8108 97.6438 18.9402 98.0134 19.1021 98.3669C19.2477 98.7205 19.4258 99.0579 19.6038 99.3954C19.9598 100.07 20.3806 100.713 20.8176 101.356C20.9309 101.517 21.0441 101.677 21.1413 101.822C21.1898 101.87 21.2546 101.951 21.3193 102.031L21.5135 102.24C21.6429 102.385 21.7886 102.513 21.9181 102.642C21.9828 102.706 22.0638 102.77 22.1285 102.835C22.1609 102.867 22.1932 102.899 22.2256 102.915C22.2418 102.931 22.2579 102.947 22.2741 102.947C22.2741 102.947 22.2579 102.947 22.2417 102.947C22.2255 102.947 22.2256 102.947 22.2094 102.963C22.1932 102.979 22.177 102.995 22.177 103.011C22.177 103.027 22.177 103.027 22.177 103.043C22.1608 102.995 22.2094 102.931 22.2579 102.931C22.3389 102.915 22.3875 102.947 22.3875 102.995Z" fill="#07453A"/>
<path d="M25.0092 99.218C25.0092 99.218 25.0092 99.2019 25.0092 99.1859C25.0092 99.1698 25.0254 99.1537 25.0254 99.1537C25.0416 99.1377 25.0417 99.1216 25.0578 99.1055C25.074 99.0895 25.0902 99.0734 25.1064 99.0573C25.1387 99.0252 25.1711 98.993 25.2197 98.9609C25.2844 98.9127 25.3653 98.8645 25.43 98.8002C25.5757 98.7038 25.7214 98.6074 25.867 98.527C26.1745 98.3502 26.4658 98.1895 26.7733 98.0288C27.0808 97.8681 27.3883 97.7235 27.6958 97.5628L28.6344 97.1449C29.8968 96.5824 31.1591 96.036 32.4539 95.5379C33.7324 95.0236 35.0595 94.5736 36.3866 94.204L36.8883 94.0755L37.0178 94.0433L37.131 94.0112L37.3738 93.9469C37.6975 93.8505 38.0374 93.754 38.3772 93.6576C38.7171 93.5773 39.0569 93.4969 39.4292 93.4487C39.6072 93.4326 39.8014 93.4166 40.0118 93.4648C40.1251 93.4969 40.2545 93.513 40.3678 93.6737C40.4002 93.7058 40.4164 93.754 40.4326 93.8022C40.4488 93.8504 40.4487 93.8826 40.4487 93.9308C40.4487 93.979 40.4488 94.0111 40.4326 94.0433C40.4326 94.0754 40.4164 94.1076 40.4002 94.1397C40.3193 94.3486 40.206 94.4933 40.0927 94.6379C39.9794 94.7826 39.8499 94.9111 39.7205 95.0236C39.4615 95.2647 39.2026 95.4897 38.9275 95.7147C38.6523 95.9396 38.3772 96.1485 38.0859 96.3414C37.9403 96.4378 37.7946 96.5342 37.6327 96.6307C37.6004 96.6467 37.5518 96.6789 37.5033 96.6949L37.39 96.7432L37.1472 96.8396C35.8687 97.3699 34.5739 97.8681 33.2469 98.2538C31.9036 98.6395 30.528 98.8645 29.1362 98.8645L28.8772 98.8645C28.7963 98.8645 28.7154 98.8645 28.6344 98.8806C28.4726 98.8966 28.2946 98.9127 28.1328 98.9448C27.7929 98.993 27.453 99.0573 27.1132 99.1055L26.0936 99.2823C25.9156 99.3145 25.7537 99.3305 25.5757 99.3627C25.4948 99.3787 25.3976 99.3787 25.3167 99.3948C25.2682 99.3948 25.2358 99.3948 25.1873 99.4109C25.1549 99.4109 25.1387 99.4109 25.1064 99.4109C25.0902 99.4109 25.074 99.4109 25.0254 99.3788C25.0093 99.3627 24.993 99.3627 24.993 99.3305C24.993 99.2502 24.9931 99.2341 25.0092 99.218C25.0092 99.202 25.0092 99.202 25.0092 99.218C25.0092 99.202 25.0092 99.218 25.0092 99.218ZM25.2035 99.2662C25.2035 99.2823 25.2035 99.2823 25.1873 99.2984C25.1711 99.3145 25.1873 99.3145 25.1873 99.2984C25.1873 99.2823 25.1873 99.2823 25.1873 99.2502C25.1711 99.218 25.1711 99.218 25.1549 99.202C25.1225 99.1859 25.1388 99.1859 25.1388 99.1859C25.1549 99.1859 25.1711 99.1859 25.1873 99.1859C25.2196 99.1859 25.2682 99.1859 25.3006 99.1698C25.3815 99.1538 25.4624 99.1538 25.5595 99.1377C25.7213 99.1056 25.8994 99.0734 26.0612 99.0573L27.0808 98.8645C27.4207 98.8002 27.7605 98.7359 28.1004 98.6877C28.2784 98.6556 28.4403 98.6395 28.6183 98.6074C28.6992 98.5913 28.7963 98.5913 28.8934 98.5913L29.1524 98.5913C30.5118 98.5591 31.8712 98.302 33.1821 97.9163C34.493 97.5306 35.7716 97.0164 37.034 96.486L37.2767 96.3896L37.39 96.3414C37.4223 96.3253 37.4547 96.3092 37.4871 96.2932C37.6166 96.2128 37.7622 96.1164 37.9079 96.02C38.183 95.8271 38.4581 95.6182 38.7171 95.4093C38.976 95.2004 39.2349 94.9754 39.4777 94.7343C39.591 94.6218 39.7043 94.4933 39.8176 94.3647C39.9147 94.2361 40.0118 94.1076 40.0441 93.9951C40.0441 93.979 40.0603 93.9629 40.0603 93.9629C40.0603 93.9469 40.0603 93.9469 40.0603 93.9469C40.0603 93.9469 40.0603 93.9308 40.0603 93.9469C40.0603 93.9469 40.0603 93.9469 40.0603 93.9629C40.0765 93.979 40.0279 93.9469 39.9632 93.9308C39.8337 93.8987 39.6719 93.9147 39.5101 93.9308C39.1864 93.9629 38.8627 94.0433 38.5229 94.1236C38.1992 94.204 37.8755 94.3004 37.5356 94.4129L37.2929 94.4933L37.1634 94.5254L37.034 94.5576L36.5323 94.6861C35.2214 95.0557 33.9266 95.5057 32.6481 96.02C31.3696 96.5342 30.1234 97.0807 28.8611 97.6431C28.2299 97.9163 27.5987 98.1895 26.9837 98.4788L26.045 98.8966C25.8832 98.9609 25.7375 99.0412 25.5757 99.1055C25.4948 99.1377 25.43 99.1859 25.3491 99.218C25.3168 99.2341 25.2844 99.2502 25.252 99.2823C25.2196 99.2502 25.1873 99.2823 25.2035 99.2662Z" fill="#07453A"/>
<path d="M21.9178 85.4464C21.9663 84.7714 21.8692 84.0965 21.8369 83.3894C21.8207 83.0358 21.8369 82.6662 21.8855 82.3126L21.9826 81.7984C22.015 81.6216 22.0635 81.4609 22.0958 81.2841C22.4195 79.9181 22.8888 78.5843 23.4715 77.3147C24.0541 76.0452 24.7176 74.8077 25.4783 73.6346C25.8505 73.04 26.2875 72.4775 26.773 71.9633C27.0157 71.7062 27.2747 71.4651 27.5499 71.2401C27.6631 71.1437 27.7926 71.0151 27.9221 70.9026C27.9868 70.8383 28.0516 70.7901 28.1163 70.7259C28.1487 70.6937 28.181 70.6616 28.2457 70.6294C28.2619 70.6294 28.262 70.6134 28.2781 70.6134C28.2943 70.6134 28.2781 70.6134 28.3105 70.5973C28.359 70.5973 28.2943 70.5652 28.4562 70.5973C28.6018 70.6776 28.537 70.6455 28.5532 70.6616L28.5694 70.6776C28.5856 70.6937 28.5856 70.7098 28.6018 70.7259C28.618 70.758 28.618 70.7741 28.6341 70.7901C28.6341 70.8062 28.6503 70.8223 28.6503 70.8544C28.6665 70.983 28.6665 71.0794 28.6503 71.1758C28.6503 71.2723 28.6342 71.3526 28.618 71.449C28.5856 71.6258 28.5533 71.8026 28.5209 71.9794C28.44 72.3168 28.3591 72.6704 28.2781 73.0079C28.1001 73.6828 27.9059 74.3578 27.6955 75.0167C27.2747 76.3505 26.7892 77.6522 26.2227 78.9218C25.6563 80.1913 25.0252 81.4448 24.3131 82.634C24.135 82.9233 23.957 83.2447 23.7628 83.5179L23.1802 84.3857C22.986 84.675 22.7918 84.9642 22.6137 85.2535C22.5166 85.3981 22.4357 85.5428 22.3386 85.6874C22.29 85.7678 22.2577 85.8321 22.2092 85.9124C22.1768 85.9767 22.1282 86.0731 22.1282 86.1053L22.112 86.1374C22.0958 86.1856 22.0473 86.2178 21.9987 86.2017C21.9502 86.1856 21.9178 86.1374 21.9178 86.0892C21.934 86.0249 21.934 85.9606 21.9664 85.9285C21.9826 85.8803 21.9987 85.8481 22.0149 85.7999C22.0473 85.7196 22.0959 85.6392 22.1444 85.5589C22.2254 85.3982 22.3224 85.2535 22.4033 85.1089C22.5813 84.8036 22.7756 84.5143 22.9536 84.225L23.5201 83.3572C23.7143 83.0679 23.8761 82.7787 24.0541 82.4733C24.7338 81.268 25.3326 80.0306 25.8829 78.7611C26.4331 77.4915 26.9025 76.1898 27.3071 74.872C27.5013 74.2132 27.6955 73.5382 27.8573 72.8793C27.9383 72.5418 28.0192 72.2043 28.0839 71.8829C28.1163 71.7222 28.1486 71.5454 28.1648 71.3847C28.181 71.3044 28.181 71.224 28.1972 71.1437C28.1972 71.0633 28.1972 70.983 28.1972 70.9348C28.1972 70.9348 28.1972 70.9187 28.1972 70.9348C28.1972 70.9348 28.1972 70.9508 28.2134 70.9508C28.2458 70.9669 28.1648 70.9187 28.3105 71.0151C28.4561 71.0312 28.3914 71.0151 28.44 71.0151L28.4562 70.9991C28.4724 70.9991 28.4562 70.9991 28.4562 70.9991C28.44 71.0151 28.4076 71.0312 28.3753 71.0633C28.3105 71.1115 28.2458 71.1758 28.181 71.224C28.0515 71.3365 27.9383 71.449 27.7926 71.5776C27.5337 71.8026 27.2909 72.0275 27.0481 72.2686C26.5788 72.7668 26.1742 73.3132 25.8019 73.8917C25.0575 75.0488 24.394 76.2702 23.8275 77.5237C23.2611 78.7772 22.8079 80.0789 22.5004 81.4127L22.3872 81.9109L22.2901 82.4091C22.2253 82.7305 22.2092 83.0679 22.2092 83.4054C22.193 84.0804 22.2415 84.8035 22.0635 85.4946C22.0473 85.5428 21.9987 85.5749 21.934 85.5749C21.9502 85.5428 21.9178 85.5106 21.9178 85.4464Z" fill="#07453A"/>
<path d="M13.0817 75.7874C13.6644 76.4784 14.3764 77.073 15.0561 77.6515C15.7359 78.2461 16.448 78.7926 17.241 79.2104C18.0178 79.6282 18.8756 79.9336 19.7495 79.9818C19.9599 79.9978 20.1865 79.9818 20.3807 79.9496C20.3968 79.9496 20.4293 79.9336 20.4455 79.9336L20.4616 79.9336C20.4616 79.9336 20.4454 79.9496 20.4293 79.9496C20.4778 79.8853 20.2836 80.0461 20.3969 80.255L20.3807 80.2389L20.2836 80.1103L20.0732 79.8371C19.7981 79.4836 19.523 79.114 19.2317 78.7926C18.9403 78.4551 18.6005 78.1819 18.2444 77.8765C17.9046 77.5712 17.5646 77.2659 17.2248 76.9605C16.5451 76.3498 15.8816 75.7231 15.1695 75.1606C14.4574 74.5981 13.6967 74.116 12.8713 73.7142C12.4667 73.5053 12.046 73.3125 11.6252 73.1357C11.2206 72.9429 10.7836 72.8143 10.3466 72.6697L10.4599 72.4768C10.735 72.7179 11.0101 72.9429 11.2529 73.2161C11.3176 73.2804 11.3662 73.3607 11.4309 73.4411L11.5766 73.6661L11.8679 74.116C12.2402 74.6624 12.6286 75.241 13.0817 75.7874ZM12.936 75.9159C12.4667 75.3695 12.0783 74.7749 11.6737 74.1803L11.3824 73.7303L11.2367 73.5054C11.1882 73.4411 11.1396 73.3768 11.0749 73.3125C10.8483 73.0554 10.5732 72.8143 10.3143 72.6054C10.2657 72.5572 10.2657 72.4929 10.2981 72.4447C10.3304 72.4125 10.379 72.3965 10.4275 72.4126C10.8645 72.5572 11.3176 72.6857 11.7384 72.8786C12.1592 73.0554 12.58 73.2482 13.0008 73.4411C13.8262 73.8267 14.6353 74.3089 15.3636 74.8714C16.1081 75.4338 16.7878 76.0445 17.4675 76.6391C17.8074 76.9445 18.1473 77.2498 18.5034 77.539C18.8432 77.8283 19.2155 78.1176 19.5391 78.4711C19.8628 78.8086 20.1379 79.1783 20.4293 79.5318L20.6396 79.805L20.7529 79.9336L20.7691 79.9496C20.8824 80.1585 20.672 80.3353 20.7367 80.255C20.7206 80.2711 20.7043 80.2871 20.7043 80.2871L20.6882 80.2871C20.6559 80.3032 20.6396 80.3032 20.6234 80.3193C20.5911 80.3353 20.5587 80.3353 20.5264 80.3514C20.2674 80.3996 20.0247 80.4157 19.7819 80.3996C18.8109 80.3675 17.9045 80.03 17.0629 79.5961C16.2376 79.1622 15.477 78.5997 14.7811 77.989C14.069 77.3623 13.5186 76.607 12.936 75.9159Z" fill="#07453A"/>
<path d="M30.9327 90.0583C30.9165 90.0583 30.8842 90.0422 30.868 90.0101C30.8518 89.994 30.8518 89.9619 30.8518 89.9619C30.8518 89.9458 30.8518 89.9137 30.8518 89.9137C30.8518 89.8976 30.868 89.8815 30.868 89.8654C30.8842 89.8333 30.8841 89.8172 30.9003 89.8012C30.9165 89.769 30.9489 89.7369 30.9651 89.7047C31.0137 89.6405 31.046 89.5762 31.0946 89.528C31.1917 89.4155 31.2888 89.303 31.3697 89.1905C31.5639 88.9816 31.7581 88.7566 31.9685 88.5638C32.1627 88.3548 32.3893 88.1459 32.6158 87.9691C32.8424 87.7924 33.0852 87.6156 33.3279 87.4549C33.8134 87.1334 34.3152 86.8442 34.8007 86.5388L36.241 85.5907C37.1959 84.9479 38.167 84.3211 39.1704 83.7426C39.4293 83.598 39.6721 83.4533 39.9311 83.3247C40.0605 83.2605 40.19 83.1962 40.3195 83.1319C40.4327 83.0676 40.5622 83.0033 40.6917 82.923C40.9506 82.7783 41.2096 82.6498 41.4847 82.5212C41.6304 82.4569 41.7598 82.4087 41.9541 82.3766C42.0026 82.3766 42.0673 82.3605 42.1644 82.3926C42.1968 82.4087 42.213 82.4087 42.2453 82.4248C42.2615 82.4409 42.2777 82.4409 42.2939 82.4569C42.3263 82.4891 42.3587 82.5373 42.3587 82.5855C42.3748 82.6659 42.3587 82.698 42.3587 82.7301C42.3425 82.8266 42.3101 82.8908 42.2939 82.9712C42.1968 83.2605 42.0673 83.5176 41.9541 83.7747L41.7598 84.1604L41.7113 84.2568L41.6789 84.3211L41.6466 84.3693L41.5333 84.5622C41.2581 85.0603 40.9506 85.5907 40.4975 86.0085C39.6074 86.7799 38.6201 87.4067 37.552 87.8888C36.4838 88.3709 35.3834 88.7084 34.2828 89.0619L33.4574 89.3191C33.1823 89.3994 32.9234 89.4958 32.6482 89.6083C32.3893 89.7208 32.1142 89.8172 31.839 89.9137C31.6934 89.9619 31.5639 90.0101 31.4182 90.0422C31.3373 90.0583 31.2726 90.0744 31.1917 90.0744C31.1593 90.0744 31.1269 90.0905 31.0784 90.0905C31.0298 90.0744 30.9813 90.0744 30.9327 90.0583ZM30.9812 89.8654C31.0136 89.8654 31.0298 89.8655 31.0622 89.8494C31.0945 89.8494 31.1269 89.8333 31.1593 89.8333C31.224 89.8172 31.2888 89.8012 31.3697 89.7851C31.4992 89.7529 31.6449 89.7048 31.7743 89.6566C32.0333 89.5601 32.3084 89.4476 32.5673 89.3351C32.8263 89.2227 33.1176 89.1101 33.3765 89.0298L34.2019 88.7566C35.3024 88.387 36.3867 88.0173 37.4063 87.5352C37.9242 87.2942 38.426 87.021 38.8953 86.7156C39.3646 86.4103 39.8177 86.0567 40.2385 85.6871C40.6431 85.3175 40.9021 84.8354 41.1934 84.3372L41.3067 84.1443L41.339 84.0961L41.3552 84.064L41.4038 83.9676L41.5818 83.5819C41.6951 83.3248 41.8083 83.0676 41.9055 82.8105C41.9216 82.7462 41.9541 82.6819 41.9541 82.6337C41.9541 82.6337 41.9541 82.6177 41.9541 82.6659C41.9541 82.698 41.9864 82.7462 42.0026 82.7623L42.0188 82.7784C42.035 82.7944 42.0512 82.7944 42.0512 82.7944C42.0835 82.7944 42.0673 82.7944 42.035 82.7944C41.9379 82.8105 41.8084 82.8587 41.6789 82.923C41.4199 83.0355 41.1772 83.1641 40.9183 83.3087C40.7888 83.373 40.6755 83.4533 40.5298 83.5176C40.4003 83.5819 40.2709 83.6462 40.1576 83.7105C39.8987 83.839 39.6559 83.9836 39.4131 84.1283C38.4259 84.6907 37.4711 85.3336 36.5162 85.9764L35.0758 86.9406C34.5903 87.262 34.0886 87.5513 33.6193 87.8566C33.15 88.162 32.6968 88.4995 32.276 88.8691L31.6286 89.4315C31.5153 89.528 31.4182 89.6244 31.3049 89.7208C31.2564 89.769 31.2078 89.8172 31.1593 89.8654C31.1269 89.8815 31.1108 89.9137 31.0946 89.9297L31.0622 89.9619C31.0622 89.9619 31.0622 89.9458 31.0622 89.9297C31.0622 89.9297 31.0622 89.9137 31.046 89.8976C31.0137 89.8815 30.9974 89.8815 30.9812 89.8654Z" fill="#07453A"/>
<path d="M17.532 110.902C17.5159 110.902 17.5158 110.918 17.4349 110.87C17.3702 110.693 17.4511 110.757 17.4349 110.725C17.4511 110.709 17.4511 110.709 17.4672 110.709L17.4996 110.693L17.5482 110.661L17.6453 110.596C17.71 110.548 17.791 110.516 17.8557 110.468C18.0014 110.371 18.147 110.275 18.2926 110.211C18.4545 110.13 18.6163 110.066 18.7944 110.034C18.9724 109.986 19.1343 109.954 19.3123 109.937C19.992 109.857 20.6717 109.889 21.3029 109.889C21.6266 109.889 21.934 109.873 22.2577 109.825C22.5814 109.777 22.9213 109.745 23.245 109.696C23.9085 109.616 24.5559 109.552 25.2194 109.504C26.5465 109.407 27.8735 109.359 29.2006 109.407C29.5405 109.423 29.8642 109.439 30.2041 109.471C30.3659 109.487 30.5439 109.504 30.7058 109.52L30.819 109.536C30.8514 109.536 30.8838 109.536 30.9323 109.536C31.0133 109.536 31.0942 109.536 31.1751 109.536C31.4988 109.536 31.8387 109.536 32.1785 109.552C32.3404 109.568 32.5184 109.584 32.6964 109.6C32.7935 109.616 32.8744 109.632 32.9715 109.68C33.0201 109.696 33.0686 109.712 33.1334 109.761L33.1819 109.793L33.1981 109.809C33.1819 109.664 33.3114 110.114 33.2305 110.082C33.2143 110.098 33.1819 110.13 33.1819 110.13L33.1657 110.146C33.1333 110.179 33.1171 110.178 33.0848 110.195C33.0362 110.227 33.0039 110.243 32.9553 110.259C32.9392 110.275 32.923 110.275 32.8744 110.291L32.8097 110.307C32.745 110.339 32.6802 110.355 32.5993 110.403C32.4536 110.468 32.3242 110.564 32.1623 110.628C31.8387 110.789 31.515 110.886 31.1913 110.982C30.8676 111.062 30.544 111.143 30.2365 111.223C30.1717 111.239 30.1231 111.271 30.026 111.303C29.9289 111.336 29.8642 111.352 29.7671 111.384C29.6052 111.432 29.4434 111.464 29.2654 111.496C27.9383 111.737 26.6274 111.834 25.3003 111.898C24.6368 111.93 23.9732 111.946 23.3097 111.946C22.6461 111.946 21.9826 111.93 21.3191 111.866C21.1572 111.85 20.9792 111.818 20.8174 111.802L20.3318 111.721C20.0082 111.657 19.6845 111.593 19.3608 111.528C19.0371 111.464 18.7134 111.384 18.3898 111.303C18.2279 111.255 18.0661 111.191 17.9204 111.127C17.8395 111.095 17.7586 111.062 17.6939 111.03L17.6453 110.998C17.6453 110.998 17.6291 110.998 17.613 110.982L17.5482 110.966L17.5158 110.95C17.4997 110.934 17.532 110.982 17.4511 110.918C17.3864 110.789 17.5968 110.709 17.5158 110.757C17.532 110.757 17.532 110.757 17.5482 110.757C17.5967 110.757 17.6453 110.789 17.6615 110.853C17.6615 110.902 17.6291 110.95 17.5644 110.966L17.5482 110.966C17.5482 110.966 17.532 110.966 17.5482 110.966C17.4834 111.014 17.6615 110.934 17.613 110.805C17.532 110.741 17.5805 110.789 17.5644 110.773L17.5806 110.773L17.6453 110.789C17.6615 110.789 17.6938 110.805 17.7262 110.821L17.7748 110.853C17.8395 110.886 17.9204 110.918 18.0014 110.95C18.147 111.014 18.3088 111.062 18.4545 111.095C18.762 111.175 19.0856 111.239 19.4093 111.303C19.733 111.368 20.0567 111.416 20.3804 111.48L20.8659 111.561C21.0277 111.577 21.1896 111.609 21.3514 111.609C22.6461 111.705 23.9732 111.641 25.2842 111.561C26.5951 111.48 27.906 111.368 29.1845 111.111C29.3463 111.078 29.5082 111.046 29.6538 110.998C29.7186 110.982 29.8156 110.95 29.8804 110.934L29.9937 110.886L30.0584 110.853C30.0908 110.837 30.107 110.837 30.1231 110.837C30.4468 110.741 30.7705 110.661 31.078 110.58C31.3855 110.484 31.693 110.403 31.9519 110.259C32.0976 110.179 32.2271 110.098 32.3889 110.018C32.4698 109.97 32.5507 109.937 32.6317 109.905L32.6964 109.889C32.6964 109.889 32.7126 109.873 32.7288 109.873C32.7611 109.857 32.7935 109.841 32.8259 109.825L32.8582 109.809C32.8582 109.809 32.8259 109.841 32.8259 109.857C32.745 109.825 32.8744 110.259 32.8582 110.114C32.8582 110.114 32.8259 110.098 32.8097 110.082C32.7611 110.066 32.6802 110.05 32.6155 110.034C32.4698 110.002 32.308 110.002 32.1461 109.986C31.8225 109.97 31.4988 109.97 31.1589 109.97C31.078 109.97 30.997 109.97 30.8999 109.97C30.8514 109.97 30.819 109.97 30.7543 109.953L30.6249 109.937C30.463 109.921 30.3012 109.905 30.1393 109.889C29.8157 109.857 29.492 109.841 29.1683 109.841C27.8574 109.793 26.5465 109.857 25.2356 109.953C24.5882 110.002 23.9247 110.066 23.2774 110.146C22.9537 110.179 22.63 110.227 22.3063 110.275C21.9665 110.323 21.6265 110.339 21.2867 110.339C20.6069 110.339 19.9596 110.291 19.3284 110.323C19.0047 110.339 18.6973 110.387 18.4222 110.5C18.2765 110.548 18.1308 110.612 17.9852 110.693C17.9042 110.725 17.8233 110.757 17.7586 110.805L17.6453 110.853L17.5968 110.886L17.5806 110.902C17.5644 110.87 17.6291 110.95 17.5806 110.773C17.4996 110.725 17.5158 110.757 17.4996 110.741C17.5482 110.741 17.613 110.773 17.613 110.821C17.6291 110.837 17.5806 110.902 17.532 110.902Z" fill="#07453A"/>
<path d="M6.05762 58.3511C6.15472 57.9654 6.31658 58.3993 6.23566 58.2868L6.23566 58.3189L6.23566 58.3671L6.23566 58.4796L6.23566 58.6885L6.23566 59.1064L6.25178 59.926C6.26796 60.4724 6.25184 61.0348 6.23566 61.5812C6.20329 62.6901 6.12234 63.7829 6.12234 64.8757C6.13852 67.0774 5.97667 69.2951 5.78246 71.4807C5.58825 73.6824 5.32931 75.8679 5.21602 78.0535C5.08655 80.2552 4.98944 82.4569 4.89234 84.6425C4.52011 93.4331 4.47154 102.256 5.03798 111.03L5.08658 111.85L5.1189 112.268C5.1189 112.412 5.1189 112.557 5.1189 112.686C5.1189 113.232 5.10278 113.794 5.10278 114.341L5.03798 117.635C5.02179 118.728 5.00561 119.837 5.03798 120.93C5.03798 121.058 5.05418 121.203 5.05418 121.332C5.05418 121.396 5.07038 121.46 5.07038 121.524C5.07038 121.54 5.07038 121.557 5.07038 121.557L5.07038 121.573C5.07038 121.589 5.05416 121.54 5.03798 121.524C5.02179 121.508 5.02186 121.508 5.02186 121.492C5.00567 121.476 5.00564 121.476 4.98946 121.476C4.97327 121.476 4.97327 121.476 4.98946 121.476C5.2484 121.492 5.53973 121.508 5.81486 121.524L7.48178 121.621C8.58229 121.685 9.69898 121.749 10.7995 121.846C11.3497 121.894 11.9162 121.942 12.4665 122.006C13.0167 122.071 13.567 122.135 14.1172 122.183C16.3182 122.408 18.5354 122.521 20.7364 122.569C25.1547 122.665 29.5891 122.456 34.0073 122.151C35.1078 122.071 36.2245 121.99 37.325 121.894L38.1504 121.83L38.9758 121.782L40.6427 121.701L47.2944 121.38L47.1002 121.573C47.1164 120.496 47.1326 119.419 47.1487 118.342C47.1487 117.266 47.1649 116.189 47.1325 115.128C47.1325 115.064 47.1325 115 47.1163 114.935L47.1002 114.743L47.0516 114.341C47.0193 114.068 46.9707 113.811 46.9545 113.537L46.8575 112.734L46.7765 111.93C46.6794 110.854 46.5823 109.777 46.5176 108.7C46.2425 104.393 46.1453 100.07 46.1453 95.7633C46.1129 87.1495 45.0124 78.5839 44.7859 69.954C44.7535 68.8773 44.7535 67.8006 44.7373 66.7078L44.8021 63.4776L44.8506 60.2474L44.8668 58.6404C44.8668 58.11 44.883 57.5636 44.8506 57.0333C44.8506 57.0012 44.8506 56.969 44.8506 56.9529C44.8506 56.9529 44.883 57.0333 44.9315 57.0493C44.9639 57.0654 44.9477 57.0493 44.9315 57.0493C44.9153 57.0493 44.883 57.0493 44.8506 57.0493L44.7373 57.0493L44.3327 57.0493L43.5235 57.0333L41.8889 57.0011C40.8046 56.969 39.7203 56.9529 38.6359 56.9851C37.5516 57.0172 36.4673 57.0815 35.383 57.1458L32.13 57.3225C27.7927 57.5636 23.4716 57.8207 19.1342 58.0297C16.9656 58.1261 14.797 58.2225 12.6283 58.2707C12.0781 58.2868 11.544 58.3029 10.9937 58.3189C10.4435 58.335 9.90939 58.3511 9.35913 58.3511L7.72454 58.3671C7.19046 58.3671 6.62406 58.3671 6.05762 58.3511ZM6.21946 58.2225C6.75353 58.2064 7.25525 58.1743 7.77314 58.1743L9.39153 58.1422C9.94179 58.1422 10.4759 58.1261 11.0099 58.11C11.544 58.0939 12.0943 58.0779 12.6283 58.0618C14.797 57.9975 16.9656 57.9011 19.1342 57.7886C23.4716 57.5797 27.7927 57.3065 32.13 57.0493L35.383 56.8565C36.4673 56.7922 37.5516 56.7279 38.6359 56.6958C39.7203 56.6637 40.8208 56.6797 41.9051 56.6958L43.5235 56.7279L44.3327 56.7279L44.7373 56.7279L44.8345 56.7279C44.8668 56.7279 44.8992 56.7279 44.9477 56.7279C44.9801 56.7279 44.9801 56.728 45.0448 56.744C45.1096 56.7601 45.1581 56.8565 45.1581 56.8726L45.1581 56.9208C45.1581 56.969 45.1743 57.0012 45.1743 57.0333C45.2066 57.5797 45.1905 58.1261 45.1905 58.6564L45.1743 60.2795L45.1257 63.5097L45.0772 66.7399C45.0772 67.8166 45.0934 68.8934 45.1257 69.9701C45.3523 78.5839 46.4528 87.1495 46.5014 95.7955C46.5176 100.102 46.6147 104.409 46.8898 108.7C46.9545 109.777 47.0516 110.854 47.1487 111.914L47.2297 112.718L47.3268 113.521C47.3591 113.794 47.3915 114.052 47.4239 114.325L47.4724 114.727L47.4886 114.935C47.4886 115 47.4886 115.08 47.5048 115.144C47.5372 116.237 47.5209 117.314 47.5209 118.391C47.5048 119.467 47.5048 120.544 47.4724 121.621C47.4724 121.733 47.3915 121.814 47.2782 121.814L40.6427 122.135L38.9758 122.215L38.1504 122.264L37.325 122.328C36.2245 122.424 35.1078 122.505 34.0073 122.585C29.5729 122.906 25.1385 123.115 20.6879 123.019C18.4707 122.971 16.2373 122.858 14.0363 122.633C13.486 122.585 12.9358 122.505 12.3856 122.456C11.8353 122.392 11.285 122.344 10.7348 122.296C9.63426 122.215 8.53375 122.135 7.41706 122.071L5.75014 121.974C5.47501 121.958 5.19985 121.942 4.90854 121.926C4.90854 121.926 4.87619 121.926 4.84382 121.91C4.81145 121.91 4.77908 121.894 4.7629 121.878C4.73053 121.862 4.71435 121.862 4.68198 121.83C4.64961 121.798 4.61726 121.749 4.61726 121.733C4.61726 121.717 4.60106 121.701 4.60106 121.685L4.58486 121.653C4.58486 121.621 4.58484 121.605 4.56866 121.589C4.55247 121.508 4.55246 121.444 4.55246 121.364C4.53627 121.219 4.53634 121.074 4.53634 120.946C4.50397 119.837 4.52015 118.728 4.53634 117.635L4.60106 114.325C4.61724 113.778 4.61726 113.232 4.61726 112.67C4.61726 112.541 4.61726 112.396 4.61726 112.268L4.58486 111.866L4.53634 111.046C3.95371 102.24 4.00225 93.417 4.3583 84.6103C4.4554 82.4087 4.56871 80.207 4.69818 78.0054C4.84383 75.8037 5.08655 73.602 5.29694 71.4164C5.52351 69.2308 5.70155 67.0452 5.71774 64.8436C5.73392 63.7347 5.83104 62.6419 5.89578 61.5331C5.92814 60.9867 5.9443 60.4402 5.9443 59.8938L5.9605 59.0743L5.9605 58.6564L5.9605 58.4475L5.9605 58.3511L5.9605 58.3029L5.9605 58.2868C5.97668 58.1743 6.13854 58.5761 6.21946 58.2225Z" fill="#07453A"/>
<path d="M19.5583 9.69242C19.6222 10.0007 19.635 10.3089 19.6606 10.6062C19.6734 10.9144 19.6862 11.2117 19.6862 11.5199L19.699 12.4227L19.7375 13.3254L19.8269 16.9584L19.8909 20.5914C19.9037 21.8024 19.9294 23.0134 19.9038 24.2354C19.9038 24.5106 19.9293 24.8188 19.9549 25.1161L20.0445 26.0188C20.1085 26.6243 20.1725 27.2188 20.2365 27.8243C20.3772 29.0243 20.518 30.2353 20.6716 31.4352L21.1195 35.0462L21.3498 36.8517L21.4778 37.7544L21.5417 38.2058L21.5801 38.426L21.6057 38.5361L21.6185 38.5911L21.6185 38.6132L21.6185 38.6241C21.6313 38.6462 21.6186 38.5911 21.529 38.5801C21.5802 38.5801 21.6313 38.6241 21.6313 38.6792C21.6313 38.7342 21.5802 38.7783 21.529 38.7783C21.4394 38.7673 21.4266 38.7012 21.4394 38.7232C21.4394 38.7122 21.4265 38.7122 21.4265 38.7012L21.4265 38.6792L21.4138 38.6462L21.401 38.5911L21.3754 38.481L21.337 38.2608L21.2602 37.8095L21.1195 36.9068L20.8507 35.1123C20.6715 33.9123 20.4924 32.7123 20.3261 31.5123C20.1597 30.3123 20.0061 29.1124 19.8526 27.9014C19.7758 27.2959 19.699 26.7014 19.635 26.0959L19.5455 25.1931C19.5199 24.8849 19.4815 24.5986 19.4815 24.2574C19.5071 23.0574 19.4687 21.8464 19.4559 20.6354L19.3663 17.0024L19.2511 13.3695L19.2383 12.9181C19.2383 12.7639 19.2256 12.6208 19.2256 12.4557C19.2256 12.1474 19.2512 11.8392 19.264 11.5419C19.2895 10.9364 19.3535 10.331 19.3663 9.73648C19.3663 9.68143 19.4175 9.63738 19.4686 9.63738C19.507 9.61536 19.5455 9.64839 19.5583 9.69242Z" fill="#07453A"/>
<path d="M23.1798 9.81386C23.1926 10.4083 23.2438 11.0028 23.2694 11.5973C23.3078 12.1918 23.3334 12.7973 23.359 13.3918C23.4102 14.5918 23.4869 15.7918 23.5253 17.0028C23.5381 17.6193 23.5253 18.2137 23.5381 18.8192L23.5637 20.6247C23.5893 21.8247 23.6149 23.0247 23.666 24.2357C23.7556 26.6356 23.8836 29.0466 24.0116 31.4466L24.2804 35.0465C24.3699 36.2465 24.4594 37.4465 24.4594 38.6685C24.4594 38.7236 24.4083 38.7676 24.3571 38.7676C24.3059 38.7676 24.2547 38.7236 24.2547 38.6685C24.2292 37.4685 24.114 36.2685 23.9988 35.0796C23.8837 33.8796 23.7557 32.6796 23.6533 31.4796C23.4869 29.0686 23.3333 26.6687 23.2182 24.2577C23.167 23.0577 23.1287 21.8467 23.1031 20.6357L23.0775 18.8302C23.0647 18.2357 23.0775 17.6193 23.0647 17.0248C23.0135 15.8248 22.9367 14.6248 22.8855 13.4248C22.8599 12.8193 22.8344 12.2138 22.8472 11.6083C22.86 11.0028 22.8727 10.3973 22.9879 9.78083C23.0007 9.72578 23.0519 9.69276 23.1031 9.70377C23.1543 9.71478 23.1798 9.75881 23.1798 9.81386Z" fill="#07453A"/>
<path d="M26.059 9.78075C26.1102 10.9807 26.1103 12.1807 26.0847 13.3807C26.0719 13.9752 26.0591 14.5807 26.0719 15.1752C26.0719 15.4724 26.0719 15.7697 26.0847 16.0669C26.0975 16.3532 26.1231 16.6614 26.1359 16.9586C26.2895 19.3586 26.3661 21.7586 26.4813 24.1586C26.5837 26.5585 26.7373 28.9475 27.0316 31.3254C27.1852 32.5144 27.3387 33.7144 27.4667 34.9033C27.5946 36.1033 27.7226 37.2923 27.7482 38.5033C27.7482 38.5584 27.7098 38.6024 27.6459 38.6024C27.5947 38.6024 27.5435 38.5584 27.5435 38.5033C27.4923 37.3143 27.3259 36.1144 27.1851 34.9254C27.0315 33.7364 26.8524 32.5474 26.6732 31.3584C26.3405 28.9695 26.1614 26.5695 26.0207 24.1695C25.8927 21.7696 25.8159 19.3696 25.6495 16.9807C25.6239 16.6834 25.6111 16.3862 25.5856 16.0779C25.5728 15.7697 25.5729 15.4724 25.5601 15.1642C25.5601 14.5587 25.56 13.9642 25.5728 13.3587C25.5856 12.7532 25.6111 12.1587 25.6495 11.5532C25.6879 10.9477 25.7391 10.3532 25.8415 9.74772C25.8543 9.69267 25.9055 9.65967 25.9567 9.65967C26.0207 9.68169 26.059 9.72571 26.059 9.78075Z" fill="#07453A"/>
<path d="M28.6823 9.48307C28.9255 10.661 28.9895 11.894 28.9255 13.094C28.8615 14.294 28.7719 15.483 28.7975 16.672C28.7975 17.2665 28.8359 17.8609 28.8743 18.4554L28.9766 20.2499L29.1686 23.8388L29.3478 27.4278L29.3734 27.8792L29.4118 28.3195C29.4374 28.6168 29.4758 28.914 29.5014 29.2112L29.7061 30.9947L30.1283 34.5616L30.3332 36.3451C30.3972 36.9396 30.4612 37.5341 30.4868 38.1506C30.4868 38.2056 30.4483 38.2497 30.3843 38.2497C30.3331 38.2497 30.2819 38.2056 30.2819 38.1506L30.2819 38.1396C30.2435 37.5561 30.1668 36.9616 30.09 36.3671L29.8469 34.5837L29.3605 31.0277L29.1302 29.2443C29.0918 28.947 29.0535 28.6498 29.0279 28.3525L28.9895 27.9012L28.9639 27.4498L28.7336 23.8609L28.516 20.2719L28.4136 18.4774C28.3752 17.8829 28.3368 17.2775 28.3368 16.672C28.3112 15.461 28.4008 14.261 28.452 13.072C28.4776 12.4775 28.5032 11.883 28.5032 11.2885L28.4904 9.50508C28.4904 9.45003 28.5287 9.40601 28.5927 9.40601C28.6311 9.395 28.6695 9.43903 28.6823 9.48307Z" fill="#07453A"/>
<path d="M4.56874 44.386C4.64966 44.4342 4.74681 44.4664 4.8601 44.4985C4.9572 44.5307 5.07049 44.5467 5.18378 44.5789C5.39417 44.6271 5.62068 44.6592 5.84726 44.6914C6.07383 44.7235 6.28424 44.7556 6.51082 44.7717C6.6241 44.7878 6.73739 44.8038 6.8345 44.8038L7.17438 44.836C8.06449 44.9003 8.97083 44.9485 9.87713 44.9967C10.7834 45.0449 11.6897 45.0931 12.596 45.1574C13.0492 45.1895 13.5023 45.2217 13.9554 45.286C14.4086 45.3342 14.8618 45.3984 15.2988 45.4306C16.1889 45.5109 17.0951 45.5431 17.9852 45.5109C18.4384 45.4949 18.8754 45.4788 19.3124 45.4145C19.5389 45.3985 19.7493 45.3502 19.9759 45.3181C20.2025 45.286 20.429 45.2538 20.6718 45.2377C21.5943 45.1574 22.5006 45.1895 23.4069 45.1895C23.86 45.1895 24.3132 45.1895 24.7502 45.1735C25.1871 45.1574 25.6403 45.1092 26.0934 45.077C29.7024 44.7878 33.2953 44.4503 36.9044 44.0485C38.7008 43.8396 40.4972 43.6628 42.2774 43.3736C44.0576 43.1004 45.8702 42.8271 47.699 42.8271C47.7476 42.8271 47.7961 42.8754 47.7961 42.9236C47.7961 42.9718 47.7476 43.02 47.699 43.02C45.9026 43.0361 44.1062 43.3414 42.326 43.6307C40.5458 43.936 38.7331 44.161 36.9367 44.3699C33.3438 44.7878 29.7348 45.1574 26.1258 45.4788C25.6727 45.5109 25.2195 45.5592 24.7664 45.5752C24.3132 45.5913 23.8601 45.6074 23.3907 45.5913C22.4844 45.5913 21.5781 45.5752 20.7042 45.6556C20.4776 45.6717 20.2672 45.7038 20.0406 45.7359C19.8302 45.7681 19.5874 45.8002 19.3609 45.8323C18.9077 45.8806 18.4384 45.9127 17.9852 45.9288C17.0627 45.9609 16.1565 45.9288 15.2502 45.8484C14.797 45.8163 14.3439 45.752 13.8907 45.7038C13.4376 45.6556 13.0006 45.6234 12.5475 45.5913C11.6412 45.527 10.751 45.4788 9.84473 45.4467C8.93843 45.3985 8.03216 45.3342 7.12585 45.2217L6.78598 45.1735C6.67269 45.1574 6.55938 45.1413 6.4461 45.1253C6.21952 45.077 5.99291 45.0449 5.76634 44.9806C5.53976 44.9324 5.32943 44.8681 5.10286 44.8038C4.87628 44.7235 4.66589 44.6592 4.4555 44.4985C4.40695 44.4664 4.40693 44.4021 4.4393 44.3539C4.45548 44.3539 4.504 44.3538 4.56874 44.386Z" fill="#07453A"/>
<path d="M3.87285 46.9254C3.69482 46.8129 4.05084 46.6522 3.92137 46.7325L3.93757 46.7325L3.95377 46.7325L4.00229 46.7325L4.08321 46.7486L4.26125 46.7808L4.60113 46.845L5.28081 46.9575C5.73396 47.0379 6.18711 47.1343 6.65644 47.2146C7.56275 47.4075 8.4691 47.5843 9.3754 47.7128C11.2042 47.986 13.0492 48.0824 14.8942 48.0985C18.6165 48.0985 22.3226 48.2592 26.0449 48.2753C29.751 48.3074 33.4571 48.1467 37.1147 47.5682C37.5679 47.4878 38.021 47.4236 38.4904 47.3432L39.8498 47.07C40.7723 46.8772 41.6948 46.7486 42.6173 46.6361C43.5398 46.5075 44.446 46.379 45.3361 46.1379L45.676 46.0415L45.9997 45.9451C46.1292 45.913 46.2263 45.8969 46.3558 45.8647L46.6957 45.8004L47.3753 45.6558L47.7152 45.5755L47.8771 45.5433L47.958 45.5273L47.9904 45.5112L48.0065 45.5112C48.0389 45.4951 47.9418 45.5433 47.958 45.5915C47.958 45.5433 48.0065 45.4951 48.0551 45.4951C48.1037 45.4951 48.1522 45.5433 48.1522 45.5915C48.1522 45.6558 48.0712 45.704 48.0874 45.688L48.0713 45.688L48.0389 45.704L47.9904 45.7201L47.9095 45.7362L47.7314 45.7844L47.3915 45.8647L46.7118 46.0094L46.372 46.0897C46.2587 46.1219 46.1454 46.1379 46.0483 46.1701L45.7084 46.2826L45.3685 46.379C44.4622 46.62 43.5398 46.7808 42.6173 46.9093C41.6948 47.054 40.7885 47.1825 39.8822 47.3914L38.5228 47.6807C38.0696 47.7771 37.6003 47.8414 37.1471 47.9217C33.4734 48.5324 29.7348 48.7252 26.0125 48.7252C22.2902 48.7092 18.5841 48.5806 14.8618 48.5806C13.0006 48.5806 11.1233 48.4842 9.27828 48.211C8.80894 48.1467 8.35579 48.0664 7.90264 47.9699C7.44949 47.8735 6.99635 47.761 6.5432 47.6485C6.09005 47.536 5.63685 47.4236 5.19989 47.3111L4.52021 47.1343L4.18033 47.0379L4.01849 46.9897L3.93757 46.9575L3.88905 46.9415L3.87285 46.9415L3.87285 46.9254C3.74337 47.0057 4.08321 46.845 3.92137 46.7325C3.96992 46.7486 4.00227 46.7968 3.98609 46.8611C3.98609 46.9093 3.93758 46.9414 3.87285 46.9254Z" fill="#07453A"/>
<path d="M10.4437 60.1999C9.95817 60.5696 9.4726 60.9713 9.01944 61.4052C8.79286 61.6142 8.56633 61.8231 8.33975 62.0481L8.01607 62.3695L7.85423 62.5302L7.77331 62.6105L7.72471 62.6587L7.70851 62.6748C7.70851 62.6587 7.70851 62.6909 7.70851 62.6909L7.69238 62.723C7.6762 62.7552 7.67617 62.7873 7.65998 62.8194C7.6438 62.8837 7.62765 62.9641 7.61146 63.0283C7.57909 63.173 7.56285 63.3337 7.54666 63.4783C7.49811 63.7837 7.48199 64.089 7.44962 64.3943C7.38488 65.005 7.33627 65.6318 7.3039 66.2424C7.12587 68.7173 7.01262 71.2083 6.93169 73.6992C6.88314 74.9527 6.85076 76.1901 6.83457 77.4275C6.80221 78.681 6.72127 79.9185 6.65653 81.172L6.21961 88.6287C6.07395 91.1196 5.94446 93.5945 5.87972 96.0854C5.86354 96.7122 5.86352 97.3228 5.86352 97.9496C5.86352 98.2549 5.87974 98.5603 5.89592 98.8656C5.91211 99.0102 5.92826 99.1709 5.94444 99.3156C5.96063 99.3799 5.97686 99.4602 5.99304 99.5084C5.99304 99.5245 5.99298 99.5245 6.00916 99.5566C6.02535 99.5888 6.02538 99.6209 6.04156 99.6691L6.05776 99.7977C6.15487 101.051 6.21959 102.289 6.28433 103.542C6.4138 106.033 6.52712 108.524 6.64041 111.015L6.78605 114.743C6.83461 115.997 6.88311 117.234 6.89929 118.488C6.89929 118.536 6.85081 118.584 6.80225 118.584C6.7537 118.584 6.70513 118.536 6.70513 118.488C6.67276 117.25 6.60803 115.997 6.54329 114.759L6.34905 111.031L5.92824 103.574C5.84732 102.337 5.78258 101.083 5.68548 99.862L5.66936 99.7495C5.66936 99.7495 5.66936 99.7495 5.66936 99.7334C5.66936 99.7334 5.66934 99.7174 5.65316 99.7013L5.63696 99.6691C5.60459 99.5727 5.58842 99.4924 5.57224 99.412C5.53987 99.2513 5.5237 99.0906 5.50752 98.9299C5.47515 98.6085 5.4751 98.3031 5.45892 97.9817C5.44273 97.355 5.44273 96.7282 5.45892 96.1015C5.50747 93.6105 5.63693 91.1196 5.7664 88.6287L6.18721 81.172C6.25194 79.9345 6.33288 78.6811 6.36525 77.4436C6.36525 76.2062 6.4138 74.9527 6.44617 73.6992C6.52709 71.2083 6.64041 68.7173 6.80225 66.2264C6.85081 65.5996 6.89936 64.9889 6.96409 64.3622C6.99646 64.0569 7.04498 63.7354 7.09354 63.4301C7.12591 63.2694 7.14209 63.1248 7.17446 62.9641C7.19064 62.8837 7.20681 62.8034 7.23918 62.723C7.25536 62.6748 7.27159 62.6426 7.28778 62.5944C7.30396 62.5784 7.30392 62.5462 7.3201 62.5302C7.33628 62.498 7.33633 62.482 7.3687 62.4498C7.38488 62.4337 7.40102 62.4177 7.40102 62.4016L7.41722 62.3855L7.46574 62.3373L7.54666 62.257L7.72471 62.0963L8.08079 61.7749C8.32355 61.5659 8.55012 61.357 8.79288 61.1642C9.27841 60.7624 9.78012 60.3767 10.3304 60.0553C10.3789 60.0231 10.4437 60.0392 10.476 60.0875C10.4922 60.1196 10.4923 60.1678 10.4437 60.1999Z" fill="#07453A"/>
<path d="M6.786 118.6C6.786 118.6 6.80213 118.6 6.81832 118.6C6.8345 118.6 6.89924 118.552 6.89924 118.504C6.89924 118.455 6.88312 118.455 6.88312 118.439C6.88312 118.423 6.88312 118.439 6.88312 118.439L6.89924 118.439L6.91544 118.455L6.96404 118.487L7.04496 118.552L7.2068 118.68L7.5466 118.937L7.88648 119.195L8.22636 119.436C8.6957 119.757 9.14883 120.111 9.5858 120.48L9.44016 120.416C12.3695 120.416 15.2826 120.464 18.2119 120.48C21.1412 120.512 24.0543 120.625 26.9674 120.464C27.6957 120.432 28.424 120.368 29.1361 120.287L29.6702 120.223C29.8482 120.207 30.0424 120.175 30.2204 120.159C30.5927 120.127 30.9649 120.127 31.3371 120.127C32.8098 120.127 34.2664 120.319 35.7068 120.159L36.2409 120.095C36.4189 120.078 36.6131 120.046 36.7911 120.046C37.1634 120.014 37.5194 119.982 37.8916 119.966L40.0765 119.87C40.4325 119.853 40.8048 119.821 41.1608 119.805C41.5169 119.773 41.8891 119.741 42.2613 119.709C42.6335 119.693 43.0058 119.677 43.3619 119.693C43.7341 119.693 44.1063 119.741 44.4462 119.725C44.4947 119.725 44.5433 119.773 44.5433 119.821C44.5433 119.87 44.4947 119.918 44.4462 119.918C44.0577 119.934 43.7017 119.902 43.3457 119.902C42.9896 119.902 42.6174 119.902 42.2613 119.934C41.9053 119.966 41.5493 119.998 41.177 120.046C40.8048 120.078 40.4487 120.111 40.0765 120.143C38.6037 120.239 37.1634 120.287 35.723 120.512C34.2341 120.689 32.7614 120.512 31.321 120.512C30.9649 120.512 30.5927 120.528 30.2366 120.561C30.0586 120.577 29.8806 120.609 29.7026 120.625L29.1523 120.705C28.424 120.802 27.6958 120.866 26.9513 120.914C24.022 121.107 21.0926 120.978 18.1633 120.962L13.7774 120.946C12.3209 120.93 10.8482 120.93 9.39164 120.914C9.3269 120.914 9.27829 120.898 9.24592 120.85C9.03553 120.673 8.82515 120.48 8.61476 120.303C8.40437 120.127 8.17779 119.95 7.9674 119.773L7.62752 119.5C7.51423 119.404 7.41714 119.307 7.32004 119.211C7.22294 119.114 7.10966 119.018 7.01256 118.921L6.86692 118.777L6.786 118.696L6.7536 118.664L6.7374 118.648L6.72128 118.632C6.72128 118.616 6.70508 118.616 6.70508 118.568C6.70508 118.52 6.75363 118.471 6.786 118.471C6.80218 118.471 6.81832 118.471 6.81832 118.471C6.86687 118.471 6.91544 118.52 6.91544 118.584C6.88307 118.568 6.83455 118.6 6.786 118.6Z" fill="#07453A"/>
<path d="M44.4783 119.741C44.6887 119.371 44.8991 119.018 45.1095 118.648C45.3199 118.278 45.5303 117.925 45.7569 117.555L45.7245 117.668C45.5465 115.305 45.4332 112.943 45.3037 110.581C45.1743 108.218 45.0286 105.856 44.8344 103.51C44.7859 102.915 44.7373 102.336 44.6726 101.742C44.6402 101.453 44.6078 101.163 44.5755 100.874L44.5269 100.424L44.4783 99.9741C44.3812 98.7849 44.3974 97.5956 44.3812 96.4225C44.365 95.8279 44.3327 95.2494 44.268 94.6708C44.2356 94.3815 44.2032 94.0923 44.1709 93.7869C44.1385 93.4977 44.1061 93.1923 44.0899 92.9031C43.9928 91.7138 43.9281 90.5407 43.8795 89.3515C43.6691 84.6267 43.572 79.8859 43.4749 75.1612C43.394 70.4365 43.3455 65.6957 43.3455 60.971C43.3455 60.9227 43.394 60.8745 43.4426 60.8745C43.4911 60.8745 43.5397 60.9227 43.5397 60.971C43.5883 65.6957 43.7015 70.4204 43.8148 75.1612C43.9443 79.8859 44.0737 84.6107 44.3003 89.3354C44.3327 89.93 44.3651 90.5086 44.3974 91.1032C44.4298 91.6978 44.4783 92.2763 44.5269 92.8709C44.543 93.1602 44.5754 93.4494 44.6078 93.7387C44.6401 94.028 44.6725 94.3173 44.7049 94.6226C44.7696 95.2172 44.802 95.8118 44.8182 96.4064C44.8506 97.5957 44.8344 98.7688 44.9315 99.942L44.9801 100.376L45.0286 100.81C45.0609 101.099 45.1095 101.404 45.1419 101.694C45.2066 102.288 45.2552 102.867 45.3037 103.461C45.498 105.824 45.6436 108.186 45.7893 110.548C45.9349 112.911 46.0644 115.273 46.1129 117.636L46.1129 117.652C46.1129 117.684 46.0967 117.716 46.0805 117.748C45.854 118.102 45.6274 118.455 45.3847 118.793C45.1419 119.146 44.9153 119.484 44.6726 119.837C44.6402 119.885 44.5754 119.902 44.5269 119.869C44.4621 119.837 44.4622 119.789 44.4783 119.741Z" fill="#07453A"/>
<path d="M43.3295 61.0505C43.1191 60.8737 42.9249 60.6809 42.7469 60.488C42.5689 60.2952 42.4071 60.0702 42.2453 59.8612C41.9216 59.4273 41.6302 58.9935 41.3389 58.5435L41.5655 58.656C38.9761 58.8649 36.3866 59.0417 33.781 59.2345L29.8968 59.5238C28.6021 59.6202 27.3074 59.7166 26.0127 59.797C23.4232 59.9577 20.8177 60.1023 18.212 60.1505C15.6064 60.1987 13.0008 60.1827 10.4113 60.1505C10.3628 60.1505 10.3142 60.1023 10.3142 60.0541C10.3142 60.0059 10.3628 59.9577 10.4113 59.9577C13.0169 59.9255 15.6064 59.9094 18.212 59.813C20.8015 59.7327 23.407 59.572 25.9965 59.3791L33.781 58.7845C36.3704 58.5917 38.9599 58.3828 41.5655 58.1899C41.6626 58.1899 41.7435 58.2381 41.7921 58.3024C42.051 58.7524 42.3261 59.2024 42.6175 59.6363C42.7631 59.8613 42.9088 60.0702 43.0545 60.2951C43.2001 60.5041 43.3457 60.713 43.5238 60.9058C43.5561 60.954 43.5561 61.0183 43.5076 61.0505C43.4267 61.0826 43.3619 61.0826 43.3295 61.0505Z" fill="#07453A"/>
</svg>
