<svg width="60" height="35" viewBox="0 0 60 35" fill="none" xmlns="http://www.w3.org/2000/svg">
<path d="M40.3491 2.65558C40.1064 3.15376 39.7827 3.60374 39.5399 4.08586C39.2972 4.58404 39.022 5.06615 38.7145 5.51613C38.1157 6.44822 37.4198 7.29996 36.7077 8.1517C35.9956 8.98737 35.2511 9.80697 34.4258 10.5623C33.6166 11.3176 32.7588 12.0086 31.8686 12.6836C30.1046 14.0174 28.2434 15.2067 26.3661 16.3637L23.5663 18.1154C22.6276 18.694 21.6889 19.2564 20.7341 19.8189C18.8244 20.9278 16.8823 21.9724 14.8754 22.9045C12.8848 23.8526 10.8133 24.6722 8.70941 25.3472C7.65745 25.6846 6.60546 26.0221 5.52113 26.2953C4.98706 26.4239 4.43679 26.5525 3.88653 26.6328C3.33627 26.7292 2.8022 26.8257 2.26813 26.9221C1.993 26.9703 1.73406 27.0185 1.45893 27.0828C1.39419 27.0989 1.32951 27.1149 1.26477 27.131C1.24859 27.131 1.23239 27.1471 1.24857 27.131C1.28094 27.2274 1.37804 26.7453 1.32949 26.89L1.32949 26.906C1.32949 26.9221 1.34563 26.9381 1.36181 26.9542C1.42655 27.0185 1.53988 27.0828 1.65317 27.1471C2.12251 27.356 2.65658 27.4846 3.19065 27.6131C4.25879 27.8381 5.34314 27.9827 6.44365 28.1274C7.52798 28.2559 8.62846 28.3845 9.72897 28.4809L11.3798 28.6416C11.93 28.6898 12.4802 28.7863 13.0143 28.8345C15.1991 29.0434 17.4002 28.963 19.5688 28.6256C20.6531 28.4649 21.7213 28.2238 22.7895 27.9345C23.8414 27.6453 24.8934 27.2917 25.8968 26.8739C26.9164 26.4721 27.9036 25.99 28.8585 25.4757C29.8133 24.9454 30.7358 24.3508 31.6259 23.708C33.3899 22.4063 34.976 20.8796 36.2545 19.1118C36.5782 18.6618 36.8857 18.2119 37.1608 17.7458C37.4522 17.2798 37.6949 16.7977 37.9053 16.2995C38.3261 15.3031 38.5688 14.2424 38.6821 13.1496C38.8116 12.0729 38.8763 10.964 39.1029 9.88732C39.1353 9.75875 39.1515 9.61412 39.2 9.48555C39.2324 9.35699 39.2648 9.21235 39.2972 9.08379C39.3781 8.82666 39.459 8.55346 39.5399 8.29633L40.0578 6.7375L40.5757 5.17865C40.6242 5.05009 40.6566 4.92152 40.7051 4.79296C40.7537 4.66439 40.8184 4.53583 40.8832 4.40727L41.2554 3.66802C41.4981 3.1859 41.7409 2.68772 41.9027 2.17346C41.9836 1.91633 42.0484 1.6592 42.0646 1.40208C42.0807 1.14495 42.0322 0.887821 41.8704 0.711045L41.9513 0.743178C41.9028 0.743178 41.838 0.743178 41.7895 0.743178C41.7571 0.743178 41.7085 0.759257 41.6762 0.791398C41.5952 0.839609 41.5143 0.903884 41.4334 0.984236C41.2877 1.14494 41.1421 1.32172 41.0126 1.4985C40.8022 1.86812 40.5595 2.26988 40.3491 2.65558ZM40.1711 2.57522C40.3815 2.17346 40.608 1.7717 40.8832 1.40208C41.0126 1.20923 41.1583 1.03245 41.3202 0.855674C41.4011 0.775321 41.4982 0.694974 41.6114 0.630692C41.66 0.598551 41.7409 0.566406 41.8218 0.566406C41.8865 0.566406 41.9351 0.566406 41.9998 0.566406C42.0322 0.566406 42.0484 0.582479 42.0808 0.598549C42.194 0.711043 42.275 0.855678 42.3073 1.00031C42.3397 1.14495 42.3559 1.28958 42.3397 1.43422C42.3235 1.72349 42.2588 1.99668 42.1617 2.26988C41.9837 2.80021 41.7571 3.29839 41.5143 3.79658L41.1421 4.53583C41.0774 4.66439 41.0288 4.77689 40.9803 4.90545C40.9317 5.01794 40.8993 5.16258 40.8508 5.29115L40.3329 6.84998L39.815 8.40883C39.7179 8.66595 39.6532 8.92308 39.5722 9.18021C39.5399 9.30877 39.5075 9.43734 39.4751 9.58197C39.4428 9.71054 39.4104 9.8391 39.3942 9.98374C39.1676 11.0444 39.1191 12.1372 38.9896 13.23C38.8601 14.3228 38.6336 15.4156 38.1966 16.4441C37.97 16.9584 37.7273 17.4565 37.436 17.9226C37.1609 18.4047 36.8534 18.8547 36.5297 19.3046C35.235 21.1045 33.6328 22.6473 31.8525 23.9651C30.9624 24.624 30.0237 25.2186 29.0526 25.765C28.0816 26.2953 27.0782 26.7774 26.0586 27.1953C25.039 27.6131 23.9871 27.9667 22.9189 28.272C21.8508 28.5613 20.7664 28.8023 19.6659 28.9791C17.4811 29.3166 15.2477 29.4291 13.0305 29.2202C12.4802 29.172 11.93 29.0916 11.3798 29.0273L9.72897 28.8666C8.62846 28.7541 7.52796 28.6577 6.42745 28.5131C5.32694 28.3845 4.22638 28.2238 3.14205 27.9988C2.59179 27.8702 2.05772 27.7577 1.52365 27.5167C1.39418 27.4524 1.24852 27.3721 1.11905 27.2596C1.08668 27.2274 1.05438 27.1953 1.02201 27.1471L1.00581 27.1149C0.941074 27.2435 1.03818 26.7292 1.08673 26.8417C1.13528 26.8257 1.15147 26.8257 1.16765 26.8096C1.24857 26.7935 1.31327 26.7775 1.37801 26.7614C1.65314 26.6971 1.92828 26.6489 2.20341 26.6007C2.75367 26.5043 3.28775 26.4078 3.83801 26.3114C4.37208 26.215 4.90614 26.1025 5.44021 25.9739C6.50835 25.7007 7.54413 25.3632 8.59609 25.0258C12.7877 23.6919 16.7367 21.7152 20.5237 19.5136C21.4786 18.9672 22.4172 18.3886 23.3397 17.8101L26.1395 16.0584C28.0007 14.8853 29.8457 13.696 31.5936 12.3783C33.3414 11.0605 35.0084 9.64626 36.4488 8.00706C37.177 7.18747 37.8891 6.36787 38.5203 5.46792C38.8278 5.01794 39.1191 4.5519 39.3619 4.06978C39.6208 3.50731 39.9283 3.05734 40.1711 2.57522Z" fill="#07453A"/>
<path d="M36.9832 10.7228C36.789 10.6585 36.5787 10.6424 36.3845 10.6585C36.1903 10.6746 35.996 10.7067 35.8342 10.7228C35.4943 10.7871 35.2354 11.0121 35.1221 11.3495C34.9926 11.687 35.0089 12.0727 35.0898 12.4424C35.1383 12.6191 35.203 12.812 35.284 12.9566C35.3811 13.1173 35.4944 13.2459 35.64 13.3262C35.9799 13.503 36.3682 13.6316 36.7243 13.5512C37.0803 13.4709 37.3393 13.1655 37.4687 12.7959C37.5982 12.4263 37.6306 12.0245 37.5658 11.6228C37.5335 11.4299 37.4687 11.2371 37.3878 11.0764C37.2907 10.9317 37.1451 10.7871 36.9832 10.7228ZM37.0479 10.53C37.2745 10.6103 37.4525 10.7871 37.5496 10.9799C37.6629 11.1728 37.7277 11.3817 37.7601 11.5906C37.841 12.0084 37.8247 12.4584 37.6953 12.8763C37.6305 13.0852 37.5334 13.2941 37.3716 13.4709C37.226 13.6476 37.0156 13.7923 36.7891 13.8566C36.5625 13.9208 36.3197 13.9208 36.0931 13.8726C35.8666 13.8405 35.6562 13.7441 35.462 13.6637C35.2354 13.5512 35.0574 13.3584 34.9441 13.1655C34.8146 12.9727 34.7337 12.7638 34.669 12.5388C34.5557 12.1049 34.5234 11.6388 34.669 11.1888C34.7499 10.9639 34.8794 10.7389 35.0736 10.5782C35.2678 10.4014 35.4944 10.305 35.7371 10.2568C35.8504 10.2246 35.9798 10.2246 36.0931 10.2246C36.2064 10.2407 36.3197 10.2568 36.433 10.305C36.6434 10.3853 36.8376 10.4817 37.0479 10.53Z" fill="#07453A"/>
<path d="M34.5229 15.1262C34.3934 14.837 34.1182 14.6441 33.8269 14.5316C33.5356 14.4191 33.2281 14.3388 32.9368 14.2906C32.6293 14.2424 32.3218 14.2745 32.0305 14.3549C31.7392 14.4513 31.4803 14.5959 31.2699 14.8048C30.8329 15.2227 30.5902 15.8333 30.4607 16.4601C30.3959 16.7654 30.3797 17.0868 30.4445 17.3922C30.493 17.6975 30.6063 17.9868 30.7844 18.2439C30.9462 18.501 31.189 18.7421 31.4317 18.951C31.6745 19.1599 31.9496 19.3367 32.2409 19.4331C32.5322 19.5295 32.8397 19.5135 33.131 19.401C33.4223 19.2885 33.6651 19.0796 33.8593 18.8224C34.2639 18.3243 34.5066 17.6814 34.6361 17.0547C34.7008 16.7333 34.7332 16.4119 34.717 16.0744C34.7008 15.753 34.6523 15.4316 34.5229 15.1262ZM34.717 15.062C34.8465 15.3834 34.9113 15.7369 34.9275 16.0744C34.9436 16.4119 34.9113 16.7654 34.8465 17.1029C34.7171 17.7779 34.4742 18.4368 34.0535 18.9992C33.8431 19.2724 33.568 19.5295 33.2281 19.6742C32.8883 19.8188 32.4837 19.851 32.1438 19.7385C31.7877 19.642 31.4803 19.4492 31.2052 19.2242C30.93 18.9992 30.6873 18.7582 30.4769 18.4689C30.2665 18.1796 30.1208 17.8421 30.0399 17.4886C29.9751 17.135 29.9751 16.7654 30.0399 16.4119C30.1046 16.0583 30.1855 15.7208 30.3312 15.3994C30.4768 15.078 30.6711 14.7566 30.9462 14.4995C31.2051 14.2424 31.545 14.0495 31.901 13.937C32.2571 13.8245 32.6455 13.8085 33.0015 13.8567C33.3737 13.9049 33.7136 14.0495 34.0049 14.2584C34.2963 14.4513 34.5552 14.7245 34.717 15.062Z" fill="#07453A"/>
<path d="M28.3082 18.3735C28.0169 18.1485 27.6285 18.0681 27.2563 18.0842C26.884 18.1003 26.528 18.1646 26.1558 18.261C25.4437 18.4538 24.764 18.8235 24.2785 19.3699C24.0519 19.6431 23.8739 19.9645 23.8091 20.3019C23.7444 20.6394 23.7929 20.993 23.9386 21.3144C24.068 21.6519 24.3109 21.9411 24.5698 22.2143C24.8288 22.4875 25.1362 22.7125 25.4437 22.9375C25.7674 23.1464 26.091 23.3553 26.4471 23.5C26.7869 23.6446 27.1592 23.7571 27.5314 23.7571C27.9037 23.7732 28.2597 23.6607 28.551 23.4518C28.8423 23.2429 29.0527 22.9215 29.1983 22.584C29.4897 21.8929 29.522 21.0894 29.3764 20.3502C29.2955 19.9805 29.1822 19.6109 29.0042 19.2734C28.8262 18.9038 28.5995 18.5985 28.3082 18.3735ZM28.4377 18.2128C28.7614 18.4699 29.0041 18.7913 29.1983 19.1609C29.3925 19.5145 29.5059 19.9002 29.5868 20.2859C29.7487 21.0733 29.7163 21.8929 29.425 22.6643C29.2793 23.05 29.0527 23.4036 28.7128 23.6607C28.373 23.9178 27.9522 24.0625 27.5314 24.0625C27.1107 24.0625 26.7061 23.95 26.3176 23.8053C25.9292 23.6607 25.5893 23.4518 25.2495 23.2429C24.9096 23.0179 24.586 22.7768 24.2947 22.4875C24.0033 22.1983 23.7282 21.8769 23.5502 21.4912C23.3722 21.1055 23.2912 20.6555 23.3721 20.2216C23.4531 19.7877 23.6634 19.402 23.9386 19.0645C24.2137 18.7431 24.5374 18.4699 24.8935 18.261C25.2495 18.0521 25.6379 17.8914 26.0425 17.7789C26.8517 17.5539 27.758 17.7146 28.4377 18.2128Z" fill="#07453A"/>
<path d="M19.8763 21.5831C19.5364 21.6474 19.1804 21.8081 18.8729 22.001C18.5654 22.1938 18.2741 22.4027 18.0151 22.6277C17.7562 22.8527 17.5619 23.1259 17.4648 23.4312C17.3677 23.7366 17.3677 24.0741 17.4648 24.3955C17.5619 24.7169 17.7238 25.0383 17.918 25.3436C18.0151 25.4883 18.1284 25.6329 18.2417 25.7936C18.355 25.9382 18.4683 26.0829 18.5816 26.2114C18.6949 26.34 18.8243 26.4525 18.9538 26.5489C19.0185 26.5971 19.0832 26.6293 19.1641 26.6614C19.1965 26.6775 19.2289 26.6775 19.2613 26.6935L19.3908 26.7096L19.6659 26.7578C19.763 26.7739 19.8439 26.7739 19.941 26.79C20.1191 26.806 20.297 26.806 20.4751 26.806C20.8311 26.7739 21.1872 26.7096 21.4947 26.565C21.8184 26.4203 22.0934 26.2114 22.32 25.9382C22.7732 25.3918 22.9674 24.6526 22.9027 23.9455C22.8379 23.2384 22.4981 22.5313 21.9316 22.0974C21.6565 21.8724 21.3166 21.7117 20.9606 21.6474C20.6045 21.5349 20.2324 21.5349 19.8763 21.5831ZM19.8439 21.3742C20.2323 21.326 20.6208 21.326 20.993 21.4064C21.3814 21.4867 21.7374 21.6474 22.0449 21.8885C22.6761 22.3706 23.0483 23.1098 23.1292 23.8812C23.2263 24.6526 23.0322 25.4722 22.5467 26.0989C22.3039 26.4043 21.9802 26.6775 21.6241 26.8382C21.2681 27.0149 20.8635 27.1114 20.4751 27.1435C20.2809 27.1435 20.0866 27.1596 19.8924 27.1435C19.7953 27.1435 19.6983 27.1435 19.6011 27.1274L19.3099 27.0792L19.1641 27.0632C19.1156 27.0471 19.0509 27.031 19.0023 27.015C18.889 26.9828 18.8081 26.9185 18.711 26.8703C18.533 26.7578 18.3874 26.6132 18.2417 26.4686C18.0961 26.3239 17.9827 26.1793 17.8694 26.0186C17.7561 25.8739 17.6429 25.7132 17.5296 25.5525C17.3192 25.2311 17.125 24.8776 17.0117 24.4919C16.8984 24.1062 16.8822 23.6562 16.9955 23.2545C17.0602 23.0455 17.1574 22.8527 17.2707 22.692C17.384 22.5152 17.5296 22.3706 17.6753 22.2259C17.9828 21.9528 18.3388 21.776 18.711 21.6474C18.8891 21.5831 19.0833 21.5349 19.2775 21.4867C19.4555 21.4546 19.6335 21.4224 19.8439 21.3742Z" fill="#07453A"/>
<path d="M14.4222 24.496C14.2119 24.4156 13.9853 24.3835 13.7749 24.4156C13.5645 24.4477 13.3703 24.512 13.1923 24.5763C12.82 24.7209 12.5288 25.0263 12.3507 25.412C12.1889 25.7816 12.1565 26.2155 12.3183 26.5691C12.4802 26.9387 12.82 27.2119 13.2085 27.3726C13.613 27.5333 14.0662 27.5976 14.4708 27.4851C14.8754 27.3726 15.199 27.0512 15.3609 26.6494C15.5227 26.2477 15.5066 25.7816 15.3286 25.3798C15.1667 24.9781 14.8268 24.6727 14.4222 24.496ZM14.5032 24.3031C14.9563 24.4959 15.3447 24.8495 15.5389 25.2995C15.7493 25.7495 15.7655 26.2637 15.6036 26.7458C15.4418 27.2119 15.0696 27.6297 14.5679 27.7904C14.0824 27.9511 13.5483 27.8868 13.0951 27.7261C12.6258 27.5654 12.1727 27.244 11.9299 26.7619C11.7034 26.2798 11.7195 25.7173 11.9137 25.2352C12.1079 24.7531 12.4964 24.3513 12.9981 24.1424C13.2408 24.0299 13.5321 24.0138 13.7749 24.0781C14.05 24.1263 14.2766 24.2227 14.5032 24.3031Z" fill="#07453A"/>
<path d="M58.9611 2.10913C58.4756 3.13764 58.0062 4.18223 57.5531 5.24288C57.3265 5.77321 57.1161 6.30354 56.9057 6.83387C56.8086 7.091 56.6953 7.3642 56.5982 7.62133C56.5011 7.87846 56.404 8.16772 56.2907 8.44092C55.8214 9.51765 55.1579 10.4819 54.4296 11.3818C54.0574 11.8318 53.6689 12.2496 53.2643 12.6675C52.8597 13.0853 52.439 13.471 52.002 13.8567C51.1442 14.6281 50.2379 15.3512 49.3316 16.0423C48.4092 16.7494 47.4867 17.4244 46.5804 18.1154C44.7516 19.4975 42.9066 20.8795 41.0616 22.2294C39.2166 23.5954 37.3393 24.9293 35.4134 26.1989C34.4586 26.8417 33.4875 27.4524 32.5003 28.047L31.7558 28.497C31.6426 28.5773 31.513 28.6416 31.3836 28.7219C31.2541 28.7862 31.1246 28.8666 30.9952 28.9309C30.4773 29.188 29.9433 29.4451 29.4254 29.654C28.3572 30.104 27.289 30.5218 26.2209 30.9557C25.1528 31.3896 24.1008 31.8236 23.1136 32.3699C22.6281 32.6431 22.1264 32.9324 21.738 33.3181L21.6571 33.3824C21.6409 33.3985 21.657 33.3985 21.6894 33.3181C21.6894 33.302 21.6894 33.3181 21.6894 33.3181L21.6894 33.3663C21.6894 33.4306 21.6894 33.4949 21.6894 33.5752C21.6894 33.6395 21.6894 33.7199 21.6894 33.7841L21.6894 33.8806L21.6894 33.9127C21.6894 33.9127 21.7056 33.9288 21.6571 33.8645C21.6247 33.8324 21.6571 33.8645 21.6571 33.8645C21.8351 34.0413 22.0617 34.1859 22.3044 34.2502C22.8061 34.3948 23.3564 34.2984 23.8904 34.1377C24.4245 33.977 24.9585 33.752 25.4926 33.5431C26.0267 33.3342 26.5769 33.1253 27.1757 33.0288C27.467 32.9806 27.7746 32.9646 28.0821 32.9967C28.2277 33.0128 28.3896 33.0449 28.5353 33.0931L28.9398 33.2217C30.0242 33.5592 31.1408 33.7842 32.2899 33.8806C34.5556 34.0895 36.8699 33.8645 39.0709 33.286C40.1715 32.9967 41.2558 32.6271 42.3239 32.1932C43.3759 31.7593 44.4117 31.2611 45.3989 30.6825C46.3861 30.1201 47.3572 29.4933 48.2635 28.8184C49.186 28.1434 50.0599 27.4041 50.9014 26.6328C51.743 25.8614 52.5198 25.0257 53.2643 24.1579C53.9926 23.2901 54.6723 22.358 55.2711 21.3938C55.9023 20.4456 56.2584 19.3689 56.4526 18.26C56.6468 17.1511 56.6953 16.0101 56.7439 14.8691C56.7924 13.7281 56.8086 12.5871 56.9542 11.4461C57.0351 10.8836 57.1323 10.3051 57.2941 9.75871C57.3265 9.61407 57.3751 9.4855 57.4236 9.34087L57.4883 9.13195L57.5693 8.92304C57.6664 8.64984 57.812 8.39271 57.9253 8.13558C58.3946 7.10706 58.7507 6.01427 59.0258 4.92147C59.1553 4.37507 59.2685 3.81261 59.3171 3.25014C59.3333 3.10551 59.3495 2.97694 59.3495 2.8323C59.3495 2.76802 59.3495 2.68767 59.3495 2.62339C59.3495 2.55911 59.3333 2.5109 59.3009 2.44662C59.2523 2.31805 59.1876 2.20556 59.1067 2.12521C59.0582 2.07699 59.0096 2.06092 58.9934 2.06092C59.0096 2.02878 58.9773 2.06092 58.9611 2.10913ZM58.7668 2.02878C58.7992 1.99663 58.8154 1.94843 58.8478 1.91629C58.864 1.90022 58.8801 1.88414 58.9125 1.86807C58.9449 1.852 58.961 1.83594 58.9934 1.83594C59.1229 1.83594 59.2038 1.90021 59.2686 1.94842C59.3819 2.06092 59.4628 2.20555 59.5275 2.35019C59.5599 2.43054 59.576 2.49482 59.576 2.59124C59.576 2.6716 59.576 2.73588 59.576 2.81624C59.576 2.96087 59.5598 3.10551 59.5436 3.25014C59.4951 3.82868 59.3818 4.39115 59.2524 4.95361C58.9772 6.07855 58.6374 7.17135 58.1519 8.21593L57.9739 8.60163C57.9091 8.73019 57.8606 8.85876 57.812 8.98732L57.7311 9.18016L57.6664 9.37301C57.6178 9.50158 57.5854 9.64621 57.5369 9.77478C57.375 10.3212 57.2779 10.8676 57.2132 11.43C57.0675 12.555 57.0514 13.696 57.0028 14.837C56.9704 15.978 56.9218 17.1351 56.7115 18.26C56.6144 18.8225 56.4687 19.385 56.2745 19.9314C56.0803 20.4778 55.8213 21.0081 55.4977 21.4902C54.8827 22.4705 54.2029 23.4026 53.4747 24.2865C52.7302 25.1703 51.9372 26.006 51.0957 26.7935C50.2541 27.5809 49.364 28.3202 48.4415 29.0112C47.519 29.7022 46.5479 30.329 45.5445 30.9075C44.5411 31.4861 43.5054 32.0003 42.4373 32.4342C41.3691 32.8842 40.2686 33.2538 39.1519 33.5431C36.9185 34.1216 34.5719 34.3627 32.2576 34.1538C31.0923 34.0574 29.9594 33.8163 28.8427 33.4788L28.4219 33.3502C28.2925 33.3181 28.163 33.286 28.0335 33.2699C27.7746 33.2378 27.4995 33.2538 27.2243 33.302C26.6741 33.3985 26.14 33.5913 25.6221 33.8002C25.0881 34.0091 24.554 34.2341 23.9875 34.4109C23.7124 34.4913 23.4211 34.5716 23.1136 34.6038C22.8061 34.6359 22.4986 34.6198 22.1911 34.5395C21.8836 34.4591 21.6085 34.2823 21.3819 34.0574C21.3657 34.0413 21.3819 34.0573 21.3495 34.0091C21.301 33.9127 21.3172 33.9127 21.301 33.8967C21.301 33.8645 21.301 33.8484 21.2848 33.8324L21.2848 33.7199C21.2848 33.6395 21.2848 33.5752 21.2848 33.4949C21.2848 33.4145 21.2848 33.3502 21.2848 33.2699L21.2848 33.2056C21.2848 33.1895 21.2848 33.1735 21.301 33.1574C21.3334 33.061 21.3657 33.0449 21.3657 33.061L21.4466 32.9806C21.8836 32.5628 22.3853 32.2735 22.9032 31.9843C23.9228 31.4218 24.9909 30.9718 26.0591 30.5379C27.1272 30.104 28.1954 29.6862 29.2473 29.2362C29.7814 29.0112 30.2831 28.7702 30.801 28.513C30.9305 28.4487 31.0437 28.3844 31.1732 28.3041C31.3027 28.2398 31.4159 28.1755 31.5454 28.0952L32.2737 27.6452C33.2447 27.0506 34.2158 26.4238 35.1707 25.7971C37.0804 24.5275 38.9415 23.1937 40.7865 21.8277C42.6314 20.4617 44.4602 19.0796 46.289 17.6975C47.2115 17.0065 48.134 16.3155 49.0403 15.6245C49.9466 14.9334 50.8367 14.2102 51.6783 13.4549C52.5199 12.6996 53.3452 11.8961 54.0897 11.0444C54.818 10.1926 55.4977 9.27659 55.9832 8.26415C56.0965 8.00702 56.1936 7.74989 56.3069 7.47669C56.404 7.20349 56.5173 6.94636 56.6467 6.67316C56.8733 6.14284 57.1161 5.62858 57.3588 5.09825L58.071 3.53941C58.2814 3.05729 58.5241 2.54303 58.7668 2.02878Z" fill="#07453A"/>
<path d="M26.5446 30.8276C26.6903 30.8758 26.7388 30.9561 26.7874 31.0365C26.8197 31.1168 26.8683 31.1811 26.933 31.2614C26.9654 31.2936 26.9978 31.3418 27.0301 31.4061C27.0463 31.4382 27.0625 31.4704 27.0787 31.5025L27.1111 31.5668C27.1596 31.6471 27.2081 31.7436 27.2567 31.84C27.3538 32.0168 27.4509 32.2096 27.5318 32.4024C27.5804 32.4989 27.6128 32.6114 27.6452 32.7078C27.6775 32.8203 27.6937 32.9328 27.6775 33.0613C27.6775 33.1095 27.6128 33.1578 27.5642 33.1417C27.5157 33.1417 27.4833 33.1095 27.4833 33.0613L27.4833 33.0453C27.4348 32.8846 27.3377 32.7078 27.2244 32.5471C27.1111 32.3864 26.9978 32.2096 26.8845 32.0328C26.8359 31.9525 26.7712 31.8561 26.7227 31.7596L26.6903 31.6953L26.6579 31.6471C26.6418 31.615 26.6094 31.5828 26.577 31.5346C26.5123 31.4543 26.4475 31.3418 26.3828 31.2454C26.3342 31.149 26.318 31.0204 26.3828 30.8918C26.3828 30.8275 26.4637 30.7954 26.5446 30.8276Z" fill="#07453A"/>
<path d="M55.643 9.3892C55.6268 9.3892 55.6106 9.37312 55.5944 9.37312C55.5782 9.37312 55.5621 9.34098 55.5459 9.32491C55.5297 9.30884 55.5135 9.22849 55.5459 9.16421C55.5621 9.13207 55.5944 9.09992 55.6106 9.08385C55.6268 9.06778 55.643 9.06779 55.643 9.06779L55.6753 9.05171C55.6915 9.05171 55.7239 9.03564 55.7239 9.03564L55.7563 9.03564C55.7725 9.03564 55.8049 9.03564 55.8049 9.03564C55.8372 9.03564 55.8696 9.03564 55.8858 9.05171C55.9829 9.06778 56.0476 9.09992 56.1285 9.13206C56.2742 9.19635 56.4036 9.26063 56.5493 9.32491C56.6787 9.40527 56.8083 9.46955 56.9377 9.56597C57.0025 9.61418 57.0672 9.64632 57.1157 9.69453L57.2128 9.75882L57.2614 9.79096L57.2775 9.80703L57.2937 9.8231C57.2937 9.8231 57.31 9.83917 57.3261 9.85524C57.3423 9.87131 57.3423 9.90346 57.3423 9.91953C57.3423 9.96774 57.2938 10.0159 57.2452 10.0159C57.1967 10.0159 57.1481 9.96774 57.1481 9.91953C57.1481 9.9356 57.1481 9.95166 57.1643 9.9838C57.1805 9.99987 57.1966 10.0159 57.1966 10.0159L57.1805 10.0159L57.1481 10.0159L57.0996 9.99988L56.9863 9.96774L56.7759 9.90345L56.3713 9.75882C56.2418 9.71061 56.0962 9.66239 55.9667 9.61418C55.902 9.59811 55.8372 9.56597 55.7887 9.56597C55.7725 9.56597 55.7725 9.56598 55.7563 9.5499C55.7563 9.5499 55.7563 9.5499 55.7563 9.53383C55.7563 9.53383 55.7725 9.53383 55.7887 9.51776C55.7887 9.51776 55.8049 9.51776 55.8049 9.50169C55.8049 9.50169 55.8048 9.50169 55.821 9.48562C55.8372 9.46955 55.8696 9.4374 55.8696 9.42133C55.902 9.38919 55.8696 9.30885 55.8696 9.30885C55.8534 9.29278 55.8372 9.29278 55.8372 9.30885C55.8372 9.30885 55.8211 9.32491 55.8049 9.34098L55.7401 9.40527C55.7239 9.37312 55.6916 9.3892 55.643 9.3892Z" fill="#07453A"/>
<path d="M37.0476 7.55691C37.0476 7.52477 37.0962 7.47656 37.1285 7.47656L37.1609 7.47656L37.1771 7.47656C37.1933 7.47656 37.1933 7.47656 37.1933 7.47656C37.2095 7.47656 37.2095 7.47656 37.2257 7.47656C37.2418 7.47656 37.2581 7.47656 37.2743 7.47656C37.3066 7.47656 37.3389 7.47656 37.3713 7.49263C37.436 7.5087 37.4846 7.52477 37.5331 7.55691L37.8083 7.73368C37.9054 7.79797 37.9864 7.86225 38.0835 7.92653L38.2129 8.02296L38.2453 8.05509C38.2615 8.05509 38.2453 8.0551 38.2614 8.07117C38.2776 8.08724 38.2939 8.08724 38.3262 8.10331C38.5043 8.19973 38.6985 8.29615 38.8927 8.39258C38.9898 8.44079 39.0869 8.489 39.184 8.55328L39.3296 8.63363L39.3943 8.68184L39.4267 8.71398L39.4429 8.73005L39.4591 8.74613C39.4591 8.74613 39.4591 8.74612 39.4753 8.76219C39.4914 8.77826 39.4915 8.81041 39.4915 8.82648C39.4915 8.87469 39.4429 8.9229 39.3943 8.9229C39.3458 8.9229 39.2973 8.87469 39.2973 8.82648C39.2973 8.84255 39.2972 8.87468 39.3134 8.89075C39.3296 8.90682 39.3296 8.90683 39.3296 8.90683L39.3134 8.90683L39.2811 8.89075L39.2002 8.87469L39.0383 8.82648L38.7308 8.73005C38.5204 8.66577 38.3262 8.60149 38.0996 8.50507C38.0672 8.489 38.051 8.47292 38.0187 8.45685C38.0025 8.45685 37.9702 8.42472 37.9702 8.42472L37.9378 8.40864L37.8083 8.32829L37.5331 8.15152L37.2581 7.97474C37.2095 7.9426 37.1771 7.91047 37.1447 7.86226C37.1286 7.84619 37.1124 7.81404 37.0962 7.7819C37.0962 7.76583 37.08 7.74976 37.08 7.73368L37.08 7.71762L37.08 7.70155L37.0962 7.70155L37.1124 7.70155C37.161 7.70155 37.1933 7.65334 37.1933 7.6212C37.1772 7.66941 37.1286 7.70155 37.0638 7.70155C37.0638 7.66941 37.0314 7.60513 37.0476 7.55691Z" fill="#07453A"/>
<path d="M6.91339 25.8294L6.88099 25.8133C6.88099 25.8133 6.88098 25.8133 6.86479 25.7972C6.86479 25.7972 6.86479 25.7972 6.86479 25.7812C7.38271 25.7008 7.01047 25.7651 7.12377 25.749L7.12377 25.7651L7.15617 25.7972C7.17235 25.8294 7.20469 25.8454 7.20469 25.8776C7.23706 25.9258 7.25329 25.9901 7.25329 26.0383L7.30182 26.3758C7.318 26.4883 7.33415 26.6007 7.35034 26.6972C7.36652 26.8097 7.39896 26.9061 7.41514 27.0186C7.4637 27.2436 7.51222 27.4686 7.54459 27.6936C7.57696 27.9186 7.60936 28.1596 7.57699 28.4007C7.57699 28.4489 7.51222 28.4971 7.46367 28.481C7.41511 28.481 7.38274 28.4489 7.38274 28.4007C7.35037 28.1917 7.28563 27.9828 7.22089 27.7739L7.01052 27.1311C6.97815 27.0186 6.94576 26.9061 6.91339 26.7936C6.88102 26.665 6.86486 26.5686 6.84867 26.4561L6.78387 26.1186C6.76768 26.0704 6.76768 26.0061 6.78387 25.9419C6.78387 25.9097 6.80008 25.8776 6.81627 25.8454C6.81627 25.8294 6.83247 25.8133 6.83247 25.7972C6.94576 25.7812 6.57353 25.8454 7.09144 25.7651C7.09144 25.749 7.09144 25.7651 7.09144 25.749C7.09144 25.749 7.09143 25.749 7.07524 25.749L7.05904 25.7651C7.05904 25.8615 6.97813 25.8776 6.91339 25.8294Z" fill="#07453A"/>
<path d="M32.241 29.4779C32.0306 29.4297 31.8202 29.4297 31.626 29.4779C31.4318 29.5261 31.27 29.6065 31.1081 29.6708C31.0272 29.7029 30.9463 29.7672 30.8654 29.8154C30.8007 29.8797 30.7197 29.9279 30.6549 29.9922C30.5255 30.1207 30.4122 30.2814 30.3313 30.4582C30.1694 30.7957 30.1209 31.1975 30.2018 31.551C30.2827 31.9046 30.5417 32.2099 30.8977 32.3545C31.2538 32.4992 31.6584 32.5474 32.0145 32.3867C32.1925 32.3224 32.3543 32.1938 32.5 32.0653C32.6295 31.9206 32.7427 31.7599 32.8237 31.5831C32.9855 31.2135 33.0017 30.7957 32.8722 30.41C32.8075 30.2011 32.7427 30.0082 32.6456 29.8315C32.5485 29.6547 32.4191 29.5101 32.241 29.4779ZM32.2895 29.269C32.5485 29.3333 32.7265 29.5261 32.8398 29.719C32.9531 29.9118 33.034 30.1368 33.0826 30.3296C33.2282 30.7475 33.2283 31.2296 33.0664 31.6635C32.9855 31.8724 32.856 32.0813 32.7103 32.2581C32.5485 32.4188 32.3705 32.5795 32.1439 32.6759C31.7231 32.8849 31.189 32.8688 30.7521 32.7081C30.5255 32.6117 30.3151 32.4992 30.1533 32.3063C29.9915 32.1295 29.862 31.9046 29.7972 31.6635C29.6678 31.1975 29.7163 30.6993 29.9105 30.2654C30.0076 30.0404 30.1371 29.8475 30.3151 29.6708C30.3961 29.5743 30.4931 29.5101 30.5902 29.4297C30.6873 29.3654 30.7844 29.3011 30.8977 29.2369C31.011 29.1887 31.1243 29.1404 31.2538 29.1244C31.3833 29.1083 31.4965 29.1083 31.626 29.1244C31.8526 29.1565 32.063 29.2369 32.2895 29.269Z" fill="#07453A"/>
<path d="M37.7762 27.4367C37.5173 27.2599 37.2098 27.1796 36.8861 27.1635C36.5786 27.1474 36.2711 27.1796 35.9636 27.2117C35.6723 27.2599 35.381 27.3563 35.1868 27.5331C34.9764 27.726 34.8145 27.9831 34.7174 28.2563C34.507 28.8188 34.507 29.4616 34.6365 30.0723C34.766 30.683 35.0412 31.2615 35.4943 31.6793C35.7209 31.8722 35.9798 32.0329 36.2873 32.0811C36.5786 32.1293 36.9023 32.1454 37.2098 32.0811C37.5011 32.0168 37.7924 31.8882 38.019 31.6793C38.2455 31.4704 38.4236 31.2133 38.5369 30.924C38.7635 30.3455 38.7958 29.6705 38.6825 29.0437C38.5531 28.4331 38.2779 27.8224 37.7762 27.4367ZM37.9057 27.276C38.1809 27.4849 38.4074 27.7581 38.5531 28.0634C38.7149 28.3688 38.8282 28.6902 38.893 29.0116C39.0386 29.6705 39.0062 30.3776 38.7797 31.0204C38.6664 31.3419 38.4722 31.6472 38.2294 31.9043C37.9705 32.1615 37.6468 32.3222 37.3069 32.4025C36.9508 32.4829 36.611 32.4829 36.2549 32.4347C35.8989 32.3704 35.559 32.1936 35.2839 31.9686C34.7336 31.5026 34.4261 30.8437 34.2481 30.1848C34.0863 29.5098 34.0701 28.8027 34.2966 28.1117C34.4099 27.7742 34.6041 27.4527 34.8793 27.1956C35.0249 27.0671 35.1868 26.9546 35.3648 26.8903C35.5428 26.826 35.7209 26.7778 35.8989 26.7457C36.255 26.6814 36.6272 26.7135 36.9509 26.826C37.2907 26.9224 37.6144 27.0671 37.9057 27.276Z" fill="#07453A"/>
<path d="M43.7801 22.7572C43.6021 22.6768 43.4079 22.6607 43.2137 22.6607C43.0195 22.6768 42.8252 22.725 42.631 22.7893C42.2588 22.9179 41.9028 23.0946 41.5467 23.2714C41.3687 23.3678 41.2069 23.4643 41.0612 23.5928C40.9155 23.7053 40.8022 23.85 40.6889 23.9946C40.4785 24.2999 40.3328 24.6696 40.2681 25.0392C40.1224 25.7945 40.2681 26.6141 40.608 27.3212C40.9479 28.0283 41.5305 28.6229 42.2911 28.8479C42.4853 28.8961 42.6634 28.9283 42.8738 28.9283C43.068 28.9443 43.2784 28.9283 43.4726 28.9122C43.8611 28.864 44.2495 28.7354 44.5731 28.5265C45.2367 28.1087 45.6737 27.3694 45.8517 26.582C45.9326 26.1963 45.965 25.7784 45.9326 25.3767C45.9002 24.9749 45.8355 24.5731 45.6898 24.2035C45.6089 24.0267 45.5118 23.85 45.3824 23.7053C45.2529 23.5768 45.0749 23.4482 44.913 23.3357C44.5408 23.1107 44.1685 22.9339 43.7801 22.7572ZM43.8772 22.5804C44.2495 22.7572 44.6379 22.9339 44.9939 23.175C45.172 23.3036 45.35 23.4 45.5119 23.5768C45.6737 23.7375 45.787 23.9303 45.8679 24.1232C46.0459 24.5249 46.1107 24.9428 46.1593 25.3606C46.1916 25.7784 46.1754 26.2123 46.0944 26.6302C46.0135 27.048 45.8679 27.4658 45.6413 27.8355C45.4147 28.2051 45.1072 28.5426 44.7512 28.7836C44.3789 29.0247 43.9581 29.1854 43.5212 29.2497C43.3108 29.2818 43.0842 29.2979 42.8738 29.2818C42.6634 29.2818 42.4368 29.2497 42.2102 29.2015C41.9998 29.1372 41.7894 29.0568 41.579 28.9443C41.3848 28.8318 41.2068 28.7033 41.0288 28.5586C40.7051 28.2694 40.43 27.8997 40.2358 27.514C39.8312 26.7427 39.6693 25.8427 39.815 24.9588C39.8959 24.5249 40.0577 24.091 40.3167 23.7214C40.4462 23.5446 40.5918 23.3679 40.786 23.2072C40.9641 23.0625 41.1583 22.95 41.3363 22.8375C41.7247 22.6286 42.1455 22.484 42.5825 22.4197C42.7929 22.3875 43.0195 22.3876 43.2461 22.4036C43.4403 22.4358 43.6669 22.484 43.8772 22.5804Z" fill="#07453A"/>
<path d="M49.1372 18.9352C48.7811 18.9352 48.4089 18.9995 48.0852 19.1119C47.7615 19.2405 47.4864 19.4012 47.2436 19.6101C47.0009 19.8351 46.8067 20.1244 46.6611 20.4137C46.5154 20.719 46.4506 21.0565 46.4344 21.3779C46.4021 22.0528 46.661 22.7278 47.0818 23.2581C47.5026 23.7885 48.1176 24.1902 48.7973 24.3027C49.477 24.4152 50.2214 24.2866 50.7231 23.8206C50.9659 23.5956 51.1601 23.2903 51.2896 22.9689C51.4029 22.6475 51.4676 22.2939 51.4676 21.9404C51.4676 21.2333 51.2734 20.5101 50.885 19.9315C50.6908 19.6423 50.4319 19.3851 50.1406 19.1923C49.8331 19.0477 49.4932 18.9352 49.1372 18.9352ZM49.1372 18.7423C49.5256 18.7423 49.9139 18.8548 50.2376 19.0477C50.5613 19.2405 50.8526 19.5298 51.063 19.8351C51.4838 20.4619 51.7104 21.2172 51.7266 21.9725C51.7266 22.3421 51.678 22.7278 51.5647 23.0974C51.4353 23.467 51.2411 23.8045 50.9498 24.0777C50.6585 24.3509 50.3024 24.5438 49.9301 24.6402C49.5417 24.7366 49.1534 24.7527 48.765 24.7045C47.9881 24.592 47.276 24.1581 46.7743 23.5635C46.2726 22.9689 45.9651 22.1975 45.9813 21.394C45.9813 20.9922 46.0784 20.6065 46.2403 20.2369C46.4021 19.8673 46.6287 19.5459 46.9361 19.2727C47.2275 18.9834 47.6483 18.8227 48.0205 18.7745C48.3927 18.7262 48.7649 18.7423 49.1372 18.7423Z" fill="#07453A"/>
<path d="M54.1704 14.5966C53.9277 14.5002 53.6525 14.4841 53.4097 14.5163C53.1508 14.5484 52.9242 14.6127 52.7138 14.6931C52.5035 14.7734 52.3092 14.9341 52.1474 15.1109C52.0017 15.2877 51.8885 15.4966 51.8399 15.7377C51.7266 16.2037 51.7913 16.718 51.9694 17.184C52.1636 17.65 52.471 18.0679 52.908 18.3089C53.0213 18.3732 53.1346 18.4054 53.2479 18.4375C53.3612 18.4696 53.4907 18.4696 53.604 18.4857C53.8467 18.4696 54.0733 18.4054 54.2999 18.2768C54.5102 18.1482 54.7045 17.9714 54.8663 17.7786C55.0281 17.5858 55.1576 17.3608 55.2547 17.1197C55.3518 16.8787 55.4004 16.6215 55.4165 16.3644C55.4165 16.1073 55.368 15.8662 55.2547 15.6252C55.0281 15.1752 54.6559 14.7895 54.1704 14.5966ZM54.2351 14.4199C54.7854 14.6127 55.2062 15.0466 55.4651 15.5448C55.5946 15.8019 55.6593 16.0912 55.6593 16.3805C55.6593 16.6697 55.5946 16.9429 55.4975 17.2161C55.4004 17.4733 55.2547 17.7304 55.0929 17.9554C54.9148 18.1804 54.7045 18.3893 54.4617 18.55C54.2189 18.7107 53.9277 18.8071 53.6202 18.8393C53.4745 18.8393 53.3126 18.8393 53.167 18.8071C53.0213 18.775 52.8756 18.7268 52.7462 18.6464C52.2121 18.3732 51.8237 17.8911 51.581 17.3608C51.3544 16.8304 51.2572 16.2198 51.3867 15.6412C51.4515 15.352 51.5971 15.0627 51.7913 14.8216C51.9855 14.5806 52.2445 14.3877 52.5358 14.2752C52.8271 14.1467 53.1508 14.1306 53.4421 14.1788C53.7011 14.227 53.9762 14.3234 54.2351 14.4199Z" fill="#07453A"/>
<path d="M56.792 9.88812C56.7758 9.90419 56.8567 10.0167 56.97 9.92026L56.9862 9.90419L56.9862 9.92026L56.9862 9.9524L56.97 10.0328L56.9377 10.1935L56.8891 10.5309L56.792 11.2059C56.7596 11.4148 56.7434 11.6398 56.711 11.8648L56.6463 12.5398C56.614 12.9897 56.5655 13.4397 56.5331 13.8736C56.5007 14.3075 56.5331 14.7575 56.5007 15.2075C56.4845 15.6574 56.4521 16.1235 56.4036 16.5735C56.355 17.0234 56.2903 17.4734 56.177 17.9234C55.999 18.8233 55.6915 19.6911 55.2869 20.5268C55.1898 20.7357 55.0765 20.9286 54.9632 21.1375C54.8499 21.3464 54.7204 21.5392 54.6071 21.7321L54.2187 22.2946L53.8141 22.841C53.2477 23.5641 52.6651 24.2552 52.0339 24.9141C50.7877 26.2479 49.4283 27.4532 47.9879 28.5621L47.4377 28.9638L47.1625 29.1567L46.8874 29.3495L46.321 29.7352L45.7383 30.1049L45.4471 30.2816L45.1557 30.4584L44.5569 30.7959C44.1523 31.0048 43.7639 31.2298 43.3431 31.4226C43.1328 31.519 42.9385 31.6315 42.7281 31.7119L42.0969 31.9851C41.6762 32.1619 41.2392 32.3226 40.8022 32.4672C39.9283 32.7404 39.0382 32.9493 38.1481 33.1261C37.258 33.3029 36.3678 33.4475 35.4615 33.5921C34.5552 33.7207 33.6327 33.7528 32.7264 33.6725C31.8201 33.6082 30.9138 33.4636 30.0237 33.2547C29.5867 33.1582 29.1336 33.0297 28.6966 32.9172C28.2597 32.8047 27.8227 32.6601 27.3857 32.6118C27.3372 32.6118 27.2886 32.5476 27.3048 32.4993C27.3048 32.4511 27.3533 32.4029 27.4181 32.419C27.8874 32.4672 28.3244 32.5958 28.7614 32.7083C29.1983 32.8208 29.6353 32.9333 30.0723 33.0297C30.9462 33.2225 31.8363 33.3672 32.7426 33.4154C33.6328 33.4636 34.539 33.4314 35.4291 33.2868C36.3192 33.1422 37.2094 32.9815 38.0995 32.8047C38.9896 32.6279 39.8635 32.4029 40.7051 32.1297C41.1259 31.9851 41.5467 31.8405 41.9513 31.6476L42.5663 31.3744C42.7767 31.278 42.9709 31.1816 43.1651 31.0851C43.5697 30.8923 43.9581 30.6673 44.3465 30.4584L44.9291 30.1209L45.2204 29.9441L45.5118 29.7674L46.0782 29.3977L46.6285 29.012L46.9036 28.8192L47.1787 28.6264L47.7128 28.2246C49.137 27.1318 50.4802 25.9265 51.694 24.6248C52.309 23.982 52.8917 23.2909 53.4257 22.5838L53.8303 22.0535L54.2025 21.5071C54.3158 21.3143 54.4291 21.1375 54.5424 20.9446C54.6395 20.7518 54.7528 20.5589 54.8499 20.35C55.6267 18.759 55.9504 16.9913 55.999 15.2075C55.999 14.9825 56.0152 14.7575 56.0152 14.5325C56.0152 14.3075 56.0152 14.0665 56.0314 13.8415C56.0637 13.3915 56.1285 12.9415 56.177 12.4915C56.2417 12.0416 56.3065 11.6077 56.4036 11.1416L56.5654 10.4827L56.6463 10.1613L56.6949 10.0006L56.7272 9.92026L56.7434 9.87205L56.7596 9.83991C56.7596 9.83991 56.7758 9.82384 56.7758 9.80777C56.8891 9.71134 56.97 9.82383 56.9538 9.85598C56.97 9.90419 56.9376 9.96847 56.8729 9.96847C56.8567 9.98454 56.8081 9.9524 56.792 9.88812Z" fill="#07453A"/>
<path d="M38.9247 8.71399C39.1189 8.79434 39.0703 8.68185 39.0865 8.71399C39.0865 8.69792 39.0865 8.71399 39.0865 8.71399L39.0865 8.73006L39.0865 8.7622L39.0703 8.84255L39.038 9.00326L38.9894 9.32467L38.8923 9.96749L38.7143 11.2531C38.6496 11.671 38.601 12.1209 38.5363 12.5388C38.4715 12.9727 38.3906 13.4066 38.2935 13.8405C38.0993 14.6922 37.8242 15.56 37.4196 16.3475C37.015 17.1349 36.5618 17.8903 36.0601 18.6134C35.0405 20.0598 33.8429 21.3615 32.5158 22.5186C31.1887 23.6756 29.716 24.672 28.1138 25.4595C26.5278 26.2309 24.9093 26.9219 23.2262 27.4361C22.3846 27.6933 21.5269 27.9022 20.653 28.079C19.779 28.2397 18.9051 28.3682 18.0311 28.4486C17.1572 28.545 16.2833 28.5772 15.3932 28.6093C14.5031 28.6254 13.6292 28.5772 12.7552 28.5289C11.8813 28.4647 11.0073 28.3843 10.1334 28.2879C9.69643 28.2397 9.25944 28.1593 8.82248 28.0951L8.17512 27.9825L7.85144 27.9183L7.6896 27.8861L7.60868 27.8701L7.56016 27.854C7.54398 27.854 7.54394 27.854 7.52776 27.8379C7.44684 27.9183 7.51161 27.5486 7.56016 27.6451C7.57634 27.6451 7.5763 27.6451 7.59248 27.6451C7.64103 27.6451 7.6896 27.6933 7.6896 27.7415C7.6896 27.7897 7.64103 27.8379 7.59248 27.8379C7.62485 27.9343 7.68962 27.5647 7.62488 27.6451C7.6087 27.6451 7.62488 27.6451 7.62488 27.6451L7.65728 27.6611L7.7382 27.6772L7.90004 27.7094L8.22372 27.7576L8.87108 27.854C9.30804 27.9183 9.72883 27.9826 10.1658 28.0308C11.0397 28.1272 11.9136 28.1915 12.7713 28.2236C13.6453 28.2718 14.5192 28.2879 15.3932 28.2718C16.2671 28.2397 17.1411 28.1754 17.9988 28.079C18.8728 27.9825 19.7305 27.8701 20.5721 27.6933C21.4298 27.5165 22.2714 27.3076 23.0968 27.0505C24.7475 26.5362 26.3497 25.8291 27.9034 25.0577C29.457 24.3024 30.8974 23.3221 32.1921 22.1811C33.503 21.0401 34.6683 19.7544 35.6555 18.3402C36.1411 17.6331 36.5942 16.8939 36.9826 16.1225C37.371 15.3672 37.63 14.5476 37.808 13.7119C38.0022 12.8763 38.1316 12.0245 38.2773 11.1567C38.3582 10.7228 38.4553 10.305 38.5525 9.87107L38.7143 9.22825L38.7952 8.90684L38.8437 8.74613L38.8761 8.66578L38.8923 8.61756L38.9085 8.58543C38.9085 8.58543 38.9085 8.58542 38.9247 8.56935C38.9408 8.58542 38.9085 8.45686 39.1027 8.55329C39.1351 8.6015 39.135 8.66577 39.0865 8.69791C39.0218 8.77827 38.957 8.7622 38.9247 8.71399Z" fill="#07453A"/>
</svg>
