<svg width="136" height="123" viewBox="0 0 136 123" fill="none" xmlns="http://www.w3.org/2000/svg">
<path d="M68.5766 16.315C68.41 16.3514 68.3047 16.361 68.1993 16.3706C68.0791 16.3795 67.9737 16.3893 67.8684 16.3989C67.6428 16.4174 67.4172 16.436 67.1923 16.4397L66.5163 16.4804C66.396 16.4893 66.2915 16.484 66.1712 16.4929C66.0517 16.4869 65.9471 16.4818 65.7993 16.4447C65.7843 16.4439 65.7843 16.4439 65.7694 16.4432C65.4477 16.2931 65.1559 16.1446 64.8491 15.9953C64.5423 15.846 64.2497 15.7123 63.9422 15.5778C63.3263 15.3237 62.7089 15.0993 62.0594 14.918C60.7752 14.5561 59.4511 14.3857 58.1186 14.3788C57.4448 14.375 56.7837 14.4165 56.1203 14.5026C55.4569 14.5886 54.7919 14.7044 54.1403 14.8506C52.8364 15.1578 51.5712 15.5863 50.3312 16.1052L50.3451 15.8378L50.3742 15.8541C50.3083 15.9699 50.5665 15.6106 50.24 16.1304L50.1818 16.0978L50.0654 16.0324C49.993 15.9841 49.9057 15.9349 49.8326 15.9015C49.6721 15.8191 49.5116 15.7366 49.3512 15.6541C49.0145 15.5033 48.6779 15.3525 48.3397 15.2314C47.6491 14.9736 46.9406 14.7745 46.2305 14.6051C44.7946 14.2803 43.3369 14.0885 41.8699 14.075C41.1364 14.0682 40.4006 14.1059 39.6766 14.2038C39.3143 14.2602 38.9519 14.3167 38.603 14.4036C38.254 14.4904 37.8893 14.5912 37.5396 14.6929C36.125 15.1137 34.7096 15.5495 33.321 16.0461C30.5438 17.0393 27.8313 18.2296 25.3252 19.7724C22.8198 21.3004 20.5634 23.228 18.5799 25.3777C16.5808 27.5414 14.8405 29.9117 13.1868 32.3458C12.3595 33.5703 11.5622 34.7962 10.7782 36.0526C10.3866 36.6734 10.0241 37.3105 9.67654 37.9484C9.34315 38.6018 9.02468 39.2563 8.7204 39.9261C7.53314 42.6069 6.6833 45.4236 5.99624 48.2782C5.30917 51.1328 4.79982 54.026 4.30464 56.9349L3.93758 59.1054C3.81024 59.8288 3.69783 60.553 3.61531 61.2785C3.45026 62.7296 3.35913 64.1993 3.32852 65.6571C3.26654 68.5876 3.42864 71.5291 3.75735 74.4343C4.08529 77.3545 4.59401 80.254 5.27014 83.1021C5.9455 85.9651 6.77333 88.776 7.78347 91.5365C8.80933 94.283 10.0183 96.9642 11.4739 99.5088C12.9453 102.039 14.6626 104.448 16.7584 106.488C17.8138 107.509 18.9163 108.487 20.0839 109.364C21.2508 110.256 22.4821 111.062 23.78 111.737C25.0779 112.413 26.459 112.928 27.8987 113.179C29.3235 113.429 30.825 113.354 32.1837 112.856C32.2599 112.83 32.3338 112.849 32.3913 112.897C34.1769 114.564 36.3442 115.804 38.6713 116.56C39.8344 116.946 41.0344 117.199 42.2555 117.335C43.4765 117.47 44.7037 117.486 45.9356 117.414C48.3851 117.253 50.8216 116.764 53.1525 116.002C54.325 115.628 55.4715 115.179 56.592 114.654C57.1444 114.399 57.6983 114.114 58.2232 113.812C58.4856 113.662 58.7488 113.496 58.997 113.33C59.1211 113.247 59.2452 113.163 59.3552 113.065C59.4172 113.023 59.4651 112.966 59.5123 112.924C59.5594 112.881 59.6073 112.824 59.608 112.809C59.6276 112.721 59.7211 112.651 59.8241 112.686C59.8831 112.704 59.9264 112.736 59.939 112.781L59.9531 112.797C59.9665 112.827 60.009 112.874 60.0515 112.921C60.094 112.968 60.1366 113.014 60.194 113.062C60.294 113.156 60.4088 113.251 60.5096 113.331C60.7401 113.506 60.9714 113.666 61.2027 113.827C61.6803 114.149 62.1892 114.442 62.6998 114.706C63.72 115.248 64.7889 115.718 65.8759 116.13C68.0505 116.938 70.3443 117.469 72.6589 117.6C73.8241 117.658 74.9804 117.596 76.1407 117.461C77.3009 117.325 78.4358 117.099 79.5597 116.797C80.6836 116.496 81.7814 116.119 82.8257 115.62C83.3474 115.378 83.8565 115.091 84.3231 114.756C84.5564 114.589 84.7756 114.407 84.9507 114.207C85.1407 114.008 85.2874 113.777 85.3296 113.541C85.3492 113.453 85.4427 113.383 85.5315 113.402C85.6054 113.421 85.648 113.468 85.6747 113.528C85.726 113.695 85.8371 113.864 85.9638 114.019C86.0906 114.174 86.248 114.316 86.4211 114.444C86.7516 114.714 87.115 114.925 87.5083 115.139C88.2666 115.534 89.0893 115.843 89.915 116.093C91.5822 116.578 93.338 116.799 95.0658 116.692C96.7937 116.585 98.4841 116.043 100.037 115.257C100.807 114.864 101.55 114.394 102.207 113.846C102.536 113.565 102.851 113.283 103.122 112.954C103.394 112.625 103.622 112.264 103.716 111.897C103.736 111.808 103.829 111.738 103.933 111.758C103.992 111.776 104.035 111.808 104.048 111.853C104.156 112.082 104.386 112.272 104.633 112.419C104.88 112.565 105.174 112.654 105.455 112.728C106.032 112.861 106.644 112.906 107.26 112.877C108.475 112.834 109.702 112.567 110.86 112.178C113.207 111.402 115.354 110.139 117.29 108.612C119.226 107.086 120.937 105.28 122.446 103.33C123.955 101.38 125.262 99.2709 126.394 97.0788C126.961 95.9753 127.482 94.8696 127.976 93.7326C128.215 93.1638 128.454 92.5952 128.679 92.0107C128.799 91.7189 128.903 91.4411 129.008 91.1485C129.113 90.8559 129.218 90.5633 129.337 90.2863C130.235 87.9931 130.794 85.5789 131.16 83.1402C131.526 80.7014 131.669 78.2367 131.662 75.7644C131.656 73.2921 131.499 70.8272 131.221 68.3861C130.666 63.489 129.63 58.6274 128.228 53.8965C126.81 49.1649 125.013 44.5485 122.785 40.1338C121.656 37.9332 120.435 35.7874 119.074 33.7242C117.713 31.6609 116.212 29.6951 114.555 27.8701C113.719 26.9499 112.85 26.0874 111.935 25.2525L109.173 22.7622C108.258 21.9273 107.327 21.1064 106.396 20.2856C105.938 19.8756 105.465 19.465 104.991 19.0691C104.762 18.8641 104.518 18.673 104.289 18.468C104.174 18.373 104.044 18.2773 103.929 18.1822C103.872 18.1347 103.814 18.0871 103.757 18.0396L103.67 17.9756L103.626 17.9586C103.626 17.9586 103.611 17.9579 103.626 17.9586C103.643 17.9296 103.577 18.0455 103.825 17.8792L103.553 17.9253C102.359 16.9872 101.037 16.1916 99.6464 15.5713C98.2558 14.951 96.782 14.4901 95.2833 14.2217C92.2725 13.6547 89.1508 13.7821 86.1538 14.3921C84.6557 14.6897 83.1664 15.1067 81.7315 15.6307C81.3653 15.7614 81.014 15.893 80.662 16.0393L80.3869 16.1445L80.3107 16.1707L80.2651 16.1832L80.2345 16.1965C80.2345 16.1965 80.2195 16.1957 80.2038 16.2098C80.2479 16.2269 80.0112 16.1706 80.056 16.1728L79.9403 16.0926L79.7082 15.9469L79.4612 15.8005C79.1261 15.62 78.7903 15.4543 78.4379 15.3176C78.2617 15.2493 78.0855 15.181 77.9086 15.1275C77.7317 15.074 77.5547 15.0204 77.3628 14.9662C75.9001 14.5805 74.3458 14.518 72.8374 14.7257C72.0836 14.8221 71.3409 14.9937 70.6242 15.2409C70.2587 15.3567 69.9067 15.5028 69.5688 15.6647C69.3999 15.7456 69.231 15.8266 69.0613 15.9224L68.8145 16.059L68.5766 16.315ZM68.43 15.9654L68.6468 15.8273L68.8943 15.6758C69.064 15.5801 69.2487 15.485 69.4176 15.4041C69.7712 15.2282 70.1374 15.0974 70.5036 14.9667C71.2502 14.721 72.0078 14.5502 72.7923 14.4404C74.3455 14.235 75.9297 14.2993 77.4521 14.6879C77.6448 14.7273 77.8359 14.7962 78.0128 14.8497C78.204 14.9188 78.3809 14.9724 78.5713 15.0564C78.9385 15.1938 79.2886 15.3751 79.6386 15.5563L79.9006 15.7035L80.1468 15.8647L80.2774 15.9456C80.3372 15.9486 80.1005 15.892 80.1595 15.9098L80.1445 15.9091L80.1752 15.8958L80.2365 15.8691L80.4966 15.7629C80.8486 15.6166 81.2156 15.4712 81.5818 15.3406C83.0474 14.8031 84.5367 14.3859 86.0646 14.0898C89.1064 13.4821 92.2729 13.3569 95.3286 13.9262C96.8564 14.2108 98.36 14.6731 99.7798 15.3098C101.199 15.9464 102.535 16.7577 103.759 17.7122L103.487 17.758C103.751 17.5775 103.698 17.7238 103.745 17.6964C103.76 17.6971 103.774 17.7129 103.789 17.7137C103.818 17.73 103.832 17.7455 103.847 17.7462C103.89 17.7782 103.919 17.7946 103.948 17.8109C104.021 17.8592 104.078 17.9068 104.136 17.9543C104.265 18.0502 104.38 18.145 104.495 18.2549C104.738 18.4607 104.968 18.6509 105.212 18.8567C105.685 19.2674 106.159 19.6632 106.617 20.0732C107.548 20.894 108.479 21.7149 109.394 22.5498L112.155 25.0401C113.071 25.875 113.969 26.7538 114.804 27.6741C116.476 29.5146 117.991 31.4961 119.351 33.5742C120.727 35.6383 121.963 37.7995 123.076 40.0143C125.318 44.4445 127.129 49.0766 128.545 53.8379C129.962 58.5844 130.982 63.4602 131.55 68.3877C131.827 70.8585 131.983 73.3233 131.989 75.8104C131.995 78.2975 131.852 80.7772 131.485 83.2308C131.118 85.6844 130.542 88.1276 129.643 90.4505C129.523 90.7423 129.418 91.0349 129.314 91.3127C129.209 91.6053 129.104 91.8978 128.984 92.1897C128.759 92.7741 128.52 93.3431 128.281 93.9119C127.788 95.0488 127.264 96.1841 126.698 97.2876C125.55 99.4938 124.242 101.617 122.717 103.596C121.192 105.56 119.45 107.395 117.498 108.935C115.531 110.475 113.338 111.766 110.96 112.556C109.772 112.943 108.53 113.224 107.255 113.264C106.624 113.292 105.982 113.246 105.346 113.095C105.036 113.02 104.727 112.915 104.436 112.751C104.145 112.588 103.871 112.366 103.708 112.045L104.04 112.002C103.925 112.488 103.651 112.861 103.378 113.22C103.091 113.563 102.76 113.874 102.416 114.155C101.728 114.716 100.969 115.199 100.169 115.606C98.5851 116.406 96.8491 116.96 95.0607 117.079C93.2724 117.198 91.4875 116.96 89.7755 116.473C88.9199 116.222 88.0823 115.912 87.2956 115.485C86.9023 115.272 86.5098 115.044 86.1651 114.759C85.9928 114.616 85.8212 114.459 85.6654 114.287C85.5095 114.116 85.3701 113.915 85.3085 113.659L85.6537 113.646C85.5762 113.985 85.3823 114.258 85.1758 114.486C84.9693 114.714 84.7345 114.911 84.4862 115.077C84.0039 115.425 83.4799 115.712 82.9424 115.968C81.8675 116.48 80.7547 116.857 79.6152 117.172C78.4764 117.473 77.3115 117.698 76.1505 117.848C74.9754 117.983 73.7891 118.043 72.609 117.984C70.2496 117.852 67.9259 117.319 65.7214 116.509C64.6195 116.097 63.5357 115.626 62.5013 115.068C61.9766 114.789 61.4676 114.495 60.9751 114.173C60.7289 114.012 60.4834 113.836 60.2529 113.66C60.138 113.565 60.0231 113.47 59.909 113.36C59.8515 113.313 59.7949 113.25 59.7382 113.188C59.6815 113.126 59.6248 113.063 59.5854 112.957L59.9305 112.944C59.8788 113.076 59.8159 113.132 59.7523 113.204C59.6895 113.26 59.6267 113.316 59.5639 113.373C59.439 113.471 59.3141 113.569 59.175 113.651C58.9111 113.832 58.6479 113.997 58.3706 114.147C57.83 114.463 57.2769 114.733 56.7088 115.003C55.5733 115.527 54.4119 115.975 53.2386 116.363C50.8778 117.124 48.4099 117.642 45.9305 117.801C44.683 117.888 43.4259 117.869 42.1899 117.733C40.9539 117.597 39.724 117.342 38.531 116.955C36.1599 116.182 33.9336 114.924 32.1055 113.21L32.3131 113.25C31.5956 113.512 30.8536 113.669 30.0872 113.72C29.3357 113.772 28.5746 113.719 27.8323 113.592C26.3478 113.34 24.9234 112.792 23.6106 112.116C22.2828 111.439 21.0382 110.603 19.8564 109.71C18.6753 108.802 17.5571 107.839 16.4876 106.802C14.3485 104.73 12.6028 102.29 11.1173 99.744C9.63254 97.1831 8.41017 94.4717 7.38508 91.7104C6.36077 88.9342 5.51877 86.1077 4.84418 83.2298C4.16959 80.352 3.66163 77.4377 3.31875 74.5169C2.99158 71.5819 2.81533 68.6245 2.87809 65.6792C2.90946 64.2065 3.00136 62.7221 3.16717 61.2562C3.25047 60.5158 3.36287 59.7917 3.49098 59.0535L3.85804 56.8829C4.35322 53.9741 4.86335 51.0659 5.55118 48.1964C6.23902 45.3269 7.10533 42.4812 8.29413 39.7708C8.59918 39.0861 8.91763 38.4318 9.26673 37.7642C9.61506 37.1114 9.97832 36.4596 10.3849 35.8396C11.1688 34.5831 11.9819 33.3429 12.8092 32.1184C14.4637 29.6694 16.2204 27.2702 18.2353 25.0923C20.2501 22.9145 22.5522 20.9742 25.089 19.418C27.6257 17.8618 30.383 16.6741 33.1744 15.6965C34.5779 15.2006 35.9933 14.7648 37.4221 14.3595C37.7718 14.2578 38.1365 14.1568 38.5004 14.0707C38.8643 13.9846 39.2416 13.9291 39.6039 13.8727C40.3428 13.7755 41.0936 13.7385 41.842 13.7461C43.3389 13.7612 44.8265 13.9544 46.2773 14.2799C47.0023 14.4501 47.7251 14.6648 48.4156 14.9226C48.7679 15.0593 49.1054 15.1951 49.4562 15.3616C49.6316 15.4448 49.792 15.5274 49.9517 15.6248C50.0391 15.6738 50.1115 15.7218 50.1988 15.7709L50.3152 15.8363L50.3734 15.8691C50.0469 16.3889 50.2619 15.9975 50.1811 16.1126L50.1519 16.0963C50.0796 16.048 50.0543 15.9574 50.103 15.8853C50.1194 15.8564 50.1501 15.8429 50.1658 15.8288C51.4207 15.3107 52.7017 14.8684 54.0205 14.5619C54.687 14.4164 55.3527 14.2856 56.0311 14.2003C56.7095 14.115 57.3855 14.0743 58.06 14.0633C59.424 14.0419 60.7929 14.2144 62.1077 14.5629C62.7722 14.745 63.4203 14.9561 64.0503 15.2258C64.6811 15.4806 65.2938 15.794 65.8932 16.0771L65.8641 16.0608C65.938 16.0793 66.0426 16.0844 66.1464 16.1045C66.251 16.1097 66.3547 16.1297 66.4742 16.1357C66.6983 16.1469 66.9074 16.1574 67.133 16.1389C67.3579 16.1352 67.5686 16.1159 67.7942 16.0974C67.8995 16.0878 68.0048 16.0781 68.1259 16.0543C68.2477 16.0157 68.3695 15.9772 68.43 15.9654Z" fill="#07453A"/>
<path d="M50.26 16.0564L49.2116 16.6737L48.1774 17.3065C47.4976 17.7338 46.8171 18.1762 46.1648 18.6496C45.4984 19.1074 44.8603 19.5962 44.2222 20.0852C43.9102 20.3375 43.5982 20.5898 43.2854 20.8569L42.8167 21.2503L42.3628 21.6441C41.1424 22.6992 39.9926 23.8323 38.828 24.9647C38.2606 25.5316 37.6931 26.0985 37.1823 26.7278C36.9127 27.0269 36.6714 27.3571 36.4168 27.6569L36.0627 28.1452L35.8856 28.3892L35.7086 28.6336C35.2409 29.2947 34.8321 29.9737 34.4226 30.6676C34.0279 31.3622 33.6474 32.0722 33.2959 32.7987C32.593 34.2518 32.0078 35.7407 31.4807 37.262C30.4414 40.3055 29.7098 43.4683 29.187 46.6417C28.6485 49.8292 28.3179 53.042 28.0917 56.26C27.8655 59.478 27.7734 62.7029 27.7403 65.9454C27.7079 69.1731 27.7351 72.4037 27.7922 75.6359C27.8492 78.868 27.9212 82.1009 27.9335 85.3308L27.9343 85.316C28.4261 89.9688 29.0834 94.5998 29.8161 99.2199C30.5636 103.841 31.3865 108.451 32.3301 113.037C32.3427 113.082 32.3098 113.14 32.2643 113.152C32.2189 113.165 32.1608 113.132 32.1481 113.087C31.1896 108.5 30.3212 103.903 29.5588 99.2815C29.1701 96.9703 28.8112 94.6608 28.4829 92.3378C28.1547 90.0147 27.8562 87.6932 27.6025 85.3738L27.6032 85.3591C27.5909 82.1291 27.504 78.8953 27.447 75.6631C27.3899 72.431 27.3478 69.1997 27.366 65.9564C27.3984 62.7287 27.4912 59.489 27.7033 56.2555C27.9154 53.0219 28.2467 49.7943 28.7852 46.6068C29.3096 43.4037 30.0412 40.2406 31.0828 37.1526C31.6106 35.6165 32.1974 34.0981 32.916 32.6309C33.2682 31.8896 33.6487 31.1796 34.0441 30.4702C34.4545 29.7615 34.8789 29.0683 35.3466 28.4071L35.5244 28.148L35.7015 27.9039L36.0705 27.4163C36.3259 27.1017 36.5672 26.7716 36.8375 26.4577C37.3633 25.8292 37.9322 25.2327 38.5146 24.6665C39.6792 23.5341 40.829 22.4009 42.0659 21.3168C43.2879 20.232 44.5798 19.2399 45.9275 18.325C46.6088 17.868 47.3027 17.4564 48.0116 17.0453C48.366 16.8398 48.7196 16.649 49.0882 16.4591C49.4568 16.2692 49.8096 16.0933 50.1774 15.9182C50.2237 15.8908 50.2825 15.9088 50.2952 15.9541C50.3234 15.9852 50.3062 16.0289 50.26 16.0564Z" fill="#07453A"/>
<path d="M100.474 15.7896C101.103 16.6395 101.669 17.531 102.189 18.4499C102.71 19.3688 103.199 20.3008 103.644 21.2457C104.103 22.1912 104.531 23.1502 104.929 24.1225C105.327 25.0948 105.71 26.0665 106.078 27.0521C106.445 28.0378 106.797 29.0226 107.134 30.0216C107.471 31.0206 107.793 32.0189 108.1 33.0164C108.713 35.0263 109.281 37.0486 109.818 39.0844C110.878 43.1553 111.787 47.2485 112.484 51.3906C112.825 53.4612 113.121 55.5443 113.266 57.6498C113.317 58.694 113.367 59.753 113.417 60.7972L113.455 62.3767L113.474 63.1662L113.478 63.9552C113.53 68.1543 113.283 72.368 112.56 76.5135C112.214 78.5944 111.779 80.6412 111.33 82.6872L109.952 88.8237C109.734 89.8544 109.488 90.869 109.285 91.9005C109.082 92.9321 108.88 93.9636 108.692 94.9959C108.301 97.0597 107.926 99.1243 107.462 101.17C107.012 103.216 106.488 105.258 105.832 107.264C105.176 109.255 104.387 111.224 103.351 113.063C103.319 113.106 103.273 113.118 103.229 113.101C103.186 113.069 103.174 113.024 103.191 112.98C104.197 111.141 104.971 109.185 105.626 107.209C106.266 105.217 106.774 103.189 107.224 101.143C108.123 97.0509 108.711 92.8837 109.64 88.7932C110.525 84.6856 111.527 80.6137 112.203 76.4809C112.91 72.3495 113.126 68.1637 113.074 63.9795L113.07 63.1907L113.051 62.401L112.997 60.8358C112.946 59.7916 112.896 58.7474 112.845 57.7032C112.698 55.6274 112.403 53.5441 112.061 51.4883C111.363 47.3611 110.454 43.268 109.393 39.212C108.333 35.156 107.106 31.1511 105.681 27.2107C105.328 26.2258 104.945 25.2545 104.547 24.2822C104.149 23.3099 103.751 22.3525 103.322 21.3935C102.449 19.4897 101.5 17.6267 100.319 15.901C100.292 15.855 100.295 15.7956 100.341 15.7681C100.387 15.7407 100.447 15.7436 100.474 15.7896Z" fill="#07453A"/>
<path d="M65.0776 16.1122C64.3945 16.9113 63.7404 17.7265 63.1287 18.5887C62.5178 19.4361 61.9491 20.3303 61.4103 21.226C60.3319 23.032 59.3845 24.9042 58.4951 26.809C58.0574 27.7692 57.6198 28.7292 57.197 29.6902L56.8907 30.4189C56.7884 30.6667 56.7017 30.9005 56.6142 31.149C56.4252 31.6306 56.2502 32.128 56.0902 32.626C55.4203 34.6162 54.9118 36.6589 54.5076 38.707C53.7125 42.8338 53.3766 47.0284 53.2938 51.2354C53.2111 55.4425 53.3971 59.648 53.7179 63.8455C53.8779 65.9517 54.0692 68.0296 54.2739 70.138C54.4644 72.2308 54.6244 74.3369 54.7844 76.443C55.1052 80.6405 55.426 84.8382 55.9418 89.0157C56.4875 93.1947 56.8529 97.3944 57.1588 101.591C57.4647 105.788 57.6805 109.995 57.8963 114.202C57.894 114.247 57.8619 114.29 57.8016 114.301C57.7569 114.299 57.7138 114.267 57.702 114.207C57.4564 109.999 57.21 105.805 56.8893 101.607C56.5685 97.4098 56.1725 93.2234 55.612 89.0437C55.0813 84.8654 54.7612 80.6532 54.4256 76.455C54.2656 74.3488 54.0899 72.2568 53.8994 70.164C53.6939 68.0704 53.4885 65.9767 53.3285 63.8705C53.0077 59.673 52.8076 55.452 52.8762 51.2293C52.9448 47.0067 53.2822 42.7827 54.064 38.6255C54.4697 36.5477 54.979 34.4898 55.6497 32.4848C55.8246 31.9876 55.9854 31.4749 56.1744 30.9933C56.2768 30.7455 56.3643 30.4967 56.4666 30.2488L56.7729 29.5201C57.1815 28.5436 57.6192 27.5836 58.0717 26.6242C58.976 24.7201 59.9399 22.8188 61.0481 21.0143C61.6018 20.1194 62.1994 19.2417 62.8401 18.3958C63.4809 17.55 64.1647 16.736 64.9051 15.9844C64.9372 15.9413 64.9967 15.9444 65.0398 15.9763C65.112 16.0246 65.1089 16.084 65.0776 16.1122Z" fill="#07453A"/>
<path d="M79.8205 15.7735C82.5702 18.9022 84.8322 22.5124 86.1644 26.4927C86.8235 28.4751 87.2233 30.5634 87.2791 32.6644L87.4019 35.7806C87.4376 36.824 87.4443 37.8512 87.48 38.8946C87.5492 43.0498 87.5134 47.2144 87.4039 51.3606C87.2936 55.5216 87.1395 59.6657 86.9547 63.823C86.5712 72.122 86.0983 80.4165 85.7743 88.7185C85.6201 92.8625 85.495 97.0229 85.4748 101.174C85.4546 105.324 85.5089 109.479 85.593 113.634C85.5907 113.679 85.5586 113.722 85.4983 113.734C85.4536 113.732 85.4105 113.7 85.3987 113.64C85.2848 109.482 85.2156 105.327 85.206 101.175C85.209 99.0918 85.2113 97.0235 85.259 94.9426C85.2828 93.9021 85.3066 92.8617 85.3305 91.8212L85.4318 88.7014C85.7409 80.3986 86.1989 72.1034 86.5527 63.8029C86.7366 59.6604 86.8767 55.5007 86.9862 51.3545C87.0808 47.2076 87.101 43.057 87.0318 38.9018C87.011 37.8592 86.9893 36.8313 86.9536 35.7878L86.8152 32.6859C86.7571 30.6295 86.355 28.5855 85.7093 26.6335C85.0636 24.6816 84.1899 22.8075 83.1479 21.0143C82.6414 20.1259 82.0894 19.2501 81.492 18.3869C80.9095 17.5244 80.2949 16.7051 79.6506 15.8842C79.6231 15.8382 79.6261 15.7787 79.6723 15.7513C79.7327 15.7394 79.7773 15.7416 79.8205 15.7735Z" fill="#07453A"/>
<path d="M49.2123 15.4673C48.214 15.9829 47.2008 16.4977 46.2159 17.0438C45.7234 17.3168 45.2309 17.5898 44.7526 17.8784C44.2743 18.167 43.7952 18.4704 43.3452 18.7902C42.4302 19.4291 41.5702 20.1601 40.6969 20.8605L38.0604 22.9907C36.3279 24.4072 34.8068 26.0723 33.5016 27.8971C32.1964 29.7218 31.1229 31.6922 30.2244 33.7456C29.326 35.799 28.6175 37.9363 28.0566 40.1108C27.4957 42.2853 27.0533 44.4806 26.7287 46.7116C26.0652 51.1578 25.7879 55.653 25.6754 60.1417C25.5629 64.6303 25.6293 69.1278 25.68 73.6394L25.6995 77.0187L25.7023 78.7003C25.7029 79.2659 25.6887 79.8308 25.6901 80.3815C25.6772 81.4969 25.7233 82.6302 25.7552 83.7479L25.8473 85.4343C25.8778 86.0013 25.924 86.554 25.9694 87.1218C26.1524 89.3632 26.381 91.5921 26.6841 93.8246C26.9872 96.0571 27.3209 98.2764 27.7299 100.484C28.5173 104.914 29.5009 109.308 30.697 113.639C30.7096 113.685 30.6767 113.742 30.6312 113.755C30.5857 113.767 30.5276 113.735 30.515 113.689C29.304 109.358 28.2906 104.962 27.4882 100.532C27.0792 98.3239 26.7165 96.0883 26.4126 93.8706C26.0946 91.6374 25.8511 89.4078 25.6688 87.1516C25.6235 86.5838 25.5773 86.0307 25.5468 85.4637L25.4547 83.7777C25.4086 82.6443 25.3767 81.5265 25.3754 80.3954C25.3748 79.8299 25.3741 79.2645 25.3876 78.7145L25.3849 77.0327L25.3653 73.6537C25.3138 69.1568 25.2326 64.6583 25.3459 60.1548C25.4442 55.6506 25.7223 51.1407 26.3716 46.6789C26.6962 44.448 27.1253 42.2221 27.7018 40.0335C28.2635 37.8442 28.9727 35.6923 29.8727 33.6091C30.7727 31.526 31.8627 29.5268 33.1843 27.6731C34.5059 25.8194 36.0577 24.1407 37.8074 22.6804L40.4438 20.5502C41.3179 19.8349 42.192 19.1196 43.1376 18.4674C43.6175 18.1491 44.0966 17.8457 44.5898 17.5578C45.083 17.27 45.5896 17.0125 46.0963 16.755C47.1095 16.2401 48.1345 15.7854 49.1745 15.3314C49.2208 15.304 49.2789 15.3367 49.2915 15.382C49.2758 15.3961 49.2586 15.4398 49.2123 15.4673Z" fill="#07453A"/>
<path d="M66.1983 16.4661C63.6707 19.7471 61.4599 23.2524 59.7586 27.0064C58.0425 30.7596 56.8673 34.7331 56.1207 38.7879C55.9339 39.8053 55.7619 40.8236 55.6198 41.8433C55.4776 42.8629 55.3503 43.8831 55.252 44.9198C55.0414 46.9777 54.9208 49.0254 54.9037 51.0929C54.8702 55.2131 55.1799 59.3354 55.5045 63.4587L55.9616 69.6422C56.1239 71.7038 56.2862 73.7655 56.4485 75.8271C56.788 79.9512 57.158 84.0617 57.5422 88.188C58.2964 96.4249 59.096 104.649 59.8352 112.886C59.833 112.93 59.8001 112.988 59.7555 112.986C59.7108 112.983 59.6528 112.951 59.6551 112.906L57.2273 88.217C56.8423 84.1055 56.4582 79.9794 56.1038 75.8546C55.9266 73.7923 55.7643 71.7306 55.602 69.6689L55.13 63.4847C54.8054 59.3614 54.4659 55.2375 54.5009 51.0876C54.5181 49.02 54.6402 46.9427 54.836 44.8842C54.9342 43.8474 55.0615 42.827 55.1895 41.7918C55.3325 40.7573 55.4895 39.7386 55.6764 38.7212C56.4245 34.6367 57.602 30.6185 59.3345 26.8363C60.1934 24.9449 61.1988 23.1053 62.3187 21.3608C62.8716 20.4808 63.4825 19.6333 64.0927 18.8008C64.3978 18.3845 64.7177 17.9691 65.0518 17.5692C65.3718 17.1536 65.7051 16.7685 66.0392 16.3686C66.0713 16.3255 66.1308 16.3286 66.1739 16.3605C66.2186 16.3627 66.2304 16.423 66.1983 16.4661Z" fill="#07453A"/>
<path d="M81.155 15.7663C81.9865 16.4329 82.7389 17.1849 83.428 18.0081C84.1021 18.8305 84.7293 19.695 85.2641 20.6146C85.7989 21.5342 86.2718 22.4955 86.6687 23.4826C87.0656 24.4697 87.4171 25.4695 87.7075 26.4959C87.9979 27.5223 88.228 28.5605 88.4282 29.5973C88.6285 30.6341 88.7834 31.6835 88.8928 32.7455C89.1421 34.8561 89.2418 36.9742 89.2968 39.09C89.337 41.205 89.3175 43.3171 89.2683 45.4276C89.2191 47.5382 89.155 49.6481 89.1661 51.7468C89.2471 55.962 89.3273 60.1921 89.2587 64.4148C89.2244 66.5261 89.1751 68.6369 89.0664 70.7445C89.012 71.7983 88.9576 72.8519 88.8883 73.905C88.8339 74.9588 88.7348 76.0105 88.6656 77.0635C88.4339 81.2631 88.5737 85.4961 88.3702 89.7269C88.1378 93.9414 87.816 98.1515 87.5388 102.364C87.2617 106.576 86.9995 110.789 86.8713 115.008C86.869 115.053 86.822 115.095 86.7773 115.093C86.7327 115.091 86.6903 115.044 86.6926 115C86.9193 106.559 87.6083 98.1261 88.0583 89.6965C88.2602 85.4954 88.1055 81.2616 88.3238 77.0316C88.3931 75.9785 88.4773 74.9261 88.5317 73.8723C88.601 72.8193 88.6554 71.7653 88.6949 70.7108C88.7888 68.6024 88.838 66.4919 88.8723 64.3806C88.9261 60.1572 88.845 55.9419 88.7491 51.7259C88.7239 49.6116 88.788 47.5018 88.8372 45.3912C88.8865 43.2807 88.9059 41.1686 88.8501 39.0676C88.7943 36.9667 88.679 34.8628 88.4437 32.7678C88.3187 31.7199 88.1631 30.6852 87.9777 29.6492C87.7923 28.6131 87.5466 27.5889 87.2703 26.5781C86.7029 24.5556 85.9529 22.5986 84.9124 20.7757C83.8868 18.9536 82.5847 17.2814 81.0149 15.8784C80.9717 15.8465 80.9748 15.7871 81.0069 15.744C81.0516 15.7463 81.1119 15.7344 81.155 15.7663Z" fill="#07453A"/>
<path d="M105.486 112.991C105.966 112.077 106.431 111.178 106.867 110.247C107.304 109.317 107.725 108.386 108.103 107.437C108.858 105.54 109.511 103.594 110.062 101.612C111.177 97.6653 111.865 93.6075 112.611 89.5675L113.172 86.5298C113.358 85.5272 113.53 84.5091 113.687 83.4901C114.001 81.4671 114.271 79.4272 114.496 77.3849C114.946 73.3003 115.247 69.208 115.354 65.1063C115.461 61.0045 115.375 56.893 114.959 52.8097C114.512 48.7397 113.735 44.6978 112.745 40.7198C111.741 36.741 110.539 32.8117 109.095 28.9597C108.373 27.0337 107.59 25.1347 106.715 23.2755C106.27 22.3455 105.809 21.4295 105.318 20.5418C104.811 19.6534 104.273 18.7784 103.627 17.9871C103.6 17.9411 103.603 17.8817 103.634 17.8535C103.68 17.826 103.725 17.8282 103.768 17.8602C104.429 18.667 104.981 19.5427 105.488 20.4312C105.994 21.3344 106.469 22.2511 106.914 23.1811C107.804 25.041 108.602 26.9411 109.339 28.8679C110.798 32.7206 112.044 36.6521 113.048 40.6309C114.052 44.6246 114.844 48.667 115.29 52.7666C115.72 56.8656 115.806 60.992 115.712 65.1094C115.604 69.226 115.317 73.3336 114.882 77.4338C114.656 79.4762 114.402 81.5171 114.087 83.5549C113.93 84.5738 113.758 85.5919 113.571 86.6093L113.011 89.6467C112.279 93.6875 111.591 97.7605 110.474 101.737C109.908 103.718 109.254 105.679 108.439 107.588C108.031 108.535 107.594 109.48 107.128 110.394C106.648 111.308 106.153 112.221 105.629 113.102C105.597 113.145 105.552 113.158 105.508 113.141C105.481 113.08 105.468 113.035 105.486 112.991Z" fill="#07453A"/>
<path d="M65.9079 16.299C65.738 14.6681 65.9286 13.0107 66.2356 11.4184C66.5434 9.81127 66.9541 8.23894 67.3052 6.66374C67.4803 5.88356 67.5973 5.07069 67.7732 4.27567C67.9491 3.48064 68.1705 2.67307 68.539 1.91742L68.688 1.64198L68.8519 1.36742C68.9664 1.17963 69.1406 0.994811 69.3267 0.870126C69.6996 0.60591 70.1544 0.494514 70.5763 0.441132C70.9982 0.387749 71.4312 0.40943 71.8335 0.444383C72.2508 0.480081 72.6516 0.544757 73.0673 0.610148C73.4681 0.674794 73.8674 0.769134 74.2689 0.818933C74.4622 0.843461 74.6854 0.869478 74.8922 0.924444C75.0989 0.979409 75.3339 1.06553 75.5203 1.22368C75.7208 1.39742 75.8115 1.66978 75.8149 1.89323C75.8325 2.13227 75.7903 2.36841 75.6899 2.5718C75.5034 2.99416 75.1737 3.29022 74.8456 3.55667C74.1901 4.07472 73.4527 4.4399 72.8286 4.92975C72.6724 5.05592 72.5311 5.18281 72.4189 5.32606C72.3867 5.36912 72.3702 5.39803 72.3381 5.44109L72.2565 5.57104L72.1083 5.83155C71.9107 6.17894 71.7123 6.54123 71.5437 6.90495C70.8398 8.35835 70.2671 9.87775 69.7683 11.4158C69.2695 12.9539 68.8148 14.5091 68.4189 16.0821C68.4017 16.1259 68.3546 16.1682 68.3106 16.1511C68.2666 16.134 68.2241 16.0871 68.2413 16.0433C68.623 14.4547 69.033 12.8974 69.5184 11.3289C70.003 9.77526 70.5466 8.23947 71.2521 6.75638C71.4206 6.39265 71.6198 6.01558 71.8174 5.66819L71.9805 5.40842L72.0621 5.27847C72.0943 5.23542 72.1264 5.19237 72.1594 5.13447C72.288 4.96227 72.4607 4.80717 72.6177 4.66615C73.274 4.13325 74.0114 3.76819 74.6213 3.26275C74.933 3.02525 75.2171 2.74166 75.3535 2.42099C75.4217 2.26066 75.4608 2.08407 75.4394 1.91927C75.4337 1.74036 75.3809 1.60373 75.266 1.5087C75.1512 1.41366 74.9901 1.34611 74.7983 1.29189C74.6207 1.25326 74.4124 1.22793 74.2191 1.2034C73.8026 1.15286 73.4033 1.05852 73.0025 0.99387C72.6017 0.929224 72.2009 0.864549 71.8135 0.830341C71.4112 0.795388 71.0222 0.790932 70.631 0.830957C70.2546 0.871727 69.8752 0.971913 69.58 1.18047C69.4395 1.29254 69.3139 1.40524 69.2308 1.56483L69.0834 1.81055L68.9501 2.0718C68.5989 2.78366 68.3947 3.5475 68.2188 4.34252C68.0586 5.12344 67.9267 5.93557 67.7657 6.73133C67.4139 8.32138 67.0181 9.89431 66.7111 11.4866C66.4041 13.0789 66.1874 14.6608 66.1334 16.2806C66.1311 16.3251 66.084 16.3674 66.0392 16.3652C65.9631 16.3911 65.9206 16.3443 65.9079 16.299Z" fill="#07453A"/>
<path d="M65.7599 16.0929C65.4384 14.7813 65.2978 13.4488 65.0809 12.1424C64.9803 11.4821 64.8491 10.8352 64.6872 10.2017C64.5254 9.56813 64.3187 8.93248 64.0342 8.35241C63.7497 7.77234 63.404 7.21894 62.949 6.7495C62.5082 6.29566 61.9583 5.92578 61.3566 5.68729C61.0632 5.56842 60.7525 5.49339 60.4404 5.44804C60.2768 5.42499 60.1274 5.41754 59.9623 5.4242C59.9325 5.42271 59.8562 5.44861 59.78 5.47459C59.7038 5.50057 59.6275 5.52664 59.5513 5.55262C59.3981 5.61944 59.2598 5.687 59.1215 5.75457C58.9824 5.83698 58.8583 5.92011 58.764 6.00476C58.7169 6.04709 58.7146 6.09165 58.7154 6.07679C58.7161 6.06194 58.7154 6.07677 58.7728 6.12431C58.8161 6.15625 58.8602 6.17331 58.89 6.1748C58.9199 6.17629 58.9655 6.1637 59.0118 6.13623C59.1045 6.08128 59.2003 5.96698 59.267 5.83628C59.3337 5.70558 59.4011 5.55997 59.4387 5.41293C59.4912 5.26663 59.5146 5.10404 59.5373 4.95625C59.5599 4.80847 59.5534 4.64436 59.5289 4.5389C59.5297 4.52405 59.5021 4.47791 59.4887 4.44746L59.4344 4.34048C59.3927 4.27883 59.3517 4.20235 59.3099 4.14071C59.2115 4.01666 59.1281 3.8934 59.0139 3.78346C58.7857 3.5636 58.541 3.37275 58.2499 3.20932C57.6968 2.8988 57.0465 2.73228 56.401 2.75966C56.0858 2.77373 55.7682 2.83229 55.4775 2.95182C55.1867 3.07134 54.9227 3.25183 54.7304 3.4954C54.5239 3.72337 54.3741 4.01376 54.2981 4.3227C54.2793 4.39622 54.2598 4.48454 54.241 4.55806L54.2395 4.5878L54.2387 4.60259C54.1215 4.55207 54.5007 4.7498 53.9415 4.5581L53.9422 4.54316L53.9453 4.48384L53.9664 4.36564C53.968 4.33593 53.9703 4.29149 53.9718 4.26178C53.9733 4.23207 53.9607 4.18674 53.9622 4.15703C53.9511 4.08202 53.9251 4.00627 53.914 3.93125C53.8249 3.62897 53.6594 3.3527 53.4469 3.11873C53.2336 2.89961 52.9582 2.72204 52.6461 2.67668C52.024 2.54142 51.3552 2.73145 50.7855 3.03066C50.2151 3.34472 49.6983 3.78062 49.2247 4.24843C49.1925 4.2915 49.1328 4.28847 49.0895 4.25653C49.0462 4.22458 49.0493 4.16511 49.0815 4.12204C49.5417 3.62378 50.0742 3.17391 50.6611 2.83089C50.9542 2.6668 51.2763 2.519 51.6245 2.44701C51.9586 2.35943 52.3336 2.3484 52.6749 2.4101C52.8534 2.43389 53.0295 2.50224 53.19 2.5847C53.3505 2.66717 53.4945 2.77853 53.622 2.91892C53.8786 3.16998 54.0566 3.49164 54.1741 3.82512C54.1994 3.91573 54.2254 3.99137 54.2358 4.08124C54.2484 4.12654 54.2461 4.17116 54.2587 4.21646C54.2698 4.29147 54.2533 4.32044 54.251 4.365L54.2291 4.49799L54.2261 4.55732C53.6519 4.36488 54.046 4.56326 53.9296 4.49789L53.9304 4.48309L53.9319 4.45336C53.9515 4.36498 53.971 4.27658 53.9898 4.20305C54.0822 3.86515 54.2493 3.53097 54.488 3.25993C54.7267 2.98889 55.0228 2.76545 55.36 2.61845C55.6971 2.47146 56.0453 2.39941 56.4053 2.38758C57.1113 2.34833 57.8206 2.53262 58.4476 2.86172C58.7536 3.0259 59.0424 3.23395 59.299 3.48501C59.4273 3.61054 59.5399 3.75012 59.6524 3.88976C59.7083 3.96701 59.7493 4.04351 59.7903 4.12001L59.8588 4.24254C59.8864 4.28859 59.8998 4.31909 59.9266 4.38C59.966 4.48621 59.9756 4.59093 59.9709 4.68005C59.9813 4.76991 59.9759 4.8738 59.9563 4.96217C59.9322 5.13967 59.893 5.3165 59.8539 5.49326C59.7999 5.66926 59.7317 5.82958 59.6485 5.98924C59.5504 6.14816 59.4515 6.32196 59.2504 6.44596C59.1569 6.51575 59.0202 6.55358 58.8857 6.54688C58.7513 6.54017 58.6348 6.47483 58.5483 6.41094C58.4759 6.36266 58.3476 6.23716 58.327 6.05743C58.3213 5.87844 58.4171 5.76408 58.4807 5.6928C58.6236 5.53611 58.7784 5.43953 58.9324 5.35786C59.0864 5.27619 59.2553 5.19538 59.4085 5.12856C59.4855 5.08773 59.5767 5.06246 59.6529 5.03648C59.6985 5.02386 59.7441 5.01127 59.7897 4.99865C59.8203 4.98529 59.8353 4.98601 59.8659 4.97264C59.8809 4.97339 59.9115 4.95994 59.9265 4.96068L59.9563 4.96217C60.1364 4.95626 60.3156 4.9652 60.4941 4.98899C60.8511 5.03658 61.1916 5.11318 61.529 5.24914C62.1897 5.50546 62.783 5.90737 63.2662 6.408C63.7495 6.90864 64.1229 7.50798 64.4357 8.11925C64.7335 8.72977 64.9536 9.39601 65.1297 10.0451C65.3057 10.6943 65.4354 11.3707 65.5509 12.0317C65.7663 13.3678 65.877 14.6989 65.9729 16.029C65.9706 16.0736 65.9376 16.1314 65.8928 16.1292C65.8158 16.17 65.7725 16.1382 65.7599 16.0929Z" fill="#07453A"/>
<path d="M69.6736 0.993642C69.8423 1.21071 69.9841 1.36683 70.17 1.54008C70.3567 1.69847 70.5748 1.82871 70.8093 1.92992C71.0439 2.03114 71.3098 2.10421 71.5608 2.17647C71.8276 2.23462 72.0801 2.2771 72.3483 2.30554C72.8848 2.36241 73.4236 2.37465 73.9654 2.32751C74.2366 2.29651 74.493 2.26482 74.7658 2.20411C75.0236 2.14264 75.283 2.05151 75.514 1.9291C75.5604 1.90165 75.6194 1.91941 75.6321 1.96474C75.6597 2.01082 75.6424 2.05476 75.5961 2.08221C75.1161 2.38571 74.5532 2.55093 73.9942 2.64188C73.4352 2.73284 72.865 2.74875 72.2979 2.70523C72.0147 2.67604 71.7323 2.63199 71.4499 2.58794C71.1682 2.52904 70.8881 2.44036 70.6236 2.33763C70.36 2.22004 70.0821 2.08688 69.8529 1.88165C69.6229 1.69128 69.4296 1.3687 69.4763 1.04333C69.4793 0.983894 69.5257 0.956499 69.5854 0.959517C69.631 0.946921 69.6602 0.963172 69.6736 0.993642Z" fill="#07453A"/>
</svg>
