<svg width="76" height="105" viewBox="0 0 76 105" fill="none" xmlns="http://www.w3.org/2000/svg">
<path d="M22.8043 47.2845C21.3154 47.1238 19.8264 47.0917 18.3374 47.1559C16.8485 47.2363 15.3597 47.4292 13.9031 47.6863C12.4466 47.9434 11.0224 48.3934 9.69527 49.0201C9.35541 49.1648 9.04791 49.3576 8.72423 49.5344C8.56239 49.6148 8.41667 49.7272 8.25483 49.8237C8.10917 49.9201 7.94736 50.0165 7.80171 50.129C7.5104 50.354 7.20293 50.5629 6.94399 50.804C6.81452 50.9325 6.66886 51.0289 6.53939 51.1736L6.15091 51.5592C5.6492 52.0896 5.19602 52.6521 4.82379 53.2788L4.67823 53.5038L4.54863 53.7449C4.46771 53.9056 4.37067 54.0663 4.28975 54.227C4.14409 54.5645 3.98231 54.8859 3.86903 55.2395C3.36732 56.6055 3.1568 58.0678 3.17299 59.5303C3.20535 60.9927 3.44818 62.4551 3.88515 63.8532C4.32211 65.2513 4.93704 66.6013 5.68151 67.8708C6.42597 69.1404 7.29991 70.3297 8.27095 71.4546C9.24199 72.5796 10.294 73.6241 11.3622 74.6687C12.4303 75.7133 13.4985 76.7579 14.5181 77.8668C15.5215 78.9756 16.4601 80.1648 17.2531 81.4505C18.0299 82.7361 18.6287 84.1342 19.1142 85.5484C19.5836 86.9787 19.9396 88.4251 20.1662 89.9036C20.6355 92.8605 20.7488 95.8497 20.7326 98.8227C20.7326 100.317 20.7004 101.796 20.668 103.29L20.6517 104.399L20.6517 104.544L20.6517 104.608C20.9268 104.592 20.231 104.512 20.3119 104.576L20.3119 104.56C20.3281 104.48 20.3443 104.383 20.3604 104.287L20.4414 103.724L20.765 101.523L21.0887 99.3209C21.202 98.5817 21.2991 97.8585 21.38 97.1192C21.558 95.6407 21.6876 94.1623 21.8494 92.6838C22.0112 91.2053 22.2055 89.7268 22.4806 88.2644C22.6263 87.5252 22.788 86.802 22.9984 86.0788C23.225 85.3717 23.4355 84.6485 23.743 83.9575C24.3256 82.5754 25.1347 81.2737 26.1058 80.1327C27.0606 78.9756 28.1935 77.9792 29.2131 76.9025C30.2489 75.8419 31.1715 74.6687 31.7864 73.3348C32.1101 72.6759 32.3367 71.9688 32.5147 71.2617C32.6928 70.5546 32.8383 69.8154 32.9516 69.0922C33.162 67.6298 33.2591 66.1513 33.2591 64.6728C33.2591 63.1943 33.1458 61.7158 32.9354 60.2373C32.7251 58.7749 32.4013 57.3286 31.932 55.9144C31.4627 54.5162 30.8476 53.1503 30.0384 51.9128C29.2292 50.6754 28.1935 49.5826 26.9635 48.763C25.7173 47.9595 24.2771 47.4613 22.8043 47.2845ZM22.8366 47.0917C24.3417 47.2684 25.7983 47.7666 27.0768 48.6023C28.3392 49.438 29.3912 50.5468 30.2166 51.8003C31.042 53.0538 31.673 54.4359 32.1424 55.8501C32.6117 57.2643 32.9355 58.7268 33.1621 60.2052C33.3725 61.6837 33.4857 63.1783 33.5019 64.6728C33.5019 66.1674 33.421 67.662 33.2106 69.1405C33.0973 69.8797 32.9678 70.6189 32.7736 71.3421C32.5794 72.0653 32.3691 72.7885 32.0292 73.4634C31.398 74.8294 30.4593 76.0507 29.4074 77.1114C28.3716 78.1881 27.2548 79.1845 26.3161 80.3255C25.3613 81.4665 24.5846 82.7201 24.0181 84.0861C23.7106 84.761 23.5002 85.4681 23.2898 86.1753C23.0956 86.8824 22.9337 87.6055 22.788 88.3287C22.5129 89.775 22.3187 91.2535 22.1731 92.732C22.0112 94.2105 21.8818 95.689 21.72 97.1675C21.639 97.9067 21.5258 98.6459 21.4287 99.3852L21.1211 101.587L20.7974 103.789L20.7165 104.335C20.7003 104.431 20.6842 104.512 20.668 104.624L20.6517 104.672C20.7326 104.785 20.0207 104.688 20.2958 104.64C20.2958 104.608 20.2958 104.576 20.2958 104.56L20.2958 104.415L20.3119 103.306C20.3443 101.812 20.3604 100.333 20.3604 98.8549C20.3766 95.8818 20.2472 92.9088 19.7779 90C19.5351 88.5376 19.1953 87.1073 18.7259 85.6931C18.2566 84.295 17.674 82.929 16.8972 81.6755C16.1203 80.422 15.1977 79.2488 14.2105 78.156C13.2071 77.0632 12.1391 76.0347 11.0709 74.9901C10.0028 73.9456 8.93449 72.901 7.94727 71.7599C6.96004 70.635 6.05384 69.4136 5.29319 68.1119C4.53254 66.8102 3.9013 65.4443 3.44815 63.9979C2.99499 62.5676 2.73611 61.057 2.70374 59.5463C2.68756 58.0357 2.89786 56.509 3.41575 55.0788C3.52903 54.7091 3.70709 54.3716 3.85275 54.0181C3.93367 53.8413 4.03087 53.6806 4.11179 53.5199L4.24123 53.2627L4.38679 53.0217C4.7752 52.3628 5.26082 51.7682 5.77871 51.2057C6.83067 50.0969 8.10911 49.229 9.48475 48.5862C10.8604 47.9434 12.3332 47.5416 13.8383 47.3166C15.3272 47.0917 16.8162 46.931 18.3213 46.8828C19.8264 46.8667 21.3476 46.9149 22.8366 47.0917Z" fill="#07453A"/>
<path d="M61.4192 43.0736C60.7395 43.0897 60.0598 43.2986 59.461 43.6361C58.8622 43.9735 58.3281 44.4235 57.8587 44.9217C56.9201 45.9342 56.1918 47.1234 55.5606 48.3608C54.9294 49.5821 54.5086 50.916 54.1525 52.2338C53.7965 53.5677 53.5377 54.9336 53.3111 56.2996C52.8741 59.0316 52.6637 61.8118 52.5828 64.5759C52.5181 67.3561 52.5827 70.1203 52.8578 72.8844C53.0035 74.2665 53.1815 75.6325 53.4567 76.9985C53.6023 77.6735 53.748 78.3484 53.9422 79.0073C54.1364 79.6662 54.3468 80.3251 54.6381 80.9358C55.2207 82.1732 56.03 83.2981 56.9201 84.3588C57.3571 84.8891 57.8264 85.4034 58.2957 85.9337L58.9916 86.7051C59.2182 86.9783 59.461 87.2354 59.6714 87.5086C61.4354 89.7103 62.6977 92.2976 63.3613 95.0296C63.7011 96.3956 63.863 97.7937 63.8953 99.2079C63.9115 99.5615 63.8953 99.915 63.8953 100.253C63.8953 100.429 63.8953 100.59 63.8953 100.783C63.8791 100.96 63.863 101.136 63.8468 101.297C63.8468 101.329 63.8468 101.377 63.8468 101.394C63.7983 101.361 63.9439 101.458 63.7335 101.265C63.4098 101.329 63.604 101.329 63.5392 101.329L63.5555 101.281L63.6526 101.04C63.7173 100.879 63.7983 100.719 63.8468 100.558L64.0248 100.076C64.0895 99.9151 64.1381 99.7544 64.1866 99.5776C65.0282 96.942 65.3519 94.1457 66.3068 91.4941C66.7761 90.1602 67.4397 88.9068 68.2489 87.7497C69.0419 86.5926 69.9481 85.5158 70.822 84.423C71.696 83.3463 72.5537 82.2375 73.2496 81.0482C73.5895 80.4536 73.8808 79.8269 74.1397 79.1841C74.3825 78.5413 74.593 77.8824 74.771 77.2074C75.1108 75.8735 75.3051 74.4915 75.4022 73.1094C75.4993 71.7273 75.4993 70.3453 75.4507 68.9472C75.3374 66.167 74.9651 63.4189 74.5443 60.6708L73.897 56.5407C73.6704 55.1747 73.4277 53.7926 73.1041 52.4588C72.926 51.7838 72.7479 51.1249 72.5213 50.466C72.2948 49.8072 72.0359 49.1643 71.7284 48.5537C71.1134 47.3162 70.3042 46.1752 69.236 45.2913C68.9771 45.0663 68.6858 44.8735 68.4107 44.6646C68.1194 44.4878 67.828 44.295 67.5043 44.1504C67.1968 43.9896 66.8732 43.8611 66.5496 43.7325C66.3877 43.6682 66.2259 43.62 66.064 43.5718L65.8213 43.4914L65.5622 43.4272C64.219 43.1701 62.811 43.0415 61.4192 43.0736ZM61.4192 42.8807C62.8272 42.8486 64.2515 42.9611 65.6109 43.3147L65.8698 43.3789L66.1287 43.4593C66.2905 43.5075 66.4686 43.5718 66.6305 43.62C66.9542 43.7485 67.294 43.8771 67.6015 44.0378C67.9252 44.1825 68.2165 44.3753 68.524 44.5521C68.8153 44.761 69.1065 44.9539 69.3655 45.1949C70.466 46.0949 71.2915 47.268 71.9227 48.5215C72.2302 49.1482 72.5053 49.8072 72.7319 50.466C72.9584 51.1249 73.1525 51.7999 73.3305 52.4749C73.6704 53.8248 73.9132 55.2069 74.1397 56.5728L74.8034 60.703C75.2403 63.4511 75.5964 66.2152 75.7259 69.0114C75.7906 70.4096 75.7906 71.8077 75.6935 73.2059C75.5964 74.604 75.4021 75.986 75.0623 77.352C74.9004 78.027 74.6739 78.7019 74.4312 79.3608C74.1722 80.0197 73.8808 80.6465 73.5248 81.2733C72.8127 82.4947 71.9387 83.6035 71.0648 84.6802C70.1909 85.773 69.3009 86.8337 68.524 87.9907C67.7472 89.1317 67.0998 90.3531 66.6305 91.6548C65.708 94.2582 65.4004 97.0545 64.5427 99.7383C64.4941 99.899 64.4294 100.076 64.3808 100.237L64.2029 100.735C64.1381 100.895 64.0734 101.056 64.0086 101.217L63.9116 101.458C63.8954 101.474 63.8954 101.49 63.8792 101.522C63.8145 101.538 63.9925 101.57 63.6364 101.635C63.3937 101.442 63.5393 101.49 63.4907 101.442C63.4907 101.378 63.4907 101.329 63.4907 101.281C63.5069 101.104 63.5231 100.928 63.5392 100.767L63.5392 100.253C63.5392 99.899 63.5392 99.5615 63.5392 99.2079C63.5069 97.8259 63.3451 96.4599 63.0052 95.11C62.3578 92.4262 61.1118 89.9031 59.3801 87.7497C59.1697 87.4765 58.943 87.2194 58.7165 86.9622L58.0206 86.1908C57.5512 85.6766 57.082 85.1463 56.6288 84.6159C55.7225 83.5392 54.881 82.3982 54.2821 81.0965C53.9746 80.4537 53.7481 79.7787 53.5539 79.1038C53.3435 78.4288 53.1977 77.7377 53.0521 77.0628C52.7769 75.6968 52.5828 74.2987 52.4371 72.9166C52.1458 70.1364 52.0648 67.3401 52.1296 64.5438C52.1943 61.7476 52.4209 58.9674 52.8417 56.2033C53.0683 54.8212 53.3273 53.4552 53.7157 52.0892C53.9099 51.4142 54.1202 50.7393 54.3792 50.0804C54.6219 49.4215 54.9295 48.7787 55.2532 48.1519C55.9329 46.9305 56.6936 45.7253 57.6808 44.7128C58.1663 44.1986 58.7327 43.7486 59.3477 43.4111C59.9951 43.1058 60.7071 42.8968 61.4192 42.8807Z" fill="#07453A"/>
<path d="M17.4958 47.6213C17.1883 45.8053 16.8971 44.0055 16.4925 42.2217C16.0879 40.4378 15.6184 38.6701 15.0682 36.9184C14.5179 35.1667 13.9353 33.431 13.288 31.7115C12.6568 29.9919 12.0094 28.2724 11.3459 26.5529C10.6985 24.8334 10.0351 23.1138 9.42012 21.3782L8.95072 20.0764L8.49761 18.7747C8.2063 17.9069 7.93117 17.023 7.68841 16.1391C6.71738 12.5876 6.13473 8.9396 5.47119 5.3398C5.45501 5.29159 5.50356 5.22727 5.55211 5.22727C5.60066 5.2112 5.66543 5.25941 5.66543 5.30763C6.37752 8.90743 7.02481 12.5233 8.02821 16.0588C8.27097 16.9427 8.54619 17.8105 8.85368 18.6783L9.3068 19.98L9.77619 21.2656C10.4074 22.9852 11.0708 24.7047 11.7505 26.4082C12.414 28.1278 13.0777 29.8312 13.7088 31.5669C14.3562 33.2864 14.9549 35.0381 15.5052 36.7898C16.0716 38.5415 16.541 40.3253 16.9456 42.1252L17.2208 43.4751L17.2854 43.8126L17.3339 44.1501L17.4311 44.8411C17.5768 45.7572 17.6253 46.6732 17.6739 47.5892C17.6739 47.6374 17.6414 47.6856 17.5767 47.7017C17.5605 47.7177 17.512 47.6856 17.4958 47.6213Z" fill="#07453A"/>
<path d="M20.1825 49.8552C20.0369 48.9392 19.8912 48.007 19.8265 47.075C19.7779 46.6089 19.7294 46.1429 19.697 45.6769L19.6161 44.2787C19.5352 42.4145 19.4704 40.5504 19.4704 38.6862C19.4542 36.822 19.4866 34.9578 19.5352 33.0936C19.5837 31.2294 19.6485 29.3653 19.7294 27.5172C19.8103 25.653 19.9236 23.8048 20.0207 21.9407L20.1663 19.1605C20.2148 18.2284 20.2634 17.3123 20.2796 16.3802C20.3767 12.6679 20.2796 8.93959 20.6681 5.2273C20.6681 5.17909 20.7166 5.13086 20.7814 5.13086C20.8299 5.13086 20.8784 5.1791 20.8784 5.24338C20.5386 8.93961 20.7004 12.668 20.6357 16.3963C20.6195 17.3284 20.5872 18.2605 20.5386 19.1926L20.409 21.9728C20.3281 23.837 20.231 25.6851 20.1663 27.5493C20.0853 29.4134 20.0207 31.2616 19.9722 33.1258C19.9236 34.9899 19.9073 36.838 19.9235 38.7022C19.9397 40.5664 20.0044 42.4145 20.0853 44.2626C20.1824 46.1107 20.312 47.9749 20.3768 49.823C20.3768 49.8712 20.3281 49.9195 20.2796 49.9195C20.231 49.9355 20.1825 49.9034 20.1825 49.8552Z" fill="#07453A"/>
<path d="M22.8475 48.7911C22.9716 47.0274 23.2416 45.2588 23.5733 43.5272C23.9051 41.7956 24.2703 40.0505 24.6021 38.3189C24.9499 36.5886 25.2495 34.8544 25.5825 33.1068L26.5629 27.8948C27.2277 24.4156 27.9393 20.9562 28.6992 17.5005C29.4751 14.046 30.3141 10.6125 31.2481 7.20249C31.268 7.15566 31.32 7.11132 31.3669 7.13108C31.4139 7.15083 31.4582 7.20266 31.4383 7.24948C30.9954 8.95635 30.5833 10.6817 30.1873 12.4084C29.7913 14.135 29.4114 15.8628 29.0475 17.5919C28.3198 21.0501 27.6401 24.512 26.9915 27.9925L26.0272 33.2058C25.7115 34.9386 25.4105 36.6887 25.0627 38.419C24.731 40.1506 24.3671 41.8797 24.0502 43.6285L23.5519 46.234C23.3854 47.1078 23.2203 47.9656 23.0377 48.8381C23.0339 48.8862 22.9658 48.9293 22.9189 48.9096C22.8719 48.8898 22.8436 48.8392 22.8475 48.7911Z" fill="#07453A"/>
<path d="M24.3318 41.2198C24.4051 41.1126 24.445 41.0189 24.5144 40.9598C24.5492 40.9302 24.6026 40.8699 24.6386 40.8243L24.7788 40.69C24.8669 40.6001 24.9711 40.5113 25.0754 40.4226C25.1796 40.3339 25.2675 40.244 25.3705 40.1713C25.7699 39.8313 26.1991 39.5258 26.6121 39.2191C27.4689 38.6242 28.3247 38.0453 29.121 37.3973C29.3121 37.2347 29.5031 37.072 29.6954 36.8933C29.8878 36.7147 30.0788 36.5521 30.2551 36.3722C30.6075 36.0124 30.9464 35.6194 31.1258 35.1979C31.2067 34.9945 31.2569 34.7726 31.2066 34.5914C31.1575 34.3941 31.0563 34.2412 30.8696 34.1462C30.699 34.0524 30.4603 34.0017 30.2177 33.9991C29.9763 33.9805 29.7325 33.9939 29.4725 34.0061C29.2125 34.0183 28.9672 34.0477 28.6454 34.0229C28.565 34.0167 28.4846 34.0105 28.361 33.9364L28.314 33.9167C28.2992 33.8994 28.2831 33.8981 28.2683 33.8809C28.2387 33.8463 28.2078 33.8279 28.1955 33.7786C28.182 33.7453 28.1535 33.6947 28.1561 33.6626C28.1587 33.6306 28.1465 33.5812 28.1477 33.5652C28.1593 33.421 28.1694 33.2928 28.197 33.1498C28.2887 32.6086 28.4919 32.0923 28.7567 31.6129C29.3013 30.6713 30.0424 29.9062 30.7499 29.1546L31.2799 28.599C31.4574 28.4031 31.6336 28.2231 31.8099 28.0433C31.9861 27.8634 32.1474 27.6662 32.2927 27.4678C32.3287 27.4223 32.3661 27.3606 32.4021 27.3151L32.4954 27.161C32.4954 27.161 32.4954 27.161 32.4941 27.1771C32.4729 27.2399 32.5516 27.4717 32.511 27.3718L32.4973 27.3385C32.4825 27.3213 32.4677 27.304 32.4529 27.2867C32.4233 27.2522 32.3763 27.2324 32.3467 27.1979C32.1761 27.1041 31.9373 27.0535 31.696 27.0348C31.4547 27.0162 31.2107 27.0296 30.9507 27.0418C30.6907 27.054 30.4443 27.0994 30.1682 27.1103C30.1025 27.1214 30.0383 27.1164 29.9417 27.109C29.9256 27.1078 29.8934 27.1053 29.8773 27.104C29.8612 27.1028 29.813 27.099 29.7821 27.0805C29.766 27.0793 29.7202 27.0435 29.6893 27.025C29.6597 26.9905 29.6745 27.0077 29.6597 26.9905L29.6165 26.9227C29.5167 26.7537 29.4987 26.5749 29.5115 26.4147C29.5197 26.109 29.6044 25.8576 29.7066 25.5913C29.7914 25.3399 29.9084 25.0909 30.0241 24.858C30.2568 24.3761 30.5204 23.9128 30.8297 23.4852C31.4335 22.6127 32.1102 21.8426 32.6645 20.9825C32.9416 20.5524 33.1866 20.1198 33.3698 19.6502C33.427 19.5418 33.4532 19.4148 33.4944 19.3051C33.5368 19.1794 33.5779 19.0697 33.5694 18.9723C33.5771 18.8761 33.5675 18.7948 33.5218 18.759C33.4774 18.7072 33.4155 18.6702 33.3041 18.6454C33.0988 18.5812 32.8401 18.5774 32.5827 18.5576C32.3252 18.5377 32.0344 18.5313 31.7389 18.3795C31.661 18.3413 31.5843 18.287 31.5238 18.234C31.4646 18.1649 31.4066 18.0797 31.3808 17.9971C31.3389 17.9133 31.3305 17.8159 31.3195 17.7505L31.3201 17.541L31.3206 17.3314C31.3257 17.2673 31.3321 17.1872 31.3372 17.1231C31.3487 16.9788 31.359 16.8506 31.3853 16.7237C31.4771 16.1826 31.6788 15.6822 31.9276 15.2016C32.159 14.7357 32.4388 14.2735 32.6999 13.8422C32.9622 13.3949 33.2083 12.9463 33.4063 12.494C33.4474 12.3843 33.5059 12.2598 33.547 12.1501L33.6569 11.7878L33.7345 11.4229C33.7557 11.36 33.7397 11.3588 33.7546 11.3761C33.7694 11.3933 33.7693 11.3933 33.7693 11.3933C33.7693 11.3933 33.7532 11.3921 33.7371 11.3909C33.6566 11.3847 33.5267 11.3907 33.3954 11.4128C33.2642 11.4349 33.133 11.4571 32.9721 11.4446C32.8916 11.4384 32.7949 11.431 32.6862 11.3742C32.6553 11.3557 32.6244 11.3372 32.6095 11.3199L32.5651 11.2681C32.5355 11.2336 32.5059 11.199 32.4924 11.1657C32.4061 11.0301 32.3532 10.8809 32.3325 10.7342C32.2751 10.4395 32.2807 10.1659 32.3185 9.89468C32.3402 9.62225 32.3929 9.36833 32.4629 9.09963C32.5855 8.577 32.77 8.09139 32.9061 7.60206C33.0584 7.11397 33.1785 6.62335 33.2503 6.12905C33.306 5.63351 33.3134 5.13427 33.1375 4.70146C33.0415 4.48444 32.9095 4.31301 32.7254 4.18593C32.5413 4.05885 32.3224 3.96135 32.0997 3.91191C31.877 3.86248 31.6492 3.87716 31.4484 3.9584C31.2477 4.03965 31.0579 4.18619 30.899 4.3513C30.58 4.69752 30.3486 5.16341 30.1506 5.61572C29.7843 6.55489 29.5739 7.57055 29.4438 8.59244C29.4335 8.72065 29.4071 8.84758 29.3969 8.97579L29.3662 9.36046C29.3458 9.61686 29.308 9.88804 29.2553 10.142C29.229 10.2689 29.1853 10.4107 29.1429 10.5364C29.1217 10.5992 29.0832 10.6769 29.0459 10.7385C29.0086 10.8001 28.9365 10.8913 28.8349 10.9479C28.784 10.9762 28.7023 10.9861 28.6701 10.9836C28.6219 10.9799 28.5724 10.9922 28.5415 10.9737C28.4932 10.9699 28.4623 10.9514 28.414 10.9477L28.3039 10.9069C28.1643 10.8316 28.0568 10.7589 27.9505 10.6701C27.7368 10.5084 27.5577 10.3172 27.3562 10.2049C27.2635 10.1494 27.1697 10.1099 27.0879 10.1198C27.0718 10.1185 27.0543 10.1333 27.0383 10.1321C27.0222 10.1308 27.0049 10.1456 26.9714 10.1591L26.9045 10.1862L26.8364 10.2293C26.6652 10.3451 26.5842 10.5484 26.5181 10.7691C26.468 10.9909 26.4636 11.2486 26.4766 11.4914C26.5013 11.9932 26.6077 12.4851 26.7303 12.9783C26.8528 13.4715 27.0076 13.9672 27.1636 14.4468C27.241 14.6946 27.3183 14.9425 27.3957 15.1903C27.4337 15.3222 27.4717 15.4541 27.4924 15.6009C27.5131 15.7476 27.5003 15.9078 27.438 16.0804C27.3596 16.2517 27.2046 16.3688 27.0708 16.4229C26.9369 16.4771 26.7882 16.514 26.6718 16.5534C26.424 16.6149 26.1924 16.6776 26.0361 16.8106C25.8798 16.9437 25.7988 17.1471 25.7957 17.3887C25.7765 17.6291 25.7895 17.8719 25.8186 18.1161C25.8929 18.6055 26.0315 19.0999 26.1863 19.5956C26.341 20.0913 26.513 20.5721 26.6504 21.0826C26.7877 21.593 26.9077 22.1182 26.8469 22.6779C26.8078 22.9651 26.7379 23.2338 26.5887 23.4803C26.4396 23.7267 26.2112 23.951 25.9435 24.0593C25.6746 24.1837 25.3972 24.2106 25.1359 24.2388C24.8746 24.267 24.6295 24.2964 24.4275 24.3937C24.2255 24.491 24.1309 24.6611 24.0622 24.9138L24.0159 25.0875C23.9947 25.1504 23.9897 25.2145 23.9859 25.2626L23.9556 25.4376C23.9505 25.5017 23.9454 25.5659 23.9403 25.63C23.9167 26.128 24.0071 26.6186 24.1457 27.113C24.4069 28.1006 24.8477 29.0699 24.9403 30.1413C24.9623 30.2719 24.9507 30.4162 24.9566 30.5456C24.9625 30.6751 24.9349 30.818 24.9086 30.945C24.8547 31.215 24.7859 31.4676 24.6689 31.7166C24.5519 31.9655 24.4201 32.1972 24.2091 32.4067C24.157 32.451 24.0888 32.4941 24.0367 32.5384C23.9685 32.5816 23.903 32.5926 23.8361 32.6197C23.7035 32.6579 23.587 32.6972 23.4544 32.7354C23.3379 32.7747 23.2055 32.8129 23.1051 32.8535C22.9886 32.8929 22.8858 32.9656 22.8324 33.026C22.815 33.0407 22.8136 33.0567 22.8124 33.0728L22.7887 33.1677C22.7675 33.2305 22.7622 33.2947 22.7584 33.3427C22.7482 33.4709 22.7393 33.5831 22.7452 33.7125C22.7538 34.213 22.8764 34.7063 22.9816 35.2142C23.0429 35.4608 23.0867 35.7221 23.1306 35.9835C23.1758 36.2289 23.2197 36.4902 23.281 36.7368C23.3861 37.2448 23.5087 37.738 23.63 38.2472C23.7513 38.7564 23.8899 39.2508 24.0124 39.744L24.211 40.501L24.3104 40.8796C24.3214 40.9449 24.3348 40.9782 24.331 41.0263C24.3407 41.1076 24.3369 41.1557 24.3318 41.2198ZM24.2843 41.4096C24.2572 41.343 24.214 41.2752 24.1882 41.1926C24.1611 41.126 24.1367 41.0274 24.1096 40.9608L24.0103 40.5823L23.8103 39.8413C23.6717 39.3468 23.5343 38.8364 23.4118 38.3432C23.2892 37.85 23.168 37.3409 23.0467 36.8316C22.9854 36.5851 22.9416 36.3237 22.8976 36.0623C22.8537 35.8009 22.8086 35.5555 22.7473 35.309C22.6421 34.801 22.5047 34.2905 22.4826 33.7567C22.4767 33.6273 22.4883 33.4831 22.4985 33.3549C22.5036 33.2908 22.5086 33.2267 22.5311 33.1478L22.555 33.0529C22.5749 33.0061 22.5948 32.9593 22.6134 32.9284C22.7215 32.7917 22.8554 32.7375 22.9905 32.6673C23.1243 32.6131 23.2407 32.5737 23.3733 32.5356C23.5058 32.4974 23.6223 32.4581 23.7388 32.4187C23.8044 32.4076 23.8551 32.3793 23.8899 32.3497C23.9407 32.3214 23.9756 32.2919 24.0277 32.2475C24.2014 32.0997 24.3157 31.8827 24.4154 31.6486C24.515 31.4144 24.5824 31.1778 24.6338 30.9399C24.6601 30.8129 24.669 30.7007 24.6632 30.5713C24.6573 30.4419 24.6662 30.3297 24.6604 30.2003C24.5787 29.1943 24.1368 28.2411 23.8608 27.2362C23.7235 26.7258 23.6195 26.2018 23.6469 25.6557C23.652 25.5916 23.6571 25.5275 23.6635 25.4474L23.6963 25.2402C23.7014 25.1761 23.7064 25.1121 23.7289 25.0332L23.7925 24.8446C23.8137 24.7817 23.8349 24.7189 23.8574 24.64C23.8786 24.5771 23.9171 24.4994 23.9544 24.4378C24.0451 24.3158 24.1679 24.1964 24.3031 24.1262C24.5733 23.9858 24.8507 23.9588 25.112 23.9306C25.3732 23.9024 25.6197 23.857 25.8217 23.7597C26.0237 23.6624 26.1974 23.5146 26.3105 23.3137C26.3665 23.2213 26.4076 23.1116 26.45 22.9859L26.4726 22.907L26.495 22.8281L26.5251 22.653C26.5635 22.1723 26.4571 21.6803 26.3345 21.1872C26.1959 20.6927 26.0237 20.2119 25.869 19.7162C25.7143 19.2205 25.5609 18.7088 25.4892 18.1873C25.4453 17.9259 25.4349 17.651 25.4566 17.3786C25.4623 17.1049 25.5695 16.7746 25.8127 16.5677C26.0558 16.3607 26.3519 16.303 26.5996 16.2415C26.7321 16.2033 26.8473 16.1799 26.9476 16.1393C27.048 16.0987 27.1013 16.0383 27.1386 15.9766C27.1772 15.899 27.1849 15.8029 27.1616 15.6882C27.1545 15.5748 27.1152 15.4589 27.092 15.3442C27.0146 15.0964 26.9373 14.8486 26.8587 14.6168C26.7039 14.1211 26.5492 13.6254 26.4119 13.115C26.2745 12.6045 26.1693 12.0966 26.1311 11.5615C26.1206 11.2866 26.1262 11.0129 26.1801 10.743C26.2013 10.6801 26.2078 10.6 26.2451 10.5384L26.2861 10.4287L26.3434 10.3203C26.3807 10.2587 26.434 10.1982 26.4726 10.1206C26.5259 10.0602 26.5793 9.99991 26.6475 9.9568L26.7505 9.88413C26.784 9.87059 26.8174 9.85698 26.8521 9.82742C26.9191 9.80033 27.0181 9.77573 27.0999 9.76592C27.2955 9.74877 27.4513 9.82531 27.5749 9.89934C27.8382 10.0487 28.0172 10.2399 28.2162 10.3842C28.3076 10.4558 28.4152 10.5286 28.5079 10.5841L28.5709 10.605C28.5869 10.6063 28.6192 10.6088 28.634 10.6261C28.6662 10.6285 28.7305 10.6335 28.7144 10.6323C28.7144 10.6323 28.7492 10.6027 28.7678 10.5719C28.7877 10.5251 28.8237 10.4795 28.8275 10.4314C28.8687 10.3217 28.8938 10.2108 28.9201 10.0838C28.9714 9.8459 29.008 9.59079 29.0284 9.33438L29.0591 8.94971C29.0706 8.80548 29.0795 8.6933 29.1071 8.55031C29.2545 7.51364 29.4502 6.48072 29.8365 5.49472C30.037 5.01035 30.2711 4.51244 30.6608 4.09105C30.8557 3.88036 31.0801 3.70421 31.3639 3.59712C31.6476 3.49003 31.9572 3.46559 32.243 3.53602C32.514 3.58918 32.7972 3.69162 33.0258 3.8705C33.2717 4.0346 33.4617 4.29113 33.57 4.55747C33.7865 5.09015 33.7727 5.66956 33.7144 6.19716C33.6401 6.72351 33.5174 7.24616 33.3651 7.73425C33.2277 8.23961 33.0432 8.7252 32.9232 9.21578C32.8705 9.4697 32.8191 9.7076 32.7999 9.94798C32.7808 10.1884 32.7765 10.446 32.8081 10.6581C32.8313 10.7727 32.8558 10.8713 32.9138 10.9564C32.9286 10.9737 32.9434 10.991 32.9582 11.0083L32.9718 11.0415C32.9718 11.0415 33.0027 11.06 33.0523 11.0477C33.1488 11.0552 33.2801 11.0331 33.4114 11.011C33.5426 10.9888 33.6738 10.9667 33.8508 10.9804C33.899 10.9841 33.9473 10.9878 34.0091 11.0248C34.0722 11.0458 34.1328 11.0989 34.176 11.1667C34.2623 11.3024 34.2198 11.4281 34.2147 11.4922L34.1345 11.8891L34.006 12.2823C33.9636 12.408 33.9051 12.5325 33.8627 12.6582C33.6461 13.1413 33.3986 13.6059 33.1363 14.0533C32.8739 14.5006 32.6116 14.948 32.3815 15.3978C32.1513 15.8477 31.9681 16.3172 31.8815 16.7943C31.8552 16.9212 31.8463 17.0334 31.8361 17.1616C31.8309 17.2257 31.8258 17.2898 31.822 17.3379L31.824 17.5154C31.817 17.8051 31.8416 17.9037 32.0135 17.9815C32.1854 18.0592 32.4415 18.0951 32.6829 18.1138C32.9403 18.1336 33.199 18.1375 33.5008 18.2092C33.6431 18.2524 33.8149 18.3302 33.9321 18.4843C34.0654 18.6397 34.0811 18.8506 34.0696 18.9948C34.0568 19.1551 34.0131 19.2968 33.9707 19.4225C33.9282 19.5482 33.8859 19.6739 33.8435 19.7996C33.6578 20.3012 33.3941 20.7646 33.0996 21.2095C32.5267 22.1005 31.8328 22.8853 31.2637 23.7282C30.9705 24.1571 30.7106 24.5724 30.4953 25.0395C30.3795 25.2724 30.2799 25.5065 30.1977 25.7259C30.1141 25.9613 30.0467 26.198 30.03 26.4064C30.0211 26.5185 30.0469 26.6012 30.0753 26.6517C30.0753 26.6517 30.0739 26.6678 30.09 26.669C30.09 26.669 30.1048 26.6863 30.09 26.669C30.0752 26.6517 30.0444 26.6332 30.0444 26.6332C30.0283 26.632 30.0283 26.632 30.0444 26.6332C30.0444 26.6332 30.0605 26.6344 30.0766 26.6357C30.1248 26.6394 30.1905 26.6283 30.2387 26.6321C30.4826 26.6186 30.7452 26.5744 31.0212 26.5635C31.2825 26.5353 31.5573 26.5404 31.8321 26.5455C32.1056 26.5666 32.3927 26.621 32.672 26.7715C32.7338 26.8086 32.8106 26.8628 32.8711 26.9159C32.9007 26.9504 32.9316 26.9689 32.9612 27.0034L33.0056 27.0553C32.9811 26.9567 33.0745 27.2057 33.0359 27.2834C33.0173 27.3142 33.0161 27.3302 33.0148 27.3462L32.9043 27.5151C32.867 27.5767 32.8309 27.6223 32.7936 27.6839C32.6309 27.8971 32.4522 28.1089 32.2746 28.3049C32.0971 28.5008 31.9209 28.6807 31.7434 28.8766L31.1959 29.447C30.4723 30.1974 29.7661 30.9329 29.2749 31.8141C29.0299 32.2467 28.848 32.7003 28.7614 33.1773C28.7364 33.2882 28.7423 33.4176 28.7333 33.5298C28.7307 33.5618 28.7333 33.5298 28.7333 33.5298C28.7333 33.5298 28.7346 33.5138 28.7186 33.5125C28.7037 33.4953 28.7038 33.4953 28.7038 33.4953C28.7038 33.4953 28.7037 33.4953 28.6876 33.4941C28.6876 33.4941 28.7347 33.5138 28.783 33.5175C28.9921 33.5336 29.2534 33.5054 29.5134 33.4933C29.7734 33.4811 30.0508 33.4541 30.3243 33.4752C30.5978 33.4963 30.886 33.5348 31.1815 33.6866C31.3212 33.7619 31.4584 33.8692 31.5447 34.0048C31.6471 34.1417 31.716 34.2922 31.7366 34.4389C31.8237 34.7681 31.7338 35.0836 31.6168 35.3326C31.3803 35.8625 31.0093 36.2531 30.6381 36.6436C30.4445 36.8383 30.2534 37.0009 30.061 37.1796C29.8687 37.3582 29.6616 37.5196 29.4544 37.6809C28.6259 38.3264 27.7407 38.8709 26.869 39.4485C26.4412 39.738 26.0133 40.0275 25.6003 40.3342C25.4974 40.4069 25.3932 40.4956 25.2903 40.5682C25.1861 40.6569 25.0831 40.7296 24.995 40.8195L24.8561 40.9378C24.804 40.9822 24.7693 41.0117 24.6999 41.0709C24.541 41.236 24.4033 41.3382 24.2843 41.4096Z" fill="#07453A"/>
<path d="M19.6502 40.842C19.666 40.778 19.6814 40.7301 19.6964 40.6983C19.7115 40.6664 19.756 40.6031 19.7861 40.5394L20.009 40.1906C20.1578 39.9526 20.3061 39.7307 20.4545 39.5088C20.7373 39.0487 21.0204 38.5725 21.2178 38.0784C21.4296 37.5846 21.5558 37.0728 21.5239 36.5738C21.5009 36.3161 21.4346 36.0736 21.3396 35.8304C21.2446 35.5872 21.1352 35.3438 21.0115 35.1C20.9025 34.8404 20.7796 34.5646 20.743 34.2744C20.6921 33.984 20.699 33.6787 20.7341 33.3901C20.7835 33.1018 20.8616 32.8141 20.982 32.5594C21.1024 32.3048 21.2228 32.0501 21.3715 31.8122C21.6403 31.3357 21.9378 30.8598 22.2206 30.3997C22.489 29.9392 22.7579 29.4627 22.912 28.9838C22.9278 28.9198 22.9431 28.8719 22.9589 28.8079C22.9747 28.7439 22.9901 28.696 22.9915 28.6318L22.9933 28.5514L22.9944 28.5033L22.9948 28.4872L22.9951 28.4711C22.9958 28.439 22.9818 28.4226 22.9682 28.3901C22.9263 28.341 22.8273 28.2747 22.7284 28.2082L22.3742 28.0077C22.119 27.8737 21.8506 27.6911 21.6699 27.43C21.4749 27.1686 21.3673 26.8448 21.345 26.555C21.3088 26.2488 21.3584 25.9605 21.4078 25.6722C21.4397 25.5282 21.4716 25.3842 21.5031 25.2562C21.5493 25.1125 21.5953 24.9849 21.6415 24.8412C21.8544 24.2992 22.1517 23.8233 22.4488 23.3635C22.746 22.9037 23.0714 22.4605 23.3398 22.0001C23.6083 21.5396 23.8341 21.0622 23.9316 20.5498C23.9488 20.4216 23.9802 20.2937 23.9974 20.1655C24.0146 20.0372 24.0172 19.9247 23.991 19.8116C23.9673 19.5861 23.8698 19.4554 23.6568 19.3544C23.4439 19.2534 23.173 19.1833 22.8888 19.0646C22.7469 18.9973 22.6053 18.914 22.4931 18.799C22.3666 18.6838 22.2838 18.5373 22.2153 18.3912C22.0784 18.0989 22.0421 17.7927 22.0342 17.5032C22.036 17.4228 22.0231 17.3582 22.0249 17.2778L22.0442 17.0532C22.046 16.9729 22.0474 16.9086 22.0635 16.8286L22.1113 16.6207C22.2245 16.0444 22.48 15.5193 22.7631 15.0431C23.0606 14.5672 23.386 14.1241 23.6687 13.6639C23.9511 13.2199 24.1769 12.7424 24.2453 12.2456C24.2625 12.1173 24.2651 12.0049 24.2382 11.9239C24.2113 11.843 24.1694 11.7938 24.0848 11.7277C23.9006 11.6273 23.6292 11.5733 23.3589 11.471C23.2166 11.4197 23.0743 11.3685 22.9334 11.253C22.7922 11.1535 22.6808 11.0064 22.613 10.8281C22.5861 10.7472 22.5592 10.6662 22.5467 10.5856C22.5341 10.5049 22.5355 10.4407 22.523 10.36C22.5104 10.2794 22.5119 10.215 22.5137 10.1347C22.5155 10.0544 22.5169 9.99011 22.5187 9.90977C22.5395 9.62086 22.6032 9.33289 22.6953 9.06158C22.7874 8.79027 22.8939 8.51928 23.0283 8.28102C23.2835 7.77207 23.6092 7.31278 23.9346 6.86963L24.1859 6.53749C24.2744 6.42685 24.363 6.31616 24.4221 6.23705C24.5415 6.03062 24.6475 5.7757 24.7389 5.53652C24.8159 5.29704 24.8934 5.04147 24.8844 4.80015C24.8869 4.68767 24.8608 4.57464 24.8185 4.54159C24.7909 4.49277 24.6915 4.44239 24.5772 4.42387C24.3492 4.35468 24.0771 4.33277 23.8051 4.31087C23.533 4.28898 23.261 4.26711 22.9746 4.24491C22.8316 4.22577 22.6886 4.20665 22.546 4.17144C22.4746 4.15384 22.389 4.13587 22.318 4.1022C22.2754 4.08521 22.2327 4.06824 22.1904 4.03518C22.1621 4.0185 22.1481 4.00214 22.1201 3.96939C22.1061 3.95302 22.0922 3.93668 22.0782 3.9203C21.8829 3.67499 21.7598 3.39901 21.6799 3.12402C21.52 2.57403 21.5043 1.99502 21.444 1.47931C21.4064 1.23737 21.3264 0.962348 21.2153 0.799215C21.1877 0.750398 21.1594 0.733717 21.1454 0.717342C21.1311 0.717035 21.1171 0.70066 21.0737 0.715808C21.0017 0.730342 20.8998 0.792448 20.798 0.854572C20.7543 0.885787 20.6959 0.932811 20.6518 0.980094C20.6077 1.02738 20.5784 1.05885 20.5346 1.09007C20.5049 1.13766 20.4609 1.185 20.4454 1.2329C20.4157 1.28049 20.386 1.32808 20.3702 1.39205C20.2792 1.61515 20.23 1.88734 20.1956 2.14381C20.1465 2.41604 20.1118 2.6886 20.0484 2.96053C19.985 3.23245 19.8778 3.53563 19.6427 3.7878C19.5251 3.91389 19.3946 3.97537 19.2634 4.06901C19.1329 4.13052 18.9879 4.20781 18.8438 4.23688C18.5549 4.32715 18.2391 4.33647 17.9531 4.2982C17.667 4.25992 17.3817 4.18953 17.1248 4.13581C16.8678 4.08208 16.6244 4.06075 16.4502 4.15347L16.392 4.18441C16.392 4.18441 16.3924 4.16834 16.392 4.18441C16.392 4.18441 16.3914 4.21652 16.3767 4.23228L16.3753 4.29653C16.3728 4.40901 16.4132 4.52242 16.4537 4.63581C16.5344 4.87867 16.6585 5.10642 16.8116 5.31867C16.8811 5.41662 16.9646 5.5309 17.0489 5.61308L17.3292 5.90849C17.5256 6.1056 17.7077 6.30235 17.8894 6.51522C18.2533 6.9249 18.6167 7.35068 18.9511 7.79188C19.1182 8.02051 19.2708 8.24882 19.4085 8.50897C19.4357 8.57386 19.4771 8.65511 19.4896 8.73575L19.5021 8.8164C19.5014 8.84853 19.5007 8.88068 19.5 8.91282C19.4845 8.96072 19.4834 9.0089 19.468 9.0568C19.3921 9.24808 19.2605 9.35779 19.1294 9.45144C18.853 9.62236 18.5788 9.69688 18.3046 9.77139C18.0304 9.8459 17.7569 9.88829 17.4834 9.93066L16.6631 10.0578C16.3896 10.1001 16.1161 10.1425 15.8849 10.218C15.8272 10.2328 15.7692 10.2637 15.7258 10.2788C15.7115 10.2785 15.7111 10.2946 15.6968 10.2943L15.682 10.31C15.682 10.31 15.6677 10.3097 15.682 10.31C15.682 10.31 15.6824 10.2939 15.682 10.31C15.6655 10.4061 15.6777 10.5029 15.7039 10.616C15.7853 10.8267 15.9384 11.0389 16.1062 11.2354C16.456 11.6287 16.8638 11.9911 17.2864 12.3378C17.6944 12.7002 18.1314 13.047 18.5246 13.4252C18.9322 13.8037 19.3247 14.214 19.6147 14.7185C19.6835 14.8486 19.7522 14.9787 19.8064 15.1245C19.8332 15.2055 19.8462 15.2701 19.8588 15.3507C19.871 15.4474 19.8684 15.5599 19.8233 15.6554C19.733 15.8463 19.6019 15.94 19.471 16.0175C19.3402 16.0951 19.2097 16.1567 19.0793 16.2182C18.5438 16.4318 18.01 16.565 17.4763 16.6982C17.2165 16.7731 16.9567 16.8479 16.6965 16.9388C16.5807 16.9845 16.4506 17.03 16.3632 17.0924C16.3341 17.1078 16.3337 17.124 16.3047 17.1394C16.3043 17.1555 16.2901 17.1551 16.2901 17.1551L16.2897 17.1712L16.2886 17.2195L16.2721 17.3155C16.261 17.8136 16.4507 18.316 16.6837 18.8033C17.1644 19.762 17.8185 20.6601 18.3566 21.6201C18.6326 22.1083 18.8799 22.5959 19.0541 23.1462C19.1341 23.4212 19.2141 23.6961 19.2363 23.986C19.2474 24.1309 19.2585 24.2758 19.2409 24.4201C19.2234 24.5644 19.1913 24.7245 19.1307 24.8679C19.0096 25.1546 18.7895 25.375 18.5418 25.5466C18.3085 25.7184 18.0476 25.8414 17.787 25.9483C17.5264 26.0553 17.2662 26.1461 17.02 26.2534C16.9042 26.2991 16.7736 26.3607 16.6862 26.4231C16.6425 26.4543 16.5988 26.4856 16.5694 26.5171C16.5543 26.5489 16.5396 26.5646 16.5378 26.645C16.469 27.1579 16.5723 27.6745 16.7476 28.1766C16.9373 28.679 17.185 29.1506 17.4614 29.6227C17.7234 30.0945 18.0142 30.5669 18.2758 31.0547C18.5375 31.5426 18.7845 32.0462 18.901 32.6114C18.9523 32.8858 18.9888 33.1759 18.9247 33.4799C18.8928 33.6239 18.8322 33.7673 18.729 33.8937C18.6258 34.0201 18.5089 34.1141 18.3781 34.1916C18.1164 34.3468 17.8423 34.4213 17.6248 34.5292C17.5087 34.591 17.4211 34.6534 17.3616 34.7486C17.3319 34.7962 17.3165 34.8441 17.3011 34.892L17.2681 35.0842C17.199 35.6132 17.2154 36.1601 17.3187 36.6768C17.422 37.1934 17.6257 37.7121 17.8734 38.1836C18.1207 38.6712 18.4264 39.1118 18.7465 39.5526C18.9139 39.7652 19.0809 39.9938 19.2483 40.2064L19.4994 40.5333C19.5542 40.647 19.595 40.7444 19.6502 40.842ZM19.6743 41.0515C19.5617 40.9526 19.4356 40.8213 19.3237 40.6903L19.0584 40.3631C18.891 40.1505 18.7237 39.938 18.5566 39.7093C18.2222 39.2681 17.9168 38.8116 17.6554 38.3076C17.3938 37.8198 17.1905 37.2849 17.0733 36.7519C16.9564 36.2028 16.9402 35.6399 17.0101 35.0787C17.0259 35.0147 17.0277 34.9344 17.0434 34.8704C17.0596 34.7904 17.09 34.7106 17.1348 34.6312C17.224 34.4884 17.3696 34.3951 17.4861 34.3172C17.7473 34.1781 18.0071 34.1034 18.2251 33.9794C18.443 33.8555 18.605 33.666 18.6534 33.4259C18.7018 33.1858 18.6787 32.9281 18.6271 32.6698C18.5095 32.1529 18.2766 31.6656 18.0289 31.1941C17.7668 30.7223 17.4761 30.25 17.1997 29.7778C16.9234 29.3057 16.6616 28.8178 16.4584 28.283C16.2691 27.7645 16.1387 27.183 16.2232 26.6061L16.2243 26.5579C16.2247 26.5418 16.225 26.5258 16.24 26.4939C16.2554 26.446 16.2852 26.3985 16.3006 26.3506C16.3598 26.2715 16.4182 26.2245 16.4909 26.1778C16.6221 26.0841 16.7522 26.0387 16.8827 25.9772C17.1433 25.8703 17.4035 25.7794 17.6497 25.6721C17.8959 25.5649 18.1421 25.4576 18.3464 25.3012C18.5504 25.1609 18.7267 24.9718 18.8177 24.7487C18.8633 24.6371 18.8944 24.5252 18.8973 24.3967C18.8998 24.2842 18.9026 24.1557 18.8915 24.0108C18.8685 23.7531 18.8026 23.4944 18.7219 23.2516C18.5609 22.7498 18.3136 22.2622 18.0372 21.7901C17.4988 20.8462 16.8586 19.9645 16.3503 18.9569C16.2266 18.7131 16.1177 18.4536 16.0234 18.1783C15.9435 17.9033 15.8782 17.6125 15.8993 17.3075L15.9161 17.1954L15.9176 17.1311L15.9183 17.099C15.9186 17.0829 15.9334 17.0672 15.9338 17.0511C15.9495 16.9871 15.9936 16.9399 16.0233 16.8923C16.0527 16.8607 16.0965 16.8295 16.1258 16.798C16.2714 16.7046 16.4018 16.6431 16.5319 16.5976C16.8068 16.491 17.0666 16.4162 17.3404 16.3578C17.8745 16.2085 18.4083 16.0752 18.9004 15.8767C19.0162 15.831 19.1323 15.7692 19.2341 15.707C19.3359 15.6449 19.4237 15.5664 19.4538 15.5028C19.4688 15.471 19.4695 15.4388 19.4702 15.4067C19.4569 15.3582 19.4441 15.2936 19.4311 15.229C19.3906 15.1156 19.3358 15.0019 19.2666 14.8879C19.0038 14.4482 18.6254 14.0543 18.2318 13.6922C17.8382 13.3302 17.4159 12.9675 16.9933 12.6208C16.571 12.2581 16.1489 11.8954 15.7711 11.4694C15.5893 11.2565 15.4083 11.0115 15.3 10.7198C15.2459 10.574 15.2212 10.3966 15.2681 10.2208C15.2688 10.1886 15.2982 10.1572 15.3132 10.1254C15.3283 10.0935 15.3574 10.0781 15.3724 10.0462C15.4018 10.0147 15.4161 10.015 15.4308 9.99922C15.4454 9.98346 15.4745 9.96805 15.4889 9.96836C15.5616 9.92169 15.634 9.89107 15.7061 9.87654C15.995 9.78627 16.2684 9.74386 16.5419 9.70149L17.3624 9.57438C17.6358 9.53201 17.8953 9.47324 18.1548 9.41449C18.4147 9.33968 18.6601 9.26458 18.8637 9.14034C18.9655 9.07821 19.0247 8.99906 19.0548 8.9354C19.0552 8.91933 19.0555 8.90329 19.0702 8.88753C19.0702 8.88753 19.0702 8.88752 19.0706 8.87145C19.0709 8.85538 19.0709 8.85543 19.0713 8.83936C19.058 8.79085 19.0447 8.74227 19.0171 8.69346C18.9074 8.46605 18.7544 8.2538 18.587 8.04123C18.2665 7.61641 17.9173 7.19104 17.5531 6.79743C17.3711 6.60063 17.189 6.40381 16.9925 6.2067C16.8943 6.10815 16.8101 6.02592 16.6979 5.91099C16.6001 5.79637 16.5019 5.69787 16.4187 5.56749C16.252 5.32279 16.114 5.07866 16.02 4.78729C15.9659 4.64145 15.9262 4.49595 15.9298 4.33527C15.9316 4.25493 15.9337 4.15848 15.9792 4.04692C15.9943 4.0151 15.9946 3.99903 16.024 3.96751C16.0534 3.93598 16.0684 3.90415 16.0975 3.8887L16.2136 3.8269C16.2863 3.78023 16.3727 3.76599 16.4595 3.73569C16.5458 3.72147 16.6322 3.70729 16.7039 3.70882C16.79 3.71066 16.8616 3.71221 16.9329 3.72981C17.0046 3.73135 17.0759 3.7489 17.1473 3.7665C17.4329 3.82084 17.6896 3.89069 17.9474 3.91228C18.2051 3.93387 18.4491 3.92295 18.6799 3.86359C18.7953 3.83391 18.9114 3.77211 19.0129 3.72605C19.1147 3.66393 19.2311 3.58607 19.3043 3.52334C19.4509 3.38179 19.5422 3.14262 19.6053 2.88676C19.6684 2.6309 19.7027 2.37443 19.7378 2.08582C19.7869 1.81359 19.8365 1.52526 19.9429 1.25425C19.973 1.19059 20.0034 1.1109 20.0478 1.04755C20.0779 0.983888 20.1368 0.920798 20.1816 0.841379C20.2403 0.778335 20.2991 0.715354 20.3576 0.668378C20.416 0.621402 20.4744 0.574363 20.5329 0.527387C20.6637 0.449809 20.7805 0.355871 20.9823 0.311963C21.083 0.298043 21.2116 0.316919 21.3109 0.36727C21.4102 0.417621 21.4801 0.499448 21.5217 0.56464C21.6188 0.711398 21.673 0.857269 21.7128 1.0028C21.7526 1.14833 21.7927 1.27775 21.8178 1.43904C21.8544 1.72918 21.8774 1.9869 21.9 2.26066C21.9373 2.51867 21.9742 2.79279 22.0405 3.03534C22.1068 3.27789 22.2165 3.5053 22.3703 3.68542C22.3843 3.7018 22.384 3.71782 22.3983 3.71812C22.3983 3.71812 22.3983 3.71812 22.4126 3.71843C22.4269 3.71874 22.4409 3.73514 22.4549 3.75152C22.4975 3.76851 22.5546 3.78577 22.6116 3.80307C22.7259 3.82159 22.8688 3.84077 22.9975 3.8596C23.2695 3.8815 23.5416 3.90336 23.8137 3.92526C24.0857 3.94716 24.3721 3.96939 24.6714 4.05618C24.7427 4.07378 24.8281 4.10776 24.8991 4.14143C24.9701 4.1751 25.0689 4.24145 25.1245 4.32302C25.2496 4.50253 25.2743 4.67992 25.2707 4.84059C25.2779 5.16226 25.1858 5.43356 25.108 5.70517C25.0159 5.97649 24.9099 6.23143 24.7604 6.50151C24.6712 6.64428 24.5831 6.73888 24.4945 6.84951L24.2436 7.16565C23.9185 7.59274 23.6218 8.0365 23.3817 8.51363C23.2616 8.75219 23.1559 8.99106 23.0789 9.23054C23.0015 9.4861 22.9531 9.72615 22.9187 9.98262C22.9173 10.0469 22.9158 10.1112 22.9144 10.1755C22.913 10.2397 22.9115 10.304 22.9244 10.3686C22.923 10.4329 22.936 10.4974 22.9345 10.5617C22.9478 10.6102 22.961 10.6587 22.9743 10.7072C23.0421 10.8855 23.2117 11.0017 23.4536 11.0872C23.6955 11.1728 23.9672 11.2107 24.279 11.3781C24.3497 11.4279 24.4203 11.4776 24.4902 11.5595C24.5457 11.6411 24.6013 11.7227 24.6278 11.8197C24.6812 11.9977 24.663 12.1741 24.6454 12.3184C24.5749 12.9117 24.3046 13.4525 24.0072 13.9284C23.7097 14.4043 23.3843 14.8474 23.1158 15.3078C22.8474 15.7683 22.6215 16.2457 22.5244 16.742L22.4915 16.9342C22.49 16.9985 22.4886 17.0627 22.4729 17.1267L22.4543 17.3192C22.4529 17.3835 22.4657 17.4481 22.4643 17.5124C22.4729 17.7698 22.5102 18.0278 22.6062 18.2227C22.7019 18.4337 22.8565 18.5817 23.0695 18.6827C23.2824 18.7837 23.5536 18.8378 23.8371 18.9885C23.9791 19.0559 24.1343 19.1717 24.2314 19.3185C24.3429 19.4656 24.3964 19.6435 24.4215 19.8048C24.4466 19.9661 24.4429 20.1268 24.4254 20.2711C24.4078 20.4154 24.376 20.5593 24.3585 20.7036C24.2312 21.2636 23.9897 21.805 23.7066 22.2812C23.4231 22.7735 23.112 23.2169 22.8149 23.6768C22.5178 24.1366 22.2493 24.597 22.0522 25.0751C22.0063 25.2027 21.9751 25.3146 21.9293 25.4422C21.8977 25.5701 21.8663 25.698 21.8347 25.826C21.8003 26.0825 21.7516 26.3386 21.7892 26.5806C21.8125 26.8222 21.8792 27.0487 22.0187 27.2285C22.1581 27.4083 22.3556 27.5572 22.5825 27.6746L22.9509 27.8754C23.0785 27.9424 23.2201 28.0258 23.3456 28.1893C23.4155 28.2711 23.456 28.3845 23.4679 28.4973L23.4668 28.5455L23.4661 28.5776L23.4646 28.6419L23.4618 28.7705C23.46 28.8508 23.4438 28.9308 23.4281 28.9948C23.4119 29.0748 23.3961 29.1388 23.3657 29.2185C23.1811 29.7772 22.8976 30.2695 22.6145 30.7457C22.3314 31.2219 22.0344 31.6817 21.7659 32.1421C21.6315 32.3804 21.4971 32.6187 21.3918 32.8415C21.286 33.0804 21.209 33.3198 21.1603 33.576C21.1115 33.8321 21.1205 34.0735 21.1581 34.3154C21.1958 34.5574 21.2908 34.8005 21.3858 35.0437C21.4951 35.2872 21.6041 35.5468 21.6983 35.8221C21.7926 36.0974 21.8579 36.3881 21.8802 36.6779C21.91 37.2733 21.7393 37.8484 21.5128 38.358C21.2719 38.8672 20.9746 39.3432 20.6631 39.8027C20.5148 40.0246 20.352 40.2461 20.1889 40.4838L19.952 40.8163L19.8187 41.0064C19.7918 40.9254 19.7187 40.9881 19.6743 41.0515Z" fill="#07453A"/>
<path d="M15.7316 38.2683C15.7154 38.204 15.6992 38.1719 15.6992 38.1397C15.6992 38.1236 15.6992 38.0915 15.6992 38.0594L15.6992 37.963L15.7153 37.5612L15.7477 36.7737C15.7639 36.2434 15.7964 35.7131 15.8449 35.1827C15.8773 34.9095 15.9096 34.6524 15.9581 34.3792C16.0067 34.106 16.0876 33.8489 16.1523 33.5918C16.298 33.0936 16.4274 32.5794 16.4436 32.0812C16.4436 31.8401 16.4274 31.583 16.3627 31.3741C16.298 31.1812 16.1524 31.0687 15.942 31.0044C15.7316 30.9401 15.4727 30.924 15.1976 30.908C14.9225 30.8919 14.6472 30.8758 14.3397 30.7473C14.194 30.683 14.0484 30.5866 13.9351 30.4419C13.8218 30.3134 13.7571 30.1527 13.7247 30.0081C13.6438 29.7027 13.66 29.4134 13.6762 29.1402C13.7248 28.5777 13.8704 28.0474 14.0808 27.5492C14.275 27.0511 14.5177 26.5689 14.7443 26.0868C14.9709 25.6047 15.2137 25.1387 15.3755 24.6726C15.5374 24.1905 15.6183 23.6924 15.505 23.2585C15.4403 23.0335 15.327 22.8406 15.1813 22.712C15.0195 22.5834 14.8091 22.5031 14.5663 22.4709C14.097 22.4227 13.5629 22.5192 13.1098 22.6638C12.9965 22.712 12.867 22.7602 12.7213 22.8084C12.5756 22.8566 12.43 22.8888 12.2358 22.8727C12.1387 22.8566 12.0416 22.8245 11.9445 22.7603C11.8474 22.696 11.7988 22.6317 11.7502 22.5674C11.6531 22.4388 11.5885 22.2782 11.5562 22.1335C11.4752 21.8443 11.4752 21.5549 11.4914 21.2656C11.5076 20.9925 11.5561 20.7193 11.6047 20.4461C11.718 19.9158 11.8637 19.4176 11.9608 18.9033C12.0579 18.4051 12.1225 17.8908 12.0578 17.4087C12.0254 17.1677 11.9607 16.9266 11.8636 16.7177C11.7665 16.5088 11.6208 16.3481 11.4266 16.2517C11.2324 16.1553 10.9897 16.1071 10.747 16.091C10.488 16.0749 10.229 16.0749 9.95388 16.0427C9.80822 16.0267 9.66253 16.0106 9.51688 15.9624C9.37122 15.9142 9.20935 15.8339 9.07988 15.7053C8.9504 15.5767 8.86948 15.416 8.83712 15.2714C8.80475 15.1267 8.77238 14.9982 8.75619 14.8535C8.67527 14.2911 8.77244 13.7286 8.90191 13.1983C9.04757 12.668 9.25793 12.1698 9.43596 11.6877C9.63017 11.1895 9.80816 10.7073 9.88908 10.2092C9.98618 9.72704 9.98625 9.19668 9.87296 8.73063C9.84059 8.61814 9.80819 8.50565 9.75964 8.40922C9.71109 8.3128 9.64641 8.21644 9.58168 8.15216C9.43602 8.00752 9.2256 7.95927 8.98283 7.94319C8.74007 7.92712 8.46501 7.9593 8.15751 7.89501C8.07659 7.87894 7.99561 7.84682 7.93087 7.83075C7.84995 7.79861 7.78524 7.75035 7.72051 7.70214C7.65577 7.63785 7.59094 7.58963 7.54239 7.52534C7.49384 7.46106 7.44532 7.39683 7.41295 7.33255C7.154 6.81829 7.0569 6.25582 7.00835 5.72549C6.95979 5.19516 6.92746 4.68089 6.79798 4.18271C6.73325 3.94165 6.63611 3.71669 6.52282 3.4917C6.39335 3.28279 6.24773 3.07385 6.0697 2.91315C5.72984 2.57567 5.27662 2.30245 4.87202 2.4953C4.64544 2.57565 4.45123 2.7042 4.30557 2.88098C4.15992 3.05775 4.06284 3.26665 4.01429 3.50771C3.91719 3.97376 3.94965 4.50413 4.03057 5.00232C4.11149 5.51658 4.24087 6.03085 4.33797 6.54511C4.38653 6.80223 4.45132 7.07543 4.48369 7.34863C4.51606 7.62183 4.51609 7.92716 4.43517 8.21642C4.38662 8.36106 4.32176 8.50571 4.22465 8.63427C4.12755 8.76284 4.01426 8.85926 3.90097 8.95569C3.65821 9.13246 3.38311 9.22884 3.12417 9.30919C2.59009 9.46989 2.05602 9.51815 1.58668 9.67886C1.34392 9.75921 1.13349 9.87166 0.987837 10.0324C0.858364 10.1931 0.793755 10.402 0.793755 10.6431C0.809939 11.1252 0.971685 11.6073 1.263 12.0251C1.55431 12.4269 1.92658 12.7804 2.34736 13.0858C2.76815 13.3911 3.22133 13.6643 3.67449 13.9215C4.12764 14.1947 4.59689 14.4679 5.03386 14.8053C5.24425 14.966 5.45477 15.1589 5.64898 15.3517C5.84319 15.5606 6.02121 15.7695 6.1345 16.0427C6.19924 16.1713 6.23148 16.332 6.24766 16.4767C6.24766 16.6213 6.26391 16.766 6.23154 16.9106C6.19917 17.1999 6.1021 17.473 5.94026 17.7301C5.63276 18.2283 5.16333 18.5659 4.71018 18.8391C4.4836 18.9837 4.24087 19.1123 4.01429 19.2408C3.78771 19.3694 3.5288 19.4819 3.31841 19.6104C3.09183 19.739 2.89756 19.8836 2.76809 20.0604C2.63861 20.2371 2.60628 20.4622 2.63864 20.6872C2.70338 21.1693 2.99479 21.5871 3.38321 21.9085C3.77163 22.2299 4.24084 22.471 4.71018 22.696C5.66504 23.1299 6.68476 23.4995 7.59107 24.1263C8.04422 24.4316 8.44879 24.8012 8.77247 25.2673C8.85339 25.3798 8.93422 25.4922 8.99896 25.6208L9.09616 25.7976C9.12852 25.8619 9.16083 25.9262 9.1932 25.9904C9.24175 26.1351 9.27418 26.2958 9.258 26.4404C9.24181 26.6011 9.1932 26.7458 9.11228 26.8743C9.03136 27.0029 8.93428 27.1153 8.82099 27.2117C8.72389 27.3082 8.6106 27.3885 8.49731 27.4689C8.27074 27.6296 8.04413 27.7582 7.81755 27.9028C7.59097 28.0475 7.38061 28.1921 7.20259 28.3528C7.02456 28.5135 6.89509 28.7224 6.8789 28.9313C6.8789 29.0278 6.89506 29.1563 6.92743 29.2688C6.95979 29.3813 7.00831 29.4938 7.05687 29.6063C7.17016 29.8152 7.34818 29.992 7.54239 30.1366C7.94699 30.4259 8.44873 30.6026 8.95043 30.7634C9.45214 30.9241 9.9701 31.0687 10.4718 31.3097C10.7146 31.4222 10.9573 31.583 11.1677 31.7758C11.3781 31.9687 11.5399 32.2097 11.6208 32.499C11.6532 32.6437 11.6532 32.8043 11.6208 32.949C11.5884 33.0936 11.54 33.2222 11.4752 33.3507C11.3458 33.5918 11.1676 33.8168 11.022 34.0257C10.8763 34.2346 10.7307 34.4435 10.6336 34.6845C10.5527 34.9095 10.5204 35.1507 10.5851 35.3917C10.6984 35.8899 11.0058 36.3077 11.4104 36.6291C11.815 36.9505 12.2844 37.1755 12.7861 37.3523C13.2878 37.529 13.7896 37.6737 14.3075 37.8023C14.5664 37.8666 14.8253 37.9469 15.0843 38.0112C15.2137 38.0433 15.3431 38.0916 15.4726 38.1237L15.6668 38.188C15.6992 38.204 15.6992 38.204 15.7153 38.2201L15.7316 38.2683ZM15.8449 38.4451C15.7964 38.4451 15.7478 38.429 15.6992 38.429C15.6507 38.413 15.586 38.3968 15.5698 38.3808L15.3917 38.3165C15.2622 38.2683 15.1489 38.2362 15.0195 38.2041C14.7605 38.1237 14.5015 38.0594 14.2588 37.9951C13.7409 37.8665 13.223 37.7219 12.7213 37.5451C12.2196 37.3684 11.718 37.1434 11.281 36.8059C10.844 36.4684 10.5041 35.9863 10.3746 35.456C10.3422 35.3274 10.3099 35.1667 10.3261 35.022C10.3423 34.8774 10.3747 34.7328 10.4233 34.6042C10.5204 34.331 10.6822 34.106 10.8279 33.8971C10.9897 33.6721 11.1353 33.4793 11.2647 33.2543C11.378 33.0293 11.4428 32.8044 11.378 32.5794C11.3295 32.3544 11.1677 32.1454 11.0058 31.9847C10.8278 31.808 10.6174 31.6794 10.3746 31.5669C9.90526 31.3419 9.40368 31.2134 8.88579 31.0527C8.38409 30.892 7.84998 30.7152 7.39683 30.3938C7.17025 30.2331 6.95976 30.0242 6.81411 29.767C6.73318 29.6385 6.68463 29.5099 6.65226 29.3653C6.6199 29.2206 6.58762 29.092 6.58762 28.9313C6.58762 28.7706 6.63614 28.626 6.71706 28.4814C6.79798 28.3528 6.89512 28.2403 6.99222 28.1439C7.20262 27.951 7.42913 27.7903 7.65571 27.6457C7.88229 27.501 8.10896 27.3564 8.31935 27.2117C8.52974 27.0671 8.72383 26.9065 8.83712 26.6975C8.90185 26.6011 8.93431 26.5047 8.93431 26.3922C8.93431 26.2797 8.91816 26.1833 8.88579 26.0708C8.86961 26.0226 8.83724 25.9583 8.80487 25.9101L8.70767 25.7494C8.64294 25.6369 8.56205 25.5405 8.49731 25.428C8.206 25.0101 7.81761 24.6727 7.39683 24.3834C6.53907 23.8049 5.53566 23.4352 4.56461 23.0013C4.07909 22.7763 3.59354 22.5192 3.15657 22.1656C2.94617 21.9888 2.75196 21.7799 2.59012 21.5389C2.42828 21.2978 2.33112 21.0246 2.28256 20.7354C2.2502 20.5907 2.2502 20.43 2.28256 20.2854C2.31493 20.1247 2.37976 19.98 2.46068 19.8515C2.63871 19.5943 2.88141 19.4336 3.12417 19.289C3.36693 19.1444 3.59357 19.0319 3.83633 18.9033C4.06291 18.7748 4.3057 18.6462 4.51609 18.5177C4.95306 18.2445 5.37375 17.923 5.6327 17.5212C5.76217 17.3123 5.84316 17.0873 5.85934 16.8463C5.87552 16.7338 5.87546 16.6052 5.87546 16.4927C5.85928 16.3803 5.84316 16.2838 5.77842 16.1713C5.68131 15.9624 5.51938 15.7535 5.35754 15.5767C5.17951 15.3999 4.9853 15.2232 4.7911 15.0625C4.38649 14.7411 3.9334 14.4839 3.48025 14.2107C3.02709 13.9375 2.55769 13.6643 2.12072 13.3429C1.68375 13.0215 1.263 12.6518 0.939316 12.1858C0.615635 11.7198 0.437642 11.1734 0.405273 10.5948C0.405273 10.3056 0.486162 9.9681 0.696555 9.72704C0.906948 9.48598 1.18211 9.35743 1.45724 9.26101C1.99131 9.08423 2.52532 9.01997 3.01085 8.87533C3.49637 8.74677 3.94952 8.48962 4.06281 8.05572C4.12755 7.83073 4.12758 7.60576 4.09521 7.34863C4.06284 7.0915 4.01432 6.85041 3.96577 6.59329C3.85248 6.07903 3.72301 5.56474 3.64209 5.03441C3.56117 4.50408 3.51268 3.94165 3.62597 3.37918C3.6907 3.10598 3.8039 2.81673 4.01429 2.59174C4.2085 2.36675 4.46745 2.18996 4.74257 2.09354C4.77494 2.07747 4.80741 2.06136 4.83977 2.06136L4.95294 2.02927C5.03386 2.0132 5.11478 2.01318 5.1957 2.01318C5.35754 2.01318 5.51951 2.06141 5.64898 2.10962C5.92411 2.22212 6.16677 2.41498 6.36098 2.60782C6.55519 2.81674 6.73325 3.02561 6.8789 3.28274C7.02456 3.53987 7.12167 3.79698 7.20259 4.07018C7.34824 4.61658 7.38067 5.14697 7.42923 5.66123C7.47778 6.17548 7.57485 6.68974 7.80143 7.10757C7.91472 7.31649 8.02797 7.42895 8.25455 7.47716C8.46494 7.52538 8.74011 7.50927 9.01523 7.52534C9.16089 7.54142 9.30652 7.55749 9.46836 7.6057L9.58168 7.63787L9.695 7.70214C9.77592 7.73428 9.82434 7.79854 9.88908 7.84676C10.0024 7.95925 10.0995 8.08788 10.1642 8.23251C10.2452 8.36108 10.2776 8.50565 10.31 8.65028C10.3747 8.92348 10.407 9.21278 10.407 9.48598C10.407 9.63062 10.4071 9.7592 10.3909 9.90383C10.3747 10.0485 10.3584 10.177 10.3261 10.3217C10.229 10.8681 10.0348 11.3823 9.84056 11.8644C9.64635 12.3626 9.45211 12.8447 9.32264 13.3429C9.19316 13.8411 9.11234 14.3393 9.17708 14.8214C9.19326 14.9339 9.22563 15.0624 9.258 15.1749C9.29036 15.2714 9.33882 15.3517 9.40356 15.416C9.53303 15.5446 9.74345 15.5928 10.0024 15.625C10.2452 15.641 10.5204 15.641 10.7955 15.6571C11.0706 15.6731 11.3781 15.7214 11.6532 15.866C11.9283 16.0106 12.1711 16.2516 12.3006 16.5248C12.43 16.798 12.4948 17.0713 12.5433 17.3605C12.5757 17.6337 12.5756 17.923 12.5595 18.1962C12.5433 18.4694 12.4948 18.7426 12.4463 18.9998C12.3492 19.5301 12.2035 20.0443 12.0902 20.5425C12.0417 20.7996 11.9931 21.0407 11.9769 21.2978C11.9607 21.5389 11.9607 21.796 12.0254 22.0049C12.0578 22.1174 12.0901 22.2139 12.1549 22.2942C12.2196 22.3906 12.2358 22.3906 12.3167 22.4067C12.3814 22.4227 12.4948 22.3906 12.6081 22.3585C12.7214 22.3264 12.8346 22.2782 12.9641 22.2139C13.1097 22.1657 13.2392 22.1335 13.3687 22.0853C13.4981 22.0531 13.6438 22.021 13.7733 22.0049C14.0484 21.9567 14.3398 21.9406 14.6311 21.9888C14.9225 22.021 15.2299 22.1174 15.4889 22.3263C15.5536 22.3745 15.6183 22.4227 15.6668 22.487C15.6992 22.5192 15.7154 22.5513 15.7477 22.5835L15.8125 22.6799C15.8935 22.8085 15.942 22.9531 15.9905 23.0978C16.0714 23.387 16.0715 23.6923 16.0553 23.9655C16.0229 24.2548 15.9581 24.528 15.8772 24.7852C15.6992 25.3155 15.4564 25.7976 15.2298 26.2636C15.0032 26.7457 14.7605 27.2117 14.5825 27.6939C14.4044 28.176 14.2588 28.6581 14.2103 29.1563C14.1941 29.4134 14.178 29.6545 14.2265 29.8634C14.2751 30.0723 14.3883 30.217 14.5825 30.2973C14.7767 30.3777 15.0196 30.4098 15.2785 30.4259C15.5374 30.4419 15.8125 30.458 16.12 30.5384C16.2656 30.5866 16.4275 30.6509 16.557 30.7634C16.6864 30.8758 16.7836 31.0366 16.8321 31.1812C16.9292 31.4705 16.9453 31.7597 16.9292 32.049C16.8968 32.6115 16.7351 33.1418 16.5732 33.64C16.4923 33.8971 16.4113 34.1382 16.3627 34.3792C16.3142 34.6363 16.2656 34.8935 16.2333 35.1507C16.1685 35.6649 16.12 36.1952 16.0714 36.7255L16.0068 37.513L15.9744 37.9147L15.9581 38.1237C15.8934 38.2683 15.8611 38.3648 15.8449 38.4451Z" fill="#07453A"/>
<path d="M65.8539 44.8579C66.2261 42.6402 66.7278 40.4385 67.2942 38.269C67.8606 36.0995 68.4756 33.93 69.1229 31.7765C69.4466 30.6998 69.7704 29.6231 70.1103 28.5464L70.6119 26.9393C70.7737 26.409 70.9517 25.8626 71.1459 25.3323C71.5344 24.2716 71.9714 23.227 72.4245 22.1985L73.088 20.6557L73.4117 19.8844C73.525 19.5951 73.6706 19.354 73.8163 19.1129C74.1076 18.6308 74.3828 18.1487 74.6418 17.6505C74.7712 17.4094 74.8845 17.1524 74.9655 16.9113C74.9816 16.847 75.014 16.7827 75.014 16.7345L75.0301 16.6381L75.0301 16.5577L75.0301 16.5095C75.0301 16.5256 75.0301 16.4774 75.0301 16.4935C74.9815 16.4774 75.4185 16.7988 75.2243 16.6542L75.2082 16.6542C75.192 16.6542 75.192 16.6542 75.1758 16.6542C75.1596 16.6702 75.1272 16.6703 75.111 16.6703C75.0786 16.6863 75.0625 16.7023 75.0301 16.7023C74.8197 16.8148 74.6093 17.0077 74.4151 17.1845C74.2209 17.3773 74.043 17.5863 73.865 17.7952C73.5089 18.213 73.169 18.663 72.8615 19.129C72.5379 19.579 72.2303 20.0611 71.939 20.5272C71.7934 20.7682 71.6477 21.0093 71.5344 21.2504C71.4697 21.3789 71.405 21.4914 71.3726 21.6039L71.2431 22.0056C70.8871 23.0663 70.5634 24.143 70.2721 25.2197C69.9808 26.2965 69.7218 27.3893 69.4466 28.4821L69.0583 30.1212C68.9288 30.6676 68.7831 31.2141 68.6698 31.7605C68.2167 33.9461 68.1682 36.212 67.6018 38.4136C67.5856 38.4619 67.537 38.494 67.4723 38.494C67.4238 38.4779 67.3914 38.4297 67.3914 38.3655C67.9255 36.1959 67.9416 33.9299 68.3786 31.7122C68.4918 31.1497 68.6213 30.6194 68.7507 30.057L69.1229 28.4177C69.3657 27.325 69.6247 26.2322 69.916 25.1394C70.2073 24.0466 70.5149 22.9699 70.8709 21.8932L71.0004 21.4914C71.0489 21.3468 71.1136 21.2182 71.1783 21.0896C71.3078 20.8325 71.4536 20.5914 71.5992 20.3504C71.8905 19.8683 72.1979 19.3862 72.5216 18.9201C72.8453 18.4541 73.1852 18.0041 73.5413 17.5541C73.7193 17.3291 73.9135 17.1202 74.1239 16.9113C74.3342 16.7024 74.5447 16.5095 74.836 16.3488C74.8684 16.3328 74.9168 16.3167 74.9492 16.3006L75.0788 16.2524L75.1597 16.2363L75.1919 16.2363L75.2082 16.2363C75.0302 16.0917 75.4671 16.4292 75.4186 16.4131C75.4186 16.4452 75.4185 16.4452 75.4347 16.4935L75.4347 16.5577C75.4347 16.6059 75.4347 16.638 75.4347 16.6863L75.4186 16.7988C75.4024 16.8791 75.3861 16.9434 75.3538 17.0238C75.2567 17.313 75.1434 17.5702 75.014 17.8273C74.755 18.3415 74.4638 18.8237 74.1887 19.3058C74.0592 19.5469 73.9134 19.7879 73.8163 20.029L73.4926 20.8164L72.8453 22.3753C72.4083 23.4038 71.9714 24.4323 71.5829 25.493C71.3887 26.0233 71.2269 26.5536 71.0489 27.0839L70.5473 28.691C70.2074 29.7677 69.8836 30.8284 69.5599 31.9051C68.9288 34.0585 68.3138 36.212 67.7473 38.3815C67.1809 40.551 66.6307 42.7205 66.0319 44.89C66.0157 44.9382 65.9672 44.9705 65.9024 44.9544C65.8701 44.9544 65.8377 44.9062 65.8539 44.8579Z" fill="#07453A"/>
<path d="M64.2514 46.1599C64.2191 45.1153 64.219 44.0706 64.3 43.0421L64.3324 42.6565L64.3809 42.2708L64.4618 41.4994C64.5427 40.9852 64.5913 40.4709 64.6884 39.9566C65.0283 37.8996 65.5137 35.8747 66.0478 33.8819C66.5819 31.8731 67.1807 29.8965 67.7472 27.9037C68.3136 25.911 68.8315 23.9183 69.2361 21.8934L69.5274 20.3827L69.5598 20.1899L69.5922 19.997L69.6408 19.6274L69.6732 19.4184C69.6893 19.3542 69.7056 19.2739 69.7056 19.2417C69.7056 19.2578 69.7056 19.2417 69.7056 19.2738C69.7217 19.306 69.7055 19.3221 69.8026 19.3863C69.8835 19.4346 69.9483 19.4185 69.9807 19.4024C69.9969 19.4024 69.9968 19.3863 70.013 19.3863L69.9968 19.4024L69.932 19.4667L69.7865 19.5952C69.3981 19.9327 69.0744 20.3184 68.7669 20.7202C68.4756 21.138 68.1842 21.5558 67.9414 22.0058C66.9704 23.8057 66.4848 25.8306 66.1611 27.8555C65.8375 29.8964 65.6918 31.9535 65.5623 34.0105C65.4328 36.0676 65.3357 38.1407 65.0282 40.1977C65.0121 40.2459 64.9635 40.2941 64.9149 40.278C64.8664 40.278 64.8178 40.2137 64.834 40.1655C65.1091 38.1246 65.174 36.0515 65.2873 33.9784C65.4006 31.9053 65.5138 29.8321 65.8213 27.7751C66.1288 25.7181 66.6144 23.6611 67.6016 21.7969C67.8444 21.3309 68.1357 20.8809 68.4432 20.447C68.7669 20.0292 69.1067 19.6113 69.5113 19.2577L69.657 19.1292L69.738 19.0649L69.7541 19.0488C69.7703 19.0328 69.7864 19.0167 69.8026 19.0167C69.8511 19.0006 69.9159 18.9685 70.013 19.0167C70.1101 19.097 70.094 19.1131 70.1102 19.1453C70.1263 19.1774 70.1101 19.1774 70.1263 19.1935C70.1263 19.2256 70.1263 19.2257 70.1263 19.2417C70.1101 19.3381 70.0939 19.4024 70.0939 19.4506L70.0939 19.4828L70.0939 19.531L70.0778 19.6274L70.0292 20.0131L70.013 20.206L69.9807 20.3988L69.6893 21.9255C69.3009 23.9664 68.783 25.9753 68.2166 27.9841C67.6501 29.9768 67.0674 31.9695 66.5333 33.9623C65.9993 35.955 65.53 37.9639 65.1901 40.0048C64.834 42.0297 64.6237 44.0868 64.4781 46.1438C64.4781 46.192 64.4295 46.2402 64.3648 46.2402C64.3 46.2563 64.2514 46.2081 64.2514 46.1599Z" fill="#07453A"/>
<path d="M62.7464 46.5124C62.5036 44.1822 62.3741 41.8359 62.3094 39.4896C62.2446 37.1433 62.2285 34.797 62.2933 32.4507C62.3742 30.1044 62.5198 27.7742 62.5845 25.4279C62.6169 24.2548 62.6331 23.0976 62.5845 21.9245C62.536 20.7674 62.4389 19.5943 62.2933 18.4533C62.2123 17.8747 62.1151 17.3123 62.0018 16.7338C61.8723 16.1713 61.7268 15.6088 61.484 15.0945C61.3708 14.8374 61.2251 14.5964 61.047 14.4035C61.0309 14.3714 60.9984 14.3553 60.9822 14.3393L60.9498 14.3071L60.9337 14.291L60.9176 14.291C61.0309 14.2428 60.6424 14.3714 61.2089 14.2267C61.2413 14.1785 61.2088 14.2106 61.225 14.1946L61.225 14.2106L61.225 14.2267L61.2089 14.2749L61.1765 14.3714L61.0632 14.7892C60.9822 15.0785 60.9176 15.3516 60.8367 15.6409L60.788 15.8499C60.788 15.882 60.7719 15.9142 60.7719 15.9463L60.7558 16.0588C60.7396 16.2034 60.7234 16.3481 60.7234 16.4927C60.6424 17.6337 60.7881 18.7908 60.9337 19.9639C60.9985 20.5425 61.0794 21.121 61.128 21.7156L61.2735 23.4673C61.6943 28.1277 62.3093 32.7721 62.6007 37.4486C62.6007 37.4969 62.5684 37.5451 62.5036 37.5612C62.4551 37.5612 62.4065 37.529 62.3903 37.4647C62.0504 32.8043 61.3708 28.1599 60.9176 23.4995L60.7558 21.7477C60.7072 21.1692 60.6262 20.5907 60.5452 20.0121C60.3996 18.855 60.2378 17.6658 60.3188 16.4766C60.3188 16.332 60.335 16.1713 60.3512 16.0267L60.3673 15.9141C60.3673 15.8659 60.3834 15.8177 60.3834 15.7856L60.4321 15.5606C60.4968 15.2713 60.5776 14.982 60.6586 14.7088L60.7719 14.2749L60.8043 14.1625L60.8204 14.1142L60.8367 14.0821L60.8367 14.066C60.8529 14.05 60.8366 14.0821 60.8528 14.0178C61.4192 13.8571 61.0632 14.0017 61.1765 13.9696L61.1926 13.9857L61.2089 14.0018L61.2574 14.0499C61.2898 14.0821 61.3221 14.0982 61.3544 14.1303C61.581 14.3714 61.7267 14.6445 61.8724 14.9177C62.1313 15.4802 62.2932 16.0588 62.4227 16.6212C62.5522 17.1998 62.6492 17.7783 62.7301 18.3729C62.8919 19.546 62.9891 20.7193 63.0377 21.8924C63.0862 23.0656 63.07 24.2387 63.0538 25.4118C62.9891 27.7581 62.8435 30.0883 62.7788 32.4346C62.714 34.7648 62.7301 37.1111 62.811 39.4414C62.8758 41.7716 62.9729 44.1179 62.9729 46.4642C62.9729 46.5124 62.9244 46.5607 62.8758 46.5607C62.7949 46.6089 62.7464 46.5606 62.7464 46.5124Z" fill="#07453A"/>
<path d="M63.5877 45.0501C63.5391 44.7447 63.4905 44.4394 63.4581 44.1341C63.4095 43.8288 63.3773 43.5234 63.3449 43.2181L63.264 42.3021C63.2317 41.9967 63.2316 41.6914 63.1992 41.3699C63.1183 40.1325 63.1182 38.8951 63.1344 37.6737C63.183 35.1989 63.3448 32.7401 63.539 30.2974C63.717 27.8386 63.9275 25.3959 64.0408 22.9371C64.0894 21.7157 64.1217 20.4783 64.2512 19.2409C64.3645 18.0034 64.5587 16.782 64.85 15.5767C65.1413 14.3714 65.5298 13.1822 66.0153 12.0412C66.1286 11.7519 66.258 11.4788 66.4036 11.1895C66.4684 11.0449 66.5494 10.9002 66.6303 10.7717C66.6627 10.7074 66.7112 10.627 66.7436 10.5628L66.7759 10.5145C66.7759 10.5145 66.7921 10.4985 66.7921 10.4824L66.8407 10.386C66.8568 10.3538 66.8731 10.3056 66.9055 10.2574C66.9216 10.2413 66.9216 10.2092 66.9864 10.161C67.0187 10.1449 67.0187 10.1288 67.0834 10.1127C67.1643 10.0967 67.2128 10.1128 67.2614 10.1449C67.3099 10.1931 67.31 10.2092 67.3262 10.2253C67.3424 10.2413 67.3423 10.2734 67.3423 10.2734L67.4232 10.4984C67.4394 10.5788 67.4718 10.6431 67.5041 10.7235L67.5528 10.9645C67.569 11.0449 67.5852 11.1252 67.6013 11.2056L67.6337 11.4466C67.6499 11.527 67.6498 11.6074 67.666 11.6877L67.6823 11.9288C67.7632 13.1983 67.5528 14.4357 67.3101 15.641L66.9216 17.4409C66.7921 18.0355 66.6788 18.6462 66.5655 19.2409C65.6592 24.0781 64.9794 28.9635 63.6523 33.7204C63.6362 33.7686 63.5876 33.8008 63.5229 33.7847C63.4743 33.7686 63.4419 33.7204 63.4581 33.6561C64.7367 28.8992 65.3679 24.0138 66.2257 19.1605C66.339 18.5498 66.436 17.9552 66.5655 17.3445L66.954 15.5446C67.1967 14.3393 67.391 13.1341 67.3101 11.9288L67.2938 11.7037C67.2938 11.6234 67.2776 11.5591 67.2614 11.4787L67.2291 11.2538C67.213 11.1734 67.1966 11.1092 67.1805 11.0449L67.1319 10.8359C67.1158 10.7716 67.0835 10.6913 67.0673 10.627L67.0025 10.4181C67.0025 10.402 67.0025 10.4181 67.0025 10.4342C67.0025 10.4342 67.0025 10.4503 67.051 10.4824C67.0834 10.4985 67.132 10.5306 67.1967 10.5145C67.2615 10.4984 67.2453 10.4985 67.2777 10.4824C67.31 10.4503 67.2938 10.4663 67.2938 10.4663C67.2776 10.4824 67.2614 10.5145 67.2453 10.5467L67.1967 10.6591C67.1806 10.6752 67.1805 10.7074 67.1643 10.7235L67.1319 10.7717C67.0996 10.8359 67.051 10.9002 67.0186 10.9645C66.9539 11.0931 66.873 11.2217 66.8083 11.3663C66.6788 11.6395 66.5493 11.9126 66.436 12.2019C65.9829 13.3269 65.5944 14.5 65.3193 15.6893C65.0441 16.8785 64.85 18.0838 64.7367 19.3051C64.6072 20.5265 64.5911 21.7478 64.5264 22.9853C64.4131 25.4441 64.2189 27.9028 64.0408 30.3616C63.8628 32.8204 63.7009 35.2632 63.6523 37.722C63.6362 38.9433 63.62 40.1808 63.6523 41.4021C63.6523 41.7075 63.6524 42.0127 63.6686 42.3181L63.7171 43.2341C63.7333 43.8448 63.798 44.4555 63.8142 45.0662C63.8142 45.1144 63.7657 45.1626 63.7171 45.1626C63.6362 45.1305 63.5877 45.0983 63.5877 45.0501Z" fill="#07453A"/>
<path d="M61.3218 45.3875C61.16 43.7323 61.079 42.077 60.9658 40.4378C60.8525 38.7826 60.6744 37.1434 60.3993 35.5202C60.1242 33.8971 59.7357 32.2901 59.2016 30.7312C58.6676 29.1885 57.8584 27.7421 56.855 26.4404C56.6122 26.119 56.3371 25.7976 56.0782 25.4762C55.9487 25.3154 55.803 25.1708 55.6736 25.0101L55.4632 24.7691C55.3823 24.6726 55.3337 24.5923 55.269 24.4958C55.2042 24.4155 55.1557 24.3351 55.091 24.2709C55.0748 24.2548 55.0586 24.2387 55.0586 24.2387C55.0586 24.2387 55.0748 24.2548 55.091 24.2548C55.1396 24.2708 55.188 24.2388 55.2042 24.2227C55.2204 24.2066 55.2366 24.1905 55.2366 24.1905C55.2366 24.1905 55.2366 24.1905 55.2366 24.1744C55.2366 24.1744 55.2366 24.1744 55.2366 24.1583L55.2366 24.1744L55.2366 24.2066C55.2204 24.303 55.1881 24.3833 55.1881 24.4797C55.1881 24.5762 55.1719 24.6726 55.1719 24.7691C55.1557 25.1548 55.2366 25.5565 55.3175 25.9422C55.4146 26.3279 55.544 26.7297 55.6897 27.0993C55.8353 27.485 55.9972 27.8546 56.1752 28.2242C56.5313 28.9635 56.9359 29.6867 57.3405 30.4098C58.1335 31.8723 58.9104 33.3507 59.5901 34.8613C60.2698 36.388 60.8363 37.963 61.2409 39.57C61.2571 39.6183 61.2247 39.6825 61.16 39.6986C61.1114 39.7146 61.0466 39.6825 61.0304 39.6343C60.5934 38.0433 60.0109 36.4845 59.315 34.9899C58.6191 33.4793 57.826 32.0329 57.0168 30.5866C56.2076 29.1563 55.35 27.6778 54.9292 26.0225C54.8321 25.6047 54.7511 25.1869 54.7673 24.7369C54.7673 24.6244 54.7835 24.5119 54.7835 24.3994C54.7996 24.2869 54.8321 24.1745 54.8483 24.062L54.8644 24.0137L54.8644 23.9976C54.8644 23.9816 54.8805 23.9655 54.8805 23.9495C54.8805 23.9334 54.8968 23.9173 54.8968 23.9013C54.913 23.8852 54.929 23.853 54.9614 23.8369C55.01 23.7887 55.0909 23.7727 55.1557 23.7887C55.2042 23.7887 55.2366 23.8209 55.269 23.8369C55.2852 23.853 55.3176 23.8691 55.3338 23.8852C55.3661 23.9173 55.3823 23.9334 55.4147 23.9655C55.4956 24.062 55.5603 24.1423 55.625 24.2387C55.6898 24.319 55.7383 24.4155 55.803 24.4797L56.0134 24.7048C56.159 24.8655 56.3048 25.0101 56.4342 25.1708C56.7094 25.4922 56.9683 25.8136 57.2434 26.1351C58.2792 27.4689 59.1208 28.9474 59.671 30.5384C60.2213 32.1133 60.6258 33.7525 60.901 35.3917C61.1923 37.0309 61.3704 38.6861 61.4837 40.3575C61.516 40.7753 61.5322 41.1931 61.5646 41.5949C61.5808 42.0127 61.5968 42.4306 61.5968 42.8484C61.613 43.6841 61.597 44.5037 61.5646 45.3394C61.5646 45.3876 61.516 45.4358 61.4513 45.4358C61.3704 45.484 61.3218 45.4357 61.3218 45.3875Z" fill="#07453A"/>
<path d="M9.3391 49.02C9.75989 49.0522 10.1807 49.1004 10.5853 49.1646C11.0061 49.2289 11.4106 49.2932 11.8152 49.3736L13.0451 49.5986L14.2752 49.7914C15.926 50.0485 17.5768 50.2414 19.2437 50.4021C20.8945 50.5628 22.5614 50.6753 24.2283 50.7556C25.8953 50.836 27.5621 50.8681 29.2291 50.8842C29.2776 50.8842 29.3263 50.9324 29.3263 50.9807C29.3263 51.0289 29.2776 51.077 29.2291 51.077C27.5621 51.1252 25.879 51.1252 24.2121 51.0931C22.5451 51.0449 20.862 50.9645 19.195 50.836C17.5281 50.6913 15.8612 50.4985 14.2104 50.2575L12.9642 50.0646L11.7182 49.8557C11.3136 49.7754 10.8927 49.695 10.4881 49.5986C10.0835 49.4861 9.6789 49.3735 9.2743 49.2289C9.22575 49.2128 9.19348 49.1486 9.20966 49.1004C9.25821 49.0361 9.29055 49.02 9.3391 49.02Z" fill="#07453A"/>
<path d="M5.51966 52.2827C6.50688 52.7969 7.49414 53.2469 8.5461 53.6005C9.58188 53.954 10.6663 54.1951 11.7668 54.3718C13.9516 54.7093 16.185 54.7575 18.4346 54.87C20.668 54.9825 22.9014 55.2397 25.1186 55.4325C27.3358 55.6254 29.5692 55.7379 31.7864 55.529C31.835 55.529 31.8834 55.5611 31.8996 55.6254C31.8996 55.6736 31.8672 55.7218 31.8187 55.7378C29.5853 55.995 27.3357 55.9307 25.1023 55.7861C22.8689 55.6254 20.6517 55.4004 18.4183 55.3201C16.185 55.2236 13.9354 55.1754 11.702 54.8379C10.5853 54.6772 9.46868 54.4201 8.40054 54.0665C7.33239 53.6969 6.29655 53.1826 5.42262 52.4595C5.37407 52.4273 5.37413 52.3631 5.4065 52.3148C5.42268 52.2827 5.48729 52.2666 5.51966 52.2827Z" fill="#07453A"/>
<path d="M3.09172 57.8428C4.33789 58.0035 5.58415 58.1802 6.83032 58.3892C8.07649 58.5981 9.32266 58.807 10.5526 59.0802C11.1676 59.2088 11.7987 59.3695 12.3975 59.5141C13.0125 59.6748 13.6114 59.8195 14.2264 59.9641C15.4564 60.2534 16.6864 60.5105 17.9164 60.7034C19.1625 60.8962 20.4086 61.0248 21.6548 61.073C22.901 61.1212 24.1634 61.089 25.4095 60.9926C27.918 60.8158 30.3943 60.3338 32.838 59.7391C32.8866 59.7231 32.9513 59.7552 32.9675 59.8195C32.9837 59.8677 32.9512 59.932 32.9027 59.948C30.4589 60.5909 27.9827 61.1212 25.458 61.3462C24.1957 61.4587 22.9333 61.4908 21.6548 61.4747C20.3924 61.4426 19.114 61.3301 17.8678 61.1372C16.6055 60.9444 15.3755 60.7033 14.1455 60.4141C13.5305 60.2694 12.9155 60.1248 12.3005 59.9641C11.6855 59.8034 11.0867 59.6587 10.4717 59.5302C9.24174 59.2731 7.99551 59.0642 6.76552 58.8553C5.51936 58.6463 4.27328 58.4053 3.05948 58.0196C3.01093 58.0035 2.9785 57.9392 2.99468 57.891C2.99468 57.8589 3.04317 57.8428 3.09172 57.8428Z" fill="#07453A"/>
<path d="M3.65861 62.407C4.90478 62.5516 6.11871 62.7766 7.34869 63.0498L10.9901 63.8534C13.4177 64.3837 15.8613 64.898 18.3051 65.2837C20.7489 65.6694 23.2252 65.9104 25.7175 65.9586C28.1937 66.0068 30.6859 65.8622 33.1459 65.5408C33.1944 65.5408 33.2592 65.5729 33.2592 65.6211C33.2592 65.6693 33.2268 65.7176 33.1783 65.7336C30.7183 66.1033 28.2099 66.3122 25.7175 66.3122C23.209 66.2961 20.7166 66.0872 18.2405 65.7176C15.7643 65.3479 13.3205 64.8498 10.8929 64.3195L7.25149 63.5159C6.6365 63.3874 6.03766 63.2427 5.43885 63.0981C4.84004 62.9535 4.22511 62.7927 3.64249 62.5999C3.59394 62.5838 3.56151 62.5196 3.57769 62.4714C3.57769 62.4231 3.62624 62.3909 3.65861 62.407Z" fill="#07453A"/>
<path d="M6.28012 69.2528C6.79801 69.4778 7.29968 69.7027 7.7852 69.9599C8.30309 70.1849 8.80486 70.4099 9.30656 70.6349L10.8602 71.2295L12.4463 71.7276C14.5826 72.3222 16.7836 72.6598 19.0169 72.8205C21.2342 72.9812 23.4675 72.9651 25.7009 72.8366C27.9343 72.708 30.1515 72.483 32.3687 72.1937C32.4173 72.1937 32.4821 72.2259 32.4821 72.2741C32.4821 72.3223 32.4497 72.3705 32.4011 72.3865C30.1839 72.724 27.9667 73.0133 25.7333 73.174C23.4999 73.3347 21.2504 73.3829 19.0008 73.2383C16.7513 73.0937 14.5178 72.7562 12.333 72.1616L10.7146 71.6634L9.1286 71.0527C8.61071 70.8116 8.10895 70.5706 7.60724 70.3134C7.12172 70.0242 6.65242 69.7188 6.18308 69.3974C6.13453 69.3653 6.13444 69.301 6.16681 69.2528C6.18299 69.2367 6.23157 69.2367 6.28012 69.2528Z" fill="#07453A"/>
<path d="M14.1461 77.6421C14.6963 77.6099 15.2465 77.6742 15.7806 77.7867C16.3146 77.8992 16.8488 78.0117 17.3828 78.1242C18.451 78.3652 19.5028 78.6063 20.5709 78.8152C21.6391 79.0241 22.7073 79.1848 23.7755 79.233C24.8598 79.2973 25.9279 79.233 27.0123 79.0884C27.0608 79.0723 27.1254 79.1205 27.1254 79.1688C27.1254 79.217 27.0931 79.2651 27.0445 79.2812C25.9764 79.5062 24.8598 79.6027 23.7755 79.5866C22.675 79.5705 21.5744 79.442 20.5063 79.2491C19.422 79.0563 18.3701 78.8152 17.3019 78.5902C16.7678 78.4777 16.2337 78.3652 15.6996 78.2688C15.4407 78.2206 15.1655 78.1563 14.9066 78.092C14.6476 78.0277 14.3887 77.9474 14.1298 77.8509C14.0812 77.8349 14.0489 77.7706 14.0651 77.7224C14.0813 77.6742 14.1137 77.6421 14.1461 77.6421Z" fill="#07453A"/>
<path d="M18.6774 84.6156C18.7907 84.5995 18.8877 84.5995 18.9848 84.6156C19.0819 84.6316 19.1629 84.6638 19.26 84.6959C19.438 84.7602 19.616 84.8245 19.794 84.8727C20.1501 84.9852 20.5224 85.0816 20.8784 85.1619C21.2506 85.2423 21.6229 85.2905 21.9952 85.3387C22.3674 85.3869 22.7558 85.403 23.1281 85.4352C23.1766 85.4352 23.2251 85.4833 23.2251 85.5476C23.2251 85.5958 23.1765 85.644 23.1442 85.644C22.7558 85.6923 22.3673 85.7083 21.9789 85.7083C21.5905 85.7083 21.2021 85.6602 20.7975 85.612C20.4091 85.5477 20.0207 85.4673 19.6485 85.3548C19.4543 85.2905 19.2762 85.2423 19.082 85.1619C18.904 85.0977 18.726 85.0013 18.5965 84.8084C18.5641 84.7602 18.564 84.6799 18.6287 84.6477C18.6449 84.6317 18.6612 84.6316 18.6774 84.6156Z" fill="#07453A"/>
<path d="M56.5962 46.3042C57.2273 46.3685 57.8261 46.5292 58.4249 46.706C59.0237 46.8827 59.6225 47.0595 60.2213 47.2363C61.4189 47.5737 62.6328 47.8791 63.8466 48.0559C65.0604 48.2487 66.3066 48.3291 67.5528 48.313C68.7989 48.297 70.0289 48.1844 71.2751 48.0559C71.3236 48.0559 71.3882 48.088 71.3882 48.1362C71.3882 48.1844 71.3559 48.2327 71.3073 48.2488C70.0773 48.4577 68.8151 48.6023 67.5689 48.6665C66.3065 48.7147 65.0442 48.6665 63.798 48.5058C62.5519 48.3291 61.3219 48.0237 60.1081 47.7023C59.5093 47.5416 58.8943 47.3649 58.2955 47.1881C57.6967 47.0113 57.0979 46.8024 56.5476 46.5131C56.4991 46.4809 56.4828 46.4327 56.499 46.3685C56.5152 46.3203 56.5476 46.3042 56.5962 46.3042Z" fill="#07453A"/>
<path d="M55.8683 48.104C56.2243 48.1522 56.5804 48.2326 56.9202 48.3291C57.2601 48.4255 57.616 48.5219 57.9559 48.6344L58.9756 48.9558L59.9952 49.2611C61.3708 49.6468 62.7465 49.9843 64.1545 50.2414C65.5463 50.5146 66.9704 50.6914 68.3946 50.7556C69.8188 50.836 71.243 50.7878 72.6672 50.6593C72.7157 50.6593 72.7643 50.6914 72.7805 50.7556C72.7805 50.8038 72.7481 50.8521 72.6996 50.8682C71.2754 51.0771 69.8349 51.1574 68.3946 51.1253C66.9542 51.0932 65.5138 50.9324 64.1058 50.6914C62.6816 50.4503 61.2898 50.1128 59.898 49.7271L58.8623 49.4379L57.8265 49.1326C57.1467 48.9237 56.4671 48.6665 55.8197 48.3291C55.7712 48.2969 55.7549 48.2486 55.7711 48.1844C55.7872 48.1201 55.8197 48.104 55.8683 48.104Z" fill="#07453A"/>
<path d="M53.1813 56.123C53.6182 56.0909 54.0553 56.107 54.4923 56.123C54.9292 56.1391 55.3662 56.1873 55.787 56.2355C56.6447 56.3319 57.5187 56.4444 58.3764 56.5408C60.0919 56.7497 61.8235 56.9747 63.539 57.1033C65.2545 57.2479 66.9862 57.3122 68.7179 57.2158C70.4334 57.1194 72.1489 56.8462 73.8158 56.348C73.8644 56.3319 73.9293 56.3641 73.9454 56.4123C73.9616 56.4605 73.9292 56.5247 73.8806 56.5408C72.2299 57.1194 70.4982 57.4248 68.7503 57.5694C67.0024 57.6979 65.2546 57.6658 63.5229 57.5533C61.7912 57.4247 60.0596 57.2158 58.3279 57.0229C57.4701 56.9265 56.5962 56.814 55.7385 56.7337C55.3015 56.6855 54.8807 56.6373 54.4437 56.573C54.0068 56.5087 53.5859 56.4444 53.1651 56.348C53.1166 56.3319 53.0842 56.2837 53.0842 56.2194C53.0842 56.1551 53.1327 56.123 53.1813 56.123Z" fill="#07453A"/>
<path d="M52.8091 59.3369C53.2623 59.3369 53.6992 59.3529 54.1524 59.3851C54.6055 59.4172 55.0425 59.4494 55.4795 59.4976L56.8066 59.6261L58.1338 59.7226C59.914 59.8351 61.6942 59.8672 63.4745 59.819C65.2547 59.7869 67.0349 59.6583 68.7989 59.4654C70.563 59.2726 72.3271 58.9994 74.0911 58.6941C74.1397 58.678 74.2045 58.7262 74.2045 58.7744C74.2207 58.8226 74.1721 58.8708 74.1235 58.8869C72.3757 59.2726 70.6116 59.578 68.8313 59.819C67.0511 60.044 65.2709 60.2047 63.4745 60.269C61.6781 60.3332 59.8816 60.3011 58.1014 60.2047L56.7581 60.1083L55.4149 59.9957C54.9617 59.9475 54.5247 59.8994 54.0877 59.819C53.6508 59.7387 53.1975 59.6583 52.7767 59.5458C52.7282 59.5297 52.6959 59.4815 52.7121 59.4173C52.7283 59.369 52.7606 59.3369 52.8091 59.3369Z" fill="#07453A"/>
<path d="M52.4854 66.1031C52.9709 66.1031 53.4402 66.1353 53.9096 66.1835C54.3789 66.2156 54.8483 66.2799 55.3176 66.3282L56.7257 66.5049L58.1337 66.6496C60.011 66.8424 61.9045 66.987 63.7818 67.0352C65.6754 67.0995 67.5527 67.0674 69.4462 66.9227C71.3236 66.7781 73.201 66.5049 75.046 66.0871C75.0945 66.071 75.1593 66.1032 75.1593 66.1675C75.1755 66.2157 75.1431 66.2799 75.0945 66.2799C73.2657 66.7781 71.3722 67.0835 69.4786 67.2763C67.5851 67.4531 65.6754 67.5173 63.7818 67.4852C61.8721 67.437 59.9787 67.3085 58.0852 67.1317L56.6609 66.987L55.253 66.8263C54.3143 66.7138 53.3755 66.5692 52.453 66.3121C52.4045 66.296 52.3722 66.2477 52.3884 66.1835C52.3884 66.1353 52.4369 66.1031 52.4854 66.1031Z" fill="#07453A"/>
<path d="M52.6313 68.7702C53.1168 68.7863 53.5861 68.8185 54.0716 68.8667C54.5571 68.8988 55.0266 68.9631 55.4959 69.0113L56.92 69.1559L58.3442 69.2845C60.2539 69.4291 62.1636 69.4774 64.0895 69.4613C65.9992 69.4452 67.9251 69.3488 69.8187 69.172C71.7284 68.9952 73.6218 68.7381 75.5153 68.4167C75.5638 68.4007 75.6286 68.4489 75.6286 68.4971C75.6448 68.5453 75.5962 68.5935 75.5477 68.6095C73.6703 68.9952 71.7606 69.3006 69.8509 69.5095C67.9412 69.7184 66.0154 69.8469 64.0895 69.8791C62.1636 69.9112 60.2377 69.863 58.3118 69.7345L56.8715 69.622L55.4311 69.4773C54.9456 69.413 54.4763 69.3488 54.0069 69.2684C53.5376 69.172 53.0682 69.0756 52.5989 68.947C52.5504 68.9309 52.5179 68.8828 52.5341 68.8185C52.5341 68.8024 52.5828 68.7702 52.6313 68.7702Z" fill="#07453A"/>
<path d="M53.3112 75.8734C54.2175 75.7609 55.1237 75.7126 56.0462 75.6644L58.7813 75.5519C60.6101 75.4716 62.4389 75.4233 64.2839 75.5037C66.1126 75.584 67.9252 75.6965 69.754 75.7608C71.5666 75.8251 73.3954 75.8251 75.208 75.6644C75.2566 75.6644 75.3052 75.6965 75.3214 75.7608C75.3214 75.809 75.289 75.8573 75.2404 75.8734C73.4278 76.0983 71.5828 76.1305 69.754 76.1144C67.9252 76.0823 66.0965 75.9858 64.2839 75.9376C62.4713 75.8733 60.6424 75.9215 58.8298 76.018L56.0947 76.1465C55.1884 76.1786 54.2659 76.1786 53.3434 76.0661C53.2949 76.0661 53.2463 76.0019 53.2625 75.9537C53.2301 75.9055 53.2788 75.8734 53.3112 75.8734Z" fill="#07453A"/>
<path d="M53.7159 78.4132C54.1529 78.381 54.5898 78.381 55.0268 78.3971C55.4637 78.4132 55.9006 78.4293 56.3376 78.4614C57.2115 78.5257 58.0855 78.5739 58.9594 78.6221C60.7073 78.7186 62.4552 78.7668 64.2031 78.7828C65.951 78.815 67.6987 78.7828 69.4466 78.7025C71.1945 78.6221 72.9424 78.4935 74.6741 78.2686C74.7227 78.2686 74.7873 78.3007 74.7873 78.3489C74.7873 78.3971 74.7549 78.4454 74.7064 78.4614C72.9747 78.7507 71.2269 78.9274 69.479 79.0399C67.7311 79.1524 65.9671 79.2006 64.2192 79.2006C62.4713 79.2006 60.7073 79.1524 58.9594 79.0721C58.0855 79.0239 57.2115 78.9917 56.3376 78.9275C55.4637 78.8632 54.5899 78.7828 53.7159 78.606C53.6674 78.59 53.6188 78.5417 53.635 78.4935C53.6188 78.4614 53.6674 78.4292 53.7159 78.4132Z" fill="#07453A"/>
<path d="M56.9199 84.1822C57.5025 84.0536 58.0851 84.0215 58.6839 84.0215L60.448 84.0215L63.9761 84.0537C65.1575 84.0697 66.3227 84.0858 67.5041 84.1018C68.6694 84.1179 69.8508 84.1179 71.0161 84.1018C71.0646 84.1018 71.1133 84.1501 71.1133 84.1983C71.1133 84.2465 71.0646 84.2947 71.0161 84.2947C69.8347 84.3751 68.6694 84.4072 67.488 84.4393C66.3066 84.4554 65.1414 84.4715 63.9599 84.4876L60.4319 84.4876L58.6677 84.5036C58.3764 84.5036 58.0851 84.5036 57.7937 84.4876C57.5024 84.4715 57.2112 84.4394 56.9199 84.3911C56.8714 84.3751 56.8228 84.3268 56.839 84.2786C56.8552 84.2143 56.8875 84.1822 56.9199 84.1822Z" fill="#07453A"/>
<path d="M58.344 85.9657C58.5706 85.9335 58.7972 85.9175 59.0238 85.9175C59.2504 85.9175 59.4769 85.9335 59.6873 85.9496L61.0144 86.0621L63.6848 86.271L69.0255 86.6567C69.0741 86.6567 69.1226 86.7049 69.1226 86.7692C69.1226 86.8174 69.0741 86.8656 69.0255 86.8656C68.1354 86.8656 67.2453 86.8496 66.3551 86.8175C65.465 86.7853 64.5749 86.7531 63.6848 86.7049C62.7946 86.6567 61.9045 86.6085 61.0144 86.5442L59.6712 86.4317C59.2342 86.3996 58.781 86.3353 58.344 86.1746C58.2955 86.1586 58.263 86.0942 58.2792 86.046C58.2792 85.9817 58.3117 85.9657 58.344 85.9657Z" fill="#07453A"/>
</svg>
