<svg width="54" height="107" viewBox="0 0 54 107" fill="none" xmlns="http://www.w3.org/2000/svg">
<path d="M11.6058 106.234L11.7676 105.913C11.8 105.865 11.8162 105.816 11.8486 105.768L11.9456 105.607L12.3502 104.916C12.6253 104.467 12.9005 104.017 13.1918 103.567L14.9072 100.899C16.0563 99.115 17.1406 97.299 18.0469 95.4027C18.5001 94.4545 18.9209 93.4903 19.3255 92.51C19.7139 91.5297 20.0862 90.5333 20.4584 89.553C20.8144 88.5406 21.2676 87.5764 21.5589 86.58C21.6398 86.3389 21.7045 86.0818 21.7368 85.8407C21.753 85.7764 21.753 85.7122 21.7692 85.664C21.7854 85.5997 21.7853 85.5354 21.7853 85.4872L21.7853 85.4068C21.7853 85.4711 21.8016 85.455 21.8016 85.455C21.7854 85.439 21.7369 85.4068 21.6883 85.3747C21.4941 85.2622 21.2513 85.1658 21.0086 85.0854C20.8953 85.0533 20.7658 85.0212 20.6525 84.989C20.5877 84.9729 20.5393 84.9729 20.4745 84.9729C20.426 84.9729 20.3612 84.9729 20.3612 84.9729C20.3612 84.9729 20.3775 84.9729 20.3775 84.9568C20.3937 84.9568 20.3935 84.9408 20.4097 84.9247C20.4097 84.9086 20.4097 84.9247 20.4097 84.9247L20.4097 84.9408L20.3612 85.0212L20.2479 85.1819L20.0375 85.5193C19.8919 85.7443 19.7624 85.9693 19.6329 86.1943C19.374 86.6443 19.1151 87.1103 18.8885 87.5764C18.4192 88.5245 17.9821 89.4888 17.5775 90.453C16.7683 92.3975 16.0402 94.3903 15.1986 96.3509C14.7779 97.3312 14.3247 98.2954 13.823 99.2275L13.4345 99.9346L13.2242 100.288L13.0138 100.626C12.7225 101.076 12.415 101.51 12.0913 101.927C11.4601 102.779 10.7966 103.615 10.1816 104.466C10.1007 104.579 10.0359 104.675 9.95501 104.788C9.92264 104.836 9.89034 104.9 9.85797 104.949C9.84179 104.981 9.82548 105.013 9.80929 105.029C9.79311 105.045 9.79317 105.061 9.79317 105.077C9.77699 105.141 9.85797 105.238 9.93889 105.318C10.036 105.399 10.133 105.463 10.2463 105.527C10.4729 105.656 10.7157 105.768 10.9584 105.881L11.3145 106.057L11.4925 106.154L11.5895 106.202C11.6057 106.202 11.5896 106.202 11.6058 106.234ZM11.6543 106.427C11.6058 106.427 11.541 106.395 11.4925 106.379L11.4116 106.331L11.2336 106.25L10.8775 106.09C10.6348 105.977 10.392 105.865 10.1492 105.736C10.036 105.672 9.90646 105.591 9.79317 105.495C9.74462 105.447 9.67989 105.399 9.63133 105.318C9.58278 105.254 9.55042 105.158 9.55042 105.061C9.55042 105.013 9.56663 104.965 9.58281 104.933C9.599 104.884 9.61515 104.868 9.63133 104.836C9.6637 104.772 9.69601 104.708 9.72837 104.659C9.79311 104.547 9.87409 104.434 9.95501 104.322C10.57 103.454 11.2173 102.618 11.8323 101.751C12.1398 101.317 12.4473 100.883 12.7224 100.449L12.9329 100.111L13.127 99.7739L13.4993 99.0829C13.9849 98.1508 14.4217 97.1865 14.8263 96.2062C15.6517 94.2617 16.3638 92.269 17.1729 90.2923C17.5775 89.312 17.9983 88.3317 18.4677 87.3835C18.6942 86.9014 18.9533 86.4353 19.2122 85.9693C19.3417 85.7443 19.4873 85.5032 19.6168 85.2783L19.8272 84.9408L19.9405 84.7801L19.989 84.6997L19.989 84.6837C19.989 84.6837 19.9889 84.6837 20.0051 84.6676C20.0213 84.6515 20.0537 84.6194 20.0699 84.6033C20.0861 84.5872 20.1023 84.5712 20.1347 84.5712C20.1509 84.5551 20.1671 84.5551 20.1832 84.5551C20.3127 84.5229 20.3775 84.5229 20.4584 84.5229C20.5393 84.5229 20.604 84.539 20.6849 84.5551C20.8305 84.5872 20.96 84.6194 21.0895 84.6515C21.3646 84.7319 21.6236 84.8283 21.8825 84.989C21.9473 85.0372 22.012 85.0694 22.0929 85.1497C22.1253 85.1979 22.1738 85.2461 22.1899 85.3747L22.1899 85.4872C22.1899 85.5675 22.19 85.6318 22.1738 85.6961C22.1738 85.7604 22.1576 85.8407 22.1414 85.905C22.0929 86.1782 22.0281 86.4514 21.9472 86.7086C21.7853 87.2228 21.5912 87.721 21.4131 88.2192L21.1219 88.9584L20.8467 89.6977C20.4745 90.694 20.1023 91.6904 19.7138 92.6707C19.3092 93.651 18.8886 94.6313 18.4354 95.5956C17.5291 97.524 16.4286 99.3561 15.2957 101.156C14.7292 102.056 14.1304 102.94 13.5316 103.808L12.6253 105.109L12.156 105.752L12.0428 105.913L11.9132 106.09C11.8323 106.202 11.7352 106.315 11.6543 106.427Z" fill="#07453A"/>
<path d="M13.742 98.2473C13.0138 96.8331 12.3339 95.4028 11.6704 93.9564C11.0068 92.5101 10.3433 91.0637 9.71216 89.6013C9.08099 88.1389 8.49836 86.6443 8.01284 85.1176C7.51114 83.607 7.12273 82.0321 6.96089 80.425C6.87997 79.6215 6.84754 78.818 6.89609 78.0144C6.91227 77.8055 6.9124 77.6127 6.94477 77.4037L6.97701 77.0984C6.99319 76.9859 6.99329 76.9216 6.99329 76.8252C6.99329 76.7288 6.99329 76.6324 6.99329 76.5199C6.99329 76.4717 6.99322 76.4074 7.00941 76.3431C7.02559 76.311 7.00938 76.2788 7.05793 76.1985C7.07411 76.1824 7.07414 76.1824 7.09033 76.1663C7.10651 76.1502 7.12266 76.1342 7.13885 76.1342C7.15503 76.1181 7.1874 76.1181 7.21977 76.1021C7.25213 76.1021 7.26832 76.1021 7.30069 76.1021C7.39779 76.1181 7.4141 76.1503 7.43028 76.1824C7.44647 76.1985 7.46253 76.2146 7.46253 76.2306L7.47881 76.2628L7.52733 76.327L7.62437 76.4556C7.6891 76.5359 7.73775 76.6324 7.80248 76.7127C8.02906 77.0502 8.2232 77.4198 8.38504 77.7895C8.54688 78.1591 8.67645 78.5448 8.80592 78.9304C9.04868 79.7018 9.22661 80.4893 9.35608 81.2768C9.64739 82.8517 9.79308 84.4427 9.95492 86.0176C10.0358 86.805 10.1167 87.5925 10.2138 88.3799C10.3109 89.1674 10.4243 89.9549 10.6023 90.7263C10.6185 90.7745 10.5861 90.8387 10.5214 90.8387C10.4728 90.8548 10.408 90.8227 10.408 90.7584C10.2138 89.987 10.0843 89.1996 9.97104 88.396C9.85775 87.6086 9.76068 86.8211 9.67976 86.0337C9.48555 84.4587 9.3075 82.8838 9 81.325C8.85435 80.5536 8.67632 79.7822 8.43356 79.0269C8.32028 78.6573 8.17468 78.2876 8.01284 77.9341C7.851 77.5805 7.67292 77.243 7.46253 76.9216C7.41397 76.8413 7.36542 76.7609 7.30069 76.6806L7.13885 76.4717L7.15513 76.4877L7.17125 76.5038C7.18743 76.5038 7.18746 76.5038 7.20365 76.5199C7.23601 76.5199 7.2846 76.5199 7.31697 76.5038C7.33315 76.5038 7.34936 76.4878 7.34936 76.4717L7.36549 76.4556C7.38167 76.4235 7.36542 76.4395 7.38161 76.4556C7.38161 76.4877 7.36549 76.536 7.36549 76.5842C7.36549 76.6806 7.36549 76.777 7.36549 76.8734C7.36549 76.9217 7.36549 76.9699 7.36549 77.0342C7.36549 77.0984 7.34936 77.1466 7.34936 77.1949L7.31697 77.4841C7.30078 77.6769 7.28457 77.8698 7.28457 78.0627C7.2522 78.8501 7.2845 79.6376 7.38161 80.409C7.54345 81.9678 7.93186 83.5106 8.43356 85.0051C8.93527 86.4997 9.50171 87.9782 10.1329 89.4406C10.7641 90.903 11.4276 92.3333 12.1074 93.7797C12.7709 95.226 13.4183 96.6884 13.92 98.1991C13.9362 98.2473 13.9037 98.3116 13.8552 98.3276C13.8228 98.3116 13.7582 98.2955 13.742 98.2473Z" fill="#07453A"/>
<path d="M11.784 93.9727C10.8129 93.2495 9.89046 92.4781 8.95179 91.7067C8.0293 90.9353 7.0906 90.1639 6.16811 89.3765C5.24563 88.589 4.33939 87.7855 3.48164 86.9177C2.62389 86.0499 1.87936 85.0374 1.39384 83.8803C1.28056 83.5911 1.18348 83.3018 1.10256 82.9965L1.07016 82.884L1.05404 82.8358L1.03792 82.7875L0.973124 82.5786C0.95694 82.5465 0.940725 82.4983 0.940725 82.4661C0.924541 82.4179 0.908325 82.3858 0.908325 82.3054L0.908325 82.2733C0.908325 82.2572 0.90842 82.2251 0.924604 82.209C0.924604 82.1929 0.924636 82.1769 0.957004 82.1287C0.989371 82.0965 1.02168 82.0644 1.05404 82.0483C1.08641 82.0322 1.135 82.0322 1.16736 82.0322C1.19973 82.0322 1.1997 82.0322 1.21588 82.0483C1.23207 82.0483 1.24822 82.0644 1.2644 82.0644C1.28059 82.0644 1.28068 82.0644 1.28068 82.0804L1.37772 82.1287C1.94416 82.4179 2.42965 82.8036 2.8828 83.2375C3.77292 84.1053 4.45265 85.1178 5.14856 86.0981C6.55656 88.0587 7.93223 90.0354 9.46971 91.8996C9.50207 91.9478 9.50214 92.012 9.45358 92.0442C9.40503 92.0763 9.35642 92.0763 9.30787 92.0281C7.72184 90.1961 6.28146 88.2515 4.85728 86.307C4.14518 85.3428 3.44927 84.3464 2.59152 83.5268C2.17074 83.125 1.70143 82.7554 1.16736 82.4983L1.07016 82.4501C1.07016 82.4501 1.05398 82.4501 1.07016 82.4501L1.08644 82.4501C1.10263 82.4501 1.08648 82.4501 1.11884 82.4501C1.15121 82.4501 1.1674 82.4501 1.19976 82.434C1.21595 82.4179 1.2645 82.4019 1.28068 82.3697C1.29687 82.3376 1.29674 82.3215 1.31292 82.3215C1.31292 82.3054 1.31292 82.2894 1.31292 82.2894C1.31292 82.2894 1.31302 82.3215 1.3292 82.3536C1.34539 82.3858 1.34542 82.4179 1.3616 82.4501L1.44252 82.659L1.45864 82.7233L1.47476 82.7875L1.50716 82.9001C1.58808 83.1893 1.66903 83.4625 1.78232 83.7196C2.23547 84.7964 2.94754 85.7606 3.77292 86.6123C4.63067 87.448 5.52079 88.2515 6.44327 89.039C7.36576 89.8265 8.30446 90.5818 9.22695 91.3531C10.1494 92.1245 11.072 92.9281 11.8812 93.828C11.9135 93.8763 11.9135 93.9405 11.8812 93.9727C11.865 93.9887 11.8163 93.9887 11.784 93.9727Z" fill="#07453A"/>
<path d="M11.5893 93.0571C11.2818 91.9322 11.1038 90.7912 10.9744 89.6502C10.8611 88.4931 10.7802 87.3521 10.7479 86.195C10.7155 85.0379 10.7479 83.8808 10.8288 82.7238C10.8773 82.1452 10.9259 81.5667 10.9906 80.9881C11.0554 80.4096 11.1685 79.8311 11.3466 79.2686C11.3951 79.124 11.4437 78.9954 11.4923 78.8508C11.5085 78.8186 11.5246 78.7704 11.5408 78.7383C11.557 78.7222 11.5731 78.6901 11.5893 78.6579L11.6056 78.6258C11.6218 78.6097 11.6217 78.6097 11.6541 78.5937C11.6703 78.5776 11.6864 78.5776 11.7026 78.5776C11.7188 78.5776 11.7674 78.5615 11.7836 78.5615C11.8321 78.5615 11.8159 78.5615 11.8321 78.5615L11.8645 78.5615C11.9939 78.6097 12.0102 78.6579 12.0587 78.6901C12.0911 78.7222 12.1234 78.7704 12.1396 78.8026C12.2367 78.9472 12.2853 79.0758 12.35 79.2204C12.4147 79.349 12.4634 79.4936 12.5281 79.6222C12.7385 80.1846 12.868 80.7632 12.9327 81.3417C13.0298 82.5148 12.9489 83.6719 12.7709 84.829C12.431 87.1271 11.7513 89.3288 11.4762 91.6108C11.4762 91.659 11.4114 91.7072 11.3628 91.6911C11.3143 91.6911 11.2657 91.6429 11.2819 91.5786C11.5247 89.2806 12.1396 87.0467 12.4309 84.7808C12.5766 83.6559 12.6575 82.4988 12.5442 81.3899C12.4795 80.8274 12.35 80.2811 12.1396 79.7668C12.0263 79.5258 11.913 79.2365 11.7836 79.0276C11.7674 78.9954 11.7512 78.9794 11.735 78.9633C11.7188 78.9472 11.7026 78.9472 11.7512 78.9633L11.7674 78.9633L11.7998 78.9633C11.8322 78.9633 11.8646 78.9633 11.8807 78.9472C11.8969 78.9472 11.8968 78.9311 11.913 78.9311C11.9292 78.915 11.9292 78.9151 11.9454 78.9151C11.9454 78.9151 11.9455 78.915 11.9293 78.9311C11.9131 78.9472 11.9131 78.9793 11.8969 79.0115C11.8483 79.124 11.7998 79.2686 11.7674 79.3972C11.6056 79.9275 11.5085 80.49 11.4438 81.0525C11.379 81.6149 11.3305 82.1934 11.2819 82.7559C11.201 83.8969 11.1847 85.0379 11.2171 86.1789C11.2495 87.3199 11.3466 88.4609 11.4599 89.602C11.5893 90.743 11.7189 91.8679 11.7998 93.025C11.7998 93.0732 11.7674 93.1214 11.7026 93.1375C11.6541 93.1375 11.6055 93.1053 11.5893 93.0571Z" fill="#07453A"/>
<path d="M16.4451 98.665C17.756 97.7329 19.1803 96.9455 20.6207 96.2384C22.0611 95.5313 23.5337 94.8563 24.9741 94.1813C27.8872 92.8314 30.7843 91.4333 33.4061 89.6495C34.0534 89.1995 34.6683 88.7013 35.2185 88.1388C35.348 87.9942 35.4937 87.8496 35.6231 87.7049C35.7526 87.5603 35.8822 87.3996 35.9955 87.2549C36.0602 87.1746 36.1087 87.0942 36.1735 87.03C36.222 86.9496 36.2868 86.8692 36.3192 86.805L36.3192 86.7889C36.3192 86.7889 36.3192 86.7889 36.3192 86.805L36.3192 86.821C36.3192 86.8371 36.3192 86.8371 36.3192 86.8532C36.3192 86.8692 36.3191 86.8693 36.3353 86.9014C36.3353 86.9175 36.3838 86.9496 36.3838 86.9496L36.3677 86.9496L36.3514 86.9335C36.319 86.9175 36.2867 86.9014 36.2544 86.8853C36.1896 86.8532 36.0925 86.8371 36.0116 86.821C35.6556 86.7889 35.2671 86.8532 34.8949 86.9335C34.5226 87.03 34.1342 87.1424 33.762 87.2871C33.3897 87.4317 33.0176 87.5924 32.6939 87.7692L32.176 88.0745L31.6743 88.396C30.3634 89.2798 29.1334 90.3244 27.9681 91.4172C26.8029 92.51 25.6701 93.651 24.521 94.7599C24.4886 94.792 24.4238 94.792 24.3753 94.7599C24.3429 94.7277 24.3429 94.6634 24.3753 94.6152C25.5082 93.4903 26.6248 92.3332 27.7739 91.2083C28.9392 90.0994 30.1368 89.0227 31.4801 88.1067L31.9817 87.7692L32.4997 87.4478C32.8719 87.2389 33.2442 87.0782 33.6164 86.9335C33.9886 86.7889 34.3771 86.6603 34.7817 86.5479C35.1863 86.4514 35.5909 86.3711 36.044 86.4032C36.1573 86.4193 36.2705 86.4353 36.3838 86.4835C36.4485 86.4996 36.4972 86.5318 36.5619 86.5639L36.6104 86.5961L36.6266 86.6121C36.6266 86.6121 36.6751 86.6443 36.6751 86.6764C36.6913 86.7086 36.6913 86.7246 36.7075 86.7407C36.7075 86.7568 36.7075 86.7728 36.7075 86.7889C36.7075 86.805 36.7075 86.805 36.7075 86.821C36.7075 86.8371 36.7076 86.8532 36.6914 86.8693C36.6914 86.9014 36.6751 86.9175 36.6751 86.9335C36.6104 87.0621 36.5619 87.1264 36.4971 87.2228C36.4324 87.3032 36.3677 87.3835 36.3192 87.4639C36.1897 87.6246 36.0602 87.7853 35.9307 87.9299C35.8012 88.0906 35.6556 88.2352 35.51 88.3799C34.9435 88.9745 34.3124 89.4887 33.6488 89.9548C30.9785 91.7868 28.0653 93.185 25.1522 94.551C23.6957 95.2259 22.239 95.9009 20.8148 96.624C19.3744 97.3312 17.9502 98.0543 16.526 98.7936C16.4775 98.8257 16.4128 98.7936 16.3966 98.7453C16.3966 98.7453 16.4128 98.6971 16.4451 98.665Z" fill="#07453A"/>
<path d="M22.1092 95.8047C22.7727 94.6798 23.5496 93.6352 24.3103 92.5906C24.6987 92.0764 25.0708 91.5461 25.4269 91.0157C25.7829 90.4854 26.1228 89.939 26.4627 89.3765C26.8026 88.8301 27.1262 88.2677 27.4823 87.7213C27.8221 87.1749 28.162 86.6124 28.4857 86.066C28.8094 85.5035 29.133 84.9411 29.4243 84.3786C29.4891 84.234 29.5699 84.0893 29.6347 83.9447L29.6834 83.8322C29.6834 83.8161 29.6994 83.784 29.7156 83.7679L29.748 83.7036L29.8774 83.4947C29.8936 83.4626 29.9099 83.4304 29.9261 83.4144L29.9261 83.3983C29.9261 83.3983 29.9261 83.3822 29.9261 83.3983C29.9261 83.3983 29.9261 83.3983 29.9261 83.4304C29.9261 83.4465 29.9261 83.4465 29.9261 83.4626C29.9261 83.4787 29.9422 83.5108 29.9584 83.5269C29.9745 83.5429 29.9909 83.559 30.007 83.5751C30.0232 83.5751 30.0231 83.5911 30.0393 83.5911C30.0555 83.5911 30.0556 83.5911 30.0556 83.5911C30.0717 83.5911 30.088 83.5911 30.088 83.5911L30.0393 83.6072L29.9422 83.6233C29.8775 83.6394 29.8128 83.6715 29.7319 83.6876L29.5215 83.784C28.9875 84.0733 28.4856 84.4911 28.0163 84.925C27.547 85.3589 27.1101 85.8249 26.7055 86.3231C25.8963 87.3356 25.1032 88.3641 24.3749 89.4247C23.6304 90.4854 22.9347 91.5621 22.3197 92.7032C22.0122 93.2656 21.737 93.8441 21.4781 94.4387C21.2353 95.0333 21.0411 95.6441 20.9116 96.2708C20.8955 96.319 20.8469 96.3672 20.7983 96.3512C20.7498 96.3351 20.7012 96.2869 20.7174 96.2387C20.8307 95.5958 21.0249 94.9691 21.2514 94.3584C21.4942 93.7477 21.7531 93.1531 22.0606 92.5746C22.6594 91.4175 23.3392 90.3086 24.0836 89.2319C24.8119 88.1552 25.5887 87.1106 26.3979 86.0821C26.8025 85.5678 27.2557 85.0857 27.725 84.6197C28.2105 84.1697 28.7122 83.7358 29.311 83.3983C29.3919 83.3661 29.4728 83.3179 29.5538 83.2858C29.6347 83.2537 29.7319 83.2215 29.8128 83.2054L29.9584 83.1733L30.0232 83.1572C30.0393 83.1572 30.0878 83.1572 30.1202 83.1572C30.1364 83.1572 30.1688 83.1733 30.2011 83.1894C30.2335 83.2054 30.2497 83.2215 30.282 83.2537C30.2982 83.2858 30.3145 83.3179 30.3307 83.3501C30.3307 83.3661 30.3307 83.3983 30.3307 83.4144C30.3307 83.4626 30.3306 83.4787 30.3144 83.4947C30.3144 83.5269 30.2983 83.5269 30.2983 83.5429C30.2983 83.559 30.282 83.5751 30.282 83.5911C30.2659 83.6393 30.2336 83.6876 30.2174 83.7197L30.088 83.9286L30.0556 83.9768C30.0556 83.9929 30.0393 83.9929 30.0393 84.009L29.9908 84.1215C29.926 84.2661 29.8451 84.4268 29.7804 84.5714C29.4891 85.15 29.1654 85.7285 28.8418 86.291C28.5181 86.8535 28.1782 87.4159 27.8383 87.9623C27.4985 88.5087 27.1748 89.0712 26.8349 89.6176C26.495 90.18 26.1553 90.7265 25.7992 91.2729C25.4432 91.8192 25.0547 92.3496 24.6825 92.8799C23.9218 93.9245 23.1126 94.953 22.2549 95.9333C22.2225 95.9815 22.1577 95.9815 22.1092 95.9494C22.093 95.9012 22.093 95.8529 22.1092 95.8047Z" fill="#07453A"/>
<path d="M28.8421 90.3239C29.6352 89.2793 30.5253 88.3311 31.3831 87.3508C32.257 86.3866 33.0985 85.3902 33.8592 84.3617C34.636 83.3171 35.3319 82.2404 35.9307 81.0993C36.2382 80.5208 36.5133 79.9584 36.7399 79.3638C36.8532 79.0584 36.9665 78.7691 37.0312 78.4638C37.0474 78.3834 37.0636 78.3192 37.0636 78.2549C37.0636 78.2227 37.0636 78.1906 37.0636 78.1906C37.0636 78.2067 37.0635 78.2067 37.0797 78.2227C37.0797 78.2388 37.1122 78.2709 37.1445 78.287C37.1445 78.287 37.1446 78.287 37.1284 78.287C37.0637 78.2549 36.9342 78.271 36.8047 78.3192C36.5458 78.4156 36.2705 78.5924 36.0278 78.7852C35.785 78.9781 35.5423 79.187 35.3158 79.4119C35.0892 79.6369 34.8625 79.8619 34.6521 80.103C34.5388 80.2155 34.4418 80.344 34.3447 80.4726C34.2476 80.5851 34.1505 80.7297 34.0696 80.8583C33.3413 81.9189 32.791 83.0921 32.1436 84.2331C30.8327 86.499 29.4733 88.7007 28.1948 90.9667C28.1624 91.0149 28.1139 91.0309 28.0653 90.9988C28.0168 90.9667 28.0006 90.9184 28.0329 90.8702C29.2629 88.5722 30.59 86.3223 31.8523 84.0563C32.4673 82.9314 33.0176 81.7261 33.7459 80.6333C33.843 80.4887 33.9239 80.3601 34.0372 80.2316C34.1343 80.103 34.2475 79.9744 34.3608 79.8459C34.5712 79.5887 34.7978 79.3477 35.0406 79.1227C35.2834 78.8816 35.5261 78.6566 35.785 78.4477C36.0439 78.2388 36.3191 78.0299 36.6751 77.9013C36.8531 77.837 37.0636 77.7888 37.3064 77.8531C37.3225 77.8531 37.3225 77.8531 37.3549 77.8692C37.4034 77.8853 37.452 77.9335 37.4682 77.9656C37.4844 77.9977 37.5005 78.0299 37.5167 78.0459C37.5167 78.062 37.533 78.0781 37.533 78.1103C37.5492 78.1906 37.533 78.2388 37.533 78.287C37.5168 78.3834 37.5005 78.4638 37.4843 78.5602C37.4034 78.8977 37.3064 79.2191 37.1769 79.5245C36.9342 80.1512 36.6428 80.7297 36.3514 81.3244C35.7526 82.4975 35.0243 83.6064 34.2475 84.6509C33.4707 85.7116 32.613 86.708 31.7553 87.6883C30.8813 88.6686 29.975 89.6007 29.004 90.4685C28.9554 90.5006 28.8906 90.5006 28.8583 90.4685C28.8097 90.4203 28.8098 90.3721 28.8421 90.3239Z" fill="#07453A"/>
<path d="M32.4505 86.355C33.373 85.7122 34.3763 85.1818 35.3797 84.6837C36.3831 84.1855 37.3865 83.6873 38.3737 83.173C39.361 82.6588 40.3321 82.1124 41.2707 81.5178C42.2094 80.9232 43.0834 80.2643 43.7307 79.3804C43.7631 79.3322 43.8116 79.2679 43.8278 79.2358L43.8278 79.2518C43.8278 79.2518 43.8278 79.284 43.8278 79.3C43.8278 79.3 43.8278 79.3965 43.8925 79.4447C43.9087 79.4608 43.8925 79.4447 43.9087 79.4607C43.9087 79.4607 43.9087 79.4607 43.8925 79.4607C43.8764 79.4607 43.8763 79.4607 43.8601 79.4607C43.763 79.4447 43.6335 79.4607 43.5041 79.4929C43.2451 79.5411 42.9863 79.6054 42.7112 79.6857C42.1933 79.8465 41.6591 80.0393 41.1574 80.2643C40.154 80.6982 39.1991 81.3089 38.2928 81.9356C36.464 83.2052 34.781 84.6837 33.0493 86.0979C33.0008 86.13 32.936 86.13 32.9036 86.0818C32.8712 86.0336 32.8713 85.9854 32.9199 85.9372C34.6192 84.4747 36.2537 82.9641 38.0825 81.6463C39.0049 81.0035 39.9436 80.3768 40.9956 79.9107C41.5134 79.6857 42.0475 79.4768 42.5816 79.3C42.8567 79.2197 43.1318 79.1233 43.4232 79.0751C43.5688 79.0429 43.7145 79.0269 43.9087 79.0429L43.9896 79.059C44.022 79.059 44.0543 79.075 44.0705 79.0911C44.0867 79.0911 44.1028 79.1072 44.119 79.1233L44.1514 79.1393L44.1677 79.1554C44.1839 79.1554 44.1676 79.1554 44.1838 79.1715C44.2324 79.2197 44.2486 79.3161 44.2486 79.3161C44.2486 79.3322 44.2486 79.3804 44.2486 79.3804C44.2486 79.3965 44.2323 79.4125 44.2323 79.4286C44.2162 79.4447 44.2162 79.4608 44.2162 79.4768C44.1677 79.5572 44.1353 79.6215 44.0868 79.6697C44.0059 79.7822 43.9087 79.8947 43.8278 80.0072C43.7306 80.1197 43.6336 80.2321 43.5365 80.3286C43.3423 80.5375 43.1318 80.7303 42.9052 80.9232C42.4683 81.2928 41.999 81.6142 41.5135 81.9195C40.5748 82.5302 39.5877 83.0766 38.5842 83.6069C37.597 84.1373 36.5774 84.6355 35.5902 85.1336C34.5868 85.6318 33.5833 86.1139 32.5475 86.5479C32.499 86.5639 32.4343 86.5478 32.4181 86.4996C32.3857 86.4354 32.4019 86.3872 32.4505 86.355Z" fill="#07453A"/>
<path d="M12.5284 95.1773C12.3504 94.0845 12.3341 92.9595 12.4151 91.8667C12.5122 90.7579 12.674 89.6651 12.9006 88.5884C13.0139 88.042 13.1432 87.5116 13.2889 86.9813C13.4345 86.451 13.5965 85.9207 13.7583 85.3903C13.9201 84.86 14.0982 84.3297 14.3086 83.8154C14.3572 83.6869 14.4218 83.5583 14.4866 83.4297C14.5513 83.3011 14.6323 83.1726 14.7617 83.0279L14.8264 82.9798L14.8588 82.9476C14.8264 82.8672 15.2471 82.9637 15.15 82.9798C15.1662 82.9958 15.1824 83.0119 15.1824 83.0279C15.1986 83.044 15.1987 83.044 15.1987 83.0601C15.2311 83.1083 15.2311 83.1404 15.2472 83.1886L15.3119 83.3976L15.4252 83.7993L15.4737 83.9922L15.5061 84.0886C15.5223 84.1208 15.5223 84.1529 15.5385 84.2011C15.5547 84.3457 15.587 84.4743 15.587 84.6189C15.6194 84.8921 15.6356 85.1814 15.6356 85.4546C15.6356 86.0171 15.5871 86.5795 15.5224 87.1259C15.3606 88.2187 15.15 89.2955 14.9073 90.3722C14.4056 92.5257 13.7907 94.6309 13.2728 96.7522C13.2566 96.8004 13.2081 96.8326 13.1433 96.8326C13.0948 96.8165 13.0624 96.7683 13.0624 96.7201C13.5317 94.5666 14.0982 92.4453 14.5514 90.3079C14.7779 89.2312 14.9883 88.1545 15.1178 87.0778C15.1825 86.5314 15.2148 86.001 15.2148 85.4707C15.2148 85.1975 15.1987 84.9404 15.1663 84.6672C15.1501 84.5386 15.1339 84.41 15.1015 84.2654C15.1015 84.2493 15.0854 84.2172 15.0854 84.1851L15.053 84.0886L14.9882 83.8958L14.875 83.5101L14.8102 83.3172C14.7941 83.2851 14.794 83.253 14.7778 83.253C14.7778 83.253 14.7778 83.2529 14.7778 83.269C14.7778 83.2851 14.7941 83.2851 14.8102 83.3012C14.697 83.3012 15.134 83.3976 15.0854 83.3172L15.0691 83.3333L15.053 83.3494C14.9883 83.4136 14.9235 83.5261 14.8588 83.6386C14.794 83.7511 14.7455 83.8797 14.6969 83.9922C14.4865 84.4904 14.3247 85.0046 14.1629 85.5189C14.001 86.0492 13.8392 86.5635 13.7098 87.0938C13.5641 87.6241 13.4347 88.1545 13.3376 88.6848C13.111 89.7455 12.9491 90.8222 12.8682 91.915C12.8196 92.4614 12.8035 92.9917 12.7711 93.5381C12.7388 94.0845 12.7226 94.6309 12.6902 95.1773C12.6902 95.2255 12.6416 95.2737 12.5769 95.2737C12.5769 95.2577 12.5446 95.2255 12.5284 95.1773Z" fill="#07453A"/>
<path d="M20.3455 84.7482C20.3455 83.2215 20.4426 81.6947 20.4588 80.1841C20.475 79.4288 20.4426 78.6735 20.3779 77.9182C20.3132 77.1629 20.1999 76.4236 20.0542 75.6844C19.7467 74.2059 19.3097 72.7435 18.986 71.2328C18.8242 70.4775 18.6947 69.7383 18.549 68.983C18.4843 68.6133 18.4034 68.2277 18.3386 67.858L18.2901 67.5688L18.2577 67.4241C18.2415 67.3277 18.2577 67.2795 18.2577 67.2313C18.2577 67.1831 18.274 67.1349 18.274 67.1027C18.274 67.0867 18.274 67.0706 18.274 67.0706C18.274 67.0706 18.274 67.0706 18.274 67.0866C18.274 67.0866 18.2739 67.1027 18.2901 67.1027C18.3063 67.1027 18.2901 67.1188 18.3062 67.1188C18.3062 67.1188 18.3225 67.1349 18.3386 67.1509C18.3548 67.167 18.3873 67.1831 18.4034 67.1831C18.4196 67.1831 18.4358 67.1831 18.4358 67.1831L18.452 67.1831C18.4681 67.1831 18.4844 67.1831 18.4844 67.1831L18.4681 67.1991L18.4358 67.2313L18.4034 67.2795C18.3063 67.408 18.2253 67.5688 18.1444 67.7295C18.0635 67.8902 17.9827 68.0669 17.9179 68.2437C17.7723 68.5812 17.6589 68.9348 17.578 69.3044C17.3999 70.0276 17.3352 70.7668 17.3352 71.5221C17.3838 73.0328 17.578 74.5434 17.9016 76.0219C18.5328 78.9949 19.5525 81.8715 20.3779 84.8124C20.3941 84.8607 20.3617 84.9249 20.3131 84.941C20.2646 84.9571 20.1999 84.9249 20.1837 84.8767C19.7467 83.4143 19.2611 81.968 18.7918 80.5216C18.3224 79.0753 17.8856 77.5968 17.5457 76.1022C17.2059 74.6077 16.9954 73.0809 16.9306 71.5382C16.9144 70.7668 16.9792 69.9793 17.1573 69.224C17.2544 68.8383 17.3677 68.4687 17.5133 68.0991C17.5943 67.9223 17.6589 67.7455 17.7398 67.5688C17.8207 67.392 17.9179 67.2152 18.0474 67.0384L18.0959 66.9742L18.1607 66.9099C18.1931 66.8777 18.2092 66.8617 18.2577 66.8456C18.2739 66.8295 18.3063 66.8295 18.3225 66.8134C18.3225 66.8134 18.371 66.7974 18.3872 66.7974C18.4033 66.7974 18.4196 66.7974 18.4196 66.7974C18.4357 66.7974 18.4519 66.7974 18.4681 66.8134C18.5328 66.8295 18.6137 66.9099 18.6299 66.942C18.6299 66.9581 18.6462 66.9581 18.6462 66.9742L18.6462 67.0063C18.6462 67.0224 18.6623 67.0384 18.6623 67.0545C18.6623 67.1027 18.6623 67.1349 18.6623 67.167C18.6623 67.2313 18.6462 67.2795 18.6462 67.3117C18.6462 67.3599 18.6462 67.392 18.6462 67.392L18.6786 67.5366L18.7271 67.8098C18.7919 68.1794 18.8727 68.5651 18.9375 68.9348C19.0831 69.674 19.2126 70.4293 19.3745 71.1686C19.6982 72.6471 20.1351 74.1095 20.4588 75.6201C20.6207 76.3754 20.7339 77.1307 20.7986 77.9021C20.8634 78.6735 20.8957 79.4449 20.8795 80.2163C20.8634 81.759 20.7176 83.2697 20.4911 84.7803C20.4749 84.8285 20.4265 84.8767 20.3779 84.8607C20.3779 84.8446 20.3455 84.7964 20.3455 84.7482Z" fill="#07453A"/>
<path d="M21.3974 84.8291C22.4656 83.7524 23.5661 82.7238 24.6342 81.6632C25.1683 81.1328 25.6862 80.6025 26.2041 80.0401C26.7058 79.4776 27.2075 78.9151 27.7092 78.3527C28.7126 77.2117 29.7483 76.0867 30.9621 75.1546C31.5609 74.6886 32.1758 74.2225 32.7908 73.8047C33.0983 73.5797 33.422 73.3869 33.7457 73.1779C33.8266 73.1297 33.9237 73.0815 34.0046 73.0333C34.1017 72.9851 34.1988 72.9369 34.3283 72.9047C34.3606 72.8886 34.4092 72.8887 34.4416 72.8887C34.474 72.8887 34.5063 72.8886 34.5225 72.9047C34.5549 72.9047 34.6035 72.9369 34.6358 72.9529L34.6682 72.969L34.6844 72.9851L34.7006 73.0012L34.7329 73.0333C34.7491 73.0494 34.7815 73.0815 34.7977 73.0976C34.8786 73.194 34.9271 73.3065 34.9595 73.419C35.0243 73.6279 35.0404 73.8368 35.0404 74.0457C35.0404 74.2547 35.008 74.4475 34.9756 74.6403C34.8947 75.0421 34.733 75.4118 34.5388 75.7492C34.1342 76.4403 33.6 77.0027 33.0336 77.517C31.9007 78.5294 30.7031 79.4615 29.5055 80.3775C28.3079 81.2935 27.0617 82.1614 25.8641 83.0935C25.2653 83.5595 24.6827 84.0256 24.0354 84.4595C23.4042 84.8773 22.7083 85.2469 21.98 85.4719C21.9315 85.488 21.8667 85.4558 21.8506 85.4076C21.8344 85.3594 21.8668 85.2951 21.9154 85.279C22.6275 85.0541 23.291 84.6845 23.9059 84.2666C24.5209 83.8488 25.1036 83.3667 25.6862 82.8846C26.2688 82.4024 26.8837 81.9525 27.4825 81.4864L29.279 80.1043C30.4766 79.1883 31.6581 78.2402 32.7586 77.2277C33.3088 76.7295 33.8104 76.1831 34.1664 75.5564C34.3445 75.2349 34.4741 74.9135 34.5388 74.56C34.6035 74.2225 34.6196 73.8529 34.5225 73.5475C34.4902 73.4833 34.4578 73.419 34.4255 73.3547C34.4093 73.3386 34.4093 73.3226 34.3931 73.3226L34.377 73.3065L34.377 73.2904C34.377 73.2904 34.3769 73.2904 34.3931 73.3065C34.4093 73.3226 34.4254 73.3226 34.4416 73.3226L34.4579 73.3226C34.4579 73.3226 34.4578 73.3226 34.4416 73.3226C34.393 73.3386 34.3122 73.3708 34.2312 73.4029C34.1503 73.4351 34.0693 73.4833 34.0046 73.5315C33.6971 73.7243 33.3735 73.9332 33.066 74.1582C32.451 74.5921 31.8521 75.0421 31.2533 75.5082C30.0719 76.4242 29.0525 77.533 28.0652 78.658C27.5635 79.2205 27.0779 79.799 26.56 80.3615C26.0583 80.924 25.5244 81.4703 24.9903 82.0007C23.906 83.0613 22.773 84.0738 21.543 84.9737C21.4945 85.0059 21.4298 84.9898 21.3974 84.9576C21.3651 84.9255 21.3651 84.8612 21.3974 84.8291Z" fill="#07453A"/>
<path d="M21.3807 84.5389C21.7691 83.173 22.2708 81.8391 22.7887 80.5213C23.3066 79.2035 23.8407 77.8858 24.3101 76.5519C24.7956 75.218 25.2002 73.8681 25.5724 72.5182C25.7666 71.8432 25.9446 71.1522 26.0579 70.4611L26.1549 69.9469C26.1873 69.7701 26.2036 69.6094 26.2521 69.4166L26.3168 69.1595C26.333 69.1273 26.3331 69.0791 26.3331 69.0469C26.3331 69.0309 26.3331 69.0148 26.3331 69.0148C26.3331 69.0148 26.333 69.0148 26.3492 69.063C26.3492 69.0791 26.3654 69.1112 26.414 69.1434C26.4625 69.1755 26.5272 69.1916 26.5595 69.1755C26.5919 69.1755 26.6082 69.1595 26.6082 69.1595L26.6243 69.1434C26.6405 69.1434 26.6082 69.1595 26.6082 69.1595L26.5595 69.2076L26.4625 69.288C26.3978 69.3362 26.3331 69.4005 26.2845 69.4648C25.799 69.9469 25.4267 70.5254 25.0869 71.1361C24.747 71.7468 24.4719 72.3896 24.1968 73.0485C23.9216 73.7074 23.6626 74.3502 23.4037 75.0091C23.1609 75.668 22.9182 76.343 22.7078 77.0018C21.8339 79.6856 21.1542 82.4337 20.5878 85.2139C20.5716 85.2621 20.523 85.3103 20.4745 85.2943C20.4259 85.2782 20.3774 85.23 20.3936 85.1818C20.9114 82.4016 21.5265 79.6214 22.368 76.9054C22.5784 76.2305 22.805 75.5555 23.0478 74.8805C23.2905 74.2056 23.5494 73.5467 23.8246 72.8878C24.0997 72.2289 24.3748 71.57 24.7147 70.9272C25.0545 70.3005 25.443 69.6737 25.9609 69.1434C26.0256 69.0791 26.0903 69.0148 26.1712 68.9505L26.2845 68.8541L26.3331 68.8059C26.3492 68.7898 26.3493 68.7898 26.3655 68.7737C26.3816 68.7737 26.3816 68.7577 26.414 68.7416C26.4302 68.7416 26.4625 68.7255 26.4949 68.7095C26.5434 68.7095 26.6081 68.7095 26.6729 68.7577C26.7214 68.7898 26.7538 68.838 26.7538 68.8702C26.77 68.9345 26.77 68.9505 26.77 68.9827C26.77 69.0309 26.77 69.063 26.77 69.0791C26.77 69.1273 26.7538 69.1755 26.7376 69.2237L26.6729 69.4809C26.6405 69.6255 26.6082 69.8183 26.5758 69.9951L26.4786 70.5255C26.3491 71.2326 26.1711 71.9236 25.9931 72.6146C25.6209 73.9806 25.2163 75.3466 24.7308 76.6965C24.2615 78.0464 23.7436 79.3642 23.2257 80.682C22.9668 81.3409 22.6917 81.9998 22.4165 82.6426C22.1414 83.3015 21.85 83.9443 21.5425 84.5872C21.5264 84.6354 21.4617 84.6514 21.4131 84.6353C21.3969 84.6353 21.3645 84.5872 21.3807 84.5389Z" fill="#07453A"/>
<path d="M22.9505 80.618C23.8245 79.5573 24.7632 78.5449 25.7181 77.5646C26.6729 76.5682 27.6116 75.5879 28.5503 74.5755C29.4889 73.5791 30.4113 72.5667 31.3338 71.5381C32.2563 70.5257 33.1788 69.5133 33.8262 68.3401C33.9071 68.1955 33.9881 68.0508 34.0528 67.8901C34.1175 67.7294 34.1983 67.5848 34.2469 67.4402L34.3278 67.2152L34.3926 66.9741L34.425 66.8616C34.425 66.8616 34.425 66.8295 34.425 66.8456L34.425 66.8616C34.425 66.8777 34.425 66.9259 34.4574 66.942C34.4736 66.9581 34.5059 67.0063 34.5544 67.0223C34.5706 67.0384 34.603 67.0384 34.603 67.0384L34.6192 67.0384C34.6516 67.0384 34.6515 67.0384 34.6515 67.0384C34.6515 67.0384 34.603 67.0545 34.5868 67.0706L34.4896 67.1348C34.4087 67.183 34.344 67.2312 34.2469 67.2794C34.166 67.3116 34.1013 67.3598 34.0204 67.392C33.8747 67.4723 33.7291 67.5527 33.5834 67.6491C33.2921 67.8259 33.017 68.0187 32.7581 68.2276C31.6899 69.0472 30.7674 70.0757 29.8287 71.0721C27.9675 73.0809 26.1712 75.1701 24.4234 77.2754C24.391 77.3236 24.3262 77.3235 24.2776 77.2914C24.2291 77.2593 24.2292 77.195 24.2615 77.1468C25.977 75.0094 27.7248 72.8881 29.5698 70.8471C30.4923 69.8347 31.4148 68.7901 32.5153 67.9223C32.7905 67.7134 33.0655 67.5045 33.373 67.3116C33.5187 67.2152 33.6805 67.1187 33.8262 67.0384C33.9071 66.9902 33.988 66.9581 34.0689 66.9099C34.1175 66.8777 34.1984 66.8295 34.2632 66.7813L34.3765 66.7009C34.425 66.6688 34.4574 66.6527 34.5383 66.6206C34.5707 66.6206 34.5706 66.6045 34.6354 66.6045C34.6515 66.6045 34.6678 66.6045 34.6678 66.6045C34.6678 66.6045 34.7 66.6045 34.7324 66.6206C34.7809 66.6366 34.8295 66.6848 34.8457 66.717C34.8619 66.7491 34.8781 66.8134 34.8781 66.8295C34.8781 66.8456 34.8781 66.8616 34.8781 66.8777C34.8781 66.9259 34.8782 66.9098 34.862 66.9259L34.8296 67.0545C34.8134 67.1348 34.781 67.2313 34.7648 67.3116L34.6839 67.5687C34.6353 67.7455 34.5544 67.8902 34.4896 68.0669C34.4087 68.2276 34.344 68.3883 34.2469 68.533C33.5672 69.7704 32.6286 70.7989 31.7061 71.8274C30.7836 72.8399 29.8611 73.8684 28.9225 74.8648C27.9838 75.8772 27.0451 76.8736 26.1064 77.87C25.1515 78.8663 24.1805 79.8306 23.1448 80.7305C23.0962 80.7627 23.0314 80.7626 22.999 80.7144C22.9343 80.7144 22.9343 80.6501 22.9505 80.618Z" fill="#07453A"/>
<path d="M25.0872 74.5922C25.8964 73.3387 26.7864 72.1656 27.6927 70.9763C28.599 69.8032 29.4892 68.614 30.347 67.4087C31.2047 66.2034 32.0301 64.982 32.8231 63.7285C33.2115 63.1018 33.6 62.475 33.9722 61.8322C34.3283 61.1894 34.6681 60.5466 34.8785 59.8555C34.927 59.6948 34.9757 59.502 35.0242 59.3413C35.0404 59.2609 35.0565 59.1645 35.0727 59.1002C35.0727 59.0841 35.0727 59.0681 35.0727 59.0841L35.0727 59.1002C35.0727 59.1002 35.0727 59.1163 35.0888 59.1163C35.0888 59.1324 35.1051 59.1484 35.1212 59.1484C35.1212 59.1484 35.1536 59.1806 35.1698 59.1967C35.2021 59.2127 35.2022 59.2127 35.2022 59.2127L35.186 59.2127L35.1536 59.2127C35.0242 59.2288 34.8623 59.3091 34.7166 59.4055C34.571 59.4859 34.4092 59.5984 34.2635 59.6948C33.6809 60.1127 33.163 60.643 32.7261 61.2055C31.8359 62.3626 31.1076 63.6642 30.3955 64.9499C29.6834 66.2516 29.0037 67.5694 28.2431 68.855C27.4824 70.1407 26.657 71.362 25.8316 72.5995C25.7992 72.6477 25.7346 72.6638 25.686 72.6316C25.6375 72.5995 25.6213 72.5352 25.6536 72.487C26.4466 71.2335 27.2559 69.98 27.9842 68.7104C28.7125 67.4248 29.3598 66.0909 30.0557 64.7892C30.7516 63.4714 31.4798 62.1697 32.3861 60.9644C32.8392 60.3698 33.3733 59.8073 34.0045 59.3574C34.1663 59.2449 34.312 59.1324 34.49 59.036C34.668 58.9395 34.83 58.8431 35.0727 58.7949C35.1051 58.7949 35.1374 58.7788 35.1698 58.7788C35.2021 58.7788 35.2507 58.7788 35.2831 58.7949L35.3155 58.7949C35.3155 58.7949 35.3316 58.7949 35.364 58.8109C35.3964 58.827 35.4288 58.8592 35.4288 58.8592C35.445 58.8752 35.461 58.8913 35.461 58.9074C35.461 58.9235 35.4773 58.9234 35.4773 58.9395C35.4935 58.9717 35.4934 58.9717 35.4934 58.9877C35.5096 59.0359 35.4934 59.0681 35.4934 59.1002C35.4773 59.2127 35.4611 59.3091 35.4449 59.4055C35.3964 59.5984 35.3478 59.7752 35.2992 59.968C35.0726 60.6912 34.7328 61.3822 34.3606 62.0251C33.9883 62.6839 33.6 63.3107 33.2116 63.9375C32.4186 65.207 31.5932 66.4445 30.7355 67.6497C29.8777 68.8711 28.9875 70.0603 28.0812 71.2335C27.1749 72.4227 26.2524 73.5798 25.249 74.6726C25.2167 74.7208 25.1519 74.7208 25.1033 74.6726C25.0709 74.6886 25.071 74.6404 25.0872 74.5922Z" fill="#07453A"/>
<path d="M24.6986 70.8472C24.731 69.5294 24.7957 68.2277 24.8605 66.9099C24.9252 65.5921 24.9576 64.2904 25.0062 62.9726L25.0386 61.9923C25.0548 61.6548 25.0547 61.3334 25.0871 60.996C25.1195 60.3371 25.168 59.6782 25.2004 59.0354C25.2166 58.714 25.2165 58.3765 25.2165 58.055L25.2165 57.5729L25.2165 57.3319C25.2165 57.2033 25.2328 57.139 25.2489 57.0426C25.2489 57.0105 25.2651 56.9623 25.2651 56.9301C25.2651 56.898 25.2651 56.8658 25.2651 56.8819C25.2651 56.8819 25.2813 56.914 25.2975 56.9301C25.3136 56.9462 25.3299 56.9783 25.3623 56.9783C25.3946 56.9944 25.4108 56.9944 25.4432 56.9944C25.4594 56.9944 25.4756 56.9944 25.4756 56.9944L25.4917 56.9944L25.5078 56.9944C25.524 56.9944 25.5078 56.9944 25.5078 56.9944L25.4917 56.9944L25.3947 57.0426C25.2814 57.1229 25.1681 57.2194 25.071 57.3319C24.8768 57.5569 24.7149 57.83 24.5855 58.1193C24.3265 58.6979 24.1485 59.3246 24.019 59.9514C23.8895 60.5942 23.7923 61.237 23.7276 61.8798C23.5819 63.1816 23.5011 64.4833 23.4526 65.801C23.3717 68.4205 23.4849 71.0561 23.6791 73.6756C23.6791 73.7238 23.6468 73.772 23.582 73.7881C23.5335 73.7881 23.4849 73.756 23.4687 73.6917C23.2259 71.0722 23.0479 68.4366 23.0802 65.801C23.0964 64.4833 23.1774 63.1655 23.3069 61.8477C23.3716 61.1888 23.4525 60.5299 23.582 59.871C23.7115 59.2121 23.8733 58.5693 24.1646 57.9426C24.3102 57.6372 24.4721 57.3319 24.7149 57.0426C24.8282 56.914 24.9738 56.7855 25.1195 56.673L25.2489 56.5926L25.2651 56.5766C25.2651 56.5766 25.2651 56.5766 25.2975 56.5605C25.3136 56.5605 25.3298 56.5444 25.346 56.5444C25.3622 56.5444 25.3622 56.5444 25.3784 56.5444C25.3946 56.5444 25.4107 56.5444 25.4269 56.5444C25.4593 56.5444 25.4917 56.5444 25.5402 56.5766C25.5726 56.5926 25.605 56.6248 25.6374 56.6569C25.6698 56.6891 25.6859 56.7533 25.6859 56.7694C25.7021 56.8658 25.7021 56.914 25.7021 56.9622C25.7021 57.0105 25.6859 57.0587 25.6859 57.0908C25.6698 57.1712 25.6697 57.2515 25.6697 57.2997L25.6697 57.5408L25.6697 58.039C25.6858 58.3764 25.6697 58.6979 25.6535 59.0354C25.6374 59.6943 25.5889 60.3531 25.5565 61.012C25.5403 61.3334 25.5241 61.6709 25.5241 61.9923L25.4917 62.9726C25.4593 64.2904 25.427 65.6082 25.3623 66.926C25.2975 68.2438 25.1842 69.5615 24.9253 70.8633C24.9091 70.9115 24.8605 70.9597 24.8119 70.9436C24.731 70.9275 24.6986 70.8954 24.6986 70.8472Z" fill="#07453A"/>
<path d="M27.6923 69.3041C27.7894 68.6613 27.9189 68.0185 28.0322 67.3917L28.3883 65.4793C28.631 64.2097 28.8252 62.9241 29.0032 61.6384C29.1813 60.3528 29.3268 59.0672 29.4725 57.7815C29.5534 57.1387 29.6344 56.4959 29.6667 55.8531C29.6829 55.6763 29.6991 55.5317 29.6991 55.3709C29.6991 55.3067 29.6992 55.2263 29.683 55.1781L29.683 55.162C29.683 55.162 29.6991 55.1942 29.7152 55.1942C29.7152 55.1942 29.7477 55.2102 29.7639 55.2263C29.7801 55.2263 29.7963 55.2424 29.8124 55.2424C29.861 55.2424 29.861 55.2424 29.861 55.2424C29.861 55.2424 29.8448 55.2424 29.8448 55.2585C29.7477 55.3227 29.6182 55.4352 29.5049 55.5317C29.3916 55.6441 29.2783 55.7566 29.1812 55.8691C28.7928 56.3512 28.5177 56.9298 28.3235 57.5244C28.1131 58.119 27.9836 58.7618 27.838 59.3886C27.5628 60.6421 27.3848 61.9277 27.2391 63.2134C26.964 65.7847 26.8508 68.388 26.6242 70.9754C26.6242 71.0236 26.5756 71.0718 26.5109 71.0718C26.4623 71.0718 26.4138 71.0236 26.4138 70.9594C26.5918 68.372 26.6403 65.7685 26.8831 63.1812C27.0125 61.8795 27.1744 60.5939 27.4495 59.3082C27.579 58.6654 27.7247 58.0226 27.9189 57.3958C28.1293 56.7691 28.4043 56.1423 28.8251 55.5959C28.9384 55.4513 29.0517 55.3388 29.1812 55.2263C29.3107 55.1138 29.4241 55.0013 29.6021 54.8888C29.6345 54.8728 29.6506 54.8567 29.683 54.8406C29.7154 54.8245 29.7639 54.8085 29.8448 54.8245C29.8772 54.8245 29.8933 54.8406 29.9095 54.8406C29.9419 54.8567 29.9581 54.8728 29.9743 54.8888C30.0066 54.9049 30.0227 54.9531 30.0389 54.9692C30.0551 54.9853 30.0551 55.0174 30.0713 55.0334L30.0876 55.0817C30.12 55.2102 30.1037 55.2906 30.1198 55.387C30.1198 55.5638 30.1038 55.7406 30.0876 55.8852C30.0552 56.5441 29.9743 57.1869 29.8934 57.8297C29.7477 59.1154 29.602 60.4171 29.424 61.7027C29.2459 62.9884 29.0517 64.274 28.8251 65.5596C28.5824 66.8453 28.2911 68.1149 27.838 69.3362C27.8218 69.3844 27.7571 69.4166 27.7085 69.4005C27.7085 69.4005 27.6923 69.3523 27.6923 69.3041Z" fill="#07453A"/>
<path d="M23.5333 73.627C22.8536 72.2128 22.287 70.7504 21.7368 69.3041C21.1865 67.8417 20.6201 66.3953 19.9889 64.9811C19.3577 63.5669 18.6295 62.1848 17.8041 60.8831C17.5937 60.5456 17.3671 60.2403 17.1567 59.9189C16.9302 59.6135 16.6874 59.2921 16.4608 58.9868C15.9753 58.3922 15.4574 57.7975 14.9395 57.2351C14.6805 56.9458 14.4054 56.6726 14.1303 56.4155C13.8552 56.1584 13.5639 55.9012 13.2565 55.7084C13.1755 55.6602 13.0945 55.628 13.0298 55.612C13.0136 55.612 12.9975 55.5959 12.9813 55.5959L12.965 55.5959C12.9812 55.5959 12.9975 55.5959 13.0137 55.5959C13.0461 55.5798 13.0622 55.5637 13.0946 55.5477C13.127 55.5155 13.1269 55.4995 13.1269 55.4995C13.1269 55.5156 13.1269 55.5316 13.1269 55.5477C13.1107 55.7084 13.1431 55.9012 13.1593 56.0941C13.1754 56.2869 13.2078 56.4798 13.2402 56.6566C13.2402 56.6726 13.2403 56.7048 13.2565 56.7048L13.2726 56.769L13.3211 56.8976C13.3535 56.978 13.3859 57.0744 13.4183 57.1547C13.7096 57.8458 14.1464 58.4725 14.6643 59.0511C15.166 59.6296 15.7487 60.1599 16.2827 60.7385C17.3832 61.8634 18.419 63.0526 19.3577 64.3061C20.2964 65.5757 21.1056 66.9256 21.7692 68.3398C21.7853 68.3881 21.7692 68.4523 21.7206 68.4684C21.6721 68.4845 21.6074 68.4684 21.5912 68.4202C20.9115 67.0221 20.086 65.7043 19.1473 64.4668C18.2087 63.2294 17.1406 62.0884 16.0562 60.9795C15.506 60.4171 14.9395 59.9028 14.4054 59.2921C13.8876 58.6975 13.402 58.0386 13.0783 57.2994C13.046 57.203 12.9974 57.1065 12.965 57.0101L12.9165 56.8655L12.9004 56.7851C12.8842 56.753 12.8841 56.7208 12.8841 56.6887C12.8517 56.4958 12.8194 56.303 12.7871 56.0941C12.7709 55.9012 12.7385 55.7084 12.7547 55.4673C12.7547 55.4352 12.7547 55.4031 12.7709 55.3709C12.7709 55.3548 12.7709 55.3387 12.7871 55.3066C12.8032 55.2905 12.8033 55.2423 12.8519 55.1941C12.8842 55.162 12.9003 55.1459 12.965 55.1299C12.9812 55.1299 13.0136 55.1138 13.0459 55.1138L13.0622 55.1138L13.1107 55.1138C13.1431 55.1138 13.1754 55.1299 13.2078 55.1299C13.3372 55.162 13.4343 55.2102 13.5315 55.2745C13.9037 55.4995 14.195 55.7566 14.5025 56.0298C14.7938 56.303 15.069 56.5762 15.3441 56.8655C15.8782 57.444 16.3961 58.0225 16.8978 58.6493C17.1406 58.9707 17.3833 59.2761 17.6098 59.5975C17.8364 59.9189 18.0631 60.2403 18.2735 60.5778C19.1312 61.9116 19.8595 63.3098 20.5068 64.724C21.1542 66.1542 21.7206 67.6167 22.2871 69.0791C22.8373 70.5415 23.3551 72.02 23.8083 73.4985C23.8245 73.5467 23.7922 73.611 23.7436 73.627C23.6142 73.7074 23.5495 73.6752 23.5333 73.627Z" fill="#07453A"/>
<path d="M20.4423 65.5118C19.9244 64.194 19.536 62.828 19.1961 61.462C18.8725 60.08 18.5812 58.6979 18.3223 57.3158C18.0796 55.9177 17.8853 54.5196 17.7559 53.1053C17.6911 52.3982 17.6263 51.6911 17.6102 50.984C17.594 50.6305 17.594 50.2769 17.6102 49.9073L17.6264 49.6341L17.6264 49.5698L17.6264 49.5377L17.6264 49.5216L17.6264 49.5056L17.6426 49.377L17.7235 48.8467C17.7558 48.6699 17.7881 48.4931 17.8205 48.3163C17.8367 48.2199 17.853 48.1396 17.8692 48.0431C17.8854 47.9949 17.8853 47.9467 17.9014 47.8985L17.9177 47.8503C17.9177 47.8342 17.9339 47.8181 17.9662 47.7699C17.9662 47.7699 17.9986 47.7378 18.0148 47.7217C18.0471 47.6896 18.128 47.6574 18.2251 47.6896C18.2737 47.7057 18.2413 47.6896 18.2575 47.7057L18.2899 47.7217C18.646 47.9146 18.9211 48.2039 19.1315 48.5092C19.3419 48.8145 19.5199 49.152 19.6494 49.4734C19.7951 49.8109 19.8921 50.1484 19.9892 50.5019C20.3614 51.9001 20.4423 53.3303 20.4099 54.7445C20.3452 57.589 19.7626 60.3692 19.6655 63.1655C19.6655 63.2137 19.617 63.2619 19.5685 63.2619C19.5199 63.2619 19.4713 63.2137 19.4713 63.1655C19.5198 60.3371 20.0378 57.5408 20.0701 54.7445C20.0701 53.3464 19.9892 51.9483 19.617 50.6144C19.5199 50.2769 19.4065 49.9555 19.2771 49.6341C19.1476 49.3127 18.9857 49.0074 18.7915 48.7503C18.5973 48.4771 18.3708 48.2521 18.0957 48.1074L18.0633 48.0913C18.0633 48.0913 18.0472 48.0753 18.0796 48.0913C18.1767 48.1235 18.2414 48.0914 18.2738 48.0592C18.29 48.0431 18.306 48.0271 18.306 48.0271C18.3222 47.9949 18.3223 48.011 18.3223 48.011L18.3223 48.0271C18.3061 48.0592 18.3061 48.0914 18.2899 48.1396C18.2737 48.2199 18.2576 48.3002 18.2414 48.3967C18.209 48.5734 18.1767 48.7342 18.1605 48.911L18.0796 49.4252L18.0633 49.5538L18.0633 49.6663L18.0472 49.9234C18.031 50.2769 18.031 50.6144 18.0472 50.968C18.0633 51.659 18.1281 52.3661 18.1929 53.0571C18.3385 54.4553 18.5327 55.8374 18.7754 57.2194C19.0182 58.6015 19.3257 59.9675 19.6494 61.3335C19.9893 62.6995 20.329 64.0655 20.6042 65.4475C20.6203 65.4957 20.588 65.56 20.5232 65.56C20.5232 65.5922 20.4747 65.56 20.4423 65.5118Z" fill="#07453A"/>
<path d="M18.8565 59.1483C18.3386 58.2644 17.9017 57.3484 17.4647 56.4324C17.0278 55.5164 16.5745 54.6003 16.1052 53.7004C15.6359 52.8004 15.1503 51.9166 14.5838 51.0809C14.4382 50.872 14.2925 50.6792 14.1307 50.4702L14.0661 50.3899C14.0499 50.3578 14.0336 50.3417 14.0013 50.3095C13.9527 50.2453 13.9203 50.181 13.8879 50.1167C13.8232 50.0042 13.7747 49.8756 13.71 49.8113C13.71 49.7953 13.6937 49.7953 13.6937 49.7953C13.6937 49.7792 13.6937 49.7953 13.6937 49.7953C13.6937 49.7953 13.6938 49.7953 13.71 49.7953C13.7262 49.7953 13.7262 49.7953 13.7424 49.8113C13.7586 49.8113 13.7908 49.8274 13.807 49.8113C13.8232 49.8113 13.8394 49.8114 13.8718 49.7953L13.8879 49.7792L13.9042 49.7631L13.8879 49.7953L13.8555 49.8596C13.807 49.956 13.7908 50.0524 13.7746 50.1649C13.7422 50.3899 13.7584 50.6309 13.7746 50.872C13.8232 51.3541 13.9527 51.8523 14.0822 52.3344C14.1469 52.5755 14.2279 52.8165 14.3088 53.0576C14.3897 53.2986 14.4545 53.5397 14.5516 53.7647C14.9238 54.6968 15.393 55.5806 15.9595 56.4324C17.06 58.1359 18.3872 59.7108 19.4877 61.4303C19.5201 61.4785 19.5039 61.5428 19.4553 61.575C19.4068 61.6071 19.342 61.591 19.3096 61.5428C18.1767 59.8554 16.8173 58.3287 15.6521 56.6253C15.0694 55.7735 14.5676 54.8736 14.1792 53.9093C14.0659 53.6683 14.0013 53.4272 13.9042 53.1861C13.8233 52.9451 13.7423 52.7041 13.6776 52.4469C13.5319 51.9487 13.4025 51.4506 13.3378 50.9202C13.3054 50.6631 13.2892 50.3899 13.3378 50.1006C13.354 49.956 13.4024 49.8114 13.4509 49.6667L13.4996 49.5542C13.5158 49.5382 13.5157 49.5221 13.5319 49.506C13.548 49.4899 13.5643 49.4739 13.5805 49.4578L13.5967 49.4417C13.6128 49.4256 13.629 49.4256 13.6452 49.4096C13.6775 49.3935 13.71 49.3774 13.7424 49.3774C13.7747 49.3774 13.8232 49.3774 13.8555 49.3774C13.8879 49.3935 13.9042 49.3935 13.9203 49.4096C13.9527 49.4256 13.9527 49.4417 13.9689 49.4417C14.0012 49.4578 14.0175 49.4899 14.0337 49.506C14.0498 49.5221 14.066 49.5382 14.0822 49.5542C14.1793 49.6828 14.2278 49.7953 14.2925 49.9078C14.3249 49.956 14.3573 50.0042 14.3735 50.0524C14.3896 50.0685 14.4058 50.1006 14.422 50.1167L14.4868 50.1971C14.6486 50.406 14.7943 50.6149 14.9562 50.8238C15.555 51.6755 16.0404 52.5755 16.5259 53.4915C16.9953 54.4075 17.4646 55.3075 17.9016 56.2395C18.3385 57.1556 18.7432 58.1037 19.0507 59.084C19.0669 59.1322 19.0345 59.1965 18.9859 59.2126C18.9212 59.2126 18.8727 59.1965 18.8565 59.1483Z" fill="#07453A"/>
<path d="M16.5421 53.9727C16.008 52.8477 15.571 51.7067 15.1826 50.5336C14.7941 49.3604 14.4381 48.1712 14.163 46.9498C13.8879 45.7445 13.7098 44.5071 13.6127 43.2697C13.5803 42.6429 13.548 42.0323 13.5966 41.3894L13.6127 41.277C13.6127 41.2127 13.6127 41.2609 13.6127 41.1805C13.6127 41.1644 13.6127 41.1645 13.6127 41.1162C13.645 41.1002 13.548 41.068 13.7908 40.9395C14.0012 40.9395 14.0011 41.0198 14.0173 41.0198L14.0336 41.0519L14.066 41.1002L14.1306 41.1966L14.3896 41.5984C14.4867 41.7269 14.5515 41.8716 14.6324 42.0001L14.8589 42.4179C15.4253 43.5429 15.8137 44.7321 16.1536 45.9213C16.4935 47.1105 16.7686 48.3158 16.9952 49.5372C17.4646 51.9639 17.7882 54.4066 18.1442 56.8493C18.1604 56.8975 18.1119 56.9618 18.0633 56.9618C18.0148 56.9779 17.9501 56.9296 17.9501 56.8814L17.3513 53.2334C17.1409 52.0281 16.9143 50.8068 16.6715 49.6015C16.4288 48.3962 16.1374 47.207 15.7975 46.0338C15.4415 44.8607 15.0531 43.7036 14.5028 42.6269L14.2924 42.2251C14.2115 42.0965 14.1469 41.9519 14.066 41.8394L13.8069 41.4698L13.7423 41.3734L13.7099 41.3251L13.6936 41.3091C13.7098 41.3091 13.7098 41.3894 13.9202 41.3894C14.1468 41.2609 14.0497 41.2448 14.0821 41.2287C14.0821 41.1966 14.0821 41.1966 14.0821 41.1966L14.0821 41.2609L14.0821 41.3412L14.066 41.4537C14.0174 42.0483 14.0497 42.659 14.0821 43.2697C14.163 44.491 14.3573 45.6963 14.6324 46.8856C14.9075 48.0748 15.2635 49.2479 15.652 50.4211C16.0404 51.5782 16.445 52.7513 16.7525 53.9566C16.7686 54.0048 16.7363 54.0691 16.6715 54.0852C16.623 54.037 16.5745 54.0048 16.5421 53.9727Z" fill="#07453A"/>
<path d="M21.899 69.0632C21.6077 67.9543 21.4297 66.8294 21.3164 65.6884C21.2031 64.5474 21.1383 63.4063 21.1383 62.2653C21.1383 61.1243 21.2031 59.9833 21.3649 58.8423C21.4459 58.2798 21.5268 57.7013 21.6725 57.1549L21.7695 56.7371L21.8181 56.5282C21.8342 56.48 21.8343 56.48 21.8343 56.4478L21.8505 56.3514L21.8666 56.2389C21.8666 56.2228 21.8829 56.1907 21.8829 56.1746C21.8829 56.1585 21.8828 56.1425 21.899 56.1264L21.9153 56.0943C21.9153 56.0943 21.9314 56.0782 21.9314 56.0621C21.9476 56.0461 21.9476 56.03 21.9638 56.03C21.9638 56.03 21.9961 55.9978 22.0447 55.9818C22.0932 55.9657 22.158 55.9657 22.1741 55.9818C22.2065 55.9818 22.2389 55.9978 22.2551 56.03C22.2874 56.0621 22.3036 56.0621 22.3036 56.0782C22.3198 56.0942 22.3198 56.1103 22.336 56.1264C22.3522 56.1425 22.3359 56.1425 22.3521 56.1425L22.3684 56.1907L22.4169 56.2871C22.4816 56.4317 22.5141 56.5603 22.5626 56.705C22.7406 57.2674 22.8215 57.846 22.87 58.4245C22.9186 59.003 22.9509 59.5655 22.9509 60.144C22.9509 61.285 22.9024 62.426 22.8215 63.551C22.7406 64.692 22.6435 65.8169 22.5787 66.9419C22.514 68.0668 22.4331 69.2078 22.4978 70.3327C22.4978 70.3809 22.4655 70.4292 22.4008 70.4453C22.3522 70.4453 22.3036 70.4131 22.2875 70.3488C22.1903 69.2078 22.2389 68.0668 22.2875 66.9258C22.336 65.7848 22.4007 64.6598 22.4654 63.5188C22.5301 62.3939 22.5625 61.2529 22.5463 60.1279C22.5301 59.5655 22.514 59.003 22.4493 58.4405C22.3846 57.8941 22.3036 57.3317 22.1256 56.8174C22.0771 56.6889 22.0446 56.5603 21.9799 56.4317L21.9475 56.3353L21.9314 56.2871C21.9314 56.2871 21.9314 56.271 21.9314 56.2871C21.9314 56.3032 21.9475 56.3032 21.9475 56.3192C21.9475 56.3192 21.9475 56.3353 21.9799 56.3514C21.9961 56.3674 22.0284 56.3835 22.0608 56.3835C22.077 56.3835 22.1418 56.3996 22.1741 56.3835C22.2227 56.3675 22.2551 56.3353 22.2551 56.3353C22.2712 56.3353 22.2712 56.3193 22.2712 56.3032L22.2875 56.2871C22.2875 56.2871 22.2875 56.2871 22.2875 56.271L22.2712 56.3032L22.2551 56.3996L22.2389 56.5121C22.2389 56.5442 22.2227 56.6085 22.2065 56.6406L22.158 56.8496L22.0608 57.2513C21.9313 57.7977 21.8505 58.3441 21.7695 58.9066C21.6239 60.0155 21.5592 61.1404 21.5592 62.2653C21.5592 63.3903 21.6239 64.5152 21.7371 65.6401L21.899 67.3275C21.9475 67.89 22.0122 68.4525 22.0284 69.031C22.0284 69.0792 21.9961 69.1275 21.9314 69.1435C21.9476 69.1435 21.899 69.1114 21.899 69.0632Z" fill="#07453A"/>
<path d="M27.9194 68.3239C28.1136 67.0061 28.3888 65.7044 28.6801 64.4188C28.9714 63.117 29.2788 61.8314 29.6187 60.5457C29.7805 59.9029 29.9585 59.2601 30.1527 58.6173C30.347 57.9745 30.5574 57.3316 30.8164 56.7209C30.9459 56.4156 31.0753 56.1103 31.2371 55.8049C31.318 55.6603 31.3828 55.4996 31.4637 55.3549L31.5769 55.13L31.6417 55.0175L31.6578 54.9853C31.674 54.9532 31.674 54.9532 31.6902 54.9371L31.7226 54.8889C31.9168 54.6157 32.0949 54.3265 32.2891 54.0533L32.3376 54.005C32.3538 53.989 32.37 53.9729 32.4024 53.9247C32.4024 53.9247 32.4024 53.9247 32.4348 53.9086C32.4833 53.8925 32.4347 53.8925 32.5479 53.8765C32.7745 53.9086 32.7584 54.005 32.7422 53.9729L32.7585 54.005L32.807 54.0693C32.8555 54.1657 32.9041 54.2461 32.9203 54.3425C32.985 54.5193 33.0012 54.7121 33.0173 54.8889C33.0335 55.596 32.8717 56.271 32.6937 56.9138C32.4995 57.5566 32.2728 58.1994 32.0139 58.8101C31.5122 60.0475 30.9782 61.2689 30.4603 62.4903C29.4083 64.933 28.3563 67.3757 27.5633 69.8988C27.5471 69.947 27.4824 69.9792 27.4339 69.9631C27.3853 69.947 27.3529 69.8988 27.3691 69.8345C28.1135 67.2793 29.117 64.8044 30.1366 62.3456C30.6545 61.1243 31.1562 59.8869 31.6417 58.6655C31.8845 58.0548 32.111 57.428 32.2891 56.8013C32.4509 56.1745 32.5966 55.5317 32.5642 54.905C32.548 54.7603 32.5319 54.5996 32.4833 54.4711C32.4671 54.4068 32.4348 54.3425 32.4024 54.2943L32.37 54.2621L32.3539 54.2461C32.3377 54.1979 32.3214 54.2943 32.5318 54.3264C32.6451 54.3104 32.5965 54.3104 32.6289 54.2943L32.6451 54.2782C32.6613 54.2622 32.645 54.2782 32.6289 54.2943L32.5966 54.3425C32.4024 54.5996 32.2243 54.8728 32.0463 55.146L32.0139 55.1942L31.9978 55.2103L31.9815 55.2425L31.9169 55.3549L31.8035 55.58C31.7226 55.7246 31.6578 55.8692 31.5769 56.0139C31.4313 56.3031 31.3018 56.6084 31.1723 56.9138C30.9295 57.5245 30.703 58.1352 30.5249 58.778C30.3469 59.4047 30.169 60.0475 30.0072 60.6904C29.6835 61.976 29.3921 63.2617 29.1008 64.5634C28.8095 65.8651 28.4859 67.1507 28.0651 68.4203C28.0489 68.4685 27.9841 68.5006 27.9355 68.4846C27.9517 68.4203 27.9194 68.3721 27.9194 68.3239Z" fill="#07453A"/>
<path d="M27.4339 59.5814C27.4825 58.9707 27.5311 58.36 27.5958 57.7494L27.79 55.9334C27.9195 54.712 28.0327 53.5068 28.0974 52.2854C28.1298 51.6747 28.1622 51.064 28.1784 50.4533L28.227 48.6213C28.2432 48.0106 28.2432 47.416 28.1461 46.8214C28.1299 46.7571 28.1137 46.6768 28.1137 46.6125C28.1137 46.5803 28.0974 46.5482 28.0974 46.5321L28.0974 46.516C28.0974 46.516 28.0975 46.5 28.1137 46.5321L28.1298 46.5482C28.1298 46.5482 28.1461 46.5643 28.1622 46.5643C28.1784 46.5803 28.1946 46.5804 28.2108 46.5804C28.2269 46.5804 28.2593 46.5804 28.2432 46.5804C28.2593 46.5804 28.2432 46.5803 28.227 46.5964C28.2109 46.6125 28.1946 46.6285 28.1622 46.6446C28.1137 46.6928 28.0652 46.741 28.0328 46.7892C27.8548 47.0142 27.6766 47.2714 27.531 47.5124C27.2397 48.0267 27.0456 48.5891 26.8999 49.1677C26.8352 49.457 26.7866 49.7623 26.7381 50.0516C26.7057 50.3569 26.6733 50.6462 26.6571 50.9515C26.5762 52.1568 26.641 53.3782 26.7705 54.5995C27.0132 57.0262 27.4501 59.4689 27.353 61.9438C27.353 61.992 27.3045 62.0402 27.256 62.0402C27.2074 62.0402 27.1588 61.992 27.1588 61.9438C27.175 60.7224 27.0779 59.501 26.916 58.2958C26.7542 57.0744 26.56 55.8691 26.4144 54.6477C26.2687 53.4264 26.1878 52.1889 26.2525 50.9354C26.2687 50.6301 26.3011 50.3087 26.3335 50.0033C26.3658 49.698 26.4144 49.3766 26.4953 49.0713C26.6248 48.4606 26.8352 47.8499 27.1427 47.2874C27.2236 47.1428 27.3206 47.0142 27.4015 46.8857C27.4825 46.7571 27.5795 46.6286 27.6928 46.5C27.7414 46.4357 27.8062 46.3714 27.871 46.3071C27.9033 46.275 27.9519 46.2429 27.9843 46.2107C28.0328 46.1786 28.0813 46.1464 28.1784 46.1304L28.2108 46.1304L28.227 46.1304C28.227 46.1304 28.2594 46.1304 28.2756 46.1304C28.2917 46.1304 28.324 46.1464 28.3402 46.1625C28.3564 46.1786 28.3889 46.1946 28.3889 46.1946C28.4051 46.2107 28.4211 46.2268 28.4211 46.2429C28.4535 46.275 28.4535 46.2911 28.4535 46.3071C28.4697 46.3232 28.4698 46.3393 28.4698 46.3553C28.486 46.4036 28.5021 46.4518 28.5183 46.5C28.5345 46.5804 28.5507 46.6607 28.5668 46.7411C28.6639 47.3678 28.6639 48.0106 28.6639 48.6213L28.6316 50.4694C28.6155 51.0801 28.5831 51.7068 28.5507 52.3175C28.486 53.5389 28.3887 54.7763 28.2593 55.9977C28.1298 57.219 27.9356 58.4404 27.6119 59.6296C27.5957 59.6778 27.5472 59.7099 27.4825 59.6939C27.4501 59.6617 27.4178 59.6296 27.4339 59.5814Z" fill="#07453A"/>
<path d="M29.5703 58.7458C29.8778 57.2673 30.25 55.8049 30.6384 54.3425C31.0268 52.8801 31.3991 51.4177 31.7552 49.9552C32.0951 48.4928 32.4187 47.0143 32.71 45.5358C33.0013 44.0574 33.244 42.5788 33.2764 41.0843C33.2926 40.7147 33.2765 40.345 33.2442 39.9754L33.2442 39.9112L33.2442 39.879L33.2442 39.8629L33.2118 39.7344C33.1956 39.6379 33.1793 39.5576 33.147 39.4612L33.1309 39.3969L33.1309 39.3808L33.1309 39.3969C33.1309 39.3969 33.1308 39.413 33.1794 39.4612C33.4383 39.5576 33.3897 39.4451 33.3897 39.4933L33.2927 39.5576L33.2442 39.5897L33.1955 39.6379L33.0985 39.7183C32.8557 39.9593 32.6614 40.2647 32.4996 40.5861C32.3378 40.9075 32.1921 41.2611 32.0626 41.5986C31.8198 42.3057 31.6257 43.0288 31.5124 43.7681C31.383 44.5073 31.2859 45.2626 31.1888 46.0019C30.9945 47.4964 30.8327 48.991 30.7356 50.5016C30.7194 50.8712 30.687 51.2569 30.6708 51.6266C30.6546 52.0123 30.6385 52.3819 30.6547 52.7515C30.6871 53.4907 30.7841 54.2461 30.7841 55.0175C30.7841 55.0657 30.7355 55.1139 30.6869 55.1139C30.6384 55.1139 30.5899 55.0657 30.5899 55.0175C30.5899 54.2782 30.4604 53.5229 30.4281 52.7676C30.4119 52.3819 30.4119 51.9962 30.4281 51.6266C30.4442 51.2409 30.4442 50.8712 30.4766 50.4855C30.5413 48.9749 30.6708 47.4643 30.8488 45.9537C30.9459 45.1983 31.0431 44.4591 31.1564 43.7038C31.2696 42.9485 31.4477 42.1932 31.7067 41.47C31.8361 41.1004 31.9817 40.7468 32.1435 40.3933C32.3215 40.0397 32.5158 39.7022 32.8233 39.3969L32.9366 39.2844L33.0014 39.2362C33.0176 39.2201 33.0499 39.2041 33.0661 39.188L33.2118 39.1076L33.2279 39.1076C33.2279 39.1398 33.1794 39.0433 33.4545 39.1237C33.5031 39.1719 33.5192 39.188 33.5192 39.204C33.5354 39.2201 33.5355 39.2201 33.5355 39.2362C33.5516 39.2683 33.5516 39.2683 33.5516 39.2844L33.5679 39.3647C33.6002 39.4612 33.6163 39.5576 33.6325 39.654L33.6649 39.7986L33.681 39.8468L33.681 39.879L33.6973 39.9593C33.7458 40.345 33.7458 40.7308 33.7458 41.1164C33.7296 42.6431 33.4706 44.1538 33.1955 45.6483C32.9042 47.1429 32.5806 48.6214 32.2407 50.0838C31.9009 51.5623 31.5287 53.0247 31.1402 54.4871C30.7518 55.9495 30.3147 57.3959 29.7968 58.8262C29.7806 58.8744 29.7159 58.9065 29.6674 58.8904C29.5865 58.8422 29.5542 58.794 29.5703 58.7458Z" fill="#07453A"/>
<path d="M30.7839 54.5033C31.4475 53.1212 32.2082 51.7874 33.0012 50.4696C33.7942 49.1518 34.6195 47.8501 35.461 46.5645C36.3026 45.2788 37.2089 44.0253 38.1314 42.804C38.6007 42.1933 39.0378 41.5666 39.5233 40.9559C40.0088 40.3452 40.5267 39.7506 41.1417 39.2524C41.4492 38.9953 41.7891 38.7703 42.1452 38.6096L42.2098 38.5774L42.2261 38.5613C42.5174 38.5131 42.5011 38.6738 42.5011 38.6417L42.5174 38.6738C42.5336 38.6899 42.5335 38.706 42.5335 38.722C42.5497 38.7703 42.5658 38.8185 42.582 38.8667C42.6144 38.9792 42.6306 39.0756 42.6468 39.1881C42.6792 39.397 42.663 39.6059 42.6468 39.8148C42.5497 40.6184 42.2907 41.3576 41.9346 42.0647C41.5786 42.7718 41.1578 43.4147 40.7208 44.0414C40.2839 44.6682 39.8145 45.2949 39.3452 45.9056C38.3903 47.1109 37.3547 48.2679 36.2056 49.2965C35.0565 50.341 33.8103 51.2571 32.467 52.0284C32.4184 52.0606 32.3538 52.0445 32.3214 51.9963C32.2891 51.9481 32.3053 51.8838 32.3538 51.8677C33.6647 51.0803 34.8947 50.1643 36.0114 49.1036C37.1281 48.059 38.1315 46.902 39.0702 45.6967C39.5395 45.086 39.9765 44.4753 40.4134 43.8486C40.8504 43.2218 41.255 42.579 41.5787 41.904C41.9024 41.2291 42.1452 40.5059 42.2261 39.7827C42.2423 39.6059 42.2423 39.4292 42.2261 39.2524C42.2099 39.172 42.1936 39.0917 42.1774 39.0113C42.1612 38.9792 42.1451 38.931 42.1289 38.8988L42.1289 38.8828L42.1289 38.8988C42.1289 38.8667 42.1127 39.0113 42.404 38.9792L42.3879 38.9792L42.3231 39.0113C41.9833 39.172 41.6919 39.381 41.4006 39.622C40.818 40.0881 40.3325 40.6666 39.8631 41.2612C39.3938 41.8558 38.9568 42.4825 38.4875 43.0932C37.565 44.3146 36.675 45.5681 35.8334 46.8377C34.9918 48.1072 34.1825 49.4089 33.3895 50.7267C32.5965 52.0445 31.8034 53.3462 30.9295 54.6158C30.8971 54.664 30.8325 54.6801 30.7839 54.6479C30.7678 54.5997 30.7516 54.5515 30.7839 54.5033Z" fill="#07453A"/>
<path d="M31.9004 71.473C33.1466 70.0749 34.4575 68.741 35.7846 67.4072C37.1117 66.0733 38.4064 64.7395 39.7011 63.3895C40.3485 62.7146 40.9796 62.0235 41.6108 61.3325C42.242 60.6415 42.9055 59.9665 43.5853 59.3076C43.9251 58.9862 44.265 58.6487 44.6048 58.3273C44.9447 58.0059 45.2846 57.6845 45.6407 57.3631L45.9158 57.1381L46.0614 57.0256C46.0937 56.9935 46.1423 56.9613 46.1747 56.9131L46.4337 56.6721C46.4823 56.6238 46.5146 56.5917 46.5793 56.5435C46.6117 56.5274 46.6278 56.4953 46.6602 56.4792C46.6926 56.4631 46.725 56.431 46.8059 56.3989C46.8059 56.3989 46.8221 56.3989 46.8545 56.3828C46.8706 56.3828 46.8869 56.3828 46.9193 56.3828C46.9516 56.3828 46.9677 56.3828 47.0163 56.3989C47.0487 56.4149 47.0971 56.4471 47.1133 56.4632C47.1295 56.4792 47.1458 56.5274 47.162 56.5435C47.162 56.5596 47.1781 56.5756 47.1781 56.5917C47.1781 56.6238 47.1781 56.6399 47.1781 56.656L47.1781 56.7042L47.1781 56.7203L47.162 56.7685L47.1296 56.9453L47.0487 57.2988C46.984 57.5238 46.9193 57.7649 46.8383 57.9899C46.5308 58.8898 46.0937 59.7415 45.5759 60.5451C45.058 61.3486 44.4755 62.0878 43.8443 62.7949C42.582 64.1931 41.1576 65.4466 39.6687 66.6037C38.196 67.7607 36.6423 68.8375 35.0887 69.8981C33.535 70.9588 31.9652 71.9712 30.4439 73.064C30.3953 73.0961 30.3307 73.0801 30.2983 73.048C30.2659 72.9997 30.2821 72.9354 30.3144 72.9033C31.8195 71.7784 33.3894 70.7338 34.9268 69.6571C36.4643 68.5803 37.9857 67.4875 39.4422 66.3305C40.8988 65.1573 42.3068 63.9199 43.5367 62.5378C44.1517 61.8468 44.7182 61.1075 45.2199 60.3361C45.7055 59.5648 46.1261 58.7291 46.4175 57.8613C46.4822 57.6363 46.547 57.4274 46.6117 57.2024L46.6926 56.8649L46.725 56.7042L46.7411 56.656L46.7411 56.6399L46.7411 56.656C46.7411 56.6721 46.7411 56.6721 46.7411 56.6881C46.7411 56.6881 46.7573 56.7363 46.7735 56.7524C46.7897 56.7685 46.8221 56.8006 46.8545 56.8167C46.8868 56.8328 46.9031 56.8328 46.9193 56.8328C46.9516 56.8328 46.9515 56.8328 46.9515 56.8328L46.9678 56.8328C46.984 56.8167 46.9677 56.8328 46.9515 56.8488C46.9353 56.8649 46.9192 56.881 46.903 56.8971C46.8706 56.9292 46.822 56.9613 46.7897 57.0095L46.5308 57.2506C46.4822 57.2988 46.4336 57.331 46.3851 57.3792L46.2556 57.4917L45.9967 57.7166C45.6407 58.022 45.317 58.3434 44.9772 58.6648C44.6373 58.9862 44.2974 59.3076 43.9737 59.6451C43.3102 60.304 42.6628 60.9629 42.0317 61.6539C41.4005 62.345 40.7694 63.036 40.122 63.711C38.8273 65.077 37.5325 66.4269 36.2054 67.7607C34.8784 69.0946 33.5351 70.3963 32.1271 71.6337C32.0785 71.6659 32.0137 71.6659 31.9813 71.6177C31.8681 71.5694 31.8681 71.5052 31.9004 71.473Z" fill="#07453A"/>
<path d="M37.8081 65.9131C38.2127 65.1578 38.6335 64.4186 39.0381 63.6794C39.4427 62.9401 39.8635 62.1848 40.2519 61.4456C41.045 59.951 41.7733 58.4082 42.3883 56.8172C42.6958 56.0298 42.9708 55.2262 43.2297 54.4227C43.3592 54.021 43.4725 53.6031 43.5858 53.2014L43.9419 51.964C44.1684 51.1444 44.395 50.3248 44.6377 49.5052L45.0099 48.2838C45.0423 48.1713 45.0585 48.0909 45.1233 47.9624C45.1718 47.8499 45.2203 47.7534 45.2527 47.6731C45.2527 47.657 45.269 47.6249 45.269 47.6249C45.269 47.6249 45.269 47.6088 45.269 47.641C45.269 47.641 45.269 47.6731 45.269 47.6892C45.2852 47.7213 45.2851 47.7535 45.3336 47.7856C45.3822 47.8178 45.4147 47.8338 45.4632 47.8338C45.4794 47.8338 45.5117 47.8338 45.5117 47.8178C45.5441 47.8017 45.544 47.8017 45.5279 47.8178L45.4955 47.8338L45.4308 47.882C45.3499 47.9463 45.269 47.9945 45.1881 48.0588C44.8806 48.3159 44.6216 48.6374 44.395 48.9909C44.1522 49.3284 43.958 49.698 43.78 50.0837C43.4078 50.839 43.1002 51.6265 42.8251 52.43C42.55 53.2335 42.2588 54.037 41.9837 54.8406L41.1745 57.2672C40.1063 60.4974 38.9895 63.7758 37.274 66.7488C37.2416 66.7971 37.177 66.8131 37.1285 66.781C37.0799 66.7488 37.0637 66.7006 37.0961 66.6524C37.5007 65.9132 37.889 65.1418 38.2451 64.3704C38.5849 63.599 38.9248 62.8116 39.2161 62.008C39.8149 60.4171 40.3329 58.7939 40.8508 57.1708L41.6276 54.7281C41.8865 53.9085 42.1778 53.1049 42.4529 52.3014C42.728 51.4979 43.0356 50.6783 43.4078 49.9069C43.602 49.5212 43.7962 49.1355 44.0552 48.7659C44.2979 48.3963 44.573 48.0427 44.9129 47.7534C44.9938 47.6731 45.091 47.6088 45.1881 47.5446L45.2527 47.4963L45.2851 47.4642C45.3013 47.4642 45.3013 47.4481 45.366 47.416C45.3822 47.416 45.4146 47.3999 45.4308 47.3999C45.4794 47.3999 45.5278 47.3999 45.5764 47.4481C45.6249 47.4963 45.6411 47.5285 45.6573 47.5606C45.6573 47.5767 45.6736 47.6088 45.6736 47.6249C45.6736 47.6892 45.6735 47.7052 45.6573 47.7213C45.6411 47.7695 45.6412 47.7856 45.6251 47.8178C45.5765 47.9302 45.5278 48.0267 45.4955 48.1231C45.4631 48.1874 45.4308 48.3159 45.3984 48.4124L45.0262 49.6337C44.7835 50.4533 44.5569 51.2729 44.3303 52.0925L43.9904 53.33C43.8771 53.7478 43.7638 54.1495 43.6343 54.5674C43.3754 55.387 43.1004 56.2065 42.7929 56.994C42.1779 58.6011 41.4496 60.1599 40.6565 61.6705C39.8473 63.1812 38.9572 64.6596 37.9377 66.0417C37.9053 66.0899 37.8405 66.0899 37.7919 66.0578C37.8081 66.0096 37.7919 65.9614 37.8081 65.9131Z" fill="#07453A"/>
<path d="M40.7048 61.0925C41.1417 60.3693 41.5949 59.6622 42.048 58.9551L43.4075 56.8338C44.3138 55.4196 45.1715 53.9732 45.9807 52.5108C46.3853 51.7716 46.79 51.0323 47.1784 50.2931C47.5668 49.5378 47.9714 48.7985 48.3922 48.0593C48.813 47.3361 49.2662 46.5968 49.7517 45.9058L50.1076 45.3755C50.2209 45.1987 50.3505 45.0219 50.4476 44.8612C50.5123 44.7648 50.5608 44.6845 50.6255 44.572C50.6417 44.5559 50.6417 44.5398 50.674 44.5238C50.6902 44.5077 50.6902 44.4916 50.755 44.4755C50.7873 44.4595 50.8683 44.4113 50.9977 44.5077C51.0625 44.572 51.0786 44.6363 51.0786 44.6523C51.0786 44.6845 51.0786 44.6844 51.0786 44.7005C51.0786 44.7166 51.0786 44.7166 51.0786 44.7327C51.0786 44.7488 51.0786 44.7648 51.0786 44.7648L51.0786 44.797L51.0464 44.9577L50.9977 45.2791C50.9815 45.3916 50.9493 45.488 50.9331 45.5844C50.5447 47.2557 49.865 48.8306 49.1043 50.3252C48.3275 51.8358 47.4372 53.2661 46.4662 54.6642C45.5114 56.0463 44.4595 57.3962 43.3751 58.6819C42.2746 59.9675 41.1256 61.205 39.8956 62.3781C39.8632 62.4102 39.7984 62.4102 39.7499 62.3781C39.7175 62.346 39.7175 62.2817 39.7499 62.2335C40.9637 61.0603 42.0804 59.8068 43.1485 58.5051C44.2166 57.2034 45.2201 55.8535 46.1588 54.4714C47.0975 53.0893 47.9713 51.643 48.732 50.1484C49.4764 48.6539 50.1239 47.1111 50.4961 45.488L50.5609 45.1826L50.6094 44.8773L50.6418 44.7327L50.6418 44.7005C50.6418 44.6844 50.6418 44.6845 50.6418 44.6845L50.6418 44.7005C50.6418 44.7005 50.6418 44.7005 50.6418 44.7327C50.6418 44.7327 50.6418 44.7969 50.7227 44.8612C50.8522 44.9416 50.9168 44.8934 50.9492 44.8934C50.9978 44.8773 50.9977 44.8612 50.9977 44.8612C50.9977 44.8612 50.9977 44.8612 50.9977 44.8773C50.9492 44.9416 50.9006 45.038 50.8359 45.1184C50.7226 45.3112 50.5933 45.4719 50.48 45.6487L50.1239 46.163C49.6384 46.854 49.2014 47.5611 48.7806 48.2843C48.3599 49.0074 47.9714 49.7467 47.583 50.502C47.1946 51.2573 46.8061 51.9965 46.3853 52.7358C45.5761 54.2143 44.7023 55.6606 43.8121 57.0909C42.9058 58.5212 41.9348 59.9033 40.8666 61.205C40.8343 61.2532 40.7695 61.2532 40.7209 61.221C40.6885 61.1889 40.6724 61.1246 40.7048 61.0925Z" fill="#07453A"/>
<path d="M20.0702 85.391C19.52 84.2339 19.0668 83.0447 18.6137 81.8555L17.3028 78.2718C17.0762 77.6772 16.8495 77.0825 16.6068 76.504C16.364 75.9094 16.1375 75.3148 15.9109 74.7202L15.2474 72.9364L14.9075 72.0525C14.8751 71.9561 14.8589 71.8918 14.8265 71.8275C14.8104 71.7953 14.7943 71.7632 14.7943 71.7471C14.7943 71.7471 14.7943 71.731 14.7943 71.7471L14.8104 71.7632C14.8266 71.7793 14.8105 71.7793 14.8752 71.8114C14.9238 71.7954 14.8589 71.8596 15.0693 71.7953C15.2311 71.6186 15.1341 71.6668 15.1665 71.6507L15.1665 71.6828C15.1503 71.8275 15.1341 72.0042 15.1341 72.1489C15.0694 73.3863 15.2312 74.6559 15.5387 75.8772C15.83 77.0986 16.267 78.3039 16.7364 79.4771C17.6912 81.8233 18.824 84.1375 19.5199 86.6123C19.5361 86.6606 19.5038 86.7249 19.4553 86.7409C19.4067 86.757 19.342 86.7249 19.3258 86.6767C18.9536 85.4714 18.4842 84.2821 17.9663 83.1251C17.4484 81.9519 16.8982 80.8109 16.4127 79.6217C15.9272 78.4485 15.4739 77.2433 15.1502 75.9898C14.8265 74.7523 14.6324 73.4506 14.6971 72.1489C14.7133 71.9882 14.7133 71.8275 14.7295 71.6668L14.7295 71.6346L14.7295 71.6025C14.7619 71.6025 14.6647 71.6346 14.8265 71.4418C15.0369 71.3614 14.9885 71.4257 15.0371 71.4097C15.1018 71.4418 15.1017 71.4579 15.1341 71.4739C15.1503 71.49 15.1503 71.5061 15.1665 71.5061C15.1827 71.5221 15.1827 71.5382 15.1989 71.5543C15.2313 71.6025 15.2474 71.6507 15.2635 71.6828C15.2959 71.7632 15.3121 71.8435 15.3445 71.9078L15.7005 72.8078L16.3803 74.5916C16.6069 75.1862 16.8334 75.7808 17.0762 76.3593C17.3189 76.954 17.5617 77.5486 17.7721 78.1432L19.0992 81.7269C19.5361 82.9161 19.9569 84.1214 20.2806 85.3588C20.2968 85.4071 20.2645 85.4713 20.2159 85.4874C20.1512 85.4553 20.1026 85.4392 20.0702 85.391Z" fill="#07453A"/>
<path d="M33.3246 50.4535C33.9072 48.6536 34.5384 46.8858 35.1534 45.102C35.7684 43.3181 36.3187 41.5182 36.8042 39.7183C37.2897 37.9024 37.6943 36.0703 38.018 34.2222C38.3417 32.3741 38.6006 30.5099 38.7624 28.6297C38.7786 28.4047 38.7947 28.1636 38.8109 27.9387C38.8109 27.8262 38.8272 27.7137 38.8272 27.6012L38.8272 27.5208C38.8272 27.4887 38.8272 27.4565 38.8272 27.4244C38.8272 27.3601 38.8433 27.2958 38.8433 27.2315L38.8918 26.878C38.8918 26.8298 38.9081 26.7655 38.9081 26.7173C38.9081 26.7012 38.9081 26.6691 38.9081 26.653C38.9081 26.6369 38.8919 26.6209 38.9081 26.653C38.9081 26.6691 38.9566 26.7173 39.0052 26.7173C39.0375 26.7173 39.0538 26.7173 39.07 26.7173C39.0861 26.7173 39.086 26.7173 39.1022 26.7173L39.07 26.7494L38.9566 26.8459C38.8919 26.9262 38.811 27.0066 38.7463 27.0869C38.4873 27.4405 38.2768 27.8583 38.0826 28.2922C37.9046 28.71 37.7266 29.16 37.581 29.5939C36.9498 31.3617 36.6261 33.2098 36.4157 35.074C36.2053 36.9381 36.0759 38.8184 35.9141 40.6986C35.8331 41.6307 35.7199 42.5789 35.5904 43.511C35.4447 44.4431 35.2666 45.3752 35.0401 46.2912C35.0239 46.3394 34.9754 46.3716 34.9106 46.3716C34.8621 46.3555 34.8297 46.3073 34.8297 46.2591C35.0401 45.343 35.2019 44.427 35.3313 43.4949C35.4608 42.5628 35.5417 41.6307 35.6226 40.6826C35.7683 38.8023 35.8492 36.9221 36.0596 35.0418C36.1082 34.5758 36.173 34.1097 36.2377 33.6276C36.3187 33.1616 36.3834 32.6955 36.4805 32.2295C36.5614 31.7634 36.6747 31.2974 36.8042 30.8314C36.9337 30.3653 37.0631 29.9153 37.2249 29.4654C37.3706 29.0154 37.5485 28.5654 37.7265 28.1315C37.9208 27.6976 38.1313 27.2637 38.4226 26.8459C38.5035 26.7494 38.5844 26.653 38.6654 26.5566L38.8272 26.428L38.8594 26.3959C38.8594 26.3959 38.8756 26.3798 38.8918 26.3798C38.908 26.3798 38.9242 26.3637 38.9404 26.3637C38.9565 26.3637 38.9728 26.3477 39.0052 26.3477C39.0213 26.3477 39.0698 26.3477 39.1022 26.3477C39.1831 26.3637 39.2478 26.428 39.264 26.4601C39.3126 26.5405 39.3127 26.5887 39.3127 26.6369C39.3127 26.6851 39.3127 26.7173 39.3127 26.7494C39.3127 26.8137 39.3126 26.878 39.2964 26.9423C39.2803 27.0708 39.264 27.1833 39.264 27.2958C39.264 27.3601 39.2479 27.4083 39.2479 27.4565C39.2479 27.4887 39.2479 27.5048 39.2479 27.5369L39.2479 27.6333C39.2479 27.7619 39.2479 27.8744 39.2479 28.0029C39.2317 28.244 39.2156 28.485 39.1994 28.71C39.0537 30.5903 38.7948 32.4705 38.4711 34.3347C38.1636 36.1989 37.7428 38.047 37.2734 39.879C36.7879 41.7111 36.2376 43.511 35.6226 45.3109C35.477 45.7609 35.3152 46.1948 35.1534 46.6447C34.9915 47.0947 34.8296 47.5286 34.6516 47.9625C34.3117 48.8464 33.9234 49.7142 33.535 50.5659C33.5188 50.6141 33.4541 50.6463 33.4055 50.6142C33.3246 50.5659 33.3084 50.5017 33.3246 50.4535Z" fill="#07453A"/>
<path d="M36.2222 42.5949C36.5621 41.92 36.9343 41.245 37.3551 40.6021C37.5493 40.2807 37.7759 39.9593 37.9863 39.654C38.2129 39.3487 38.4232 39.0272 38.6498 38.7219C39.5561 37.5005 40.5271 36.3113 41.5629 35.1864C42.5825 34.0615 43.6831 32.9847 44.816 31.9723C45.3824 31.458 45.9649 30.9759 46.5799 30.5099C46.8874 30.2849 47.1949 30.0599 47.5186 29.8349L48.0041 29.5296L48.2469 29.3689L48.3765 29.2885C48.4088 29.2724 48.3925 29.2724 48.4087 29.2724L48.4574 29.2403C48.4897 29.2082 48.5221 29.176 48.5868 29.1439C48.603 29.1278 48.6192 29.1278 48.6353 29.1117C48.6515 29.1117 48.6677 29.0957 48.6839 29.0957L48.7163 29.0796C48.7324 29.0796 48.7486 29.0796 48.7648 29.0796C48.7971 29.0796 48.8457 29.0796 48.8942 29.1117C48.9428 29.1278 48.9752 29.176 48.9914 29.2082C49.0076 29.2242 49.0076 29.2564 49.0238 29.2885L49.0238 29.3046C49.04 29.4171 49.0561 29.5296 49.0561 29.6421C49.0561 29.867 49.0076 30.0599 48.9429 30.2527C48.8134 30.6384 48.6353 30.992 48.4411 31.3295C48.0365 31.9884 47.551 32.599 47.0493 33.1776C46.5476 33.7561 46.0135 34.3025 45.4795 34.8489C44.9292 35.3793 44.3789 35.8935 43.7963 36.3917C41.482 38.3844 38.9735 40.1201 36.6268 42.0324C36.5782 42.0646 36.5136 42.0646 36.4812 42.0164C36.4489 41.9681 36.4488 41.9039 36.4973 41.8717C38.8278 39.9272 41.304 38.1434 43.5698 36.1346C44.1362 35.6364 44.6865 35.1221 45.2206 34.5918C45.7547 34.0454 46.2725 33.499 46.7581 32.9365C47.2436 32.358 47.7128 31.7634 48.085 31.1366C48.2792 30.8152 48.4412 30.4938 48.5383 30.1563C48.5869 29.9956 48.6192 29.8188 48.6192 29.6581C48.6192 29.5778 48.6191 29.4974 48.6029 29.4331L48.6029 29.4171C48.6029 29.4332 48.6192 29.4492 48.6192 29.4653C48.6354 29.4814 48.6678 29.5135 48.7001 29.5296C48.7325 29.5456 48.781 29.5457 48.7972 29.5457C48.8134 29.5457 48.8134 29.5457 48.8296 29.5457L48.8457 29.5457L48.862 29.5457C48.8458 29.5617 48.8133 29.5939 48.7648 29.626L48.7001 29.6742C48.684 29.6903 48.6354 29.7224 48.6192 29.7224L48.5059 29.8028L48.2631 29.9474L47.7937 30.2527C47.4862 30.4617 47.1787 30.6867 46.8712 30.9117C46.2724 31.3616 45.6899 31.8598 45.1397 32.358C44.0068 33.3704 42.9385 34.4311 41.9351 35.556C40.9155 36.681 39.9608 37.8541 39.0707 39.0594C38.1644 40.2647 37.3227 41.5182 36.4325 42.7395C36.4002 42.7877 36.3355 42.8038 36.287 42.7717C36.2061 42.6913 36.206 42.6431 36.2222 42.5949Z" fill="#07453A"/>
<path d="M39.3938 38.1915C39.5556 37.5487 39.7335 36.922 39.9115 36.2953L40.4457 34.3989C40.8018 33.1454 41.1415 31.8759 41.449 30.5902L41.9184 28.6778C42.0641 28.035 42.1936 27.3922 42.323 26.7493C42.4525 26.1065 42.5982 25.4637 42.7276 24.8209C42.7924 24.4995 42.841 24.1781 42.8734 23.8727C42.8734 23.7924 42.8895 23.712 42.8895 23.6317L42.8895 23.5674C42.8895 23.5513 42.8895 23.5192 42.8895 23.5352C42.582 23.487 43.3588 23.8245 43.2617 23.712L43.2456 23.7281L43.2293 23.7442L43.1484 23.8245L42.9704 23.9852C42.9057 24.0495 42.8571 24.0977 42.8086 24.162C41.9508 25.1102 41.3357 26.2833 40.8826 27.4886C40.4294 28.71 40.1058 29.9795 39.8469 31.2491C39.588 32.5347 39.3938 33.8204 39.2319 35.1221C39.0539 36.4238 38.9082 37.7255 38.7301 39.0272C38.7301 39.0755 38.6654 39.1237 38.6168 39.1076C38.5683 39.1076 38.5197 39.0433 38.5359 38.9951C38.8434 36.3916 39.0215 33.7561 39.5232 31.1687C39.766 29.867 40.0734 28.5814 40.5428 27.3279C40.9959 26.0905 41.611 24.8691 42.5173 23.8406C42.6306 23.712 42.7439 23.5995 42.8734 23.471L42.9704 23.3745L42.9865 23.3585L43.0028 23.3424C42.9057 23.2299 43.6987 23.5674 43.375 23.5352C43.375 23.5513 43.375 23.5353 43.375 23.5192L43.375 23.5834C43.375 23.6638 43.3589 23.7602 43.3589 23.8406C43.3265 24.1781 43.2779 24.5155 43.2132 24.837C43.0999 25.4798 42.9541 26.1226 42.8247 26.7654C42.6952 27.4082 42.5657 28.0511 42.4201 28.6939L41.967 30.6063C41.6595 31.8919 41.3358 33.1615 40.9798 34.4311C40.6237 35.7006 40.2029 36.9541 39.6527 38.1594C39.6365 38.2076 39.5718 38.2398 39.5232 38.2076C39.4099 38.288 39.3938 38.2237 39.3938 38.1915Z" fill="#07453A"/>
<path d="M40.4299 34.817C41.0934 33.7403 41.8542 32.7278 42.6795 31.7636C43.5049 30.7994 44.3789 29.8834 45.3014 29.0156C46.24 28.1478 47.2271 27.3603 48.1658 26.5246C49.1045 25.689 49.9946 24.8212 50.6743 23.7926C50.7552 23.6641 50.8362 23.5355 50.9171 23.4069L50.9495 23.3587L50.9658 23.3266C50.9819 23.3105 50.9495 23.3587 50.9495 23.4069C50.9333 23.4551 50.9818 23.5355 50.998 23.5676C51.0142 23.5998 51.0628 23.6159 51.0952 23.6319C51.1437 23.648 51.1437 23.6319 51.1598 23.6319L51.1437 23.6319C51.1275 23.6319 51.1114 23.6319 51.0952 23.648C51.0305 23.664 50.9658 23.6962 50.8848 23.7283C50.6097 23.8408 50.3184 23.9855 50.0432 24.114C49.4768 24.3872 48.9427 24.7086 48.441 25.0622C47.9231 25.4157 47.4375 25.8015 46.952 26.2032C46.4665 26.605 46.0133 27.0389 45.5764 27.4728C43.8123 29.2566 42.3558 31.3136 40.8669 33.3385C40.8345 33.3867 40.7697 33.3868 40.7212 33.3546C40.6726 33.3225 40.6727 33.2582 40.7051 33.21C42.1454 31.1529 43.5696 29.0477 45.3336 27.2157C45.7706 26.7657 46.2237 26.3157 46.7092 25.8979C47.1948 25.48 47.6966 25.0944 48.2145 24.7247C48.7324 24.3551 49.2825 24.0176 49.8651 23.7283C50.1564 23.5837 50.4316 23.4391 50.7391 23.3105C50.82 23.2784 50.8848 23.2462 50.9819 23.2141C50.9981 23.2141 51.0305 23.198 51.0467 23.198C51.0629 23.198 51.079 23.198 51.0952 23.1819C51.1114 23.1819 51.1438 23.1659 51.2085 23.1819C51.2409 23.1819 51.2893 23.2141 51.3217 23.2462C51.354 23.2784 51.3865 23.3587 51.3865 23.423C51.3865 23.4712 51.3541 23.5355 51.3541 23.5194L51.338 23.5516L51.3056 23.5998C51.2246 23.7444 51.1437 23.889 51.0628 24.0176C50.3669 25.1104 49.4282 26.0103 48.4895 26.8621C47.5508 27.7138 46.5475 28.5013 45.6412 29.353C44.7349 30.2048 43.8771 31.1208 43.0517 32.069C42.2264 33.0171 41.4333 33.9814 40.5917 34.9295C40.5594 34.9777 40.4947 34.9777 40.4462 34.9295C40.4138 34.9135 40.4137 34.8492 40.4299 34.817Z" fill="#07453A"/>
<path d="M40.4622 28.1957C40.3651 26.8458 40.4137 25.5119 40.4137 24.178C40.4137 22.8442 40.349 21.5104 40.1224 20.2247C40.09 20.064 40.0576 19.9033 40.0252 19.7426C39.9928 19.5819 39.9604 19.4212 39.9119 19.2605L39.7824 18.7944L39.6206 18.3284C39.5882 18.248 39.5721 18.1677 39.5397 18.1034L39.4426 17.8784C39.3779 17.7338 39.3132 17.5731 39.2323 17.4445L38.9895 17.0267C38.9733 16.9945 38.9409 16.9463 38.9247 16.9303C38.9085 16.9142 38.8923 16.8821 38.8599 16.8499C38.8114 16.7856 38.7466 16.7374 38.6981 16.6731C38.2449 16.191 37.7595 15.741 37.2578 15.3071C36.9989 15.0982 36.74 14.8893 36.481 14.7125C36.3515 14.6322 36.2058 14.5357 36.0925 14.5036C36.0602 14.4875 36.0439 14.4875 36.0277 14.4875L36.044 14.4875C36.044 14.5197 36.2058 14.2626 36.1411 14.3108C36.1411 14.2947 36.1411 14.2947 36.1411 14.2786C36.1411 14.2626 36.1411 14.2947 36.1573 14.3108L36.1734 14.375L36.2058 14.4875C36.3515 15.1303 36.578 15.741 36.8693 16.3196C37.1768 16.8981 37.5328 17.4606 37.8889 18.0391C38.601 19.1801 39.1513 20.4658 39.4912 21.7675C39.8472 23.0692 40.0252 24.4191 40.1061 25.7691C40.187 27.119 40.1547 28.4528 40.0576 29.8027C40.0576 29.8509 40.009 29.8992 39.9443 29.8992C39.8957 29.8992 39.8472 29.851 39.8472 29.7867C39.9929 27.119 39.8634 24.4191 39.1351 21.8639C38.9571 21.2211 38.7305 20.5943 38.4716 19.9997C38.2127 19.389 37.889 18.8266 37.533 18.248C37.1769 17.6695 36.8209 17.1231 36.481 16.5124C36.1573 15.9017 35.9307 15.2428 35.7689 14.584L35.7041 14.3268C35.7041 14.3107 35.7041 14.3108 35.7041 14.2786C35.6393 14.3268 35.8012 14.0697 35.8174 14.0858L35.8498 14.0697C35.866 14.0536 35.8984 14.0536 35.9146 14.0376C35.9631 14.0215 35.9955 14.0215 36.044 14.0215C36.1087 14.0215 36.1734 14.0375 36.222 14.0536C36.4324 14.1179 36.5781 14.2143 36.7238 14.3108C37.0151 14.5036 37.2901 14.7125 37.5491 14.9375C38.067 15.3714 38.5687 15.8374 39.038 16.3356C39.1028 16.3999 39.1513 16.4642 39.216 16.5285C39.2484 16.5606 39.2808 16.5928 39.3132 16.641C39.3456 16.6892 39.3617 16.7213 39.3778 16.7535L39.6369 17.2035C39.7178 17.3481 39.7824 17.5088 39.8634 17.6695L39.9767 17.9105C40.0091 17.9909 40.0414 18.0712 40.0737 18.1516L40.2518 18.6337L40.3974 19.1319C40.446 19.2926 40.4785 19.4694 40.527 19.6301C40.5594 19.7908 40.6078 19.9676 40.6402 20.1283C40.8829 21.4621 40.9477 22.8281 40.9477 24.178C40.9477 25.528 40.8667 26.8618 40.7211 28.1957C40.7211 28.2439 40.6727 28.2921 40.6079 28.2921C40.5108 28.276 40.4622 28.2439 40.4622 28.1957Z" fill="#07453A"/>
<path d="M40.6082 25.8978C41.1423 24.13 41.7573 22.3944 42.4694 20.6909C43.1977 18.9875 44.023 17.3161 45.0425 15.7573C46.0621 14.1985 47.3083 12.7842 48.7163 11.5629C49.4284 10.9522 50.1891 10.4058 51.0306 9.95582C51.4676 9.73084 51.937 9.5862 52.3901 9.47371L52.5681 9.44157L52.649 9.42551C52.6652 9.42551 52.6814 9.40944 52.7138 9.40944C52.8109 9.3773 52.9079 9.32908 53.0212 9.29694C53.1345 9.24872 53.2316 9.20052 53.3773 9.16838C53.4097 9.15231 53.4421 9.1523 53.4906 9.13623C53.523 9.13623 53.5391 9.13623 53.5877 9.13623C53.6038 9.13623 53.6362 9.1523 53.6686 9.1523C53.7009 9.16837 53.7495 9.18444 53.7819 9.23265C53.8143 9.28086 53.8304 9.31301 53.8304 9.36122C53.8304 9.39336 53.8304 9.4255 53.8304 9.44157C53.8304 9.48979 53.8144 9.50585 53.7982 9.53799L53.7495 9.63441C53.62 9.87547 53.4583 10.0523 53.3127 10.229C53.1508 10.4058 52.9889 10.5665 52.8109 10.7433C52.471 11.0647 52.1149 11.37 51.7589 11.6754C51.0468 12.27 50.3186 12.8485 49.6065 13.4271C48.8944 14.0056 48.1499 14.5681 47.5025 15.1948C46.8876 15.8377 46.3049 16.5608 45.7708 17.3C43.6345 20.2892 42.1133 23.664 40.2683 26.862C40.2359 26.9102 40.1713 26.9263 40.1227 26.8942C40.0742 26.862 40.0579 26.8138 40.0903 26.7656C40.9966 25.1586 41.8057 23.5033 42.6635 21.8802C43.5212 20.241 44.4114 18.6178 45.4795 17.1072C46.0136 16.3519 46.5801 15.6287 47.2437 14.9377C47.9234 14.2788 48.6516 13.7163 49.3637 13.1217C50.0758 12.5432 50.8041 11.9646 51.5 11.37C51.8561 11.0647 52.1959 10.7754 52.5196 10.454C52.6814 10.2933 52.8433 10.1326 52.989 9.97191C53.1346 9.8112 53.2803 9.63442 53.3612 9.45764L53.3936 9.39336C53.3936 9.39336 53.3936 9.39337 53.3936 9.40944C53.3936 9.40944 53.3936 9.44157 53.3936 9.45764C53.3936 9.48978 53.4096 9.52192 53.4258 9.55406C53.4582 9.5862 53.4744 9.60228 53.5067 9.60228C53.5229 9.60228 53.5391 9.61835 53.5391 9.61835C53.5553 9.61835 53.5553 9.61835 53.5391 9.61835C53.5229 9.61835 53.5068 9.61834 53.4906 9.63441C53.3935 9.66655 53.2963 9.69871 53.1831 9.74692C53.0698 9.79513 52.9727 9.84333 52.8433 9.87547C52.8109 9.89154 52.7786 9.89155 52.7462 9.90762L52.6653 9.92369L52.5035 9.95582C52.0665 10.0683 51.6457 10.1969 51.2573 10.4058C50.4642 10.8397 49.7197 11.37 49.04 11.9646C48.7002 12.27 48.3603 12.5753 48.0366 12.8967C47.8747 13.0574 47.7129 13.2181 47.5511 13.3949C47.3892 13.5556 47.2436 13.7324 47.0979 13.9092C46.4991 14.6002 45.9489 15.3234 45.4471 16.0948C44.4437 17.6215 43.6346 19.2767 42.9225 20.9641C42.5665 21.8159 42.2266 22.6516 41.8706 23.5033C41.5307 24.355 41.1746 25.2068 40.7862 26.0424C40.77 26.0907 40.7053 26.1228 40.6568 26.0907C40.6244 26.0103 40.5921 25.946 40.6082 25.8978Z" fill="#07453A"/>
<path d="M42.4691 21.1086C42.55 19.5177 42.7765 17.9427 43.0193 16.3678L43.3915 14.0215L43.5696 12.8484L43.7799 11.6752L44.1845 9.32893L44.3949 8.15578L44.6052 6.98262C44.8965 5.42378 45.1071 3.86494 44.8158 2.32217C44.7672 1.93648 44.7024 1.53471 44.5891 1.19723C44.5568 1.11688 44.5244 1.02047 44.5082 1.0044C44.5082 1.0044 44.5081 1.00439 44.5243 1.02046C44.5243 1.02046 44.5244 1.02046 44.5406 1.02046C44.5892 1.02046 44.4434 1.00439 44.6376 1.03653C44.8966 0.924035 44.7834 0.891902 44.8158 0.924043L44.7995 0.972262L44.751 1.11688L44.6539 1.39009L44.573 1.66328C44.3464 2.4186 44.1846 3.18999 44.0551 3.96138C43.9904 4.34707 43.9255 4.74882 43.877 5.13451C43.8122 5.53627 43.7475 5.92197 43.6666 6.30767C43.521 7.09512 43.343 7.86651 43.1974 8.63789C43.0517 9.40928 42.9384 10.1967 42.8898 10.9842C42.8413 11.7716 42.8574 12.5591 42.9059 13.3466C43.0031 14.9215 43.2135 16.5124 43.165 18.1195C43.165 18.1677 43.1163 18.2159 43.0678 18.2159C43.0192 18.2159 42.9707 18.1677 42.9707 18.1195C42.9869 16.5446 42.7604 14.9697 42.631 13.3787C42.5662 12.5912 42.5338 11.7877 42.5662 10.9842C42.5985 10.1807 42.7118 9.37714 42.8574 8.60576C43.0031 7.8183 43.1649 7.0469 43.3105 6.25945C43.3753 5.87376 43.4562 5.48807 43.5048 5.08631C43.5695 4.70062 43.6182 4.29885 43.6829 3.91316C43.8124 3.1257 43.958 2.33825 44.1845 1.56686L44.2654 1.27759L44.3625 0.988329L44.4112 0.84369C44.4273 0.811549 44.4272 0.795479 44.4434 0.763338C44.4758 0.779408 44.3626 0.747259 44.6215 0.634766C44.8157 0.666907 44.6863 0.650852 44.7348 0.650852L44.7671 0.666918C44.7833 0.682989 44.8157 0.699048 44.8319 0.715118C44.9452 0.843682 44.9776 0.956192 45.0261 1.05261C45.1556 1.47045 45.2203 1.85614 45.285 2.2579C45.3174 2.43468 45.3497 2.65966 45.3659 2.85251C45.3983 3.06142 45.3982 3.25428 45.4144 3.46319C45.4306 3.86496 45.4307 4.28279 45.3983 4.68455C45.3498 5.48807 45.2203 6.29159 45.0746 7.06297L44.8643 8.23613L44.67 9.40929L44.2654 11.7556C43.7314 14.8893 43.3268 18.0391 42.6795 21.1568C42.6633 21.205 42.6147 21.2532 42.5662 21.2372C42.5014 21.205 42.4691 21.1568 42.4691 21.1086Z" fill="#07453A"/>
<path d="M30.784 48.0265C30.5898 46.532 30.4926 45.0374 30.3631 43.5589C30.2498 42.0644 30.0395 40.6019 29.7805 39.1234C29.5054 37.661 29.2303 36.1825 28.8419 34.7523C28.6477 34.0291 28.4373 33.322 28.1622 32.647C28.0974 32.4863 28.0164 32.3095 27.9355 32.1649C27.8546 32.0042 27.7575 31.8596 27.6442 31.7471L27.5957 31.7149L27.5796 31.6989C27.5634 31.6828 27.5957 31.7149 27.6118 31.7149C27.6442 31.731 27.6766 31.731 27.7252 31.731C27.7413 31.731 27.7576 31.7149 27.79 31.7149C27.8061 31.6989 27.8224 31.6988 27.8224 31.6828L27.8385 31.6667L27.8546 31.6506L27.8546 31.6346C27.8546 31.6346 27.8546 31.6507 27.8546 31.6667C27.8384 31.731 27.8384 31.8274 27.8061 31.956L27.7252 32.2292C27.709 32.3095 27.6767 32.4059 27.6605 32.4863C27.5796 32.8399 27.5472 33.1934 27.5148 33.5631C27.4824 33.9327 27.4824 34.3023 27.4824 34.6719C27.4986 35.4112 27.5634 36.1504 27.6605 36.8896C27.7576 37.6289 27.887 38.3681 28.0003 39.1074L28.3401 41.3251C28.8094 44.2821 29.3759 47.223 30.444 50.0193C30.4602 50.0675 30.4441 50.1318 30.3794 50.1478C30.3308 50.1639 30.2661 50.1478 30.2499 50.0835C29.1171 47.2873 28.4859 44.3303 27.9842 41.3733L27.6118 39.1556C27.4986 38.4163 27.3692 37.6771 27.2559 36.9379C27.0455 35.4433 26.9322 33.9166 27.2235 32.3899C27.2397 32.2935 27.272 32.197 27.2882 32.1006L27.3206 31.956L27.353 31.8274C27.3691 31.7631 27.3692 31.6667 27.3854 31.5542C27.3854 31.5221 27.4016 31.4899 27.4178 31.4417C27.4178 31.4256 27.4339 31.4096 27.4339 31.3935C27.4339 31.3775 27.4662 31.3453 27.4824 31.3292C27.4986 31.3132 27.5633 31.281 27.6118 31.265C27.6604 31.2489 27.709 31.2649 27.7576 31.281C27.8061 31.2971 27.8546 31.3453 27.8546 31.3453L27.887 31.3774L27.9518 31.4417C28.0975 31.6024 28.2108 31.7792 28.3079 31.9399C28.405 32.1167 28.4858 32.2935 28.5667 32.4703C28.8742 33.1774 29.0847 33.9005 29.2789 34.6398C29.6673 36.1022 29.9585 37.5807 30.2337 39.0431C30.8001 42.0001 31.0429 45.0213 30.9782 48.0104C30.9782 48.0587 30.9296 48.1069 30.881 48.1069C30.8325 48.123 30.8001 48.0747 30.784 48.0265Z" fill="#07453A"/>
<path d="M35.5907 43.3017C35.2832 41.9196 35.0727 40.5375 34.8461 39.1555C34.6357 37.7734 34.3768 36.3914 34.0855 35.0254C33.778 33.6594 33.4381 32.2934 32.985 30.9756C32.7584 30.3167 32.5157 29.6578 32.2082 29.0471C32.1273 28.9025 32.0463 28.7418 31.9654 28.5971L31.9006 28.4847C31.8682 28.4365 31.8521 28.3883 31.8197 28.34C31.7873 28.2597 31.7389 28.1793 31.7065 28.115C31.6903 28.0829 31.6741 28.0508 31.6741 28.0508C31.6903 28.0668 31.6903 28.0668 31.7065 28.0829C31.7065 28.0829 31.7226 28.0829 31.7388 28.099C31.755 28.099 31.7874 28.099 31.8036 28.099C31.8521 28.0829 31.8682 28.0829 31.9006 28.0508C31.9168 28.0347 31.933 28.0186 31.933 28.0186L31.933 28.0025C31.933 28.0025 31.9331 27.9865 31.9493 27.9865L31.9493 28.0025L31.8845 28.2275L31.8521 28.4686C31.8359 28.5489 31.836 28.6293 31.836 28.7096C31.8198 29.0471 31.8359 29.3846 31.8845 29.7221C31.933 30.0596 31.9977 30.3971 32.0625 30.7345C32.2081 31.4095 32.4186 32.0845 32.6128 32.7594C32.807 33.4344 33.0012 34.1093 33.2116 34.7843L33.8266 36.7931C34.2312 38.143 34.6358 39.493 34.9433 40.8751C35.2508 42.2571 35.4612 43.6552 35.5098 45.0694C35.5098 45.1177 35.4611 45.1659 35.4126 45.1659C35.364 45.1659 35.3155 45.1177 35.3155 45.0694C35.2508 43.6713 35.008 42.2892 34.6843 40.9232C34.3606 39.5572 33.9398 38.2234 33.519 36.8896L32.8717 34.8807C32.6613 34.2058 32.4671 33.5308 32.2567 32.8558C32.0463 32.1809 31.836 31.5059 31.6741 30.8149C31.5932 30.4613 31.5284 30.1238 31.4799 29.7542C31.4313 29.4007 31.3989 29.0311 31.4151 28.6615C31.4151 28.565 31.4314 28.4686 31.4314 28.3882L31.4799 28.115L31.5608 27.8418C31.5608 27.8258 31.5607 27.8258 31.5769 27.7936C31.5769 27.7776 31.5931 27.7615 31.6093 27.7454L31.6256 27.7294C31.6256 27.7133 31.6579 27.6972 31.6741 27.6811C31.7065 27.649 31.7388 27.6329 31.8036 27.6329C31.8521 27.6168 31.933 27.649 31.933 27.649C31.9492 27.6651 31.9816 27.6812 31.9978 27.6972C32.014 27.7133 32.014 27.7133 32.0302 27.7294C32.0949 27.8097 32.1111 27.8418 32.1273 27.8901C32.1758 27.9704 32.2082 28.0668 32.2406 28.1311C32.2568 28.1633 32.2729 28.2114 32.2891 28.2275L32.3539 28.34C32.451 28.5007 32.5318 28.6615 32.6289 28.8222C32.9526 29.465 33.2115 30.1238 33.4381 30.7988C33.8912 32.1487 34.2474 33.5147 34.5548 34.8807C34.8623 36.2628 35.1214 37.6449 35.3479 39.043C35.5745 40.4411 35.7362 41.8393 35.8172 43.2374C35.8172 43.2856 35.7849 43.3338 35.7201 43.3499C35.6554 43.382 35.6069 43.3499 35.5907 43.3017Z" fill="#07453A"/>
</svg>
